<?xml version="1.0" encoding="UTF-8" standalone="no"?>
<!DOCTYPE svg PUBLIC "-//W3C//DTD SVG 1.1//EN"
 "http://www.w3.org/Graphics/SVG/1.1/DTD/svg11.dtd">
<!-- Generated by graphviz version 2.43.0 (0)
 -->
<!-- Title: language/BindingUsage.h Pages: 1 -->
<!--zoomable 252 -->
<svg id="main" version="1.1" xmlns="http://www.w3.org/2000/svg" xmlns:xlink="http://www.w3.org/1999/xlink" xml:space="preserve" onload="init(evt)">
<style type="text/css"><![CDATA[
.edge:hover path { stroke: red; }
.edge:hover polygon { stroke: red; fill: red; }
]]></style>
<script type="text/javascript"><![CDATA[
var edges = document.getElementsByTagName('g');
if (edges && edges.length) {
  for (var i=0;i<edges.length;i++) {
    if (edges[i].id.substr(0,4)=='edge') {
      edges[i].setAttribute('class','edge');
    }
  }
}
]]></script>
        <defs>
                <circle id="rim" cx="0" cy="0" r="7"/>
                <circle id="rim2" cx="0" cy="0" r="3.5"/>
                <g id="zoomPlus">
                        <use xlink:href="#rim" fill="#404040">
                                <set attributeName="fill" to="#808080" begin="zoomplus.mouseover" end="zoomplus.mouseout"/>
                        </use>
                        <path d="M-4,0h8M0,-4v8" fill="none" stroke="white" stroke-width="1.5" pointer-events="none"/>
                </g>
                <g id="zoomMin">
                        <use xlink:href="#rim" fill="#404040">
                                <set attributeName="fill" to="#808080" begin="zoomminus.mouseover" end="zoomminus.mouseout"/>
                        </use>
                        <path d="M-4,0h8" fill="none" stroke="white" stroke-width="1.5" pointer-events="none"/>
                </g>
                <g id="dirArrow">
                        <path fill="none" stroke="white" stroke-width="1.5" d="M0,-3.0v7 M-2.5,-0.5L0,-3.0L2.5,-0.5"/>
                </g>
               <g id="resetDef">
                       <use xlink:href="#rim2" fill="#404040">
                               <set attributeName="fill" to="#808080" begin="reset.mouseover" end="reset.mouseout"/>
                       </use>
               </g>
        </defs>

<script type="text/javascript">
var viewWidth = 1225;
var viewHeight = 252;
var sectionId = 'dynsection-1';
</script>
<script xlink:href="svgpan.js"/>
<svg id="graph" class="graph">
<g id="viewport">
<title>language/BindingUsage.h</title>
<polygon fill="white" stroke="transparent" points="-4,4 -4,-248 1220.5,-248 1220.5,4 -4,4"/>
<!-- Node1 -->
<g id="node1" class="node">
<title>Node1</title>
<g id="a_node1"><a xlink:title=" ">
<polygon fill="#bfbfbf" stroke="black" points="195.5,-224.5 195.5,-243.5 336.5,-243.5 336.5,-224.5 195.5,-224.5"/>
<text text-anchor="middle" x="266" y="-231.5" font-family="Helvetica,sans-Serif" font-size="10.00">language/BindingUsage.h</text>
</a>
</g>
</g>
<!-- Node2 -->
<g id="node2" class="node">
<title>Node2</title>
<g id="a_node2"><a xlink:href="_expr_8h.html" target="_top" xlink:title=" ">
<polygon fill="white" stroke="black" points="368.5,-168.5 368.5,-187.5 463.5,-187.5 463.5,-168.5 368.5,-168.5"/>
<text text-anchor="middle" x="416" y="-175.5" font-family="Helvetica,sans-Serif" font-size="10.00">language/Expr.h</text>
</a>
</g>
</g>
<!-- Node1&#45;&gt;Node2 -->
<g id="edge1" class="edge">
<title>Node1&#45;&gt;Node2</title>
<path fill="none" stroke="midnightblue" d="M299.22,-221.04C327.45,-210.88 367.26,-196.55 392.34,-187.52"/>
<polygon fill="midnightblue" stroke="midnightblue" points="297.99,-217.76 289.77,-224.44 300.36,-224.35 297.99,-217.76"/>
</g>
<!-- Node6 -->
<g id="node6" class="node">
<title>Node6</title>
<g id="a_node6"><a xlink:href="_binding_usage_8cc.html" target="_top" xlink:title=" ">
<polygon fill="white" stroke="black" points="0,-0.5 0,-19.5 146,-19.5 146,-0.5 0,-0.5"/>
<text text-anchor="middle" x="73" y="-7.5" font-family="Helvetica,sans-Serif" font-size="10.00">language/BindingUsage.cc</text>
</a>
</g>
</g>
<!-- Node1&#45;&gt;Node6 -->
<g id="edge20" class="edge">
<title>Node1&#45;&gt;Node6</title>
<path fill="none" stroke="midnightblue" d="M251.7,-216.56C213.48,-172.59 109.87,-53.41 80.72,-19.88"/>
<polygon fill="midnightblue" stroke="midnightblue" points="249.23,-219.05 258.43,-224.3 254.51,-214.45 249.23,-219.05"/>
</g>
<!-- Node14 -->
<g id="node14" class="node">
<title>Node14</title>
<g id="a_node14"><a xlink:href="_test_bind_8cc.html" target="_top" xlink:title=" ">
<polygon fill="white" stroke="black" points="164.5,-0.5 164.5,-19.5 305.5,-19.5 305.5,-0.5 164.5,-0.5"/>
<text text-anchor="middle" x="235" y="-7.5" font-family="Helvetica,sans-Serif" font-size="10.00">language/test/TestBind.cc</text>
</a>
</g>
</g>
<!-- Node1&#45;&gt;Node14 -->
<g id="edge22" class="edge">
<title>Node1&#45;&gt;Node14</title>
<path fill="none" stroke="midnightblue" d="M259.6,-214.72C249.87,-185.75 231.99,-127.31 227,-76 225.04,-55.86 229.67,-32.3 232.68,-19.82"/>
<polygon fill="midnightblue" stroke="midnightblue" points="256.33,-215.98 262.88,-224.31 262.95,-213.71 256.33,-215.98"/>
</g>
<!-- Node15 -->
<g id="node15" class="node">
<title>Node15</title>
<g id="a_node15"><a xlink:href="_i_statment_8cc.html" target="_top" xlink:title=" ">
<polygon fill="white" stroke="black" points="687,-56.5 687,-75.5 813,-75.5 813,-56.5 687,-56.5"/>
<text text-anchor="middle" x="750" y="-63.5" font-family="Helvetica,sans-Serif" font-size="10.00">language/IStatment.cc</text>
</a>
</g>
</g>
<!-- Node1&#45;&gt;Node15 -->
<g id="edge21" class="edge">
<title>Node1&#45;&gt;Node15</title>
<path fill="none" stroke="midnightblue" d="M346.83,-232.01C440.94,-227.15 597.33,-207.19 706,-132 726.84,-117.58 740.63,-89.8 746.6,-75.69"/>
<polygon fill="midnightblue" stroke="midnightblue" points="346.62,-228.52 336.8,-232.49 346.95,-235.51 346.62,-228.52"/>
</g>
<!-- Node3 -->
<g id="node3" class="node">
<title>Node3</title>
<g id="a_node3"><a xlink:href="_bind_def_8h.html" target="_top" xlink:title=" ">
<polygon fill="white" stroke="black" points="585,-112.5 585,-131.5 697,-131.5 697,-112.5 585,-112.5"/>
<text text-anchor="middle" x="641" y="-119.5" font-family="Helvetica,sans-Serif" font-size="10.00">language/BindDef.h</text>
</a>
</g>
</g>
<!-- Node2&#45;&gt;Node3 -->
<g id="edge2" class="edge">
<title>Node2&#45;&gt;Node3</title>
<path fill="none" stroke="midnightblue" d="M461.47,-166.09C503.97,-155.89 566.58,-140.86 605.51,-131.52"/>
<polygon fill="midnightblue" stroke="midnightblue" points="460.56,-162.71 451.65,-168.44 462.19,-169.51 460.56,-162.71"/>
</g>
<!-- Node9 -->
<g id="node9" class="node">
<title>Node9</title>
<g id="a_node9"><a xlink:href="_expr_8cc.html" target="_top" xlink:title=" ">
<polygon fill="white" stroke="black" points="1117.5,-0.5 1117.5,-19.5 1216.5,-19.5 1216.5,-0.5 1117.5,-0.5"/>
<text text-anchor="middle" x="1167" y="-7.5" font-family="Helvetica,sans-Serif" font-size="10.00">language/Expr.cc</text>
</a>
</g>
</g>
<!-- Node2&#45;&gt;Node9 -->
<g id="edge16" class="edge">
<title>Node2&#45;&gt;Node9</title>
<path fill="none" stroke="midnightblue" d="M473.94,-169.79C532.71,-162.07 626.13,-148.63 706,-132 871.66,-97.5 1066.83,-40.91 1138.65,-19.53"/>
<polygon fill="midnightblue" stroke="midnightblue" points="473.2,-166.36 463.74,-171.12 474.11,-173.3 473.2,-166.36"/>
</g>
<!-- Node2&#45;&gt;Node14 -->
<g id="edge17" class="edge">
<title>Node2&#45;&gt;Node14</title>
<path fill="none" stroke="midnightblue" d="M358.26,-175.96C323.05,-172.13 279.98,-161.16 254,-132 225,-99.45 230.26,-41.44 233.51,-19.62"/>
<polygon fill="midnightblue" stroke="midnightblue" points="358.15,-179.47 368.43,-176.9 358.79,-172.5 358.15,-179.47"/>
</g>
<!-- Node16 -->
<g id="node16" class="node">
<title>Node16</title>
<g id="a_node16"><a xlink:href="_test_block_8cc.html" target="_top" xlink:title=" ">
<polygon fill="white" stroke="black" points="263,-112.5 263,-131.5 409,-131.5 409,-112.5 263,-112.5"/>
<text text-anchor="middle" x="336" y="-119.5" font-family="Helvetica,sans-Serif" font-size="10.00">language/test/TestBlock.cc</text>
</a>
</g>
</g>
<!-- Node2&#45;&gt;Node16 -->
<g id="edge18" class="edge">
<title>Node2&#45;&gt;Node16</title>
<path fill="none" stroke="midnightblue" d="M394.7,-162.62C380.08,-152.76 361.17,-139.99 348.82,-131.65"/>
<polygon fill="midnightblue" stroke="midnightblue" points="392.9,-165.63 403.15,-168.32 396.82,-159.83 392.9,-165.63"/>
</g>
<!-- Node17 -->
<g id="node17" class="node">
<title>Node17</title>
<g id="a_node17"><a xlink:href="_test_expr_8cc.html" target="_top" xlink:title=" ">
<polygon fill="white" stroke="black" points="427,-112.5 427,-131.5 567,-131.5 567,-112.5 427,-112.5"/>
<text text-anchor="middle" x="497" y="-119.5" font-family="Helvetica,sans-Serif" font-size="10.00">language/test/TestExpr.cc</text>
</a>
</g>
</g>
<!-- Node2&#45;&gt;Node17 -->
<g id="edge19" class="edge">
<title>Node2&#45;&gt;Node17</title>
<path fill="none" stroke="midnightblue" d="M437.57,-162.62C452.36,-152.76 471.51,-139.99 484.02,-131.65"/>
<polygon fill="midnightblue" stroke="midnightblue" points="435.39,-159.86 429.01,-168.32 439.28,-165.69 435.39,-159.86"/>
</g>
<!-- Node4 -->
<g id="node4" class="node">
<title>Node4</title>
<g id="a_node4"><a xlink:href="_bind_def_8cc.html" target="_top" xlink:title=" ">
<polygon fill="white" stroke="black" points="441,-56.5 441,-75.5 557,-75.5 557,-56.5 441,-56.5"/>
<text text-anchor="middle" x="499" y="-63.5" font-family="Helvetica,sans-Serif" font-size="10.00">language/BindDef.cc</text>
</a>
</g>
</g>
<!-- Node3&#45;&gt;Node4 -->
<g id="edge3" class="edge">
<title>Node3&#45;&gt;Node4</title>
<path fill="none" stroke="midnightblue" d="M608.84,-108.77C582.17,-98.63 544.93,-84.47 521.4,-75.52"/>
<polygon fill="midnightblue" stroke="midnightblue" points="607.91,-112.16 618.5,-112.44 610.4,-105.62 607.91,-112.16"/>
</g>
<!-- Node5 -->
<g id="node5" class="node">
<title>Node5</title>
<g id="a_node5"><a xlink:href="_null_8h.html" target="_top" xlink:title=" ">
<polygon fill="white" stroke="black" points="575.5,-56.5 575.5,-75.5 668.5,-75.5 668.5,-56.5 575.5,-56.5"/>
<text text-anchor="middle" x="622" y="-63.5" font-family="Helvetica,sans-Serif" font-size="10.00">language/Null.h</text>
</a>
</g>
</g>
<!-- Node3&#45;&gt;Node5 -->
<g id="edge4" class="edge">
<title>Node3&#45;&gt;Node5</title>
<path fill="none" stroke="midnightblue" d="M634.45,-102.4C631.28,-93.36 627.61,-82.94 625.08,-75.75"/>
<polygon fill="midnightblue" stroke="midnightblue" points="631.24,-103.81 637.86,-112.08 637.85,-101.49 631.24,-103.81"/>
</g>
<!-- Node3&#45;&gt;Node14 -->
<g id="edge15" class="edge">
<title>Node3&#45;&gt;Node14</title>
<path fill="none" stroke="midnightblue" d="M584.75,-110.58C542.46,-102.34 483.23,-89.92 432,-76 368.23,-58.67 294.66,-32.79 258.11,-19.52"/>
<polygon fill="midnightblue" stroke="midnightblue" points="584.1,-114.02 594.59,-112.48 585.43,-107.15 584.1,-114.02"/>
</g>
<!-- Node3&#45;&gt;Node15 -->
<g id="edge14" class="edge">
<title>Node3&#45;&gt;Node15</title>
<path fill="none" stroke="midnightblue" d="M667.52,-107.86C687.73,-97.85 714.99,-84.35 732.53,-75.65"/>
<polygon fill="midnightblue" stroke="midnightblue" points="665.92,-104.75 658.51,-112.32 669.03,-111.02 665.92,-104.75"/>
</g>
<!-- Node5&#45;&gt;Node6 -->
<g id="edge5" class="edge">
<title>Node5&#45;&gt;Node6</title>
<path fill="none" stroke="midnightblue" d="M565.33,-56.01C382.35,-33.59 334.27,-37.69 155,-20 152.15,-19.72 149.24,-19.43 146.31,-19.13"/>
<polygon fill="midnightblue" stroke="midnightblue" points="564.93,-59.48 575.28,-57.23 565.79,-52.54 564.93,-59.48"/>
</g>
<!-- Node7 -->
<g id="node7" class="node">
<title>Node7</title>
<g id="a_node7"><a xlink:href="_block_8cc.html" target="_top" xlink:title=" ">
<polygon fill="white" stroke="black" points="569.5,-0.5 569.5,-19.5 674.5,-19.5 674.5,-0.5 569.5,-0.5"/>
<text text-anchor="middle" x="622" y="-7.5" font-family="Helvetica,sans-Serif" font-size="10.00">language/Block.cc</text>
</a>
</g>
</g>
<!-- Node5&#45;&gt;Node7 -->
<g id="edge6" class="edge">
<title>Node5&#45;&gt;Node7</title>
<path fill="none" stroke="midnightblue" d="M622,-45.8C622,-36.91 622,-26.78 622,-19.75"/>
<polygon fill="midnightblue" stroke="midnightblue" points="618.5,-46.08 622,-56.08 625.5,-46.08 618.5,-46.08"/>
</g>
<!-- Node8 -->
<g id="node8" class="node">
<title>Node8</title>
<g id="a_node8"><a xlink:href="_conditional_8cc.html" target="_top" xlink:title=" ">
<polygon fill="white" stroke="black" points="693,-0.5 693,-19.5 827,-19.5 827,-0.5 693,-0.5"/>
<text text-anchor="middle" x="760" y="-7.5" font-family="Helvetica,sans-Serif" font-size="10.00">language/Conditional.cc</text>
</a>
</g>
</g>
<!-- Node5&#45;&gt;Node8 -->
<g id="edge7" class="edge">
<title>Node5&#45;&gt;Node8</title>
<path fill="none" stroke="midnightblue" d="M653.25,-52.77C679.17,-42.63 715.36,-28.47 738.24,-19.52"/>
<polygon fill="midnightblue" stroke="midnightblue" points="651.9,-49.54 643.87,-56.44 654.45,-56.06 651.9,-49.54"/>
</g>
<!-- Node5&#45;&gt;Node9 -->
<g id="edge8" class="edge">
<title>Node5&#45;&gt;Node9</title>
<path fill="none" stroke="midnightblue" d="M678.84,-55.99C870.54,-33.07 921.39,-42.36 1109,-20 1111.73,-19.67 1114.53,-19.32 1117.36,-18.94"/>
<polygon fill="midnightblue" stroke="midnightblue" points="678.22,-52.54 668.71,-57.22 679.06,-59.49 678.22,-52.54"/>
</g>
<!-- Node10 -->
<g id="node10" class="node">
<title>Node10</title>
<g id="a_node10"><a xlink:href="_func_call_8cc.html" target="_top" xlink:title=" ">
<polygon fill="white" stroke="black" points="845.5,-0.5 845.5,-19.5 964.5,-19.5 964.5,-0.5 845.5,-0.5"/>
<text text-anchor="middle" x="905" y="-7.5" font-family="Helvetica,sans-Serif" font-size="10.00">language/FuncCall.cc</text>
</a>
</g>
</g>
<!-- Node5&#45;&gt;Node10 -->
<g id="edge9" class="edge">
<title>Node5&#45;&gt;Node10</title>
<path fill="none" stroke="midnightblue" d="M676.83,-54.54C730.32,-44.33 810.67,-29 860.37,-19.52"/>
<polygon fill="midnightblue" stroke="midnightblue" points="676.01,-51.13 666.84,-56.44 677.32,-58.01 676.01,-51.13"/>
</g>
<!-- Node11 -->
<g id="node11" class="node">
<title>Node11</title>
<g id="a_node11"><a xlink:href="_func_def_8cc.html" target="_top" xlink:title=" ">
<polygon fill="white" stroke="black" points="982.5,-0.5 982.5,-19.5 1099.5,-19.5 1099.5,-0.5 982.5,-0.5"/>
<text text-anchor="middle" x="1041" y="-7.5" font-family="Helvetica,sans-Serif" font-size="10.00">language/FuncDef.cc</text>
</a>
</g>
</g>
<!-- Node5&#45;&gt;Node11 -->
<g id="edge10" class="edge">
<title>Node5&#45;&gt;Node11</title>
<path fill="none" stroke="midnightblue" d="M678.8,-55.93C810.46,-37.47 845.17,-36.26 973,-20 976.07,-19.61 979.22,-19.21 982.4,-18.79"/>
<polygon fill="midnightblue" stroke="midnightblue" points="678.14,-52.49 668.73,-57.35 679.12,-59.42 678.14,-52.49"/>
</g>
<!-- Node12 -->
<g id="node12" class="node">
<title>Node12</title>
<g id="a_node12"><a xlink:href="_loop_8cc.html" target="_top" xlink:title=" ">
<polygon fill="white" stroke="black" points="323.5,-0.5 323.5,-19.5 424.5,-19.5 424.5,-0.5 323.5,-0.5"/>
<text text-anchor="middle" x="374" y="-7.5" font-family="Helvetica,sans-Serif" font-size="10.00">language/Loop.cc</text>
</a>
</g>
</g>
<!-- Node5&#45;&gt;Node12 -->
<g id="edge11" class="edge">
<title>Node5&#45;&gt;Node12</title>
<path fill="none" stroke="midnightblue" d="M572.77,-54.28C525.91,-44.08 456.3,-28.92 413.11,-19.52"/>
<polygon fill="midnightblue" stroke="midnightblue" points="572.19,-57.74 582.7,-56.44 573.68,-50.9 572.19,-57.74"/>
</g>
<!-- Node13 -->
<g id="node13" class="node">
<title>Node13</title>
<g id="a_node13"><a xlink:href="parser_8cc.html" target="_top" xlink:title=" ">
<polygon fill="white" stroke="black" points="443,-0.5 443,-19.5 551,-19.5 551,-0.5 443,-0.5"/>
<text text-anchor="middle" x="497" y="-7.5" font-family="Helvetica,sans-Serif" font-size="10.00">language/parser.cc</text>
</a>
</g>
</g>
<!-- Node5&#45;&gt;Node13 -->
<g id="edge12" class="edge">
<title>Node5&#45;&gt;Node13</title>
<path fill="none" stroke="midnightblue" d="M592.76,-52.37C569.35,-42.26 537.16,-28.35 516.71,-19.52"/>
<polygon fill="midnightblue" stroke="midnightblue" points="591.63,-55.69 602.19,-56.44 594.4,-49.26 591.63,-55.69"/>
</g>
<!-- Node5&#45;&gt;Node14 -->
<g id="edge13" class="edge">
<title>Node5&#45;&gt;Node14</title>
<path fill="none" stroke="midnightblue" d="M565.2,-55.91C467.35,-41.47 365.98,-27.97 301.32,-19.54"/>
<polygon fill="midnightblue" stroke="midnightblue" points="564.86,-59.4 575.26,-57.4 565.88,-52.47 564.86,-59.4"/>
</g>
</g>
</svg>
        <g id="navigator" transform="translate(0 0)" fill="#404254">
                <rect fill="#f2f5e9" fill-opacity="0.5" stroke="#606060" stroke-width=".5" x="0" y="0" width="60" height="60"/>
                <use id="zoomplus" xlink:href="#zoomPlus" x="17" y="9" onmousedown="handleZoom(evt,'in')"/>
                <use id="zoomminus" xlink:href="#zoomMin" x="42" y="9" onmousedown="handleZoom(evt,'out')"/>
                <use id="reset" xlink:href="#resetDef" x="30" y="36" onmousedown="handleReset()"/>
                <g id="arrowUp" xlink:href="#dirArrow" transform="translate(30 24)" onmousedown="handlePan(0,-1)">
                  <use xlink:href="#rim" fill="#404040">
                        <set attributeName="fill" to="#808080" begin="arrowUp.mouseover" end="arrowUp.mouseout"/>
                  </use>
                  <path fill="none" stroke="white" stroke-width="1.5" d="M0,-3.0v7 M-2.5,-0.5L0,-3.0L2.5,-0.5"/>
                </g>
                <g id="arrowRight" xlink:href="#dirArrow" transform="rotate(90) translate(36 -43)" onmousedown="handlePan(1,0)">
                  <use xlink:href="#rim" fill="#404040">
                        <set attributeName="fill" to="#808080" begin="arrowRight.mouseover" end="arrowRight.mouseout"/>
                  </use>
                  <path fill="none" stroke="white" stroke-width="1.5" d="M0,-3.0v7 M-2.5,-0.5L0,-3.0L2.5,-0.5"/>
                </g>
                <g id="arrowDown" xlink:href="#dirArrow" transform="rotate(180) translate(-30 -48)" onmousedown="handlePan(0,1)">
                  <use xlink:href="#rim" fill="#404040">
                        <set attributeName="fill" to="#808080" begin="arrowDown.mouseover" end="arrowDown.mouseout"/>
                  </use>
                  <path fill="none" stroke="white" stroke-width="1.5" d="M0,-3.0v7 M-2.5,-0.5L0,-3.0L2.5,-0.5"/>
                </g>
                <g id="arrowLeft" xlink:href="#dirArrow" transform="rotate(270) translate(-36 17)" onmousedown="handlePan(-1,0)">
                  <use xlink:href="#rim" fill="#404040">
                        <set attributeName="fill" to="#808080" begin="arrowLeft.mouseover" end="arrowLeft.mouseout"/>
                  </use>
                  <path fill="none" stroke="white" stroke-width="1.5" d="M0,-3.0v7 M-2.5,-0.5L0,-3.0L2.5,-0.5"/>
                </g>
        </g>
        <svg viewBox="0 0 15 15" width="100%" height="30px" preserveAspectRatio="xMaxYMin meet">
         <g id="arrow_out" transform="scale(0.3 0.3)">
          <a xlink:href="_binding_usage_8h__dep__incl_org.svg" target="_base">
           <rect id="button" ry="5" rx="5" y="6" x="6" height="38" width="38"
                fill="#f2f5e9" fill-opacity="0.5" stroke="#606060" stroke-width="1.0"/>
           <path id="arrow"
             d="M 11.500037,31.436501 C 11.940474,20.09759 22.043105,11.32322 32.158766,21.979434 L 37.068811,17.246167 C 37.068811,17.246167 37.088388,32 37.088388,32 L 22.160133,31.978069 C 22.160133,31.978069 26.997745,27.140456 26.997745,27.140456 C 18.528582,18.264221 13.291696,25.230495 11.500037,31.436501 z"
             style="fill:#404040;"/>
          </a>
         </g>
        </svg>
</svg>
