<?xml version="1.0" encoding="UTF-8" standalone="no"?>
<!DOCTYPE svg PUBLIC "-//W3C//DTD SVG 1.1//EN"
 "http://www.w3.org/Graphics/SVG/1.1/DTD/svg11.dtd">
<!-- Generated by graphviz version 2.43.0 (0)
 -->
<!-- Title: language/BindingUsage.cc Pages: 1 -->
<!--zoomable 420 -->
<svg id="main" version="1.1" xmlns="http://www.w3.org/2000/svg" xmlns:xlink="http://www.w3.org/1999/xlink" xml:space="preserve" onload="init(evt)">
<style type="text/css"><![CDATA[
.edge:hover path { stroke: red; }
.edge:hover polygon { stroke: red; fill: red; }
]]></style>
<script type="text/javascript"><![CDATA[
var edges = document.getElementsByTagName('g');
if (edges && edges.length) {
  for (var i=0;i<edges.length;i++) {
    if (edges[i].id.substr(0,4)=='edge') {
      edges[i].setAttribute('class','edge');
    }
  }
}
]]></script>
        <defs>
                <circle id="rim" cx="0" cy="0" r="7"/>
                <circle id="rim2" cx="0" cy="0" r="3.5"/>
                <g id="zoomPlus">
                        <use xlink:href="#rim" fill="#404040">
                                <set attributeName="fill" to="#808080" begin="zoomplus.mouseover" end="zoomplus.mouseout"/>
                        </use>
                        <path d="M-4,0h8M0,-4v8" fill="none" stroke="white" stroke-width="1.5" pointer-events="none"/>
                </g>
                <g id="zoomMin">
                        <use xlink:href="#rim" fill="#404040">
                                <set attributeName="fill" to="#808080" begin="zoomminus.mouseover" end="zoomminus.mouseout"/>
                        </use>
                        <path d="M-4,0h8" fill="none" stroke="white" stroke-width="1.5" pointer-events="none"/>
                </g>
                <g id="dirArrow">
                        <path fill="none" stroke="white" stroke-width="1.5" d="M0,-3.0v7 M-2.5,-0.5L0,-3.0L2.5,-0.5"/>
                </g>
               <g id="resetDef">
                       <use xlink:href="#rim2" fill="#404040">
                               <set attributeName="fill" to="#808080" begin="reset.mouseover" end="reset.mouseout"/>
                       </use>
               </g>
        </defs>

<script type="text/javascript">
var viewWidth = 1253;
var viewHeight = 420;
var sectionId = 'dynsection-0';
</script>
<script xlink:href="svgpan.js"/>
<svg id="graph" class="graph">
<g id="viewport">
<title>language/BindingUsage.cc</title>
<polygon fill="white" stroke="transparent" points="-4,4 -4,-416 1249,-416 1249,4 -4,4"/>
<!-- Node1 -->
<g id="node1" class="node">
<title>Node1</title>
<g id="a_node1"><a xlink:title=" ">
<polygon fill="#bfbfbf" stroke="black" points="213,-392.5 213,-411.5 359,-411.5 359,-392.5 213,-392.5"/>
<text text-anchor="middle" x="286" y="-399.5" font-family="Helvetica,sans-Serif" font-size="10.00">language/BindingUsage.cc</text>
</a>
</g>
</g>
<!-- Node2 -->
<g id="node2" class="node">
<title>Node2</title>
<g id="a_node2"><a xlink:href="_binding_usage_8h.html" target="_top" xlink:title=" ">
<polygon fill="white" stroke="black" points="176.5,-112.5 176.5,-131.5 269.5,-131.5 269.5,-112.5 176.5,-112.5"/>
<text text-anchor="middle" x="223" y="-119.5" font-family="Helvetica,sans-Serif" font-size="10.00">BindingUsage.h</text>
</a>
</g>
</g>
<!-- Node1&#45;&gt;Node2 -->
<g id="edge1" class="edge">
<title>Node1&#45;&gt;Node2</title>
<path fill="none" stroke="midnightblue" d="M268.87,-392.41C240.05,-376.61 185,-340 185,-291 185,-291 185,-291 185,-233 185,-198.81 201.6,-161.76 212.86,-140.57"/>
<polygon fill="midnightblue" stroke="midnightblue" points="215.95,-142.22 217.72,-131.77 209.82,-138.83 215.95,-142.22"/>
</g>
<!-- Node8 -->
<g id="node8" class="node">
<title>Node8</title>
<g id="a_node8"><a xlink:href="_null_8h.html" target="_top" xlink:title=" ">
<polygon fill="white" stroke="black" points="263.5,-336.5 263.5,-355.5 308.5,-355.5 308.5,-336.5 263.5,-336.5"/>
<text text-anchor="middle" x="286" y="-343.5" font-family="Helvetica,sans-Serif" font-size="10.00">Null.h</text>
</a>
</g>
</g>
<!-- Node1&#45;&gt;Node8 -->
<g id="edge8" class="edge">
<title>Node1&#45;&gt;Node8</title>
<path fill="none" stroke="midnightblue" d="M286,-392.08C286,-385.01 286,-374.86 286,-365.99"/>
<polygon fill="midnightblue" stroke="midnightblue" points="289.5,-365.75 286,-355.75 282.5,-365.75 289.5,-365.75"/>
</g>
<!-- Node14 -->
<g id="node14" class="node">
<title>Node14</title>
<g id="a_node14"><a xlink:href="env_8h.html" target="_top" xlink:title=" ">
<polygon fill="white" stroke="black" points="115.5,-112.5 115.5,-131.5 158.5,-131.5 158.5,-112.5 115.5,-112.5"/>
<text text-anchor="middle" x="137" y="-119.5" font-family="Helvetica,sans-Serif" font-size="10.00">env.h</text>
</a>
</g>
</g>
<!-- Node1&#45;&gt;Node14 -->
<g id="edge47" class="edge">
<title>Node1&#45;&gt;Node14</title>
<path fill="none" stroke="midnightblue" d="M212.85,-392.77C152.24,-381.4 76,-354.48 76,-291 76,-291 76,-291 76,-233 76,-195.57 103.34,-158.96 121.41,-138.84"/>
<polygon fill="midnightblue" stroke="midnightblue" points="123.99,-141.21 128.26,-131.51 118.88,-136.43 123.99,-141.21"/>
</g>
<!-- Node16 -->
<g id="node16" class="node">
<title>Node16</title>
<g id="a_node16"><a xlink:href="utils_8h.html" target="_top" xlink:title=" ">
<polygon fill="white" stroke="black" points="1054.5,-112.5 1054.5,-131.5 1101.5,-131.5 1101.5,-112.5 1054.5,-112.5"/>
<text text-anchor="middle" x="1078" y="-119.5" font-family="Helvetica,sans-Serif" font-size="10.00">utils.h</text>
</a>
</g>
</g>
<!-- Node1&#45;&gt;Node16 -->
<g id="edge48" class="edge">
<title>Node1&#45;&gt;Node16</title>
<path fill="none" stroke="midnightblue" d="M359.31,-398.73C559.4,-391.58 1100,-365.38 1100,-291 1100,-291 1100,-291 1100,-233 1100,-200.33 1090.55,-163.24 1084.04,-141.55"/>
<polygon fill="midnightblue" stroke="midnightblue" points="1087.29,-140.22 1080.97,-131.72 1080.61,-142.31 1087.29,-140.22"/>
</g>
<!-- Node25 -->
<g id="node25" class="node">
<title>Node25</title>
<g id="a_node25"><a xlink:href="_error_statment_8h.html" target="_top" xlink:title=" ">
<polygon fill="white" stroke="black" points="978,-168.5 978,-187.5 1072,-187.5 1072,-168.5 978,-168.5"/>
<text text-anchor="middle" x="1025" y="-175.5" font-family="Helvetica,sans-Serif" font-size="10.00">ErrorStatment.h</text>
</a>
</g>
</g>
<!-- Node1&#45;&gt;Node25 -->
<g id="edge49" class="edge">
<title>Node1&#45;&gt;Node25</title>
<path fill="none" stroke="midnightblue" d="M314.52,-392.43C429.06,-358.03 855.75,-229.84 986.6,-190.54"/>
<polygon fill="midnightblue" stroke="midnightblue" points="988,-193.77 996.57,-187.54 985.98,-187.07 988,-193.77"/>
</g>
<!-- Node3 -->
<g id="node3" class="node">
<title>Node3</title>
<g id="a_node3"><a xlink:title=" ">
<polygon fill="white" stroke="#bfbfbf" points="242,-0.5 242,-19.5 286,-19.5 286,-0.5 242,-0.5"/>
<text text-anchor="middle" x="264" y="-7.5" font-family="Helvetica,sans-Serif" font-size="10.00">string</text>
</a>
</g>
</g>
<!-- Node2&#45;&gt;Node3 -->
<g id="edge2" class="edge">
<title>Node2&#45;&gt;Node3</title>
<path fill="none" stroke="midnightblue" d="M226.22,-112.37C232.86,-94.54 248.24,-53.3 257.19,-29.27"/>
<polygon fill="midnightblue" stroke="midnightblue" points="260.58,-30.18 260.8,-19.59 254.03,-27.74 260.58,-30.18"/>
</g>
<!-- Node4 -->
<g id="node4" class="node">
<title>Node4</title>
<g id="a_node4"><a xlink:title=" ">
<polygon fill="white" stroke="#bfbfbf" points="799.5,-56.5 799.5,-75.5 844.5,-75.5 844.5,-56.5 799.5,-56.5"/>
<text text-anchor="middle" x="822" y="-63.5" font-family="Helvetica,sans-Serif" font-size="10.00">utility</text>
</a>
</g>
</g>
<!-- Node2&#45;&gt;Node4 -->
<g id="edge3" class="edge">
<title>Node2&#45;&gt;Node4</title>
<path fill="none" stroke="midnightblue" d="M269.68,-118.47C383.28,-112.14 672.73,-94.84 789.33,-75.68"/>
<polygon fill="midnightblue" stroke="midnightblue" points="790.14,-79.09 799.4,-73.94 788.95,-72.2 790.14,-79.09"/>
</g>
<!-- Node5 -->
<g id="node5" class="node">
<title>Node5</title>
<g id="a_node5"><a xlink:href="_i_statment_8h.html" target="_top" xlink:title=" ">
<polygon fill="white" stroke="black" points="368,-56.5 368,-75.5 442,-75.5 442,-56.5 368,-56.5"/>
<text text-anchor="middle" x="405" y="-63.5" font-family="Helvetica,sans-Serif" font-size="10.00">IStatment.h</text>
</a>
</g>
</g>
<!-- Node2&#45;&gt;Node5 -->
<g id="edge4" class="edge">
<title>Node2&#45;&gt;Node5</title>
<path fill="none" stroke="midnightblue" d="M251.84,-112.44C282.86,-103.24 332.33,-88.56 366.62,-78.39"/>
<polygon fill="midnightblue" stroke="midnightblue" points="367.71,-81.72 376.3,-75.52 365.71,-75.01 367.71,-81.72"/>
</g>
<!-- Node5&#45;&gt;Node3 -->
<g id="edge7" class="edge">
<title>Node5&#45;&gt;Node3</title>
<path fill="none" stroke="midnightblue" d="M382.66,-56.44C359.25,-47.48 322.26,-33.31 295.81,-23.18"/>
<polygon fill="midnightblue" stroke="midnightblue" points="296.83,-19.82 286.24,-19.52 294.32,-26.36 296.83,-19.82"/>
</g>
<!-- Node6 -->
<g id="node6" class="node">
<title>Node6</title>
<g id="a_node6"><a xlink:href="_i_value_8h.html" target="_top" xlink:title=" ">
<polygon fill="white" stroke="black" points="377,-0.5 377,-19.5 433,-19.5 433,-0.5 377,-0.5"/>
<text text-anchor="middle" x="405" y="-7.5" font-family="Helvetica,sans-Serif" font-size="10.00">IValue.h</text>
</a>
</g>
</g>
<!-- Node5&#45;&gt;Node6 -->
<g id="edge5" class="edge">
<title>Node5&#45;&gt;Node6</title>
<path fill="none" stroke="midnightblue" d="M405,-56.08C405,-49.01 405,-38.86 405,-29.99"/>
<polygon fill="midnightblue" stroke="midnightblue" points="408.5,-29.75 405,-19.75 401.5,-29.75 408.5,-29.75"/>
</g>
<!-- Node7 -->
<g id="node7" class="node">
<title>Node7</title>
<g id="a_node7"><a xlink:title=" ">
<polygon fill="white" stroke="#bfbfbf" points="1103,-0.5 1103,-19.5 1159,-19.5 1159,-0.5 1103,-0.5"/>
<text text-anchor="middle" x="1131" y="-7.5" font-family="Helvetica,sans-Serif" font-size="10.00">optional</text>
</a>
</g>
</g>
<!-- Node5&#45;&gt;Node7 -->
<g id="edge6" class="edge">
<title>Node5&#45;&gt;Node7</title>
<path fill="none" stroke="midnightblue" d="M442,-62.25C565.96,-53.03 965.9,-23.28 1092.32,-13.88"/>
<polygon fill="midnightblue" stroke="midnightblue" points="1092.95,-17.34 1102.66,-13.11 1092.43,-10.36 1092.95,-17.34"/>
</g>
<!-- Node8&#45;&gt;Node6 -->
<g id="edge46" class="edge">
<title>Node8&#45;&gt;Node6</title>
<path fill="none" stroke="midnightblue" d="M263.08,-342.7C195.21,-334.52 0,-300.42 0,-179 0,-179 0,-179 0,-121 0,-69.84 47.34,-74.6 95,-56 143.79,-36.96 294.65,-21.1 366.37,-14.41"/>
<polygon fill="midnightblue" stroke="midnightblue" points="367.13,-17.85 376.76,-13.45 366.48,-10.88 367.13,-17.85"/>
</g>
<!-- Node9 -->
<g id="node9" class="node">
<title>Node9</title>
<g id="a_node9"><a xlink:href="_bind_def_8h.html" target="_top" xlink:title=" ">
<polygon fill="white" stroke="black" points="305,-280.5 305,-299.5 369,-299.5 369,-280.5 305,-280.5"/>
<text text-anchor="middle" x="337" y="-287.5" font-family="Helvetica,sans-Serif" font-size="10.00">BindDef.h</text>
</a>
</g>
</g>
<!-- Node8&#45;&gt;Node9 -->
<g id="edge9" class="edge">
<title>Node8&#45;&gt;Node9</title>
<path fill="none" stroke="midnightblue" d="M294.42,-336.08C301.85,-328.22 312.85,-316.57 321.81,-307.08"/>
<polygon fill="midnightblue" stroke="midnightblue" points="324.41,-309.42 328.74,-299.75 319.32,-304.62 324.41,-309.42"/>
</g>
<!-- Node9&#45;&gt;Node3 -->
<g id="edge11" class="edge">
<title>Node9&#45;&gt;Node3</title>
<path fill="none" stroke="midnightblue" d="M307.98,-280.44C253.95,-262.78 138.96,-216.68 90,-132 72.98,-102.55 60.02,-82.77 81,-56 99.39,-32.54 184.32,-19.68 231.74,-14.21"/>
<polygon fill="midnightblue" stroke="midnightblue" points="232.26,-17.68 241.81,-13.1 231.49,-10.72 232.26,-17.68"/>
</g>
<!-- Node9&#45;&gt;Node4 -->
<g id="edge12" class="edge">
<title>Node9&#45;&gt;Node4</title>
<path fill="none" stroke="midnightblue" d="M369.13,-284.45C439.19,-273.81 610.08,-243.85 743,-188 786.78,-169.61 810.83,-173.46 834,-132 842.12,-117.47 837.19,-98.54 831.39,-84.86"/>
<polygon fill="midnightblue" stroke="midnightblue" points="834.43,-83.12 826.98,-75.58 828.11,-86.12 834.43,-83.12"/>
</g>
<!-- Node9&#45;&gt;Node7 -->
<g id="edge10" class="edge">
<title>Node9&#45;&gt;Node7</title>
<path fill="none" stroke="midnightblue" d="M369.05,-288.56C530.28,-285.92 1245,-269.16 1245,-179 1245,-179 1245,-179 1245,-121 1245,-74.11 1194.45,-40.89 1160.67,-23.93"/>
<polygon fill="midnightblue" stroke="midnightblue" points="1162.17,-20.77 1151.64,-19.58 1159.13,-27.07 1162.17,-20.77"/>
</g>
<!-- Node10 -->
<g id="node10" class="node">
<title>Node10</title>
<g id="a_node10"><a xlink:href="_expr_8h.html" target="_top" xlink:title=" ">
<polygon fill="white" stroke="black" points="313.5,-224.5 313.5,-243.5 360.5,-243.5 360.5,-224.5 313.5,-224.5"/>
<text text-anchor="middle" x="337" y="-231.5" font-family="Helvetica,sans-Serif" font-size="10.00">Expr.h</text>
</a>
</g>
</g>
<!-- Node9&#45;&gt;Node10 -->
<g id="edge13" class="edge">
<title>Node9&#45;&gt;Node10</title>
<path fill="none" stroke="midnightblue" d="M337,-280.08C337,-273.01 337,-262.86 337,-253.99"/>
<polygon fill="midnightblue" stroke="midnightblue" points="340.5,-253.75 337,-243.75 333.5,-253.75 340.5,-253.75"/>
</g>
<!-- Node10&#45;&gt;Node2 -->
<g id="edge18" class="edge">
<title>Node10&#45;&gt;Node2</title>
<path fill="none" stroke="midnightblue" d="M313.3,-227.68C291.71,-221.63 260.48,-209.66 242,-188 230.92,-175.02 226.3,-155.85 224.37,-141.69"/>
<polygon fill="midnightblue" stroke="midnightblue" points="227.84,-141.22 223.33,-131.63 220.88,-141.93 227.84,-141.22"/>
</g>
<!-- Node10&#45;&gt;Node3 -->
<g id="edge17" class="edge">
<title>Node10&#45;&gt;Node3</title>
<path fill="none" stroke="midnightblue" d="M315.59,-224.45C293.54,-215.57 258.22,-201.17 228,-188 173.31,-164.17 145.95,-176.31 106,-132 88.4,-112.48 91.28,-101.93 87,-76 85.55,-67.23 81.54,-63.02 87,-56 104.6,-33.36 185.72,-20.25 231.79,-14.5"/>
<polygon fill="midnightblue" stroke="midnightblue" points="232.36,-17.96 241.87,-13.29 231.53,-11.01 232.36,-17.96"/>
</g>
<!-- Node10&#45;&gt;Node5 -->
<g id="edge19" class="edge">
<title>Node10&#45;&gt;Node5</title>
<path fill="none" stroke="midnightblue" d="M340.11,-224.41C347.38,-204.49 366.21,-153.66 384,-112 387.9,-102.87 392.54,-92.85 396.47,-84.58"/>
<polygon fill="midnightblue" stroke="midnightblue" points="399.63,-86.08 400.8,-75.55 393.32,-83.05 399.63,-86.08"/>
</g>
<!-- Node10&#45;&gt;Node7 -->
<g id="edge16" class="edge">
<title>Node10&#45;&gt;Node7</title>
<path fill="none" stroke="midnightblue" d="M360.55,-232.65C479.9,-230.73 1015,-220.39 1081,-188 1110.69,-173.43 1117.82,-162.75 1130,-132 1143.5,-97.94 1139.07,-54.14 1134.87,-29.67"/>
<polygon fill="midnightblue" stroke="midnightblue" points="1138.27,-28.79 1132.97,-19.61 1131.39,-30.09 1138.27,-28.79"/>
</g>
<!-- Node11 -->
<g id="node11" class="node">
<title>Node11</title>
<g id="a_node11"><a xlink:title=" ">
<polygon fill="white" stroke="#bfbfbf" points="729,-56.5 729,-75.5 781,-75.5 781,-56.5 729,-56.5"/>
<text text-anchor="middle" x="755" y="-63.5" font-family="Helvetica,sans-Serif" font-size="10.00">cassert</text>
</a>
</g>
</g>
<!-- Node10&#45;&gt;Node11 -->
<g id="edge14" class="edge">
<title>Node10&#45;&gt;Node11</title>
<path fill="none" stroke="midnightblue" d="M360.64,-231.93C449.41,-227.37 760.55,-206.22 817,-132 831.6,-112.8 805.92,-93.07 783.31,-80.46"/>
<polygon fill="midnightblue" stroke="midnightblue" points="784.72,-77.25 774.25,-75.68 781.45,-83.44 784.72,-77.25"/>
</g>
<!-- Node12 -->
<g id="node12" class="node">
<title>Node12</title>
<g id="a_node12"><a xlink:title=" ">
<polygon fill="white" stroke="#bfbfbf" points="251,-168.5 251,-187.5 309,-187.5 309,-168.5 251,-168.5"/>
<text text-anchor="middle" x="280" y="-175.5" font-family="Helvetica,sans-Serif" font-size="10.00">memory</text>
</a>
</g>
</g>
<!-- Node10&#45;&gt;Node12 -->
<g id="edge15" class="edge">
<title>Node10&#45;&gt;Node12</title>
<path fill="none" stroke="midnightblue" d="M327.84,-224.32C319.5,-216.42 306.97,-204.55 296.82,-194.94"/>
<polygon fill="midnightblue" stroke="midnightblue" points="298.99,-192.17 289.32,-187.83 294.18,-197.25 298.99,-192.17"/>
</g>
<!-- Node13 -->
<g id="node13" class="node">
<title>Node13</title>
<g id="a_node13"><a xlink:href="parser_8h.html" target="_top" xlink:title=" ">
<polygon fill="white" stroke="black" points="550,-168.5 550,-187.5 606,-187.5 606,-168.5 550,-168.5"/>
<text text-anchor="middle" x="578" y="-175.5" font-family="Helvetica,sans-Serif" font-size="10.00">parser.h</text>
</a>
</g>
</g>
<!-- Node10&#45;&gt;Node13 -->
<g id="edge20" class="edge">
<title>Node10&#45;&gt;Node13</title>
<path fill="none" stroke="midnightblue" d="M360.55,-227.72C402.32,-218.36 489.73,-198.78 540.08,-187.5"/>
<polygon fill="midnightblue" stroke="midnightblue" points="540.94,-190.89 549.93,-185.29 539.41,-184.06 540.94,-190.89"/>
</g>
<!-- Node13&#45;&gt;Node3 -->
<g id="edge44" class="edge">
<title>Node13&#45;&gt;Node3</title>
<path fill="none" stroke="midnightblue" d="M549.91,-175.36C510.54,-172.02 437.75,-161.98 384,-132 336.39,-105.45 295.14,-54.42 275.77,-27.92"/>
<polygon fill="midnightblue" stroke="midnightblue" points="278.52,-25.75 269.85,-19.65 272.82,-29.82 278.52,-25.75"/>
</g>
<!-- Node13&#45;&gt;Node4 -->
<g id="edge45" class="edge">
<title>Node13&#45;&gt;Node4</title>
<path fill="none" stroke="midnightblue" d="M606.24,-175.84C663.32,-172.87 789.31,-162.89 817,-132 827.97,-119.76 828.1,-100.5 826.17,-86.11"/>
<polygon fill="midnightblue" stroke="midnightblue" points="829.54,-85.08 824.33,-75.85 822.65,-86.31 829.54,-85.08"/>
</g>
<!-- Node13&#45;&gt;Node5 -->
<g id="edge21" class="edge">
<title>Node13&#45;&gt;Node5</title>
<path fill="none" stroke="midnightblue" d="M549.84,-174.33C502.97,-169.25 412.2,-156.43 393,-132 382.5,-118.64 388.16,-98.99 394.8,-84.8"/>
<polygon fill="midnightblue" stroke="midnightblue" points="398.08,-86.08 399.59,-75.59 391.87,-82.85 398.08,-86.08"/>
</g>
<!-- Node13&#45;&gt;Node6 -->
<g id="edge22" class="edge">
<title>Node13&#45;&gt;Node6</title>
<path fill="none" stroke="midnightblue" d="M574.12,-168.31C567.97,-155.15 555.02,-129.81 539,-112 505.77,-75.07 457.35,-42.52 428.72,-24.9"/>
<polygon fill="midnightblue" stroke="midnightblue" points="430.53,-21.91 420.16,-19.72 426.9,-27.9 430.53,-21.91"/>
</g>
<!-- Node13&#45;&gt;Node11 -->
<g id="edge37" class="edge">
<title>Node13&#45;&gt;Node11</title>
<path fill="none" stroke="midnightblue" d="M580.72,-168.5C585.58,-154.65 597.06,-127.24 616,-112 645.7,-88.11 688.43,-76.76 718.66,-71.46"/>
<polygon fill="midnightblue" stroke="midnightblue" points="719.47,-74.87 728.79,-69.83 718.36,-67.96 719.47,-74.87"/>
</g>
<!-- Node13&#45;&gt;Node14 -->
<g id="edge23" class="edge">
<title>Node13&#45;&gt;Node14</title>
<path fill="none" stroke="midnightblue" d="M549.82,-175.69C484.35,-172.26 316.85,-161.35 168.69,-132.02"/>
<polygon fill="midnightblue" stroke="midnightblue" points="169,-128.51 158.51,-129.97 167.62,-135.37 169,-128.51"/>
</g>
<!-- Node13&#45;&gt;Node16 -->
<g id="edge29" class="edge">
<title>Node13&#45;&gt;Node16</title>
<path fill="none" stroke="midnightblue" d="M606.31,-173.94C692.55,-164.63 951.68,-136.64 1044.48,-126.62"/>
<polygon fill="midnightblue" stroke="midnightblue" points="1044.89,-130.1 1054.45,-125.54 1044.13,-123.14 1044.89,-130.1"/>
</g>
<!-- Node18 -->
<g id="node18" class="node">
<title>Node18</title>
<g id="a_node18"><a xlink:title=" ">
<polygon fill="white" stroke="#bfbfbf" points="863,-56.5 863,-75.5 923,-75.5 923,-56.5 863,-56.5"/>
<text text-anchor="middle" x="893" y="-63.5" font-family="Helvetica,sans-Serif" font-size="10.00">iostream</text>
</a>
</g>
</g>
<!-- Node13&#45;&gt;Node18 -->
<g id="edge41" class="edge">
<title>Node13&#45;&gt;Node18</title>
<path fill="none" stroke="midnightblue" d="M606.13,-174.47C664.55,-168.83 796.85,-153.99 836,-132 856.16,-120.68 872.69,-99.45 882.67,-84.33"/>
<polygon fill="midnightblue" stroke="midnightblue" points="885.64,-86.18 888,-75.86 879.72,-82.45 885.64,-86.18"/>
</g>
<!-- Node20 -->
<g id="node20" class="node">
<title>Node20</title>
<g id="a_node20"><a xlink:title=" ">
<polygon fill="white" stroke="#bfbfbf" points="625.5,-112.5 625.5,-131.5 674.5,-131.5 674.5,-112.5 625.5,-112.5"/>
<text text-anchor="middle" x="650" y="-119.5" font-family="Helvetica,sans-Serif" font-size="10.00">cctype</text>
</a>
</g>
</g>
<!-- Node13&#45;&gt;Node20 -->
<g id="edge38" class="edge">
<title>Node13&#45;&gt;Node20</title>
<path fill="none" stroke="midnightblue" d="M589.57,-168.32C600.42,-160.18 616.88,-147.84 629.88,-138.09"/>
<polygon fill="midnightblue" stroke="midnightblue" points="632.32,-140.63 638.22,-131.83 628.12,-135.03 632.32,-140.63"/>
</g>
<!-- Node21 -->
<g id="node21" class="node">
<title>Node21</title>
<g id="a_node21"><a xlink:title=" ">
<polygon fill="white" stroke="#bfbfbf" points="692.5,-112.5 692.5,-131.5 739.5,-131.5 739.5,-112.5 692.5,-112.5"/>
<text text-anchor="middle" x="716" y="-119.5" font-family="Helvetica,sans-Serif" font-size="10.00">cmath</text>
</a>
</g>
</g>
<!-- Node13&#45;&gt;Node21 -->
<g id="edge39" class="edge">
<title>Node13&#45;&gt;Node21</title>
<path fill="none" stroke="midnightblue" d="M599.87,-168.44C622.78,-159.48 658.98,-145.31 684.87,-135.18"/>
<polygon fill="midnightblue" stroke="midnightblue" points="686.2,-138.42 694.24,-131.52 683.65,-131.9 686.2,-138.42"/>
</g>
<!-- Node22 -->
<g id="node22" class="node">
<title>Node22</title>
<g id="a_node22"><a xlink:title=" ">
<polygon fill="white" stroke="#bfbfbf" points="758,-112.5 758,-131.5 808,-131.5 808,-112.5 758,-112.5"/>
<text text-anchor="middle" x="783" y="-119.5" font-family="Helvetica,sans-Serif" font-size="10.00">cstring</text>
</a>
</g>
</g>
<!-- Node13&#45;&gt;Node22 -->
<g id="edge40" class="edge">
<title>Node13&#45;&gt;Node22</title>
<path fill="none" stroke="midnightblue" d="M606.07,-169.6C643,-159.88 707.87,-142.79 747.96,-132.23"/>
<polygon fill="midnightblue" stroke="midnightblue" points="749.06,-135.56 757.84,-129.63 747.27,-128.79 749.06,-135.56"/>
</g>
<!-- Node23 -->
<g id="node23" class="node">
<title>Node23</title>
<g id="a_node23"><a xlink:title=" ">
<polygon fill="white" stroke="#bfbfbf" points="402.5,-112.5 402.5,-131.5 455.5,-131.5 455.5,-112.5 402.5,-112.5"/>
<text text-anchor="middle" x="429" y="-119.5" font-family="Helvetica,sans-Serif" font-size="10.00">iterator</text>
</a>
</g>
</g>
<!-- Node13&#45;&gt;Node23 -->
<g id="edge42" class="edge">
<title>Node13&#45;&gt;Node23</title>
<path fill="none" stroke="midnightblue" d="M554.39,-168.44C529.54,-159.44 490.23,-145.19 462.25,-135.05"/>
<polygon fill="midnightblue" stroke="midnightblue" points="463.09,-131.63 452.5,-131.52 460.71,-138.21 463.09,-131.63"/>
</g>
<!-- Node24 -->
<g id="node24" class="node">
<title>Node24</title>
<g id="a_node24"><a xlink:title=" ">
<polygon fill="white" stroke="#bfbfbf" points="473.5,-112.5 473.5,-131.5 530.5,-131.5 530.5,-112.5 473.5,-112.5"/>
<text text-anchor="middle" x="502" y="-119.5" font-family="Helvetica,sans-Serif" font-size="10.00">ostream</text>
</a>
</g>
</g>
<!-- Node13&#45;&gt;Node24 -->
<g id="edge43" class="edge">
<title>Node13&#45;&gt;Node24</title>
<path fill="none" stroke="midnightblue" d="M565.79,-168.32C554.22,-160.11 536.62,-147.6 522.84,-137.81"/>
<polygon fill="midnightblue" stroke="midnightblue" points="524.61,-134.77 514.43,-131.83 520.56,-140.48 524.61,-134.77"/>
</g>
<!-- Node14&#45;&gt;Node3 -->
<g id="edge27" class="edge">
<title>Node14&#45;&gt;Node3</title>
<path fill="none" stroke="midnightblue" d="M124.48,-112.5C107.31,-99.79 80.18,-75.28 95,-56 111.57,-34.44 187.7,-21.02 231.93,-14.9"/>
<polygon fill="midnightblue" stroke="midnightblue" points="232.45,-18.36 241.9,-13.57 231.52,-11.43 232.45,-18.36"/>
</g>
<!-- Node14&#45;&gt;Node5 -->
<g id="edge24" class="edge">
<title>Node14&#45;&gt;Node5</title>
<path fill="none" stroke="midnightblue" d="M158.56,-114.24C161.38,-113.44 164.25,-112.67 167,-112 202.36,-103.38 298.72,-85.84 357.42,-75.39"/>
<polygon fill="midnightblue" stroke="midnightblue" points="358.33,-78.78 367.57,-73.58 357.11,-71.89 358.33,-78.78"/>
</g>
<!-- Node14&#45;&gt;Node6 -->
<g id="edge25" class="edge">
<title>Node14&#45;&gt;Node6</title>
<path fill="none" stroke="midnightblue" d="M158.03,-112.37C205.19,-93.01 319.57,-46.06 374.53,-23.51"/>
<polygon fill="midnightblue" stroke="midnightblue" points="376.15,-26.63 384.07,-19.59 373.49,-20.15 376.15,-26.63"/>
</g>
<!-- Node14&#45;&gt;Node7 -->
<g id="edge26" class="edge">
<title>Node14&#45;&gt;Node7</title>
<path fill="none" stroke="midnightblue" d="M158.64,-114.36C210.46,-98.5 338.87,-59.48 359,-56 502.46,-31.22 956.92,-16.13 1092.47,-12.1"/>
<polygon fill="midnightblue" stroke="midnightblue" points="1092.88,-15.59 1102.77,-11.79 1092.67,-8.59 1092.88,-15.59"/>
</g>
<!-- Node15 -->
<g id="node15" class="node">
<title>Node15</title>
<g id="a_node15"><a xlink:title=" ">
<polygon fill="white" stroke="#bfbfbf" points="104.5,-56.5 104.5,-75.5 197.5,-75.5 197.5,-56.5 104.5,-56.5"/>
<text text-anchor="middle" x="151" y="-63.5" font-family="Helvetica,sans-Serif" font-size="10.00">unordered_map</text>
</a>
</g>
</g>
<!-- Node14&#45;&gt;Node15 -->
<g id="edge28" class="edge">
<title>Node14&#45;&gt;Node15</title>
<path fill="none" stroke="midnightblue" d="M139.31,-112.08C141.17,-104.93 143.84,-94.64 146.15,-85.69"/>
<polygon fill="midnightblue" stroke="midnightblue" points="149.61,-86.31 148.73,-75.75 142.83,-84.55 149.61,-86.31"/>
</g>
<!-- Node16&#45;&gt;Node3 -->
<g id="edge35" class="edge">
<title>Node16&#45;&gt;Node3</title>
<path fill="none" stroke="midnightblue" d="M1055.82,-112.43C1033.81,-103.78 999.23,-89.75 970,-76 952.73,-67.88 950.37,-61.17 932,-56 811.1,-22 493.24,-29.41 368,-20 343.99,-18.2 316.9,-15.84 296.38,-13.99"/>
<polygon fill="midnightblue" stroke="midnightblue" points="296.58,-10.5 286.3,-13.08 295.95,-17.47 296.58,-10.5"/>
</g>
<!-- Node16&#45;&gt;Node4 -->
<g id="edge36" class="edge">
<title>Node16&#45;&gt;Node4</title>
<path fill="none" stroke="midnightblue" d="M1054.32,-115.23C1049.58,-114.12 1044.64,-113 1040,-112 960.74,-94.95 937.63,-95.36 854.55,-75.96"/>
<polygon fill="midnightblue" stroke="midnightblue" points="855.2,-72.52 844.67,-73.63 853.59,-79.33 855.2,-72.52"/>
</g>
<!-- Node16&#45;&gt;Node7 -->
<g id="edge33" class="edge">
<title>Node16&#45;&gt;Node7</title>
<path fill="none" stroke="midnightblue" d="M1086.08,-112.34C1093.73,-103.72 1105.05,-89.82 1112,-76 1119.42,-61.23 1124.43,-43.07 1127.43,-29.71"/>
<polygon fill="midnightblue" stroke="midnightblue" points="1130.88,-30.29 1129.48,-19.79 1124.02,-28.87 1130.88,-30.29"/>
</g>
<!-- Node16&#45;&gt;Node11 -->
<g id="edge30" class="edge">
<title>Node16&#45;&gt;Node11</title>
<path fill="none" stroke="midnightblue" d="M1054.34,-118.09C1006.5,-112.04 894.67,-97.06 791.29,-76.1"/>
<polygon fill="midnightblue" stroke="midnightblue" points="791.81,-72.64 781.31,-74.06 790.4,-79.49 791.81,-72.64"/>
</g>
<!-- Node17 -->
<g id="node17" class="node">
<title>Node17</title>
<g id="a_node17"><a xlink:title=" ">
<polygon fill="white" stroke="#bfbfbf" points="1053.5,-56.5 1053.5,-75.5 1102.5,-75.5 1102.5,-56.5 1053.5,-56.5"/>
<text text-anchor="middle" x="1078" y="-63.5" font-family="Helvetica,sans-Serif" font-size="10.00">cstdlib</text>
</a>
</g>
</g>
<!-- Node16&#45;&gt;Node17 -->
<g id="edge31" class="edge">
<title>Node16&#45;&gt;Node17</title>
<path fill="none" stroke="midnightblue" d="M1078,-112.08C1078,-105.01 1078,-94.86 1078,-85.99"/>
<polygon fill="midnightblue" stroke="midnightblue" points="1081.5,-85.75 1078,-75.75 1074.5,-85.75 1081.5,-85.75"/>
</g>
<!-- Node16&#45;&gt;Node18 -->
<g id="edge32" class="edge">
<title>Node16&#45;&gt;Node18</title>
<path fill="none" stroke="midnightblue" d="M1054.19,-114.05C1023.33,-105.04 969.09,-89.21 932.13,-78.42"/>
<polygon fill="midnightblue" stroke="midnightblue" points="932.78,-74.96 922.2,-75.52 930.82,-81.68 932.78,-74.96"/>
</g>
<!-- Node19 -->
<g id="node19" class="node">
<title>Node19</title>
<g id="a_node19"><a xlink:title=" ">
<polygon fill="white" stroke="#bfbfbf" points="979,-56.5 979,-75.5 1035,-75.5 1035,-56.5 979,-56.5"/>
<text text-anchor="middle" x="1007" y="-63.5" font-family="Helvetica,sans-Serif" font-size="10.00">sstream</text>
</a>
</g>
</g>
<!-- Node16&#45;&gt;Node19 -->
<g id="edge34" class="edge">
<title>Node16&#45;&gt;Node19</title>
<path fill="none" stroke="midnightblue" d="M1066.59,-112.32C1055.89,-104.18 1039.66,-91.84 1026.84,-82.09"/>
<polygon fill="midnightblue" stroke="midnightblue" points="1028.69,-79.1 1018.61,-75.83 1024.46,-84.67 1028.69,-79.1"/>
</g>
<!-- Node25&#45;&gt;Node4 -->
<g id="edge50" class="edge">
<title>Node25&#45;&gt;Node4</title>
<path fill="none" stroke="midnightblue" d="M1024.49,-168.43C1023.18,-154.48 1018.52,-126.92 1002,-112 954.02,-68.66 922.42,-90.93 854.53,-75.87"/>
<polygon fill="midnightblue" stroke="midnightblue" points="855.24,-72.45 844.7,-73.49 853.59,-79.25 855.24,-72.45"/>
</g>
<!-- Node25&#45;&gt;Node5 -->
<g id="edge51" class="edge">
<title>Node25&#45;&gt;Node5</title>
<path fill="none" stroke="midnightblue" d="M1002.6,-168.42C964.9,-154.33 886.07,-126.42 817,-112 686.66,-84.79 529.48,-73.4 452.37,-69.18"/>
<polygon fill="midnightblue" stroke="midnightblue" points="452.2,-65.67 442.03,-68.63 451.83,-72.66 452.2,-65.67"/>
</g>
<!-- Node25&#45;&gt;Node6 -->
<g id="edge52" class="edge">
<title>Node25&#45;&gt;Node6</title>
<path fill="none" stroke="midnightblue" d="M1059.06,-168.42C1077.83,-161.78 1099.58,-150.49 1111,-132 1128.75,-103.26 1135.12,-80.63 1112,-56 1088.96,-31.45 587.85,-15.97 443.56,-12.01"/>
<polygon fill="midnightblue" stroke="midnightblue" points="443.5,-8.51 433.41,-11.73 443.31,-15.5 443.5,-8.51"/>
</g>
<!-- Node25&#45;&gt;Node16 -->
<g id="edge53" class="edge">
<title>Node25&#45;&gt;Node16</title>
<path fill="none" stroke="midnightblue" d="M1033.75,-168.08C1041.47,-160.22 1052.9,-148.57 1062.22,-139.08"/>
<polygon fill="midnightblue" stroke="midnightblue" points="1064.9,-141.34 1069.41,-131.75 1059.91,-136.44 1064.9,-141.34"/>
</g>
</g>
</svg>
        <g id="navigator" transform="translate(0 0)" fill="#404254">
                <rect fill="#f2f5e9" fill-opacity="0.5" stroke="#606060" stroke-width=".5" x="0" y="0" width="60" height="60"/>
                <use id="zoomplus" xlink:href="#zoomPlus" x="17" y="9" onmousedown="handleZoom(evt,'in')"/>
                <use id="zoomminus" xlink:href="#zoomMin" x="42" y="9" onmousedown="handleZoom(evt,'out')"/>
                <use id="reset" xlink:href="#resetDef" x="30" y="36" onmousedown="handleReset()"/>
                <g id="arrowUp" xlink:href="#dirArrow" transform="translate(30 24)" onmousedown="handlePan(0,-1)">
                  <use xlink:href="#rim" fill="#404040">
                        <set attributeName="fill" to="#808080" begin="arrowUp.mouseover" end="arrowUp.mouseout"/>
                  </use>
                  <path fill="none" stroke="white" stroke-width="1.5" d="M0,-3.0v7 M-2.5,-0.5L0,-3.0L2.5,-0.5"/>
                </g>
                <g id="arrowRight" xlink:href="#dirArrow" transform="rotate(90) translate(36 -43)" onmousedown="handlePan(1,0)">
                  <use xlink:href="#rim" fill="#404040">
                        <set attributeName="fill" to="#808080" begin="arrowRight.mouseover" end="arrowRight.mouseout"/>
                  </use>
                  <path fill="none" stroke="white" stroke-width="1.5" d="M0,-3.0v7 M-2.5,-0.5L0,-3.0L2.5,-0.5"/>
                </g>
                <g id="arrowDown" xlink:href="#dirArrow" transform="rotate(180) translate(-30 -48)" onmousedown="handlePan(0,1)">
                  <use xlink:href="#rim" fill="#404040">
                        <set attributeName="fill" to="#808080" begin="arrowDown.mouseover" end="arrowDown.mouseout"/>
                  </use>
                  <path fill="none" stroke="white" stroke-width="1.5" d="M0,-3.0v7 M-2.5,-0.5L0,-3.0L2.5,-0.5"/>
                </g>
                <g id="arrowLeft" xlink:href="#dirArrow" transform="rotate(270) translate(-36 17)" onmousedown="handlePan(-1,0)">
                  <use xlink:href="#rim" fill="#404040">
                        <set attributeName="fill" to="#808080" begin="arrowLeft.mouseover" end="arrowLeft.mouseout"/>
                  </use>
                  <path fill="none" stroke="white" stroke-width="1.5" d="M0,-3.0v7 M-2.5,-0.5L0,-3.0L2.5,-0.5"/>
                </g>
        </g>
        <svg viewBox="0 0 15 15" width="100%" height="30px" preserveAspectRatio="xMaxYMin meet">
         <g id="arrow_out" transform="scale(0.3 0.3)">
          <a xlink:href="_binding_usage_8cc__incl_org.svg" target="_base">
           <rect id="button" ry="5" rx="5" y="6" x="6" height="38" width="38"
                fill="#f2f5e9" fill-opacity="0.5" stroke="#606060" stroke-width="1.0"/>
           <path id="arrow"
             d="M 11.500037,31.436501 C 11.940474,20.09759 22.043105,11.32322 32.158766,21.979434 L 37.068811,17.246167 C 37.068811,17.246167 37.088388,32 37.088388,32 L 22.160133,31.978069 C 22.160133,31.978069 26.997745,27.140456 26.997745,27.140456 C 18.528582,18.264221 13.291696,25.230495 11.500037,31.436501 z"
             style="fill:#404040;"/>
          </a>
         </g>
        </svg>
</svg>
