<?xml version="1.0" encoding="UTF-8" standalone="no"?>
<!DOCTYPE svg PUBLIC "-//W3C//DTD SVG 1.1//EN"
 "http://www.w3.org/Graphics/SVG/1.1/DTD/svg11.dtd">
<!-- Generated by graphviz version 2.43.0 (0)
 -->
<!-- Title: language/Block.h Pages: 1 -->
<svg width="827pt" height="140pt"
 viewBox="0.00 0.00 826.50 140.00" xmlns="http://www.w3.org/2000/svg" xmlns:xlink="http://www.w3.org/1999/xlink">
<g id="graph0" class="graph" transform="scale(1 1) rotate(0) translate(4 136)">
<title>language/Block.h</title>
<polygon fill="white" stroke="transparent" points="-4,4 -4,-136 822.5,-136 822.5,4 -4,4"/>
<!-- Node1 -->
<g id="node1" class="node">
<title>Node1</title>
<g id="a_node1"><a xlink:title=" ">
<polygon fill="#bfbfbf" stroke="black" points="315,-112.5 315,-131.5 416,-131.5 416,-112.5 315,-112.5"/>
<text text-anchor="middle" x="365.5" y="-119.5" font-family="Helvetica,sans-Serif" font-size="10.00">language/Block.h</text>
</a>
</g>
</g>
<!-- Node2 -->
<g id="node2" class="node">
<title>Node2</title>
<g id="a_node2"><a xlink:href="_block_8cc.html" target="_top" xlink:title=" ">
<polygon fill="white" stroke="black" points="0,-56.5 0,-75.5 105,-75.5 105,-56.5 0,-56.5"/>
<text text-anchor="middle" x="52.5" y="-63.5" font-family="Helvetica,sans-Serif" font-size="10.00">language/Block.cc</text>
</a>
</g>
</g>
<!-- Node1&#45;&gt;Node2 -->
<g id="edge1" class="edge">
<title>Node1&#45;&gt;Node2</title>
<path fill="none" stroke="midnightblue" d="M305.96,-110.73C246.81,-100.52 157.17,-85.06 101.86,-75.52"/>
<polygon fill="midnightblue" stroke="midnightblue" points="305.45,-114.19 315.9,-112.44 306.64,-107.29 305.45,-114.19"/>
</g>
<!-- Node3 -->
<g id="node3" class="node">
<title>Node3</title>
<g id="a_node3"><a xlink:href="_conditional_8h.html" target="_top" xlink:title=" ">
<polygon fill="white" stroke="black" points="123,-56.5 123,-75.5 252,-75.5 252,-56.5 123,-56.5"/>
<text text-anchor="middle" x="187.5" y="-63.5" font-family="Helvetica,sans-Serif" font-size="10.00">language/Conditional.h</text>
</a>
</g>
</g>
<!-- Node1&#45;&gt;Node3 -->
<g id="edge2" class="edge">
<title>Node1&#45;&gt;Node3</title>
<path fill="none" stroke="midnightblue" d="M327.38,-109.44C293.82,-99.26 245.73,-84.66 215.57,-75.52"/>
<polygon fill="midnightblue" stroke="midnightblue" points="326.71,-112.89 337.3,-112.44 328.74,-106.19 326.71,-112.89"/>
</g>
<!-- Node5 -->
<g id="node5" class="node">
<title>Node5</title>
<g id="a_node5"><a xlink:href="_i_statment_8cc.html" target="_top" xlink:title=" ">
<polygon fill="white" stroke="black" points="189.5,-0.5 189.5,-19.5 315.5,-19.5 315.5,-0.5 189.5,-0.5"/>
<text text-anchor="middle" x="252.5" y="-7.5" font-family="Helvetica,sans-Serif" font-size="10.00">language/IStatment.cc</text>
</a>
</g>
</g>
<!-- Node1&#45;&gt;Node5 -->
<g id="edge10" class="edge">
<title>Node1&#45;&gt;Node5</title>
<path fill="none" stroke="midnightblue" d="M341.45,-107.04C328.53,-98.91 312.79,-87.92 300.5,-76 282.17,-58.22 265.64,-32.87 257.62,-19.7"/>
<polygon fill="midnightblue" stroke="midnightblue" points="339.9,-110.2 350.26,-112.43 343.56,-104.23 339.9,-110.2"/>
</g>
<!-- Node6 -->
<g id="node6" class="node">
<title>Node6</title>
<g id="a_node6"><a xlink:href="_expr_8cc.html" target="_top" xlink:title=" ">
<polygon fill="white" stroke="black" points="555,-56.5 555,-75.5 654,-75.5 654,-56.5 555,-56.5"/>
<text text-anchor="middle" x="604.5" y="-63.5" font-family="Helvetica,sans-Serif" font-size="10.00">language/Expr.cc</text>
</a>
</g>
</g>
<!-- Node1&#45;&gt;Node6 -->
<g id="edge5" class="edge">
<title>Node1&#45;&gt;Node6</title>
<path fill="none" stroke="midnightblue" d="M413.22,-110.22C458.39,-100.01 525.27,-84.9 566.81,-75.52"/>
<polygon fill="midnightblue" stroke="midnightblue" points="412.35,-106.83 403.37,-112.44 413.9,-113.65 412.35,-106.83"/>
</g>
<!-- Node7 -->
<g id="node7" class="node">
<title>Node7</title>
<g id="a_node7"><a xlink:href="_func_def_8h.html" target="_top" xlink:title=" ">
<polygon fill="white" stroke="black" points="309,-56.5 309,-75.5 422,-75.5 422,-56.5 309,-56.5"/>
<text text-anchor="middle" x="365.5" y="-63.5" font-family="Helvetica,sans-Serif" font-size="10.00">language/FuncDef.h</text>
</a>
</g>
</g>
<!-- Node1&#45;&gt;Node7 -->
<g id="edge6" class="edge">
<title>Node1&#45;&gt;Node7</title>
<path fill="none" stroke="midnightblue" d="M365.5,-101.8C365.5,-92.91 365.5,-82.78 365.5,-75.75"/>
<polygon fill="midnightblue" stroke="midnightblue" points="362,-102.08 365.5,-112.08 369,-102.08 362,-102.08"/>
</g>
<!-- Node10 -->
<g id="node10" class="node">
<title>Node10</title>
<g id="a_node10"><a xlink:href="_loop_8h.html" target="_top" xlink:title=" ">
<polygon fill="white" stroke="black" points="440,-56.5 440,-75.5 537,-75.5 537,-56.5 440,-56.5"/>
<text text-anchor="middle" x="488.5" y="-63.5" font-family="Helvetica,sans-Serif" font-size="10.00">language/Loop.h</text>
</a>
</g>
</g>
<!-- Node1&#45;&gt;Node10 -->
<g id="edge11" class="edge">
<title>Node1&#45;&gt;Node10</title>
<path fill="none" stroke="midnightblue" d="M394.27,-108.37C417.31,-98.26 448.98,-84.35 469.1,-75.52"/>
<polygon fill="midnightblue" stroke="midnightblue" points="392.74,-105.22 384.99,-112.44 395.55,-111.63 392.74,-105.22"/>
</g>
<!-- Node12 -->
<g id="node12" class="node">
<title>Node12</title>
<g id="a_node12"><a xlink:href="_test_block_8cc.html" target="_top" xlink:title=" ">
<polygon fill="white" stroke="black" points="672.5,-56.5 672.5,-75.5 818.5,-75.5 818.5,-56.5 672.5,-56.5"/>
<text text-anchor="middle" x="745.5" y="-63.5" font-family="Helvetica,sans-Serif" font-size="10.00">language/test/TestBlock.cc</text>
</a>
</g>
</g>
<!-- Node1&#45;&gt;Node12 -->
<g id="edge14" class="edge">
<title>Node1&#45;&gt;Node12</title>
<path fill="none" stroke="midnightblue" d="M426.52,-112.33C497.75,-102.21 614.8,-85.57 685.56,-75.52"/>
<polygon fill="midnightblue" stroke="midnightblue" points="425.76,-108.9 416.35,-113.77 426.75,-115.83 425.76,-108.9"/>
</g>
<!-- Node4 -->
<g id="node4" class="node">
<title>Node4</title>
<g id="a_node4"><a xlink:href="_conditional_8cc.html" target="_top" xlink:title=" ">
<polygon fill="white" stroke="black" points="37.5,-0.5 37.5,-19.5 171.5,-19.5 171.5,-0.5 37.5,-0.5"/>
<text text-anchor="middle" x="104.5" y="-7.5" font-family="Helvetica,sans-Serif" font-size="10.00">language/Conditional.cc</text>
</a>
</g>
</g>
<!-- Node3&#45;&gt;Node4 -->
<g id="edge3" class="edge">
<title>Node3&#45;&gt;Node4</title>
<path fill="none" stroke="midnightblue" d="M165.4,-50.62C150.24,-40.76 130.62,-27.99 117.8,-19.65"/>
<polygon fill="midnightblue" stroke="midnightblue" points="163.87,-53.8 174.16,-56.32 167.69,-47.94 163.87,-53.8"/>
</g>
<!-- Node3&#45;&gt;Node5 -->
<g id="edge4" class="edge">
<title>Node3&#45;&gt;Node5</title>
<path fill="none" stroke="midnightblue" d="M205.77,-49.82C217.42,-40.15 232.1,-27.95 241.87,-19.83"/>
<polygon fill="midnightblue" stroke="midnightblue" points="203.4,-47.24 197.94,-56.32 207.87,-52.63 203.4,-47.24"/>
</g>
<!-- Node7&#45;&gt;Node5 -->
<g id="edge9" class="edge">
<title>Node7&#45;&gt;Node5</title>
<path fill="none" stroke="midnightblue" d="M338.5,-52.1C317.39,-42.01 288.64,-28.27 270.32,-19.52"/>
<polygon fill="midnightblue" stroke="midnightblue" points="337.06,-55.29 347.59,-56.44 340.08,-48.97 337.06,-55.29"/>
</g>
<!-- Node8 -->
<g id="node8" class="node">
<title>Node8</title>
<g id="a_node8"><a xlink:href="_func_call_8cc.html" target="_top" xlink:title=" ">
<polygon fill="white" stroke="black" points="469,-0.5 469,-19.5 588,-19.5 588,-0.5 469,-0.5"/>
<text text-anchor="middle" x="528.5" y="-7.5" font-family="Helvetica,sans-Serif" font-size="10.00">language/FuncCall.cc</text>
</a>
</g>
</g>
<!-- Node7&#45;&gt;Node8 -->
<g id="edge7" class="edge">
<title>Node7&#45;&gt;Node8</title>
<path fill="none" stroke="midnightblue" d="M401.2,-53.17C431.9,-43 475.42,-28.59 502.79,-19.52"/>
<polygon fill="midnightblue" stroke="midnightblue" points="399.72,-49.98 391.33,-56.44 401.92,-56.62 399.72,-49.98"/>
</g>
<!-- Node9 -->
<g id="node9" class="node">
<title>Node9</title>
<g id="a_node9"><a xlink:href="_func_def_8cc.html" target="_top" xlink:title=" ">
<polygon fill="white" stroke="black" points="334,-0.5 334,-19.5 451,-19.5 451,-0.5 334,-0.5"/>
<text text-anchor="middle" x="392.5" y="-7.5" font-family="Helvetica,sans-Serif" font-size="10.00">language/FuncDef.cc</text>
</a>
</g>
</g>
<!-- Node7&#45;&gt;Node9 -->
<g id="edge8" class="edge">
<title>Node7&#45;&gt;Node9</title>
<path fill="none" stroke="midnightblue" d="M374.51,-46.98C379.09,-37.82 384.45,-27.09 388.12,-19.75"/>
<polygon fill="midnightblue" stroke="midnightblue" points="371.3,-45.57 369.96,-56.08 377.56,-48.7 371.3,-45.57"/>
</g>
<!-- Node10&#45;&gt;Node5 -->
<g id="edge12" class="edge">
<title>Node10&#45;&gt;Node5</title>
<path fill="none" stroke="midnightblue" d="M441.09,-54.15C396.5,-43.95 330.65,-28.88 289.72,-19.52"/>
<polygon fill="midnightblue" stroke="midnightblue" points="440.58,-57.62 451.11,-56.44 442.14,-50.8 440.58,-57.62"/>
</g>
<!-- Node11 -->
<g id="node11" class="node">
<title>Node11</title>
<g id="a_node11"><a xlink:href="_loop_8cc.html" target="_top" xlink:title=" ">
<polygon fill="white" stroke="black" points="606,-0.5 606,-19.5 707,-19.5 707,-0.5 606,-0.5"/>
<text text-anchor="middle" x="656.5" y="-7.5" font-family="Helvetica,sans-Serif" font-size="10.00">language/Loop.cc</text>
</a>
</g>
</g>
<!-- Node10&#45;&gt;Node11 -->
<g id="edge13" class="edge">
<title>Node10&#45;&gt;Node11</title>
<path fill="none" stroke="midnightblue" d="M524.89,-53.3C556.54,-43.13 601.67,-28.62 630,-19.52"/>
<polygon fill="midnightblue" stroke="midnightblue" points="523.57,-50.05 515.12,-56.44 525.71,-56.72 523.57,-50.05"/>
</g>
</g>
</svg>
