<?xml version="1.0" encoding="UTF-8" standalone="no"?>
<!DOCTYPE svg PUBLIC "-//W3C//DTD SVG 1.1//EN"
 "http://www.w3.org/Graphics/SVG/1.1/DTD/svg11.dtd">
<!-- Generated by graphviz version 2.43.0 (0)
 -->
<!-- Title: language/ErrorStatment.h Pages: 1 -->
<svg width="554pt" height="140pt"
 viewBox="0.00 0.00 554.00 140.00" xmlns="http://www.w3.org/2000/svg" xmlns:xlink="http://www.w3.org/1999/xlink">
<g id="graph0" class="graph" transform="scale(1 1) rotate(0) translate(4 136)">
<title>language/ErrorStatment.h</title>
<polygon fill="white" stroke="transparent" points="-4,4 -4,-136 550,-136 550,4 -4,4"/>
<!-- Node1 -->
<g id="node1" class="node">
<title>Node1</title>
<g id="a_node1"><a xlink:title=" ">
<polygon fill="#bfbfbf" stroke="black" points="59,-112.5 59,-131.5 201,-131.5 201,-112.5 59,-112.5"/>
<text text-anchor="middle" x="130" y="-119.5" font-family="Helvetica,sans-Serif" font-size="10.00">language/ErrorStatment.h</text>
</a>
</g>
</g>
<!-- Node2 -->
<g id="node2" class="node">
<title>Node2</title>
<g id="a_node2"><a xlink:title=" ">
<polygon fill="white" stroke="#bfbfbf" points="74.5,-0.5 74.5,-19.5 119.5,-19.5 119.5,-0.5 74.5,-0.5"/>
<text text-anchor="middle" x="97" y="-7.5" font-family="Helvetica,sans-Serif" font-size="10.00">utility</text>
</a>
</g>
</g>
<!-- Node1&#45;&gt;Node2 -->
<g id="edge1" class="edge">
<title>Node1&#45;&gt;Node2</title>
<path fill="none" stroke="midnightblue" d="M127.41,-112.37C122.06,-94.54 109.69,-53.3 102.48,-29.27"/>
<polygon fill="midnightblue" stroke="midnightblue" points="105.8,-28.16 99.58,-19.59 99.1,-30.18 105.8,-28.16"/>
</g>
<!-- Node3 -->
<g id="node3" class="node">
<title>Node3</title>
<g id="a_node3"><a xlink:href="_i_statment_8h.html" target="_top" xlink:title=" ">
<polygon fill="white" stroke="black" points="128,-56.5 128,-75.5 202,-75.5 202,-56.5 128,-56.5"/>
<text text-anchor="middle" x="165" y="-63.5" font-family="Helvetica,sans-Serif" font-size="10.00">IStatment.h</text>
</a>
</g>
</g>
<!-- Node1&#45;&gt;Node3 -->
<g id="edge2" class="edge">
<title>Node1&#45;&gt;Node3</title>
<path fill="none" stroke="midnightblue" d="M135.78,-112.08C140.67,-104.53 147.83,-93.49 153.83,-84.23"/>
<polygon fill="midnightblue" stroke="midnightblue" points="156.83,-86.05 159.33,-75.75 150.95,-82.24 156.83,-86.05"/>
</g>
<!-- Node4 -->
<g id="node4" class="node">
<title>Node4</title>
<g id="a_node4"><a xlink:href="_i_value_8h.html" target="_top" xlink:title=" ">
<polygon fill="white" stroke="black" points="0,-0.5 0,-19.5 56,-19.5 56,-0.5 0,-0.5"/>
<text text-anchor="middle" x="28" y="-7.5" font-family="Helvetica,sans-Serif" font-size="10.00">IValue.h</text>
</a>
</g>
</g>
<!-- Node1&#45;&gt;Node4 -->
<g id="edge6" class="edge">
<title>Node1&#45;&gt;Node4</title>
<path fill="none" stroke="midnightblue" d="M122,-112.37C104.94,-93.97 64.79,-50.67 42.88,-27.05"/>
<polygon fill="midnightblue" stroke="midnightblue" points="45.33,-24.54 35.97,-19.59 40.2,-29.3 45.33,-24.54"/>
</g>
<!-- Node7 -->
<g id="node7" class="node">
<title>Node7</title>
<g id="a_node7"><a xlink:href="utils_8h.html" target="_top" xlink:title=" ">
<polygon fill="white" stroke="black" points="248.5,-56.5 248.5,-75.5 295.5,-75.5 295.5,-56.5 248.5,-56.5"/>
<text text-anchor="middle" x="272" y="-63.5" font-family="Helvetica,sans-Serif" font-size="10.00">utils.h</text>
</a>
</g>
</g>
<!-- Node1&#45;&gt;Node7 -->
<g id="edge7" class="edge">
<title>Node1&#45;&gt;Node7</title>
<path fill="none" stroke="midnightblue" d="M152.5,-112.44C176.08,-103.48 213.32,-89.31 239.96,-79.18"/>
<polygon fill="midnightblue" stroke="midnightblue" points="241.5,-82.34 249.6,-75.52 239.01,-75.8 241.5,-82.34"/>
</g>
<!-- Node3&#45;&gt;Node4 -->
<g id="edge3" class="edge">
<title>Node3&#45;&gt;Node4</title>
<path fill="none" stroke="midnightblue" d="M143.29,-56.44C120.65,-47.52 84.93,-33.44 59.25,-23.32"/>
<polygon fill="midnightblue" stroke="midnightblue" points="60.19,-19.93 49.61,-19.52 57.63,-26.44 60.19,-19.93"/>
</g>
<!-- Node5 -->
<g id="node5" class="node">
<title>Node5</title>
<g id="a_node5"><a xlink:title=" ">
<polygon fill="white" stroke="#bfbfbf" points="138,-0.5 138,-19.5 194,-19.5 194,-0.5 138,-0.5"/>
<text text-anchor="middle" x="166" y="-7.5" font-family="Helvetica,sans-Serif" font-size="10.00">optional</text>
</a>
</g>
</g>
<!-- Node3&#45;&gt;Node5 -->
<g id="edge4" class="edge">
<title>Node3&#45;&gt;Node5</title>
<path fill="none" stroke="midnightblue" d="M165.17,-56.08C165.3,-49.01 165.48,-38.86 165.65,-29.99"/>
<polygon fill="midnightblue" stroke="midnightblue" points="169.15,-29.81 165.84,-19.75 162.15,-29.68 169.15,-29.81"/>
</g>
<!-- Node6 -->
<g id="node6" class="node">
<title>Node6</title>
<g id="a_node6"><a xlink:title=" ">
<polygon fill="white" stroke="#bfbfbf" points="212,-0.5 212,-19.5 256,-19.5 256,-0.5 212,-0.5"/>
<text text-anchor="middle" x="234" y="-7.5" font-family="Helvetica,sans-Serif" font-size="10.00">string</text>
</a>
</g>
</g>
<!-- Node3&#45;&gt;Node6 -->
<g id="edge5" class="edge">
<title>Node3&#45;&gt;Node6</title>
<path fill="none" stroke="midnightblue" d="M176.09,-56.32C186.49,-48.18 202.26,-35.84 214.72,-26.09"/>
<polygon fill="midnightblue" stroke="midnightblue" points="216.99,-28.75 222.71,-19.83 212.68,-23.24 216.99,-28.75"/>
</g>
<!-- Node7&#45;&gt;Node2 -->
<g id="edge14" class="edge">
<title>Node7&#45;&gt;Node2</title>
<path fill="none" stroke="midnightblue" d="M248.4,-57.72C217.66,-48.23 163.79,-31.61 129.28,-20.96"/>
<polygon fill="midnightblue" stroke="midnightblue" points="130.26,-17.6 119.67,-18 128.2,-24.29 130.26,-17.6"/>
</g>
<!-- Node7&#45;&gt;Node5 -->
<g id="edge11" class="edge">
<title>Node7&#45;&gt;Node5</title>
<path fill="none" stroke="midnightblue" d="M254.97,-56.32C237.97,-47.66 211.62,-34.24 192.01,-24.25"/>
<polygon fill="midnightblue" stroke="midnightblue" points="193.49,-21.08 182.99,-19.65 190.31,-27.31 193.49,-21.08"/>
</g>
<!-- Node7&#45;&gt;Node6 -->
<g id="edge13" class="edge">
<title>Node7&#45;&gt;Node6</title>
<path fill="none" stroke="midnightblue" d="M265.73,-56.08C260.36,-48.46 252.48,-37.26 245.92,-27.94"/>
<polygon fill="midnightblue" stroke="midnightblue" points="248.78,-25.91 240.16,-19.75 243.05,-29.94 248.78,-25.91"/>
</g>
<!-- Node8 -->
<g id="node8" class="node">
<title>Node8</title>
<g id="a_node8"><a xlink:title=" ">
<polygon fill="white" stroke="#bfbfbf" points="274,-0.5 274,-19.5 326,-19.5 326,-0.5 274,-0.5"/>
<text text-anchor="middle" x="300" y="-7.5" font-family="Helvetica,sans-Serif" font-size="10.00">cassert</text>
</a>
</g>
</g>
<!-- Node7&#45;&gt;Node8 -->
<g id="edge8" class="edge">
<title>Node7&#45;&gt;Node8</title>
<path fill="none" stroke="midnightblue" d="M276.62,-56.08C280.46,-48.69 286.02,-37.95 290.76,-28.81"/>
<polygon fill="midnightblue" stroke="midnightblue" points="293.97,-30.24 295.46,-19.75 287.75,-27.02 293.97,-30.24"/>
</g>
<!-- Node9 -->
<g id="node9" class="node">
<title>Node9</title>
<g id="a_node9"><a xlink:title=" ">
<polygon fill="white" stroke="#bfbfbf" points="344.5,-0.5 344.5,-19.5 393.5,-19.5 393.5,-0.5 344.5,-0.5"/>
<text text-anchor="middle" x="369" y="-7.5" font-family="Helvetica,sans-Serif" font-size="10.00">cstdlib</text>
</a>
</g>
</g>
<!-- Node7&#45;&gt;Node9 -->
<g id="edge9" class="edge">
<title>Node7&#45;&gt;Node9</title>
<path fill="none" stroke="midnightblue" d="M287.58,-56.32C303,-47.74 326.81,-34.49 344.71,-24.52"/>
<polygon fill="midnightblue" stroke="midnightblue" points="346.42,-27.58 353.45,-19.65 343.01,-21.46 346.42,-27.58"/>
</g>
<!-- Node10 -->
<g id="node10" class="node">
<title>Node10</title>
<g id="a_node10"><a xlink:title=" ">
<polygon fill="white" stroke="#bfbfbf" points="412,-0.5 412,-19.5 472,-19.5 472,-0.5 412,-0.5"/>
<text text-anchor="middle" x="442" y="-7.5" font-family="Helvetica,sans-Serif" font-size="10.00">iostream</text>
</a>
</g>
</g>
<!-- Node7&#45;&gt;Node10 -->
<g id="edge10" class="edge">
<title>Node7&#45;&gt;Node10</title>
<path fill="none" stroke="midnightblue" d="M295.64,-57.49C324.08,-48.46 372.15,-33.19 405.4,-22.63"/>
<polygon fill="midnightblue" stroke="midnightblue" points="406.73,-25.88 415.2,-19.51 404.61,-19.2 406.73,-25.88"/>
</g>
<!-- Node11 -->
<g id="node11" class="node">
<title>Node11</title>
<g id="a_node11"><a xlink:title=" ">
<polygon fill="white" stroke="#bfbfbf" points="490,-0.5 490,-19.5 546,-19.5 546,-0.5 490,-0.5"/>
<text text-anchor="middle" x="518" y="-7.5" font-family="Helvetica,sans-Serif" font-size="10.00">sstream</text>
</a>
</g>
</g>
<!-- Node7&#45;&gt;Node11 -->
<g id="edge12" class="edge">
<title>Node7&#45;&gt;Node11</title>
<path fill="none" stroke="midnightblue" d="M295.55,-60.14C332.63,-52.45 407.13,-36.8 479.94,-20.2"/>
<polygon fill="midnightblue" stroke="midnightblue" points="480.77,-23.6 489.74,-17.96 479.21,-16.78 480.77,-23.6"/>
</g>
</g>
</svg>
