<?xml version="1.0" encoding="UTF-8" standalone="no"?>
<!DOCTYPE svg PUBLIC "-//W3C//DTD SVG 1.1//EN"
 "http://www.w3.org/Graphics/SVG/1.1/DTD/svg11.dtd">
<!-- Generated by graphviz version 2.43.0 (0)
 -->
<!-- Title: language/FuncCall.cc Pages: 1 -->
<!--zoomable 420 -->
<svg id="main" version="1.1" xmlns="http://www.w3.org/2000/svg" xmlns:xlink="http://www.w3.org/1999/xlink" xml:space="preserve" onload="init(evt)">
<style type="text/css"><![CDATA[
.edge:hover path { stroke: red; }
.edge:hover polygon { stroke: red; fill: red; }
]]></style>
<script type="text/javascript"><![CDATA[
var edges = document.getElementsByTagName('g');
if (edges && edges.length) {
  for (var i=0;i<edges.length;i++) {
    if (edges[i].id.substr(0,4)=='edge') {
      edges[i].setAttribute('class','edge');
    }
  }
}
]]></script>
        <defs>
                <circle id="rim" cx="0" cy="0" r="7"/>
                <circle id="rim2" cx="0" cy="0" r="3.5"/>
                <g id="zoomPlus">
                        <use xlink:href="#rim" fill="#404040">
                                <set attributeName="fill" to="#808080" begin="zoomplus.mouseover" end="zoomplus.mouseout"/>
                        </use>
                        <path d="M-4,0h8M0,-4v8" fill="none" stroke="white" stroke-width="1.5" pointer-events="none"/>
                </g>
                <g id="zoomMin">
                        <use xlink:href="#rim" fill="#404040">
                                <set attributeName="fill" to="#808080" begin="zoomminus.mouseover" end="zoomminus.mouseout"/>
                        </use>
                        <path d="M-4,0h8" fill="none" stroke="white" stroke-width="1.5" pointer-events="none"/>
                </g>
                <g id="dirArrow">
                        <path fill="none" stroke="white" stroke-width="1.5" d="M0,-3.0v7 M-2.5,-0.5L0,-3.0L2.5,-0.5"/>
                </g>
               <g id="resetDef">
                       <use xlink:href="#rim2" fill="#404040">
                               <set attributeName="fill" to="#808080" begin="reset.mouseover" end="reset.mouseout"/>
                       </use>
               </g>
        </defs>

<script type="text/javascript">
var viewWidth = 1399;
var viewHeight = 420;
var sectionId = 'dynsection-0';
</script>
<script xlink:href="svgpan.js"/>
<svg id="graph" class="graph">
<g id="viewport">
<title>language/FuncCall.cc</title>
<polygon fill="white" stroke="transparent" points="-4,4 -4,-416 1394.72,-416 1394.72,4 -4,4"/>
<!-- Node1 -->
<g id="node1" class="node">
<title>Node1</title>
<g id="a_node1"><a xlink:title=" ">
<polygon fill="#bfbfbf" stroke="black" points="1014.5,-392.5 1014.5,-411.5 1133.5,-411.5 1133.5,-392.5 1014.5,-392.5"/>
<text text-anchor="middle" x="1074" y="-399.5" font-family="Helvetica,sans-Serif" font-size="10.00">language/FuncCall.cc</text>
</a>
</g>
</g>
<!-- Node2 -->
<g id="node2" class="node">
<title>Node2</title>
<g id="a_node2"><a xlink:href="_func_call_8h.html" target="_top" xlink:title=" ">
<polygon fill="white" stroke="black" points="1294.5,-112.5 1294.5,-131.5 1361.5,-131.5 1361.5,-112.5 1294.5,-112.5"/>
<text text-anchor="middle" x="1328" y="-119.5" font-family="Helvetica,sans-Serif" font-size="10.00">FuncCall.h</text>
</a>
</g>
</g>
<!-- Node1&#45;&gt;Node2 -->
<g id="edge1" class="edge">
<title>Node1&#45;&gt;Node2</title>
<path fill="none" stroke="midnightblue" d="M1084.05,-392.33C1094.16,-383.48 1110.07,-369.21 1123,-356 1199.04,-278.32 1282.54,-178.37 1314.52,-139.5"/>
<polygon fill="midnightblue" stroke="midnightblue" points="1317.23,-141.71 1320.87,-131.76 1311.82,-137.27 1317.23,-141.71"/>
</g>
<!-- Node8 -->
<g id="node8" class="node">
<title>Node8</title>
<g id="a_node8"><a xlink:title=" ">
<polygon fill="white" stroke="#bfbfbf" points="832.5,-56.5 832.5,-75.5 877.5,-75.5 877.5,-56.5 832.5,-56.5"/>
<text text-anchor="middle" x="855" y="-63.5" font-family="Helvetica,sans-Serif" font-size="10.00">utility</text>
</a>
</g>
</g>
<!-- Node1&#45;&gt;Node8 -->
<g id="edge7" class="edge">
<title>Node1&#45;&gt;Node8</title>
<path fill="none" stroke="midnightblue" d="M1014.45,-396.32C949.6,-387.59 855,-362.59 855,-291 855,-291 855,-291 855,-177 855,-144.95 855,-107.64 855,-85.75"/>
<polygon fill="midnightblue" stroke="midnightblue" points="858.5,-85.56 855,-75.56 851.5,-85.56 858.5,-85.56"/>
</g>
<!-- Node9 -->
<g id="node9" class="node">
<title>Node9</title>
<g id="a_node9"><a xlink:href="_error_statment_8h.html" target="_top" xlink:title=" ">
<polygon fill="white" stroke="black" points="694,-168.5 694,-187.5 788,-187.5 788,-168.5 694,-168.5"/>
<text text-anchor="middle" x="741" y="-175.5" font-family="Helvetica,sans-Serif" font-size="10.00">ErrorStatment.h</text>
</a>
</g>
</g>
<!-- Node1&#45;&gt;Node9 -->
<g id="edge8" class="edge">
<title>Node1&#45;&gt;Node9</title>
<path fill="none" stroke="midnightblue" d="M1014.33,-395.2C954.73,-388.41 868.17,-375.55 841,-356 785.18,-315.84 756.4,-234.28 745.84,-197.6"/>
<polygon fill="midnightblue" stroke="midnightblue" points="749.16,-196.47 743.13,-187.76 742.41,-198.33 749.16,-196.47"/>
</g>
<!-- Node15 -->
<g id="node15" class="node">
<title>Node15</title>
<g id="a_node15"><a xlink:href="_func_def_8h.html" target="_top" xlink:title=" ">
<polygon fill="white" stroke="black" points="1118.5,-168.5 1118.5,-187.5 1183.5,-187.5 1183.5,-168.5 1118.5,-168.5"/>
<text text-anchor="middle" x="1151" y="-175.5" font-family="Helvetica,sans-Serif" font-size="10.00">FuncDef.h</text>
</a>
</g>
</g>
<!-- Node1&#45;&gt;Node15 -->
<g id="edge20" class="edge">
<title>Node1&#45;&gt;Node15</title>
<path fill="none" stroke="midnightblue" d="M1081.68,-392.31C1088.94,-383.67 1099.64,-369.75 1106,-356 1131.14,-301.69 1143.67,-231.25 1148.52,-197.98"/>
<polygon fill="midnightblue" stroke="midnightblue" points="1152.02,-198.24 1149.92,-187.86 1145.08,-197.28 1152.02,-198.24"/>
</g>
<!-- Node17 -->
<g id="node17" class="node">
<title>Node17</title>
<g id="a_node17"><a xlink:href="_null_8h.html" target="_top" xlink:title=" ">
<polygon fill="white" stroke="black" points="1051.5,-336.5 1051.5,-355.5 1096.5,-355.5 1096.5,-336.5 1051.5,-336.5"/>
<text text-anchor="middle" x="1074" y="-343.5" font-family="Helvetica,sans-Serif" font-size="10.00">Null.h</text>
</a>
</g>
</g>
<!-- Node1&#45;&gt;Node17 -->
<g id="edge28" class="edge">
<title>Node1&#45;&gt;Node17</title>
<path fill="none" stroke="midnightblue" d="M1074,-392.08C1074,-385.01 1074,-374.86 1074,-365.99"/>
<polygon fill="midnightblue" stroke="midnightblue" points="1077.5,-365.75 1074,-355.75 1070.5,-365.75 1077.5,-365.75"/>
</g>
<!-- Node3 -->
<g id="node3" class="node">
<title>Node3</title>
<g id="a_node3"><a xlink:href="_i_statment_8h.html" target="_top" xlink:title=" ">
<polygon fill="white" stroke="black" points="1082,-56.5 1082,-75.5 1156,-75.5 1156,-56.5 1082,-56.5"/>
<text text-anchor="middle" x="1119" y="-63.5" font-family="Helvetica,sans-Serif" font-size="10.00">IStatment.h</text>
</a>
</g>
</g>
<!-- Node2&#45;&gt;Node3 -->
<g id="edge2" class="edge">
<title>Node2&#45;&gt;Node3</title>
<path fill="none" stroke="midnightblue" d="M1294.88,-112.44C1258.88,-103.14 1201.23,-88.25 1161.81,-78.06"/>
<polygon fill="midnightblue" stroke="midnightblue" points="1162.52,-74.63 1151.96,-75.52 1160.77,-81.41 1162.52,-74.63"/>
</g>
<!-- Node7 -->
<g id="node7" class="node">
<title>Node7</title>
<g id="a_node7"><a xlink:title=" ">
<polygon fill="white" stroke="#bfbfbf" points="1291.5,-56.5 1291.5,-75.5 1338.5,-75.5 1338.5,-56.5 1291.5,-56.5"/>
<text text-anchor="middle" x="1315" y="-63.5" font-family="Helvetica,sans-Serif" font-size="10.00">vector</text>
</a>
</g>
</g>
<!-- Node2&#45;&gt;Node7 -->
<g id="edge6" class="edge">
<title>Node2&#45;&gt;Node7</title>
<path fill="none" stroke="midnightblue" d="M1325.85,-112.08C1324.13,-104.93 1321.65,-94.64 1319.5,-85.69"/>
<polygon fill="midnightblue" stroke="midnightblue" points="1322.85,-84.65 1317.11,-75.75 1316.04,-86.29 1322.85,-84.65"/>
</g>
<!-- Node4 -->
<g id="node4" class="node">
<title>Node4</title>
<g id="a_node4"><a xlink:href="_i_value_8h.html" target="_top" xlink:title=" ">
<polygon fill="white" stroke="black" points="713,-0.5 713,-19.5 769,-19.5 769,-0.5 713,-0.5"/>
<text text-anchor="middle" x="741" y="-7.5" font-family="Helvetica,sans-Serif" font-size="10.00">IValue.h</text>
</a>
</g>
</g>
<!-- Node3&#45;&gt;Node4 -->
<g id="edge3" class="edge">
<title>Node3&#45;&gt;Node4</title>
<path fill="none" stroke="midnightblue" d="M1081.72,-59.67C1009.65,-49.38 851.89,-26.84 779.14,-16.45"/>
<polygon fill="midnightblue" stroke="midnightblue" points="779.44,-12.96 769.04,-15.01 778.45,-19.89 779.44,-12.96"/>
</g>
<!-- Node5 -->
<g id="node5" class="node">
<title>Node5</title>
<g id="a_node5"><a xlink:title=" ">
<polygon fill="white" stroke="#bfbfbf" points="1149,-0.5 1149,-19.5 1205,-19.5 1205,-0.5 1149,-0.5"/>
<text text-anchor="middle" x="1177" y="-7.5" font-family="Helvetica,sans-Serif" font-size="10.00">optional</text>
</a>
</g>
</g>
<!-- Node3&#45;&gt;Node5 -->
<g id="edge4" class="edge">
<title>Node3&#45;&gt;Node5</title>
<path fill="none" stroke="midnightblue" d="M1128.32,-56.32C1136.89,-48.34 1149.81,-36.31 1160.19,-26.65"/>
<polygon fill="midnightblue" stroke="midnightblue" points="1162.58,-29.21 1167.51,-19.83 1157.81,-24.09 1162.58,-29.21"/>
</g>
<!-- Node6 -->
<g id="node6" class="node">
<title>Node6</title>
<g id="a_node6"><a xlink:title=" ">
<polygon fill="white" stroke="#bfbfbf" points="311,-0.5 311,-19.5 355,-19.5 355,-0.5 311,-0.5"/>
<text text-anchor="middle" x="333" y="-7.5" font-family="Helvetica,sans-Serif" font-size="10.00">string</text>
</a>
</g>
</g>
<!-- Node3&#45;&gt;Node6 -->
<g id="edge5" class="edge">
<title>Node3&#45;&gt;Node6</title>
<path fill="none" stroke="midnightblue" d="M1081.88,-62.45C947.94,-53.25 490.8,-21.84 365.17,-13.21"/>
<polygon fill="midnightblue" stroke="midnightblue" points="365.27,-9.71 355.05,-12.51 364.79,-16.69 365.27,-9.71"/>
</g>
<!-- Node9&#45;&gt;Node3 -->
<g id="edge10" class="edge">
<title>Node9&#45;&gt;Node3</title>
<path fill="none" stroke="midnightblue" d="M788.04,-173.73C878.83,-167.03 1071.39,-150.77 1095,-132 1108.96,-120.9 1114.8,-100.87 1117.24,-85.96"/>
<polygon fill="midnightblue" stroke="midnightblue" points="1120.74,-86.16 1118.53,-75.8 1113.8,-85.28 1120.74,-86.16"/>
</g>
<!-- Node9&#45;&gt;Node4 -->
<g id="edge11" class="edge">
<title>Node9&#45;&gt;Node4</title>
<path fill="none" stroke="midnightblue" d="M741,-168.08C741,-141.95 741,-65.21 741,-29.58"/>
<polygon fill="midnightblue" stroke="midnightblue" points="744.5,-29.57 741,-19.57 737.5,-29.57 744.5,-29.57"/>
</g>
<!-- Node9&#45;&gt;Node8 -->
<g id="edge9" class="edge">
<title>Node9&#45;&gt;Node8</title>
<path fill="none" stroke="midnightblue" d="M751.62,-168.32C762.31,-159.46 779.17,-145.18 793,-132 809.83,-115.97 828.08,-96.57 840.39,-83.16"/>
<polygon fill="midnightblue" stroke="midnightblue" points="843.07,-85.41 847.23,-75.67 837.9,-80.7 843.07,-85.41"/>
</g>
<!-- Node10 -->
<g id="node10" class="node">
<title>Node10</title>
<g id="a_node10"><a xlink:href="utils_8h.html" target="_top" xlink:title=" ">
<polygon fill="white" stroke="black" points="180.5,-112.5 180.5,-131.5 227.5,-131.5 227.5,-112.5 180.5,-112.5"/>
<text text-anchor="middle" x="204" y="-119.5" font-family="Helvetica,sans-Serif" font-size="10.00">utils.h</text>
</a>
</g>
</g>
<!-- Node9&#45;&gt;Node10 -->
<g id="edge12" class="edge">
<title>Node9&#45;&gt;Node10</title>
<path fill="none" stroke="midnightblue" d="M693.76,-172.87C609.68,-165.41 428.56,-148.91 276,-132 263.51,-130.62 249.82,-128.94 237.76,-127.42"/>
<polygon fill="midnightblue" stroke="midnightblue" points="238.02,-123.92 227.65,-126.13 237.13,-130.87 238.02,-123.92"/>
</g>
<!-- Node10&#45;&gt;Node5 -->
<g id="edge16" class="edge">
<title>Node10&#45;&gt;Node5</title>
<path fill="none" stroke="midnightblue" d="M227.52,-117.12C270.49,-109.91 364.51,-93.56 443,-76 477.5,-68.28 485.1,-61.68 520,-56 752.96,-18.1 1037.45,-12.06 1138.86,-11.15"/>
<polygon fill="midnightblue" stroke="midnightblue" points="1138.96,-14.65 1148.93,-11.07 1138.9,-7.65 1138.96,-14.65"/>
</g>
<!-- Node10&#45;&gt;Node6 -->
<g id="edge18" class="edge">
<title>Node10&#45;&gt;Node6</title>
<path fill="none" stroke="midnightblue" d="M204.23,-112.28C205.04,-98.62 208.52,-72.07 223,-56 243.18,-33.6 276.16,-22.11 300.76,-16.37"/>
<polygon fill="midnightblue" stroke="midnightblue" points="301.67,-19.76 310.72,-14.25 300.21,-12.91 301.67,-19.76"/>
</g>
<!-- Node10&#45;&gt;Node8 -->
<g id="edge19" class="edge">
<title>Node10&#45;&gt;Node8</title>
<path fill="none" stroke="midnightblue" d="M227.64,-117.76C241.68,-115.91 259.83,-113.64 276,-112 483.51,-90.98 733.74,-74.55 822.14,-69.01"/>
<polygon fill="midnightblue" stroke="midnightblue" points="822.58,-72.49 832.34,-68.38 822.14,-65.51 822.58,-72.49"/>
</g>
<!-- Node11 -->
<g id="node11" class="node">
<title>Node11</title>
<g id="a_node11"><a xlink:title=" ">
<polygon fill="white" stroke="#bfbfbf" points="124,-56.5 124,-75.5 176,-75.5 176,-56.5 124,-56.5"/>
<text text-anchor="middle" x="150" y="-63.5" font-family="Helvetica,sans-Serif" font-size="10.00">cassert</text>
</a>
</g>
</g>
<!-- Node10&#45;&gt;Node11 -->
<g id="edge13" class="edge">
<title>Node10&#45;&gt;Node11</title>
<path fill="none" stroke="midnightblue" d="M195.08,-112.08C187.22,-104.22 175.57,-92.57 166.08,-83.08"/>
<polygon fill="midnightblue" stroke="midnightblue" points="168.3,-80.35 158.75,-75.75 163.35,-85.3 168.3,-80.35"/>
</g>
<!-- Node12 -->
<g id="node12" class="node">
<title>Node12</title>
<g id="a_node12"><a xlink:title=" ">
<polygon fill="white" stroke="#bfbfbf" points="306.5,-56.5 306.5,-75.5 355.5,-75.5 355.5,-56.5 306.5,-56.5"/>
<text text-anchor="middle" x="331" y="-63.5" font-family="Helvetica,sans-Serif" font-size="10.00">cstdlib</text>
</a>
</g>
</g>
<!-- Node10&#45;&gt;Node12 -->
<g id="edge14" class="edge">
<title>Node10&#45;&gt;Node12</title>
<path fill="none" stroke="midnightblue" d="M224.12,-112.44C245.02,-103.56 277.93,-89.56 301.72,-79.45"/>
<polygon fill="midnightblue" stroke="midnightblue" points="303.14,-82.65 310.97,-75.52 300.4,-76.21 303.14,-82.65"/>
</g>
<!-- Node13 -->
<g id="node13" class="node">
<title>Node13</title>
<g id="a_node13"><a xlink:title=" ">
<polygon fill="white" stroke="#bfbfbf" points="374,-56.5 374,-75.5 434,-75.5 434,-56.5 374,-56.5"/>
<text text-anchor="middle" x="404" y="-63.5" font-family="Helvetica,sans-Serif" font-size="10.00">iostream</text>
</a>
</g>
</g>
<!-- Node10&#45;&gt;Node13 -->
<g id="edge15" class="edge">
<title>Node10&#45;&gt;Node13</title>
<path fill="none" stroke="midnightblue" d="M227.73,-114.59C261.3,-105.53 323.13,-88.84 363.9,-77.83"/>
<polygon fill="midnightblue" stroke="midnightblue" points="365.05,-81.14 373.79,-75.16 363.22,-74.39 365.05,-81.14"/>
</g>
<!-- Node14 -->
<g id="node14" class="node">
<title>Node14</title>
<g id="a_node14"><a xlink:title=" ">
<polygon fill="white" stroke="#bfbfbf" points="232,-56.5 232,-75.5 288,-75.5 288,-56.5 232,-56.5"/>
<text text-anchor="middle" x="260" y="-63.5" font-family="Helvetica,sans-Serif" font-size="10.00">sstream</text>
</a>
</g>
</g>
<!-- Node10&#45;&gt;Node14 -->
<g id="edge17" class="edge">
<title>Node10&#45;&gt;Node14</title>
<path fill="none" stroke="midnightblue" d="M213,-112.32C221.19,-104.42 233.51,-92.55 243.47,-82.94"/>
<polygon fill="midnightblue" stroke="midnightblue" points="246.07,-85.29 250.84,-75.83 241.21,-80.26 246.07,-85.29"/>
</g>
<!-- Node15&#45;&gt;Node3 -->
<g id="edge27" class="edge">
<title>Node15&#45;&gt;Node3</title>
<path fill="none" stroke="midnightblue" d="M1157.58,-168.33C1166.36,-155.61 1179.83,-131.33 1171,-112 1165.22,-99.36 1153.95,-88.91 1143.37,-81.27"/>
<polygon fill="midnightblue" stroke="midnightblue" points="1145.04,-78.18 1134.78,-75.53 1141.15,-84 1145.04,-78.18"/>
</g>
<!-- Node15&#45;&gt;Node8 -->
<g id="edge21" class="edge">
<title>Node15&#45;&gt;Node8</title>
<path fill="none" stroke="midnightblue" d="M1118.32,-173.45C1077.74,-168.19 1007.02,-156.23 951,-132 921.47,-119.23 891.39,-97.06 872.96,-82.22"/>
<polygon fill="midnightblue" stroke="midnightblue" points="874.85,-79.24 864.9,-75.59 870.4,-84.64 874.85,-79.24"/>
</g>
<!-- Node16 -->
<g id="node16" class="node">
<title>Node16</title>
<g id="a_node16"><a xlink:href="_block_8h.html" target="_top" xlink:title=" ">
<polygon fill="white" stroke="black" points="1223.5,-112.5 1223.5,-131.5 1276.5,-131.5 1276.5,-112.5 1223.5,-112.5"/>
<text text-anchor="middle" x="1250" y="-119.5" font-family="Helvetica,sans-Serif" font-size="10.00">Block.h</text>
</a>
</g>
</g>
<!-- Node15&#45;&gt;Node16 -->
<g id="edge22" class="edge">
<title>Node15&#45;&gt;Node16</title>
<path fill="none" stroke="midnightblue" d="M1166.91,-168.32C1182.64,-159.74 1206.94,-146.49 1225.21,-136.52"/>
<polygon fill="midnightblue" stroke="midnightblue" points="1227.03,-139.52 1234.13,-131.65 1223.68,-133.37 1227.03,-139.52"/>
</g>
<!-- Node16&#45;&gt;Node3 -->
<g id="edge23" class="edge">
<title>Node16&#45;&gt;Node3</title>
<path fill="none" stroke="midnightblue" d="M1229.24,-112.44C1207.68,-103.56 1173.74,-89.56 1149.21,-79.45"/>
<polygon fill="midnightblue" stroke="midnightblue" points="1150.24,-76.09 1139.66,-75.52 1147.57,-82.56 1150.24,-76.09"/>
</g>
<!-- Node16&#45;&gt;Node5 -->
<g id="edge24" class="edge">
<title>Node16&#45;&gt;Node5</title>
<path fill="none" stroke="midnightblue" d="M1244.27,-112.37C1232.22,-94.22 1204.08,-51.8 1188.28,-27.99"/>
<polygon fill="midnightblue" stroke="midnightblue" points="1191.15,-25.99 1182.7,-19.59 1185.31,-29.86 1191.15,-25.99"/>
</g>
<!-- Node16&#45;&gt;Node6 -->
<g id="edge25" class="edge">
<title>Node16&#45;&gt;Node6</title>
<path fill="none" stroke="midnightblue" d="M1242.13,-112.24C1228.25,-97.48 1197.77,-68.09 1165,-56 1089.11,-28 510.69,-14.58 365.82,-11.63"/>
<polygon fill="midnightblue" stroke="midnightblue" points="365.47,-8.12 355.4,-11.42 365.32,-15.12 365.47,-8.12"/>
</g>
<!-- Node16&#45;&gt;Node7 -->
<g id="edge26" class="edge">
<title>Node16&#45;&gt;Node7</title>
<path fill="none" stroke="midnightblue" d="M1260.44,-112.32C1270.15,-104.26 1284.82,-92.08 1296.5,-82.37"/>
<polygon fill="midnightblue" stroke="midnightblue" points="1298.91,-84.92 1304.37,-75.83 1294.44,-79.53 1298.91,-84.92"/>
</g>
<!-- Node17&#45;&gt;Node4 -->
<g id="edge62" class="edge">
<title>Node17&#45;&gt;Node4</title>
<path fill="none" stroke="midnightblue" d="M1092.44,-336.47C1171.59,-298.97 1472.94,-146.63 1348,-56 1302.08,-22.69 906.09,-13.6 779.64,-11.53"/>
<polygon fill="midnightblue" stroke="midnightblue" points="779.34,-8.03 769.29,-11.37 779.23,-15.03 779.34,-8.03"/>
</g>
<!-- Node18 -->
<g id="node18" class="node">
<title>Node18</title>
<g id="a_node18"><a xlink:href="_bind_def_8h.html" target="_top" xlink:title=" ">
<polygon fill="white" stroke="black" points="1031,-280.5 1031,-299.5 1095,-299.5 1095,-280.5 1031,-280.5"/>
<text text-anchor="middle" x="1063" y="-287.5" font-family="Helvetica,sans-Serif" font-size="10.00">BindDef.h</text>
</a>
</g>
</g>
<!-- Node17&#45;&gt;Node18 -->
<g id="edge29" class="edge">
<title>Node17&#45;&gt;Node18</title>
<path fill="none" stroke="midnightblue" d="M1072.18,-336.08C1070.73,-328.93 1068.63,-318.64 1066.81,-309.69"/>
<polygon fill="midnightblue" stroke="midnightblue" points="1070.21,-308.85 1064.78,-299.75 1063.35,-310.25 1070.21,-308.85"/>
</g>
<!-- Node18&#45;&gt;Node5 -->
<g id="edge30" class="edge">
<title>Node18&#45;&gt;Node5</title>
<path fill="none" stroke="midnightblue" d="M1095.09,-285.31C1164.44,-275.36 1326.87,-240.89 1387,-132 1399.05,-110.19 1377.71,-64.03 1369,-56 1346.86,-35.58 1264.42,-21.97 1215.06,-15.45"/>
<polygon fill="midnightblue" stroke="midnightblue" points="1215.42,-11.97 1205.06,-14.17 1214.53,-18.92 1215.42,-11.97"/>
</g>
<!-- Node18&#45;&gt;Node6 -->
<g id="edge31" class="edge">
<title>Node18&#45;&gt;Node6</title>
<path fill="none" stroke="midnightblue" d="M1030.9,-289.13C853.39,-289.44 0,-285.39 0,-179 0,-179 0,-179 0,-121 0,-58.01 217.51,-24.99 300.95,-14.64"/>
<polygon fill="midnightblue" stroke="midnightblue" points="301.39,-18.11 310.89,-13.43 300.54,-11.16 301.39,-18.11"/>
</g>
<!-- Node18&#45;&gt;Node8 -->
<g id="edge32" class="edge">
<title>Node18&#45;&gt;Node8</title>
<path fill="none" stroke="midnightblue" d="M1057.66,-280.24C1044.46,-259.06 1008.39,-204.17 968,-168 945.4,-147.76 932.97,-151.82 910,-132 893.29,-117.58 877.37,-97.87 866.99,-83.95"/>
<polygon fill="midnightblue" stroke="midnightblue" points="869.74,-81.77 861.02,-75.75 864.08,-85.89 869.74,-81.77"/>
</g>
<!-- Node19 -->
<g id="node19" class="node">
<title>Node19</title>
<g id="a_node19"><a xlink:href="_expr_8h.html" target="_top" xlink:title=" ">
<polygon fill="white" stroke="black" points="935.5,-224.5 935.5,-243.5 982.5,-243.5 982.5,-224.5 935.5,-224.5"/>
<text text-anchor="middle" x="959" y="-231.5" font-family="Helvetica,sans-Serif" font-size="10.00">Expr.h</text>
</a>
</g>
</g>
<!-- Node18&#45;&gt;Node19 -->
<g id="edge33" class="edge">
<title>Node18&#45;&gt;Node19</title>
<path fill="none" stroke="midnightblue" d="M1046.29,-280.32C1029.69,-271.7 1004,-258.36 984.78,-248.39"/>
<polygon fill="midnightblue" stroke="midnightblue" points="986.16,-245.16 975.67,-243.65 982.93,-251.37 986.16,-245.16"/>
</g>
<!-- Node19&#45;&gt;Node3 -->
<g id="edge42" class="edge">
<title>Node19&#45;&gt;Node3</title>
<path fill="none" stroke="midnightblue" d="M982.5,-225.69C1018.52,-213.08 1086.31,-183.53 1116,-132 1124.02,-118.08 1124.05,-99.57 1122.5,-85.87"/>
<polygon fill="midnightblue" stroke="midnightblue" points="1125.92,-85.05 1120.97,-75.69 1119,-86.1 1125.92,-85.05"/>
</g>
<!-- Node19&#45;&gt;Node5 -->
<g id="edge36" class="edge">
<title>Node19&#45;&gt;Node5</title>
<path fill="none" stroke="midnightblue" d="M982.59,-231.07C1062.99,-223.94 1323.95,-196.13 1371,-132 1387.1,-110.06 1362.69,-68.86 1348,-56 1310.95,-23.56 1253.19,-14.1 1215.22,-11.57"/>
<polygon fill="midnightblue" stroke="midnightblue" points="1215.24,-8.06 1205.07,-11.02 1214.87,-15.05 1215.24,-8.06"/>
</g>
<!-- Node19&#45;&gt;Node6 -->
<g id="edge37" class="edge">
<title>Node19&#45;&gt;Node6</title>
<path fill="none" stroke="midnightblue" d="M935.36,-232.71C828.32,-231.23 388.57,-223.06 256,-188 201.04,-173.47 183.01,-170.3 141,-132 113.65,-107.07 83.53,-84.61 107,-56 131.14,-26.58 244.21,-16.04 300.7,-12.56"/>
<polygon fill="midnightblue" stroke="midnightblue" points="301.1,-16.04 310.88,-11.97 300.7,-9.05 301.1,-16.04"/>
</g>
<!-- Node19&#45;&gt;Node11 -->
<g id="edge34" class="edge">
<title>Node19&#45;&gt;Node11</title>
<path fill="none" stroke="midnightblue" d="M935.38,-231.87C808.02,-225.56 206.96,-192.69 154,-132 143.21,-119.63 143.37,-100.39 145.53,-86.04"/>
<polygon fill="midnightblue" stroke="midnightblue" points="149.05,-86.3 147.53,-75.81 142.18,-84.96 149.05,-86.3"/>
</g>
<!-- Node20 -->
<g id="node20" class="node">
<title>Node20</title>
<g id="a_node20"><a xlink:title=" ">
<polygon fill="white" stroke="#bfbfbf" points="901,-168.5 901,-187.5 959,-187.5 959,-168.5 901,-168.5"/>
<text text-anchor="middle" x="930" y="-175.5" font-family="Helvetica,sans-Serif" font-size="10.00">memory</text>
</a>
</g>
</g>
<!-- Node19&#45;&gt;Node20 -->
<g id="edge35" class="edge">
<title>Node19&#45;&gt;Node20</title>
<path fill="none" stroke="midnightblue" d="M954.21,-224.08C950.24,-216.69 944.47,-205.95 939.57,-196.81"/>
<polygon fill="midnightblue" stroke="midnightblue" points="942.51,-194.91 934.7,-187.75 936.35,-198.22 942.51,-194.91"/>
</g>
<!-- Node21 -->
<g id="node21" class="node">
<title>Node21</title>
<g id="a_node21"><a xlink:href="_binding_usage_8h.html" target="_top" xlink:title=" ">
<polygon fill="white" stroke="black" points="959.5,-112.5 959.5,-131.5 1052.5,-131.5 1052.5,-112.5 959.5,-112.5"/>
<text text-anchor="middle" x="1006" y="-119.5" font-family="Helvetica,sans-Serif" font-size="10.00">BindingUsage.h</text>
</a>
</g>
</g>
<!-- Node19&#45;&gt;Node21 -->
<g id="edge38" class="edge">
<title>Node19&#45;&gt;Node21</title>
<path fill="none" stroke="midnightblue" d="M962.69,-224.37C970.34,-206.46 988.09,-164.92 998.33,-140.95"/>
<polygon fill="midnightblue" stroke="midnightblue" points="1001.62,-142.16 1002.33,-131.59 995.18,-139.41 1001.62,-142.16"/>
</g>
<!-- Node22 -->
<g id="node22" class="node">
<title>Node22</title>
<g id="a_node22"><a xlink:href="parser_8h.html" target="_top" xlink:title=" ">
<polygon fill="white" stroke="black" points="443,-168.5 443,-187.5 499,-187.5 499,-168.5 443,-168.5"/>
<text text-anchor="middle" x="471" y="-175.5" font-family="Helvetica,sans-Serif" font-size="10.00">parser.h</text>
</a>
</g>
</g>
<!-- Node19&#45;&gt;Node22 -->
<g id="edge43" class="edge">
<title>Node19&#45;&gt;Node22</title>
<path fill="none" stroke="midnightblue" d="M935.46,-230.4C857.29,-221.74 605.78,-193.91 509.23,-183.23"/>
<polygon fill="midnightblue" stroke="midnightblue" points="509.37,-179.72 499.05,-182.1 508.6,-186.68 509.37,-179.72"/>
</g>
<!-- Node21&#45;&gt;Node3 -->
<g id="edge41" class="edge">
<title>Node21&#45;&gt;Node3</title>
<path fill="none" stroke="midnightblue" d="M1023.91,-112.44C1042.25,-103.68 1071.01,-89.94 1092.09,-79.86"/>
<polygon fill="midnightblue" stroke="midnightblue" points="1093.67,-82.99 1101.18,-75.52 1090.65,-76.67 1093.67,-82.99"/>
</g>
<!-- Node21&#45;&gt;Node6 -->
<g id="edge39" class="edge">
<title>Node21&#45;&gt;Node6</title>
<path fill="none" stroke="midnightblue" d="M994.25,-112.36C973.7,-97.79 929.4,-68.68 887,-56 788.22,-26.47 468.34,-14.88 365.3,-11.86"/>
<polygon fill="midnightblue" stroke="midnightblue" points="365.29,-8.36 355.2,-11.57 365.09,-15.36 365.29,-8.36"/>
</g>
<!-- Node21&#45;&gt;Node8 -->
<g id="edge40" class="edge">
<title>Node21&#45;&gt;Node8</title>
<path fill="none" stroke="midnightblue" d="M982.07,-112.44C956.48,-103.29 915.75,-88.73 887.32,-78.56"/>
<polygon fill="midnightblue" stroke="midnightblue" points="888.42,-75.23 877.83,-75.16 886.06,-81.83 888.42,-75.23"/>
</g>
<!-- Node22&#45;&gt;Node3 -->
<g id="edge44" class="edge">
<title>Node22&#45;&gt;Node3</title>
<path fill="none" stroke="midnightblue" d="M499.31,-175.44C613.65,-169.07 1036.54,-144.72 1062,-132 1082.9,-121.55 1099.46,-99.77 1109.23,-84.31"/>
<polygon fill="midnightblue" stroke="midnightblue" points="1112.28,-86.03 1114.41,-75.65 1106.27,-82.43 1112.28,-86.03"/>
</g>
<!-- Node22&#45;&gt;Node4 -->
<g id="edge45" class="edge">
<title>Node22&#45;&gt;Node4</title>
<path fill="none" stroke="midnightblue" d="M499.35,-174.15C550.51,-168.5 655.62,-154.46 684,-132 716.82,-106.03 731.68,-56.64 737.6,-29.69"/>
<polygon fill="midnightblue" stroke="midnightblue" points="741.08,-30.14 739.62,-19.65 734.22,-28.76 741.08,-30.14"/>
</g>
<!-- Node22&#45;&gt;Node6 -->
<g id="edge60" class="edge">
<title>Node22&#45;&gt;Node6</title>
<path fill="none" stroke="midnightblue" d="M442.8,-175.85C374.49,-172.62 202.23,-161.68 154,-132 128.17,-116.1 124.08,-104.94 115,-76 112.34,-67.52 109.39,-62.89 115,-56 138.05,-27.7 245.79,-16.66 300.68,-12.82"/>
<polygon fill="midnightblue" stroke="midnightblue" points="301.16,-16.3 310.91,-12.15 300.7,-9.31 301.16,-16.3"/>
</g>
<!-- Node22&#45;&gt;Node8 -->
<g id="edge61" class="edge">
<title>Node22&#45;&gt;Node8</title>
<path fill="none" stroke="midnightblue" d="M499.25,-174.24C545.6,-169.18 640.31,-156.61 717,-132 758.77,-118.59 804.27,-95.32 831.18,-80.56"/>
<polygon fill="midnightblue" stroke="midnightblue" points="833.17,-83.46 840.21,-75.55 829.77,-77.34 833.17,-83.46"/>
</g>
<!-- Node22&#45;&gt;Node10 -->
<g id="edge52" class="edge">
<title>Node22&#45;&gt;Node10</title>
<path fill="none" stroke="midnightblue" d="M442.72,-171.81C399.41,-163.77 314.07,-147.61 242,-132 240.55,-131.69 239.07,-131.36 237.58,-131.03"/>
<polygon fill="midnightblue" stroke="midnightblue" points="238.21,-127.58 227.68,-128.76 236.65,-134.4 238.21,-127.58"/>
</g>
<!-- Node22&#45;&gt;Node11 -->
<g id="edge53" class="edge">
<title>Node22&#45;&gt;Node11</title>
<path fill="none" stroke="midnightblue" d="M442.62,-176.4C376.12,-174.42 212.76,-166.11 172,-132 158.46,-120.67 153.22,-100.67 151.21,-85.84"/>
<polygon fill="midnightblue" stroke="midnightblue" points="154.68,-85.34 150.22,-75.73 147.72,-86.03 154.68,-85.34"/>
</g>
<!-- Node22&#45;&gt;Node13 -->
<g id="edge57" class="edge">
<title>Node22&#45;&gt;Node13</title>
<path fill="none" stroke="midnightblue" d="M442.9,-174.72C394.01,-170.11 296.55,-157.83 276,-132 270.47,-125.04 270.86,-119.25 276,-112 281.38,-104.4 328.96,-89.02 364.54,-78.37"/>
<polygon fill="midnightblue" stroke="midnightblue" points="365.62,-81.7 374.22,-75.5 363.63,-74.99 365.62,-81.7"/>
</g>
<!-- Node23 -->
<g id="node23" class="node">
<title>Node23</title>
<g id="a_node23"><a xlink:href="env_8h.html" target="_top" xlink:title=" ">
<polygon fill="white" stroke="black" points="284.5,-112.5 284.5,-131.5 327.5,-131.5 327.5,-112.5 284.5,-112.5"/>
<text text-anchor="middle" x="306" y="-119.5" font-family="Helvetica,sans-Serif" font-size="10.00">env.h</text>
</a>
</g>
</g>
<!-- Node22&#45;&gt;Node23 -->
<g id="edge46" class="edge">
<title>Node22&#45;&gt;Node23</title>
<path fill="none" stroke="midnightblue" d="M444.86,-168.44C415.71,-158.9 368.59,-143.48 337.45,-133.29"/>
<polygon fill="midnightblue" stroke="midnightblue" points="338.15,-129.84 327.55,-130.05 335.97,-136.49 338.15,-129.84"/>
</g>
<!-- Node25 -->
<g id="node25" class="node">
<title>Node25</title>
<g id="a_node25"><a xlink:title=" ">
<polygon fill="white" stroke="#bfbfbf" points="625.5,-112.5 625.5,-131.5 674.5,-131.5 674.5,-112.5 625.5,-112.5"/>
<text text-anchor="middle" x="650" y="-119.5" font-family="Helvetica,sans-Serif" font-size="10.00">cctype</text>
</a>
</g>
</g>
<!-- Node22&#45;&gt;Node25 -->
<g id="edge54" class="edge">
<title>Node22&#45;&gt;Node25</title>
<path fill="none" stroke="midnightblue" d="M499.36,-168.44C530.81,-158.96 581.55,-143.65 615.33,-133.46"/>
<polygon fill="midnightblue" stroke="midnightblue" points="616.67,-136.71 625.23,-130.47 614.64,-130.01 616.67,-136.71"/>
</g>
<!-- Node26 -->
<g id="node26" class="node">
<title>Node26</title>
<g id="a_node26"><a xlink:title=" ">
<polygon fill="white" stroke="#bfbfbf" points="345.5,-112.5 345.5,-131.5 392.5,-131.5 392.5,-112.5 345.5,-112.5"/>
<text text-anchor="middle" x="369" y="-119.5" font-family="Helvetica,sans-Serif" font-size="10.00">cmath</text>
</a>
</g>
</g>
<!-- Node22&#45;&gt;Node26 -->
<g id="edge55" class="edge">
<title>Node22&#45;&gt;Node26</title>
<path fill="none" stroke="midnightblue" d="M454.61,-168.32C438.33,-159.7 413.13,-146.36 394.28,-136.39"/>
<polygon fill="midnightblue" stroke="midnightblue" points="395.82,-133.24 385.35,-131.65 392.55,-139.43 395.82,-133.24"/>
</g>
<!-- Node27 -->
<g id="node27" class="node">
<title>Node27</title>
<g id="a_node27"><a xlink:title=" ">
<polygon fill="white" stroke="#bfbfbf" points="411,-112.5 411,-131.5 461,-131.5 461,-112.5 411,-112.5"/>
<text text-anchor="middle" x="436" y="-119.5" font-family="Helvetica,sans-Serif" font-size="10.00">cstring</text>
</a>
</g>
</g>
<!-- Node22&#45;&gt;Node27 -->
<g id="edge56" class="edge">
<title>Node22&#45;&gt;Node27</title>
<path fill="none" stroke="midnightblue" d="M465.22,-168.08C460.33,-160.53 453.17,-149.49 447.17,-140.23"/>
<polygon fill="midnightblue" stroke="midnightblue" points="450.05,-138.24 441.67,-131.75 444.17,-142.05 450.05,-138.24"/>
</g>
<!-- Node28 -->
<g id="node28" class="node">
<title>Node28</title>
<g id="a_node28"><a xlink:title=" ">
<polygon fill="white" stroke="#bfbfbf" points="479.5,-112.5 479.5,-131.5 532.5,-131.5 532.5,-112.5 479.5,-112.5"/>
<text text-anchor="middle" x="506" y="-119.5" font-family="Helvetica,sans-Serif" font-size="10.00">iterator</text>
</a>
</g>
</g>
<!-- Node22&#45;&gt;Node28 -->
<g id="edge58" class="edge">
<title>Node22&#45;&gt;Node28</title>
<path fill="none" stroke="midnightblue" d="M476.78,-168.08C481.67,-160.53 488.83,-149.49 494.83,-140.23"/>
<polygon fill="midnightblue" stroke="midnightblue" points="497.83,-142.05 500.33,-131.75 491.95,-138.24 497.83,-142.05"/>
</g>
<!-- Node29 -->
<g id="node29" class="node">
<title>Node29</title>
<g id="a_node29"><a xlink:title=" ">
<polygon fill="white" stroke="#bfbfbf" points="550.5,-112.5 550.5,-131.5 607.5,-131.5 607.5,-112.5 550.5,-112.5"/>
<text text-anchor="middle" x="579" y="-119.5" font-family="Helvetica,sans-Serif" font-size="10.00">ostream</text>
</a>
</g>
</g>
<!-- Node22&#45;&gt;Node29 -->
<g id="edge59" class="edge">
<title>Node22&#45;&gt;Node29</title>
<path fill="none" stroke="midnightblue" d="M488.35,-168.32C505.67,-159.66 532.52,-146.24 552.5,-136.25"/>
<polygon fill="midnightblue" stroke="midnightblue" points="554.31,-139.26 561.69,-131.65 551.18,-133 554.31,-139.26"/>
</g>
<!-- Node23&#45;&gt;Node3 -->
<g id="edge47" class="edge">
<title>Node23&#45;&gt;Node3</title>
<path fill="none" stroke="midnightblue" d="M327.54,-114.08C330.68,-113.26 333.91,-112.53 337,-112 409.14,-99.62 913.07,-76.23 1071.46,-69.11"/>
<polygon fill="midnightblue" stroke="midnightblue" points="1071.99,-72.59 1081.83,-68.65 1071.68,-65.6 1071.99,-72.59"/>
</g>
<!-- Node23&#45;&gt;Node4 -->
<g id="edge48" class="edge">
<title>Node23&#45;&gt;Node4</title>
<path fill="none" stroke="midnightblue" d="M327.57,-114.26C330.71,-113.42 333.93,-112.63 337,-112 465.96,-85.56 506.37,-118.38 631,-76 665.36,-64.32 700.74,-41.01 721.79,-25.72"/>
<polygon fill="midnightblue" stroke="midnightblue" points="723.95,-28.48 729.89,-19.71 719.78,-22.86 723.95,-28.48"/>
</g>
<!-- Node23&#45;&gt;Node5 -->
<g id="edge49" class="edge">
<title>Node23&#45;&gt;Node5</title>
<path fill="none" stroke="midnightblue" d="M327.56,-114.22C330.71,-113.39 333.92,-112.61 337,-112 480.85,-83.45 519.36,-93.24 665,-76 688.57,-73.21 1023.87,-30.51 1138.73,-15.88"/>
<polygon fill="midnightblue" stroke="midnightblue" points="1139.35,-19.33 1148.82,-14.59 1138.46,-12.38 1139.35,-19.33"/>
</g>
<!-- Node23&#45;&gt;Node6 -->
<g id="edge50" class="edge">
<title>Node23&#45;&gt;Node6</title>
<path fill="none" stroke="midnightblue" d="M327.63,-114.62C365.35,-103.39 439.5,-80.83 443,-76 465.92,-44.35 405.2,-25.48 365.11,-16.79"/>
<polygon fill="midnightblue" stroke="midnightblue" points="365.67,-13.33 355.17,-14.75 364.27,-20.19 365.67,-13.33"/>
</g>
<!-- Node24 -->
<g id="node24" class="node">
<title>Node24</title>
<g id="a_node24"><a xlink:title=" ">
<polygon fill="white" stroke="#bfbfbf" points="528.5,-56.5 528.5,-75.5 621.5,-75.5 621.5,-56.5 528.5,-56.5"/>
<text text-anchor="middle" x="575" y="-63.5" font-family="Helvetica,sans-Serif" font-size="10.00">unordered_map</text>
</a>
</g>
</g>
<!-- Node23&#45;&gt;Node24 -->
<g id="edge51" class="edge">
<title>Node23&#45;&gt;Node24</title>
<path fill="none" stroke="midnightblue" d="M327.61,-114.44C330.75,-113.57 333.95,-112.73 337,-112 398.47,-97.3 469.81,-84.35 518.23,-76.16"/>
<polygon fill="midnightblue" stroke="midnightblue" points="518.92,-79.59 528.2,-74.49 517.76,-72.69 518.92,-79.59"/>
</g>
</g>
</svg>
        <g id="navigator" transform="translate(0 0)" fill="#404254">
                <rect fill="#f2f5e9" fill-opacity="0.5" stroke="#606060" stroke-width=".5" x="0" y="0" width="60" height="60"/>
                <use id="zoomplus" xlink:href="#zoomPlus" x="17" y="9" onmousedown="handleZoom(evt,'in')"/>
                <use id="zoomminus" xlink:href="#zoomMin" x="42" y="9" onmousedown="handleZoom(evt,'out')"/>
                <use id="reset" xlink:href="#resetDef" x="30" y="36" onmousedown="handleReset()"/>
                <g id="arrowUp" xlink:href="#dirArrow" transform="translate(30 24)" onmousedown="handlePan(0,-1)">
                  <use xlink:href="#rim" fill="#404040">
                        <set attributeName="fill" to="#808080" begin="arrowUp.mouseover" end="arrowUp.mouseout"/>
                  </use>
                  <path fill="none" stroke="white" stroke-width="1.5" d="M0,-3.0v7 M-2.5,-0.5L0,-3.0L2.5,-0.5"/>
                </g>
                <g id="arrowRight" xlink:href="#dirArrow" transform="rotate(90) translate(36 -43)" onmousedown="handlePan(1,0)">
                  <use xlink:href="#rim" fill="#404040">
                        <set attributeName="fill" to="#808080" begin="arrowRight.mouseover" end="arrowRight.mouseout"/>
                  </use>
                  <path fill="none" stroke="white" stroke-width="1.5" d="M0,-3.0v7 M-2.5,-0.5L0,-3.0L2.5,-0.5"/>
                </g>
                <g id="arrowDown" xlink:href="#dirArrow" transform="rotate(180) translate(-30 -48)" onmousedown="handlePan(0,1)">
                  <use xlink:href="#rim" fill="#404040">
                        <set attributeName="fill" to="#808080" begin="arrowDown.mouseover" end="arrowDown.mouseout"/>
                  </use>
                  <path fill="none" stroke="white" stroke-width="1.5" d="M0,-3.0v7 M-2.5,-0.5L0,-3.0L2.5,-0.5"/>
                </g>
                <g id="arrowLeft" xlink:href="#dirArrow" transform="rotate(270) translate(-36 17)" onmousedown="handlePan(-1,0)">
                  <use xlink:href="#rim" fill="#404040">
                        <set attributeName="fill" to="#808080" begin="arrowLeft.mouseover" end="arrowLeft.mouseout"/>
                  </use>
                  <path fill="none" stroke="white" stroke-width="1.5" d="M0,-3.0v7 M-2.5,-0.5L0,-3.0L2.5,-0.5"/>
                </g>
        </g>
        <svg viewBox="0 0 15 15" width="100%" height="30px" preserveAspectRatio="xMaxYMin meet">
         <g id="arrow_out" transform="scale(0.3 0.3)">
          <a xlink:href="_func_call_8cc__incl_org.svg" target="_base">
           <rect id="button" ry="5" rx="5" y="6" x="6" height="38" width="38"
                fill="#f2f5e9" fill-opacity="0.5" stroke="#606060" stroke-width="1.0"/>
           <path id="arrow"
             d="M 11.500037,31.436501 C 11.940474,20.09759 22.043105,11.32322 32.158766,21.979434 L 37.068811,17.246167 C 37.068811,17.246167 37.088388,32 37.088388,32 L 22.160133,31.978069 C 22.160133,31.978069 26.997745,27.140456 26.997745,27.140456 C 18.528582,18.264221 13.291696,25.230495 11.500037,31.436501 z"
             style="fill:#404040;"/>
          </a>
         </g>
        </svg>
</svg>
