<?xml version="1.0" encoding="UTF-8" standalone="no"?>
<!DOCTYPE svg PUBLIC "-//W3C//DTD SVG 1.1//EN"
 "http://www.w3.org/Graphics/SVG/1.1/DTD/svg11.dtd">
<!-- Generated by graphviz version 2.43.0 (0)
 -->
<!-- Title: language/IStatment.h Pages: 1 -->
<svg width="1882pt" height="364pt"
 viewBox="0.00 0.00 1882.00 364.00" xmlns="http://www.w3.org/2000/svg" xmlns:xlink="http://www.w3.org/1999/xlink">
<g id="graph0" class="graph" transform="scale(1 1) rotate(0) translate(4 360)">
<title>language/IStatment.h</title>
<polygon fill="white" stroke="transparent" points="-4,4 -4,-360 1878,-360 1878,4 -4,4"/>
<!-- Node1 -->
<g id="node1" class="node">
<title>Node1</title>
<g id="a_node1"><a xlink:title=" ">
<polygon fill="#bfbfbf" stroke="black" points="1212.5,-336.5 1212.5,-355.5 1334.5,-355.5 1334.5,-336.5 1212.5,-336.5"/>
<text text-anchor="middle" x="1273.5" y="-343.5" font-family="Helvetica,sans-Serif" font-size="10.00">language/IStatment.h</text>
</a>
</g>
</g>
<!-- Node2 -->
<g id="node2" class="node">
<title>Node2</title>
<g id="a_node2"><a xlink:href="parser_8h.html" target="_top" xlink:title=" ">
<polygon fill="white" stroke="black" points="143.5,-224.5 143.5,-243.5 247.5,-243.5 247.5,-224.5 143.5,-224.5"/>
<text text-anchor="middle" x="195.5" y="-231.5" font-family="Helvetica,sans-Serif" font-size="10.00">language/parser.h</text>
</a>
</g>
</g>
<!-- Node1&#45;&gt;Node2 -->
<g id="edge1" class="edge">
<title>Node1&#45;&gt;Node2</title>
<path fill="none" stroke="midnightblue" d="M1202.33,-343.86C991.88,-340.18 381.95,-327.27 296.5,-300 258.96,-288.02 221.8,-258.3 204.92,-243.56"/>
<polygon fill="midnightblue" stroke="midnightblue" points="1202.28,-347.36 1212.34,-344.03 1202.4,-340.36 1202.28,-347.36"/>
</g>
<!-- Node4 -->
<g id="node4" class="node">
<title>Node4</title>
<g id="a_node4"><a xlink:href="_expr_8h.html" target="_top" xlink:title=" ">
<polygon fill="white" stroke="black" points="565,-168.5 565,-187.5 660,-187.5 660,-168.5 565,-168.5"/>
<text text-anchor="middle" x="612.5" y="-175.5" font-family="Helvetica,sans-Serif" font-size="10.00">language/Expr.h</text>
</a>
</g>
</g>
<!-- Node1&#45;&gt;Node4 -->
<g id="edge34" class="edge">
<title>Node1&#45;&gt;Node4</title>
<path fill="none" stroke="midnightblue" d="M1202.24,-341.85C1092.84,-334.92 878.62,-312.95 711.5,-244 676.15,-229.41 639.9,-201.71 622.73,-187.65"/>
<polygon fill="midnightblue" stroke="midnightblue" points="1202.3,-345.36 1212.5,-342.48 1202.73,-338.37 1202.3,-345.36"/>
</g>
<!-- Node17 -->
<g id="node17" class="node">
<title>Node17</title>
<g id="a_node17"><a xlink:href="_i_statment_8cc.html" target="_top" xlink:title=" ">
<polygon fill="white" stroke="black" points="1198.5,-56.5 1198.5,-75.5 1324.5,-75.5 1324.5,-56.5 1198.5,-56.5"/>
<text text-anchor="middle" x="1261.5" y="-63.5" font-family="Helvetica,sans-Serif" font-size="10.00">language/IStatment.cc</text>
</a>
</g>
</g>
<!-- Node1&#45;&gt;Node17 -->
<g id="edge60" class="edge">
<title>Node1&#45;&gt;Node17</title>
<path fill="none" stroke="midnightblue" d="M1278.99,-326.41C1284.91,-304.68 1293.5,-267.56 1293.5,-235 1293.5,-235 1293.5,-235 1293.5,-177 1293.5,-137.82 1274.55,-93.8 1265.82,-75.59"/>
<polygon fill="midnightblue" stroke="midnightblue" points="1275.56,-325.68 1276.2,-336.26 1282.29,-327.59 1275.56,-325.68"/>
</g>
<!-- Node21 -->
<g id="node21" class="node">
<title>Node21</title>
<g id="a_node21"><a xlink:href="env_8h.html" target="_top" xlink:title=" ">
<polygon fill="white" stroke="black" points="306,-280.5 306,-299.5 397,-299.5 397,-280.5 306,-280.5"/>
<text text-anchor="middle" x="351.5" y="-287.5" font-family="Helvetica,sans-Serif" font-size="10.00">language/env.h</text>
</a>
</g>
</g>
<!-- Node1&#45;&gt;Node21 -->
<g id="edge24" class="edge">
<title>Node1&#45;&gt;Node21</title>
<path fill="none" stroke="midnightblue" d="M1202.06,-340.82C1020.7,-330.19 546.28,-302.41 397.09,-293.67"/>
<polygon fill="midnightblue" stroke="midnightblue" points="1202.1,-344.32 1212.29,-341.42 1202.51,-337.34 1202.1,-344.32"/>
</g>
<!-- Node23 -->
<g id="node23" class="node">
<title>Node23</title>
<g id="a_node23"><a xlink:href="_binding_usage_8h.html" target="_top" xlink:title=" ">
<polygon fill="white" stroke="black" points="721,-224.5 721,-243.5 862,-243.5 862,-224.5 721,-224.5"/>
<text text-anchor="middle" x="791.5" y="-231.5" font-family="Helvetica,sans-Serif" font-size="10.00">language/BindingUsage.h</text>
</a>
</g>
</g>
<!-- Node1&#45;&gt;Node23 -->
<g id="edge29" class="edge">
<title>Node1&#45;&gt;Node23</title>
<path fill="none" stroke="midnightblue" d="M1226.1,-334.18C1130.35,-312.33 915.63,-263.33 828.9,-243.53"/>
<polygon fill="midnightblue" stroke="midnightblue" points="1225.55,-337.65 1236.08,-336.46 1227.11,-330.82 1225.55,-337.65"/>
</g>
<!-- Node24 -->
<g id="node24" class="node">
<title>Node24</title>
<g id="a_node24"><a xlink:href="_error_statment_8h.html" target="_top" xlink:title=" ">
<polygon fill="white" stroke="black" points="1592.5,-56.5 1592.5,-75.5 1734.5,-75.5 1734.5,-56.5 1592.5,-56.5"/>
<text text-anchor="middle" x="1663.5" y="-63.5" font-family="Helvetica,sans-Serif" font-size="10.00">language/ErrorStatment.h</text>
</a>
</g>
</g>
<!-- Node1&#45;&gt;Node24 -->
<g id="edge35" class="edge">
<title>Node1&#45;&gt;Node24</title>
<path fill="none" stroke="midnightblue" d="M1345.05,-341.74C1469.22,-334.1 1711.5,-309.64 1711.5,-235 1711.5,-235 1711.5,-235 1711.5,-177 1711.5,-136.16 1683.36,-93.38 1670.17,-75.56"/>
<polygon fill="midnightblue" stroke="midnightblue" points="1344.64,-338.25 1334.86,-342.34 1345.05,-345.24 1344.64,-338.25"/>
</g>
<!-- Node26 -->
<g id="node26" class="node">
<title>Node26</title>
<g id="a_node26"><a xlink:href="_block_8h.html" target="_top" xlink:title=" ">
<polygon fill="white" stroke="black" points="1164,-168.5 1164,-187.5 1265,-187.5 1265,-168.5 1164,-168.5"/>
<text text-anchor="middle" x="1214.5" y="-175.5" font-family="Helvetica,sans-Serif" font-size="10.00">language/Block.h</text>
</a>
</g>
</g>
<!-- Node1&#45;&gt;Node26 -->
<g id="edge40" class="edge">
<title>Node1&#45;&gt;Node26</title>
<path fill="none" stroke="midnightblue" d="M1266.89,-326.39C1254.16,-290.59 1226.71,-213.34 1217.55,-187.57"/>
<polygon fill="midnightblue" stroke="midnightblue" points="1263.68,-327.82 1270.33,-336.08 1270.28,-325.48 1263.68,-327.82"/>
</g>
<!-- Node27 -->
<g id="node27" class="node">
<title>Node27</title>
<g id="a_node27"><a xlink:href="_conditional_8h.html" target="_top" xlink:title=" ">
<polygon fill="white" stroke="black" points="1098,-112.5 1098,-131.5 1227,-131.5 1227,-112.5 1098,-112.5"/>
<text text-anchor="middle" x="1162.5" y="-119.5" font-family="Helvetica,sans-Serif" font-size="10.00">language/Conditional.h</text>
</a>
</g>
</g>
<!-- Node1&#45;&gt;Node27 -->
<g id="edge55" class="edge">
<title>Node1&#45;&gt;Node27</title>
<path fill="none" stroke="midnightblue" d="M1256.07,-329.59C1228.22,-303.66 1174.73,-248.19 1154.5,-188 1147.98,-168.6 1154.58,-144.35 1159.08,-131.66"/>
<polygon fill="midnightblue" stroke="midnightblue" points="1253.77,-332.23 1263.52,-336.38 1258.49,-327.06 1253.77,-332.23"/>
</g>
<!-- Node28 -->
<g id="node28" class="node">
<title>Node28</title>
<g id="a_node28"><a xlink:href="_func_def_8h.html" target="_top" xlink:title=" ">
<polygon fill="white" stroke="black" points="1437,-112.5 1437,-131.5 1550,-131.5 1550,-112.5 1437,-112.5"/>
<text text-anchor="middle" x="1493.5" y="-119.5" font-family="Helvetica,sans-Serif" font-size="10.00">language/FuncDef.h</text>
</a>
</g>
</g>
<!-- Node1&#45;&gt;Node28 -->
<g id="edge59" class="edge">
<title>Node1&#45;&gt;Node28</title>
<path fill="none" stroke="midnightblue" d="M1292.33,-329.87C1302.66,-321.36 1315.56,-310.39 1326.5,-300 1391.16,-238.64 1462.68,-158.19 1485.83,-131.8"/>
<polygon fill="midnightblue" stroke="midnightblue" points="1289.9,-327.34 1284.36,-336.37 1294.32,-332.76 1289.9,-327.34"/>
</g>
<!-- Node29 -->
<g id="node29" class="node">
<title>Node29</title>
<g id="a_node29"><a xlink:href="_loop_8h.html" target="_top" xlink:title=" ">
<polygon fill="white" stroke="black" points="1322,-112.5 1322,-131.5 1419,-131.5 1419,-112.5 1322,-112.5"/>
<text text-anchor="middle" x="1370.5" y="-119.5" font-family="Helvetica,sans-Serif" font-size="10.00">language/Loop.h</text>
</a>
</g>
</g>
<!-- Node1&#45;&gt;Node29 -->
<g id="edge61" class="edge">
<title>Node1&#45;&gt;Node29</title>
<path fill="none" stroke="midnightblue" d="M1287.83,-328.58C1294.46,-320.4 1302.05,-310.11 1307.5,-300 1340.16,-239.42 1361.78,-158.46 1368.37,-131.87"/>
<polygon fill="midnightblue" stroke="midnightblue" points="1285.14,-326.34 1281.4,-336.25 1290.51,-330.83 1285.14,-326.34"/>
</g>
<!-- Node30 -->
<g id="node30" class="node">
<title>Node30</title>
<g id="a_node30"><a xlink:href="_func_call_8h.html" target="_top" xlink:title=" ">
<polygon fill="white" stroke="black" points="1568,-112.5 1568,-131.5 1683,-131.5 1683,-112.5 1568,-112.5"/>
<text text-anchor="middle" x="1625.5" y="-119.5" font-family="Helvetica,sans-Serif" font-size="10.00">language/FuncCall.h</text>
</a>
</g>
</g>
<!-- Node1&#45;&gt;Node30 -->
<g id="edge56" class="edge">
<title>Node1&#45;&gt;Node30</title>
<path fill="none" stroke="midnightblue" d="M1297.48,-331.34C1312.75,-322.55 1332.9,-310.8 1350.5,-300 1452.61,-237.34 1573.22,-157.73 1612.46,-131.68"/>
<polygon fill="midnightblue" stroke="midnightblue" points="1295.6,-328.38 1288.66,-336.39 1299.08,-334.46 1295.6,-328.38"/>
</g>
<!-- Node31 -->
<g id="node31" class="node">
<title>Node31</title>
<g id="a_node31"><a xlink:href="_matrix_8h.html" target="_top" xlink:title=" ">
<polygon fill="white" stroke="black" points="1741,-280.5 1741,-299.5 1846,-299.5 1846,-280.5 1741,-280.5"/>
<text text-anchor="middle" x="1793.5" y="-287.5" font-family="Helvetica,sans-Serif" font-size="10.00">language/Matrix.h</text>
</a>
</g>
</g>
<!-- Node1&#45;&gt;Node31 -->
<g id="edge62" class="edge">
<title>Node1&#45;&gt;Node31</title>
<path fill="none" stroke="midnightblue" d="M1344.61,-338.64C1433.71,-330.5 1591.05,-315.59 1725.5,-300 1730.47,-299.42 1735.64,-298.79 1740.81,-298.15"/>
<polygon fill="midnightblue" stroke="midnightblue" points="1344.25,-335.16 1334.61,-339.55 1344.89,-342.13 1344.25,-335.16"/>
</g>
<!-- Node3 -->
<g id="node3" class="node">
<title>Node3</title>
<g id="a_node3"><a xlink:href="interpreter_8cc.html" target="_top" xlink:title=" ">
<polygon fill="white" stroke="black" points="0,-168.5 0,-187.5 81,-187.5 81,-168.5 0,-168.5"/>
<text text-anchor="middle" x="40.5" y="-175.5" font-family="Helvetica,sans-Serif" font-size="10.00">interpreter.cc</text>
</a>
</g>
</g>
<!-- Node2&#45;&gt;Node3 -->
<g id="edge2" class="edge">
<title>Node2&#45;&gt;Node3</title>
<path fill="none" stroke="midnightblue" d="M161.17,-221.04C132,-210.88 90.86,-196.55 64.95,-187.52"/>
<polygon fill="midnightblue" stroke="midnightblue" points="160.34,-224.46 170.94,-224.44 162.65,-217.85 160.34,-224.46"/>
</g>
<!-- Node2&#45;&gt;Node4 -->
<g id="edge3" class="edge">
<title>Node2&#45;&gt;Node4</title>
<path fill="none" stroke="midnightblue" d="M258.05,-224.9C342,-214.03 489.27,-194.96 564.83,-185.17"/>
<polygon fill="midnightblue" stroke="midnightblue" points="257.36,-221.46 247.89,-226.22 258.26,-228.4 257.36,-221.46"/>
</g>
<!-- Node9 -->
<g id="node9" class="node">
<title>Node9</title>
<g id="a_node9"><a xlink:href="_block_8cc.html" target="_top" xlink:title=" ">
<polygon fill="white" stroke="black" points="653,-0.5 653,-19.5 758,-19.5 758,-0.5 653,-0.5"/>
<text text-anchor="middle" x="705.5" y="-7.5" font-family="Helvetica,sans-Serif" font-size="10.00">language/Block.cc</text>
</a>
</g>
</g>
<!-- Node2&#45;&gt;Node9 -->
<g id="edge22" class="edge">
<title>Node2&#45;&gt;Node9</title>
<path fill="none" stroke="midnightblue" d="M215.5,-218.46C255.06,-189.88 342.31,-127.8 375.5,-112 474.36,-64.92 600.24,-33.59 664.19,-19.51"/>
<polygon fill="midnightblue" stroke="midnightblue" points="213.44,-215.63 207.39,-224.33 217.54,-221.3 213.44,-215.63"/>
</g>
<!-- Node20 -->
<g id="node20" class="node">
<title>Node20</title>
<g id="a_node20"><a xlink:href="_test_parser_8cc.html" target="_top" xlink:title=" ">
<polygon fill="white" stroke="black" points="99,-168.5 99,-187.5 248,-187.5 248,-168.5 99,-168.5"/>
<text text-anchor="middle" x="173.5" y="-175.5" font-family="Helvetica,sans-Serif" font-size="10.00">language/test/TestParser.cc</text>
</a>
</g>
</g>
<!-- Node2&#45;&gt;Node20 -->
<g id="edge23" class="edge">
<title>Node2&#45;&gt;Node20</title>
<path fill="none" stroke="midnightblue" d="M188.04,-214.69C184.33,-205.59 180.02,-195.01 177.07,-187.75"/>
<polygon fill="midnightblue" stroke="midnightblue" points="184.85,-216.14 191.87,-224.08 191.34,-213.5 184.85,-216.14"/>
</g>
<!-- Node5 -->
<g id="node5" class="node">
<title>Node5</title>
<g id="a_node5"><a xlink:href="_bind_def_8h.html" target="_top" xlink:title=" ">
<polygon fill="white" stroke="black" points="613.5,-112.5 613.5,-131.5 725.5,-131.5 725.5,-112.5 613.5,-112.5"/>
<text text-anchor="middle" x="669.5" y="-119.5" font-family="Helvetica,sans-Serif" font-size="10.00">language/BindDef.h</text>
</a>
</g>
</g>
<!-- Node4&#45;&gt;Node5 -->
<g id="edge4" class="edge">
<title>Node4&#45;&gt;Node5</title>
<path fill="none" stroke="midnightblue" d="M629.12,-161.25C639.23,-151.67 651.78,-139.79 660.18,-131.83"/>
<polygon fill="midnightblue" stroke="midnightblue" points="626.51,-158.91 621.66,-168.32 631.32,-163.99 626.51,-158.91"/>
</g>
<!-- Node11 -->
<g id="node11" class="node">
<title>Node11</title>
<g id="a_node11"><a xlink:href="_expr_8cc.html" target="_top" xlink:title=" ">
<polygon fill="white" stroke="black" points="776,-0.5 776,-19.5 875,-19.5 875,-0.5 776,-0.5"/>
<text text-anchor="middle" x="825.5" y="-7.5" font-family="Helvetica,sans-Serif" font-size="10.00">language/Expr.cc</text>
</a>
</g>
</g>
<!-- Node4&#45;&gt;Node11 -->
<g id="edge18" class="edge">
<title>Node4&#45;&gt;Node11</title>
<path fill="none" stroke="midnightblue" d="M603.62,-159.18C592.16,-133.36 576.39,-85.41 600.5,-56 606.08,-49.19 711.21,-30.33 775.77,-19.31"/>
<polygon fill="midnightblue" stroke="midnightblue" points="600.57,-160.93 607.99,-168.49 606.91,-157.95 600.57,-160.93"/>
</g>
<!-- Node16 -->
<g id="node16" class="node">
<title>Node16</title>
<g id="a_node16"><a xlink:href="_test_bind_8cc.html" target="_top" xlink:title=" ">
<polygon fill="white" stroke="black" points="281,-0.5 281,-19.5 422,-19.5 422,-0.5 281,-0.5"/>
<text text-anchor="middle" x="351.5" y="-7.5" font-family="Helvetica,sans-Serif" font-size="10.00">language/test/TestBind.cc</text>
</a>
</g>
</g>
<!-- Node4&#45;&gt;Node16 -->
<g id="edge19" class="edge">
<title>Node4&#45;&gt;Node16</title>
<path fill="none" stroke="midnightblue" d="M554.58,-169.99C502.46,-162.67 430.75,-149.77 408.5,-132 371.12,-102.15 356.99,-41.99 352.9,-19.63"/>
<polygon fill="midnightblue" stroke="midnightblue" points="554.34,-173.49 564.73,-171.38 555.29,-166.55 554.34,-173.49"/>
</g>
<!-- Node18 -->
<g id="node18" class="node">
<title>Node18</title>
<g id="a_node18"><a xlink:href="_test_block_8cc.html" target="_top" xlink:title=" ">
<polygon fill="white" stroke="black" points="857.5,-112.5 857.5,-131.5 1003.5,-131.5 1003.5,-112.5 857.5,-112.5"/>
<text text-anchor="middle" x="930.5" y="-119.5" font-family="Helvetica,sans-Serif" font-size="10.00">language/test/TestBlock.cc</text>
</a>
</g>
</g>
<!-- Node4&#45;&gt;Node18 -->
<g id="edge20" class="edge">
<title>Node4&#45;&gt;Node18</title>
<path fill="none" stroke="midnightblue" d="M670.17,-167.21C730.15,-157.02 823.11,-141.24 880.2,-131.54"/>
<polygon fill="midnightblue" stroke="midnightblue" points="669.38,-163.79 660.11,-168.92 670.55,-170.69 669.38,-163.79"/>
</g>
<!-- Node19 -->
<g id="node19" class="node">
<title>Node19</title>
<g id="a_node19"><a xlink:href="_test_expr_8cc.html" target="_top" xlink:title=" ">
<polygon fill="white" stroke="black" points="417.5,-112.5 417.5,-131.5 557.5,-131.5 557.5,-112.5 417.5,-112.5"/>
<text text-anchor="middle" x="487.5" y="-119.5" font-family="Helvetica,sans-Serif" font-size="10.00">language/test/TestExpr.cc</text>
</a>
</g>
</g>
<!-- Node4&#45;&gt;Node19 -->
<g id="edge21" class="edge">
<title>Node4&#45;&gt;Node19</title>
<path fill="none" stroke="midnightblue" d="M583.26,-164.37C559.85,-154.26 527.66,-140.35 507.21,-131.52"/>
<polygon fill="midnightblue" stroke="midnightblue" points="582.13,-167.69 592.69,-168.44 584.9,-161.26 582.13,-167.69"/>
</g>
<!-- Node6 -->
<g id="node6" class="node">
<title>Node6</title>
<g id="a_node6"><a xlink:href="_bind_def_8cc.html" target="_top" xlink:title=" ">
<polygon fill="white" stroke="black" points="609.5,-56.5 609.5,-75.5 725.5,-75.5 725.5,-56.5 609.5,-56.5"/>
<text text-anchor="middle" x="667.5" y="-63.5" font-family="Helvetica,sans-Serif" font-size="10.00">language/BindDef.cc</text>
</a>
</g>
</g>
<!-- Node5&#45;&gt;Node6 -->
<g id="edge5" class="edge">
<title>Node5&#45;&gt;Node6</title>
<path fill="none" stroke="midnightblue" d="M668.79,-101.8C668.46,-92.91 668.08,-82.78 667.82,-75.75"/>
<polygon fill="midnightblue" stroke="midnightblue" points="665.3,-102.22 669.17,-112.08 672.3,-101.96 665.3,-102.22"/>
</g>
<!-- Node7 -->
<g id="node7" class="node">
<title>Node7</title>
<g id="a_node7"><a xlink:href="_null_8h.html" target="_top" xlink:title=" ">
<polygon fill="white" stroke="black" points="1041,-56.5 1041,-75.5 1134,-75.5 1134,-56.5 1041,-56.5"/>
<text text-anchor="middle" x="1087.5" y="-63.5" font-family="Helvetica,sans-Serif" font-size="10.00">language/Null.h</text>
</a>
</g>
</g>
<!-- Node5&#45;&gt;Node7 -->
<g id="edge6" class="edge">
<title>Node5&#45;&gt;Node7</title>
<path fill="none" stroke="midnightblue" d="M735.94,-112.42C821.04,-101.42 966.37,-82.65 1040.7,-73.05"/>
<polygon fill="midnightblue" stroke="midnightblue" points="735.34,-108.96 725.87,-113.72 736.24,-115.91 735.34,-108.96"/>
</g>
<!-- Node5&#45;&gt;Node16 -->
<g id="edge17" class="edge">
<title>Node5&#45;&gt;Node16</title>
<path fill="none" stroke="midnightblue" d="M635.11,-109.1C570.59,-86.79 432.83,-39.13 376.39,-19.61"/>
<polygon fill="midnightblue" stroke="midnightblue" points="634.22,-112.5 644.81,-112.46 636.51,-105.88 634.22,-112.5"/>
</g>
<!-- Node5&#45;&gt;Node17 -->
<g id="edge16" class="edge">
<title>Node5&#45;&gt;Node17</title>
<path fill="none" stroke="midnightblue" d="M735.8,-114.95C850.68,-104.47 1085.28,-83.07 1198.11,-72.78"/>
<polygon fill="midnightblue" stroke="midnightblue" points="735.37,-111.48 725.73,-115.87 736,-118.45 735.37,-111.48"/>
</g>
<!-- Node8 -->
<g id="node8" class="node">
<title>Node8</title>
<g id="a_node8"><a xlink:href="_binding_usage_8cc.html" target="_top" xlink:title=" ">
<polygon fill="white" stroke="black" points="893.5,-0.5 893.5,-19.5 1039.5,-19.5 1039.5,-0.5 893.5,-0.5"/>
<text text-anchor="middle" x="966.5" y="-7.5" font-family="Helvetica,sans-Serif" font-size="10.00">language/BindingUsage.cc</text>
</a>
</g>
</g>
<!-- Node7&#45;&gt;Node8 -->
<g id="edge7" class="edge">
<title>Node7&#45;&gt;Node8</title>
<path fill="none" stroke="midnightblue" d="M1059.19,-52.37C1036.53,-42.26 1005.37,-28.35 985.58,-19.52"/>
<polygon fill="midnightblue" stroke="midnightblue" points="1057.77,-55.56 1068.33,-56.44 1060.62,-49.17 1057.77,-55.56"/>
</g>
<!-- Node7&#45;&gt;Node9 -->
<g id="edge8" class="edge">
<title>Node7&#45;&gt;Node9</title>
<path fill="none" stroke="midnightblue" d="M1031.06,-57.21C966.94,-48.34 859.16,-33.33 766.5,-20 763.75,-19.6 760.92,-19.2 758.07,-18.78"/>
<polygon fill="midnightblue" stroke="midnightblue" points="1030.59,-60.68 1040.97,-58.58 1031.54,-53.75 1030.59,-60.68"/>
</g>
<!-- Node10 -->
<g id="node10" class="node">
<title>Node10</title>
<g id="a_node10"><a xlink:href="_conditional_8cc.html" target="_top" xlink:title=" ">
<polygon fill="white" stroke="black" points="1057.5,-0.5 1057.5,-19.5 1191.5,-19.5 1191.5,-0.5 1057.5,-0.5"/>
<text text-anchor="middle" x="1124.5" y="-7.5" font-family="Helvetica,sans-Serif" font-size="10.00">language/Conditional.cc</text>
</a>
</g>
</g>
<!-- Node7&#45;&gt;Node10 -->
<g id="edge9" class="edge">
<title>Node7&#45;&gt;Node10</title>
<path fill="none" stroke="midnightblue" d="M1099.45,-47.57C1105.81,-38.27 1113.37,-27.25 1118.5,-19.75"/>
<polygon fill="midnightblue" stroke="midnightblue" points="1096.37,-45.86 1093.61,-56.08 1102.15,-49.81 1096.37,-45.86"/>
</g>
<!-- Node7&#45;&gt;Node11 -->
<g id="edge10" class="edge">
<title>Node7&#45;&gt;Node11</title>
<path fill="none" stroke="midnightblue" d="M1036.12,-54.41C986.6,-44.2 912.64,-28.96 866.82,-19.52"/>
<polygon fill="midnightblue" stroke="midnightblue" points="1035.48,-57.85 1045.99,-56.44 1036.9,-51 1035.48,-57.85"/>
</g>
<!-- Node12 -->
<g id="node12" class="node">
<title>Node12</title>
<g id="a_node12"><a xlink:href="_func_call_8cc.html" target="_top" xlink:title=" ">
<polygon fill="white" stroke="black" points="1755,-0.5 1755,-19.5 1874,-19.5 1874,-0.5 1755,-0.5"/>
<text text-anchor="middle" x="1814.5" y="-7.5" font-family="Helvetica,sans-Serif" font-size="10.00">language/FuncCall.cc</text>
</a>
</g>
</g>
<!-- Node7&#45;&gt;Node12 -->
<g id="edge11" class="edge">
<title>Node7&#45;&gt;Node12</title>
<path fill="none" stroke="midnightblue" d="M1144.2,-59.76C1158.94,-58.46 1174.81,-57.12 1189.5,-56 1436.41,-37.12 1499.04,-44.03 1745.5,-20 1748.51,-19.71 1751.58,-19.39 1754.69,-19.04"/>
<polygon fill="midnightblue" stroke="midnightblue" points="1143.85,-56.28 1134.2,-60.65 1144.47,-63.25 1143.85,-56.28"/>
</g>
<!-- Node13 -->
<g id="node13" class="node">
<title>Node13</title>
<g id="a_node13"><a xlink:href="_func_def_8cc.html" target="_top" xlink:title=" ">
<polygon fill="white" stroke="black" points="1329,-0.5 1329,-19.5 1446,-19.5 1446,-0.5 1329,-0.5"/>
<text text-anchor="middle" x="1387.5" y="-7.5" font-family="Helvetica,sans-Serif" font-size="10.00">language/FuncDef.cc</text>
</a>
</g>
</g>
<!-- Node7&#45;&gt;Node13 -->
<g id="edge12" class="edge">
<title>Node7&#45;&gt;Node13</title>
<path fill="none" stroke="midnightblue" d="M1143.9,-54.85C1200.47,-44.67 1286.61,-29.16 1339.85,-19.58"/>
<polygon fill="midnightblue" stroke="midnightblue" points="1143.27,-51.41 1134.05,-56.62 1144.51,-58.29 1143.27,-51.41"/>
</g>
<!-- Node14 -->
<g id="node14" class="node">
<title>Node14</title>
<g id="a_node14"><a xlink:href="_loop_8cc.html" target="_top" xlink:title=" ">
<polygon fill="white" stroke="black" points="1210,-0.5 1210,-19.5 1311,-19.5 1311,-0.5 1210,-0.5"/>
<text text-anchor="middle" x="1260.5" y="-7.5" font-family="Helvetica,sans-Serif" font-size="10.00">language/Loop.cc</text>
</a>
</g>
</g>
<!-- Node7&#45;&gt;Node14 -->
<g id="edge13" class="edge">
<title>Node7&#45;&gt;Node14</title>
<path fill="none" stroke="midnightblue" d="M1124.55,-53.44C1157.16,-43.26 1203.91,-28.66 1233.22,-19.52"/>
<polygon fill="midnightblue" stroke="midnightblue" points="1123.42,-50.12 1114.91,-56.44 1125.5,-56.8 1123.42,-50.12"/>
</g>
<!-- Node15 -->
<g id="node15" class="node">
<title>Node15</title>
<g id="a_node15"><a xlink:href="parser_8cc.html" target="_top" xlink:title=" ">
<polygon fill="white" stroke="black" points="1464.5,-0.5 1464.5,-19.5 1572.5,-19.5 1572.5,-0.5 1464.5,-0.5"/>
<text text-anchor="middle" x="1518.5" y="-7.5" font-family="Helvetica,sans-Serif" font-size="10.00">language/parser.cc</text>
</a>
</g>
</g>
<!-- Node7&#45;&gt;Node15 -->
<g id="edge14" class="edge">
<title>Node7&#45;&gt;Node15</title>
<path fill="none" stroke="midnightblue" d="M1144.26,-58.42C1216.59,-49.95 1345.42,-34.59 1455.5,-20 1458.35,-19.62 1461.27,-19.23 1464.21,-18.83"/>
<polygon fill="midnightblue" stroke="midnightblue" points="1143.54,-54.98 1134.01,-59.62 1144.35,-61.93 1143.54,-54.98"/>
</g>
<!-- Node7&#45;&gt;Node16 -->
<g id="edge15" class="edge">
<title>Node7&#45;&gt;Node16</title>
<path fill="none" stroke="midnightblue" d="M1030.55,-60.82C897.67,-51.07 567.43,-26.84 422.08,-16.18"/>
<polygon fill="midnightblue" stroke="midnightblue" points="1030.67,-64.34 1040.9,-61.58 1031.18,-57.36 1030.67,-64.34"/>
</g>
<!-- Node21&#45;&gt;Node2 -->
<g id="edge25" class="edge">
<title>Node21&#45;&gt;Node2</title>
<path fill="none" stroke="midnightblue" d="M317.33,-277.17C287.96,-267 246.3,-252.59 220.1,-243.52"/>
<polygon fill="midnightblue" stroke="midnightblue" points="316.19,-280.48 326.78,-280.44 318.48,-273.86 316.19,-280.48"/>
</g>
<!-- Node21&#45;&gt;Node8 -->
<g id="edge26" class="edge">
<title>Node21&#45;&gt;Node8</title>
<path fill="none" stroke="midnightblue" d="M377.77,-275.03C389.11,-267.48 401.2,-257.02 407.5,-244 433.06,-191.19 373.12,-158.8 408.5,-112 421.9,-94.27 578.73,-60.48 600.5,-56 628.44,-50.25 794.92,-30.69 893.46,-19.34"/>
<polygon fill="midnightblue" stroke="midnightblue" points="375.65,-272.23 368.97,-280.45 379.32,-278.19 375.65,-272.23"/>
</g>
<!-- Node21&#45;&gt;Node16 -->
<g id="edge28" class="edge">
<title>Node21&#45;&gt;Node16</title>
<path fill="none" stroke="midnightblue" d="M327.25,-274.85C315.83,-267.06 302.9,-256.45 294.5,-244 277.67,-219.05 275.5,-209.1 275.5,-179 275.5,-179 275.5,-179 275.5,-121 275.5,-76.2 318.7,-36.43 339.96,-19.57"/>
<polygon fill="midnightblue" stroke="midnightblue" points="325.67,-277.99 335.97,-280.46 329.46,-272.11 325.67,-277.99"/>
</g>
<!-- Node22 -->
<g id="node22" class="node">
<title>Node22</title>
<g id="a_node22"><a xlink:href="env_8cc.html" target="_top" xlink:title=" ">
<polygon fill="white" stroke="black" points="304,-224.5 304,-243.5 399,-243.5 399,-224.5 304,-224.5"/>
<text text-anchor="middle" x="351.5" y="-231.5" font-family="Helvetica,sans-Serif" font-size="10.00">language/env.cc</text>
</a>
</g>
</g>
<!-- Node21&#45;&gt;Node22 -->
<g id="edge27" class="edge">
<title>Node21&#45;&gt;Node22</title>
<path fill="none" stroke="midnightblue" d="M351.5,-269.8C351.5,-260.91 351.5,-250.78 351.5,-243.75"/>
<polygon fill="midnightblue" stroke="midnightblue" points="348,-270.08 351.5,-280.08 355,-270.08 348,-270.08"/>
</g>
<!-- Node23&#45;&gt;Node4 -->
<g id="edge30" class="edge">
<title>Node23&#45;&gt;Node4</title>
<path fill="none" stroke="midnightblue" d="M753.17,-221.44C719.42,-211.26 671.05,-196.66 640.73,-187.52"/>
<polygon fill="midnightblue" stroke="midnightblue" points="752.55,-224.91 763.14,-224.44 754.57,-218.2 752.55,-224.91"/>
</g>
<!-- Node23&#45;&gt;Node8 -->
<g id="edge31" class="edge">
<title>Node23&#45;&gt;Node8</title>
<path fill="none" stroke="midnightblue" d="M793.21,-214.23C796.4,-188.64 805.3,-142.53 829.5,-112 863.82,-68.69 921.1,-34.76 949.49,-19.62"/>
<polygon fill="midnightblue" stroke="midnightblue" points="789.71,-214.09 792.11,-224.41 796.67,-214.84 789.71,-214.09"/>
</g>
<!-- Node23&#45;&gt;Node16 -->
<g id="edge33" class="edge">
<title>Node23&#45;&gt;Node16</title>
<path fill="none" stroke="midnightblue" d="M791.6,-213.88C790.67,-176.92 782.88,-95.78 734.5,-56 688.21,-17.95 519.4,-11.11 422.04,-10.44"/>
<polygon fill="midnightblue" stroke="midnightblue" points="788.11,-214.26 791.71,-224.23 795.11,-214.19 788.11,-214.26"/>
</g>
<!-- Node23&#45;&gt;Node17 -->
<g id="edge32" class="edge">
<title>Node23&#45;&gt;Node17</title>
<path fill="none" stroke="midnightblue" d="M797.68,-214.57C808.34,-183.94 830.74,-124.67 848.5,-112 862.54,-101.99 1086.1,-81.82 1198.3,-72.26"/>
<polygon fill="midnightblue" stroke="midnightblue" points="794.24,-213.82 794.32,-224.42 800.86,-216.09 794.24,-213.82"/>
</g>
<!-- Node24&#45;&gt;Node8 -->
<g id="edge36" class="edge">
<title>Node24&#45;&gt;Node8</title>
<path fill="none" stroke="midnightblue" d="M1582.39,-60.01C1464.67,-52.54 1239.63,-37.48 1048.5,-20 1045.65,-19.74 1042.74,-19.46 1039.8,-19.18"/>
<polygon fill="midnightblue" stroke="midnightblue" points="1582.21,-63.5 1592.41,-60.64 1582.65,-56.51 1582.21,-63.5"/>
</g>
<!-- Node24&#45;&gt;Node12 -->
<g id="edge38" class="edge">
<title>Node24&#45;&gt;Node12</title>
<path fill="none" stroke="midnightblue" d="M1696.95,-53.04C1725.36,-42.88 1765.44,-28.55 1790.69,-19.52"/>
<polygon fill="midnightblue" stroke="midnightblue" points="1695.66,-49.78 1687.43,-56.44 1698.02,-56.37 1695.66,-49.78"/>
</g>
<!-- Node24&#45;&gt;Node15 -->
<g id="edge39" class="edge">
<title>Node24&#45;&gt;Node15</title>
<path fill="none" stroke="midnightblue" d="M1631.02,-52.91C1603.76,-42.75 1565.51,-28.51 1541.37,-19.52"/>
<polygon fill="midnightblue" stroke="midnightblue" points="1629.93,-56.23 1640.52,-56.44 1632.37,-49.67 1629.93,-56.23"/>
</g>
<!-- Node25 -->
<g id="node25" class="node">
<title>Node25</title>
<g id="a_node25"><a xlink:href="_error_statment_8cc.html" target="_top" xlink:title=" ">
<polygon fill="white" stroke="black" points="1590.5,-0.5 1590.5,-19.5 1736.5,-19.5 1736.5,-0.5 1590.5,-0.5"/>
<text text-anchor="middle" x="1663.5" y="-7.5" font-family="Helvetica,sans-Serif" font-size="10.00">language/ErrorStatment.cc</text>
</a>
</g>
</g>
<!-- Node24&#45;&gt;Node25 -->
<g id="edge37" class="edge">
<title>Node24&#45;&gt;Node25</title>
<path fill="none" stroke="midnightblue" d="M1663.5,-45.8C1663.5,-36.91 1663.5,-26.78 1663.5,-19.75"/>
<polygon fill="midnightblue" stroke="midnightblue" points="1660,-46.08 1663.5,-56.08 1667,-46.08 1660,-46.08"/>
</g>
<!-- Node26&#45;&gt;Node9 -->
<g id="edge41" class="edge">
<title>Node26&#45;&gt;Node9</title>
<path fill="none" stroke="midnightblue" d="M1159.86,-166.29C1126.39,-158.78 1083.1,-147.33 1046.5,-132 1030.33,-125.23 1028.47,-119.23 1012.5,-112 916.65,-68.64 796.52,-34.62 739.09,-19.51"/>
<polygon fill="midnightblue" stroke="midnightblue" points="1159.39,-169.77 1169.91,-168.5 1160.89,-162.94 1159.39,-169.77"/>
</g>
<!-- Node26&#45;&gt;Node11 -->
<g id="edge45" class="edge">
<title>Node26&#45;&gt;Node11</title>
<path fill="none" stroke="midnightblue" d="M1177.1,-165.39C1151.7,-157.09 1117.57,-145.1 1088.5,-132 1024.66,-103.24 1014.31,-84.84 950.5,-56 917.92,-41.28 878.97,-27.89 853.31,-19.61"/>
<polygon fill="midnightblue" stroke="midnightblue" points="1176.13,-168.76 1186.72,-168.5 1178.28,-162.09 1176.13,-168.76"/>
</g>
<!-- Node26&#45;&gt;Node17 -->
<g id="edge50" class="edge">
<title>Node26&#45;&gt;Node17</title>
<path fill="none" stroke="midnightblue" d="M1222.99,-159.4C1226.91,-151.13 1231.56,-141.11 1235.5,-132 1244.1,-112.15 1253.31,-88.48 1258.12,-75.9"/>
<polygon fill="midnightblue" stroke="midnightblue" points="1219.83,-157.91 1218.67,-168.44 1226.14,-160.93 1219.83,-157.91"/>
</g>
<!-- Node26&#45;&gt;Node18 -->
<g id="edge54" class="edge">
<title>Node26&#45;&gt;Node18</title>
<path fill="none" stroke="midnightblue" d="M1159.47,-166.54C1105.8,-156.33 1025.16,-141 975.29,-131.52"/>
<polygon fill="midnightblue" stroke="midnightblue" points="1159.02,-170.01 1169.5,-168.44 1160.33,-163.14 1159.02,-170.01"/>
</g>
<!-- Node26&#45;&gt;Node27 -->
<g id="edge42" class="edge">
<title>Node26&#45;&gt;Node27</title>
<path fill="none" stroke="midnightblue" d="M1198.82,-160.72C1189.66,-151.2 1178.45,-139.56 1170.93,-131.75"/>
<polygon fill="midnightblue" stroke="midnightblue" points="1196.46,-163.31 1205.91,-168.08 1201.5,-158.45 1196.46,-163.31"/>
</g>
<!-- Node26&#45;&gt;Node28 -->
<g id="edge46" class="edge">
<title>Node26&#45;&gt;Node28</title>
<path fill="none" stroke="midnightblue" d="M1268.56,-166.54C1321.29,-156.33 1400.5,-141 1449.5,-131.52"/>
<polygon fill="midnightblue" stroke="midnightblue" points="1267.86,-163.11 1258.71,-168.44 1269.19,-169.98 1267.86,-163.11"/>
</g>
<!-- Node26&#45;&gt;Node29 -->
<g id="edge51" class="edge">
<title>Node26&#45;&gt;Node29</title>
<path fill="none" stroke="midnightblue" d="M1248.67,-165.17C1278.04,-155 1319.7,-140.59 1345.9,-131.52"/>
<polygon fill="midnightblue" stroke="midnightblue" points="1247.52,-161.86 1239.22,-168.44 1249.81,-168.48 1247.52,-161.86"/>
</g>
<!-- Node27&#45;&gt;Node10 -->
<g id="edge43" class="edge">
<title>Node27&#45;&gt;Node10</title>
<path fill="none" stroke="midnightblue" d="M1157.22,-102.39C1153.4,-89.32 1147.97,-71.48 1142.5,-56 1137.96,-43.15 1131.96,-28.54 1128.16,-19.55"/>
<polygon fill="midnightblue" stroke="midnightblue" points="1153.88,-103.45 1160.01,-112.09 1160.6,-101.52 1153.88,-103.45"/>
</g>
<!-- Node27&#45;&gt;Node17 -->
<g id="edge44" class="edge">
<title>Node27&#45;&gt;Node17</title>
<path fill="none" stroke="midnightblue" d="M1187.34,-107.45C1205.61,-97.48 1229.92,-84.23 1245.63,-75.65"/>
<polygon fill="midnightblue" stroke="midnightblue" points="1185.51,-104.46 1178.41,-112.32 1188.86,-110.61 1185.51,-104.46"/>
</g>
<!-- Node28&#45;&gt;Node12 -->
<g id="edge47" class="edge">
<title>Node28&#45;&gt;Node12</title>
<path fill="none" stroke="midnightblue" d="M1560.48,-110.91C1628.88,-100.3 1727.26,-84.04 1743.5,-76 1771.36,-62.21 1796.21,-34.14 1807.73,-19.83"/>
<polygon fill="midnightblue" stroke="midnightblue" points="1559.55,-107.51 1550.2,-112.5 1560.62,-114.43 1559.55,-107.51"/>
</g>
<!-- Node28&#45;&gt;Node13 -->
<g id="edge48" class="edge">
<title>Node28&#45;&gt;Node13</title>
<path fill="none" stroke="midnightblue" d="M1477.98,-104.9C1455.19,-81.25 1413.47,-37.95 1395.78,-19.59"/>
<polygon fill="midnightblue" stroke="midnightblue" points="1475.72,-107.6 1485.18,-112.37 1480.76,-102.74 1475.72,-107.6"/>
</g>
<!-- Node28&#45;&gt;Node17 -->
<g id="edge49" class="edge">
<title>Node28&#45;&gt;Node17</title>
<path fill="none" stroke="midnightblue" d="M1446.9,-110.15C1403.06,-99.95 1338.32,-84.88 1298.09,-75.52"/>
<polygon fill="midnightblue" stroke="midnightblue" points="1446.21,-113.59 1456.74,-112.44 1447.79,-106.77 1446.21,-113.59"/>
</g>
<!-- Node29&#45;&gt;Node14 -->
<g id="edge53" class="edge">
<title>Node29&#45;&gt;Node14</title>
<path fill="none" stroke="midnightblue" d="M1363.04,-102.58C1356.72,-88.61 1346.58,-69.55 1333.5,-56 1318.09,-40.04 1295.89,-27.42 1280.02,-19.65"/>
<polygon fill="midnightblue" stroke="midnightblue" points="1359.97,-104.3 1367.13,-112.11 1366.4,-101.54 1359.97,-104.3"/>
</g>
<!-- Node29&#45;&gt;Node17 -->
<g id="edge52" class="edge">
<title>Node29&#45;&gt;Node17</title>
<path fill="none" stroke="midnightblue" d="M1343.98,-107.86C1323.77,-97.85 1296.51,-84.35 1278.97,-75.65"/>
<polygon fill="midnightblue" stroke="midnightblue" points="1342.47,-111.02 1352.99,-112.32 1345.58,-104.75 1342.47,-111.02"/>
</g>
<!-- Node30&#45;&gt;Node12 -->
<g id="edge57" class="edge">
<title>Node30&#45;&gt;Node12</title>
<path fill="none" stroke="midnightblue" d="M1693.34,-114.42C1723.75,-108.49 1758.35,-97.25 1783.5,-76 1801.26,-60.99 1809.58,-33.48 1812.8,-19.56"/>
<polygon fill="midnightblue" stroke="midnightblue" points="1692.43,-111.03 1683.21,-116.24 1693.67,-117.92 1692.43,-111.03"/>
</g>
<!-- Node30&#45;&gt;Node17 -->
<g id="edge58" class="edge">
<title>Node30&#45;&gt;Node17</title>
<path fill="none" stroke="midnightblue" d="M1557.53,-110.92C1488.76,-100.71 1383.63,-85.12 1318.91,-75.52"/>
<polygon fill="midnightblue" stroke="midnightblue" points="1557.42,-114.44 1567.82,-112.44 1558.45,-107.51 1557.42,-114.44"/>
</g>
<!-- Node32 -->
<g id="node32" class="node">
<title>Node32</title>
<g id="a_node32"><a xlink:href="_matrix_8cc.html" target="_top" xlink:title=" ">
<polygon fill="white" stroke="black" points="1739.5,-224.5 1739.5,-243.5 1849.5,-243.5 1849.5,-224.5 1739.5,-224.5"/>
<text text-anchor="middle" x="1794.5" y="-231.5" font-family="Helvetica,sans-Serif" font-size="10.00">language/Matrix.cc</text>
</a>
</g>
</g>
<!-- Node31&#45;&gt;Node32 -->
<g id="edge63" class="edge">
<title>Node31&#45;&gt;Node32</title>
<path fill="none" stroke="midnightblue" d="M1793.86,-269.8C1794.02,-260.91 1794.21,-250.78 1794.34,-243.75"/>
<polygon fill="midnightblue" stroke="midnightblue" points="1790.35,-270.02 1793.67,-280.08 1797.35,-270.15 1790.35,-270.02"/>
</g>
</g>
</svg>
