<?xml version="1.0" encoding="UTF-8" standalone="no"?>
<!DOCTYPE svg PUBLIC "-//W3C//DTD SVG 1.1//EN"
 "http://www.w3.org/Graphics/SVG/1.1/DTD/svg11.dtd">
<!-- Generated by graphviz version 2.43.0 (0)
 -->
<!-- Title: IStatment::eval Pages: 1 -->
<svg width="249pt" height="142pt"
 viewBox="0.00 0.00 249.00 142.00" xmlns="http://www.w3.org/2000/svg" xmlns:xlink="http://www.w3.org/1999/xlink">
<g id="graph0" class="graph" transform="scale(1 1) rotate(0) translate(4 138)">
<title>IStatment::eval</title>
<polygon fill="white" stroke="transparent" points="-4,4 -4,-138 245,-138 245,4 -4,4"/>
<!-- Node1 -->
<g id="node1" class="node">
<title>Node1</title>
<g id="a_node1"><a xlink:title="Function uesed to evaluate statment in the scope.">
<polygon fill="#bfbfbf" stroke="black" points="149,-57.5 149,-76.5 241,-76.5 241,-57.5 149,-57.5"/>
<text text-anchor="middle" x="195" y="-64.5" font-family="Helvetica,sans-Serif" font-size="10.00">IStatment::eval</text>
</a>
</g>
</g>
<!-- Node2 -->
<g id="node2" class="node">
<title>Node2</title>
<g id="a_node2"><a xlink:href="class_loop.html#aab33bee4801f7a0eaf7c542825a812ed" target="_top" xlink:title="Evaluates all statments in block as long as condition is true.">
<polygon fill="white" stroke="black" points="23,-114.5 23,-133.5 90,-133.5 90,-114.5 23,-114.5"/>
<text text-anchor="middle" x="56.5" y="-121.5" font-family="Helvetica,sans-Serif" font-size="10.00">Loop::eval</text>
</a>
</g>
</g>
<!-- Node1&#45;&gt;Node2 -->
<g id="edge1" class="edge">
<title>Node1&#45;&gt;Node2</title>
<path fill="none" stroke="midnightblue" d="M165.93,-81.09C150.49,-88.61 130.89,-97.77 113,-105 104.79,-108.32 95.74,-111.58 87.39,-114.43"/>
<polygon fill="midnightblue" stroke="midnightblue" points="167.52,-84.21 174.95,-76.66 164.43,-77.93 167.52,-84.21"/>
</g>
<!-- Node3 -->
<g id="node3" class="node">
<title>Node3</title>
<g id="a_node3"><a xlink:href="class_conditional.html#ad5e0729431c9cd0f7e480e605e564800" target="_top" xlink:title="Evaluates all the statments in either true or false block depending on evaluation of condition (all i...">
<polygon fill="white" stroke="black" points="7,-76.5 7,-95.5 106,-95.5 106,-76.5 7,-76.5"/>
<text text-anchor="middle" x="56.5" y="-83.5" font-family="Helvetica,sans-Serif" font-size="10.00">Conditional::eval</text>
</a>
</g>
</g>
<!-- Node1&#45;&gt;Node3 -->
<g id="edge2" class="edge">
<title>Node1&#45;&gt;Node3</title>
<path fill="none" stroke="midnightblue" d="M138.79,-74.69C128.03,-76.18 116.82,-77.74 106.29,-79.21"/>
<polygon fill="midnightblue" stroke="midnightblue" points="139.5,-78.12 148.93,-73.27 138.54,-71.19 139.5,-78.12"/>
</g>
<!-- Node4 -->
<g id="node4" class="node">
<title>Node4</title>
<g id="a_node4"><a xlink:href="class_binding_usage.html#a48b8cc69f900054b9d07a05141454c1f" target="_top" xlink:title="Evaluates variable in scope and returns updated value of the variable.">
<polygon fill="white" stroke="black" points="1,-38.5 1,-57.5 112,-57.5 112,-38.5 1,-38.5"/>
<text text-anchor="middle" x="56.5" y="-45.5" font-family="Helvetica,sans-Serif" font-size="10.00">BindingUsage::eval</text>
</a>
</g>
</g>
<!-- Node1&#45;&gt;Node4 -->
<g id="edge3" class="edge">
<title>Node1&#45;&gt;Node4</title>
<path fill="none" stroke="midnightblue" d="M138.76,-59.31C129.94,-58.08 120.83,-56.81 112.03,-55.59"/>
<polygon fill="midnightblue" stroke="midnightblue" points="138.54,-62.81 148.93,-60.73 139.5,-55.88 138.54,-62.81"/>
</g>
<!-- Node5 -->
<g id="node5" class="node">
<title>Node5</title>
<g id="a_node5"><a xlink:href="class_expr_operation.html#a7fe38971df6d2ed029348db296eca901" target="_top" xlink:title="Evaluates to operation performed on two operands.">
<polygon fill="white" stroke="black" points="0,-0.5 0,-19.5 113,-19.5 113,-0.5 0,-0.5"/>
<text text-anchor="middle" x="56.5" y="-7.5" font-family="Helvetica,sans-Serif" font-size="10.00">ExprOperation::eval</text>
</a>
</g>
</g>
<!-- Node1&#45;&gt;Node5 -->
<g id="edge4" class="edge">
<title>Node1&#45;&gt;Node5</title>
<path fill="none" stroke="midnightblue" d="M165.93,-52.91C150.49,-45.39 130.89,-36.23 113,-29 104.79,-25.68 95.74,-22.42 87.39,-19.57"/>
<polygon fill="midnightblue" stroke="midnightblue" points="164.43,-56.07 174.95,-57.34 167.52,-49.79 164.43,-56.07"/>
</g>
</g>
</svg>
