<?xml version="1.0" encoding="UTF-8" standalone="no"?>
<!DOCTYPE svg PUBLIC "-//W3C//DTD SVG 1.1//EN"
 "http://www.w3.org/Graphics/SVG/1.1/DTD/svg11.dtd">
<!-- Generated by graphviz version 2.43.0 (0)
 -->
<!-- Title: Null Pages: 1 -->
<svg width="86pt" height="215pt"
 viewBox="0.00 0.00 86.00 215.00" xmlns="http://www.w3.org/2000/svg" xmlns:xlink="http://www.w3.org/1999/xlink">
<g id="graph0" class="graph" transform="scale(1 1) rotate(0) translate(4 211)">
<title>Null</title>
<polygon fill="white" stroke="transparent" points="-4,4 -4,-211 82,-211 82,4 -4,4"/>
<!-- Node1 -->
<g id="node1" class="node">
<title>Node1</title>
<g id="a_node1"><a xlink:title="Null value.">
<polygon fill="#bfbfbf" stroke="black" points="7.5,-0.5 7.5,-79.5 70.5,-79.5 70.5,-0.5 7.5,-0.5"/>
<text text-anchor="middle" x="39" y="-67.5" font-family="Helvetica,sans-Serif" font-size="10.00">Null</text>
<polyline fill="none" stroke="black" points="7.5,-60.5 70.5,-60.5 "/>
<text text-anchor="middle" x="39" y="-48.5" font-family="Helvetica,sans-Serif" font-size="10.00"> </text>
<polyline fill="none" stroke="black" points="7.5,-41.5 70.5,-41.5 "/>
<text text-anchor="start" x="15.5" y="-29.5" font-family="Helvetica,sans-Serif" font-size="10.00">+ Null()</text>
<text text-anchor="start" x="15.5" y="-18.5" font-family="Helvetica,sans-Serif" font-size="10.00">+ value()</text>
<text text-anchor="start" x="15.5" y="-7.5" font-family="Helvetica,sans-Serif" font-size="10.00">+ ~Null()</text>
</a>
</g>
</g>
<!-- Node2 -->
<g id="node2" class="node">
<title>Node2</title>
<g id="a_node2"><a xlink:href="class_i_value.html" target="_top" xlink:title="Base class for all possible evaluation results.">
<polygon fill="white" stroke="black" points="0,-116.5 0,-206.5 78,-206.5 78,-116.5 0,-116.5"/>
<text text-anchor="middle" x="39" y="-194.5" font-family="Helvetica,sans-Serif" font-size="10.00">IValue</text>
<polyline fill="none" stroke="black" points="0,-187.5 78,-187.5 "/>
<text text-anchor="middle" x="39" y="-175.5" font-family="Helvetica,sans-Serif" font-size="10.00"> </text>
<polyline fill="none" stroke="black" points="0,-168.5 78,-168.5 "/>
<text text-anchor="start" x="8" y="-156.5" font-family="Helvetica,sans-Serif" font-size="10.00">+ IValue()</text>
<text text-anchor="start" x="8" y="-145.5" font-family="Helvetica,sans-Serif" font-size="10.00">+ get_type()</text>
<text text-anchor="start" x="8" y="-134.5" font-family="Helvetica,sans-Serif" font-size="10.00">+ value()</text>
<text text-anchor="start" x="8" y="-123.5" font-family="Helvetica,sans-Serif" font-size="10.00">+ ~IValue()</text>
</a>
</g>
</g>
<!-- Node2&#45;&gt;Node1 -->
<g id="edge1" class="edge">
<title>Node2&#45;&gt;Node1</title>
<path fill="none" stroke="midnightblue" d="M39,-106.08C39,-97.23 39,-88.23 39,-79.86"/>
<polygon fill="none" stroke="midnightblue" points="35.5,-106.34 39,-116.34 42.5,-106.34 35.5,-106.34"/>
</g>
</g>
</svg>
