<?xml version="1.0" encoding="UTF-8" standalone="no"?>
<!DOCTYPE svg PUBLIC "-//W3C//DTD SVG 1.1//EN"
 "http://www.w3.org/Graphics/SVG/1.1/DTD/svg11.dtd">
<!-- Generated by graphviz version 2.43.0 (0)
 -->
<!-- Title: IExpr Pages: 1 -->
<svg width="367pt" height="386pt"
 viewBox="0.00 0.00 366.50 386.00" xmlns="http://www.w3.org/2000/svg" xmlns:xlink="http://www.w3.org/1999/xlink">
<g id="graph0" class="graph" transform="scale(1 1) rotate(0) translate(4 382)">
<title>IExpr</title>
<polygon fill="white" stroke="transparent" points="-4,4 -4,-382 362.5,-382 362.5,4 -4,4"/>
<!-- Node1 -->
<g id="node1" class="node">
<title>Node1</title>
<g id="a_node1"><a xlink:title="IExpr Base class for expressions.">
<polygon fill="#bfbfbf" stroke="black" points="145,-149.5 145,-250.5 213,-250.5 213,-149.5 145,-149.5"/>
<text text-anchor="middle" x="179" y="-238.5" font-family="Helvetica,sans-Serif" font-size="10.00">IExpr</text>
<polyline fill="none" stroke="black" points="145,-231.5 213,-231.5 "/>
<text text-anchor="middle" x="179" y="-219.5" font-family="Helvetica,sans-Serif" font-size="10.00"> </text>
<polyline fill="none" stroke="black" points="145,-212.5 213,-212.5 "/>
<text text-anchor="start" x="153" y="-200.5" font-family="Helvetica,sans-Serif" font-size="10.00">+ IExpr()</text>
<text text-anchor="start" x="153" y="-189.5" font-family="Helvetica,sans-Serif" font-size="10.00">+ eval()</text>
<text text-anchor="start" x="153" y="-178.5" font-family="Helvetica,sans-Serif" font-size="10.00">+ eval()</text>
<text text-anchor="start" x="153" y="-167.5" font-family="Helvetica,sans-Serif" font-size="10.00">+ ~IExpr()</text>
<text text-anchor="start" x="153" y="-156.5" font-family="Helvetica,sans-Serif" font-size="10.00">+ parse()</text>
</a>
</g>
</g>
<!-- Node3 -->
<g id="node3" class="node">
<title>Node3</title>
<g id="a_node3"><a xlink:href="class_expr_number.html" target="_top" xlink:title="Literal numeric expression.">
<polygon fill="white" stroke="black" points="0,-6 0,-107 104,-107 104,-6 0,-6"/>
<text text-anchor="middle" x="52" y="-95" font-family="Helvetica,sans-Serif" font-size="10.00">ExprNumber</text>
<polyline fill="none" stroke="black" points="0,-88 104,-88 "/>
<text text-anchor="middle" x="52" y="-76" font-family="Helvetica,sans-Serif" font-size="10.00"> </text>
<polyline fill="none" stroke="black" points="0,-69 104,-69 "/>
<text text-anchor="start" x="8" y="-57" font-family="Helvetica,sans-Serif" font-size="10.00">+ ExprNumber()</text>
<text text-anchor="start" x="8" y="-46" font-family="Helvetica,sans-Serif" font-size="10.00">+ eval()</text>
<text text-anchor="start" x="8" y="-35" font-family="Helvetica,sans-Serif" font-size="10.00">+ eval()</text>
<text text-anchor="start" x="8" y="-24" font-family="Helvetica,sans-Serif" font-size="10.00">+ operator==()</text>
<text text-anchor="start" x="8" y="-13" font-family="Helvetica,sans-Serif" font-size="10.00">+ ~ExprNumber()</text>
</a>
</g>
</g>
<!-- Node1&#45;&gt;Node3 -->
<g id="edge2" class="edge">
<title>Node1&#45;&gt;Node3</title>
<path fill="none" stroke="midnightblue" d="M138.19,-153.53C124.94,-138.76 110.17,-122.31 96.65,-107.25"/>
<polygon fill="none" stroke="midnightblue" points="135.68,-155.98 144.97,-161.08 140.89,-151.3 135.68,-155.98"/>
</g>
<!-- Node4 -->
<g id="node4" class="node">
<title>Node4</title>
<g id="a_node4"><a xlink:href="class_expr_operation.html" target="_top" xlink:title="Mathematical operation (+, &#45;, ==, ...)">
<polygon fill="white" stroke="black" points="122.5,-0.5 122.5,-112.5 235.5,-112.5 235.5,-0.5 122.5,-0.5"/>
<text text-anchor="middle" x="179" y="-100.5" font-family="Helvetica,sans-Serif" font-size="10.00">ExprOperation</text>
<polyline fill="none" stroke="black" points="122.5,-93.5 235.5,-93.5 "/>
<text text-anchor="middle" x="179" y="-81.5" font-family="Helvetica,sans-Serif" font-size="10.00"> </text>
<polyline fill="none" stroke="black" points="122.5,-74.5 235.5,-74.5 "/>
<text text-anchor="start" x="130.5" y="-62.5" font-family="Helvetica,sans-Serif" font-size="10.00">+ ExprOperation()</text>
<text text-anchor="start" x="130.5" y="-51.5" font-family="Helvetica,sans-Serif" font-size="10.00">+ ExprOperation()</text>
<text text-anchor="start" x="130.5" y="-40.5" font-family="Helvetica,sans-Serif" font-size="10.00">+ eval()</text>
<text text-anchor="start" x="130.5" y="-29.5" font-family="Helvetica,sans-Serif" font-size="10.00">+ eval()</text>
<text text-anchor="start" x="130.5" y="-18.5" font-family="Helvetica,sans-Serif" font-size="10.00">+ operator==()</text>
<text text-anchor="start" x="130.5" y="-7.5" font-family="Helvetica,sans-Serif" font-size="10.00">+ ~ExprOperation()</text>
</a>
</g>
</g>
<!-- Node1&#45;&gt;Node4 -->
<g id="edge3" class="edge">
<title>Node1&#45;&gt;Node4</title>
<path fill="none" stroke="midnightblue" d="M179,-139.01C179,-130.29 179,-121.34 179,-112.72"/>
<polygon fill="none" stroke="midnightblue" points="175.5,-139.11 179,-149.11 182.5,-139.11 175.5,-139.11"/>
</g>
<!-- Node5 -->
<g id="node5" class="node">
<title>Node5</title>
<g id="a_node5"><a xlink:href="class_expr_variable.html" target="_top" xlink:title="Usage of existing variable.">
<polygon fill="white" stroke="black" points="253.5,-6 253.5,-107 358.5,-107 358.5,-6 253.5,-6"/>
<text text-anchor="middle" x="306" y="-95" font-family="Helvetica,sans-Serif" font-size="10.00">ExprVariable</text>
<polyline fill="none" stroke="black" points="253.5,-88 358.5,-88 "/>
<text text-anchor="middle" x="306" y="-76" font-family="Helvetica,sans-Serif" font-size="10.00"> </text>
<polyline fill="none" stroke="black" points="253.5,-69 358.5,-69 "/>
<text text-anchor="start" x="261.5" y="-57" font-family="Helvetica,sans-Serif" font-size="10.00">+ ExprVariable()</text>
<text text-anchor="start" x="261.5" y="-46" font-family="Helvetica,sans-Serif" font-size="10.00">+ eval()</text>
<text text-anchor="start" x="261.5" y="-35" font-family="Helvetica,sans-Serif" font-size="10.00">+ eval()</text>
<text text-anchor="start" x="261.5" y="-24" font-family="Helvetica,sans-Serif" font-size="10.00">+ operator==()</text>
<text text-anchor="start" x="261.5" y="-13" font-family="Helvetica,sans-Serif" font-size="10.00">+ ~ExprVariable()</text>
</a>
</g>
</g>
<!-- Node1&#45;&gt;Node5 -->
<g id="edge4" class="edge">
<title>Node1&#45;&gt;Node5</title>
<path fill="none" stroke="midnightblue" d="M219.81,-153.53C233.06,-138.76 247.83,-122.31 261.35,-107.25"/>
<polygon fill="none" stroke="midnightblue" points="217.11,-151.3 213.03,-161.08 222.32,-155.98 217.11,-151.3"/>
</g>
<!-- Node2 -->
<g id="node2" class="node">
<title>Node2</title>
<g id="a_node2"><a xlink:href="class_i_statment.html" target="_top" xlink:title="Base class for all possible statments in the language.">
<polygon fill="white" stroke="black" points="133,-287.5 133,-377.5 225,-377.5 225,-287.5 133,-287.5"/>
<text text-anchor="middle" x="179" y="-365.5" font-family="Helvetica,sans-Serif" font-size="10.00">IStatment</text>
<polyline fill="none" stroke="black" points="133,-358.5 225,-358.5 "/>
<text text-anchor="middle" x="179" y="-346.5" font-family="Helvetica,sans-Serif" font-size="10.00"> </text>
<polyline fill="none" stroke="black" points="133,-339.5 225,-339.5 "/>
<text text-anchor="start" x="141" y="-327.5" font-family="Helvetica,sans-Serif" font-size="10.00">+ IStatment()</text>
<text text-anchor="start" x="141" y="-316.5" font-family="Helvetica,sans-Serif" font-size="10.00">+ eval()</text>
<text text-anchor="start" x="141" y="-305.5" font-family="Helvetica,sans-Serif" font-size="10.00">+ ~IStatment()</text>
<text text-anchor="start" x="141" y="-294.5" font-family="Helvetica,sans-Serif" font-size="10.00">+ parse()</text>
</a>
</g>
</g>
<!-- Node2&#45;&gt;Node1 -->
<g id="edge1" class="edge">
<title>Node2&#45;&gt;Node1</title>
<path fill="none" stroke="midnightblue" d="M179,-277.13C179,-268.31 179,-259.22 179,-250.52"/>
<polygon fill="none" stroke="midnightblue" points="175.5,-277.32 179,-287.32 182.5,-277.32 175.5,-277.32"/>
</g>
</g>
</svg>
