<?xml version="1.0" encoding="UTF-8" standalone="no"?>
<!DOCTYPE svg PUBLIC "-//W3C//DTD SVG 1.1//EN"
 "http://www.w3.org/Graphics/SVG/1.1/DTD/svg11.dtd">
<!-- Generated by graphviz version 2.43.0 (0)
 -->
<!-- Title: IStatment Pages: 1 -->
<svg width="1185pt" height="485pt"
 viewBox="0.00 0.00 1185.00 485.00" xmlns="http://www.w3.org/2000/svg" xmlns:xlink="http://www.w3.org/1999/xlink">
<g id="graph0" class="graph" transform="scale(1 1) rotate(0) translate(4 481)">
<title>IStatment</title>
<polygon fill="white" stroke="transparent" points="-4,4 -4,-481 1181,-481 1181,4 -4,4"/>
<!-- Node1 -->
<g id="node1" class="node">
<title>Node1</title>
<g id="a_node1"><a xlink:title="Base class for all possible statments in the language.">
<polygon fill="#bfbfbf" stroke="black" points="575.5,-386.5 575.5,-476.5 667.5,-476.5 667.5,-386.5 575.5,-386.5"/>
<text text-anchor="middle" x="621.5" y="-464.5" font-family="Helvetica,sans-Serif" font-size="10.00">IStatment</text>
<polyline fill="none" stroke="black" points="575.5,-457.5 667.5,-457.5 "/>
<text text-anchor="middle" x="621.5" y="-445.5" font-family="Helvetica,sans-Serif" font-size="10.00"> </text>
<polyline fill="none" stroke="black" points="575.5,-438.5 667.5,-438.5 "/>
<text text-anchor="start" x="583.5" y="-426.5" font-family="Helvetica,sans-Serif" font-size="10.00">+ IStatment()</text>
<text text-anchor="start" x="583.5" y="-415.5" font-family="Helvetica,sans-Serif" font-size="10.00">+ eval()</text>
<text text-anchor="start" x="583.5" y="-404.5" font-family="Helvetica,sans-Serif" font-size="10.00">+ ~IStatment()</text>
<text text-anchor="start" x="583.5" y="-393.5" font-family="Helvetica,sans-Serif" font-size="10.00">+ parse()</text>
</a>
</g>
</g>
<!-- Node2 -->
<g id="node2" class="node">
<title>Node2</title>
<g id="a_node2"><a xlink:href="class_bind_def.html" target="_top" xlink:title="Variable binding statment.">
<polygon fill="white" stroke="black" points="0,-193.5 0,-305.5 93,-305.5 93,-193.5 0,-193.5"/>
<text text-anchor="middle" x="46.5" y="-293.5" font-family="Helvetica,sans-Serif" font-size="10.00">BindDef</text>
<polyline fill="none" stroke="black" points="0,-286.5 93,-286.5 "/>
<text text-anchor="middle" x="46.5" y="-274.5" font-family="Helvetica,sans-Serif" font-size="10.00"> </text>
<polyline fill="none" stroke="black" points="0,-267.5 93,-267.5 "/>
<text text-anchor="start" x="8" y="-255.5" font-family="Helvetica,sans-Serif" font-size="10.00">+ BindDef()</text>
<text text-anchor="start" x="8" y="-244.5" font-family="Helvetica,sans-Serif" font-size="10.00">+ BindDef()</text>
<text text-anchor="start" x="8" y="-233.5" font-family="Helvetica,sans-Serif" font-size="10.00">+ ~BindDef()</text>
<text text-anchor="start" x="8" y="-222.5" font-family="Helvetica,sans-Serif" font-size="10.00">+ operator==()</text>
<text text-anchor="start" x="8" y="-211.5" font-family="Helvetica,sans-Serif" font-size="10.00">+ eval()</text>
<text text-anchor="start" x="8" y="-200.5" font-family="Helvetica,sans-Serif" font-size="10.00">+ parse()</text>
</a>
</g>
</g>
<!-- Node1&#45;&gt;Node2 -->
<g id="edge1" class="edge">
<title>Node1&#45;&gt;Node2</title>
<path fill="none" stroke="midnightblue" d="M564.98,-427.95C446.23,-421.63 175.65,-401.79 101.5,-350 85.89,-339.09 74.23,-322.27 65.76,-305.54"/>
<polygon fill="none" stroke="midnightblue" points="565.14,-431.47 575.31,-428.49 565.5,-424.48 565.14,-431.47"/>
</g>
<!-- Node3 -->
<g id="node3" class="node">
<title>Node3</title>
<g id="a_node3"><a xlink:href="class_binding_usage.html" target="_top" xlink:title="Variable binding usage Value can be assigned to variable.">
<polygon fill="white" stroke="black" points="111,-193.5 111,-305.5 222,-305.5 222,-193.5 111,-193.5"/>
<text text-anchor="middle" x="166.5" y="-293.5" font-family="Helvetica,sans-Serif" font-size="10.00">BindingUsage</text>
<polyline fill="none" stroke="black" points="111,-286.5 222,-286.5 "/>
<text text-anchor="middle" x="166.5" y="-274.5" font-family="Helvetica,sans-Serif" font-size="10.00"> </text>
<polyline fill="none" stroke="black" points="111,-267.5 222,-267.5 "/>
<text text-anchor="start" x="119" y="-255.5" font-family="Helvetica,sans-Serif" font-size="10.00">+ BindingUsage()</text>
<text text-anchor="start" x="119" y="-244.5" font-family="Helvetica,sans-Serif" font-size="10.00">+ BindingUsage()</text>
<text text-anchor="start" x="119" y="-233.5" font-family="Helvetica,sans-Serif" font-size="10.00">+ ~BindingUsage()</text>
<text text-anchor="start" x="119" y="-222.5" font-family="Helvetica,sans-Serif" font-size="10.00">+ operator==()</text>
<text text-anchor="start" x="119" y="-211.5" font-family="Helvetica,sans-Serif" font-size="10.00">+ eval()</text>
<text text-anchor="start" x="119" y="-200.5" font-family="Helvetica,sans-Serif" font-size="10.00">+ parse()</text>
</a>
</g>
</g>
<!-- Node1&#45;&gt;Node3 -->
<g id="edge2" class="edge">
<title>Node1&#45;&gt;Node3</title>
<path fill="none" stroke="midnightblue" d="M565.35,-424.35C470.67,-413.1 284.34,-386.92 230.5,-350 214.32,-338.91 201.31,-322.24 191.35,-305.71"/>
<polygon fill="none" stroke="midnightblue" points="564.98,-427.83 575.32,-425.52 565.8,-420.87 564.98,-427.83"/>
</g>
<!-- Node4 -->
<g id="node4" class="node">
<title>Node4</title>
<g id="a_node4"><a xlink:href="class_block.html" target="_top" xlink:title="Code blocks &#45; scopes Always evaluate to the last statment in them for example:">
<polygon fill="white" stroke="black" points="240,-193.5 240,-305.5 333,-305.5 333,-193.5 240,-193.5"/>
<text text-anchor="middle" x="286.5" y="-293.5" font-family="Helvetica,sans-Serif" font-size="10.00">Block</text>
<polyline fill="none" stroke="black" points="240,-286.5 333,-286.5 "/>
<text text-anchor="middle" x="286.5" y="-274.5" font-family="Helvetica,sans-Serif" font-size="10.00"> </text>
<polyline fill="none" stroke="black" points="240,-267.5 333,-267.5 "/>
<text text-anchor="start" x="248" y="-255.5" font-family="Helvetica,sans-Serif" font-size="10.00">+ Block()</text>
<text text-anchor="start" x="248" y="-244.5" font-family="Helvetica,sans-Serif" font-size="10.00">+ ~Block()</text>
<text text-anchor="start" x="248" y="-233.5" font-family="Helvetica,sans-Serif" font-size="10.00">+ operator==()</text>
<text text-anchor="start" x="248" y="-222.5" font-family="Helvetica,sans-Serif" font-size="10.00">+ eval()</text>
<text text-anchor="start" x="248" y="-211.5" font-family="Helvetica,sans-Serif" font-size="10.00">+ parse()</text>
<text text-anchor="start" x="248" y="-200.5" font-family="Helvetica,sans-Serif" font-size="10.00">+ Parse()</text>
</a>
</g>
</g>
<!-- Node1&#45;&gt;Node4 -->
<g id="edge3" class="edge">
<title>Node1&#45;&gt;Node4</title>
<path fill="none" stroke="midnightblue" d="M565.21,-426.93C504.17,-420.41 406.75,-402 341.5,-350 326.99,-338.44 315.72,-321.95 307.27,-305.71"/>
<polygon fill="none" stroke="midnightblue" points="565.12,-430.44 575.42,-427.94 565.82,-423.47 565.12,-430.44"/>
</g>
<!-- Node5 -->
<g id="node5" class="node">
<title>Node5</title>
<g id="a_node5"><a xlink:href="class_conditional.html" target="_top" xlink:title="Conditional statments (if, else statments)">
<polygon fill="white" stroke="black" points="351,-210 351,-289 442,-289 442,-210 351,-210"/>
<text text-anchor="middle" x="396.5" y="-277" font-family="Helvetica,sans-Serif" font-size="10.00">Conditional</text>
<polyline fill="none" stroke="black" points="351,-270 442,-270 "/>
<text text-anchor="middle" x="396.5" y="-258" font-family="Helvetica,sans-Serif" font-size="10.00"> </text>
<polyline fill="none" stroke="black" points="351,-251 442,-251 "/>
<text text-anchor="start" x="359" y="-239" font-family="Helvetica,sans-Serif" font-size="10.00">+ Conditional()</text>
<text text-anchor="start" x="359" y="-228" font-family="Helvetica,sans-Serif" font-size="10.00">+ eval()</text>
<text text-anchor="start" x="359" y="-217" font-family="Helvetica,sans-Serif" font-size="10.00">+ parse()</text>
</a>
</g>
</g>
<!-- Node1&#45;&gt;Node5 -->
<g id="edge4" class="edge">
<title>Node1&#45;&gt;Node5</title>
<path fill="none" stroke="midnightblue" d="M565.59,-413.99C529.65,-401.14 483.81,-380.35 451.5,-350 433.66,-333.24 420.2,-309.38 411.06,-289.22"/>
<polygon fill="none" stroke="midnightblue" points="564.85,-417.43 575.44,-417.4 567.14,-410.82 564.85,-417.43"/>
</g>
<!-- Node6 -->
<g id="node6" class="node">
<title>Node6</title>
<g id="a_node6"><a xlink:href="class_error_statment.html" target="_top" xlink:title="Error value created when there is an error while evaluation.">
<polygon fill="white" stroke="black" points="460.5,-204.5 460.5,-294.5 564.5,-294.5 564.5,-204.5 460.5,-204.5"/>
<text text-anchor="middle" x="512.5" y="-282.5" font-family="Helvetica,sans-Serif" font-size="10.00">ErrorStatment</text>
<polyline fill="none" stroke="black" points="460.5,-275.5 564.5,-275.5 "/>
<text text-anchor="middle" x="512.5" y="-263.5" font-family="Helvetica,sans-Serif" font-size="10.00"> </text>
<polyline fill="none" stroke="black" points="460.5,-256.5 564.5,-256.5 "/>
<text text-anchor="start" x="468.5" y="-244.5" font-family="Helvetica,sans-Serif" font-size="10.00">+ ErrorStatment()</text>
<text text-anchor="start" x="468.5" y="-233.5" font-family="Helvetica,sans-Serif" font-size="10.00">+ eval()</text>
<text text-anchor="start" x="468.5" y="-222.5" font-family="Helvetica,sans-Serif" font-size="10.00">+ value()</text>
<text text-anchor="start" x="468.5" y="-211.5" font-family="Helvetica,sans-Serif" font-size="10.00">+ error()</text>
</a>
</g>
</g>
<!-- Node1&#45;&gt;Node6 -->
<g id="edge5" class="edge">
<title>Node1&#45;&gt;Node6</title>
<path fill="none" stroke="midnightblue" d="M589.55,-377.74C573.57,-351.35 554.46,-319.79 539.27,-294.7"/>
<polygon fill="none" stroke="midnightblue" points="586.66,-379.73 594.84,-386.47 592.65,-376.1 586.66,-379.73"/>
</g>
<!-- Node7 -->
<g id="node7" class="node">
<title>Node7</title>
<g id="a_node7"><a xlink:href="class_func_call.html" target="_top" xlink:title=" ">
<polygon fill="white" stroke="black" points="583,-210 583,-289 660,-289 660,-210 583,-210"/>
<text text-anchor="middle" x="621.5" y="-277" font-family="Helvetica,sans-Serif" font-size="10.00">FuncCall</text>
<polyline fill="none" stroke="black" points="583,-270 660,-270 "/>
<text text-anchor="middle" x="621.5" y="-258" font-family="Helvetica,sans-Serif" font-size="10.00"> </text>
<polyline fill="none" stroke="black" points="583,-251 660,-251 "/>
<text text-anchor="start" x="591" y="-239" font-family="Helvetica,sans-Serif" font-size="10.00">+ FuncCall()</text>
<text text-anchor="start" x="591" y="-228" font-family="Helvetica,sans-Serif" font-size="10.00">+ eval()</text>
<text text-anchor="start" x="591" y="-217" font-family="Helvetica,sans-Serif" font-size="10.00">+ parse()</text>
</a>
</g>
</g>
<!-- Node1&#45;&gt;Node7 -->
<g id="edge6" class="edge">
<title>Node1&#45;&gt;Node7</title>
<path fill="none" stroke="midnightblue" d="M621.5,-376.4C621.5,-348.31 621.5,-314.64 621.5,-289.19"/>
<polygon fill="none" stroke="midnightblue" points="618,-376.47 621.5,-386.47 625,-376.47 618,-376.47"/>
</g>
<!-- Node8 -->
<g id="node8" class="node">
<title>Node8</title>
<g id="a_node8"><a xlink:href="class_func_def.html" target="_top" xlink:title="Function definitions.">
<polygon fill="white" stroke="black" points="678.5,-193.5 678.5,-305.5 788.5,-305.5 788.5,-193.5 678.5,-193.5"/>
<text text-anchor="middle" x="733.5" y="-293.5" font-family="Helvetica,sans-Serif" font-size="10.00">FuncDef</text>
<polyline fill="none" stroke="black" points="678.5,-286.5 788.5,-286.5 "/>
<text text-anchor="middle" x="733.5" y="-274.5" font-family="Helvetica,sans-Serif" font-size="10.00"> </text>
<polyline fill="none" stroke="black" points="678.5,-267.5 788.5,-267.5 "/>
<text text-anchor="start" x="686.5" y="-255.5" font-family="Helvetica,sans-Serif" font-size="10.00">+ FuncDef()</text>
<text text-anchor="start" x="686.5" y="-244.5" font-family="Helvetica,sans-Serif" font-size="10.00">+ FuncDef()</text>
<text text-anchor="start" x="686.5" y="-233.5" font-family="Helvetica,sans-Serif" font-size="10.00">+ eval()</text>
<text text-anchor="start" x="686.5" y="-222.5" font-family="Helvetica,sans-Serif" font-size="10.00">+ get_arg_names()</text>
<text text-anchor="start" x="686.5" y="-211.5" font-family="Helvetica,sans-Serif" font-size="10.00">+ get_func_body()</text>
<text text-anchor="start" x="686.5" y="-200.5" font-family="Helvetica,sans-Serif" font-size="10.00">+ parse()</text>
</a>
</g>
</g>
<!-- Node1&#45;&gt;Node8 -->
<g id="edge7" class="edge">
<title>Node1&#45;&gt;Node8</title>
<path fill="none" stroke="midnightblue" d="M654.19,-377.97C668.31,-355.26 684.85,-328.68 699.16,-305.69"/>
<polygon fill="none" stroke="midnightblue" points="651.21,-376.13 648.9,-386.47 657.15,-379.83 651.21,-376.13"/>
</g>
<!-- Node9 -->
<g id="node9" class="node">
<title>Node9</title>
<g id="a_node9"><a xlink:href="class_i_expr.html" target="_top" xlink:title="IExpr Base class for expressions.">
<polygon fill="white" stroke="black" points="806.5,-199 806.5,-300 874.5,-300 874.5,-199 806.5,-199"/>
<text text-anchor="middle" x="840.5" y="-288" font-family="Helvetica,sans-Serif" font-size="10.00">IExpr</text>
<polyline fill="none" stroke="black" points="806.5,-281 874.5,-281 "/>
<text text-anchor="middle" x="840.5" y="-269" font-family="Helvetica,sans-Serif" font-size="10.00"> </text>
<polyline fill="none" stroke="black" points="806.5,-262 874.5,-262 "/>
<text text-anchor="start" x="814.5" y="-250" font-family="Helvetica,sans-Serif" font-size="10.00">+ IExpr()</text>
<text text-anchor="start" x="814.5" y="-239" font-family="Helvetica,sans-Serif" font-size="10.00">+ eval()</text>
<text text-anchor="start" x="814.5" y="-228" font-family="Helvetica,sans-Serif" font-size="10.00">+ eval()</text>
<text text-anchor="start" x="814.5" y="-217" font-family="Helvetica,sans-Serif" font-size="10.00">+ ~IExpr()</text>
<text text-anchor="start" x="814.5" y="-206" font-family="Helvetica,sans-Serif" font-size="10.00">+ parse()</text>
</a>
</g>
</g>
<!-- Node1&#45;&gt;Node9 -->
<g id="edge8" class="edge">
<title>Node1&#45;&gt;Node9</title>
<path fill="none" stroke="midnightblue" d="M677.65,-416.36C715.69,-404.26 764.81,-383.39 797.5,-350 810.99,-336.22 820.58,-317.52 827.22,-300.05"/>
<polygon fill="none" stroke="midnightblue" points="676.27,-413.12 667.74,-419.39 678.32,-419.81 676.27,-413.12"/>
</g>
<!-- Node13 -->
<g id="node13" class="node">
<title>Node13</title>
<g id="a_node13"><a xlink:href="class_loop.html" target="_top" xlink:title="While loop statments.">
<polygon fill="white" stroke="black" points="892.5,-210 892.5,-289 954.5,-289 954.5,-210 892.5,-210"/>
<text text-anchor="middle" x="923.5" y="-277" font-family="Helvetica,sans-Serif" font-size="10.00">Loop</text>
<polyline fill="none" stroke="black" points="892.5,-270 954.5,-270 "/>
<text text-anchor="middle" x="923.5" y="-258" font-family="Helvetica,sans-Serif" font-size="10.00"> </text>
<polyline fill="none" stroke="black" points="892.5,-251 954.5,-251 "/>
<text text-anchor="start" x="900.5" y="-239" font-family="Helvetica,sans-Serif" font-size="10.00">+ Loop()</text>
<text text-anchor="start" x="900.5" y="-228" font-family="Helvetica,sans-Serif" font-size="10.00">+ eval()</text>
<text text-anchor="start" x="900.5" y="-217" font-family="Helvetica,sans-Serif" font-size="10.00">+ parse()</text>
</a>
</g>
</g>
<!-- Node1&#45;&gt;Node13 -->
<g id="edge12" class="edge">
<title>Node1&#45;&gt;Node13</title>
<path fill="none" stroke="midnightblue" d="M677.79,-427.1C736.09,-420.71 826.49,-402.4 883.5,-350 900.77,-334.12 910.73,-309.77 916.39,-289.13"/>
<polygon fill="none" stroke="midnightblue" points="677.25,-423.63 667.65,-428.12 677.95,-430.6 677.25,-423.63"/>
</g>
<!-- Node14 -->
<g id="node14" class="node">
<title>Node14</title>
<g id="a_node14"><a xlink:href="class_matrix.html" target="_top" xlink:title=" ">
<polygon fill="white" stroke="black" points="973,-149.5 973,-349.5 1066,-349.5 1066,-149.5 973,-149.5"/>
<text text-anchor="middle" x="1019.5" y="-337.5" font-family="Helvetica,sans-Serif" font-size="10.00">Matrix</text>
<polyline fill="none" stroke="black" points="973,-330.5 1066,-330.5 "/>
<text text-anchor="middle" x="1019.5" y="-318.5" font-family="Helvetica,sans-Serif" font-size="10.00"> </text>
<polyline fill="none" stroke="black" points="973,-311.5 1066,-311.5 "/>
<text text-anchor="start" x="981" y="-299.5" font-family="Helvetica,sans-Serif" font-size="10.00">+ Matrix()</text>
<text text-anchor="start" x="981" y="-288.5" font-family="Helvetica,sans-Serif" font-size="10.00">+ operator==()</text>
<text text-anchor="start" x="981" y="-277.5" font-family="Helvetica,sans-Serif" font-size="10.00">+ operator!=()</text>
<text text-anchor="start" x="981" y="-266.5" font-family="Helvetica,sans-Serif" font-size="10.00">+ operator*()</text>
<text text-anchor="start" x="981" y="-255.5" font-family="Helvetica,sans-Serif" font-size="10.00">+ operator%()</text>
<text text-anchor="start" x="981" y="-244.5" font-family="Helvetica,sans-Serif" font-size="10.00">+ operator&gt;()</text>
<text text-anchor="start" x="981" y="-233.5" font-family="Helvetica,sans-Serif" font-size="10.00">+ operator&lt;()</text>
<text text-anchor="start" x="981" y="-222.5" font-family="Helvetica,sans-Serif" font-size="10.00">+ operator+()</text>
<text text-anchor="start" x="981" y="-211.5" font-family="Helvetica,sans-Serif" font-size="10.00">+ operator&#45;()</text>
<text text-anchor="start" x="981" y="-200.5" font-family="Helvetica,sans-Serif" font-size="10.00">+ value()</text>
<text text-anchor="start" x="981" y="-189.5" font-family="Helvetica,sans-Serif" font-size="10.00">+ get_value()</text>
<text text-anchor="start" x="981" y="-178.5" font-family="Helvetica,sans-Serif" font-size="10.00">+ eval()</text>
<text text-anchor="start" x="981" y="-167.5" font-family="Helvetica,sans-Serif" font-size="10.00">+ ~Matrix()</text>
<text text-anchor="start" x="981" y="-156.5" font-family="Helvetica,sans-Serif" font-size="10.00">+ parse()</text>
</a>
</g>
</g>
<!-- Node1&#45;&gt;Node14 -->
<g id="edge13" class="edge">
<title>Node1&#45;&gt;Node14</title>
<path fill="none" stroke="midnightblue" d="M677.95,-430.65C750.89,-428.08 878.58,-413.85 963.5,-350 966.83,-347.5 969.99,-344.74 972.98,-341.78"/>
<polygon fill="none" stroke="midnightblue" points="677.49,-427.16 667.59,-430.95 677.69,-434.16 677.49,-427.16"/>
</g>
<!-- Node15 -->
<g id="node15" class="node">
<title>Node15</title>
<g id="a_node15"><a xlink:href="class_number.html" target="_top" xlink:title="Repersentation of a number in whole language.">
<polygon fill="white" stroke="black" points="1084,-177 1084,-322 1177,-322 1177,-177 1084,-177"/>
<text text-anchor="middle" x="1130.5" y="-310" font-family="Helvetica,sans-Serif" font-size="10.00">Number</text>
<polyline fill="none" stroke="black" points="1084,-303 1177,-303 "/>
<text text-anchor="middle" x="1130.5" y="-291" font-family="Helvetica,sans-Serif" font-size="10.00"> </text>
<polyline fill="none" stroke="black" points="1084,-284 1177,-284 "/>
<text text-anchor="start" x="1092" y="-272" font-family="Helvetica,sans-Serif" font-size="10.00">+ Number()</text>
<text text-anchor="start" x="1092" y="-261" font-family="Helvetica,sans-Serif" font-size="10.00">+ operator==()</text>
<text text-anchor="start" x="1092" y="-250" font-family="Helvetica,sans-Serif" font-size="10.00">+ operator!=()</text>
<text text-anchor="start" x="1092" y="-239" font-family="Helvetica,sans-Serif" font-size="10.00">+ value()</text>
<text text-anchor="start" x="1092" y="-228" font-family="Helvetica,sans-Serif" font-size="10.00">+ get_value()</text>
<text text-anchor="start" x="1092" y="-217" font-family="Helvetica,sans-Serif" font-size="10.00">+ eval()</text>
<text text-anchor="start" x="1092" y="-206" font-family="Helvetica,sans-Serif" font-size="10.00">+ ~Number()</text>
<text text-anchor="start" x="1092" y="-195" font-family="Helvetica,sans-Serif" font-size="10.00">+ Parse()</text>
<text text-anchor="start" x="1092" y="-184" font-family="Helvetica,sans-Serif" font-size="10.00">+ parse()</text>
</a>
</g>
</g>
<!-- Node1&#45;&gt;Node15 -->
<g id="edge14" class="edge">
<title>Node1&#45;&gt;Node15</title>
<path fill="none" stroke="midnightblue" d="M678.11,-426.51C785.23,-418 1012.48,-395.05 1075.5,-350 1085.78,-342.65 1094.35,-332.76 1101.43,-322.06"/>
<polygon fill="none" stroke="midnightblue" points="677.52,-423.05 667.82,-427.31 678.06,-430.02 677.52,-423.05"/>
</g>
<!-- Node10 -->
<g id="node10" class="node">
<title>Node10</title>
<g id="a_node10"><a xlink:href="class_expr_number.html" target="_top" xlink:title="Literal numeric expression.">
<polygon fill="white" stroke="black" points="661.5,-6 661.5,-107 765.5,-107 765.5,-6 661.5,-6"/>
<text text-anchor="middle" x="713.5" y="-95" font-family="Helvetica,sans-Serif" font-size="10.00">ExprNumber</text>
<polyline fill="none" stroke="black" points="661.5,-88 765.5,-88 "/>
<text text-anchor="middle" x="713.5" y="-76" font-family="Helvetica,sans-Serif" font-size="10.00"> </text>
<polyline fill="none" stroke="black" points="661.5,-69 765.5,-69 "/>
<text text-anchor="start" x="669.5" y="-57" font-family="Helvetica,sans-Serif" font-size="10.00">+ ExprNumber()</text>
<text text-anchor="start" x="669.5" y="-46" font-family="Helvetica,sans-Serif" font-size="10.00">+ eval()</text>
<text text-anchor="start" x="669.5" y="-35" font-family="Helvetica,sans-Serif" font-size="10.00">+ eval()</text>
<text text-anchor="start" x="669.5" y="-24" font-family="Helvetica,sans-Serif" font-size="10.00">+ operator==()</text>
<text text-anchor="start" x="669.5" y="-13" font-family="Helvetica,sans-Serif" font-size="10.00">+ ~ExprNumber()</text>
</a>
</g>
</g>
<!-- Node9&#45;&gt;Node10 -->
<g id="edge9" class="edge">
<title>Node9&#45;&gt;Node10</title>
<path fill="none" stroke="midnightblue" d="M818.81,-189.37C812.75,-175.66 805.57,-161.44 797.5,-149 788.11,-134.53 776.39,-120.16 764.71,-107.25"/>
<polygon fill="none" stroke="midnightblue" points="815.68,-190.94 822.84,-198.75 822.11,-188.18 815.68,-190.94"/>
</g>
<!-- Node11 -->
<g id="node11" class="node">
<title>Node11</title>
<g id="a_node11"><a xlink:href="class_expr_operation.html" target="_top" xlink:title="Mathematical operation (+, &#45;, ==, ...)">
<polygon fill="white" stroke="black" points="784,-0.5 784,-112.5 897,-112.5 897,-0.5 784,-0.5"/>
<text text-anchor="middle" x="840.5" y="-100.5" font-family="Helvetica,sans-Serif" font-size="10.00">ExprOperation</text>
<polyline fill="none" stroke="black" points="784,-93.5 897,-93.5 "/>
<text text-anchor="middle" x="840.5" y="-81.5" font-family="Helvetica,sans-Serif" font-size="10.00"> </text>
<polyline fill="none" stroke="black" points="784,-74.5 897,-74.5 "/>
<text text-anchor="start" x="792" y="-62.5" font-family="Helvetica,sans-Serif" font-size="10.00">+ ExprOperation()</text>
<text text-anchor="start" x="792" y="-51.5" font-family="Helvetica,sans-Serif" font-size="10.00">+ ExprOperation()</text>
<text text-anchor="start" x="792" y="-40.5" font-family="Helvetica,sans-Serif" font-size="10.00">+ eval()</text>
<text text-anchor="start" x="792" y="-29.5" font-family="Helvetica,sans-Serif" font-size="10.00">+ eval()</text>
<text text-anchor="start" x="792" y="-18.5" font-family="Helvetica,sans-Serif" font-size="10.00">+ operator==()</text>
<text text-anchor="start" x="792" y="-7.5" font-family="Helvetica,sans-Serif" font-size="10.00">+ ~ExprOperation()</text>
</a>
</g>
</g>
<!-- Node9&#45;&gt;Node11 -->
<g id="edge10" class="edge">
<title>Node9&#45;&gt;Node11</title>
<path fill="none" stroke="midnightblue" d="M840.5,-188.64C840.5,-164.35 840.5,-136.45 840.5,-112.65"/>
<polygon fill="none" stroke="midnightblue" points="837,-188.82 840.5,-198.82 844,-188.82 837,-188.82"/>
</g>
<!-- Node12 -->
<g id="node12" class="node">
<title>Node12</title>
<g id="a_node12"><a xlink:href="class_expr_variable.html" target="_top" xlink:title="Usage of existing variable.">
<polygon fill="white" stroke="black" points="915,-6 915,-107 1020,-107 1020,-6 915,-6"/>
<text text-anchor="middle" x="967.5" y="-95" font-family="Helvetica,sans-Serif" font-size="10.00">ExprVariable</text>
<polyline fill="none" stroke="black" points="915,-88 1020,-88 "/>
<text text-anchor="middle" x="967.5" y="-76" font-family="Helvetica,sans-Serif" font-size="10.00"> </text>
<polyline fill="none" stroke="black" points="915,-69 1020,-69 "/>
<text text-anchor="start" x="923" y="-57" font-family="Helvetica,sans-Serif" font-size="10.00">+ ExprVariable()</text>
<text text-anchor="start" x="923" y="-46" font-family="Helvetica,sans-Serif" font-size="10.00">+ eval()</text>
<text text-anchor="start" x="923" y="-35" font-family="Helvetica,sans-Serif" font-size="10.00">+ eval()</text>
<text text-anchor="start" x="923" y="-24" font-family="Helvetica,sans-Serif" font-size="10.00">+ operator==()</text>
<text text-anchor="start" x="923" y="-13" font-family="Helvetica,sans-Serif" font-size="10.00">+ ~ExprVariable()</text>
</a>
</g>
</g>
<!-- Node9&#45;&gt;Node12 -->
<g id="edge11" class="edge">
<title>Node9&#45;&gt;Node12</title>
<path fill="none" stroke="midnightblue" d="M862.19,-189.37C868.25,-175.66 875.43,-161.44 883.5,-149 892.89,-134.53 904.61,-120.16 916.29,-107.25"/>
<polygon fill="none" stroke="midnightblue" points="858.89,-188.18 858.16,-198.75 865.32,-190.94 858.89,-188.18"/>
</g>
</g>
</svg>
