<?xml version="1.0" encoding="UTF-8" standalone="no"?>
<!DOCTYPE svg PUBLIC "-//W3C//DTD SVG 1.1//EN"
 "http://www.w3.org/Graphics/SVG/1.1/DTD/svg11.dtd">
<!-- Generated by graphviz version 2.43.0 (0)
 -->
<!-- Title: IValue Pages: 1 -->
<svg width="416pt" height="336pt"
 viewBox="0.00 0.00 415.50 336.00" xmlns="http://www.w3.org/2000/svg" xmlns:xlink="http://www.w3.org/1999/xlink">
<g id="graph0" class="graph" transform="scale(1 1) rotate(0) translate(4 332)">
<title>IValue</title>
<polygon fill="white" stroke="transparent" points="-4,4 -4,-332 411.5,-332 411.5,4 -4,4"/>
<!-- Node1 -->
<g id="node1" class="node">
<title>Node1</title>
<g id="a_node1"><a xlink:title="Base class for all possible evaluation results.">
<polygon fill="#bfbfbf" stroke="black" points="178,-237.5 178,-327.5 256,-327.5 256,-237.5 178,-237.5"/>
<text text-anchor="middle" x="217" y="-315.5" font-family="Helvetica,sans-Serif" font-size="10.00">IValue</text>
<polyline fill="none" stroke="black" points="178,-308.5 256,-308.5 "/>
<text text-anchor="middle" x="217" y="-296.5" font-family="Helvetica,sans-Serif" font-size="10.00"> </text>
<polyline fill="none" stroke="black" points="178,-289.5 256,-289.5 "/>
<text text-anchor="start" x="186" y="-277.5" font-family="Helvetica,sans-Serif" font-size="10.00">+ IValue()</text>
<text text-anchor="start" x="186" y="-266.5" font-family="Helvetica,sans-Serif" font-size="10.00">+ get_type()</text>
<text text-anchor="start" x="186" y="-255.5" font-family="Helvetica,sans-Serif" font-size="10.00">+ value()</text>
<text text-anchor="start" x="186" y="-244.5" font-family="Helvetica,sans-Serif" font-size="10.00">+ ~IValue()</text>
</a>
</g>
</g>
<!-- Node2 -->
<g id="node2" class="node">
<title>Node2</title>
<g id="a_node2"><a xlink:href="class_error_statment.html" target="_top" xlink:title="Error value created when there is an error while evaluation.">
<polygon fill="white" stroke="black" points="0,-55.5 0,-145.5 104,-145.5 104,-55.5 0,-55.5"/>
<text text-anchor="middle" x="52" y="-133.5" font-family="Helvetica,sans-Serif" font-size="10.00">ErrorStatment</text>
<polyline fill="none" stroke="black" points="0,-126.5 104,-126.5 "/>
<text text-anchor="middle" x="52" y="-114.5" font-family="Helvetica,sans-Serif" font-size="10.00"> </text>
<polyline fill="none" stroke="black" points="0,-107.5 104,-107.5 "/>
<text text-anchor="start" x="8" y="-95.5" font-family="Helvetica,sans-Serif" font-size="10.00">+ ErrorStatment()</text>
<text text-anchor="start" x="8" y="-84.5" font-family="Helvetica,sans-Serif" font-size="10.00">+ eval()</text>
<text text-anchor="start" x="8" y="-73.5" font-family="Helvetica,sans-Serif" font-size="10.00">+ value()</text>
<text text-anchor="start" x="8" y="-62.5" font-family="Helvetica,sans-Serif" font-size="10.00">+ error()</text>
</a>
</g>
</g>
<!-- Node1&#45;&gt;Node2 -->
<g id="edge1" class="edge">
<title>Node1&#45;&gt;Node2</title>
<path fill="none" stroke="midnightblue" d="M169.43,-250.31C150.55,-236.56 129.47,-219.36 113,-201 98.25,-184.56 85.01,-164.08 74.66,-145.98"/>
<polygon fill="none" stroke="midnightblue" points="167.47,-253.21 177.64,-256.18 171.54,-247.51 167.47,-253.21"/>
</g>
<!-- Node3 -->
<g id="node3" class="node">
<title>Node3</title>
<g id="a_node3"><a xlink:href="class_matrix.html" target="_top" xlink:title=" ">
<polygon fill="white" stroke="black" points="122.5,-0.5 122.5,-200.5 215.5,-200.5 215.5,-0.5 122.5,-0.5"/>
<text text-anchor="middle" x="169" y="-188.5" font-family="Helvetica,sans-Serif" font-size="10.00">Matrix</text>
<polyline fill="none" stroke="black" points="122.5,-181.5 215.5,-181.5 "/>
<text text-anchor="middle" x="169" y="-169.5" font-family="Helvetica,sans-Serif" font-size="10.00"> </text>
<polyline fill="none" stroke="black" points="122.5,-162.5 215.5,-162.5 "/>
<text text-anchor="start" x="130.5" y="-150.5" font-family="Helvetica,sans-Serif" font-size="10.00">+ Matrix()</text>
<text text-anchor="start" x="130.5" y="-139.5" font-family="Helvetica,sans-Serif" font-size="10.00">+ operator==()</text>
<text text-anchor="start" x="130.5" y="-128.5" font-family="Helvetica,sans-Serif" font-size="10.00">+ operator!=()</text>
<text text-anchor="start" x="130.5" y="-117.5" font-family="Helvetica,sans-Serif" font-size="10.00">+ operator*()</text>
<text text-anchor="start" x="130.5" y="-106.5" font-family="Helvetica,sans-Serif" font-size="10.00">+ operator%()</text>
<text text-anchor="start" x="130.5" y="-95.5" font-family="Helvetica,sans-Serif" font-size="10.00">+ operator&gt;()</text>
<text text-anchor="start" x="130.5" y="-84.5" font-family="Helvetica,sans-Serif" font-size="10.00">+ operator&lt;()</text>
<text text-anchor="start" x="130.5" y="-73.5" font-family="Helvetica,sans-Serif" font-size="10.00">+ operator+()</text>
<text text-anchor="start" x="130.5" y="-62.5" font-family="Helvetica,sans-Serif" font-size="10.00">+ operator&#45;()</text>
<text text-anchor="start" x="130.5" y="-51.5" font-family="Helvetica,sans-Serif" font-size="10.00">+ value()</text>
<text text-anchor="start" x="130.5" y="-40.5" font-family="Helvetica,sans-Serif" font-size="10.00">+ get_value()</text>
<text text-anchor="start" x="130.5" y="-29.5" font-family="Helvetica,sans-Serif" font-size="10.00">+ eval()</text>
<text text-anchor="start" x="130.5" y="-18.5" font-family="Helvetica,sans-Serif" font-size="10.00">+ ~Matrix()</text>
<text text-anchor="start" x="130.5" y="-7.5" font-family="Helvetica,sans-Serif" font-size="10.00">+ parse()</text>
</a>
</g>
</g>
<!-- Node1&#45;&gt;Node3 -->
<g id="edge2" class="edge">
<title>Node1&#45;&gt;Node3</title>
<path fill="none" stroke="midnightblue" d="M202.63,-227.6C200.33,-218.97 197.88,-209.81 195.4,-200.52"/>
<polygon fill="none" stroke="midnightblue" points="199.3,-228.71 205.26,-237.47 206.06,-226.9 199.3,-228.71"/>
</g>
<!-- Node4 -->
<g id="node4" class="node">
<title>Node4</title>
<g id="a_node4"><a xlink:href="class_null.html" target="_top" xlink:title="Null value.">
<polygon fill="white" stroke="black" points="233.5,-61 233.5,-140 296.5,-140 296.5,-61 233.5,-61"/>
<text text-anchor="middle" x="265" y="-128" font-family="Helvetica,sans-Serif" font-size="10.00">Null</text>
<polyline fill="none" stroke="black" points="233.5,-121 296.5,-121 "/>
<text text-anchor="middle" x="265" y="-109" font-family="Helvetica,sans-Serif" font-size="10.00"> </text>
<polyline fill="none" stroke="black" points="233.5,-102 296.5,-102 "/>
<text text-anchor="start" x="241.5" y="-90" font-family="Helvetica,sans-Serif" font-size="10.00">+ Null()</text>
<text text-anchor="start" x="241.5" y="-79" font-family="Helvetica,sans-Serif" font-size="10.00">+ value()</text>
<text text-anchor="start" x="241.5" y="-68" font-family="Helvetica,sans-Serif" font-size="10.00">+ ~Null()</text>
</a>
</g>
</g>
<!-- Node1&#45;&gt;Node4 -->
<g id="edge3" class="edge">
<title>Node1&#45;&gt;Node4</title>
<path fill="none" stroke="midnightblue" d="M231.33,-227.77C238.84,-199.6 247.87,-165.75 254.68,-140.19"/>
<polygon fill="none" stroke="midnightblue" points="227.94,-226.9 228.74,-237.47 234.7,-228.71 227.94,-226.9"/>
</g>
<!-- Node5 -->
<g id="node5" class="node">
<title>Node5</title>
<g id="a_node5"><a xlink:href="class_number.html" target="_top" xlink:title="Repersentation of a number in whole language.">
<polygon fill="white" stroke="black" points="314.5,-28 314.5,-173 407.5,-173 407.5,-28 314.5,-28"/>
<text text-anchor="middle" x="361" y="-161" font-family="Helvetica,sans-Serif" font-size="10.00">Number</text>
<polyline fill="none" stroke="black" points="314.5,-154 407.5,-154 "/>
<text text-anchor="middle" x="361" y="-142" font-family="Helvetica,sans-Serif" font-size="10.00"> </text>
<polyline fill="none" stroke="black" points="314.5,-135 407.5,-135 "/>
<text text-anchor="start" x="322.5" y="-123" font-family="Helvetica,sans-Serif" font-size="10.00">+ Number()</text>
<text text-anchor="start" x="322.5" y="-112" font-family="Helvetica,sans-Serif" font-size="10.00">+ operator==()</text>
<text text-anchor="start" x="322.5" y="-101" font-family="Helvetica,sans-Serif" font-size="10.00">+ operator!=()</text>
<text text-anchor="start" x="322.5" y="-90" font-family="Helvetica,sans-Serif" font-size="10.00">+ value()</text>
<text text-anchor="start" x="322.5" y="-79" font-family="Helvetica,sans-Serif" font-size="10.00">+ get_value()</text>
<text text-anchor="start" x="322.5" y="-68" font-family="Helvetica,sans-Serif" font-size="10.00">+ eval()</text>
<text text-anchor="start" x="322.5" y="-57" font-family="Helvetica,sans-Serif" font-size="10.00">+ ~Number()</text>
<text text-anchor="start" x="322.5" y="-46" font-family="Helvetica,sans-Serif" font-size="10.00">+ Parse()</text>
<text text-anchor="start" x="322.5" y="-35" font-family="Helvetica,sans-Serif" font-size="10.00">+ parse()</text>
</a>
</g>
</g>
<!-- Node1&#45;&gt;Node5 -->
<g id="edge4" class="edge">
<title>Node1&#45;&gt;Node5</title>
<path fill="none" stroke="midnightblue" d="M263.97,-244.23C278.44,-231.44 293.77,-216.43 306,-201 312.8,-192.42 319.24,-182.88 325.16,-173.2"/>
<polygon fill="none" stroke="midnightblue" points="261.31,-241.91 256.04,-251.1 265.89,-247.2 261.31,-241.91"/>
</g>
</g>
</svg>
