<?xml version="1.0" encoding="UTF-8" standalone="no"?>
<!DOCTYPE svg PUBLIC "-//W3C//DTD SVG 1.1//EN"
 "http://www.w3.org/Graphics/SVG/1.1/DTD/svg11.dtd">
<!-- Generated by graphviz version 2.43.0 (0)
 -->
<!-- Title: language/env.h Pages: 1 -->
<svg width="313pt" height="140pt"
 viewBox="0.00 0.00 312.50 140.00" xmlns="http://www.w3.org/2000/svg" xmlns:xlink="http://www.w3.org/1999/xlink">
<g id="graph0" class="graph" transform="scale(1 1) rotate(0) translate(4 136)">
<title>language/env.h</title>
<polygon fill="white" stroke="transparent" points="-4,4 -4,-136 308.5,-136 308.5,4 -4,4"/>
<!-- Node1 -->
<g id="node1" class="node">
<title>Node1</title>
<g id="a_node1"><a xlink:title=" ">
<polygon fill="#bfbfbf" stroke="black" points="72.5,-112.5 72.5,-131.5 163.5,-131.5 163.5,-112.5 72.5,-112.5"/>
<text text-anchor="middle" x="118" y="-119.5" font-family="Helvetica,sans-Serif" font-size="10.00">language/env.h</text>
</a>
</g>
</g>
<!-- Node2 -->
<g id="node2" class="node">
<title>Node2</title>
<g id="a_node2"><a xlink:href="_i_statment_8h.html" target="_top" xlink:title=" ">
<polygon fill="white" stroke="black" points="81,-56.5 81,-75.5 155,-75.5 155,-56.5 81,-56.5"/>
<text text-anchor="middle" x="118" y="-63.5" font-family="Helvetica,sans-Serif" font-size="10.00">IStatment.h</text>
</a>
</g>
</g>
<!-- Node1&#45;&gt;Node2 -->
<g id="edge1" class="edge">
<title>Node1&#45;&gt;Node2</title>
<path fill="none" stroke="midnightblue" d="M118,-112.08C118,-105.01 118,-94.86 118,-85.99"/>
<polygon fill="midnightblue" stroke="midnightblue" points="121.5,-85.75 118,-75.75 114.5,-85.75 121.5,-85.75"/>
</g>
<!-- Node3 -->
<g id="node3" class="node">
<title>Node3</title>
<g id="a_node3"><a xlink:href="_i_value_8h.html" target="_top" xlink:title=" ">
<polygon fill="white" stroke="black" points="0,-0.5 0,-19.5 56,-19.5 56,-0.5 0,-0.5"/>
<text text-anchor="middle" x="28" y="-7.5" font-family="Helvetica,sans-Serif" font-size="10.00">IValue.h</text>
</a>
</g>
</g>
<!-- Node1&#45;&gt;Node3 -->
<g id="edge5" class="edge">
<title>Node1&#45;&gt;Node3</title>
<path fill="none" stroke="midnightblue" d="M105.84,-112.32C94.61,-103.9 77.9,-90.33 66,-76 53.89,-61.42 43.3,-42.5 36.4,-28.83"/>
<polygon fill="midnightblue" stroke="midnightblue" points="39.41,-27.02 31.88,-19.57 33.12,-30.09 39.41,-27.02"/>
</g>
<!-- Node4 -->
<g id="node4" class="node">
<title>Node4</title>
<g id="a_node4"><a xlink:title=" ">
<polygon fill="white" stroke="#bfbfbf" points="80,-0.5 80,-19.5 136,-19.5 136,-0.5 80,-0.5"/>
<text text-anchor="middle" x="108" y="-7.5" font-family="Helvetica,sans-Serif" font-size="10.00">optional</text>
</a>
</g>
</g>
<!-- Node1&#45;&gt;Node4 -->
<g id="edge6" class="edge">
<title>Node1&#45;&gt;Node4</title>
<path fill="none" stroke="midnightblue" d="M104.21,-112.19C93.17,-104.24 78.5,-91.45 72,-76 64.63,-58.47 77.68,-39.58 90.08,-26.7"/>
<polygon fill="midnightblue" stroke="midnightblue" points="92.76,-28.99 97.53,-19.53 87.9,-23.95 92.76,-28.99"/>
</g>
<!-- Node5 -->
<g id="node5" class="node">
<title>Node5</title>
<g id="a_node5"><a xlink:title=" ">
<polygon fill="white" stroke="#bfbfbf" points="157,-0.5 157,-19.5 201,-19.5 201,-0.5 157,-0.5"/>
<text text-anchor="middle" x="179" y="-7.5" font-family="Helvetica,sans-Serif" font-size="10.00">string</text>
</a>
</g>
</g>
<!-- Node1&#45;&gt;Node5 -->
<g id="edge7" class="edge">
<title>Node1&#45;&gt;Node5</title>
<path fill="none" stroke="midnightblue" d="M130.08,-112.41C140.64,-104.24 155.58,-91 164,-76 172.06,-61.64 175.8,-43.18 177.52,-29.6"/>
<polygon fill="midnightblue" stroke="midnightblue" points="181.02,-29.85 178.55,-19.55 174.05,-29.14 181.02,-29.85"/>
</g>
<!-- Node6 -->
<g id="node6" class="node">
<title>Node6</title>
<g id="a_node6"><a xlink:title=" ">
<polygon fill="white" stroke="#bfbfbf" points="211.5,-56.5 211.5,-75.5 304.5,-75.5 304.5,-56.5 211.5,-56.5"/>
<text text-anchor="middle" x="258" y="-63.5" font-family="Helvetica,sans-Serif" font-size="10.00">unordered_map</text>
</a>
</g>
</g>
<!-- Node1&#45;&gt;Node6 -->
<g id="edge8" class="edge">
<title>Node1&#45;&gt;Node6</title>
<path fill="none" stroke="midnightblue" d="M140.18,-112.44C163.43,-103.48 200.15,-89.31 226.42,-79.18"/>
<polygon fill="midnightblue" stroke="midnightblue" points="227.85,-82.38 235.92,-75.52 225.33,-75.85 227.85,-82.38"/>
</g>
<!-- Node2&#45;&gt;Node3 -->
<g id="edge2" class="edge">
<title>Node2&#45;&gt;Node3</title>
<path fill="none" stroke="midnightblue" d="M103.54,-56.32C89.5,-47.9 67.95,-34.97 51.46,-25.07"/>
<polygon fill="midnightblue" stroke="midnightblue" points="52.8,-21.8 42.42,-19.65 49.2,-27.8 52.8,-21.8"/>
</g>
<!-- Node2&#45;&gt;Node4 -->
<g id="edge3" class="edge">
<title>Node2&#45;&gt;Node4</title>
<path fill="none" stroke="midnightblue" d="M116.35,-56.08C115.02,-48.93 113.12,-38.64 111.46,-29.69"/>
<polygon fill="midnightblue" stroke="midnightblue" points="114.88,-28.95 109.62,-19.75 108,-30.22 114.88,-28.95"/>
</g>
<!-- Node2&#45;&gt;Node5 -->
<g id="edge4" class="edge">
<title>Node2&#45;&gt;Node5</title>
<path fill="none" stroke="midnightblue" d="M127.8,-56.32C136.82,-48.34 150.41,-36.31 161.32,-26.65"/>
<polygon fill="midnightblue" stroke="midnightblue" points="163.85,-29.08 169.02,-19.83 159.21,-23.84 163.85,-29.08"/>
</g>
</g>
</svg>
