<?xml version="1.0" encoding="UTF-8" standalone="no"?>
<!DOCTYPE svg PUBLIC "-//W3C//DTD SVG 1.1//EN"
 "http://www.w3.org/Graphics/SVG/1.1/DTD/svg11.dtd">
<!-- Generated by graphviz version 2.43.0 (0)
 -->
<!-- Title: language/env.h Pages: 1 -->
<!--zoomable 308 -->
<svg id="main" version="1.1" xmlns="http://www.w3.org/2000/svg" xmlns:xlink="http://www.w3.org/1999/xlink" xml:space="preserve" onload="init(evt)">
<style type="text/css"><![CDATA[
.edge:hover path { stroke: red; }
.edge:hover polygon { stroke: red; fill: red; }
]]></style>
<script type="text/javascript"><![CDATA[
var edges = document.getElementsByTagName('g');
if (edges && edges.length) {
  for (var i=0;i<edges.length;i++) {
    if (edges[i].id.substr(0,4)=='edge') {
      edges[i].setAttribute('class','edge');
    }
  }
}
]]></script>
        <defs>
                <circle id="rim" cx="0" cy="0" r="7"/>
                <circle id="rim2" cx="0" cy="0" r="3.5"/>
                <g id="zoomPlus">
                        <use xlink:href="#rim" fill="#404040">
                                <set attributeName="fill" to="#808080" begin="zoomplus.mouseover" end="zoomplus.mouseout"/>
                        </use>
                        <path d="M-4,0h8M0,-4v8" fill="none" stroke="white" stroke-width="1.5" pointer-events="none"/>
                </g>
                <g id="zoomMin">
                        <use xlink:href="#rim" fill="#404040">
                                <set attributeName="fill" to="#808080" begin="zoomminus.mouseover" end="zoomminus.mouseout"/>
                        </use>
                        <path d="M-4,0h8" fill="none" stroke="white" stroke-width="1.5" pointer-events="none"/>
                </g>
                <g id="dirArrow">
                        <path fill="none" stroke="white" stroke-width="1.5" d="M0,-3.0v7 M-2.5,-0.5L0,-3.0L2.5,-0.5"/>
                </g>
               <g id="resetDef">
                       <use xlink:href="#rim2" fill="#404040">
                               <set attributeName="fill" to="#808080" begin="reset.mouseover" end="reset.mouseout"/>
                       </use>
               </g>
        </defs>

<script type="text/javascript">
var viewWidth = 1277;
var viewHeight = 308;
var sectionId = 'dynsection-1';
</script>
<script xlink:href="svgpan.js"/>
<svg id="graph" class="graph">
<g id="viewport">
<title>language/env.h</title>
<polygon fill="white" stroke="transparent" points="-4,4 -4,-304 1272.5,-304 1272.5,4 -4,4"/>
<!-- Node1 -->
<g id="node1" class="node">
<title>Node1</title>
<g id="a_node1"><a xlink:title=" ">
<polygon fill="#bfbfbf" stroke="black" points="1045.5,-280.5 1045.5,-299.5 1136.5,-299.5 1136.5,-280.5 1045.5,-280.5"/>
<text text-anchor="middle" x="1091" y="-287.5" font-family="Helvetica,sans-Serif" font-size="10.00">language/env.h</text>
</a>
</g>
</g>
<!-- Node2 -->
<g id="node2" class="node">
<title>Node2</title>
<g id="a_node2"><a xlink:href="parser_8h.html" target="_top" xlink:title=" ">
<polygon fill="white" stroke="black" points="986,-224.5 986,-243.5 1090,-243.5 1090,-224.5 986,-224.5"/>
<text text-anchor="middle" x="1038" y="-231.5" font-family="Helvetica,sans-Serif" font-size="10.00">language/parser.h</text>
</a>
</g>
</g>
<!-- Node1&#45;&gt;Node2 -->
<g id="edge1" class="edge">
<title>Node1&#45;&gt;Node2</title>
<path fill="none" stroke="midnightblue" d="M1075.02,-272.72C1065.68,-263.2 1054.25,-251.56 1046.59,-243.75"/>
<polygon fill="midnightblue" stroke="midnightblue" points="1072.75,-275.4 1082.25,-280.08 1077.74,-270.49 1072.75,-275.4"/>
</g>
<!-- Node8 -->
<g id="node8" class="node">
<title>Node8</title>
<g id="a_node8"><a xlink:href="_binding_usage_8cc.html" target="_top" xlink:title=" ">
<polygon fill="white" stroke="black" points="0,-0.5 0,-19.5 146,-19.5 146,-0.5 0,-0.5"/>
<text text-anchor="middle" x="73" y="-7.5" font-family="Helvetica,sans-Serif" font-size="10.00">language/BindingUsage.cc</text>
</a>
</g>
</g>
<!-- Node1&#45;&gt;Node8 -->
<g id="edge24" class="edge">
<title>Node1&#45;&gt;Node8</title>
<path fill="none" stroke="midnightblue" d="M1035.07,-288.39C832.35,-285.45 148,-268.86 148,-179 148,-179 148,-179 148,-121 148,-76.39 105.37,-36.52 84.39,-19.6"/>
<polygon fill="midnightblue" stroke="midnightblue" points="1035.15,-291.89 1045.2,-288.53 1035.25,-284.89 1035.15,-291.89"/>
</g>
<!-- Node16 -->
<g id="node16" class="node">
<title>Node16</title>
<g id="a_node16"><a xlink:href="_test_bind_8cc.html" target="_top" xlink:title=" ">
<polygon fill="white" stroke="black" points="1074.5,-0.5 1074.5,-19.5 1215.5,-19.5 1215.5,-0.5 1074.5,-0.5"/>
<text text-anchor="middle" x="1145" y="-7.5" font-family="Helvetica,sans-Serif" font-size="10.00">language/test/TestBind.cc</text>
</a>
</g>
</g>
<!-- Node1&#45;&gt;Node16 -->
<g id="edge26" class="edge">
<title>Node1&#45;&gt;Node16</title>
<path fill="none" stroke="midnightblue" d="M1105.23,-272.29C1121.23,-251.75 1145,-215.14 1145,-179 1145,-179 1145,-179 1145,-121 1145,-83.19 1145,-38.06 1145,-19.56"/>
<polygon fill="midnightblue" stroke="midnightblue" points="1102.31,-270.33 1098.74,-280.31 1107.75,-274.74 1102.31,-270.33"/>
</g>
<!-- Node21 -->
<g id="node21" class="node">
<title>Node21</title>
<g id="a_node21"><a xlink:href="env_8cc.html" target="_top" xlink:title=" ">
<polygon fill="white" stroke="black" points="1173.5,-224.5 1173.5,-243.5 1268.5,-243.5 1268.5,-224.5 1173.5,-224.5"/>
<text text-anchor="middle" x="1221" y="-231.5" font-family="Helvetica,sans-Serif" font-size="10.00">language/env.cc</text>
</a>
</g>
</g>
<!-- Node1&#45;&gt;Node21 -->
<g id="edge25" class="edge">
<title>Node1&#45;&gt;Node21</title>
<path fill="none" stroke="midnightblue" d="M1121.09,-276.5C1145.46,-266.38 1179.14,-252.39 1200.5,-243.52"/>
<polygon fill="midnightblue" stroke="midnightblue" points="1119.49,-273.38 1111.6,-280.44 1122.18,-279.84 1119.49,-273.38"/>
</g>
<!-- Node3 -->
<g id="node3" class="node">
<title>Node3</title>
<g id="a_node3"><a xlink:href="interpreter_8cc.html" target="_top" xlink:title=" ">
<polygon fill="white" stroke="black" points="997.5,-168.5 997.5,-187.5 1078.5,-187.5 1078.5,-168.5 997.5,-168.5"/>
<text text-anchor="middle" x="1038" y="-175.5" font-family="Helvetica,sans-Serif" font-size="10.00">interpreter.cc</text>
</a>
</g>
</g>
<!-- Node2&#45;&gt;Node3 -->
<g id="edge2" class="edge">
<title>Node2&#45;&gt;Node3</title>
<path fill="none" stroke="midnightblue" d="M1038,-213.8C1038,-204.91 1038,-194.78 1038,-187.75"/>
<polygon fill="midnightblue" stroke="midnightblue" points="1034.5,-214.08 1038,-224.08 1041.5,-214.08 1034.5,-214.08"/>
</g>
<!-- Node4 -->
<g id="node4" class="node">
<title>Node4</title>
<g id="a_node4"><a xlink:href="_expr_8h.html" target="_top" xlink:title=" ">
<polygon fill="white" stroke="black" points="717.5,-168.5 717.5,-187.5 812.5,-187.5 812.5,-168.5 717.5,-168.5"/>
<text text-anchor="middle" x="765" y="-175.5" font-family="Helvetica,sans-Serif" font-size="10.00">language/Expr.h</text>
</a>
</g>
</g>
<!-- Node2&#45;&gt;Node4 -->
<g id="edge3" class="edge">
<title>Node2&#45;&gt;Node4</title>
<path fill="none" stroke="midnightblue" d="M984.78,-222.47C933.19,-212.27 855.9,-196.98 808.06,-187.52"/>
<polygon fill="midnightblue" stroke="midnightblue" points="984.25,-225.94 994.74,-224.44 985.61,-219.07 984.25,-225.94"/>
</g>
<!-- Node9 -->
<g id="node9" class="node">
<title>Node9</title>
<g id="a_node9"><a xlink:href="_block_8cc.html" target="_top" xlink:title=" ">
<polygon fill="white" stroke="black" points="951.5,-0.5 951.5,-19.5 1056.5,-19.5 1056.5,-0.5 951.5,-0.5"/>
<text text-anchor="middle" x="1004" y="-7.5" font-family="Helvetica,sans-Serif" font-size="10.00">language/Block.cc</text>
</a>
</g>
</g>
<!-- Node2&#45;&gt;Node9 -->
<g id="edge22" class="edge">
<title>Node2&#45;&gt;Node9</title>
<path fill="none" stroke="midnightblue" d="M1061.25,-218.68C1071.48,-210.99 1082.43,-200.5 1088,-188 1091.62,-179.88 1090.16,-176.62 1088,-168 1072.51,-106.23 1027.56,-42.21 1010.59,-19.56"/>
<polygon fill="midnightblue" stroke="midnightblue" points="1059.15,-215.88 1052.95,-224.47 1063.16,-221.62 1059.15,-215.88"/>
</g>
<!-- Node20 -->
<g id="node20" class="node">
<title>Node20</title>
<g id="a_node20"><a xlink:href="_test_parser_8cc.html" target="_top" xlink:title=" ">
<polygon fill="white" stroke="black" points="830.5,-168.5 830.5,-187.5 979.5,-187.5 979.5,-168.5 830.5,-168.5"/>
<text text-anchor="middle" x="905" y="-175.5" font-family="Helvetica,sans-Serif" font-size="10.00">language/test/TestParser.cc</text>
</a>
</g>
</g>
<!-- Node2&#45;&gt;Node20 -->
<g id="edge23" class="edge">
<title>Node2&#45;&gt;Node20</title>
<path fill="none" stroke="midnightblue" d="M1007.55,-220.64C982.59,-210.5 947.92,-196.43 925.98,-187.52"/>
<polygon fill="midnightblue" stroke="midnightblue" points="1006.34,-223.92 1016.93,-224.44 1008.98,-217.44 1006.34,-223.92"/>
</g>
<!-- Node5 -->
<g id="node5" class="node">
<title>Node5</title>
<g id="a_node5"><a xlink:href="_bind_def_8h.html" target="_top" xlink:title=" ">
<polygon fill="white" stroke="black" points="607,-112.5 607,-131.5 719,-131.5 719,-112.5 607,-112.5"/>
<text text-anchor="middle" x="663" y="-119.5" font-family="Helvetica,sans-Serif" font-size="10.00">language/BindDef.h</text>
</a>
</g>
</g>
<!-- Node4&#45;&gt;Node5 -->
<g id="edge4" class="edge">
<title>Node4&#45;&gt;Node5</title>
<path fill="none" stroke="midnightblue" d="M739.67,-163.59C720.81,-153.61 695.62,-140.27 679.35,-131.65"/>
<polygon fill="midnightblue" stroke="midnightblue" points="738.14,-166.74 748.61,-168.32 741.41,-160.55 738.14,-166.74"/>
</g>
<!-- Node11 -->
<g id="node11" class="node">
<title>Node11</title>
<g id="a_node11"><a xlink:href="_expr_8cc.html" target="_top" xlink:title=" ">
<polygon fill="white" stroke="black" points="164.5,-0.5 164.5,-19.5 263.5,-19.5 263.5,-0.5 164.5,-0.5"/>
<text text-anchor="middle" x="214" y="-7.5" font-family="Helvetica,sans-Serif" font-size="10.00">language/Expr.cc</text>
</a>
</g>
</g>
<!-- Node4&#45;&gt;Node11 -->
<g id="edge18" class="edge">
<title>Node4&#45;&gt;Node11</title>
<path fill="none" stroke="midnightblue" d="M721.61,-165.84C687.82,-157.02 639.79,-144.21 598,-132 462.47,-92.41 301.74,-39.96 239.96,-19.6"/>
<polygon fill="midnightblue" stroke="midnightblue" points="721.06,-169.32 731.62,-168.45 722.82,-162.54 721.06,-169.32"/>
</g>
<!-- Node4&#45;&gt;Node16 -->
<g id="edge19" class="edge">
<title>Node4&#45;&gt;Node16</title>
<path fill="none" stroke="midnightblue" d="M822.77,-167.83C925.2,-153.76 963.91,-182.5 1050,-132 1097.68,-104.02 1130.37,-42.18 1141.13,-19.53"/>
<polygon fill="midnightblue" stroke="midnightblue" points="822.04,-164.4 812.66,-169.33 823.06,-171.33 822.04,-164.4"/>
</g>
<!-- Node18 -->
<g id="node18" class="node">
<title>Node18</title>
<g id="a_node18"><a xlink:href="_test_block_8cc.html" target="_top" xlink:title=" ">
<polygon fill="white" stroke="black" points="737,-112.5 737,-131.5 883,-131.5 883,-112.5 737,-112.5"/>
<text text-anchor="middle" x="810" y="-119.5" font-family="Helvetica,sans-Serif" font-size="10.00">language/test/TestBlock.cc</text>
</a>
</g>
</g>
<!-- Node4&#45;&gt;Node18 -->
<g id="edge20" class="edge">
<title>Node4&#45;&gt;Node18</title>
<path fill="none" stroke="midnightblue" d="M779.05,-160.14C786.89,-150.74 796.33,-139.4 802.71,-131.75"/>
<polygon fill="midnightblue" stroke="midnightblue" points="776.14,-158.16 772.43,-168.08 781.52,-162.64 776.14,-158.16"/>
</g>
<!-- Node19 -->
<g id="node19" class="node">
<title>Node19</title>
<g id="a_node19"><a xlink:href="_test_expr_8cc.html" target="_top" xlink:title=" ">
<polygon fill="white" stroke="black" points="901,-112.5 901,-131.5 1041,-131.5 1041,-112.5 901,-112.5"/>
<text text-anchor="middle" x="971" y="-119.5" font-family="Helvetica,sans-Serif" font-size="10.00">language/test/TestExpr.cc</text>
</a>
</g>
</g>
<!-- Node4&#45;&gt;Node19 -->
<g id="edge21" class="edge">
<title>Node4&#45;&gt;Node19</title>
<path fill="none" stroke="midnightblue" d="M807.62,-165.83C846.51,-155.63 903.16,-140.78 938.51,-131.52"/>
<polygon fill="midnightblue" stroke="midnightblue" points="806.43,-162.52 797.64,-168.44 808.2,-169.29 806.43,-162.52"/>
</g>
<!-- Node6 -->
<g id="node6" class="node">
<title>Node6</title>
<g id="a_node6"><a xlink:href="_bind_def_8cc.html" target="_top" xlink:title=" ">
<polygon fill="white" stroke="black" points="632,-56.5 632,-75.5 748,-75.5 748,-56.5 632,-56.5"/>
<text text-anchor="middle" x="690" y="-63.5" font-family="Helvetica,sans-Serif" font-size="10.00">language/BindDef.cc</text>
</a>
</g>
</g>
<!-- Node5&#45;&gt;Node6 -->
<g id="edge5" class="edge">
<title>Node5&#45;&gt;Node6</title>
<path fill="none" stroke="midnightblue" d="M672.01,-102.98C676.59,-93.82 681.95,-83.09 685.62,-75.75"/>
<polygon fill="midnightblue" stroke="midnightblue" points="668.8,-101.57 667.46,-112.08 675.06,-104.7 668.8,-101.57"/>
</g>
<!-- Node7 -->
<g id="node7" class="node">
<title>Node7</title>
<g id="a_node7"><a xlink:href="_null_8h.html" target="_top" xlink:title=" ">
<polygon fill="white" stroke="black" points="520.5,-56.5 520.5,-75.5 613.5,-75.5 613.5,-56.5 520.5,-56.5"/>
<text text-anchor="middle" x="567" y="-63.5" font-family="Helvetica,sans-Serif" font-size="10.00">language/Null.h</text>
</a>
</g>
</g>
<!-- Node5&#45;&gt;Node7 -->
<g id="edge6" class="edge">
<title>Node5&#45;&gt;Node7</title>
<path fill="none" stroke="midnightblue" d="M638.43,-107.18C620.76,-97.24 597.49,-84.15 582.39,-75.65"/>
<polygon fill="midnightblue" stroke="midnightblue" points="637.14,-110.47 647.58,-112.32 640.58,-104.37 637.14,-110.47"/>
</g>
<!-- Node5&#45;&gt;Node16 -->
<g id="edge17" class="edge">
<title>Node5&#45;&gt;Node16</title>
<path fill="none" stroke="midnightblue" d="M724.26,-110.69C772.48,-102.27 841.28,-89.58 901,-76 979.23,-58.21 1070.3,-32.64 1115.88,-19.5"/>
<polygon fill="midnightblue" stroke="midnightblue" points="723.55,-107.26 714.29,-112.42 724.75,-114.16 723.55,-107.26"/>
</g>
<!-- Node17 -->
<g id="node17" class="node">
<title>Node17</title>
<g id="a_node17"><a xlink:href="_i_statment_8cc.html" target="_top" xlink:title=" ">
<polygon fill="white" stroke="black" points="766,-56.5 766,-75.5 892,-75.5 892,-56.5 766,-56.5"/>
<text text-anchor="middle" x="829" y="-63.5" font-family="Helvetica,sans-Serif" font-size="10.00">language/IStatment.cc</text>
</a>
</g>
</g>
<!-- Node5&#45;&gt;Node17 -->
<g id="edge16" class="edge">
<title>Node5&#45;&gt;Node17</title>
<path fill="none" stroke="midnightblue" d="M698.95,-109.3C730.23,-99.13 774.82,-84.62 802.82,-75.52"/>
<polygon fill="midnightblue" stroke="midnightblue" points="697.73,-106.02 689.3,-112.44 699.9,-112.68 697.73,-106.02"/>
</g>
<!-- Node7&#45;&gt;Node8 -->
<g id="edge7" class="edge">
<title>Node7&#45;&gt;Node8</title>
<path fill="none" stroke="midnightblue" d="M510.07,-58.79C430.58,-50.12 281.81,-33.88 155,-20 152.15,-19.69 149.25,-19.37 146.32,-19.05"/>
<polygon fill="midnightblue" stroke="midnightblue" points="510.03,-62.31 520.35,-59.91 510.79,-55.35 510.03,-62.31"/>
</g>
<!-- Node7&#45;&gt;Node9 -->
<g id="edge8" class="edge">
<title>Node7&#45;&gt;Node9</title>
<path fill="none" stroke="midnightblue" d="M623.71,-55.96C766.04,-36.74 803.67,-37.84 942,-20 945.02,-19.61 948.12,-19.2 951.25,-18.77"/>
<polygon fill="midnightblue" stroke="midnightblue" points="623.16,-52.51 613.73,-57.32 624.11,-59.44 623.16,-52.51"/>
</g>
<!-- Node10 -->
<g id="node10" class="node">
<title>Node10</title>
<g id="a_node10"><a xlink:href="_conditional_8cc.html" target="_top" xlink:title=" ">
<polygon fill="white" stroke="black" points="527,-0.5 527,-19.5 661,-19.5 661,-0.5 527,-0.5"/>
<text text-anchor="middle" x="594" y="-7.5" font-family="Helvetica,sans-Serif" font-size="10.00">language/Conditional.cc</text>
</a>
</g>
</g>
<!-- Node7&#45;&gt;Node10 -->
<g id="edge9" class="edge">
<title>Node7&#45;&gt;Node10</title>
<path fill="none" stroke="midnightblue" d="M576.01,-46.98C580.59,-37.82 585.95,-27.09 589.62,-19.75"/>
<polygon fill="midnightblue" stroke="midnightblue" points="572.8,-45.57 571.46,-56.08 579.06,-48.7 572.8,-45.57"/>
</g>
<!-- Node7&#45;&gt;Node11 -->
<g id="edge10" class="edge">
<title>Node7&#45;&gt;Node11</title>
<path fill="none" stroke="midnightblue" d="M510.57,-56.44C451.2,-47.41 355.01,-32.77 272,-20 269.28,-19.58 266.49,-19.15 263.67,-18.72"/>
<polygon fill="midnightblue" stroke="midnightblue" points="510.09,-59.9 520.5,-57.94 511.14,-52.98 510.09,-59.9"/>
</g>
<!-- Node12 -->
<g id="node12" class="node">
<title>Node12</title>
<g id="a_node12"><a xlink:href="_func_call_8cc.html" target="_top" xlink:title=" ">
<polygon fill="white" stroke="black" points="679.5,-0.5 679.5,-19.5 798.5,-19.5 798.5,-0.5 679.5,-0.5"/>
<text text-anchor="middle" x="739" y="-7.5" font-family="Helvetica,sans-Serif" font-size="10.00">language/FuncCall.cc</text>
</a>
</g>
</g>
<!-- Node7&#45;&gt;Node12 -->
<g id="edge11" class="edge">
<title>Node7&#45;&gt;Node12</title>
<path fill="none" stroke="midnightblue" d="M603.83,-53.44C636.26,-43.26 682.74,-28.66 711.87,-19.52"/>
<polygon fill="midnightblue" stroke="midnightblue" points="602.75,-50.11 594.25,-56.44 604.84,-56.79 602.75,-50.11"/>
</g>
<!-- Node13 -->
<g id="node13" class="node">
<title>Node13</title>
<g id="a_node13"><a xlink:href="_func_def_8cc.html" target="_top" xlink:title=" ">
<polygon fill="white" stroke="black" points="816.5,-0.5 816.5,-19.5 933.5,-19.5 933.5,-0.5 816.5,-0.5"/>
<text text-anchor="middle" x="875" y="-7.5" font-family="Helvetica,sans-Serif" font-size="10.00">language/FuncDef.cc</text>
</a>
</g>
</g>
<!-- Node7&#45;&gt;Node13 -->
<g id="edge12" class="edge">
<title>Node7&#45;&gt;Node13</title>
<path fill="none" stroke="midnightblue" d="M623.91,-55.02C682.11,-44.82 771.56,-29.13 826.51,-19.5"/>
<polygon fill="midnightblue" stroke="midnightblue" points="623.02,-51.62 613.78,-56.8 624.23,-58.52 623.02,-51.62"/>
</g>
<!-- Node14 -->
<g id="node14" class="node">
<title>Node14</title>
<g id="a_node14"><a xlink:href="_loop_8cc.html" target="_top" xlink:title=" ">
<polygon fill="white" stroke="black" points="281.5,-0.5 281.5,-19.5 382.5,-19.5 382.5,-0.5 281.5,-0.5"/>
<text text-anchor="middle" x="332" y="-7.5" font-family="Helvetica,sans-Serif" font-size="10.00">language/Loop.cc</text>
</a>
</g>
</g>
<!-- Node7&#45;&gt;Node14 -->
<g id="edge13" class="edge">
<title>Node7&#45;&gt;Node14</title>
<path fill="none" stroke="midnightblue" d="M519.79,-54.15C475.39,-43.95 409.81,-28.88 369.06,-19.52"/>
<polygon fill="midnightblue" stroke="midnightblue" points="519.23,-57.62 529.76,-56.44 520.8,-50.79 519.23,-57.62"/>
</g>
<!-- Node15 -->
<g id="node15" class="node">
<title>Node15</title>
<g id="a_node15"><a xlink:href="parser_8cc.html" target="_top" xlink:title=" ">
<polygon fill="white" stroke="black" points="401,-0.5 401,-19.5 509,-19.5 509,-0.5 401,-0.5"/>
<text text-anchor="middle" x="455" y="-7.5" font-family="Helvetica,sans-Serif" font-size="10.00">language/parser.cc</text>
</a>
</g>
</g>
<!-- Node7&#45;&gt;Node15 -->
<g id="edge14" class="edge">
<title>Node7&#45;&gt;Node15</title>
<path fill="none" stroke="midnightblue" d="M539.75,-51.86C518.98,-41.85 490.98,-28.35 472.95,-19.65"/>
<polygon fill="midnightblue" stroke="midnightblue" points="538.48,-55.13 549.01,-56.32 541.52,-48.83 538.48,-55.13"/>
</g>
<!-- Node7&#45;&gt;Node16 -->
<g id="edge15" class="edge">
<title>Node7&#45;&gt;Node16</title>
<path fill="none" stroke="midnightblue" d="M623.82,-56C820.82,-32.53 872.66,-38.86 1066,-20 1068.75,-19.73 1071.55,-19.45 1074.38,-19.16"/>
<polygon fill="midnightblue" stroke="midnightblue" points="623.22,-52.54 613.71,-57.21 624.06,-59.49 623.22,-52.54"/>
</g>
</g>
</svg>
        <g id="navigator" transform="translate(0 0)" fill="#404254">
                <rect fill="#f2f5e9" fill-opacity="0.5" stroke="#606060" stroke-width=".5" x="0" y="0" width="60" height="60"/>
                <use id="zoomplus" xlink:href="#zoomPlus" x="17" y="9" onmousedown="handleZoom(evt,'in')"/>
                <use id="zoomminus" xlink:href="#zoomMin" x="42" y="9" onmousedown="handleZoom(evt,'out')"/>
                <use id="reset" xlink:href="#resetDef" x="30" y="36" onmousedown="handleReset()"/>
                <g id="arrowUp" xlink:href="#dirArrow" transform="translate(30 24)" onmousedown="handlePan(0,-1)">
                  <use xlink:href="#rim" fill="#404040">
                        <set attributeName="fill" to="#808080" begin="arrowUp.mouseover" end="arrowUp.mouseout"/>
                  </use>
                  <path fill="none" stroke="white" stroke-width="1.5" d="M0,-3.0v7 M-2.5,-0.5L0,-3.0L2.5,-0.5"/>
                </g>
                <g id="arrowRight" xlink:href="#dirArrow" transform="rotate(90) translate(36 -43)" onmousedown="handlePan(1,0)">
                  <use xlink:href="#rim" fill="#404040">
                        <set attributeName="fill" to="#808080" begin="arrowRight.mouseover" end="arrowRight.mouseout"/>
                  </use>
                  <path fill="none" stroke="white" stroke-width="1.5" d="M0,-3.0v7 M-2.5,-0.5L0,-3.0L2.5,-0.5"/>
                </g>
                <g id="arrowDown" xlink:href="#dirArrow" transform="rotate(180) translate(-30 -48)" onmousedown="handlePan(0,1)">
                  <use xlink:href="#rim" fill="#404040">
                        <set attributeName="fill" to="#808080" begin="arrowDown.mouseover" end="arrowDown.mouseout"/>
                  </use>
                  <path fill="none" stroke="white" stroke-width="1.5" d="M0,-3.0v7 M-2.5,-0.5L0,-3.0L2.5,-0.5"/>
                </g>
                <g id="arrowLeft" xlink:href="#dirArrow" transform="rotate(270) translate(-36 17)" onmousedown="handlePan(-1,0)">
                  <use xlink:href="#rim" fill="#404040">
                        <set attributeName="fill" to="#808080" begin="arrowLeft.mouseover" end="arrowLeft.mouseout"/>
                  </use>
                  <path fill="none" stroke="white" stroke-width="1.5" d="M0,-3.0v7 M-2.5,-0.5L0,-3.0L2.5,-0.5"/>
                </g>
        </g>
        <svg viewBox="0 0 15 15" width="100%" height="30px" preserveAspectRatio="xMaxYMin meet">
         <g id="arrow_out" transform="scale(0.3 0.3)">
          <a xlink:href="env_8h__dep__incl_org.svg" target="_base">
           <rect id="button" ry="5" rx="5" y="6" x="6" height="38" width="38"
                fill="#f2f5e9" fill-opacity="0.5" stroke="#606060" stroke-width="1.0"/>
           <path id="arrow"
             d="M 11.500037,31.436501 C 11.940474,20.09759 22.043105,11.32322 32.158766,21.979434 L 37.068811,17.246167 C 37.068811,17.246167 37.088388,32 37.088388,32 L 22.160133,31.978069 C 22.160133,31.978069 26.997745,27.140456 26.997745,27.140456 C 18.528582,18.264221 13.291696,25.230495 11.500037,31.436501 z"
             style="fill:#404040;"/>
          </a>
         </g>
        </svg>
</svg>
