<?xml version="1.0" encoding="UTF-8" standalone="no"?>
<!DOCTYPE svg PUBLIC "-//W3C//DTD SVG 1.1//EN"
 "http://www.w3.org/Graphics/SVG/1.1/DTD/svg11.dtd">
<!-- Generated by graphviz version 2.43.0 (0)
 -->
<!-- Title: Graphical Class Hierarchy Pages: 1 -->
<svg width="316pt" height="446pt"
 viewBox="0.00 0.00 316.00 446.00" xmlns="http://www.w3.org/2000/svg" xmlns:xlink="http://www.w3.org/1999/xlink">
<g id="graph0" class="graph" transform="scale(1 1) rotate(0) translate(4 442)">
<title>Graphical Class Hierarchy</title>
<polygon fill="white" stroke="transparent" points="-4,4 -4,-442 312,-442 312,4 -4,4"/>
<!-- Node8 -->
<g id="node1" class="node">
<title>Node8</title>
<g id="a_node1"><a xlink:href="class_i_statment.html" target="_top" xlink:title="Base class for all possible statments in the language.">
<polygon fill="white" stroke="black" points="0,-228.5 0,-247.5 65,-247.5 65,-228.5 0,-228.5"/>
<text text-anchor="middle" x="32.5" y="-235.5" font-family="Helvetica,sans-Serif" font-size="10.00">IStatment</text>
</a>
</g>
</g>
<!-- Node9 -->
<g id="node2" class="node">
<title>Node9</title>
<g id="a_node2"><a xlink:href="class_bind_def.html" target="_top" xlink:title="Variable binding statment.">
<polygon fill="white" stroke="black" points="115.5,-266.5 115.5,-285.5 171.5,-285.5 171.5,-266.5 115.5,-266.5"/>
<text text-anchor="middle" x="143.5" y="-273.5" font-family="Helvetica,sans-Serif" font-size="10.00">BindDef</text>
</a>
</g>
</g>
<!-- Node8&#45;&gt;Node9 -->
<g id="edge1" class="edge">
<title>Node8&#45;&gt;Node9</title>
<path fill="none" stroke="midnightblue" d="M70.79,-251C85.42,-256.1 101.91,-261.85 115.38,-266.55"/>
<polygon fill="midnightblue" stroke="midnightblue" points="71.6,-247.58 61.01,-247.59 69.3,-254.19 71.6,-247.58"/>
</g>
<!-- Node10 -->
<g id="node3" class="node">
<title>Node10</title>
<g id="a_node3"><a xlink:href="class_binding_usage.html" target="_top" xlink:title="Variable binding usage Value can be assigned to variable.">
<polygon fill="white" stroke="black" points="101.5,-228.5 101.5,-247.5 185.5,-247.5 185.5,-228.5 101.5,-228.5"/>
<text text-anchor="middle" x="143.5" y="-235.5" font-family="Helvetica,sans-Serif" font-size="10.00">BindingUsage</text>
</a>
</g>
</g>
<!-- Node8&#45;&gt;Node10 -->
<g id="edge2" class="edge">
<title>Node8&#45;&gt;Node10</title>
<path fill="none" stroke="midnightblue" d="M75.19,-238C83.75,-238 92.75,-238 101.3,-238"/>
<polygon fill="midnightblue" stroke="midnightblue" points="75.03,-234.5 65.03,-238 75.03,-241.5 75.03,-234.5"/>
</g>
<!-- Node11 -->
<g id="node4" class="node">
<title>Node11</title>
<g id="a_node4"><a xlink:href="class_block.html" target="_top" xlink:title="Code blocks &#45; scopes Always evaluate to the last statment in them for example:">
<polygon fill="white" stroke="black" points="121.5,-190.5 121.5,-209.5 165.5,-209.5 165.5,-190.5 121.5,-190.5"/>
<text text-anchor="middle" x="143.5" y="-197.5" font-family="Helvetica,sans-Serif" font-size="10.00">Block</text>
</a>
</g>
</g>
<!-- Node8&#45;&gt;Node11 -->
<g id="edge3" class="edge">
<title>Node8&#45;&gt;Node11</title>
<path fill="none" stroke="midnightblue" d="M70.59,-225.07C87.46,-219.19 106.82,-212.44 121.19,-207.43"/>
<polygon fill="midnightblue" stroke="midnightblue" points="69.3,-221.81 61.01,-228.41 71.6,-228.42 69.3,-221.81"/>
</g>
<!-- Node12 -->
<g id="node5" class="node">
<title>Node12</title>
<g id="a_node5"><a xlink:href="class_conditional.html" target="_top" xlink:title="Conditional statments (if, else statments)">
<polygon fill="white" stroke="black" points="107.5,-152.5 107.5,-171.5 179.5,-171.5 179.5,-152.5 107.5,-152.5"/>
<text text-anchor="middle" x="143.5" y="-159.5" font-family="Helvetica,sans-Serif" font-size="10.00">Conditional</text>
</a>
</g>
</g>
<!-- Node8&#45;&gt;Node12 -->
<g id="edge4" class="edge">
<title>Node8&#45;&gt;Node12</title>
<path fill="none" stroke="midnightblue" d="M50.67,-221.21C63.74,-209.03 82.55,-192.7 101,-181 106.49,-177.52 112.72,-174.32 118.65,-171.58"/>
<polygon fill="midnightblue" stroke="midnightblue" points="48.18,-218.76 43.34,-228.18 53,-223.83 48.18,-218.76"/>
</g>
<!-- Node1 -->
<g id="node6" class="node">
<title>Node1</title>
<g id="a_node6"><a xlink:href="class_error_statment.html" target="_top" xlink:title="Error value created when there is an error while evaluation.">
<polygon fill="white" stroke="black" points="101,-114.5 101,-133.5 186,-133.5 186,-114.5 101,-114.5"/>
<text text-anchor="middle" x="143.5" y="-121.5" font-family="Helvetica,sans-Serif" font-size="10.00">ErrorStatment</text>
</a>
</g>
</g>
<!-- Node8&#45;&gt;Node1 -->
<g id="edge5" class="edge">
<title>Node8&#45;&gt;Node1</title>
<path fill="none" stroke="midnightblue" d="M42.92,-219.24C54.24,-198.29 75.01,-164.5 101,-143 105.4,-139.36 110.6,-136.27 115.81,-133.7"/>
<polygon fill="midnightblue" stroke="midnightblue" points="39.67,-217.9 38.14,-228.39 45.87,-221.15 39.67,-217.9"/>
</g>
<!-- Node13 -->
<g id="node7" class="node">
<title>Node13</title>
<g id="a_node7"><a xlink:href="class_func_call.html" target="_top" xlink:title=" ">
<polygon fill="white" stroke="black" points="114.5,-418.5 114.5,-437.5 172.5,-437.5 172.5,-418.5 114.5,-418.5"/>
<text text-anchor="middle" x="143.5" y="-425.5" font-family="Helvetica,sans-Serif" font-size="10.00">FuncCall</text>
</a>
</g>
</g>
<!-- Node8&#45;&gt;Node13 -->
<g id="edge6" class="edge">
<title>Node8&#45;&gt;Node13</title>
<path fill="none" stroke="midnightblue" d="M36.45,-258.19C42.54,-293.13 59.57,-365.3 101,-409 104.71,-412.91 109.37,-416.08 114.23,-418.64"/>
<polygon fill="midnightblue" stroke="midnightblue" points="39.84,-257.18 34.79,-247.87 32.93,-258.3 39.84,-257.18"/>
</g>
<!-- Node14 -->
<g id="node8" class="node">
<title>Node14</title>
<g id="a_node8"><a xlink:href="class_func_def.html" target="_top" xlink:title="Function definitions.">
<polygon fill="white" stroke="black" points="115.5,-380.5 115.5,-399.5 171.5,-399.5 171.5,-380.5 115.5,-380.5"/>
<text text-anchor="middle" x="143.5" y="-387.5" font-family="Helvetica,sans-Serif" font-size="10.00">FuncDef</text>
</a>
</g>
</g>
<!-- Node8&#45;&gt;Node14 -->
<g id="edge7" class="edge">
<title>Node8&#45;&gt;Node14</title>
<path fill="none" stroke="midnightblue" d="M38.91,-257.62C47.65,-286.02 67.37,-338.7 101,-371 105.11,-374.95 110.2,-378.18 115.38,-380.79"/>
<polygon fill="midnightblue" stroke="midnightblue" points="42.18,-256.32 36.01,-247.7 35.46,-258.28 42.18,-256.32"/>
</g>
<!-- Node15 -->
<g id="node9" class="node">
<title>Node15</title>
<g id="a_node9"><a xlink:href="class_i_expr.html" target="_top" xlink:title="IExpr Base class for expressions.">
<polygon fill="white" stroke="black" points="123,-342.5 123,-361.5 164,-361.5 164,-342.5 123,-342.5"/>
<text text-anchor="middle" x="143.5" y="-349.5" font-family="Helvetica,sans-Serif" font-size="10.00">IExpr</text>
</a>
</g>
</g>
<!-- Node8&#45;&gt;Node15 -->
<g id="edge8" class="edge">
<title>Node8&#45;&gt;Node15</title>
<path fill="none" stroke="midnightblue" d="M42.92,-256.76C54.24,-277.71 75.01,-311.5 101,-333 107.35,-338.25 115.39,-342.37 122.7,-345.42"/>
<polygon fill="midnightblue" stroke="midnightblue" points="45.87,-254.85 38.14,-247.61 39.67,-258.1 45.87,-254.85"/>
</g>
<!-- Node19 -->
<g id="node13" class="node">
<title>Node19</title>
<g id="a_node13"><a xlink:href="class_loop.html" target="_top" xlink:title="While loop statments.">
<polygon fill="white" stroke="black" points="123.5,-304.5 123.5,-323.5 163.5,-323.5 163.5,-304.5 123.5,-304.5"/>
<text text-anchor="middle" x="143.5" y="-311.5" font-family="Helvetica,sans-Serif" font-size="10.00">Loop</text>
</a>
</g>
</g>
<!-- Node8&#45;&gt;Node19 -->
<g id="edge12" class="edge">
<title>Node8&#45;&gt;Node19</title>
<path fill="none" stroke="midnightblue" d="M50.67,-254.79C63.74,-266.97 82.55,-283.3 101,-295 107.96,-299.41 116.11,-303.38 123.34,-306.53"/>
<polygon fill="midnightblue" stroke="midnightblue" points="53,-252.17 43.34,-247.82 48.18,-257.24 53,-252.17"/>
</g>
<!-- Node2 -->
<g id="node14" class="node">
<title>Node2</title>
<g id="a_node14"><a xlink:href="class_matrix.html" target="_top" xlink:title=" ">
<polygon fill="white" stroke="black" points="119.5,-76.5 119.5,-95.5 167.5,-95.5 167.5,-76.5 119.5,-76.5"/>
<text text-anchor="middle" x="143.5" y="-83.5" font-family="Helvetica,sans-Serif" font-size="10.00">Matrix</text>
</a>
</g>
</g>
<!-- Node8&#45;&gt;Node2 -->
<g id="edge13" class="edge">
<title>Node8&#45;&gt;Node2</title>
<path fill="none" stroke="midnightblue" d="M38.91,-218.38C47.65,-189.98 67.37,-137.3 101,-105 106.14,-100.06 112.8,-96.24 119.27,-93.37"/>
<polygon fill="midnightblue" stroke="midnightblue" points="35.46,-217.72 36.01,-228.3 42.18,-219.68 35.46,-217.72"/>
</g>
<!-- Node4 -->
<g id="node15" class="node">
<title>Node4</title>
<g id="a_node15"><a xlink:href="class_number.html" target="_top" xlink:title="Repersentation of a number in whole language.">
<polygon fill="white" stroke="black" points="115.5,-38.5 115.5,-57.5 171.5,-57.5 171.5,-38.5 115.5,-38.5"/>
<text text-anchor="middle" x="143.5" y="-45.5" font-family="Helvetica,sans-Serif" font-size="10.00">Number</text>
</a>
</g>
</g>
<!-- Node8&#45;&gt;Node4 -->
<g id="edge14" class="edge">
<title>Node8&#45;&gt;Node4</title>
<path fill="none" stroke="midnightblue" d="M36.45,-217.81C42.54,-182.87 59.57,-110.7 101,-67 104.93,-62.86 109.93,-59.55 115.08,-56.92"/>
<polygon fill="midnightblue" stroke="midnightblue" points="32.93,-217.7 34.79,-228.13 39.84,-218.82 32.93,-217.7"/>
</g>
<!-- Node16 -->
<g id="node10" class="node">
<title>Node16</title>
<g id="a_node10"><a xlink:href="class_expr_number.html" target="_top" xlink:title="Literal numeric expression.">
<polygon fill="white" stroke="black" points="226.5,-380.5 226.5,-399.5 303.5,-399.5 303.5,-380.5 226.5,-380.5"/>
<text text-anchor="middle" x="265" y="-387.5" font-family="Helvetica,sans-Serif" font-size="10.00">ExprNumber</text>
</a>
</g>
</g>
<!-- Node15&#45;&gt;Node16 -->
<g id="edge9" class="edge">
<title>Node15&#45;&gt;Node16</title>
<path fill="none" stroke="midnightblue" d="M173.78,-361.31C192.05,-367.12 215.51,-374.58 233.93,-380.44"/>
<polygon fill="midnightblue" stroke="midnightblue" points="174.82,-357.97 164.23,-358.27 172.7,-364.64 174.82,-357.97"/>
</g>
<!-- Node17 -->
<g id="node11" class="node">
<title>Node17</title>
<g id="a_node11"><a xlink:href="class_expr_operation.html" target="_top" xlink:title="Mathematical operation (+, &#45;, ==, ...)">
<polygon fill="white" stroke="black" points="222,-342.5 222,-361.5 308,-361.5 308,-342.5 222,-342.5"/>
<text text-anchor="middle" x="265" y="-349.5" font-family="Helvetica,sans-Serif" font-size="10.00">ExprOperation</text>
</a>
</g>
</g>
<!-- Node15&#45;&gt;Node17 -->
<g id="edge10" class="edge">
<title>Node15&#45;&gt;Node17</title>
<path fill="none" stroke="midnightblue" d="M174.52,-352C188.87,-352 206.28,-352 221.92,-352"/>
<polygon fill="midnightblue" stroke="midnightblue" points="174.23,-348.5 164.23,-352 174.23,-355.5 174.23,-348.5"/>
</g>
<!-- Node18 -->
<g id="node12" class="node">
<title>Node18</title>
<g id="a_node12"><a xlink:href="class_expr_variable.html" target="_top" xlink:title="Usage of existing variable.">
<polygon fill="white" stroke="black" points="226,-304.5 226,-323.5 304,-323.5 304,-304.5 226,-304.5"/>
<text text-anchor="middle" x="265" y="-311.5" font-family="Helvetica,sans-Serif" font-size="10.00">ExprVariable</text>
</a>
</g>
</g>
<!-- Node15&#45;&gt;Node18 -->
<g id="edge11" class="edge">
<title>Node15&#45;&gt;Node18</title>
<path fill="none" stroke="midnightblue" d="M173.78,-342.69C192.05,-336.88 215.51,-329.42 233.93,-323.56"/>
<polygon fill="midnightblue" stroke="midnightblue" points="172.7,-339.36 164.23,-345.73 174.82,-346.03 172.7,-339.36"/>
</g>
<!-- Node0 -->
<g id="node16" class="node">
<title>Node0</title>
<g id="a_node16"><a xlink:href="class_i_value.html" target="_top" xlink:title="Base class for all possible evaluation results.">
<polygon fill="white" stroke="black" points="9,-57.5 9,-76.5 56,-76.5 56,-57.5 9,-57.5"/>
<text text-anchor="middle" x="32.5" y="-64.5" font-family="Helvetica,sans-Serif" font-size="10.00">IValue</text>
</a>
</g>
</g>
<!-- Node0&#45;&gt;Node1 -->
<g id="edge15" class="edge">
<title>Node0&#45;&gt;Node1</title>
<path fill="none" stroke="midnightblue" d="M58.64,-81.81C71.22,-89.05 86.77,-97.75 101,-105 107.35,-108.24 114.37,-111.55 120.8,-114.48"/>
<polygon fill="midnightblue" stroke="midnightblue" points="60.07,-78.59 49.66,-76.6 56.55,-84.65 60.07,-78.59"/>
</g>
<!-- Node0&#45;&gt;Node2 -->
<g id="edge16" class="edge">
<title>Node0&#45;&gt;Node2</title>
<path fill="none" stroke="midnightblue" d="M66.19,-72.7C83.26,-75.67 103.75,-79.24 119.19,-81.94"/>
<polygon fill="midnightblue" stroke="midnightblue" points="66.54,-69.21 56.08,-70.94 65.34,-76.1 66.54,-69.21"/>
</g>
<!-- Node0&#45;&gt;Node4 -->
<g id="edge18" class="edge">
<title>Node0&#45;&gt;Node4</title>
<path fill="none" stroke="midnightblue" d="M66.38,-61.27C82.01,-58.54 100.48,-55.32 115.32,-52.74"/>
<polygon fill="midnightblue" stroke="midnightblue" points="65.34,-57.9 56.08,-63.06 66.54,-64.79 65.34,-57.9"/>
</g>
<!-- Node3 -->
<g id="node17" class="node">
<title>Node3</title>
<g id="a_node17"><a xlink:href="class_null.html" target="_top" xlink:title="Null value.">
<polygon fill="white" stroke="black" points="125.5,-0.5 125.5,-19.5 161.5,-19.5 161.5,-0.5 125.5,-0.5"/>
<text text-anchor="middle" x="143.5" y="-7.5" font-family="Helvetica,sans-Serif" font-size="10.00">Null</text>
</a>
</g>
</g>
<!-- Node0&#45;&gt;Node3 -->
<g id="edge17" class="edge">
<title>Node0&#45;&gt;Node3</title>
<path fill="none" stroke="midnightblue" d="M58.64,-52.19C71.22,-44.95 86.77,-36.25 101,-29 108.91,-24.97 117.84,-20.83 125.39,-17.45"/>
<polygon fill="midnightblue" stroke="midnightblue" points="56.55,-49.35 49.66,-57.4 60.07,-55.41 56.55,-49.35"/>
</g>
</g>
</svg>
