<?xml version="1.0" encoding="UTF-8" standalone="no"?>
<!DOCTYPE svg PUBLIC "-//W3C//DTD SVG 1.1//EN"
 "http://www.w3.org/Graphics/SVG/1.1/DTD/svg11.dtd">
<!-- Generated by graphviz version 2.43.0 (0)
 -->
<!-- Title: language/parser.cc Pages: 1 -->
<!--zoomable 420 -->
<svg id="main" version="1.1" xmlns="http://www.w3.org/2000/svg" xmlns:xlink="http://www.w3.org/1999/xlink" xml:space="preserve" onload="init(evt)">
<style type="text/css"><![CDATA[
.edge:hover path { stroke: red; }
.edge:hover polygon { stroke: red; fill: red; }
]]></style>
<script type="text/javascript"><![CDATA[
var edges = document.getElementsByTagName('g');
if (edges && edges.length) {
  for (var i=0;i<edges.length;i++) {
    if (edges[i].id.substr(0,4)=='edge') {
      edges[i].setAttribute('class','edge');
    }
  }
}
]]></script>
        <defs>
                <circle id="rim" cx="0" cy="0" r="7"/>
                <circle id="rim2" cx="0" cy="0" r="3.5"/>
                <g id="zoomPlus">
                        <use xlink:href="#rim" fill="#404040">
                                <set attributeName="fill" to="#808080" begin="zoomplus.mouseover" end="zoomplus.mouseout"/>
                        </use>
                        <path d="M-4,0h8M0,-4v8" fill="none" stroke="white" stroke-width="1.5" pointer-events="none"/>
                </g>
                <g id="zoomMin">
                        <use xlink:href="#rim" fill="#404040">
                                <set attributeName="fill" to="#808080" begin="zoomminus.mouseover" end="zoomminus.mouseout"/>
                        </use>
                        <path d="M-4,0h8" fill="none" stroke="white" stroke-width="1.5" pointer-events="none"/>
                </g>
                <g id="dirArrow">
                        <path fill="none" stroke="white" stroke-width="1.5" d="M0,-3.0v7 M-2.5,-0.5L0,-3.0L2.5,-0.5"/>
                </g>
               <g id="resetDef">
                       <use xlink:href="#rim2" fill="#404040">
                               <set attributeName="fill" to="#808080" begin="reset.mouseover" end="reset.mouseout"/>
                       </use>
               </g>
        </defs>

<script type="text/javascript">
var viewWidth = 1354;
var viewHeight = 420;
var sectionId = 'dynsection-0';
</script>
<script xlink:href="svgpan.js"/>
<svg id="graph" class="graph">
<g id="viewport">
<title>language/parser.cc</title>
<polygon fill="white" stroke="transparent" points="-4,4 -4,-416 1350,-416 1350,4 -4,4"/>
<!-- Node1 -->
<g id="node1" class="node">
<title>Node1</title>
<g id="a_node1"><a xlink:title=" ">
<polygon fill="#bfbfbf" stroke="black" points="954,-392.5 954,-411.5 1062,-411.5 1062,-392.5 954,-392.5"/>
<text text-anchor="middle" x="1008" y="-399.5" font-family="Helvetica,sans-Serif" font-size="10.00">language/parser.cc</text>
</a>
</g>
</g>
<!-- Node2 -->
<g id="node2" class="node">
<title>Node2</title>
<g id="a_node2"><a xlink:title=" ">
<polygon fill="white" stroke="#bfbfbf" points="196,-56.5 196,-75.5 256,-75.5 256,-56.5 196,-56.5"/>
<text text-anchor="middle" x="226" y="-63.5" font-family="Helvetica,sans-Serif" font-size="10.00">iostream</text>
</a>
</g>
</g>
<!-- Node1&#45;&gt;Node2 -->
<g id="edge1" class="edge">
<title>Node1&#45;&gt;Node2</title>
<path fill="none" stroke="midnightblue" d="M953.76,-400.06C760.06,-396 114,-376.08 114,-291 114,-291 114,-291 114,-233 114,-167.58 174.52,-108.64 206.59,-82"/>
<polygon fill="midnightblue" stroke="midnightblue" points="208.86,-84.66 214.44,-75.65 204.46,-79.22 208.86,-84.66"/>
</g>
<!-- Node3 -->
<g id="node3" class="node">
<title>Node3</title>
<g id="a_node3"><a xlink:title=" ">
<polygon fill="white" stroke="#bfbfbf" points="1110,-0.5 1110,-19.5 1166,-19.5 1166,-0.5 1110,-0.5"/>
<text text-anchor="middle" x="1138" y="-7.5" font-family="Helvetica,sans-Serif" font-size="10.00">optional</text>
</a>
</g>
</g>
<!-- Node1&#45;&gt;Node3 -->
<g id="edge2" class="edge">
<title>Node1&#45;&gt;Node3</title>
<path fill="none" stroke="midnightblue" d="M1062.23,-398.63C1114.74,-394.67 1195.66,-384.12 1260,-356 1303.9,-336.82 1346,-338.91 1346,-291 1346,-291 1346,-291 1346,-121 1346,-45.08 1236.38,-21.42 1176.3,-14.15"/>
<polygon fill="midnightblue" stroke="midnightblue" points="1176.38,-10.64 1166.05,-13.01 1175.6,-17.6 1176.38,-10.64"/>
</g>
<!-- Node4 -->
<g id="node4" class="node">
<title>Node4</title>
<g id="a_node4"><a xlink:title=" ">
<polygon fill="white" stroke="#bfbfbf" points="902.5,-336.5 902.5,-355.5 967.5,-355.5 967.5,-336.5 902.5,-336.5"/>
<text text-anchor="middle" x="935" y="-343.5" font-family="Helvetica,sans-Serif" font-size="10.00">stdexcept</text>
</a>
</g>
</g>
<!-- Node1&#45;&gt;Node4 -->
<g id="edge3" class="edge">
<title>Node1&#45;&gt;Node4</title>
<path fill="none" stroke="midnightblue" d="M996.27,-392.32C985.16,-384.11 968.26,-371.6 955.02,-361.81"/>
<polygon fill="midnightblue" stroke="midnightblue" points="957.06,-358.97 946.94,-355.83 952.9,-364.59 957.06,-358.97"/>
</g>
<!-- Node5 -->
<g id="node5" class="node">
<title>Node5</title>
<g id="a_node5"><a xlink:title=" ">
<polygon fill="white" stroke="#bfbfbf" points="212,-0.5 212,-19.5 256,-19.5 256,-0.5 212,-0.5"/>
<text text-anchor="middle" x="234" y="-7.5" font-family="Helvetica,sans-Serif" font-size="10.00">string</text>
</a>
</g>
</g>
<!-- Node1&#45;&gt;Node5 -->
<g id="edge4" class="edge">
<title>Node1&#45;&gt;Node5</title>
<path fill="none" stroke="midnightblue" d="M953.81,-400.83C744.43,-399.47 0,-387.82 0,-291 0,-291 0,-291 0,-121 0,-32.95 137.38,-15.25 201.61,-11.79"/>
<polygon fill="midnightblue" stroke="midnightblue" points="202.15,-15.27 211.99,-11.32 201.84,-8.27 202.15,-15.27"/>
</g>
<!-- Node6 -->
<g id="node6" class="node">
<title>Node6</title>
<g id="a_node6"><a xlink:title=" ">
<polygon fill="white" stroke="#bfbfbf" points="1105.5,-56.5 1105.5,-75.5 1150.5,-75.5 1150.5,-56.5 1105.5,-56.5"/>
<text text-anchor="middle" x="1128" y="-63.5" font-family="Helvetica,sans-Serif" font-size="10.00">utility</text>
</a>
</g>
</g>
<!-- Node1&#45;&gt;Node6 -->
<g id="edge5" class="edge">
<title>Node1&#45;&gt;Node6</title>
<path fill="none" stroke="midnightblue" d="M1062.29,-401.2C1139.03,-398.31 1270,-380.29 1270,-291 1270,-291 1270,-291 1270,-177 1270,-121.83 1202.18,-90.38 1160.28,-76.21"/>
<polygon fill="midnightblue" stroke="midnightblue" points="1161.09,-72.8 1150.5,-73.06 1158.94,-79.46 1161.09,-72.8"/>
</g>
<!-- Node7 -->
<g id="node7" class="node">
<title>Node7</title>
<g id="a_node7"><a xlink:href="_error_statment_8h.html" target="_top" xlink:title=" ">
<polygon fill="white" stroke="black" points="996,-168.5 996,-187.5 1090,-187.5 1090,-168.5 996,-168.5"/>
<text text-anchor="middle" x="1043" y="-175.5" font-family="Helvetica,sans-Serif" font-size="10.00">ErrorStatment.h</text>
</a>
</g>
</g>
<!-- Node1&#45;&gt;Node7 -->
<g id="edge6" class="edge">
<title>Node1&#45;&gt;Node7</title>
<path fill="none" stroke="midnightblue" d="M1015.65,-392.36C1022.83,-383.76 1033.3,-369.86 1039,-356 1061.16,-302.09 1052.68,-230.92 1046.8,-197.65"/>
<polygon fill="midnightblue" stroke="midnightblue" points="1050.19,-196.72 1044.88,-187.55 1043.31,-198.03 1050.19,-196.72"/>
</g>
<!-- Node14 -->
<g id="node14" class="node">
<title>Node14</title>
<g id="a_node14"><a xlink:href="_null_8h.html" target="_top" xlink:title=" ">
<polygon fill="white" stroke="black" points="985.5,-336.5 985.5,-355.5 1030.5,-355.5 1030.5,-336.5 985.5,-336.5"/>
<text text-anchor="middle" x="1008" y="-343.5" font-family="Helvetica,sans-Serif" font-size="10.00">Null.h</text>
</a>
</g>
</g>
<!-- Node1&#45;&gt;Node14 -->
<g id="edge21" class="edge">
<title>Node1&#45;&gt;Node14</title>
<path fill="none" stroke="midnightblue" d="M1008,-392.08C1008,-385.01 1008,-374.86 1008,-365.99"/>
<polygon fill="midnightblue" stroke="midnightblue" points="1011.5,-365.75 1008,-355.75 1004.5,-365.75 1011.5,-365.75"/>
</g>
<!-- Node7&#45;&gt;Node6 -->
<g id="edge7" class="edge">
<title>Node7&#45;&gt;Node6</title>
<path fill="none" stroke="midnightblue" d="M1055.06,-168.4C1066.18,-160.04 1082.64,-146.5 1094,-132 1105.4,-117.46 1114.79,-98.54 1120.8,-84.86"/>
<polygon fill="midnightblue" stroke="midnightblue" points="1124.05,-86.16 1124.7,-75.58 1117.6,-83.44 1124.05,-86.16"/>
</g>
<!-- Node8 -->
<g id="node8" class="node">
<title>Node8</title>
<g id="a_node8"><a xlink:href="_i_statment_8h.html" target="_top" xlink:title=" ">
<polygon fill="white" stroke="black" points="757,-56.5 757,-75.5 831,-75.5 831,-56.5 757,-56.5"/>
<text text-anchor="middle" x="794" y="-63.5" font-family="Helvetica,sans-Serif" font-size="10.00">IStatment.h</text>
</a>
</g>
</g>
<!-- Node7&#45;&gt;Node8 -->
<g id="edge8" class="edge">
<title>Node7&#45;&gt;Node8</title>
<path fill="none" stroke="midnightblue" d="M996.92,-168.43C964.32,-161.31 920.15,-149.49 884,-132 856.57,-118.73 828.69,-97.05 811.38,-82.42"/>
<polygon fill="midnightblue" stroke="midnightblue" points="813.64,-79.75 803.78,-75.87 809.07,-85.05 813.64,-79.75"/>
</g>
<!-- Node9 -->
<g id="node9" class="node">
<title>Node9</title>
<g id="a_node9"><a xlink:href="_i_value_8h.html" target="_top" xlink:title=" ">
<polygon fill="white" stroke="black" points="701,-0.5 701,-19.5 757,-19.5 757,-0.5 701,-0.5"/>
<text text-anchor="middle" x="729" y="-7.5" font-family="Helvetica,sans-Serif" font-size="10.00">IValue.h</text>
</a>
</g>
</g>
<!-- Node7&#45;&gt;Node9 -->
<g id="edge12" class="edge">
<title>Node7&#45;&gt;Node9</title>
<path fill="none" stroke="midnightblue" d="M1062.82,-168.37C1105.24,-148.77 1197.95,-99.24 1159,-56 1132.98,-27.12 867.47,-15.51 767.13,-12.13"/>
<polygon fill="midnightblue" stroke="midnightblue" points="767.22,-8.64 757.11,-11.81 766.99,-15.63 767.22,-8.64"/>
</g>
<!-- Node10 -->
<g id="node10" class="node">
<title>Node10</title>
<g id="a_node10"><a xlink:href="utils_8h.html" target="_top" xlink:title=" ">
<polygon fill="white" stroke="black" points="893.5,-112.5 893.5,-131.5 940.5,-131.5 940.5,-112.5 893.5,-112.5"/>
<text text-anchor="middle" x="917" y="-119.5" font-family="Helvetica,sans-Serif" font-size="10.00">utils.h</text>
</a>
</g>
</g>
<!-- Node7&#45;&gt;Node10 -->
<g id="edge13" class="edge">
<title>Node7&#45;&gt;Node10</title>
<path fill="none" stroke="midnightblue" d="M1023.03,-168.44C1002.39,-159.6 969.94,-145.69 946.37,-135.59"/>
<polygon fill="midnightblue" stroke="midnightblue" points="947.44,-132.24 936.87,-131.52 944.68,-138.67 947.44,-132.24"/>
</g>
<!-- Node8&#45;&gt;Node3 -->
<g id="edge10" class="edge">
<title>Node8&#45;&gt;Node3</title>
<path fill="none" stroke="midnightblue" d="M831.14,-59.17C896.94,-48.84 1033.3,-27.43 1099.83,-16.99"/>
<polygon fill="midnightblue" stroke="midnightblue" points="1100.55,-20.42 1109.89,-15.41 1099.46,-13.51 1100.55,-20.42"/>
</g>
<!-- Node8&#45;&gt;Node5 -->
<g id="edge11" class="edge">
<title>Node8&#45;&gt;Node5</title>
<path fill="none" stroke="midnightblue" d="M756.82,-61.42C653.34,-51.44 363.19,-23.46 266.11,-14.1"/>
<polygon fill="midnightblue" stroke="midnightblue" points="266.31,-10.6 256.02,-13.12 265.64,-17.57 266.31,-10.6"/>
</g>
<!-- Node8&#45;&gt;Node9 -->
<g id="edge9" class="edge">
<title>Node8&#45;&gt;Node9</title>
<path fill="none" stroke="midnightblue" d="M783.56,-56.32C773.85,-48.26 759.18,-36.08 747.5,-26.37"/>
<polygon fill="midnightblue" stroke="midnightblue" points="749.56,-23.53 739.63,-19.83 745.09,-28.92 749.56,-23.53"/>
</g>
<!-- Node10&#45;&gt;Node2 -->
<g id="edge16" class="edge">
<title>Node10&#45;&gt;Node2</title>
<path fill="none" stroke="midnightblue" d="M893.19,-119.86C793.59,-115.03 409.4,-95.6 266.42,-75.93"/>
<polygon fill="midnightblue" stroke="midnightblue" points="266.54,-72.41 256.14,-74.45 265.54,-79.34 266.54,-72.41"/>
</g>
<!-- Node10&#45;&gt;Node3 -->
<g id="edge17" class="edge">
<title>Node10&#45;&gt;Node3</title>
<path fill="none" stroke="midnightblue" d="M938.17,-112.42C959.17,-103.75 992.17,-89.71 1020,-76 1053.38,-59.56 1090.84,-38.45 1114.42,-24.83"/>
<polygon fill="midnightblue" stroke="midnightblue" points="1116.44,-27.7 1123.33,-19.65 1112.92,-21.65 1116.44,-27.7"/>
</g>
<!-- Node10&#45;&gt;Node5 -->
<g id="edge19" class="edge">
<title>Node10&#45;&gt;Node5</title>
<path fill="none" stroke="midnightblue" d="M910.03,-112.31C897.7,-97.66 870.45,-68.43 840,-56 734.61,-12.97 376.24,-10.51 266.32,-10.8"/>
<polygon fill="midnightblue" stroke="midnightblue" points="266.17,-7.3 256.18,-10.83 266.2,-14.3 266.17,-7.3"/>
</g>
<!-- Node10&#45;&gt;Node6 -->
<g id="edge20" class="edge">
<title>Node10&#45;&gt;Node6</title>
<path fill="none" stroke="midnightblue" d="M940.75,-114.24C943.53,-113.47 946.32,-112.71 949,-112 1000.01,-98.42 1059.49,-83.68 1095.42,-74.9"/>
<polygon fill="midnightblue" stroke="midnightblue" points="1096.46,-78.25 1105.34,-72.48 1094.8,-71.45 1096.46,-78.25"/>
</g>
<!-- Node11 -->
<g id="node11" class="node">
<title>Node11</title>
<g id="a_node11"><a xlink:title=" ">
<polygon fill="white" stroke="#bfbfbf" points="274,-56.5 274,-75.5 326,-75.5 326,-56.5 274,-56.5"/>
<text text-anchor="middle" x="300" y="-63.5" font-family="Helvetica,sans-Serif" font-size="10.00">cassert</text>
</a>
</g>
</g>
<!-- Node10&#45;&gt;Node11 -->
<g id="edge14" class="edge">
<title>Node10&#45;&gt;Node11</title>
<path fill="none" stroke="midnightblue" d="M893.37,-119.39C817.62,-114.14 574.03,-96.7 373,-76 361.14,-74.78 348.21,-73.25 336.58,-71.8"/>
<polygon fill="midnightblue" stroke="midnightblue" points="336.69,-68.29 326.33,-70.5 335.81,-75.23 336.69,-68.29"/>
</g>
<!-- Node12 -->
<g id="node12" class="node">
<title>Node12</title>
<g id="a_node12"><a xlink:title=" ">
<polygon fill="white" stroke="#bfbfbf" points="887.5,-56.5 887.5,-75.5 936.5,-75.5 936.5,-56.5 887.5,-56.5"/>
<text text-anchor="middle" x="912" y="-63.5" font-family="Helvetica,sans-Serif" font-size="10.00">cstdlib</text>
</a>
</g>
</g>
<!-- Node10&#45;&gt;Node12 -->
<g id="edge15" class="edge">
<title>Node10&#45;&gt;Node12</title>
<path fill="none" stroke="midnightblue" d="M916.17,-112.08C915.52,-105.01 914.58,-94.86 913.76,-85.99"/>
<polygon fill="midnightblue" stroke="midnightblue" points="917.22,-85.39 912.81,-75.75 910.25,-86.03 917.22,-85.39"/>
</g>
<!-- Node13 -->
<g id="node13" class="node">
<title>Node13</title>
<g id="a_node13"><a xlink:title=" ">
<polygon fill="white" stroke="#bfbfbf" points="955,-56.5 955,-75.5 1011,-75.5 1011,-56.5 955,-56.5"/>
<text text-anchor="middle" x="983" y="-63.5" font-family="Helvetica,sans-Serif" font-size="10.00">sstream</text>
</a>
</g>
</g>
<!-- Node10&#45;&gt;Node13 -->
<g id="edge18" class="edge">
<title>Node10&#45;&gt;Node13</title>
<path fill="none" stroke="midnightblue" d="M927.6,-112.32C937.46,-104.26 952.35,-92.08 964.22,-82.37"/>
<polygon fill="midnightblue" stroke="midnightblue" points="966.68,-84.88 972.2,-75.83 962.25,-79.46 966.68,-84.88"/>
</g>
<!-- Node14&#45;&gt;Node9 -->
<g id="edge55" class="edge">
<title>Node14&#45;&gt;Node9</title>
<path fill="none" stroke="midnightblue" d="M985.38,-338.18C982.25,-337.37 979.06,-336.61 976,-336 885.56,-317.85 152,-327.24 152,-235 152,-235 152,-235 152,-121 152,-88.19 159.55,-73.98 187,-56 228.89,-28.57 573.5,-15.7 690.39,-12.09"/>
<polygon fill="midnightblue" stroke="midnightblue" points="690.77,-15.58 700.66,-11.78 690.56,-8.59 690.77,-15.58"/>
</g>
<!-- Node15 -->
<g id="node15" class="node">
<title>Node15</title>
<g id="a_node15"><a xlink:href="_bind_def_8h.html" target="_top" xlink:title=" ">
<polygon fill="white" stroke="black" points="976,-280.5 976,-299.5 1040,-299.5 1040,-280.5 976,-280.5"/>
<text text-anchor="middle" x="1008" y="-287.5" font-family="Helvetica,sans-Serif" font-size="10.00">BindDef.h</text>
</a>
</g>
</g>
<!-- Node14&#45;&gt;Node15 -->
<g id="edge22" class="edge">
<title>Node14&#45;&gt;Node15</title>
<path fill="none" stroke="midnightblue" d="M1008,-336.08C1008,-329.01 1008,-318.86 1008,-309.99"/>
<polygon fill="midnightblue" stroke="midnightblue" points="1011.5,-309.75 1008,-299.75 1004.5,-309.75 1011.5,-309.75"/>
</g>
<!-- Node15&#45;&gt;Node3 -->
<g id="edge23" class="edge">
<title>Node15&#45;&gt;Node3</title>
<path fill="none" stroke="midnightblue" d="M1024.64,-280.41C1039.85,-272.15 1062.57,-258.77 1080,-244 1130.69,-201.06 1148.06,-190.79 1179,-132 1194.99,-101.61 1207.71,-87.04 1193,-56 1186.87,-43.07 1175.01,-32.62 1163.86,-25.05"/>
<polygon fill="midnightblue" stroke="midnightblue" points="1165.53,-21.97 1155.2,-19.61 1161.81,-27.9 1165.53,-21.97"/>
</g>
<!-- Node15&#45;&gt;Node5 -->
<g id="edge24" class="edge">
<title>Node15&#45;&gt;Node5</title>
<path fill="none" stroke="midnightblue" d="M975.74,-289.54C871.04,-290.28 532.65,-284.56 276,-188 233.66,-172.07 218.65,-167.8 191,-132 174.93,-111.2 176.28,-101.93 172,-76 170.55,-67.23 167.96,-63.92 172,-56 179,-42.27 192.37,-31.75 204.9,-24.35"/>
<polygon fill="midnightblue" stroke="midnightblue" points="206.67,-27.37 213.78,-19.51 203.32,-21.22 206.67,-27.37"/>
</g>
<!-- Node15&#45;&gt;Node6 -->
<g id="edge25" class="edge">
<title>Node15&#45;&gt;Node6</title>
<path fill="none" stroke="midnightblue" d="M1018.4,-280.4C1037.25,-264.25 1077.16,-227.43 1099,-188 1117.25,-155.05 1124.09,-110.84 1126.6,-86.01"/>
<polygon fill="midnightblue" stroke="midnightblue" points="1130.11,-86.05 1127.5,-75.78 1123.14,-85.44 1130.11,-86.05"/>
</g>
<!-- Node16 -->
<g id="node16" class="node">
<title>Node16</title>
<g id="a_node16"><a xlink:href="_expr_8h.html" target="_top" xlink:title=" ">
<polygon fill="white" stroke="black" points="831.5,-224.5 831.5,-243.5 878.5,-243.5 878.5,-224.5 831.5,-224.5"/>
<text text-anchor="middle" x="855" y="-231.5" font-family="Helvetica,sans-Serif" font-size="10.00">Expr.h</text>
</a>
</g>
</g>
<!-- Node15&#45;&gt;Node16 -->
<g id="edge26" class="edge">
<title>Node15&#45;&gt;Node16</title>
<path fill="none" stroke="midnightblue" d="M983.76,-280.44C957.98,-271.35 917.04,-256.9 888.26,-246.74"/>
<polygon fill="midnightblue" stroke="midnightblue" points="889.22,-243.37 878.63,-243.34 886.89,-249.97 889.22,-243.37"/>
</g>
<!-- Node16&#45;&gt;Node3 -->
<g id="edge29" class="edge">
<title>Node16&#45;&gt;Node3</title>
<path fill="none" stroke="midnightblue" d="M878.72,-233.25C924.18,-232.78 1025.58,-227.01 1099,-188 1152.79,-159.42 1165.75,-135.67 1178,-76 1179.79,-67.29 1181.16,-64.31 1178,-56 1173.66,-44.6 1164.97,-34.24 1156.79,-26.34"/>
<polygon fill="midnightblue" stroke="midnightblue" points="1159.04,-23.66 1149.27,-19.57 1154.36,-28.86 1159.04,-23.66"/>
</g>
<!-- Node16&#45;&gt;Node5 -->
<g id="edge30" class="edge">
<title>Node16&#45;&gt;Node5</title>
<path fill="none" stroke="midnightblue" d="M831.49,-233.05C760.35,-232.73 541.54,-228.29 366,-188 297.05,-172.17 272.03,-176.46 217,-132 187.93,-108.51 165.3,-89.92 181,-56 186.92,-43.21 198.47,-32.72 209.28,-25.1"/>
<polygon fill="midnightblue" stroke="midnightblue" points="211.21,-28.02 217.67,-19.61 207.38,-22.16 211.21,-28.02"/>
</g>
<!-- Node16&#45;&gt;Node8 -->
<g id="edge35" class="edge">
<title>Node16&#45;&gt;Node8</title>
<path fill="none" stroke="midnightblue" d="M851.72,-224.08C842.08,-197.83 813.68,-120.55 800.66,-85.12"/>
<polygon fill="midnightblue" stroke="midnightblue" points="803.88,-83.75 797.15,-75.57 797.31,-86.16 803.88,-83.75"/>
</g>
<!-- Node16&#45;&gt;Node11 -->
<g id="edge27" class="edge">
<title>Node16&#45;&gt;Node11</title>
<path fill="none" stroke="midnightblue" d="M831.3,-232.38C735.22,-229.36 376.54,-212.73 306,-132 295.17,-119.61 294.7,-100.37 296.31,-86.03"/>
<polygon fill="midnightblue" stroke="midnightblue" points="299.83,-86.23 297.9,-75.81 292.91,-85.15 299.83,-86.23"/>
</g>
<!-- Node17 -->
<g id="node17" class="node">
<title>Node17</title>
<g id="a_node17"><a xlink:title=" ">
<polygon fill="white" stroke="#bfbfbf" points="855,-168.5 855,-187.5 913,-187.5 913,-168.5 855,-168.5"/>
<text text-anchor="middle" x="884" y="-175.5" font-family="Helvetica,sans-Serif" font-size="10.00">memory</text>
</a>
</g>
</g>
<!-- Node16&#45;&gt;Node17 -->
<g id="edge28" class="edge">
<title>Node16&#45;&gt;Node17</title>
<path fill="none" stroke="midnightblue" d="M859.79,-224.08C863.76,-216.69 869.53,-205.95 874.43,-196.81"/>
<polygon fill="midnightblue" stroke="midnightblue" points="877.65,-198.22 879.3,-187.75 871.49,-194.91 877.65,-198.22"/>
</g>
<!-- Node18 -->
<g id="node18" class="node">
<title>Node18</title>
<g id="a_node18"><a xlink:href="_binding_usage_8h.html" target="_top" xlink:title=" ">
<polygon fill="white" stroke="black" points="958.5,-112.5 958.5,-131.5 1051.5,-131.5 1051.5,-112.5 958.5,-112.5"/>
<text text-anchor="middle" x="1005" y="-119.5" font-family="Helvetica,sans-Serif" font-size="10.00">BindingUsage.h</text>
</a>
</g>
</g>
<!-- Node16&#45;&gt;Node18 -->
<g id="edge31" class="edge">
<title>Node16&#45;&gt;Node18</title>
<path fill="none" stroke="midnightblue" d="M868.29,-224.48C881.95,-215.63 903.74,-201.25 922,-188 944.7,-171.52 969.98,-151.47 986.6,-138.04"/>
<polygon fill="midnightblue" stroke="midnightblue" points="988.89,-140.69 994.45,-131.67 984.48,-135.25 988.89,-140.69"/>
</g>
<!-- Node19 -->
<g id="node19" class="node">
<title>Node19</title>
<g id="a_node19"><a xlink:href="parser_8h.html" target="_top" xlink:title=" ">
<polygon fill="white" stroke="black" points="558,-168.5 558,-187.5 614,-187.5 614,-168.5 558,-168.5"/>
<text text-anchor="middle" x="586" y="-175.5" font-family="Helvetica,sans-Serif" font-size="10.00">parser.h</text>
</a>
</g>
</g>
<!-- Node16&#45;&gt;Node19 -->
<g id="edge36" class="edge">
<title>Node16&#45;&gt;Node19</title>
<path fill="none" stroke="midnightblue" d="M831.13,-228.21C784.4,-218.83 680.53,-197.98 624.16,-186.66"/>
<polygon fill="midnightblue" stroke="midnightblue" points="624.71,-183.2 614.21,-184.66 623.33,-190.06 624.71,-183.2"/>
</g>
<!-- Node18&#45;&gt;Node5 -->
<g id="edge32" class="edge">
<title>Node18&#45;&gt;Node5</title>
<path fill="none" stroke="midnightblue" d="M1011.36,-112.14C1020.48,-98.29 1034.63,-71.49 1020,-56 993.71,-28.16 410.92,-14.57 266.27,-11.62"/>
<polygon fill="midnightblue" stroke="midnightblue" points="266.32,-8.12 256.25,-11.42 266.18,-15.12 266.32,-8.12"/>
</g>
<!-- Node18&#45;&gt;Node6 -->
<g id="edge33" class="edge">
<title>Node18&#45;&gt;Node6</title>
<path fill="none" stroke="midnightblue" d="M1024.49,-112.44C1044.64,-103.6 1076.32,-89.69 1099.33,-79.59"/>
<polygon fill="midnightblue" stroke="midnightblue" points="1100.85,-82.74 1108.6,-75.52 1098.04,-76.33 1100.85,-82.74"/>
</g>
<!-- Node18&#45;&gt;Node8 -->
<g id="edge34" class="edge">
<title>Node18&#45;&gt;Node8</title>
<path fill="none" stroke="midnightblue" d="M971.57,-112.44C935.14,-103.12 876.77,-88.18 836.97,-78"/>
<polygon fill="midnightblue" stroke="midnightblue" points="837.83,-74.61 827.28,-75.52 836.1,-81.39 837.83,-74.61"/>
</g>
<!-- Node19&#45;&gt;Node2 -->
<g id="edge50" class="edge">
<title>Node19&#45;&gt;Node2</title>
<path fill="none" stroke="midnightblue" d="M557.61,-177.2C505.45,-176.56 391.83,-170.42 306,-132 280.37,-120.53 256.1,-98.69 241.15,-83.51"/>
<polygon fill="midnightblue" stroke="midnightblue" points="243.29,-80.69 233.86,-75.87 238.23,-85.52 243.29,-80.69"/>
</g>
<!-- Node19&#45;&gt;Node5 -->
<g id="edge53" class="edge">
<title>Node19&#45;&gt;Node5</title>
<path fill="none" stroke="midnightblue" d="M557.57,-177.1C501.06,-176.4 371.37,-170.35 271,-132 229.09,-115.99 208.17,-115.56 187,-76 177.1,-57.49 195.15,-38.25 211.67,-25.55"/>
<polygon fill="midnightblue" stroke="midnightblue" points="213.94,-28.22 220.01,-19.54 209.85,-22.54 213.94,-28.22"/>
</g>
<!-- Node19&#45;&gt;Node6 -->
<g id="edge54" class="edge">
<title>Node19&#45;&gt;Node6</title>
<path fill="none" stroke="midnightblue" d="M614.22,-176.72C703.67,-175.48 979.75,-168.68 1060,-132 1083.34,-121.33 1103.65,-99.26 1115.86,-83.82"/>
<polygon fill="midnightblue" stroke="midnightblue" points="1118.82,-85.7 1122.07,-75.62 1113.24,-81.48 1118.82,-85.7"/>
</g>
<!-- Node19&#45;&gt;Node8 -->
<g id="edge37" class="edge">
<title>Node19&#45;&gt;Node8</title>
<path fill="none" stroke="midnightblue" d="M614.21,-177.21C652.63,-176.03 721.57,-168.48 765,-132 779.02,-120.22 786.53,-100.29 790.36,-85.6"/>
<polygon fill="midnightblue" stroke="midnightblue" points="793.83,-86.13 792.63,-75.61 787.01,-84.59 793.83,-86.13"/>
</g>
<!-- Node19&#45;&gt;Node9 -->
<g id="edge38" class="edge">
<title>Node19&#45;&gt;Node9</title>
<path fill="none" stroke="midnightblue" d="M614.2,-177.42C648.22,-176.22 704.19,-168.39 731,-132 753.24,-101.81 743.5,-54.89 735.55,-29.25"/>
<polygon fill="midnightblue" stroke="midnightblue" points="738.85,-28.06 732.36,-19.68 732.21,-30.27 738.85,-28.06"/>
</g>
<!-- Node19&#45;&gt;Node10 -->
<g id="edge45" class="edge">
<title>Node19&#45;&gt;Node10</title>
<path fill="none" stroke="midnightblue" d="M614.22,-172.4C674.94,-162.49 817.76,-139.19 883.19,-128.52"/>
<polygon fill="midnightblue" stroke="midnightblue" points="884.06,-131.92 893.37,-126.86 882.94,-125.01 884.06,-131.92"/>
</g>
<!-- Node19&#45;&gt;Node11 -->
<g id="edge46" class="edge">
<title>Node19&#45;&gt;Node11</title>
<path fill="none" stroke="midnightblue" d="M557.93,-175.72C497.62,-172.42 358.25,-161.7 323,-132 309.43,-120.57 303.86,-100.59 301.58,-85.78"/>
<polygon fill="midnightblue" stroke="midnightblue" points="305.04,-85.23 300.4,-75.7 298.09,-86.04 305.04,-85.23"/>
</g>
<!-- Node20 -->
<g id="node20" class="node">
<title>Node20</title>
<g id="a_node20"><a xlink:href="env_8h.html" target="_top" xlink:title=" ">
<polygon fill="white" stroke="black" points="332.5,-112.5 332.5,-131.5 375.5,-131.5 375.5,-112.5 332.5,-112.5"/>
<text text-anchor="middle" x="354" y="-119.5" font-family="Helvetica,sans-Serif" font-size="10.00">env.h</text>
</a>
</g>
</g>
<!-- Node19&#45;&gt;Node20 -->
<g id="edge39" class="edge">
<title>Node19&#45;&gt;Node20</title>
<path fill="none" stroke="midnightblue" d="M557.74,-171.38C520.38,-163.8 452.3,-149.49 385.43,-132.24"/>
<polygon fill="midnightblue" stroke="midnightblue" points="386.14,-128.81 375.58,-129.68 384.37,-135.58 386.14,-128.81"/>
</g>
<!-- Node22 -->
<g id="node22" class="node">
<title>Node22</title>
<g id="a_node22"><a xlink:title=" ">
<polygon fill="white" stroke="#bfbfbf" points="393.5,-112.5 393.5,-131.5 442.5,-131.5 442.5,-112.5 393.5,-112.5"/>
<text text-anchor="middle" x="418" y="-119.5" font-family="Helvetica,sans-Serif" font-size="10.00">cctype</text>
</a>
</g>
</g>
<!-- Node19&#45;&gt;Node22 -->
<g id="edge47" class="edge">
<title>Node19&#45;&gt;Node22</title>
<path fill="none" stroke="midnightblue" d="M559.38,-168.44C530.41,-159.13 484,-144.21 452.31,-134.03"/>
<polygon fill="midnightblue" stroke="midnightblue" points="453.17,-130.63 442.58,-130.9 451.03,-137.29 453.17,-130.63"/>
</g>
<!-- Node23 -->
<g id="node23" class="node">
<title>Node23</title>
<g id="a_node23"><a xlink:title=" ">
<polygon fill="white" stroke="#bfbfbf" points="460.5,-112.5 460.5,-131.5 507.5,-131.5 507.5,-112.5 460.5,-112.5"/>
<text text-anchor="middle" x="484" y="-119.5" font-family="Helvetica,sans-Serif" font-size="10.00">cmath</text>
</a>
</g>
</g>
<!-- Node19&#45;&gt;Node23 -->
<g id="edge48" class="edge">
<title>Node19&#45;&gt;Node23</title>
<path fill="none" stroke="midnightblue" d="M569.61,-168.32C553.33,-159.7 528.13,-146.36 509.28,-136.39"/>
<polygon fill="midnightblue" stroke="midnightblue" points="510.82,-133.24 500.35,-131.65 507.55,-139.43 510.82,-133.24"/>
</g>
<!-- Node24 -->
<g id="node24" class="node">
<title>Node24</title>
<g id="a_node24"><a xlink:title=" ">
<polygon fill="white" stroke="#bfbfbf" points="526,-112.5 526,-131.5 576,-131.5 576,-112.5 526,-112.5"/>
<text text-anchor="middle" x="551" y="-119.5" font-family="Helvetica,sans-Serif" font-size="10.00">cstring</text>
</a>
</g>
</g>
<!-- Node19&#45;&gt;Node24 -->
<g id="edge49" class="edge">
<title>Node19&#45;&gt;Node24</title>
<path fill="none" stroke="midnightblue" d="M580.22,-168.08C575.33,-160.53 568.17,-149.49 562.17,-140.23"/>
<polygon fill="midnightblue" stroke="midnightblue" points="565.05,-138.24 556.67,-131.75 559.17,-142.05 565.05,-138.24"/>
</g>
<!-- Node25 -->
<g id="node25" class="node">
<title>Node25</title>
<g id="a_node25"><a xlink:title=" ">
<polygon fill="white" stroke="#bfbfbf" points="594.5,-112.5 594.5,-131.5 647.5,-131.5 647.5,-112.5 594.5,-112.5"/>
<text text-anchor="middle" x="621" y="-119.5" font-family="Helvetica,sans-Serif" font-size="10.00">iterator</text>
</a>
</g>
</g>
<!-- Node19&#45;&gt;Node25 -->
<g id="edge51" class="edge">
<title>Node19&#45;&gt;Node25</title>
<path fill="none" stroke="midnightblue" d="M591.78,-168.08C596.67,-160.53 603.83,-149.49 609.83,-140.23"/>
<polygon fill="midnightblue" stroke="midnightblue" points="612.83,-142.05 615.33,-131.75 606.95,-138.24 612.83,-142.05"/>
</g>
<!-- Node26 -->
<g id="node26" class="node">
<title>Node26</title>
<g id="a_node26"><a xlink:title=" ">
<polygon fill="white" stroke="#bfbfbf" points="665.5,-112.5 665.5,-131.5 722.5,-131.5 722.5,-112.5 665.5,-112.5"/>
<text text-anchor="middle" x="694" y="-119.5" font-family="Helvetica,sans-Serif" font-size="10.00">ostream</text>
</a>
</g>
</g>
<!-- Node19&#45;&gt;Node26 -->
<g id="edge52" class="edge">
<title>Node19&#45;&gt;Node26</title>
<path fill="none" stroke="midnightblue" d="M603.35,-168.32C620.67,-159.66 647.52,-146.24 667.5,-136.25"/>
<polygon fill="midnightblue" stroke="midnightblue" points="669.31,-139.26 676.69,-131.65 666.18,-133 669.31,-139.26"/>
</g>
<!-- Node20&#45;&gt;Node3 -->
<g id="edge42" class="edge">
<title>Node20&#45;&gt;Node3</title>
<path fill="none" stroke="midnightblue" d="M375.54,-114.15C378.37,-113.36 381.24,-112.62 384,-112 654.51,-50.93 988.53,-22.09 1099.88,-13.7"/>
<polygon fill="midnightblue" stroke="midnightblue" points="1100.24,-17.18 1109.95,-12.95 1099.72,-10.2 1100.24,-17.18"/>
</g>
<!-- Node20&#45;&gt;Node5 -->
<g id="edge43" class="edge">
<title>Node20&#45;&gt;Node5</title>
<path fill="none" stroke="midnightblue" d="M353.71,-112.33C352.82,-98.74 349.23,-72.29 335,-56 317.15,-35.56 288.22,-23.98 265.89,-17.7"/>
<polygon fill="midnightblue" stroke="midnightblue" points="266.71,-14.29 256.15,-15.17 264.95,-21.07 266.71,-14.29"/>
</g>
<!-- Node20&#45;&gt;Node8 -->
<g id="edge40" class="edge">
<title>Node20&#45;&gt;Node8</title>
<path fill="none" stroke="midnightblue" d="M375.51,-114.04C378.35,-113.27 381.23,-112.56 384,-112 452.33,-98.12 653.97,-79.32 746.55,-71.11"/>
<polygon fill="midnightblue" stroke="midnightblue" points="747.1,-74.58 756.75,-70.21 746.48,-67.6 747.1,-74.58"/>
</g>
<!-- Node20&#45;&gt;Node9 -->
<g id="edge41" class="edge">
<title>Node20&#45;&gt;Node9</title>
<path fill="none" stroke="midnightblue" d="M375.62,-114.49C378.44,-113.65 381.29,-112.8 384,-112 495.38,-78.99 627.18,-40.59 690.83,-22.09"/>
<polygon fill="midnightblue" stroke="midnightblue" points="692.18,-25.34 700.81,-19.18 690.23,-18.61 692.18,-25.34"/>
</g>
<!-- Node21 -->
<g id="node21" class="node">
<title>Node21</title>
<g id="a_node21"><a xlink:title=" ">
<polygon fill="white" stroke="#bfbfbf" points="382.5,-56.5 382.5,-75.5 475.5,-75.5 475.5,-56.5 382.5,-56.5"/>
<text text-anchor="middle" x="429" y="-63.5" font-family="Helvetica,sans-Serif" font-size="10.00">unordered_map</text>
</a>
</g>
</g>
<!-- Node20&#45;&gt;Node21 -->
<g id="edge44" class="edge">
<title>Node20&#45;&gt;Node21</title>
<path fill="none" stroke="midnightblue" d="M366.05,-112.32C377.46,-104.11 394.83,-91.6 408.43,-81.81"/>
<polygon fill="midnightblue" stroke="midnightblue" points="410.66,-84.52 416.73,-75.83 406.57,-78.84 410.66,-84.52"/>
</g>
</g>
</svg>
        <g id="navigator" transform="translate(0 0)" fill="#404254">
                <rect fill="#f2f5e9" fill-opacity="0.5" stroke="#606060" stroke-width=".5" x="0" y="0" width="60" height="60"/>
                <use id="zoomplus" xlink:href="#zoomPlus" x="17" y="9" onmousedown="handleZoom(evt,'in')"/>
                <use id="zoomminus" xlink:href="#zoomMin" x="42" y="9" onmousedown="handleZoom(evt,'out')"/>
                <use id="reset" xlink:href="#resetDef" x="30" y="36" onmousedown="handleReset()"/>
                <g id="arrowUp" xlink:href="#dirArrow" transform="translate(30 24)" onmousedown="handlePan(0,-1)">
                  <use xlink:href="#rim" fill="#404040">
                        <set attributeName="fill" to="#808080" begin="arrowUp.mouseover" end="arrowUp.mouseout"/>
                  </use>
                  <path fill="none" stroke="white" stroke-width="1.5" d="M0,-3.0v7 M-2.5,-0.5L0,-3.0L2.5,-0.5"/>
                </g>
                <g id="arrowRight" xlink:href="#dirArrow" transform="rotate(90) translate(36 -43)" onmousedown="handlePan(1,0)">
                  <use xlink:href="#rim" fill="#404040">
                        <set attributeName="fill" to="#808080" begin="arrowRight.mouseover" end="arrowRight.mouseout"/>
                  </use>
                  <path fill="none" stroke="white" stroke-width="1.5" d="M0,-3.0v7 M-2.5,-0.5L0,-3.0L2.5,-0.5"/>
                </g>
                <g id="arrowDown" xlink:href="#dirArrow" transform="rotate(180) translate(-30 -48)" onmousedown="handlePan(0,1)">
                  <use xlink:href="#rim" fill="#404040">
                        <set attributeName="fill" to="#808080" begin="arrowDown.mouseover" end="arrowDown.mouseout"/>
                  </use>
                  <path fill="none" stroke="white" stroke-width="1.5" d="M0,-3.0v7 M-2.5,-0.5L0,-3.0L2.5,-0.5"/>
                </g>
                <g id="arrowLeft" xlink:href="#dirArrow" transform="rotate(270) translate(-36 17)" onmousedown="handlePan(-1,0)">
                  <use xlink:href="#rim" fill="#404040">
                        <set attributeName="fill" to="#808080" begin="arrowLeft.mouseover" end="arrowLeft.mouseout"/>
                  </use>
                  <path fill="none" stroke="white" stroke-width="1.5" d="M0,-3.0v7 M-2.5,-0.5L0,-3.0L2.5,-0.5"/>
                </g>
        </g>
        <svg viewBox="0 0 15 15" width="100%" height="30px" preserveAspectRatio="xMaxYMin meet">
         <g id="arrow_out" transform="scale(0.3 0.3)">
          <a xlink:href="parser_8cc__incl_org.svg" target="_base">
           <rect id="button" ry="5" rx="5" y="6" x="6" height="38" width="38"
                fill="#f2f5e9" fill-opacity="0.5" stroke="#606060" stroke-width="1.0"/>
           <path id="arrow"
             d="M 11.500037,31.436501 C 11.940474,20.09759 22.043105,11.32322 32.158766,21.979434 L 37.068811,17.246167 C 37.068811,17.246167 37.088388,32 37.088388,32 L 22.160133,31.978069 C 22.160133,31.978069 26.997745,27.140456 26.997745,27.140456 C 18.528582,18.264221 13.291696,25.230495 11.500037,31.436501 z"
             style="fill:#404040;"/>
          </a>
         </g>
        </svg>
</svg>
