<?xml version="1.0" encoding="UTF-8" standalone="no"?>
<!DOCTYPE svg PUBLIC "-//W3C//DTD SVG 1.1//EN"
 "http://www.w3.org/Graphics/SVG/1.1/DTD/svg11.dtd">
<!-- Generated by graphviz version 2.43.0 (0)
 -->
<!-- Title: print Pages: 1 -->
<svg width="188pt" height="47pt"
 viewBox="0.00 0.00 188.00 47.00" xmlns="http://www.w3.org/2000/svg" xmlns:xlink="http://www.w3.org/1999/xlink">
<g id="graph0" class="graph" transform="scale(1 1) rotate(0) translate(4 43)">
<title>print</title>
<polygon fill="white" stroke="transparent" points="-4,4 -4,-43 184,-43 184,4 -4,4"/>
<!-- Node1 -->
<g id="node1" class="node">
<title>Node1</title>
<g id="a_node1"><a xlink:title=" ">
<polygon fill="#bfbfbf" stroke="black" points="0,-0.5 0,-19.5 39,-19.5 39,-0.5 0,-0.5"/>
<text text-anchor="middle" x="19.5" y="-7.5" font-family="Helvetica,sans-Serif" font-size="10.00">print</text>
</a>
</g>
</g>
<!-- Node2 -->
<g id="node2" class="node">
<title>Node2</title>
<g id="a_node2"><a xlink:href="210-_evt-_event_listeners_8cpp.html#a91b9457094088a57b7ba14d485a8771e" target="_top" xlink:title=" ">
<polygon fill="white" stroke="black" points="75,-19.5 75,-38.5 114,-38.5 114,-19.5 75,-19.5"/>
<text text-anchor="middle" x="94.5" y="-26.5" font-family="Helvetica,sans-Serif" font-size="10.00">print</text>
</a>
</g>
</g>
<!-- Node1&#45;&gt;Node2 -->
<g id="edge1" class="edge">
<title>Node1&#45;&gt;Node2</title>
<path fill="none" stroke="midnightblue" d="M39.3,-14.89C47.13,-16.93 56.4,-19.34 65.04,-21.59"/>
<polygon fill="midnightblue" stroke="midnightblue" points="64.21,-24.99 74.76,-24.12 65.97,-18.22 64.21,-24.99"/>
</g>
<!-- Node3 -->
<g id="node3" class="node">
<title>Node3</title>
<g id="a_node3"><a xlink:href="210-_evt-_event_listeners_8cpp.html#aaf05ec28baf9169e247960554e9ffbcb" target="_top" xlink:title=" ">
<polygon fill="white" stroke="black" points="150,-0.5 150,-19.5 180,-19.5 180,-0.5 150,-0.5"/>
<text text-anchor="middle" x="165" y="-7.5" font-family="Helvetica,sans-Serif" font-size="10.00">ws</text>
</a>
</g>
</g>
<!-- Node1&#45;&gt;Node3 -->
<g id="edge3" class="edge">
<title>Node1&#45;&gt;Node3</title>
<path fill="none" stroke="midnightblue" d="M39.26,-10C65.01,-10 111.35,-10 139.72,-10"/>
<polygon fill="midnightblue" stroke="midnightblue" points="139.98,-13.5 149.98,-10 139.98,-6.5 139.98,-13.5"/>
</g>
<!-- Node2&#45;&gt;Node3 -->
<g id="edge2" class="edge">
<title>Node2&#45;&gt;Node3</title>
<path fill="none" stroke="midnightblue" d="M114.22,-23.81C122.22,-21.59 131.65,-18.97 140.14,-16.62"/>
<polygon fill="midnightblue" stroke="midnightblue" points="141.17,-19.97 149.87,-13.92 139.3,-13.22 141.17,-19.97"/>
</g>
</g>
</svg>
