<?xml version="1.0" encoding="UTF-8" standalone="no"?>
<!DOCTYPE svg PUBLIC "-//W3C//DTD SVG 1.1//EN"
 "http://www.w3.org/Graphics/SVG/1.1/DTD/svg11.dtd">
<!-- Generated by graphviz version 2.43.0 (0)
 -->
<!-- Title: language/lib/Catch2/examples/301&#45;Gen&#45;MapTypeConversion.cpp Pages: 1 -->
<svg width="1085pt" height="151pt"
 viewBox="0.00 0.00 1085.00 151.00" xmlns="http://www.w3.org/2000/svg" xmlns:xlink="http://www.w3.org/1999/xlink">
<g id="graph0" class="graph" transform="scale(1 1) rotate(0) translate(4 147)">
<title>language/lib/Catch2/examples/301&#45;Gen&#45;MapTypeConversion.cpp</title>
<polygon fill="white" stroke="transparent" points="-4,4 -4,-147 1081,-147 1081,4 -4,4"/>
<!-- Node1 -->
<g id="node1" class="node">
<title>Node1</title>
<g id="a_node1"><a xlink:title=" ">
<polygon fill="#bfbfbf" stroke="black" points="361,-112.5 361,-142.5 595,-142.5 595,-112.5 361,-112.5"/>
<text text-anchor="start" x="369" y="-130.5" font-family="Helvetica,sans-Serif" font-size="10.00">language/lib/Catch2</text>
<text text-anchor="middle" x="478" y="-119.5" font-family="Helvetica,sans-Serif" font-size="10.00">/examples/301&#45;Gen&#45;MapTypeConversion.cpp</text>
</a>
</g>
</g>
<!-- Node2 -->
<g id="node2" class="node">
<title>Node2</title>
<g id="a_node2"><a xlink:href="single__include_2catch2_2catch_8hpp.html" target="_top" xlink:title=" ">
<polygon fill="white" stroke="black" points="428.5,-56.5 428.5,-75.5 527.5,-75.5 527.5,-56.5 428.5,-56.5"/>
<text text-anchor="middle" x="478" y="-63.5" font-family="Helvetica,sans-Serif" font-size="10.00">catch2/catch.hpp</text>
</a>
</g>
</g>
<!-- Node1&#45;&gt;Node2 -->
<g id="edge1" class="edge">
<title>Node1&#45;&gt;Node2</title>
<path fill="none" stroke="midnightblue" d="M478,-112.4C478,-104.47 478,-94.46 478,-85.86"/>
<polygon fill="midnightblue" stroke="midnightblue" points="481.5,-85.66 478,-75.66 474.5,-85.66 481.5,-85.66"/>
</g>
<!-- Node4 -->
<g id="node4" class="node">
<title>Node4</title>
<g id="a_node4"><a xlink:title=" ">
<polygon fill="white" stroke="#bfbfbf" points="0,-0.5 0,-19.5 44,-19.5 44,-0.5 0,-0.5"/>
<text text-anchor="middle" x="22" y="-7.5" font-family="Helvetica,sans-Serif" font-size="10.00">string</text>
</a>
</g>
</g>
<!-- Node1&#45;&gt;Node4 -->
<g id="edge17" class="edge">
<title>Node1&#45;&gt;Node4</title>
<path fill="none" stroke="midnightblue" d="M419.04,-112.46C338.74,-93.17 190.32,-56.94 54.11,-20.23"/>
<polygon fill="midnightblue" stroke="midnightblue" points="54.89,-16.82 44.32,-17.59 53.06,-23.57 54.89,-16.82"/>
</g>
<!-- Node18 -->
<g id="node18" class="node">
<title>Node18</title>
<g id="a_node18"><a xlink:title=" ">
<polygon fill="white" stroke="#bfbfbf" points="546,-56.5 546,-75.5 602,-75.5 602,-56.5 546,-56.5"/>
<text text-anchor="middle" x="574" y="-63.5" font-family="Helvetica,sans-Serif" font-size="10.00">sstream</text>
</a>
</g>
</g>
<!-- Node1&#45;&gt;Node18 -->
<g id="edge18" class="edge">
<title>Node1&#45;&gt;Node18</title>
<path fill="none" stroke="midnightblue" d="M500.75,-112.4C515.99,-102.95 535.99,-90.56 551.24,-81.11"/>
<polygon fill="midnightblue" stroke="midnightblue" points="553.38,-83.9 560.03,-75.66 549.69,-77.95 553.38,-83.9"/>
</g>
<!-- Node3 -->
<g id="node3" class="node">
<title>Node3</title>
<g id="a_node3"><a xlink:title=" ">
<polygon fill="white" stroke="#bfbfbf" points="62,-0.5 62,-19.5 110,-19.5 110,-0.5 62,-0.5"/>
<text text-anchor="middle" x="86" y="-7.5" font-family="Helvetica,sans-Serif" font-size="10.00">iosfwd</text>
</a>
</g>
</g>
<!-- Node2&#45;&gt;Node3 -->
<g id="edge2" class="edge">
<title>Node2&#45;&gt;Node3</title>
<path fill="none" stroke="midnightblue" d="M428.29,-61.01C360.64,-55.09 235.7,-42.4 120.14,-19.97"/>
<polygon fill="midnightblue" stroke="midnightblue" points="120.55,-16.48 110.06,-17.98 119.19,-23.35 120.55,-16.48"/>
</g>
<!-- Node2&#45;&gt;Node4 -->
<g id="edge3" class="edge">
<title>Node2&#45;&gt;Node4</title>
<path fill="none" stroke="midnightblue" d="M428.5,-62.61C350.65,-58.22 194.85,-46.94 54.33,-19.94"/>
<polygon fill="midnightblue" stroke="midnightblue" points="54.72,-16.45 44.24,-17.97 53.38,-23.32 54.72,-16.45"/>
</g>
<!-- Node5 -->
<g id="node5" class="node">
<title>Node5</title>
<g id="a_node5"><a xlink:title=" ">
<polygon fill="white" stroke="#bfbfbf" points="128,-0.5 128,-19.5 178,-19.5 178,-0.5 128,-0.5"/>
<text text-anchor="middle" x="153" y="-7.5" font-family="Helvetica,sans-Serif" font-size="10.00">cstdint</text>
</a>
</g>
</g>
<!-- Node2&#45;&gt;Node5 -->
<g id="edge4" class="edge">
<title>Node2&#45;&gt;Node5</title>
<path fill="none" stroke="midnightblue" d="M428.48,-58.82C370.53,-51.23 271.84,-37.24 188,-20 187.9,-19.98 187.8,-19.96 187.7,-19.94"/>
<polygon fill="midnightblue" stroke="midnightblue" points="188.69,-16.57 178.17,-17.78 187.15,-23.4 188.69,-16.57"/>
</g>
<!-- Node6 -->
<g id="node6" class="node">
<title>Node6</title>
<g id="a_node6"><a xlink:title=" ">
<polygon fill="white" stroke="#bfbfbf" points="196.5,-0.5 196.5,-19.5 243.5,-19.5 243.5,-0.5 196.5,-0.5"/>
<text text-anchor="middle" x="220" y="-7.5" font-family="Helvetica,sans-Serif" font-size="10.00">vector</text>
</a>
</g>
</g>
<!-- Node2&#45;&gt;Node6 -->
<g id="edge5" class="edge">
<title>Node2&#45;&gt;Node6</title>
<path fill="none" stroke="midnightblue" d="M430.39,-56.46C386.85,-48.43 320.46,-35.64 253.61,-20.01"/>
<polygon fill="midnightblue" stroke="midnightblue" points="254.28,-16.57 243.74,-17.69 252.67,-23.39 254.28,-16.57"/>
</g>
<!-- Node7 -->
<g id="node7" class="node">
<title>Node7</title>
<g id="a_node7"><a xlink:title=" ">
<polygon fill="white" stroke="#bfbfbf" points="261.5,-0.5 261.5,-19.5 314.5,-19.5 314.5,-0.5 261.5,-0.5"/>
<text text-anchor="middle" x="288" y="-7.5" font-family="Helvetica,sans-Serif" font-size="10.00">cstddef</text>
</a>
</g>
</g>
<!-- Node2&#45;&gt;Node7 -->
<g id="edge6" class="edge">
<title>Node2&#45;&gt;Node7</title>
<path fill="none" stroke="midnightblue" d="M447.89,-56.44C414.47,-46.94 360.5,-31.61 324.65,-21.41"/>
<polygon fill="midnightblue" stroke="midnightblue" points="325.17,-17.93 314.59,-18.56 323.26,-24.66 325.17,-17.93"/>
</g>
<!-- Node8 -->
<g id="node8" class="node">
<title>Node8</title>
<g id="a_node8"><a xlink:title=" ">
<polygon fill="white" stroke="#bfbfbf" points="333,-0.5 333,-19.5 385,-19.5 385,-0.5 333,-0.5"/>
<text text-anchor="middle" x="359" y="-7.5" font-family="Helvetica,sans-Serif" font-size="10.00">cassert</text>
</a>
</g>
</g>
<!-- Node2&#45;&gt;Node8 -->
<g id="edge7" class="edge">
<title>Node2&#45;&gt;Node8</title>
<path fill="none" stroke="midnightblue" d="M459.14,-56.44C439.73,-47.64 409.27,-33.81 387.04,-23.72"/>
<polygon fill="midnightblue" stroke="midnightblue" points="388.32,-20.46 377.77,-19.52 385.43,-26.84 388.32,-20.46"/>
</g>
<!-- Node9 -->
<g id="node9" class="node">
<title>Node9</title>
<g id="a_node9"><a xlink:title=" ">
<polygon fill="white" stroke="#bfbfbf" points="403.5,-0.5 403.5,-19.5 472.5,-19.5 472.5,-0.5 403.5,-0.5"/>
<text text-anchor="middle" x="438" y="-7.5" font-family="Helvetica,sans-Serif" font-size="10.00">type_traits</text>
</a>
</g>
</g>
<!-- Node2&#45;&gt;Node9 -->
<g id="edge8" class="edge">
<title>Node2&#45;&gt;Node9</title>
<path fill="none" stroke="midnightblue" d="M471.39,-56.08C465.74,-48.46 457.46,-37.26 450.55,-27.94"/>
<polygon fill="midnightblue" stroke="midnightblue" points="453.25,-25.7 444.48,-19.75 447.62,-29.87 453.25,-25.7"/>
</g>
<!-- Node10 -->
<g id="node10" class="node">
<title>Node10</title>
<g id="a_node10"><a xlink:title=" ">
<polygon fill="white" stroke="#bfbfbf" points="490.5,-0.5 490.5,-19.5 547.5,-19.5 547.5,-0.5 490.5,-0.5"/>
<text text-anchor="middle" x="519" y="-7.5" font-family="Helvetica,sans-Serif" font-size="10.00">ostream</text>
</a>
</g>
</g>
<!-- Node2&#45;&gt;Node10 -->
<g id="edge9" class="edge">
<title>Node2&#45;&gt;Node10</title>
<path fill="none" stroke="midnightblue" d="M484.77,-56.08C490.56,-48.46 499.06,-37.26 506.14,-27.94"/>
<polygon fill="midnightblue" stroke="midnightblue" points="509.1,-29.83 512.36,-19.75 503.52,-25.6 509.1,-29.83"/>
</g>
<!-- Node11 -->
<g id="node11" class="node">
<title>Node11</title>
<g id="a_node11"><a xlink:title=" ">
<polygon fill="white" stroke="#bfbfbf" points="566,-0.5 566,-19.5 616,-19.5 616,-0.5 566,-0.5"/>
<text text-anchor="middle" x="591" y="-7.5" font-family="Helvetica,sans-Serif" font-size="10.00">chrono</text>
</a>
</g>
</g>
<!-- Node2&#45;&gt;Node11 -->
<g id="edge10" class="edge">
<title>Node2&#45;&gt;Node11</title>
<path fill="none" stroke="midnightblue" d="M495.91,-56.44C514.25,-47.68 543.01,-33.94 564.09,-23.86"/>
<polygon fill="midnightblue" stroke="midnightblue" points="565.67,-26.99 573.18,-19.52 562.65,-20.67 565.67,-26.99"/>
</g>
<!-- Node12 -->
<g id="node12" class="node">
<title>Node12</title>
<g id="a_node12"><a xlink:title=" ">
<polygon fill="white" stroke="#bfbfbf" points="634,-0.5 634,-19.5 692,-19.5 692,-0.5 634,-0.5"/>
<text text-anchor="middle" x="663" y="-7.5" font-family="Helvetica,sans-Serif" font-size="10.00">memory</text>
</a>
</g>
</g>
<!-- Node2&#45;&gt;Node12 -->
<g id="edge11" class="edge">
<title>Node2&#45;&gt;Node12</title>
<path fill="none" stroke="midnightblue" d="M507.31,-56.44C538.84,-47.24 589.13,-32.56 623.99,-22.39"/>
<polygon fill="midnightblue" stroke="midnightblue" points="625.2,-25.68 633.82,-19.52 623.24,-18.96 625.2,-25.68"/>
</g>
<!-- Node13 -->
<g id="node13" class="node">
<title>Node13</title>
<g id="a_node13"><a xlink:title=" ">
<polygon fill="white" stroke="#bfbfbf" points="710.5,-0.5 710.5,-19.5 775.5,-19.5 775.5,-0.5 710.5,-0.5"/>
<text text-anchor="middle" x="743" y="-7.5" font-family="Helvetica,sans-Serif" font-size="10.00">exception</text>
</a>
</g>
</g>
<!-- Node2&#45;&gt;Node13 -->
<g id="edge12" class="edge">
<title>Node2&#45;&gt;Node13</title>
<path fill="none" stroke="midnightblue" d="M521.2,-56.44C564.04,-47.92 631.82,-34.34 700.34,-20.12"/>
<polygon fill="midnightblue" stroke="midnightblue" points="701.37,-23.48 710.45,-18.02 699.95,-16.62 701.37,-23.48"/>
</g>
<!-- Node14 -->
<g id="node14" class="node">
<title>Node14</title>
<g id="a_node14"><a xlink:title=" ">
<polygon fill="white" stroke="#bfbfbf" points="793.5,-0.5 793.5,-19.5 858.5,-19.5 858.5,-0.5 793.5,-0.5"/>
<text text-anchor="middle" x="826" y="-7.5" font-family="Helvetica,sans-Serif" font-size="10.00">functional</text>
</a>
</g>
</g>
<!-- Node2&#45;&gt;Node14 -->
<g id="edge13" class="edge">
<title>Node2&#45;&gt;Node14</title>
<path fill="none" stroke="midnightblue" d="M527.57,-57.41C530.76,-56.93 533.93,-56.46 537,-56 643.94,-40.08 673.7,-39.95 783.23,-20.22"/>
<polygon fill="midnightblue" stroke="midnightblue" points="784.15,-23.61 793.37,-18.38 782.9,-16.73 784.15,-23.61"/>
</g>
<!-- Node15 -->
<g id="node15" class="node">
<title>Node15</title>
<g id="a_node15"><a xlink:title=" ">
<polygon fill="white" stroke="#bfbfbf" points="877,-0.5 877,-19.5 941,-19.5 941,-0.5 877,-0.5"/>
<text text-anchor="middle" x="909" y="-7.5" font-family="Helvetica,sans-Serif" font-size="10.00">algorithm</text>
</a>
</g>
</g>
<!-- Node2&#45;&gt;Node15 -->
<g id="edge14" class="edge">
<title>Node2&#45;&gt;Node15</title>
<path fill="none" stroke="midnightblue" d="M527.55,-57.28C530.75,-56.83 533.92,-56.4 537,-56 680.44,-37.27 720.19,-43.59 866.57,-20.07"/>
<polygon fill="midnightblue" stroke="midnightblue" points="867.53,-23.46 876.83,-18.4 866.4,-16.56 867.53,-23.46"/>
</g>
<!-- Node16 -->
<g id="node16" class="node">
<title>Node16</title>
<g id="a_node16"><a xlink:title=" ">
<polygon fill="white" stroke="#bfbfbf" points="959.5,-0.5 959.5,-19.5 1004.5,-19.5 1004.5,-0.5 959.5,-0.5"/>
<text text-anchor="middle" x="982" y="-7.5" font-family="Helvetica,sans-Serif" font-size="10.00">utility</text>
</a>
</g>
</g>
<!-- Node2&#45;&gt;Node16 -->
<g id="edge15" class="edge">
<title>Node2&#45;&gt;Node16</title>
<path fill="none" stroke="midnightblue" d="M527.54,-57.21C530.74,-56.78 533.91,-56.37 537,-56 716.73,-34.48 766.99,-52.43 949.47,-19.73"/>
<polygon fill="midnightblue" stroke="midnightblue" points="950.18,-23.16 959.4,-17.92 948.93,-16.27 950.18,-23.16"/>
</g>
<!-- Node17 -->
<g id="node17" class="node">
<title>Node17</title>
<g id="a_node17"><a xlink:title=" ">
<polygon fill="white" stroke="#bfbfbf" points="1023,-0.5 1023,-19.5 1077,-19.5 1077,-0.5 1023,-0.5"/>
<text text-anchor="middle" x="1050" y="-7.5" font-family="Helvetica,sans-Serif" font-size="10.00">random</text>
</a>
</g>
</g>
<!-- Node2&#45;&gt;Node17 -->
<g id="edge16" class="edge">
<title>Node2&#45;&gt;Node17</title>
<path fill="none" stroke="midnightblue" d="M527.54,-57.16C530.74,-56.74 533.91,-56.35 537,-56 744.94,-32.33 802.33,-53.23 1012.83,-19.91"/>
<polygon fill="midnightblue" stroke="midnightblue" points="1013.66,-23.32 1022.98,-18.28 1012.55,-16.41 1013.66,-23.32"/>
</g>
</g>
</svg>
