<?xml version="1.0" encoding="UTF-8" standalone="no"?>
<!DOCTYPE svg PUBLIC "-//W3C//DTD SVG 1.1//EN"
 "http://www.w3.org/Graphics/SVG/1.1/DTD/svg11.dtd">
<!-- Generated by graphviz version 2.43.0 (0)
 -->
<!-- Title: language/BindDef.h Pages: 1 -->
<svg width="1485pt" height="140pt"
 viewBox="0.00 0.00 1485.00 140.00" xmlns="http://www.w3.org/2000/svg" xmlns:xlink="http://www.w3.org/1999/xlink">
<g id="graph0" class="graph" transform="scale(1 1) rotate(0) translate(4 136)">
<title>language/BindDef.h</title>
<polygon fill="white" stroke="transparent" points="-4,4 -4,-136 1481,-136 1481,4 -4,4"/>
<!-- Node1 -->
<g id="node1" class="node">
<title>Node1</title>
<g id="a_node1"><a xlink:title=" ">
<polygon fill="#bfbfbf" stroke="black" points="914.5,-112.5 914.5,-131.5 1026.5,-131.5 1026.5,-112.5 914.5,-112.5"/>
<text text-anchor="middle" x="970.5" y="-119.5" font-family="Helvetica,sans-Serif" font-size="10.00">language/BindDef.h</text>
</a>
</g>
</g>
<!-- Node2 -->
<g id="node2" class="node">
<title>Node2</title>
<g id="a_node2"><a xlink:href="_bind_def_8cc.html" target="_top" xlink:title=" ">
<polygon fill="white" stroke="black" points="670.5,-56.5 670.5,-75.5 786.5,-75.5 786.5,-56.5 670.5,-56.5"/>
<text text-anchor="middle" x="728.5" y="-63.5" font-family="Helvetica,sans-Serif" font-size="10.00">language/BindDef.cc</text>
</a>
</g>
</g>
<!-- Node1&#45;&gt;Node2 -->
<g id="edge1" class="edge">
<title>Node1&#45;&gt;Node2</title>
<path fill="none" stroke="midnightblue" d="M922.18,-110.22C876.45,-100.01 808.72,-84.9 766.67,-75.52"/>
<polygon fill="midnightblue" stroke="midnightblue" points="921.63,-113.68 932.15,-112.44 923.16,-106.85 921.63,-113.68"/>
</g>
<!-- Node3 -->
<g id="node3" class="node">
<title>Node3</title>
<g id="a_node3"><a xlink:href="_null_8h.html" target="_top" xlink:title=" ">
<polygon fill="white" stroke="black" points="805,-56.5 805,-75.5 898,-75.5 898,-56.5 805,-56.5"/>
<text text-anchor="middle" x="851.5" y="-63.5" font-family="Helvetica,sans-Serif" font-size="10.00">language/Null.h</text>
</a>
</g>
</g>
<!-- Node1&#45;&gt;Node3 -->
<g id="edge2" class="edge">
<title>Node1&#45;&gt;Node3</title>
<path fill="none" stroke="midnightblue" d="M942.36,-108.23C920.1,-98.13 889.64,-84.31 870.27,-75.52"/>
<polygon fill="midnightblue" stroke="midnightblue" points="941.09,-111.5 951.64,-112.44 943.98,-105.12 941.09,-111.5"/>
</g>
<!-- Node10 -->
<g id="node10" class="node">
<title>Node10</title>
<g id="a_node10"><a xlink:href="_i_statment_8cc.html" target="_top" xlink:title=" ">
<polygon fill="white" stroke="black" points="1191.5,-0.5 1191.5,-19.5 1317.5,-19.5 1317.5,-0.5 1191.5,-0.5"/>
<text text-anchor="middle" x="1254.5" y="-7.5" font-family="Helvetica,sans-Serif" font-size="10.00">language/IStatment.cc</text>
</a>
</g>
</g>
<!-- Node1&#45;&gt;Node10 -->
<g id="edge14" class="edge">
<title>Node1&#45;&gt;Node10</title>
<path fill="none" stroke="midnightblue" d="M1002.19,-108.73C1060.23,-86.25 1182.23,-38.99 1232.32,-19.59"/>
<polygon fill="midnightblue" stroke="midnightblue" points="1000.85,-105.49 992.79,-112.37 1003.37,-112.02 1000.85,-105.49"/>
</g>
<!-- Node14 -->
<g id="node14" class="node">
<title>Node14</title>
<g id="a_node14"><a xlink:href="_test_bind_8cc.html" target="_top" xlink:title=" ">
<polygon fill="white" stroke="black" points="1336,-0.5 1336,-19.5 1477,-19.5 1477,-0.5 1336,-0.5"/>
<text text-anchor="middle" x="1406.5" y="-7.5" font-family="Helvetica,sans-Serif" font-size="10.00">language/test/TestBind.cc</text>
</a>
</g>
</g>
<!-- Node1&#45;&gt;Node14 -->
<g id="edge15" class="edge">
<title>Node1&#45;&gt;Node14</title>
<path fill="none" stroke="midnightblue" d="M1014.17,-109.98C1101.17,-88.03 1294.46,-39.27 1372.67,-19.53"/>
<polygon fill="midnightblue" stroke="midnightblue" points="1013.19,-106.62 1004.35,-112.46 1014.9,-113.41 1013.19,-106.62"/>
</g>
<!-- Node4 -->
<g id="node4" class="node">
<title>Node4</title>
<g id="a_node4"><a xlink:href="_binding_usage_8cc.html" target="_top" xlink:title=" ">
<polygon fill="white" stroke="black" points="361.5,-0.5 361.5,-19.5 507.5,-19.5 507.5,-0.5 361.5,-0.5"/>
<text text-anchor="middle" x="434.5" y="-7.5" font-family="Helvetica,sans-Serif" font-size="10.00">language/BindingUsage.cc</text>
</a>
</g>
</g>
<!-- Node3&#45;&gt;Node4 -->
<g id="edge3" class="edge">
<title>Node3&#45;&gt;Node4</title>
<path fill="none" stroke="midnightblue" d="M794.87,-55.95C688.98,-40.96 578.33,-27.59 507.55,-19.34"/>
<polygon fill="midnightblue" stroke="midnightblue" points="794.37,-59.42 804.77,-57.36 795.36,-52.49 794.37,-59.42"/>
</g>
<!-- Node5 -->
<g id="node5" class="node">
<title>Node5</title>
<g id="a_node5"><a xlink:href="_block_8cc.html" target="_top" xlink:title=" ">
<polygon fill="white" stroke="black" points="526,-0.5 526,-19.5 631,-19.5 631,-0.5 526,-0.5"/>
<text text-anchor="middle" x="578.5" y="-7.5" font-family="Helvetica,sans-Serif" font-size="10.00">language/Block.cc</text>
</a>
</g>
</g>
<!-- Node3&#45;&gt;Node5 -->
<g id="edge4" class="edge">
<title>Node3&#45;&gt;Node5</title>
<path fill="none" stroke="midnightblue" d="M798.28,-54.47C746.69,-44.27 669.4,-28.98 621.56,-19.52"/>
<polygon fill="midnightblue" stroke="midnightblue" points="797.75,-57.94 808.24,-56.44 799.11,-51.07 797.75,-57.94"/>
</g>
<!-- Node6 -->
<g id="node6" class="node">
<title>Node6</title>
<g id="a_node6"><a xlink:href="_conditional_8cc.html" target="_top" xlink:title=" ">
<polygon fill="white" stroke="black" points="649.5,-0.5 649.5,-19.5 783.5,-19.5 783.5,-0.5 649.5,-0.5"/>
<text text-anchor="middle" x="716.5" y="-7.5" font-family="Helvetica,sans-Serif" font-size="10.00">language/Conditional.cc</text>
</a>
</g>
</g>
<!-- Node3&#45;&gt;Node6 -->
<g id="edge5" class="edge">
<title>Node3&#45;&gt;Node6</title>
<path fill="none" stroke="midnightblue" d="M820.59,-52.64C795.26,-42.5 760.07,-28.43 737.79,-19.52"/>
<polygon fill="midnightblue" stroke="midnightblue" points="819.52,-55.98 830.11,-56.44 822.12,-49.48 819.52,-55.98"/>
</g>
<!-- Node7 -->
<g id="node7" class="node">
<title>Node7</title>
<g id="a_node7"><a xlink:href="_expr_8cc.html" target="_top" xlink:title=" ">
<polygon fill="white" stroke="black" points="802,-0.5 802,-19.5 901,-19.5 901,-0.5 802,-0.5"/>
<text text-anchor="middle" x="851.5" y="-7.5" font-family="Helvetica,sans-Serif" font-size="10.00">language/Expr.cc</text>
</a>
</g>
</g>
<!-- Node3&#45;&gt;Node7 -->
<g id="edge6" class="edge">
<title>Node3&#45;&gt;Node7</title>
<path fill="none" stroke="midnightblue" d="M851.5,-45.8C851.5,-36.91 851.5,-26.78 851.5,-19.75"/>
<polygon fill="midnightblue" stroke="midnightblue" points="848,-46.08 851.5,-56.08 855,-46.08 848,-46.08"/>
</g>
<!-- Node8 -->
<g id="node8" class="node">
<title>Node8</title>
<g id="a_node8"><a xlink:href="_func_call_8cc.html" target="_top" xlink:title=" ">
<polygon fill="white" stroke="black" points="919,-0.5 919,-19.5 1038,-19.5 1038,-0.5 919,-0.5"/>
<text text-anchor="middle" x="978.5" y="-7.5" font-family="Helvetica,sans-Serif" font-size="10.00">language/FuncCall.cc</text>
</a>
</g>
</g>
<!-- Node3&#45;&gt;Node8 -->
<g id="edge7" class="edge">
<title>Node3&#45;&gt;Node8</title>
<path fill="none" stroke="midnightblue" d="M880.89,-52.5C904.7,-42.38 937.61,-28.39 958.47,-19.52"/>
<polygon fill="midnightblue" stroke="midnightblue" points="879.46,-49.31 871.62,-56.44 882.2,-55.75 879.46,-49.31"/>
</g>
<!-- Node9 -->
<g id="node9" class="node">
<title>Node9</title>
<g id="a_node9"><a xlink:href="_func_def_8cc.html" target="_top" xlink:title=" ">
<polygon fill="white" stroke="black" points="1056,-0.5 1056,-19.5 1173,-19.5 1173,-0.5 1056,-0.5"/>
<text text-anchor="middle" x="1114.5" y="-7.5" font-family="Helvetica,sans-Serif" font-size="10.00">language/FuncDef.cc</text>
</a>
</g>
</g>
<!-- Node3&#45;&gt;Node9 -->
<g id="edge8" class="edge">
<title>Node3&#45;&gt;Node9</title>
<path fill="none" stroke="midnightblue" d="M903.08,-54.41C952.78,-44.2 1027.03,-28.96 1073.02,-19.52"/>
<polygon fill="midnightblue" stroke="midnightblue" points="902.26,-51 893.17,-56.44 903.67,-57.86 902.26,-51"/>
</g>
<!-- Node3&#45;&gt;Node10 -->
<g id="edge9" class="edge">
<title>Node3&#45;&gt;Node10</title>
<path fill="none" stroke="midnightblue" d="M908.28,-57.39C982.96,-47.38 1113.8,-29.85 1191.47,-19.45"/>
<polygon fill="midnightblue" stroke="midnightblue" points="907.57,-53.96 898.12,-58.75 908.5,-60.89 907.57,-53.96"/>
</g>
<!-- Node11 -->
<g id="node11" class="node">
<title>Node11</title>
<g id="a_node11"><a xlink:href="_loop_8cc.html" target="_top" xlink:title=" ">
<polygon fill="white" stroke="black" points="0,-0.5 0,-19.5 101,-19.5 101,-0.5 0,-0.5"/>
<text text-anchor="middle" x="50.5" y="-7.5" font-family="Helvetica,sans-Serif" font-size="10.00">language/Loop.cc</text>
</a>
</g>
</g>
<!-- Node3&#45;&gt;Node11 -->
<g id="edge10" class="edge">
<title>Node3&#45;&gt;Node11</title>
<path fill="none" stroke="midnightblue" d="M794.81,-56.06C490.63,-24.34 410.56,-50.32 110.5,-20 107.46,-19.69 104.34,-19.34 101.2,-18.96"/>
<polygon fill="midnightblue" stroke="midnightblue" points="794.49,-59.54 804.8,-57.11 795.22,-52.58 794.49,-59.54"/>
</g>
<!-- Node12 -->
<g id="node12" class="node">
<title>Node12</title>
<g id="a_node12"><a xlink:href="_null_8cc.html" target="_top" xlink:title=" ">
<polygon fill="white" stroke="black" points="119.5,-0.5 119.5,-19.5 217.5,-19.5 217.5,-0.5 119.5,-0.5"/>
<text text-anchor="middle" x="168.5" y="-7.5" font-family="Helvetica,sans-Serif" font-size="10.00">language/Null.cc</text>
</a>
</g>
</g>
<!-- Node3&#45;&gt;Node12 -->
<g id="edge11" class="edge">
<title>Node3&#45;&gt;Node12</title>
<path fill="none" stroke="midnightblue" d="M794.57,-56.02C541.92,-28.37 475.08,-47.09 226.5,-20 223.56,-19.68 220.55,-19.32 217.51,-18.92"/>
<polygon fill="midnightblue" stroke="midnightblue" points="794.47,-59.53 804.79,-57.15 795.24,-52.57 794.47,-59.53"/>
</g>
<!-- Node13 -->
<g id="node13" class="node">
<title>Node13</title>
<g id="a_node13"><a xlink:href="parser_8cc.html" target="_top" xlink:title=" ">
<polygon fill="white" stroke="black" points="235.5,-0.5 235.5,-19.5 343.5,-19.5 343.5,-0.5 235.5,-0.5"/>
<text text-anchor="middle" x="289.5" y="-7.5" font-family="Helvetica,sans-Serif" font-size="10.00">language/parser.cc</text>
</a>
</g>
</g>
<!-- Node3&#45;&gt;Node13 -->
<g id="edge12" class="edge">
<title>Node3&#45;&gt;Node13</title>
<path fill="none" stroke="midnightblue" d="M794.68,-56C597.67,-32.62 545.55,-41.61 352.5,-20 349.65,-19.68 346.72,-19.33 343.77,-18.97"/>
<polygon fill="midnightblue" stroke="midnightblue" points="794.44,-59.5 804.79,-57.21 795.28,-52.55 794.44,-59.5"/>
</g>
<!-- Node3&#45;&gt;Node14 -->
<g id="edge13" class="edge">
<title>Node3&#45;&gt;Node14</title>
<path fill="none" stroke="midnightblue" d="M908.21,-59.95C997.31,-51.95 1175.52,-35.64 1326.5,-20 1329.56,-19.68 1332.68,-19.35 1335.84,-19.02"/>
<polygon fill="midnightblue" stroke="midnightblue" points="907.7,-56.48 898.05,-60.86 908.32,-63.46 907.7,-56.48"/>
</g>
</g>
</svg>
