<?xml version="1.0" encoding="UTF-8" standalone="no"?>
<!DOCTYPE svg PUBLIC "-//W3C//DTD SVG 1.1//EN"
 "http://www.w3.org/Graphics/SVG/1.1/DTD/svg11.dtd">
<!-- Generated by graphviz version 2.43.0 (0)
 -->
<!-- Title: language/Block.h Pages: 1 -->
<svg width="1485pt" height="420pt"
 viewBox="0.00 0.00 1484.50 420.00" xmlns="http://www.w3.org/2000/svg" xmlns:xlink="http://www.w3.org/1999/xlink">
<g id="graph0" class="graph" transform="scale(1 1) rotate(0) translate(4 416)">
<title>language/Block.h</title>
<polygon fill="white" stroke="transparent" points="-4,4 -4,-416 1480.5,-416 1480.5,4 -4,4"/>
<!-- Node1 -->
<g id="node1" class="node">
<title>Node1</title>
<g id="a_node1"><a xlink:title=" ">
<polygon fill="#bfbfbf" stroke="black" points="387.5,-392.5 387.5,-411.5 488.5,-411.5 488.5,-392.5 387.5,-392.5"/>
<text text-anchor="middle" x="438" y="-399.5" font-family="Helvetica,sans-Serif" font-size="10.00">language/Block.h</text>
</a>
</g>
</g>
<!-- Node2 -->
<g id="node2" class="node">
<title>Node2</title>
<g id="a_node2"><a xlink:href="_func_def_8h.html" target="_top" xlink:title=" ">
<polygon fill="white" stroke="black" points="381.5,-336.5 381.5,-355.5 494.5,-355.5 494.5,-336.5 381.5,-336.5"/>
<text text-anchor="middle" x="438" y="-343.5" font-family="Helvetica,sans-Serif" font-size="10.00">language/FuncDef.h</text>
</a>
</g>
</g>
<!-- Node1&#45;&gt;Node2 -->
<g id="edge1" class="edge">
<title>Node1&#45;&gt;Node2</title>
<path fill="none" stroke="midnightblue" d="M438,-381.8C438,-372.91 438,-362.78 438,-355.75"/>
<polygon fill="midnightblue" stroke="midnightblue" points="434.5,-382.08 438,-392.08 441.5,-382.08 434.5,-382.08"/>
</g>
<!-- Node11 -->
<g id="node11" class="node">
<title>Node11</title>
<g id="a_node11"><a xlink:href="_block_8cc.html" target="_top" xlink:title=" ">
<polygon fill="white" stroke="black" points="1371.5,-0.5 1371.5,-19.5 1476.5,-19.5 1476.5,-0.5 1371.5,-0.5"/>
<text text-anchor="middle" x="1424" y="-7.5" font-family="Helvetica,sans-Serif" font-size="10.00">language/Block.cc</text>
</a>
</g>
</g>
<!-- Node1&#45;&gt;Node11 -->
<g id="edge35" class="edge">
<title>Node1&#45;&gt;Node11</title>
<path fill="none" stroke="midnightblue" d="M499.01,-400.46C710.59,-397.78 1400,-382.08 1400,-291 1400,-291 1400,-291 1400,-121 1400,-82.49 1414.21,-38.11 1420.76,-19.7"/>
<polygon fill="midnightblue" stroke="midnightblue" points="498.66,-396.96 488.7,-400.58 498.75,-403.96 498.66,-396.96"/>
</g>
<!-- Node13 -->
<g id="node13" class="node">
<title>Node13</title>
<g id="a_node13"><a xlink:href="_expr_8cc.html" target="_top" xlink:title=" ">
<polygon fill="white" stroke="black" points="1254.5,-0.5 1254.5,-19.5 1353.5,-19.5 1353.5,-0.5 1254.5,-0.5"/>
<text text-anchor="middle" x="1304" y="-7.5" font-family="Helvetica,sans-Serif" font-size="10.00">language/Expr.cc</text>
</a>
</g>
</g>
<!-- Node1&#45;&gt;Node13 -->
<g id="edge39" class="edge">
<title>Node1&#45;&gt;Node13</title>
<path fill="none" stroke="midnightblue" d="M498.86,-399.94C700.5,-395.62 1334,-375.34 1334,-291 1334,-291 1334,-291 1334,-121 1334,-82 1316.23,-37.89 1308.05,-19.62"/>
<polygon fill="midnightblue" stroke="midnightblue" points="498.66,-396.44 488.74,-400.15 498.81,-403.44 498.66,-396.44"/>
</g>
<!-- Node16 -->
<g id="node16" class="node">
<title>Node16</title>
<g id="a_node16"><a xlink:href="_i_statment_8cc.html" target="_top" xlink:title=" ">
<polygon fill="white" stroke="black" points="0,-0.5 0,-19.5 126,-19.5 126,-0.5 0,-0.5"/>
<text text-anchor="middle" x="63" y="-7.5" font-family="Helvetica,sans-Serif" font-size="10.00">language/IStatment.cc</text>
</a>
</g>
</g>
<!-- Node1&#45;&gt;Node16 -->
<g id="edge40" class="edge">
<title>Node1&#45;&gt;Node16</title>
<path fill="none" stroke="midnightblue" d="M377.44,-395.39C273.45,-384.07 72,-354.01 72,-291 72,-291 72,-291 72,-121 72,-83.06 66.62,-38.01 64.18,-19.54"/>
<polygon fill="midnightblue" stroke="midnightblue" points="377.18,-398.88 387.49,-396.46 377.92,-391.92 377.18,-398.88"/>
</g>
<!-- Node21 -->
<g id="node21" class="node">
<title>Node21</title>
<g id="a_node21"><a xlink:href="_test_block_8cc.html" target="_top" xlink:title=" ">
<polygon fill="white" stroke="black" points="485,-112.5 485,-131.5 631,-131.5 631,-112.5 485,-112.5"/>
<text text-anchor="middle" x="558" y="-119.5" font-family="Helvetica,sans-Serif" font-size="10.00">language/test/TestBlock.cc</text>
</a>
</g>
</g>
<!-- Node1&#45;&gt;Node21 -->
<g id="edge44" class="edge">
<title>Node1&#45;&gt;Node21</title>
<path fill="none" stroke="midnightblue" d="M464.86,-387.27C495.38,-369.54 541,-335.57 541,-291 541,-291 541,-291 541,-233 541,-194.93 551.07,-150.31 555.71,-131.77"/>
<polygon fill="midnightblue" stroke="midnightblue" points="462.97,-384.32 455.94,-392.25 466.38,-390.43 462.97,-384.32"/>
</g>
<!-- Node25 -->
<g id="node25" class="node">
<title>Node25</title>
<g id="a_node25"><a xlink:href="_conditional_8h.html" target="_top" xlink:title=" ">
<polygon fill="white" stroke="black" points="146.5,-56.5 146.5,-75.5 275.5,-75.5 275.5,-56.5 146.5,-56.5"/>
<text text-anchor="middle" x="211" y="-63.5" font-family="Helvetica,sans-Serif" font-size="10.00">language/Conditional.h</text>
</a>
</g>
</g>
<!-- Node1&#45;&gt;Node25 -->
<g id="edge36" class="edge">
<title>Node1&#45;&gt;Node25</title>
<path fill="none" stroke="midnightblue" d="M377.25,-397.18C310.01,-389.26 211,-365.04 211,-291 211,-291 211,-291 211,-177 211,-139.19 211,-94.06 211,-75.56"/>
<polygon fill="midnightblue" stroke="midnightblue" points="377.02,-400.67 387.34,-398.27 377.78,-393.71 377.02,-400.67"/>
</g>
<!-- Node26 -->
<g id="node26" class="node">
<title>Node26</title>
<g id="a_node26"><a xlink:href="_loop_8h.html" target="_top" xlink:title=" ">
<polygon fill="white" stroke="black" points="293.5,-56.5 293.5,-75.5 390.5,-75.5 390.5,-56.5 293.5,-56.5"/>
<text text-anchor="middle" x="342" y="-63.5" font-family="Helvetica,sans-Serif" font-size="10.00">language/Loop.h</text>
</a>
</g>
</g>
<!-- Node1&#45;&gt;Node26 -->
<g id="edge41" class="edge">
<title>Node1&#45;&gt;Node26</title>
<path fill="none" stroke="midnightblue" d="M377.26,-391.61C322,-379.21 249,-351.4 249,-291 249,-291 249,-291 249,-177 249,-129.49 300.23,-91.91 326.64,-75.69"/>
<polygon fill="midnightblue" stroke="midnightblue" points="376.84,-395.1 387.35,-393.75 378.3,-388.25 376.84,-395.1"/>
</g>
<!-- Node3 -->
<g id="node3" class="node">
<title>Node3</title>
<g id="a_node3"><a xlink:href="env_8h.html" target="_top" xlink:title=" ">
<polygon fill="white" stroke="black" points="707.5,-280.5 707.5,-299.5 798.5,-299.5 798.5,-280.5 707.5,-280.5"/>
<text text-anchor="middle" x="753" y="-287.5" font-family="Helvetica,sans-Serif" font-size="10.00">language/env.h</text>
</a>
</g>
</g>
<!-- Node2&#45;&gt;Node3 -->
<g id="edge2" class="edge">
<title>Node2&#45;&gt;Node3</title>
<path fill="none" stroke="midnightblue" d="M497.79,-334.75C558.79,-324.29 652.13,-308.29 707.41,-298.82"/>
<polygon fill="midnightblue" stroke="midnightblue" points="497.18,-331.3 487.91,-336.44 498.36,-338.2 497.18,-331.3"/>
</g>
<!-- Node14 -->
<g id="node14" class="node">
<title>Node14</title>
<g id="a_node14"><a xlink:href="_func_call_8cc.html" target="_top" xlink:title=" ">
<polygon fill="white" stroke="black" points="415.5,-0.5 415.5,-19.5 534.5,-19.5 534.5,-0.5 415.5,-0.5"/>
<text text-anchor="middle" x="475" y="-7.5" font-family="Helvetica,sans-Serif" font-size="10.00">language/FuncCall.cc</text>
</a>
</g>
</g>
<!-- Node2&#45;&gt;Node14 -->
<g id="edge32" class="edge">
<title>Node2&#45;&gt;Node14</title>
<path fill="none" stroke="midnightblue" d="M432.78,-326.39C427.16,-304.65 419,-267.51 419,-235 419,-235 419,-235 419,-121 419,-79.21 451.49,-37.26 466.98,-19.64"/>
<polygon fill="midnightblue" stroke="midnightblue" points="429.46,-327.5 435.44,-336.25 436.22,-325.68 429.46,-327.5"/>
</g>
<!-- Node15 -->
<g id="node15" class="node">
<title>Node15</title>
<g id="a_node15"><a xlink:href="_func_def_8cc.html" target="_top" xlink:title=" ">
<polygon fill="white" stroke="black" points="552.5,-0.5 552.5,-19.5 669.5,-19.5 669.5,-0.5 552.5,-0.5"/>
<text text-anchor="middle" x="611" y="-7.5" font-family="Helvetica,sans-Serif" font-size="10.00">language/FuncDef.cc</text>
</a>
</g>
</g>
<!-- Node2&#45;&gt;Node15 -->
<g id="edge33" class="edge">
<title>Node2&#45;&gt;Node15</title>
<path fill="none" stroke="midnightblue" d="M443.22,-326.39C448.84,-304.65 457,-267.51 457,-235 457,-235 457,-235 457,-121 457,-63.17 529.79,-32.87 575.28,-19.57"/>
<polygon fill="midnightblue" stroke="midnightblue" points="439.78,-325.68 440.56,-336.25 446.54,-327.5 439.78,-325.68"/>
</g>
<!-- Node2&#45;&gt;Node16 -->
<g id="edge34" class="edge">
<title>Node2&#45;&gt;Node16</title>
<path fill="none" stroke="midnightblue" d="M393.96,-333.35C349.39,-318.58 287,-288.37 287,-235 287,-235 287,-235 287,-177 287,-96.63 200.66,-125.07 137,-76 112.62,-57.21 85.94,-32.71 72.25,-19.82"/>
<polygon fill="midnightblue" stroke="midnightblue" points="393.15,-336.76 403.74,-336.44 395.26,-330.09 393.15,-336.76"/>
</g>
<!-- Node4 -->
<g id="node4" class="node">
<title>Node4</title>
<g id="a_node4"><a xlink:href="parser_8h.html" target="_top" xlink:title=" ">
<polygon fill="white" stroke="black" points="1037,-224.5 1037,-243.5 1141,-243.5 1141,-224.5 1037,-224.5"/>
<text text-anchor="middle" x="1089" y="-231.5" font-family="Helvetica,sans-Serif" font-size="10.00">language/parser.h</text>
</a>
</g>
</g>
<!-- Node3&#45;&gt;Node4 -->
<g id="edge3" class="edge">
<title>Node3&#45;&gt;Node4</title>
<path fill="none" stroke="midnightblue" d="M808.88,-280.02C872.3,-269.83 974.96,-253.33 1036.81,-243.39"/>
<polygon fill="midnightblue" stroke="midnightblue" points="807.98,-276.62 798.66,-281.66 809.09,-283.53 807.98,-276.62"/>
</g>
<!-- Node10 -->
<g id="node10" class="node">
<title>Node10</title>
<g id="a_node10"><a xlink:href="_binding_usage_8cc.html" target="_top" xlink:title=" ">
<polygon fill="white" stroke="black" points="688,-0.5 688,-19.5 834,-19.5 834,-0.5 688,-0.5"/>
<text text-anchor="middle" x="761" y="-7.5" font-family="Helvetica,sans-Serif" font-size="10.00">language/BindingUsage.cc</text>
</a>
</g>
</g>
<!-- Node3&#45;&gt;Node10 -->
<g id="edge29" class="edge">
<title>Node3&#45;&gt;Node10</title>
<path fill="none" stroke="midnightblue" d="M726.68,-275.05C715.34,-267.51 703.25,-257.05 697,-244 693.16,-235.98 696.63,-232.88 697,-224 700.11,-149.14 677.7,-123.12 711,-56 718.79,-40.31 734.61,-27.56 746.39,-19.69"/>
<polygon fill="midnightblue" stroke="midnightblue" points="725.15,-278.21 735.5,-280.46 728.81,-272.25 725.15,-278.21"/>
</g>
<!-- Node20 -->
<g id="node20" class="node">
<title>Node20</title>
<g id="a_node20"><a xlink:href="_test_bind_8cc.html" target="_top" xlink:title=" ">
<polygon fill="white" stroke="black" points="968.5,-0.5 968.5,-19.5 1109.5,-19.5 1109.5,-0.5 968.5,-0.5"/>
<text text-anchor="middle" x="1039" y="-7.5" font-family="Helvetica,sans-Serif" font-size="10.00">language/test/TestBind.cc</text>
</a>
</g>
</g>
<!-- Node3&#45;&gt;Node20 -->
<g id="edge31" class="edge">
<title>Node3&#45;&gt;Node20</title>
<path fill="none" stroke="midnightblue" d="M775.39,-274.7C801.46,-256.1 841,-220.97 841,-179 841,-179 841,-179 841,-121 841,-58.57 917.14,-31.27 974.99,-19.54"/>
<polygon fill="midnightblue" stroke="midnightblue" points="773.4,-271.82 767.14,-280.36 777.36,-277.59 773.4,-271.82"/>
</g>
<!-- Node24 -->
<g id="node24" class="node">
<title>Node24</title>
<g id="a_node24"><a xlink:href="env_8cc.html" target="_top" xlink:title=" ">
<polygon fill="white" stroke="black" points="705.5,-224.5 705.5,-243.5 800.5,-243.5 800.5,-224.5 705.5,-224.5"/>
<text text-anchor="middle" x="753" y="-231.5" font-family="Helvetica,sans-Serif" font-size="10.00">language/env.cc</text>
</a>
</g>
</g>
<!-- Node3&#45;&gt;Node24 -->
<g id="edge30" class="edge">
<title>Node3&#45;&gt;Node24</title>
<path fill="none" stroke="midnightblue" d="M753,-269.8C753,-260.91 753,-250.78 753,-243.75"/>
<polygon fill="midnightblue" stroke="midnightblue" points="749.5,-270.08 753,-280.08 756.5,-270.08 749.5,-270.08"/>
</g>
<!-- Node5 -->
<g id="node5" class="node">
<title>Node5</title>
<g id="a_node5"><a xlink:href="interpreter_8cc.html" target="_top" xlink:title=" ">
<polygon fill="white" stroke="black" points="982.5,-168.5 982.5,-187.5 1063.5,-187.5 1063.5,-168.5 982.5,-168.5"/>
<text text-anchor="middle" x="1023" y="-175.5" font-family="Helvetica,sans-Serif" font-size="10.00">interpreter.cc</text>
</a>
</g>
</g>
<!-- Node4&#45;&gt;Node5 -->
<g id="edge4" class="edge">
<title>Node4&#45;&gt;Node5</title>
<path fill="none" stroke="midnightblue" d="M1070.45,-217.82C1058.62,-208.15 1043.71,-195.95 1033.8,-187.83"/>
<polygon fill="midnightblue" stroke="midnightblue" points="1068.44,-220.7 1078.4,-224.32 1072.87,-215.28 1068.44,-220.7"/>
</g>
<!-- Node6 -->
<g id="node6" class="node">
<title>Node6</title>
<g id="a_node6"><a xlink:href="_expr_8h.html" target="_top" xlink:title=" ">
<polygon fill="white" stroke="black" points="869.5,-168.5 869.5,-187.5 964.5,-187.5 964.5,-168.5 869.5,-168.5"/>
<text text-anchor="middle" x="917" y="-175.5" font-family="Helvetica,sans-Serif" font-size="10.00">language/Expr.h</text>
</a>
</g>
</g>
<!-- Node4&#45;&gt;Node6 -->
<g id="edge5" class="edge">
<title>Node4&#45;&gt;Node6</title>
<path fill="none" stroke="midnightblue" d="M1052.17,-221.44C1019.74,-211.26 973.26,-196.66 944.13,-187.52"/>
<polygon fill="midnightblue" stroke="midnightblue" points="1051.16,-224.79 1061.75,-224.44 1053.25,-218.11 1051.16,-224.79"/>
</g>
<!-- Node4&#45;&gt;Node11 -->
<g id="edge26" class="edge">
<title>Node4&#45;&gt;Node11</title>
<path fill="none" stroke="midnightblue" d="M1151.19,-224.95C1184.62,-218.59 1225.53,-207.41 1258,-188 1277.89,-176.11 1386.19,-53.94 1416.25,-19.81"/>
<polygon fill="midnightblue" stroke="midnightblue" points="1150.3,-221.55 1141.08,-226.77 1151.54,-228.44 1150.3,-221.55"/>
</g>
<!-- Node19 -->
<g id="node19" class="node">
<title>Node19</title>
<g id="a_node19"><a xlink:href="parser_8cc.html" target="_top" xlink:title=" ">
<polygon fill="white" stroke="black" points="1128,-0.5 1128,-19.5 1236,-19.5 1236,-0.5 1128,-0.5"/>
<text text-anchor="middle" x="1182" y="-7.5" font-family="Helvetica,sans-Serif" font-size="10.00">language/parser.cc</text>
</a>
</g>
</g>
<!-- Node4&#45;&gt;Node19 -->
<g id="edge27" class="edge">
<title>Node4&#45;&gt;Node19</title>
<path fill="none" stroke="midnightblue" d="M1151.47,-231.19C1183.36,-226.7 1219.64,-215.31 1240,-188 1281.17,-132.78 1213.68,-46.92 1189.84,-19.63"/>
<polygon fill="midnightblue" stroke="midnightblue" points="1150.8,-227.75 1141.29,-232.42 1151.64,-234.7 1150.8,-227.75"/>
</g>
<!-- Node23 -->
<g id="node23" class="node">
<title>Node23</title>
<g id="a_node23"><a xlink:href="_test_parser_8cc.html" target="_top" xlink:title=" ">
<polygon fill="white" stroke="black" points="1081.5,-168.5 1081.5,-187.5 1230.5,-187.5 1230.5,-168.5 1081.5,-168.5"/>
<text text-anchor="middle" x="1156" y="-175.5" font-family="Helvetica,sans-Serif" font-size="10.00">language/test/TestParser.cc</text>
</a>
</g>
</g>
<!-- Node4&#45;&gt;Node23 -->
<g id="edge28" class="edge">
<title>Node4&#45;&gt;Node23</title>
<path fill="none" stroke="midnightblue" d="M1107.83,-217.82C1119.84,-208.15 1134.97,-195.95 1145.04,-187.83"/>
<polygon fill="midnightblue" stroke="midnightblue" points="1105.35,-215.32 1099.76,-224.32 1109.75,-220.77 1105.35,-215.32"/>
</g>
<!-- Node7 -->
<g id="node7" class="node">
<title>Node7</title>
<g id="a_node7"><a xlink:href="_bind_def_8h.html" target="_top" xlink:title=" ">
<polygon fill="white" stroke="black" points="1065,-112.5 1065,-131.5 1177,-131.5 1177,-112.5 1065,-112.5"/>
<text text-anchor="middle" x="1121" y="-119.5" font-family="Helvetica,sans-Serif" font-size="10.00">language/BindDef.h</text>
</a>
</g>
</g>
<!-- Node6&#45;&gt;Node7 -->
<g id="edge6" class="edge">
<title>Node6&#45;&gt;Node7</title>
<path fill="none" stroke="midnightblue" d="M959.2,-165.83C997.72,-155.63 1053.82,-140.78 1088.83,-131.52"/>
<polygon fill="midnightblue" stroke="midnightblue" points="958.1,-162.5 949.32,-168.44 959.89,-169.27 958.1,-162.5"/>
</g>
<!-- Node6&#45;&gt;Node13 -->
<g id="edge22" class="edge">
<title>Node6&#45;&gt;Node13</title>
<path fill="none" stroke="midnightblue" d="M974.76,-167.79C1052.4,-155.36 1181.32,-134.45 1186,-132 1239.82,-103.85 1283.76,-42.11 1298.6,-19.51"/>
<polygon fill="midnightblue" stroke="midnightblue" points="973.95,-164.38 964.63,-169.42 975.06,-171.29 973.95,-164.38"/>
</g>
<!-- Node6&#45;&gt;Node20 -->
<g id="edge23" class="edge">
<title>Node6&#45;&gt;Node20</title>
<path fill="none" stroke="midnightblue" d="M905.19,-159.56C897.68,-146.14 890.62,-127.35 898,-112 921.48,-63.15 981.65,-33.06 1015.31,-19.5"/>
<polygon fill="midnightblue" stroke="midnightblue" points="902.32,-161.58 910.55,-168.26 908.29,-157.91 902.32,-161.58"/>
</g>
<!-- Node6&#45;&gt;Node21 -->
<g id="edge24" class="edge">
<title>Node6&#45;&gt;Node21</title>
<path fill="none" stroke="midnightblue" d="M859.32,-168.32C792.07,-158.21 681.61,-141.59 614.76,-131.54"/>
<polygon fill="midnightblue" stroke="midnightblue" points="858.92,-171.8 869.33,-169.83 859.96,-164.88 858.92,-171.8"/>
</g>
<!-- Node22 -->
<g id="node22" class="node">
<title>Node22</title>
<g id="a_node22"><a xlink:href="_test_expr_8cc.html" target="_top" xlink:title=" ">
<polygon fill="white" stroke="black" points="907,-112.5 907,-131.5 1047,-131.5 1047,-112.5 907,-112.5"/>
<text text-anchor="middle" x="977" y="-119.5" font-family="Helvetica,sans-Serif" font-size="10.00">language/test/TestExpr.cc</text>
</a>
</g>
</g>
<!-- Node6&#45;&gt;Node22 -->
<g id="edge25" class="edge">
<title>Node6&#45;&gt;Node22</title>
<path fill="none" stroke="midnightblue" d="M934.18,-161.54C944.88,-151.91 958.26,-139.87 967.18,-131.83"/>
<polygon fill="midnightblue" stroke="midnightblue" points="931.73,-159.03 926.64,-168.32 936.41,-164.24 931.73,-159.03"/>
</g>
<!-- Node8 -->
<g id="node8" class="node">
<title>Node8</title>
<g id="a_node8"><a xlink:href="_bind_def_8cc.html" target="_top" xlink:title=" ">
<polygon fill="white" stroke="black" points="977,-56.5 977,-75.5 1093,-75.5 1093,-56.5 977,-56.5"/>
<text text-anchor="middle" x="1035" y="-63.5" font-family="Helvetica,sans-Serif" font-size="10.00">language/BindDef.cc</text>
</a>
</g>
</g>
<!-- Node7&#45;&gt;Node8 -->
<g id="edge7" class="edge">
<title>Node7&#45;&gt;Node8</title>
<path fill="none" stroke="midnightblue" d="M1098.55,-106.9C1082.78,-97 1062.19,-84.07 1048.78,-75.65"/>
<polygon fill="midnightblue" stroke="midnightblue" points="1096.85,-109.97 1107.18,-112.32 1100.57,-104.04 1096.85,-109.97"/>
</g>
<!-- Node9 -->
<g id="node9" class="node">
<title>Node9</title>
<g id="a_node9"><a xlink:href="_null_8h.html" target="_top" xlink:title=" ">
<polygon fill="white" stroke="black" points="719.5,-56.5 719.5,-75.5 812.5,-75.5 812.5,-56.5 719.5,-56.5"/>
<text text-anchor="middle" x="766" y="-63.5" font-family="Helvetica,sans-Serif" font-size="10.00">language/Null.h</text>
</a>
</g>
</g>
<!-- Node7&#45;&gt;Node9 -->
<g id="edge8" class="edge">
<title>Node7&#45;&gt;Node9</title>
<path fill="none" stroke="midnightblue" d="M1054.64,-110.91C984.15,-100.18 874.53,-83.51 812.64,-74.1"/>
<polygon fill="midnightblue" stroke="midnightblue" points="1054.34,-114.4 1064.75,-112.44 1055.39,-107.48 1054.34,-114.4"/>
</g>
<!-- Node7&#45;&gt;Node16 -->
<g id="edge20" class="edge">
<title>Node7&#45;&gt;Node16</title>
<path fill="none" stroke="midnightblue" d="M1054.79,-111.9C835.82,-86.28 336.2,-42.62 135,-20 132.12,-19.68 129.18,-19.34 126.21,-18.99"/>
<polygon fill="midnightblue" stroke="midnightblue" points="1054.66,-115.41 1065,-113.11 1055.48,-108.46 1054.66,-115.41"/>
</g>
<!-- Node7&#45;&gt;Node20 -->
<g id="edge21" class="edge">
<title>Node7&#45;&gt;Node20</title>
<path fill="none" stroke="midnightblue" d="M1118.81,-101.96C1116.47,-88.17 1111.68,-69.63 1102,-56 1090.48,-39.78 1071.23,-27.27 1057.03,-19.61"/>
<polygon fill="midnightblue" stroke="midnightblue" points="1115.4,-102.81 1120.26,-112.22 1122.33,-101.83 1115.4,-102.81"/>
</g>
<!-- Node9&#45;&gt;Node10 -->
<g id="edge9" class="edge">
<title>Node9&#45;&gt;Node10</title>
<path fill="none" stroke="midnightblue" d="M764.25,-46.1C763.42,-37.14 762.47,-26.86 761.81,-19.75"/>
<polygon fill="midnightblue" stroke="midnightblue" points="760.77,-46.45 765.17,-56.08 767.74,-45.8 760.77,-46.45"/>
</g>
<!-- Node9&#45;&gt;Node11 -->
<g id="edge10" class="edge">
<title>Node9&#45;&gt;Node11</title>
<path fill="none" stroke="midnightblue" d="M822.72,-62.07C928.96,-56.3 1165.05,-42.03 1363,-20 1365.77,-19.69 1368.6,-19.35 1371.46,-18.99"/>
<polygon fill="midnightblue" stroke="midnightblue" points="822.35,-58.59 812.55,-62.62 822.72,-65.58 822.35,-58.59"/>
</g>
<!-- Node12 -->
<g id="node12" class="node">
<title>Node12</title>
<g id="a_node12"><a xlink:href="_conditional_8cc.html" target="_top" xlink:title=" ">
<polygon fill="white" stroke="black" points="144,-0.5 144,-19.5 278,-19.5 278,-0.5 144,-0.5"/>
<text text-anchor="middle" x="211" y="-7.5" font-family="Helvetica,sans-Serif" font-size="10.00">language/Conditional.cc</text>
</a>
</g>
</g>
<!-- Node9&#45;&gt;Node12 -->
<g id="edge11" class="edge">
<title>Node9&#45;&gt;Node12</title>
<path fill="none" stroke="midnightblue" d="M709.44,-56.53C707.94,-56.35 706.46,-56.17 705,-56 519.79,-34.38 472.5,-38.97 287,-20 284.09,-19.7 281.12,-19.39 278.12,-19.07"/>
<polygon fill="midnightblue" stroke="midnightblue" points="709.04,-60.01 719.41,-57.83 709.95,-53.07 709.04,-60.01"/>
</g>
<!-- Node9&#45;&gt;Node13 -->
<g id="edge12" class="edge">
<title>Node9&#45;&gt;Node13</title>
<path fill="none" stroke="midnightblue" d="M822.91,-60.72C912.76,-53.73 1092.89,-38.73 1245,-20 1248.09,-19.62 1251.26,-19.21 1254.45,-18.77"/>
<polygon fill="midnightblue" stroke="midnightblue" points="822.37,-57.25 812.67,-61.52 822.91,-64.23 822.37,-57.25"/>
</g>
<!-- Node9&#45;&gt;Node14 -->
<g id="edge13" class="edge">
<title>Node9&#45;&gt;Node14</title>
<path fill="none" stroke="midnightblue" d="M709.96,-54.6C654.96,-44.4 572.1,-29.02 520.89,-19.52"/>
<polygon fill="midnightblue" stroke="midnightblue" points="709.42,-58.06 719.89,-56.44 710.7,-51.18 709.42,-58.06"/>
</g>
<!-- Node9&#45;&gt;Node15 -->
<g id="edge14" class="edge">
<title>Node9&#45;&gt;Node15</title>
<path fill="none" stroke="midnightblue" d="M731.67,-53.04C702.5,-42.88 661.36,-28.55 635.45,-19.52"/>
<polygon fill="midnightblue" stroke="midnightblue" points="730.84,-56.46 741.44,-56.44 733.15,-49.85 730.84,-56.46"/>
</g>
<!-- Node9&#45;&gt;Node16 -->
<g id="edge15" class="edge">
<title>Node9&#45;&gt;Node16</title>
<path fill="none" stroke="midnightblue" d="M709.44,-56.49C707.95,-56.32 706.46,-56.15 705,-56 452.55,-29.45 387.72,-43.75 135,-20 132.12,-19.73 129.17,-19.43 126.19,-19.12"/>
<polygon fill="midnightblue" stroke="midnightblue" points="709.07,-59.97 719.42,-57.72 709.93,-53.02 709.07,-59.97"/>
</g>
<!-- Node17 -->
<g id="node17" class="node">
<title>Node17</title>
<g id="a_node17"><a xlink:href="_loop_8cc.html" target="_top" xlink:title=" ">
<polygon fill="white" stroke="black" points="296.5,-0.5 296.5,-19.5 397.5,-19.5 397.5,-0.5 296.5,-0.5"/>
<text text-anchor="middle" x="347" y="-7.5" font-family="Helvetica,sans-Serif" font-size="10.00">language/Loop.cc</text>
</a>
</g>
</g>
<!-- Node9&#45;&gt;Node17 -->
<g id="edge16" class="edge">
<title>Node9&#45;&gt;Node17</title>
<path fill="none" stroke="midnightblue" d="M709.43,-56.6C707.94,-56.4 706.46,-56.2 705,-56 572.34,-38.23 538.62,-38.09 406,-20 403.23,-19.62 400.38,-19.22 397.52,-18.81"/>
<polygon fill="midnightblue" stroke="midnightblue" points="709,-60.07 719.39,-57.99 709.97,-53.14 709,-60.07"/>
</g>
<!-- Node18 -->
<g id="node18" class="node">
<title>Node18</title>
<g id="a_node18"><a xlink:href="_null_8cc.html" target="_top" xlink:title=" ">
<polygon fill="white" stroke="black" points="852,-0.5 852,-19.5 950,-19.5 950,-0.5 852,-0.5"/>
<text text-anchor="middle" x="901" y="-7.5" font-family="Helvetica,sans-Serif" font-size="10.00">language/Null.cc</text>
</a>
</g>
</g>
<!-- Node9&#45;&gt;Node18 -->
<g id="edge17" class="edge">
<title>Node9&#45;&gt;Node18</title>
<path fill="none" stroke="midnightblue" d="M796.91,-52.64C822.24,-42.5 857.43,-28.43 879.71,-19.52"/>
<polygon fill="midnightblue" stroke="midnightblue" points="795.38,-49.48 787.39,-56.44 797.98,-55.98 795.38,-49.48"/>
</g>
<!-- Node9&#45;&gt;Node19 -->
<g id="edge18" class="edge">
<title>Node9&#45;&gt;Node19</title>
<path fill="none" stroke="midnightblue" d="M822.9,-58.02C892.69,-49.38 1014.61,-34.11 1119,-20 1121.85,-19.62 1124.77,-19.22 1127.71,-18.81"/>
<polygon fill="midnightblue" stroke="midnightblue" points="822.06,-54.59 812.57,-59.29 822.92,-61.54 822.06,-54.59"/>
</g>
<!-- Node9&#45;&gt;Node20 -->
<g id="edge19" class="edge">
<title>Node9&#45;&gt;Node20</title>
<path fill="none" stroke="midnightblue" d="M819.22,-54.47C870.81,-44.27 948.1,-28.98 995.94,-19.52"/>
<polygon fill="midnightblue" stroke="midnightblue" points="818.39,-51.07 809.26,-56.44 819.75,-57.94 818.39,-51.07"/>
</g>
<!-- Node25&#45;&gt;Node12 -->
<g id="edge37" class="edge">
<title>Node25&#45;&gt;Node12</title>
<path fill="none" stroke="midnightblue" d="M211,-45.8C211,-36.91 211,-26.78 211,-19.75"/>
<polygon fill="midnightblue" stroke="midnightblue" points="207.5,-46.08 211,-56.08 214.5,-46.08 207.5,-46.08"/>
</g>
<!-- Node25&#45;&gt;Node16 -->
<g id="edge38" class="edge">
<title>Node25&#45;&gt;Node16</title>
<path fill="none" stroke="midnightblue" d="M177.85,-52.91C150.03,-42.75 110.98,-28.51 86.34,-19.52"/>
<polygon fill="midnightblue" stroke="midnightblue" points="176.96,-56.3 187.55,-56.44 179.35,-49.73 176.96,-56.3"/>
</g>
<!-- Node26&#45;&gt;Node16 -->
<g id="edge42" class="edge">
<title>Node26&#45;&gt;Node16</title>
<path fill="none" stroke="midnightblue" d="M287.94,-54.54C235.21,-44.33 156,-29 107,-19.52"/>
<polygon fill="midnightblue" stroke="midnightblue" points="287.31,-57.98 297.79,-56.44 288.64,-51.11 287.31,-57.98"/>
</g>
<!-- Node26&#45;&gt;Node17 -->
<g id="edge43" class="edge">
<title>Node26&#45;&gt;Node17</title>
<path fill="none" stroke="midnightblue" d="M343.75,-46.1C344.58,-37.14 345.53,-26.86 346.19,-19.75"/>
<polygon fill="midnightblue" stroke="midnightblue" points="340.26,-45.8 342.83,-56.08 347.23,-46.45 340.26,-45.8"/>
</g>
</g>
</svg>
