<?xml version="1.0" encoding="UTF-8" standalone="no"?>
<!DOCTYPE svg PUBLIC "-//W3C//DTD SVG 1.1//EN"
 "http://www.w3.org/Graphics/SVG/1.1/DTD/svg11.dtd">
<!-- Generated by graphviz version 2.43.0 (0)
 -->
<!-- Title: language/ErrorStatment.h Pages: 1 -->
<svg width="620pt" height="140pt"
 viewBox="0.00 0.00 619.50 140.00" xmlns="http://www.w3.org/2000/svg" xmlns:xlink="http://www.w3.org/1999/xlink">
<g id="graph0" class="graph" transform="scale(1 1) rotate(0) translate(4 136)">
<title>language/ErrorStatment.h</title>
<polygon fill="white" stroke="transparent" points="-4,4 -4,-136 615.5,-136 615.5,4 -4,4"/>
<!-- Node1 -->
<g id="node1" class="node">
<title>Node1</title>
<g id="a_node1"><a xlink:title=" ">
<polygon fill="#bfbfbf" stroke="black" points="57,-112.5 57,-131.5 199,-131.5 199,-112.5 57,-112.5"/>
<text text-anchor="middle" x="128" y="-119.5" font-family="Helvetica,sans-Serif" font-size="10.00">language/ErrorStatment.h</text>
</a>
</g>
</g>
<!-- Node2 -->
<g id="node2" class="node">
<title>Node2</title>
<g id="a_node2"><a xlink:title=" ">
<polygon fill="white" stroke="#bfbfbf" points="74.5,-0.5 74.5,-19.5 119.5,-19.5 119.5,-0.5 74.5,-0.5"/>
<text text-anchor="middle" x="97" y="-7.5" font-family="Helvetica,sans-Serif" font-size="10.00">utility</text>
</a>
</g>
</g>
<!-- Node1&#45;&gt;Node2 -->
<g id="edge1" class="edge">
<title>Node1&#45;&gt;Node2</title>
<path fill="none" stroke="midnightblue" d="M125.48,-112.38C122.84,-103.33 118.59,-88.68 115,-76 110.57,-60.33 105.64,-42.51 102.06,-29.49"/>
<polygon fill="midnightblue" stroke="midnightblue" points="105.44,-28.56 99.41,-19.84 98.68,-30.41 105.44,-28.56"/>
</g>
<!-- Node3 -->
<g id="node3" class="node">
<title>Node3</title>
<g id="a_node3"><a xlink:href="_i_statment_8h.html" target="_top" xlink:title=" ">
<polygon fill="white" stroke="black" points="124,-56.5 124,-75.5 198,-75.5 198,-56.5 124,-56.5"/>
<text text-anchor="middle" x="161" y="-63.5" font-family="Helvetica,sans-Serif" font-size="10.00">IStatment.h</text>
</a>
</g>
</g>
<!-- Node1&#45;&gt;Node3 -->
<g id="edge2" class="edge">
<title>Node1&#45;&gt;Node3</title>
<path fill="none" stroke="midnightblue" d="M133.45,-112.08C138.01,-104.61 144.67,-93.72 150.29,-84.52"/>
<polygon fill="midnightblue" stroke="midnightblue" points="153.42,-86.11 155.65,-75.75 147.45,-82.46 153.42,-86.11"/>
</g>
<!-- Node6 -->
<g id="node6" class="node">
<title>Node6</title>
<g id="a_node6"><a xlink:href="_i_value_8h.html" target="_top" xlink:title=" ">
<polygon fill="white" stroke="black" points="0,-0.5 0,-19.5 56,-19.5 56,-0.5 0,-0.5"/>
<text text-anchor="middle" x="28" y="-7.5" font-family="Helvetica,sans-Serif" font-size="10.00">IValue.h</text>
</a>
</g>
</g>
<!-- Node1&#45;&gt;Node6 -->
<g id="edge6" class="edge">
<title>Node1&#45;&gt;Node6</title>
<path fill="none" stroke="midnightblue" d="M120.15,-112.37C103.43,-93.97 64.06,-50.67 42.59,-27.05"/>
<polygon fill="midnightblue" stroke="midnightblue" points="45.13,-24.64 35.81,-19.59 39.95,-29.35 45.13,-24.64"/>
</g>
<!-- Node7 -->
<g id="node7" class="node">
<title>Node7</title>
<g id="a_node7"><a xlink:href="utils_8h.html" target="_top" xlink:title=" ">
<polygon fill="white" stroke="black" points="280.5,-56.5 280.5,-75.5 327.5,-75.5 327.5,-56.5 280.5,-56.5"/>
<text text-anchor="middle" x="304" y="-63.5" font-family="Helvetica,sans-Serif" font-size="10.00">utils.h</text>
</a>
</g>
</g>
<!-- Node1&#45;&gt;Node7 -->
<g id="edge7" class="edge">
<title>Node1&#45;&gt;Node7</title>
<path fill="none" stroke="midnightblue" d="M155.89,-112.44C187.07,-102.88 237.55,-87.39 270.76,-77.2"/>
<polygon fill="midnightblue" stroke="midnightblue" points="271.93,-80.5 280.47,-74.22 269.88,-73.81 271.93,-80.5"/>
</g>
<!-- Node4 -->
<g id="node4" class="node">
<title>Node4</title>
<g id="a_node4"><a xlink:title=" ">
<polygon fill="white" stroke="#bfbfbf" points="200,-0.5 200,-19.5 256,-19.5 256,-0.5 200,-0.5"/>
<text text-anchor="middle" x="228" y="-7.5" font-family="Helvetica,sans-Serif" font-size="10.00">optional</text>
</a>
</g>
</g>
<!-- Node3&#45;&gt;Node4 -->
<g id="edge3" class="edge">
<title>Node3&#45;&gt;Node4</title>
<path fill="none" stroke="midnightblue" d="M171.76,-56.32C181.77,-48.26 196.89,-36.08 208.93,-26.37"/>
<polygon fill="midnightblue" stroke="midnightblue" points="211.45,-28.83 217.04,-19.83 207.06,-23.38 211.45,-28.83"/>
</g>
<!-- Node5 -->
<g id="node5" class="node">
<title>Node5</title>
<g id="a_node5"><a xlink:title=" ">
<polygon fill="white" stroke="#bfbfbf" points="138,-0.5 138,-19.5 182,-19.5 182,-0.5 138,-0.5"/>
<text text-anchor="middle" x="160" y="-7.5" font-family="Helvetica,sans-Serif" font-size="10.00">string</text>
</a>
</g>
</g>
<!-- Node3&#45;&gt;Node5 -->
<g id="edge4" class="edge">
<title>Node3&#45;&gt;Node5</title>
<path fill="none" stroke="midnightblue" d="M160.83,-56.08C160.7,-49.01 160.52,-38.86 160.35,-29.99"/>
<polygon fill="midnightblue" stroke="midnightblue" points="163.85,-29.68 160.16,-19.75 156.85,-29.81 163.85,-29.68"/>
</g>
<!-- Node3&#45;&gt;Node6 -->
<g id="edge5" class="edge">
<title>Node3&#45;&gt;Node6</title>
<path fill="none" stroke="midnightblue" d="M139.93,-56.44C117.94,-47.52 83.27,-33.44 58.34,-23.32"/>
<polygon fill="midnightblue" stroke="midnightblue" points="59.56,-20.04 48.98,-19.52 56.92,-26.52 59.56,-20.04"/>
</g>
<!-- Node7&#45;&gt;Node2 -->
<g id="edge14" class="edge">
<title>Node7&#45;&gt;Node2</title>
<path fill="none" stroke="midnightblue" d="M280.46,-59.13C248.59,-51.13 189.71,-36.23 129.73,-20.15"/>
<polygon fill="midnightblue" stroke="midnightblue" points="130.27,-16.67 119.71,-17.45 128.46,-23.43 130.27,-16.67"/>
</g>
<!-- Node7&#45;&gt;Node4 -->
<g id="edge11" class="edge">
<title>Node7&#45;&gt;Node4</title>
<path fill="none" stroke="midnightblue" d="M291.79,-56.32C280.22,-48.11 262.62,-35.6 248.84,-25.81"/>
<polygon fill="midnightblue" stroke="midnightblue" points="250.61,-22.77 240.43,-19.83 246.56,-28.48 250.61,-22.77"/>
</g>
<!-- Node7&#45;&gt;Node5 -->
<g id="edge13" class="edge">
<title>Node7&#45;&gt;Node5</title>
<path fill="none" stroke="midnightblue" d="M281.18,-56.44C257.03,-47.39 218.72,-33.02 191.65,-22.87"/>
<polygon fill="midnightblue" stroke="midnightblue" points="192.83,-19.57 182.24,-19.34 190.37,-26.13 192.83,-19.57"/>
</g>
<!-- Node8 -->
<g id="node8" class="node">
<title>Node8</title>
<g id="a_node8"><a xlink:title=" ">
<polygon fill="white" stroke="#bfbfbf" points="492,-0.5 492,-19.5 544,-19.5 544,-0.5 492,-0.5"/>
<text text-anchor="middle" x="518" y="-7.5" font-family="Helvetica,sans-Serif" font-size="10.00">cassert</text>
</a>
</g>
</g>
<!-- Node7&#45;&gt;Node8 -->
<g id="edge8" class="edge">
<title>Node7&#45;&gt;Node8</title>
<path fill="none" stroke="midnightblue" d="M327.75,-59.07C360.3,-50.94 420.85,-35.78 481.84,-20.29"/>
<polygon fill="midnightblue" stroke="midnightblue" points="482.8,-23.65 491.63,-17.8 481.08,-16.87 482.8,-23.65"/>
</g>
<!-- Node9 -->
<g id="node9" class="node">
<title>Node9</title>
<g id="a_node9"><a xlink:title=" ">
<polygon fill="white" stroke="#bfbfbf" points="562.5,-0.5 562.5,-19.5 611.5,-19.5 611.5,-0.5 562.5,-0.5"/>
<text text-anchor="middle" x="587" y="-7.5" font-family="Helvetica,sans-Serif" font-size="10.00">cstdlib</text>
</a>
</g>
</g>
<!-- Node7&#45;&gt;Node9 -->
<g id="edge9" class="edge">
<title>Node7&#45;&gt;Node9</title>
<path fill="none" stroke="midnightblue" d="M327.82,-61.35C370.68,-54.63 463.83,-39.41 552.25,-20.02"/>
<polygon fill="midnightblue" stroke="midnightblue" points="553.17,-23.4 562.17,-17.82 551.65,-16.56 553.17,-23.4"/>
</g>
<!-- Node10 -->
<g id="node10" class="node">
<title>Node10</title>
<g id="a_node10"><a xlink:title=" ">
<polygon fill="white" stroke="#bfbfbf" points="274,-0.5 274,-19.5 334,-19.5 334,-0.5 274,-0.5"/>
<text text-anchor="middle" x="304" y="-7.5" font-family="Helvetica,sans-Serif" font-size="10.00">iostream</text>
</a>
</g>
</g>
<!-- Node7&#45;&gt;Node10 -->
<g id="edge10" class="edge">
<title>Node7&#45;&gt;Node10</title>
<path fill="none" stroke="midnightblue" d="M304,-56.08C304,-49.01 304,-38.86 304,-29.99"/>
<polygon fill="midnightblue" stroke="midnightblue" points="307.5,-29.75 304,-19.75 300.5,-29.75 307.5,-29.75"/>
</g>
<!-- Node11 -->
<g id="node11" class="node">
<title>Node11</title>
<g id="a_node11"><a xlink:title=" ">
<polygon fill="white" stroke="#bfbfbf" points="352,-0.5 352,-19.5 408,-19.5 408,-0.5 352,-0.5"/>
<text text-anchor="middle" x="380" y="-7.5" font-family="Helvetica,sans-Serif" font-size="10.00">sstream</text>
</a>
</g>
</g>
<!-- Node7&#45;&gt;Node11 -->
<g id="edge12" class="edge">
<title>Node7&#45;&gt;Node11</title>
<path fill="none" stroke="midnightblue" d="M316.21,-56.32C327.78,-48.11 345.38,-35.6 359.16,-25.81"/>
<polygon fill="midnightblue" stroke="midnightblue" points="361.44,-28.48 367.57,-19.83 357.39,-22.77 361.44,-28.48"/>
</g>
<!-- Node12 -->
<g id="node12" class="node">
<title>Node12</title>
<g id="a_node12"><a xlink:title=" ">
<polygon fill="white" stroke="#bfbfbf" points="426.5,-0.5 426.5,-19.5 473.5,-19.5 473.5,-0.5 426.5,-0.5"/>
<text text-anchor="middle" x="450" y="-7.5" font-family="Helvetica,sans-Serif" font-size="10.00">vector</text>
</a>
</g>
</g>
<!-- Node7&#45;&gt;Node12 -->
<g id="edge15" class="edge">
<title>Node7&#45;&gt;Node12</title>
<path fill="none" stroke="midnightblue" d="M327.13,-56.44C351.48,-47.44 390.01,-33.19 417.42,-23.05"/>
<polygon fill="midnightblue" stroke="midnightblue" points="418.81,-26.27 426.97,-19.52 416.38,-19.7 418.81,-26.27"/>
</g>
</g>
</svg>
