<?xml version="1.0" encoding="UTF-8" standalone="no"?>
<!DOCTYPE svg PUBLIC "-//W3C//DTD SVG 1.1//EN"
 "http://www.w3.org/Graphics/SVG/1.1/DTD/svg11.dtd">
<!-- Generated by graphviz version 2.43.0 (0)
 -->
<!-- Title: language/IStatment.h Pages: 1 -->
<svg width="1729pt" height="476pt"
 viewBox="0.00 0.00 1728.50 476.00" xmlns="http://www.w3.org/2000/svg" xmlns:xlink="http://www.w3.org/1999/xlink">
<g id="graph0" class="graph" transform="scale(1 1) rotate(0) translate(4 472)">
<title>language/IStatment.h</title>
<polygon fill="white" stroke="transparent" points="-4,4 -4,-472 1724.5,-472 1724.5,4 -4,4"/>
<!-- Node1 -->
<g id="node1" class="node">
<title>Node1</title>
<g id="a_node1"><a xlink:title=" ">
<polygon fill="#bfbfbf" stroke="black" points="1028.5,-448.5 1028.5,-467.5 1150.5,-467.5 1150.5,-448.5 1028.5,-448.5"/>
<text text-anchor="middle" x="1089.5" y="-455.5" font-family="Helvetica,sans-Serif" font-size="10.00">language/IStatment.h</text>
</a>
</g>
</g>
<!-- Node2 -->
<g id="node2" class="node">
<title>Node2</title>
<g id="a_node2"><a xlink:href="parser_8h.html" target="_top" xlink:title=" ">
<polygon fill="white" stroke="black" points="676.5,-224.5 676.5,-243.5 780.5,-243.5 780.5,-224.5 676.5,-224.5"/>
<text text-anchor="middle" x="728.5" y="-231.5" font-family="Helvetica,sans-Serif" font-size="10.00">language/parser.h</text>
</a>
</g>
</g>
<!-- Node1&#45;&gt;Node2 -->
<g id="edge1" class="edge">
<title>Node1&#45;&gt;Node2</title>
<path fill="none" stroke="midnightblue" d="M1018.27,-449.35C959.04,-441.92 880.27,-429.24 853.5,-412 785.5,-368.21 743.55,-273.13 731.86,-243.8"/>
<polygon fill="midnightblue" stroke="midnightblue" points="1017.99,-452.84 1028.34,-450.59 1018.84,-445.89 1017.99,-452.84"/>
</g>
<!-- Node4 -->
<g id="node4" class="node">
<title>Node4</title>
<g id="a_node4"><a xlink:href="_expr_8h.html" target="_top" xlink:title=" ">
<polygon fill="white" stroke="black" points="403,-168.5 403,-187.5 498,-187.5 498,-168.5 403,-168.5"/>
<text text-anchor="middle" x="450.5" y="-175.5" font-family="Helvetica,sans-Serif" font-size="10.00">language/Expr.h</text>
</a>
</g>
</g>
<!-- Node1&#45;&gt;Node4 -->
<g id="edge54" class="edge">
<title>Node1&#45;&gt;Node4</title>
<path fill="none" stroke="midnightblue" d="M1018.22,-451.04C861.65,-436.99 501.5,-399.02 501.5,-347 501.5,-347 501.5,-347 501.5,-289 501.5,-247.95 471.91,-205.61 457.81,-187.77"/>
<polygon fill="midnightblue" stroke="midnightblue" points="1017.97,-454.53 1028.24,-451.93 1018.59,-447.56 1017.97,-454.53"/>
</g>
<!-- Node14 -->
<g id="node14" class="node">
<title>Node14</title>
<g id="a_node14"><a xlink:href="_i_statment_8cc.html" target="_top" xlink:title=" ">
<polygon fill="white" stroke="black" points="1514.5,-0.5 1514.5,-19.5 1640.5,-19.5 1640.5,-0.5 1514.5,-0.5"/>
<text text-anchor="middle" x="1577.5" y="-7.5" font-family="Helvetica,sans-Serif" font-size="10.00">language/IStatment.cc</text>
</a>
</g>
</g>
<!-- Node1&#45;&gt;Node14 -->
<g id="edge65" class="edge">
<title>Node1&#45;&gt;Node14</title>
<path fill="none" stroke="midnightblue" d="M1161.32,-455.77C1298.11,-451.46 1582.5,-432.25 1582.5,-347 1582.5,-347 1582.5,-347 1582.5,-121 1582.5,-83.15 1579.51,-38.05 1578.15,-19.55"/>
<polygon fill="midnightblue" stroke="midnightblue" points="1160.83,-452.28 1150.94,-456.07 1161.04,-459.28 1160.83,-452.28"/>
</g>
<!-- Node22 -->
<g id="node22" class="node">
<title>Node22</title>
<g id="a_node22"><a xlink:href="env_8h.html" target="_top" xlink:title=" ">
<polygon fill="white" stroke="black" points="635,-280.5 635,-299.5 726,-299.5 726,-280.5 635,-280.5"/>
<text text-anchor="middle" x="680.5" y="-287.5" font-family="Helvetica,sans-Serif" font-size="10.00">language/env.h</text>
</a>
</g>
</g>
<!-- Node1&#45;&gt;Node22 -->
<g id="edge27" class="edge">
<title>Node1&#45;&gt;Node22</title>
<path fill="none" stroke="midnightblue" d="M1018.17,-453.91C935.1,-449.17 803.97,-437.77 762.5,-412 717.88,-384.28 691.81,-322.27 683.46,-299.55"/>
<polygon fill="midnightblue" stroke="midnightblue" points="1018.12,-457.42 1028.3,-454.47 1018.51,-450.43 1018.12,-457.42"/>
</g>
<!-- Node24 -->
<g id="node24" class="node">
<title>Node24</title>
<g id="a_node24"><a xlink:href="_block_8h.html" target="_top" xlink:title=" ">
<polygon fill="white" stroke="black" points="1108,-392.5 1108,-411.5 1209,-411.5 1209,-392.5 1108,-392.5"/>
<text text-anchor="middle" x="1158.5" y="-399.5" font-family="Helvetica,sans-Serif" font-size="10.00">language/Block.h</text>
</a>
</g>
</g>
<!-- Node1&#45;&gt;Node24 -->
<g id="edge32" class="edge">
<title>Node1&#45;&gt;Node24</title>
<path fill="none" stroke="midnightblue" d="M1108.54,-442.1C1120.96,-432.38 1136.74,-420.03 1147.21,-411.83"/>
<polygon fill="midnightblue" stroke="midnightblue" points="1106.3,-439.4 1100.59,-448.32 1110.62,-444.92 1106.3,-439.4"/>
</g>
<!-- Node25 -->
<g id="node25" class="node">
<title>Node25</title>
<g id="a_node25"><a xlink:href="_func_def_8h.html" target="_top" xlink:title=" ">
<polygon fill="white" stroke="black" points="986,-336.5 986,-355.5 1099,-355.5 1099,-336.5 986,-336.5"/>
<text text-anchor="middle" x="1042.5" y="-343.5" font-family="Helvetica,sans-Serif" font-size="10.00">language/FuncDef.h</text>
</a>
</g>
</g>
<!-- Node1&#45;&gt;Node25 -->
<g id="edge48" class="edge">
<title>Node1&#45;&gt;Node25</title>
<path fill="none" stroke="midnightblue" d="M1081.81,-439C1071.55,-415 1053.81,-373.47 1046.17,-355.59"/>
<polygon fill="midnightblue" stroke="midnightblue" points="1078.66,-440.55 1085.81,-448.37 1085.1,-437.8 1078.66,-440.55"/>
</g>
<!-- Node26 -->
<g id="node26" class="node">
<title>Node26</title>
<g id="a_node26"><a xlink:href="_conditional_8h.html" target="_top" xlink:title=" ">
<polygon fill="white" stroke="black" points="1425,-280.5 1425,-299.5 1554,-299.5 1554,-280.5 1425,-280.5"/>
<text text-anchor="middle" x="1489.5" y="-287.5" font-family="Helvetica,sans-Serif" font-size="10.00">language/Conditional.h</text>
</a>
</g>
</g>
<!-- Node1&#45;&gt;Node26 -->
<g id="edge61" class="edge">
<title>Node1&#45;&gt;Node26</title>
<path fill="none" stroke="midnightblue" d="M1160.89,-453.82C1242.57,-449.01 1370.24,-437.57 1410.5,-412 1454.34,-384.16 1478.93,-322.23 1486.74,-299.54"/>
<polygon fill="midnightblue" stroke="midnightblue" points="1160.46,-450.34 1150.67,-454.4 1160.85,-457.32 1160.46,-450.34"/>
</g>
<!-- Node27 -->
<g id="node27" class="node">
<title>Node27</title>
<g id="a_node27"><a xlink:href="_loop_8h.html" target="_top" xlink:title=" ">
<polygon fill="white" stroke="black" points="1233,-280.5 1233,-299.5 1330,-299.5 1330,-280.5 1233,-280.5"/>
<text text-anchor="middle" x="1281.5" y="-287.5" font-family="Helvetica,sans-Serif" font-size="10.00">language/Loop.h</text>
</a>
</g>
</g>
<!-- Node1&#45;&gt;Node27 -->
<g id="edge66" class="edge">
<title>Node1&#45;&gt;Node27</title>
<path fill="none" stroke="midnightblue" d="M1150.39,-445.84C1173.74,-439.14 1199.35,-428.57 1218.5,-412 1255.22,-380.23 1273.53,-321.75 1279.37,-299.71"/>
<polygon fill="midnightblue" stroke="midnightblue" points="1149.3,-442.51 1140.54,-448.48 1151.11,-449.27 1149.3,-442.51"/>
</g>
<!-- Node28 -->
<g id="node28" class="node">
<title>Node28</title>
<g id="a_node28"><a xlink:href="_binding_usage_8h.html" target="_top" xlink:title=" ">
<polygon fill="white" stroke="black" points="112,-224.5 112,-243.5 253,-243.5 253,-224.5 112,-224.5"/>
<text text-anchor="middle" x="182.5" y="-231.5" font-family="Helvetica,sans-Serif" font-size="10.00">language/BindingUsage.h</text>
</a>
</g>
</g>
<!-- Node1&#45;&gt;Node28 -->
<g id="edge49" class="edge">
<title>Node1&#45;&gt;Node28</title>
<path fill="none" stroke="midnightblue" d="M1018.06,-455.66C880.69,-452.42 584.69,-442.09 487.5,-412 360.88,-372.8 230.29,-273.31 193,-243.54"/>
<polygon fill="midnightblue" stroke="midnightblue" points="1017.99,-459.16 1028.07,-455.89 1018.16,-452.16 1017.99,-459.16"/>
</g>
<!-- Node29 -->
<g id="node29" class="node">
<title>Node29</title>
<g id="a_node29"><a xlink:href="_error_statment_8h.html" target="_top" xlink:title=" ">
<polygon fill="white" stroke="black" points="623.5,-56.5 623.5,-75.5 765.5,-75.5 765.5,-56.5 623.5,-56.5"/>
<text text-anchor="middle" x="694.5" y="-63.5" font-family="Helvetica,sans-Serif" font-size="10.00">language/ErrorStatment.h</text>
</a>
</g>
</g>
<!-- Node1&#45;&gt;Node29 -->
<g id="edge55" class="edge">
<title>Node1&#45;&gt;Node29</title>
<path fill="none" stroke="midnightblue" d="M1060.97,-443.87C1026.76,-427.11 969.09,-395.48 929.5,-356 838.52,-265.28 867.74,-200.38 774.5,-112 757.38,-95.78 733.32,-83.27 716.06,-75.61"/>
<polygon fill="midnightblue" stroke="midnightblue" points="1059.85,-447.22 1070.38,-448.4 1062.88,-440.91 1059.85,-447.22"/>
</g>
<!-- Node31 -->
<g id="node31" class="node">
<title>Node31</title>
<g id="a_node31"><a xlink:href="_func_call_8h.html" target="_top" xlink:title=" ">
<polygon fill="white" stroke="black" points="1286,-56.5 1286,-75.5 1401,-75.5 1401,-56.5 1286,-56.5"/>
<text text-anchor="middle" x="1343.5" y="-63.5" font-family="Helvetica,sans-Serif" font-size="10.00">language/FuncCall.h</text>
</a>
</g>
</g>
<!-- Node1&#45;&gt;Node31 -->
<g id="edge62" class="edge">
<title>Node1&#45;&gt;Node31</title>
<path fill="none" stroke="midnightblue" d="M1156.79,-446.77C1247.15,-431.1 1396.5,-397.55 1396.5,-347 1396.5,-347 1396.5,-347 1396.5,-177 1396.5,-135.66 1365.75,-93.48 1351.09,-75.72"/>
<polygon fill="midnightblue" stroke="midnightblue" points="1156.15,-443.33 1146.88,-448.46 1157.33,-450.23 1156.15,-443.33"/>
</g>
<!-- Node32 -->
<g id="node32" class="node">
<title>Node32</title>
<g id="a_node32"><a xlink:href="_matrix_8h.html" target="_top" xlink:title=" ">
<polygon fill="white" stroke="black" points="1612,-392.5 1612,-411.5 1717,-411.5 1717,-392.5 1612,-392.5"/>
<text text-anchor="middle" x="1664.5" y="-399.5" font-family="Helvetica,sans-Serif" font-size="10.00">language/Matrix.h</text>
</a>
</g>
</g>
<!-- Node1&#45;&gt;Node32 -->
<g id="edge67" class="edge">
<title>Node1&#45;&gt;Node32</title>
<path fill="none" stroke="midnightblue" d="M1160.96,-451.63C1259.21,-444.03 1441.47,-429.13 1596.5,-412 1601.47,-411.45 1606.64,-410.84 1611.81,-410.2"/>
<polygon fill="midnightblue" stroke="midnightblue" points="1160.55,-448.15 1150.85,-452.41 1161.09,-455.13 1160.55,-448.15"/>
</g>
<!-- Node3 -->
<g id="node3" class="node">
<title>Node3</title>
<g id="a_node3"><a xlink:href="interpreter_8cc.html" target="_top" xlink:title=" ">
<polygon fill="white" stroke="black" points="516,-168.5 516,-187.5 597,-187.5 597,-168.5 516,-168.5"/>
<text text-anchor="middle" x="556.5" y="-175.5" font-family="Helvetica,sans-Serif" font-size="10.00">interpreter.cc</text>
</a>
</g>
</g>
<!-- Node2&#45;&gt;Node3 -->
<g id="edge2" class="edge">
<title>Node2&#45;&gt;Node3</title>
<path fill="none" stroke="midnightblue" d="M691.67,-221.44C659.24,-211.26 612.76,-196.66 583.63,-187.52"/>
<polygon fill="midnightblue" stroke="midnightblue" points="690.66,-224.79 701.25,-224.44 692.75,-218.11 690.66,-224.79"/>
</g>
<!-- Node2&#45;&gt;Node4 -->
<g id="edge3" class="edge">
<title>Node2&#45;&gt;Node4</title>
<path fill="none" stroke="midnightblue" d="M674.31,-222.47C621.77,-212.27 543.06,-196.98 494.34,-187.52"/>
<polygon fill="midnightblue" stroke="midnightblue" points="673.97,-225.97 684.45,-224.44 675.3,-219.1 673.97,-225.97"/>
</g>
<!-- Node9 -->
<g id="node9" class="node">
<title>Node9</title>
<g id="a_node9"><a xlink:href="_block_8cc.html" target="_top" xlink:title=" ">
<polygon fill="white" stroke="black" points="1120,-0.5 1120,-19.5 1225,-19.5 1225,-0.5 1120,-0.5"/>
<text text-anchor="middle" x="1172.5" y="-7.5" font-family="Helvetica,sans-Serif" font-size="10.00">language/Block.cc</text>
</a>
</g>
</g>
<!-- Node2&#45;&gt;Node9 -->
<g id="edge24" class="edge">
<title>Node2&#45;&gt;Node9</title>
<path fill="none" stroke="midnightblue" d="M754.79,-219.86C836.87,-178.81 1087,-53.75 1155.18,-19.66"/>
<polygon fill="midnightblue" stroke="midnightblue" points="753.01,-216.83 745.63,-224.43 756.14,-223.09 753.01,-216.83"/>
</g>
<!-- Node17 -->
<g id="node17" class="node">
<title>Node17</title>
<g id="a_node17"><a xlink:href="parser_8cc.html" target="_top" xlink:title=" ">
<polygon fill="white" stroke="black" points="605.5,-0.5 605.5,-19.5 713.5,-19.5 713.5,-0.5 605.5,-0.5"/>
<text text-anchor="middle" x="659.5" y="-7.5" font-family="Helvetica,sans-Serif" font-size="10.00">language/parser.cc</text>
</a>
</g>
</g>
<!-- Node2&#45;&gt;Node17 -->
<g id="edge25" class="edge">
<title>Node2&#45;&gt;Node17</title>
<path fill="none" stroke="midnightblue" d="M749.02,-217.87C757.94,-210.05 767.49,-199.69 772.5,-188 778.03,-175.09 776.75,-59.3 774.5,-56 760.72,-35.81 736.41,-24.68 713.68,-18.54"/>
<polygon fill="midnightblue" stroke="midnightblue" points="746.67,-215.27 741.15,-224.31 751.1,-220.69 746.67,-215.27"/>
</g>
<!-- Node21 -->
<g id="node21" class="node">
<title>Node21</title>
<g id="a_node21"><a xlink:href="_test_parser_8cc.html" target="_top" xlink:title=" ">
<polygon fill="white" stroke="black" points="615,-168.5 615,-187.5 764,-187.5 764,-168.5 615,-168.5"/>
<text text-anchor="middle" x="689.5" y="-175.5" font-family="Helvetica,sans-Serif" font-size="10.00">language/test/TestParser.cc</text>
</a>
</g>
</g>
<!-- Node2&#45;&gt;Node21 -->
<g id="edge26" class="edge">
<title>Node2&#45;&gt;Node21</title>
<path fill="none" stroke="midnightblue" d="M716.12,-215.86C709.36,-206.5 701.29,-195.33 695.82,-187.75"/>
<polygon fill="midnightblue" stroke="midnightblue" points="713.37,-218.03 722.06,-224.08 719.04,-213.93 713.37,-218.03"/>
</g>
<!-- Node5 -->
<g id="node5" class="node">
<title>Node5</title>
<g id="a_node5"><a xlink:href="_bind_def_8h.html" target="_top" xlink:title=" ">
<polygon fill="white" stroke="black" points="489.5,-112.5 489.5,-131.5 601.5,-131.5 601.5,-112.5 489.5,-112.5"/>
<text text-anchor="middle" x="545.5" y="-119.5" font-family="Helvetica,sans-Serif" font-size="10.00">language/BindDef.h</text>
</a>
</g>
</g>
<!-- Node4&#45;&gt;Node5 -->
<g id="edge4" class="edge">
<title>Node4&#45;&gt;Node5</title>
<path fill="none" stroke="midnightblue" d="M474.82,-163.18C492.3,-153.24 515.33,-140.15 530.27,-131.65"/>
<polygon fill="midnightblue" stroke="midnightblue" points="472.73,-160.34 465.76,-168.32 476.19,-166.43 472.73,-160.34"/>
</g>
<!-- Node11 -->
<g id="node11" class="node">
<title>Node11</title>
<g id="a_node11"><a xlink:href="_expr_8cc.html" target="_top" xlink:title=" ">
<polygon fill="white" stroke="black" points="488,-0.5 488,-19.5 587,-19.5 587,-0.5 488,-0.5"/>
<text text-anchor="middle" x="537.5" y="-7.5" font-family="Helvetica,sans-Serif" font-size="10.00">language/Expr.cc</text>
</a>
</g>
</g>
<!-- Node4&#45;&gt;Node11 -->
<g id="edge20" class="edge">
<title>Node4&#45;&gt;Node11</title>
<path fill="none" stroke="midnightblue" d="M451.41,-158.33C453.41,-133.22 459.85,-88.02 480.5,-56 490.75,-40.11 508.56,-27.39 521.55,-19.58"/>
<polygon fill="midnightblue" stroke="midnightblue" points="447.91,-158.13 450.76,-168.34 454.9,-158.58 447.91,-158.13"/>
</g>
<!-- Node18 -->
<g id="node18" class="node">
<title>Node18</title>
<g id="a_node18"><a xlink:href="_test_bind_8cc.html" target="_top" xlink:title=" ">
<polygon fill="white" stroke="black" points="0,-0.5 0,-19.5 141,-19.5 141,-0.5 0,-0.5"/>
<text text-anchor="middle" x="70.5" y="-7.5" font-family="Helvetica,sans-Serif" font-size="10.00">language/test/TestBind.cc</text>
</a>
</g>
</g>
<!-- Node4&#45;&gt;Node18 -->
<g id="edge21" class="edge">
<title>Node4&#45;&gt;Node18</title>
<path fill="none" stroke="midnightblue" d="M397.63,-166.23C364.45,-158.6 321.17,-147.06 284.5,-132 243.04,-114.98 125.6,-44.46 84.73,-19.67"/>
<polygon fill="midnightblue" stroke="midnightblue" points="397.05,-169.68 407.58,-168.46 398.59,-162.85 397.05,-169.68"/>
</g>
<!-- Node19 -->
<g id="node19" class="node">
<title>Node19</title>
<g id="a_node19"><a xlink:href="_test_block_8cc.html" target="_top" xlink:title=" ">
<polygon fill="white" stroke="black" points="619.5,-112.5 619.5,-131.5 765.5,-131.5 765.5,-112.5 619.5,-112.5"/>
<text text-anchor="middle" x="692.5" y="-119.5" font-family="Helvetica,sans-Serif" font-size="10.00">language/test/TestBlock.cc</text>
</a>
</g>
</g>
<!-- Node4&#45;&gt;Node19 -->
<g id="edge22" class="edge">
<title>Node4&#45;&gt;Node19</title>
<path fill="none" stroke="midnightblue" d="M498.82,-166.22C544.55,-156.01 612.28,-140.9 654.33,-131.52"/>
<polygon fill="midnightblue" stroke="midnightblue" points="497.84,-162.85 488.85,-168.44 499.37,-169.68 497.84,-162.85"/>
</g>
<!-- Node20 -->
<g id="node20" class="node">
<title>Node20</title>
<g id="a_node20"><a xlink:href="_test_expr_8cc.html" target="_top" xlink:title=" ">
<polygon fill="white" stroke="black" points="293.5,-112.5 293.5,-131.5 433.5,-131.5 433.5,-112.5 293.5,-112.5"/>
<text text-anchor="middle" x="363.5" y="-119.5" font-family="Helvetica,sans-Serif" font-size="10.00">language/test/TestExpr.cc</text>
</a>
</g>
</g>
<!-- Node4&#45;&gt;Node20 -->
<g id="edge23" class="edge">
<title>Node4&#45;&gt;Node20</title>
<path fill="none" stroke="midnightblue" d="M427.78,-162.9C411.83,-153 391,-140.07 377.44,-131.65"/>
<polygon fill="midnightblue" stroke="midnightblue" points="426.18,-166.02 436.52,-168.32 429.87,-160.08 426.18,-166.02"/>
</g>
<!-- Node6 -->
<g id="node6" class="node">
<title>Node6</title>
<g id="a_node6"><a xlink:href="_bind_def_8cc.html" target="_top" xlink:title=" ">
<polygon fill="white" stroke="black" points="489.5,-56.5 489.5,-75.5 605.5,-75.5 605.5,-56.5 489.5,-56.5"/>
<text text-anchor="middle" x="547.5" y="-63.5" font-family="Helvetica,sans-Serif" font-size="10.00">language/BindDef.cc</text>
</a>
</g>
</g>
<!-- Node5&#45;&gt;Node6 -->
<g id="edge5" class="edge">
<title>Node5&#45;&gt;Node6</title>
<path fill="none" stroke="midnightblue" d="M546.21,-101.8C546.54,-92.91 546.92,-82.78 547.18,-75.75"/>
<polygon fill="midnightblue" stroke="midnightblue" points="542.7,-101.96 545.83,-112.08 549.7,-102.22 542.7,-101.96"/>
</g>
<!-- Node7 -->
<g id="node7" class="node">
<title>Node7</title>
<g id="a_node7"><a xlink:href="_null_8h.html" target="_top" xlink:title=" ">
<polygon fill="white" stroke="black" points="860,-56.5 860,-75.5 953,-75.5 953,-56.5 860,-56.5"/>
<text text-anchor="middle" x="906.5" y="-63.5" font-family="Helvetica,sans-Serif" font-size="10.00">language/Null.h</text>
</a>
</g>
</g>
<!-- Node5&#45;&gt;Node7 -->
<g id="edge6" class="edge">
<title>Node5&#45;&gt;Node7</title>
<path fill="none" stroke="midnightblue" d="M611.81,-111.08C683.74,-100.32 796.71,-83.42 859.84,-73.98"/>
<polygon fill="midnightblue" stroke="midnightblue" points="610.88,-107.68 601.51,-112.62 611.92,-114.6 610.88,-107.68"/>
</g>
<!-- Node5&#45;&gt;Node14 -->
<g id="edge18" class="edge">
<title>Node5&#45;&gt;Node14</title>
<path fill="none" stroke="midnightblue" d="M611.48,-111.92C767.86,-93.26 808.9,-93.48 961.5,-76 1031.82,-67.94 1049.14,-63.73 1119.5,-56 1290.77,-37.18 1334.22,-38.69 1505.5,-20 1508.38,-19.69 1511.32,-19.36 1514.3,-19.01"/>
<polygon fill="midnightblue" stroke="midnightblue" points="611.02,-108.45 601.5,-113.12 611.85,-115.4 611.02,-108.45"/>
</g>
<!-- Node5&#45;&gt;Node18 -->
<g id="edge19" class="edge">
<title>Node5&#45;&gt;Node18</title>
<path fill="none" stroke="midnightblue" d="M498.79,-110.18C404.43,-88.33 192.82,-39.33 107.35,-19.53"/>
<polygon fill="midnightblue" stroke="midnightblue" points="498.09,-113.61 508.62,-112.46 499.67,-106.79 498.09,-113.61"/>
</g>
<!-- Node8 -->
<g id="node8" class="node">
<title>Node8</title>
<g id="a_node8"><a xlink:href="_binding_usage_8cc.html" target="_top" xlink:title=" ">
<polygon fill="white" stroke="black" points="159.5,-0.5 159.5,-19.5 305.5,-19.5 305.5,-0.5 159.5,-0.5"/>
<text text-anchor="middle" x="232.5" y="-7.5" font-family="Helvetica,sans-Serif" font-size="10.00">language/BindingUsage.cc</text>
</a>
</g>
</g>
<!-- Node7&#45;&gt;Node8 -->
<g id="edge7" class="edge">
<title>Node7&#45;&gt;Node8</title>
<path fill="none" stroke="midnightblue" d="M849.35,-60.9C721.85,-51.72 417.32,-29.55 314.5,-20 311.65,-19.74 308.74,-19.46 305.81,-19.17"/>
<polygon fill="midnightblue" stroke="midnightblue" points="849.44,-64.42 859.67,-61.64 849.95,-57.44 849.44,-64.42"/>
</g>
<!-- Node7&#45;&gt;Node9 -->
<g id="edge8" class="edge">
<title>Node7&#45;&gt;Node9</title>
<path fill="none" stroke="midnightblue" d="M958.67,-54.41C1008.94,-44.2 1084.03,-28.96 1130.55,-19.52"/>
<polygon fill="midnightblue" stroke="midnightblue" points="957.75,-51.02 948.65,-56.44 959.14,-57.88 957.75,-51.02"/>
</g>
<!-- Node10 -->
<g id="node10" class="node">
<title>Node10</title>
<g id="a_node10"><a xlink:href="_conditional_8cc.html" target="_top" xlink:title=" ">
<polygon fill="white" stroke="black" points="1362.5,-0.5 1362.5,-19.5 1496.5,-19.5 1496.5,-0.5 1362.5,-0.5"/>
<text text-anchor="middle" x="1429.5" y="-7.5" font-family="Helvetica,sans-Serif" font-size="10.00">language/Conditional.cc</text>
</a>
</g>
</g>
<!-- Node7&#45;&gt;Node10 -->
<g id="edge9" class="edge">
<title>Node7&#45;&gt;Node10</title>
<path fill="none" stroke="midnightblue" d="M963.39,-59.6C1048.35,-51.45 1213.39,-35.35 1353.5,-20 1356.41,-19.68 1359.37,-19.35 1362.37,-19.01"/>
<polygon fill="midnightblue" stroke="midnightblue" points="962.8,-56.14 953.18,-60.57 963.47,-63.1 962.8,-56.14"/>
</g>
<!-- Node7&#45;&gt;Node11 -->
<g id="edge10" class="edge">
<title>Node7&#45;&gt;Node11</title>
<path fill="none" stroke="midnightblue" d="M849.74,-56.89C787.57,-47.97 684.91,-33.16 596.5,-20 593.43,-19.54 590.26,-19.07 587.07,-18.59"/>
<polygon fill="midnightblue" stroke="midnightblue" points="849.35,-60.37 859.74,-58.32 850.34,-53.44 849.35,-60.37"/>
</g>
<!-- Node12 -->
<g id="node12" class="node">
<title>Node12</title>
<g id="a_node12"><a xlink:href="_func_call_8cc.html" target="_top" xlink:title=" ">
<polygon fill="white" stroke="black" points="983,-0.5 983,-19.5 1102,-19.5 1102,-0.5 983,-0.5"/>
<text text-anchor="middle" x="1042.5" y="-7.5" font-family="Helvetica,sans-Serif" font-size="10.00">language/FuncCall.cc</text>
</a>
</g>
</g>
<!-- Node7&#45;&gt;Node12 -->
<g id="edge11" class="edge">
<title>Node7&#45;&gt;Node12</title>
<path fill="none" stroke="midnightblue" d="M937.63,-52.64C963.16,-42.5 998.61,-28.43 1021.05,-19.52"/>
<polygon fill="midnightblue" stroke="midnightblue" points="936.05,-49.5 928.05,-56.44 938.64,-56.01 936.05,-49.5"/>
</g>
<!-- Node13 -->
<g id="node13" class="node">
<title>Node13</title>
<g id="a_node13"><a xlink:href="_func_def_8cc.html" target="_top" xlink:title=" ">
<polygon fill="white" stroke="black" points="848,-0.5 848,-19.5 965,-19.5 965,-0.5 848,-0.5"/>
<text text-anchor="middle" x="906.5" y="-7.5" font-family="Helvetica,sans-Serif" font-size="10.00">language/FuncDef.cc</text>
</a>
</g>
</g>
<!-- Node7&#45;&gt;Node13 -->
<g id="edge12" class="edge">
<title>Node7&#45;&gt;Node13</title>
<path fill="none" stroke="midnightblue" d="M906.5,-45.8C906.5,-36.91 906.5,-26.78 906.5,-19.75"/>
<polygon fill="midnightblue" stroke="midnightblue" points="903,-46.08 906.5,-56.08 910,-46.08 903,-46.08"/>
</g>
<!-- Node7&#45;&gt;Node14 -->
<g id="edge13" class="edge">
<title>Node7&#45;&gt;Node14</title>
<path fill="none" stroke="midnightblue" d="M963.37,-61.67C1069.89,-55.21 1306.66,-39.88 1505.5,-20 1508.38,-19.71 1511.33,-19.4 1514.3,-19.08"/>
<polygon fill="midnightblue" stroke="midnightblue" points="962.94,-58.19 953.17,-62.28 963.36,-65.17 962.94,-58.19"/>
</g>
<!-- Node15 -->
<g id="node15" class="node">
<title>Node15</title>
<g id="a_node15"><a xlink:href="_loop_8cc.html" target="_top" xlink:title=" ">
<polygon fill="white" stroke="black" points="1243,-0.5 1243,-19.5 1344,-19.5 1344,-0.5 1243,-0.5"/>
<text text-anchor="middle" x="1293.5" y="-7.5" font-family="Helvetica,sans-Serif" font-size="10.00">language/Loop.cc</text>
</a>
</g>
</g>
<!-- Node7&#45;&gt;Node15 -->
<g id="edge14" class="edge">
<title>Node7&#45;&gt;Node15</title>
<path fill="none" stroke="midnightblue" d="M963.35,-57.46C1028.78,-48.73 1139.47,-33.77 1234.5,-20 1237.27,-19.6 1240.11,-19.18 1242.98,-18.76"/>
<polygon fill="midnightblue" stroke="midnightblue" points="962.69,-54.02 953.24,-58.81 963.62,-60.96 962.69,-54.02"/>
</g>
<!-- Node16 -->
<g id="node16" class="node">
<title>Node16</title>
<g id="a_node16"><a xlink:href="_null_8cc.html" target="_top" xlink:title=" ">
<polygon fill="white" stroke="black" points="731.5,-0.5 731.5,-19.5 829.5,-19.5 829.5,-0.5 731.5,-0.5"/>
<text text-anchor="middle" x="780.5" y="-7.5" font-family="Helvetica,sans-Serif" font-size="10.00">language/Null.cc</text>
</a>
</g>
</g>
<!-- Node7&#45;&gt;Node16 -->
<g id="edge15" class="edge">
<title>Node7&#45;&gt;Node16</title>
<path fill="none" stroke="midnightblue" d="M877.34,-52.5C853.72,-42.38 821.07,-28.39 800.37,-19.52"/>
<polygon fill="midnightblue" stroke="midnightblue" points="875.96,-55.72 886.53,-56.44 878.72,-49.29 875.96,-55.72"/>
</g>
<!-- Node7&#45;&gt;Node17 -->
<g id="edge16" class="edge">
<title>Node7&#45;&gt;Node17</title>
<path fill="none" stroke="midnightblue" d="M857.47,-54.28C810.8,-44.08 741.47,-28.92 698.45,-19.52"/>
<polygon fill="midnightblue" stroke="midnightblue" points="856.85,-57.73 867.36,-56.44 858.34,-50.89 856.85,-57.73"/>
</g>
<!-- Node7&#45;&gt;Node18 -->
<g id="edge17" class="edge">
<title>Node7&#45;&gt;Node18</title>
<path fill="none" stroke="midnightblue" d="M849.71,-61C826.41,-59.39 799.16,-57.55 774.5,-56 497.25,-38.55 427.3,-43.54 150.5,-20 147.44,-19.74 144.31,-19.46 141.15,-19.16"/>
<polygon fill="midnightblue" stroke="midnightblue" points="849.56,-64.5 859.77,-61.69 850.04,-57.51 849.56,-64.5"/>
</g>
<!-- Node22&#45;&gt;Node2 -->
<g id="edge28" class="edge">
<title>Node22&#45;&gt;Node2</title>
<path fill="none" stroke="midnightblue" d="M695.23,-272.43C703.64,-262.97 713.85,-251.48 720.72,-243.75"/>
<polygon fill="midnightblue" stroke="midnightblue" points="692.45,-270.28 688.43,-280.08 697.69,-274.93 692.45,-270.28"/>
</g>
<!-- Node22&#45;&gt;Node8 -->
<g id="edge29" class="edge">
<title>Node22&#45;&gt;Node8</title>
<path fill="none" stroke="midnightblue" d="M624.87,-282.13C539.63,-268.67 376.89,-230.96 284.5,-132 252.67,-97.9 238.55,-41.31 234.13,-19.73"/>
<polygon fill="midnightblue" stroke="midnightblue" points="624.46,-285.61 634.88,-283.65 625.52,-278.69 624.46,-285.61"/>
</g>
<!-- Node22&#45;&gt;Node18 -->
<g id="edge31" class="edge">
<title>Node22&#45;&gt;Node18</title>
<path fill="none" stroke="midnightblue" d="M624.69,-287.87C488,-284.64 144.53,-273.65 102.5,-244 76.65,-225.76 73.5,-210.63 73.5,-179 73.5,-179 73.5,-179 73.5,-121 73.5,-83.17 71.71,-38.06 70.89,-19.56"/>
<polygon fill="midnightblue" stroke="midnightblue" points="624.86,-291.37 634.94,-288.1 625.03,-284.37 624.86,-291.37"/>
</g>
<!-- Node23 -->
<g id="node23" class="node">
<title>Node23</title>
<g id="a_node23"><a xlink:href="env_8cc.html" target="_top" xlink:title=" ">
<polygon fill="white" stroke="black" points="563,-224.5 563,-243.5 658,-243.5 658,-224.5 563,-224.5"/>
<text text-anchor="middle" x="610.5" y="-231.5" font-family="Helvetica,sans-Serif" font-size="10.00">language/env.cc</text>
</a>
</g>
</g>
<!-- Node22&#45;&gt;Node23 -->
<g id="edge30" class="edge">
<title>Node22&#45;&gt;Node23</title>
<path fill="none" stroke="midnightblue" d="M661.19,-274.1C648.59,-264.38 632.57,-252.03 621.95,-243.83"/>
<polygon fill="midnightblue" stroke="midnightblue" points="659.2,-276.99 669.25,-280.32 663.47,-271.44 659.2,-276.99"/>
</g>
<!-- Node24&#45;&gt;Node9 -->
<g id="edge38" class="edge">
<title>Node24&#45;&gt;Node9</title>
<path fill="none" stroke="midnightblue" d="M1159.18,-382.17C1161.69,-312.23 1170.42,-68.97 1172.19,-19.73"/>
<polygon fill="midnightblue" stroke="midnightblue" points="1155.67,-382.37 1158.81,-392.49 1162.66,-382.62 1155.67,-382.37"/>
</g>
<!-- Node24&#45;&gt;Node11 -->
<g id="edge42" class="edge">
<title>Node24&#45;&gt;Node11</title>
<path fill="none" stroke="midnightblue" d="M1097.96,-398.67C1059.58,-394.35 1010.88,-383.33 976.5,-356 951.14,-335.84 943.5,-323.4 943.5,-291 943.5,-291 943.5,-291 943.5,-233 943.5,-124.23 870.05,-107.96 774.5,-56 758.27,-47.17 651.76,-29.13 587.18,-18.77"/>
<polygon fill="midnightblue" stroke="midnightblue" points="1097.68,-402.16 1107.98,-399.67 1098.38,-395.19 1097.68,-402.16"/>
</g>
<!-- Node24&#45;&gt;Node14 -->
<g id="edge43" class="edge">
<title>Node24&#45;&gt;Node14</title>
<path fill="none" stroke="midnightblue" d="M1188.75,-388.36C1226.52,-371.66 1291.95,-339.68 1339.5,-300 1396.02,-252.84 1538.83,-62.9 1571,-19.75"/>
<polygon fill="midnightblue" stroke="midnightblue" points="1187.09,-385.26 1179.32,-392.46 1189.88,-391.68 1187.09,-385.26"/>
</g>
<!-- Node24&#45;&gt;Node19 -->
<g id="edge47" class="edge">
<title>Node24&#45;&gt;Node19</title>
<path fill="none" stroke="midnightblue" d="M1097.68,-400.01C1049.12,-396.75 980.93,-386.45 929.5,-356 835.82,-300.54 856.2,-237.6 772.5,-168 753.88,-152.51 729.17,-139.55 712.16,-131.58"/>
<polygon fill="midnightblue" stroke="midnightblue" points="1097.55,-403.51 1107.74,-400.6 1097.96,-396.52 1097.55,-403.51"/>
</g>
<!-- Node24&#45;&gt;Node25 -->
<g id="edge33" class="edge">
<title>Node24&#45;&gt;Node25</title>
<path fill="none" stroke="midnightblue" d="M1130.78,-388.1C1109.11,-378.01 1079.6,-364.27 1060.79,-355.52"/>
<polygon fill="midnightblue" stroke="midnightblue" points="1129.58,-391.4 1140.12,-392.44 1132.53,-385.05 1129.58,-391.4"/>
</g>
<!-- Node24&#45;&gt;Node26 -->
<g id="edge39" class="edge">
<title>Node24&#45;&gt;Node26</title>
<path fill="none" stroke="midnightblue" d="M1194.69,-389.3C1222.54,-380.28 1261.99,-367.44 1296.5,-356 1356.74,-336.03 1427.39,-312.11 1464.24,-299.6"/>
<polygon fill="midnightblue" stroke="midnightblue" points="1193.42,-386.04 1184.98,-392.45 1195.57,-392.7 1193.42,-386.04"/>
</g>
<!-- Node24&#45;&gt;Node27 -->
<g id="edge44" class="edge">
<title>Node24&#45;&gt;Node27</title>
<path fill="none" stroke="midnightblue" d="M1175.82,-385.51C1202.1,-362.01 1251.19,-318.11 1271.89,-299.59"/>
<polygon fill="midnightblue" stroke="midnightblue" points="1173.27,-383.09 1168.15,-392.37 1177.94,-388.31 1173.27,-383.09"/>
</g>
<!-- Node25&#45;&gt;Node12 -->
<g id="edge35" class="edge">
<title>Node25&#45;&gt;Node12</title>
<path fill="none" stroke="midnightblue" d="M1036.28,-326.76C1029.47,-305.14 1019.5,-267.88 1019.5,-235 1019.5,-235 1019.5,-235 1019.5,-121 1019.5,-82.56 1033.12,-38.14 1039.4,-19.71"/>
<polygon fill="midnightblue" stroke="midnightblue" points="1032.96,-327.88 1039.4,-336.29 1039.61,-325.7 1032.96,-327.88"/>
</g>
<!-- Node25&#45;&gt;Node13 -->
<g id="edge36" class="edge">
<title>Node25&#45;&gt;Node13</title>
<path fill="none" stroke="midnightblue" d="M1026.91,-329.16C1008.84,-309.04 981.5,-272.43 981.5,-235 981.5,-235 981.5,-235 981.5,-121 981.5,-90.77 978.36,-81.09 961.5,-56 951.04,-40.44 933.61,-27.49 921.18,-19.54"/>
<polygon fill="midnightblue" stroke="midnightblue" points="1024.38,-331.57 1033.76,-336.49 1029.49,-326.79 1024.38,-331.57"/>
</g>
<!-- Node25&#45;&gt;Node14 -->
<g id="edge37" class="edge">
<title>Node25&#45;&gt;Node14</title>
<path fill="none" stroke="midnightblue" d="M1058.48,-328.89C1085.71,-301.13 1142.37,-242.02 1185.5,-188 1230.12,-132.11 1216.74,-93.71 1277.5,-56 1287.48,-49.8 1429.4,-30.37 1514.41,-19.17"/>
<polygon fill="midnightblue" stroke="midnightblue" points="1055.84,-326.59 1051.31,-336.16 1060.82,-331.5 1055.84,-326.59"/>
</g>
<!-- Node25&#45;&gt;Node22 -->
<g id="edge34" class="edge">
<title>Node25&#45;&gt;Node22</title>
<path fill="none" stroke="midnightblue" d="M975.98,-335.08C903.39,-324.25 789.12,-307.2 726.07,-297.8"/>
<polygon fill="midnightblue" stroke="midnightblue" points="975.53,-338.55 985.94,-336.56 976.56,-331.63 975.53,-338.55"/>
</g>
<!-- Node26&#45;&gt;Node10 -->
<g id="edge40" class="edge">
<title>Node26&#45;&gt;Node10</title>
<path fill="none" stroke="midnightblue" d="M1485.48,-270.39C1473.72,-215.88 1439.64,-57.99 1431.34,-19.52"/>
<polygon fill="midnightblue" stroke="midnightblue" points="1482.11,-271.34 1487.64,-280.38 1488.95,-269.86 1482.11,-271.34"/>
</g>
<!-- Node26&#45;&gt;Node14 -->
<g id="edge41" class="edge">
<title>Node26&#45;&gt;Node14</title>
<path fill="none" stroke="midnightblue" d="M1503.77,-272.61C1520.07,-252.16 1544.5,-215.43 1544.5,-179 1544.5,-179 1544.5,-179 1544.5,-121 1544.5,-81.72 1564.04,-37.76 1573.05,-19.58"/>
<polygon fill="midnightblue" stroke="midnightblue" points="1501.06,-270.4 1497.38,-280.33 1506.45,-274.86 1501.06,-270.4"/>
</g>
<!-- Node27&#45;&gt;Node14 -->
<g id="edge45" class="edge">
<title>Node27&#45;&gt;Node14</title>
<path fill="none" stroke="midnightblue" d="M1288.11,-270.63C1297.76,-245.55 1317.52,-200.04 1344.5,-168 1407.34,-93.38 1514.2,-39.53 1557.95,-19.54"/>
<polygon fill="midnightblue" stroke="midnightblue" points="1284.71,-269.72 1284.5,-280.32 1291.27,-272.17 1284.71,-269.72"/>
</g>
<!-- Node27&#45;&gt;Node15 -->
<g id="edge46" class="edge">
<title>Node27&#45;&gt;Node15</title>
<path fill="none" stroke="midnightblue" d="M1281.03,-270.2C1280.12,-233.08 1278.17,-147.75 1277.5,-76 1277.42,-67.11 1275.99,-64.76 1277.5,-56 1279.76,-42.93 1285.44,-28.62 1289.39,-19.72"/>
<polygon fill="midnightblue" stroke="midnightblue" points="1277.54,-270.57 1281.28,-280.48 1284.53,-270.39 1277.54,-270.57"/>
</g>
<!-- Node28&#45;&gt;Node4 -->
<g id="edge50" class="edge">
<title>Node28&#45;&gt;Node4</title>
<path fill="none" stroke="midnightblue" d="M235.06,-222.41C285.71,-212.2 361.37,-196.96 408.23,-187.52"/>
<polygon fill="midnightblue" stroke="midnightblue" points="234.08,-219.04 224.97,-224.44 235.46,-225.9 234.08,-219.04"/>
</g>
<!-- Node28&#45;&gt;Node8 -->
<g id="edge51" class="edge">
<title>Node28&#45;&gt;Node8</title>
<path fill="none" stroke="midnightblue" d="M186.71,-214.3C196.99,-168.64 223.07,-52.85 230.5,-19.88"/>
<polygon fill="midnightblue" stroke="midnightblue" points="183.24,-213.77 184.46,-224.3 190.07,-215.31 183.24,-213.77"/>
</g>
<!-- Node28&#45;&gt;Node14 -->
<g id="edge52" class="edge">
<title>Node28&#45;&gt;Node14</title>
<path fill="none" stroke="midnightblue" d="M263.52,-231.86C377.81,-229.11 592.55,-219.76 772.5,-188 986.59,-150.22 1030.59,-99.95 1243.5,-56 1269.36,-50.66 1424.79,-30.48 1514.23,-19.04"/>
<polygon fill="midnightblue" stroke="midnightblue" points="263.36,-228.36 253.45,-232.09 263.52,-235.36 263.36,-228.36"/>
</g>
<!-- Node28&#45;&gt;Node18 -->
<g id="edge53" class="edge">
<title>Node28&#45;&gt;Node18</title>
<path fill="none" stroke="midnightblue" d="M173.5,-215.16C150.78,-170.12 91.72,-53.06 74.98,-19.88"/>
<polygon fill="midnightblue" stroke="midnightblue" points="170.48,-216.95 178.11,-224.3 176.73,-213.79 170.48,-216.95"/>
</g>
<!-- Node29&#45;&gt;Node8 -->
<g id="edge56" class="edge">
<title>Node29&#45;&gt;Node8</title>
<path fill="none" stroke="midnightblue" d="M613.22,-55.5C526.07,-45.31 389,-29.29 305.28,-19.51"/>
<polygon fill="midnightblue" stroke="midnightblue" points="612.99,-59 623.32,-56.68 613.8,-52.04 612.99,-59"/>
</g>
<!-- Node29&#45;&gt;Node11 -->
<g id="edge58" class="edge">
<title>Node29&#45;&gt;Node11</title>
<path fill="none" stroke="midnightblue" d="M660.11,-53.17C630.55,-43 588.63,-28.59 562.26,-19.52"/>
<polygon fill="midnightblue" stroke="midnightblue" points="659.03,-56.5 669.62,-56.44 661.3,-49.88 659.03,-56.5"/>
</g>
<!-- Node29&#45;&gt;Node12 -->
<g id="edge59" class="edge">
<title>Node29&#45;&gt;Node12</title>
<path fill="none" stroke="midnightblue" d="M759.89,-54.85C825.64,-44.65 925.87,-29.1 987.62,-19.52"/>
<polygon fill="midnightblue" stroke="midnightblue" points="758.99,-51.45 749.64,-56.44 760.06,-58.37 758.99,-51.45"/>
</g>
<!-- Node29&#45;&gt;Node17 -->
<g id="edge60" class="edge">
<title>Node29&#45;&gt;Node17</title>
<path fill="none" stroke="midnightblue" d="M683.2,-47.57C677.18,-38.27 670.03,-27.25 665.17,-19.75"/>
<polygon fill="midnightblue" stroke="midnightblue" points="680.34,-49.6 688.72,-56.08 686.22,-45.79 680.34,-49.6"/>
</g>
<!-- Node30 -->
<g id="node30" class="node">
<title>Node30</title>
<g id="a_node30"><a xlink:href="_error_statment_8cc.html" target="_top" xlink:title=" ">
<polygon fill="white" stroke="black" points="323.5,-0.5 323.5,-19.5 469.5,-19.5 469.5,-0.5 323.5,-0.5"/>
<text text-anchor="middle" x="396.5" y="-7.5" font-family="Helvetica,sans-Serif" font-size="10.00">language/ErrorStatment.cc</text>
</a>
</g>
</g>
<!-- Node29&#45;&gt;Node30 -->
<g id="edge57" class="edge">
<title>Node29&#45;&gt;Node30</title>
<path fill="none" stroke="midnightblue" d="M637.11,-54.6C580.79,-44.4 495.94,-29.02 443.5,-19.52"/>
<polygon fill="midnightblue" stroke="midnightblue" points="636.82,-58.1 647.28,-56.44 638.07,-51.22 636.82,-58.1"/>
</g>
<!-- Node31&#45;&gt;Node12 -->
<g id="edge63" class="edge">
<title>Node31&#45;&gt;Node12</title>
<path fill="none" stroke="midnightblue" d="M1285.89,-54.66C1229,-44.46 1143.05,-29.04 1089.97,-19.52"/>
<polygon fill="midnightblue" stroke="midnightblue" points="1285.34,-58.12 1295.81,-56.44 1286.58,-51.23 1285.34,-58.12"/>
</g>
<!-- Node31&#45;&gt;Node14 -->
<g id="edge64" class="edge">
<title>Node31&#45;&gt;Node14</title>
<path fill="none" stroke="midnightblue" d="M1390.5,-54.15C1434.72,-43.95 1500.02,-28.88 1540.6,-19.52"/>
<polygon fill="midnightblue" stroke="midnightblue" points="1389.53,-50.78 1380.58,-56.44 1391.11,-57.61 1389.53,-50.78"/>
</g>
<!-- Node33 -->
<g id="node33" class="node">
<title>Node33</title>
<g id="a_node33"><a xlink:href="_matrix_8cc.html" target="_top" xlink:title=" ">
<polygon fill="white" stroke="black" points="1610.5,-336.5 1610.5,-355.5 1720.5,-355.5 1720.5,-336.5 1610.5,-336.5"/>
<text text-anchor="middle" x="1665.5" y="-343.5" font-family="Helvetica,sans-Serif" font-size="10.00">language/Matrix.cc</text>
</a>
</g>
</g>
<!-- Node32&#45;&gt;Node33 -->
<g id="edge68" class="edge">
<title>Node32&#45;&gt;Node33</title>
<path fill="none" stroke="midnightblue" d="M1664.86,-381.8C1665.02,-372.91 1665.21,-362.78 1665.34,-355.75"/>
<polygon fill="midnightblue" stroke="midnightblue" points="1661.35,-382.02 1664.67,-392.08 1668.35,-382.15 1661.35,-382.02"/>
</g>
</g>
</svg>
