<?xml version="1.0" encoding="UTF-8" standalone="no"?>
<!DOCTYPE svg PUBLIC "-//W3C//DTD SVG 1.1//EN"
 "http://www.w3.org/Graphics/SVG/1.1/DTD/svg11.dtd">
<!-- Generated by graphviz version 2.43.0 (0)
 -->
<!-- Title: TEST_CASE Pages: 1 -->
<svg width="517pt" height="78pt"
 viewBox="0.00 0.00 517.00 77.50" xmlns="http://www.w3.org/2000/svg" xmlns:xlink="http://www.w3.org/1999/xlink">
<g id="graph0" class="graph" transform="scale(1 1) rotate(0) translate(4 73.5)">
<title>TEST_CASE</title>
<polygon fill="white" stroke="transparent" points="-4,4 -4,-73.5 513,-73.5 513,4 -4,4"/>
<!-- Node1 -->
<g id="node1" class="node">
<title>Node1</title>
<g id="a_node1"><a xlink:title=" ">
<polygon fill="#bfbfbf" stroke="black" points="0,-22.5 0,-41.5 71,-41.5 71,-22.5 0,-22.5"/>
<text text-anchor="middle" x="35.5" y="-29.5" font-family="Helvetica,sans-Serif" font-size="10.00">TEST_CASE</text>
</a>
</g>
</g>
<!-- Node2 -->
<g id="node2" class="node">
<title>Node2</title>
<g id="a_node2"><a xlink:href="namespace_catch_1_1_generators.html#a6e53e65dfedc4d39febcb7b2b862afd9" target="_top" xlink:title=" ">
<polygon fill="white" stroke="black" points="107,-39 107,-69 217,-69 217,-39 107,-39"/>
<text text-anchor="start" x="115" y="-57" font-family="Helvetica,sans-Serif" font-size="10.00">Catch::Generators::</text>
<text text-anchor="middle" x="162" y="-46" font-family="Helvetica,sans-Serif" font-size="10.00">range</text>
</a>
</g>
</g>
<!-- Node1&#45;&gt;Node2 -->
<g id="edge1" class="edge">
<title>Node1&#45;&gt;Node2</title>
<path fill="none" stroke="midnightblue" d="M71.18,-38.13C79.23,-39.55 88.05,-41.11 96.92,-42.68"/>
<polygon fill="midnightblue" stroke="midnightblue" points="96.47,-46.15 106.92,-44.44 97.68,-39.26 96.47,-46.15"/>
</g>
<!-- Node5 -->
<g id="node5" class="node">
<title>Node5</title>
<g id="a_node5"><a xlink:href="xml_8sw_8approved_8txt.html#add174ec999e66e5d56cb44a7ed30290b" target="_top" xlink:title=" ">
<polygon fill="white" stroke="black" points="144,-0.5 144,-19.5 180,-19.5 180,-0.5 144,-0.5"/>
<text text-anchor="middle" x="162" y="-7.5" font-family="Helvetica,sans-Serif" font-size="10.00">size</text>
</a>
</g>
</g>
<!-- Node1&#45;&gt;Node5 -->
<g id="edge5" class="edge">
<title>Node1&#45;&gt;Node5</title>
<path fill="none" stroke="midnightblue" d="M71.18,-25.87C90.91,-22.39 115.27,-18.08 133.64,-14.84"/>
<polygon fill="midnightblue" stroke="midnightblue" points="134.44,-18.25 143.68,-13.06 133.22,-11.35 134.44,-18.25"/>
</g>
<!-- Node3 -->
<g id="node3" class="node">
<title>Node3</title>
<g id="a_node3"><a xlink:href="namespace_catch_1_1_generators_1_1pf.html#a015e8fcef2972da878a07023e40d46d8" target="_top" xlink:title=" ">
<polygon fill="white" stroke="black" points="399,-39 399,-69 509,-69 509,-39 399,-39"/>
<text text-anchor="start" x="407" y="-57" font-family="Helvetica,sans-Serif" font-size="10.00">Catch::Generators::</text>
<text text-anchor="middle" x="454" y="-46" font-family="Helvetica,sans-Serif" font-size="10.00">pf::make_unique</text>
</a>
</g>
</g>
<!-- Node2&#45;&gt;Node3 -->
<g id="edge2" class="edge">
<title>Node2&#45;&gt;Node3</title>
<path fill="none" stroke="midnightblue" d="M217.25,-55.4C229.04,-55.65 241.44,-55.87 253,-56 301.89,-56.54 314.11,-56.54 363,-56 371.31,-55.91 380.06,-55.77 388.69,-55.6"/>
<polygon fill="midnightblue" stroke="midnightblue" points="388.82,-59.1 398.75,-55.4 388.68,-52.1 388.82,-59.1"/>
</g>
<!-- Node4 -->
<g id="node4" class="node">
<title>Node4</title>
<g id="a_node4"><a xlink:href="namespace_catch_1_1_generators.html#a3b2efc97978cf37951b75394aae1a3fb" target="_top" xlink:title=" ">
<polygon fill="white" stroke="black" points="253,-17 253,-47 363,-47 363,-17 253,-17"/>
<text text-anchor="start" x="261" y="-35" font-family="Helvetica,sans-Serif" font-size="10.00">Catch::Generators::</text>
<text text-anchor="middle" x="308" y="-24" font-family="Helvetica,sans-Serif" font-size="10.00">value</text>
</a>
</g>
</g>
<!-- Node2&#45;&gt;Node4 -->
<g id="edge3" class="edge">
<title>Node2&#45;&gt;Node4</title>
<path fill="none" stroke="midnightblue" d="M217.03,-45.75C225.4,-44.47 234.13,-43.13 242.7,-41.82"/>
<polygon fill="midnightblue" stroke="midnightblue" points="243.31,-45.27 252.67,-40.3 242.25,-38.35 243.31,-45.27"/>
</g>
<!-- Node4&#45;&gt;Node3 -->
<g id="edge4" class="edge">
<title>Node4&#45;&gt;Node3</title>
<path fill="none" stroke="midnightblue" d="M363.03,-40.25C371.4,-41.53 380.13,-42.87 388.7,-44.18"/>
<polygon fill="midnightblue" stroke="midnightblue" points="388.25,-47.65 398.67,-45.7 389.31,-40.73 388.25,-47.65"/>
</g>
</g>
</svg>
