<?xml version="1.0" encoding="UTF-8" standalone="no"?>
<!DOCTYPE svg PUBLIC "-//W3C//DTD SVG 1.1//EN"
 "http://www.w3.org/Graphics/SVG/1.1/DTD/svg11.dtd">
<!-- Generated by graphviz version 2.43.0 (0)
 -->
<!-- Title: language/lib/Catch2/projects/ExtraTests/X90&#45;WindowsHeaderInclusion.cpp Pages: 1 -->
<svg width="1085pt" height="162pt"
 viewBox="0.00 0.00 1085.00 162.00" xmlns="http://www.w3.org/2000/svg" xmlns:xlink="http://www.w3.org/1999/xlink">
<g id="graph0" class="graph" transform="scale(1 1) rotate(0) translate(4 158)">
<title>language/lib/Catch2/projects/ExtraTests/X90&#45;WindowsHeaderInclusion.cpp</title>
<polygon fill="white" stroke="transparent" points="-4,4 -4,-158 1081,-158 1081,4 -4,4"/>
<!-- Node1 -->
<g id="node1" class="node">
<title>Node1</title>
<g id="a_node1"><a xlink:title=" ">
<polygon fill="#bfbfbf" stroke="black" points="375.5,-112.5 375.5,-153.5 560.5,-153.5 560.5,-112.5 375.5,-112.5"/>
<text text-anchor="start" x="383.5" y="-141.5" font-family="Helvetica,sans-Serif" font-size="10.00">language/lib/Catch2</text>
<text text-anchor="start" x="383.5" y="-130.5" font-family="Helvetica,sans-Serif" font-size="10.00">/projects/ExtraTests</text>
<text text-anchor="middle" x="468" y="-119.5" font-family="Helvetica,sans-Serif" font-size="10.00">/X90&#45;WindowsHeaderInclusion.cpp</text>
</a>
</g>
</g>
<!-- Node2 -->
<g id="node2" class="node">
<title>Node2</title>
<g id="a_node2"><a xlink:title=" ">
<polygon fill="white" stroke="#bfbfbf" points="383,-56.5 383,-75.5 451,-75.5 451,-56.5 383,-56.5"/>
<text text-anchor="middle" x="417" y="-63.5" font-family="Helvetica,sans-Serif" font-size="10.00">windows.h</text>
</a>
</g>
</g>
<!-- Node1&#45;&gt;Node2 -->
<g id="edge1" class="edge">
<title>Node1&#45;&gt;Node2</title>
<path fill="none" stroke="midnightblue" d="M452.7,-112.5C445.48,-103.3 436.96,-92.44 430.05,-83.63"/>
<polygon fill="midnightblue" stroke="midnightblue" points="432.72,-81.36 423.79,-75.65 427.21,-85.68 432.72,-81.36"/>
</g>
<!-- Node3 -->
<g id="node3" class="node">
<title>Node3</title>
<g id="a_node3"><a xlink:href="single__include_2catch2_2catch_8hpp.html" target="_top" xlink:title=" ">
<polygon fill="white" stroke="black" points="469.5,-56.5 469.5,-75.5 568.5,-75.5 568.5,-56.5 469.5,-56.5"/>
<text text-anchor="middle" x="519" y="-63.5" font-family="Helvetica,sans-Serif" font-size="10.00">catch2/catch.hpp</text>
</a>
</g>
</g>
<!-- Node1&#45;&gt;Node3 -->
<g id="edge2" class="edge">
<title>Node1&#45;&gt;Node3</title>
<path fill="none" stroke="midnightblue" d="M483.3,-112.5C490.52,-103.3 499.04,-92.44 505.95,-83.63"/>
<polygon fill="midnightblue" stroke="midnightblue" points="508.79,-85.68 512.21,-75.65 503.28,-81.36 508.79,-85.68"/>
</g>
<!-- Node4 -->
<g id="node4" class="node">
<title>Node4</title>
<g id="a_node4"><a xlink:title=" ">
<polygon fill="white" stroke="#bfbfbf" points="0,-0.5 0,-19.5 48,-19.5 48,-0.5 0,-0.5"/>
<text text-anchor="middle" x="24" y="-7.5" font-family="Helvetica,sans-Serif" font-size="10.00">iosfwd</text>
</a>
</g>
</g>
<!-- Node3&#45;&gt;Node4 -->
<g id="edge3" class="edge">
<title>Node3&#45;&gt;Node4</title>
<path fill="none" stroke="midnightblue" d="M469.46,-57.21C466.26,-56.78 463.09,-56.37 460,-56 284.7,-34.82 235.75,-51.17 57.98,-19.86"/>
<polygon fill="midnightblue" stroke="midnightblue" points="58.5,-16.4 48.04,-18.08 57.27,-23.29 58.5,-16.4"/>
</g>
<!-- Node5 -->
<g id="node5" class="node">
<title>Node5</title>
<g id="a_node5"><a xlink:title=" ">
<polygon fill="white" stroke="#bfbfbf" points="66,-0.5 66,-19.5 110,-19.5 110,-0.5 66,-0.5"/>
<text text-anchor="middle" x="88" y="-7.5" font-family="Helvetica,sans-Serif" font-size="10.00">string</text>
</a>
</g>
</g>
<!-- Node3&#45;&gt;Node5 -->
<g id="edge4" class="edge">
<title>Node3&#45;&gt;Node5</title>
<path fill="none" stroke="midnightblue" d="M469.45,-57.27C466.25,-56.83 463.08,-56.4 460,-56 312.1,-36.92 270.33,-48.82 120.28,-19.93"/>
<polygon fill="midnightblue" stroke="midnightblue" points="120.72,-16.45 110.23,-17.97 119.38,-23.32 120.72,-16.45"/>
</g>
<!-- Node6 -->
<g id="node6" class="node">
<title>Node6</title>
<g id="a_node6"><a xlink:title=" ">
<polygon fill="white" stroke="#bfbfbf" points="128,-0.5 128,-19.5 178,-19.5 178,-0.5 128,-0.5"/>
<text text-anchor="middle" x="153" y="-7.5" font-family="Helvetica,sans-Serif" font-size="10.00">cstdint</text>
</a>
</g>
</g>
<!-- Node3&#45;&gt;Node6 -->
<g id="edge5" class="edge">
<title>Node3&#45;&gt;Node6</title>
<path fill="none" stroke="midnightblue" d="M469.44,-57.36C466.24,-56.9 463.08,-56.44 460,-56 342.03,-39.23 308.8,-43.46 188.16,-20.01"/>
<polygon fill="midnightblue" stroke="midnightblue" points="188.66,-16.54 178.17,-18.05 187.3,-23.41 188.66,-16.54"/>
</g>
<!-- Node7 -->
<g id="node7" class="node">
<title>Node7</title>
<g id="a_node7"><a xlink:title=" ">
<polygon fill="white" stroke="#bfbfbf" points="196.5,-0.5 196.5,-19.5 243.5,-19.5 243.5,-0.5 196.5,-0.5"/>
<text text-anchor="middle" x="220" y="-7.5" font-family="Helvetica,sans-Serif" font-size="10.00">vector</text>
</a>
</g>
</g>
<!-- Node3&#45;&gt;Node7 -->
<g id="edge6" class="edge">
<title>Node3&#45;&gt;Node7</title>
<path fill="none" stroke="midnightblue" d="M469.46,-57.3C408.15,-47.67 306.25,-31.29 253.55,-20.13"/>
<polygon fill="midnightblue" stroke="midnightblue" points="254.21,-16.69 243.69,-17.97 252.71,-23.53 254.21,-16.69"/>
</g>
<!-- Node8 -->
<g id="node8" class="node">
<title>Node8</title>
<g id="a_node8"><a xlink:title=" ">
<polygon fill="white" stroke="#bfbfbf" points="261.5,-0.5 261.5,-19.5 314.5,-19.5 314.5,-0.5 261.5,-0.5"/>
<text text-anchor="middle" x="288" y="-7.5" font-family="Helvetica,sans-Serif" font-size="10.00">cstddef</text>
</a>
</g>
</g>
<!-- Node3&#45;&gt;Node8 -->
<g id="edge7" class="edge">
<title>Node3&#45;&gt;Node8</title>
<path fill="none" stroke="midnightblue" d="M481.21,-56.49C443.96,-48.06 385.17,-34.63 324.81,-20.16"/>
<polygon fill="midnightblue" stroke="midnightblue" points="325.26,-16.67 314.72,-17.74 323.63,-23.48 325.26,-16.67"/>
</g>
<!-- Node9 -->
<g id="node9" class="node">
<title>Node9</title>
<g id="a_node9"><a xlink:title=" ">
<polygon fill="white" stroke="#bfbfbf" points="333,-0.5 333,-19.5 385,-19.5 385,-0.5 333,-0.5"/>
<text text-anchor="middle" x="359" y="-7.5" font-family="Helvetica,sans-Serif" font-size="10.00">cassert</text>
</a>
</g>
</g>
<!-- Node3&#45;&gt;Node9 -->
<g id="edge8" class="edge">
<title>Node3&#45;&gt;Node9</title>
<path fill="none" stroke="midnightblue" d="M493.65,-56.44C466.73,-47.36 424,-32.94 393.91,-22.78"/>
<polygon fill="midnightblue" stroke="midnightblue" points="394.83,-19.4 384.23,-19.52 392.59,-26.03 394.83,-19.4"/>
</g>
<!-- Node10 -->
<g id="node10" class="node">
<title>Node10</title>
<g id="a_node10"><a xlink:title=" ">
<polygon fill="white" stroke="#bfbfbf" points="403.5,-0.5 403.5,-19.5 472.5,-19.5 472.5,-0.5 403.5,-0.5"/>
<text text-anchor="middle" x="438" y="-7.5" font-family="Helvetica,sans-Serif" font-size="10.00">type_traits</text>
</a>
</g>
</g>
<!-- Node3&#45;&gt;Node10 -->
<g id="edge9" class="edge">
<title>Node3&#45;&gt;Node10</title>
<path fill="none" stroke="midnightblue" d="M505.99,-56.32C493.47,-47.98 474.32,-35.21 459.53,-25.35"/>
<polygon fill="midnightblue" stroke="midnightblue" points="461.24,-22.29 450.98,-19.65 457.36,-28.11 461.24,-22.29"/>
</g>
<!-- Node11 -->
<g id="node11" class="node">
<title>Node11</title>
<g id="a_node11"><a xlink:title=" ">
<polygon fill="white" stroke="#bfbfbf" points="490.5,-0.5 490.5,-19.5 547.5,-19.5 547.5,-0.5 490.5,-0.5"/>
<text text-anchor="middle" x="519" y="-7.5" font-family="Helvetica,sans-Serif" font-size="10.00">ostream</text>
</a>
</g>
</g>
<!-- Node3&#45;&gt;Node11 -->
<g id="edge10" class="edge">
<title>Node3&#45;&gt;Node11</title>
<path fill="none" stroke="midnightblue" d="M519,-56.08C519,-49.01 519,-38.86 519,-29.99"/>
<polygon fill="midnightblue" stroke="midnightblue" points="522.5,-29.75 519,-19.75 515.5,-29.75 522.5,-29.75"/>
</g>
<!-- Node12 -->
<g id="node12" class="node">
<title>Node12</title>
<g id="a_node12"><a xlink:title=" ">
<polygon fill="white" stroke="#bfbfbf" points="566,-0.5 566,-19.5 616,-19.5 616,-0.5 566,-0.5"/>
<text text-anchor="middle" x="591" y="-7.5" font-family="Helvetica,sans-Serif" font-size="10.00">chrono</text>
</a>
</g>
</g>
<!-- Node3&#45;&gt;Node12 -->
<g id="edge11" class="edge">
<title>Node3&#45;&gt;Node12</title>
<path fill="none" stroke="midnightblue" d="M530.57,-56.32C541.42,-48.18 557.88,-35.84 570.88,-26.09"/>
<polygon fill="midnightblue" stroke="midnightblue" points="573.32,-28.63 579.22,-19.83 569.12,-23.03 573.32,-28.63"/>
</g>
<!-- Node13 -->
<g id="node13" class="node">
<title>Node13</title>
<g id="a_node13"><a xlink:title=" ">
<polygon fill="white" stroke="#bfbfbf" points="634,-0.5 634,-19.5 692,-19.5 692,-0.5 634,-0.5"/>
<text text-anchor="middle" x="663" y="-7.5" font-family="Helvetica,sans-Serif" font-size="10.00">memory</text>
</a>
</g>
</g>
<!-- Node3&#45;&gt;Node13 -->
<g id="edge12" class="edge">
<title>Node3&#45;&gt;Node13</title>
<path fill="none" stroke="midnightblue" d="M541.82,-56.44C565.83,-47.44 603.83,-33.19 630.87,-23.05"/>
<polygon fill="midnightblue" stroke="midnightblue" points="632.16,-26.3 640.29,-19.52 629.7,-19.75 632.16,-26.3"/>
</g>
<!-- Node14 -->
<g id="node14" class="node">
<title>Node14</title>
<g id="a_node14"><a xlink:title=" ">
<polygon fill="white" stroke="#bfbfbf" points="710.5,-0.5 710.5,-19.5 775.5,-19.5 775.5,-0.5 710.5,-0.5"/>
<text text-anchor="middle" x="743" y="-7.5" font-family="Helvetica,sans-Serif" font-size="10.00">exception</text>
</a>
</g>
</g>
<!-- Node3&#45;&gt;Node14 -->
<g id="edge13" class="edge">
<title>Node3&#45;&gt;Node14</title>
<path fill="none" stroke="midnightblue" d="M554.49,-56.44C594.04,-46.91 657.96,-31.5 700.23,-21.31"/>
<polygon fill="midnightblue" stroke="midnightblue" points="701.32,-24.65 710.22,-18.9 699.68,-17.84 701.32,-24.65"/>
</g>
<!-- Node15 -->
<g id="node15" class="node">
<title>Node15</title>
<g id="a_node15"><a xlink:title=" ">
<polygon fill="white" stroke="#bfbfbf" points="793.5,-0.5 793.5,-19.5 858.5,-19.5 858.5,-0.5 793.5,-0.5"/>
<text text-anchor="middle" x="826" y="-7.5" font-family="Helvetica,sans-Serif" font-size="10.00">functional</text>
</a>
</g>
</g>
<!-- Node3&#45;&gt;Node15 -->
<g id="edge14" class="edge">
<title>Node3&#45;&gt;Node15</title>
<path fill="none" stroke="midnightblue" d="M568.65,-57.34C619.98,-49.25 702.69,-35.76 783.06,-20.31"/>
<polygon fill="midnightblue" stroke="midnightblue" points="784.2,-23.65 793.36,-18.32 782.87,-16.78 784.2,-23.65"/>
</g>
<!-- Node16 -->
<g id="node16" class="node">
<title>Node16</title>
<g id="a_node16"><a xlink:title=" ">
<polygon fill="white" stroke="#bfbfbf" points="877,-0.5 877,-19.5 941,-19.5 941,-0.5 877,-0.5"/>
<text text-anchor="middle" x="909" y="-7.5" font-family="Helvetica,sans-Serif" font-size="10.00">algorithm</text>
</a>
</g>
</g>
<!-- Node3&#45;&gt;Node16 -->
<g id="edge15" class="edge">
<title>Node3&#45;&gt;Node16</title>
<path fill="none" stroke="midnightblue" d="M568.62,-59.99C634.49,-53.03 754.62,-39.28 866.7,-20.1"/>
<polygon fill="midnightblue" stroke="midnightblue" points="867.57,-23.5 876.82,-18.34 866.37,-16.6 867.57,-23.5"/>
</g>
<!-- Node17 -->
<g id="node17" class="node">
<title>Node17</title>
<g id="a_node17"><a xlink:title=" ">
<polygon fill="white" stroke="#bfbfbf" points="959.5,-0.5 959.5,-19.5 1004.5,-19.5 1004.5,-0.5 959.5,-0.5"/>
<text text-anchor="middle" x="982" y="-7.5" font-family="Helvetica,sans-Serif" font-size="10.00">utility</text>
</a>
</g>
</g>
<!-- Node3&#45;&gt;Node17 -->
<g id="edge16" class="edge">
<title>Node3&#45;&gt;Node17</title>
<path fill="none" stroke="midnightblue" d="M568.52,-62.57C647.28,-58.11 805.97,-46.69 949.52,-19.75"/>
<polygon fill="midnightblue" stroke="midnightblue" points="950.22,-23.18 959.39,-17.87 948.91,-16.31 950.22,-23.18"/>
</g>
<!-- Node18 -->
<g id="node18" class="node">
<title>Node18</title>
<g id="a_node18"><a xlink:title=" ">
<polygon fill="white" stroke="#bfbfbf" points="1023,-0.5 1023,-19.5 1077,-19.5 1077,-0.5 1023,-0.5"/>
<text text-anchor="middle" x="1050" y="-7.5" font-family="Helvetica,sans-Serif" font-size="10.00">random</text>
</a>
</g>
</g>
<!-- Node3&#45;&gt;Node18 -->
<g id="edge17" class="edge">
<title>Node3&#45;&gt;Node18</title>
<path fill="none" stroke="midnightblue" d="M568.51,-63.03C656.23,-58.99 844.8,-47.83 1012.94,-19.92"/>
<polygon fill="midnightblue" stroke="midnightblue" points="1013.69,-23.35 1022.97,-18.23 1012.53,-16.44 1013.69,-23.35"/>
</g>
</g>
</svg>
