<?xml version="1.0" encoding="UTF-8" standalone="no"?>
<!DOCTYPE svg PUBLIC "-//W3C//DTD SVG 1.1//EN"
 "http://www.w3.org/Graphics/SVG/1.1/DTD/svg11.dtd">
<!-- Generated by graphviz version 2.43.0 (0)
 -->
<!-- Title: language/lib/Catch2/include/internal/benchmark/catch_clock.hpp Pages: 1 -->
<svg width="161pt" height="106pt"
 viewBox="0.00 0.00 161.00 106.00" xmlns="http://www.w3.org/2000/svg" xmlns:xlink="http://www.w3.org/1999/xlink">
<g id="graph0" class="graph" transform="scale(1 1) rotate(0) translate(4 102)">
<title>language/lib/Catch2/include/internal/benchmark/catch_clock.hpp</title>
<polygon fill="white" stroke="transparent" points="-4,4 -4,-102 157,-102 157,4 -4,4"/>
<!-- Node1 -->
<g id="node1" class="node">
<title>Node1</title>
<g id="a_node1"><a xlink:title=" ">
<polygon fill="#bfbfbf" stroke="black" points="0,-56.5 0,-97.5 153,-97.5 153,-56.5 0,-56.5"/>
<text text-anchor="start" x="8" y="-85.5" font-family="Helvetica,sans-Serif" font-size="10.00">language/lib/Catch2</text>
<text text-anchor="start" x="8" y="-74.5" font-family="Helvetica,sans-Serif" font-size="10.00">/include/internal/benchmark</text>
<text text-anchor="middle" x="76.5" y="-63.5" font-family="Helvetica,sans-Serif" font-size="10.00">/catch_clock.hpp</text>
</a>
</g>
</g>
<!-- Node2 -->
<g id="node2" class="node">
<title>Node2</title>
<g id="a_node2"><a xlink:title=" ">
<polygon fill="white" stroke="#bfbfbf" points="20.5,-0.5 20.5,-19.5 70.5,-19.5 70.5,-0.5 20.5,-0.5"/>
<text text-anchor="middle" x="45.5" y="-7.5" font-family="Helvetica,sans-Serif" font-size="10.00">chrono</text>
</a>
</g>
</g>
<!-- Node1&#45;&gt;Node2 -->
<g id="edge1" class="edge">
<title>Node1&#45;&gt;Node2</title>
<path fill="none" stroke="midnightblue" d="M67.2,-56.5C62.99,-47.68 58.06,-37.34 53.96,-28.74"/>
<polygon fill="midnightblue" stroke="midnightblue" points="57.09,-27.17 49.63,-19.65 50.77,-30.19 57.09,-27.17"/>
</g>
<!-- Node3 -->
<g id="node3" class="node">
<title>Node3</title>
<g id="a_node3"><a xlink:title=" ">
<polygon fill="white" stroke="#bfbfbf" points="89,-0.5 89,-19.5 128,-19.5 128,-0.5 89,-0.5"/>
<text text-anchor="middle" x="108.5" y="-7.5" font-family="Helvetica,sans-Serif" font-size="10.00">ratio</text>
</a>
</g>
</g>
<!-- Node1&#45;&gt;Node3 -->
<g id="edge2" class="edge">
<title>Node1&#45;&gt;Node3</title>
<path fill="none" stroke="midnightblue" d="M86.1,-56.5C90.44,-47.68 95.53,-37.34 99.76,-28.74"/>
<polygon fill="midnightblue" stroke="midnightblue" points="102.96,-30.17 104.24,-19.65 96.68,-27.08 102.96,-30.17"/>
</g>
</g>
</svg>
