<?xml version="1.0" encoding="UTF-8" standalone="no"?>
<!DOCTYPE svg PUBLIC "-//W3C//DTD SVG 1.1//EN"
 "http://www.w3.org/Graphics/SVG/1.1/DTD/svg11.dtd">
<!-- Generated by graphviz version 2.43.0 (0)
 -->
<!-- Title: language/lib/Catch2/include/internal/catch_enum_values_registry.cpp Pages: 1 -->
<!--zoomable 341 -->
<svg id="main" version="1.1" xmlns="http://www.w3.org/2000/svg" xmlns:xlink="http://www.w3.org/1999/xlink" xml:space="preserve" onload="init(evt)">
<style type="text/css"><![CDATA[
.edge:hover path { stroke: red; }
.edge:hover polygon { stroke: red; fill: red; }
]]></style>
<script type="text/javascript"><![CDATA[
var edges = document.getElementsByTagName('g');
if (edges && edges.length) {
  for (var i=0;i<edges.length;i++) {
    if (edges[i].id.substr(0,4)=='edge') {
      edges[i].setAttribute('class','edge');
    }
  }
}
]]></script>
        <defs>
                <circle id="rim" cx="0" cy="0" r="7"/>
                <circle id="rim2" cx="0" cy="0" r="3.5"/>
                <g id="zoomPlus">
                        <use xlink:href="#rim" fill="#404040">
                                <set attributeName="fill" to="#808080" begin="zoomplus.mouseover" end="zoomplus.mouseout"/>
                        </use>
                        <path d="M-4,0h8M0,-4v8" fill="none" stroke="white" stroke-width="1.5" pointer-events="none"/>
                </g>
                <g id="zoomMin">
                        <use xlink:href="#rim" fill="#404040">
                                <set attributeName="fill" to="#808080" begin="zoomminus.mouseover" end="zoomminus.mouseout"/>
                        </use>
                        <path d="M-4,0h8" fill="none" stroke="white" stroke-width="1.5" pointer-events="none"/>
                </g>
                <g id="dirArrow">
                        <path fill="none" stroke="white" stroke-width="1.5" d="M0,-3.0v7 M-2.5,-0.5L0,-3.0L2.5,-0.5"/>
                </g>
               <g id="resetDef">
                       <use xlink:href="#rim2" fill="#404040">
                               <set attributeName="fill" to="#808080" begin="reset.mouseover" end="reset.mouseout"/>
                       </use>
               </g>
        </defs>

<script type="text/javascript">
var viewWidth = 821;
var viewHeight = 341;
var sectionId = 'dynsection-0';
</script>
<script xlink:href="svgpan.js"/>
<svg id="graph" class="graph">
<g id="viewport">
<title>language/lib/Catch2/include/internal/catch_enum_values_registry.cpp</title>
<polygon fill="white" stroke="transparent" points="-4,4 -4,-337 816.5,-337 816.5,4 -4,4"/>
<!-- Node1 -->
<g id="node1" class="node">
<title>Node1</title>
<g id="a_node1"><a xlink:title=" ">
<polygon fill="#bfbfbf" stroke="black" points="558,-291.5 558,-332.5 707,-332.5 707,-291.5 558,-291.5"/>
<text text-anchor="start" x="566" y="-320.5" font-family="Helvetica,sans-Serif" font-size="10.00">language/lib/Catch2</text>
<text text-anchor="start" x="566" y="-309.5" font-family="Helvetica,sans-Serif" font-size="10.00">/include/internal/catch</text>
<text text-anchor="middle" x="632.5" y="-298.5" font-family="Helvetica,sans-Serif" font-size="10.00">_enum_values_registry.cpp</text>
</a>
</g>
</g>
<!-- Node2 -->
<g id="node2" class="node">
<title>Node2</title>
<g id="a_node2"><a xlink:href="catch__enum__values__registry_8h.html" target="_top" xlink:title=" ">
<polygon fill="white" stroke="black" points="550.5,-235.5 550.5,-254.5 714.5,-254.5 714.5,-235.5 550.5,-235.5"/>
<text text-anchor="middle" x="632.5" y="-242.5" font-family="Helvetica,sans-Serif" font-size="10.00">catch_enum_values_registry.h</text>
</a>
</g>
</g>
<!-- Node1&#45;&gt;Node2 -->
<g id="edge1" class="edge">
<title>Node1&#45;&gt;Node2</title>
<path fill="none" stroke="midnightblue" d="M632.5,-291.5C632.5,-283.07 632.5,-273.24 632.5,-264.87"/>
<polygon fill="midnightblue" stroke="midnightblue" points="636,-264.65 632.5,-254.65 629,-264.65 636,-264.65"/>
</g>
<!-- Node8 -->
<g id="node8" class="node">
<title>Node8</title>
<g id="a_node8"><a xlink:title=" ">
<polygon fill="white" stroke="#bfbfbf" points="632.5,-56.5 632.5,-75.5 684.5,-75.5 684.5,-56.5 632.5,-56.5"/>
<text text-anchor="middle" x="658.5" y="-63.5" font-family="Helvetica,sans-Serif" font-size="10.00">cassert</text>
</a>
</g>
</g>
<!-- Node1&#45;&gt;Node8 -->
<g id="edge27" class="edge">
<title>Node1&#45;&gt;Node8</title>
<path fill="none" stroke="midnightblue" d="M682.45,-291.36C698.21,-282.63 713.98,-270.7 723.5,-255 743.57,-221.9 738.93,-204.98 727.5,-168 717.07,-134.24 691.05,-101.7 674.11,-83.06"/>
<polygon fill="midnightblue" stroke="midnightblue" points="676.65,-80.65 667.27,-75.73 671.54,-85.43 676.65,-80.65"/>
</g>
<!-- Node11 -->
<g id="node11" class="node">
<title>Node11</title>
<g id="a_node11"><a xlink:href="catch__string__manip_8h.html" target="_top" xlink:title=" ">
<polygon fill="white" stroke="black" points="335,-174 335,-193 456,-193 456,-174 335,-174"/>
<text text-anchor="middle" x="395.5" y="-181" font-family="Helvetica,sans-Serif" font-size="10.00">catch_string_manip.h</text>
</a>
</g>
</g>
<!-- Node1&#45;&gt;Node11 -->
<g id="edge11" class="edge">
<title>Node1&#45;&gt;Node11</title>
<path fill="none" stroke="midnightblue" d="M595.73,-291.37C547,-265.36 462.31,-220.16 420.43,-197.81"/>
<polygon fill="midnightblue" stroke="midnightblue" points="421.93,-194.64 411.46,-193.02 418.63,-200.81 421.93,-194.64"/>
</g>
<!-- Node12 -->
<g id="node12" class="node">
<title>Node12</title>
<g id="a_node12"><a xlink:href="catch__stream_8h.html" target="_top" xlink:title=" ">
<polygon fill="white" stroke="black" points="224.5,-174 224.5,-193 316.5,-193 316.5,-174 224.5,-174"/>
<text text-anchor="middle" x="270.5" y="-181" font-family="Helvetica,sans-Serif" font-size="10.00">catch_stream.h</text>
</a>
</g>
</g>
<!-- Node1&#45;&gt;Node12 -->
<g id="edge16" class="edge">
<title>Node1&#45;&gt;Node12</title>
<path fill="none" stroke="midnightblue" d="M576.33,-291.37C500.33,-264.82 367.08,-218.25 304.62,-196.42"/>
<polygon fill="midnightblue" stroke="midnightblue" points="305.47,-193.01 294.87,-193.02 303.16,-199.62 305.47,-193.01"/>
</g>
<!-- Node18 -->
<g id="node18" class="node">
<title>Node18</title>
<g id="a_node18"><a xlink:title=" ">
<polygon fill="white" stroke="#bfbfbf" points="774.5,-235.5 774.5,-254.5 812.5,-254.5 812.5,-235.5 774.5,-235.5"/>
<text text-anchor="middle" x="793.5" y="-242.5" font-family="Helvetica,sans-Serif" font-size="10.00">map</text>
</a>
</g>
</g>
<!-- Node1&#45;&gt;Node18 -->
<g id="edge26" class="edge">
<title>Node1&#45;&gt;Node18</title>
<path fill="none" stroke="midnightblue" d="M680.81,-291.5C708.2,-280.44 741.55,-266.97 764.83,-257.57"/>
<polygon fill="midnightblue" stroke="midnightblue" points="766.18,-260.8 774.15,-253.81 763.56,-254.31 766.18,-260.8"/>
</g>
<!-- Node3 -->
<g id="node3" class="node">
<title>Node3</title>
<g id="a_node3"><a xlink:href="catch__interfaces__enum__values__registry_8h.html" target="_top" xlink:title=" ">
<polygon fill="white" stroke="black" points="474.5,-168.5 474.5,-198.5 604.5,-198.5 604.5,-168.5 474.5,-168.5"/>
<text text-anchor="start" x="482.5" y="-186.5" font-family="Helvetica,sans-Serif" font-size="10.00">catch_interfaces_enum</text>
<text text-anchor="middle" x="539.5" y="-175.5" font-family="Helvetica,sans-Serif" font-size="10.00">_values_registry.h</text>
</a>
</g>
</g>
<!-- Node2&#45;&gt;Node3 -->
<g id="edge2" class="edge">
<title>Node2&#45;&gt;Node3</title>
<path fill="none" stroke="midnightblue" d="M619.18,-235.48C606.46,-227.34 586.85,-214.79 570.26,-204.18"/>
<polygon fill="midnightblue" stroke="midnightblue" points="571.73,-200.96 561.42,-198.52 567.96,-206.86 571.73,-200.96"/>
</g>
<!-- Node9 -->
<g id="node9" class="node">
<title>Node9</title>
<g id="a_node9"><a xlink:title=" ">
<polygon fill="white" stroke="#bfbfbf" points="592,-112.5 592,-131.5 639,-131.5 639,-112.5 592,-112.5"/>
<text text-anchor="middle" x="615.5" y="-119.5" font-family="Helvetica,sans-Serif" font-size="10.00">vector</text>
</a>
</g>
</g>
<!-- Node2&#45;&gt;Node9 -->
<g id="edge9" class="edge">
<title>Node2&#45;&gt;Node9</title>
<path fill="none" stroke="midnightblue" d="M631.28,-235.3C628.53,-215.76 621.83,-168.06 618.11,-141.55"/>
<polygon fill="midnightblue" stroke="midnightblue" points="621.57,-141.04 616.71,-131.62 614.64,-142.01 621.57,-141.04"/>
</g>
<!-- Node10 -->
<g id="node10" class="node">
<title>Node10</title>
<g id="a_node10"><a xlink:title=" ">
<polygon fill="white" stroke="#bfbfbf" points="660.5,-174 660.5,-193 718.5,-193 718.5,-174 660.5,-174"/>
<text text-anchor="middle" x="689.5" y="-181" font-family="Helvetica,sans-Serif" font-size="10.00">memory</text>
</a>
</g>
</g>
<!-- Node2&#45;&gt;Node10 -->
<g id="edge10" class="edge">
<title>Node2&#45;&gt;Node10</title>
<path fill="none" stroke="midnightblue" d="M640.67,-235.48C649.39,-226.37 663.4,-211.74 674.19,-200.48"/>
<polygon fill="midnightblue" stroke="midnightblue" points="676.96,-202.65 681.35,-193.01 671.9,-197.81 676.96,-202.65"/>
</g>
<!-- Node4 -->
<g id="node4" class="node">
<title>Node4</title>
<g id="a_node4"><a xlink:href="catch__stringref_8h.html" target="_top" xlink:title=" ">
<polygon fill="white" stroke="black" points="475.5,-112.5 475.5,-131.5 573.5,-131.5 573.5,-112.5 475.5,-112.5"/>
<text text-anchor="middle" x="524.5" y="-119.5" font-family="Helvetica,sans-Serif" font-size="10.00">catch_stringref.h</text>
</a>
</g>
</g>
<!-- Node3&#45;&gt;Node4 -->
<g id="edge3" class="edge">
<title>Node3&#45;&gt;Node4</title>
<path fill="none" stroke="midnightblue" d="M535.95,-168.4C533.92,-160.38 531.37,-150.23 529.18,-141.57"/>
<polygon fill="midnightblue" stroke="midnightblue" points="532.52,-140.5 526.68,-131.66 525.73,-142.21 532.52,-140.5"/>
</g>
<!-- Node3&#45;&gt;Node9 -->
<g id="edge8" class="edge">
<title>Node3&#45;&gt;Node9</title>
<path fill="none" stroke="midnightblue" d="M557.51,-168.4C569.24,-159.22 584.52,-147.26 596.44,-137.92"/>
<polygon fill="midnightblue" stroke="midnightblue" points="598.72,-140.58 604.44,-131.66 594.41,-135.07 598.72,-140.58"/>
</g>
<!-- Node5 -->
<g id="node5" class="node">
<title>Node5</title>
<g id="a_node5"><a xlink:title=" ">
<polygon fill="white" stroke="#bfbfbf" points="474,-56.5 474,-75.5 527,-75.5 527,-56.5 474,-56.5"/>
<text text-anchor="middle" x="500.5" y="-63.5" font-family="Helvetica,sans-Serif" font-size="10.00">cstddef</text>
</a>
</g>
</g>
<!-- Node4&#45;&gt;Node5 -->
<g id="edge4" class="edge">
<title>Node4&#45;&gt;Node5</title>
<path fill="none" stroke="midnightblue" d="M520.54,-112.08C517.29,-104.77 512.58,-94.18 508.55,-85.1"/>
<polygon fill="midnightblue" stroke="midnightblue" points="511.65,-83.47 504.39,-75.75 505.25,-86.31 511.65,-83.47"/>
</g>
<!-- Node6 -->
<g id="node6" class="node">
<title>Node6</title>
<g id="a_node6"><a xlink:title=" ">
<polygon fill="white" stroke="#bfbfbf" points="387.5,-56.5 387.5,-75.5 431.5,-75.5 431.5,-56.5 387.5,-56.5"/>
<text text-anchor="middle" x="409.5" y="-63.5" font-family="Helvetica,sans-Serif" font-size="10.00">string</text>
</a>
</g>
</g>
<!-- Node4&#45;&gt;Node6 -->
<g id="edge5" class="edge">
<title>Node4&#45;&gt;Node6</title>
<path fill="none" stroke="midnightblue" d="M506.28,-112.44C487.6,-103.68 458.34,-89.94 436.88,-79.86"/>
<polygon fill="midnightblue" stroke="midnightblue" points="438.18,-76.6 427.64,-75.52 435.2,-82.93 438.18,-76.6"/>
</g>
<!-- Node7 -->
<g id="node7" class="node">
<title>Node7</title>
<g id="a_node7"><a xlink:title=" ">
<polygon fill="white" stroke="#bfbfbf" points="296.5,-56.5 296.5,-75.5 344.5,-75.5 344.5,-56.5 296.5,-56.5"/>
<text text-anchor="middle" x="320.5" y="-63.5" font-family="Helvetica,sans-Serif" font-size="10.00">iosfwd</text>
</a>
</g>
</g>
<!-- Node4&#45;&gt;Node7 -->
<g id="edge6" class="edge">
<title>Node4&#45;&gt;Node7</title>
<path fill="none" stroke="midnightblue" d="M492.18,-112.44C454.69,-102.52 393.16,-86.23 354.84,-76.09"/>
<polygon fill="midnightblue" stroke="midnightblue" points="355.25,-72.58 344.69,-73.4 353.46,-79.35 355.25,-72.58"/>
</g>
<!-- Node4&#45;&gt;Node8 -->
<g id="edge7" class="edge">
<title>Node4&#45;&gt;Node8</title>
<path fill="none" stroke="midnightblue" d="M545.73,-112.44C567.88,-103.52 602.82,-89.44 627.94,-79.32"/>
<polygon fill="midnightblue" stroke="midnightblue" points="629.4,-82.5 637.37,-75.52 626.78,-76.01 629.4,-82.5"/>
</g>
<!-- Node11&#45;&gt;Node4 -->
<g id="edge12" class="edge">
<title>Node11&#45;&gt;Node4</title>
<path fill="none" stroke="midnightblue" d="M413.98,-173.98C435.63,-163.99 471.71,-147.35 496.73,-135.81"/>
<polygon fill="midnightblue" stroke="midnightblue" points="498.44,-138.88 506.05,-131.51 495.51,-132.52 498.44,-138.88"/>
</g>
<!-- Node11&#45;&gt;Node6 -->
<g id="edge13" class="edge">
<title>Node11&#45;&gt;Node6</title>
<path fill="none" stroke="midnightblue" d="M396.55,-173.82C398.8,-155.26 404.13,-111.34 407.2,-85.97"/>
<polygon fill="midnightblue" stroke="midnightblue" points="410.71,-86.13 408.44,-75.78 403.76,-85.29 410.71,-86.13"/>
</g>
<!-- Node11&#45;&gt;Node7 -->
<g id="edge14" class="edge">
<title>Node11&#45;&gt;Node7</title>
<path fill="none" stroke="midnightblue" d="M390.21,-173.74C382.07,-160.33 365.9,-133.96 351.5,-112 345.31,-102.56 338.18,-92.18 332.32,-83.77"/>
<polygon fill="midnightblue" stroke="midnightblue" points="335.16,-81.73 326.56,-75.55 329.43,-85.75 335.16,-81.73"/>
</g>
<!-- Node11&#45;&gt;Node9 -->
<g id="edge15" class="edge">
<title>Node11&#45;&gt;Node9</title>
<path fill="none" stroke="midnightblue" d="M427.27,-173.95C462.59,-164.43 521.6,-148.52 582,-132.13"/>
<polygon fill="midnightblue" stroke="midnightblue" points="582.97,-135.49 591.71,-129.5 581.14,-128.74 582.97,-135.49"/>
</g>
<!-- Node12&#45;&gt;Node5 -->
<g id="edge24" class="edge">
<title>Node12&#45;&gt;Node5</title>
<path fill="none" stroke="midnightblue" d="M287.79,-173.82C327.76,-153.74 426.79,-104.01 474.28,-80.17"/>
<polygon fill="midnightblue" stroke="midnightblue" points="475.96,-83.24 483.33,-75.62 472.82,-76.98 475.96,-83.24"/>
</g>
<!-- Node12&#45;&gt;Node7 -->
<g id="edge23" class="edge">
<title>Node12&#45;&gt;Node7</title>
<path fill="none" stroke="midnightblue" d="M269.42,-173.78C268.11,-159.98 267.09,-132.55 276.5,-112 281.8,-100.44 291.37,-90.09 300.24,-82.24"/>
<polygon fill="midnightblue" stroke="midnightblue" points="302.58,-84.85 308.04,-75.77 298.11,-79.46 302.58,-84.85"/>
</g>
<!-- Node13 -->
<g id="node13" class="node">
<title>Node13</title>
<g id="a_node13"><a xlink:href="catch__common_8h.html" target="_top" xlink:title=" ">
<polygon fill="white" stroke="black" points="129.5,-112.5 129.5,-131.5 229.5,-131.5 229.5,-112.5 129.5,-112.5"/>
<text text-anchor="middle" x="179.5" y="-119.5" font-family="Helvetica,sans-Serif" font-size="10.00">catch_common.h</text>
</a>
</g>
</g>
<!-- Node12&#45;&gt;Node13 -->
<g id="edge17" class="edge">
<title>Node12&#45;&gt;Node13</title>
<path fill="none" stroke="midnightblue" d="M257.46,-173.98C242.73,-164.34 218.53,-148.52 200.99,-137.05"/>
<polygon fill="midnightblue" stroke="midnightblue" points="202.8,-134.05 192.51,-131.51 198.97,-139.91 202.8,-134.05"/>
</g>
<!-- Node17 -->
<g id="node17" class="node">
<title>Node17</title>
<g id="a_node17"><a xlink:title=" ">
<polygon fill="white" stroke="#bfbfbf" points="286,-112.5 286,-131.5 343,-131.5 343,-112.5 286,-112.5"/>
<text text-anchor="middle" x="314.5" y="-119.5" font-family="Helvetica,sans-Serif" font-size="10.00">ostream</text>
</a>
</g>
</g>
<!-- Node12&#45;&gt;Node17 -->
<g id="edge25" class="edge">
<title>Node12&#45;&gt;Node17</title>
<path fill="none" stroke="midnightblue" d="M276.8,-173.98C283.4,-165.05 293.94,-150.81 302.19,-139.64"/>
<polygon fill="midnightblue" stroke="midnightblue" points="305.08,-141.63 308.21,-131.51 299.45,-137.47 305.08,-141.63"/>
</g>
<!-- Node13&#45;&gt;Node6 -->
<g id="edge21" class="edge">
<title>Node13&#45;&gt;Node6</title>
<path fill="none" stroke="midnightblue" d="M215.94,-112.44C260.53,-101.98 335.29,-84.42 377.66,-74.47"/>
<polygon fill="midnightblue" stroke="midnightblue" points="378.51,-77.87 387.45,-72.18 376.91,-71.06 378.51,-77.87"/>
</g>
<!-- Node13&#45;&gt;Node7 -->
<g id="edge20" class="edge">
<title>Node13&#45;&gt;Node7</title>
<path fill="none" stroke="midnightblue" d="M201.84,-112.44C225.25,-103.48 262.24,-89.31 288.69,-79.18"/>
<polygon fill="midnightblue" stroke="midnightblue" points="290.18,-82.36 298.26,-75.52 287.67,-75.82 290.18,-82.36"/>
</g>
<!-- Node14 -->
<g id="node14" class="node">
<title>Node14</title>
<g id="a_node14"><a xlink:href="catch__compiler__capabilities_8h.html" target="_top" xlink:title=" ">
<polygon fill="white" stroke="black" points="0,-56.5 0,-75.5 161,-75.5 161,-56.5 0,-56.5"/>
<text text-anchor="middle" x="80.5" y="-63.5" font-family="Helvetica,sans-Serif" font-size="10.00">catch_compiler_capabilities.h</text>
</a>
</g>
</g>
<!-- Node13&#45;&gt;Node14 -->
<g id="edge18" class="edge">
<title>Node13&#45;&gt;Node14</title>
<path fill="none" stroke="midnightblue" d="M163.59,-112.32C147.86,-103.74 123.56,-90.49 105.29,-80.52"/>
<polygon fill="midnightblue" stroke="midnightblue" points="106.82,-77.37 96.37,-75.65 103.47,-83.52 106.82,-77.37"/>
</g>
<!-- Node16 -->
<g id="node16" class="node">
<title>Node16</title>
<g id="a_node16"><a xlink:title=" ">
<polygon fill="white" stroke="#bfbfbf" points="179.5,-56.5 179.5,-75.5 229.5,-75.5 229.5,-56.5 179.5,-56.5"/>
<text text-anchor="middle" x="204.5" y="-63.5" font-family="Helvetica,sans-Serif" font-size="10.00">cstdint</text>
</a>
</g>
</g>
<!-- Node13&#45;&gt;Node16 -->
<g id="edge22" class="edge">
<title>Node13&#45;&gt;Node16</title>
<path fill="none" stroke="midnightblue" d="M183.63,-112.08C187.01,-104.77 191.92,-94.18 196.12,-85.1"/>
<polygon fill="midnightblue" stroke="midnightblue" points="199.42,-86.3 200.45,-75.75 193.07,-83.36 199.42,-86.3"/>
</g>
<!-- Node15 -->
<g id="node15" class="node">
<title>Node15</title>
<g id="a_node15"><a xlink:href="catch__platform_8h.html" target="_top" xlink:title=" ">
<polygon fill="white" stroke="black" points="31,-0.5 31,-19.5 130,-19.5 130,-0.5 31,-0.5"/>
<text text-anchor="middle" x="80.5" y="-7.5" font-family="Helvetica,sans-Serif" font-size="10.00">catch_platform.h</text>
</a>
</g>
</g>
<!-- Node14&#45;&gt;Node15 -->
<g id="edge19" class="edge">
<title>Node14&#45;&gt;Node15</title>
<path fill="none" stroke="midnightblue" d="M80.5,-56.08C80.5,-49.01 80.5,-38.86 80.5,-29.99"/>
<polygon fill="midnightblue" stroke="midnightblue" points="84,-29.75 80.5,-19.75 77,-29.75 84,-29.75"/>
</g>
</g>
</svg>
        <g id="navigator" transform="translate(0 0)" fill="#404254">
                <rect fill="#f2f5e9" fill-opacity="0.5" stroke="#606060" stroke-width=".5" x="0" y="0" width="60" height="60"/>
                <use id="zoomplus" xlink:href="#zoomPlus" x="17" y="9" onmousedown="handleZoom(evt,'in')"/>
                <use id="zoomminus" xlink:href="#zoomMin" x="42" y="9" onmousedown="handleZoom(evt,'out')"/>
                <use id="reset" xlink:href="#resetDef" x="30" y="36" onmousedown="handleReset()"/>
                <g id="arrowUp" xlink:href="#dirArrow" transform="translate(30 24)" onmousedown="handlePan(0,-1)">
                  <use xlink:href="#rim" fill="#404040">
                        <set attributeName="fill" to="#808080" begin="arrowUp.mouseover" end="arrowUp.mouseout"/>
                  </use>
                  <path fill="none" stroke="white" stroke-width="1.5" d="M0,-3.0v7 M-2.5,-0.5L0,-3.0L2.5,-0.5"/>
                </g>
                <g id="arrowRight" xlink:href="#dirArrow" transform="rotate(90) translate(36 -43)" onmousedown="handlePan(1,0)">
                  <use xlink:href="#rim" fill="#404040">
                        <set attributeName="fill" to="#808080" begin="arrowRight.mouseover" end="arrowRight.mouseout"/>
                  </use>
                  <path fill="none" stroke="white" stroke-width="1.5" d="M0,-3.0v7 M-2.5,-0.5L0,-3.0L2.5,-0.5"/>
                </g>
                <g id="arrowDown" xlink:href="#dirArrow" transform="rotate(180) translate(-30 -48)" onmousedown="handlePan(0,1)">
                  <use xlink:href="#rim" fill="#404040">
                        <set attributeName="fill" to="#808080" begin="arrowDown.mouseover" end="arrowDown.mouseout"/>
                  </use>
                  <path fill="none" stroke="white" stroke-width="1.5" d="M0,-3.0v7 M-2.5,-0.5L0,-3.0L2.5,-0.5"/>
                </g>
                <g id="arrowLeft" xlink:href="#dirArrow" transform="rotate(270) translate(-36 17)" onmousedown="handlePan(-1,0)">
                  <use xlink:href="#rim" fill="#404040">
                        <set attributeName="fill" to="#808080" begin="arrowLeft.mouseover" end="arrowLeft.mouseout"/>
                  </use>
                  <path fill="none" stroke="white" stroke-width="1.5" d="M0,-3.0v7 M-2.5,-0.5L0,-3.0L2.5,-0.5"/>
                </g>
        </g>
        <svg viewBox="0 0 15 15" width="100%" height="30px" preserveAspectRatio="xMaxYMin meet">
         <g id="arrow_out" transform="scale(0.3 0.3)">
          <a xlink:href="catch__enum__values__registry_8cpp__incl_org.svg" target="_base">
           <rect id="button" ry="5" rx="5" y="6" x="6" height="38" width="38"
                fill="#f2f5e9" fill-opacity="0.5" stroke="#606060" stroke-width="1.0"/>
           <path id="arrow"
             d="M 11.500037,31.436501 C 11.940474,20.09759 22.043105,11.32322 32.158766,21.979434 L 37.068811,17.246167 C 37.068811,17.246167 37.088388,32 37.088388,32 L 22.160133,31.978069 C 22.160133,31.978069 26.997745,27.140456 26.997745,27.140456 C 18.528582,18.264221 13.291696,25.230495 11.500037,31.436501 z"
             style="fill:#404040;"/>
          </a>
         </g>
        </svg>
</svg>
