<?xml version="1.0" encoding="UTF-8" standalone="no"?>
<!DOCTYPE svg PUBLIC "-//W3C//DTD SVG 1.1//EN"
 "http://www.w3.org/Graphics/SVG/1.1/DTD/svg11.dtd">
<!-- Generated by graphviz version 2.43.0 (0)
 -->
<!-- Title: language/lib/Catch2/include/internal/catch_commandline.h Pages: 1 -->
<svg width="491pt" height="362pt"
 viewBox="0.00 0.00 491.00 362.00" xmlns="http://www.w3.org/2000/svg" xmlns:xlink="http://www.w3.org/1999/xlink">
<g id="graph0" class="graph" transform="scale(1 1) rotate(0) translate(4 358)">
<title>language/lib/Catch2/include/internal/catch_commandline.h</title>
<polygon fill="white" stroke="transparent" points="-4,4 -4,-358 487,-358 487,4 -4,4"/>
<!-- Node1 -->
<g id="node1" class="node">
<title>Node1</title>
<g id="a_node1"><a xlink:title=" ">
<polygon fill="#bfbfbf" stroke="black" points="207,-312.5 207,-353.5 332,-353.5 332,-312.5 207,-312.5"/>
<text text-anchor="start" x="215" y="-341.5" font-family="Helvetica,sans-Serif" font-size="10.00">language/lib/Catch2</text>
<text text-anchor="start" x="215" y="-330.5" font-family="Helvetica,sans-Serif" font-size="10.00">/include/internal/catch</text>
<text text-anchor="middle" x="269.5" y="-319.5" font-family="Helvetica,sans-Serif" font-size="10.00">_commandline.h</text>
</a>
</g>
</g>
<!-- Node2 -->
<g id="node2" class="node">
<title>Node2</title>
<g id="a_node2"><a xlink:href="catch__session_8h.html" target="_top" xlink:title=" ">
<polygon fill="white" stroke="black" points="97,-234.5 97,-275.5 222,-275.5 222,-234.5 97,-234.5"/>
<text text-anchor="start" x="105" y="-263.5" font-family="Helvetica,sans-Serif" font-size="10.00">language/lib/Catch2</text>
<text text-anchor="start" x="105" y="-252.5" font-family="Helvetica,sans-Serif" font-size="10.00">/include/internal/catch</text>
<text text-anchor="middle" x="159.5" y="-241.5" font-family="Helvetica,sans-Serif" font-size="10.00">_session.h</text>
</a>
</g>
</g>
<!-- Node1&#45;&gt;Node2 -->
<g id="edge1" class="edge">
<title>Node1&#45;&gt;Node2</title>
<path fill="none" stroke="midnightblue" d="M232.79,-306.64C218.1,-296.49 201.45,-284.98 187.73,-275.51"/>
<polygon fill="midnightblue" stroke="midnightblue" points="230.96,-309.62 241.17,-312.43 234.93,-303.86 230.96,-309.62"/>
</g>
<!-- Node6 -->
<g id="node6" class="node">
<title>Node6</title>
<g id="a_node6"><a xlink:href="catch__session_8cpp.html" target="_top" xlink:title=" ">
<polygon fill="white" stroke="black" points="143,-156.5 143,-197.5 268,-197.5 268,-156.5 143,-156.5"/>
<text text-anchor="start" x="151" y="-185.5" font-family="Helvetica,sans-Serif" font-size="10.00">language/lib/Catch2</text>
<text text-anchor="start" x="151" y="-174.5" font-family="Helvetica,sans-Serif" font-size="10.00">/include/internal/catch</text>
<text text-anchor="middle" x="205.5" y="-163.5" font-family="Helvetica,sans-Serif" font-size="10.00">_session.cpp</text>
</a>
</g>
</g>
<!-- Node1&#45;&gt;Node6 -->
<g id="edge9" class="edge">
<title>Node1&#45;&gt;Node6</title>
<path fill="none" stroke="midnightblue" d="M258.25,-302.82C250.62,-283.27 240.2,-256.99 230.5,-234 225.37,-221.84 219.34,-208.32 214.49,-197.61"/>
<polygon fill="midnightblue" stroke="midnightblue" points="255.08,-304.33 261.97,-312.38 261.61,-301.79 255.08,-304.33"/>
</g>
<!-- Node8 -->
<g id="node8" class="node">
<title>Node8</title>
<g id="a_node8"><a xlink:href="catch__commandline_8cpp.html" target="_top" xlink:title=" ">
<polygon fill="white" stroke="black" points="286,-156.5 286,-197.5 411,-197.5 411,-156.5 286,-156.5"/>
<text text-anchor="start" x="294" y="-185.5" font-family="Helvetica,sans-Serif" font-size="10.00">language/lib/Catch2</text>
<text text-anchor="start" x="294" y="-174.5" font-family="Helvetica,sans-Serif" font-size="10.00">/include/internal/catch</text>
<text text-anchor="middle" x="348.5" y="-163.5" font-family="Helvetica,sans-Serif" font-size="10.00">_commandline.cpp</text>
</a>
</g>
</g>
<!-- Node1&#45;&gt;Node8 -->
<g id="edge7" class="edge">
<title>Node1&#45;&gt;Node8</title>
<path fill="none" stroke="midnightblue" d="M278.7,-302.42C285.44,-282.49 295.48,-255.94 307.5,-234 314.5,-221.21 324.04,-208 332.16,-197.63"/>
<polygon fill="midnightblue" stroke="midnightblue" points="275.29,-301.58 275.49,-312.18 281.94,-303.77 275.29,-301.58"/>
</g>
<!-- Node9 -->
<g id="node9" class="node">
<title>Node9</title>
<g id="a_node9"><a xlink:href="_cmd_line_8tests_8cpp.html" target="_top" xlink:title=" ">
<polygon fill="white" stroke="black" points="316,-234.5 316,-275.5 483,-275.5 483,-234.5 316,-234.5"/>
<text text-anchor="start" x="324" y="-263.5" font-family="Helvetica,sans-Serif" font-size="10.00">language/lib/Catch2</text>
<text text-anchor="start" x="324" y="-252.5" font-family="Helvetica,sans-Serif" font-size="10.00">/projects/SelfTest/Introspective</text>
<text text-anchor="middle" x="399.5" y="-241.5" font-family="Helvetica,sans-Serif" font-size="10.00">Tests/CmdLine.tests.cpp</text>
</a>
</g>
</g>
<!-- Node1&#45;&gt;Node9 -->
<g id="edge10" class="edge">
<title>Node1&#45;&gt;Node9</title>
<path fill="none" stroke="midnightblue" d="M311.92,-307.2C329.51,-296.92 349.62,-285.16 366.14,-275.51"/>
<polygon fill="midnightblue" stroke="midnightblue" points="309.84,-304.36 302.98,-312.43 313.38,-310.4 309.84,-304.36"/>
</g>
<!-- Node3 -->
<g id="node3" class="node">
<title>Node3</title>
<g id="a_node3"><a xlink:href="catch__default__main_8hpp.html" target="_top" xlink:title=" ">
<polygon fill="white" stroke="black" points="0,-156.5 0,-197.5 125,-197.5 125,-156.5 0,-156.5"/>
<text text-anchor="start" x="8" y="-185.5" font-family="Helvetica,sans-Serif" font-size="10.00">language/lib/Catch2</text>
<text text-anchor="start" x="8" y="-174.5" font-family="Helvetica,sans-Serif" font-size="10.00">/include/internal/catch</text>
<text text-anchor="middle" x="62.5" y="-163.5" font-family="Helvetica,sans-Serif" font-size="10.00">_default_main.hpp</text>
</a>
</g>
</g>
<!-- Node2&#45;&gt;Node3 -->
<g id="edge2" class="edge">
<title>Node2&#45;&gt;Node3</title>
<path fill="none" stroke="midnightblue" d="M126.4,-228.06C113.63,-218.06 99.26,-206.8 87.4,-197.51"/>
<polygon fill="midnightblue" stroke="midnightblue" points="124.49,-231.02 134.52,-234.43 128.81,-225.51 124.49,-231.02"/>
</g>
<!-- Node2&#45;&gt;Node6 -->
<g id="edge5" class="edge">
<title>Node2&#45;&gt;Node6</title>
<path fill="none" stroke="midnightblue" d="M176.59,-225.76C182.29,-216.35 188.49,-206.1 193.69,-197.51"/>
<polygon fill="midnightblue" stroke="midnightblue" points="173.53,-224.06 171.35,-234.43 179.52,-227.69 173.53,-224.06"/>
</g>
<!-- Node4 -->
<g id="node4" class="node">
<title>Node4</title>
<g id="a_node4"><a xlink:href="include_2catch_8hpp.html" target="_top" xlink:title=" ">
<polygon fill="white" stroke="black" points="6,-84 6,-114 119,-114 119,-84 6,-84"/>
<text text-anchor="start" x="14" y="-102" font-family="Helvetica,sans-Serif" font-size="10.00">language/lib/Catch2</text>
<text text-anchor="middle" x="62.5" y="-91" font-family="Helvetica,sans-Serif" font-size="10.00">/include/catch.hpp</text>
</a>
</g>
</g>
<!-- Node3&#45;&gt;Node4 -->
<g id="edge3" class="edge">
<title>Node3&#45;&gt;Node4</title>
<path fill="none" stroke="midnightblue" d="M62.5,-146.28C62.5,-135.25 62.5,-123.25 62.5,-114.23"/>
<polygon fill="midnightblue" stroke="midnightblue" points="59,-146.43 62.5,-156.43 66,-146.43 59,-146.43"/>
</g>
<!-- Node5 -->
<g id="node5" class="node">
<title>Node5</title>
<g id="a_node5"><a xlink:href="catch__with__main_8hpp.html" target="_top" xlink:title=" ">
<polygon fill="white" stroke="black" points="6,-0.5 6,-41.5 119,-41.5 119,-0.5 6,-0.5"/>
<text text-anchor="start" x="14" y="-29.5" font-family="Helvetica,sans-Serif" font-size="10.00">language/lib/Catch2</text>
<text text-anchor="start" x="14" y="-18.5" font-family="Helvetica,sans-Serif" font-size="10.00">/include/catch_with</text>
<text text-anchor="middle" x="62.5" y="-7.5" font-family="Helvetica,sans-Serif" font-size="10.00">_main.hpp</text>
</a>
</g>
</g>
<!-- Node4&#45;&gt;Node5 -->
<g id="edge4" class="edge">
<title>Node4&#45;&gt;Node5</title>
<path fill="none" stroke="midnightblue" d="M62.5,-73.66C62.5,-63.33 62.5,-51.44 62.5,-41.68"/>
<polygon fill="midnightblue" stroke="midnightblue" points="59,-73.7 62.5,-83.7 66,-73.71 59,-73.7"/>
</g>
<!-- Node7 -->
<g id="node7" class="node">
<title>Node7</title>
<g id="a_node7"><a xlink:href="catch__objc__impl_8mm.html" target="_top" xlink:title=" ">
<polygon fill="white" stroke="black" points="212,-78.5 212,-119.5 341,-119.5 341,-78.5 212,-78.5"/>
<text text-anchor="start" x="220" y="-107.5" font-family="Helvetica,sans-Serif" font-size="10.00">language/lib/Catch2</text>
<text text-anchor="start" x="220" y="-96.5" font-family="Helvetica,sans-Serif" font-size="10.00">/projects/XCode/OCTest</text>
<text text-anchor="middle" x="276.5" y="-85.5" font-family="Helvetica,sans-Serif" font-size="10.00">/catch_objc_impl.mm</text>
</a>
</g>
</g>
<!-- Node6&#45;&gt;Node7 -->
<g id="edge6" class="edge">
<title>Node6&#45;&gt;Node7</title>
<path fill="none" stroke="midnightblue" d="M230.8,-148.92C239.88,-139.2 249.92,-128.45 258.28,-119.51"/>
<polygon fill="midnightblue" stroke="midnightblue" points="228.05,-146.73 223.78,-156.43 233.17,-151.51 228.05,-146.73"/>
</g>
<!-- Node8&#45;&gt;Node7 -->
<g id="edge8" class="edge">
<title>Node8&#45;&gt;Node7</title>
<path fill="none" stroke="midnightblue" d="M322.84,-148.92C313.64,-139.2 303.45,-128.45 294.98,-119.51"/>
<polygon fill="midnightblue" stroke="midnightblue" points="320.54,-151.58 329.96,-156.43 325.62,-146.76 320.54,-151.58"/>
</g>
</g>
</svg>
