<?xml version="1.0" encoding="UTF-8" standalone="no"?>
<!DOCTYPE svg PUBLIC "-//W3C//DTD SVG 1.1//EN"
 "http://www.w3.org/Graphics/SVG/1.1/DTD/svg11.dtd">
<!-- Generated by graphviz version 2.43.0 (0)
 -->
<!-- Title: language/lib/Catch2/include/internal/catch_list.h Pages: 1 -->
<svg width="1436pt" height="509pt"
 viewBox="0.00 0.00 1435.84 509.00" xmlns="http://www.w3.org/2000/svg" xmlns:xlink="http://www.w3.org/1999/xlink">
<g id="graph0" class="graph" transform="scale(1 1) rotate(0) translate(4 505)">
<title>language/lib/Catch2/include/internal/catch_list.h</title>
<polygon fill="white" stroke="transparent" points="-4,4 -4,-505 1431.84,-505 1431.84,4 -4,4"/>
<!-- Node1 -->
<g id="node1" class="node">
<title>Node1</title>
<g id="a_node1"><a xlink:title=" ">
<polygon fill="#bfbfbf" stroke="black" points="327.84,-459.5 327.84,-500.5 452.84,-500.5 452.84,-459.5 327.84,-459.5"/>
<text text-anchor="start" x="335.84" y="-488.5" font-family="Helvetica,sans-Serif" font-size="10.00">language/lib/Catch2</text>
<text text-anchor="start" x="335.84" y="-477.5" font-family="Helvetica,sans-Serif" font-size="10.00">/include/internal/catch</text>
<text text-anchor="middle" x="390.34" y="-466.5" font-family="Helvetica,sans-Serif" font-size="10.00">_list.h</text>
</a>
</g>
</g>
<!-- Node2 -->
<g id="node2" class="node">
<title>Node2</title>
<g id="a_node2"><a xlink:href="catch__option_8hpp.html" target="_top" xlink:title=" ">
<polygon fill="white" stroke="black" points="23.34,-168.5 23.34,-187.5 123.34,-187.5 123.34,-168.5 23.34,-168.5"/>
<text text-anchor="middle" x="73.34" y="-175.5" font-family="Helvetica,sans-Serif" font-size="10.00">catch_option.hpp</text>
</a>
</g>
</g>
<!-- Node1&#45;&gt;Node2 -->
<g id="edge1" class="edge">
<title>Node1&#45;&gt;Node2</title>
<path fill="none" stroke="midnightblue" d="M327.75,-470.88C225.36,-455.84 33.34,-419.43 33.34,-358 33.34,-358 33.34,-358 33.34,-294.5 33.34,-258.06 51.33,-218.55 63.18,-196.47"/>
<polygon fill="midnightblue" stroke="midnightblue" points="66.3,-198.07 68.11,-187.63 60.18,-194.66 66.3,-198.07"/>
</g>
<!-- Node3 -->
<g id="node3" class="node">
<title>Node3</title>
<g id="a_node3"><a xlink:href="catch__config_8hpp.html" target="_top" xlink:title=" ">
<polygon fill="white" stroke="black" points="341.34,-403.5 341.34,-422.5 439.34,-422.5 439.34,-403.5 341.34,-403.5"/>
<text text-anchor="middle" x="390.34" y="-410.5" font-family="Helvetica,sans-Serif" font-size="10.00">catch_config.hpp</text>
</a>
</g>
</g>
<!-- Node1&#45;&gt;Node3 -->
<g id="edge2" class="edge">
<title>Node1&#45;&gt;Node3</title>
<path fill="none" stroke="midnightblue" d="M390.34,-459.5C390.34,-451.07 390.34,-441.24 390.34,-432.87"/>
<polygon fill="midnightblue" stroke="midnightblue" points="393.84,-432.65 390.34,-422.65 386.84,-432.65 393.84,-432.65"/>
</g>
<!-- Node30 -->
<g id="node30" class="node">
<title>Node30</title>
<g id="a_node30"><a xlink:title=" ">
<polygon fill="white" stroke="#bfbfbf" points="457.34,-403.5 457.34,-422.5 489.34,-422.5 489.34,-403.5 457.34,-403.5"/>
<text text-anchor="middle" x="473.34" y="-410.5" font-family="Helvetica,sans-Serif" font-size="10.00">set</text>
</a>
</g>
</g>
<!-- Node1&#45;&gt;Node30 -->
<g id="edge56" class="edge">
<title>Node1&#45;&gt;Node30</title>
<path fill="none" stroke="midnightblue" d="M415.24,-459.5C427.72,-449.72 442.6,-438.07 454.18,-429.01"/>
<polygon fill="midnightblue" stroke="midnightblue" points="456.58,-431.57 462.29,-422.65 452.26,-426.06 456.58,-431.57"/>
</g>
<!-- Node4 -->
<g id="node4" class="node">
<title>Node4</title>
<g id="a_node4"><a xlink:href="catch__test__spec__parser_8h.html" target="_top" xlink:title=" ">
<polygon fill="white" stroke="black" points="811.84,-347.5 811.84,-366.5 950.84,-366.5 950.84,-347.5 811.84,-347.5"/>
<text text-anchor="middle" x="881.34" y="-354.5" font-family="Helvetica,sans-Serif" font-size="10.00">catch_test_spec_parser.h</text>
</a>
</g>
</g>
<!-- Node3&#45;&gt;Node4 -->
<g id="edge3" class="edge">
<title>Node3&#45;&gt;Node4</title>
<path fill="none" stroke="midnightblue" d="M439.36,-404.22C442.4,-403.79 445.41,-403.38 448.34,-403 571.27,-387.09 714.4,-373.09 801.4,-365.09"/>
<polygon fill="midnightblue" stroke="midnightblue" points="801.83,-368.57 811.47,-364.17 801.19,-361.6 801.83,-368.57"/>
</g>
<!-- Node11 -->
<g id="node11" class="node">
<title>Node11</title>
<g id="a_node11"><a xlink:title=" ">
<polygon fill="white" stroke="#bfbfbf" points="1149.34,-56.5 1149.34,-75.5 1193.34,-75.5 1193.34,-56.5 1149.34,-56.5"/>
<text text-anchor="middle" x="1171.34" y="-63.5" font-family="Helvetica,sans-Serif" font-size="10.00">string</text>
</a>
</g>
</g>
<!-- Node3&#45;&gt;Node11 -->
<g id="edge55" class="edge">
<title>Node3&#45;&gt;Node11</title>
<path fill="none" stroke="midnightblue" d="M439.35,-404.1C442.39,-403.7 445.4,-403.33 448.34,-403 675.02,-377.49 734.33,-397.97 960.34,-367 1114.96,-345.81 1304.34,-452.57 1304.34,-296.5 1304.34,-296.5 1304.34,-296.5 1304.34,-177 1304.34,-124.65 1242.4,-92.53 1203.06,-77.4"/>
<polygon fill="midnightblue" stroke="midnightblue" points="1204.19,-74.08 1193.6,-73.92 1201.78,-80.65 1204.19,-74.08"/>
</g>
<!-- Node16 -->
<g id="node16" class="node">
<title>Node16</title>
<g id="a_node16"><a xlink:title=" ">
<polygon fill="white" stroke="#bfbfbf" points="176.84,-56.5 176.84,-75.5 223.84,-75.5 223.84,-56.5 176.84,-56.5"/>
<text text-anchor="middle" x="200.34" y="-63.5" font-family="Helvetica,sans-Serif" font-size="10.00">vector</text>
</a>
</g>
</g>
<!-- Node3&#45;&gt;Node16 -->
<g id="edge54" class="edge">
<title>Node3&#45;&gt;Node16</title>
<path fill="none" stroke="midnightblue" d="M341,-403.51C248.86,-384.48 55.14,-328.53 2.34,-188 -6.85,-163.55 20.04,-112.28 20.34,-112 60.38,-74.52 126.8,-66.99 166.78,-66.15"/>
<polygon fill="midnightblue" stroke="midnightblue" points="166.86,-69.65 176.83,-66.07 166.8,-62.65 166.86,-69.65"/>
</g>
<!-- Node23 -->
<g id="node23" class="node">
<title>Node23</title>
<g id="a_node23"><a xlink:title=" ">
<polygon fill="white" stroke="#bfbfbf" points="361.34,-168.5 361.34,-187.5 419.34,-187.5 419.34,-168.5 361.34,-168.5"/>
<text text-anchor="middle" x="390.34" y="-175.5" font-family="Helvetica,sans-Serif" font-size="10.00">memory</text>
</a>
</g>
</g>
<!-- Node3&#45;&gt;Node23 -->
<g id="edge53" class="edge">
<title>Node3&#45;&gt;Node23</title>
<path fill="none" stroke="midnightblue" d="M390.34,-403.43C390.34,-369.75 390.34,-245.99 390.34,-198.1"/>
<polygon fill="midnightblue" stroke="midnightblue" points="393.84,-197.9 390.34,-187.9 386.84,-197.9 393.84,-197.9"/>
</g>
<!-- Node26 -->
<g id="node26" class="node">
<title>Node26</title>
<g id="a_node26"><a xlink:href="catch__interfaces__config_8h.html" target="_top" xlink:title=" ">
<polygon fill="white" stroke="black" points="204.34,-224.5 204.34,-243.5 344.34,-243.5 344.34,-224.5 204.34,-224.5"/>
<text text-anchor="middle" x="274.34" y="-231.5" font-family="Helvetica,sans-Serif" font-size="10.00">catch_interfaces_config.h</text>
</a>
</g>
</g>
<!-- Node3&#45;&gt;Node26 -->
<g id="edge40" class="edge">
<title>Node3&#45;&gt;Node26</title>
<path fill="none" stroke="midnightblue" d="M384.74,-403.46C366.8,-376.08 310.42,-290.05 285.91,-252.65"/>
<polygon fill="midnightblue" stroke="midnightblue" points="288.56,-250.31 280.15,-243.87 282.7,-254.15 288.56,-250.31"/>
</g>
<!-- Node28 -->
<g id="node28" class="node">
<title>Node28</title>
<g id="a_node28"><a xlink:href="catch__stream_8h.html" target="_top" xlink:title=" ">
<polygon fill="white" stroke="black" points="1332.34,-168.5 1332.34,-187.5 1424.34,-187.5 1424.34,-168.5 1332.34,-168.5"/>
<text text-anchor="middle" x="1378.34" y="-175.5" font-family="Helvetica,sans-Serif" font-size="10.00">catch_stream.h</text>
</a>
</g>
</g>
<!-- Node3&#45;&gt;Node28 -->
<g id="edge48" class="edge">
<title>Node3&#45;&gt;Node28</title>
<path fill="none" stroke="midnightblue" d="M439.65,-403.96C442.59,-403.6 445.5,-403.28 448.34,-403 496.48,-398.28 1279.88,-396.34 1318.34,-367 1371.91,-326.14 1378.58,-237.11 1378.8,-198.04"/>
<polygon fill="midnightblue" stroke="midnightblue" points="1382.29,-197.59 1378.7,-187.62 1375.29,-197.65 1382.29,-197.59"/>
</g>
<!-- Node5 -->
<g id="node5" class="node">
<title>Node5</title>
<g id="a_node5"><a xlink:href="catch__test__spec_8h.html" target="_top" xlink:title=" ">
<polygon fill="white" stroke="black" points="742.34,-286 742.34,-305 846.34,-305 846.34,-286 742.34,-286"/>
<text text-anchor="middle" x="794.34" y="-293" font-family="Helvetica,sans-Serif" font-size="10.00">catch_test_spec.h</text>
</a>
</g>
</g>
<!-- Node4&#45;&gt;Node5 -->
<g id="edge4" class="edge">
<title>Node4&#45;&gt;Node5</title>
<path fill="none" stroke="midnightblue" d="M868.87,-347.48C854.92,-337.93 832.07,-322.31 815.35,-310.87"/>
<polygon fill="midnightblue" stroke="midnightblue" points="817.01,-307.77 806.78,-305.01 813.06,-313.54 817.01,-307.77"/>
</g>
<!-- Node24 -->
<g id="node24" class="node">
<title>Node24</title>
<g id="a_node24"><a xlink:href="catch__string__manip_8h.html" target="_top" xlink:title=" ">
<polygon fill="white" stroke="black" points="907.84,-168.5 907.84,-187.5 1028.84,-187.5 1028.84,-168.5 907.84,-168.5"/>
<text text-anchor="middle" x="968.34" y="-175.5" font-family="Helvetica,sans-Serif" font-size="10.00">catch_string_manip.h</text>
</a>
</g>
</g>
<!-- Node4&#45;&gt;Node24 -->
<g id="edge33" class="edge">
<title>Node4&#45;&gt;Node24</title>
<path fill="none" stroke="midnightblue" d="M887.63,-347.43C900.74,-329.23 931.27,-285.01 949.34,-244 956,-228.87 961.08,-210.75 964.3,-197.49"/>
<polygon fill="midnightblue" stroke="midnightblue" points="967.73,-198.19 966.57,-187.66 960.91,-196.62 967.73,-198.19"/>
</g>
<!-- Node25 -->
<g id="node25" class="node">
<title>Node25</title>
<g id="a_node25"><a xlink:href="catch__interfaces__tag__alias__registry_8h.html" target="_top" xlink:title=" ">
<polygon fill="white" stroke="black" points="1079.34,-280.5 1079.34,-310.5 1197.34,-310.5 1197.34,-280.5 1079.34,-280.5"/>
<text text-anchor="start" x="1087.34" y="-298.5" font-family="Helvetica,sans-Serif" font-size="10.00">catch_interfaces_tag</text>
<text text-anchor="middle" x="1138.34" y="-287.5" font-family="Helvetica,sans-Serif" font-size="10.00">_alias_registry.h</text>
</a>
</g>
</g>
<!-- Node4&#45;&gt;Node25 -->
<g id="edge38" class="edge">
<title>Node4&#45;&gt;Node25</title>
<path fill="none" stroke="midnightblue" d="M918.16,-347.48C957.5,-338.37 1020.77,-323.72 1069.42,-312.46"/>
<polygon fill="midnightblue" stroke="midnightblue" points="1070.3,-315.85 1079.25,-310.18 1068.72,-309.03 1070.3,-315.85"/>
</g>
<!-- Node6 -->
<g id="node6" class="node">
<title>Node6</title>
<g id="a_node6"><a xlink:href="catch__wildcard__pattern_8h.html" target="_top" xlink:title=" ">
<polygon fill="white" stroke="black" points="800.84,-224.5 800.84,-243.5 939.84,-243.5 939.84,-224.5 800.84,-224.5"/>
<text text-anchor="middle" x="870.34" y="-231.5" font-family="Helvetica,sans-Serif" font-size="10.00">catch_wildcard_pattern.h</text>
</a>
</g>
</g>
<!-- Node5&#45;&gt;Node6 -->
<g id="edge5" class="edge">
<title>Node5&#45;&gt;Node6</title>
<path fill="none" stroke="midnightblue" d="M805.23,-285.98C817.3,-276.52 837.01,-261.1 851.58,-249.69"/>
<polygon fill="midnightblue" stroke="midnightblue" points="853.75,-252.43 859.47,-243.51 849.44,-246.92 853.75,-252.43"/>
</g>
<!-- Node5&#45;&gt;Node11 -->
<g id="edge30" class="edge">
<title>Node5&#45;&gt;Node11</title>
<path fill="none" stroke="midnightblue" d="M825.82,-285.99C880.73,-270.52 996.78,-235 1087.34,-188 1128.15,-166.82 1152.32,-172.37 1174.34,-132 1182.11,-117.76 1180.22,-99.04 1177.06,-85.35"/>
<polygon fill="midnightblue" stroke="midnightblue" points="1180.42,-84.36 1174.41,-75.63 1173.66,-86.2 1180.42,-84.36"/>
</g>
<!-- Node13 -->
<g id="node13" class="node">
<title>Node13</title>
<g id="a_node13"><a xlink:href="catch__test__case__info_8h.html" target="_top" xlink:title=" ">
<polygon fill="white" stroke="black" points="654.34,-224.5 654.34,-243.5 782.34,-243.5 782.34,-224.5 654.34,-224.5"/>
<text text-anchor="middle" x="718.34" y="-231.5" font-family="Helvetica,sans-Serif" font-size="10.00">catch_test_case_info.h</text>
</a>
</g>
</g>
<!-- Node5&#45;&gt;Node13 -->
<g id="edge12" class="edge">
<title>Node5&#45;&gt;Node13</title>
<path fill="none" stroke="midnightblue" d="M783.45,-285.98C771.37,-276.52 751.67,-261.1 737.1,-249.69"/>
<polygon fill="midnightblue" stroke="midnightblue" points="739.24,-246.92 729.21,-243.51 734.92,-252.43 739.24,-246.92"/>
</g>
<!-- Node5&#45;&gt;Node16 -->
<g id="edge31" class="edge">
<title>Node5&#45;&gt;Node16</title>
<path fill="none" stroke="midnightblue" d="M742.14,-293.87C637.46,-291.79 394.85,-282.8 195.34,-244 112.68,-227.92 64.31,-255.77 14.34,-188 -30.37,-127.37 101.74,-88.77 166.63,-73.91"/>
<polygon fill="midnightblue" stroke="midnightblue" points="167.43,-77.32 176.43,-71.73 165.91,-70.49 167.43,-77.32"/>
</g>
<!-- Node5&#45;&gt;Node23 -->
<g id="edge32" class="edge">
<title>Node5&#45;&gt;Node23</title>
<path fill="none" stroke="midnightblue" d="M764.3,-285.91C692.23,-265.31 509.51,-213.07 429.21,-190.11"/>
<polygon fill="midnightblue" stroke="midnightblue" points="430.06,-186.72 419.48,-187.33 428.13,-193.45 430.06,-186.72"/>
</g>
<!-- Node7 -->
<g id="node7" class="node">
<title>Node7</title>
<g id="a_node7"><a xlink:href="catch__common_8h.html" target="_top" xlink:title=" ">
<polygon fill="white" stroke="black" points="832.34,-112.5 832.34,-131.5 932.34,-131.5 932.34,-112.5 832.34,-112.5"/>
<text text-anchor="middle" x="882.34" y="-119.5" font-family="Helvetica,sans-Serif" font-size="10.00">catch_common.h</text>
</a>
</g>
</g>
<!-- Node6&#45;&gt;Node7 -->
<g id="edge6" class="edge">
<title>Node6&#45;&gt;Node7</title>
<path fill="none" stroke="midnightblue" d="M871.28,-224.37C873.22,-206.62 877.68,-165.67 880.31,-141.6"/>
<polygon fill="midnightblue" stroke="midnightblue" points="883.8,-141.91 881.4,-131.59 876.84,-141.15 883.8,-141.91"/>
</g>
<!-- Node8 -->
<g id="node8" class="node">
<title>Node8</title>
<g id="a_node8"><a xlink:href="catch__compiler__capabilities_8h.html" target="_top" xlink:title=" ">
<polygon fill="white" stroke="black" points="686.84,-56.5 686.84,-75.5 847.84,-75.5 847.84,-56.5 686.84,-56.5"/>
<text text-anchor="middle" x="767.34" y="-63.5" font-family="Helvetica,sans-Serif" font-size="10.00">catch_compiler_capabilities.h</text>
</a>
</g>
</g>
<!-- Node7&#45;&gt;Node8 -->
<g id="edge7" class="edge">
<title>Node7&#45;&gt;Node8</title>
<path fill="none" stroke="midnightblue" d="M864.12,-112.44C845.44,-103.68 816.18,-89.94 794.72,-79.86"/>
<polygon fill="midnightblue" stroke="midnightblue" points="796.01,-76.6 785.48,-75.52 793.04,-82.93 796.01,-76.6"/>
</g>
<!-- Node10 -->
<g id="node10" class="node">
<title>Node10</title>
<g id="a_node10"><a xlink:title=" ">
<polygon fill="white" stroke="#bfbfbf" points="936.34,-56.5 936.34,-75.5 984.34,-75.5 984.34,-56.5 936.34,-56.5"/>
<text text-anchor="middle" x="960.34" y="-63.5" font-family="Helvetica,sans-Serif" font-size="10.00">iosfwd</text>
</a>
</g>
</g>
<!-- Node7&#45;&gt;Node10 -->
<g id="edge9" class="edge">
<title>Node7&#45;&gt;Node10</title>
<path fill="none" stroke="midnightblue" d="M894.87,-112.32C906.92,-103.98 925.37,-91.21 939.61,-81.35"/>
<polygon fill="midnightblue" stroke="midnightblue" points="941.61,-84.22 947.84,-75.65 937.62,-78.47 941.61,-84.22"/>
</g>
<!-- Node7&#45;&gt;Node11 -->
<g id="edge10" class="edge">
<title>Node7&#45;&gt;Node11</title>
<path fill="none" stroke="midnightblue" d="M928.13,-112.44C987.1,-101.43 1088.07,-82.56 1139.38,-72.97"/>
<polygon fill="midnightblue" stroke="midnightblue" points="1140.06,-76.4 1149.25,-71.13 1138.78,-69.52 1140.06,-76.4"/>
</g>
<!-- Node12 -->
<g id="node12" class="node">
<title>Node12</title>
<g id="a_node12"><a xlink:title=" ">
<polygon fill="white" stroke="#bfbfbf" points="866.34,-56.5 866.34,-75.5 916.34,-75.5 916.34,-56.5 866.34,-56.5"/>
<text text-anchor="middle" x="891.34" y="-63.5" font-family="Helvetica,sans-Serif" font-size="10.00">cstdint</text>
</a>
</g>
</g>
<!-- Node7&#45;&gt;Node12 -->
<g id="edge11" class="edge">
<title>Node7&#45;&gt;Node12</title>
<path fill="none" stroke="midnightblue" d="M883.82,-112.08C885.02,-104.93 886.73,-94.64 888.22,-85.69"/>
<polygon fill="midnightblue" stroke="midnightblue" points="891.69,-86.19 889.88,-75.75 884.78,-85.04 891.69,-86.19"/>
</g>
<!-- Node9 -->
<g id="node9" class="node">
<title>Node9</title>
<g id="a_node9"><a xlink:href="catch__platform_8h.html" target="_top" xlink:title=" ">
<polygon fill="white" stroke="black" points="717.84,-0.5 717.84,-19.5 816.84,-19.5 816.84,-0.5 717.84,-0.5"/>
<text text-anchor="middle" x="767.34" y="-7.5" font-family="Helvetica,sans-Serif" font-size="10.00">catch_platform.h</text>
</a>
</g>
</g>
<!-- Node8&#45;&gt;Node9 -->
<g id="edge8" class="edge">
<title>Node8&#45;&gt;Node9</title>
<path fill="none" stroke="midnightblue" d="M767.34,-56.08C767.34,-49.01 767.34,-38.86 767.34,-29.99"/>
<polygon fill="midnightblue" stroke="midnightblue" points="770.84,-29.75 767.34,-19.75 763.84,-29.75 770.84,-29.75"/>
</g>
<!-- Node13&#45;&gt;Node7 -->
<g id="edge13" class="edge">
<title>Node13&#45;&gt;Node7</title>
<path fill="none" stroke="midnightblue" d="M731.4,-224.41C745.11,-215.39 767.28,-200.76 786.34,-188 812.19,-170.7 841.81,-150.6 861.23,-137.39"/>
<polygon fill="midnightblue" stroke="midnightblue" points="863.34,-140.19 869.63,-131.66 859.4,-134.4 863.34,-140.19"/>
</g>
<!-- Node13&#45;&gt;Node11 -->
<g id="edge27" class="edge">
<title>Node13&#45;&gt;Node11</title>
<path fill="none" stroke="midnightblue" d="M782.7,-225.02C869.07,-214.15 1014.44,-195.21 1038.34,-188 1093.53,-171.35 1118.96,-176.72 1155.34,-132 1165.99,-118.91 1169.7,-99.76 1170.93,-85.64"/>
<polygon fill="midnightblue" stroke="midnightblue" points="1174.42,-85.77 1171.46,-75.6 1167.43,-85.4 1174.42,-85.77"/>
</g>
<!-- Node14 -->
<g id="node14" class="node">
<title>Node14</title>
<g id="a_node14"><a xlink:href="catch__test__registry_8h.html" target="_top" xlink:title=" ">
<polygon fill="white" stroke="black" points="659.84,-168.5 659.84,-187.5 776.84,-187.5 776.84,-168.5 659.84,-168.5"/>
<text text-anchor="middle" x="718.34" y="-175.5" font-family="Helvetica,sans-Serif" font-size="10.00">catch_test_registry.h</text>
</a>
</g>
</g>
<!-- Node13&#45;&gt;Node14 -->
<g id="edge14" class="edge">
<title>Node13&#45;&gt;Node14</title>
<path fill="none" stroke="midnightblue" d="M718.34,-224.08C718.34,-217.01 718.34,-206.86 718.34,-197.99"/>
<polygon fill="midnightblue" stroke="midnightblue" points="721.84,-197.75 718.34,-187.75 714.84,-197.75 721.84,-197.75"/>
</g>
<!-- Node13&#45;&gt;Node16 -->
<g id="edge28" class="edge">
<title>Node13&#45;&gt;Node16</title>
<path fill="none" stroke="midnightblue" d="M678.43,-224.48C590.28,-205.42 381.44,-158.92 314.34,-132 280.11,-118.27 243.59,-95.91 221.36,-81.33"/>
<polygon fill="midnightblue" stroke="midnightblue" points="223.02,-78.23 212.75,-75.6 219.14,-84.06 223.02,-78.23"/>
</g>
<!-- Node13&#45;&gt;Node23 -->
<g id="edge29" class="edge">
<title>Node13&#45;&gt;Node23</title>
<path fill="none" stroke="midnightblue" d="M658.69,-224.46C600.93,-215.99 510.94,-202.24 433.34,-188 432.07,-187.77 430.79,-187.53 429.49,-187.28"/>
<polygon fill="midnightblue" stroke="midnightblue" points="429.93,-183.8 419.44,-185.3 428.58,-190.67 429.93,-183.8"/>
</g>
<!-- Node14&#45;&gt;Node7 -->
<g id="edge15" class="edge">
<title>Node14&#45;&gt;Node7</title>
<path fill="none" stroke="midnightblue" d="M744.32,-168.44C772.03,-159.32 816.09,-144.81 846.95,-134.65"/>
<polygon fill="midnightblue" stroke="midnightblue" points="848.07,-137.97 856.47,-131.52 845.88,-131.32 848.07,-137.97"/>
</g>
<!-- Node14&#45;&gt;Node8 -->
<g id="edge18" class="edge">
<title>Node14&#45;&gt;Node8</title>
<path fill="none" stroke="midnightblue" d="M724.87,-168.45C731.31,-159.69 741.07,-145.48 747.34,-132 754.34,-116.95 759.69,-98.82 763.08,-85.53"/>
<polygon fill="midnightblue" stroke="midnightblue" points="766.51,-86.23 765.47,-75.69 759.71,-84.58 766.51,-86.23"/>
</g>
<!-- Node15 -->
<g id="node15" class="node">
<title>Node15</title>
<g id="a_node15"><a xlink:href="catch__interfaces__testcase_8h.html" target="_top" xlink:title=" ">
<polygon fill="white" stroke="black" points="323.34,-112.5 323.34,-131.5 475.34,-131.5 475.34,-112.5 323.34,-112.5"/>
<text text-anchor="middle" x="399.34" y="-119.5" font-family="Helvetica,sans-Serif" font-size="10.00">catch_interfaces_testcase.h</text>
</a>
</g>
</g>
<!-- Node14&#45;&gt;Node15 -->
<g id="edge16" class="edge">
<title>Node14&#45;&gt;Node15</title>
<path fill="none" stroke="midnightblue" d="M667.79,-168.44C611.33,-158.89 519.96,-143.42 459.77,-133.23"/>
<polygon fill="midnightblue" stroke="midnightblue" points="460.09,-129.73 449.65,-131.52 458.92,-136.64 460.09,-129.73"/>
</g>
<!-- Node17 -->
<g id="node17" class="node">
<title>Node17</title>
<g id="a_node17"><a xlink:href="catch__stringref_8h.html" target="_top" xlink:title=" ">
<polygon fill="white" stroke="black" points="1026.34,-112.5 1026.34,-131.5 1124.34,-131.5 1124.34,-112.5 1026.34,-112.5"/>
<text text-anchor="middle" x="1075.34" y="-119.5" font-family="Helvetica,sans-Serif" font-size="10.00">catch_stringref.h</text>
</a>
</g>
</g>
<!-- Node14&#45;&gt;Node17 -->
<g id="edge19" class="edge">
<title>Node14&#45;&gt;Node17</title>
<path fill="none" stroke="midnightblue" d="M774.91,-168.44C840.83,-158.47 949.25,-142.07 1016.24,-131.94"/>
<polygon fill="midnightblue" stroke="midnightblue" points="1016.85,-135.39 1026.21,-130.43 1015.8,-128.47 1016.85,-135.39"/>
</g>
<!-- Node20 -->
<g id="node20" class="node">
<title>Node20</title>
<g id="a_node20"><a xlink:href="catch__preprocessor_8hpp.html" target="_top" xlink:title=" ">
<polygon fill="white" stroke="black" points="493.84,-112.5 493.84,-131.5 624.84,-131.5 624.84,-112.5 493.84,-112.5"/>
<text text-anchor="middle" x="559.34" y="-119.5" font-family="Helvetica,sans-Serif" font-size="10.00">catch_preprocessor.hpp</text>
</a>
</g>
</g>
<!-- Node14&#45;&gt;Node20 -->
<g id="edge24" class="edge">
<title>Node14&#45;&gt;Node20</title>
<path fill="none" stroke="midnightblue" d="M693.14,-168.44C666.4,-159.36 623.94,-144.94 594.03,-134.78"/>
<polygon fill="midnightblue" stroke="midnightblue" points="595.01,-131.42 584.41,-131.52 592.76,-138.05 595.01,-131.42"/>
</g>
<!-- Node21 -->
<g id="node21" class="node">
<title>Node21</title>
<g id="a_node21"><a xlink:href="catch__meta_8hpp.html" target="_top" xlink:title=" ">
<polygon fill="white" stroke="black" points="642.84,-112.5 642.84,-131.5 737.84,-131.5 737.84,-112.5 642.84,-112.5"/>
<text text-anchor="middle" x="690.34" y="-119.5" font-family="Helvetica,sans-Serif" font-size="10.00">catch_meta.hpp</text>
</a>
</g>
</g>
<!-- Node14&#45;&gt;Node21 -->
<g id="edge25" class="edge">
<title>Node14&#45;&gt;Node21</title>
<path fill="none" stroke="midnightblue" d="M713.72,-168.08C709.88,-160.69 704.31,-149.95 699.57,-140.81"/>
<polygon fill="midnightblue" stroke="midnightblue" points="702.59,-139.02 694.88,-131.75 696.37,-142.24 702.59,-139.02"/>
</g>
<!-- Node15&#45;&gt;Node16 -->
<g id="edge17" class="edge">
<title>Node15&#45;&gt;Node16</title>
<path fill="none" stroke="midnightblue" d="M367.81,-112.44C331.24,-102.52 271.22,-86.23 233.84,-76.09"/>
<polygon fill="midnightblue" stroke="midnightblue" points="234.5,-72.64 223.93,-73.4 232.67,-79.4 234.5,-72.64"/>
</g>
<!-- Node17&#45;&gt;Node10 -->
<g id="edge22" class="edge">
<title>Node17&#45;&gt;Node10</title>
<path fill="none" stroke="midnightblue" d="M1057.12,-112.44C1038.44,-103.68 1009.18,-89.94 987.72,-79.86"/>
<polygon fill="midnightblue" stroke="midnightblue" points="989.01,-76.6 978.48,-75.52 986.04,-82.93 989.01,-76.6"/>
</g>
<!-- Node17&#45;&gt;Node11 -->
<g id="edge21" class="edge">
<title>Node17&#45;&gt;Node11</title>
<path fill="none" stroke="midnightblue" d="M1090.76,-112.32C1105.88,-103.82 1129.15,-90.73 1146.81,-80.8"/>
<polygon fill="midnightblue" stroke="midnightblue" points="1148.95,-83.61 1155.95,-75.65 1145.52,-77.51 1148.95,-83.61"/>
</g>
<!-- Node18 -->
<g id="node18" class="node">
<title>Node18</title>
<g id="a_node18"><a xlink:title=" ">
<polygon fill="white" stroke="#bfbfbf" points="1272.84,-56.5 1272.84,-75.5 1325.84,-75.5 1325.84,-56.5 1272.84,-56.5"/>
<text text-anchor="middle" x="1299.34" y="-63.5" font-family="Helvetica,sans-Serif" font-size="10.00">cstddef</text>
</a>
</g>
</g>
<!-- Node17&#45;&gt;Node18 -->
<g id="edge20" class="edge">
<title>Node17&#45;&gt;Node18</title>
<path fill="none" stroke="midnightblue" d="M1110.83,-112.44C1152.43,-102.42 1221,-85.89 1262.97,-75.77"/>
<polygon fill="midnightblue" stroke="midnightblue" points="1263.88,-79.15 1272.78,-73.4 1262.24,-72.34 1263.88,-79.15"/>
</g>
<!-- Node19 -->
<g id="node19" class="node">
<title>Node19</title>
<g id="a_node19"><a xlink:title=" ">
<polygon fill="white" stroke="#bfbfbf" points="1049.34,-56.5 1049.34,-75.5 1101.34,-75.5 1101.34,-56.5 1049.34,-56.5"/>
<text text-anchor="middle" x="1075.34" y="-63.5" font-family="Helvetica,sans-Serif" font-size="10.00">cassert</text>
</a>
</g>
</g>
<!-- Node17&#45;&gt;Node19 -->
<g id="edge23" class="edge">
<title>Node17&#45;&gt;Node19</title>
<path fill="none" stroke="midnightblue" d="M1075.34,-112.08C1075.34,-105.01 1075.34,-94.86 1075.34,-85.99"/>
<polygon fill="midnightblue" stroke="midnightblue" points="1078.84,-85.75 1075.34,-75.75 1071.84,-85.75 1078.84,-85.75"/>
</g>
<!-- Node22 -->
<g id="node22" class="node">
<title>Node22</title>
<g id="a_node22"><a xlink:title=" ">
<polygon fill="white" stroke="#bfbfbf" points="599.84,-56.5 599.84,-75.5 668.84,-75.5 668.84,-56.5 599.84,-56.5"/>
<text text-anchor="middle" x="634.34" y="-63.5" font-family="Helvetica,sans-Serif" font-size="10.00">type_traits</text>
</a>
</g>
</g>
<!-- Node21&#45;&gt;Node22 -->
<g id="edge26" class="edge">
<title>Node21&#45;&gt;Node22</title>
<path fill="none" stroke="midnightblue" d="M681.34,-112.32C673.14,-104.42 660.83,-92.55 650.87,-82.94"/>
<polygon fill="midnightblue" stroke="midnightblue" points="653.13,-80.26 643.5,-75.83 648.27,-85.29 653.13,-80.26"/>
</g>
<!-- Node24&#45;&gt;Node10 -->
<g id="edge36" class="edge">
<title>Node24&#45;&gt;Node10</title>
<path fill="none" stroke="midnightblue" d="M967.71,-168.37C966.42,-150.62 963.44,-109.67 961.69,-85.6"/>
<polygon fill="midnightblue" stroke="midnightblue" points="965.18,-85.31 960.96,-75.59 958.2,-85.82 965.18,-85.31"/>
</g>
<!-- Node24&#45;&gt;Node11 -->
<g id="edge35" class="edge">
<title>Node24&#45;&gt;Node11</title>
<path fill="none" stroke="midnightblue" d="M1029.01,-171.71C1062.57,-166.2 1103.41,-154.94 1133.34,-132 1148.87,-120.1 1159.23,-99.89 1165.15,-85.16"/>
<polygon fill="midnightblue" stroke="midnightblue" points="1168.5,-86.2 1168.7,-75.6 1161.94,-83.76 1168.5,-86.2"/>
</g>
<!-- Node24&#45;&gt;Node16 -->
<g id="edge37" class="edge">
<title>Node24&#45;&gt;Node16</title>
<path fill="none" stroke="midnightblue" d="M940.36,-168.42C885.31,-151.6 766.56,-115.58 747.34,-112 555.54,-76.29 320.65,-68.92 234.28,-67.4"/>
<polygon fill="midnightblue" stroke="midnightblue" points="234.08,-63.89 224.02,-67.23 233.97,-70.89 234.08,-63.89"/>
</g>
<!-- Node24&#45;&gt;Node17 -->
<g id="edge34" class="edge">
<title>Node24&#45;&gt;Node17</title>
<path fill="none" stroke="midnightblue" d="M985.53,-168.32C1002.69,-159.66 1029.28,-146.24 1049.09,-136.25"/>
<polygon fill="midnightblue" stroke="midnightblue" points="1050.84,-139.28 1058.19,-131.65 1047.69,-133.04 1050.84,-139.28"/>
</g>
<!-- Node25&#45;&gt;Node11 -->
<g id="edge39" class="edge">
<title>Node25&#45;&gt;Node11</title>
<path fill="none" stroke="midnightblue" d="M1194.44,-280.39C1212.94,-272.78 1231.53,-261.27 1242.34,-244 1273.47,-194.27 1270.62,-163.4 1242.34,-112 1233.86,-96.58 1217.61,-85.7 1202.8,-78.51"/>
<polygon fill="midnightblue" stroke="midnightblue" points="1203.93,-75.18 1193.37,-74.3 1201.08,-81.57 1203.93,-75.18"/>
</g>
<!-- Node26&#45;&gt;Node2 -->
<g id="edge42" class="edge">
<title>Node26&#45;&gt;Node2</title>
<path fill="none" stroke="midnightblue" d="M242.49,-224.44C207.94,-215.16 152.66,-200.31 114.76,-190.13"/>
<polygon fill="midnightblue" stroke="midnightblue" points="115.6,-186.73 105.04,-187.52 113.79,-193.49 115.6,-186.73"/>
</g>
<!-- Node26&#45;&gt;Node7 -->
<g id="edge41" class="edge">
<title>Node26&#45;&gt;Node7</title>
<path fill="none" stroke="midnightblue" d="M281.44,-224.34C293.99,-209.74 321.68,-180.59 352.34,-168 373.78,-159.2 687.57,-136.52 821.97,-127.15"/>
<polygon fill="midnightblue" stroke="midnightblue" points="822.37,-130.63 832.1,-126.45 821.88,-123.65 822.37,-130.63"/>
</g>
<!-- Node26&#45;&gt;Node10 -->
<g id="edge44" class="edge">
<title>Node26&#45;&gt;Node10</title>
<path fill="none" stroke="midnightblue" d="M271.52,-224.46C264.82,-202.31 250.66,-142.62 281.34,-112 332.06,-61.37 854.52,-86.98 925.34,-76 925.56,-75.97 925.77,-75.93 925.99,-75.9"/>
<polygon fill="midnightblue" stroke="midnightblue" points="926.86,-79.29 935.99,-73.91 925.5,-72.43 926.86,-79.29"/>
</g>
<!-- Node26&#45;&gt;Node11 -->
<g id="edge45" class="edge">
<title>Node26&#45;&gt;Node11</title>
<path fill="none" stroke="midnightblue" d="M275.89,-224.4C280.62,-199.16 295.73,-126.1 314.34,-112 384.91,-58.54 1022.21,-84.47 1110.34,-76 1119.71,-75.1 1129.83,-73.76 1139.1,-72.38"/>
<polygon fill="midnightblue" stroke="midnightblue" points="1139.75,-75.82 1149.1,-70.83 1138.68,-68.9 1139.75,-75.82"/>
</g>
<!-- Node26&#45;&gt;Node16 -->
<g id="edge46" class="edge">
<title>Node26&#45;&gt;Node16</title>
<path fill="none" stroke="midnightblue" d="M266.08,-224.43C250.88,-208.06 218.8,-170.49 205.34,-132 200.14,-117.13 199.11,-99.21 199.26,-85.95"/>
<polygon fill="midnightblue" stroke="midnightblue" points="202.77,-85.82 199.62,-75.7 195.77,-85.57 202.77,-85.82"/>
</g>
<!-- Node26&#45;&gt;Node23 -->
<g id="edge47" class="edge">
<title>Node26&#45;&gt;Node23</title>
<path fill="none" stroke="midnightblue" d="M292.72,-224.44C311.56,-215.68 341.07,-201.94 362.72,-191.86"/>
<polygon fill="midnightblue" stroke="midnightblue" points="364.46,-194.91 372.04,-187.52 361.5,-188.56 364.46,-194.91"/>
</g>
<!-- Node27 -->
<g id="node27" class="node">
<title>Node27</title>
<g id="a_node27"><a xlink:title=" ">
<polygon fill="white" stroke="#bfbfbf" points="141.34,-168.5 141.34,-187.5 191.34,-187.5 191.34,-168.5 141.34,-168.5"/>
<text text-anchor="middle" x="166.34" y="-175.5" font-family="Helvetica,sans-Serif" font-size="10.00">chrono</text>
</a>
</g>
</g>
<!-- Node26&#45;&gt;Node27 -->
<g id="edge43" class="edge">
<title>Node26&#45;&gt;Node27</title>
<path fill="none" stroke="midnightblue" d="M256.99,-224.32C239.67,-215.66 212.82,-202.24 192.84,-192.25"/>
<polygon fill="midnightblue" stroke="midnightblue" points="194.16,-189 183.65,-187.65 191.03,-195.26 194.16,-189"/>
</g>
<!-- Node28&#45;&gt;Node7 -->
<g id="edge49" class="edge">
<title>Node28&#45;&gt;Node7</title>
<path fill="none" stroke="midnightblue" d="M1332.12,-171.97C1242.03,-162.16 1042.97,-140.49 942.64,-129.56"/>
<polygon fill="midnightblue" stroke="midnightblue" points="942.98,-126.08 932.66,-128.48 942.22,-133.04 942.98,-126.08"/>
</g>
<!-- Node28&#45;&gt;Node10 -->
<g id="edge50" class="edge">
<title>Node28&#45;&gt;Node10</title>
<path fill="none" stroke="midnightblue" d="M1332.31,-175.31C1247.65,-171.54 1070.98,-160.44 1017.34,-132 996.69,-121.06 980.08,-99.38 970.23,-84.08"/>
<polygon fill="midnightblue" stroke="midnightblue" points="973.2,-82.23 964.99,-75.52 967.23,-85.88 973.2,-82.23"/>
</g>
<!-- Node28&#45;&gt;Node18 -->
<g id="edge51" class="edge">
<title>Node28&#45;&gt;Node18</title>
<path fill="none" stroke="midnightblue" d="M1372.14,-168.37C1359.1,-150.22 1328.64,-107.8 1311.54,-83.99"/>
<polygon fill="midnightblue" stroke="midnightblue" points="1314.19,-81.67 1305.51,-75.59 1308.5,-85.76 1314.19,-81.67"/>
</g>
<!-- Node29 -->
<g id="node29" class="node">
<title>Node29</title>
<g id="a_node29"><a xlink:title=" ">
<polygon fill="white" stroke="#bfbfbf" points="1370.84,-112.5 1370.84,-131.5 1427.84,-131.5 1427.84,-112.5 1370.84,-112.5"/>
<text text-anchor="middle" x="1399.34" y="-119.5" font-family="Helvetica,sans-Serif" font-size="10.00">ostream</text>
</a>
</g>
</g>
<!-- Node28&#45;&gt;Node29 -->
<g id="edge52" class="edge">
<title>Node28&#45;&gt;Node29</title>
<path fill="none" stroke="midnightblue" d="M1381.81,-168.08C1384.65,-160.77 1388.77,-150.18 1392.3,-141.1"/>
<polygon fill="midnightblue" stroke="midnightblue" points="1395.57,-142.34 1395.94,-131.75 1389.05,-139.8 1395.57,-142.34"/>
</g>
</g>
</svg>
