<?xml version="1.0" encoding="UTF-8" standalone="no"?>
<!DOCTYPE svg PUBLIC "-//W3C//DTD SVG 1.1//EN"
 "http://www.w3.org/Graphics/SVG/1.1/DTD/svg11.dtd">
<!-- Generated by graphviz version 2.43.0 (0)
 -->
<!-- Title: language/lib/Catch2/include/internal/benchmark/detail/catch_timing.hpp Pages: 1 -->
<!--zoomable 451 -->
<svg id="main" version="1.1" xmlns="http://www.w3.org/2000/svg" xmlns:xlink="http://www.w3.org/1999/xlink" xml:space="preserve" onload="init(evt)">
<style type="text/css"><![CDATA[
.edge:hover path { stroke: red; }
.edge:hover polygon { stroke: red; fill: red; }
]]></style>
<script type="text/javascript"><![CDATA[
var edges = document.getElementsByTagName('g');
if (edges && edges.length) {
  for (var i=0;i<edges.length;i++) {
    if (edges[i].id.substr(0,4)=='edge') {
      edges[i].setAttribute('class','edge');
    }
  }
}
]]></script>
        <defs>
                <circle id="rim" cx="0" cy="0" r="7"/>
                <circle id="rim2" cx="0" cy="0" r="3.5"/>
                <g id="zoomPlus">
                        <use xlink:href="#rim" fill="#404040">
                                <set attributeName="fill" to="#808080" begin="zoomplus.mouseover" end="zoomplus.mouseout"/>
                        </use>
                        <path d="M-4,0h8M0,-4v8" fill="none" stroke="white" stroke-width="1.5" pointer-events="none"/>
                </g>
                <g id="zoomMin">
                        <use xlink:href="#rim" fill="#404040">
                                <set attributeName="fill" to="#808080" begin="zoomminus.mouseover" end="zoomminus.mouseout"/>
                        </use>
                        <path d="M-4,0h8" fill="none" stroke="white" stroke-width="1.5" pointer-events="none"/>
                </g>
                <g id="dirArrow">
                        <path fill="none" stroke="white" stroke-width="1.5" d="M0,-3.0v7 M-2.5,-0.5L0,-3.0L2.5,-0.5"/>
                </g>
               <g id="resetDef">
                       <use xlink:href="#rim2" fill="#404040">
                               <set attributeName="fill" to="#808080" begin="reset.mouseover" end="reset.mouseout"/>
                       </use>
               </g>
        </defs>

<script type="text/javascript">
var viewWidth = 498;
var viewHeight = 451;
var sectionId = 'dynsection-1';
</script>
<script xlink:href="svgpan.js"/>
<svg id="graph" class="graph">
<g id="viewport">
<title>language/lib/Catch2/include/internal/benchmark/detail/catch_timing.hpp</title>
<polygon fill="white" stroke="transparent" points="-4,4 -4,-447 493.5,-447 493.5,4 -4,4"/>
<!-- Node1 -->
<g id="node1" class="node">
<title>Node1</title>
<g id="a_node1"><a xlink:title=" ">
<polygon fill="#bfbfbf" stroke="black" points="77.5,-401.5 77.5,-442.5 230.5,-442.5 230.5,-401.5 77.5,-401.5"/>
<text text-anchor="start" x="85.5" y="-430.5" font-family="Helvetica,sans-Serif" font-size="10.00">language/lib/Catch2</text>
<text text-anchor="start" x="85.5" y="-419.5" font-family="Helvetica,sans-Serif" font-size="10.00">/include/internal/benchmark</text>
<text text-anchor="middle" x="154" y="-408.5" font-family="Helvetica,sans-Serif" font-size="10.00">/detail/catch_timing.hpp</text>
</a>
</g>
</g>
<!-- Node2 -->
<g id="node2" class="node">
<title>Node2</title>
<g id="a_node2"><a xlink:href="catch__measure_8hpp.html" target="_top" xlink:title=" ">
<polygon fill="white" stroke="black" points="77.5,-323.5 77.5,-364.5 230.5,-364.5 230.5,-323.5 77.5,-323.5"/>
<text text-anchor="start" x="85.5" y="-352.5" font-family="Helvetica,sans-Serif" font-size="10.00">language/lib/Catch2</text>
<text text-anchor="start" x="85.5" y="-341.5" font-family="Helvetica,sans-Serif" font-size="10.00">/include/internal/benchmark</text>
<text text-anchor="middle" x="154" y="-330.5" font-family="Helvetica,sans-Serif" font-size="10.00">/detail/catch_measure.hpp</text>
</a>
</g>
</g>
<!-- Node1&#45;&gt;Node2 -->
<g id="edge1" class="edge">
<title>Node1&#45;&gt;Node2</title>
<path fill="none" stroke="midnightblue" d="M154,-391.3C154,-382.3 154,-372.65 154,-364.51"/>
<polygon fill="midnightblue" stroke="midnightblue" points="150.5,-391.43 154,-401.43 157.5,-391.43 150.5,-391.43"/>
</g>
<!-- Node3 -->
<g id="node3" class="node">
<title>Node3</title>
<g id="a_node3"><a xlink:href="catch__run__for__at__least_8hpp.html" target="_top" xlink:title=" ">
<polygon fill="white" stroke="black" points="190.5,-234.5 190.5,-286.5 343.5,-286.5 343.5,-234.5 190.5,-234.5"/>
<text text-anchor="start" x="198.5" y="-274.5" font-family="Helvetica,sans-Serif" font-size="10.00">language/lib/Catch2</text>
<text text-anchor="start" x="198.5" y="-263.5" font-family="Helvetica,sans-Serif" font-size="10.00">/include/internal/benchmark</text>
<text text-anchor="start" x="198.5" y="-252.5" font-family="Helvetica,sans-Serif" font-size="10.00">/detail/catch_run_for_at</text>
<text text-anchor="middle" x="267" y="-241.5" font-family="Helvetica,sans-Serif" font-size="10.00">_least.hpp</text>
</a>
</g>
</g>
<!-- Node1&#45;&gt;Node3 -->
<g id="edge14" class="edge">
<title>Node1&#45;&gt;Node3</title>
<path fill="none" stroke="midnightblue" d="M204.83,-396.04C217.54,-387.7 230.08,-377.33 239,-365 255.8,-341.77 262.52,-309.04 265.21,-286.64"/>
<polygon fill="midnightblue" stroke="midnightblue" points="202.7,-393.24 196.04,-401.48 206.39,-399.19 202.7,-393.24"/>
</g>
<!-- Node6 -->
<g id="node6" class="node">
<title>Node6</title>
<g id="a_node6"><a xlink:href="catch__benchmarking__all_8hpp.html" target="_top" xlink:title=" ">
<polygon fill="white" stroke="black" points="103.5,-0.5 103.5,-41.5 262.5,-41.5 262.5,-0.5 103.5,-0.5"/>
<text text-anchor="start" x="111.5" y="-29.5" font-family="Helvetica,sans-Serif" font-size="10.00">language/lib/Catch2</text>
<text text-anchor="start" x="111.5" y="-18.5" font-family="Helvetica,sans-Serif" font-size="10.00">/include/internal/benchmark</text>
<text text-anchor="middle" x="183" y="-7.5" font-family="Helvetica,sans-Serif" font-size="10.00">/catch_benchmarking_all.hpp</text>
</a>
</g>
</g>
<!-- Node1&#45;&gt;Node6 -->
<g id="edge15" class="edge">
<title>Node1&#45;&gt;Node6</title>
<path fill="none" stroke="midnightblue" d="M105.14,-396.44C60.04,-369.9 0,-323.03 0,-261.5 0,-261.5 0,-261.5 0,-176 0,-108.52 73.74,-64.66 127.6,-41.62"/>
<polygon fill="midnightblue" stroke="midnightblue" points="103.52,-399.54 113.94,-401.47 107,-393.47 103.52,-399.54"/>
</g>
<!-- Node2&#45;&gt;Node3 -->
<g id="edge2" class="edge">
<title>Node2&#45;&gt;Node3</title>
<path fill="none" stroke="midnightblue" d="M189.26,-317.57C202.88,-307.74 218.43,-296.53 232.02,-286.73"/>
<polygon fill="midnightblue" stroke="midnightblue" points="187.13,-314.79 181.07,-323.48 191.22,-320.47 187.13,-314.79"/>
</g>
<!-- Node2&#45;&gt;Node6 -->
<g id="edge13" class="edge">
<title>Node2&#45;&gt;Node6</title>
<path fill="none" stroke="midnightblue" d="M123.38,-316.32C86.51,-280.78 32.31,-215.44 56,-156 75.76,-106.43 123.54,-64.65 154.53,-41.51"/>
<polygon fill="midnightblue" stroke="midnightblue" points="121.27,-319.14 130.95,-323.44 126.06,-314.04 121.27,-319.14"/>
</g>
<!-- Node7 -->
<g id="node7" class="node">
<title>Node7</title>
<g id="a_node7"><a xlink:href="catch__estimate__clock_8hpp.html" target="_top" xlink:title=" ">
<polygon fill="white" stroke="black" points="65.5,-156.5 65.5,-197.5 242.5,-197.5 242.5,-156.5 65.5,-156.5"/>
<text text-anchor="start" x="73.5" y="-185.5" font-family="Helvetica,sans-Serif" font-size="10.00">language/lib/Catch2</text>
<text text-anchor="start" x="73.5" y="-174.5" font-family="Helvetica,sans-Serif" font-size="10.00">/include/internal/benchmark</text>
<text text-anchor="middle" x="154" y="-163.5" font-family="Helvetica,sans-Serif" font-size="10.00">/detail/catch_estimate_clock.hpp</text>
</a>
</g>
</g>
<!-- Node2&#45;&gt;Node7 -->
<g id="edge12" class="edge">
<title>Node2&#45;&gt;Node7</title>
<path fill="none" stroke="midnightblue" d="M154,-313.3C154,-279.78 154,-226.19 154,-197.55"/>
<polygon fill="midnightblue" stroke="midnightblue" points="150.5,-313.42 154,-323.42 157.5,-313.42 150.5,-313.42"/>
</g>
<!-- Node4 -->
<g id="node4" class="node">
<title>Node4</title>
<g id="a_node4"><a xlink:href="catch__execution__plan_8hpp.html" target="_top" xlink:title=" ">
<polygon fill="white" stroke="black" points="336.5,-156.5 336.5,-197.5 489.5,-197.5 489.5,-156.5 336.5,-156.5"/>
<text text-anchor="start" x="344.5" y="-185.5" font-family="Helvetica,sans-Serif" font-size="10.00">language/lib/Catch2</text>
<text text-anchor="start" x="344.5" y="-174.5" font-family="Helvetica,sans-Serif" font-size="10.00">/include/internal/benchmark</text>
<text text-anchor="middle" x="413" y="-163.5" font-family="Helvetica,sans-Serif" font-size="10.00">/catch_execution_plan.hpp</text>
</a>
</g>
</g>
<!-- Node3&#45;&gt;Node4 -->
<g id="edge3" class="edge">
<title>Node3&#45;&gt;Node4</title>
<path fill="none" stroke="midnightblue" d="M320.84,-229.45C339.8,-218.86 360.61,-207.25 377.65,-197.73"/>
<polygon fill="midnightblue" stroke="midnightblue" points="319.02,-226.45 312,-234.38 322.43,-232.56 319.02,-226.45"/>
</g>
<!-- Node5 -->
<g id="node5" class="node">
<title>Node5</title>
<g id="a_node5"><a xlink:href="catch__benchmark_8hpp.html" target="_top" xlink:title=" ">
<polygon fill="white" stroke="black" points="231.5,-78.5 231.5,-119.5 384.5,-119.5 384.5,-78.5 231.5,-78.5"/>
<text text-anchor="start" x="239.5" y="-107.5" font-family="Helvetica,sans-Serif" font-size="10.00">language/lib/Catch2</text>
<text text-anchor="start" x="239.5" y="-96.5" font-family="Helvetica,sans-Serif" font-size="10.00">/include/internal/benchmark</text>
<text text-anchor="middle" x="308" y="-85.5" font-family="Helvetica,sans-Serif" font-size="10.00">/catch_benchmark.hpp</text>
</a>
</g>
</g>
<!-- Node3&#45;&gt;Node5 -->
<g id="edge10" class="edge">
<title>Node3&#45;&gt;Node5</title>
<path fill="none" stroke="midnightblue" d="M276.84,-224.59C279.24,-215.91 281.75,-206.63 284,-198 291.07,-170.88 298.68,-139.38 303.39,-119.57"/>
<polygon fill="midnightblue" stroke="midnightblue" points="273.42,-223.84 274.12,-234.41 280.16,-225.71 273.42,-223.84"/>
</g>
<!-- Node3&#45;&gt;Node6 -->
<g id="edge11" class="edge">
<title>Node3&#45;&gt;Node6</title>
<path fill="none" stroke="midnightblue" d="M266.07,-224C264.44,-203.4 260.44,-177.39 251,-156 242.7,-137.2 232.36,-137.74 222,-120 207.04,-94.38 195.4,-61.94 188.86,-41.57"/>
<polygon fill="midnightblue" stroke="midnightblue" points="262.59,-224.47 266.73,-234.22 269.58,-224.02 262.59,-224.47"/>
</g>
<!-- Node3&#45;&gt;Node7 -->
<g id="edge7" class="edge">
<title>Node3&#45;&gt;Node7</title>
<path fill="none" stroke="midnightblue" d="M223.93,-228.44C209.64,-218.13 194.13,-206.95 181.36,-197.73"/>
<polygon fill="midnightblue" stroke="midnightblue" points="222.02,-231.37 232.17,-234.38 226.11,-225.69 222.02,-231.37"/>
</g>
<!-- Node4&#45;&gt;Node5 -->
<g id="edge4" class="edge">
<title>Node4&#45;&gt;Node5</title>
<path fill="none" stroke="midnightblue" d="M377.56,-150.35C363.64,-140.27 347.92,-128.89 334.95,-119.51"/>
<polygon fill="midnightblue" stroke="midnightblue" points="375.81,-153.4 385.96,-156.43 379.91,-147.73 375.81,-153.4"/>
</g>
<!-- Node4&#45;&gt;Node6 -->
<g id="edge6" class="edge">
<title>Node4&#45;&gt;Node6</title>
<path fill="none" stroke="midnightblue" d="M415.05,-146.1C414.86,-124.51 410.9,-96.09 394,-78 375.89,-58.61 314.48,-43.68 262.55,-34.13"/>
<polygon fill="midnightblue" stroke="midnightblue" points="411.55,-146.31 414.87,-156.37 418.55,-146.43 411.55,-146.31"/>
</g>
<!-- Node5&#45;&gt;Node6 -->
<g id="edge5" class="edge">
<title>Node5&#45;&gt;Node6</title>
<path fill="none" stroke="midnightblue" d="M267.22,-73.2C250.3,-62.92 230.96,-51.16 215.08,-41.51"/>
<polygon fill="midnightblue" stroke="midnightblue" points="265.45,-76.22 275.81,-78.43 269.08,-70.24 265.45,-76.22"/>
</g>
<!-- Node7&#45;&gt;Node5 -->
<g id="edge8" class="edge">
<title>Node7&#45;&gt;Node5</title>
<path fill="none" stroke="midnightblue" d="M202.82,-151.91C223.99,-141.46 248.47,-129.38 268.48,-119.51"/>
<polygon fill="midnightblue" stroke="midnightblue" points="201.08,-148.86 193.66,-156.43 204.18,-155.14 201.08,-148.86"/>
</g>
<!-- Node7&#45;&gt;Node6 -->
<g id="edge9" class="edge">
<title>Node7&#45;&gt;Node6</title>
<path fill="none" stroke="midnightblue" d="M159.58,-146.36C165.37,-115.61 174.27,-68.36 179.27,-41.83"/>
<polygon fill="midnightblue" stroke="midnightblue" points="156.08,-146.02 157.67,-156.5 162.96,-147.32 156.08,-146.02"/>
</g>
</g>
</svg>
        <g id="navigator" transform="translate(0 0)" fill="#404254">
                <rect fill="#f2f5e9" fill-opacity="0.5" stroke="#606060" stroke-width=".5" x="0" y="0" width="60" height="60"/>
                <use id="zoomplus" xlink:href="#zoomPlus" x="17" y="9" onmousedown="handleZoom(evt,'in')"/>
                <use id="zoomminus" xlink:href="#zoomMin" x="42" y="9" onmousedown="handleZoom(evt,'out')"/>
                <use id="reset" xlink:href="#resetDef" x="30" y="36" onmousedown="handleReset()"/>
                <g id="arrowUp" xlink:href="#dirArrow" transform="translate(30 24)" onmousedown="handlePan(0,-1)">
                  <use xlink:href="#rim" fill="#404040">
                        <set attributeName="fill" to="#808080" begin="arrowUp.mouseover" end="arrowUp.mouseout"/>
                  </use>
                  <path fill="none" stroke="white" stroke-width="1.5" d="M0,-3.0v7 M-2.5,-0.5L0,-3.0L2.5,-0.5"/>
                </g>
                <g id="arrowRight" xlink:href="#dirArrow" transform="rotate(90) translate(36 -43)" onmousedown="handlePan(1,0)">
                  <use xlink:href="#rim" fill="#404040">
                        <set attributeName="fill" to="#808080" begin="arrowRight.mouseover" end="arrowRight.mouseout"/>
                  </use>
                  <path fill="none" stroke="white" stroke-width="1.5" d="M0,-3.0v7 M-2.5,-0.5L0,-3.0L2.5,-0.5"/>
                </g>
                <g id="arrowDown" xlink:href="#dirArrow" transform="rotate(180) translate(-30 -48)" onmousedown="handlePan(0,1)">
                  <use xlink:href="#rim" fill="#404040">
                        <set attributeName="fill" to="#808080" begin="arrowDown.mouseover" end="arrowDown.mouseout"/>
                  </use>
                  <path fill="none" stroke="white" stroke-width="1.5" d="M0,-3.0v7 M-2.5,-0.5L0,-3.0L2.5,-0.5"/>
                </g>
                <g id="arrowLeft" xlink:href="#dirArrow" transform="rotate(270) translate(-36 17)" onmousedown="handlePan(-1,0)">
                  <use xlink:href="#rim" fill="#404040">
                        <set attributeName="fill" to="#808080" begin="arrowLeft.mouseover" end="arrowLeft.mouseout"/>
                  </use>
                  <path fill="none" stroke="white" stroke-width="1.5" d="M0,-3.0v7 M-2.5,-0.5L0,-3.0L2.5,-0.5"/>
                </g>
        </g>
        <svg viewBox="0 0 15 15" width="100%" height="30px" preserveAspectRatio="xMaxYMin meet">
         <g id="arrow_out" transform="scale(0.3 0.3)">
          <a xlink:href="catch__timing_8hpp__dep__incl_org.svg" target="_base">
           <rect id="button" ry="5" rx="5" y="6" x="6" height="38" width="38"
                fill="#f2f5e9" fill-opacity="0.5" stroke="#606060" stroke-width="1.0"/>
           <path id="arrow"
             d="M 11.500037,31.436501 C 11.940474,20.09759 22.043105,11.32322 32.158766,21.979434 L 37.068811,17.246167 C 37.068811,17.246167 37.088388,32 37.088388,32 L 22.160133,31.978069 C 22.160133,31.978069 26.997745,27.140456 26.997745,27.140456 C 18.528582,18.264221 13.291696,25.230495 11.500037,31.436501 z"
             style="fill:#404040;"/>
          </a>
         </g>
        </svg>
</svg>
