<?xml version="1.0" encoding="UTF-8" standalone="no"?>
<!DOCTYPE svg PUBLIC "-//W3C//DTD SVG 1.1//EN"
 "http://www.w3.org/Graphics/SVG/1.1/DTD/svg11.dtd">
<!-- Generated by graphviz version 2.43.0 (0)
 -->
<!-- Title: language/lib/Catch2/include/internal/catch_reporter_registrars.hpp Pages: 1 -->
<svg width="430pt" height="285pt"
 viewBox="0.00 0.00 429.50 285.00" xmlns="http://www.w3.org/2000/svg" xmlns:xlink="http://www.w3.org/1999/xlink">
<g id="graph0" class="graph" transform="scale(1 1) rotate(0) translate(4 281)">
<title>language/lib/Catch2/include/internal/catch_reporter_registrars.hpp</title>
<polygon fill="white" stroke="transparent" points="-4,4 -4,-281 425.5,-281 425.5,4 -4,4"/>
<!-- Node1 -->
<g id="node1" class="node">
<title>Node1</title>
<g id="a_node1"><a xlink:title=" ">
<polygon fill="#bfbfbf" stroke="black" points="268.5,-235.5 268.5,-276.5 402.5,-276.5 402.5,-235.5 268.5,-235.5"/>
<text text-anchor="start" x="276.5" y="-264.5" font-family="Helvetica,sans-Serif" font-size="10.00">language/lib/Catch2</text>
<text text-anchor="start" x="276.5" y="-253.5" font-family="Helvetica,sans-Serif" font-size="10.00">/include/internal/catch</text>
<text text-anchor="middle" x="335.5" y="-242.5" font-family="Helvetica,sans-Serif" font-size="10.00">_reporter_registrars.hpp</text>
</a>
</g>
</g>
<!-- Node2 -->
<g id="node2" class="node">
<title>Node2</title>
<g id="a_node2"><a xlink:href="catch__interfaces__registry__hub_8h.html" target="_top" xlink:title=" ">
<polygon fill="white" stroke="black" points="265.5,-168.5 265.5,-198.5 405.5,-198.5 405.5,-168.5 265.5,-168.5"/>
<text text-anchor="start" x="273.5" y="-186.5" font-family="Helvetica,sans-Serif" font-size="10.00">catch_interfaces_registry</text>
<text text-anchor="middle" x="335.5" y="-175.5" font-family="Helvetica,sans-Serif" font-size="10.00">_hub.h</text>
</a>
</g>
</g>
<!-- Node1&#45;&gt;Node2 -->
<g id="edge1" class="edge">
<title>Node1&#45;&gt;Node2</title>
<path fill="none" stroke="midnightblue" d="M335.5,-235.36C335.5,-227.23 335.5,-217.7 335.5,-209.11"/>
<polygon fill="midnightblue" stroke="midnightblue" points="339,-208.89 335.5,-198.89 332,-208.89 339,-208.89"/>
</g>
<!-- Node3 -->
<g id="node3" class="node">
<title>Node3</title>
<g id="a_node3"><a xlink:href="catch__common_8h.html" target="_top" xlink:title=" ">
<polygon fill="white" stroke="black" points="207.5,-112.5 207.5,-131.5 307.5,-131.5 307.5,-112.5 207.5,-112.5"/>
<text text-anchor="middle" x="257.5" y="-119.5" font-family="Helvetica,sans-Serif" font-size="10.00">catch_common.h</text>
</a>
</g>
</g>
<!-- Node2&#45;&gt;Node3 -->
<g id="edge2" class="edge">
<title>Node2&#45;&gt;Node3</title>
<path fill="none" stroke="midnightblue" d="M317.02,-168.4C304.98,-159.22 289.3,-147.26 277.06,-137.92"/>
<polygon fill="midnightblue" stroke="midnightblue" points="278.92,-134.94 268.85,-131.66 274.68,-140.51 278.92,-134.94"/>
</g>
<!-- Node7 -->
<g id="node7" class="node">
<title>Node7</title>
<g id="a_node7"><a xlink:title=" ">
<polygon fill="white" stroke="#bfbfbf" points="313.5,-56.5 313.5,-75.5 357.5,-75.5 357.5,-56.5 313.5,-56.5"/>
<text text-anchor="middle" x="335.5" y="-63.5" font-family="Helvetica,sans-Serif" font-size="10.00">string</text>
</a>
</g>
</g>
<!-- Node2&#45;&gt;Node7 -->
<g id="edge8" class="edge">
<title>Node2&#45;&gt;Node7</title>
<path fill="none" stroke="midnightblue" d="M335.5,-168.34C335.5,-147.62 335.5,-109.02 335.5,-85.9"/>
<polygon fill="midnightblue" stroke="midnightblue" points="339,-85.67 335.5,-75.67 332,-85.67 339,-85.67"/>
</g>
<!-- Node9 -->
<g id="node9" class="node">
<title>Node9</title>
<g id="a_node9"><a xlink:title=" ">
<polygon fill="white" stroke="#bfbfbf" points="363.5,-112.5 363.5,-131.5 421.5,-131.5 421.5,-112.5 363.5,-112.5"/>
<text text-anchor="middle" x="392.5" y="-119.5" font-family="Helvetica,sans-Serif" font-size="10.00">memory</text>
</a>
</g>
</g>
<!-- Node2&#45;&gt;Node9 -->
<g id="edge9" class="edge">
<title>Node2&#45;&gt;Node9</title>
<path fill="none" stroke="midnightblue" d="M349.01,-168.4C357.46,-159.58 368.38,-148.18 377.16,-139.02"/>
<polygon fill="midnightblue" stroke="midnightblue" points="379.82,-141.3 384.21,-131.66 374.76,-136.46 379.82,-141.3"/>
</g>
<!-- Node4 -->
<g id="node4" class="node">
<title>Node4</title>
<g id="a_node4"><a xlink:href="catch__compiler__capabilities_8h.html" target="_top" xlink:title=" ">
<polygon fill="white" stroke="black" points="0,-56.5 0,-75.5 161,-75.5 161,-56.5 0,-56.5"/>
<text text-anchor="middle" x="80.5" y="-63.5" font-family="Helvetica,sans-Serif" font-size="10.00">catch_compiler_capabilities.h</text>
</a>
</g>
</g>
<!-- Node3&#45;&gt;Node4 -->
<g id="edge3" class="edge">
<title>Node3&#45;&gt;Node4</title>
<path fill="none" stroke="midnightblue" d="M229.45,-112.44C199.42,-103.28 151.59,-88.69 118.26,-78.52"/>
<polygon fill="midnightblue" stroke="midnightblue" points="119,-75.09 108.41,-75.52 116.96,-81.78 119,-75.09"/>
</g>
<!-- Node6 -->
<g id="node6" class="node">
<title>Node6</title>
<g id="a_node6"><a xlink:title=" ">
<polygon fill="white" stroke="#bfbfbf" points="179.5,-56.5 179.5,-75.5 227.5,-75.5 227.5,-56.5 179.5,-56.5"/>
<text text-anchor="middle" x="203.5" y="-63.5" font-family="Helvetica,sans-Serif" font-size="10.00">iosfwd</text>
</a>
</g>
</g>
<!-- Node3&#45;&gt;Node6 -->
<g id="edge5" class="edge">
<title>Node3&#45;&gt;Node6</title>
<path fill="none" stroke="midnightblue" d="M248.58,-112.08C240.72,-104.22 229.07,-92.57 219.58,-83.08"/>
<polygon fill="midnightblue" stroke="midnightblue" points="221.8,-80.35 212.25,-75.75 216.85,-85.3 221.8,-80.35"/>
</g>
<!-- Node3&#45;&gt;Node7 -->
<g id="edge6" class="edge">
<title>Node3&#45;&gt;Node7</title>
<path fill="none" stroke="midnightblue" d="M270.03,-112.32C282.09,-103.98 300.53,-91.21 314.77,-81.35"/>
<polygon fill="midnightblue" stroke="midnightblue" points="316.77,-84.22 323,-75.65 312.78,-78.47 316.77,-84.22"/>
</g>
<!-- Node8 -->
<g id="node8" class="node">
<title>Node8</title>
<g id="a_node8"><a xlink:title=" ">
<polygon fill="white" stroke="#bfbfbf" points="245.5,-56.5 245.5,-75.5 295.5,-75.5 295.5,-56.5 245.5,-56.5"/>
<text text-anchor="middle" x="270.5" y="-63.5" font-family="Helvetica,sans-Serif" font-size="10.00">cstdint</text>
</a>
</g>
</g>
<!-- Node3&#45;&gt;Node8 -->
<g id="edge7" class="edge">
<title>Node3&#45;&gt;Node8</title>
<path fill="none" stroke="midnightblue" d="M259.65,-112.08C261.37,-104.93 263.85,-94.64 266,-85.69"/>
<polygon fill="midnightblue" stroke="midnightblue" points="269.46,-86.29 268.39,-75.75 262.65,-84.65 269.46,-86.29"/>
</g>
<!-- Node5 -->
<g id="node5" class="node">
<title>Node5</title>
<g id="a_node5"><a xlink:href="catch__platform_8h.html" target="_top" xlink:title=" ">
<polygon fill="white" stroke="black" points="31,-0.5 31,-19.5 130,-19.5 130,-0.5 31,-0.5"/>
<text text-anchor="middle" x="80.5" y="-7.5" font-family="Helvetica,sans-Serif" font-size="10.00">catch_platform.h</text>
</a>
</g>
</g>
<!-- Node4&#45;&gt;Node5 -->
<g id="edge4" class="edge">
<title>Node4&#45;&gt;Node5</title>
<path fill="none" stroke="midnightblue" d="M80.5,-56.08C80.5,-49.01 80.5,-38.86 80.5,-29.99"/>
<polygon fill="midnightblue" stroke="midnightblue" points="84,-29.75 80.5,-19.75 77,-29.75 84,-29.75"/>
</g>
</g>
</svg>
