<?xml version="1.0" encoding="UTF-8" standalone="no"?>
<!DOCTYPE svg PUBLIC "-//W3C//DTD SVG 1.1//EN"
 "http://www.w3.org/Graphics/SVG/1.1/DTD/svg11.dtd">
<!-- Generated by graphviz version 2.43.0 (0)
 -->
<!-- Title: language/lib/Catch2/include/internal/catch_exception_translator_registry.h Pages: 1 -->
<svg width="366pt" height="341pt"
 viewBox="0.00 0.00 365.50 341.00" xmlns="http://www.w3.org/2000/svg" xmlns:xlink="http://www.w3.org/1999/xlink">
<g id="graph0" class="graph" transform="scale(1 1) rotate(0) translate(4 337)">
<title>language/lib/Catch2/include/internal/catch_exception_translator_registry.h</title>
<polygon fill="white" stroke="transparent" points="-4,4 -4,-337 361.5,-337 361.5,4 -4,4"/>
<!-- Node1 -->
<g id="node1" class="node">
<title>Node1</title>
<g id="a_node1"><a xlink:title=" ">
<polygon fill="#bfbfbf" stroke="black" points="174.5,-291.5 174.5,-332.5 347.5,-332.5 347.5,-291.5 174.5,-291.5"/>
<text text-anchor="start" x="182.5" y="-320.5" font-family="Helvetica,sans-Serif" font-size="10.00">language/lib/Catch2</text>
<text text-anchor="start" x="182.5" y="-309.5" font-family="Helvetica,sans-Serif" font-size="10.00">/include/internal/catch</text>
<text text-anchor="middle" x="261" y="-298.5" font-family="Helvetica,sans-Serif" font-size="10.00">_exception_translator_registry.h</text>
</a>
</g>
</g>
<!-- Node2 -->
<g id="node2" class="node">
<title>Node2</title>
<g id="a_node2"><a xlink:href="catch__interfaces__exception_8h.html" target="_top" xlink:title=" ">
<polygon fill="white" stroke="black" points="128.5,-235.5 128.5,-254.5 287.5,-254.5 287.5,-235.5 128.5,-235.5"/>
<text text-anchor="middle" x="208" y="-242.5" font-family="Helvetica,sans-Serif" font-size="10.00">catch_interfaces_exception.h</text>
</a>
</g>
</g>
<!-- Node1&#45;&gt;Node2 -->
<g id="edge1" class="edge">
<title>Node1&#45;&gt;Node2</title>
<path fill="none" stroke="midnightblue" d="M245.1,-291.5C237.6,-282.3 228.74,-271.44 221.56,-262.63"/>
<polygon fill="midnightblue" stroke="midnightblue" points="224.09,-260.19 215.06,-254.65 218.66,-264.61 224.09,-260.19"/>
</g>
<!-- Node8 -->
<g id="node8" class="node">
<title>Node8</title>
<g id="a_node8"><a xlink:title=" ">
<polygon fill="white" stroke="#bfbfbf" points="0,-56.5 0,-75.5 44,-75.5 44,-56.5 0,-56.5"/>
<text text-anchor="middle" x="22" y="-63.5" font-family="Helvetica,sans-Serif" font-size="10.00">string</text>
</a>
</g>
</g>
<!-- Node1&#45;&gt;Node8 -->
<g id="edge15" class="edge">
<title>Node1&#45;&gt;Node8</title>
<path fill="none" stroke="midnightblue" d="M174.45,-294.84C120.26,-279.81 54.39,-251.48 20,-199 -2.74,-164.29 7.68,-112.65 15.74,-85.39"/>
<polygon fill="midnightblue" stroke="midnightblue" points="19.15,-86.21 18.84,-75.62 12.48,-84.09 19.15,-86.21"/>
</g>
<!-- Node10 -->
<g id="node10" class="node">
<title>Node10</title>
<g id="a_node10"><a xlink:title=" ">
<polygon fill="white" stroke="#bfbfbf" points="272,-112.5 272,-131.5 330,-131.5 330,-112.5 272,-112.5"/>
<text text-anchor="middle" x="301" y="-119.5" font-family="Helvetica,sans-Serif" font-size="10.00">memory</text>
</a>
</g>
</g>
<!-- Node1&#45;&gt;Node10 -->
<g id="edge16" class="edge">
<title>Node1&#45;&gt;Node10</title>
<path fill="none" stroke="midnightblue" d="M284.27,-291.14C306.05,-270.7 336.74,-236.61 347,-199 350.63,-185.71 352.34,-180.7 347,-168 341.97,-156.05 332.06,-145.69 322.71,-137.93"/>
<polygon fill="midnightblue" stroke="midnightblue" points="324.84,-135.15 314.79,-131.81 320.56,-140.69 324.84,-135.15"/>
</g>
<!-- Node12 -->
<g id="node12" class="node">
<title>Node12</title>
<g id="a_node12"><a xlink:title=" ">
<polygon fill="white" stroke="#bfbfbf" points="291.5,-174 291.5,-193 338.5,-193 338.5,-174 291.5,-174"/>
<text text-anchor="middle" x="315" y="-181" font-family="Helvetica,sans-Serif" font-size="10.00">vector</text>
</a>
</g>
</g>
<!-- Node1&#45;&gt;Node12 -->
<g id="edge14" class="edge">
<title>Node1&#45;&gt;Node12</title>
<path fill="none" stroke="midnightblue" d="M275.31,-291.32C282.34,-280.92 290.46,-267.72 296,-255 303.35,-238.13 308.48,-217.72 311.53,-203.21"/>
<polygon fill="midnightblue" stroke="midnightblue" points="315.04,-203.51 313.55,-193.02 308.18,-202.15 315.04,-203.51"/>
</g>
<!-- Node3 -->
<g id="node3" class="node">
<title>Node3</title>
<g id="a_node3"><a xlink:href="catch__interfaces__registry__hub_8h.html" target="_top" xlink:title=" ">
<polygon fill="white" stroke="black" points="50,-168.5 50,-198.5 190,-198.5 190,-168.5 50,-168.5"/>
<text text-anchor="start" x="58" y="-186.5" font-family="Helvetica,sans-Serif" font-size="10.00">catch_interfaces_registry</text>
<text text-anchor="middle" x="120" y="-175.5" font-family="Helvetica,sans-Serif" font-size="10.00">_hub.h</text>
</a>
</g>
</g>
<!-- Node2&#45;&gt;Node3 -->
<g id="edge2" class="edge">
<title>Node2&#45;&gt;Node3</title>
<path fill="none" stroke="midnightblue" d="M195.39,-235.48C183.36,-227.34 164.8,-214.79 149.1,-204.18"/>
<polygon fill="midnightblue" stroke="midnightblue" points="150.98,-201.22 140.74,-198.52 147.06,-207.02 150.98,-201.22"/>
</g>
<!-- Node2&#45;&gt;Node8 -->
<g id="edge12" class="edge">
<title>Node2&#45;&gt;Node8</title>
<path fill="none" stroke="midnightblue" d="M150.92,-235.46C108.53,-227.9 55.64,-215.52 41,-199 13.06,-167.48 15.24,-114.09 18.83,-85.84"/>
<polygon fill="midnightblue" stroke="midnightblue" points="22.33,-86.12 20.33,-75.71 15.41,-85.1 22.33,-86.12"/>
</g>
<!-- Node11 -->
<g id="node11" class="node">
<title>Node11</title>
<g id="a_node11"><a xlink:title=" ">
<polygon fill="white" stroke="#bfbfbf" points="208.5,-174 208.5,-193 273.5,-193 273.5,-174 208.5,-174"/>
<text text-anchor="middle" x="241" y="-181" font-family="Helvetica,sans-Serif" font-size="10.00">exception</text>
</a>
</g>
</g>
<!-- Node2&#45;&gt;Node11 -->
<g id="edge11" class="edge">
<title>Node2&#45;&gt;Node11</title>
<path fill="none" stroke="midnightblue" d="M212.73,-235.48C217.58,-226.73 225.27,-212.87 231.4,-201.81"/>
<polygon fill="midnightblue" stroke="midnightblue" points="234.49,-203.45 236.28,-193.01 228.37,-200.06 234.49,-203.45"/>
</g>
<!-- Node2&#45;&gt;Node12 -->
<g id="edge13" class="edge">
<title>Node2&#45;&gt;Node12</title>
<path fill="none" stroke="midnightblue" d="M223.33,-235.48C240.97,-225.67 270.16,-209.43 290.86,-197.92"/>
<polygon fill="midnightblue" stroke="midnightblue" points="292.66,-200.93 299.7,-193.01 289.26,-194.81 292.66,-200.93"/>
</g>
<!-- Node4 -->
<g id="node4" class="node">
<title>Node4</title>
<g id="a_node4"><a xlink:href="catch__common_8h.html" target="_top" xlink:title=" ">
<polygon fill="white" stroke="black" points="88,-112.5 88,-131.5 188,-131.5 188,-112.5 88,-112.5"/>
<text text-anchor="middle" x="138" y="-119.5" font-family="Helvetica,sans-Serif" font-size="10.00">catch_common.h</text>
</a>
</g>
</g>
<!-- Node3&#45;&gt;Node4 -->
<g id="edge3" class="edge">
<title>Node3&#45;&gt;Node4</title>
<path fill="none" stroke="midnightblue" d="M124.27,-168.4C126.72,-160.29 129.83,-150.01 132.47,-141.28"/>
<polygon fill="midnightblue" stroke="midnightblue" points="135.84,-142.24 135.38,-131.66 129.14,-140.22 135.84,-142.24"/>
</g>
<!-- Node3&#45;&gt;Node8 -->
<g id="edge9" class="edge">
<title>Node3&#45;&gt;Node8</title>
<path fill="none" stroke="midnightblue" d="M107.98,-168.34C89.76,-146.86 55.24,-106.17 35.94,-83.43"/>
<polygon fill="midnightblue" stroke="midnightblue" points="38.49,-81.03 29.36,-75.67 33.16,-85.56 38.49,-81.03"/>
</g>
<!-- Node3&#45;&gt;Node10 -->
<g id="edge10" class="edge">
<title>Node3&#45;&gt;Node10</title>
<path fill="none" stroke="midnightblue" d="M162.89,-168.4C194.03,-158.16 235.69,-144.47 265.08,-134.81"/>
<polygon fill="midnightblue" stroke="midnightblue" points="266.52,-138.02 274.93,-131.57 264.33,-131.37 266.52,-138.02"/>
</g>
<!-- Node5 -->
<g id="node5" class="node">
<title>Node5</title>
<g id="a_node5"><a xlink:href="catch__compiler__capabilities_8h.html" target="_top" xlink:title=" ">
<polygon fill="white" stroke="black" points="196.5,-56.5 196.5,-75.5 357.5,-75.5 357.5,-56.5 196.5,-56.5"/>
<text text-anchor="middle" x="277" y="-63.5" font-family="Helvetica,sans-Serif" font-size="10.00">catch_compiler_capabilities.h</text>
</a>
</g>
</g>
<!-- Node4&#45;&gt;Node5 -->
<g id="edge4" class="edge">
<title>Node4&#45;&gt;Node5</title>
<path fill="none" stroke="midnightblue" d="M160.02,-112.44C183.1,-103.48 219.56,-89.31 245.64,-79.18"/>
<polygon fill="midnightblue" stroke="midnightblue" points="247.02,-82.4 255.08,-75.52 244.49,-75.88 247.02,-82.4"/>
</g>
<!-- Node7 -->
<g id="node7" class="node">
<title>Node7</title>
<g id="a_node7"><a xlink:title=" ">
<polygon fill="white" stroke="#bfbfbf" points="62,-56.5 62,-75.5 110,-75.5 110,-56.5 62,-56.5"/>
<text text-anchor="middle" x="86" y="-63.5" font-family="Helvetica,sans-Serif" font-size="10.00">iosfwd</text>
</a>
</g>
</g>
<!-- Node4&#45;&gt;Node7 -->
<g id="edge6" class="edge">
<title>Node4&#45;&gt;Node7</title>
<path fill="none" stroke="midnightblue" d="M129.41,-112.08C121.84,-104.22 110.62,-92.57 101.49,-83.08"/>
<polygon fill="midnightblue" stroke="midnightblue" points="103.88,-80.53 94.43,-75.75 98.84,-85.38 103.88,-80.53"/>
</g>
<!-- Node4&#45;&gt;Node8 -->
<g id="edge7" class="edge">
<title>Node4&#45;&gt;Node8</title>
<path fill="none" stroke="midnightblue" d="M119.62,-112.44C100.78,-103.68 71.27,-89.94 49.62,-79.86"/>
<polygon fill="midnightblue" stroke="midnightblue" points="50.84,-76.56 40.29,-75.52 47.88,-82.91 50.84,-76.56"/>
</g>
<!-- Node9 -->
<g id="node9" class="node">
<title>Node9</title>
<g id="a_node9"><a xlink:title=" ">
<polygon fill="white" stroke="#bfbfbf" points="128,-56.5 128,-75.5 178,-75.5 178,-56.5 128,-56.5"/>
<text text-anchor="middle" x="153" y="-63.5" font-family="Helvetica,sans-Serif" font-size="10.00">cstdint</text>
</a>
</g>
</g>
<!-- Node4&#45;&gt;Node9 -->
<g id="edge8" class="edge">
<title>Node4&#45;&gt;Node9</title>
<path fill="none" stroke="midnightblue" d="M140.48,-112.08C142.49,-104.85 145.39,-94.41 147.89,-85.4"/>
<polygon fill="midnightblue" stroke="midnightblue" points="151.26,-86.32 150.57,-75.75 144.52,-84.45 151.26,-86.32"/>
</g>
<!-- Node6 -->
<g id="node6" class="node">
<title>Node6</title>
<g id="a_node6"><a xlink:href="catch__platform_8h.html" target="_top" xlink:title=" ">
<polygon fill="white" stroke="black" points="227.5,-0.5 227.5,-19.5 326.5,-19.5 326.5,-0.5 227.5,-0.5"/>
<text text-anchor="middle" x="277" y="-7.5" font-family="Helvetica,sans-Serif" font-size="10.00">catch_platform.h</text>
</a>
</g>
</g>
<!-- Node5&#45;&gt;Node6 -->
<g id="edge5" class="edge">
<title>Node5&#45;&gt;Node6</title>
<path fill="none" stroke="midnightblue" d="M277,-56.08C277,-49.01 277,-38.86 277,-29.99"/>
<polygon fill="midnightblue" stroke="midnightblue" points="280.5,-29.75 277,-19.75 273.5,-29.75 280.5,-29.75"/>
</g>
</g>
</svg>
