<?xml version="1.0" encoding="UTF-8" standalone="no"?>
<!DOCTYPE svg PUBLIC "-//W3C//DTD SVG 1.1//EN"
 "http://www.w3.org/Graphics/SVG/1.1/DTD/svg11.dtd">
<!-- Generated by graphviz version 2.43.0 (0)
 -->
<!-- Title: language/lib/Catch2/include/internal/catch_interfaces_exception.h Pages: 1 -->
<svg width="1465pt" height="284pt"
 viewBox="0.00 0.00 1464.50 284.00" xmlns="http://www.w3.org/2000/svg" xmlns:xlink="http://www.w3.org/1999/xlink">
<g id="graph0" class="graph" transform="scale(1 1) rotate(0) translate(4 280)">
<title>language/lib/Catch2/include/internal/catch_interfaces_exception.h</title>
<polygon fill="white" stroke="transparent" points="-4,4 -4,-280 1460.5,-280 1460.5,4 -4,4"/>
<!-- Node1 -->
<g id="node1" class="node">
<title>Node1</title>
<g id="a_node1"><a xlink:title=" ">
<polygon fill="#bfbfbf" stroke="black" points="852,-234.5 852,-275.5 985,-275.5 985,-234.5 852,-234.5"/>
<text text-anchor="start" x="860" y="-263.5" font-family="Helvetica,sans-Serif" font-size="10.00">language/lib/Catch2</text>
<text text-anchor="start" x="860" y="-252.5" font-family="Helvetica,sans-Serif" font-size="10.00">/include/internal/catch</text>
<text text-anchor="middle" x="918.5" y="-241.5" font-family="Helvetica,sans-Serif" font-size="10.00">_interfaces_exception.h</text>
</a>
</g>
</g>
<!-- Node2 -->
<g id="node2" class="node">
<title>Node2</title>
<g id="a_node2"><a xlink:href="include_2catch_8hpp.html" target="_top" xlink:title=" ">
<polygon fill="white" stroke="black" points="240,-162 240,-192 353,-192 353,-162 240,-162"/>
<text text-anchor="start" x="248" y="-180" font-family="Helvetica,sans-Serif" font-size="10.00">language/lib/Catch2</text>
<text text-anchor="middle" x="296.5" y="-169" font-family="Helvetica,sans-Serif" font-size="10.00">/include/catch.hpp</text>
</a>
</g>
</g>
<!-- Node1&#45;&gt;Node2 -->
<g id="edge1" class="edge">
<title>Node1&#45;&gt;Node2</title>
<path fill="none" stroke="midnightblue" d="M841.92,-244.64C715.27,-229.17 465.06,-198.6 353.05,-184.91"/>
<polygon fill="midnightblue" stroke="midnightblue" points="841.58,-248.13 851.94,-245.87 842.43,-241.18 841.58,-248.13"/>
</g>
<!-- Node4 -->
<g id="node4" class="node">
<title>Node4</title>
<g id="a_node4"><a xlink:href="catch__run__context_8h.html" target="_top" xlink:title=" ">
<polygon fill="white" stroke="black" points="610,-156.5 610,-197.5 735,-197.5 735,-156.5 610,-156.5"/>
<text text-anchor="start" x="618" y="-185.5" font-family="Helvetica,sans-Serif" font-size="10.00">language/lib/Catch2</text>
<text text-anchor="start" x="618" y="-174.5" font-family="Helvetica,sans-Serif" font-size="10.00">/include/internal/catch</text>
<text text-anchor="middle" x="672.5" y="-163.5" font-family="Helvetica,sans-Serif" font-size="10.00">_run_context.h</text>
</a>
</g>
</g>
<!-- Node1&#45;&gt;Node4 -->
<g id="edge3" class="edge">
<title>Node1&#45;&gt;Node4</title>
<path fill="none" stroke="midnightblue" d="M845.45,-231.43C810.39,-220.6 768.81,-207.75 735.21,-197.37"/>
<polygon fill="midnightblue" stroke="midnightblue" points="844.56,-234.82 855.15,-234.43 846.63,-228.13 844.56,-234.82"/>
</g>
<!-- Node12 -->
<g id="node12" class="node">
<title>Node12</title>
<g id="a_node12"><a xlink:href="catch__exception__translator__registry_8h.html" target="_top" xlink:title=" ">
<polygon fill="white" stroke="black" points="1078,-156.5 1078,-197.5 1251,-197.5 1251,-156.5 1078,-156.5"/>
<text text-anchor="start" x="1086" y="-185.5" font-family="Helvetica,sans-Serif" font-size="10.00">language/lib/Catch2</text>
<text text-anchor="start" x="1086" y="-174.5" font-family="Helvetica,sans-Serif" font-size="10.00">/include/internal/catch</text>
<text text-anchor="middle" x="1164.5" y="-163.5" font-family="Helvetica,sans-Serif" font-size="10.00">_exception_translator_registry.h</text>
</a>
</g>
</g>
<!-- Node1&#45;&gt;Node12 -->
<g id="edge16" class="edge">
<title>Node1&#45;&gt;Node12</title>
<path fill="none" stroke="midnightblue" d="M991.52,-231.44C1026.43,-220.66 1067.82,-207.87 1101.36,-197.51"/>
<polygon fill="midnightblue" stroke="midnightblue" points="990.37,-228.13 981.85,-234.43 992.44,-234.82 990.37,-228.13"/>
</g>
<!-- Node15 -->
<g id="node15" class="node">
<title>Node15</title>
<g id="a_node15"><a xlink:href="catch__interfaces__exception_8cpp.html" target="_top" xlink:title=" ">
<polygon fill="white" stroke="black" points="1312.5,-156.5 1312.5,-197.5 1456.5,-197.5 1456.5,-156.5 1312.5,-156.5"/>
<text text-anchor="start" x="1320.5" y="-185.5" font-family="Helvetica,sans-Serif" font-size="10.00">language/lib/Catch2</text>
<text text-anchor="start" x="1320.5" y="-174.5" font-family="Helvetica,sans-Serif" font-size="10.00">/include/internal/catch</text>
<text text-anchor="middle" x="1384.5" y="-163.5" font-family="Helvetica,sans-Serif" font-size="10.00">_interfaces_exception.cpp</text>
</a>
</g>
</g>
<!-- Node1&#45;&gt;Node15 -->
<g id="edge21" class="edge">
<title>Node1&#45;&gt;Node15</title>
<path fill="none" stroke="midnightblue" d="M995.19,-241.49C1083.22,-227.14 1226.49,-203.77 1312.5,-189.74"/>
<polygon fill="midnightblue" stroke="midnightblue" points="994.57,-238.05 985.27,-243.11 995.7,-244.96 994.57,-238.05"/>
</g>
<!-- Node3 -->
<g id="node3" class="node">
<title>Node3</title>
<g id="a_node3"><a xlink:href="catch__with__main_8hpp.html" target="_top" xlink:title=" ">
<polygon fill="white" stroke="black" points="0,-78.5 0,-119.5 113,-119.5 113,-78.5 0,-78.5"/>
<text text-anchor="start" x="8" y="-107.5" font-family="Helvetica,sans-Serif" font-size="10.00">language/lib/Catch2</text>
<text text-anchor="start" x="8" y="-96.5" font-family="Helvetica,sans-Serif" font-size="10.00">/include/catch_with</text>
<text text-anchor="middle" x="56.5" y="-85.5" font-family="Helvetica,sans-Serif" font-size="10.00">_main.hpp</text>
</a>
</g>
</g>
<!-- Node2&#45;&gt;Node3 -->
<g id="edge2" class="edge">
<title>Node2&#45;&gt;Node3</title>
<path fill="none" stroke="midnightblue" d="M242.22,-158.81C203.76,-146.63 152.27,-130.33 113.26,-117.97"/>
<polygon fill="midnightblue" stroke="midnightblue" points="241.61,-162.29 252.2,-161.97 243.72,-155.62 241.61,-162.29"/>
</g>
<!-- Node5 -->
<g id="node5" class="node">
<title>Node5</title>
<g id="a_node5"><a xlink:href="catch__assertionhandler_8cpp.html" target="_top" xlink:title=" ">
<polygon fill="white" stroke="black" points="131,-78.5 131,-119.5 256,-119.5 256,-78.5 131,-78.5"/>
<text text-anchor="start" x="139" y="-107.5" font-family="Helvetica,sans-Serif" font-size="10.00">language/lib/Catch2</text>
<text text-anchor="start" x="139" y="-96.5" font-family="Helvetica,sans-Serif" font-size="10.00">/include/internal/catch</text>
<text text-anchor="middle" x="193.5" y="-85.5" font-family="Helvetica,sans-Serif" font-size="10.00">_assertionhandler.cpp</text>
</a>
</g>
</g>
<!-- Node4&#45;&gt;Node5 -->
<g id="edge4" class="edge">
<title>Node4&#45;&gt;Node5</title>
<path fill="none" stroke="midnightblue" d="M599.86,-169.09C517.87,-160.59 380.74,-144.23 264.5,-120 261.74,-119.43 258.93,-118.8 256.1,-118.14"/>
<polygon fill="midnightblue" stroke="midnightblue" points="599.53,-172.58 609.83,-170.12 600.24,-165.61 599.53,-172.58"/>
</g>
<!-- Node7 -->
<g id="node7" class="node">
<title>Node7</title>
<g id="a_node7"><a xlink:href="catch__fatal__condition_8cpp.html" target="_top" xlink:title=" ">
<polygon fill="white" stroke="black" points="274,-78.5 274,-119.5 399,-119.5 399,-78.5 274,-78.5"/>
<text text-anchor="start" x="282" y="-107.5" font-family="Helvetica,sans-Serif" font-size="10.00">language/lib/Catch2</text>
<text text-anchor="start" x="282" y="-96.5" font-family="Helvetica,sans-Serif" font-size="10.00">/include/internal/catch</text>
<text text-anchor="middle" x="336.5" y="-85.5" font-family="Helvetica,sans-Serif" font-size="10.00">_fatal_condition.cpp</text>
</a>
</g>
</g>
<!-- Node4&#45;&gt;Node7 -->
<g id="edge6" class="edge">
<title>Node4&#45;&gt;Node7</title>
<path fill="none" stroke="midnightblue" d="M599.83,-161.84C546.64,-151.18 472.85,-135.75 408.5,-120 405.48,-119.26 402.39,-118.48 399.27,-117.68"/>
<polygon fill="midnightblue" stroke="midnightblue" points="599.35,-165.32 609.84,-163.85 600.72,-158.45 599.35,-165.32"/>
</g>
<!-- Node8 -->
<g id="node8" class="node">
<title>Node8</title>
<g id="a_node8"><a xlink:href="catch__random__number__generator_8cpp.html" target="_top" xlink:title=" ">
<polygon fill="white" stroke="black" points="417.5,-78.5 417.5,-119.5 591.5,-119.5 591.5,-78.5 417.5,-78.5"/>
<text text-anchor="start" x="425.5" y="-107.5" font-family="Helvetica,sans-Serif" font-size="10.00">language/lib/Catch2</text>
<text text-anchor="start" x="425.5" y="-96.5" font-family="Helvetica,sans-Serif" font-size="10.00">/include/internal/catch</text>
<text text-anchor="middle" x="504.5" y="-85.5" font-family="Helvetica,sans-Serif" font-size="10.00">_random_number_generator.cpp</text>
</a>
</g>
</g>
<!-- Node4&#45;&gt;Node8 -->
<g id="edge8" class="edge">
<title>Node4&#45;&gt;Node8</title>
<path fill="none" stroke="midnightblue" d="M619.87,-152.19C596.62,-141.67 569.64,-129.47 547.62,-119.51"/>
<polygon fill="midnightblue" stroke="midnightblue" points="618.68,-155.5 629.24,-156.43 621.57,-149.12 618.68,-155.5"/>
</g>
<!-- Node9 -->
<g id="node9" class="node">
<title>Node9</title>
<g id="a_node9"><a xlink:href="catch__run__context_8cpp.html" target="_top" xlink:title=" ">
<polygon fill="white" stroke="black" points="610,-78.5 610,-119.5 735,-119.5 735,-78.5 610,-78.5"/>
<text text-anchor="start" x="618" y="-107.5" font-family="Helvetica,sans-Serif" font-size="10.00">language/lib/Catch2</text>
<text text-anchor="start" x="618" y="-96.5" font-family="Helvetica,sans-Serif" font-size="10.00">/include/internal/catch</text>
<text text-anchor="middle" x="672.5" y="-85.5" font-family="Helvetica,sans-Serif" font-size="10.00">_run_context.cpp</text>
</a>
</g>
</g>
<!-- Node4&#45;&gt;Node9 -->
<g id="edge10" class="edge">
<title>Node4&#45;&gt;Node9</title>
<path fill="none" stroke="midnightblue" d="M672.5,-146.3C672.5,-137.3 672.5,-127.65 672.5,-119.51"/>
<polygon fill="midnightblue" stroke="midnightblue" points="669,-146.43 672.5,-156.43 676,-146.43 669,-146.43"/>
</g>
<!-- Node10 -->
<g id="node10" class="node">
<title>Node10</title>
<g id="a_node10"><a xlink:href="catch__session_8cpp.html" target="_top" xlink:title=" ">
<polygon fill="white" stroke="black" points="753,-78.5 753,-119.5 878,-119.5 878,-78.5 753,-78.5"/>
<text text-anchor="start" x="761" y="-107.5" font-family="Helvetica,sans-Serif" font-size="10.00">language/lib/Catch2</text>
<text text-anchor="start" x="761" y="-96.5" font-family="Helvetica,sans-Serif" font-size="10.00">/include/internal/catch</text>
<text text-anchor="middle" x="815.5" y="-85.5" font-family="Helvetica,sans-Serif" font-size="10.00">_session.cpp</text>
</a>
</g>
</g>
<!-- Node4&#45;&gt;Node10 -->
<g id="edge12" class="edge">
<title>Node4&#45;&gt;Node10</title>
<path fill="none" stroke="midnightblue" d="M718.36,-151.63C737.9,-141.24 760.39,-129.29 778.8,-119.51"/>
<polygon fill="midnightblue" stroke="midnightblue" points="716.51,-148.64 709.33,-156.43 719.8,-154.83 716.51,-148.64"/>
</g>
<!-- Node11 -->
<g id="node11" class="node">
<title>Node11</title>
<g id="a_node11"><a xlink:href="catch__test__case__registry__impl_8cpp.html" target="_top" xlink:title=" ">
<polygon fill="white" stroke="black" points="896.5,-78.5 896.5,-119.5 1054.5,-119.5 1054.5,-78.5 896.5,-78.5"/>
<text text-anchor="start" x="904.5" y="-107.5" font-family="Helvetica,sans-Serif" font-size="10.00">language/lib/Catch2</text>
<text text-anchor="start" x="904.5" y="-96.5" font-family="Helvetica,sans-Serif" font-size="10.00">/include/internal/catch</text>
<text text-anchor="middle" x="975.5" y="-85.5" font-family="Helvetica,sans-Serif" font-size="10.00">_test_case_registry_impl.cpp</text>
</a>
</g>
</g>
<!-- Node4&#45;&gt;Node11 -->
<g id="edge14" class="edge">
<title>Node4&#45;&gt;Node11</title>
<path fill="none" stroke="midnightblue" d="M745.19,-157.77C791.23,-146.22 850.73,-131.3 897.72,-119.51"/>
<polygon fill="midnightblue" stroke="midnightblue" points="744.13,-154.42 735.28,-160.25 745.83,-161.21 744.13,-154.42"/>
</g>
<!-- Node6 -->
<g id="node6" class="node">
<title>Node6</title>
<g id="a_node6"><a xlink:href="catch__objc__impl_8mm.html" target="_top" xlink:title=" ">
<polygon fill="white" stroke="black" points="751,-0.5 751,-41.5 880,-41.5 880,-0.5 751,-0.5"/>
<text text-anchor="start" x="759" y="-29.5" font-family="Helvetica,sans-Serif" font-size="10.00">language/lib/Catch2</text>
<text text-anchor="start" x="759" y="-18.5" font-family="Helvetica,sans-Serif" font-size="10.00">/projects/XCode/OCTest</text>
<text text-anchor="middle" x="815.5" y="-7.5" font-family="Helvetica,sans-Serif" font-size="10.00">/catch_objc_impl.mm</text>
</a>
</g>
</g>
<!-- Node5&#45;&gt;Node6 -->
<g id="edge5" class="edge">
<title>Node5&#45;&gt;Node6</title>
<path fill="none" stroke="midnightblue" d="M265.99,-77.87C446.06,-44.38 649.35,-30.34 750.93,-24.93"/>
<polygon fill="midnightblue" stroke="midnightblue" points="265.26,-74.45 256.08,-79.74 266.55,-81.32 265.26,-74.45"/>
</g>
<!-- Node7&#45;&gt;Node6 -->
<g id="edge7" class="edge">
<title>Node7&#45;&gt;Node6</title>
<path fill="none" stroke="midnightblue" d="M409.06,-78.02C535.46,-52.39 672.29,-36.31 750.9,-28.18"/>
<polygon fill="midnightblue" stroke="midnightblue" points="408.3,-74.61 399.21,-80.05 409.71,-81.47 408.3,-74.61"/>
</g>
<!-- Node8&#45;&gt;Node6 -->
<g id="edge9" class="edge">
<title>Node8&#45;&gt;Node6</title>
<path fill="none" stroke="midnightblue" d="M594.44,-76.02C644.46,-63.8 705.56,-48.87 750.84,-37.8"/>
<polygon fill="midnightblue" stroke="midnightblue" points="593.47,-72.65 584.59,-78.43 595.14,-79.45 593.47,-72.65"/>
</g>
<!-- Node9&#45;&gt;Node6 -->
<g id="edge11" class="edge">
<title>Node9&#45;&gt;Node6</title>
<path fill="none" stroke="midnightblue" d="M718.36,-73.63C737.9,-63.24 760.39,-51.29 778.8,-41.51"/>
<polygon fill="midnightblue" stroke="midnightblue" points="716.51,-70.64 709.33,-78.43 719.8,-76.83 716.51,-70.64"/>
</g>
<!-- Node10&#45;&gt;Node6 -->
<g id="edge13" class="edge">
<title>Node10&#45;&gt;Node6</title>
<path fill="none" stroke="midnightblue" d="M815.5,-68.3C815.5,-59.3 815.5,-49.65 815.5,-41.51"/>
<polygon fill="midnightblue" stroke="midnightblue" points="812,-68.43 815.5,-78.43 819,-68.43 812,-68.43"/>
</g>
<!-- Node11&#45;&gt;Node6 -->
<g id="edge15" class="edge">
<title>Node11&#45;&gt;Node6</title>
<path fill="none" stroke="midnightblue" d="M925.08,-74.05C903.01,-63.57 877.45,-51.42 856.56,-41.51"/>
<polygon fill="midnightblue" stroke="midnightblue" points="923.76,-77.3 934.3,-78.43 926.76,-70.98 923.76,-77.3"/>
</g>
<!-- Node13 -->
<g id="node13" class="node">
<title>Node13</title>
<g id="a_node13"><a xlink:href="catch__exception__translator__registry_8cpp.html" target="_top" xlink:title=" ">
<polygon fill="white" stroke="black" points="1072.5,-78.5 1072.5,-119.5 1256.5,-119.5 1256.5,-78.5 1072.5,-78.5"/>
<text text-anchor="start" x="1080.5" y="-107.5" font-family="Helvetica,sans-Serif" font-size="10.00">language/lib/Catch2</text>
<text text-anchor="start" x="1080.5" y="-96.5" font-family="Helvetica,sans-Serif" font-size="10.00">/include/internal/catch</text>
<text text-anchor="middle" x="1164.5" y="-85.5" font-family="Helvetica,sans-Serif" font-size="10.00">_exception_translator_registry.cpp</text>
</a>
</g>
</g>
<!-- Node12&#45;&gt;Node13 -->
<g id="edge17" class="edge">
<title>Node12&#45;&gt;Node13</title>
<path fill="none" stroke="midnightblue" d="M1164.5,-146.3C1164.5,-137.3 1164.5,-127.65 1164.5,-119.51"/>
<polygon fill="midnightblue" stroke="midnightblue" points="1161,-146.43 1164.5,-156.43 1168,-146.43 1161,-146.43"/>
</g>
<!-- Node14 -->
<g id="node14" class="node">
<title>Node14</title>
<g id="a_node14"><a xlink:href="catch__registry__hub_8cpp.html" target="_top" xlink:title=" ">
<polygon fill="white" stroke="black" points="1275,-78.5 1275,-119.5 1400,-119.5 1400,-78.5 1275,-78.5"/>
<text text-anchor="start" x="1283" y="-107.5" font-family="Helvetica,sans-Serif" font-size="10.00">language/lib/Catch2</text>
<text text-anchor="start" x="1283" y="-96.5" font-family="Helvetica,sans-Serif" font-size="10.00">/include/internal/catch</text>
<text text-anchor="middle" x="1337.5" y="-85.5" font-family="Helvetica,sans-Serif" font-size="10.00">_registry_hub.cpp</text>
</a>
</g>
</g>
<!-- Node12&#45;&gt;Node14 -->
<g id="edge19" class="edge">
<title>Node12&#45;&gt;Node14</title>
<path fill="none" stroke="midnightblue" d="M1218.38,-152.33C1242.39,-141.78 1270.32,-129.51 1293.1,-119.51"/>
<polygon fill="midnightblue" stroke="midnightblue" points="1216.8,-149.2 1209.05,-156.43 1219.62,-155.61 1216.8,-149.2"/>
</g>
<!-- Node13&#45;&gt;Node6 -->
<g id="edge18" class="edge">
<title>Node13&#45;&gt;Node6</title>
<path fill="none" stroke="midnightblue" d="M1064.85,-76.3C1005.46,-63.37 931.81,-47.33 880.01,-36.05"/>
<polygon fill="midnightblue" stroke="midnightblue" points="1064.11,-79.72 1074.62,-78.43 1065.6,-72.88 1064.11,-79.72"/>
</g>
<!-- Node14&#45;&gt;Node6 -->
<g id="edge20" class="edge">
<title>Node14&#45;&gt;Node6</title>
<path fill="none" stroke="midnightblue" d="M1264.57,-77.97C1122.09,-50.07 965.83,-34.37 880.06,-27.03"/>
<polygon fill="midnightblue" stroke="midnightblue" points="1264.31,-81.49 1274.8,-80 1265.67,-74.62 1264.31,-81.49"/>
</g>
<!-- Node15&#45;&gt;Node6 -->
<g id="edge22" class="edge">
<title>Node15&#45;&gt;Node6</title>
<path fill="none" stroke="midnightblue" d="M1404.13,-147.44C1416.31,-125.87 1426.67,-96.86 1409.5,-78 1374.38,-39.41 1026.54,-26.88 880.03,-23.29"/>
<polygon fill="midnightblue" stroke="midnightblue" points="1401.03,-145.8 1398.87,-156.17 1407.03,-149.41 1401.03,-145.8"/>
</g>
</g>
</svg>
