<?xml version="1.0" encoding="UTF-8" standalone="no"?>
<!DOCTYPE svg PUBLIC "-//W3C//DTD SVG 1.1//EN"
 "http://www.w3.org/Graphics/SVG/1.1/DTD/svg11.dtd">
<!-- Generated by graphviz version 2.43.0 (0)
 -->
<!-- Title: language/lib/Catch2/include/internal/catch_generators.hpp Pages: 1 -->
<svg width="460pt" height="273pt"
 viewBox="0.00 0.00 459.98 273.00" xmlns="http://www.w3.org/2000/svg" xmlns:xlink="http://www.w3.org/1999/xlink">
<g id="graph0" class="graph" transform="scale(1 1) rotate(0) translate(4 269)">
<title>language/lib/Catch2/include/internal/catch_generators.hpp</title>
<polygon fill="white" stroke="transparent" points="-4,4 -4,-269 455.98,-269 455.98,4 -4,4"/>
<!-- Node1 -->
<g id="node1" class="node">
<title>Node1</title>
<g id="a_node1"><a xlink:title=" ">
<polygon fill="#bfbfbf" stroke="black" points="99.98,-223.5 99.98,-264.5 224.98,-264.5 224.98,-223.5 99.98,-223.5"/>
<text text-anchor="start" x="107.98" y="-252.5" font-family="Helvetica,sans-Serif" font-size="10.00">language/lib/Catch2</text>
<text text-anchor="start" x="107.98" y="-241.5" font-family="Helvetica,sans-Serif" font-size="10.00">/include/internal/catch</text>
<text text-anchor="middle" x="162.48" y="-230.5" font-family="Helvetica,sans-Serif" font-size="10.00">_generators.hpp</text>
</a>
</g>
</g>
<!-- Node2 -->
<g id="node2" class="node">
<title>Node2</title>
<g id="a_node2"><a xlink:href="include_2catch_8hpp.html" target="_top" xlink:title=" ">
<polygon fill="white" stroke="black" points="28.98,-78.5 28.98,-108.5 141.98,-108.5 141.98,-78.5 28.98,-78.5"/>
<text text-anchor="start" x="36.98" y="-96.5" font-family="Helvetica,sans-Serif" font-size="10.00">language/lib/Catch2</text>
<text text-anchor="middle" x="85.48" y="-85.5" font-family="Helvetica,sans-Serif" font-size="10.00">/include/catch.hpp</text>
</a>
</g>
</g>
<!-- Node1&#45;&gt;Node2 -->
<g id="edge1" class="edge">
<title>Node1&#45;&gt;Node2</title>
<path fill="none" stroke="midnightblue" d="M90.09,-235.18C59.35,-227.87 26.32,-213.84 7.48,-187 -3.25,-171.72 -1.44,-161.4 7.48,-145 16.42,-128.56 33.27,-116.65 49.03,-108.54"/>
<polygon fill="midnightblue" stroke="midnightblue" points="89.46,-238.63 99.97,-237.33 90.95,-231.78 89.46,-238.63"/>
</g>
<!-- Node4 -->
<g id="node4" class="node">
<title>Node4</title>
<g id="a_node4"><a xlink:href="catch__generators__generic_8hpp.html" target="_top" xlink:title=" ">
<polygon fill="white" stroke="black" points="16.98,-145.5 16.98,-186.5 153.98,-186.5 153.98,-145.5 16.98,-145.5"/>
<text text-anchor="start" x="24.98" y="-174.5" font-family="Helvetica,sans-Serif" font-size="10.00">language/lib/Catch2</text>
<text text-anchor="start" x="24.98" y="-163.5" font-family="Helvetica,sans-Serif" font-size="10.00">/include/internal/catch</text>
<text text-anchor="middle" x="85.48" y="-152.5" font-family="Helvetica,sans-Serif" font-size="10.00">_generators_generic.hpp</text>
</a>
</g>
</g>
<!-- Node1&#45;&gt;Node4 -->
<g id="edge3" class="edge">
<title>Node1&#45;&gt;Node4</title>
<path fill="none" stroke="midnightblue" d="M135.33,-216.2C125.41,-206.42 114.39,-195.54 105.24,-186.51"/>
<polygon fill="midnightblue" stroke="midnightblue" points="133.07,-218.89 142.65,-223.43 137.99,-213.91 133.07,-218.89"/>
</g>
<!-- Node5 -->
<g id="node5" class="node">
<title>Node5</title>
<g id="a_node5"><a xlink:href="catch__generators__specific_8hpp.html" target="_top" xlink:title=" ">
<polygon fill="white" stroke="black" points="171.98,-145.5 171.98,-186.5 308.98,-186.5 308.98,-145.5 171.98,-145.5"/>
<text text-anchor="start" x="179.98" y="-174.5" font-family="Helvetica,sans-Serif" font-size="10.00">language/lib/Catch2</text>
<text text-anchor="start" x="179.98" y="-163.5" font-family="Helvetica,sans-Serif" font-size="10.00">/include/internal/catch</text>
<text text-anchor="middle" x="240.48" y="-152.5" font-family="Helvetica,sans-Serif" font-size="10.00">_generators_specific.hpp</text>
</a>
</g>
</g>
<!-- Node1&#45;&gt;Node5 -->
<g id="edge5" class="edge">
<title>Node1&#45;&gt;Node5</title>
<path fill="none" stroke="midnightblue" d="M189.98,-216.2C200.03,-206.42 211.19,-195.54 220.46,-186.51"/>
<polygon fill="midnightblue" stroke="midnightblue" points="187.29,-213.94 182.57,-223.43 192.17,-218.96 187.29,-213.94"/>
</g>
<!-- Node6 -->
<g id="node6" class="node">
<title>Node6</title>
<g id="a_node6"><a xlink:href="catch__generators_8cpp.html" target="_top" xlink:title=" ">
<polygon fill="white" stroke="black" points="326.98,-145.5 326.98,-186.5 451.98,-186.5 451.98,-145.5 326.98,-145.5"/>
<text text-anchor="start" x="334.98" y="-174.5" font-family="Helvetica,sans-Serif" font-size="10.00">language/lib/Catch2</text>
<text text-anchor="start" x="334.98" y="-163.5" font-family="Helvetica,sans-Serif" font-size="10.00">/include/internal/catch</text>
<text text-anchor="middle" x="389.48" y="-152.5" font-family="Helvetica,sans-Serif" font-size="10.00">_generators.cpp</text>
</a>
</g>
</g>
<!-- Node1&#45;&gt;Node6 -->
<g id="edge7" class="edge">
<title>Node1&#45;&gt;Node6</title>
<path fill="none" stroke="midnightblue" d="M230.68,-220.17C262.73,-209.44 300.54,-196.78 331.22,-186.51"/>
<polygon fill="midnightblue" stroke="midnightblue" points="229.31,-216.93 220.94,-223.43 231.53,-223.57 229.31,-216.93"/>
</g>
<!-- Node3 -->
<g id="node3" class="node">
<title>Node3</title>
<g id="a_node3"><a xlink:href="catch__with__main_8hpp.html" target="_top" xlink:title=" ">
<polygon fill="white" stroke="black" points="28.98,-0.5 28.98,-41.5 141.98,-41.5 141.98,-0.5 28.98,-0.5"/>
<text text-anchor="start" x="36.98" y="-29.5" font-family="Helvetica,sans-Serif" font-size="10.00">language/lib/Catch2</text>
<text text-anchor="start" x="36.98" y="-18.5" font-family="Helvetica,sans-Serif" font-size="10.00">/include/catch_with</text>
<text text-anchor="middle" x="85.48" y="-7.5" font-family="Helvetica,sans-Serif" font-size="10.00">_main.hpp</text>
</a>
</g>
</g>
<!-- Node2&#45;&gt;Node3 -->
<g id="edge2" class="edge">
<title>Node2&#45;&gt;Node3</title>
<path fill="none" stroke="midnightblue" d="M85.48,-67.98C85.48,-59.35 85.48,-49.76 85.48,-41.59"/>
<polygon fill="midnightblue" stroke="midnightblue" points="81.98,-68.23 85.48,-78.23 88.98,-68.23 81.98,-68.23"/>
</g>
<!-- Node4&#45;&gt;Node2 -->
<g id="edge4" class="edge">
<title>Node4&#45;&gt;Node2</title>
<path fill="none" stroke="midnightblue" d="M85.48,-135.08C85.48,-126.01 85.48,-116.45 85.48,-108.89"/>
<polygon fill="midnightblue" stroke="midnightblue" points="81.98,-135.36 85.48,-145.36 88.98,-135.36 81.98,-135.36"/>
</g>
<!-- Node5&#45;&gt;Node2 -->
<g id="edge6" class="edge">
<title>Node5&#45;&gt;Node2</title>
<path fill="none" stroke="midnightblue" d="M188.06,-141.16C164.33,-130.36 137.08,-117.97 116.63,-108.67"/>
<polygon fill="midnightblue" stroke="midnightblue" points="186.75,-144.41 197.3,-145.36 189.65,-138.04 186.75,-144.41"/>
</g>
</g>
</svg>
