<?xml version="1.0" encoding="UTF-8" standalone="no"?>
<!DOCTYPE svg PUBLIC "-//W3C//DTD SVG 1.1//EN"
 "http://www.w3.org/Graphics/SVG/1.1/DTD/svg11.dtd">
<!-- Generated by graphviz version 2.43.0 (0)
 -->
<!-- Title: main Pages: 1 -->
<svg width="529pt" height="66pt"
 viewBox="0.00 0.00 529.00 66.00" xmlns="http://www.w3.org/2000/svg" xmlns:xlink="http://www.w3.org/1999/xlink">
<g id="graph0" class="graph" transform="scale(1 1) rotate(0) translate(4 62)">
<title>main</title>
<polygon fill="white" stroke="transparent" points="-4,4 -4,-62 525,-62 525,4 -4,4"/>
<!-- Node1 -->
<g id="node1" class="node">
<title>Node1</title>
<g id="a_node1"><a xlink:title=" ">
<polygon fill="#bfbfbf" stroke="black" points="0,-19.5 0,-38.5 41,-38.5 41,-19.5 0,-19.5"/>
<text text-anchor="middle" x="20.5" y="-26.5" font-family="Helvetica,sans-Serif" font-size="10.00">main</text>
</a>
</g>
</g>
<!-- Node2 -->
<g id="node2" class="node">
<title>Node2</title>
<g id="a_node2"><a xlink:href="class_catch_1_1_session.html#a8c82b89613ebd99f1ba1a3f7b634e571" target="_top" xlink:title=" ">
<polygon fill="white" stroke="black" points="77,-19.5 77,-38.5 187,-38.5 187,-19.5 77,-19.5"/>
<text text-anchor="middle" x="132" y="-26.5" font-family="Helvetica,sans-Serif" font-size="10.00">Catch::Session::run</text>
</a>
</g>
</g>
<!-- Node1&#45;&gt;Node2 -->
<g id="edge1" class="edge">
<title>Node1&#45;&gt;Node2</title>
<path fill="none" stroke="midnightblue" d="M41.08,-29C48.49,-29 57.38,-29 66.66,-29"/>
<polygon fill="midnightblue" stroke="midnightblue" points="66.83,-32.5 76.83,-29 66.83,-25.5 66.83,-32.5"/>
</g>
<!-- Node3 -->
<g id="node3" class="node">
<title>Node3</title>
<g id="a_node3"><a xlink:href="class_catch_1_1_session.html#af890db02c69e36356ac9f8be4084c464" target="_top" xlink:title=" ">
<polygon fill="white" stroke="black" points="223,-38.5 223,-57.5 414,-57.5 414,-38.5 223,-38.5"/>
<text text-anchor="middle" x="318.5" y="-45.5" font-family="Helvetica,sans-Serif" font-size="10.00">Catch::Session::applyCommandLine</text>
</a>
</g>
</g>
<!-- Node2&#45;&gt;Node3 -->
<g id="edge2" class="edge">
<title>Node2&#45;&gt;Node3</title>
<path fill="none" stroke="midnightblue" d="M187.36,-34.6C196.19,-35.51 205.59,-36.48 215.13,-37.46"/>
<polygon fill="midnightblue" stroke="midnightblue" points="214.81,-40.94 225.11,-38.49 215.53,-33.98 214.81,-40.94"/>
</g>
<!-- Node4 -->
<g id="node4" class="node">
<title>Node4</title>
<g id="a_node4"><a xlink:href="class_catch_1_1_session.html#a0232a6c37ad5b5064a2462eedf13a9be" target="_top" xlink:title=" ">
<polygon fill="white" stroke="black" points="263.5,-0.5 263.5,-19.5 373.5,-19.5 373.5,-0.5 263.5,-0.5"/>
<text text-anchor="middle" x="318.5" y="-7.5" font-family="Helvetica,sans-Serif" font-size="10.00">Catch::Session::run</text>
</a>
</g>
</g>
<!-- Node2&#45;&gt;Node4 -->
<g id="edge3" class="edge">
<title>Node2&#45;&gt;Node4</title>
<path fill="none" stroke="midnightblue" d="M187.36,-23.4C208,-21.28 231.72,-18.83 253.2,-16.62"/>
<polygon fill="midnightblue" stroke="midnightblue" points="253.62,-20.1 263.21,-15.59 252.91,-13.13 253.62,-20.1"/>
</g>
<!-- Node5 -->
<g id="node5" class="node">
<title>Node5</title>
<g id="a_node5"><a xlink:href="namespace_catch.html#a0179d453617ba2296f2baa99a49e7264" target="_top" xlink:title=" ">
<polygon fill="white" stroke="black" points="450,-0.5 450,-19.5 521,-19.5 521,-0.5 450,-0.5"/>
<text text-anchor="middle" x="485.5" y="-7.5" font-family="Helvetica,sans-Serif" font-size="10.00">Catch::cout</text>
</a>
</g>
</g>
<!-- Node4&#45;&gt;Node5 -->
<g id="edge4" class="edge">
<title>Node4&#45;&gt;Node5</title>
<path fill="none" stroke="midnightblue" d="M373.53,-10C394.82,-10 418.99,-10 439.33,-10"/>
<polygon fill="midnightblue" stroke="midnightblue" points="439.58,-13.5 449.58,-10 439.58,-6.5 439.58,-13.5"/>
</g>
</g>
</svg>
