<?xml version="1.0" encoding="UTF-8" standalone="no"?>
<!DOCTYPE svg PUBLIC "-//W3C//DTD SVG 1.1//EN"
 "http://www.w3.org/Graphics/SVG/1.1/DTD/svg11.dtd">
<!-- Generated by graphviz version 2.43.0 (0)
 -->
<!-- Title: language/lib/Catch2/include/internal/benchmark/catch_chronometer.hpp Pages: 1 -->
<svg width="528pt" height="373pt"
 viewBox="0.00 0.00 528.06 373.00" xmlns="http://www.w3.org/2000/svg" xmlns:xlink="http://www.w3.org/1999/xlink">
<g id="graph0" class="graph" transform="scale(1 1) rotate(0) translate(4 369)">
<title>language/lib/Catch2/include/internal/benchmark/catch_chronometer.hpp</title>
<polygon fill="white" stroke="transparent" points="-4,4 -4,-369 524.06,-369 524.06,4 -4,4"/>
<!-- Node1 -->
<g id="node1" class="node">
<title>Node1</title>
<g id="a_node1"><a xlink:title=" ">
<polygon fill="#bfbfbf" stroke="black" points="107.14,-323.5 107.14,-364.5 260.14,-364.5 260.14,-323.5 107.14,-323.5"/>
<text text-anchor="start" x="115.14" y="-352.5" font-family="Helvetica,sans-Serif" font-size="10.00">language/lib/Catch2</text>
<text text-anchor="start" x="115.14" y="-341.5" font-family="Helvetica,sans-Serif" font-size="10.00">/include/internal/benchmark</text>
<text text-anchor="middle" x="183.64" y="-330.5" font-family="Helvetica,sans-Serif" font-size="10.00">/catch_chronometer.hpp</text>
</a>
</g>
</g>
<!-- Node2 -->
<g id="node2" class="node">
<title>Node2</title>
<g id="a_node2"><a xlink:href="catch__benchmark_8hpp.html" target="_top" xlink:title=" ">
<polygon fill="white" stroke="black" points="185.14,-78.5 185.14,-119.5 338.14,-119.5 338.14,-78.5 185.14,-78.5"/>
<text text-anchor="start" x="193.14" y="-107.5" font-family="Helvetica,sans-Serif" font-size="10.00">language/lib/Catch2</text>
<text text-anchor="start" x="193.14" y="-96.5" font-family="Helvetica,sans-Serif" font-size="10.00">/include/internal/benchmark</text>
<text text-anchor="middle" x="261.64" y="-85.5" font-family="Helvetica,sans-Serif" font-size="10.00">/catch_benchmark.hpp</text>
</a>
</g>
</g>
<!-- Node1&#45;&gt;Node2 -->
<g id="edge1" class="edge">
<title>Node1&#45;&gt;Node2</title>
<path fill="none" stroke="midnightblue" d="M210.16,-315.63C217.16,-307.05 224.04,-297.16 228.64,-287 254.51,-229.96 260.16,-154.58 261.35,-119.5"/>
<polygon fill="midnightblue" stroke="midnightblue" points="207.33,-313.54 203.47,-323.41 212.64,-318.1 207.33,-313.54"/>
</g>
<!-- Node3 -->
<g id="node3" class="node">
<title>Node3</title>
<g id="a_node3"><a xlink:href="catch__benchmarking__all_8hpp.html" target="_top" xlink:title=" ">
<polygon fill="white" stroke="black" points="129.14,-0.5 129.14,-41.5 288.14,-41.5 288.14,-0.5 129.14,-0.5"/>
<text text-anchor="start" x="137.14" y="-29.5" font-family="Helvetica,sans-Serif" font-size="10.00">language/lib/Catch2</text>
<text text-anchor="start" x="137.14" y="-18.5" font-family="Helvetica,sans-Serif" font-size="10.00">/include/internal/benchmark</text>
<text text-anchor="middle" x="208.64" y="-7.5" font-family="Helvetica,sans-Serif" font-size="10.00">/catch_benchmarking_all.hpp</text>
</a>
</g>
</g>
<!-- Node1&#45;&gt;Node3 -->
<g id="edge16" class="edge">
<title>Node1&#45;&gt;Node3</title>
<path fill="none" stroke="midnightblue" d="M97.22,-336.85C63.67,-329.73 28.4,-315.39 7.64,-287 -6.26,-267.99 2.65,-257.02 7.64,-234 23.79,-159.55 24.23,-131.31 78.64,-78 95.05,-61.92 116.82,-50.11 137.84,-41.61"/>
<polygon fill="midnightblue" stroke="midnightblue" points="96.6,-340.3 107.09,-338.76 97.93,-333.42 96.6,-340.3"/>
</g>
<!-- Node4 -->
<g id="node4" class="node">
<title>Node4</title>
<g id="a_node4"><a xlink:href="catch__benchmark__function_8hpp.html" target="_top" xlink:title=" ">
<polygon fill="white" stroke="black" points="17.14,-240 17.14,-281 220.14,-281 220.14,-240 17.14,-240"/>
<text text-anchor="start" x="25.14" y="-269" font-family="Helvetica,sans-Serif" font-size="10.00">language/lib/Catch2</text>
<text text-anchor="start" x="25.14" y="-258" font-family="Helvetica,sans-Serif" font-size="10.00">/include/internal/benchmark</text>
<text text-anchor="middle" x="118.64" y="-247" font-family="Helvetica,sans-Serif" font-size="10.00">/detail/catch_benchmark_function.hpp</text>
</a>
</g>
</g>
<!-- Node1&#45;&gt;Node4 -->
<g id="edge3" class="edge">
<title>Node1&#45;&gt;Node4</title>
<path fill="none" stroke="midnightblue" d="M161.62,-315.38C152.62,-304.11 142.43,-291.33 134.23,-281.05"/>
<polygon fill="midnightblue" stroke="midnightblue" points="158.94,-317.64 167.91,-323.27 164.41,-313.27 158.94,-317.64"/>
</g>
<!-- Node6 -->
<g id="node6" class="node">
<title>Node6</title>
<g id="a_node6"><a xlink:href="catch__run__for__at__least_8hpp.html" target="_top" xlink:title=" ">
<polygon fill="white" stroke="black" points="290.14,-234.5 290.14,-286.5 443.14,-286.5 443.14,-234.5 290.14,-234.5"/>
<text text-anchor="start" x="298.14" y="-274.5" font-family="Helvetica,sans-Serif" font-size="10.00">language/lib/Catch2</text>
<text text-anchor="start" x="298.14" y="-263.5" font-family="Helvetica,sans-Serif" font-size="10.00">/include/internal/benchmark</text>
<text text-anchor="start" x="298.14" y="-252.5" font-family="Helvetica,sans-Serif" font-size="10.00">/detail/catch_run_for_at</text>
<text text-anchor="middle" x="366.64" y="-241.5" font-family="Helvetica,sans-Serif" font-size="10.00">_least.hpp</text>
</a>
</g>
</g>
<!-- Node1&#45;&gt;Node6 -->
<g id="edge9" class="edge">
<title>Node1&#45;&gt;Node6</title>
<path fill="none" stroke="midnightblue" d="M236.77,-319.34C259.85,-309.06 286.91,-297.01 310.34,-286.58"/>
<polygon fill="midnightblue" stroke="midnightblue" points="235.19,-316.21 227.48,-323.48 238.03,-322.61 235.19,-316.21"/>
</g>
<!-- Node2&#45;&gt;Node3 -->
<g id="edge2" class="edge">
<title>Node2&#45;&gt;Node3</title>
<path fill="none" stroke="midnightblue" d="M242.15,-70.05C235.54,-60.57 228.3,-50.18 222.25,-41.51"/>
<polygon fill="midnightblue" stroke="midnightblue" points="239.4,-72.23 247.99,-78.43 245.14,-68.22 239.4,-72.23"/>
</g>
<!-- Node4&#45;&gt;Node2 -->
<g id="edge7" class="edge">
<title>Node4&#45;&gt;Node2</title>
<path fill="none" stroke="midnightblue" d="M90.78,-232.24C71.82,-210.33 53.09,-179.44 70.64,-156 84.81,-137.09 138.34,-122.4 185.14,-112.82"/>
<polygon fill="midnightblue" stroke="midnightblue" points="88.4,-234.82 97.71,-239.88 93.58,-230.12 88.4,-234.82"/>
</g>
<!-- Node4&#45;&gt;Node3 -->
<g id="edge8" class="edge">
<title>Node4&#45;&gt;Node3</title>
<path fill="none" stroke="midnightblue" d="M84.4,-232.79C74.49,-223.03 64.92,-211.13 59.64,-198 52.68,-180.68 52.05,-173.05 59.64,-156 82.72,-104.2 136.82,-64.04 173.08,-41.7"/>
<polygon fill="midnightblue" stroke="midnightblue" points="82.28,-235.59 91.99,-239.82 87.03,-230.45 82.28,-235.59"/>
</g>
<!-- Node5 -->
<g id="node5" class="node">
<title>Node5</title>
<g id="a_node5"><a xlink:href="catch__execution__plan_8hpp.html" target="_top" xlink:title=" ">
<polygon fill="white" stroke="black" points="80.14,-156.5 80.14,-197.5 233.14,-197.5 233.14,-156.5 80.14,-156.5"/>
<text text-anchor="start" x="88.14" y="-185.5" font-family="Helvetica,sans-Serif" font-size="10.00">language/lib/Catch2</text>
<text text-anchor="start" x="88.14" y="-174.5" font-family="Helvetica,sans-Serif" font-size="10.00">/include/internal/benchmark</text>
<text text-anchor="middle" x="156.64" y="-163.5" font-family="Helvetica,sans-Serif" font-size="10.00">/catch_execution_plan.hpp</text>
</a>
</g>
</g>
<!-- Node4&#45;&gt;Node5 -->
<g id="edge4" class="edge">
<title>Node4&#45;&gt;Node5</title>
<path fill="none" stroke="midnightblue" d="M132.14,-230.56C137.24,-219.62 142.92,-207.43 147.53,-197.55"/>
<polygon fill="midnightblue" stroke="midnightblue" points="128.9,-229.23 127.84,-239.77 135.24,-232.19 128.9,-229.23"/>
</g>
<!-- Node5&#45;&gt;Node2 -->
<g id="edge5" class="edge">
<title>Node5&#45;&gt;Node2</title>
<path fill="none" stroke="midnightblue" d="M192.08,-150.35C206,-140.27 221.72,-128.89 234.69,-119.51"/>
<polygon fill="midnightblue" stroke="midnightblue" points="189.73,-147.73 183.68,-156.43 193.84,-153.4 189.73,-147.73"/>
</g>
<!-- Node5&#45;&gt;Node3 -->
<g id="edge6" class="edge">
<title>Node5&#45;&gt;Node3</title>
<path fill="none" stroke="midnightblue" d="M159.72,-146.32C162.42,-126.51 167.27,-100.12 175.64,-78 180.48,-65.23 188.12,-52.02 194.83,-41.64"/>
<polygon fill="midnightblue" stroke="midnightblue" points="156.24,-145.95 158.47,-156.31 163.19,-146.82 156.24,-145.95"/>
</g>
<!-- Node6&#45;&gt;Node2 -->
<g id="edge14" class="edge">
<title>Node6&#45;&gt;Node2</title>
<path fill="none" stroke="midnightblue" d="M338.78,-226.44C331.61,-217.43 324.1,-207.52 317.64,-198 299.93,-171.89 282.35,-139.86 271.74,-119.68"/>
<polygon fill="midnightblue" stroke="midnightblue" points="336.23,-228.85 345.23,-234.43 341.67,-224.45 336.23,-228.85"/>
</g>
<!-- Node6&#45;&gt;Node3 -->
<g id="edge15" class="edge">
<title>Node6&#45;&gt;Node3</title>
<path fill="none" stroke="midnightblue" d="M452.85,-241.9C476.15,-232.77 498.74,-218.95 512.64,-198 522.97,-182.45 521.92,-172.2 512.64,-156 467.35,-76.92 362.16,-44.41 288.27,-31.11"/>
<polygon fill="midnightblue" stroke="midnightblue" points="451.4,-238.7 443.2,-245.41 453.8,-245.28 451.4,-238.7"/>
</g>
<!-- Node6&#45;&gt;Node5 -->
<g id="edge10" class="edge">
<title>Node6&#45;&gt;Node5</title>
<path fill="none" stroke="midnightblue" d="M292.72,-230.81C264.34,-219.8 232.62,-207.49 206.95,-197.52"/>
<polygon fill="midnightblue" stroke="midnightblue" points="291.62,-234.14 302.21,-234.49 294.15,-227.61 291.62,-234.14"/>
</g>
<!-- Node7 -->
<g id="node7" class="node">
<title>Node7</title>
<g id="a_node7"><a xlink:href="catch__estimate__clock_8hpp.html" target="_top" xlink:title=" ">
<polygon fill="white" stroke="black" points="327.14,-156.5 327.14,-197.5 504.14,-197.5 504.14,-156.5 327.14,-156.5"/>
<text text-anchor="start" x="335.14" y="-185.5" font-family="Helvetica,sans-Serif" font-size="10.00">language/lib/Catch2</text>
<text text-anchor="start" x="335.14" y="-174.5" font-family="Helvetica,sans-Serif" font-size="10.00">/include/internal/benchmark</text>
<text text-anchor="middle" x="415.64" y="-163.5" font-family="Helvetica,sans-Serif" font-size="10.00">/detail/catch_estimate_clock.hpp</text>
</a>
</g>
</g>
<!-- Node6&#45;&gt;Node7 -->
<g id="edge11" class="edge">
<title>Node6&#45;&gt;Node7</title>
<path fill="none" stroke="midnightblue" d="M387.19,-225.32C392.87,-215.87 398.84,-205.94 403.84,-197.63"/>
<polygon fill="midnightblue" stroke="midnightblue" points="384.03,-223.79 381.88,-234.16 390.03,-227.39 384.03,-223.79"/>
</g>
<!-- Node7&#45;&gt;Node2 -->
<g id="edge12" class="edge">
<title>Node7&#45;&gt;Node2</title>
<path fill="none" stroke="midnightblue" d="M366.83,-151.91C345.65,-141.46 321.18,-129.38 301.17,-119.51"/>
<polygon fill="midnightblue" stroke="midnightblue" points="365.47,-155.14 375.98,-156.43 368.57,-148.86 365.47,-155.14"/>
</g>
<!-- Node7&#45;&gt;Node3 -->
<g id="edge13" class="edge">
<title>Node7&#45;&gt;Node3</title>
<path fill="none" stroke="midnightblue" d="M401.2,-147.11C389.16,-125.56 370.2,-96.72 346.64,-78 326.7,-62.16 301.68,-50.21 278.43,-41.52"/>
<polygon fill="midnightblue" stroke="midnightblue" points="398.25,-149.01 406.08,-156.15 404.41,-145.69 398.25,-149.01"/>
</g>
</g>
</svg>
