<?xml version="1.0" encoding="UTF-8" standalone="no"?>
<!DOCTYPE svg PUBLIC "-//W3C//DTD SVG 1.1//EN"
 "http://www.w3.org/Graphics/SVG/1.1/DTD/svg11.dtd">
<!-- Generated by graphviz version 2.43.0 (0)
 -->
<!-- Title: language/lib/Catch2/include/internal/catch_matchers_vector.h Pages: 1 -->
<svg width="648pt" height="397pt"
 viewBox="0.00 0.00 648.02 397.00" xmlns="http://www.w3.org/2000/svg" xmlns:xlink="http://www.w3.org/1999/xlink">
<g id="graph0" class="graph" transform="scale(1 1) rotate(0) translate(4 393)">
<title>language/lib/Catch2/include/internal/catch_matchers_vector.h</title>
<polygon fill="white" stroke="transparent" points="-4,4 -4,-393 644.02,-393 644.02,4 -4,4"/>
<!-- Node1 -->
<g id="node1" class="node">
<title>Node1</title>
<g id="a_node1"><a xlink:title=" ">
<polygon fill="#bfbfbf" stroke="black" points="330.02,-347.5 330.02,-388.5 455.02,-388.5 455.02,-347.5 330.02,-347.5"/>
<text text-anchor="start" x="338.02" y="-376.5" font-family="Helvetica,sans-Serif" font-size="10.00">language/lib/Catch2</text>
<text text-anchor="start" x="338.02" y="-365.5" font-family="Helvetica,sans-Serif" font-size="10.00">/include/internal/catch</text>
<text text-anchor="middle" x="392.52" y="-354.5" font-family="Helvetica,sans-Serif" font-size="10.00">_matchers_vector.h</text>
</a>
</g>
</g>
<!-- Node2 -->
<g id="node2" class="node">
<title>Node2</title>
<g id="a_node2"><a xlink:href="catch__matchers_8h.html" target="_top" xlink:title=" ">
<polygon fill="white" stroke="black" points="21.02,-174 21.02,-193 124.02,-193 124.02,-174 21.02,-174"/>
<text text-anchor="middle" x="72.52" y="-181" font-family="Helvetica,sans-Serif" font-size="10.00">catch_matchers.h</text>
</a>
</g>
</g>
<!-- Node1&#45;&gt;Node2 -->
<g id="edge1" class="edge">
<title>Node1&#45;&gt;Node2</title>
<path fill="none" stroke="midnightblue" d="M358.27,-347.47C293.04,-310.27 152.46,-230.09 96.35,-198.09"/>
<polygon fill="midnightblue" stroke="midnightblue" points="97.92,-194.96 87.5,-193.04 94.45,-201.04 97.92,-194.96"/>
</g>
<!-- Node10 -->
<g id="node10" class="node">
<title>Node10</title>
<g id="a_node10"><a xlink:href="catch__approx_8h.html" target="_top" xlink:title=" ">
<polygon fill="white" stroke="black" points="347.02,-291.5 347.02,-310.5 438.02,-310.5 438.02,-291.5 347.02,-291.5"/>
<text text-anchor="middle" x="392.52" y="-298.5" font-family="Helvetica,sans-Serif" font-size="10.00">catch_approx.h</text>
</a>
</g>
</g>
<!-- Node1&#45;&gt;Node10 -->
<g id="edge10" class="edge">
<title>Node1&#45;&gt;Node10</title>
<path fill="none" stroke="midnightblue" d="M392.52,-347.5C392.52,-339.07 392.52,-329.24 392.52,-320.87"/>
<polygon fill="midnightblue" stroke="midnightblue" points="396.02,-320.65 392.52,-310.65 389.02,-320.65 396.02,-320.65"/>
</g>
<!-- Node19 -->
<g id="node19" class="node">
<title>Node19</title>
<g id="a_node19"><a xlink:title=" ">
<polygon fill="white" stroke="#bfbfbf" points="456.52,-291.5 456.52,-310.5 520.52,-310.5 520.52,-291.5 456.52,-291.5"/>
<text text-anchor="middle" x="488.52" y="-298.5" font-family="Helvetica,sans-Serif" font-size="10.00">algorithm</text>
</a>
</g>
</g>
<!-- Node1&#45;&gt;Node19 -->
<g id="edge30" class="edge">
<title>Node1&#45;&gt;Node19</title>
<path fill="none" stroke="midnightblue" d="M421.32,-347.5C436.04,-337.53 453.64,-325.61 467.14,-316.48"/>
<polygon fill="midnightblue" stroke="midnightblue" points="469.42,-319.16 475.74,-310.65 465.5,-313.36 469.42,-319.16"/>
</g>
<!-- Node3 -->
<g id="node3" class="node">
<title>Node3</title>
<g id="a_node3"><a xlink:href="catch__common_8h.html" target="_top" xlink:title=" ">
<polygon fill="white" stroke="black" points="108.52,-112.5 108.52,-131.5 208.52,-131.5 208.52,-112.5 108.52,-112.5"/>
<text text-anchor="middle" x="158.52" y="-119.5" font-family="Helvetica,sans-Serif" font-size="10.00">catch_common.h</text>
</a>
</g>
</g>
<!-- Node2&#45;&gt;Node3 -->
<g id="edge2" class="edge">
<title>Node2&#45;&gt;Node3</title>
<path fill="none" stroke="midnightblue" d="M84.84,-173.98C98.63,-164.43 121.22,-148.81 137.75,-137.37"/>
<polygon fill="midnightblue" stroke="midnightblue" points="139.99,-140.08 146.22,-131.51 136,-134.32 139.99,-140.08"/>
</g>
<!-- Node7 -->
<g id="node7" class="node">
<title>Node7</title>
<g id="a_node7"><a xlink:title=" ">
<polygon fill="white" stroke="#bfbfbf" points="31.52,-56.5 31.52,-75.5 75.52,-75.5 75.52,-56.5 31.52,-56.5"/>
<text text-anchor="middle" x="53.52" y="-63.5" font-family="Helvetica,sans-Serif" font-size="10.00">string</text>
</a>
</g>
</g>
<!-- Node2&#45;&gt;Node7 -->
<g id="edge8" class="edge">
<title>Node2&#45;&gt;Node7</title>
<path fill="none" stroke="midnightblue" d="M62.95,-173.94C53.39,-164.7 39.31,-148.98 33.52,-132 28.11,-116.15 34.83,-97.91 41.91,-84.79"/>
<polygon fill="midnightblue" stroke="midnightblue" points="45.1,-86.27 47.19,-75.89 39.08,-82.7 45.1,-86.27"/>
</g>
<!-- Node9 -->
<g id="node9" class="node">
<title>Node9</title>
<g id="a_node9"><a xlink:title=" ">
<polygon fill="white" stroke="#bfbfbf" points="43.02,-112.5 43.02,-131.5 90.02,-131.5 90.02,-112.5 43.02,-112.5"/>
<text text-anchor="middle" x="66.52" y="-119.5" font-family="Helvetica,sans-Serif" font-size="10.00">vector</text>
</a>
</g>
</g>
<!-- Node2&#45;&gt;Node9 -->
<g id="edge9" class="edge">
<title>Node2&#45;&gt;Node9</title>
<path fill="none" stroke="midnightblue" d="M71.66,-173.98C70.81,-165.58 69.49,-152.48 68.4,-141.66"/>
<polygon fill="midnightblue" stroke="midnightblue" points="71.86,-141.11 67.37,-131.51 64.9,-141.81 71.86,-141.11"/>
</g>
<!-- Node4 -->
<g id="node4" class="node">
<title>Node4</title>
<g id="a_node4"><a xlink:href="catch__compiler__capabilities_8h.html" target="_top" xlink:title=" ">
<polygon fill="white" stroke="black" points="328.02,-56.5 328.02,-75.5 489.02,-75.5 489.02,-56.5 328.02,-56.5"/>
<text text-anchor="middle" x="408.52" y="-63.5" font-family="Helvetica,sans-Serif" font-size="10.00">catch_compiler_capabilities.h</text>
</a>
</g>
</g>
<!-- Node3&#45;&gt;Node4 -->
<g id="edge3" class="edge">
<title>Node3&#45;&gt;Node4</title>
<path fill="none" stroke="midnightblue" d="M198.13,-112.44C241.74,-103.02 311.92,-87.87 359.09,-77.68"/>
<polygon fill="midnightblue" stroke="midnightblue" points="360.05,-81.05 369.09,-75.52 358.58,-74.21 360.05,-81.05"/>
</g>
<!-- Node6 -->
<g id="node6" class="node">
<title>Node6</title>
<g id="a_node6"><a xlink:title=" ">
<polygon fill="white" stroke="#bfbfbf" points="191.52,-56.5 191.52,-75.5 239.52,-75.5 239.52,-56.5 191.52,-56.5"/>
<text text-anchor="middle" x="215.52" y="-63.5" font-family="Helvetica,sans-Serif" font-size="10.00">iosfwd</text>
</a>
</g>
</g>
<!-- Node3&#45;&gt;Node6 -->
<g id="edge5" class="edge">
<title>Node3&#45;&gt;Node6</title>
<path fill="none" stroke="midnightblue" d="M167.67,-112.32C176.02,-104.42 188.55,-92.55 198.69,-82.94"/>
<polygon fill="midnightblue" stroke="midnightblue" points="201.34,-85.25 206.19,-75.83 196.53,-80.17 201.34,-85.25"/>
</g>
<!-- Node3&#45;&gt;Node7 -->
<g id="edge6" class="edge">
<title>Node3&#45;&gt;Node7</title>
<path fill="none" stroke="midnightblue" d="M141.65,-112.32C124.81,-103.66 98.71,-90.24 79.28,-80.25"/>
<polygon fill="midnightblue" stroke="midnightblue" points="80.84,-77.12 70.35,-75.65 77.64,-83.34 80.84,-77.12"/>
</g>
<!-- Node8 -->
<g id="node8" class="node">
<title>Node8</title>
<g id="a_node8"><a xlink:title=" ">
<polygon fill="white" stroke="#bfbfbf" points="123.52,-56.5 123.52,-75.5 173.52,-75.5 173.52,-56.5 123.52,-56.5"/>
<text text-anchor="middle" x="148.52" y="-63.5" font-family="Helvetica,sans-Serif" font-size="10.00">cstdint</text>
</a>
</g>
</g>
<!-- Node3&#45;&gt;Node8 -->
<g id="edge7" class="edge">
<title>Node3&#45;&gt;Node8</title>
<path fill="none" stroke="midnightblue" d="M156.87,-112.08C155.54,-104.93 153.63,-94.64 151.98,-85.69"/>
<polygon fill="midnightblue" stroke="midnightblue" points="155.4,-84.95 150.14,-75.75 148.52,-86.22 155.4,-84.95"/>
</g>
<!-- Node5 -->
<g id="node5" class="node">
<title>Node5</title>
<g id="a_node5"><a xlink:href="catch__platform_8h.html" target="_top" xlink:title=" ">
<polygon fill="white" stroke="black" points="359.02,-0.5 359.02,-19.5 458.02,-19.5 458.02,-0.5 359.02,-0.5"/>
<text text-anchor="middle" x="408.52" y="-7.5" font-family="Helvetica,sans-Serif" font-size="10.00">catch_platform.h</text>
</a>
</g>
</g>
<!-- Node4&#45;&gt;Node5 -->
<g id="edge4" class="edge">
<title>Node4&#45;&gt;Node5</title>
<path fill="none" stroke="midnightblue" d="M408.52,-56.08C408.52,-49.01 408.52,-38.86 408.52,-29.99"/>
<polygon fill="midnightblue" stroke="midnightblue" points="412.02,-29.75 408.52,-19.75 405.02,-29.75 412.02,-29.75"/>
</g>
<!-- Node11 -->
<g id="node11" class="node">
<title>Node11</title>
<g id="a_node11"><a xlink:href="catch__tostring_8h.html" target="_top" xlink:title=" ">
<polygon fill="white" stroke="black" points="345.02,-235.5 345.02,-254.5 440.02,-254.5 440.02,-235.5 345.02,-235.5"/>
<text text-anchor="middle" x="392.52" y="-242.5" font-family="Helvetica,sans-Serif" font-size="10.00">catch_tostring.h</text>
</a>
</g>
</g>
<!-- Node10&#45;&gt;Node11 -->
<g id="edge11" class="edge">
<title>Node10&#45;&gt;Node11</title>
<path fill="none" stroke="midnightblue" d="M392.52,-291.08C392.52,-284.01 392.52,-273.86 392.52,-264.99"/>
<polygon fill="midnightblue" stroke="midnightblue" points="396.02,-264.75 392.52,-254.75 389.02,-264.75 396.02,-264.75"/>
</g>
<!-- Node13 -->
<g id="node13" class="node">
<title>Node13</title>
<g id="a_node13"><a xlink:title=" ">
<polygon fill="white" stroke="#bfbfbf" points="571.02,-174 571.02,-193 640.02,-193 640.02,-174 571.02,-174"/>
<text text-anchor="middle" x="605.52" y="-181" font-family="Helvetica,sans-Serif" font-size="10.00">type_traits</text>
</a>
</g>
</g>
<!-- Node10&#45;&gt;Node13 -->
<g id="edge29" class="edge">
<title>Node10&#45;&gt;Node13</title>
<path fill="none" stroke="midnightblue" d="M408.53,-291.32C445.39,-271.33 536.49,-221.93 580.68,-197.97"/>
<polygon fill="midnightblue" stroke="midnightblue" points="582.49,-200.97 589.61,-193.12 579.15,-194.81 582.49,-200.97"/>
</g>
<!-- Node11&#45;&gt;Node4 -->
<g id="edge16" class="edge">
<title>Node11&#45;&gt;Node4</title>
<path fill="none" stroke="midnightblue" d="M409.71,-235.39C422.77,-227.79 439.75,-215.39 447.52,-199 464.08,-164.06 461.03,-148.23 447.52,-112 443.34,-100.81 435,-90.56 427.09,-82.68"/>
<polygon fill="midnightblue" stroke="midnightblue" points="429.22,-79.87 419.51,-75.63 424.46,-85 429.22,-79.87"/>
</g>
<!-- Node11&#45;&gt;Node7 -->
<g id="edge15" class="edge">
<title>Node11&#45;&gt;Node7</title>
<path fill="none" stroke="midnightblue" d="M344.98,-241.86C247.73,-236.98 33.34,-223.55 11.52,-199 -18.33,-165.43 17.74,-110.57 39.42,-83.37"/>
<polygon fill="midnightblue" stroke="midnightblue" points="42.19,-85.51 45.85,-75.57 36.79,-81.06 42.19,-85.51"/>
</g>
<!-- Node11&#45;&gt;Node9 -->
<g id="edge12" class="edge">
<title>Node11&#45;&gt;Node9</title>
<path fill="none" stroke="midnightblue" d="M344.81,-238.04C302.8,-231.72 240.52,-219.72 189.52,-199 168.76,-190.57 117.13,-156.93 87.79,-137.35"/>
<polygon fill="midnightblue" stroke="midnightblue" points="89.71,-134.43 79.45,-131.77 85.81,-140.24 89.71,-134.43"/>
</g>
<!-- Node12 -->
<g id="node12" class="node">
<title>Node12</title>
<g id="a_node12"><a xlink:title=" ">
<polygon fill="white" stroke="#bfbfbf" points="507.02,-56.5 507.02,-75.5 560.02,-75.5 560.02,-56.5 507.02,-56.5"/>
<text text-anchor="middle" x="533.52" y="-63.5" font-family="Helvetica,sans-Serif" font-size="10.00">cstddef</text>
</a>
</g>
</g>
<!-- Node11&#45;&gt;Node12 -->
<g id="edge13" class="edge">
<title>Node11&#45;&gt;Node12</title>
<path fill="none" stroke="midnightblue" d="M412.84,-235.45C429.03,-227.82 451.4,-215.33 466.52,-199 498.13,-164.86 518.54,-112.99 527.78,-85.54"/>
<polygon fill="midnightblue" stroke="midnightblue" points="531.22,-86.29 530.96,-75.69 524.56,-84.13 531.22,-86.29"/>
</g>
<!-- Node11&#45;&gt;Node13 -->
<g id="edge14" class="edge">
<title>Node11&#45;&gt;Node13</title>
<path fill="none" stroke="midnightblue" d="M424.32,-235.48C457.39,-226.56 510.66,-212.07 556.52,-199 560.05,-197.99 563.73,-196.93 567.4,-195.86"/>
<polygon fill="midnightblue" stroke="midnightblue" points="568.43,-199.2 577.04,-193.03 566.46,-192.49 568.43,-199.2"/>
</g>
<!-- Node14 -->
<g id="node14" class="node">
<title>Node14</title>
<g id="a_node14"><a xlink:href="catch__stream_8h.html" target="_top" xlink:title=" ">
<polygon fill="white" stroke="black" points="346.52,-174 346.52,-193 438.52,-193 438.52,-174 346.52,-174"/>
<text text-anchor="middle" x="392.52" y="-181" font-family="Helvetica,sans-Serif" font-size="10.00">catch_stream.h</text>
</a>
</g>
</g>
<!-- Node11&#45;&gt;Node14 -->
<g id="edge17" class="edge">
<title>Node11&#45;&gt;Node14</title>
<path fill="none" stroke="midnightblue" d="M392.52,-235.48C392.52,-227.08 392.52,-213.98 392.52,-203.16"/>
<polygon fill="midnightblue" stroke="midnightblue" points="396.02,-203.01 392.52,-193.01 389.02,-203.01 396.02,-203.01"/>
</g>
<!-- Node16 -->
<g id="node16" class="node">
<title>Node16</title>
<g id="a_node16"><a xlink:href="catch__interfaces__enum__values__registry_8h.html" target="_top" xlink:title=" ">
<polygon fill="white" stroke="black" points="198.52,-168.5 198.52,-198.5 328.52,-198.5 328.52,-168.5 198.52,-168.5"/>
<text text-anchor="start" x="206.52" y="-186.5" font-family="Helvetica,sans-Serif" font-size="10.00">catch_interfaces_enum</text>
<text text-anchor="middle" x="263.52" y="-175.5" font-family="Helvetica,sans-Serif" font-size="10.00">_values_registry.h</text>
</a>
</g>
</g>
<!-- Node11&#45;&gt;Node16 -->
<g id="edge22" class="edge">
<title>Node11&#45;&gt;Node16</title>
<path fill="none" stroke="midnightblue" d="M374.03,-235.48C355.58,-226.96 326.65,-213.62 303.01,-202.72"/>
<polygon fill="midnightblue" stroke="midnightblue" points="304.47,-199.53 293.92,-198.52 301.53,-205.89 304.47,-199.53"/>
</g>
<!-- Node14&#45;&gt;Node3 -->
<g id="edge18" class="edge">
<title>Node14&#45;&gt;Node3</title>
<path fill="none" stroke="midnightblue" d="M360.25,-173.93C352.79,-171.96 344.88,-169.9 337.52,-168 291.57,-156.17 238.88,-142.97 202.63,-133.94"/>
<polygon fill="midnightblue" stroke="midnightblue" points="203.41,-130.53 192.86,-131.51 201.72,-137.32 203.41,-130.53"/>
</g>
<!-- Node14&#45;&gt;Node6 -->
<g id="edge19" class="edge">
<title>Node14&#45;&gt;Node6</title>
<path fill="none" stroke="midnightblue" d="M387.41,-173.91C378.32,-159.27 357.95,-129.41 333.52,-112 319.6,-102.08 278.88,-87.56 249.16,-77.71"/>
<polygon fill="midnightblue" stroke="midnightblue" points="250.15,-74.36 239.56,-74.57 247.97,-81.01 250.15,-74.36"/>
</g>
<!-- Node14&#45;&gt;Node12 -->
<g id="edge20" class="edge">
<title>Node14&#45;&gt;Node12</title>
<path fill="none" stroke="midnightblue" d="M403.11,-173.82C426.9,-154.34 484.78,-106.92 514.78,-82.34"/>
<polygon fill="midnightblue" stroke="midnightblue" points="517.28,-84.83 522.8,-75.78 512.84,-79.41 517.28,-84.83"/>
</g>
<!-- Node15 -->
<g id="node15" class="node">
<title>Node15</title>
<g id="a_node15"><a xlink:title=" ">
<polygon fill="white" stroke="#bfbfbf" points="381.02,-112.5 381.02,-131.5 438.02,-131.5 438.02,-112.5 381.02,-112.5"/>
<text text-anchor="middle" x="409.52" y="-119.5" font-family="Helvetica,sans-Serif" font-size="10.00">ostream</text>
</a>
</g>
</g>
<!-- Node14&#45;&gt;Node15 -->
<g id="edge21" class="edge">
<title>Node14&#45;&gt;Node15</title>
<path fill="none" stroke="midnightblue" d="M394.95,-173.98C397.38,-165.49 401.17,-152.2 404.28,-141.32"/>
<polygon fill="midnightblue" stroke="midnightblue" points="407.7,-142.09 407.09,-131.51 400.97,-140.16 407.7,-142.09"/>
</g>
<!-- Node16&#45;&gt;Node9 -->
<g id="edge28" class="edge">
<title>Node16&#45;&gt;Node9</title>
<path fill="none" stroke="midnightblue" d="M216.83,-168.4C180.9,-157.55 132.1,-142.81 99.98,-133.11"/>
<polygon fill="midnightblue" stroke="midnightblue" points="100.76,-129.69 90.18,-130.15 98.74,-136.39 100.76,-129.69"/>
</g>
<!-- Node17 -->
<g id="node17" class="node">
<title>Node17</title>
<g id="a_node17"><a xlink:href="catch__stringref_8h.html" target="_top" xlink:title=" ">
<polygon fill="white" stroke="black" points="226.52,-112.5 226.52,-131.5 324.52,-131.5 324.52,-112.5 226.52,-112.5"/>
<text text-anchor="middle" x="275.52" y="-119.5" font-family="Helvetica,sans-Serif" font-size="10.00">catch_stringref.h</text>
</a>
</g>
</g>
<!-- Node16&#45;&gt;Node17 -->
<g id="edge23" class="edge">
<title>Node16&#45;&gt;Node17</title>
<path fill="none" stroke="midnightblue" d="M266.36,-168.4C267.98,-160.38 270.02,-150.23 271.77,-141.57"/>
<polygon fill="midnightblue" stroke="midnightblue" points="275.22,-142.15 273.77,-131.66 268.36,-140.77 275.22,-142.15"/>
</g>
<!-- Node17&#45;&gt;Node6 -->
<g id="edge26" class="edge">
<title>Node17&#45;&gt;Node6</title>
<path fill="none" stroke="midnightblue" d="M265.88,-112.32C257.01,-104.34 243.64,-92.31 232.91,-82.65"/>
<polygon fill="midnightblue" stroke="midnightblue" points="235.11,-79.92 225.33,-75.83 230.42,-85.13 235.11,-79.92"/>
</g>
<!-- Node17&#45;&gt;Node7 -->
<g id="edge25" class="edge">
<title>Node17&#45;&gt;Node7</title>
<path fill="none" stroke="midnightblue" d="M240.34,-112.44C197.74,-102.08 126.58,-84.77 85.48,-74.77"/>
<polygon fill="midnightblue" stroke="midnightblue" points="86.26,-71.36 75.71,-72.4 84.6,-78.16 86.26,-71.36"/>
</g>
<!-- Node17&#45;&gt;Node12 -->
<g id="edge24" class="edge">
<title>Node17&#45;&gt;Node12</title>
<path fill="none" stroke="midnightblue" d="M321.37,-112.48C364.44,-104.31 430.91,-91.28 497.05,-76.26"/>
<polygon fill="midnightblue" stroke="midnightblue" points="497.83,-79.67 506.8,-74.02 496.27,-72.84 497.83,-79.67"/>
</g>
<!-- Node18 -->
<g id="node18" class="node">
<title>Node18</title>
<g id="a_node18"><a xlink:title=" ">
<polygon fill="white" stroke="#bfbfbf" points="257.52,-56.5 257.52,-75.5 309.52,-75.5 309.52,-56.5 257.52,-56.5"/>
<text text-anchor="middle" x="283.52" y="-63.5" font-family="Helvetica,sans-Serif" font-size="10.00">cassert</text>
</a>
</g>
</g>
<!-- Node17&#45;&gt;Node18 -->
<g id="edge27" class="edge">
<title>Node17&#45;&gt;Node18</title>
<path fill="none" stroke="midnightblue" d="M276.84,-112.08C277.9,-104.93 279.42,-94.64 280.75,-85.69"/>
<polygon fill="midnightblue" stroke="midnightblue" points="284.22,-86.16 282.22,-75.75 277.29,-85.13 284.22,-86.16"/>
</g>
</g>
</svg>
