<?xml version="1.0" encoding="UTF-8" standalone="no"?>
<!DOCTYPE svg PUBLIC "-//W3C//DTD SVG 1.1//EN"
 "http://www.w3.org/Graphics/SVG/1.1/DTD/svg11.dtd">
<!-- Generated by graphviz version 2.43.0 (0)
 -->
<!-- Title: performOptionalSelector Pages: 1 -->
<svg width="521pt" height="66pt"
 viewBox="0.00 0.00 521.00 66.00" xmlns="http://www.w3.org/2000/svg" xmlns:xlink="http://www.w3.org/1999/xlink">
<g id="graph0" class="graph" transform="scale(1 1) rotate(0) translate(4 62)">
<title>performOptionalSelector</title>
<polygon fill="white" stroke="transparent" points="-4,4 -4,-62 517,-62 517,4 -4,4"/>
<!-- Node1 -->
<g id="node1" class="node">
<title>Node1</title>
<g id="a_node1"><a xlink:title=" ">
<polygon fill="#bfbfbf" stroke="black" points="376,-19.5 376,-38.5 513,-38.5 513,-19.5 376,-19.5"/>
<text text-anchor="middle" x="444.5" y="-26.5" font-family="Helvetica,sans-Serif" font-size="10.00">performOptionalSelector</text>
</a>
</g>
</g>
<!-- Node2 -->
<g id="node2" class="node">
<title>Node2</title>
<g id="a_node2"><a xlink:href="namespace_catch_1_1_detail.html#a76e0b8b7e795c2c04e0affe4102bafa0" target="_top" xlink:title=" ">
<polygon fill="white" stroke="black" points="185,-38.5 185,-57.5 340,-57.5 340,-38.5 185,-38.5"/>
<text text-anchor="middle" x="262.5" y="-45.5" font-family="Helvetica,sans-Serif" font-size="10.00">Catch::Detail::getAnnotation</text>
</a>
</g>
</g>
<!-- Node1&#45;&gt;Node2 -->
<g id="edge1" class="edge">
<title>Node1&#45;&gt;Node2</title>
<path fill="none" stroke="midnightblue" d="M366.01,-37.18C357.45,-38.08 348.74,-39 340.19,-39.91"/>
<polygon fill="midnightblue" stroke="midnightblue" points="366.39,-40.66 375.96,-36.13 365.65,-33.7 366.39,-40.66"/>
</g>
<!-- Node4 -->
<g id="node4" class="node">
<title>Node4</title>
<g id="a_node4"><a xlink:href="class_catch_1_1_oc_method.html#a6146e17328d69b0815c1b635e3f8d01f" target="_top" xlink:title=" ">
<polygon fill="white" stroke="black" points="189.5,-0.5 189.5,-19.5 335.5,-19.5 335.5,-0.5 189.5,-0.5"/>
<text text-anchor="middle" x="262.5" y="-7.5" font-family="Helvetica,sans-Serif" font-size="10.00">&#45;[Catch::OcMethod invoke]</text>
</a>
</g>
</g>
<!-- Node1&#45;&gt;Node4 -->
<g id="edge3" class="edge">
<title>Node1&#45;&gt;Node4</title>
<path fill="none" stroke="midnightblue" d="M365.98,-20.82C355.9,-19.75 345.61,-18.67 335.63,-17.61"/>
<polygon fill="midnightblue" stroke="midnightblue" points="365.65,-24.3 375.96,-21.87 366.39,-17.34 365.65,-24.3"/>
</g>
<!-- Node3 -->
<g id="node3" class="node">
<title>Node3</title>
<g id="a_node3"><a xlink:href="namespace_catch.html#ad0c3dd7b4c55aeb3a31a7a8b13c17cfb" target="_top" xlink:title=" ">
<polygon fill="white" stroke="black" points="0,-38.5 0,-57.5 149,-57.5 149,-38.5 0,-38.5"/>
<text text-anchor="middle" x="74.5" y="-45.5" font-family="Helvetica,sans-Serif" font-size="10.00">Catch::registerTestMethods</text>
</a>
</g>
</g>
<!-- Node2&#45;&gt;Node3 -->
<g id="edge2" class="edge">
<title>Node2&#45;&gt;Node3</title>
<path fill="none" stroke="midnightblue" d="M174.74,-48C166.15,-48 157.49,-48 149.06,-48"/>
<polygon fill="midnightblue" stroke="midnightblue" points="174.77,-51.5 184.77,-48 174.77,-44.5 174.77,-51.5"/>
</g>
</g>
</svg>
