<?xml version="1.0" encoding="UTF-8" standalone="no"?>
<!DOCTYPE svg PUBLIC "-//W3C//DTD SVG 1.1//EN"
 "http://www.w3.org/Graphics/SVG/1.1/DTD/svg11.dtd">
<!-- Generated by graphviz version 2.43.0 (0)
 -->
<!-- Title: language/lib/Catch2/include/internal/benchmark/detail/catch_complete_invoke.hpp Pages: 1 -->
<!--zoomable 330 -->
<svg id="main" version="1.1" xmlns="http://www.w3.org/2000/svg" xmlns:xlink="http://www.w3.org/1999/xlink" xml:space="preserve" onload="init(evt)">
<style type="text/css"><![CDATA[
.edge:hover path { stroke: red; }
.edge:hover polygon { stroke: red; fill: red; }
]]></style>
<script type="text/javascript"><![CDATA[
var edges = document.getElementsByTagName('g');
if (edges && edges.length) {
  for (var i=0;i<edges.length;i++) {
    if (edges[i].id.substr(0,4)=='edge') {
      edges[i].setAttribute('class','edge');
    }
  }
}
]]></script>
        <defs>
                <circle id="rim" cx="0" cy="0" r="7"/>
                <circle id="rim2" cx="0" cy="0" r="3.5"/>
                <g id="zoomPlus">
                        <use xlink:href="#rim" fill="#404040">
                                <set attributeName="fill" to="#808080" begin="zoomplus.mouseover" end="zoomplus.mouseout"/>
                        </use>
                        <path d="M-4,0h8M0,-4v8" fill="none" stroke="white" stroke-width="1.5" pointer-events="none"/>
                </g>
                <g id="zoomMin">
                        <use xlink:href="#rim" fill="#404040">
                                <set attributeName="fill" to="#808080" begin="zoomminus.mouseover" end="zoomminus.mouseout"/>
                        </use>
                        <path d="M-4,0h8" fill="none" stroke="white" stroke-width="1.5" pointer-events="none"/>
                </g>
                <g id="dirArrow">
                        <path fill="none" stroke="white" stroke-width="1.5" d="M0,-3.0v7 M-2.5,-0.5L0,-3.0L2.5,-0.5"/>
                </g>
               <g id="resetDef">
                       <use xlink:href="#rim2" fill="#404040">
                               <set attributeName="fill" to="#808080" begin="reset.mouseover" end="reset.mouseout"/>
                       </use>
               </g>
        </defs>

<script type="text/javascript">
var viewWidth = 594;
var viewHeight = 330;
var sectionId = 'dynsection-0';
</script>
<script xlink:href="svgpan.js"/>
<svg id="graph" class="graph">
<g id="viewport">
<title>language/lib/Catch2/include/internal/benchmark/detail/catch_complete_invoke.hpp</title>
<polygon fill="white" stroke="transparent" points="-4,4 -4,-326 590,-326 590,4 -4,4"/>
<!-- Node1 -->
<g id="node1" class="node">
<title>Node1</title>
<g id="a_node1"><a xlink:title=" ">
<polygon fill="#bfbfbf" stroke="black" points="376.5,-280.5 376.5,-321.5 562.5,-321.5 562.5,-280.5 376.5,-280.5"/>
<text text-anchor="start" x="384.5" y="-309.5" font-family="Helvetica,sans-Serif" font-size="10.00">language/lib/Catch2</text>
<text text-anchor="start" x="384.5" y="-298.5" font-family="Helvetica,sans-Serif" font-size="10.00">/include/internal/benchmark</text>
<text text-anchor="middle" x="469.5" y="-287.5" font-family="Helvetica,sans-Serif" font-size="10.00">/detail/catch_complete_invoke.hpp</text>
</a>
</g>
</g>
<!-- Node2 -->
<g id="node2" class="node">
<title>Node2</title>
<g id="a_node2"><a xlink:href="catch__enforce_8h.html" target="_top" xlink:title=" ">
<polygon fill="white" stroke="black" points="240.5,-224.5 240.5,-243.5 352.5,-243.5 352.5,-224.5 240.5,-224.5"/>
<text text-anchor="middle" x="296.5" y="-231.5" font-family="Helvetica,sans-Serif" font-size="10.00">../../catch_enforce.h</text>
</a>
</g>
</g>
<!-- Node1&#45;&gt;Node2 -->
<g id="edge1" class="edge">
<title>Node1&#45;&gt;Node2</title>
<path fill="none" stroke="midnightblue" d="M417.59,-280.5C388.9,-269.72 354.13,-256.65 329.22,-247.29"/>
<polygon fill="midnightblue" stroke="midnightblue" points="330.12,-243.89 319.53,-243.65 327.66,-250.45 330.12,-243.89"/>
</g>
<!-- Node13 -->
<g id="node13" class="node">
<title>Node13</title>
<g id="a_node13"><a xlink:href="catch__meta_8hpp.html" target="_top" xlink:title=" ">
<polygon fill="white" stroke="black" points="371,-224.5 371,-243.5 484,-243.5 484,-224.5 371,-224.5"/>
<text text-anchor="middle" x="427.5" y="-231.5" font-family="Helvetica,sans-Serif" font-size="10.00">../../catch_meta.hpp</text>
</a>
</g>
</g>
<!-- Node1&#45;&gt;Node13 -->
<g id="edge15" class="edge">
<title>Node1&#45;&gt;Node13</title>
<path fill="none" stroke="midnightblue" d="M456.9,-280.5C451.08,-271.49 444.23,-260.89 438.6,-252.19"/>
<polygon fill="midnightblue" stroke="midnightblue" points="441.46,-250.15 433.09,-243.65 435.58,-253.95 441.46,-250.15"/>
</g>
<!-- Node14 -->
<g id="node14" class="node">
<title>Node14</title>
<g id="a_node14"><a xlink:title=" ">
<polygon fill="white" stroke="#bfbfbf" points="470,-168.5 470,-187.5 539,-187.5 539,-168.5 470,-168.5"/>
<text text-anchor="middle" x="504.5" y="-175.5" font-family="Helvetica,sans-Serif" font-size="10.00">type_traits</text>
</a>
</g>
</g>
<!-- Node1&#45;&gt;Node14 -->
<g id="edge17" class="edge">
<title>Node1&#45;&gt;Node14</title>
<path fill="none" stroke="midnightblue" d="M479.23,-280.47C484.14,-269.9 489.83,-256.48 493.5,-244 498,-228.71 500.86,-210.83 502.53,-197.7"/>
<polygon fill="midnightblue" stroke="midnightblue" points="506.03,-197.9 503.71,-187.56 499.08,-197.09 506.03,-197.9"/>
</g>
<!-- Node15 -->
<g id="node15" class="node">
<title>Node15</title>
<g id="a_node15"><a xlink:title=" ">
<polygon fill="white" stroke="#bfbfbf" points="541,-224.5 541,-243.5 586,-243.5 586,-224.5 541,-224.5"/>
<text text-anchor="middle" x="563.5" y="-231.5" font-family="Helvetica,sans-Serif" font-size="10.00">utility</text>
</a>
</g>
</g>
<!-- Node1&#45;&gt;Node15 -->
<g id="edge18" class="edge">
<title>Node1&#45;&gt;Node15</title>
<path fill="none" stroke="midnightblue" d="M497.7,-280.5C512.12,-270.53 529.35,-258.61 542.56,-249.48"/>
<polygon fill="midnightblue" stroke="midnightblue" points="544.75,-252.22 550.99,-243.65 540.77,-246.46 544.75,-252.22"/>
</g>
<!-- Node3 -->
<g id="node3" class="node">
<title>Node3</title>
<g id="a_node3"><a xlink:href="catch__common_8h.html" target="_top" xlink:title=" ">
<polygon fill="white" stroke="black" points="178.5,-112.5 178.5,-131.5 278.5,-131.5 278.5,-112.5 178.5,-112.5"/>
<text text-anchor="middle" x="228.5" y="-119.5" font-family="Helvetica,sans-Serif" font-size="10.00">catch_common.h</text>
</a>
</g>
</g>
<!-- Node2&#45;&gt;Node3 -->
<g id="edge2" class="edge">
<title>Node2&#45;&gt;Node3</title>
<path fill="none" stroke="midnightblue" d="M284.77,-224.2C274.44,-215.89 259.66,-202.56 250.5,-188 241.48,-173.66 235.69,-155.2 232.33,-141.62"/>
<polygon fill="midnightblue" stroke="midnightblue" points="235.68,-140.54 230.06,-131.55 228.85,-142.08 235.68,-140.54"/>
</g>
<!-- Node4 -->
<g id="node4" class="node">
<title>Node4</title>
<g id="a_node4"><a xlink:href="catch__compiler__capabilities_8h.html" target="_top" xlink:title=" ">
<polygon fill="white" stroke="black" points="0,-56.5 0,-75.5 161,-75.5 161,-56.5 0,-56.5"/>
<text text-anchor="middle" x="80.5" y="-63.5" font-family="Helvetica,sans-Serif" font-size="10.00">catch_compiler_capabilities.h</text>
</a>
</g>
</g>
<!-- Node2&#45;&gt;Node4 -->
<g id="edge8" class="edge">
<title>Node2&#45;&gt;Node4</title>
<path fill="none" stroke="midnightblue" d="M285.18,-224.39C273.29,-215.35 254.06,-200.7 237.5,-188 187.75,-149.86 129.31,-104.73 99.74,-81.87"/>
<polygon fill="midnightblue" stroke="midnightblue" points="101.58,-78.87 91.53,-75.53 97.3,-84.41 101.58,-78.87"/>
</g>
<!-- Node9 -->
<g id="node9" class="node">
<title>Node9</title>
<g id="a_node9"><a xlink:href="catch__stream_8h.html" target="_top" xlink:title=" ">
<polygon fill="white" stroke="black" points="259.5,-168.5 259.5,-187.5 351.5,-187.5 351.5,-168.5 259.5,-168.5"/>
<text text-anchor="middle" x="305.5" y="-175.5" font-family="Helvetica,sans-Serif" font-size="10.00">catch_stream.h</text>
</a>
</g>
</g>
<!-- Node2&#45;&gt;Node9 -->
<g id="edge9" class="edge">
<title>Node2&#45;&gt;Node9</title>
<path fill="none" stroke="midnightblue" d="M297.99,-224.08C299.18,-216.93 300.89,-206.64 302.38,-197.69"/>
<polygon fill="midnightblue" stroke="midnightblue" points="305.85,-198.19 304.04,-187.75 298.95,-197.04 305.85,-198.19"/>
</g>
<!-- Node12 -->
<g id="node12" class="node">
<title>Node12</title>
<g id="a_node12"><a xlink:title=" ">
<polygon fill="white" stroke="#bfbfbf" points="370,-168.5 370,-187.5 435,-187.5 435,-168.5 370,-168.5"/>
<text text-anchor="middle" x="402.5" y="-175.5" font-family="Helvetica,sans-Serif" font-size="10.00">exception</text>
</a>
</g>
</g>
<!-- Node2&#45;&gt;Node12 -->
<g id="edge14" class="edge">
<title>Node2&#45;&gt;Node12</title>
<path fill="none" stroke="midnightblue" d="M313.53,-224.32C330.53,-215.66 356.88,-202.24 376.49,-192.25"/>
<polygon fill="midnightblue" stroke="midnightblue" points="378.19,-195.31 385.51,-187.65 375.01,-189.08 378.19,-195.31"/>
</g>
<!-- Node3&#45;&gt;Node4 -->
<g id="edge3" class="edge">
<title>Node3&#45;&gt;Node4</title>
<path fill="none" stroke="midnightblue" d="M205.05,-112.44C180.37,-103.44 141.31,-89.19 113.52,-79.05"/>
<polygon fill="midnightblue" stroke="midnightblue" points="114.44,-75.66 103.84,-75.52 112.04,-82.23 114.44,-75.66"/>
</g>
<!-- Node6 -->
<g id="node6" class="node">
<title>Node6</title>
<g id="a_node6"><a xlink:title=" ">
<polygon fill="white" stroke="#bfbfbf" points="309.5,-56.5 309.5,-75.5 357.5,-75.5 357.5,-56.5 309.5,-56.5"/>
<text text-anchor="middle" x="333.5" y="-63.5" font-family="Helvetica,sans-Serif" font-size="10.00">iosfwd</text>
</a>
</g>
</g>
<!-- Node3&#45;&gt;Node6 -->
<g id="edge5" class="edge">
<title>Node3&#45;&gt;Node6</title>
<path fill="none" stroke="midnightblue" d="M245.37,-112.32C262.21,-103.66 288.31,-90.24 307.74,-80.25"/>
<polygon fill="midnightblue" stroke="midnightblue" points="309.38,-83.34 316.67,-75.65 306.18,-77.12 309.38,-83.34"/>
</g>
<!-- Node7 -->
<g id="node7" class="node">
<title>Node7</title>
<g id="a_node7"><a xlink:title=" ">
<polygon fill="white" stroke="#bfbfbf" points="179.5,-56.5 179.5,-75.5 223.5,-75.5 223.5,-56.5 179.5,-56.5"/>
<text text-anchor="middle" x="201.5" y="-63.5" font-family="Helvetica,sans-Serif" font-size="10.00">string</text>
</a>
</g>
</g>
<!-- Node3&#45;&gt;Node7 -->
<g id="edge6" class="edge">
<title>Node3&#45;&gt;Node7</title>
<path fill="none" stroke="midnightblue" d="M224.04,-112.08C220.35,-104.69 214.98,-93.95 210.41,-84.81"/>
<polygon fill="midnightblue" stroke="midnightblue" points="213.48,-83.13 205.88,-75.75 207.22,-86.26 213.48,-83.13"/>
</g>
<!-- Node8 -->
<g id="node8" class="node">
<title>Node8</title>
<g id="a_node8"><a xlink:title=" ">
<polygon fill="white" stroke="#bfbfbf" points="241.5,-56.5 241.5,-75.5 291.5,-75.5 291.5,-56.5 241.5,-56.5"/>
<text text-anchor="middle" x="266.5" y="-63.5" font-family="Helvetica,sans-Serif" font-size="10.00">cstdint</text>
</a>
</g>
</g>
<!-- Node3&#45;&gt;Node8 -->
<g id="edge7" class="edge">
<title>Node3&#45;&gt;Node8</title>
<path fill="none" stroke="midnightblue" d="M234.77,-112.08C240.14,-104.46 248.02,-93.26 254.58,-83.94"/>
<polygon fill="midnightblue" stroke="midnightblue" points="257.45,-85.94 260.34,-75.75 251.72,-81.91 257.45,-85.94"/>
</g>
<!-- Node5 -->
<g id="node5" class="node">
<title>Node5</title>
<g id="a_node5"><a xlink:href="catch__platform_8h.html" target="_top" xlink:title=" ">
<polygon fill="white" stroke="black" points="31,-0.5 31,-19.5 130,-19.5 130,-0.5 31,-0.5"/>
<text text-anchor="middle" x="80.5" y="-7.5" font-family="Helvetica,sans-Serif" font-size="10.00">catch_platform.h</text>
</a>
</g>
</g>
<!-- Node4&#45;&gt;Node5 -->
<g id="edge4" class="edge">
<title>Node4&#45;&gt;Node5</title>
<path fill="none" stroke="midnightblue" d="M80.5,-56.08C80.5,-49.01 80.5,-38.86 80.5,-29.99"/>
<polygon fill="midnightblue" stroke="midnightblue" points="84,-29.75 80.5,-19.75 77,-29.75 84,-29.75"/>
</g>
<!-- Node9&#45;&gt;Node3 -->
<g id="edge10" class="edge">
<title>Node9&#45;&gt;Node3</title>
<path fill="none" stroke="midnightblue" d="M293.13,-168.32C281.34,-160.06 263.37,-147.45 249.36,-137.63"/>
<polygon fill="midnightblue" stroke="midnightblue" points="251.04,-134.53 240.84,-131.65 247.02,-140.26 251.04,-134.53"/>
</g>
<!-- Node9&#45;&gt;Node6 -->
<g id="edge11" class="edge">
<title>Node9&#45;&gt;Node6</title>
<path fill="none" stroke="midnightblue" d="M307.7,-168.37C312.22,-150.62 322.64,-109.67 328.77,-85.6"/>
<polygon fill="midnightblue" stroke="midnightblue" points="332.24,-86.15 331.31,-75.59 325.45,-84.42 332.24,-86.15"/>
</g>
<!-- Node10 -->
<g id="node10" class="node">
<title>Node10</title>
<g id="a_node10"><a xlink:title=" ">
<polygon fill="white" stroke="#bfbfbf" points="335,-112.5 335,-131.5 388,-131.5 388,-112.5 335,-112.5"/>
<text text-anchor="middle" x="361.5" y="-119.5" font-family="Helvetica,sans-Serif" font-size="10.00">cstddef</text>
</a>
</g>
</g>
<!-- Node9&#45;&gt;Node10 -->
<g id="edge12" class="edge">
<title>Node9&#45;&gt;Node10</title>
<path fill="none" stroke="midnightblue" d="M314.5,-168.32C322.69,-160.42 335.01,-148.55 344.97,-138.94"/>
<polygon fill="midnightblue" stroke="midnightblue" points="347.57,-141.29 352.34,-131.83 342.71,-136.26 347.57,-141.29"/>
</g>
<!-- Node11 -->
<g id="node11" class="node">
<title>Node11</title>
<g id="a_node11"><a xlink:title=" ">
<polygon fill="white" stroke="#bfbfbf" points="406,-112.5 406,-131.5 463,-131.5 463,-112.5 406,-112.5"/>
<text text-anchor="middle" x="434.5" y="-119.5" font-family="Helvetica,sans-Serif" font-size="10.00">ostream</text>
</a>
</g>
</g>
<!-- Node9&#45;&gt;Node11 -->
<g id="edge13" class="edge">
<title>Node9&#45;&gt;Node11</title>
<path fill="none" stroke="midnightblue" d="M325.94,-168.44C347.17,-159.56 380.6,-145.56 404.75,-135.45"/>
<polygon fill="midnightblue" stroke="midnightblue" points="406.28,-138.61 414.16,-131.52 403.58,-132.15 406.28,-138.61"/>
</g>
<!-- Node13&#45;&gt;Node14 -->
<g id="edge16" class="edge">
<title>Node13&#45;&gt;Node14</title>
<path fill="none" stroke="midnightblue" d="M439.87,-224.32C451.66,-216.06 469.63,-203.45 483.64,-193.63"/>
<polygon fill="midnightblue" stroke="midnightblue" points="485.98,-196.26 492.16,-187.65 481.96,-190.53 485.98,-196.26"/>
</g>
</g>
</svg>
        <g id="navigator" transform="translate(0 0)" fill="#404254">
                <rect fill="#f2f5e9" fill-opacity="0.5" stroke="#606060" stroke-width=".5" x="0" y="0" width="60" height="60"/>
                <use id="zoomplus" xlink:href="#zoomPlus" x="17" y="9" onmousedown="handleZoom(evt,'in')"/>
                <use id="zoomminus" xlink:href="#zoomMin" x="42" y="9" onmousedown="handleZoom(evt,'out')"/>
                <use id="reset" xlink:href="#resetDef" x="30" y="36" onmousedown="handleReset()"/>
                <g id="arrowUp" xlink:href="#dirArrow" transform="translate(30 24)" onmousedown="handlePan(0,-1)">
                  <use xlink:href="#rim" fill="#404040">
                        <set attributeName="fill" to="#808080" begin="arrowUp.mouseover" end="arrowUp.mouseout"/>
                  </use>
                  <path fill="none" stroke="white" stroke-width="1.5" d="M0,-3.0v7 M-2.5,-0.5L0,-3.0L2.5,-0.5"/>
                </g>
                <g id="arrowRight" xlink:href="#dirArrow" transform="rotate(90) translate(36 -43)" onmousedown="handlePan(1,0)">
                  <use xlink:href="#rim" fill="#404040">
                        <set attributeName="fill" to="#808080" begin="arrowRight.mouseover" end="arrowRight.mouseout"/>
                  </use>
                  <path fill="none" stroke="white" stroke-width="1.5" d="M0,-3.0v7 M-2.5,-0.5L0,-3.0L2.5,-0.5"/>
                </g>
                <g id="arrowDown" xlink:href="#dirArrow" transform="rotate(180) translate(-30 -48)" onmousedown="handlePan(0,1)">
                  <use xlink:href="#rim" fill="#404040">
                        <set attributeName="fill" to="#808080" begin="arrowDown.mouseover" end="arrowDown.mouseout"/>
                  </use>
                  <path fill="none" stroke="white" stroke-width="1.5" d="M0,-3.0v7 M-2.5,-0.5L0,-3.0L2.5,-0.5"/>
                </g>
                <g id="arrowLeft" xlink:href="#dirArrow" transform="rotate(270) translate(-36 17)" onmousedown="handlePan(-1,0)">
                  <use xlink:href="#rim" fill="#404040">
                        <set attributeName="fill" to="#808080" begin="arrowLeft.mouseover" end="arrowLeft.mouseout"/>
                  </use>
                  <path fill="none" stroke="white" stroke-width="1.5" d="M0,-3.0v7 M-2.5,-0.5L0,-3.0L2.5,-0.5"/>
                </g>
        </g>
        <svg viewBox="0 0 15 15" width="100%" height="30px" preserveAspectRatio="xMaxYMin meet">
         <g id="arrow_out" transform="scale(0.3 0.3)">
          <a xlink:href="catch__complete__invoke_8hpp__incl_org.svg" target="_base">
           <rect id="button" ry="5" rx="5" y="6" x="6" height="38" width="38"
                fill="#f2f5e9" fill-opacity="0.5" stroke="#606060" stroke-width="1.0"/>
           <path id="arrow"
             d="M 11.500037,31.436501 C 11.940474,20.09759 22.043105,11.32322 32.158766,21.979434 L 37.068811,17.246167 C 37.068811,17.246167 37.088388,32 37.088388,32 L 22.160133,31.978069 C 22.160133,31.978069 26.997745,27.140456 26.997745,27.140456 C 18.528582,18.264221 13.291696,25.230495 11.500037,31.436501 z"
             style="fill:#404040;"/>
          </a>
         </g>
        </svg>
</svg>
