<?xml version="1.0" encoding="UTF-8" standalone="no"?>
<!DOCTYPE svg PUBLIC "-//W3C//DTD SVG 1.1//EN"
 "http://www.w3.org/Graphics/SVG/1.1/DTD/svg11.dtd">
<!-- Generated by graphviz version 2.43.0 (0)
 -->
<!-- Title: language/lib/Catch2/include/internal/benchmark/catch_sample_analysis.hpp Pages: 1 -->
<svg width="713pt" height="162pt"
 viewBox="0.00 0.00 712.50 162.00" xmlns="http://www.w3.org/2000/svg" xmlns:xlink="http://www.w3.org/1999/xlink">
<g id="graph0" class="graph" transform="scale(1 1) rotate(0) translate(4 158)">
<title>language/lib/Catch2/include/internal/benchmark/catch_sample_analysis.hpp</title>
<polygon fill="white" stroke="transparent" points="-4,4 -4,-158 708.5,-158 708.5,4 -4,4"/>
<!-- Node1 -->
<g id="node1" class="node">
<title>Node1</title>
<g id="a_node1"><a xlink:title=" ">
<polygon fill="#bfbfbf" stroke="black" points="396,-112.5 396,-153.5 550,-153.5 550,-112.5 396,-112.5"/>
<text text-anchor="start" x="404" y="-141.5" font-family="Helvetica,sans-Serif" font-size="10.00">language/lib/Catch2</text>
<text text-anchor="start" x="404" y="-130.5" font-family="Helvetica,sans-Serif" font-size="10.00">/include/internal/benchmark</text>
<text text-anchor="middle" x="473" y="-119.5" font-family="Helvetica,sans-Serif" font-size="10.00">/catch_sample_analysis.hpp</text>
</a>
</g>
</g>
<!-- Node2 -->
<g id="node2" class="node">
<title>Node2</title>
<g id="a_node2"><a xlink:href="catch__clock_8hpp.html" target="_top" xlink:title=" ">
<polygon fill="white" stroke="black" points="8.5,-56.5 8.5,-75.5 103.5,-75.5 103.5,-56.5 8.5,-56.5"/>
<text text-anchor="middle" x="56" y="-63.5" font-family="Helvetica,sans-Serif" font-size="10.00">catch_clock.hpp</text>
</a>
</g>
</g>
<!-- Node1&#45;&gt;Node2 -->
<g id="edge1" class="edge">
<title>Node1&#45;&gt;Node2</title>
<path fill="none" stroke="midnightblue" d="M395.74,-120.03C325.12,-109.08 217.47,-92.36 113.62,-76.09"/>
<polygon fill="midnightblue" stroke="midnightblue" points="114.01,-72.61 103.58,-74.52 112.92,-79.53 114.01,-72.61"/>
</g>
<!-- Node5 -->
<g id="node5" class="node">
<title>Node5</title>
<g id="a_node5"><a xlink:href="catch__estimate_8hpp.html" target="_top" xlink:title=" ">
<polygon fill="white" stroke="black" points="121.5,-56.5 121.5,-75.5 234.5,-75.5 234.5,-56.5 121.5,-56.5"/>
<text text-anchor="middle" x="178" y="-63.5" font-family="Helvetica,sans-Serif" font-size="10.00">catch_estimate.hpp</text>
</a>
</g>
</g>
<!-- Node1&#45;&gt;Node5 -->
<g id="edge4" class="edge">
<title>Node1&#45;&gt;Node5</title>
<path fill="none" stroke="midnightblue" d="M395.88,-115.01C342.39,-103.22 272.78,-87.88 226.81,-77.75"/>
<polygon fill="midnightblue" stroke="midnightblue" points="227.32,-74.28 216.8,-75.55 225.81,-81.12 227.32,-74.28"/>
</g>
<!-- Node6 -->
<g id="node6" class="node">
<title>Node6</title>
<g id="a_node6"><a xlink:href="catch__outlier__classification_8hpp.html" target="_top" xlink:title=" ">
<polygon fill="white" stroke="black" points="253,-56.5 253,-75.5 423,-75.5 423,-56.5 253,-56.5"/>
<text text-anchor="middle" x="338" y="-63.5" font-family="Helvetica,sans-Serif" font-size="10.00">catch_outlier_classification.hpp</text>
</a>
</g>
</g>
<!-- Node1&#45;&gt;Node6 -->
<g id="edge5" class="edge">
<title>Node1&#45;&gt;Node6</title>
<path fill="none" stroke="midnightblue" d="M432.5,-112.5C410.7,-102.01 384.42,-89.35 365.11,-80.05"/>
<polygon fill="midnightblue" stroke="midnightblue" points="366.5,-76.84 355.97,-75.65 363.46,-83.14 366.5,-76.84"/>
</g>
<!-- Node7 -->
<g id="node7" class="node">
<title>Node7</title>
<g id="a_node7"><a xlink:title=" ">
<polygon fill="white" stroke="#bfbfbf" points="441,-56.5 441,-75.5 505,-75.5 505,-56.5 441,-56.5"/>
<text text-anchor="middle" x="473" y="-63.5" font-family="Helvetica,sans-Serif" font-size="10.00">algorithm</text>
</a>
</g>
</g>
<!-- Node1&#45;&gt;Node7 -->
<g id="edge6" class="edge">
<title>Node1&#45;&gt;Node7</title>
<path fill="none" stroke="midnightblue" d="M473,-112.5C473,-104.07 473,-94.24 473,-85.87"/>
<polygon fill="midnightblue" stroke="midnightblue" points="476.5,-85.65 473,-75.65 469.5,-85.65 476.5,-85.65"/>
</g>
<!-- Node8 -->
<g id="node8" class="node">
<title>Node8</title>
<g id="a_node8"><a xlink:title=" ">
<polygon fill="white" stroke="#bfbfbf" points="523.5,-56.5 523.5,-75.5 570.5,-75.5 570.5,-56.5 523.5,-56.5"/>
<text text-anchor="middle" x="547" y="-63.5" font-family="Helvetica,sans-Serif" font-size="10.00">vector</text>
</a>
</g>
</g>
<!-- Node1&#45;&gt;Node8 -->
<g id="edge7" class="edge">
<title>Node1&#45;&gt;Node8</title>
<path fill="none" stroke="midnightblue" d="M495.2,-112.5C506.22,-102.82 519.34,-91.3 529.61,-82.27"/>
<polygon fill="midnightblue" stroke="midnightblue" points="531.95,-84.88 537.15,-75.65 527.33,-79.62 531.95,-84.88"/>
</g>
<!-- Node9 -->
<g id="node9" class="node">
<title>Node9</title>
<g id="a_node9"><a xlink:title=" ">
<polygon fill="white" stroke="#bfbfbf" points="589,-56.5 589,-75.5 633,-75.5 633,-56.5 589,-56.5"/>
<text text-anchor="middle" x="611" y="-63.5" font-family="Helvetica,sans-Serif" font-size="10.00">string</text>
</a>
</g>
</g>
<!-- Node1&#45;&gt;Node9 -->
<g id="edge8" class="edge">
<title>Node1&#45;&gt;Node9</title>
<path fill="none" stroke="midnightblue" d="M514.4,-112.5C536.78,-101.96 563.8,-89.23 583.56,-79.92"/>
<polygon fill="midnightblue" stroke="midnightblue" points="585.07,-83.08 592.63,-75.65 582.09,-76.75 585.07,-83.08"/>
</g>
<!-- Node10 -->
<g id="node10" class="node">
<title>Node10</title>
<g id="a_node10"><a xlink:title=" ">
<polygon fill="white" stroke="#bfbfbf" points="651.5,-56.5 651.5,-75.5 704.5,-75.5 704.5,-56.5 651.5,-56.5"/>
<text text-anchor="middle" x="678" y="-63.5" font-family="Helvetica,sans-Serif" font-size="10.00">iterator</text>
</a>
</g>
</g>
<!-- Node1&#45;&gt;Node10 -->
<g id="edge9" class="edge">
<title>Node1&#45;&gt;Node10</title>
<path fill="none" stroke="midnightblue" d="M534.51,-112.5C569.32,-101.46 611.69,-88.03 641.33,-78.63"/>
<polygon fill="midnightblue" stroke="midnightblue" points="642.77,-81.84 651.25,-75.48 640.66,-75.17 642.77,-81.84"/>
</g>
<!-- Node3 -->
<g id="node3" class="node">
<title>Node3</title>
<g id="a_node3"><a xlink:title=" ">
<polygon fill="white" stroke="#bfbfbf" points="0,-0.5 0,-19.5 50,-19.5 50,-0.5 0,-0.5"/>
<text text-anchor="middle" x="25" y="-7.5" font-family="Helvetica,sans-Serif" font-size="10.00">chrono</text>
</a>
</g>
</g>
<!-- Node2&#45;&gt;Node3 -->
<g id="edge2" class="edge">
<title>Node2&#45;&gt;Node3</title>
<path fill="none" stroke="midnightblue" d="M50.88,-56.08C46.59,-48.61 40.34,-37.72 35.06,-28.52"/>
<polygon fill="midnightblue" stroke="midnightblue" points="38.04,-26.68 30.02,-19.75 31.97,-30.17 38.04,-26.68"/>
</g>
<!-- Node4 -->
<g id="node4" class="node">
<title>Node4</title>
<g id="a_node4"><a xlink:title=" ">
<polygon fill="white" stroke="#bfbfbf" points="68.5,-0.5 68.5,-19.5 107.5,-19.5 107.5,-0.5 68.5,-0.5"/>
<text text-anchor="middle" x="88" y="-7.5" font-family="Helvetica,sans-Serif" font-size="10.00">ratio</text>
</a>
</g>
</g>
<!-- Node2&#45;&gt;Node4 -->
<g id="edge3" class="edge">
<title>Node2&#45;&gt;Node4</title>
<path fill="none" stroke="midnightblue" d="M61.28,-56.08C65.71,-48.61 72.16,-37.72 77.62,-28.52"/>
<polygon fill="midnightblue" stroke="midnightblue" points="80.73,-30.14 82.81,-19.75 74.71,-26.57 80.73,-30.14"/>
</g>
</g>
</svg>
