<?xml version="1.0" encoding="UTF-8" standalone="no"?>
<!DOCTYPE svg PUBLIC "-//W3C//DTD SVG 1.1//EN"
 "http://www.w3.org/Graphics/SVG/1.1/DTD/svg11.dtd">
<!-- Generated by graphviz version 2.43.0 (0)
 -->
<!-- Title: language/lib/Catch2/include/internal/catch_section.cpp Pages: 1 -->
<svg width="1369pt" height="509pt"
 viewBox="0.00 0.00 1368.69 509.00" xmlns="http://www.w3.org/2000/svg" xmlns:xlink="http://www.w3.org/1999/xlink">
<g id="graph0" class="graph" transform="scale(1 1) rotate(0) translate(4 505)">
<title>language/lib/Catch2/include/internal/catch_section.cpp</title>
<polygon fill="white" stroke="transparent" points="-4,4 -4,-505 1364.69,-505 1364.69,4 -4,4"/>
<!-- Node1 -->
<g id="node1" class="node">
<title>Node1</title>
<g id="a_node1"><a xlink:title=" ">
<polygon fill="#bfbfbf" stroke="black" points="982,-459.5 982,-500.5 1107,-500.5 1107,-459.5 982,-459.5"/>
<text text-anchor="start" x="990" y="-488.5" font-family="Helvetica,sans-Serif" font-size="10.00">language/lib/Catch2</text>
<text text-anchor="start" x="990" y="-477.5" font-family="Helvetica,sans-Serif" font-size="10.00">/include/internal/catch</text>
<text text-anchor="middle" x="1044.5" y="-466.5" font-family="Helvetica,sans-Serif" font-size="10.00">_section.cpp</text>
</a>
</g>
</g>
<!-- Node2 -->
<g id="node2" class="node">
<title>Node2</title>
<g id="a_node2"><a xlink:href="catch__section_8h.html" target="_top" xlink:title=" ">
<polygon fill="white" stroke="black" points="233.5,-235.5 233.5,-254.5 325.5,-254.5 325.5,-235.5 233.5,-235.5"/>
<text text-anchor="middle" x="279.5" y="-242.5" font-family="Helvetica,sans-Serif" font-size="10.00">catch_section.h</text>
</a>
</g>
</g>
<!-- Node1&#45;&gt;Node2 -->
<g id="edge1" class="edge">
<title>Node1&#45;&gt;Node2</title>
<path fill="none" stroke="midnightblue" d="M981.9,-459.93C829.01,-413.37 440.13,-294.92 317.29,-257.51"/>
<polygon fill="midnightblue" stroke="midnightblue" points="318.16,-254.12 307.57,-254.55 316.12,-260.81 318.16,-254.12"/>
</g>
<!-- Node13 -->
<g id="node13" class="node">
<title>Node13</title>
<g id="a_node13"><a xlink:href="catch__capture_8hpp.html" target="_top" xlink:title=" ">
<polygon fill="white" stroke="black" points="991.5,-403.5 991.5,-422.5 1097.5,-422.5 1097.5,-403.5 991.5,-403.5"/>
<text text-anchor="middle" x="1044.5" y="-410.5" font-family="Helvetica,sans-Serif" font-size="10.00">catch_capture.hpp</text>
</a>
</g>
</g>
<!-- Node1&#45;&gt;Node13 -->
<g id="edge17" class="edge">
<title>Node1&#45;&gt;Node13</title>
<path fill="none" stroke="midnightblue" d="M1044.5,-459.5C1044.5,-451.07 1044.5,-441.24 1044.5,-432.87"/>
<polygon fill="midnightblue" stroke="midnightblue" points="1048,-432.65 1044.5,-422.65 1041,-432.65 1048,-432.65"/>
</g>
<!-- Node30 -->
<g id="node30" class="node">
<title>Node30</title>
<g id="a_node30"><a xlink:href="catch__uncaught__exceptions_8h.html" target="_top" xlink:title=" ">
<polygon fill="white" stroke="black" points="1116,-403.5 1116,-422.5 1277,-422.5 1277,-403.5 1116,-403.5"/>
<text text-anchor="middle" x="1196.5" y="-410.5" font-family="Helvetica,sans-Serif" font-size="10.00">catch_uncaught_exceptions.h</text>
</a>
</g>
</g>
<!-- Node1&#45;&gt;Node30 -->
<g id="edge61" class="edge">
<title>Node1&#45;&gt;Node30</title>
<path fill="none" stroke="midnightblue" d="M1090.11,-459.5C1114.98,-448.86 1145.05,-436 1166.87,-426.67"/>
<polygon fill="midnightblue" stroke="midnightblue" points="1168.45,-429.8 1176.27,-422.65 1165.7,-423.37 1168.45,-429.8"/>
</g>
<!-- Node3 -->
<g id="node3" class="node">
<title>Node3</title>
<g id="a_node3"><a xlink:href="catch__compiler__capabilities_8h.html" target="_top" xlink:title=" ">
<polygon fill="white" stroke="black" points="317,-56.5 317,-75.5 478,-75.5 478,-56.5 317,-56.5"/>
<text text-anchor="middle" x="397.5" y="-63.5" font-family="Helvetica,sans-Serif" font-size="10.00">catch_compiler_capabilities.h</text>
</a>
</g>
</g>
<!-- Node2&#45;&gt;Node3 -->
<g id="edge2" class="edge">
<title>Node2&#45;&gt;Node3</title>
<path fill="none" stroke="midnightblue" d="M294.43,-235.48C307.71,-227.37 327.05,-214.16 340.5,-199 370.49,-165.19 386.57,-113.18 393.42,-85.62"/>
<polygon fill="midnightblue" stroke="midnightblue" points="396.86,-86.27 395.73,-75.74 390.04,-84.67 396.86,-86.27"/>
</g>
<!-- Node5 -->
<g id="node5" class="node">
<title>Node5</title>
<g id="a_node5"><a xlink:href="catch__section__info_8h.html" target="_top" xlink:title=" ">
<polygon fill="white" stroke="black" points="215.5,-174 215.5,-193 331.5,-193 331.5,-174 215.5,-174"/>
<text text-anchor="middle" x="273.5" y="-181" font-family="Helvetica,sans-Serif" font-size="10.00">catch_section_info.h</text>
</a>
</g>
</g>
<!-- Node2&#45;&gt;Node5 -->
<g id="edge4" class="edge">
<title>Node2&#45;&gt;Node5</title>
<path fill="none" stroke="midnightblue" d="M278.64,-235.48C277.79,-227.08 276.47,-213.98 275.38,-203.16"/>
<polygon fill="midnightblue" stroke="midnightblue" points="278.84,-202.61 274.36,-193.01 271.88,-203.31 278.84,-202.61"/>
</g>
<!-- Node8 -->
<g id="node8" class="node">
<title>Node8</title>
<g id="a_node8"><a xlink:title=" ">
<polygon fill="white" stroke="#bfbfbf" points="219.5,-56.5 219.5,-75.5 263.5,-75.5 263.5,-56.5 219.5,-56.5"/>
<text text-anchor="middle" x="241.5" y="-63.5" font-family="Helvetica,sans-Serif" font-size="10.00">string</text>
</a>
</g>
</g>
<!-- Node2&#45;&gt;Node8 -->
<g id="edge16" class="edge">
<title>Node2&#45;&gt;Node8</title>
<path fill="none" stroke="midnightblue" d="M233.3,-236.49C211.26,-230.33 186.85,-219.17 173.5,-199 152.16,-166.76 155.2,-146.06 173.5,-112 181.34,-97.41 196.22,-86.76 210.06,-79.49"/>
<polygon fill="midnightblue" stroke="midnightblue" points="211.9,-82.49 219.38,-74.99 208.86,-76.19 211.9,-82.49"/>
</g>
<!-- Node10 -->
<g id="node10" class="node">
<title>Node10</title>
<g id="a_node10"><a xlink:href="catch__totals_8h.html" target="_top" xlink:title=" ">
<polygon fill="white" stroke="black" points="426,-112.5 426,-131.5 511,-131.5 511,-112.5 426,-112.5"/>
<text text-anchor="middle" x="468.5" y="-119.5" font-family="Helvetica,sans-Serif" font-size="10.00">catch_totals.h</text>
</a>
</g>
</g>
<!-- Node2&#45;&gt;Node10 -->
<g id="edge13" class="edge">
<title>Node2&#45;&gt;Node10</title>
<path fill="none" stroke="midnightblue" d="M325.44,-235.47C352.39,-228.81 386.03,-217.49 411.5,-199 432.81,-183.53 449.71,-157.79 459.41,-140.62"/>
<polygon fill="midnightblue" stroke="midnightblue" points="462.59,-142.09 464.27,-131.63 456.44,-138.76 462.59,-142.09"/>
</g>
<!-- Node12 -->
<g id="node12" class="node">
<title>Node12</title>
<g id="a_node12"><a xlink:href="catch__timer_8h.html" target="_top" xlink:title=" ">
<polygon fill="white" stroke="black" points="0,-112.5 0,-131.5 83,-131.5 83,-112.5 0,-112.5"/>
<text text-anchor="middle" x="41.5" y="-119.5" font-family="Helvetica,sans-Serif" font-size="10.00">catch_timer.h</text>
</a>
</g>
</g>
<!-- Node2&#45;&gt;Node12 -->
<g id="edge14" class="edge">
<title>Node2&#45;&gt;Node12</title>
<path fill="none" stroke="midnightblue" d="M238.14,-235.47C208.44,-228.31 168.06,-216.43 135.5,-199 105.01,-182.68 74.83,-155.89 57.19,-138.86"/>
<polygon fill="midnightblue" stroke="midnightblue" points="59.6,-136.32 50.01,-131.8 54.69,-141.31 59.6,-136.32"/>
</g>
<!-- Node4 -->
<g id="node4" class="node">
<title>Node4</title>
<g id="a_node4"><a xlink:href="catch__platform_8h.html" target="_top" xlink:title=" ">
<polygon fill="white" stroke="black" points="348,-0.5 348,-19.5 447,-19.5 447,-0.5 348,-0.5"/>
<text text-anchor="middle" x="397.5" y="-7.5" font-family="Helvetica,sans-Serif" font-size="10.00">catch_platform.h</text>
</a>
</g>
</g>
<!-- Node3&#45;&gt;Node4 -->
<g id="edge3" class="edge">
<title>Node3&#45;&gt;Node4</title>
<path fill="none" stroke="midnightblue" d="M397.5,-56.08C397.5,-49.01 397.5,-38.86 397.5,-29.99"/>
<polygon fill="midnightblue" stroke="midnightblue" points="401,-29.75 397.5,-19.75 394,-29.75 401,-29.75"/>
</g>
<!-- Node6 -->
<g id="node6" class="node">
<title>Node6</title>
<g id="a_node6"><a xlink:href="catch__common_8h.html" target="_top" xlink:title=" ">
<polygon fill="white" stroke="black" points="269.5,-112.5 269.5,-131.5 369.5,-131.5 369.5,-112.5 269.5,-112.5"/>
<text text-anchor="middle" x="319.5" y="-119.5" font-family="Helvetica,sans-Serif" font-size="10.00">catch_common.h</text>
</a>
</g>
</g>
<!-- Node5&#45;&gt;Node6 -->
<g id="edge5" class="edge">
<title>Node5&#45;&gt;Node6</title>
<path fill="none" stroke="midnightblue" d="M280.09,-173.98C286.99,-165.05 298,-150.81 306.63,-139.64"/>
<polygon fill="midnightblue" stroke="midnightblue" points="309.57,-141.56 312.92,-131.51 304.04,-137.28 309.57,-141.56"/>
</g>
<!-- Node5&#45;&gt;Node8 -->
<g id="edge12" class="edge">
<title>Node5&#45;&gt;Node8</title>
<path fill="none" stroke="midnightblue" d="M271.09,-173.82C265.93,-155.17 253.67,-110.94 246.66,-85.63"/>
<polygon fill="midnightblue" stroke="midnightblue" points="249.98,-84.48 243.93,-75.78 243.23,-86.35 249.98,-84.48"/>
</g>
<!-- Node5&#45;&gt;Node10 -->
<g id="edge10" class="edge">
<title>Node5&#45;&gt;Node10</title>
<path fill="none" stroke="midnightblue" d="M301.44,-173.98C335.47,-163.59 393.08,-146.01 430.96,-134.45"/>
<polygon fill="midnightblue" stroke="midnightblue" points="432.07,-137.78 440.61,-131.51 430.03,-131.08 432.07,-137.78"/>
</g>
<!-- Node6&#45;&gt;Node3 -->
<g id="edge6" class="edge">
<title>Node6&#45;&gt;Node3</title>
<path fill="none" stroke="midnightblue" d="M332.03,-112.32C344.09,-103.98 362.53,-91.21 376.77,-81.35"/>
<polygon fill="midnightblue" stroke="midnightblue" points="378.77,-84.22 385,-75.65 374.78,-78.47 378.77,-84.22"/>
</g>
<!-- Node7 -->
<g id="node7" class="node">
<title>Node7</title>
<g id="a_node7"><a xlink:title=" ">
<polygon fill="white" stroke="#bfbfbf" points="838.5,-56.5 838.5,-75.5 886.5,-75.5 886.5,-56.5 838.5,-56.5"/>
<text text-anchor="middle" x="862.5" y="-63.5" font-family="Helvetica,sans-Serif" font-size="10.00">iosfwd</text>
</a>
</g>
</g>
<!-- Node6&#45;&gt;Node7 -->
<g id="edge7" class="edge">
<title>Node6&#45;&gt;Node7</title>
<path fill="none" stroke="midnightblue" d="M369.61,-116.02C478.82,-105.16 735.91,-79.59 828.51,-70.38"/>
<polygon fill="midnightblue" stroke="midnightblue" points="828.86,-73.86 838.47,-69.39 828.17,-66.9 828.86,-73.86"/>
</g>
<!-- Node6&#45;&gt;Node8 -->
<g id="edge8" class="edge">
<title>Node6&#45;&gt;Node8</title>
<path fill="none" stroke="midnightblue" d="M306.97,-112.32C294.91,-103.98 276.47,-91.21 262.23,-81.35"/>
<polygon fill="midnightblue" stroke="midnightblue" points="264.22,-78.47 254,-75.65 260.23,-84.22 264.22,-78.47"/>
</g>
<!-- Node9 -->
<g id="node9" class="node">
<title>Node9</title>
<g id="a_node9"><a xlink:title=" ">
<polygon fill="white" stroke="#bfbfbf" points="84.5,-56.5 84.5,-75.5 134.5,-75.5 134.5,-56.5 84.5,-56.5"/>
<text text-anchor="middle" x="109.5" y="-63.5" font-family="Helvetica,sans-Serif" font-size="10.00">cstdint</text>
</a>
</g>
</g>
<!-- Node6&#45;&gt;Node9 -->
<g id="edge9" class="edge">
<title>Node6&#45;&gt;Node9</title>
<path fill="none" stroke="midnightblue" d="M286.22,-112.44C247.5,-102.49 183.84,-86.12 144.42,-75.98"/>
<polygon fill="midnightblue" stroke="midnightblue" points="145.27,-72.58 134.71,-73.48 143.52,-79.36 145.27,-72.58"/>
</g>
<!-- Node11 -->
<g id="node11" class="node">
<title>Node11</title>
<g id="a_node11"><a xlink:title=" ">
<polygon fill="white" stroke="#bfbfbf" points="707,-56.5 707,-75.5 760,-75.5 760,-56.5 707,-56.5"/>
<text text-anchor="middle" x="733.5" y="-63.5" font-family="Helvetica,sans-Serif" font-size="10.00">cstddef</text>
</a>
</g>
</g>
<!-- Node10&#45;&gt;Node11 -->
<g id="edge11" class="edge">
<title>Node10&#45;&gt;Node11</title>
<path fill="none" stroke="midnightblue" d="M510.49,-112.44C561.86,-101.98 647.99,-84.43 696.81,-74.48"/>
<polygon fill="midnightblue" stroke="midnightblue" points="697.54,-77.9 706.64,-72.47 696.14,-71.04 697.54,-77.9"/>
</g>
<!-- Node12&#45;&gt;Node9 -->
<g id="edge15" class="edge">
<title>Node12&#45;&gt;Node9</title>
<path fill="none" stroke="midnightblue" d="M52.43,-112.32C62.67,-104.18 78.22,-91.84 90.5,-82.09"/>
<polygon fill="midnightblue" stroke="midnightblue" points="92.72,-84.79 98.38,-75.83 88.37,-79.31 92.72,-84.79"/>
</g>
<!-- Node14 -->
<g id="node14" class="node">
<title>Node14</title>
<g id="a_node14"><a xlink:href="catch__assertionhandler_8h.html" target="_top" xlink:title=" ">
<polygon fill="white" stroke="black" points="975.5,-347.5 975.5,-366.5 1113.5,-366.5 1113.5,-347.5 975.5,-347.5"/>
<text text-anchor="middle" x="1044.5" y="-354.5" font-family="Helvetica,sans-Serif" font-size="10.00">catch_assertionhandler.h</text>
</a>
</g>
</g>
<!-- Node13&#45;&gt;Node14 -->
<g id="edge18" class="edge">
<title>Node13&#45;&gt;Node14</title>
<path fill="none" stroke="midnightblue" d="M1044.5,-403.08C1044.5,-396.01 1044.5,-385.86 1044.5,-376.99"/>
<polygon fill="midnightblue" stroke="midnightblue" points="1048,-376.75 1044.5,-366.75 1041,-376.75 1048,-376.75"/>
</g>
<!-- Node17 -->
<g id="node17" class="node">
<title>Node17</title>
<g id="a_node17"><a xlink:href="catch__stringref_8h.html" target="_top" xlink:title=" ">
<polygon fill="white" stroke="black" points="911.5,-112.5 911.5,-131.5 1009.5,-131.5 1009.5,-112.5 911.5,-112.5"/>
<text text-anchor="middle" x="960.5" y="-119.5" font-family="Helvetica,sans-Serif" font-size="10.00">catch_stringref.h</text>
</a>
</g>
</g>
<!-- Node13&#45;&gt;Node17 -->
<g id="edge60" class="edge">
<title>Node13&#45;&gt;Node17</title>
<path fill="none" stroke="midnightblue" d="M1072.16,-403.47C1162.18,-374.39 1435.61,-275.04 1340.5,-168 1319.6,-144.47 1121.44,-131.12 1019.88,-125.77"/>
<polygon fill="midnightblue" stroke="midnightblue" points="1019.94,-122.27 1009.77,-125.25 1019.58,-129.26 1019.94,-122.27"/>
</g>
<!-- Node27 -->
<g id="node27" class="node">
<title>Node27</title>
<g id="a_node27"><a xlink:href="catch__interfaces__capture_8h.html" target="_top" xlink:title=" ">
<polygon fill="white" stroke="black" points="1161.5,-235.5 1161.5,-254.5 1309.5,-254.5 1309.5,-235.5 1161.5,-235.5"/>
<text text-anchor="middle" x="1235.5" y="-242.5" font-family="Helvetica,sans-Serif" font-size="10.00">catch_interfaces_capture.h</text>
</a>
</g>
</g>
<!-- Node13&#45;&gt;Node27 -->
<g id="edge51" class="edge">
<title>Node13&#45;&gt;Node27</title>
<path fill="none" stroke="midnightblue" d="M1062.8,-403.39C1079.25,-395.22 1103.65,-381.98 1122.5,-367 1163.19,-334.67 1202.77,-287.65 1222.51,-262.82"/>
<polygon fill="midnightblue" stroke="midnightblue" points="1225.43,-264.77 1228.85,-254.74 1219.92,-260.45 1225.43,-264.77"/>
</g>
<!-- Node29 -->
<g id="node29" class="node">
<title>Node29</title>
<g id="a_node29"><a xlink:href="catch__message_8h.html" target="_top" xlink:title=" ">
<polygon fill="white" stroke="black" points="647,-291.5 647,-310.5 748,-310.5 748,-291.5 647,-291.5"/>
<text text-anchor="middle" x="697.5" y="-298.5" font-family="Helvetica,sans-Serif" font-size="10.00">catch_message.h</text>
</a>
</g>
</g>
<!-- Node13&#45;&gt;Node29 -->
<g id="edge52" class="edge">
<title>Node13&#45;&gt;Node29</title>
<path fill="none" stroke="midnightblue" d="M1017.56,-403.46C955.94,-383.93 804.64,-335.96 734.41,-313.7"/>
<polygon fill="midnightblue" stroke="midnightblue" points="735.25,-310.3 724.66,-310.61 733.14,-316.97 735.25,-310.3"/>
</g>
<!-- Node15 -->
<g id="node15" class="node">
<title>Node15</title>
<g id="a_node15"><a xlink:href="catch__assertioninfo_8h.html" target="_top" xlink:title=" ">
<polygon fill="white" stroke="black" points="984,-235.5 984,-254.5 1105,-254.5 1105,-235.5 984,-235.5"/>
<text text-anchor="middle" x="1044.5" y="-242.5" font-family="Helvetica,sans-Serif" font-size="10.00">catch_assertioninfo.h</text>
</a>
</g>
</g>
<!-- Node14&#45;&gt;Node15 -->
<g id="edge19" class="edge">
<title>Node14&#45;&gt;Node15</title>
<path fill="none" stroke="midnightblue" d="M1044.5,-347.37C1044.5,-329.62 1044.5,-288.67 1044.5,-264.6"/>
<polygon fill="midnightblue" stroke="midnightblue" points="1048,-264.59 1044.5,-254.59 1041,-264.59 1048,-264.59"/>
</g>
<!-- Node19 -->
<g id="node19" class="node">
<title>Node19</title>
<g id="a_node19"><a xlink:href="catch__decomposer_8h.html" target="_top" xlink:title=" ">
<polygon fill="white" stroke="black" points="897.5,-291.5 897.5,-310.5 1013.5,-310.5 1013.5,-291.5 897.5,-291.5"/>
<text text-anchor="middle" x="955.5" y="-298.5" font-family="Helvetica,sans-Serif" font-size="10.00">catch_decomposer.h</text>
</a>
</g>
</g>
<!-- Node14&#45;&gt;Node19 -->
<g id="edge27" class="edge">
<title>Node14&#45;&gt;Node19</title>
<path fill="none" stroke="midnightblue" d="M1030.2,-347.32C1016.32,-338.9 995.01,-325.97 978.7,-316.07"/>
<polygon fill="midnightblue" stroke="midnightblue" points="980.13,-312.85 969.76,-310.65 976.5,-318.83 980.13,-312.85"/>
</g>
<!-- Node14&#45;&gt;Node27 -->
<g id="edge46" class="edge">
<title>Node14&#45;&gt;Node27</title>
<path fill="none" stroke="midnightblue" d="M1059.49,-347.37C1092.54,-328.33 1171.92,-282.62 1211.8,-259.65"/>
<polygon fill="midnightblue" stroke="midnightblue" points="1213.66,-262.62 1220.58,-254.59 1210.17,-256.55 1213.66,-262.62"/>
</g>
<!-- Node15&#45;&gt;Node6 -->
<g id="edge21" class="edge">
<title>Node15&#45;&gt;Node6</title>
<path fill="none" stroke="midnightblue" d="M983.95,-238.93C968.48,-237.64 951.88,-236.26 936.5,-235 739.18,-218.78 684.45,-247.49 492.5,-199 436.63,-184.89 375.98,-154.36 343.41,-136.59"/>
<polygon fill="midnightblue" stroke="midnightblue" points="345.07,-133.5 334.62,-131.73 341.68,-139.63 345.07,-133.5"/>
</g>
<!-- Node16 -->
<g id="node16" class="node">
<title>Node16</title>
<g id="a_node16"><a xlink:href="catch__result__type_8h.html" target="_top" xlink:title=" ">
<polygon fill="white" stroke="black" points="1075.5,-174 1075.5,-193 1187.5,-193 1187.5,-174 1075.5,-174"/>
<text text-anchor="middle" x="1131.5" y="-181" font-family="Helvetica,sans-Serif" font-size="10.00">catch_result_type.h</text>
</a>
</g>
</g>
<!-- Node15&#45;&gt;Node16 -->
<g id="edge20" class="edge">
<title>Node15&#45;&gt;Node16</title>
<path fill="none" stroke="midnightblue" d="M1056.96,-235.48C1070.92,-225.93 1093.76,-210.31 1110.49,-198.87"/>
<polygon fill="midnightblue" stroke="midnightblue" points="1112.78,-201.54 1119.06,-193.01 1108.83,-195.77 1112.78,-201.54"/>
</g>
<!-- Node15&#45;&gt;Node17 -->
<g id="edge22" class="edge">
<title>Node15&#45;&gt;Node17</title>
<path fill="none" stroke="midnightblue" d="M1043.96,-235.23C1042.66,-220.19 1038.24,-189.09 1023.5,-168 1014.33,-154.88 1000.06,-144.23 987.41,-136.59"/>
<polygon fill="midnightblue" stroke="midnightblue" points="989.01,-133.47 978.59,-131.56 985.55,-139.55 989.01,-133.47"/>
</g>
<!-- Node17&#45;&gt;Node7 -->
<g id="edge25" class="edge">
<title>Node17&#45;&gt;Node7</title>
<path fill="none" stroke="midnightblue" d="M944.75,-112.32C929.18,-103.74 905.12,-90.49 887.04,-80.52"/>
<polygon fill="midnightblue" stroke="midnightblue" points="888.65,-77.42 878.21,-75.65 885.28,-83.55 888.65,-77.42"/>
</g>
<!-- Node17&#45;&gt;Node8 -->
<g id="edge24" class="edge">
<title>Node17&#45;&gt;Node8</title>
<path fill="none" stroke="midnightblue" d="M911.22,-118.03C780.09,-110.07 424.64,-88.01 307.5,-76 296.54,-74.88 284.6,-73.34 273.93,-71.86"/>
<polygon fill="midnightblue" stroke="midnightblue" points="274.15,-68.36 263.76,-70.41 273.16,-75.29 274.15,-68.36"/>
</g>
<!-- Node17&#45;&gt;Node11 -->
<g id="edge23" class="edge">
<title>Node17&#45;&gt;Node11</title>
<path fill="none" stroke="midnightblue" d="M924.53,-112.44C882.26,-102.39 812.51,-85.79 770.01,-75.68"/>
<polygon fill="midnightblue" stroke="midnightblue" points="770.62,-72.23 760.08,-73.32 769,-79.04 770.62,-72.23"/>
</g>
<!-- Node18 -->
<g id="node18" class="node">
<title>Node18</title>
<g id="a_node18"><a xlink:title=" ">
<polygon fill="white" stroke="#bfbfbf" points="934.5,-56.5 934.5,-75.5 986.5,-75.5 986.5,-56.5 934.5,-56.5"/>
<text text-anchor="middle" x="960.5" y="-63.5" font-family="Helvetica,sans-Serif" font-size="10.00">cassert</text>
</a>
</g>
</g>
<!-- Node17&#45;&gt;Node18 -->
<g id="edge26" class="edge">
<title>Node17&#45;&gt;Node18</title>
<path fill="none" stroke="midnightblue" d="M960.5,-112.08C960.5,-105.01 960.5,-94.86 960.5,-85.99"/>
<polygon fill="midnightblue" stroke="midnightblue" points="964,-85.75 960.5,-75.75 957,-85.75 964,-85.75"/>
</g>
<!-- Node19&#45;&gt;Node7 -->
<g id="edge45" class="edge">
<title>Node19&#45;&gt;Node7</title>
<path fill="none" stroke="midnightblue" d="M1013.8,-299.83C1104.1,-298.43 1272.22,-290.91 1318.5,-255 1350.01,-230.55 1365.62,-198.98 1340.5,-168 1326.25,-150.43 1003.62,-91.97 896.63,-73"/>
<polygon fill="midnightblue" stroke="midnightblue" points="897.13,-69.54 886.68,-71.24 895.91,-76.43 897.13,-69.54"/>
</g>
<!-- Node19&#45;&gt;Node17 -->
<g id="edge42" class="edge">
<title>Node19&#45;&gt;Node17</title>
<path fill="none" stroke="midnightblue" d="M957.95,-291.08C961.48,-278.47 968.36,-254.77 975.5,-235 981.39,-218.7 987.1,-216 990.5,-199 993.2,-185.49 994.49,-181.19 990.5,-168 987.38,-157.7 981.05,-147.61 975,-139.6"/>
<polygon fill="midnightblue" stroke="midnightblue" points="977.72,-137.4 968.71,-131.82 972.27,-141.8 977.72,-137.4"/>
</g>
<!-- Node20 -->
<g id="node20" class="node">
<title>Node20</title>
<g id="a_node20"><a xlink:href="catch__tostring_8h.html" target="_top" xlink:title=" ">
<polygon fill="white" stroke="black" points="688,-235.5 688,-254.5 783,-254.5 783,-235.5 688,-235.5"/>
<text text-anchor="middle" x="735.5" y="-242.5" font-family="Helvetica,sans-Serif" font-size="10.00">catch_tostring.h</text>
</a>
</g>
</g>
<!-- Node19&#45;&gt;Node20 -->
<g id="edge28" class="edge">
<title>Node19&#45;&gt;Node20</title>
<path fill="none" stroke="midnightblue" d="M920.64,-291.44C882.58,-282.1 821.54,-267.12 780.04,-256.93"/>
<polygon fill="midnightblue" stroke="midnightblue" points="780.74,-253.5 770.2,-254.52 779.07,-260.3 780.74,-253.5"/>
</g>
<!-- Node26 -->
<g id="node26" class="node">
<title>Node26</title>
<g id="a_node26"><a xlink:href="catch__meta_8hpp.html" target="_top" xlink:title=" ">
<polygon fill="white" stroke="black" points="832,-235.5 832,-254.5 927,-254.5 927,-235.5 832,-235.5"/>
<text text-anchor="middle" x="879.5" y="-242.5" font-family="Helvetica,sans-Serif" font-size="10.00">catch_meta.hpp</text>
</a>
</g>
</g>
<!-- Node19&#45;&gt;Node26 -->
<g id="edge43" class="edge">
<title>Node19&#45;&gt;Node26</title>
<path fill="none" stroke="midnightblue" d="M943.29,-291.32C931.72,-283.11 914.12,-270.6 900.34,-260.81"/>
<polygon fill="midnightblue" stroke="midnightblue" points="902.11,-257.77 891.93,-254.83 898.06,-263.48 902.11,-257.77"/>
</g>
<!-- Node20&#45;&gt;Node3 -->
<g id="edge33" class="edge">
<title>Node20&#45;&gt;Node3</title>
<path fill="none" stroke="midnightblue" d="M729.05,-235.27C710.92,-211.4 656.82,-144.68 595.5,-112 562.66,-94.49 523.23,-83.77 488.23,-77.22"/>
<polygon fill="midnightblue" stroke="midnightblue" points="488.46,-73.71 478,-75.4 487.24,-80.6 488.46,-73.71"/>
</g>
<!-- Node20&#45;&gt;Node8 -->
<g id="edge32" class="edge">
<title>Node20&#45;&gt;Node8</title>
<path fill="none" stroke="midnightblue" d="M687.88,-243.54C563.94,-241.85 238.73,-234.09 206.5,-199 176.67,-166.53 208.65,-111.57 228.38,-83.94"/>
<polygon fill="midnightblue" stroke="midnightblue" points="231.35,-85.8 234.5,-75.68 225.73,-81.64 231.35,-85.8"/>
</g>
<!-- Node20&#45;&gt;Node11 -->
<g id="edge30" class="edge">
<title>Node20&#45;&gt;Node11</title>
<path fill="none" stroke="midnightblue" d="M736.69,-235.25C738.87,-220.77 744.27,-191.13 754.5,-168 765.45,-143.24 788.86,-137.02 778.5,-112 773.58,-100.12 763.83,-89.74 754.67,-81.96"/>
<polygon fill="midnightblue" stroke="midnightblue" points="756.58,-79.01 746.56,-75.56 752.25,-84.51 756.58,-79.01"/>
</g>
<!-- Node21 -->
<g id="node21" class="node">
<title>Node21</title>
<g id="a_node21"><a xlink:title=" ">
<polygon fill="white" stroke="#bfbfbf" points="722,-112.5 722,-131.5 769,-131.5 769,-112.5 722,-112.5"/>
<text text-anchor="middle" x="745.5" y="-119.5" font-family="Helvetica,sans-Serif" font-size="10.00">vector</text>
</a>
</g>
</g>
<!-- Node20&#45;&gt;Node21 -->
<g id="edge29" class="edge">
<title>Node20&#45;&gt;Node21</title>
<path fill="none" stroke="midnightblue" d="M731.57,-235.49C725.58,-221.36 715.45,-192.21 721.5,-168 723.94,-158.25 728.94,-148.29 733.74,-140.23"/>
<polygon fill="midnightblue" stroke="midnightblue" points="736.71,-142.08 739.13,-131.77 730.81,-138.32 736.71,-142.08"/>
</g>
<!-- Node22 -->
<g id="node22" class="node">
<title>Node22</title>
<g id="a_node22"><a xlink:title=" ">
<polygon fill="white" stroke="#bfbfbf" points="912,-174 912,-193 981,-193 981,-174 912,-174"/>
<text text-anchor="middle" x="946.5" y="-181" font-family="Helvetica,sans-Serif" font-size="10.00">type_traits</text>
</a>
</g>
</g>
<!-- Node20&#45;&gt;Node22 -->
<g id="edge31" class="edge">
<title>Node20&#45;&gt;Node22</title>
<path fill="none" stroke="midnightblue" d="M769.24,-235.49C803.08,-226.82 856.62,-212.73 902.5,-199 905.49,-198.11 908.58,-197.15 911.67,-196.17"/>
<polygon fill="midnightblue" stroke="midnightblue" points="913,-199.42 921.45,-193.02 910.85,-192.76 913,-199.42"/>
</g>
<!-- Node23 -->
<g id="node23" class="node">
<title>Node23</title>
<g id="a_node23"><a xlink:href="catch__stream_8h.html" target="_top" xlink:title=" ">
<polygon fill="white" stroke="black" points="501.5,-174 501.5,-193 593.5,-193 593.5,-174 501.5,-174"/>
<text text-anchor="middle" x="547.5" y="-181" font-family="Helvetica,sans-Serif" font-size="10.00">catch_stream.h</text>
</a>
</g>
</g>
<!-- Node20&#45;&gt;Node23 -->
<g id="edge34" class="edge">
<title>Node20&#45;&gt;Node23</title>
<path fill="none" stroke="midnightblue" d="M708.56,-235.48C675.9,-225.14 620.68,-207.66 584.16,-196.1"/>
<polygon fill="midnightblue" stroke="midnightblue" points="584.98,-192.69 574.39,-193.01 582.86,-199.36 584.98,-192.69"/>
</g>
<!-- Node25 -->
<g id="node25" class="node">
<title>Node25</title>
<g id="a_node25"><a xlink:href="catch__interfaces__enum__values__registry_8h.html" target="_top" xlink:title=" ">
<polygon fill="white" stroke="black" points="763.5,-168.5 763.5,-198.5 893.5,-198.5 893.5,-168.5 763.5,-168.5"/>
<text text-anchor="start" x="771.5" y="-186.5" font-family="Helvetica,sans-Serif" font-size="10.00">catch_interfaces_enum</text>
<text text-anchor="middle" x="828.5" y="-175.5" font-family="Helvetica,sans-Serif" font-size="10.00">_values_registry.h</text>
</a>
</g>
</g>
<!-- Node20&#45;&gt;Node25 -->
<g id="edge39" class="edge">
<title>Node20&#45;&gt;Node25</title>
<path fill="none" stroke="midnightblue" d="M748.82,-235.48C761.54,-227.34 781.15,-214.79 797.74,-204.18"/>
<polygon fill="midnightblue" stroke="midnightblue" points="800.04,-206.86 806.58,-198.52 796.27,-200.96 800.04,-206.86"/>
</g>
<!-- Node23&#45;&gt;Node6 -->
<g id="edge35" class="edge">
<title>Node23&#45;&gt;Node6</title>
<path fill="none" stroke="midnightblue" d="M514.83,-173.98C474.62,-163.48 406.24,-145.64 361.98,-134.09"/>
<polygon fill="midnightblue" stroke="midnightblue" points="362.67,-130.65 352.11,-131.51 360.9,-137.42 362.67,-130.65"/>
</g>
<!-- Node23&#45;&gt;Node7 -->
<g id="edge36" class="edge">
<title>Node23&#45;&gt;Node7</title>
<path fill="none" stroke="midnightblue" d="M566.16,-173.79C596.6,-159.76 659.04,-131.72 713.5,-112 752.53,-97.86 798.38,-84.49 828.8,-76.05"/>
<polygon fill="midnightblue" stroke="midnightblue" points="829.78,-79.41 838.5,-73.38 827.93,-72.66 829.78,-79.41"/>
</g>
<!-- Node23&#45;&gt;Node11 -->
<g id="edge37" class="edge">
<title>Node23&#45;&gt;Node11</title>
<path fill="none" stroke="midnightblue" d="M561.48,-173.82C593.39,-154 671.84,-105.29 710.79,-81.1"/>
<polygon fill="midnightblue" stroke="midnightblue" points="712.71,-84.03 719.36,-75.78 709.02,-78.08 712.71,-84.03"/>
</g>
<!-- Node24 -->
<g id="node24" class="node">
<title>Node24</title>
<g id="a_node24"><a xlink:title=" ">
<polygon fill="white" stroke="#bfbfbf" points="529,-112.5 529,-131.5 586,-131.5 586,-112.5 529,-112.5"/>
<text text-anchor="middle" x="557.5" y="-119.5" font-family="Helvetica,sans-Serif" font-size="10.00">ostream</text>
</a>
</g>
</g>
<!-- Node23&#45;&gt;Node24 -->
<g id="edge38" class="edge">
<title>Node23&#45;&gt;Node24</title>
<path fill="none" stroke="midnightblue" d="M548.93,-173.98C550.34,-165.58 552.55,-152.48 554.36,-141.66"/>
<polygon fill="midnightblue" stroke="midnightblue" points="557.86,-141.95 556.07,-131.51 550.96,-140.79 557.86,-141.95"/>
</g>
<!-- Node25&#45;&gt;Node17 -->
<g id="edge40" class="edge">
<title>Node25&#45;&gt;Node17</title>
<path fill="none" stroke="midnightblue" d="M859.78,-168.4C881.73,-158.51 910.84,-145.38 932.12,-135.79"/>
<polygon fill="midnightblue" stroke="midnightblue" points="933.61,-138.96 941.29,-131.66 930.74,-132.58 933.61,-138.96"/>
</g>
<!-- Node25&#45;&gt;Node21 -->
<g id="edge41" class="edge">
<title>Node25&#45;&gt;Node21</title>
<path fill="none" stroke="midnightblue" d="M808.83,-168.4C795.9,-159.13 779.01,-147.03 765.93,-137.65"/>
<polygon fill="midnightblue" stroke="midnightblue" points="767.74,-134.64 757.58,-131.66 763.67,-140.33 767.74,-134.64"/>
</g>
<!-- Node26&#45;&gt;Node22 -->
<g id="edge44" class="edge">
<title>Node26&#45;&gt;Node22</title>
<path fill="none" stroke="midnightblue" d="M889.1,-235.48C899.55,-226.2 916.47,-211.17 929.24,-199.83"/>
<polygon fill="midnightblue" stroke="midnightblue" points="931.77,-202.27 936.92,-193.01 927.12,-197.03 931.77,-202.27"/>
</g>
<!-- Node27&#45;&gt;Node8 -->
<g id="edge47" class="edge">
<title>Node27&#45;&gt;Node8</title>
<path fill="none" stroke="midnightblue" d="M1233.78,-235.18C1230.11,-218.9 1219.85,-184.29 1196.5,-168 1142.52,-130.33 967.67,-141.24 902.5,-132 847.23,-124.16 833.93,-118.58 778.5,-112 570.02,-87.26 516.27,-98.19 307.5,-76 296.55,-74.84 284.61,-73.29 273.93,-71.81"/>
<polygon fill="midnightblue" stroke="midnightblue" points="274.15,-68.31 263.76,-70.37 273.17,-75.24 274.15,-68.31"/>
</g>
<!-- Node27&#45;&gt;Node16 -->
<g id="edge50" class="edge">
<title>Node27&#45;&gt;Node16</title>
<path fill="none" stroke="midnightblue" d="M1220.6,-235.48C1203.53,-225.71 1175.34,-209.58 1155.24,-198.08"/>
<polygon fill="midnightblue" stroke="midnightblue" points="1156.79,-194.94 1146.37,-193.01 1153.31,-201.01 1156.79,-194.94"/>
</g>
<!-- Node27&#45;&gt;Node17 -->
<g id="edge49" class="edge">
<title>Node27&#45;&gt;Node17</title>
<path fill="none" stroke="midnightblue" d="M1237.84,-235.39C1241.51,-219.77 1246.58,-186.64 1229.5,-168 1202.02,-138.02 1090.27,-128.01 1019.74,-124.67"/>
<polygon fill="midnightblue" stroke="midnightblue" points="1019.79,-121.17 1009.65,-124.23 1019.48,-128.16 1019.79,-121.17"/>
</g>
<!-- Node28 -->
<g id="node28" class="node">
<title>Node28</title>
<g id="a_node28"><a xlink:title=" ">
<polygon fill="white" stroke="#bfbfbf" points="1281.5,-174 1281.5,-193 1331.5,-193 1331.5,-174 1281.5,-174"/>
<text text-anchor="middle" x="1306.5" y="-181" font-family="Helvetica,sans-Serif" font-size="10.00">chrono</text>
</a>
</g>
</g>
<!-- Node27&#45;&gt;Node28 -->
<g id="edge48" class="edge">
<title>Node27&#45;&gt;Node28</title>
<path fill="none" stroke="midnightblue" d="M1245.67,-235.48C1256.85,-226.11 1275.02,-210.88 1288.59,-199.51"/>
<polygon fill="midnightblue" stroke="midnightblue" points="1290.93,-202.11 1296.35,-193.01 1286.43,-196.75 1290.93,-202.11"/>
</g>
<!-- Node29&#45;&gt;Node6 -->
<g id="edge54" class="edge">
<title>Node29&#45;&gt;Node6</title>
<path fill="none" stroke="midnightblue" d="M657.62,-291.45C599.37,-277.83 488.89,-247.68 405.5,-199 377.4,-182.6 350.16,-156.2 334.11,-139.23"/>
<polygon fill="midnightblue" stroke="midnightblue" points="336.54,-136.7 327.18,-131.74 331.41,-141.46 336.54,-136.7"/>
</g>
<!-- Node29&#45;&gt;Node8 -->
<g id="edge58" class="edge">
<title>Node29&#45;&gt;Node8</title>
<path fill="none" stroke="midnightblue" d="M646.88,-298.91C541.04,-296.03 299.88,-286.15 224.5,-255 160.15,-228.41 123.07,-170.72 160.5,-112 171.56,-94.65 191.79,-83.4 209.26,-76.49"/>
<polygon fill="midnightblue" stroke="midnightblue" points="210.93,-79.61 219.14,-72.91 208.55,-73.03 210.93,-79.61"/>
</g>
<!-- Node29&#45;&gt;Node16 -->
<g id="edge53" class="edge">
<title>Node29&#45;&gt;Node16</title>
<path fill="none" stroke="midnightblue" d="M748.24,-297.76C853.37,-292.66 1087.46,-278.76 1114.5,-255 1128.81,-242.43 1132.14,-220.1 1132.48,-203.93"/>
<polygon fill="midnightblue" stroke="midnightblue" points="1135.97,-203.41 1132.3,-193.47 1128.97,-203.53 1135.97,-203.41"/>
</g>
<!-- Node29&#45;&gt;Node20 -->
<g id="edge57" class="edge">
<title>Node29&#45;&gt;Node20</title>
<path fill="none" stroke="midnightblue" d="M703.77,-291.08C709.14,-283.46 717.02,-272.26 723.58,-262.94"/>
<polygon fill="midnightblue" stroke="midnightblue" points="726.45,-264.94 729.34,-254.75 720.72,-260.91 726.45,-264.94"/>
</g>
<!-- Node29&#45;&gt;Node21 -->
<g id="edge59" class="edge">
<title>Node29&#45;&gt;Node21</title>
<path fill="none" stroke="midnightblue" d="M692.09,-291.2C685.1,-278.74 674.41,-255.21 679.5,-235 688.95,-197.46 715.36,-159.96 731.76,-139.28"/>
<polygon fill="midnightblue" stroke="midnightblue" points="734.5,-141.47 738.1,-131.5 729.07,-137.04 734.5,-141.47"/>
</g>
<!-- Node29&#45;&gt;Node23 -->
<g id="edge55" class="edge">
<title>Node29&#45;&gt;Node23</title>
<path fill="none" stroke="midnightblue" d="M686.23,-291.32C660.82,-271.75 598.82,-224.02 567.02,-199.53"/>
<polygon fill="midnightblue" stroke="midnightblue" points="568.96,-196.61 558.91,-193.28 564.69,-202.16 568.96,-196.61"/>
</g>
<!-- Node29&#45;&gt;Node27 -->
<g id="edge56" class="edge">
<title>Node29&#45;&gt;Node27</title>
<path fill="none" stroke="midnightblue" d="M748.12,-294.98C831.41,-286.7 1002.59,-269.66 1147.5,-255 1148.61,-254.89 1149.72,-254.78 1150.85,-254.66"/>
<polygon fill="midnightblue" stroke="midnightblue" points="1151.49,-258.11 1161.08,-253.62 1150.78,-251.15 1151.49,-258.11"/>
</g>
</g>
</svg>
