<?xml version="1.0" encoding="UTF-8" standalone="no"?>
<!DOCTYPE svg PUBLIC "-//W3C//DTD SVG 1.1//EN"
 "http://www.w3.org/Graphics/SVG/1.1/DTD/svg11.dtd">
<!-- Generated by graphviz version 2.43.0 (0)
 -->
<!-- Title: language/lib/Catch2/include/internal/catch_section.h Pages: 1 -->
<svg width="268pt" height="206pt"
 viewBox="0.00 0.00 268.00 206.00" xmlns="http://www.w3.org/2000/svg" xmlns:xlink="http://www.w3.org/1999/xlink">
<g id="graph0" class="graph" transform="scale(1 1) rotate(0) translate(4 202)">
<title>language/lib/Catch2/include/internal/catch_section.h</title>
<polygon fill="white" stroke="transparent" points="-4,4 -4,-202 264,-202 264,4 -4,4"/>
<!-- Node1 -->
<g id="node1" class="node">
<title>Node1</title>
<g id="a_node1"><a xlink:title=" ">
<polygon fill="#bfbfbf" stroke="black" points="63,-156.5 63,-197.5 188,-197.5 188,-156.5 63,-156.5"/>
<text text-anchor="start" x="71" y="-185.5" font-family="Helvetica,sans-Serif" font-size="10.00">language/lib/Catch2</text>
<text text-anchor="start" x="71" y="-174.5" font-family="Helvetica,sans-Serif" font-size="10.00">/include/internal/catch</text>
<text text-anchor="middle" x="125.5" y="-163.5" font-family="Helvetica,sans-Serif" font-size="10.00">_section.h</text>
</a>
</g>
</g>
<!-- Node2 -->
<g id="node2" class="node">
<title>Node2</title>
<g id="a_node2"><a xlink:href="include_2catch_8hpp.html" target="_top" xlink:title=" ">
<polygon fill="white" stroke="black" points="0,-84 0,-114 113,-114 113,-84 0,-84"/>
<text text-anchor="start" x="8" y="-102" font-family="Helvetica,sans-Serif" font-size="10.00">language/lib/Catch2</text>
<text text-anchor="middle" x="56.5" y="-91" font-family="Helvetica,sans-Serif" font-size="10.00">/include/catch.hpp</text>
</a>
</g>
</g>
<!-- Node1&#45;&gt;Node2 -->
<g id="edge1" class="edge">
<title>Node1&#45;&gt;Node2</title>
<path fill="none" stroke="midnightblue" d="M100.98,-148.99C90.32,-137.25 78.28,-123.99 69.42,-114.23"/>
<polygon fill="midnightblue" stroke="midnightblue" points="98.42,-151.38 107.73,-156.43 103.6,-146.67 98.42,-151.38"/>
</g>
<!-- Node4 -->
<g id="node4" class="node">
<title>Node4</title>
<g id="a_node4"><a xlink:href="catch__section_8cpp.html" target="_top" xlink:title=" ">
<polygon fill="white" stroke="black" points="132,-78.5 132,-119.5 257,-119.5 257,-78.5 132,-78.5"/>
<text text-anchor="start" x="140" y="-107.5" font-family="Helvetica,sans-Serif" font-size="10.00">language/lib/Catch2</text>
<text text-anchor="start" x="140" y="-96.5" font-family="Helvetica,sans-Serif" font-size="10.00">/include/internal/catch</text>
<text text-anchor="middle" x="194.5" y="-85.5" font-family="Helvetica,sans-Serif" font-size="10.00">_section.cpp</text>
</a>
</g>
</g>
<!-- Node1&#45;&gt;Node4 -->
<g id="edge3" class="edge">
<title>Node1&#45;&gt;Node4</title>
<path fill="none" stroke="midnightblue" d="M150.09,-148.92C158.91,-139.2 168.67,-128.45 176.79,-119.51"/>
<polygon fill="midnightblue" stroke="midnightblue" points="147.4,-146.67 143.27,-156.43 152.58,-151.38 147.4,-146.67"/>
</g>
<!-- Node3 -->
<g id="node3" class="node">
<title>Node3</title>
<g id="a_node3"><a xlink:href="catch__with__main_8hpp.html" target="_top" xlink:title=" ">
<polygon fill="white" stroke="black" points="0,-0.5 0,-41.5 113,-41.5 113,-0.5 0,-0.5"/>
<text text-anchor="start" x="8" y="-29.5" font-family="Helvetica,sans-Serif" font-size="10.00">language/lib/Catch2</text>
<text text-anchor="start" x="8" y="-18.5" font-family="Helvetica,sans-Serif" font-size="10.00">/include/catch_with</text>
<text text-anchor="middle" x="56.5" y="-7.5" font-family="Helvetica,sans-Serif" font-size="10.00">_main.hpp</text>
</a>
</g>
</g>
<!-- Node2&#45;&gt;Node3 -->
<g id="edge2" class="edge">
<title>Node2&#45;&gt;Node3</title>
<path fill="none" stroke="midnightblue" d="M56.5,-73.66C56.5,-63.33 56.5,-51.44 56.5,-41.68"/>
<polygon fill="midnightblue" stroke="midnightblue" points="53,-73.7 56.5,-83.7 60,-73.71 53,-73.7"/>
</g>
<!-- Node5 -->
<g id="node5" class="node">
<title>Node5</title>
<g id="a_node5"><a xlink:href="catch__objc__impl_8mm.html" target="_top" xlink:title=" ">
<polygon fill="white" stroke="black" points="131,-0.5 131,-41.5 260,-41.5 260,-0.5 131,-0.5"/>
<text text-anchor="start" x="139" y="-29.5" font-family="Helvetica,sans-Serif" font-size="10.00">language/lib/Catch2</text>
<text text-anchor="start" x="139" y="-18.5" font-family="Helvetica,sans-Serif" font-size="10.00">/projects/XCode/OCTest</text>
<text text-anchor="middle" x="195.5" y="-7.5" font-family="Helvetica,sans-Serif" font-size="10.00">/catch_objc_impl.mm</text>
</a>
</g>
</g>
<!-- Node4&#45;&gt;Node5 -->
<g id="edge4" class="edge">
<title>Node4&#45;&gt;Node5</title>
<path fill="none" stroke="midnightblue" d="M194.89,-68.3C195.01,-59.3 195.14,-49.65 195.24,-41.51"/>
<polygon fill="midnightblue" stroke="midnightblue" points="191.39,-68.38 194.76,-78.43 198.39,-68.48 191.39,-68.38"/>
</g>
</g>
</svg>
