<?xml version="1.0" encoding="UTF-8" standalone="no"?>
<!DOCTYPE svg PUBLIC "-//W3C//DTD SVG 1.1//EN"
 "http://www.w3.org/Graphics/SVG/1.1/DTD/svg11.dtd">
<!-- Generated by graphviz version 2.43.0 (0)
 -->
<!-- Title: language/lib/Catch2/include/internal/catch_tostring.h Pages: 1 -->
<!--zoomable 285 -->
<svg id="main" version="1.1" xmlns="http://www.w3.org/2000/svg" xmlns:xlink="http://www.w3.org/1999/xlink" xml:space="preserve" onload="init(evt)">
<style type="text/css"><![CDATA[
.edge:hover path { stroke: red; }
.edge:hover polygon { stroke: red; fill: red; }
]]></style>
<script type="text/javascript"><![CDATA[
var edges = document.getElementsByTagName('g');
if (edges && edges.length) {
  for (var i=0;i<edges.length;i++) {
    if (edges[i].id.substr(0,4)=='edge') {
      edges[i].setAttribute('class','edge');
    }
  }
}
]]></script>
        <defs>
                <circle id="rim" cx="0" cy="0" r="7"/>
                <circle id="rim2" cx="0" cy="0" r="3.5"/>
                <g id="zoomPlus">
                        <use xlink:href="#rim" fill="#404040">
                                <set attributeName="fill" to="#808080" begin="zoomplus.mouseover" end="zoomplus.mouseout"/>
                        </use>
                        <path d="M-4,0h8M0,-4v8" fill="none" stroke="white" stroke-width="1.5" pointer-events="none"/>
                </g>
                <g id="zoomMin">
                        <use xlink:href="#rim" fill="#404040">
                                <set attributeName="fill" to="#808080" begin="zoomminus.mouseover" end="zoomminus.mouseout"/>
                        </use>
                        <path d="M-4,0h8" fill="none" stroke="white" stroke-width="1.5" pointer-events="none"/>
                </g>
                <g id="dirArrow">
                        <path fill="none" stroke="white" stroke-width="1.5" d="M0,-3.0v7 M-2.5,-0.5L0,-3.0L2.5,-0.5"/>
                </g>
               <g id="resetDef">
                       <use xlink:href="#rim2" fill="#404040">
                               <set attributeName="fill" to="#808080" begin="reset.mouseover" end="reset.mouseout"/>
                       </use>
               </g>
        </defs>

<script type="text/javascript">
var viewWidth = 697;
var viewHeight = 285;
var sectionId = 'dynsection-0';
</script>
<script xlink:href="svgpan.js"/>
<svg id="graph" class="graph">
<g id="viewport">
<title>language/lib/Catch2/include/internal/catch_tostring.h</title>
<polygon fill="white" stroke="transparent" points="-4,4 -4,-281 692.91,-281 692.91,4 -4,4"/>
<!-- Node1 -->
<g id="node1" class="node">
<title>Node1</title>
<g id="a_node1"><a xlink:title=" ">
<polygon fill="#bfbfbf" stroke="black" points="258.91,-235.5 258.91,-276.5 383.91,-276.5 383.91,-235.5 258.91,-235.5"/>
<text text-anchor="start" x="266.91" y="-264.5" font-family="Helvetica,sans-Serif" font-size="10.00">language/lib/Catch2</text>
<text text-anchor="start" x="266.91" y="-253.5" font-family="Helvetica,sans-Serif" font-size="10.00">/include/internal/catch</text>
<text text-anchor="middle" x="321.41" y="-242.5" font-family="Helvetica,sans-Serif" font-size="10.00">_tostring.h</text>
</a>
</g>
</g>
<!-- Node2 -->
<g id="node2" class="node">
<title>Node2</title>
<g id="a_node2"><a xlink:title=" ">
<polygon fill="white" stroke="#bfbfbf" points="9.91,-112.5 9.91,-131.5 56.91,-131.5 56.91,-112.5 9.91,-112.5"/>
<text text-anchor="middle" x="33.41" y="-119.5" font-family="Helvetica,sans-Serif" font-size="10.00">vector</text>
</a>
</g>
</g>
<!-- Node1&#45;&gt;Node2 -->
<g id="edge1" class="edge">
<title>Node1&#45;&gt;Node2</title>
<path fill="none" stroke="midnightblue" d="M258.6,-253.04C176.09,-248.99 37.94,-236.63 6.41,-199 -7.99,-181.82 6.18,-156.4 18.82,-139.77"/>
<polygon fill="midnightblue" stroke="midnightblue" points="21.56,-141.94 25.13,-131.97 16.12,-137.54 21.56,-141.94"/>
</g>
<!-- Node3 -->
<g id="node3" class="node">
<title>Node3</title>
<g id="a_node3"><a xlink:title=" ">
<polygon fill="white" stroke="#bfbfbf" points="140.91,-56.5 140.91,-75.5 193.91,-75.5 193.91,-56.5 140.91,-56.5"/>
<text text-anchor="middle" x="167.41" y="-63.5" font-family="Helvetica,sans-Serif" font-size="10.00">cstddef</text>
</a>
</g>
</g>
<!-- Node1&#45;&gt;Node3 -->
<g id="edge2" class="edge">
<title>Node1&#45;&gt;Node3</title>
<path fill="none" stroke="midnightblue" d="M281.85,-235.31C245.68,-214.93 194.29,-179.41 170.41,-132 163.18,-117.66 163.06,-99.19 164.38,-85.61"/>
<polygon fill="midnightblue" stroke="midnightblue" points="167.87,-85.92 165.7,-75.55 160.93,-85.01 167.87,-85.92"/>
</g>
<!-- Node4 -->
<g id="node4" class="node">
<title>Node4</title>
<g id="a_node4"><a xlink:title=" ">
<polygon fill="white" stroke="#bfbfbf" points="619.91,-174 619.91,-193 688.91,-193 688.91,-174 619.91,-174"/>
<text text-anchor="middle" x="654.41" y="-181" font-family="Helvetica,sans-Serif" font-size="10.00">type_traits</text>
</a>
</g>
</g>
<!-- Node1&#45;&gt;Node4 -->
<g id="edge3" class="edge">
<title>Node1&#45;&gt;Node4</title>
<path fill="none" stroke="midnightblue" d="M384.11,-244.37C441.9,-234.16 529.89,-217.58 605.41,-199 609.32,-198.04 613.39,-196.96 617.43,-195.84"/>
<polygon fill="midnightblue" stroke="midnightblue" points="618.67,-199.13 627.32,-193.01 616.74,-192.4 618.67,-199.13"/>
</g>
<!-- Node5 -->
<g id="node5" class="node">
<title>Node5</title>
<g id="a_node5"><a xlink:title=" ">
<polygon fill="white" stroke="#bfbfbf" points="299.41,-56.5 299.41,-75.5 343.41,-75.5 343.41,-56.5 299.41,-56.5"/>
<text text-anchor="middle" x="321.41" y="-63.5" font-family="Helvetica,sans-Serif" font-size="10.00">string</text>
</a>
</g>
</g>
<!-- Node1&#45;&gt;Node5 -->
<g id="edge4" class="edge">
<title>Node1&#45;&gt;Node5</title>
<path fill="none" stroke="midnightblue" d="M321.41,-235.24C321.41,-198.83 321.41,-121.62 321.41,-85.88"/>
<polygon fill="midnightblue" stroke="midnightblue" points="324.91,-85.84 321.41,-75.84 317.91,-85.84 324.91,-85.84"/>
</g>
<!-- Node6 -->
<g id="node6" class="node">
<title>Node6</title>
<g id="a_node6"><a xlink:href="catch__compiler__capabilities_8h.html" target="_top" xlink:title=" ">
<polygon fill="white" stroke="black" points="527.91,-56.5 527.91,-75.5 688.91,-75.5 688.91,-56.5 527.91,-56.5"/>
<text text-anchor="middle" x="608.41" y="-63.5" font-family="Helvetica,sans-Serif" font-size="10.00">catch_compiler_capabilities.h</text>
</a>
</g>
</g>
<!-- Node1&#45;&gt;Node6 -->
<g id="edge5" class="edge">
<title>Node1&#45;&gt;Node6</title>
<path fill="none" stroke="midnightblue" d="M383.99,-237.1C439.39,-218.55 519.47,-184.75 572.41,-132 585.81,-118.65 595.67,-99.27 601.65,-85.15"/>
<polygon fill="midnightblue" stroke="midnightblue" points="605.02,-86.14 605.46,-75.56 598.51,-83.56 605.02,-86.14"/>
</g>
<!-- Node8 -->
<g id="node8" class="node">
<title>Node8</title>
<g id="a_node8"><a xlink:href="catch__stream_8h.html" target="_top" xlink:title=" ">
<polygon fill="white" stroke="black" points="349.41,-174 349.41,-193 441.41,-193 441.41,-174 349.41,-174"/>
<text text-anchor="middle" x="395.41" y="-181" font-family="Helvetica,sans-Serif" font-size="10.00">catch_stream.h</text>
</a>
</g>
</g>
<!-- Node1&#45;&gt;Node8 -->
<g id="edge7" class="edge">
<title>Node1&#45;&gt;Node8</title>
<path fill="none" stroke="midnightblue" d="M342.02,-235.36C353.61,-224.32 367.88,-210.72 378.76,-200.37"/>
<polygon fill="midnightblue" stroke="midnightblue" points="381.48,-202.61 386.31,-193.17 376.65,-197.54 381.48,-202.61"/>
</g>
<!-- Node13 -->
<g id="node13" class="node">
<title>Node13</title>
<g id="a_node13"><a xlink:href="catch__interfaces__enum__values__registry_8h.html" target="_top" xlink:title=" ">
<polygon fill="white" stroke="black" points="15.41,-168.5 15.41,-198.5 145.41,-198.5 145.41,-168.5 15.41,-168.5"/>
<text text-anchor="start" x="23.41" y="-186.5" font-family="Helvetica,sans-Serif" font-size="10.00">catch_interfaces_enum</text>
<text text-anchor="middle" x="80.41" y="-175.5" font-family="Helvetica,sans-Serif" font-size="10.00">_values_registry.h</text>
</a>
</g>
</g>
<!-- Node1&#45;&gt;Node13 -->
<g id="edge16" class="edge">
<title>Node1&#45;&gt;Node13</title>
<path fill="none" stroke="midnightblue" d="M258.72,-236.66C221.5,-225.77 174.62,-212.06 138.28,-201.43"/>
<polygon fill="midnightblue" stroke="midnightblue" points="138.91,-197.97 128.33,-198.52 136.94,-204.68 138.91,-197.97"/>
</g>
<!-- Node7 -->
<g id="node7" class="node">
<title>Node7</title>
<g id="a_node7"><a xlink:href="catch__platform_8h.html" target="_top" xlink:title=" ">
<polygon fill="white" stroke="black" points="558.91,-0.5 558.91,-19.5 657.91,-19.5 657.91,-0.5 558.91,-0.5"/>
<text text-anchor="middle" x="608.41" y="-7.5" font-family="Helvetica,sans-Serif" font-size="10.00">catch_platform.h</text>
</a>
</g>
</g>
<!-- Node6&#45;&gt;Node7 -->
<g id="edge6" class="edge">
<title>Node6&#45;&gt;Node7</title>
<path fill="none" stroke="midnightblue" d="M608.41,-56.08C608.41,-49.01 608.41,-38.86 608.41,-29.99"/>
<polygon fill="midnightblue" stroke="midnightblue" points="611.91,-29.75 608.41,-19.75 604.91,-29.75 611.91,-29.75"/>
</g>
<!-- Node8&#45;&gt;Node3 -->
<g id="edge14" class="edge">
<title>Node8&#45;&gt;Node3</title>
<path fill="none" stroke="midnightblue" d="M349.23,-176.78C295,-169.16 209.51,-154.03 186.41,-132 173.92,-120.09 169.51,-100.47 168.02,-85.9"/>
<polygon fill="midnightblue" stroke="midnightblue" points="171.48,-85.29 167.35,-75.54 164.5,-85.74 171.48,-85.29"/>
</g>
<!-- Node9 -->
<g id="node9" class="node">
<title>Node9</title>
<g id="a_node9"><a xlink:href="catch__common_8h.html" target="_top" xlink:title=" ">
<polygon fill="white" stroke="black" points="463.41,-112.5 463.41,-131.5 563.41,-131.5 563.41,-112.5 463.41,-112.5"/>
<text text-anchor="middle" x="513.41" y="-119.5" font-family="Helvetica,sans-Serif" font-size="10.00">catch_common.h</text>
</a>
</g>
</g>
<!-- Node8&#45;&gt;Node9 -->
<g id="edge8" class="edge">
<title>Node8&#45;&gt;Node9</title>
<path fill="none" stroke="midnightblue" d="M412.32,-173.98C431.95,-164.08 464.54,-147.64 487.4,-136.12"/>
<polygon fill="midnightblue" stroke="midnightblue" points="489.18,-139.14 496.54,-131.51 486.03,-132.89 489.18,-139.14"/>
</g>
<!-- Node10 -->
<g id="node10" class="node">
<title>Node10</title>
<g id="a_node10"><a xlink:title=" ">
<polygon fill="white" stroke="#bfbfbf" points="393.41,-56.5 393.41,-75.5 441.41,-75.5 441.41,-56.5 393.41,-56.5"/>
<text text-anchor="middle" x="417.41" y="-63.5" font-family="Helvetica,sans-Serif" font-size="10.00">iosfwd</text>
</a>
</g>
</g>
<!-- Node8&#45;&gt;Node10 -->
<g id="edge13" class="edge">
<title>Node8&#45;&gt;Node10</title>
<path fill="none" stroke="midnightblue" d="M399.91,-173.85C404.77,-164.01 412.24,-147.33 415.41,-132 418.59,-116.61 418.91,-98.73 418.53,-85.63"/>
<polygon fill="midnightblue" stroke="midnightblue" points="422.02,-85.36 418.07,-75.52 415.03,-85.67 422.02,-85.36"/>
</g>
<!-- Node12 -->
<g id="node12" class="node">
<title>Node12</title>
<g id="a_node12"><a xlink:title=" ">
<polygon fill="white" stroke="#bfbfbf" points="349.91,-112.5 349.91,-131.5 406.91,-131.5 406.91,-112.5 349.91,-112.5"/>
<text text-anchor="middle" x="378.41" y="-119.5" font-family="Helvetica,sans-Serif" font-size="10.00">ostream</text>
</a>
</g>
</g>
<!-- Node8&#45;&gt;Node12 -->
<g id="edge15" class="edge">
<title>Node8&#45;&gt;Node12</title>
<path fill="none" stroke="midnightblue" d="M392.98,-173.98C390.55,-165.49 386.75,-152.2 383.65,-141.32"/>
<polygon fill="midnightblue" stroke="midnightblue" points="386.95,-140.16 380.84,-131.51 380.22,-142.09 386.95,-140.16"/>
</g>
<!-- Node9&#45;&gt;Node5 -->
<g id="edge11" class="edge">
<title>Node9&#45;&gt;Node5</title>
<path fill="none" stroke="midnightblue" d="M482.99,-112.44C447.67,-102.51 389.66,-86.2 353.6,-76.05"/>
<polygon fill="midnightblue" stroke="midnightblue" points="354.18,-72.58 343.61,-73.24 352.29,-79.32 354.18,-72.58"/>
</g>
<!-- Node9&#45;&gt;Node6 -->
<g id="edge9" class="edge">
<title>Node9&#45;&gt;Node6</title>
<path fill="none" stroke="midnightblue" d="M528.67,-112.32C543.63,-103.82 566.67,-90.73 584.14,-80.8"/>
<polygon fill="midnightblue" stroke="midnightblue" points="586.22,-83.64 593.19,-75.65 582.76,-77.55 586.22,-83.64"/>
</g>
<!-- Node9&#45;&gt;Node10 -->
<g id="edge10" class="edge">
<title>Node9&#45;&gt;Node10</title>
<path fill="none" stroke="midnightblue" d="M497.99,-112.32C482.87,-103.82 459.6,-90.73 441.94,-80.8"/>
<polygon fill="midnightblue" stroke="midnightblue" points="443.23,-77.51 432.8,-75.65 439.8,-83.61 443.23,-77.51"/>
</g>
<!-- Node11 -->
<g id="node11" class="node">
<title>Node11</title>
<g id="a_node11"><a xlink:title=" ">
<polygon fill="white" stroke="#bfbfbf" points="459.41,-56.5 459.41,-75.5 509.41,-75.5 509.41,-56.5 459.41,-56.5"/>
<text text-anchor="middle" x="484.41" y="-63.5" font-family="Helvetica,sans-Serif" font-size="10.00">cstdint</text>
</a>
</g>
</g>
<!-- Node9&#45;&gt;Node11 -->
<g id="edge12" class="edge">
<title>Node9&#45;&gt;Node11</title>
<path fill="none" stroke="midnightblue" d="M508.62,-112.08C504.65,-104.69 498.89,-93.95 493.98,-84.81"/>
<polygon fill="midnightblue" stroke="midnightblue" points="496.93,-82.91 489.11,-75.75 490.76,-86.22 496.93,-82.91"/>
</g>
<!-- Node13&#45;&gt;Node2 -->
<g id="edge22" class="edge">
<title>Node13&#45;&gt;Node2</title>
<path fill="none" stroke="midnightblue" d="M69.27,-168.4C62.44,-159.75 53.67,-148.64 46.5,-139.58"/>
<polygon fill="midnightblue" stroke="midnightblue" points="49.19,-137.34 40.25,-131.66 43.7,-141.67 49.19,-137.34"/>
</g>
<!-- Node14 -->
<g id="node14" class="node">
<title>Node14</title>
<g id="a_node14"><a xlink:href="catch__stringref_8h.html" target="_top" xlink:title=" ">
<polygon fill="white" stroke="black" points="195.41,-112.5 195.41,-131.5 293.41,-131.5 293.41,-112.5 195.41,-112.5"/>
<text text-anchor="middle" x="244.41" y="-119.5" font-family="Helvetica,sans-Serif" font-size="10.00">catch_stringref.h</text>
</a>
</g>
</g>
<!-- Node13&#45;&gt;Node14 -->
<g id="edge17" class="edge">
<title>Node13&#45;&gt;Node14</title>
<path fill="none" stroke="midnightblue" d="M119.28,-168.4C147.16,-158.28 184.35,-144.79 210.92,-135.15"/>
<polygon fill="midnightblue" stroke="midnightblue" points="212.34,-138.36 220.55,-131.66 209.95,-131.78 212.34,-138.36"/>
</g>
<!-- Node14&#45;&gt;Node3 -->
<g id="edge18" class="edge">
<title>Node14&#45;&gt;Node3</title>
<path fill="none" stroke="midnightblue" d="M232.04,-112.32C220.25,-104.06 202.28,-91.45 188.28,-81.63"/>
<polygon fill="midnightblue" stroke="midnightblue" points="189.95,-78.53 179.75,-75.65 185.93,-84.26 189.95,-78.53"/>
</g>
<!-- Node14&#45;&gt;Node5 -->
<g id="edge19" class="edge">
<title>Node14&#45;&gt;Node5</title>
<path fill="none" stroke="midnightblue" d="M256.78,-112.32C268.57,-104.06 286.54,-91.45 300.55,-81.63"/>
<polygon fill="midnightblue" stroke="midnightblue" points="302.89,-84.26 309.07,-75.65 298.87,-78.53 302.89,-84.26"/>
</g>
<!-- Node14&#45;&gt;Node10 -->
<g id="edge20" class="edge">
<title>Node14&#45;&gt;Node10</title>
<path fill="none" stroke="midnightblue" d="M271.82,-112.44C302.13,-102.98 350.97,-87.74 383.62,-77.55"/>
<polygon fill="midnightblue" stroke="midnightblue" points="384.69,-80.88 393.2,-74.56 382.61,-74.2 384.69,-80.88"/>
</g>
<!-- Node15 -->
<g id="node15" class="node">
<title>Node15</title>
<g id="a_node15"><a xlink:title=" ">
<polygon fill="white" stroke="#bfbfbf" points="218.41,-56.5 218.41,-75.5 270.41,-75.5 270.41,-56.5 218.41,-56.5"/>
<text text-anchor="middle" x="244.41" y="-63.5" font-family="Helvetica,sans-Serif" font-size="10.00">cassert</text>
</a>
</g>
</g>
<!-- Node14&#45;&gt;Node15 -->
<g id="edge21" class="edge">
<title>Node14&#45;&gt;Node15</title>
<path fill="none" stroke="midnightblue" d="M244.41,-112.08C244.41,-105.01 244.41,-94.86 244.41,-85.99"/>
<polygon fill="midnightblue" stroke="midnightblue" points="247.91,-85.75 244.41,-75.75 240.91,-85.75 247.91,-85.75"/>
</g>
</g>
</svg>
        <g id="navigator" transform="translate(0 0)" fill="#404254">
                <rect fill="#f2f5e9" fill-opacity="0.5" stroke="#606060" stroke-width=".5" x="0" y="0" width="60" height="60"/>
                <use id="zoomplus" xlink:href="#zoomPlus" x="17" y="9" onmousedown="handleZoom(evt,'in')"/>
                <use id="zoomminus" xlink:href="#zoomMin" x="42" y="9" onmousedown="handleZoom(evt,'out')"/>
                <use id="reset" xlink:href="#resetDef" x="30" y="36" onmousedown="handleReset()"/>
                <g id="arrowUp" xlink:href="#dirArrow" transform="translate(30 24)" onmousedown="handlePan(0,-1)">
                  <use xlink:href="#rim" fill="#404040">
                        <set attributeName="fill" to="#808080" begin="arrowUp.mouseover" end="arrowUp.mouseout"/>
                  </use>
                  <path fill="none" stroke="white" stroke-width="1.5" d="M0,-3.0v7 M-2.5,-0.5L0,-3.0L2.5,-0.5"/>
                </g>
                <g id="arrowRight" xlink:href="#dirArrow" transform="rotate(90) translate(36 -43)" onmousedown="handlePan(1,0)">
                  <use xlink:href="#rim" fill="#404040">
                        <set attributeName="fill" to="#808080" begin="arrowRight.mouseover" end="arrowRight.mouseout"/>
                  </use>
                  <path fill="none" stroke="white" stroke-width="1.5" d="M0,-3.0v7 M-2.5,-0.5L0,-3.0L2.5,-0.5"/>
                </g>
                <g id="arrowDown" xlink:href="#dirArrow" transform="rotate(180) translate(-30 -48)" onmousedown="handlePan(0,1)">
                  <use xlink:href="#rim" fill="#404040">
                        <set attributeName="fill" to="#808080" begin="arrowDown.mouseover" end="arrowDown.mouseout"/>
                  </use>
                  <path fill="none" stroke="white" stroke-width="1.5" d="M0,-3.0v7 M-2.5,-0.5L0,-3.0L2.5,-0.5"/>
                </g>
                <g id="arrowLeft" xlink:href="#dirArrow" transform="rotate(270) translate(-36 17)" onmousedown="handlePan(-1,0)">
                  <use xlink:href="#rim" fill="#404040">
                        <set attributeName="fill" to="#808080" begin="arrowLeft.mouseover" end="arrowLeft.mouseout"/>
                  </use>
                  <path fill="none" stroke="white" stroke-width="1.5" d="M0,-3.0v7 M-2.5,-0.5L0,-3.0L2.5,-0.5"/>
                </g>
        </g>
        <svg viewBox="0 0 15 15" width="100%" height="30px" preserveAspectRatio="xMaxYMin meet">
         <g id="arrow_out" transform="scale(0.3 0.3)">
          <a xlink:href="catch__tostring_8h__incl_org.svg" target="_base">
           <rect id="button" ry="5" rx="5" y="6" x="6" height="38" width="38"
                fill="#f2f5e9" fill-opacity="0.5" stroke="#606060" stroke-width="1.0"/>
           <path id="arrow"
             d="M 11.500037,31.436501 C 11.940474,20.09759 22.043105,11.32322 32.158766,21.979434 L 37.068811,17.246167 C 37.068811,17.246167 37.088388,32 37.088388,32 L 22.160133,31.978069 C 22.160133,31.978069 26.997745,27.140456 26.997745,27.140456 C 18.528582,18.264221 13.291696,25.230495 11.500037,31.436501 z"
             style="fill:#404040;"/>
          </a>
         </g>
        </svg>
</svg>
