<?xml version="1.0" encoding="UTF-8" standalone="no"?>
<!DOCTYPE svg PUBLIC "-//W3C//DTD SVG 1.1//EN"
 "http://www.w3.org/Graphics/SVG/1.1/DTD/svg11.dtd">
<!-- Generated by graphviz version 2.43.0 (0)
 -->
<!-- Title: language/lib/Catch2/include/internal/catch_reporter_registrars.hpp Pages: 1 -->
<svg width="729pt" height="284pt"
 viewBox="0.00 0.00 729.00 284.00" xmlns="http://www.w3.org/2000/svg" xmlns:xlink="http://www.w3.org/1999/xlink">
<g id="graph0" class="graph" transform="scale(1 1) rotate(0) translate(4 280)">
<title>language/lib/Catch2/include/internal/catch_reporter_registrars.hpp</title>
<polygon fill="white" stroke="transparent" points="-4,4 -4,-280 725,-280 725,4 -4,4"/>
<!-- Node1 -->
<g id="node1" class="node">
<title>Node1</title>
<g id="a_node1"><a xlink:title=" ">
<polygon fill="#bfbfbf" stroke="black" points="290.5,-234.5 290.5,-275.5 424.5,-275.5 424.5,-234.5 290.5,-234.5"/>
<text text-anchor="start" x="298.5" y="-263.5" font-family="Helvetica,sans-Serif" font-size="10.00">language/lib/Catch2</text>
<text text-anchor="start" x="298.5" y="-252.5" font-family="Helvetica,sans-Serif" font-size="10.00">/include/internal/catch</text>
<text text-anchor="middle" x="357.5" y="-241.5" font-family="Helvetica,sans-Serif" font-size="10.00">_reporter_registrars.hpp</text>
</a>
</g>
</g>
<!-- Node2 -->
<g id="node2" class="node">
<title>Node2</title>
<g id="a_node2"><a xlink:href="catch__external__interfaces_8h.html" target="_top" xlink:title=" ">
<polygon fill="white" stroke="black" points="0,-156.5 0,-197.5 125,-197.5 125,-156.5 0,-156.5"/>
<text text-anchor="start" x="8" y="-185.5" font-family="Helvetica,sans-Serif" font-size="10.00">language/lib/Catch2</text>
<text text-anchor="start" x="8" y="-174.5" font-family="Helvetica,sans-Serif" font-size="10.00">/include/internal/catch</text>
<text text-anchor="middle" x="62.5" y="-163.5" font-family="Helvetica,sans-Serif" font-size="10.00">_external_interfaces.h</text>
</a>
</g>
</g>
<!-- Node1&#45;&gt;Node2 -->
<g id="edge1" class="edge">
<title>Node1&#45;&gt;Node2</title>
<path fill="none" stroke="midnightblue" d="M280.34,-235.31C237.08,-224.68 182.2,-210.94 133.5,-198 130.78,-197.28 128,-196.53 125.19,-195.77"/>
<polygon fill="midnightblue" stroke="midnightblue" points="279.68,-238.75 290.22,-237.73 281.35,-231.95 279.68,-238.75"/>
</g>
<!-- Node5 -->
<g id="node5" class="node">
<title>Node5</title>
<g id="a_node5"><a xlink:href="catch__reporter__compact_8cpp.html" target="_top" xlink:title=" ">
<polygon fill="white" stroke="black" points="143,-156.5 143,-197.5 274,-197.5 274,-156.5 143,-156.5"/>
<text text-anchor="start" x="151" y="-185.5" font-family="Helvetica,sans-Serif" font-size="10.00">language/lib/Catch2</text>
<text text-anchor="start" x="151" y="-174.5" font-family="Helvetica,sans-Serif" font-size="10.00">/include/reporters/catch</text>
<text text-anchor="middle" x="208.5" y="-163.5" font-family="Helvetica,sans-Serif" font-size="10.00">_reporter_compact.cpp</text>
</a>
</g>
</g>
<!-- Node1&#45;&gt;Node5 -->
<g id="edge4" class="edge">
<title>Node1&#45;&gt;Node5</title>
<path fill="none" stroke="midnightblue" d="M309.99,-229.77C289.57,-219.35 266.01,-207.34 246.74,-197.51"/>
<polygon fill="midnightblue" stroke="midnightblue" points="308.63,-233 319.13,-234.43 311.81,-226.77 308.63,-233"/>
</g>
<!-- Node7 -->
<g id="node7" class="node">
<title>Node7</title>
<g id="a_node7"><a xlink:href="catch__reporter__console_8cpp.html" target="_top" xlink:title=" ">
<polygon fill="white" stroke="black" points="292,-156.5 292,-197.5 423,-197.5 423,-156.5 292,-156.5"/>
<text text-anchor="start" x="300" y="-185.5" font-family="Helvetica,sans-Serif" font-size="10.00">language/lib/Catch2</text>
<text text-anchor="start" x="300" y="-174.5" font-family="Helvetica,sans-Serif" font-size="10.00">/include/reporters/catch</text>
<text text-anchor="middle" x="357.5" y="-163.5" font-family="Helvetica,sans-Serif" font-size="10.00">_reporter_console.cpp</text>
</a>
</g>
</g>
<!-- Node1&#45;&gt;Node7 -->
<g id="edge6" class="edge">
<title>Node1&#45;&gt;Node7</title>
<path fill="none" stroke="midnightblue" d="M357.5,-224.3C357.5,-215.3 357.5,-205.65 357.5,-197.51"/>
<polygon fill="midnightblue" stroke="midnightblue" points="354,-224.43 357.5,-234.43 361,-224.43 354,-224.43"/>
</g>
<!-- Node8 -->
<g id="node8" class="node">
<title>Node8</title>
<g id="a_node8"><a xlink:href="catch__reporter__junit_8cpp.html" target="_top" xlink:title=" ">
<polygon fill="white" stroke="black" points="441,-156.5 441,-197.5 572,-197.5 572,-156.5 441,-156.5"/>
<text text-anchor="start" x="449" y="-185.5" font-family="Helvetica,sans-Serif" font-size="10.00">language/lib/Catch2</text>
<text text-anchor="start" x="449" y="-174.5" font-family="Helvetica,sans-Serif" font-size="10.00">/include/reporters/catch</text>
<text text-anchor="middle" x="506.5" y="-163.5" font-family="Helvetica,sans-Serif" font-size="10.00">_reporter_junit.cpp</text>
</a>
</g>
</g>
<!-- Node1&#45;&gt;Node8 -->
<g id="edge8" class="edge">
<title>Node1&#45;&gt;Node8</title>
<path fill="none" stroke="midnightblue" d="M405.01,-229.77C425.43,-219.35 448.99,-207.34 468.26,-197.51"/>
<polygon fill="midnightblue" stroke="midnightblue" points="403.19,-226.77 395.87,-234.43 406.37,-233 403.19,-226.77"/>
</g>
<!-- Node9 -->
<g id="node9" class="node">
<title>Node9</title>
<g id="a_node9"><a xlink:href="catch__reporter__xml_8cpp.html" target="_top" xlink:title=" ">
<polygon fill="white" stroke="black" points="590,-156.5 590,-197.5 721,-197.5 721,-156.5 590,-156.5"/>
<text text-anchor="start" x="598" y="-185.5" font-family="Helvetica,sans-Serif" font-size="10.00">language/lib/Catch2</text>
<text text-anchor="start" x="598" y="-174.5" font-family="Helvetica,sans-Serif" font-size="10.00">/include/reporters/catch</text>
<text text-anchor="middle" x="655.5" y="-163.5" font-family="Helvetica,sans-Serif" font-size="10.00">_reporter_xml.cpp</text>
</a>
</g>
</g>
<!-- Node1&#45;&gt;Node9 -->
<g id="edge10" class="edge">
<title>Node1&#45;&gt;Node9</title>
<path fill="none" stroke="midnightblue" d="M434.61,-235.11C477.85,-224.42 532.73,-210.69 581.5,-198 584.2,-197.3 586.96,-196.57 589.75,-195.84"/>
<polygon fill="midnightblue" stroke="midnightblue" points="433.6,-231.75 424.73,-237.55 435.27,-238.55 433.6,-231.75"/>
</g>
<!-- Node3 -->
<g id="node3" class="node">
<title>Node3</title>
<g id="a_node3"><a xlink:href="include_2catch_8hpp.html" target="_top" xlink:title=" ">
<polygon fill="white" stroke="black" points="6,-84 6,-114 119,-114 119,-84 6,-84"/>
<text text-anchor="start" x="14" y="-102" font-family="Helvetica,sans-Serif" font-size="10.00">language/lib/Catch2</text>
<text text-anchor="middle" x="62.5" y="-91" font-family="Helvetica,sans-Serif" font-size="10.00">/include/catch.hpp</text>
</a>
</g>
</g>
<!-- Node2&#45;&gt;Node3 -->
<g id="edge2" class="edge">
<title>Node2&#45;&gt;Node3</title>
<path fill="none" stroke="midnightblue" d="M62.5,-146.28C62.5,-135.25 62.5,-123.25 62.5,-114.23"/>
<polygon fill="midnightblue" stroke="midnightblue" points="59,-146.43 62.5,-156.43 66,-146.43 59,-146.43"/>
</g>
<!-- Node4 -->
<g id="node4" class="node">
<title>Node4</title>
<g id="a_node4"><a xlink:href="catch__with__main_8hpp.html" target="_top" xlink:title=" ">
<polygon fill="white" stroke="black" points="6,-0.5 6,-41.5 119,-41.5 119,-0.5 6,-0.5"/>
<text text-anchor="start" x="14" y="-29.5" font-family="Helvetica,sans-Serif" font-size="10.00">language/lib/Catch2</text>
<text text-anchor="start" x="14" y="-18.5" font-family="Helvetica,sans-Serif" font-size="10.00">/include/catch_with</text>
<text text-anchor="middle" x="62.5" y="-7.5" font-family="Helvetica,sans-Serif" font-size="10.00">_main.hpp</text>
</a>
</g>
</g>
<!-- Node3&#45;&gt;Node4 -->
<g id="edge3" class="edge">
<title>Node3&#45;&gt;Node4</title>
<path fill="none" stroke="midnightblue" d="M62.5,-73.66C62.5,-63.33 62.5,-51.44 62.5,-41.68"/>
<polygon fill="midnightblue" stroke="midnightblue" points="59,-73.7 62.5,-83.7 66,-73.71 59,-73.7"/>
</g>
<!-- Node6 -->
<g id="node6" class="node">
<title>Node6</title>
<g id="a_node6"><a xlink:href="catch__objc__impl_8mm.html" target="_top" xlink:title=" ">
<polygon fill="white" stroke="black" points="367,-78.5 367,-119.5 496,-119.5 496,-78.5 367,-78.5"/>
<text text-anchor="start" x="375" y="-107.5" font-family="Helvetica,sans-Serif" font-size="10.00">language/lib/Catch2</text>
<text text-anchor="start" x="375" y="-96.5" font-family="Helvetica,sans-Serif" font-size="10.00">/projects/XCode/OCTest</text>
<text text-anchor="middle" x="431.5" y="-85.5" font-family="Helvetica,sans-Serif" font-size="10.00">/catch_objc_impl.mm</text>
</a>
</g>
</g>
<!-- Node5&#45;&gt;Node6 -->
<g id="edge5" class="edge">
<title>Node5&#45;&gt;Node6</title>
<path fill="none" stroke="midnightblue" d="M275.5,-153.17C306.98,-142.44 344.12,-129.78 374.27,-119.51"/>
<polygon fill="midnightblue" stroke="midnightblue" points="274.26,-149.89 265.93,-156.43 276.52,-156.52 274.26,-149.89"/>
</g>
<!-- Node7&#45;&gt;Node6 -->
<g id="edge7" class="edge">
<title>Node7&#45;&gt;Node6</title>
<path fill="none" stroke="midnightblue" d="M383.59,-149.2C393.12,-139.42 403.71,-128.54 412.51,-119.51"/>
<polygon fill="midnightblue" stroke="midnightblue" points="381.03,-146.82 376.56,-156.43 386.04,-151.71 381.03,-146.82"/>
</g>
<!-- Node8&#45;&gt;Node6 -->
<g id="edge9" class="edge">
<title>Node8&#45;&gt;Node6</title>
<path fill="none" stroke="midnightblue" d="M480.06,-149.2C470.4,-139.42 459.66,-128.54 450.75,-119.51"/>
<polygon fill="midnightblue" stroke="midnightblue" points="477.67,-151.77 487.19,-156.43 482.65,-146.85 477.67,-151.77"/>
</g>
<!-- Node9&#45;&gt;Node6 -->
<g id="edge11" class="edge">
<title>Node9&#45;&gt;Node6</title>
<path fill="none" stroke="midnightblue" d="M588.2,-153.17C556.58,-142.44 519.27,-129.78 488.99,-119.51"/>
<polygon fill="midnightblue" stroke="midnightblue" points="587.22,-156.53 597.81,-156.43 589.47,-149.9 587.22,-156.53"/>
</g>
</g>
</svg>
