<?xml version="1.0" encoding="UTF-8" standalone="no"?>
<!DOCTYPE svg PUBLIC "-//W3C//DTD SVG 1.1//EN"
 "http://www.w3.org/Graphics/SVG/1.1/DTD/svg11.dtd">
<!-- Generated by graphviz version 2.43.0 (0)
 -->
<!-- Title: language/lib/Catch2/include/internal/benchmark/catch_estimate.hpp Pages: 1 -->
<svg width="396pt" height="362pt"
 viewBox="0.00 0.00 395.87 362.00" xmlns="http://www.w3.org/2000/svg" xmlns:xlink="http://www.w3.org/1999/xlink">
<g id="graph0" class="graph" transform="scale(1 1) rotate(0) translate(4 358)">
<title>language/lib/Catch2/include/internal/benchmark/catch_estimate.hpp</title>
<polygon fill="white" stroke="transparent" points="-4,4 -4,-358 391.87,-358 391.87,4 -4,4"/>
<!-- Node1 -->
<g id="node1" class="node">
<title>Node1</title>
<g id="a_node1"><a xlink:title=" ">
<polygon fill="#bfbfbf" stroke="black" points="37.1,-312.5 37.1,-353.5 190.1,-353.5 190.1,-312.5 37.1,-312.5"/>
<text text-anchor="start" x="45.1" y="-341.5" font-family="Helvetica,sans-Serif" font-size="10.00">language/lib/Catch2</text>
<text text-anchor="start" x="45.1" y="-330.5" font-family="Helvetica,sans-Serif" font-size="10.00">/include/internal/benchmark</text>
<text text-anchor="middle" x="113.6" y="-319.5" font-family="Helvetica,sans-Serif" font-size="10.00">/catch_estimate.hpp</text>
</a>
</g>
</g>
<!-- Node2 -->
<g id="node2" class="node">
<title>Node2</title>
<g id="a_node2"><a xlink:href="catch__stats_8hpp.html" target="_top" xlink:title=" ">
<polygon fill="white" stroke="black" points="37.1,-234.5 37.1,-275.5 190.1,-275.5 190.1,-234.5 37.1,-234.5"/>
<text text-anchor="start" x="45.1" y="-263.5" font-family="Helvetica,sans-Serif" font-size="10.00">language/lib/Catch2</text>
<text text-anchor="start" x="45.1" y="-252.5" font-family="Helvetica,sans-Serif" font-size="10.00">/include/internal/benchmark</text>
<text text-anchor="middle" x="113.6" y="-241.5" font-family="Helvetica,sans-Serif" font-size="10.00">/detail/catch_stats.hpp</text>
</a>
</g>
</g>
<!-- Node1&#45;&gt;Node2 -->
<g id="edge1" class="edge">
<title>Node1&#45;&gt;Node2</title>
<path fill="none" stroke="midnightblue" d="M113.6,-302.3C113.6,-293.3 113.6,-283.65 113.6,-275.51"/>
<polygon fill="midnightblue" stroke="midnightblue" points="110.1,-302.43 113.6,-312.43 117.1,-302.43 110.1,-302.43"/>
</g>
<!-- Node5 -->
<g id="node5" class="node">
<title>Node5</title>
<g id="a_node5"><a xlink:href="catch__benchmarking__all_8hpp.html" target="_top" xlink:title=" ">
<polygon fill="white" stroke="black" points="59.1,-0.5 59.1,-41.5 218.1,-41.5 218.1,-0.5 59.1,-0.5"/>
<text text-anchor="start" x="67.1" y="-29.5" font-family="Helvetica,sans-Serif" font-size="10.00">language/lib/Catch2</text>
<text text-anchor="start" x="67.1" y="-18.5" font-family="Helvetica,sans-Serif" font-size="10.00">/include/internal/benchmark</text>
<text text-anchor="middle" x="138.6" y="-7.5" font-family="Helvetica,sans-Serif" font-size="10.00">/catch_benchmarking_all.hpp</text>
</a>
</g>
</g>
<!-- Node1&#45;&gt;Node5 -->
<g id="edge13" class="edge">
<title>Node1&#45;&gt;Node5</title>
<path fill="none" stroke="midnightblue" d="M61.9,-306.84C49.16,-298.55 36.61,-288.24 27.6,-276 -4.53,-232.32 -3.09,-209.52 5.6,-156 11.45,-119.93 7.91,-105.83 31.6,-78 45.05,-62.19 64.1,-50.24 82.41,-41.52"/>
<polygon fill="midnightblue" stroke="midnightblue" points="60.36,-310 70.71,-312.26 64.02,-304.04 60.36,-310"/>
</g>
<!-- Node7 -->
<g id="node7" class="node">
<title>Node7</title>
<g id="a_node7"><a xlink:href="catch__sample__analysis_8hpp.html" target="_top" xlink:title=" ">
<polygon fill="white" stroke="black" points="219.6,-234.5 219.6,-275.5 373.6,-275.5 373.6,-234.5 219.6,-234.5"/>
<text text-anchor="start" x="227.6" y="-263.5" font-family="Helvetica,sans-Serif" font-size="10.00">language/lib/Catch2</text>
<text text-anchor="start" x="227.6" y="-252.5" font-family="Helvetica,sans-Serif" font-size="10.00">/include/internal/benchmark</text>
<text text-anchor="middle" x="296.6" y="-241.5" font-family="Helvetica,sans-Serif" font-size="10.00">/catch_sample_analysis.hpp</text>
</a>
</g>
</g>
<!-- Node1&#45;&gt;Node7 -->
<g id="edge10" class="edge">
<title>Node1&#45;&gt;Node7</title>
<path fill="none" stroke="midnightblue" d="M170.26,-308.47C195.73,-297.89 225.43,-285.56 249.63,-275.51"/>
<polygon fill="midnightblue" stroke="midnightblue" points="168.62,-305.36 160.73,-312.43 171.3,-311.82 168.62,-305.36"/>
</g>
<!-- Node3 -->
<g id="node3" class="node">
<title>Node3</title>
<g id="a_node3"><a xlink:href="catch__estimate__clock_8hpp.html" target="_top" xlink:title=" ">
<polygon fill="white" stroke="black" points="25.1,-156.5 25.1,-197.5 202.1,-197.5 202.1,-156.5 25.1,-156.5"/>
<text text-anchor="start" x="33.1" y="-185.5" font-family="Helvetica,sans-Serif" font-size="10.00">language/lib/Catch2</text>
<text text-anchor="start" x="33.1" y="-174.5" font-family="Helvetica,sans-Serif" font-size="10.00">/include/internal/benchmark</text>
<text text-anchor="middle" x="113.6" y="-163.5" font-family="Helvetica,sans-Serif" font-size="10.00">/detail/catch_estimate_clock.hpp</text>
</a>
</g>
</g>
<!-- Node2&#45;&gt;Node3 -->
<g id="edge2" class="edge">
<title>Node2&#45;&gt;Node3</title>
<path fill="none" stroke="midnightblue" d="M113.6,-224.3C113.6,-215.3 113.6,-205.65 113.6,-197.51"/>
<polygon fill="midnightblue" stroke="midnightblue" points="110.1,-224.43 113.6,-234.43 117.1,-224.43 110.1,-224.43"/>
</g>
<!-- Node2&#45;&gt;Node5 -->
<g id="edge9" class="edge">
<title>Node2&#45;&gt;Node5</title>
<path fill="none" stroke="midnightblue" d="M47.86,-229.22C34.99,-221.26 23.15,-211.01 15.6,-198 6.23,-181.86 8.83,-173.39 15.6,-156 34.73,-106.86 81.25,-64.81 111.28,-41.51"/>
<polygon fill="midnightblue" stroke="midnightblue" points="46.48,-232.47 56.9,-234.38 49.95,-226.39 46.48,-232.47"/>
</g>
<!-- Node6 -->
<g id="node6" class="node">
<title>Node6</title>
<g id="a_node6"><a xlink:href="catch__analyse_8hpp.html" target="_top" xlink:title=" ">
<polygon fill="white" stroke="black" points="220.1,-156.5 220.1,-197.5 373.1,-197.5 373.1,-156.5 220.1,-156.5"/>
<text text-anchor="start" x="228.1" y="-185.5" font-family="Helvetica,sans-Serif" font-size="10.00">language/lib/Catch2</text>
<text text-anchor="start" x="228.1" y="-174.5" font-family="Helvetica,sans-Serif" font-size="10.00">/include/internal/benchmark</text>
<text text-anchor="middle" x="296.6" y="-163.5" font-family="Helvetica,sans-Serif" font-size="10.00">/detail/catch_analyse.hpp</text>
</a>
</g>
</g>
<!-- Node2&#45;&gt;Node6 -->
<g id="edge6" class="edge">
<title>Node2&#45;&gt;Node6</title>
<path fill="none" stroke="midnightblue" d="M170.26,-230.47C195.73,-219.89 225.43,-207.56 249.63,-197.51"/>
<polygon fill="midnightblue" stroke="midnightblue" points="168.62,-227.36 160.73,-234.43 171.3,-233.82 168.62,-227.36"/>
</g>
<!-- Node4 -->
<g id="node4" class="node">
<title>Node4</title>
<g id="a_node4"><a xlink:href="catch__benchmark_8hpp.html" target="_top" xlink:title=" ">
<polygon fill="white" stroke="black" points="115.1,-78.5 115.1,-119.5 268.1,-119.5 268.1,-78.5 115.1,-78.5"/>
<text text-anchor="start" x="123.1" y="-107.5" font-family="Helvetica,sans-Serif" font-size="10.00">language/lib/Catch2</text>
<text text-anchor="start" x="123.1" y="-96.5" font-family="Helvetica,sans-Serif" font-size="10.00">/include/internal/benchmark</text>
<text text-anchor="middle" x="191.6" y="-85.5" font-family="Helvetica,sans-Serif" font-size="10.00">/catch_benchmark.hpp</text>
</a>
</g>
</g>
<!-- Node3&#45;&gt;Node4 -->
<g id="edge3" class="edge">
<title>Node3&#45;&gt;Node4</title>
<path fill="none" stroke="midnightblue" d="M141.1,-149.2C151.15,-139.42 162.31,-128.54 171.58,-119.51"/>
<polygon fill="midnightblue" stroke="midnightblue" points="138.41,-146.94 133.69,-156.43 143.29,-151.96 138.41,-146.94"/>
</g>
<!-- Node3&#45;&gt;Node5 -->
<g id="edge5" class="edge">
<title>Node3&#45;&gt;Node5</title>
<path fill="none" stroke="midnightblue" d="M105.99,-146.56C102.15,-126.84 99.47,-100.48 105.6,-78 109.16,-64.94 116.64,-51.81 123.57,-41.56"/>
<polygon fill="midnightblue" stroke="midnightblue" points="102.6,-147.44 108.13,-156.48 109.44,-145.97 102.6,-147.44"/>
</g>
<!-- Node4&#45;&gt;Node5 -->
<g id="edge4" class="edge">
<title>Node4&#45;&gt;Node5</title>
<path fill="none" stroke="midnightblue" d="M172.11,-70.05C165.49,-60.57 158.25,-50.18 152.2,-41.51"/>
<polygon fill="midnightblue" stroke="midnightblue" points="169.36,-72.23 177.95,-78.43 175.1,-68.22 169.36,-72.23"/>
</g>
<!-- Node6&#45;&gt;Node4 -->
<g id="edge7" class="edge">
<title>Node6&#45;&gt;Node4</title>
<path fill="none" stroke="midnightblue" d="M261.16,-150.35C247.24,-140.27 231.52,-128.89 218.55,-119.51"/>
<polygon fill="midnightblue" stroke="midnightblue" points="259.41,-153.4 269.56,-156.43 263.51,-147.73 259.41,-153.4"/>
</g>
<!-- Node6&#45;&gt;Node5 -->
<g id="edge8" class="edge">
<title>Node6&#45;&gt;Node5</title>
<path fill="none" stroke="midnightblue" d="M297.61,-146.29C296.79,-125.05 292.36,-96.97 276.6,-78 261.65,-60 240.02,-47.73 218.3,-39.39"/>
<polygon fill="midnightblue" stroke="midnightblue" points="294.11,-146.45 297.75,-156.4 301.11,-146.35 294.11,-146.45"/>
</g>
<!-- Node7&#45;&gt;Node5 -->
<g id="edge12" class="edge">
<title>Node7&#45;&gt;Node5</title>
<path fill="none" stroke="midnightblue" d="M352.17,-228.78C363.95,-220.7 374.86,-210.52 381.6,-198 390.45,-181.57 388.96,-173.16 381.6,-156 353.73,-91.03 277.96,-56.51 218.37,-38.88"/>
<polygon fill="midnightblue" stroke="midnightblue" points="350.05,-225.98 343.49,-234.29 353.81,-231.89 350.05,-225.98"/>
</g>
<!-- Node7&#45;&gt;Node6 -->
<g id="edge11" class="edge">
<title>Node7&#45;&gt;Node6</title>
<path fill="none" stroke="midnightblue" d="M296.6,-224.3C296.6,-215.3 296.6,-205.65 296.6,-197.51"/>
<polygon fill="midnightblue" stroke="midnightblue" points="293.1,-224.43 296.6,-234.43 300.1,-224.43 293.1,-224.43"/>
</g>
</g>
</svg>
