<?xml version="1.0" encoding="UTF-8" standalone="no"?>
<!DOCTYPE svg PUBLIC "-//W3C//DTD SVG 1.1//EN"
 "http://www.w3.org/Graphics/SVG/1.1/DTD/svg11.dtd">
<!-- Generated by graphviz version 2.43.0 (0)
 -->
<!-- Title: language/lib/Catch2/include/internal/benchmark/detail/catch_measure.hpp Pages: 1 -->
<svg width="433pt" height="373pt"
 viewBox="0.00 0.00 432.70 373.00" xmlns="http://www.w3.org/2000/svg" xmlns:xlink="http://www.w3.org/1999/xlink">
<g id="graph0" class="graph" transform="scale(1 1) rotate(0) translate(4 369)">
<title>language/lib/Catch2/include/internal/benchmark/detail/catch_measure.hpp</title>
<polygon fill="white" stroke="transparent" points="-4,4 -4,-369 428.7,-369 428.7,4 -4,4"/>
<!-- Node1 -->
<g id="node1" class="node">
<title>Node1</title>
<g id="a_node1"><a xlink:title=" ">
<polygon fill="#bfbfbf" stroke="black" points="242.03,-323.5 242.03,-364.5 395.03,-364.5 395.03,-323.5 242.03,-323.5"/>
<text text-anchor="start" x="250.03" y="-352.5" font-family="Helvetica,sans-Serif" font-size="10.00">language/lib/Catch2</text>
<text text-anchor="start" x="250.03" y="-341.5" font-family="Helvetica,sans-Serif" font-size="10.00">/include/internal/benchmark</text>
<text text-anchor="middle" x="318.53" y="-330.5" font-family="Helvetica,sans-Serif" font-size="10.00">/detail/catch_measure.hpp</text>
</a>
</g>
</g>
<!-- Node2 -->
<g id="node2" class="node">
<title>Node2</title>
<g id="a_node2"><a xlink:href="catch__run__for__at__least_8hpp.html" target="_top" xlink:title=" ">
<polygon fill="white" stroke="black" points="126.03,-234.5 126.03,-286.5 279.03,-286.5 279.03,-234.5 126.03,-234.5"/>
<text text-anchor="start" x="134.03" y="-274.5" font-family="Helvetica,sans-Serif" font-size="10.00">language/lib/Catch2</text>
<text text-anchor="start" x="134.03" y="-263.5" font-family="Helvetica,sans-Serif" font-size="10.00">/include/internal/benchmark</text>
<text text-anchor="start" x="134.03" y="-252.5" font-family="Helvetica,sans-Serif" font-size="10.00">/detail/catch_run_for_at</text>
<text text-anchor="middle" x="202.53" y="-241.5" font-family="Helvetica,sans-Serif" font-size="10.00">_least.hpp</text>
</a>
</g>
</g>
<!-- Node1&#45;&gt;Node2 -->
<g id="edge1" class="edge">
<title>Node1&#45;&gt;Node2</title>
<path fill="none" stroke="midnightblue" d="M282.33,-317.57C268.35,-307.74 252.39,-296.53 238.44,-286.73"/>
<polygon fill="midnightblue" stroke="midnightblue" points="280.55,-320.59 290.75,-323.48 284.58,-314.87 280.55,-320.59"/>
</g>
<!-- Node5 -->
<g id="node5" class="node">
<title>Node5</title>
<g id="a_node5"><a xlink:href="catch__benchmarking__all_8hpp.html" target="_top" xlink:title=" ">
<polygon fill="white" stroke="black" points="123.03,-0.5 123.03,-41.5 282.03,-41.5 282.03,-0.5 123.03,-0.5"/>
<text text-anchor="start" x="131.03" y="-29.5" font-family="Helvetica,sans-Serif" font-size="10.00">language/lib/Catch2</text>
<text text-anchor="start" x="131.03" y="-18.5" font-family="Helvetica,sans-Serif" font-size="10.00">/include/internal/benchmark</text>
<text text-anchor="middle" x="202.53" y="-7.5" font-family="Helvetica,sans-Serif" font-size="10.00">/catch_benchmarking_all.hpp</text>
</a>
</g>
</g>
<!-- Node1&#45;&gt;Node5 -->
<g id="edge12" class="edge">
<title>Node1&#45;&gt;Node5</title>
<path fill="none" stroke="midnightblue" d="M349.59,-316.67C388.16,-280.6 445.56,-213.71 416.53,-156 386.94,-97.16 318.37,-61.23 266.77,-41.58"/>
<polygon fill="midnightblue" stroke="midnightblue" points="347.18,-314.13 342.16,-323.46 351.9,-319.3 347.18,-314.13"/>
</g>
<!-- Node6 -->
<g id="node6" class="node">
<title>Node6</title>
<g id="a_node6"><a xlink:href="catch__estimate__clock_8hpp.html" target="_top" xlink:title=" ">
<polygon fill="white" stroke="black" points="230.03,-156.5 230.03,-197.5 407.03,-197.5 407.03,-156.5 230.03,-156.5"/>
<text text-anchor="start" x="238.03" y="-185.5" font-family="Helvetica,sans-Serif" font-size="10.00">language/lib/Catch2</text>
<text text-anchor="start" x="238.03" y="-174.5" font-family="Helvetica,sans-Serif" font-size="10.00">/include/internal/benchmark</text>
<text text-anchor="middle" x="318.53" y="-163.5" font-family="Helvetica,sans-Serif" font-size="10.00">/detail/catch_estimate_clock.hpp</text>
</a>
</g>
</g>
<!-- Node1&#45;&gt;Node6 -->
<g id="edge11" class="edge">
<title>Node1&#45;&gt;Node6</title>
<path fill="none" stroke="midnightblue" d="M318.53,-313.3C318.53,-279.78 318.53,-226.19 318.53,-197.55"/>
<polygon fill="midnightblue" stroke="midnightblue" points="315.03,-313.42 318.53,-323.42 322.03,-313.42 315.03,-313.42"/>
</g>
<!-- Node3 -->
<g id="node3" class="node">
<title>Node3</title>
<g id="a_node3"><a xlink:href="catch__execution__plan_8hpp.html" target="_top" xlink:title=" ">
<polygon fill="white" stroke="black" points="21.03,-156.5 21.03,-197.5 174.03,-197.5 174.03,-156.5 21.03,-156.5"/>
<text text-anchor="start" x="29.03" y="-185.5" font-family="Helvetica,sans-Serif" font-size="10.00">language/lib/Catch2</text>
<text text-anchor="start" x="29.03" y="-174.5" font-family="Helvetica,sans-Serif" font-size="10.00">/include/internal/benchmark</text>
<text text-anchor="middle" x="97.53" y="-163.5" font-family="Helvetica,sans-Serif" font-size="10.00">/catch_execution_plan.hpp</text>
</a>
</g>
</g>
<!-- Node2&#45;&gt;Node3 -->
<g id="edge2" class="edge">
<title>Node2&#45;&gt;Node3</title>
<path fill="none" stroke="midnightblue" d="M162.14,-228.15C148.96,-217.92 134.71,-206.86 122.96,-197.73"/>
<polygon fill="midnightblue" stroke="midnightblue" points="160.13,-231.02 170.17,-234.38 164.42,-225.49 160.13,-231.02"/>
</g>
<!-- Node4 -->
<g id="node4" class="node">
<title>Node4</title>
<g id="a_node4"><a xlink:href="catch__benchmark_8hpp.html" target="_top" xlink:title=" ">
<polygon fill="white" stroke="black" points="126.03,-78.5 126.03,-119.5 279.03,-119.5 279.03,-78.5 126.03,-78.5"/>
<text text-anchor="start" x="134.03" y="-107.5" font-family="Helvetica,sans-Serif" font-size="10.00">language/lib/Catch2</text>
<text text-anchor="start" x="134.03" y="-96.5" font-family="Helvetica,sans-Serif" font-size="10.00">/include/internal/benchmark</text>
<text text-anchor="middle" x="202.53" y="-85.5" font-family="Helvetica,sans-Serif" font-size="10.00">/catch_benchmark.hpp</text>
</a>
</g>
</g>
<!-- Node2&#45;&gt;Node4 -->
<g id="edge9" class="edge">
<title>Node2&#45;&gt;Node4</title>
<path fill="none" stroke="midnightblue" d="M202.53,-223.9C202.53,-191.73 202.53,-145.56 202.53,-119.62"/>
<polygon fill="midnightblue" stroke="midnightblue" points="199.03,-224.23 202.53,-234.23 206.03,-224.23 199.03,-224.23"/>
</g>
<!-- Node2&#45;&gt;Node5 -->
<g id="edge10" class="edge">
<title>Node2&#45;&gt;Node5</title>
<path fill="none" stroke="midnightblue" d="M115.57,-253.85C77.19,-246.51 35.45,-230.82 11.53,-198 -36.46,-132.13 78.53,-71.54 150.29,-41.61"/>
<polygon fill="midnightblue" stroke="midnightblue" points="115.31,-257.36 125.76,-255.63 116.51,-250.46 115.31,-257.36"/>
</g>
<!-- Node2&#45;&gt;Node6 -->
<g id="edge6" class="edge">
<title>Node2&#45;&gt;Node6</title>
<path fill="none" stroke="midnightblue" d="M246.75,-228.44C261.42,-218.13 277.33,-206.95 290.45,-197.73"/>
<polygon fill="midnightblue" stroke="midnightblue" points="244.45,-225.77 238.28,-234.38 248.48,-231.5 244.45,-225.77"/>
</g>
<!-- Node3&#45;&gt;Node4 -->
<g id="edge3" class="edge">
<title>Node3&#45;&gt;Node4</title>
<path fill="none" stroke="midnightblue" d="M132.97,-150.35C146.89,-140.27 162.61,-128.89 175.58,-119.51"/>
<polygon fill="midnightblue" stroke="midnightblue" points="130.62,-147.73 124.57,-156.43 134.73,-153.4 130.62,-147.73"/>
</g>
<!-- Node3&#45;&gt;Node5 -->
<g id="edge5" class="edge">
<title>Node3&#45;&gt;Node5</title>
<path fill="none" stroke="midnightblue" d="M97.36,-146.11C98.59,-125.41 103.02,-98.08 116.53,-78 126.88,-62.63 143.01,-50.51 158.53,-41.53"/>
<polygon fill="midnightblue" stroke="midnightblue" points="93.86,-146.14 96.98,-156.26 100.86,-146.4 93.86,-146.14"/>
</g>
<!-- Node4&#45;&gt;Node5 -->
<g id="edge4" class="edge">
<title>Node4&#45;&gt;Node5</title>
<path fill="none" stroke="midnightblue" d="M202.53,-68.3C202.53,-59.3 202.53,-49.65 202.53,-41.51"/>
<polygon fill="midnightblue" stroke="midnightblue" points="199.03,-68.43 202.53,-78.43 206.03,-68.43 199.03,-68.43"/>
</g>
<!-- Node6&#45;&gt;Node4 -->
<g id="edge7" class="edge">
<title>Node6&#45;&gt;Node4</title>
<path fill="none" stroke="midnightblue" d="M280.25,-150.92C264.66,-140.7 246.9,-129.07 232.3,-119.51"/>
<polygon fill="midnightblue" stroke="midnightblue" points="278.38,-153.88 288.66,-156.43 282.21,-148.02 278.38,-153.88"/>
</g>
<!-- Node6&#45;&gt;Node5 -->
<g id="edge8" class="edge">
<title>Node6&#45;&gt;Node5</title>
<path fill="none" stroke="midnightblue" d="M314.89,-146.26C311.12,-125.46 303.55,-97.94 288.53,-78 277.17,-62.91 260.48,-50.72 244.81,-41.61"/>
<polygon fill="midnightblue" stroke="midnightblue" points="311.44,-146.85 316.49,-156.16 318.35,-145.73 311.44,-146.85"/>
</g>
</g>
</svg>
