<?xml version="1.0" encoding="UTF-8" standalone="no"?>
<!DOCTYPE svg PUBLIC "-//W3C//DTD SVG 1.1//EN"
 "http://www.w3.org/Graphics/SVG/1.1/DTD/svg11.dtd">
<!-- Generated by graphviz version 2.43.0 (0)
 -->
<!-- Title: language/lib/Catch2/include/internal/benchmark/catch_optimizer.hpp Pages: 1 -->
<!--zoomable 451 -->
<svg id="main" version="1.1" xmlns="http://www.w3.org/2000/svg" xmlns:xlink="http://www.w3.org/1999/xlink" xml:space="preserve" onload="init(evt)">
<style type="text/css"><![CDATA[
.edge:hover path { stroke: red; }
.edge:hover polygon { stroke: red; fill: red; }
]]></style>
<script type="text/javascript"><![CDATA[
var edges = document.getElementsByTagName('g');
if (edges && edges.length) {
  for (var i=0;i<edges.length;i++) {
    if (edges[i].id.substr(0,4)=='edge') {
      edges[i].setAttribute('class','edge');
    }
  }
}
]]></script>
        <defs>
                <circle id="rim" cx="0" cy="0" r="7"/>
                <circle id="rim2" cx="0" cy="0" r="3.5"/>
                <g id="zoomPlus">
                        <use xlink:href="#rim" fill="#404040">
                                <set attributeName="fill" to="#808080" begin="zoomplus.mouseover" end="zoomplus.mouseout"/>
                        </use>
                        <path d="M-4,0h8M0,-4v8" fill="none" stroke="white" stroke-width="1.5" pointer-events="none"/>
                </g>
                <g id="zoomMin">
                        <use xlink:href="#rim" fill="#404040">
                                <set attributeName="fill" to="#808080" begin="zoomminus.mouseover" end="zoomminus.mouseout"/>
                        </use>
                        <path d="M-4,0h8" fill="none" stroke="white" stroke-width="1.5" pointer-events="none"/>
                </g>
                <g id="dirArrow">
                        <path fill="none" stroke="white" stroke-width="1.5" d="M0,-3.0v7 M-2.5,-0.5L0,-3.0L2.5,-0.5"/>
                </g>
               <g id="resetDef">
                       <use xlink:href="#rim2" fill="#404040">
                               <set attributeName="fill" to="#808080" begin="reset.mouseover" end="reset.mouseout"/>
                       </use>
               </g>
        </defs>

<script type="text/javascript">
var viewWidth = 626;
var viewHeight = 451;
var sectionId = 'dynsection-0';
</script>
<script xlink:href="svgpan.js"/>
<svg id="graph" class="graph">
<g id="viewport">
<title>language/lib/Catch2/include/internal/benchmark/catch_optimizer.hpp</title>
<polygon fill="white" stroke="transparent" points="-4,4 -4,-447 621.5,-447 621.5,4 -4,4"/>
<!-- Node1 -->
<g id="node1" class="node">
<title>Node1</title>
<g id="a_node1"><a xlink:title=" ">
<polygon fill="#bfbfbf" stroke="black" points="421,-401.5 421,-442.5 574,-442.5 574,-401.5 421,-401.5"/>
<text text-anchor="start" x="429" y="-430.5" font-family="Helvetica,sans-Serif" font-size="10.00">language/lib/Catch2</text>
<text text-anchor="start" x="429" y="-419.5" font-family="Helvetica,sans-Serif" font-size="10.00">/include/internal/benchmark</text>
<text text-anchor="middle" x="497.5" y="-408.5" font-family="Helvetica,sans-Serif" font-size="10.00">/catch_optimizer.hpp</text>
</a>
</g>
</g>
<!-- Node2 -->
<g id="node2" class="node">
<title>Node2</title>
<g id="a_node2"><a xlink:href="catch__chronometer_8hpp.html" target="_top" xlink:title=" ">
<polygon fill="white" stroke="black" points="325,-323.5 325,-364.5 478,-364.5 478,-323.5 325,-323.5"/>
<text text-anchor="start" x="333" y="-352.5" font-family="Helvetica,sans-Serif" font-size="10.00">language/lib/Catch2</text>
<text text-anchor="start" x="333" y="-341.5" font-family="Helvetica,sans-Serif" font-size="10.00">/include/internal/benchmark</text>
<text text-anchor="middle" x="401.5" y="-330.5" font-family="Helvetica,sans-Serif" font-size="10.00">/catch_chronometer.hpp</text>
</a>
</g>
</g>
<!-- Node1&#45;&gt;Node2 -->
<g id="edge1" class="edge">
<title>Node1&#45;&gt;Node2</title>
<path fill="none" stroke="midnightblue" d="M464.74,-395.06C452.1,-385.06 437.88,-373.8 426.14,-364.51"/>
<polygon fill="midnightblue" stroke="midnightblue" points="462.76,-397.97 472.78,-401.43 467.11,-392.48 462.76,-397.97"/>
</g>
<!-- Node4 -->
<g id="node4" class="node">
<title>Node4</title>
<g id="a_node4"><a xlink:href="catch__benchmarking__all_8hpp.html" target="_top" xlink:title=" ">
<polygon fill="white" stroke="black" points="346,-0.5 346,-41.5 505,-41.5 505,-0.5 346,-0.5"/>
<text text-anchor="start" x="354" y="-29.5" font-family="Helvetica,sans-Serif" font-size="10.00">language/lib/Catch2</text>
<text text-anchor="start" x="354" y="-18.5" font-family="Helvetica,sans-Serif" font-size="10.00">/include/internal/benchmark</text>
<text text-anchor="middle" x="425.5" y="-7.5" font-family="Helvetica,sans-Serif" font-size="10.00">/catch_benchmarking_all.hpp</text>
</a>
</g>
</g>
<!-- Node1&#45;&gt;Node4 -->
<g id="edge18" class="edge">
<title>Node1&#45;&gt;Node4</title>
<path fill="none" stroke="midnightblue" d="M534.15,-394.99C569.44,-366.61 617.5,-317.64 617.5,-261.5 617.5,-261.5 617.5,-261.5 617.5,-176 617.5,-107.31 541.8,-64.16 485.46,-41.57"/>
<polygon fill="midnightblue" stroke="midnightblue" points="531.66,-392.5 525.94,-401.41 535.97,-398.01 531.66,-392.5"/>
</g>
<!-- Node3 -->
<g id="node3" class="node">
<title>Node3</title>
<g id="a_node3"><a xlink:href="catch__benchmark_8hpp.html" target="_top" xlink:title=" ">
<polygon fill="white" stroke="black" points="214,-78.5 214,-119.5 367,-119.5 367,-78.5 214,-78.5"/>
<text text-anchor="start" x="222" y="-107.5" font-family="Helvetica,sans-Serif" font-size="10.00">language/lib/Catch2</text>
<text text-anchor="start" x="222" y="-96.5" font-family="Helvetica,sans-Serif" font-size="10.00">/include/internal/benchmark</text>
<text text-anchor="middle" x="290.5" y="-85.5" font-family="Helvetica,sans-Serif" font-size="10.00">/catch_benchmark.hpp</text>
</a>
</g>
</g>
<!-- Node2&#45;&gt;Node3 -->
<g id="edge2" class="edge">
<title>Node2&#45;&gt;Node3</title>
<path fill="none" stroke="midnightblue" d="M347.53,-317.93C335.19,-309.75 323.39,-299.48 315.5,-287 281.98,-233.98 284.62,-155.64 288.08,-119.53"/>
<polygon fill="midnightblue" stroke="midnightblue" points="345.78,-320.96 356.12,-323.26 349.47,-315.02 345.78,-320.96"/>
</g>
<!-- Node2&#45;&gt;Node4 -->
<g id="edge17" class="edge">
<title>Node2&#45;&gt;Node4</title>
<path fill="none" stroke="midnightblue" d="M447.56,-317.82C461.05,-309.15 475.19,-298.65 486.5,-287 518.9,-253.65 528.79,-242.73 541.5,-198 556.34,-145.76 551.7,-120.97 518.5,-78 506.63,-62.64 489.26,-50.57 472.73,-41.64"/>
<polygon fill="midnightblue" stroke="midnightblue" points="445.48,-315 438.84,-323.25 449.18,-320.94 445.48,-315"/>
</g>
<!-- Node5 -->
<g id="node5" class="node">
<title>Node5</title>
<g id="a_node5"><a xlink:href="catch__benchmark__function_8hpp.html" target="_top" xlink:title=" ">
<polygon fill="white" stroke="black" points="0,-240 0,-281 203,-281 203,-240 0,-240"/>
<text text-anchor="start" x="8" y="-269" font-family="Helvetica,sans-Serif" font-size="10.00">language/lib/Catch2</text>
<text text-anchor="start" x="8" y="-258" font-family="Helvetica,sans-Serif" font-size="10.00">/include/internal/benchmark</text>
<text text-anchor="middle" x="101.5" y="-247" font-family="Helvetica,sans-Serif" font-size="10.00">/detail/catch_benchmark_function.hpp</text>
</a>
</g>
</g>
<!-- Node2&#45;&gt;Node5 -->
<g id="edge4" class="edge">
<title>Node2&#45;&gt;Node5</title>
<path fill="none" stroke="midnightblue" d="M319.74,-320.79C273.95,-308.35 217.37,-292.98 173.29,-281"/>
<polygon fill="midnightblue" stroke="midnightblue" points="319.07,-324.23 329.64,-323.48 320.91,-317.48 319.07,-324.23"/>
</g>
<!-- Node7 -->
<g id="node7" class="node">
<title>Node7</title>
<g id="a_node7"><a xlink:href="catch__run__for__at__least_8hpp.html" target="_top" xlink:title=" ">
<polygon fill="white" stroke="black" points="325,-234.5 325,-286.5 478,-286.5 478,-234.5 325,-234.5"/>
<text text-anchor="start" x="333" y="-274.5" font-family="Helvetica,sans-Serif" font-size="10.00">language/lib/Catch2</text>
<text text-anchor="start" x="333" y="-263.5" font-family="Helvetica,sans-Serif" font-size="10.00">/include/internal/benchmark</text>
<text text-anchor="start" x="333" y="-252.5" font-family="Helvetica,sans-Serif" font-size="10.00">/detail/catch_run_for_at</text>
<text text-anchor="middle" x="401.5" y="-241.5" font-family="Helvetica,sans-Serif" font-size="10.00">_least.hpp</text>
</a>
</g>
</g>
<!-- Node2&#45;&gt;Node7 -->
<g id="edge10" class="edge">
<title>Node2&#45;&gt;Node7</title>
<path fill="none" stroke="midnightblue" d="M401.5,-313.12C401.5,-304.41 401.5,-294.99 401.5,-286.61"/>
<polygon fill="midnightblue" stroke="midnightblue" points="398,-313.27 401.5,-323.27 405,-313.27 398,-313.27"/>
</g>
<!-- Node3&#45;&gt;Node4 -->
<g id="edge3" class="edge">
<title>Node3&#45;&gt;Node4</title>
<path fill="none" stroke="midnightblue" d="M334.05,-73.49C352.43,-63.13 373.55,-51.25 390.85,-41.51"/>
<polygon fill="midnightblue" stroke="midnightblue" points="332.26,-70.47 325.27,-78.43 335.7,-76.57 332.26,-70.47"/>
</g>
<!-- Node5&#45;&gt;Node3 -->
<g id="edge8" class="edge">
<title>Node5&#45;&gt;Node3</title>
<path fill="none" stroke="midnightblue" d="M84.39,-230.81C73.44,-208.33 64.08,-177.37 80.5,-156 96.97,-134.57 160.76,-119.59 213.76,-110.55"/>
<polygon fill="midnightblue" stroke="midnightblue" points="81.39,-232.62 89.11,-239.88 87.6,-229.39 81.39,-232.62"/>
</g>
<!-- Node5&#45;&gt;Node4 -->
<g id="edge9" class="edge">
<title>Node5&#45;&gt;Node4</title>
<path fill="none" stroke="midnightblue" d="M80.88,-231.08C68.09,-209.72 56.23,-180.12 68.5,-156 95.18,-103.54 121.89,-102.27 175.5,-78 229.69,-53.46 295.5,-39.28 345.99,-31.33"/>
<polygon fill="midnightblue" stroke="midnightblue" points="78.03,-233.13 86.35,-239.69 83.94,-229.37 78.03,-233.13"/>
</g>
<!-- Node6 -->
<g id="node6" class="node">
<title>Node6</title>
<g id="a_node6"><a xlink:href="catch__execution__plan_8hpp.html" target="_top" xlink:title=" ">
<polygon fill="white" stroke="black" points="90,-156.5 90,-197.5 243,-197.5 243,-156.5 90,-156.5"/>
<text text-anchor="start" x="98" y="-185.5" font-family="Helvetica,sans-Serif" font-size="10.00">language/lib/Catch2</text>
<text text-anchor="start" x="98" y="-174.5" font-family="Helvetica,sans-Serif" font-size="10.00">/include/internal/benchmark</text>
<text text-anchor="middle" x="166.5" y="-163.5" font-family="Helvetica,sans-Serif" font-size="10.00">/catch_execution_plan.hpp</text>
</a>
</g>
</g>
<!-- Node5&#45;&gt;Node6 -->
<g id="edge5" class="edge">
<title>Node5&#45;&gt;Node6</title>
<path fill="none" stroke="midnightblue" d="M123.53,-231.88C132.52,-220.61 142.71,-207.83 150.91,-197.55"/>
<polygon fill="midnightblue" stroke="midnightblue" points="120.73,-229.77 117.23,-239.77 126.21,-234.14 120.73,-229.77"/>
</g>
<!-- Node6&#45;&gt;Node3 -->
<g id="edge6" class="edge">
<title>Node6&#45;&gt;Node3</title>
<path fill="none" stroke="midnightblue" d="M207.42,-150.92C224.09,-140.7 243.07,-129.07 258.68,-119.51"/>
<polygon fill="midnightblue" stroke="midnightblue" points="205.13,-148.22 198.43,-156.43 208.79,-154.19 205.13,-148.22"/>
</g>
<!-- Node6&#45;&gt;Node4 -->
<g id="edge7" class="edge">
<title>Node6&#45;&gt;Node4</title>
<path fill="none" stroke="midnightblue" d="M170.62,-146.31C175.21,-124.4 184.77,-95.46 204.5,-78 243.1,-43.83 299.63,-29.94 345.86,-24.53"/>
<polygon fill="midnightblue" stroke="midnightblue" points="167.13,-145.95 168.75,-156.42 174.01,-147.23 167.13,-145.95"/>
</g>
<!-- Node7&#45;&gt;Node3 -->
<g id="edge15" class="edge">
<title>Node7&#45;&gt;Node3</title>
<path fill="none" stroke="midnightblue" d="M355.85,-227.85C345.51,-219.09 335.3,-208.95 327.5,-198 310.3,-173.86 300,-140.73 294.79,-119.85"/>
<polygon fill="midnightblue" stroke="midnightblue" points="353.77,-230.68 363.74,-234.28 358.19,-225.25 353.77,-230.68"/>
</g>
<!-- Node7&#45;&gt;Node4 -->
<g id="edge16" class="edge">
<title>Node7&#45;&gt;Node4</title>
<path fill="none" stroke="midnightblue" d="M487.17,-231.23C501.23,-222.76 513.98,-211.89 522.5,-198 556.53,-142.54 489.49,-74.48 450.59,-41.61"/>
<polygon fill="midnightblue" stroke="midnightblue" points="485.29,-228.27 478.26,-236.21 488.7,-234.39 485.29,-228.27"/>
</g>
<!-- Node7&#45;&gt;Node6 -->
<g id="edge11" class="edge">
<title>Node7&#45;&gt;Node6</title>
<path fill="none" stroke="midnightblue" d="M319.61,-231.1C287.63,-220.01 251.77,-207.57 222.8,-197.52"/>
<polygon fill="midnightblue" stroke="midnightblue" points="318.8,-234.52 329.4,-234.49 321.09,-227.91 318.8,-234.52"/>
</g>
<!-- Node8 -->
<g id="node8" class="node">
<title>Node8</title>
<g id="a_node8"><a xlink:href="catch__estimate__clock_8hpp.html" target="_top" xlink:title=" ">
<polygon fill="white" stroke="black" points="337,-156.5 337,-197.5 514,-197.5 514,-156.5 337,-156.5"/>
<text text-anchor="start" x="345" y="-185.5" font-family="Helvetica,sans-Serif" font-size="10.00">language/lib/Catch2</text>
<text text-anchor="start" x="345" y="-174.5" font-family="Helvetica,sans-Serif" font-size="10.00">/include/internal/benchmark</text>
<text text-anchor="middle" x="425.5" y="-163.5" font-family="Helvetica,sans-Serif" font-size="10.00">/detail/catch_estimate_clock.hpp</text>
</a>
</g>
</g>
<!-- Node7&#45;&gt;Node8 -->
<g id="edge12" class="edge">
<title>Node7&#45;&gt;Node8</title>
<path fill="none" stroke="midnightblue" d="M411.82,-224.44C414.53,-215.26 417.35,-205.68 419.72,-197.63"/>
<polygon fill="midnightblue" stroke="midnightblue" points="408.43,-223.58 408.96,-234.16 415.14,-225.56 408.43,-223.58"/>
</g>
<!-- Node8&#45;&gt;Node3 -->
<g id="edge13" class="edge">
<title>Node8&#45;&gt;Node3</title>
<path fill="none" stroke="midnightblue" d="M381.95,-151.49C363.57,-141.13 342.45,-129.25 325.15,-119.51"/>
<polygon fill="midnightblue" stroke="midnightblue" points="380.3,-154.57 390.73,-156.43 383.74,-148.47 380.3,-154.57"/>
</g>
<!-- Node8&#45;&gt;Node4 -->
<g id="edge14" class="edge">
<title>Node8&#45;&gt;Node4</title>
<path fill="none" stroke="midnightblue" d="M425.5,-146.36C425.5,-115.61 425.5,-68.36 425.5,-41.83"/>
<polygon fill="midnightblue" stroke="midnightblue" points="422,-146.5 425.5,-156.5 429,-146.5 422,-146.5"/>
</g>
</g>
</svg>
        <g id="navigator" transform="translate(0 0)" fill="#404254">
                <rect fill="#f2f5e9" fill-opacity="0.5" stroke="#606060" stroke-width=".5" x="0" y="0" width="60" height="60"/>
                <use id="zoomplus" xlink:href="#zoomPlus" x="17" y="9" onmousedown="handleZoom(evt,'in')"/>
                <use id="zoomminus" xlink:href="#zoomMin" x="42" y="9" onmousedown="handleZoom(evt,'out')"/>
                <use id="reset" xlink:href="#resetDef" x="30" y="36" onmousedown="handleReset()"/>
                <g id="arrowUp" xlink:href="#dirArrow" transform="translate(30 24)" onmousedown="handlePan(0,-1)">
                  <use xlink:href="#rim" fill="#404040">
                        <set attributeName="fill" to="#808080" begin="arrowUp.mouseover" end="arrowUp.mouseout"/>
                  </use>
                  <path fill="none" stroke="white" stroke-width="1.5" d="M0,-3.0v7 M-2.5,-0.5L0,-3.0L2.5,-0.5"/>
                </g>
                <g id="arrowRight" xlink:href="#dirArrow" transform="rotate(90) translate(36 -43)" onmousedown="handlePan(1,0)">
                  <use xlink:href="#rim" fill="#404040">
                        <set attributeName="fill" to="#808080" begin="arrowRight.mouseover" end="arrowRight.mouseout"/>
                  </use>
                  <path fill="none" stroke="white" stroke-width="1.5" d="M0,-3.0v7 M-2.5,-0.5L0,-3.0L2.5,-0.5"/>
                </g>
                <g id="arrowDown" xlink:href="#dirArrow" transform="rotate(180) translate(-30 -48)" onmousedown="handlePan(0,1)">
                  <use xlink:href="#rim" fill="#404040">
                        <set attributeName="fill" to="#808080" begin="arrowDown.mouseover" end="arrowDown.mouseout"/>
                  </use>
                  <path fill="none" stroke="white" stroke-width="1.5" d="M0,-3.0v7 M-2.5,-0.5L0,-3.0L2.5,-0.5"/>
                </g>
                <g id="arrowLeft" xlink:href="#dirArrow" transform="rotate(270) translate(-36 17)" onmousedown="handlePan(-1,0)">
                  <use xlink:href="#rim" fill="#404040">
                        <set attributeName="fill" to="#808080" begin="arrowLeft.mouseover" end="arrowLeft.mouseout"/>
                  </use>
                  <path fill="none" stroke="white" stroke-width="1.5" d="M0,-3.0v7 M-2.5,-0.5L0,-3.0L2.5,-0.5"/>
                </g>
        </g>
        <svg viewBox="0 0 15 15" width="100%" height="30px" preserveAspectRatio="xMaxYMin meet">
         <g id="arrow_out" transform="scale(0.3 0.3)">
          <a xlink:href="catch__optimizer_8hpp__dep__incl_org.svg" target="_base">
           <rect id="button" ry="5" rx="5" y="6" x="6" height="38" width="38"
                fill="#f2f5e9" fill-opacity="0.5" stroke="#606060" stroke-width="1.0"/>
           <path id="arrow"
             d="M 11.500037,31.436501 C 11.940474,20.09759 22.043105,11.32322 32.158766,21.979434 L 37.068811,17.246167 C 37.068811,17.246167 37.088388,32 37.088388,32 L 22.160133,31.978069 C 22.160133,31.978069 26.997745,27.140456 26.997745,27.140456 C 18.528582,18.264221 13.291696,25.230495 11.500037,31.436501 z"
             style="fill:#404040;"/>
          </a>
         </g>
        </svg>
</svg>
