<?xml version="1.0" encoding="UTF-8" standalone="no"?>
<!DOCTYPE svg PUBLIC "-//W3C//DTD SVG 1.1//EN"
 "http://www.w3.org/Graphics/SVG/1.1/DTD/svg11.dtd">
<!-- Generated by graphviz version 2.43.0 (0)
 -->
<!-- Title: language/lib/Catch2/include/internal/catch_session.h Pages: 1 -->
<svg width="278pt" height="284pt"
 viewBox="0.00 0.00 278.00 284.00" xmlns="http://www.w3.org/2000/svg" xmlns:xlink="http://www.w3.org/1999/xlink">
<g id="graph0" class="graph" transform="scale(1 1) rotate(0) translate(4 280)">
<title>language/lib/Catch2/include/internal/catch_session.h</title>
<polygon fill="white" stroke="transparent" points="-4,4 -4,-280 274,-280 274,4 -4,4"/>
<!-- Node1 -->
<g id="node1" class="node">
<title>Node1</title>
<g id="a_node1"><a xlink:title=" ">
<polygon fill="#bfbfbf" stroke="black" points="71,-234.5 71,-275.5 196,-275.5 196,-234.5 71,-234.5"/>
<text text-anchor="start" x="79" y="-263.5" font-family="Helvetica,sans-Serif" font-size="10.00">language/lib/Catch2</text>
<text text-anchor="start" x="79" y="-252.5" font-family="Helvetica,sans-Serif" font-size="10.00">/include/internal/catch</text>
<text text-anchor="middle" x="133.5" y="-241.5" font-family="Helvetica,sans-Serif" font-size="10.00">_session.h</text>
</a>
</g>
</g>
<!-- Node2 -->
<g id="node2" class="node">
<title>Node2</title>
<g id="a_node2"><a xlink:href="catch__default__main_8hpp.html" target="_top" xlink:title=" ">
<polygon fill="white" stroke="black" points="0,-156.5 0,-197.5 125,-197.5 125,-156.5 0,-156.5"/>
<text text-anchor="start" x="8" y="-185.5" font-family="Helvetica,sans-Serif" font-size="10.00">language/lib/Catch2</text>
<text text-anchor="start" x="8" y="-174.5" font-family="Helvetica,sans-Serif" font-size="10.00">/include/internal/catch</text>
<text text-anchor="middle" x="62.5" y="-163.5" font-family="Helvetica,sans-Serif" font-size="10.00">_default_main.hpp</text>
</a>
</g>
</g>
<!-- Node1&#45;&gt;Node2 -->
<g id="edge1" class="edge">
<title>Node1&#45;&gt;Node2</title>
<path fill="none" stroke="midnightblue" d="M108.2,-226.92C99.12,-217.2 89.08,-206.45 80.72,-197.51"/>
<polygon fill="midnightblue" stroke="midnightblue" points="105.83,-229.51 115.22,-234.43 110.95,-224.73 105.83,-229.51"/>
</g>
<!-- Node5 -->
<g id="node5" class="node">
<title>Node5</title>
<g id="a_node5"><a xlink:href="catch__session_8cpp.html" target="_top" xlink:title=" ">
<polygon fill="white" stroke="black" points="143,-156.5 143,-197.5 268,-197.5 268,-156.5 143,-156.5"/>
<text text-anchor="start" x="151" y="-185.5" font-family="Helvetica,sans-Serif" font-size="10.00">language/lib/Catch2</text>
<text text-anchor="start" x="151" y="-174.5" font-family="Helvetica,sans-Serif" font-size="10.00">/include/internal/catch</text>
<text text-anchor="middle" x="205.5" y="-163.5" font-family="Helvetica,sans-Serif" font-size="10.00">_session.cpp</text>
</a>
</g>
</g>
<!-- Node1&#45;&gt;Node5 -->
<g id="edge4" class="edge">
<title>Node1&#45;&gt;Node5</title>
<path fill="none" stroke="midnightblue" d="M159.16,-226.92C168.36,-217.2 178.55,-206.45 187.02,-197.51"/>
<polygon fill="midnightblue" stroke="midnightblue" points="156.38,-224.76 152.04,-234.43 161.46,-229.58 156.38,-224.76"/>
</g>
<!-- Node3 -->
<g id="node3" class="node">
<title>Node3</title>
<g id="a_node3"><a xlink:href="include_2catch_8hpp.html" target="_top" xlink:title=" ">
<polygon fill="white" stroke="black" points="6,-84 6,-114 119,-114 119,-84 6,-84"/>
<text text-anchor="start" x="14" y="-102" font-family="Helvetica,sans-Serif" font-size="10.00">language/lib/Catch2</text>
<text text-anchor="middle" x="62.5" y="-91" font-family="Helvetica,sans-Serif" font-size="10.00">/include/catch.hpp</text>
</a>
</g>
</g>
<!-- Node2&#45;&gt;Node3 -->
<g id="edge2" class="edge">
<title>Node2&#45;&gt;Node3</title>
<path fill="none" stroke="midnightblue" d="M62.5,-146.28C62.5,-135.25 62.5,-123.25 62.5,-114.23"/>
<polygon fill="midnightblue" stroke="midnightblue" points="59,-146.43 62.5,-156.43 66,-146.43 59,-146.43"/>
</g>
<!-- Node4 -->
<g id="node4" class="node">
<title>Node4</title>
<g id="a_node4"><a xlink:href="catch__with__main_8hpp.html" target="_top" xlink:title=" ">
<polygon fill="white" stroke="black" points="6,-0.5 6,-41.5 119,-41.5 119,-0.5 6,-0.5"/>
<text text-anchor="start" x="14" y="-29.5" font-family="Helvetica,sans-Serif" font-size="10.00">language/lib/Catch2</text>
<text text-anchor="start" x="14" y="-18.5" font-family="Helvetica,sans-Serif" font-size="10.00">/include/catch_with</text>
<text text-anchor="middle" x="62.5" y="-7.5" font-family="Helvetica,sans-Serif" font-size="10.00">_main.hpp</text>
</a>
</g>
</g>
<!-- Node3&#45;&gt;Node4 -->
<g id="edge3" class="edge">
<title>Node3&#45;&gt;Node4</title>
<path fill="none" stroke="midnightblue" d="M62.5,-73.66C62.5,-63.33 62.5,-51.44 62.5,-41.68"/>
<polygon fill="midnightblue" stroke="midnightblue" points="59,-73.7 62.5,-83.7 66,-73.71 59,-73.7"/>
</g>
<!-- Node6 -->
<g id="node6" class="node">
<title>Node6</title>
<g id="a_node6"><a xlink:href="catch__objc__impl_8mm.html" target="_top" xlink:title=" ">
<polygon fill="white" stroke="black" points="141,-78.5 141,-119.5 270,-119.5 270,-78.5 141,-78.5"/>
<text text-anchor="start" x="149" y="-107.5" font-family="Helvetica,sans-Serif" font-size="10.00">language/lib/Catch2</text>
<text text-anchor="start" x="149" y="-96.5" font-family="Helvetica,sans-Serif" font-size="10.00">/projects/XCode/OCTest</text>
<text text-anchor="middle" x="205.5" y="-85.5" font-family="Helvetica,sans-Serif" font-size="10.00">/catch_objc_impl.mm</text>
</a>
</g>
</g>
<!-- Node5&#45;&gt;Node6 -->
<g id="edge5" class="edge">
<title>Node5&#45;&gt;Node6</title>
<path fill="none" stroke="midnightblue" d="M205.5,-146.3C205.5,-137.3 205.5,-127.65 205.5,-119.51"/>
<polygon fill="midnightblue" stroke="midnightblue" points="202,-146.43 205.5,-156.43 209,-146.43 202,-146.43"/>
</g>
</g>
</svg>
