<?xml version="1.0" encoding="UTF-8" standalone="no"?>
<!DOCTYPE svg PUBLIC "-//W3C//DTD SVG 1.1//EN"
 "http://www.w3.org/Graphics/SVG/1.1/DTD/svg11.dtd">
<!-- Generated by graphviz version 2.43.0 (0)
 -->
<!-- Title: language/lib/Catch2/include/internal/catch_startup_exception_registry.h Pages: 1 -->
<svg width="465pt" height="206pt"
 viewBox="0.00 0.00 465.00 206.00" xmlns="http://www.w3.org/2000/svg" xmlns:xlink="http://www.w3.org/1999/xlink">
<g id="graph0" class="graph" transform="scale(1 1) rotate(0) translate(4 202)">
<title>language/lib/Catch2/include/internal/catch_startup_exception_registry.h</title>
<polygon fill="white" stroke="transparent" points="-4,4 -4,-202 461,-202 461,4 -4,4"/>
<!-- Node1 -->
<g id="node1" class="node">
<title>Node1</title>
<g id="a_node1"><a xlink:title=" ">
<polygon fill="#bfbfbf" stroke="black" points="125.5,-156.5 125.5,-197.5 285.5,-197.5 285.5,-156.5 125.5,-156.5"/>
<text text-anchor="start" x="133.5" y="-185.5" font-family="Helvetica,sans-Serif" font-size="10.00">language/lib/Catch2</text>
<text text-anchor="start" x="133.5" y="-174.5" font-family="Helvetica,sans-Serif" font-size="10.00">/include/internal/catch</text>
<text text-anchor="middle" x="205.5" y="-163.5" font-family="Helvetica,sans-Serif" font-size="10.00">_startup_exception_registry.h</text>
</a>
</g>
</g>
<!-- Node2 -->
<g id="node2" class="node">
<title>Node2</title>
<g id="a_node2"><a xlink:href="catch__registry__hub_8cpp.html" target="_top" xlink:title=" ">
<polygon fill="white" stroke="black" points="0,-78.5 0,-119.5 125,-119.5 125,-78.5 0,-78.5"/>
<text text-anchor="start" x="8" y="-107.5" font-family="Helvetica,sans-Serif" font-size="10.00">language/lib/Catch2</text>
<text text-anchor="start" x="8" y="-96.5" font-family="Helvetica,sans-Serif" font-size="10.00">/include/internal/catch</text>
<text text-anchor="middle" x="62.5" y="-85.5" font-family="Helvetica,sans-Serif" font-size="10.00">_registry_hub.cpp</text>
</a>
</g>
</g>
<!-- Node1&#45;&gt;Node2 -->
<g id="edge1" class="edge">
<title>Node1&#45;&gt;Node2</title>
<path fill="none" stroke="midnightblue" d="M159.64,-151.63C140.1,-141.24 117.61,-129.29 99.2,-119.51"/>
<polygon fill="midnightblue" stroke="midnightblue" points="158.2,-154.83 168.67,-156.43 161.49,-148.64 158.2,-154.83"/>
</g>
<!-- Node4 -->
<g id="node4" class="node">
<title>Node4</title>
<g id="a_node4"><a xlink:href="catch__session_8cpp.html" target="_top" xlink:title=" ">
<polygon fill="white" stroke="black" points="143,-78.5 143,-119.5 268,-119.5 268,-78.5 143,-78.5"/>
<text text-anchor="start" x="151" y="-107.5" font-family="Helvetica,sans-Serif" font-size="10.00">language/lib/Catch2</text>
<text text-anchor="start" x="151" y="-96.5" font-family="Helvetica,sans-Serif" font-size="10.00">/include/internal/catch</text>
<text text-anchor="middle" x="205.5" y="-85.5" font-family="Helvetica,sans-Serif" font-size="10.00">_session.cpp</text>
</a>
</g>
</g>
<!-- Node1&#45;&gt;Node4 -->
<g id="edge3" class="edge">
<title>Node1&#45;&gt;Node4</title>
<path fill="none" stroke="midnightblue" d="M205.5,-146.3C205.5,-137.3 205.5,-127.65 205.5,-119.51"/>
<polygon fill="midnightblue" stroke="midnightblue" points="202,-146.43 205.5,-156.43 209,-146.43 202,-146.43"/>
</g>
<!-- Node5 -->
<g id="node5" class="node">
<title>Node5</title>
<g id="a_node5"><a xlink:href="catch__startup__exception__registry_8cpp.html" target="_top" xlink:title=" ">
<polygon fill="white" stroke="black" points="286,-78.5 286,-119.5 457,-119.5 457,-78.5 286,-78.5"/>
<text text-anchor="start" x="294" y="-107.5" font-family="Helvetica,sans-Serif" font-size="10.00">language/lib/Catch2</text>
<text text-anchor="start" x="294" y="-96.5" font-family="Helvetica,sans-Serif" font-size="10.00">/include/internal/catch</text>
<text text-anchor="middle" x="371.5" y="-85.5" font-family="Helvetica,sans-Serif" font-size="10.00">_startup_exception_registry.cpp</text>
</a>
</g>
</g>
<!-- Node1&#45;&gt;Node5 -->
<g id="edge5" class="edge">
<title>Node1&#45;&gt;Node5</title>
<path fill="none" stroke="midnightblue" d="M257.51,-152.19C280.47,-141.67 307.13,-129.47 328.9,-119.51"/>
<polygon fill="midnightblue" stroke="midnightblue" points="255.88,-149.08 248.25,-156.43 258.8,-155.45 255.88,-149.08"/>
</g>
<!-- Node3 -->
<g id="node3" class="node">
<title>Node3</title>
<g id="a_node3"><a xlink:href="catch__objc__impl_8mm.html" target="_top" xlink:title=" ">
<polygon fill="white" stroke="black" points="141,-0.5 141,-41.5 270,-41.5 270,-0.5 141,-0.5"/>
<text text-anchor="start" x="149" y="-29.5" font-family="Helvetica,sans-Serif" font-size="10.00">language/lib/Catch2</text>
<text text-anchor="start" x="149" y="-18.5" font-family="Helvetica,sans-Serif" font-size="10.00">/projects/XCode/OCTest</text>
<text text-anchor="middle" x="205.5" y="-7.5" font-family="Helvetica,sans-Serif" font-size="10.00">/catch_objc_impl.mm</text>
</a>
</g>
</g>
<!-- Node2&#45;&gt;Node3 -->
<g id="edge2" class="edge">
<title>Node2&#45;&gt;Node3</title>
<path fill="none" stroke="midnightblue" d="M108.36,-73.63C127.9,-63.24 150.39,-51.29 168.8,-41.51"/>
<polygon fill="midnightblue" stroke="midnightblue" points="106.51,-70.64 99.33,-78.43 109.8,-76.83 106.51,-70.64"/>
</g>
<!-- Node4&#45;&gt;Node3 -->
<g id="edge4" class="edge">
<title>Node4&#45;&gt;Node3</title>
<path fill="none" stroke="midnightblue" d="M205.5,-68.3C205.5,-59.3 205.5,-49.65 205.5,-41.51"/>
<polygon fill="midnightblue" stroke="midnightblue" points="202,-68.43 205.5,-78.43 209,-68.43 202,-68.43"/>
</g>
<!-- Node5&#45;&gt;Node3 -->
<g id="edge6" class="edge">
<title>Node5&#45;&gt;Node3</title>
<path fill="none" stroke="midnightblue" d="M319.49,-74.19C296.53,-63.67 269.87,-51.47 248.1,-41.51"/>
<polygon fill="midnightblue" stroke="midnightblue" points="318.2,-77.45 328.75,-78.43 321.12,-71.08 318.2,-77.45"/>
</g>
</g>
</svg>
