<?xml version="1.0" encoding="UTF-8" standalone="no"?>
<!DOCTYPE svg PUBLIC "-//W3C//DTD SVG 1.1//EN"
 "http://www.w3.org/Graphics/SVG/1.1/DTD/svg11.dtd">
<!-- Generated by graphviz version 2.43.0 (0)
 -->
<!-- Title: language/lib/Catch2/include/internal/catch_matchers_string.h Pages: 1 -->
<svg width="479pt" height="284pt"
 viewBox="0.00 0.00 479.00 284.00" xmlns="http://www.w3.org/2000/svg" xmlns:xlink="http://www.w3.org/1999/xlink">
<g id="graph0" class="graph" transform="scale(1 1) rotate(0) translate(4 280)">
<title>language/lib/Catch2/include/internal/catch_matchers_string.h</title>
<polygon fill="white" stroke="transparent" points="-4,4 -4,-280 475,-280 475,4 -4,4"/>
<!-- Node1 -->
<g id="node1" class="node">
<title>Node1</title>
<g id="a_node1"><a xlink:title=" ">
<polygon fill="#bfbfbf" stroke="black" points="250,-234.5 250,-275.5 375,-275.5 375,-234.5 250,-234.5"/>
<text text-anchor="start" x="258" y="-263.5" font-family="Helvetica,sans-Serif" font-size="10.00">language/lib/Catch2</text>
<text text-anchor="start" x="258" y="-252.5" font-family="Helvetica,sans-Serif" font-size="10.00">/include/internal/catch</text>
<text text-anchor="middle" x="312.5" y="-241.5" font-family="Helvetica,sans-Serif" font-size="10.00">_matchers_string.h</text>
</a>
</g>
</g>
<!-- Node2 -->
<g id="node2" class="node">
<title>Node2</title>
<g id="a_node2"><a xlink:href="catch__capture__matchers_8h.html" target="_top" xlink:title=" ">
<polygon fill="white" stroke="black" points="179,-156.5 179,-197.5 304,-197.5 304,-156.5 179,-156.5"/>
<text text-anchor="start" x="187" y="-185.5" font-family="Helvetica,sans-Serif" font-size="10.00">language/lib/Catch2</text>
<text text-anchor="start" x="187" y="-174.5" font-family="Helvetica,sans-Serif" font-size="10.00">/include/internal/catch</text>
<text text-anchor="middle" x="241.5" y="-163.5" font-family="Helvetica,sans-Serif" font-size="10.00">_capture_matchers.h</text>
</a>
</g>
</g>
<!-- Node1&#45;&gt;Node2 -->
<g id="edge1" class="edge">
<title>Node1&#45;&gt;Node2</title>
<path fill="none" stroke="midnightblue" d="M287.2,-226.92C278.12,-217.2 268.08,-206.45 259.72,-197.51"/>
<polygon fill="midnightblue" stroke="midnightblue" points="284.83,-229.51 294.22,-234.43 289.95,-224.73 284.83,-229.51"/>
</g>
<!-- Node8 -->
<g id="node8" class="node">
<title>Node8</title>
<g id="a_node8"><a xlink:href="catch__matchers__string_8cpp.html" target="_top" xlink:title=" ">
<polygon fill="white" stroke="black" points="346,-156.5 346,-197.5 471,-197.5 471,-156.5 346,-156.5"/>
<text text-anchor="start" x="354" y="-185.5" font-family="Helvetica,sans-Serif" font-size="10.00">language/lib/Catch2</text>
<text text-anchor="start" x="354" y="-174.5" font-family="Helvetica,sans-Serif" font-size="10.00">/include/internal/catch</text>
<text text-anchor="middle" x="408.5" y="-163.5" font-family="Helvetica,sans-Serif" font-size="10.00">_matchers_string.cpp</text>
</a>
</g>
</g>
<!-- Node1&#45;&gt;Node8 -->
<g id="edge8" class="edge">
<title>Node1&#45;&gt;Node8</title>
<path fill="none" stroke="midnightblue" d="M345.26,-228.06C357.9,-218.06 372.12,-206.8 383.86,-197.51"/>
<polygon fill="midnightblue" stroke="midnightblue" points="342.89,-225.48 337.22,-234.43 347.24,-230.97 342.89,-225.48"/>
</g>
<!-- Node3 -->
<g id="node3" class="node">
<title>Node3</title>
<g id="a_node3"><a xlink:href="include_2catch_8hpp.html" target="_top" xlink:title=" ">
<polygon fill="white" stroke="black" points="0,-84 0,-114 113,-114 113,-84 0,-84"/>
<text text-anchor="start" x="8" y="-102" font-family="Helvetica,sans-Serif" font-size="10.00">language/lib/Catch2</text>
<text text-anchor="middle" x="56.5" y="-91" font-family="Helvetica,sans-Serif" font-size="10.00">/include/catch.hpp</text>
</a>
</g>
</g>
<!-- Node2&#45;&gt;Node3 -->
<g id="edge2" class="edge">
<title>Node2&#45;&gt;Node3</title>
<path fill="none" stroke="midnightblue" d="M184.56,-152.61C153.91,-140.02 117.11,-124.9 90.84,-114.11"/>
<polygon fill="midnightblue" stroke="midnightblue" points="183.28,-155.87 193.86,-156.43 185.94,-149.39 183.28,-155.87"/>
</g>
<!-- Node5 -->
<g id="node5" class="node">
<title>Node5</title>
<g id="a_node5"><a xlink:href="catch__assertionhandler_8cpp.html" target="_top" xlink:title=" ">
<polygon fill="white" stroke="black" points="131,-78.5 131,-119.5 256,-119.5 256,-78.5 131,-78.5"/>
<text text-anchor="start" x="139" y="-107.5" font-family="Helvetica,sans-Serif" font-size="10.00">language/lib/Catch2</text>
<text text-anchor="start" x="139" y="-96.5" font-family="Helvetica,sans-Serif" font-size="10.00">/include/internal/catch</text>
<text text-anchor="middle" x="193.5" y="-85.5" font-family="Helvetica,sans-Serif" font-size="10.00">_assertionhandler.cpp</text>
</a>
</g>
</g>
<!-- Node2&#45;&gt;Node5 -->
<g id="edge4" class="edge">
<title>Node2&#45;&gt;Node5</title>
<path fill="none" stroke="midnightblue" d="M223.66,-147.76C217.72,-138.35 211.24,-128.1 205.82,-119.51"/>
<polygon fill="midnightblue" stroke="midnightblue" points="220.84,-149.84 229.14,-156.43 226.76,-146.1 220.84,-149.84"/>
</g>
<!-- Node7 -->
<g id="node7" class="node">
<title>Node7</title>
<g id="a_node7"><a xlink:href="catch__capture__matchers_8cpp.html" target="_top" xlink:title=" ">
<polygon fill="white" stroke="black" points="274.5,-78.5 274.5,-119.5 404.5,-119.5 404.5,-78.5 274.5,-78.5"/>
<text text-anchor="start" x="282.5" y="-107.5" font-family="Helvetica,sans-Serif" font-size="10.00">language/lib/Catch2</text>
<text text-anchor="start" x="282.5" y="-96.5" font-family="Helvetica,sans-Serif" font-size="10.00">/include/internal/catch</text>
<text text-anchor="middle" x="339.5" y="-85.5" font-family="Helvetica,sans-Serif" font-size="10.00">_capture_matchers.cpp</text>
</a>
</g>
</g>
<!-- Node2&#45;&gt;Node7 -->
<g id="edge6" class="edge">
<title>Node2&#45;&gt;Node7</title>
<path fill="none" stroke="midnightblue" d="M274.94,-150.06C287.85,-140.06 302.36,-128.8 314.35,-119.51"/>
<polygon fill="midnightblue" stroke="midnightblue" points="272.49,-147.53 266.74,-156.43 276.78,-153.07 272.49,-147.53"/>
</g>
<!-- Node4 -->
<g id="node4" class="node">
<title>Node4</title>
<g id="a_node4"><a xlink:href="catch__with__main_8hpp.html" target="_top" xlink:title=" ">
<polygon fill="white" stroke="black" points="0,-0.5 0,-41.5 113,-41.5 113,-0.5 0,-0.5"/>
<text text-anchor="start" x="8" y="-29.5" font-family="Helvetica,sans-Serif" font-size="10.00">language/lib/Catch2</text>
<text text-anchor="start" x="8" y="-18.5" font-family="Helvetica,sans-Serif" font-size="10.00">/include/catch_with</text>
<text text-anchor="middle" x="56.5" y="-7.5" font-family="Helvetica,sans-Serif" font-size="10.00">_main.hpp</text>
</a>
</g>
</g>
<!-- Node3&#45;&gt;Node4 -->
<g id="edge3" class="edge">
<title>Node3&#45;&gt;Node4</title>
<path fill="none" stroke="midnightblue" d="M56.5,-73.66C56.5,-63.33 56.5,-51.44 56.5,-41.68"/>
<polygon fill="midnightblue" stroke="midnightblue" points="53,-73.7 56.5,-83.7 60,-73.71 53,-73.7"/>
</g>
<!-- Node6 -->
<g id="node6" class="node">
<title>Node6</title>
<g id="a_node6"><a xlink:href="catch__objc__impl_8mm.html" target="_top" xlink:title=" ">
<polygon fill="white" stroke="black" points="275,-0.5 275,-41.5 404,-41.5 404,-0.5 275,-0.5"/>
<text text-anchor="start" x="283" y="-29.5" font-family="Helvetica,sans-Serif" font-size="10.00">language/lib/Catch2</text>
<text text-anchor="start" x="283" y="-18.5" font-family="Helvetica,sans-Serif" font-size="10.00">/projects/XCode/OCTest</text>
<text text-anchor="middle" x="339.5" y="-7.5" font-family="Helvetica,sans-Serif" font-size="10.00">/catch_objc_impl.mm</text>
</a>
</g>
</g>
<!-- Node5&#45;&gt;Node6 -->
<g id="edge5" class="edge">
<title>Node5&#45;&gt;Node6</title>
<path fill="none" stroke="midnightblue" d="M240.05,-73.77C260.06,-63.35 283.14,-51.34 302.03,-41.51"/>
<polygon fill="midnightblue" stroke="midnightblue" points="238.35,-70.71 231.1,-78.43 241.58,-76.92 238.35,-70.71"/>
</g>
<!-- Node7&#45;&gt;Node6 -->
<g id="edge7" class="edge">
<title>Node7&#45;&gt;Node6</title>
<path fill="none" stroke="midnightblue" d="M339.5,-68.3C339.5,-59.3 339.5,-49.65 339.5,-41.51"/>
<polygon fill="midnightblue" stroke="midnightblue" points="336,-68.43 339.5,-78.43 343,-68.43 336,-68.43"/>
</g>
<!-- Node8&#45;&gt;Node6 -->
<g id="edge9" class="edge">
<title>Node8&#45;&gt;Node6</title>
<path fill="none" stroke="midnightblue" d="M417.3,-146.5C421.67,-126.2 424.03,-99.17 413.5,-78 405.97,-62.85 392.16,-50.71 378.5,-41.66"/>
<polygon fill="midnightblue" stroke="midnightblue" points="413.85,-145.9 414.9,-156.44 420.65,-147.55 413.85,-145.9"/>
</g>
</g>
</svg>
