<?xml version="1.0" encoding="UTF-8" standalone="no"?>
<!DOCTYPE svg PUBLIC "-//W3C//DTD SVG 1.1//EN"
 "http://www.w3.org/Graphics/SVG/1.1/DTD/svg11.dtd">
<!-- Generated by graphviz version 2.43.0 (0)
 -->
<!-- Title: language/lib/Catch2/include/internal/catch_config.cpp Pages: 1 -->
<!--zoomable 509 -->
<svg id="main" version="1.1" xmlns="http://www.w3.org/2000/svg" xmlns:xlink="http://www.w3.org/1999/xlink" xml:space="preserve" onload="init(evt)">
<style type="text/css"><![CDATA[
.edge:hover path { stroke: red; }
.edge:hover polygon { stroke: red; fill: red; }
]]></style>
<script type="text/javascript"><![CDATA[
var edges = document.getElementsByTagName('g');
if (edges && edges.length) {
  for (var i=0;i<edges.length;i++) {
    if (edges[i].id.substr(0,4)=='edge') {
      edges[i].setAttribute('class','edge');
    }
  }
}
]]></script>
        <defs>
                <circle id="rim" cx="0" cy="0" r="7"/>
                <circle id="rim2" cx="0" cy="0" r="3.5"/>
                <g id="zoomPlus">
                        <use xlink:href="#rim" fill="#404040">
                                <set attributeName="fill" to="#808080" begin="zoomplus.mouseover" end="zoomplus.mouseout"/>
                        </use>
                        <path d="M-4,0h8M0,-4v8" fill="none" stroke="white" stroke-width="1.5" pointer-events="none"/>
                </g>
                <g id="zoomMin">
                        <use xlink:href="#rim" fill="#404040">
                                <set attributeName="fill" to="#808080" begin="zoomminus.mouseover" end="zoomminus.mouseout"/>
                        </use>
                        <path d="M-4,0h8" fill="none" stroke="white" stroke-width="1.5" pointer-events="none"/>
                </g>
                <g id="dirArrow">
                        <path fill="none" stroke="white" stroke-width="1.5" d="M0,-3.0v7 M-2.5,-0.5L0,-3.0L2.5,-0.5"/>
                </g>
               <g id="resetDef">
                       <use xlink:href="#rim2" fill="#404040">
                               <set attributeName="fill" to="#808080" begin="reset.mouseover" end="reset.mouseout"/>
                       </use>
               </g>
        </defs>

<script type="text/javascript">
var viewWidth = 1369;
var viewHeight = 509;
var sectionId = 'dynsection-0';
</script>
<script xlink:href="svgpan.js"/>
<svg id="graph" class="graph">
<g id="viewport">
<title>language/lib/Catch2/include/internal/catch_config.cpp</title>
<polygon fill="white" stroke="transparent" points="-4,4 -4,-505 1365.2,-505 1365.2,4 -4,4"/>
<!-- Node1 -->
<g id="node1" class="node">
<title>Node1</title>
<g id="a_node1"><a xlink:title=" ">
<polygon fill="#bfbfbf" stroke="black" points="229.7,-459.5 229.7,-500.5 354.7,-500.5 354.7,-459.5 229.7,-459.5"/>
<text text-anchor="start" x="237.7" y="-488.5" font-family="Helvetica,sans-Serif" font-size="10.00">language/lib/Catch2</text>
<text text-anchor="start" x="237.7" y="-477.5" font-family="Helvetica,sans-Serif" font-size="10.00">/include/internal/catch</text>
<text text-anchor="middle" x="292.2" y="-466.5" font-family="Helvetica,sans-Serif" font-size="10.00">_config.cpp</text>
</a>
</g>
</g>
<!-- Node2 -->
<g id="node2" class="node">
<title>Node2</title>
<g id="a_node2"><a xlink:href="catch__config_8hpp.html" target="_top" xlink:title=" ">
<polygon fill="white" stroke="black" points="635.2,-403.5 635.2,-422.5 733.2,-422.5 733.2,-403.5 635.2,-403.5"/>
<text text-anchor="middle" x="684.2" y="-410.5" font-family="Helvetica,sans-Serif" font-size="10.00">catch_config.hpp</text>
</a>
</g>
</g>
<!-- Node1&#45;&gt;Node2 -->
<g id="edge1" class="edge">
<title>Node1&#45;&gt;Node2</title>
<path fill="none" stroke="midnightblue" d="M354.75,-468.63C429.07,-456.31 552.14,-435.9 624.97,-423.82"/>
<polygon fill="midnightblue" stroke="midnightblue" points="625.61,-427.26 634.91,-422.17 624.47,-420.36 625.61,-427.26"/>
</g>
<!-- Node16 -->
<g id="node16" class="node">
<title>Node16</title>
<g id="a_node16"><a xlink:href="catch__stringref_8h.html" target="_top" xlink:title=" ">
<polygon fill="white" stroke="black" points="362.2,-112.5 362.2,-131.5 460.2,-131.5 460.2,-112.5 362.2,-112.5"/>
<text text-anchor="middle" x="411.2" y="-119.5" font-family="Helvetica,sans-Serif" font-size="10.00">catch_stringref.h</text>
</a>
</g>
</g>
<!-- Node1&#45;&gt;Node16 -->
<g id="edge60" class="edge">
<title>Node1&#45;&gt;Node16</title>
<path fill="none" stroke="midnightblue" d="M292.2,-459.3C292.2,-435.35 292.2,-393.71 292.2,-358 292.2,-358 292.2,-358 292.2,-233 292.2,-185.3 344.4,-152.53 379.66,-135.84"/>
<polygon fill="midnightblue" stroke="midnightblue" points="381.43,-138.88 389.09,-131.56 378.54,-132.5 381.43,-138.88"/>
</g>
<!-- Node30 -->
<g id="node30" class="node">
<title>Node30</title>
<g id="a_node30"><a xlink:href="catch__enforce_8h.html" target="_top" xlink:title=" ">
<polygon fill="white" stroke="black" points="95.2,-224.5 95.2,-243.5 189.2,-243.5 189.2,-224.5 95.2,-224.5"/>
<text text-anchor="middle" x="142.2" y="-231.5" font-family="Helvetica,sans-Serif" font-size="10.00">catch_enforce.h</text>
</a>
</g>
</g>
<!-- Node1&#45;&gt;Node30 -->
<g id="edge55" class="edge">
<title>Node1&#45;&gt;Node30</title>
<path fill="none" stroke="midnightblue" d="M280.18,-459.44C251.61,-412.98 180.02,-296.52 152.87,-252.36"/>
<polygon fill="midnightblue" stroke="midnightblue" points="155.73,-250.32 147.51,-243.64 149.76,-253.99 155.73,-250.32"/>
</g>
<!-- Node3 -->
<g id="node3" class="node">
<title>Node3</title>
<g id="a_node3"><a xlink:href="catch__test__spec__parser_8h.html" target="_top" xlink:title=" ">
<polygon fill="white" stroke="black" points="894.7,-347.5 894.7,-366.5 1033.7,-366.5 1033.7,-347.5 894.7,-347.5"/>
<text text-anchor="middle" x="964.2" y="-354.5" font-family="Helvetica,sans-Serif" font-size="10.00">catch_test_spec_parser.h</text>
</a>
</g>
</g>
<!-- Node2&#45;&gt;Node3 -->
<g id="edge2" class="edge">
<title>Node2&#45;&gt;Node3</title>
<path fill="none" stroke="midnightblue" d="M728.57,-403.44C777.82,-393.94 857.33,-378.61 910.17,-368.42"/>
<polygon fill="midnightblue" stroke="midnightblue" points="910.88,-371.85 920.04,-366.52 909.56,-364.97 910.88,-371.85"/>
</g>
<!-- Node10 -->
<g id="node10" class="node">
<title>Node10</title>
<g id="a_node10"><a xlink:title=" ">
<polygon fill="white" stroke="#bfbfbf" points="1184.2,-56.5 1184.2,-75.5 1228.2,-75.5 1228.2,-56.5 1184.2,-56.5"/>
<text text-anchor="middle" x="1206.2" y="-63.5" font-family="Helvetica,sans-Serif" font-size="10.00">string</text>
</a>
</g>
</g>
<!-- Node2&#45;&gt;Node10 -->
<g id="edge54" class="edge">
<title>Node2&#45;&gt;Node10</title>
<path fill="none" stroke="midnightblue" d="M733.43,-408.81C889.22,-398.05 1361.2,-360.22 1361.2,-296.5 1361.2,-296.5 1361.2,-296.5 1361.2,-177 1361.2,-117.18 1283.47,-86.92 1238.1,-74.35"/>
<polygon fill="midnightblue" stroke="midnightblue" points="1238.97,-70.96 1228.41,-71.8 1237.19,-77.73 1238.97,-70.96"/>
</g>
<!-- Node15 -->
<g id="node15" class="node">
<title>Node15</title>
<g id="a_node15"><a xlink:title=" ">
<polygon fill="white" stroke="#bfbfbf" points="973.7,-56.5 973.7,-75.5 1020.7,-75.5 1020.7,-56.5 973.7,-56.5"/>
<text text-anchor="middle" x="997.2" y="-63.5" font-family="Helvetica,sans-Serif" font-size="10.00">vector</text>
</a>
</g>
</g>
<!-- Node2&#45;&gt;Node15 -->
<g id="edge53" class="edge">
<title>Node2&#45;&gt;Node15</title>
<path fill="none" stroke="midnightblue" d="M733.34,-411.09C859.91,-407.43 1187.2,-389.01 1187.2,-296.5 1187.2,-296.5 1187.2,-296.5 1187.2,-233 1187.2,-150.73 1084.94,-99.83 1030.46,-78.55"/>
<polygon fill="midnightblue" stroke="midnightblue" points="1031.47,-75.19 1020.88,-74.92 1028.99,-81.73 1031.47,-75.19"/>
</g>
<!-- Node22 -->
<g id="node22" class="node">
<title>Node22</title>
<g id="a_node22"><a xlink:title=" ">
<polygon fill="white" stroke="#bfbfbf" points="582.2,-168.5 582.2,-187.5 640.2,-187.5 640.2,-168.5 582.2,-168.5"/>
<text text-anchor="middle" x="611.2" y="-175.5" font-family="Helvetica,sans-Serif" font-size="10.00">memory</text>
</a>
</g>
</g>
<!-- Node2&#45;&gt;Node22 -->
<g id="edge52" class="edge">
<title>Node2&#45;&gt;Node22</title>
<path fill="none" stroke="midnightblue" d="M685.49,-403.49C689.28,-375.72 698.14,-286 665.2,-224 658.47,-211.33 646.53,-200.81 635.59,-193.13"/>
<polygon fill="midnightblue" stroke="midnightblue" points="637.43,-190.15 627.14,-187.6 633.59,-196.01 637.43,-190.15"/>
</g>
<!-- Node25 -->
<g id="node25" class="node">
<title>Node25</title>
<g id="a_node25"><a xlink:href="catch__interfaces__config_8h.html" target="_top" xlink:title=" ">
<polygon fill="white" stroke="black" points="516.2,-224.5 516.2,-243.5 656.2,-243.5 656.2,-224.5 516.2,-224.5"/>
<text text-anchor="middle" x="586.2" y="-231.5" font-family="Helvetica,sans-Serif" font-size="10.00">catch_interfaces_config.h</text>
</a>
</g>
</g>
<!-- Node2&#45;&gt;Node25 -->
<g id="edge39" class="edge">
<title>Node2&#45;&gt;Node25</title>
<path fill="none" stroke="midnightblue" d="M679.47,-403.46C664.31,-376.08 616.68,-290.05 595.97,-252.65"/>
<polygon fill="midnightblue" stroke="midnightblue" points="599.02,-250.92 591.11,-243.87 592.89,-254.31 599.02,-250.92"/>
</g>
<!-- Node28 -->
<g id="node28" class="node">
<title>Node28</title>
<g id="a_node28"><a xlink:href="catch__stream_8h.html" target="_top" xlink:title=" ">
<polygon fill="white" stroke="black" points="96.2,-168.5 96.2,-187.5 188.2,-187.5 188.2,-168.5 96.2,-168.5"/>
<text text-anchor="middle" x="142.2" y="-175.5" font-family="Helvetica,sans-Serif" font-size="10.00">catch_stream.h</text>
</a>
</g>
</g>
<!-- Node2&#45;&gt;Node28 -->
<g id="edge47" class="edge">
<title>Node2&#45;&gt;Node28</title>
<path fill="none" stroke="midnightblue" d="M664.27,-403.43C582.01,-368.07 268.7,-233.38 171.28,-191.5"/>
<polygon fill="midnightblue" stroke="midnightblue" points="172.6,-188.26 162.03,-187.52 169.83,-194.69 172.6,-188.26"/>
</g>
<!-- Node4 -->
<g id="node4" class="node">
<title>Node4</title>
<g id="a_node4"><a xlink:href="catch__test__spec_8h.html" target="_top" xlink:title=" ">
<polygon fill="white" stroke="black" points="865.2,-286 865.2,-305 969.2,-305 969.2,-286 865.2,-286"/>
<text text-anchor="middle" x="917.2" y="-293" font-family="Helvetica,sans-Serif" font-size="10.00">catch_test_spec.h</text>
</a>
</g>
</g>
<!-- Node3&#45;&gt;Node4 -->
<g id="edge3" class="edge">
<title>Node3&#45;&gt;Node4</title>
<path fill="none" stroke="midnightblue" d="M957.47,-347.48C950.42,-338.55 939.16,-324.31 930.35,-313.14"/>
<polygon fill="midnightblue" stroke="midnightblue" points="932.87,-310.69 923.92,-305.01 927.37,-315.03 932.87,-310.69"/>
</g>
<!-- Node23 -->
<g id="node23" class="node">
<title>Node23</title>
<g id="a_node23"><a xlink:href="catch__string__manip_8h.html" target="_top" xlink:title=" ">
<polygon fill="white" stroke="black" points="999.7,-168.5 999.7,-187.5 1120.7,-187.5 1120.7,-168.5 999.7,-168.5"/>
<text text-anchor="middle" x="1060.2" y="-175.5" font-family="Helvetica,sans-Serif" font-size="10.00">catch_string_manip.h</text>
</a>
</g>
</g>
<!-- Node3&#45;&gt;Node23 -->
<g id="edge32" class="edge">
<title>Node3&#45;&gt;Node23</title>
<path fill="none" stroke="midnightblue" d="M968.83,-347.46C983.62,-320.19 1029.94,-234.78 1050.36,-197.13"/>
<polygon fill="midnightblue" stroke="midnightblue" points="1053.7,-198.33 1055.39,-187.87 1047.54,-194.99 1053.7,-198.33"/>
</g>
<!-- Node24 -->
<g id="node24" class="node">
<title>Node24</title>
<g id="a_node24"><a xlink:href="catch__interfaces__tag__alias__registry_8h.html" target="_top" xlink:title=" ">
<polygon fill="white" stroke="black" points="1215.2,-280.5 1215.2,-310.5 1333.2,-310.5 1333.2,-280.5 1215.2,-280.5"/>
<text text-anchor="start" x="1223.2" y="-298.5" font-family="Helvetica,sans-Serif" font-size="10.00">catch_interfaces_tag</text>
<text text-anchor="middle" x="1274.2" y="-287.5" font-family="Helvetica,sans-Serif" font-size="10.00">_alias_registry.h</text>
</a>
</g>
</g>
<!-- Node3&#45;&gt;Node24 -->
<g id="edge37" class="edge">
<title>Node3&#45;&gt;Node24</title>
<path fill="none" stroke="midnightblue" d="M1008.61,-347.48C1059.89,-337.63 1144.86,-321.32 1204.86,-309.81"/>
<polygon fill="midnightblue" stroke="midnightblue" points="1205.85,-313.18 1215.01,-307.86 1204.53,-306.31 1205.85,-313.18"/>
</g>
<!-- Node5 -->
<g id="node5" class="node">
<title>Node5</title>
<g id="a_node5"><a xlink:href="catch__wildcard__pattern_8h.html" target="_top" xlink:title=" ">
<polygon fill="white" stroke="black" points="358.7,-224.5 358.7,-243.5 497.7,-243.5 497.7,-224.5 358.7,-224.5"/>
<text text-anchor="middle" x="428.2" y="-231.5" font-family="Helvetica,sans-Serif" font-size="10.00">catch_wildcard_pattern.h</text>
</a>
</g>
</g>
<!-- Node4&#45;&gt;Node5 -->
<g id="edge4" class="edge">
<title>Node4&#45;&gt;Node5</title>
<path fill="none" stroke="midnightblue" d="M864.87,-288.13C779.23,-277.71 608.64,-256.96 507.89,-244.7"/>
<polygon fill="midnightblue" stroke="midnightblue" points="508.12,-241.2 497.77,-243.46 507.27,-248.15 508.12,-241.2"/>
</g>
<!-- Node4&#45;&gt;Node10 -->
<g id="edge29" class="edge">
<title>Node4&#45;&gt;Node10</title>
<path fill="none" stroke="midnightblue" d="M967.05,-285.95C1026.1,-273.55 1124.47,-245.46 1188.2,-188 1215.05,-163.79 1221.52,-147.89 1217.2,-112 1216.13,-103.11 1213.91,-93.43 1211.74,-85.34"/>
<polygon fill="midnightblue" stroke="midnightblue" points="1215.04,-84.17 1208.93,-75.51 1208.31,-86.09 1215.04,-84.17"/>
</g>
<!-- Node12 -->
<g id="node12" class="node">
<title>Node12</title>
<g id="a_node12"><a xlink:href="catch__test__case__info_8h.html" target="_top" xlink:title=" ">
<polygon fill="white" stroke="black" points="799.2,-224.5 799.2,-243.5 927.2,-243.5 927.2,-224.5 799.2,-224.5"/>
<text text-anchor="middle" x="863.2" y="-231.5" font-family="Helvetica,sans-Serif" font-size="10.00">catch_test_case_info.h</text>
</a>
</g>
</g>
<!-- Node4&#45;&gt;Node12 -->
<g id="edge11" class="edge">
<title>Node4&#45;&gt;Node12</title>
<path fill="none" stroke="midnightblue" d="M909.46,-285.98C901.2,-276.87 887.92,-262.24 877.7,-250.98"/>
<polygon fill="midnightblue" stroke="midnightblue" points="880.23,-248.56 870.92,-243.51 875.05,-253.27 880.23,-248.56"/>
</g>
<!-- Node4&#45;&gt;Node15 -->
<g id="edge30" class="edge">
<title>Node4&#45;&gt;Node15</title>
<path fill="none" stroke="midnightblue" d="M920.5,-285.95C924.35,-275.93 930.86,-258.81 936.2,-244 957,-186.29 980.29,-117.46 991.09,-85.28"/>
<polygon fill="midnightblue" stroke="midnightblue" points="994.5,-86.1 994.36,-75.5 987.87,-83.87 994.5,-86.1"/>
</g>
<!-- Node4&#45;&gt;Node22 -->
<g id="edge31" class="edge">
<title>Node4&#45;&gt;Node22</title>
<path fill="none" stroke="midnightblue" d="M894.2,-285.82C840.35,-265.49 705.95,-214.76 643.74,-191.28"/>
<polygon fill="midnightblue" stroke="midnightblue" points="644.64,-187.88 634.05,-187.62 642.17,-194.43 644.64,-187.88"/>
</g>
<!-- Node6 -->
<g id="node6" class="node">
<title>Node6</title>
<g id="a_node6"><a xlink:href="catch__common_8h.html" target="_top" xlink:title=" ">
<polygon fill="white" stroke="black" points="168.2,-112.5 168.2,-131.5 268.2,-131.5 268.2,-112.5 168.2,-112.5"/>
<text text-anchor="middle" x="218.2" y="-119.5" font-family="Helvetica,sans-Serif" font-size="10.00">catch_common.h</text>
</a>
</g>
</g>
<!-- Node5&#45;&gt;Node6 -->
<g id="edge5" class="edge">
<title>Node5&#45;&gt;Node6</title>
<path fill="none" stroke="midnightblue" d="M402.63,-224.41C379.49,-216.25 344.77,-203.01 316.2,-188 287.65,-173 257.01,-151.76 237.74,-137.69"/>
<polygon fill="midnightblue" stroke="midnightblue" points="239.62,-134.73 229.49,-131.6 235.46,-140.36 239.62,-134.73"/>
</g>
<!-- Node7 -->
<g id="node7" class="node">
<title>Node7</title>
<g id="a_node7"><a xlink:href="catch__compiler__capabilities_8h.html" target="_top" xlink:title=" ">
<polygon fill="white" stroke="black" points="86.7,-56.5 86.7,-75.5 247.7,-75.5 247.7,-56.5 86.7,-56.5"/>
<text text-anchor="middle" x="167.2" y="-63.5" font-family="Helvetica,sans-Serif" font-size="10.00">catch_compiler_capabilities.h</text>
</a>
</g>
</g>
<!-- Node6&#45;&gt;Node7 -->
<g id="edge6" class="edge">
<title>Node6&#45;&gt;Node7</title>
<path fill="none" stroke="midnightblue" d="M209.78,-112.08C202.35,-104.22 191.35,-92.57 182.39,-83.08"/>
<polygon fill="midnightblue" stroke="midnightblue" points="184.87,-80.62 175.46,-75.75 179.79,-85.42 184.87,-80.62"/>
</g>
<!-- Node9 -->
<g id="node9" class="node">
<title>Node9</title>
<g id="a_node9"><a xlink:title=" ">
<polygon fill="white" stroke="#bfbfbf" points="337.2,-56.5 337.2,-75.5 385.2,-75.5 385.2,-56.5 337.2,-56.5"/>
<text text-anchor="middle" x="361.2" y="-63.5" font-family="Helvetica,sans-Serif" font-size="10.00">iosfwd</text>
</a>
</g>
</g>
<!-- Node6&#45;&gt;Node9 -->
<g id="edge8" class="edge">
<title>Node6&#45;&gt;Node9</title>
<path fill="none" stroke="midnightblue" d="M240.86,-112.44C264.6,-103.48 302.11,-89.31 328.94,-79.18"/>
<polygon fill="midnightblue" stroke="midnightblue" points="330.53,-82.32 338.65,-75.52 328.05,-75.77 330.53,-82.32"/>
</g>
<!-- Node6&#45;&gt;Node10 -->
<g id="edge9" class="edge">
<title>Node6&#45;&gt;Node10</title>
<path fill="none" stroke="midnightblue" d="M268.51,-117.48C293.9,-115.75 325.18,-113.67 353.2,-112 436.15,-107.05 1027.75,-76.27 1173.71,-68.69"/>
<polygon fill="midnightblue" stroke="midnightblue" points="1174.01,-72.18 1183.81,-68.16 1173.65,-65.19 1174.01,-72.18"/>
</g>
<!-- Node11 -->
<g id="node11" class="node">
<title>Node11</title>
<g id="a_node11"><a xlink:title=" ">
<polygon fill="white" stroke="#bfbfbf" points="18.2,-56.5 18.2,-75.5 68.2,-75.5 68.2,-56.5 18.2,-56.5"/>
<text text-anchor="middle" x="43.2" y="-63.5" font-family="Helvetica,sans-Serif" font-size="10.00">cstdint</text>
</a>
</g>
</g>
<!-- Node6&#45;&gt;Node11 -->
<g id="edge10" class="edge">
<title>Node6&#45;&gt;Node11</title>
<path fill="none" stroke="midnightblue" d="M190.47,-112.44C159.99,-103.04 110.97,-87.91 77.94,-77.72"/>
<polygon fill="midnightblue" stroke="midnightblue" points="78.83,-74.33 68.25,-74.73 76.77,-81.02 78.83,-74.33"/>
</g>
<!-- Node8 -->
<g id="node8" class="node">
<title>Node8</title>
<g id="a_node8"><a xlink:href="catch__platform_8h.html" target="_top" xlink:title=" ">
<polygon fill="white" stroke="black" points="117.7,-0.5 117.7,-19.5 216.7,-19.5 216.7,-0.5 117.7,-0.5"/>
<text text-anchor="middle" x="167.2" y="-7.5" font-family="Helvetica,sans-Serif" font-size="10.00">catch_platform.h</text>
</a>
</g>
</g>
<!-- Node7&#45;&gt;Node8 -->
<g id="edge7" class="edge">
<title>Node7&#45;&gt;Node8</title>
<path fill="none" stroke="midnightblue" d="M167.2,-56.08C167.2,-49.01 167.2,-38.86 167.2,-29.99"/>
<polygon fill="midnightblue" stroke="midnightblue" points="170.7,-29.75 167.2,-19.75 163.7,-29.75 170.7,-29.75"/>
</g>
<!-- Node12&#45;&gt;Node6 -->
<g id="edge12" class="edge">
<title>Node12&#45;&gt;Node6</title>
<path fill="none" stroke="midnightblue" d="M818.85,-224.45C782.96,-216.86 731.46,-204.42 688.2,-188 669.99,-181.09 667.89,-173.49 649.2,-168 491.95,-121.79 444.94,-151.42 282.2,-132 280.95,-131.85 279.68,-131.7 278.4,-131.54"/>
<polygon fill="midnightblue" stroke="midnightblue" points="278.84,-128.07 268.48,-130.27 277.96,-135.01 278.84,-128.07"/>
</g>
<!-- Node12&#45;&gt;Node10 -->
<g id="edge26" class="edge">
<title>Node12&#45;&gt;Node10</title>
<path fill="none" stroke="midnightblue" d="M927.52,-229.37C1003.68,-224.04 1125.03,-212.02 1163.2,-188 1188.65,-171.98 1191.27,-160.39 1201.2,-132 1206.4,-117.13 1207.42,-99.21 1207.27,-85.95"/>
<polygon fill="midnightblue" stroke="midnightblue" points="1210.76,-85.57 1206.92,-75.7 1203.77,-85.82 1210.76,-85.57"/>
</g>
<!-- Node13 -->
<g id="node13" class="node">
<title>Node13</title>
<g id="a_node13"><a xlink:href="catch__test__registry_8h.html" target="_top" xlink:title=" ">
<polygon fill="white" stroke="black" points="696.7,-168.5 696.7,-187.5 813.7,-187.5 813.7,-168.5 696.7,-168.5"/>
<text text-anchor="middle" x="755.2" y="-175.5" font-family="Helvetica,sans-Serif" font-size="10.00">catch_test_registry.h</text>
</a>
</g>
</g>
<!-- Node12&#45;&gt;Node13 -->
<g id="edge13" class="edge">
<title>Node12&#45;&gt;Node13</title>
<path fill="none" stroke="midnightblue" d="M845.85,-224.32C828.53,-215.66 801.68,-202.24 781.7,-192.25"/>
<polygon fill="midnightblue" stroke="midnightblue" points="783.02,-189 772.51,-187.65 779.89,-195.26 783.02,-189"/>
</g>
<!-- Node12&#45;&gt;Node15 -->
<g id="edge27" class="edge">
<title>Node12&#45;&gt;Node15</title>
<path fill="none" stroke="midnightblue" d="M872.82,-224.47C882.47,-215.72 897.51,-201.53 909.2,-188 939.48,-152.95 970.28,-108.02 986.18,-83.98"/>
<polygon fill="midnightblue" stroke="midnightblue" points="989.13,-85.86 991.68,-75.58 983.27,-82.02 989.13,-85.86"/>
</g>
<!-- Node12&#45;&gt;Node22 -->
<g id="edge28" class="edge">
<title>Node12&#45;&gt;Node22</title>
<path fill="none" stroke="midnightblue" d="M823.27,-224.44C775.82,-214.28 697.17,-197.42 650.15,-187.35"/>
<polygon fill="midnightblue" stroke="midnightblue" points="650.85,-183.92 640.34,-185.24 649.38,-190.76 650.85,-183.92"/>
</g>
<!-- Node13&#45;&gt;Node6 -->
<g id="edge14" class="edge">
<title>Node13&#45;&gt;Node6</title>
<path fill="none" stroke="midnightblue" d="M696.64,-169.65C691.76,-169.07 686.9,-168.52 682.2,-168 537.49,-152.07 367.06,-136.31 278.49,-128.34"/>
<polygon fill="midnightblue" stroke="midnightblue" points="278.64,-124.84 268.37,-127.43 278.01,-131.81 278.64,-124.84"/>
</g>
<!-- Node13&#45;&gt;Node7 -->
<g id="edge17" class="edge">
<title>Node13&#45;&gt;Node7</title>
<path fill="none" stroke="midnightblue" d="M696.64,-169.71C691.75,-169.12 686.89,-168.55 682.2,-168 536.09,-151 496.66,-164.47 353.2,-132 296.17,-119.09 232.38,-94.44 196.27,-79.49"/>
<polygon fill="midnightblue" stroke="midnightblue" points="197.43,-76.18 186.86,-75.54 194.73,-82.63 197.43,-76.18"/>
</g>
<!-- Node14 -->
<g id="node14" class="node">
<title>Node14</title>
<g id="a_node14"><a xlink:href="catch__interfaces__testcase_8h.html" target="_top" xlink:title=" ">
<polygon fill="white" stroke="black" points="741.2,-112.5 741.2,-131.5 893.2,-131.5 893.2,-112.5 741.2,-112.5"/>
<text text-anchor="middle" x="817.2" y="-119.5" font-family="Helvetica,sans-Serif" font-size="10.00">catch_interfaces_testcase.h</text>
</a>
</g>
</g>
<!-- Node13&#45;&gt;Node14 -->
<g id="edge15" class="edge">
<title>Node13&#45;&gt;Node14</title>
<path fill="none" stroke="midnightblue" d="M765.16,-168.32C774.33,-160.34 788.14,-148.31 799.23,-138.65"/>
<polygon fill="midnightblue" stroke="midnightblue" points="801.81,-141.04 807.06,-131.83 797.22,-135.76 801.81,-141.04"/>
</g>
<!-- Node13&#45;&gt;Node16 -->
<g id="edge18" class="edge">
<title>Node13&#45;&gt;Node16</title>
<path fill="none" stroke="midnightblue" d="M700.69,-168.44C637.93,-158.59 535.19,-142.46 470.48,-132.31"/>
<polygon fill="midnightblue" stroke="midnightblue" points="470.86,-128.82 460.44,-130.73 469.77,-135.74 470.86,-128.82"/>
</g>
<!-- Node19 -->
<g id="node19" class="node">
<title>Node19</title>
<g id="a_node19"><a xlink:href="catch__preprocessor_8hpp.html" target="_top" xlink:title=" ">
<polygon fill="white" stroke="black" points="591.7,-112.5 591.7,-131.5 722.7,-131.5 722.7,-112.5 591.7,-112.5"/>
<text text-anchor="middle" x="657.2" y="-119.5" font-family="Helvetica,sans-Serif" font-size="10.00">catch_preprocessor.hpp</text>
</a>
</g>
</g>
<!-- Node13&#45;&gt;Node19 -->
<g id="edge23" class="edge">
<title>Node13&#45;&gt;Node19</title>
<path fill="none" stroke="midnightblue" d="M739.45,-168.32C723.88,-159.74 699.82,-146.49 681.74,-136.52"/>
<polygon fill="midnightblue" stroke="midnightblue" points="683.35,-133.42 672.91,-131.65 679.97,-139.55 683.35,-133.42"/>
</g>
<!-- Node20 -->
<g id="node20" class="node">
<title>Node20</title>
<g id="a_node20"><a xlink:href="catch__meta_8hpp.html" target="_top" xlink:title=" ">
<polygon fill="white" stroke="black" points="478.7,-112.5 478.7,-131.5 573.7,-131.5 573.7,-112.5 478.7,-112.5"/>
<text text-anchor="middle" x="526.2" y="-119.5" font-family="Helvetica,sans-Serif" font-size="10.00">catch_meta.hpp</text>
</a>
</g>
</g>
<!-- Node13&#45;&gt;Node20 -->
<g id="edge24" class="edge">
<title>Node13&#45;&gt;Node20</title>
<path fill="none" stroke="midnightblue" d="M718.91,-168.44C679.22,-159.08 615.49,-144.06 572.29,-133.87"/>
<polygon fill="midnightblue" stroke="midnightblue" points="572.85,-130.41 562.31,-131.52 571.24,-137.22 572.85,-130.41"/>
</g>
<!-- Node14&#45;&gt;Node15 -->
<g id="edge16" class="edge">
<title>Node14&#45;&gt;Node15</title>
<path fill="none" stroke="midnightblue" d="M845.72,-112.44C877.79,-102.82 929.82,-87.21 963.77,-77.03"/>
<polygon fill="midnightblue" stroke="midnightblue" points="965.11,-80.28 973.69,-74.05 963.1,-73.57 965.11,-80.28"/>
</g>
<!-- Node16&#45;&gt;Node9 -->
<g id="edge21" class="edge">
<title>Node16&#45;&gt;Node9</title>
<path fill="none" stroke="midnightblue" d="M402.94,-112.08C395.73,-104.3 385.09,-92.8 376.35,-83.37"/>
<polygon fill="midnightblue" stroke="midnightblue" points="378.66,-80.71 369.3,-75.75 373.53,-85.47 378.66,-80.71"/>
</g>
<!-- Node16&#45;&gt;Node10 -->
<g id="edge20" class="edge">
<title>Node16&#45;&gt;Node10</title>
<path fill="none" stroke="midnightblue" d="M460.41,-113.15C463.72,-112.73 467.01,-112.34 470.2,-112 540.7,-104.48 1040.29,-76.28 1173.58,-68.82"/>
<polygon fill="midnightblue" stroke="midnightblue" points="1174.15,-72.29 1183.94,-68.24 1173.76,-65.3 1174.15,-72.29"/>
</g>
<!-- Node17 -->
<g id="node17" class="node">
<title>Node17</title>
<g id="a_node17"><a xlink:title=" ">
<polygon fill="white" stroke="#bfbfbf" points="265.7,-56.5 265.7,-75.5 318.7,-75.5 318.7,-56.5 265.7,-56.5"/>
<text text-anchor="middle" x="292.2" y="-63.5" font-family="Helvetica,sans-Serif" font-size="10.00">cstddef</text>
</a>
</g>
</g>
<!-- Node16&#45;&gt;Node17 -->
<g id="edge19" class="edge">
<title>Node16&#45;&gt;Node17</title>
<path fill="none" stroke="midnightblue" d="M392.34,-112.44C372.93,-103.64 342.47,-89.81 320.23,-79.72"/>
<polygon fill="midnightblue" stroke="midnightblue" points="321.52,-76.46 310.97,-75.52 318.63,-82.84 321.52,-76.46"/>
</g>
<!-- Node18 -->
<g id="node18" class="node">
<title>Node18</title>
<g id="a_node18"><a xlink:title=" ">
<polygon fill="white" stroke="#bfbfbf" points="403.2,-56.5 403.2,-75.5 455.2,-75.5 455.2,-56.5 403.2,-56.5"/>
<text text-anchor="middle" x="429.2" y="-63.5" font-family="Helvetica,sans-Serif" font-size="10.00">cassert</text>
</a>
</g>
</g>
<!-- Node16&#45;&gt;Node18 -->
<g id="edge22" class="edge">
<title>Node16&#45;&gt;Node18</title>
<path fill="none" stroke="midnightblue" d="M414.17,-112.08C416.58,-104.85 420.06,-94.41 423.07,-85.4"/>
<polygon fill="midnightblue" stroke="midnightblue" points="426.44,-86.34 426.28,-75.75 419.8,-84.13 426.44,-86.34"/>
</g>
<!-- Node21 -->
<g id="node21" class="node">
<title>Node21</title>
<g id="a_node21"><a xlink:title=" ">
<polygon fill="white" stroke="#bfbfbf" points="491.7,-56.5 491.7,-75.5 560.7,-75.5 560.7,-56.5 491.7,-56.5"/>
<text text-anchor="middle" x="526.2" y="-63.5" font-family="Helvetica,sans-Serif" font-size="10.00">type_traits</text>
</a>
</g>
</g>
<!-- Node20&#45;&gt;Node21 -->
<g id="edge25" class="edge">
<title>Node20&#45;&gt;Node21</title>
<path fill="none" stroke="midnightblue" d="M526.2,-112.08C526.2,-105.01 526.2,-94.86 526.2,-85.99"/>
<polygon fill="midnightblue" stroke="midnightblue" points="529.7,-85.75 526.2,-75.75 522.7,-85.75 529.7,-85.75"/>
</g>
<!-- Node23&#45;&gt;Node9 -->
<g id="edge35" class="edge">
<title>Node23&#45;&gt;Node9</title>
<path fill="none" stroke="midnightblue" d="M1044.17,-168.37C1016.25,-153.82 956.49,-124.74 902.2,-112 685.07,-61.04 619.26,-112.41 395.32,-75.83"/>
<polygon fill="midnightblue" stroke="midnightblue" points="395.67,-72.34 385.23,-74.14 394.51,-79.24 395.67,-72.34"/>
</g>
<!-- Node23&#45;&gt;Node10 -->
<g id="edge34" class="edge">
<title>Node23&#45;&gt;Node10</title>
<path fill="none" stroke="midnightblue" d="M1071.66,-168.37C1096.5,-149.65 1155.56,-105.15 1186.51,-81.83"/>
<polygon fill="midnightblue" stroke="midnightblue" points="1188.92,-84.4 1194.8,-75.59 1184.7,-78.81 1188.92,-84.4"/>
</g>
<!-- Node23&#45;&gt;Node15 -->
<g id="edge36" class="edge">
<title>Node23&#45;&gt;Node15</title>
<path fill="none" stroke="midnightblue" d="M1060.53,-168.4C1060.66,-155.35 1059.41,-130.15 1049.2,-112 1042.34,-99.81 1030.86,-89.35 1020.43,-81.59"/>
<polygon fill="midnightblue" stroke="midnightblue" points="1022.25,-78.59 1012.04,-75.73 1018.24,-84.32 1022.25,-78.59"/>
</g>
<!-- Node23&#45;&gt;Node16 -->
<g id="edge33" class="edge">
<title>Node23&#45;&gt;Node16</title>
<path fill="none" stroke="midnightblue" d="M999.33,-173.87C893.93,-168.12 670.43,-154.47 470.52,-131.94"/>
<polygon fill="midnightblue" stroke="midnightblue" points="470.75,-128.44 460.42,-130.79 469.96,-135.4 470.75,-128.44"/>
</g>
<!-- Node24&#45;&gt;Node10 -->
<g id="edge38" class="edge">
<title>Node24&#45;&gt;Node10</title>
<path fill="none" stroke="midnightblue" d="M1278.95,-280.09C1288.73,-247.68 1307.75,-167.53 1277.2,-112 1268.72,-96.58 1252.47,-85.7 1237.66,-78.51"/>
<polygon fill="midnightblue" stroke="midnightblue" points="1238.79,-75.18 1228.23,-74.3 1235.94,-81.57 1238.79,-75.18"/>
</g>
<!-- Node25&#45;&gt;Node6 -->
<g id="edge40" class="edge">
<title>Node25&#45;&gt;Node6</title>
<path fill="none" stroke="midnightblue" d="M529.67,-224.47C470.43,-215.15 381.57,-199.94 349.2,-188 332.39,-181.8 330.1,-176.25 314.2,-168 291.84,-156.39 265.94,-144.33 246.69,-135.62"/>
<polygon fill="midnightblue" stroke="midnightblue" points="248.1,-132.42 237.55,-131.51 245.23,-138.81 248.1,-132.42"/>
</g>
<!-- Node25&#45;&gt;Node9 -->
<g id="edge43" class="edge">
<title>Node25&#45;&gt;Node9</title>
<path fill="none" stroke="midnightblue" d="M581.95,-224.21C574.56,-209.94 557.94,-181.95 535.2,-168 464.92,-124.87 405.54,-195.71 353.2,-132 342.51,-118.99 346.86,-99.29 352.43,-84.98"/>
<polygon fill="midnightblue" stroke="midnightblue" points="355.69,-86.26 356.5,-75.7 349.28,-83.45 355.69,-86.26"/>
</g>
<!-- Node25&#45;&gt;Node10 -->
<g id="edge44" class="edge">
<title>Node25&#45;&gt;Node10</title>
<path fill="none" stroke="midnightblue" d="M656.39,-228.86C798.86,-220.24 1110.26,-200.12 1130.2,-188 1168.93,-164.45 1191.1,-112.86 1200.61,-85.27"/>
<polygon fill="midnightblue" stroke="midnightblue" points="1203.96,-86.26 1203.73,-75.67 1197.31,-84.09 1203.96,-86.26"/>
</g>
<!-- Node25&#45;&gt;Node15 -->
<g id="edge45" class="edge">
<title>Node25&#45;&gt;Node15</title>
<path fill="none" stroke="midnightblue" d="M656.35,-227.46C704.74,-221.79 769.72,-210.46 823.2,-188 886.8,-161.29 950.57,-108.8 980.15,-82.62"/>
<polygon fill="midnightblue" stroke="midnightblue" points="982.77,-84.97 987.88,-75.69 978.1,-79.76 982.77,-84.97"/>
</g>
<!-- Node25&#45;&gt;Node22 -->
<g id="edge46" class="edge">
<title>Node25&#45;&gt;Node22</title>
<path fill="none" stroke="midnightblue" d="M590.33,-224.08C593.71,-216.77 598.62,-206.18 602.82,-197.1"/>
<polygon fill="midnightblue" stroke="midnightblue" points="606.12,-198.3 607.15,-187.75 599.77,-195.36 606.12,-198.3"/>
</g>
<!-- Node26 -->
<g id="node26" class="node">
<title>Node26</title>
<g id="a_node26"><a xlink:href="catch__option_8hpp.html" target="_top" xlink:title=" ">
<polygon fill="white" stroke="black" points="358.2,-168.5 358.2,-187.5 458.2,-187.5 458.2,-168.5 358.2,-168.5"/>
<text text-anchor="middle" x="408.2" y="-175.5" font-family="Helvetica,sans-Serif" font-size="10.00">catch_option.hpp</text>
</a>
</g>
</g>
<!-- Node25&#45;&gt;Node26 -->
<g id="edge41" class="edge">
<title>Node25&#45;&gt;Node26</title>
<path fill="none" stroke="midnightblue" d="M557.99,-224.44C527.79,-215.28 479.69,-200.69 446.17,-190.52"/>
<polygon fill="midnightblue" stroke="midnightblue" points="446.86,-187.07 436.27,-187.52 444.82,-193.77 446.86,-187.07"/>
</g>
<!-- Node27 -->
<g id="node27" class="node">
<title>Node27</title>
<g id="a_node27"><a xlink:title=" ">
<polygon fill="white" stroke="#bfbfbf" points="476.2,-168.5 476.2,-187.5 526.2,-187.5 526.2,-168.5 476.2,-168.5"/>
<text text-anchor="middle" x="501.2" y="-175.5" font-family="Helvetica,sans-Serif" font-size="10.00">chrono</text>
</a>
</g>
</g>
<!-- Node25&#45;&gt;Node27 -->
<g id="edge42" class="edge">
<title>Node25&#45;&gt;Node27</title>
<path fill="none" stroke="midnightblue" d="M572.54,-224.32C559.28,-215.9 538.93,-202.97 523.35,-193.07"/>
<polygon fill="midnightblue" stroke="midnightblue" points="525.14,-190.06 514.82,-187.65 521.39,-195.97 525.14,-190.06"/>
</g>
<!-- Node28&#45;&gt;Node6 -->
<g id="edge48" class="edge">
<title>Node28&#45;&gt;Node6</title>
<path fill="none" stroke="midnightblue" d="M154.41,-168.32C165.97,-160.11 183.57,-147.6 197.36,-137.81"/>
<polygon fill="midnightblue" stroke="midnightblue" points="199.64,-140.48 205.77,-131.83 195.59,-134.77 199.64,-140.48"/>
</g>
<!-- Node28&#45;&gt;Node9 -->
<g id="edge49" class="edge">
<title>Node28&#45;&gt;Node9</title>
<path fill="none" stroke="midnightblue" d="M141.8,-168.44C141.65,-154.51 143.52,-126.99 159.2,-112 214.39,-59.22 252.93,-93.78 327.2,-76 327.3,-75.98 327.4,-75.95 327.5,-75.93"/>
<polygon fill="midnightblue" stroke="midnightblue" points="328.23,-79.35 337.09,-73.53 326.54,-72.56 328.23,-79.35"/>
</g>
<!-- Node28&#45;&gt;Node17 -->
<g id="edge50" class="edge">
<title>Node28&#45;&gt;Node17</title>
<path fill="none" stroke="midnightblue" d="M107.91,-168.47C71.87,-157.89 23.24,-138.03 45.2,-112 74.14,-77.71 194.82,-84.78 255.3,-75.73"/>
<polygon fill="midnightblue" stroke="midnightblue" points="256.28,-79.11 265.51,-73.91 255.06,-72.22 256.28,-79.11"/>
</g>
<!-- Node29 -->
<g id="node29" class="node">
<title>Node29</title>
<g id="a_node29"><a xlink:title=" ">
<polygon fill="white" stroke="#bfbfbf" points="54.7,-112.5 54.7,-131.5 111.7,-131.5 111.7,-112.5 54.7,-112.5"/>
<text text-anchor="middle" x="83.2" y="-119.5" font-family="Helvetica,sans-Serif" font-size="10.00">ostream</text>
</a>
</g>
</g>
<!-- Node28&#45;&gt;Node29 -->
<g id="edge51" class="edge">
<title>Node28&#45;&gt;Node29</title>
<path fill="none" stroke="midnightblue" d="M132.72,-168.32C124,-160.34 110.86,-148.31 100.3,-138.65"/>
<polygon fill="midnightblue" stroke="midnightblue" points="102.59,-136 92.85,-131.83 97.86,-141.17 102.59,-136"/>
</g>
<!-- Node30&#45;&gt;Node6 -->
<g id="edge56" class="edge">
<title>Node30&#45;&gt;Node6</title>
<path fill="none" stroke="midnightblue" d="M156.82,-224.42C169.22,-216.45 186.63,-203.49 197.2,-188 206.7,-174.07 212.13,-155.56 215.07,-141.86"/>
<polygon fill="midnightblue" stroke="midnightblue" points="218.58,-142.16 217,-131.68 211.7,-140.86 218.58,-142.16"/>
</g>
<!-- Node30&#45;&gt;Node7 -->
<g id="edge57" class="edge">
<title>Node30&#45;&gt;Node7</title>
<path fill="none" stroke="midnightblue" d="M94.97,-231.3C63.42,-227.41 24.01,-216.62 3.2,-188 -2.03,-180.81 0.86,-176.58 3.2,-168 10.8,-140.13 13.82,-130.27 36.2,-112 56.5,-95.43 83.26,-84.81 107.3,-78.08"/>
<polygon fill="midnightblue" stroke="midnightblue" points="108.27,-81.44 117.05,-75.51 106.49,-74.67 108.27,-81.44"/>
</g>
<!-- Node30&#45;&gt;Node28 -->
<g id="edge58" class="edge">
<title>Node30&#45;&gt;Node28</title>
<path fill="none" stroke="midnightblue" d="M142.2,-224.08C142.2,-217.01 142.2,-206.86 142.2,-197.99"/>
<polygon fill="midnightblue" stroke="midnightblue" points="145.7,-197.75 142.2,-187.75 138.7,-197.75 145.7,-197.75"/>
</g>
<!-- Node31 -->
<g id="node31" class="node">
<title>Node31</title>
<g id="a_node31"><a xlink:title=" ">
<polygon fill="white" stroke="#bfbfbf" points="12.7,-168.5 12.7,-187.5 77.7,-187.5 77.7,-168.5 12.7,-168.5"/>
<text text-anchor="middle" x="45.2" y="-175.5" font-family="Helvetica,sans-Serif" font-size="10.00">exception</text>
</a>
</g>
</g>
<!-- Node30&#45;&gt;Node31 -->
<g id="edge59" class="edge">
<title>Node30&#45;&gt;Node31</title>
<path fill="none" stroke="midnightblue" d="M126.61,-224.32C111.2,-215.74 87.39,-202.49 69.49,-192.52"/>
<polygon fill="midnightblue" stroke="midnightblue" points="71.18,-189.46 60.75,-187.65 67.78,-195.58 71.18,-189.46"/>
</g>
</g>
</svg>
        <g id="navigator" transform="translate(0 0)" fill="#404254">
                <rect fill="#f2f5e9" fill-opacity="0.5" stroke="#606060" stroke-width=".5" x="0" y="0" width="60" height="60"/>
                <use id="zoomplus" xlink:href="#zoomPlus" x="17" y="9" onmousedown="handleZoom(evt,'in')"/>
                <use id="zoomminus" xlink:href="#zoomMin" x="42" y="9" onmousedown="handleZoom(evt,'out')"/>
                <use id="reset" xlink:href="#resetDef" x="30" y="36" onmousedown="handleReset()"/>
                <g id="arrowUp" xlink:href="#dirArrow" transform="translate(30 24)" onmousedown="handlePan(0,-1)">
                  <use xlink:href="#rim" fill="#404040">
                        <set attributeName="fill" to="#808080" begin="arrowUp.mouseover" end="arrowUp.mouseout"/>
                  </use>
                  <path fill="none" stroke="white" stroke-width="1.5" d="M0,-3.0v7 M-2.5,-0.5L0,-3.0L2.5,-0.5"/>
                </g>
                <g id="arrowRight" xlink:href="#dirArrow" transform="rotate(90) translate(36 -43)" onmousedown="handlePan(1,0)">
                  <use xlink:href="#rim" fill="#404040">
                        <set attributeName="fill" to="#808080" begin="arrowRight.mouseover" end="arrowRight.mouseout"/>
                  </use>
                  <path fill="none" stroke="white" stroke-width="1.5" d="M0,-3.0v7 M-2.5,-0.5L0,-3.0L2.5,-0.5"/>
                </g>
                <g id="arrowDown" xlink:href="#dirArrow" transform="rotate(180) translate(-30 -48)" onmousedown="handlePan(0,1)">
                  <use xlink:href="#rim" fill="#404040">
                        <set attributeName="fill" to="#808080" begin="arrowDown.mouseover" end="arrowDown.mouseout"/>
                  </use>
                  <path fill="none" stroke="white" stroke-width="1.5" d="M0,-3.0v7 M-2.5,-0.5L0,-3.0L2.5,-0.5"/>
                </g>
                <g id="arrowLeft" xlink:href="#dirArrow" transform="rotate(270) translate(-36 17)" onmousedown="handlePan(-1,0)">
                  <use xlink:href="#rim" fill="#404040">
                        <set attributeName="fill" to="#808080" begin="arrowLeft.mouseover" end="arrowLeft.mouseout"/>
                  </use>
                  <path fill="none" stroke="white" stroke-width="1.5" d="M0,-3.0v7 M-2.5,-0.5L0,-3.0L2.5,-0.5"/>
                </g>
        </g>
        <svg viewBox="0 0 15 15" width="100%" height="30px" preserveAspectRatio="xMaxYMin meet">
         <g id="arrow_out" transform="scale(0.3 0.3)">
          <a xlink:href="catch__config_8cpp__incl_org.svg" target="_base">
           <rect id="button" ry="5" rx="5" y="6" x="6" height="38" width="38"
                fill="#f2f5e9" fill-opacity="0.5" stroke="#606060" stroke-width="1.0"/>
           <path id="arrow"
             d="M 11.500037,31.436501 C 11.940474,20.09759 22.043105,11.32322 32.158766,21.979434 L 37.068811,17.246167 C 37.068811,17.246167 37.088388,32 37.088388,32 L 22.160133,31.978069 C 22.160133,31.978069 26.997745,27.140456 26.997745,27.140456 C 18.528582,18.264221 13.291696,25.230495 11.500037,31.436501 z"
             style="fill:#404040;"/>
          </a>
         </g>
        </svg>
</svg>
