<?xml version="1.0" encoding="UTF-8" standalone="no"?>
<!DOCTYPE svg PUBLIC "-//W3C//DTD SVG 1.1//EN"
 "http://www.w3.org/Graphics/SVG/1.1/DTD/svg11.dtd">
<!-- Generated by graphviz version 2.43.0 (0)
 -->
<!-- Title: language/lib/Catch2/include/internal/catch_approx.cpp Pages: 1 -->
<!--zoomable 397 -->
<svg id="main" version="1.1" xmlns="http://www.w3.org/2000/svg" xmlns:xlink="http://www.w3.org/1999/xlink" xml:space="preserve" onload="init(evt)">
<style type="text/css"><![CDATA[
.edge:hover path { stroke: red; }
.edge:hover polygon { stroke: red; fill: red; }
]]></style>
<script type="text/javascript"><![CDATA[
var edges = document.getElementsByTagName('g');
if (edges && edges.length) {
  for (var i=0;i<edges.length;i++) {
    if (edges[i].id.substr(0,4)=='edge') {
      edges[i].setAttribute('class','edge');
    }
  }
}
]]></script>
        <defs>
                <circle id="rim" cx="0" cy="0" r="7"/>
                <circle id="rim2" cx="0" cy="0" r="3.5"/>
                <g id="zoomPlus">
                        <use xlink:href="#rim" fill="#404040">
                                <set attributeName="fill" to="#808080" begin="zoomplus.mouseover" end="zoomplus.mouseout"/>
                        </use>
                        <path d="M-4,0h8M0,-4v8" fill="none" stroke="white" stroke-width="1.5" pointer-events="none"/>
                </g>
                <g id="zoomMin">
                        <use xlink:href="#rim" fill="#404040">
                                <set attributeName="fill" to="#808080" begin="zoomminus.mouseover" end="zoomminus.mouseout"/>
                        </use>
                        <path d="M-4,0h8" fill="none" stroke="white" stroke-width="1.5" pointer-events="none"/>
                </g>
                <g id="dirArrow">
                        <path fill="none" stroke="white" stroke-width="1.5" d="M0,-3.0v7 M-2.5,-0.5L0,-3.0L2.5,-0.5"/>
                </g>
               <g id="resetDef">
                       <use xlink:href="#rim2" fill="#404040">
                               <set attributeName="fill" to="#808080" begin="reset.mouseover" end="reset.mouseout"/>
                       </use>
               </g>
        </defs>

<script type="text/javascript">
var viewWidth = 638;
var viewHeight = 397;
var sectionId = 'dynsection-0';
</script>
<script xlink:href="svgpan.js"/>
<svg id="graph" class="graph">
<g id="viewport">
<title>language/lib/Catch2/include/internal/catch_approx.cpp</title>
<polygon fill="white" stroke="transparent" points="-4,4 -4,-393 634.26,-393 634.26,4 -4,4"/>
<!-- Node1 -->
<g id="node1" class="node">
<title>Node1</title>
<g id="a_node1"><a xlink:title=" ">
<polygon fill="#bfbfbf" stroke="black" points="401.16,-347.5 401.16,-388.5 526.16,-388.5 526.16,-347.5 401.16,-347.5"/>
<text text-anchor="start" x="409.16" y="-376.5" font-family="Helvetica,sans-Serif" font-size="10.00">language/lib/Catch2</text>
<text text-anchor="start" x="409.16" y="-365.5" font-family="Helvetica,sans-Serif" font-size="10.00">/include/internal/catch</text>
<text text-anchor="middle" x="463.66" y="-354.5" font-family="Helvetica,sans-Serif" font-size="10.00">_approx.cpp</text>
</a>
</g>
</g>
<!-- Node2 -->
<g id="node2" class="node">
<title>Node2</title>
<g id="a_node2"><a xlink:href="catch__approx_8h.html" target="_top" xlink:title=" ">
<polygon fill="white" stroke="black" points="275.16,-291.5 275.16,-310.5 366.16,-310.5 366.16,-291.5 275.16,-291.5"/>
<text text-anchor="middle" x="320.66" y="-298.5" font-family="Helvetica,sans-Serif" font-size="10.00">catch_approx.h</text>
</a>
</g>
</g>
<!-- Node1&#45;&gt;Node2 -->
<g id="edge1" class="edge">
<title>Node1&#45;&gt;Node2</title>
<path fill="none" stroke="midnightblue" d="M420.76,-347.5C397.46,-336.91 369.32,-324.12 348.81,-314.8"/>
<polygon fill="midnightblue" stroke="midnightblue" points="350.25,-311.6 339.7,-310.65 347.35,-317.98 350.25,-311.6"/>
</g>
<!-- Node18 -->
<g id="node18" class="node">
<title>Node18</title>
<g id="a_node18"><a xlink:href="catch__enforce_8h.html" target="_top" xlink:title=" ">
<polygon fill="white" stroke="black" points="433.66,-235.5 433.66,-254.5 527.66,-254.5 527.66,-235.5 433.66,-235.5"/>
<text text-anchor="middle" x="480.66" y="-242.5" font-family="Helvetica,sans-Serif" font-size="10.00">catch_enforce.h</text>
</a>
</g>
</g>
<!-- Node1&#45;&gt;Node18 -->
<g id="edge26" class="edge">
<title>Node1&#45;&gt;Node18</title>
<path fill="none" stroke="midnightblue" d="M458.79,-347.37C455.73,-331.86 453.14,-309.79 457.66,-291 459.97,-281.42 464.68,-271.58 469.24,-263.56"/>
<polygon fill="midnightblue" stroke="midnightblue" points="472.35,-265.17 474.56,-254.81 466.37,-261.54 472.35,-265.17"/>
</g>
<!-- Node20 -->
<g id="node20" class="node">
<title>Node20</title>
<g id="a_node20"><a xlink:title=" ">
<polygon fill="white" stroke="#bfbfbf" points="466.16,-291.5 466.16,-310.5 513.16,-310.5 513.16,-291.5 466.16,-291.5"/>
<text text-anchor="middle" x="489.66" y="-298.5" font-family="Helvetica,sans-Serif" font-size="10.00">cmath</text>
</a>
</g>
</g>
<!-- Node1&#45;&gt;Node20 -->
<g id="edge31" class="edge">
<title>Node1&#45;&gt;Node20</title>
<path fill="none" stroke="midnightblue" d="M471.46,-347.5C474.95,-338.78 479.04,-328.56 482.45,-320.02"/>
<polygon fill="midnightblue" stroke="midnightblue" points="485.74,-321.24 486.2,-310.65 479.24,-318.64 485.74,-321.24"/>
</g>
<!-- Node21 -->
<g id="node21" class="node">
<title>Node21</title>
<g id="a_node21"><a xlink:title=" ">
<polygon fill="white" stroke="#bfbfbf" points="531.66,-291.5 531.66,-310.5 575.66,-310.5 575.66,-291.5 531.66,-291.5"/>
<text text-anchor="middle" x="553.66" y="-298.5" font-family="Helvetica,sans-Serif" font-size="10.00">limits</text>
</a>
</g>
</g>
<!-- Node1&#45;&gt;Node21 -->
<g id="edge32" class="edge">
<title>Node1&#45;&gt;Node21</title>
<path fill="none" stroke="midnightblue" d="M490.66,-347.5C504.33,-337.63 520.65,-325.84 533.25,-316.74"/>
<polygon fill="midnightblue" stroke="midnightblue" points="535.62,-319.34 541.68,-310.65 531.53,-313.67 535.62,-319.34"/>
</g>
<!-- Node3 -->
<g id="node3" class="node">
<title>Node3</title>
<g id="a_node3"><a xlink:href="catch__tostring_8h.html" target="_top" xlink:title=" ">
<polygon fill="white" stroke="black" points="197.16,-235.5 197.16,-254.5 292.16,-254.5 292.16,-235.5 197.16,-235.5"/>
<text text-anchor="middle" x="244.66" y="-242.5" font-family="Helvetica,sans-Serif" font-size="10.00">catch_tostring.h</text>
</a>
</g>
</g>
<!-- Node2&#45;&gt;Node3 -->
<g id="edge2" class="edge">
<title>Node2&#45;&gt;Node3</title>
<path fill="none" stroke="midnightblue" d="M308.45,-291.32C296.89,-283.11 279.29,-270.6 265.5,-260.81"/>
<polygon fill="midnightblue" stroke="midnightblue" points="267.27,-257.77 257.09,-254.83 263.22,-263.48 267.27,-257.77"/>
</g>
<!-- Node6 -->
<g id="node6" class="node">
<title>Node6</title>
<g id="a_node6"><a xlink:title=" ">
<polygon fill="white" stroke="#bfbfbf" points="273.16,-174 273.16,-193 342.16,-193 342.16,-174 273.16,-174"/>
<text text-anchor="middle" x="307.66" y="-181" font-family="Helvetica,sans-Serif" font-size="10.00">type_traits</text>
</a>
</g>
</g>
<!-- Node2&#45;&gt;Node6 -->
<g id="edge25" class="edge">
<title>Node2&#45;&gt;Node6</title>
<path fill="none" stroke="midnightblue" d="M319.68,-291.32C317.6,-272.76 312.65,-228.84 309.8,-203.47"/>
<polygon fill="midnightblue" stroke="midnightblue" points="313.25,-202.83 308.65,-193.28 306.29,-203.61 313.25,-202.83"/>
</g>
<!-- Node4 -->
<g id="node4" class="node">
<title>Node4</title>
<g id="a_node4"><a xlink:title=" ">
<polygon fill="white" stroke="#bfbfbf" points="17.16,-112.5 17.16,-131.5 64.16,-131.5 64.16,-112.5 17.16,-112.5"/>
<text text-anchor="middle" x="40.66" y="-119.5" font-family="Helvetica,sans-Serif" font-size="10.00">vector</text>
</a>
</g>
</g>
<!-- Node3&#45;&gt;Node4 -->
<g id="edge3" class="edge">
<title>Node3&#45;&gt;Node4</title>
<path fill="none" stroke="midnightblue" d="M197.01,-241.64C160.69,-237.56 111.34,-226.83 77.66,-199 59.84,-184.28 49.94,-158.9 44.97,-141.56"/>
<polygon fill="midnightblue" stroke="midnightblue" points="48.26,-140.32 42.37,-131.51 41.48,-142.07 48.26,-140.32"/>
</g>
<!-- Node5 -->
<g id="node5" class="node">
<title>Node5</title>
<g id="a_node5"><a xlink:title=" ">
<polygon fill="white" stroke="#bfbfbf" points="66.16,-56.5 66.16,-75.5 119.16,-75.5 119.16,-56.5 66.16,-56.5"/>
<text text-anchor="middle" x="92.66" y="-63.5" font-family="Helvetica,sans-Serif" font-size="10.00">cstddef</text>
</a>
</g>
</g>
<!-- Node3&#45;&gt;Node5 -->
<g id="edge4" class="edge">
<title>Node3&#45;&gt;Node5</title>
<path fill="none" stroke="midnightblue" d="M196.95,-242.44C155.52,-238.97 95.61,-228.69 52.66,-199 16.85,-174.25 -14.79,-149.29 7.66,-112 18.27,-94.38 38.35,-83.3 56.33,-76.54"/>
<polygon fill="midnightblue" stroke="midnightblue" points="57.71,-79.77 66.03,-73.22 55.44,-73.15 57.71,-79.77"/>
</g>
<!-- Node3&#45;&gt;Node6 -->
<g id="edge5" class="edge">
<title>Node3&#45;&gt;Node6</title>
<path fill="none" stroke="midnightblue" d="M253.69,-235.48C263.42,-226.28 279.12,-211.46 291.08,-200.16"/>
<polygon fill="midnightblue" stroke="midnightblue" points="293.79,-202.42 298.65,-193.01 288.98,-197.33 293.79,-202.42"/>
</g>
<!-- Node7 -->
<g id="node7" class="node">
<title>Node7</title>
<g id="a_node7"><a xlink:title=" ">
<polygon fill="white" stroke="#bfbfbf" points="219.66,-56.5 219.66,-75.5 263.66,-75.5 263.66,-56.5 219.66,-56.5"/>
<text text-anchor="middle" x="241.66" y="-63.5" font-family="Helvetica,sans-Serif" font-size="10.00">string</text>
</a>
</g>
</g>
<!-- Node3&#45;&gt;Node7 -->
<g id="edge6" class="edge">
<title>Node3&#45;&gt;Node7</title>
<path fill="none" stroke="midnightblue" d="M244.52,-235.46C244.06,-208.43 242.63,-124.24 241.99,-86.11"/>
<polygon fill="midnightblue" stroke="midnightblue" points="245.48,-85.81 241.81,-75.87 238.48,-85.93 245.48,-85.81"/>
</g>
<!-- Node8 -->
<g id="node8" class="node">
<title>Node8</title>
<g id="a_node8"><a xlink:href="catch__compiler__capabilities_8h.html" target="_top" xlink:title=" ">
<polygon fill="white" stroke="black" points="461.16,-56.5 461.16,-75.5 622.16,-75.5 622.16,-56.5 461.16,-56.5"/>
<text text-anchor="middle" x="541.66" y="-63.5" font-family="Helvetica,sans-Serif" font-size="10.00">catch_compiler_capabilities.h</text>
</a>
</g>
</g>
<!-- Node3&#45;&gt;Node8 -->
<g id="edge7" class="edge">
<title>Node3&#45;&gt;Node8</title>
<path fill="none" stroke="midnightblue" d="M292.63,-238.57C348.03,-231.53 434.95,-217.87 461.66,-199 502.02,-170.48 525.75,-114.54 535.86,-85.49"/>
<polygon fill="midnightblue" stroke="midnightblue" points="539.26,-86.38 539.08,-75.79 532.61,-84.18 539.26,-86.38"/>
</g>
<!-- Node10 -->
<g id="node10" class="node">
<title>Node10</title>
<g id="a_node10"><a xlink:href="catch__stream_8h.html" target="_top" xlink:title=" ">
<polygon fill="white" stroke="black" points="360.66,-174 360.66,-193 452.66,-193 452.66,-174 360.66,-174"/>
<text text-anchor="middle" x="406.66" y="-181" font-family="Helvetica,sans-Serif" font-size="10.00">catch_stream.h</text>
</a>
</g>
</g>
<!-- Node3&#45;&gt;Node10 -->
<g id="edge9" class="edge">
<title>Node3&#45;&gt;Node10</title>
<path fill="none" stroke="midnightblue" d="M267.87,-235.48C295.66,-225.27 342.38,-208.11 373.86,-196.55"/>
<polygon fill="midnightblue" stroke="midnightblue" points="375.31,-199.74 383.49,-193.01 372.9,-193.17 375.31,-199.74"/>
</g>
<!-- Node15 -->
<g id="node15" class="node">
<title>Node15</title>
<g id="a_node15"><a xlink:href="catch__interfaces__enum__values__registry_8h.html" target="_top" xlink:title=" ">
<polygon fill="white" stroke="black" points="86.66,-168.5 86.66,-198.5 216.66,-198.5 216.66,-168.5 86.66,-168.5"/>
<text text-anchor="start" x="94.66" y="-186.5" font-family="Helvetica,sans-Serif" font-size="10.00">catch_interfaces_enum</text>
<text text-anchor="middle" x="151.66" y="-175.5" font-family="Helvetica,sans-Serif" font-size="10.00">_values_registry.h</text>
</a>
</g>
</g>
<!-- Node3&#45;&gt;Node15 -->
<g id="edge18" class="edge">
<title>Node3&#45;&gt;Node15</title>
<path fill="none" stroke="midnightblue" d="M231.34,-235.48C218.62,-227.34 199.01,-214.79 182.42,-204.18"/>
<polygon fill="midnightblue" stroke="midnightblue" points="183.89,-200.96 173.58,-198.52 180.12,-206.86 183.89,-200.96"/>
</g>
<!-- Node9 -->
<g id="node9" class="node">
<title>Node9</title>
<g id="a_node9"><a xlink:href="catch__platform_8h.html" target="_top" xlink:title=" ">
<polygon fill="white" stroke="black" points="492.16,-0.5 492.16,-19.5 591.16,-19.5 591.16,-0.5 492.16,-0.5"/>
<text text-anchor="middle" x="541.66" y="-7.5" font-family="Helvetica,sans-Serif" font-size="10.00">catch_platform.h</text>
</a>
</g>
</g>
<!-- Node8&#45;&gt;Node9 -->
<g id="edge8" class="edge">
<title>Node8&#45;&gt;Node9</title>
<path fill="none" stroke="midnightblue" d="M541.66,-56.08C541.66,-49.01 541.66,-38.86 541.66,-29.99"/>
<polygon fill="midnightblue" stroke="midnightblue" points="545.16,-29.75 541.66,-19.75 538.16,-29.75 545.16,-29.75"/>
</g>
<!-- Node10&#45;&gt;Node5 -->
<g id="edge16" class="edge">
<title>Node10&#45;&gt;Node5</title>
<path fill="none" stroke="midnightblue" d="M375.99,-173.94C367.8,-171.83 358.93,-169.69 350.66,-168 298.04,-157.25 152.11,-167.33 111.66,-132 98.54,-120.54 94.24,-100.56 92.95,-85.77"/>
<polygon fill="midnightblue" stroke="midnightblue" points="96.44,-85.51 92.45,-75.7 89.45,-85.86 96.44,-85.51"/>
</g>
<!-- Node11 -->
<g id="node11" class="node">
<title>Node11</title>
<g id="a_node11"><a xlink:href="catch__common_8h.html" target="_top" xlink:title=" ">
<polygon fill="white" stroke="black" points="390.66,-112.5 390.66,-131.5 490.66,-131.5 490.66,-112.5 390.66,-112.5"/>
<text text-anchor="middle" x="440.66" y="-119.5" font-family="Helvetica,sans-Serif" font-size="10.00">catch_common.h</text>
</a>
</g>
</g>
<!-- Node10&#45;&gt;Node11 -->
<g id="edge10" class="edge">
<title>Node10&#45;&gt;Node11</title>
<path fill="none" stroke="midnightblue" d="M411.53,-173.98C416.53,-165.23 424.45,-151.37 430.77,-140.31"/>
<polygon fill="midnightblue" stroke="midnightblue" points="433.88,-141.93 435.8,-131.51 427.8,-138.46 433.88,-141.93"/>
</g>
<!-- Node12 -->
<g id="node12" class="node">
<title>Node12</title>
<g id="a_node12"><a xlink:title=" ">
<polygon fill="white" stroke="#bfbfbf" points="281.66,-56.5 281.66,-75.5 329.66,-75.5 329.66,-56.5 281.66,-56.5"/>
<text text-anchor="middle" x="305.66" y="-63.5" font-family="Helvetica,sans-Serif" font-size="10.00">iosfwd</text>
</a>
</g>
</g>
<!-- Node10&#45;&gt;Node12 -->
<g id="edge15" class="edge">
<title>Node10&#45;&gt;Node12</title>
<path fill="none" stroke="midnightblue" d="M368.1,-173.93C345.69,-166.75 319.27,-154.01 305.66,-132 297.14,-118.21 298.18,-99.44 300.74,-85.61"/>
<polygon fill="midnightblue" stroke="midnightblue" points="304.17,-86.3 302.96,-75.77 297.34,-84.76 304.17,-86.3"/>
</g>
<!-- Node14 -->
<g id="node14" class="node">
<title>Node14</title>
<g id="a_node14"><a xlink:title=" ">
<polygon fill="white" stroke="#bfbfbf" points="315.16,-112.5 315.16,-131.5 372.16,-131.5 372.16,-112.5 315.16,-112.5"/>
<text text-anchor="middle" x="343.66" y="-119.5" font-family="Helvetica,sans-Serif" font-size="10.00">ostream</text>
</a>
</g>
</g>
<!-- Node10&#45;&gt;Node14 -->
<g id="edge17" class="edge">
<title>Node10&#45;&gt;Node14</title>
<path fill="none" stroke="midnightblue" d="M397.64,-173.98C387.9,-164.78 372.2,-149.96 360.24,-138.66"/>
<polygon fill="midnightblue" stroke="midnightblue" points="362.34,-135.83 352.67,-131.51 357.54,-140.92 362.34,-135.83"/>
</g>
<!-- Node11&#45;&gt;Node7 -->
<g id="edge13" class="edge">
<title>Node11&#45;&gt;Node7</title>
<path fill="none" stroke="midnightblue" d="M408.09,-112.49C376.19,-104.11 325.96,-90.78 273.76,-76.27"/>
<polygon fill="midnightblue" stroke="midnightblue" points="274.57,-72.86 264,-73.54 272.69,-79.6 274.57,-72.86"/>
</g>
<!-- Node11&#45;&gt;Node8 -->
<g id="edge11" class="edge">
<title>Node11&#45;&gt;Node8</title>
<path fill="none" stroke="midnightblue" d="M456.89,-112.32C473.01,-103.7 497.96,-90.36 516.63,-80.39"/>
<polygon fill="midnightblue" stroke="midnightblue" points="518.31,-83.46 525.47,-75.65 515.01,-77.28 518.31,-83.46"/>
</g>
<!-- Node11&#45;&gt;Node12 -->
<g id="edge12" class="edge">
<title>Node11&#45;&gt;Node12</title>
<path fill="none" stroke="midnightblue" d="M419.27,-112.44C396.95,-103.52 361.76,-89.44 336.45,-79.32"/>
<polygon fill="midnightblue" stroke="midnightblue" points="337.54,-75.98 326.95,-75.52 334.94,-82.48 337.54,-75.98"/>
</g>
<!-- Node13 -->
<g id="node13" class="node">
<title>Node13</title>
<g id="a_node13"><a xlink:title=" ">
<polygon fill="white" stroke="#bfbfbf" points="392.66,-56.5 392.66,-75.5 442.66,-75.5 442.66,-56.5 392.66,-56.5"/>
<text text-anchor="middle" x="417.66" y="-63.5" font-family="Helvetica,sans-Serif" font-size="10.00">cstdint</text>
</a>
</g>
</g>
<!-- Node11&#45;&gt;Node13 -->
<g id="edge14" class="edge">
<title>Node11&#45;&gt;Node13</title>
<path fill="none" stroke="midnightblue" d="M436.86,-112.08C433.75,-104.77 429.24,-94.18 425.37,-85.1"/>
<polygon fill="midnightblue" stroke="midnightblue" points="428.53,-83.58 421.39,-75.75 422.09,-86.32 428.53,-83.58"/>
</g>
<!-- Node15&#45;&gt;Node4 -->
<g id="edge24" class="edge">
<title>Node15&#45;&gt;Node4</title>
<path fill="none" stroke="midnightblue" d="M125.36,-168.4C107.4,-158.77 83.74,-146.09 65.99,-136.58"/>
<polygon fill="midnightblue" stroke="midnightblue" points="67.28,-133.3 56.81,-131.66 63.97,-139.47 67.28,-133.3"/>
</g>
<!-- Node16 -->
<g id="node16" class="node">
<title>Node16</title>
<g id="a_node16"><a xlink:href="catch__stringref_8h.html" target="_top" xlink:title=" ">
<polygon fill="white" stroke="black" points="120.66,-112.5 120.66,-131.5 218.66,-131.5 218.66,-112.5 120.66,-112.5"/>
<text text-anchor="middle" x="169.66" y="-119.5" font-family="Helvetica,sans-Serif" font-size="10.00">catch_stringref.h</text>
</a>
</g>
</g>
<!-- Node15&#45;&gt;Node16 -->
<g id="edge19" class="edge">
<title>Node15&#45;&gt;Node16</title>
<path fill="none" stroke="midnightblue" d="M155.93,-168.4C158.38,-160.29 161.49,-150.01 164.13,-141.28"/>
<polygon fill="midnightblue" stroke="midnightblue" points="167.5,-142.24 167.04,-131.66 160.8,-140.22 167.5,-142.24"/>
</g>
<!-- Node16&#45;&gt;Node5 -->
<g id="edge20" class="edge">
<title>Node16&#45;&gt;Node5</title>
<path fill="none" stroke="midnightblue" d="M157.29,-112.32C145.5,-104.06 127.53,-91.45 113.53,-81.63"/>
<polygon fill="midnightblue" stroke="midnightblue" points="115.2,-78.53 105,-75.65 111.18,-84.26 115.2,-78.53"/>
</g>
<!-- Node16&#45;&gt;Node7 -->
<g id="edge21" class="edge">
<title>Node16&#45;&gt;Node7</title>
<path fill="none" stroke="midnightblue" d="M181.23,-112.32C192.08,-104.18 208.54,-91.84 221.55,-82.09"/>
<polygon fill="midnightblue" stroke="midnightblue" points="223.98,-84.63 229.88,-75.83 219.78,-79.03 223.98,-84.63"/>
</g>
<!-- Node16&#45;&gt;Node12 -->
<g id="edge22" class="edge">
<title>Node16&#45;&gt;Node12</title>
<path fill="none" stroke="midnightblue" d="M191.21,-112.44C213.69,-103.52 249.15,-89.44 274.64,-79.32"/>
<polygon fill="midnightblue" stroke="midnightblue" points="276.21,-82.46 284.21,-75.52 273.63,-75.95 276.21,-82.46"/>
</g>
<!-- Node17 -->
<g id="node17" class="node">
<title>Node17</title>
<g id="a_node17"><a xlink:title=" ">
<polygon fill="white" stroke="#bfbfbf" points="143.66,-56.5 143.66,-75.5 195.66,-75.5 195.66,-56.5 143.66,-56.5"/>
<text text-anchor="middle" x="169.66" y="-63.5" font-family="Helvetica,sans-Serif" font-size="10.00">cassert</text>
</a>
</g>
</g>
<!-- Node16&#45;&gt;Node17 -->
<g id="edge23" class="edge">
<title>Node16&#45;&gt;Node17</title>
<path fill="none" stroke="midnightblue" d="M169.66,-112.08C169.66,-105.01 169.66,-94.86 169.66,-85.99"/>
<polygon fill="midnightblue" stroke="midnightblue" points="173.16,-85.75 169.66,-75.75 166.16,-85.75 173.16,-85.75"/>
</g>
<!-- Node18&#45;&gt;Node8 -->
<g id="edge28" class="edge">
<title>Node18&#45;&gt;Node8</title>
<path fill="none" stroke="midnightblue" d="M527.86,-242.59C559.97,-238.86 600.37,-228.15 621.66,-199 651.26,-158.48 594.75,-106.61 562.27,-81.67"/>
<polygon fill="midnightblue" stroke="midnightblue" points="564.32,-78.84 554.21,-75.66 560.13,-84.45 564.32,-78.84"/>
</g>
<!-- Node18&#45;&gt;Node10 -->
<g id="edge29" class="edge">
<title>Node18&#45;&gt;Node10</title>
<path fill="none" stroke="midnightblue" d="M470.06,-235.48C458.41,-226.11 439.48,-210.88 425.33,-199.51"/>
<polygon fill="midnightblue" stroke="midnightblue" points="427.23,-196.55 417.24,-193.01 422.84,-202 427.23,-196.55"/>
</g>
<!-- Node18&#45;&gt;Node11 -->
<g id="edge27" class="edge">
<title>Node18&#45;&gt;Node11</title>
<path fill="none" stroke="midnightblue" d="M479.07,-235.41C476.32,-221.16 470.12,-191.84 461.66,-168 458.38,-158.76 453.87,-148.84 449.87,-140.68"/>
<polygon fill="midnightblue" stroke="midnightblue" points="453,-139.1 445.36,-131.75 446.75,-142.26 453,-139.1"/>
</g>
<!-- Node19 -->
<g id="node19" class="node">
<title>Node19</title>
<g id="a_node19"><a xlink:title=" ">
<polygon fill="white" stroke="#bfbfbf" points="547.16,-174 547.16,-193 612.16,-193 612.16,-174 547.16,-174"/>
<text text-anchor="middle" x="579.66" y="-181" font-family="Helvetica,sans-Serif" font-size="10.00">exception</text>
</a>
</g>
</g>
<!-- Node18&#45;&gt;Node19 -->
<g id="edge30" class="edge">
<title>Node18&#45;&gt;Node19</title>
<path fill="none" stroke="midnightblue" d="M494.85,-235.48C511.02,-225.75 537.69,-209.73 556.81,-198.24"/>
<polygon fill="midnightblue" stroke="midnightblue" points="558.74,-201.16 565.5,-193.01 555.13,-195.16 558.74,-201.16"/>
</g>
</g>
</svg>
        <g id="navigator" transform="translate(0 0)" fill="#404254">
                <rect fill="#f2f5e9" fill-opacity="0.5" stroke="#606060" stroke-width=".5" x="0" y="0" width="60" height="60"/>
                <use id="zoomplus" xlink:href="#zoomPlus" x="17" y="9" onmousedown="handleZoom(evt,'in')"/>
                <use id="zoomminus" xlink:href="#zoomMin" x="42" y="9" onmousedown="handleZoom(evt,'out')"/>
                <use id="reset" xlink:href="#resetDef" x="30" y="36" onmousedown="handleReset()"/>
                <g id="arrowUp" xlink:href="#dirArrow" transform="translate(30 24)" onmousedown="handlePan(0,-1)">
                  <use xlink:href="#rim" fill="#404040">
                        <set attributeName="fill" to="#808080" begin="arrowUp.mouseover" end="arrowUp.mouseout"/>
                  </use>
                  <path fill="none" stroke="white" stroke-width="1.5" d="M0,-3.0v7 M-2.5,-0.5L0,-3.0L2.5,-0.5"/>
                </g>
                <g id="arrowRight" xlink:href="#dirArrow" transform="rotate(90) translate(36 -43)" onmousedown="handlePan(1,0)">
                  <use xlink:href="#rim" fill="#404040">
                        <set attributeName="fill" to="#808080" begin="arrowRight.mouseover" end="arrowRight.mouseout"/>
                  </use>
                  <path fill="none" stroke="white" stroke-width="1.5" d="M0,-3.0v7 M-2.5,-0.5L0,-3.0L2.5,-0.5"/>
                </g>
                <g id="arrowDown" xlink:href="#dirArrow" transform="rotate(180) translate(-30 -48)" onmousedown="handlePan(0,1)">
                  <use xlink:href="#rim" fill="#404040">
                        <set attributeName="fill" to="#808080" begin="arrowDown.mouseover" end="arrowDown.mouseout"/>
                  </use>
                  <path fill="none" stroke="white" stroke-width="1.5" d="M0,-3.0v7 M-2.5,-0.5L0,-3.0L2.5,-0.5"/>
                </g>
                <g id="arrowLeft" xlink:href="#dirArrow" transform="rotate(270) translate(-36 17)" onmousedown="handlePan(-1,0)">
                  <use xlink:href="#rim" fill="#404040">
                        <set attributeName="fill" to="#808080" begin="arrowLeft.mouseover" end="arrowLeft.mouseout"/>
                  </use>
                  <path fill="none" stroke="white" stroke-width="1.5" d="M0,-3.0v7 M-2.5,-0.5L0,-3.0L2.5,-0.5"/>
                </g>
        </g>
        <svg viewBox="0 0 15 15" width="100%" height="30px" preserveAspectRatio="xMaxYMin meet">
         <g id="arrow_out" transform="scale(0.3 0.3)">
          <a xlink:href="catch__approx_8cpp__incl_org.svg" target="_base">
           <rect id="button" ry="5" rx="5" y="6" x="6" height="38" width="38"
                fill="#f2f5e9" fill-opacity="0.5" stroke="#606060" stroke-width="1.0"/>
           <path id="arrow"
             d="M 11.500037,31.436501 C 11.940474,20.09759 22.043105,11.32322 32.158766,21.979434 L 37.068811,17.246167 C 37.068811,17.246167 37.088388,32 37.088388,32 L 22.160133,31.978069 C 22.160133,31.978069 26.997745,27.140456 26.997745,27.140456 C 18.528582,18.264221 13.291696,25.230495 11.500037,31.436501 z"
             style="fill:#404040;"/>
          </a>
         </g>
        </svg>
</svg>
