<?xml version="1.0" encoding="UTF-8" standalone="no"?>
<!DOCTYPE svg PUBLIC "-//W3C//DTD SVG 1.1//EN"
 "http://www.w3.org/Graphics/SVG/1.1/DTD/svg11.dtd">
<!-- Generated by graphviz version 2.43.0 (0)
 -->
<!-- Title: language/lib/Catch2/include/internal/catch_enum_values_registry.h Pages: 1 -->
<svg width="313pt" height="229pt"
 viewBox="0.00 0.00 312.50 229.00" xmlns="http://www.w3.org/2000/svg" xmlns:xlink="http://www.w3.org/1999/xlink">
<g id="graph0" class="graph" transform="scale(1 1) rotate(0) translate(4 225)">
<title>language/lib/Catch2/include/internal/catch_enum_values_registry.h</title>
<polygon fill="white" stroke="transparent" points="-4,4 -4,-225 308.5,-225 308.5,4 -4,4"/>
<!-- Node1 -->
<g id="node1" class="node">
<title>Node1</title>
<g id="a_node1"><a xlink:title=" ">
<polygon fill="#bfbfbf" stroke="black" points="150,-179.5 150,-220.5 287,-220.5 287,-179.5 150,-179.5"/>
<text text-anchor="start" x="158" y="-208.5" font-family="Helvetica,sans-Serif" font-size="10.00">language/lib/Catch2</text>
<text text-anchor="start" x="158" y="-197.5" font-family="Helvetica,sans-Serif" font-size="10.00">/include/internal/catch</text>
<text text-anchor="middle" x="218.5" y="-186.5" font-family="Helvetica,sans-Serif" font-size="10.00">_enum_values_registry.h</text>
</a>
</g>
</g>
<!-- Node2 -->
<g id="node2" class="node">
<title>Node2</title>
<g id="a_node2"><a xlink:href="catch__interfaces__enum__values__registry_8h.html" target="_top" xlink:title=" ">
<polygon fill="white" stroke="black" points="60.5,-112.5 60.5,-142.5 190.5,-142.5 190.5,-112.5 60.5,-112.5"/>
<text text-anchor="start" x="68.5" y="-130.5" font-family="Helvetica,sans-Serif" font-size="10.00">catch_interfaces_enum</text>
<text text-anchor="middle" x="125.5" y="-119.5" font-family="Helvetica,sans-Serif" font-size="10.00">_values_registry.h</text>
</a>
</g>
</g>
<!-- Node1&#45;&gt;Node2 -->
<g id="edge1" class="edge">
<title>Node1&#45;&gt;Node2</title>
<path fill="none" stroke="midnightblue" d="M192.59,-179.36C180.11,-169.89 165.13,-158.54 152.5,-148.97"/>
<polygon fill="midnightblue" stroke="midnightblue" points="154.28,-145.92 144.19,-142.67 150.05,-151.5 154.28,-145.92"/>
</g>
<!-- Node8 -->
<g id="node8" class="node">
<title>Node8</title>
<g id="a_node8"><a xlink:title=" ">
<polygon fill="white" stroke="#bfbfbf" points="194,-56.5 194,-75.5 241,-75.5 241,-56.5 194,-56.5"/>
<text text-anchor="middle" x="217.5" y="-63.5" font-family="Helvetica,sans-Serif" font-size="10.00">vector</text>
</a>
</g>
</g>
<!-- Node1&#45;&gt;Node8 -->
<g id="edge8" class="edge">
<title>Node1&#45;&gt;Node8</title>
<path fill="none" stroke="midnightblue" d="M218.35,-179.24C218.16,-154.03 217.83,-110.74 217.64,-85.93"/>
<polygon fill="midnightblue" stroke="midnightblue" points="221.14,-85.66 217.57,-75.69 214.14,-85.71 221.14,-85.66"/>
</g>
<!-- Node9 -->
<g id="node9" class="node">
<title>Node9</title>
<g id="a_node9"><a xlink:title=" ">
<polygon fill="white" stroke="#bfbfbf" points="246.5,-118 246.5,-137 304.5,-137 304.5,-118 246.5,-118"/>
<text text-anchor="middle" x="275.5" y="-125" font-family="Helvetica,sans-Serif" font-size="10.00">memory</text>
</a>
</g>
</g>
<!-- Node1&#45;&gt;Node9 -->
<g id="edge9" class="edge">
<title>Node1&#45;&gt;Node9</title>
<path fill="none" stroke="midnightblue" d="M234.38,-179.36C243.13,-168.54 253.87,-155.26 262.18,-144.98"/>
<polygon fill="midnightblue" stroke="midnightblue" points="264.92,-147.15 268.49,-137.17 259.48,-142.75 264.92,-147.15"/>
</g>
<!-- Node3 -->
<g id="node3" class="node">
<title>Node3</title>
<g id="a_node3"><a xlink:href="catch__stringref_8h.html" target="_top" xlink:title=" ">
<polygon fill="white" stroke="black" points="76.5,-56.5 76.5,-75.5 174.5,-75.5 174.5,-56.5 76.5,-56.5"/>
<text text-anchor="middle" x="125.5" y="-63.5" font-family="Helvetica,sans-Serif" font-size="10.00">catch_stringref.h</text>
</a>
</g>
</g>
<!-- Node2&#45;&gt;Node3 -->
<g id="edge2" class="edge">
<title>Node2&#45;&gt;Node3</title>
<path fill="none" stroke="midnightblue" d="M125.5,-112.4C125.5,-104.47 125.5,-94.46 125.5,-85.86"/>
<polygon fill="midnightblue" stroke="midnightblue" points="129,-85.66 125.5,-75.66 122,-85.66 129,-85.66"/>
</g>
<!-- Node2&#45;&gt;Node8 -->
<g id="edge7" class="edge">
<title>Node2&#45;&gt;Node8</title>
<path fill="none" stroke="midnightblue" d="M147.3,-112.4C161.91,-102.95 181.07,-90.56 195.68,-81.11"/>
<polygon fill="midnightblue" stroke="midnightblue" points="197.62,-84.03 204.11,-75.66 193.82,-78.15 197.62,-84.03"/>
</g>
<!-- Node4 -->
<g id="node4" class="node">
<title>Node4</title>
<g id="a_node4"><a xlink:title=" ">
<polygon fill="white" stroke="#bfbfbf" points="0,-0.5 0,-19.5 53,-19.5 53,-0.5 0,-0.5"/>
<text text-anchor="middle" x="26.5" y="-7.5" font-family="Helvetica,sans-Serif" font-size="10.00">cstddef</text>
</a>
</g>
</g>
<!-- Node3&#45;&gt;Node4 -->
<g id="edge3" class="edge">
<title>Node3&#45;&gt;Node4</title>
<path fill="none" stroke="midnightblue" d="M109.59,-56.32C93.86,-47.74 69.56,-34.49 51.29,-24.52"/>
<polygon fill="midnightblue" stroke="midnightblue" points="52.82,-21.37 42.37,-19.65 49.47,-27.52 52.82,-21.37"/>
</g>
<!-- Node5 -->
<g id="node5" class="node">
<title>Node5</title>
<g id="a_node5"><a xlink:title=" ">
<polygon fill="white" stroke="#bfbfbf" points="71.5,-0.5 71.5,-19.5 115.5,-19.5 115.5,-0.5 71.5,-0.5"/>
<text text-anchor="middle" x="93.5" y="-7.5" font-family="Helvetica,sans-Serif" font-size="10.00">string</text>
</a>
</g>
</g>
<!-- Node3&#45;&gt;Node5 -->
<g id="edge4" class="edge">
<title>Node3&#45;&gt;Node5</title>
<path fill="none" stroke="midnightblue" d="M120.22,-56.08C115.79,-48.61 109.34,-37.72 103.88,-28.52"/>
<polygon fill="midnightblue" stroke="midnightblue" points="106.79,-26.57 98.69,-19.75 100.77,-30.14 106.79,-26.57"/>
</g>
<!-- Node6 -->
<g id="node6" class="node">
<title>Node6</title>
<g id="a_node6"><a xlink:title=" ">
<polygon fill="white" stroke="#bfbfbf" points="133.5,-0.5 133.5,-19.5 181.5,-19.5 181.5,-0.5 133.5,-0.5"/>
<text text-anchor="middle" x="157.5" y="-7.5" font-family="Helvetica,sans-Serif" font-size="10.00">iosfwd</text>
</a>
</g>
</g>
<!-- Node3&#45;&gt;Node6 -->
<g id="edge5" class="edge">
<title>Node3&#45;&gt;Node6</title>
<path fill="none" stroke="midnightblue" d="M130.78,-56.08C135.21,-48.61 141.66,-37.72 147.12,-28.52"/>
<polygon fill="midnightblue" stroke="midnightblue" points="150.23,-30.14 152.31,-19.75 144.21,-26.57 150.23,-30.14"/>
</g>
<!-- Node7 -->
<g id="node7" class="node">
<title>Node7</title>
<g id="a_node7"><a xlink:title=" ">
<polygon fill="white" stroke="#bfbfbf" points="199.5,-0.5 199.5,-19.5 251.5,-19.5 251.5,-0.5 199.5,-0.5"/>
<text text-anchor="middle" x="225.5" y="-7.5" font-family="Helvetica,sans-Serif" font-size="10.00">cassert</text>
</a>
</g>
</g>
<!-- Node3&#45;&gt;Node7 -->
<g id="edge6" class="edge">
<title>Node3&#45;&gt;Node7</title>
<path fill="none" stroke="midnightblue" d="M141.57,-56.32C157.46,-47.74 182.01,-34.49 200.46,-24.52"/>
<polygon fill="midnightblue" stroke="midnightblue" points="202.34,-27.49 209.47,-19.65 199.01,-21.33 202.34,-27.49"/>
</g>
</g>
</svg>
