<?xml version="1.0" encoding="UTF-8" standalone="no"?>
<!DOCTYPE svg PUBLIC "-//W3C//DTD SVG 1.1//EN"
 "http://www.w3.org/Graphics/SVG/1.1/DTD/svg11.dtd">
<!-- Generated by graphviz version 2.43.0 (0)
 -->
<!-- Title: language/lib/Catch2/include/internal/catch_exception_translator_registry.h Pages: 1 -->
<svg width="336pt" height="206pt"
 viewBox="0.00 0.00 335.50 206.00" xmlns="http://www.w3.org/2000/svg" xmlns:xlink="http://www.w3.org/1999/xlink">
<g id="graph0" class="graph" transform="scale(1 1) rotate(0) translate(4 202)">
<title>language/lib/Catch2/include/internal/catch_exception_translator_registry.h</title>
<polygon fill="white" stroke="transparent" points="-4,4 -4,-202 331.5,-202 331.5,4 -4,4"/>
<!-- Node1 -->
<g id="node1" class="node">
<title>Node1</title>
<g id="a_node1"><a xlink:title=" ">
<polygon fill="#bfbfbf" stroke="black" points="91.5,-156.5 91.5,-197.5 264.5,-197.5 264.5,-156.5 91.5,-156.5"/>
<text text-anchor="start" x="99.5" y="-185.5" font-family="Helvetica,sans-Serif" font-size="10.00">language/lib/Catch2</text>
<text text-anchor="start" x="99.5" y="-174.5" font-family="Helvetica,sans-Serif" font-size="10.00">/include/internal/catch</text>
<text text-anchor="middle" x="178" y="-163.5" font-family="Helvetica,sans-Serif" font-size="10.00">_exception_translator_registry.h</text>
</a>
</g>
</g>
<!-- Node2 -->
<g id="node2" class="node">
<title>Node2</title>
<g id="a_node2"><a xlink:href="catch__exception__translator__registry_8cpp.html" target="_top" xlink:title=" ">
<polygon fill="white" stroke="black" points="0,-78.5 0,-119.5 184,-119.5 184,-78.5 0,-78.5"/>
<text text-anchor="start" x="8" y="-107.5" font-family="Helvetica,sans-Serif" font-size="10.00">language/lib/Catch2</text>
<text text-anchor="start" x="8" y="-96.5" font-family="Helvetica,sans-Serif" font-size="10.00">/include/internal/catch</text>
<text text-anchor="middle" x="92" y="-85.5" font-family="Helvetica,sans-Serif" font-size="10.00">_exception_translator_registry.cpp</text>
</a>
</g>
</g>
<!-- Node1&#45;&gt;Node2 -->
<g id="edge1" class="edge">
<title>Node1&#45;&gt;Node2</title>
<path fill="none" stroke="midnightblue" d="M148.33,-149.78C137.09,-139.84 124.49,-128.72 114.07,-119.51"/>
<polygon fill="midnightblue" stroke="midnightblue" points="146.04,-152.43 155.85,-156.43 150.68,-147.18 146.04,-152.43"/>
</g>
<!-- Node4 -->
<g id="node4" class="node">
<title>Node4</title>
<g id="a_node4"><a xlink:href="catch__registry__hub_8cpp.html" target="_top" xlink:title=" ">
<polygon fill="white" stroke="black" points="202.5,-78.5 202.5,-119.5 327.5,-119.5 327.5,-78.5 202.5,-78.5"/>
<text text-anchor="start" x="210.5" y="-107.5" font-family="Helvetica,sans-Serif" font-size="10.00">language/lib/Catch2</text>
<text text-anchor="start" x="210.5" y="-96.5" font-family="Helvetica,sans-Serif" font-size="10.00">/include/internal/catch</text>
<text text-anchor="middle" x="265" y="-85.5" font-family="Helvetica,sans-Serif" font-size="10.00">_registry_hub.cpp</text>
</a>
</g>
</g>
<!-- Node1&#45;&gt;Node4 -->
<g id="edge3" class="edge">
<title>Node1&#45;&gt;Node4</title>
<path fill="none" stroke="midnightblue" d="M208.02,-149.78C219.39,-139.84 232.13,-128.72 242.67,-119.51"/>
<polygon fill="midnightblue" stroke="midnightblue" points="205.63,-147.21 200.4,-156.43 210.24,-152.49 205.63,-147.21"/>
</g>
<!-- Node3 -->
<g id="node3" class="node">
<title>Node3</title>
<g id="a_node3"><a xlink:href="catch__objc__impl_8mm.html" target="_top" xlink:title=" ">
<polygon fill="white" stroke="black" points="113.5,-0.5 113.5,-41.5 242.5,-41.5 242.5,-0.5 113.5,-0.5"/>
<text text-anchor="start" x="121.5" y="-29.5" font-family="Helvetica,sans-Serif" font-size="10.00">language/lib/Catch2</text>
<text text-anchor="start" x="121.5" y="-18.5" font-family="Helvetica,sans-Serif" font-size="10.00">/projects/XCode/OCTest</text>
<text text-anchor="middle" x="178" y="-7.5" font-family="Helvetica,sans-Serif" font-size="10.00">/catch_objc_impl.mm</text>
</a>
</g>
</g>
<!-- Node2&#45;&gt;Node3 -->
<g id="edge2" class="edge">
<title>Node2&#45;&gt;Node3</title>
<path fill="none" stroke="midnightblue" d="M121.67,-71.78C132.91,-61.84 145.51,-50.72 155.93,-41.51"/>
<polygon fill="midnightblue" stroke="midnightblue" points="119.32,-69.18 114.15,-78.43 123.96,-74.43 119.32,-69.18"/>
</g>
<!-- Node4&#45;&gt;Node3 -->
<g id="edge4" class="edge">
<title>Node4&#45;&gt;Node3</title>
<path fill="none" stroke="midnightblue" d="M234.98,-71.78C223.61,-61.84 210.87,-50.72 200.33,-41.51"/>
<polygon fill="midnightblue" stroke="midnightblue" points="232.76,-74.49 242.6,-78.43 237.37,-69.21 232.76,-74.49"/>
</g>
</g>
</svg>
