<?xml version="1.0" encoding="UTF-8" standalone="no"?>
<!DOCTYPE svg PUBLIC "-//W3C//DTD SVG 1.1//EN"
 "http://www.w3.org/Graphics/SVG/1.1/DTD/svg11.dtd">
<!-- Generated by graphviz version 2.43.0 (0)
 -->
<!-- Title: language/lib/Catch2/include/internal/benchmark/detail/catch_benchmark_function.hpp Pages: 1 -->
<svg width="269pt" height="284pt"
 viewBox="0.00 0.00 269.00 284.00" xmlns="http://www.w3.org/2000/svg" xmlns:xlink="http://www.w3.org/1999/xlink">
<g id="graph0" class="graph" transform="scale(1 1) rotate(0) translate(4 280)">
<title>language/lib/Catch2/include/internal/benchmark/detail/catch_benchmark_function.hpp</title>
<polygon fill="white" stroke="transparent" points="-4,4 -4,-280 265,-280 265,4 -4,4"/>
<!-- Node1 -->
<g id="node1" class="node">
<title>Node1</title>
<g id="a_node1"><a xlink:title=" ">
<polygon fill="#bfbfbf" stroke="black" points="46,-234.5 46,-275.5 249,-275.5 249,-234.5 46,-234.5"/>
<text text-anchor="start" x="54" y="-263.5" font-family="Helvetica,sans-Serif" font-size="10.00">language/lib/Catch2</text>
<text text-anchor="start" x="54" y="-252.5" font-family="Helvetica,sans-Serif" font-size="10.00">/include/internal/benchmark</text>
<text text-anchor="middle" x="147.5" y="-241.5" font-family="Helvetica,sans-Serif" font-size="10.00">/detail/catch_benchmark_function.hpp</text>
</a>
</g>
</g>
<!-- Node2 -->
<g id="node2" class="node">
<title>Node2</title>
<g id="a_node2"><a xlink:href="catch__execution__plan_8hpp.html" target="_top" xlink:title=" ">
<polygon fill="white" stroke="black" points="71,-156.5 71,-197.5 224,-197.5 224,-156.5 71,-156.5"/>
<text text-anchor="start" x="79" y="-185.5" font-family="Helvetica,sans-Serif" font-size="10.00">language/lib/Catch2</text>
<text text-anchor="start" x="79" y="-174.5" font-family="Helvetica,sans-Serif" font-size="10.00">/include/internal/benchmark</text>
<text text-anchor="middle" x="147.5" y="-163.5" font-family="Helvetica,sans-Serif" font-size="10.00">/catch_execution_plan.hpp</text>
</a>
</g>
</g>
<!-- Node1&#45;&gt;Node2 -->
<g id="edge1" class="edge">
<title>Node1&#45;&gt;Node2</title>
<path fill="none" stroke="midnightblue" d="M147.5,-224.3C147.5,-215.3 147.5,-205.65 147.5,-197.51"/>
<polygon fill="midnightblue" stroke="midnightblue" points="144,-224.43 147.5,-234.43 151,-224.43 144,-224.43"/>
</g>
<!-- Node3 -->
<g id="node3" class="node">
<title>Node3</title>
<g id="a_node3"><a xlink:href="catch__benchmark_8hpp.html" target="_top" xlink:title=" ">
<polygon fill="white" stroke="black" points="0,-78.5 0,-119.5 153,-119.5 153,-78.5 0,-78.5"/>
<text text-anchor="start" x="8" y="-107.5" font-family="Helvetica,sans-Serif" font-size="10.00">language/lib/Catch2</text>
<text text-anchor="start" x="8" y="-96.5" font-family="Helvetica,sans-Serif" font-size="10.00">/include/internal/benchmark</text>
<text text-anchor="middle" x="76.5" y="-85.5" font-family="Helvetica,sans-Serif" font-size="10.00">/catch_benchmark.hpp</text>
</a>
</g>
</g>
<!-- Node1&#45;&gt;Node3 -->
<g id="edge5" class="edge">
<title>Node1&#45;&gt;Node3</title>
<path fill="none" stroke="midnightblue" d="M91.29,-228.9C79.37,-220.82 68.33,-210.6 61.5,-198 48.13,-173.34 57.87,-140.35 66.71,-119.64"/>
<polygon fill="midnightblue" stroke="midnightblue" points="89.74,-232.06 100.08,-234.41 93.46,-226.13 89.74,-232.06"/>
</g>
<!-- Node4 -->
<g id="node4" class="node">
<title>Node4</title>
<g id="a_node4"><a xlink:href="catch__benchmarking__all_8hpp.html" target="_top" xlink:title=" ">
<polygon fill="white" stroke="black" points="102,-0.5 102,-41.5 261,-41.5 261,-0.5 102,-0.5"/>
<text text-anchor="start" x="110" y="-29.5" font-family="Helvetica,sans-Serif" font-size="10.00">language/lib/Catch2</text>
<text text-anchor="start" x="110" y="-18.5" font-family="Helvetica,sans-Serif" font-size="10.00">/include/internal/benchmark</text>
<text text-anchor="middle" x="181.5" y="-7.5" font-family="Helvetica,sans-Serif" font-size="10.00">/catch_benchmarking_all.hpp</text>
</a>
</g>
</g>
<!-- Node1&#45;&gt;Node4 -->
<g id="edge6" class="edge">
<title>Node1&#45;&gt;Node4</title>
<path fill="none" stroke="midnightblue" d="M203.71,-228.9C215.63,-220.82 226.67,-210.6 233.5,-198 262.05,-145.34 220.62,-75.11 196.6,-41.51"/>
<polygon fill="midnightblue" stroke="midnightblue" points="201.54,-226.13 194.92,-234.41 205.26,-232.06 201.54,-226.13"/>
</g>
<!-- Node2&#45;&gt;Node3 -->
<g id="edge2" class="edge">
<title>Node2&#45;&gt;Node3</title>
<path fill="none" stroke="midnightblue" d="M122.2,-148.92C113.12,-139.2 103.08,-128.45 94.72,-119.51"/>
<polygon fill="midnightblue" stroke="midnightblue" points="119.83,-151.51 129.22,-156.43 124.95,-146.73 119.83,-151.51"/>
</g>
<!-- Node2&#45;&gt;Node4 -->
<g id="edge4" class="edge">
<title>Node2&#45;&gt;Node4</title>
<path fill="none" stroke="midnightblue" d="M155.14,-146.46C157.28,-137.94 159.54,-128.62 161.5,-120 167.65,-92.91 173.92,-61.4 177.77,-41.58"/>
<polygon fill="midnightblue" stroke="midnightblue" points="151.7,-145.8 152.63,-156.35 158.48,-147.52 151.7,-145.8"/>
</g>
<!-- Node3&#45;&gt;Node4 -->
<g id="edge3" class="edge">
<title>Node3&#45;&gt;Node4</title>
<path fill="none" stroke="midnightblue" d="M111.94,-72.35C125.86,-62.27 141.58,-50.89 154.55,-41.51"/>
<polygon fill="midnightblue" stroke="midnightblue" points="109.59,-69.73 103.54,-78.43 113.69,-75.4 109.59,-69.73"/>
</g>
</g>
</svg>
