<?xml version="1.0" encoding="UTF-8" standalone="no"?>
<!DOCTYPE svg PUBLIC "-//W3C//DTD SVG 1.1//EN"
 "http://www.w3.org/Graphics/SVG/1.1/DTD/svg11.dtd">
<!-- Generated by graphviz version 2.43.0 (0)
 -->
<!-- Title: language/lib/Catch2/include/internal/catch_singletons.cpp Pages: 1 -->
<svg width="192pt" height="106pt"
 viewBox="0.00 0.00 192.00 106.00" xmlns="http://www.w3.org/2000/svg" xmlns:xlink="http://www.w3.org/1999/xlink">
<g id="graph0" class="graph" transform="scale(1 1) rotate(0) translate(4 102)">
<title>language/lib/Catch2/include/internal/catch_singletons.cpp</title>
<polygon fill="white" stroke="transparent" points="-4,4 -4,-102 188,-102 188,4 -4,4"/>
<!-- Node1 -->
<g id="node1" class="node">
<title>Node1</title>
<g id="a_node1"><a xlink:title=" ">
<polygon fill="#bfbfbf" stroke="black" points="47,-56.5 47,-97.5 172,-97.5 172,-56.5 47,-56.5"/>
<text text-anchor="start" x="55" y="-85.5" font-family="Helvetica,sans-Serif" font-size="10.00">language/lib/Catch2</text>
<text text-anchor="start" x="55" y="-74.5" font-family="Helvetica,sans-Serif" font-size="10.00">/include/internal/catch</text>
<text text-anchor="middle" x="109.5" y="-63.5" font-family="Helvetica,sans-Serif" font-size="10.00">_singletons.cpp</text>
</a>
</g>
</g>
<!-- Node2 -->
<g id="node2" class="node">
<title>Node2</title>
<g id="a_node2"><a xlink:href="catch__singletons_8hpp.html" target="_top" xlink:title=" ">
<polygon fill="white" stroke="black" points="0,-0.5 0,-19.5 119,-19.5 119,-0.5 0,-0.5"/>
<text text-anchor="middle" x="59.5" y="-7.5" font-family="Helvetica,sans-Serif" font-size="10.00">catch_singletons.hpp</text>
</a>
</g>
</g>
<!-- Node1&#45;&gt;Node2 -->
<g id="edge1" class="edge">
<title>Node1&#45;&gt;Node2</title>
<path fill="none" stroke="midnightblue" d="M94.5,-56.5C87.42,-47.3 79.07,-36.44 72.29,-27.63"/>
<polygon fill="midnightblue" stroke="midnightblue" points="75.03,-25.44 66.16,-19.65 69.48,-29.71 75.03,-25.44"/>
</g>
<!-- Node3 -->
<g id="node3" class="node">
<title>Node3</title>
<g id="a_node3"><a xlink:title=" ">
<polygon fill="white" stroke="#bfbfbf" points="137,-0.5 137,-19.5 184,-19.5 184,-0.5 137,-0.5"/>
<text text-anchor="middle" x="160.5" y="-7.5" font-family="Helvetica,sans-Serif" font-size="10.00">vector</text>
</a>
</g>
</g>
<!-- Node1&#45;&gt;Node3 -->
<g id="edge2" class="edge">
<title>Node1&#45;&gt;Node3</title>
<path fill="none" stroke="midnightblue" d="M124.8,-56.5C132.02,-47.3 140.54,-36.44 147.45,-27.63"/>
<polygon fill="midnightblue" stroke="midnightblue" points="150.29,-29.68 153.71,-19.65 144.78,-25.36 150.29,-29.68"/>
</g>
</g>
</svg>
