<?xml version="1.0" encoding="UTF-8" standalone="no"?>
<!DOCTYPE svg PUBLIC "-//W3C//DTD SVG 1.1//EN"
 "http://www.w3.org/Graphics/SVG/1.1/DTD/svg11.dtd">
<!-- Generated by graphviz version 2.43.0 (0)
 -->
<!-- Title: language/lib/Catch2/include/internal/catch_tostring.cpp Pages: 1 -->
<!--zoomable 341 -->
<svg id="main" version="1.1" xmlns="http://www.w3.org/2000/svg" xmlns:xlink="http://www.w3.org/1999/xlink" xml:space="preserve" onload="init(evt)">
<style type="text/css"><![CDATA[
.edge:hover path { stroke: red; }
.edge:hover polygon { stroke: red; fill: red; }
]]></style>
<script type="text/javascript"><![CDATA[
var edges = document.getElementsByTagName('g');
if (edges && edges.length) {
  for (var i=0;i<edges.length;i++) {
    if (edges[i].id.substr(0,4)=='edge') {
      edges[i].setAttribute('class','edge');
    }
  }
}
]]></script>
        <defs>
                <circle id="rim" cx="0" cy="0" r="7"/>
                <circle id="rim2" cx="0" cy="0" r="3.5"/>
                <g id="zoomPlus">
                        <use xlink:href="#rim" fill="#404040">
                                <set attributeName="fill" to="#808080" begin="zoomplus.mouseover" end="zoomplus.mouseout"/>
                        </use>
                        <path d="M-4,0h8M0,-4v8" fill="none" stroke="white" stroke-width="1.5" pointer-events="none"/>
                </g>
                <g id="zoomMin">
                        <use xlink:href="#rim" fill="#404040">
                                <set attributeName="fill" to="#808080" begin="zoomminus.mouseover" end="zoomminus.mouseout"/>
                        </use>
                        <path d="M-4,0h8" fill="none" stroke="white" stroke-width="1.5" pointer-events="none"/>
                </g>
                <g id="dirArrow">
                        <path fill="none" stroke="white" stroke-width="1.5" d="M0,-3.0v7 M-2.5,-0.5L0,-3.0L2.5,-0.5"/>
                </g>
               <g id="resetDef">
                       <use xlink:href="#rim2" fill="#404040">
                               <set attributeName="fill" to="#808080" begin="reset.mouseover" end="reset.mouseout"/>
                       </use>
               </g>
        </defs>

<script type="text/javascript">
var viewWidth = 980;
var viewHeight = 341;
var sectionId = 'dynsection-0';
</script>
<script xlink:href="svgpan.js"/>
<svg id="graph" class="graph">
<g id="viewport">
<title>language/lib/Catch2/include/internal/catch_tostring.cpp</title>
<polygon fill="white" stroke="transparent" points="-4,4 -4,-337 975.5,-337 975.5,4 -4,4"/>
<!-- Node1 -->
<g id="node1" class="node">
<title>Node1</title>
<g id="a_node1"><a xlink:title=" ">
<polygon fill="#bfbfbf" stroke="black" points="656,-291.5 656,-332.5 781,-332.5 781,-291.5 656,-291.5"/>
<text text-anchor="start" x="664" y="-320.5" font-family="Helvetica,sans-Serif" font-size="10.00">language/lib/Catch2</text>
<text text-anchor="start" x="664" y="-309.5" font-family="Helvetica,sans-Serif" font-size="10.00">/include/internal/catch</text>
<text text-anchor="middle" x="718.5" y="-298.5" font-family="Helvetica,sans-Serif" font-size="10.00">_tostring.cpp</text>
</a>
</g>
</g>
<!-- Node2 -->
<g id="node2" class="node">
<title>Node2</title>
<g id="a_node2"><a xlink:href="catch__tostring_8h.html" target="_top" xlink:title=" ">
<polygon fill="white" stroke="black" points="332,-235.5 332,-254.5 427,-254.5 427,-235.5 332,-235.5"/>
<text text-anchor="middle" x="379.5" y="-242.5" font-family="Helvetica,sans-Serif" font-size="10.00">catch_tostring.h</text>
</a>
</g>
</g>
<!-- Node1&#45;&gt;Node2 -->
<g id="edge1" class="edge">
<title>Node1&#45;&gt;Node2</title>
<path fill="none" stroke="midnightblue" d="M655.93,-299C592.27,-286.8 494.6,-268.07 434.01,-256.45"/>
<polygon fill="midnightblue" stroke="midnightblue" points="434.36,-252.96 423.88,-254.51 433.05,-259.83 434.36,-252.96"/>
</g>
<!-- Node17 -->
<g id="node17" class="node">
<title>Node17</title>
<g id="a_node17"><a xlink:href="catch__interfaces__config_8h.html" target="_top" xlink:title=" ">
<polygon fill="white" stroke="black" points="514.5,-174 514.5,-193 654.5,-193 654.5,-174 514.5,-174"/>
<text text-anchor="middle" x="584.5" y="-181" font-family="Helvetica,sans-Serif" font-size="10.00">catch_interfaces_config.h</text>
</a>
</g>
</g>
<!-- Node1&#45;&gt;Node17 -->
<g id="edge24" class="edge">
<title>Node1&#45;&gt;Node17</title>
<path fill="none" stroke="midnightblue" d="M655.8,-291.98C636.64,-283.42 617.08,-271.44 603.5,-255 591.53,-240.51 587.05,-219.17 585.4,-203.76"/>
<polygon fill="midnightblue" stroke="midnightblue" points="588.86,-203.06 584.62,-193.35 581.88,-203.59 588.86,-203.06"/>
</g>
<!-- Node21 -->
<g id="node21" class="node">
<title>Node21</title>
<g id="a_node21"><a xlink:href="catch__context_8h.html" target="_top" xlink:title=" ">
<polygon fill="white" stroke="black" points="612.5,-235.5 612.5,-254.5 706.5,-254.5 706.5,-235.5 612.5,-235.5"/>
<text text-anchor="middle" x="659.5" y="-242.5" font-family="Helvetica,sans-Serif" font-size="10.00">catch_context.h</text>
</a>
</g>
</g>
<!-- Node1&#45;&gt;Node21 -->
<g id="edge32" class="edge">
<title>Node1&#45;&gt;Node21</title>
<path fill="none" stroke="midnightblue" d="M700.8,-291.5C692.27,-282.11 682.18,-270.98 674.1,-262.08"/>
<polygon fill="midnightblue" stroke="midnightblue" points="676.67,-259.7 667.35,-254.65 671.48,-264.41 676.67,-259.7"/>
</g>
<!-- Node22 -->
<g id="node22" class="node">
<title>Node22</title>
<g id="a_node22"><a xlink:href="catch__polyfills_8hpp.html" target="_top" xlink:title=" ">
<polygon fill="white" stroke="black" points="725,-235.5 725,-254.5 832,-254.5 832,-235.5 725,-235.5"/>
<text text-anchor="middle" x="778.5" y="-242.5" font-family="Helvetica,sans-Serif" font-size="10.00">catch_polyfills.hpp</text>
</a>
</g>
</g>
<!-- Node1&#45;&gt;Node22 -->
<g id="edge34" class="edge">
<title>Node1&#45;&gt;Node22</title>
<path fill="none" stroke="midnightblue" d="M736.5,-291.5C745.17,-282.11 755.44,-270.98 763.65,-262.08"/>
<polygon fill="midnightblue" stroke="midnightblue" points="766.3,-264.37 770.51,-254.65 761.16,-259.63 766.3,-264.37"/>
</g>
<!-- Node23 -->
<g id="node23" class="node">
<title>Node23</title>
<g id="a_node23"><a xlink:title=" ">
<polygon fill="white" stroke="#bfbfbf" points="850,-235.5 850,-254.5 897,-254.5 897,-235.5 850,-235.5"/>
<text text-anchor="middle" x="873.5" y="-242.5" font-family="Helvetica,sans-Serif" font-size="10.00">cmath</text>
</a>
</g>
</g>
<!-- Node1&#45;&gt;Node23 -->
<g id="edge35" class="edge">
<title>Node1&#45;&gt;Node23</title>
<path fill="none" stroke="midnightblue" d="M765.01,-291.5C790.48,-280.81 821.31,-267.89 843.59,-258.54"/>
<polygon fill="midnightblue" stroke="midnightblue" points="845,-261.75 852.87,-254.65 842.29,-255.29 845,-261.75"/>
</g>
<!-- Node24 -->
<g id="node24" class="node">
<title>Node24</title>
<g id="a_node24"><a xlink:title=" ">
<polygon fill="white" stroke="#bfbfbf" points="915.5,-235.5 915.5,-254.5 971.5,-254.5 971.5,-235.5 915.5,-235.5"/>
<text text-anchor="middle" x="943.5" y="-242.5" font-family="Helvetica,sans-Serif" font-size="10.00">iomanip</text>
</a>
</g>
</g>
<!-- Node1&#45;&gt;Node24 -->
<g id="edge36" class="edge">
<title>Node1&#45;&gt;Node24</title>
<path fill="none" stroke="midnightblue" d="M781.18,-292.89C821.01,-281.39 871.28,-266.86 905.24,-257.05"/>
<polygon fill="midnightblue" stroke="midnightblue" points="906.59,-260.31 915.23,-254.17 904.65,-253.58 906.59,-260.31"/>
</g>
<!-- Node3 -->
<g id="node3" class="node">
<title>Node3</title>
<g id="a_node3"><a xlink:title=" ">
<polygon fill="white" stroke="#bfbfbf" points="285,-112.5 285,-131.5 332,-131.5 332,-112.5 285,-112.5"/>
<text text-anchor="middle" x="308.5" y="-119.5" font-family="Helvetica,sans-Serif" font-size="10.00">vector</text>
</a>
</g>
</g>
<!-- Node2&#45;&gt;Node3 -->
<g id="edge2" class="edge">
<title>Node2&#45;&gt;Node3</title>
<path fill="none" stroke="midnightblue" d="M375.74,-235.31C369.38,-220.93 355.8,-191.42 341.5,-168 335.57,-158.28 328.13,-148.01 321.82,-139.73"/>
<polygon fill="midnightblue" stroke="midnightblue" points="324.44,-137.4 315.53,-131.66 318.91,-141.7 324.44,-137.4"/>
</g>
<!-- Node4 -->
<g id="node4" class="node">
<title>Node4</title>
<g id="a_node4"><a xlink:title=" ">
<polygon fill="white" stroke="#bfbfbf" points="0,-56.5 0,-75.5 53,-75.5 53,-56.5 0,-56.5"/>
<text text-anchor="middle" x="26.5" y="-63.5" font-family="Helvetica,sans-Serif" font-size="10.00">cstddef</text>
</a>
</g>
</g>
<!-- Node2&#45;&gt;Node4 -->
<g id="edge3" class="edge">
<title>Node2&#45;&gt;Node4</title>
<path fill="none" stroke="midnightblue" d="M331.92,-241.05C259.25,-235.83 124.68,-223.18 83.5,-199 50.99,-179.92 45.07,-167.17 31.5,-132 25.83,-117.3 24.84,-99.37 25.13,-86.06"/>
<polygon fill="midnightblue" stroke="midnightblue" points="28.64,-85.91 25.62,-75.76 21.65,-85.58 28.64,-85.91"/>
</g>
<!-- Node5 -->
<g id="node5" class="node">
<title>Node5</title>
<g id="a_node5"><a xlink:title=" ">
<polygon fill="white" stroke="#bfbfbf" points="427,-174 427,-193 496,-193 496,-174 427,-174"/>
<text text-anchor="middle" x="461.5" y="-181" font-family="Helvetica,sans-Serif" font-size="10.00">type_traits</text>
</a>
</g>
</g>
<!-- Node2&#45;&gt;Node5 -->
<g id="edge4" class="edge">
<title>Node2&#45;&gt;Node5</title>
<path fill="none" stroke="midnightblue" d="M391.25,-235.48C404.28,-226.02 425.54,-210.6 441.26,-199.19"/>
<polygon fill="midnightblue" stroke="midnightblue" points="443.73,-201.71 449.77,-193.01 439.62,-196.05 443.73,-201.71"/>
</g>
<!-- Node6 -->
<g id="node6" class="node">
<title>Node6</title>
<g id="a_node6"><a xlink:title=" ">
<polygon fill="white" stroke="#bfbfbf" points="395.5,-56.5 395.5,-75.5 439.5,-75.5 439.5,-56.5 395.5,-56.5"/>
<text text-anchor="middle" x="417.5" y="-63.5" font-family="Helvetica,sans-Serif" font-size="10.00">string</text>
</a>
</g>
</g>
<!-- Node2&#45;&gt;Node6 -->
<g id="edge5" class="edge">
<title>Node2&#45;&gt;Node6</title>
<path fill="none" stroke="midnightblue" d="M381.33,-235.46C387.14,-208.43 405.21,-124.24 413.4,-86.11"/>
<polygon fill="midnightblue" stroke="midnightblue" points="416.92,-86.38 415.6,-75.87 410.07,-84.91 416.92,-86.38"/>
</g>
<!-- Node7 -->
<g id="node7" class="node">
<title>Node7</title>
<g id="a_node7"><a xlink:href="catch__compiler__capabilities_8h.html" target="_top" xlink:title=" ">
<polygon fill="white" stroke="black" points="628,-56.5 628,-75.5 789,-75.5 789,-56.5 628,-56.5"/>
<text text-anchor="middle" x="708.5" y="-63.5" font-family="Helvetica,sans-Serif" font-size="10.00">catch_compiler_capabilities.h</text>
</a>
</g>
</g>
<!-- Node2&#45;&gt;Node7 -->
<g id="edge6" class="edge">
<title>Node2&#45;&gt;Node7</title>
<path fill="none" stroke="midnightblue" d="M427.21,-242.93C485.09,-240.19 584.68,-230.78 663.5,-199 711.76,-179.54 735.44,-178.13 759.5,-132 769.53,-112.76 749.91,-93.57 732.17,-81.08"/>
<polygon fill="midnightblue" stroke="midnightblue" points="734.02,-78.11 723.75,-75.52 730.16,-83.95 734.02,-78.11"/>
</g>
<!-- Node9 -->
<g id="node9" class="node">
<title>Node9</title>
<g id="a_node9"><a xlink:href="catch__stream_8h.html" target="_top" xlink:title=" ">
<polygon fill="white" stroke="black" points="92.5,-174 92.5,-193 184.5,-193 184.5,-174 92.5,-174"/>
<text text-anchor="middle" x="138.5" y="-181" font-family="Helvetica,sans-Serif" font-size="10.00">catch_stream.h</text>
</a>
</g>
</g>
<!-- Node2&#45;&gt;Node9 -->
<g id="edge8" class="edge">
<title>Node2&#45;&gt;Node9</title>
<path fill="none" stroke="midnightblue" d="M343.09,-235.42C305.56,-226.53 245.36,-212.11 193.5,-199 189.18,-197.91 184.68,-196.75 180.19,-195.59"/>
<polygon fill="midnightblue" stroke="midnightblue" points="181.02,-192.19 170.46,-193.04 179.25,-198.96 181.02,-192.19"/>
</g>
<!-- Node14 -->
<g id="node14" class="node">
<title>Node14</title>
<g id="a_node14"><a xlink:href="catch__interfaces__enum__values__registry_8h.html" target="_top" xlink:title=" ">
<polygon fill="white" stroke="black" points="202.5,-168.5 202.5,-198.5 332.5,-198.5 332.5,-168.5 202.5,-168.5"/>
<text text-anchor="start" x="210.5" y="-186.5" font-family="Helvetica,sans-Serif" font-size="10.00">catch_interfaces_enum</text>
<text text-anchor="middle" x="267.5" y="-175.5" font-family="Helvetica,sans-Serif" font-size="10.00">_values_registry.h</text>
</a>
</g>
</g>
<!-- Node2&#45;&gt;Node14 -->
<g id="edge17" class="edge">
<title>Node2&#45;&gt;Node14</title>
<path fill="none" stroke="midnightblue" d="M363.45,-235.48C347.72,-227.12 323.2,-214.09 302.89,-203.3"/>
<polygon fill="midnightblue" stroke="midnightblue" points="304.37,-200.12 293.9,-198.52 301.09,-206.31 304.37,-200.12"/>
</g>
<!-- Node8 -->
<g id="node8" class="node">
<title>Node8</title>
<g id="a_node8"><a xlink:href="catch__platform_8h.html" target="_top" xlink:title=" ">
<polygon fill="white" stroke="black" points="659,-0.5 659,-19.5 758,-19.5 758,-0.5 659,-0.5"/>
<text text-anchor="middle" x="708.5" y="-7.5" font-family="Helvetica,sans-Serif" font-size="10.00">catch_platform.h</text>
</a>
</g>
</g>
<!-- Node7&#45;&gt;Node8 -->
<g id="edge7" class="edge">
<title>Node7&#45;&gt;Node8</title>
<path fill="none" stroke="midnightblue" d="M708.5,-56.08C708.5,-49.01 708.5,-38.86 708.5,-29.99"/>
<polygon fill="midnightblue" stroke="midnightblue" points="712,-29.75 708.5,-19.75 705,-29.75 712,-29.75"/>
</g>
<!-- Node9&#45;&gt;Node4 -->
<g id="edge15" class="edge">
<title>Node9&#45;&gt;Node4</title>
<path fill="none" stroke="midnightblue" d="M110.64,-173.94C89.84,-166.18 62.23,-152.73 45.5,-132 34.78,-118.71 30.11,-99.59 28.07,-85.53"/>
<polygon fill="midnightblue" stroke="midnightblue" points="31.55,-85.08 26.94,-75.54 24.59,-85.87 31.55,-85.08"/>
</g>
<!-- Node10 -->
<g id="node10" class="node">
<title>Node10</title>
<g id="a_node10"><a xlink:href="catch__common_8h.html" target="_top" xlink:title=" ">
<polygon fill="white" stroke="black" points="464.5,-112.5 464.5,-131.5 564.5,-131.5 564.5,-112.5 464.5,-112.5"/>
<text text-anchor="middle" x="514.5" y="-119.5" font-family="Helvetica,sans-Serif" font-size="10.00">catch_common.h</text>
</a>
</g>
</g>
<!-- Node9&#45;&gt;Node10 -->
<g id="edge9" class="edge">
<title>Node9&#45;&gt;Node10</title>
<path fill="none" stroke="midnightblue" d="M168.32,-173.95C176.44,-171.81 185.27,-169.66 193.5,-168 283.7,-149.85 389.62,-136.53 454.39,-129.27"/>
<polygon fill="midnightblue" stroke="midnightblue" points="454.87,-132.74 464.42,-128.16 454.1,-125.78 454.87,-132.74"/>
</g>
<!-- Node11 -->
<g id="node11" class="node">
<title>Node11</title>
<g id="a_node11"><a xlink:title=" ">
<polygon fill="white" stroke="#bfbfbf" points="280.5,-56.5 280.5,-75.5 328.5,-75.5 328.5,-56.5 280.5,-56.5"/>
<text text-anchor="middle" x="304.5" y="-63.5" font-family="Helvetica,sans-Serif" font-size="10.00">iosfwd</text>
</a>
</g>
</g>
<!-- Node9&#45;&gt;Node11 -->
<g id="edge14" class="edge">
<title>Node9&#45;&gt;Node11</title>
<path fill="none" stroke="midnightblue" d="M159.62,-173.93C180.4,-165.01 212.55,-149.85 237.5,-132 257.55,-117.65 277.44,-97.4 290.27,-83.33"/>
<polygon fill="midnightblue" stroke="midnightblue" points="292.9,-85.64 296.95,-75.85 287.68,-80.97 292.9,-85.64"/>
</g>
<!-- Node13 -->
<g id="node13" class="node">
<title>Node13</title>
<g id="a_node13"><a xlink:title=" ">
<polygon fill="white" stroke="#bfbfbf" points="55,-112.5 55,-131.5 112,-131.5 112,-112.5 55,-112.5"/>
<text text-anchor="middle" x="83.5" y="-119.5" font-family="Helvetica,sans-Serif" font-size="10.00">ostream</text>
</a>
</g>
</g>
<!-- Node9&#45;&gt;Node13 -->
<g id="edge16" class="edge">
<title>Node9&#45;&gt;Node13</title>
<path fill="none" stroke="midnightblue" d="M130.62,-173.98C122.21,-164.87 108.68,-150.24 98.27,-138.98"/>
<polygon fill="midnightblue" stroke="midnightblue" points="100.72,-136.48 91.37,-131.51 95.58,-141.23 100.72,-136.48"/>
</g>
<!-- Node10&#45;&gt;Node6 -->
<g id="edge12" class="edge">
<title>Node10&#45;&gt;Node6</title>
<path fill="none" stroke="midnightblue" d="M498.92,-112.32C483.5,-103.74 459.69,-90.49 441.79,-80.52"/>
<polygon fill="midnightblue" stroke="midnightblue" points="443.49,-77.46 433.05,-75.65 440.08,-83.58 443.49,-77.46"/>
</g>
<!-- Node10&#45;&gt;Node7 -->
<g id="edge10" class="edge">
<title>Node10&#45;&gt;Node7</title>
<path fill="none" stroke="midnightblue" d="M545.24,-112.44C578.44,-103.2 631.49,-88.44 668.06,-78.26"/>
<polygon fill="midnightblue" stroke="midnightblue" points="669.21,-81.57 677.9,-75.52 667.33,-74.83 669.21,-81.57"/>
</g>
<!-- Node10&#45;&gt;Node11 -->
<g id="edge11" class="edge">
<title>Node10&#45;&gt;Node11</title>
<path fill="none" stroke="midnightblue" d="M481.22,-112.44C442.26,-102.42 378.06,-85.92 338.7,-75.79"/>
<polygon fill="midnightblue" stroke="midnightblue" points="339.34,-72.34 328.78,-73.24 337.59,-79.12 339.34,-72.34"/>
</g>
<!-- Node12 -->
<g id="node12" class="node">
<title>Node12</title>
<g id="a_node12"><a xlink:title=" ">
<polygon fill="white" stroke="#bfbfbf" points="489.5,-56.5 489.5,-75.5 539.5,-75.5 539.5,-56.5 489.5,-56.5"/>
<text text-anchor="middle" x="514.5" y="-63.5" font-family="Helvetica,sans-Serif" font-size="10.00">cstdint</text>
</a>
</g>
</g>
<!-- Node10&#45;&gt;Node12 -->
<g id="edge13" class="edge">
<title>Node10&#45;&gt;Node12</title>
<path fill="none" stroke="midnightblue" d="M514.5,-112.08C514.5,-105.01 514.5,-94.86 514.5,-85.99"/>
<polygon fill="midnightblue" stroke="midnightblue" points="518,-85.75 514.5,-75.75 511,-85.75 518,-85.75"/>
</g>
<!-- Node14&#45;&gt;Node3 -->
<g id="edge23" class="edge">
<title>Node14&#45;&gt;Node3</title>
<path fill="none" stroke="midnightblue" d="M277.22,-168.4C283.05,-159.93 290.52,-149.1 296.69,-140.14"/>
<polygon fill="midnightblue" stroke="midnightblue" points="299.74,-141.88 302.53,-131.66 293.98,-137.91 299.74,-141.88"/>
</g>
<!-- Node15 -->
<g id="node15" class="node">
<title>Node15</title>
<g id="a_node15"><a xlink:href="catch__stringref_8h.html" target="_top" xlink:title=" ">
<polygon fill="white" stroke="black" points="130.5,-112.5 130.5,-131.5 228.5,-131.5 228.5,-112.5 130.5,-112.5"/>
<text text-anchor="middle" x="179.5" y="-119.5" font-family="Helvetica,sans-Serif" font-size="10.00">catch_stringref.h</text>
</a>
</g>
</g>
<!-- Node14&#45;&gt;Node15 -->
<g id="edge18" class="edge">
<title>Node14&#45;&gt;Node15</title>
<path fill="none" stroke="midnightblue" d="M246.65,-168.4C232.8,-159.04 214.69,-146.79 200.76,-137.38"/>
<polygon fill="midnightblue" stroke="midnightblue" points="202.55,-134.36 192.3,-131.66 198.63,-140.16 202.55,-134.36"/>
</g>
<!-- Node15&#45;&gt;Node4 -->
<g id="edge19" class="edge">
<title>Node15&#45;&gt;Node4</title>
<path fill="none" stroke="midnightblue" d="M155.26,-112.44C129.63,-103.4 89.01,-89.06 60.26,-78.92"/>
<polygon fill="midnightblue" stroke="midnightblue" points="61.22,-75.54 50.63,-75.52 58.89,-82.15 61.22,-75.54"/>
</g>
<!-- Node15&#45;&gt;Node6 -->
<g id="edge20" class="edge">
<title>Node15&#45;&gt;Node6</title>
<path fill="none" stroke="midnightblue" d="M217.21,-112.44C263.69,-101.9 341.85,-84.16 385.52,-74.26"/>
<polygon fill="midnightblue" stroke="midnightblue" points="386.35,-77.66 395.32,-72.03 384.8,-70.83 386.35,-77.66"/>
</g>
<!-- Node15&#45;&gt;Node11 -->
<g id="edge21" class="edge">
<title>Node15&#45;&gt;Node11</title>
<path fill="none" stroke="midnightblue" d="M199.31,-112.44C219.79,-103.6 251.98,-89.69 275.36,-79.59"/>
<polygon fill="midnightblue" stroke="midnightblue" points="276.99,-82.7 284.79,-75.52 274.22,-76.27 276.99,-82.7"/>
</g>
<!-- Node16 -->
<g id="node16" class="node">
<title>Node16</title>
<g id="a_node16"><a xlink:title=" ">
<polygon fill="white" stroke="#bfbfbf" points="153.5,-56.5 153.5,-75.5 205.5,-75.5 205.5,-56.5 153.5,-56.5"/>
<text text-anchor="middle" x="179.5" y="-63.5" font-family="Helvetica,sans-Serif" font-size="10.00">cassert</text>
</a>
</g>
</g>
<!-- Node15&#45;&gt;Node16 -->
<g id="edge22" class="edge">
<title>Node15&#45;&gt;Node16</title>
<path fill="none" stroke="midnightblue" d="M179.5,-112.08C179.5,-105.01 179.5,-94.86 179.5,-85.99"/>
<polygon fill="midnightblue" stroke="midnightblue" points="183,-85.75 179.5,-75.75 176,-85.75 183,-85.75"/>
</g>
<!-- Node17&#45;&gt;Node3 -->
<g id="edge30" class="edge">
<title>Node17&#45;&gt;Node3</title>
<path fill="none" stroke="midnightblue" d="M542.73,-173.95C495.16,-164.13 415.12,-147.4 346.5,-132 345.05,-131.68 343.58,-131.34 342.08,-131"/>
<polygon fill="midnightblue" stroke="midnightblue" points="342.73,-127.56 332.2,-128.7 341.15,-134.37 342.73,-127.56"/>
</g>
<!-- Node17&#45;&gt;Node6 -->
<g id="edge29" class="edge">
<title>Node17&#45;&gt;Node6</title>
<path fill="none" stroke="midnightblue" d="M543.62,-173.95C516.24,-166.56 480.73,-153.57 455.5,-132 440.79,-119.42 430.38,-99.65 424.22,-85.21"/>
<polygon fill="midnightblue" stroke="midnightblue" points="427.44,-83.82 420.49,-75.82 420.93,-86.41 427.44,-83.82"/>
</g>
<!-- Node17&#45;&gt;Node10 -->
<g id="edge25" class="edge">
<title>Node17&#45;&gt;Node10</title>
<path fill="none" stroke="midnightblue" d="M574.47,-173.98C563.45,-164.61 545.54,-149.38 532.16,-138.01"/>
<polygon fill="midnightblue" stroke="midnightblue" points="534.4,-135.32 524.51,-131.51 529.86,-140.65 534.4,-135.32"/>
</g>
<!-- Node17&#45;&gt;Node11 -->
<g id="edge28" class="edge">
<title>Node17&#45;&gt;Node11</title>
<path fill="none" stroke="midnightblue" d="M555.51,-173.94C525.18,-164.69 476.36,-148.97 435.5,-132 397.66,-116.28 355.47,-94.55 329.45,-80.63"/>
<polygon fill="midnightblue" stroke="midnightblue" points="330.78,-77.37 320.31,-75.71 327.46,-83.53 330.78,-77.37"/>
</g>
<!-- Node18 -->
<g id="node18" class="node">
<title>Node18</title>
<g id="a_node18"><a xlink:href="catch__option_8hpp.html" target="_top" xlink:title=" ">
<polygon fill="white" stroke="black" points="582.5,-112.5 582.5,-131.5 682.5,-131.5 682.5,-112.5 582.5,-112.5"/>
<text text-anchor="middle" x="632.5" y="-119.5" font-family="Helvetica,sans-Serif" font-size="10.00">catch_option.hpp</text>
</a>
</g>
</g>
<!-- Node17&#45;&gt;Node18 -->
<g id="edge26" class="edge">
<title>Node17&#45;&gt;Node18</title>
<path fill="none" stroke="midnightblue" d="M591.38,-173.98C598.65,-164.96 610.3,-150.52 619.34,-139.31"/>
<polygon fill="midnightblue" stroke="midnightblue" points="622.08,-141.49 625.64,-131.51 616.63,-137.09 622.08,-141.49"/>
</g>
<!-- Node19 -->
<g id="node19" class="node">
<title>Node19</title>
<g id="a_node19"><a xlink:title=" ">
<polygon fill="white" stroke="#bfbfbf" points="700.5,-112.5 700.5,-131.5 750.5,-131.5 750.5,-112.5 700.5,-112.5"/>
<text text-anchor="middle" x="725.5" y="-119.5" font-family="Helvetica,sans-Serif" font-size="10.00">chrono</text>
</a>
</g>
</g>
<!-- Node17&#45;&gt;Node19 -->
<g id="edge27" class="edge">
<title>Node17&#45;&gt;Node19</title>
<path fill="none" stroke="midnightblue" d="M604.7,-173.98C628.57,-163.9 668.5,-147.05 695.87,-135.5"/>
<polygon fill="midnightblue" stroke="midnightblue" points="697.48,-138.62 705.34,-131.51 694.76,-132.17 697.48,-138.62"/>
</g>
<!-- Node20 -->
<g id="node20" class="node">
<title>Node20</title>
<g id="a_node20"><a xlink:title=" ">
<polygon fill="white" stroke="#bfbfbf" points="806.5,-112.5 806.5,-131.5 864.5,-131.5 864.5,-112.5 806.5,-112.5"/>
<text text-anchor="middle" x="835.5" y="-119.5" font-family="Helvetica,sans-Serif" font-size="10.00">memory</text>
</a>
</g>
</g>
<!-- Node17&#45;&gt;Node20 -->
<g id="edge31" class="edge">
<title>Node17&#45;&gt;Node20</title>
<path fill="none" stroke="midnightblue" d="M620.46,-173.98C667.16,-162.91 748.37,-143.65 796.51,-132.24"/>
<polygon fill="midnightblue" stroke="midnightblue" points="797.33,-135.65 806.25,-129.93 795.71,-128.83 797.33,-135.65"/>
</g>
<!-- Node21&#45;&gt;Node20 -->
<g id="edge33" class="edge">
<title>Node21&#45;&gt;Node20</title>
<path fill="none" stroke="midnightblue" d="M706.7,-236.71C734.17,-230.49 768.08,-219.2 792.5,-199 810.98,-183.72 823.04,-158.31 829.56,-141.12"/>
<polygon fill="midnightblue" stroke="midnightblue" points="832.87,-142.24 832.91,-131.64 826.27,-139.9 832.87,-142.24"/>
</g>
</g>
</svg>
        <g id="navigator" transform="translate(0 0)" fill="#404254">
                <rect fill="#f2f5e9" fill-opacity="0.5" stroke="#606060" stroke-width=".5" x="0" y="0" width="60" height="60"/>
                <use id="zoomplus" xlink:href="#zoomPlus" x="17" y="9" onmousedown="handleZoom(evt,'in')"/>
                <use id="zoomminus" xlink:href="#zoomMin" x="42" y="9" onmousedown="handleZoom(evt,'out')"/>
                <use id="reset" xlink:href="#resetDef" x="30" y="36" onmousedown="handleReset()"/>
                <g id="arrowUp" xlink:href="#dirArrow" transform="translate(30 24)" onmousedown="handlePan(0,-1)">
                  <use xlink:href="#rim" fill="#404040">
                        <set attributeName="fill" to="#808080" begin="arrowUp.mouseover" end="arrowUp.mouseout"/>
                  </use>
                  <path fill="none" stroke="white" stroke-width="1.5" d="M0,-3.0v7 M-2.5,-0.5L0,-3.0L2.5,-0.5"/>
                </g>
                <g id="arrowRight" xlink:href="#dirArrow" transform="rotate(90) translate(36 -43)" onmousedown="handlePan(1,0)">
                  <use xlink:href="#rim" fill="#404040">
                        <set attributeName="fill" to="#808080" begin="arrowRight.mouseover" end="arrowRight.mouseout"/>
                  </use>
                  <path fill="none" stroke="white" stroke-width="1.5" d="M0,-3.0v7 M-2.5,-0.5L0,-3.0L2.5,-0.5"/>
                </g>
                <g id="arrowDown" xlink:href="#dirArrow" transform="rotate(180) translate(-30 -48)" onmousedown="handlePan(0,1)">
                  <use xlink:href="#rim" fill="#404040">
                        <set attributeName="fill" to="#808080" begin="arrowDown.mouseover" end="arrowDown.mouseout"/>
                  </use>
                  <path fill="none" stroke="white" stroke-width="1.5" d="M0,-3.0v7 M-2.5,-0.5L0,-3.0L2.5,-0.5"/>
                </g>
                <g id="arrowLeft" xlink:href="#dirArrow" transform="rotate(270) translate(-36 17)" onmousedown="handlePan(-1,0)">
                  <use xlink:href="#rim" fill="#404040">
                        <set attributeName="fill" to="#808080" begin="arrowLeft.mouseover" end="arrowLeft.mouseout"/>
                  </use>
                  <path fill="none" stroke="white" stroke-width="1.5" d="M0,-3.0v7 M-2.5,-0.5L0,-3.0L2.5,-0.5"/>
                </g>
        </g>
        <svg viewBox="0 0 15 15" width="100%" height="30px" preserveAspectRatio="xMaxYMin meet">
         <g id="arrow_out" transform="scale(0.3 0.3)">
          <a xlink:href="catch__tostring_8cpp__incl_org.svg" target="_base">
           <rect id="button" ry="5" rx="5" y="6" x="6" height="38" width="38"
                fill="#f2f5e9" fill-opacity="0.5" stroke="#606060" stroke-width="1.0"/>
           <path id="arrow"
             d="M 11.500037,31.436501 C 11.940474,20.09759 22.043105,11.32322 32.158766,21.979434 L 37.068811,17.246167 C 37.068811,17.246167 37.088388,32 37.088388,32 L 22.160133,31.978069 C 22.160133,31.978069 26.997745,27.140456 26.997745,27.140456 C 18.528582,18.264221 13.291696,25.230495 11.500037,31.436501 z"
             style="fill:#404040;"/>
          </a>
         </g>
        </svg>
</svg>
