<?xml version="1.0" encoding="UTF-8" standalone="no"?>
<!DOCTYPE svg PUBLIC "-//W3C//DTD SVG 1.1//EN"
 "http://www.w3.org/Graphics/SVG/1.1/DTD/svg11.dtd">
<!-- Generated by graphviz version 2.43.0 (0)
 -->
<!-- Title: language/lib/Catch2/include/internal/catch_interfaces_runner.h Pages: 1 -->
<svg width="1082pt" height="284pt"
 viewBox="0.00 0.00 1082.24 284.00" xmlns="http://www.w3.org/2000/svg" xmlns:xlink="http://www.w3.org/1999/xlink">
<g id="graph0" class="graph" transform="scale(1 1) rotate(0) translate(4 280)">
<title>language/lib/Catch2/include/internal/catch_interfaces_runner.h</title>
<polygon fill="white" stroke="transparent" points="-4,4 -4,-280 1078.24,-280 1078.24,4 -4,4"/>
<!-- Node1 -->
<g id="node1" class="node">
<title>Node1</title>
<g id="a_node1"><a xlink:title=" ">
<polygon fill="#bfbfbf" stroke="black" points="364,-234.5 364,-275.5 489,-275.5 489,-234.5 364,-234.5"/>
<text text-anchor="start" x="372" y="-263.5" font-family="Helvetica,sans-Serif" font-size="10.00">language/lib/Catch2</text>
<text text-anchor="start" x="372" y="-252.5" font-family="Helvetica,sans-Serif" font-size="10.00">/include/internal/catch</text>
<text text-anchor="middle" x="426.5" y="-241.5" font-family="Helvetica,sans-Serif" font-size="10.00">_interfaces_runner.h</text>
</a>
</g>
</g>
<!-- Node2 -->
<g id="node2" class="node">
<title>Node2</title>
<g id="a_node2"><a xlink:href="include_2catch_8hpp.html" target="_top" xlink:title=" ">
<polygon fill="white" stroke="black" points="104,-162 104,-192 217,-192 217,-162 104,-162"/>
<text text-anchor="start" x="112" y="-180" font-family="Helvetica,sans-Serif" font-size="10.00">language/lib/Catch2</text>
<text text-anchor="middle" x="160.5" y="-169" font-family="Helvetica,sans-Serif" font-size="10.00">/include/catch.hpp</text>
</a>
</g>
</g>
<!-- Node1&#45;&gt;Node2 -->
<g id="edge1" class="edge">
<title>Node1&#45;&gt;Node2</title>
<path fill="none" stroke="midnightblue" d="M353.94,-233.27C308.22,-220.21 250.39,-203.68 209.92,-192.12"/>
<polygon fill="midnightblue" stroke="midnightblue" points="353.22,-236.7 363.8,-236.09 355.14,-229.97 353.22,-236.7"/>
</g>
<!-- Node4 -->
<g id="node4" class="node">
<title>Node4</title>
<g id="a_node4"><a xlink:href="catch__assertionhandler_8cpp.html" target="_top" xlink:title=" ">
<polygon fill="white" stroke="black" points="131,-78.5 131,-119.5 256,-119.5 256,-78.5 131,-78.5"/>
<text text-anchor="start" x="139" y="-107.5" font-family="Helvetica,sans-Serif" font-size="10.00">language/lib/Catch2</text>
<text text-anchor="start" x="139" y="-96.5" font-family="Helvetica,sans-Serif" font-size="10.00">/include/internal/catch</text>
<text text-anchor="middle" x="193.5" y="-85.5" font-family="Helvetica,sans-Serif" font-size="10.00">_assertionhandler.cpp</text>
</a>
</g>
</g>
<!-- Node1&#45;&gt;Node4 -->
<g id="edge3" class="edge">
<title>Node1&#45;&gt;Node4</title>
<path fill="none" stroke="midnightblue" d="M388.45,-228.85C342.22,-198.3 265.2,-147.39 223.14,-119.59"/>
<polygon fill="midnightblue" stroke="midnightblue" points="386.72,-231.9 396.99,-234.5 390.58,-226.06 386.72,-231.9"/>
</g>
<!-- Node6 -->
<g id="node6" class="node">
<title>Node6</title>
<g id="a_node6"><a xlink:href="catch__run__context_8h.html" target="_top" xlink:title=" ">
<polygon fill="white" stroke="black" points="442,-156.5 442,-197.5 567,-197.5 567,-156.5 442,-156.5"/>
<text text-anchor="start" x="450" y="-185.5" font-family="Helvetica,sans-Serif" font-size="10.00">language/lib/Catch2</text>
<text text-anchor="start" x="450" y="-174.5" font-family="Helvetica,sans-Serif" font-size="10.00">/include/internal/catch</text>
<text text-anchor="middle" x="504.5" y="-163.5" font-family="Helvetica,sans-Serif" font-size="10.00">_run_context.h</text>
</a>
</g>
</g>
<!-- Node1&#45;&gt;Node6 -->
<g id="edge5" class="edge">
<title>Node1&#45;&gt;Node6</title>
<path fill="none" stroke="midnightblue" d="M454,-227.2C464.05,-217.42 475.21,-206.54 484.48,-197.51"/>
<polygon fill="midnightblue" stroke="midnightblue" points="451.31,-224.94 446.59,-234.43 456.19,-229.96 451.31,-224.94"/>
</g>
<!-- Node12 -->
<g id="node12" class="node">
<title>Node12</title>
<g id="a_node12"><a xlink:href="catch__interfaces__runner_8cpp.html" target="_top" xlink:title=" ">
<polygon fill="white" stroke="black" points="802,-156.5 802,-197.5 929,-197.5 929,-156.5 802,-156.5"/>
<text text-anchor="start" x="810" y="-185.5" font-family="Helvetica,sans-Serif" font-size="10.00">language/lib/Catch2</text>
<text text-anchor="start" x="810" y="-174.5" font-family="Helvetica,sans-Serif" font-size="10.00">/include/internal/catch</text>
<text text-anchor="middle" x="865.5" y="-163.5" font-family="Helvetica,sans-Serif" font-size="10.00">_interfaces_runner.cpp</text>
</a>
</g>
</g>
<!-- Node1&#45;&gt;Node12 -->
<g id="edge17" class="edge">
<title>Node1&#45;&gt;Node12</title>
<path fill="none" stroke="midnightblue" d="M499.41,-241.38C583.78,-226.77 721.34,-202.96 801.65,-189.05"/>
<polygon fill="midnightblue" stroke="midnightblue" points="498.65,-237.96 489.4,-243.11 499.85,-244.85 498.65,-237.96"/>
</g>
<!-- Node3 -->
<g id="node3" class="node">
<title>Node3</title>
<g id="a_node3"><a xlink:href="catch__with__main_8hpp.html" target="_top" xlink:title=" ">
<polygon fill="white" stroke="black" points="0,-78.5 0,-119.5 113,-119.5 113,-78.5 0,-78.5"/>
<text text-anchor="start" x="8" y="-107.5" font-family="Helvetica,sans-Serif" font-size="10.00">language/lib/Catch2</text>
<text text-anchor="start" x="8" y="-96.5" font-family="Helvetica,sans-Serif" font-size="10.00">/include/catch_with</text>
<text text-anchor="middle" x="56.5" y="-85.5" font-family="Helvetica,sans-Serif" font-size="10.00">_main.hpp</text>
</a>
</g>
</g>
<!-- Node2&#45;&gt;Node3 -->
<g id="edge2" class="edge">
<title>Node2&#45;&gt;Node3</title>
<path fill="none" stroke="midnightblue" d="M132.86,-155.8C117.56,-144.62 98.62,-130.78 83.43,-119.68"/>
<polygon fill="midnightblue" stroke="midnightblue" points="130.8,-158.63 140.94,-161.7 134.93,-152.98 130.8,-158.63"/>
</g>
<!-- Node5 -->
<g id="node5" class="node">
<title>Node5</title>
<g id="a_node5"><a xlink:href="catch__objc__impl_8mm.html" target="_top" xlink:title=" ">
<polygon fill="white" stroke="black" points="608,-0.5 608,-41.5 737,-41.5 737,-0.5 608,-0.5"/>
<text text-anchor="start" x="616" y="-29.5" font-family="Helvetica,sans-Serif" font-size="10.00">language/lib/Catch2</text>
<text text-anchor="start" x="616" y="-18.5" font-family="Helvetica,sans-Serif" font-size="10.00">/projects/XCode/OCTest</text>
<text text-anchor="middle" x="672.5" y="-7.5" font-family="Helvetica,sans-Serif" font-size="10.00">/catch_objc_impl.mm</text>
</a>
</g>
</g>
<!-- Node4&#45;&gt;Node5 -->
<g id="edge4" class="edge">
<title>Node4&#45;&gt;Node5</title>
<path fill="none" stroke="midnightblue" d="M265.91,-77.83C391.73,-52.14 528.91,-36.14 607.72,-28.1"/>
<polygon fill="midnightblue" stroke="midnightblue" points="265.19,-74.41 256.1,-79.86 266.61,-81.26 265.19,-74.41"/>
</g>
<!-- Node6&#45;&gt;Node4 -->
<g id="edge6" class="edge">
<title>Node6&#45;&gt;Node4</title>
<path fill="none" stroke="midnightblue" d="M431.97,-159.98C384.25,-149.21 320.5,-134.41 264.5,-120 261.77,-119.3 258.99,-118.57 256.18,-117.82"/>
<polygon fill="midnightblue" stroke="midnightblue" points="431.38,-163.43 441.9,-162.21 432.91,-156.6 431.38,-163.43"/>
</g>
<!-- Node7 -->
<g id="node7" class="node">
<title>Node7</title>
<g id="a_node7"><a xlink:href="catch__fatal__condition_8cpp.html" target="_top" xlink:title=" ">
<polygon fill="white" stroke="black" points="274,-78.5 274,-119.5 399,-119.5 399,-78.5 274,-78.5"/>
<text text-anchor="start" x="282" y="-107.5" font-family="Helvetica,sans-Serif" font-size="10.00">language/lib/Catch2</text>
<text text-anchor="start" x="282" y="-96.5" font-family="Helvetica,sans-Serif" font-size="10.00">/include/internal/catch</text>
<text text-anchor="middle" x="336.5" y="-85.5" font-family="Helvetica,sans-Serif" font-size="10.00">_fatal_condition.cpp</text>
</a>
</g>
</g>
<!-- Node6&#45;&gt;Node7 -->
<g id="edge7" class="edge">
<title>Node6&#45;&gt;Node7</title>
<path fill="none" stroke="midnightblue" d="M451.87,-152.19C428.62,-141.67 401.64,-129.47 379.62,-119.51"/>
<polygon fill="midnightblue" stroke="midnightblue" points="450.68,-155.5 461.24,-156.43 453.57,-149.12 450.68,-155.5"/>
</g>
<!-- Node8 -->
<g id="node8" class="node">
<title>Node8</title>
<g id="a_node8"><a xlink:href="catch__random__number__generator_8cpp.html" target="_top" xlink:title=" ">
<polygon fill="white" stroke="black" points="417.5,-78.5 417.5,-119.5 591.5,-119.5 591.5,-78.5 417.5,-78.5"/>
<text text-anchor="start" x="425.5" y="-107.5" font-family="Helvetica,sans-Serif" font-size="10.00">language/lib/Catch2</text>
<text text-anchor="start" x="425.5" y="-96.5" font-family="Helvetica,sans-Serif" font-size="10.00">/include/internal/catch</text>
<text text-anchor="middle" x="504.5" y="-85.5" font-family="Helvetica,sans-Serif" font-size="10.00">_random_number_generator.cpp</text>
</a>
</g>
</g>
<!-- Node6&#45;&gt;Node8 -->
<g id="edge9" class="edge">
<title>Node6&#45;&gt;Node8</title>
<path fill="none" stroke="midnightblue" d="M504.5,-146.3C504.5,-137.3 504.5,-127.65 504.5,-119.51"/>
<polygon fill="midnightblue" stroke="midnightblue" points="501,-146.43 504.5,-156.43 508,-146.43 501,-146.43"/>
</g>
<!-- Node9 -->
<g id="node9" class="node">
<title>Node9</title>
<g id="a_node9"><a xlink:href="catch__run__context_8cpp.html" target="_top" xlink:title=" ">
<polygon fill="white" stroke="black" points="610,-78.5 610,-119.5 735,-119.5 735,-78.5 610,-78.5"/>
<text text-anchor="start" x="618" y="-107.5" font-family="Helvetica,sans-Serif" font-size="10.00">language/lib/Catch2</text>
<text text-anchor="start" x="618" y="-96.5" font-family="Helvetica,sans-Serif" font-size="10.00">/include/internal/catch</text>
<text text-anchor="middle" x="672.5" y="-85.5" font-family="Helvetica,sans-Serif" font-size="10.00">_run_context.cpp</text>
</a>
</g>
</g>
<!-- Node6&#45;&gt;Node9 -->
<g id="edge11" class="edge">
<title>Node6&#45;&gt;Node9</title>
<path fill="none" stroke="midnightblue" d="M557.13,-152.19C580.38,-141.67 607.36,-129.47 629.38,-119.51"/>
<polygon fill="midnightblue" stroke="midnightblue" points="555.43,-149.12 547.76,-156.43 558.32,-155.5 555.43,-149.12"/>
</g>
<!-- Node10 -->
<g id="node10" class="node">
<title>Node10</title>
<g id="a_node10"><a xlink:href="catch__session_8cpp.html" target="_top" xlink:title=" ">
<polygon fill="white" stroke="black" points="753,-78.5 753,-119.5 878,-119.5 878,-78.5 753,-78.5"/>
<text text-anchor="start" x="761" y="-107.5" font-family="Helvetica,sans-Serif" font-size="10.00">language/lib/Catch2</text>
<text text-anchor="start" x="761" y="-96.5" font-family="Helvetica,sans-Serif" font-size="10.00">/include/internal/catch</text>
<text text-anchor="middle" x="815.5" y="-85.5" font-family="Helvetica,sans-Serif" font-size="10.00">_session.cpp</text>
</a>
</g>
</g>
<!-- Node6&#45;&gt;Node10 -->
<g id="edge13" class="edge">
<title>Node6&#45;&gt;Node10</title>
<path fill="none" stroke="midnightblue" d="M576.95,-159.83C624.44,-149.04 687.8,-134.25 743.5,-120 746.52,-119.23 749.6,-118.43 752.71,-117.6"/>
<polygon fill="midnightblue" stroke="midnightblue" points="576.05,-156.45 567.07,-162.07 577.6,-163.27 576.05,-156.45"/>
</g>
<!-- Node11 -->
<g id="node11" class="node">
<title>Node11</title>
<g id="a_node11"><a xlink:href="catch__test__case__registry__impl_8cpp.html" target="_top" xlink:title=" ">
<polygon fill="white" stroke="black" points="896.5,-78.5 896.5,-119.5 1054.5,-119.5 1054.5,-78.5 896.5,-78.5"/>
<text text-anchor="start" x="904.5" y="-107.5" font-family="Helvetica,sans-Serif" font-size="10.00">language/lib/Catch2</text>
<text text-anchor="start" x="904.5" y="-96.5" font-family="Helvetica,sans-Serif" font-size="10.00">/include/internal/catch</text>
<text text-anchor="middle" x="975.5" y="-85.5" font-family="Helvetica,sans-Serif" font-size="10.00">_test_case_registry_impl.cpp</text>
</a>
</g>
</g>
<!-- Node6&#45;&gt;Node11 -->
<g id="edge15" class="edge">
<title>Node6&#45;&gt;Node11</title>
<path fill="none" stroke="midnightblue" d="M577.21,-167.09C654.46,-157.23 780.02,-140.04 887.5,-120 890.43,-119.45 893.4,-118.88 896.41,-118.28"/>
<polygon fill="midnightblue" stroke="midnightblue" points="576.59,-163.64 567.11,-168.38 577.47,-170.59 576.59,-163.64"/>
</g>
<!-- Node7&#45;&gt;Node5 -->
<g id="edge8" class="edge">
<title>Node7&#45;&gt;Node5</title>
<path fill="none" stroke="midnightblue" d="M409.19,-77.9C482.87,-60.05 556.66,-44.75 607.96,-34.53"/>
<polygon fill="midnightblue" stroke="midnightblue" points="408.15,-74.55 399.27,-80.32 409.81,-81.35 408.15,-74.55"/>
</g>
<!-- Node8&#45;&gt;Node5 -->
<g id="edge10" class="edge">
<title>Node8&#45;&gt;Node5</title>
<path fill="none" stroke="midnightblue" d="M557.13,-74.19C580.38,-63.67 607.36,-51.47 629.38,-41.51"/>
<polygon fill="midnightblue" stroke="midnightblue" points="555.43,-71.12 547.76,-78.43 558.32,-77.5 555.43,-71.12"/>
</g>
<!-- Node9&#45;&gt;Node5 -->
<g id="edge12" class="edge">
<title>Node9&#45;&gt;Node5</title>
<path fill="none" stroke="midnightblue" d="M672.5,-68.3C672.5,-59.3 672.5,-49.65 672.5,-41.51"/>
<polygon fill="midnightblue" stroke="midnightblue" points="669,-68.43 672.5,-78.43 676,-68.43 669,-68.43"/>
</g>
<!-- Node10&#45;&gt;Node5 -->
<g id="edge14" class="edge">
<title>Node10&#45;&gt;Node5</title>
<path fill="none" stroke="midnightblue" d="M769.64,-73.63C750.1,-63.24 727.61,-51.29 709.2,-41.51"/>
<polygon fill="midnightblue" stroke="midnightblue" points="768.2,-76.83 778.67,-78.43 771.49,-70.64 768.2,-76.83"/>
</g>
<!-- Node11&#45;&gt;Node5 -->
<g id="edge16" class="edge">
<title>Node11&#45;&gt;Node5</title>
<path fill="none" stroke="midnightblue" d="M887.71,-75.98C839.73,-63.95 781.33,-49.3 737.47,-38.3"/>
<polygon fill="midnightblue" stroke="midnightblue" points="886.92,-79.39 897.47,-78.43 888.62,-72.6 886.92,-79.39"/>
</g>
<!-- Node12&#45;&gt;Node5 -->
<g id="edge18" class="edge">
<title>Node12&#45;&gt;Node5</title>
<path fill="none" stroke="midnightblue" d="M939.13,-165.66C1011.28,-152.55 1104.83,-125.68 1063.5,-78 1022.06,-30.2 837.26,-22.21 737.27,-21.48"/>
<polygon fill="midnightblue" stroke="midnightblue" points="938.35,-162.25 929.1,-167.42 939.56,-169.14 938.35,-162.25"/>
</g>
</g>
</svg>
