<?xml version="1.0" encoding="UTF-8" standalone="no"?>
<!DOCTYPE svg PUBLIC "-//W3C//DTD SVG 1.1//EN"
 "http://www.w3.org/Graphics/SVG/1.1/DTD/svg11.dtd">
<!-- Generated by graphviz version 2.43.0 (0)
 -->
<!-- Title: language/lib/Catch2/include/internal/catch_capture_matchers.h Pages: 1 -->
<svg width="1499pt" height="509pt"
 viewBox="0.00 0.00 1499.00 509.00" xmlns="http://www.w3.org/2000/svg" xmlns:xlink="http://www.w3.org/1999/xlink">
<g id="graph0" class="graph" transform="scale(1 1) rotate(0) translate(4 505)">
<title>language/lib/Catch2/include/internal/catch_capture_matchers.h</title>
<polygon fill="white" stroke="transparent" points="-4,4 -4,-505 1495,-505 1495,4 -4,4"/>
<!-- Node1 -->
<g id="node1" class="node">
<title>Node1</title>
<g id="a_node1"><a xlink:title=" ">
<polygon fill="#bfbfbf" stroke="black" points="932.5,-459.5 932.5,-500.5 1057.5,-500.5 1057.5,-459.5 932.5,-459.5"/>
<text text-anchor="start" x="940.5" y="-488.5" font-family="Helvetica,sans-Serif" font-size="10.00">language/lib/Catch2</text>
<text text-anchor="start" x="940.5" y="-477.5" font-family="Helvetica,sans-Serif" font-size="10.00">/include/internal/catch</text>
<text text-anchor="middle" x="995" y="-466.5" font-family="Helvetica,sans-Serif" font-size="10.00">_capture_matchers.h</text>
</a>
</g>
</g>
<!-- Node2 -->
<g id="node2" class="node">
<title>Node2</title>
<g id="a_node2"><a xlink:href="catch__capture_8hpp.html" target="_top" xlink:title=" ">
<polygon fill="white" stroke="black" points="278,-403.5 278,-422.5 384,-422.5 384,-403.5 278,-403.5"/>
<text text-anchor="middle" x="331" y="-410.5" font-family="Helvetica,sans-Serif" font-size="10.00">catch_capture.hpp</text>
</a>
</g>
</g>
<!-- Node1&#45;&gt;Node2 -->
<g id="edge1" class="edge">
<title>Node1&#45;&gt;Node2</title>
<path fill="none" stroke="midnightblue" d="M932.23,-472.86C805.7,-460.47 521.27,-432.63 394.3,-420.2"/>
<polygon fill="midnightblue" stroke="midnightblue" points="394.63,-416.71 384.33,-419.22 393.95,-423.68 394.63,-416.71"/>
</g>
<!-- Node12 -->
<g id="node12" class="node">
<title>Node12</title>
<g id="a_node12"><a xlink:href="catch__stringref_8h.html" target="_top" xlink:title=" ">
<polygon fill="white" stroke="black" points="157,-112.5 157,-131.5 255,-131.5 255,-112.5 157,-112.5"/>
<text text-anchor="middle" x="206" y="-119.5" font-family="Helvetica,sans-Serif" font-size="10.00">catch_stringref.h</text>
</a>
</g>
</g>
<!-- Node1&#45;&gt;Node12 -->
<g id="edge72" class="edge">
<title>Node1&#45;&gt;Node12</title>
<path fill="none" stroke="midnightblue" d="M932.38,-478C714.11,-473.68 0,-452.35 0,-358 0,-358 0,-358 0,-244 0,-175.34 86.13,-144.88 147.01,-131.93"/>
<polygon fill="midnightblue" stroke="midnightblue" points="147.81,-135.34 156.92,-129.93 146.42,-128.48 147.81,-135.34"/>
</g>
<!-- Node26 -->
<g id="node26" class="node">
<title>Node26</title>
<g id="a_node26"><a xlink:href="catch__matchers_8h.html" target="_top" xlink:title=" ">
<polygon fill="white" stroke="black" points="1256.5,-291.5 1256.5,-310.5 1359.5,-310.5 1359.5,-291.5 1256.5,-291.5"/>
<text text-anchor="middle" x="1308" y="-298.5" font-family="Helvetica,sans-Serif" font-size="10.00">catch_matchers.h</text>
</a>
</g>
</g>
<!-- Node1&#45;&gt;Node26 -->
<g id="edge50" class="edge">
<title>Node1&#45;&gt;Node26</title>
<path fill="none" stroke="midnightblue" d="M1057.76,-476.96C1139.8,-472.82 1276.73,-460.36 1308,-423 1332.18,-394.1 1322.48,-346.3 1314.5,-320.27"/>
<polygon fill="midnightblue" stroke="midnightblue" points="1317.75,-318.96 1311.29,-310.56 1311.11,-321.15 1317.75,-318.96"/>
</g>
<!-- Node27 -->
<g id="node27" class="node">
<title>Node27</title>
<g id="a_node27"><a xlink:href="catch__matchers__exception_8hpp.html" target="_top" xlink:title=" ">
<polygon fill="white" stroke="black" points="967,-403.5 967,-422.5 1135,-422.5 1135,-403.5 967,-403.5"/>
<text text-anchor="middle" x="1051" y="-410.5" font-family="Helvetica,sans-Serif" font-size="10.00">catch_matchers_exception.hpp</text>
</a>
</g>
</g>
<!-- Node1&#45;&gt;Node27 -->
<g id="edge54" class="edge">
<title>Node1&#45;&gt;Node27</title>
<path fill="none" stroke="midnightblue" d="M1011.8,-459.5C1019.81,-450.2 1029.28,-439.21 1036.91,-430.36"/>
<polygon fill="midnightblue" stroke="midnightblue" points="1039.67,-432.51 1043.55,-422.65 1034.37,-427.94 1039.67,-432.51"/>
</g>
<!-- Node28 -->
<g id="node28" class="node">
<title>Node28</title>
<g id="a_node28"><a xlink:href="catch__matchers__floating_8h.html" target="_top" xlink:title=" ">
<polygon fill="white" stroke="black" points="1153.5,-403.5 1153.5,-422.5 1298.5,-422.5 1298.5,-403.5 1153.5,-403.5"/>
<text text-anchor="middle" x="1226" y="-410.5" font-family="Helvetica,sans-Serif" font-size="10.00">catch_matchers_floating.h</text>
</a>
</g>
</g>
<!-- Node1&#45;&gt;Node28 -->
<g id="edge56" class="edge">
<title>Node1&#45;&gt;Node28</title>
<path fill="none" stroke="midnightblue" d="M1057.51,-461.41C1098.25,-449.95 1150.22,-435.32 1185.6,-425.37"/>
<polygon fill="midnightblue" stroke="midnightblue" points="1186.88,-428.64 1195.56,-422.56 1184.99,-421.9 1186.88,-428.64"/>
</g>
<!-- Node29 -->
<g id="node29" class="node">
<title>Node29</title>
<g id="a_node29"><a xlink:href="catch__matchers__generic_8hpp.html" target="_top" xlink:title=" ">
<polygon fill="white" stroke="black" points="1067,-347.5 1067,-366.5 1223,-366.5 1223,-347.5 1067,-347.5"/>
<text text-anchor="middle" x="1145" y="-354.5" font-family="Helvetica,sans-Serif" font-size="10.00">catch_matchers_generic.hpp</text>
</a>
</g>
</g>
<!-- Node1&#45;&gt;Node29 -->
<g id="edge58" class="edge">
<title>Node1&#45;&gt;Node29</title>
<path fill="none" stroke="midnightblue" d="M973.92,-459.27C959.22,-443.1 944.47,-420.18 958,-403 971.11,-386.36 1017.15,-375.16 1060.27,-368.1"/>
<polygon fill="midnightblue" stroke="midnightblue" points="1060.94,-371.54 1070.27,-366.52 1059.85,-364.62 1060.94,-371.54"/>
</g>
<!-- Node31 -->
<g id="node31" class="node">
<title>Node31</title>
<g id="a_node31"><a xlink:href="catch__matchers__string_8h.html" target="_top" xlink:title=" ">
<polygon fill="white" stroke="black" points="1355,-347.5 1355,-366.5 1491,-366.5 1491,-347.5 1355,-347.5"/>
<text text-anchor="middle" x="1423" y="-354.5" font-family="Helvetica,sans-Serif" font-size="10.00">catch_matchers_string.h</text>
</a>
</g>
</g>
<!-- Node1&#45;&gt;Node31 -->
<g id="edge63" class="edge">
<title>Node1&#45;&gt;Node31</title>
<path fill="none" stroke="midnightblue" d="M1057.67,-478.27C1129.11,-475.34 1248.02,-464.01 1341,-423 1367.33,-411.39 1392.47,-389.26 1407.81,-374.08"/>
<polygon fill="midnightblue" stroke="midnightblue" points="1410.39,-376.45 1414.89,-366.86 1405.39,-371.55 1410.39,-376.45"/>
</g>
<!-- Node32 -->
<g id="node32" class="node">
<title>Node32</title>
<g id="a_node32"><a xlink:href="catch__matchers__vector_8h.html" target="_top" xlink:title=" ">
<polygon fill="white" stroke="black" points="858,-347.5 858,-366.5 996,-366.5 996,-347.5 858,-347.5"/>
<text text-anchor="middle" x="927" y="-354.5" font-family="Helvetica,sans-Serif" font-size="10.00">catch_matchers_vector.h</text>
</a>
</g>
</g>
<!-- Node1&#45;&gt;Node32 -->
<g id="edge66" class="edge">
<title>Node1&#45;&gt;Node32</title>
<path fill="none" stroke="midnightblue" d="M958.8,-459.42C945.63,-450.25 932.21,-438.01 925,-423 918.05,-408.53 919.43,-390.08 922.04,-376.54"/>
<polygon fill="midnightblue" stroke="midnightblue" points="925.52,-377.04 924.36,-366.51 918.7,-375.46 925.52,-377.04"/>
</g>
<!-- Node3 -->
<g id="node3" class="node">
<title>Node3</title>
<g id="a_node3"><a xlink:href="catch__assertionhandler_8h.html" target="_top" xlink:title=" ">
<polygon fill="white" stroke="black" points="262,-347.5 262,-366.5 400,-366.5 400,-347.5 262,-347.5"/>
<text text-anchor="middle" x="331" y="-354.5" font-family="Helvetica,sans-Serif" font-size="10.00">catch_assertionhandler.h</text>
</a>
</g>
</g>
<!-- Node2&#45;&gt;Node3 -->
<g id="edge2" class="edge">
<title>Node2&#45;&gt;Node3</title>
<path fill="none" stroke="midnightblue" d="M331,-403.08C331,-396.01 331,-385.86 331,-376.99"/>
<polygon fill="midnightblue" stroke="midnightblue" points="334.5,-376.75 331,-366.75 327.5,-376.75 334.5,-376.75"/>
</g>
<!-- Node2&#45;&gt;Node12 -->
<g id="edge49" class="edge">
<title>Node2&#45;&gt;Node12</title>
<path fill="none" stroke="midnightblue" d="M278.96,-403.47C194.76,-388.17 38,-352.87 38,-302 38,-302 38,-302 38,-244 38,-183.34 111,-150.08 160.76,-134.45"/>
<polygon fill="midnightblue" stroke="midnightblue" points="161.8,-137.79 170.37,-131.55 159.79,-131.09 161.8,-137.79"/>
</g>
<!-- Node23 -->
<g id="node23" class="node">
<title>Node23</title>
<g id="a_node23"><a xlink:href="catch__interfaces__capture_8h.html" target="_top" xlink:title=" ">
<polygon fill="white" stroke="black" points="66,-235.5 66,-254.5 214,-254.5 214,-235.5 66,-235.5"/>
<text text-anchor="middle" x="140" y="-242.5" font-family="Helvetica,sans-Serif" font-size="10.00">catch_interfaces_capture.h</text>
</a>
</g>
</g>
<!-- Node2&#45;&gt;Node23 -->
<g id="edge40" class="edge">
<title>Node2&#45;&gt;Node23</title>
<path fill="none" stroke="midnightblue" d="M312.7,-403.39C296.25,-395.22 271.85,-381.98 253,-367 212.31,-334.67 172.73,-287.65 152.99,-262.82"/>
<polygon fill="midnightblue" stroke="midnightblue" points="155.58,-260.45 146.65,-254.74 150.07,-264.77 155.58,-260.45"/>
</g>
<!-- Node25 -->
<g id="node25" class="node">
<title>Node25</title>
<g id="a_node25"><a xlink:href="catch__message_8h.html" target="_top" xlink:title=" ">
<polygon fill="white" stroke="black" points="613.5,-291.5 613.5,-310.5 714.5,-310.5 714.5,-291.5 613.5,-291.5"/>
<text text-anchor="middle" x="664" y="-298.5" font-family="Helvetica,sans-Serif" font-size="10.00">catch_message.h</text>
</a>
</g>
</g>
<!-- Node2&#45;&gt;Node25 -->
<g id="edge41" class="edge">
<title>Node2&#45;&gt;Node25</title>
<path fill="none" stroke="midnightblue" d="M356.85,-403.46C415.87,-383.97 560.59,-336.16 628.16,-313.84"/>
<polygon fill="midnightblue" stroke="midnightblue" points="629.54,-317.07 637.93,-310.61 627.34,-310.42 629.54,-317.07"/>
</g>
<!-- Node4 -->
<g id="node4" class="node">
<title>Node4</title>
<g id="a_node4"><a xlink:href="catch__assertioninfo_8h.html" target="_top" xlink:title=" ">
<polygon fill="white" stroke="black" points="270.5,-235.5 270.5,-254.5 391.5,-254.5 391.5,-235.5 270.5,-235.5"/>
<text text-anchor="middle" x="331" y="-242.5" font-family="Helvetica,sans-Serif" font-size="10.00">catch_assertioninfo.h</text>
</a>
</g>
</g>
<!-- Node3&#45;&gt;Node4 -->
<g id="edge3" class="edge">
<title>Node3&#45;&gt;Node4</title>
<path fill="none" stroke="midnightblue" d="M331,-347.37C331,-329.62 331,-288.67 331,-264.6"/>
<polygon fill="midnightblue" stroke="midnightblue" points="334.5,-264.59 331,-254.59 327.5,-264.59 334.5,-264.59"/>
</g>
<!-- Node15 -->
<g id="node15" class="node">
<title>Node15</title>
<g id="a_node15"><a xlink:href="catch__decomposer_8h.html" target="_top" xlink:title=" ">
<polygon fill="white" stroke="black" points="400,-291.5 400,-310.5 516,-310.5 516,-291.5 400,-291.5"/>
<text text-anchor="middle" x="458" y="-298.5" font-family="Helvetica,sans-Serif" font-size="10.00">catch_decomposer.h</text>
</a>
</g>
</g>
<!-- Node3&#45;&gt;Node15 -->
<g id="edge16" class="edge">
<title>Node3&#45;&gt;Node15</title>
<path fill="none" stroke="midnightblue" d="M351.12,-347.44C372.02,-338.56 404.93,-324.56 428.72,-314.45"/>
<polygon fill="midnightblue" stroke="midnightblue" points="430.14,-317.65 437.97,-310.52 427.4,-311.21 430.14,-317.65"/>
</g>
<!-- Node3&#45;&gt;Node23 -->
<g id="edge35" class="edge">
<title>Node3&#45;&gt;Node23</title>
<path fill="none" stroke="midnightblue" d="M316.01,-347.37C282.96,-328.33 203.58,-282.62 163.7,-259.65"/>
<polygon fill="midnightblue" stroke="midnightblue" points="165.33,-256.55 154.92,-254.59 161.84,-262.62 165.33,-256.55"/>
</g>
<!-- Node5 -->
<g id="node5" class="node">
<title>Node5</title>
<g id="a_node5"><a xlink:href="catch__result__type_8h.html" target="_top" xlink:title=" ">
<polygon fill="white" stroke="black" points="210,-174 210,-193 322,-193 322,-174 210,-174"/>
<text text-anchor="middle" x="266" y="-181" font-family="Helvetica,sans-Serif" font-size="10.00">catch_result_type.h</text>
</a>
</g>
</g>
<!-- Node4&#45;&gt;Node5 -->
<g id="edge4" class="edge">
<title>Node4&#45;&gt;Node5</title>
<path fill="none" stroke="midnightblue" d="M321.69,-235.48C311.55,-226.2 295.14,-211.17 282.75,-199.83"/>
<polygon fill="midnightblue" stroke="midnightblue" points="285.04,-197.18 275.3,-193.01 280.31,-202.34 285.04,-197.18"/>
</g>
<!-- Node6 -->
<g id="node6" class="node">
<title>Node6</title>
<g id="a_node6"><a xlink:href="catch__common_8h.html" target="_top" xlink:title=" ">
<polygon fill="white" stroke="black" points="708,-112.5 708,-131.5 808,-131.5 808,-112.5 708,-112.5"/>
<text text-anchor="middle" x="758" y="-119.5" font-family="Helvetica,sans-Serif" font-size="10.00">catch_common.h</text>
</a>
</g>
</g>
<!-- Node4&#45;&gt;Node6 -->
<g id="edge5" class="edge">
<title>Node4&#45;&gt;Node6</title>
<path fill="none" stroke="midnightblue" d="M385.9,-235.5C431.61,-227.81 498.17,-215.23 555,-199 618.28,-180.92 689.83,-152.08 728.83,-135.61"/>
<polygon fill="midnightblue" stroke="midnightblue" points="730.64,-138.65 738.47,-131.51 727.9,-132.21 730.64,-138.65"/>
</g>
<!-- Node4&#45;&gt;Node12 -->
<g id="edge11" class="edge">
<title>Node4&#45;&gt;Node12</title>
<path fill="none" stroke="midnightblue" d="M334.02,-235.06C338.58,-219.77 345.26,-188.29 331,-168 315.96,-146.61 289.73,-135.33 265.16,-129.42"/>
<polygon fill="midnightblue" stroke="midnightblue" points="265.65,-125.94 255.14,-127.26 264.18,-132.79 265.65,-125.94"/>
</g>
<!-- Node7 -->
<g id="node7" class="node">
<title>Node7</title>
<g id="a_node7"><a xlink:href="catch__compiler__capabilities_8h.html" target="_top" xlink:title=" ">
<polygon fill="white" stroke="black" points="570.5,-56.5 570.5,-75.5 731.5,-75.5 731.5,-56.5 570.5,-56.5"/>
<text text-anchor="middle" x="651" y="-63.5" font-family="Helvetica,sans-Serif" font-size="10.00">catch_compiler_capabilities.h</text>
</a>
</g>
</g>
<!-- Node6&#45;&gt;Node7 -->
<g id="edge6" class="edge">
<title>Node6&#45;&gt;Node7</title>
<path fill="none" stroke="midnightblue" d="M740.81,-112.32C723.65,-103.66 697.05,-90.24 677.25,-80.25"/>
<polygon fill="midnightblue" stroke="midnightblue" points="678.65,-77.04 668.15,-75.65 675.5,-83.28 678.65,-77.04"/>
</g>
<!-- Node9 -->
<g id="node9" class="node">
<title>Node9</title>
<g id="a_node9"><a xlink:title=" ">
<polygon fill="white" stroke="#bfbfbf" points="504,-56.5 504,-75.5 552,-75.5 552,-56.5 504,-56.5"/>
<text text-anchor="middle" x="528" y="-63.5" font-family="Helvetica,sans-Serif" font-size="10.00">iosfwd</text>
</a>
</g>
</g>
<!-- Node6&#45;&gt;Node9 -->
<g id="edge8" class="edge">
<title>Node6&#45;&gt;Node9</title>
<path fill="none" stroke="midnightblue" d="M719.23,-112.5C679.63,-103.72 616.4,-89.44 562,-76 561.9,-75.98 561.8,-75.95 561.7,-75.93"/>
<polygon fill="midnightblue" stroke="midnightblue" points="562.67,-72.56 552.12,-73.49 560.95,-79.35 562.67,-72.56"/>
</g>
<!-- Node10 -->
<g id="node10" class="node">
<title>Node10</title>
<g id="a_node10"><a xlink:title=" ">
<polygon fill="white" stroke="#bfbfbf" points="955,-56.5 955,-75.5 999,-75.5 999,-56.5 955,-56.5"/>
<text text-anchor="middle" x="977" y="-63.5" font-family="Helvetica,sans-Serif" font-size="10.00">string</text>
</a>
</g>
</g>
<!-- Node6&#45;&gt;Node10 -->
<g id="edge9" class="edge">
<title>Node6&#45;&gt;Node10</title>
<path fill="none" stroke="midnightblue" d="M792.7,-112.44C834.53,-102.13 904.25,-84.94 944.89,-74.92"/>
<polygon fill="midnightblue" stroke="midnightblue" points="945.93,-78.27 954.8,-72.47 944.25,-71.47 945.93,-78.27"/>
</g>
<!-- Node11 -->
<g id="node11" class="node">
<title>Node11</title>
<g id="a_node11"><a xlink:title=" ">
<polygon fill="white" stroke="#bfbfbf" points="750,-56.5 750,-75.5 800,-75.5 800,-56.5 750,-56.5"/>
<text text-anchor="middle" x="775" y="-63.5" font-family="Helvetica,sans-Serif" font-size="10.00">cstdint</text>
</a>
</g>
</g>
<!-- Node6&#45;&gt;Node11 -->
<g id="edge10" class="edge">
<title>Node6&#45;&gt;Node11</title>
<path fill="none" stroke="midnightblue" d="M760.81,-112.08C763.08,-104.85 766.37,-94.41 769.21,-85.4"/>
<polygon fill="midnightblue" stroke="midnightblue" points="772.58,-86.34 772.25,-75.75 765.9,-84.24 772.58,-86.34"/>
</g>
<!-- Node8 -->
<g id="node8" class="node">
<title>Node8</title>
<g id="a_node8"><a xlink:href="catch__platform_8h.html" target="_top" xlink:title=" ">
<polygon fill="white" stroke="black" points="601.5,-0.5 601.5,-19.5 700.5,-19.5 700.5,-0.5 601.5,-0.5"/>
<text text-anchor="middle" x="651" y="-7.5" font-family="Helvetica,sans-Serif" font-size="10.00">catch_platform.h</text>
</a>
</g>
</g>
<!-- Node7&#45;&gt;Node8 -->
<g id="edge7" class="edge">
<title>Node7&#45;&gt;Node8</title>
<path fill="none" stroke="midnightblue" d="M651,-56.08C651,-49.01 651,-38.86 651,-29.99"/>
<polygon fill="midnightblue" stroke="midnightblue" points="654.5,-29.75 651,-19.75 647.5,-29.75 654.5,-29.75"/>
</g>
<!-- Node12&#45;&gt;Node9 -->
<g id="edge14" class="edge">
<title>Node12&#45;&gt;Node9</title>
<path fill="none" stroke="midnightblue" d="M255.06,-113.67C325.08,-103.16 449.38,-84.33 493.98,-75.9"/>
<polygon fill="midnightblue" stroke="midnightblue" points="494.81,-79.3 503.93,-73.9 493.43,-72.44 494.81,-79.3"/>
</g>
<!-- Node12&#45;&gt;Node10 -->
<g id="edge13" class="edge">
<title>Node12&#45;&gt;Node10</title>
<path fill="none" stroke="midnightblue" d="M255.13,-113.6C259.82,-113.01 264.49,-112.46 269,-112 402.94,-98.2 824.57,-75.15 944.74,-68.71"/>
<polygon fill="midnightblue" stroke="midnightblue" points="944.98,-72.2 954.78,-68.18 944.61,-65.21 944.98,-72.2"/>
</g>
<!-- Node13 -->
<g id="node13" class="node">
<title>Node13</title>
<g id="a_node13"><a xlink:title=" ">
<polygon fill="white" stroke="#bfbfbf" points="432.5,-56.5 432.5,-75.5 485.5,-75.5 485.5,-56.5 432.5,-56.5"/>
<text text-anchor="middle" x="459" y="-63.5" font-family="Helvetica,sans-Serif" font-size="10.00">cstddef</text>
</a>
</g>
</g>
<!-- Node12&#45;&gt;Node13 -->
<g id="edge12" class="edge">
<title>Node12&#45;&gt;Node13</title>
<path fill="none" stroke="midnightblue" d="M246.09,-112.44C294.54,-102.1 375.37,-84.85 422.26,-74.84"/>
<polygon fill="midnightblue" stroke="midnightblue" points="423.24,-78.21 432.29,-72.7 421.78,-71.36 423.24,-78.21"/>
</g>
<!-- Node14 -->
<g id="node14" class="node">
<title>Node14</title>
<g id="a_node14"><a xlink:title=" ">
<polygon fill="white" stroke="#bfbfbf" points="180,-56.5 180,-75.5 232,-75.5 232,-56.5 180,-56.5"/>
<text text-anchor="middle" x="206" y="-63.5" font-family="Helvetica,sans-Serif" font-size="10.00">cassert</text>
</a>
</g>
</g>
<!-- Node12&#45;&gt;Node14 -->
<g id="edge15" class="edge">
<title>Node12&#45;&gt;Node14</title>
<path fill="none" stroke="midnightblue" d="M206,-112.08C206,-105.01 206,-94.86 206,-85.99"/>
<polygon fill="midnightblue" stroke="midnightblue" points="209.5,-85.75 206,-75.75 202.5,-85.75 209.5,-85.75"/>
</g>
<!-- Node15&#45;&gt;Node9 -->
<g id="edge34" class="edge">
<title>Node15&#45;&gt;Node9</title>
<path fill="none" stroke="midnightblue" d="M455.01,-291.46C447.99,-270.17 432.05,-213.16 445,-168 455.39,-131.76 487.25,-100.03 508.33,-82.21"/>
<polygon fill="midnightblue" stroke="midnightblue" points="510.82,-84.7 516.35,-75.66 506.39,-79.27 510.82,-84.7"/>
</g>
<!-- Node15&#45;&gt;Node12 -->
<g id="edge31" class="edge">
<title>Node15&#45;&gt;Node12</title>
<path fill="none" stroke="midnightblue" d="M453.35,-291.46C440.18,-268.09 400.27,-202.53 349,-168 323.91,-151.1 292.13,-140.27 264.9,-133.48"/>
<polygon fill="midnightblue" stroke="midnightblue" points="265.63,-130.06 255.09,-131.16 264.02,-136.87 265.63,-130.06"/>
</g>
<!-- Node16 -->
<g id="node16" class="node">
<title>Node16</title>
<g id="a_node16"><a xlink:href="catch__tostring_8h.html" target="_top" xlink:title=" ">
<polygon fill="white" stroke="black" points="656.5,-235.5 656.5,-254.5 751.5,-254.5 751.5,-235.5 656.5,-235.5"/>
<text text-anchor="middle" x="704" y="-242.5" font-family="Helvetica,sans-Serif" font-size="10.00">catch_tostring.h</text>
</a>
</g>
</g>
<!-- Node15&#45;&gt;Node16 -->
<g id="edge17" class="edge">
<title>Node15&#45;&gt;Node16</title>
<path fill="none" stroke="midnightblue" d="M496.98,-291.44C539.89,-282.02 608.95,-266.87 655.37,-256.68"/>
<polygon fill="midnightblue" stroke="midnightblue" points="656.19,-260.08 665.2,-254.52 654.69,-253.24 656.19,-260.08"/>
</g>
<!-- Node22 -->
<g id="node22" class="node">
<title>Node22</title>
<g id="a_node22"><a xlink:href="catch__meta_8hpp.html" target="_top" xlink:title=" ">
<polygon fill="white" stroke="black" points="799.5,-235.5 799.5,-254.5 894.5,-254.5 894.5,-235.5 799.5,-235.5"/>
<text text-anchor="middle" x="847" y="-242.5" font-family="Helvetica,sans-Serif" font-size="10.00">catch_meta.hpp</text>
</a>
</g>
</g>
<!-- Node15&#45;&gt;Node22 -->
<g id="edge32" class="edge">
<title>Node15&#45;&gt;Node22</title>
<path fill="none" stroke="midnightblue" d="M516.24,-291.92C589.92,-281.69 716.04,-264.18 789.41,-253.99"/>
<polygon fill="midnightblue" stroke="midnightblue" points="789.98,-257.45 799.4,-252.61 789.02,-250.52 789.98,-257.45"/>
</g>
<!-- Node16&#45;&gt;Node7 -->
<g id="edge22" class="edge">
<title>Node16&#45;&gt;Node7</title>
<path fill="none" stroke="midnightblue" d="M694.89,-235.28C686.68,-226.83 674.99,-213.23 669,-199 653.06,-161.12 650.58,-112.22 650.55,-85.86"/>
<polygon fill="midnightblue" stroke="midnightblue" points="654.05,-85.78 650.66,-75.74 647.05,-85.7 654.05,-85.78"/>
</g>
<!-- Node16&#45;&gt;Node10 -->
<g id="edge21" class="edge">
<title>Node16&#45;&gt;Node10</title>
<path fill="none" stroke="midnightblue" d="M734.25,-235.38C757.89,-227.86 790.99,-215.55 817,-199 833.98,-188.2 834.78,-181.16 850,-168 886.98,-136.02 932.18,-100.99 957.47,-81.73"/>
<polygon fill="midnightblue" stroke="midnightblue" points="959.68,-84.45 965.53,-75.61 955.45,-78.87 959.68,-84.45"/>
</g>
<!-- Node16&#45;&gt;Node13 -->
<g id="edge19" class="edge">
<title>Node16&#45;&gt;Node13</title>
<path fill="none" stroke="midnightblue" d="M694.53,-235.33C664.19,-207.57 570.45,-122.16 555,-112 535.09,-98.91 510.77,-87.55 491.59,-79.52"/>
<polygon fill="midnightblue" stroke="midnightblue" points="492.66,-76.18 482.08,-75.64 490.02,-82.66 492.66,-76.18"/>
</g>
<!-- Node17 -->
<g id="node17" class="node">
<title>Node17</title>
<g id="a_node17"><a xlink:title=" ">
<polygon fill="white" stroke="#bfbfbf" points="951.5,-112.5 951.5,-131.5 998.5,-131.5 998.5,-112.5 951.5,-112.5"/>
<text text-anchor="middle" x="975" y="-119.5" font-family="Helvetica,sans-Serif" font-size="10.00">vector</text>
</a>
</g>
</g>
<!-- Node16&#45;&gt;Node17 -->
<g id="edge18" class="edge">
<title>Node16&#45;&gt;Node17</title>
<path fill="none" stroke="midnightblue" d="M743.38,-235.44C773.51,-228.05 815.6,-215.89 850,-199 871.47,-188.46 873.74,-180.72 894,-168 912.11,-156.63 933.25,-144.94 949.39,-136.32"/>
<polygon fill="midnightblue" stroke="midnightblue" points="951.06,-139.4 958.26,-131.63 947.78,-133.21 951.06,-139.4"/>
</g>
<!-- Node18 -->
<g id="node18" class="node">
<title>Node18</title>
<g id="a_node18"><a xlink:title=" ">
<polygon fill="white" stroke="#bfbfbf" points="902.5,-174 902.5,-193 971.5,-193 971.5,-174 902.5,-174"/>
<text text-anchor="middle" x="937" y="-181" font-family="Helvetica,sans-Serif" font-size="10.00">type_traits</text>
</a>
</g>
</g>
<!-- Node16&#45;&gt;Node18 -->
<g id="edge20" class="edge">
<title>Node16&#45;&gt;Node18</title>
<path fill="none" stroke="midnightblue" d="M741.14,-235.47C778.4,-226.78 837.36,-212.68 888,-199 891.64,-198.02 895.42,-196.96 899.2,-195.88"/>
<polygon fill="midnightblue" stroke="midnightblue" points="900.45,-199.16 909.08,-193.01 898.5,-192.44 900.45,-199.16"/>
</g>
<!-- Node19 -->
<g id="node19" class="node">
<title>Node19</title>
<g id="a_node19"><a xlink:href="catch__stream_8h.html" target="_top" xlink:title=" ">
<polygon fill="white" stroke="black" points="454,-174 454,-193 546,-193 546,-174 454,-174"/>
<text text-anchor="middle" x="500" y="-181" font-family="Helvetica,sans-Serif" font-size="10.00">catch_stream.h</text>
</a>
</g>
</g>
<!-- Node16&#45;&gt;Node19 -->
<g id="edge23" class="edge">
<title>Node16&#45;&gt;Node19</title>
<path fill="none" stroke="midnightblue" d="M674.77,-235.48C639.1,-225.07 578.64,-207.44 539.02,-195.88"/>
<polygon fill="midnightblue" stroke="midnightblue" points="539.75,-192.45 529.17,-193.01 537.79,-199.17 539.75,-192.45"/>
</g>
<!-- Node21 -->
<g id="node21" class="node">
<title>Node21</title>
<g id="a_node21"><a xlink:href="catch__interfaces__enum__values__registry_8h.html" target="_top" xlink:title=" ">
<polygon fill="white" stroke="black" points="678,-168.5 678,-198.5 808,-198.5 808,-168.5 678,-168.5"/>
<text text-anchor="start" x="686" y="-186.5" font-family="Helvetica,sans-Serif" font-size="10.00">catch_interfaces_enum</text>
<text text-anchor="middle" x="743" y="-175.5" font-family="Helvetica,sans-Serif" font-size="10.00">_values_registry.h</text>
</a>
</g>
</g>
<!-- Node16&#45;&gt;Node21 -->
<g id="edge28" class="edge">
<title>Node16&#45;&gt;Node21</title>
<path fill="none" stroke="midnightblue" d="M709.59,-235.48C714.43,-228.09 721.65,-217.08 728.14,-207.17"/>
<polygon fill="midnightblue" stroke="midnightblue" points="731.25,-208.81 733.81,-198.52 725.4,-204.97 731.25,-208.81"/>
</g>
<!-- Node19&#45;&gt;Node6 -->
<g id="edge24" class="edge">
<title>Node19&#45;&gt;Node6</title>
<path fill="none" stroke="midnightblue" d="M536.97,-173.98C582.85,-163.39 661.15,-145.34 711.18,-133.8"/>
<polygon fill="midnightblue" stroke="midnightblue" points="712.15,-137.17 721.1,-131.51 710.57,-130.35 712.15,-137.17"/>
</g>
<!-- Node19&#45;&gt;Node9 -->
<g id="edge25" class="edge">
<title>Node19&#45;&gt;Node9</title>
<path fill="none" stroke="midnightblue" d="M514.9,-173.88C528.22,-165.22 546.86,-150.51 555,-132 562.11,-115.82 552.57,-97.18 542.92,-84.02"/>
<polygon fill="midnightblue" stroke="midnightblue" points="545.4,-81.51 536.43,-75.88 539.93,-85.88 545.4,-81.51"/>
</g>
<!-- Node19&#45;&gt;Node13 -->
<g id="edge26" class="edge">
<title>Node19&#45;&gt;Node13</title>
<path fill="none" stroke="midnightblue" d="M496.43,-173.99C492.29,-164 485.35,-146.91 480,-132 474.43,-116.48 468.71,-98.64 464.65,-85.58"/>
<polygon fill="midnightblue" stroke="midnightblue" points="467.96,-84.42 461.67,-75.89 461.27,-86.48 467.96,-84.42"/>
</g>
<!-- Node20 -->
<g id="node20" class="node">
<title>Node20</title>
<g id="a_node20"><a xlink:title=" ">
<polygon fill="white" stroke="#bfbfbf" points="488.5,-112.5 488.5,-131.5 545.5,-131.5 545.5,-112.5 488.5,-112.5"/>
<text text-anchor="middle" x="517" y="-119.5" font-family="Helvetica,sans-Serif" font-size="10.00">ostream</text>
</a>
</g>
</g>
<!-- Node19&#45;&gt;Node20 -->
<g id="edge27" class="edge">
<title>Node19&#45;&gt;Node20</title>
<path fill="none" stroke="midnightblue" d="M502.44,-173.98C504.86,-165.49 508.66,-152.2 511.77,-141.32"/>
<polygon fill="midnightblue" stroke="midnightblue" points="515.19,-142.09 514.57,-131.51 508.46,-140.16 515.19,-142.09"/>
</g>
<!-- Node21&#45;&gt;Node12 -->
<g id="edge29" class="edge">
<title>Node21&#45;&gt;Node12</title>
<path fill="none" stroke="midnightblue" d="M677.96,-175.29C572.67,-163.63 366.5,-140.78 265.14,-129.55"/>
<polygon fill="midnightblue" stroke="midnightblue" points="265.4,-126.06 255.07,-128.44 264.62,-133.02 265.4,-126.06"/>
</g>
<!-- Node21&#45;&gt;Node17 -->
<g id="edge30" class="edge">
<title>Node21&#45;&gt;Node17</title>
<path fill="none" stroke="midnightblue" d="M797.69,-168.47C842.26,-157.04 903.78,-141.27 941.4,-131.62"/>
<polygon fill="midnightblue" stroke="midnightblue" points="942.52,-134.94 951.34,-129.07 940.79,-128.16 942.52,-134.94"/>
</g>
<!-- Node22&#45;&gt;Node18 -->
<g id="edge33" class="edge">
<title>Node22&#45;&gt;Node18</title>
<path fill="none" stroke="midnightblue" d="M859.89,-235.48C874.46,-225.84 898.4,-210.02 915.75,-198.55"/>
<polygon fill="midnightblue" stroke="midnightblue" points="917.72,-201.44 924.13,-193.01 913.86,-195.6 917.72,-201.44"/>
</g>
<!-- Node23&#45;&gt;Node5 -->
<g id="edge39" class="edge">
<title>Node23&#45;&gt;Node5</title>
<path fill="none" stroke="midnightblue" d="M158.05,-235.48C179.2,-225.49 214.44,-208.85 238.88,-197.31"/>
<polygon fill="midnightblue" stroke="midnightblue" points="240.43,-200.44 247.98,-193.01 237.44,-194.11 240.43,-200.44"/>
</g>
<!-- Node23&#45;&gt;Node10 -->
<g id="edge36" class="edge">
<title>Node23&#45;&gt;Node10</title>
<path fill="none" stroke="midnightblue" d="M144.33,-235.29C152.81,-219.19 173.24,-184.88 201,-168 309.07,-102.3 354.84,-130.17 480,-112 654.01,-86.73 864.49,-73.25 944.24,-68.74"/>
<polygon fill="midnightblue" stroke="midnightblue" points="944.82,-72.21 954.61,-68.16 944.43,-65.23 944.82,-72.21"/>
</g>
<!-- Node23&#45;&gt;Node12 -->
<g id="edge38" class="edge">
<title>Node23&#45;&gt;Node12</title>
<path fill="none" stroke="midnightblue" d="M126.94,-235.44C116.09,-227.47 101.43,-214.52 95,-199 89.73,-186.27 87.3,-179.43 95,-168 106.93,-150.29 127.15,-139.55 147.09,-133.03"/>
<polygon fill="midnightblue" stroke="midnightblue" points="148.22,-136.35 156.82,-130.16 146.24,-129.63 148.22,-136.35"/>
</g>
<!-- Node24 -->
<g id="node24" class="node">
<title>Node24</title>
<g id="a_node24"><a xlink:title=" ">
<polygon fill="white" stroke="#bfbfbf" points="104,-174 104,-193 154,-193 154,-174 104,-174"/>
<text text-anchor="middle" x="129" y="-181" font-family="Helvetica,sans-Serif" font-size="10.00">chrono</text>
</a>
</g>
</g>
<!-- Node23&#45;&gt;Node24 -->
<g id="edge37" class="edge">
<title>Node23&#45;&gt;Node24</title>
<path fill="none" stroke="midnightblue" d="M138.42,-235.48C136.87,-227.08 134.45,-213.98 132.45,-203.16"/>
<polygon fill="midnightblue" stroke="midnightblue" points="135.83,-202.21 130.57,-193.01 128.95,-203.48 135.83,-202.21"/>
</g>
<!-- Node25&#45;&gt;Node5 -->
<g id="edge42" class="edge">
<title>Node25&#45;&gt;Node5</title>
<path fill="none" stroke="midnightblue" d="M613.23,-296.11C507.73,-287.79 273.59,-267.96 262,-255 249.52,-241.04 253.35,-218.64 258.48,-202.84"/>
<polygon fill="midnightblue" stroke="midnightblue" points="261.88,-203.74 262.05,-193.14 255.31,-201.32 261.88,-203.74"/>
</g>
<!-- Node25&#45;&gt;Node6 -->
<g id="edge43" class="edge">
<title>Node25&#45;&gt;Node6</title>
<path fill="none" stroke="midnightblue" d="M714.6,-297.01C764.51,-292.58 842.1,-281.69 904,-255 942.86,-238.25 961.8,-236.71 981,-199 987.25,-186.72 989.73,-178.66 981,-168 960.8,-143.31 877.29,-131.86 818.41,-126.77"/>
<polygon fill="midnightblue" stroke="midnightblue" points="818.35,-123.26 808.1,-125.93 817.78,-130.23 818.35,-123.26"/>
</g>
<!-- Node25&#45;&gt;Node10 -->
<g id="edge47" class="edge">
<title>Node25&#45;&gt;Node10</title>
<path fill="none" stroke="midnightblue" d="M714.77,-297.2C790.31,-292.25 927.89,-280.05 970,-255 1026.52,-221.38 1029.76,-174.06 1008,-112 1004.36,-101.61 997.65,-91.4 991.4,-83.33"/>
<polygon fill="midnightblue" stroke="midnightblue" points="994.03,-81.01 984.97,-75.52 988.62,-85.46 994.03,-81.01"/>
</g>
<!-- Node25&#45;&gt;Node16 -->
<g id="edge46" class="edge">
<title>Node25&#45;&gt;Node16</title>
<path fill="none" stroke="midnightblue" d="M670.61,-291.08C676.26,-283.46 684.54,-272.26 691.45,-262.94"/>
<polygon fill="midnightblue" stroke="midnightblue" points="694.38,-264.87 697.52,-254.75 688.75,-260.7 694.38,-264.87"/>
</g>
<!-- Node25&#45;&gt;Node17 -->
<g id="edge48" class="edge">
<title>Node25&#45;&gt;Node17</title>
<path fill="none" stroke="midnightblue" d="M714.66,-300.76C772.26,-299.63 867.68,-291.65 940,-255 971.68,-238.95 983.26,-231.75 997,-199 1005.18,-179.49 995.55,-155.94 986.59,-140.28"/>
<polygon fill="midnightblue" stroke="midnightblue" points="989.49,-138.32 981.25,-131.65 983.53,-142 989.49,-138.32"/>
</g>
<!-- Node25&#45;&gt;Node19 -->
<g id="edge44" class="edge">
<title>Node25&#45;&gt;Node19</title>
<path fill="none" stroke="midnightblue" d="M651.67,-291.32C623.77,-271.67 555.53,-223.61 520.9,-199.22"/>
<polygon fill="midnightblue" stroke="midnightblue" points="522.66,-196.18 512.47,-193.28 518.63,-201.9 522.66,-196.18"/>
</g>
<!-- Node25&#45;&gt;Node23 -->
<g id="edge45" class="edge">
<title>Node25&#45;&gt;Node23</title>
<path fill="none" stroke="midnightblue" d="M613.28,-294.77C523.12,-285.48 334.11,-266 224.18,-254.68"/>
<polygon fill="midnightblue" stroke="midnightblue" points="224.43,-251.18 214.12,-253.64 223.71,-258.15 224.43,-251.18"/>
</g>
<!-- Node26&#45;&gt;Node6 -->
<g id="edge51" class="edge">
<title>Node26&#45;&gt;Node6</title>
<path fill="none" stroke="midnightblue" d="M1295.07,-291.38C1258.61,-267.51 1151.16,-200.2 1052,-168 973.54,-142.52 878.51,-131.32 818.15,-126.5"/>
<polygon fill="midnightblue" stroke="midnightblue" points="818.27,-122.99 808.03,-125.72 817.73,-129.97 818.27,-122.99"/>
</g>
<!-- Node26&#45;&gt;Node10 -->
<g id="edge52" class="edge">
<title>Node26&#45;&gt;Node10</title>
<path fill="none" stroke="midnightblue" d="M1307.85,-291.19C1306.83,-260.89 1299.11,-160.17 1242,-112 1207.27,-82.7 1072.04,-71.94 1009.3,-68.46"/>
<polygon fill="midnightblue" stroke="midnightblue" points="1009.34,-64.96 999.17,-67.93 1008.98,-71.95 1009.34,-64.96"/>
</g>
<!-- Node26&#45;&gt;Node17 -->
<g id="edge53" class="edge">
<title>Node26&#45;&gt;Node17</title>
<path fill="none" stroke="midnightblue" d="M1301.41,-291.29C1282.91,-267.5 1227.77,-200.96 1166,-168 1115.34,-140.97 1048.59,-130.03 1008.9,-125.7"/>
<polygon fill="midnightblue" stroke="midnightblue" points="1009,-122.2 998.7,-124.67 1008.3,-129.16 1009,-122.2"/>
</g>
<!-- Node27&#45;&gt;Node26 -->
<g id="edge55" class="edge">
<title>Node27&#45;&gt;Node26</title>
<path fill="none" stroke="midnightblue" d="M1115.56,-403.42C1151.32,-396.87 1195.73,-385.68 1232,-367 1256.22,-354.52 1279.31,-332.92 1293.55,-318.06"/>
<polygon fill="midnightblue" stroke="midnightblue" points="1296.24,-320.31 1300.5,-310.61 1291.12,-315.53 1296.24,-320.31"/>
</g>
<!-- Node28&#45;&gt;Node26 -->
<g id="edge57" class="edge">
<title>Node28&#45;&gt;Node26</title>
<path fill="none" stroke="midnightblue" d="M1234.12,-403.32C1242.26,-394.46 1255,-380.18 1265,-367 1276.85,-351.39 1289.06,-332.64 1297.42,-319.29"/>
<polygon fill="midnightblue" stroke="midnightblue" points="1300.48,-321 1302.77,-310.66 1294.53,-317.31 1300.48,-321"/>
</g>
<!-- Node29&#45;&gt;Node6 -->
<g id="edge59" class="edge">
<title>Node29&#45;&gt;Node6</title>
<path fill="none" stroke="midnightblue" d="M1141.11,-347.49C1126.83,-317.32 1074.08,-214.73 997,-168 942.62,-135.03 869.49,-125.28 818.51,-122.84"/>
<polygon fill="midnightblue" stroke="midnightblue" points="818.43,-119.33 808.3,-122.43 818.15,-126.33 818.43,-119.33"/>
</g>
<!-- Node29&#45;&gt;Node10 -->
<g id="edge62" class="edge">
<title>Node29&#45;&gt;Node10</title>
<path fill="none" stroke="midnightblue" d="M1163.31,-347.46C1177.74,-339.83 1197.3,-327.35 1209,-311 1226.52,-286.52 1228,-276.1 1228,-246 1228,-246 1228,-246 1228,-182.5 1228,-87.34 1077.26,-70.3 1009.42,-67.46"/>
<polygon fill="midnightblue" stroke="midnightblue" points="1009.39,-63.95 999.27,-67.11 1009.15,-70.95 1009.39,-63.95"/>
</g>
<!-- Node29&#45;&gt;Node26 -->
<g id="edge60" class="edge">
<title>Node29&#45;&gt;Node26</title>
<path fill="none" stroke="midnightblue" d="M1170.83,-347.44C1198.25,-338.36 1241.78,-323.94 1272.43,-313.78"/>
<polygon fill="midnightblue" stroke="midnightblue" points="1273.9,-316.98 1282.29,-310.52 1271.7,-310.34 1273.9,-316.98"/>
</g>
<!-- Node30 -->
<g id="node30" class="node">
<title>Node30</title>
<g id="a_node30"><a xlink:title=" ">
<polygon fill="white" stroke="#bfbfbf" points="1134.5,-291.5 1134.5,-310.5 1199.5,-310.5 1199.5,-291.5 1134.5,-291.5"/>
<text text-anchor="middle" x="1167" y="-298.5" font-family="Helvetica,sans-Serif" font-size="10.00">functional</text>
</a>
</g>
</g>
<!-- Node29&#45;&gt;Node30 -->
<g id="edge61" class="edge">
<title>Node29&#45;&gt;Node30</title>
<path fill="none" stroke="midnightblue" d="M1148.63,-347.08C1151.61,-339.77 1155.93,-329.18 1159.62,-320.1"/>
<polygon fill="midnightblue" stroke="midnightblue" points="1162.9,-321.33 1163.43,-310.75 1156.42,-318.69 1162.9,-321.33"/>
</g>
<!-- Node31&#45;&gt;Node10 -->
<g id="edge65" class="edge">
<title>Node31&#45;&gt;Node10</title>
<path fill="none" stroke="midnightblue" d="M1420.71,-347.23C1416.07,-328.69 1406,-284.07 1406,-246 1406,-246 1406,-246 1406,-182.5 1406,-100.36 1109.04,-74.95 1009.26,-68.73"/>
<polygon fill="midnightblue" stroke="midnightblue" points="1009.35,-65.23 999.16,-68.12 1008.93,-72.22 1009.35,-65.23"/>
</g>
<!-- Node31&#45;&gt;Node26 -->
<g id="edge64" class="edge">
<title>Node31&#45;&gt;Node26</title>
<path fill="none" stroke="midnightblue" d="M1404.78,-347.44C1386.1,-338.68 1356.84,-324.94 1335.38,-314.86"/>
<polygon fill="midnightblue" stroke="midnightblue" points="1336.68,-311.6 1326.14,-310.52 1333.7,-317.93 1336.68,-311.6"/>
</g>
<!-- Node32&#45;&gt;Node26 -->
<g id="edge67" class="edge">
<title>Node32&#45;&gt;Node26</title>
<path fill="none" stroke="midnightblue" d="M987.37,-347.44C1058.17,-337.41 1174.9,-320.87 1246.27,-310.75"/>
<polygon fill="midnightblue" stroke="midnightblue" points="1247.06,-314.17 1256.46,-309.3 1246.07,-307.24 1247.06,-314.17"/>
</g>
<!-- Node33 -->
<g id="node33" class="node">
<title>Node33</title>
<g id="a_node33"><a xlink:href="catch__approx_8h.html" target="_top" xlink:title=" ">
<polygon fill="white" stroke="black" points="929.5,-291.5 929.5,-310.5 1020.5,-310.5 1020.5,-291.5 929.5,-291.5"/>
<text text-anchor="middle" x="975" y="-298.5" font-family="Helvetica,sans-Serif" font-size="10.00">catch_approx.h</text>
</a>
</g>
</g>
<!-- Node32&#45;&gt;Node33 -->
<g id="edge68" class="edge">
<title>Node32&#45;&gt;Node33</title>
<path fill="none" stroke="midnightblue" d="M934.93,-347.08C941.85,-339.3 952.07,-327.8 960.45,-318.37"/>
<polygon fill="midnightblue" stroke="midnightblue" points="963.19,-320.55 967.22,-310.75 957.96,-315.9 963.19,-320.55"/>
</g>
<!-- Node34 -->
<g id="node34" class="node">
<title>Node34</title>
<g id="a_node34"><a xlink:title=" ">
<polygon fill="white" stroke="#bfbfbf" points="847,-291.5 847,-310.5 911,-310.5 911,-291.5 847,-291.5"/>
<text text-anchor="middle" x="879" y="-298.5" font-family="Helvetica,sans-Serif" font-size="10.00">algorithm</text>
</a>
</g>
</g>
<!-- Node32&#45;&gt;Node34 -->
<g id="edge71" class="edge">
<title>Node32&#45;&gt;Node34</title>
<path fill="none" stroke="midnightblue" d="M919.07,-347.08C912.15,-339.3 901.93,-327.8 893.55,-318.37"/>
<polygon fill="midnightblue" stroke="midnightblue" points="896.04,-315.9 886.78,-310.75 890.81,-320.55 896.04,-315.9"/>
</g>
<!-- Node33&#45;&gt;Node16 -->
<g id="edge69" class="edge">
<title>Node33&#45;&gt;Node16</title>
<path fill="none" stroke="midnightblue" d="M932.06,-291.44C884.49,-281.96 807.76,-266.67 756.61,-256.48"/>
<polygon fill="midnightblue" stroke="midnightblue" points="757.23,-253.04 746.74,-254.52 755.86,-259.9 757.23,-253.04"/>
</g>
<!-- Node33&#45;&gt;Node18 -->
<g id="edge70" class="edge">
<title>Node33&#45;&gt;Node18</title>
<path fill="none" stroke="midnightblue" d="M972.14,-291.32C965.98,-272.59 951.33,-228.05 943.02,-202.79"/>
<polygon fill="midnightblue" stroke="midnightblue" points="946.34,-201.69 939.89,-193.28 939.69,-203.87 946.34,-201.69"/>
</g>
</g>
</svg>
