<?xml version="1.0" encoding="UTF-8" standalone="no"?>
<!DOCTYPE svg PUBLIC "-//W3C//DTD SVG 1.1//EN"
 "http://www.w3.org/Graphics/SVG/1.1/DTD/svg11.dtd">
<!-- Generated by graphviz version 2.43.0 (0)
 -->
<!-- Title: language/lib/Catch2/include/internal/catch_message.cpp Pages: 1 -->
<!--zoomable 397 -->
<svg id="main" version="1.1" xmlns="http://www.w3.org/2000/svg" xmlns:xlink="http://www.w3.org/1999/xlink" xml:space="preserve" onload="init(evt)">
<style type="text/css"><![CDATA[
.edge:hover path { stroke: red; }
.edge:hover polygon { stroke: red; fill: red; }
]]></style>
<script type="text/javascript"><![CDATA[
var edges = document.getElementsByTagName('g');
if (edges && edges.length) {
  for (var i=0;i<edges.length;i++) {
    if (edges[i].id.substr(0,4)=='edge') {
      edges[i].setAttribute('class','edge');
    }
  }
}
]]></script>
        <defs>
                <circle id="rim" cx="0" cy="0" r="7"/>
                <circle id="rim2" cx="0" cy="0" r="3.5"/>
                <g id="zoomPlus">
                        <use xlink:href="#rim" fill="#404040">
                                <set attributeName="fill" to="#808080" begin="zoomplus.mouseover" end="zoomplus.mouseout"/>
                        </use>
                        <path d="M-4,0h8M0,-4v8" fill="none" stroke="white" stroke-width="1.5" pointer-events="none"/>
                </g>
                <g id="zoomMin">
                        <use xlink:href="#rim" fill="#404040">
                                <set attributeName="fill" to="#808080" begin="zoomminus.mouseover" end="zoomminus.mouseout"/>
                        </use>
                        <path d="M-4,0h8" fill="none" stroke="white" stroke-width="1.5" pointer-events="none"/>
                </g>
                <g id="dirArrow">
                        <path fill="none" stroke="white" stroke-width="1.5" d="M0,-3.0v7 M-2.5,-0.5L0,-3.0L2.5,-0.5"/>
                </g>
               <g id="resetDef">
                       <use xlink:href="#rim2" fill="#404040">
                               <set attributeName="fill" to="#808080" begin="reset.mouseover" end="reset.mouseout"/>
                       </use>
               </g>
        </defs>

<script type="text/javascript">
var viewWidth = 1137;
var viewHeight = 397;
var sectionId = 'dynsection-0';
</script>
<script xlink:href="svgpan.js"/>
<svg id="graph" class="graph">
<g id="viewport">
<title>language/lib/Catch2/include/internal/catch_message.cpp</title>
<polygon fill="white" stroke="transparent" points="-4,4 -4,-393 1133,-393 1133,4 -4,4"/>
<!-- Node1 -->
<g id="node1" class="node">
<title>Node1</title>
<g id="a_node1"><a xlink:title=" ">
<polygon fill="#bfbfbf" stroke="black" points="831,-347.5 831,-388.5 956,-388.5 956,-347.5 831,-347.5"/>
<text text-anchor="start" x="839" y="-376.5" font-family="Helvetica,sans-Serif" font-size="10.00">language/lib/Catch2</text>
<text text-anchor="start" x="839" y="-365.5" font-family="Helvetica,sans-Serif" font-size="10.00">/include/internal/catch</text>
<text text-anchor="middle" x="893.5" y="-354.5" font-family="Helvetica,sans-Serif" font-size="10.00">_message.cpp</text>
</a>
</g>
</g>
<!-- Node2 -->
<g id="node2" class="node">
<title>Node2</title>
<g id="a_node2"><a xlink:href="catch__message_8h.html" target="_top" xlink:title=" ">
<polygon fill="white" stroke="black" points="657,-291.5 657,-310.5 758,-310.5 758,-291.5 657,-291.5"/>
<text text-anchor="middle" x="707.5" y="-298.5" font-family="Helvetica,sans-Serif" font-size="10.00">catch_message.h</text>
</a>
</g>
</g>
<!-- Node1&#45;&gt;Node2 -->
<g id="edge1" class="edge">
<title>Node1&#45;&gt;Node2</title>
<path fill="none" stroke="midnightblue" d="M837.69,-347.5C806.57,-336.62 768.8,-323.42 741.97,-314.05"/>
<polygon fill="midnightblue" stroke="midnightblue" points="742.85,-310.65 732.26,-310.65 740.54,-317.26 742.85,-310.65"/>
</g>
<!-- Node13 -->
<g id="node13" class="node">
<title>Node13</title>
<g id="a_node13"><a xlink:href="catch__interfaces__capture_8h.html" target="_top" xlink:title=" ">
<polygon fill="white" stroke="black" points="825.5,-235.5 825.5,-254.5 973.5,-254.5 973.5,-235.5 825.5,-235.5"/>
<text text-anchor="middle" x="899.5" y="-242.5" font-family="Helvetica,sans-Serif" font-size="10.00">catch_interfaces_capture.h</text>
</a>
</g>
</g>
<!-- Node1&#45;&gt;Node13 -->
<g id="edge35" class="edge">
<title>Node1&#45;&gt;Node13</title>
<path fill="none" stroke="midnightblue" d="M875.42,-347.26C863.79,-332.07 852.1,-310.46 859.5,-291 863.84,-279.6 872.53,-269.24 880.71,-261.34"/>
<polygon fill="midnightblue" stroke="midnightblue" points="883.14,-263.86 888.23,-254.57 878.46,-258.66 883.14,-263.86"/>
</g>
<!-- Node16 -->
<g id="node16" class="node">
<title>Node16</title>
<g id="a_node16"><a xlink:title=" ">
<polygon fill="white" stroke="#bfbfbf" points="889.5,-56.5 889.5,-75.5 941.5,-75.5 941.5,-56.5 889.5,-56.5"/>
<text text-anchor="middle" x="915.5" y="-63.5" font-family="Helvetica,sans-Serif" font-size="10.00">cassert</text>
</a>
</g>
</g>
<!-- Node1&#45;&gt;Node16 -->
<g id="edge42" class="edge">
<title>Node1&#45;&gt;Node16</title>
<path fill="none" stroke="midnightblue" d="M956.06,-356.06C984.74,-348.06 1017.04,-334.34 1038.5,-311 1058.87,-288.84 1057.5,-276.1 1057.5,-246 1057.5,-246 1057.5,-246 1057.5,-182.5 1057.5,-127.78 993.25,-94.42 951.19,-78.44"/>
<polygon fill="midnightblue" stroke="midnightblue" points="952.14,-75.06 941.54,-74.93 949.74,-81.64 952.14,-75.06"/>
</g>
<!-- Node21 -->
<g id="node21" class="node">
<title>Node21</title>
<g id="a_node21"><a xlink:href="catch__uncaught__exceptions_8h.html" target="_top" xlink:title=" ">
<polygon fill="white" stroke="black" points="868,-291.5 868,-310.5 1029,-310.5 1029,-291.5 868,-291.5"/>
<text text-anchor="middle" x="948.5" y="-298.5" font-family="Helvetica,sans-Serif" font-size="10.00">catch_uncaught_exceptions.h</text>
</a>
</g>
</g>
<!-- Node1&#45;&gt;Node21 -->
<g id="edge36" class="edge">
<title>Node1&#45;&gt;Node21</title>
<path fill="none" stroke="midnightblue" d="M910,-347.5C917.87,-338.2 927.17,-327.21 934.66,-318.36"/>
<polygon fill="midnightblue" stroke="midnightblue" points="937.39,-320.55 941.18,-310.65 932.05,-316.03 937.39,-320.55"/>
</g>
<!-- Node22 -->
<g id="node22" class="node">
<title>Node22</title>
<g id="a_node22"><a xlink:href="catch__enforce_8h.html" target="_top" xlink:title=" ">
<polygon fill="white" stroke="black" points="84.5,-235.5 84.5,-254.5 178.5,-254.5 178.5,-235.5 84.5,-235.5"/>
<text text-anchor="middle" x="131.5" y="-242.5" font-family="Helvetica,sans-Serif" font-size="10.00">catch_enforce.h</text>
</a>
</g>
</g>
<!-- Node1&#45;&gt;Node22 -->
<g id="edge37" class="edge">
<title>Node1&#45;&gt;Node22</title>
<path fill="none" stroke="midnightblue" d="M830.82,-357.05C685.64,-333.99 328.1,-277.22 188.57,-255.06"/>
<polygon fill="midnightblue" stroke="midnightblue" points="188.94,-251.58 178.51,-253.47 187.84,-258.49 188.94,-251.58"/>
</g>
<!-- Node24 -->
<g id="node24" class="node">
<title>Node24</title>
<g id="a_node24"><a xlink:title=" ">
<polygon fill="white" stroke="#bfbfbf" points="1086,-291.5 1086,-310.5 1129,-310.5 1129,-291.5 1086,-291.5"/>
<text text-anchor="middle" x="1107.5" y="-298.5" font-family="Helvetica,sans-Serif" font-size="10.00">stack</text>
</a>
</g>
</g>
<!-- Node1&#45;&gt;Node24 -->
<g id="edge43" class="edge">
<title>Node1&#45;&gt;Node24</title>
<path fill="none" stroke="midnightblue" d="M956.26,-347.94C995.6,-335.99 1044.61,-321.1 1075.99,-311.57"/>
<polygon fill="midnightblue" stroke="midnightblue" points="1077.36,-314.81 1085.91,-308.56 1075.32,-308.12 1077.36,-314.81"/>
</g>
<!-- Node3 -->
<g id="node3" class="node">
<title>Node3</title>
<g id="a_node3"><a xlink:href="catch__result__type_8h.html" target="_top" xlink:title=" ">
<polygon fill="white" stroke="black" points="773.5,-174 773.5,-193 885.5,-193 885.5,-174 773.5,-174"/>
<text text-anchor="middle" x="829.5" y="-181" font-family="Helvetica,sans-Serif" font-size="10.00">catch_result_type.h</text>
</a>
</g>
</g>
<!-- Node2&#45;&gt;Node3 -->
<g id="edge2" class="edge">
<title>Node2&#45;&gt;Node3</title>
<path fill="none" stroke="midnightblue" d="M718.06,-291.26C728.72,-282.36 745.54,-268.04 759.5,-255 778.86,-236.92 800.18,-215.17 814.14,-200.65"/>
<polygon fill="midnightblue" stroke="midnightblue" points="816.7,-203.04 821.09,-193.4 811.64,-198.2 816.7,-203.04"/>
</g>
<!-- Node4 -->
<g id="node4" class="node">
<title>Node4</title>
<g id="a_node4"><a xlink:href="catch__common_8h.html" target="_top" xlink:title=" ">
<polygon fill="white" stroke="black" points="159.5,-112.5 159.5,-131.5 259.5,-131.5 259.5,-112.5 159.5,-112.5"/>
<text text-anchor="middle" x="209.5" y="-119.5" font-family="Helvetica,sans-Serif" font-size="10.00">catch_common.h</text>
</a>
</g>
</g>
<!-- Node2&#45;&gt;Node4 -->
<g id="edge3" class="edge">
<title>Node2&#45;&gt;Node4</title>
<path fill="none" stroke="midnightblue" d="M656.88,-298.31C587.15,-294.92 458.18,-284.83 352.5,-255 294.3,-238.57 267.26,-245.41 228.5,-199 215.04,-182.88 210.91,-158.57 209.74,-141.8"/>
<polygon fill="midnightblue" stroke="midnightblue" points="213.23,-141.45 209.33,-131.59 206.24,-141.73 213.23,-141.45"/>
</g>
<!-- Node8 -->
<g id="node8" class="node">
<title>Node8</title>
<g id="a_node8"><a xlink:title=" ">
<polygon fill="white" stroke="#bfbfbf" points="685.5,-56.5 685.5,-75.5 729.5,-75.5 729.5,-56.5 685.5,-56.5"/>
<text text-anchor="middle" x="707.5" y="-63.5" font-family="Helvetica,sans-Serif" font-size="10.00">string</text>
</a>
</g>
</g>
<!-- Node2&#45;&gt;Node8 -->
<g id="edge33" class="edge">
<title>Node2&#45;&gt;Node8</title>
<path fill="none" stroke="midnightblue" d="M708.09,-291.38C709.81,-264.7 714.57,-181.14 711.5,-112 711.12,-103.37 710.32,-93.84 709.54,-85.78"/>
<polygon fill="midnightblue" stroke="midnightblue" points="713,-85.2 708.49,-75.61 706.04,-85.92 713,-85.2"/>
</g>
<!-- Node10 -->
<g id="node10" class="node">
<title>Node10</title>
<g id="a_node10"><a xlink:href="catch__stream_8h.html" target="_top" xlink:title=" ">
<polygon fill="white" stroke="black" points="237.5,-174 237.5,-193 329.5,-193 329.5,-174 237.5,-174"/>
<text text-anchor="middle" x="283.5" y="-181" font-family="Helvetica,sans-Serif" font-size="10.00">catch_stream.h</text>
</a>
</g>
</g>
<!-- Node2&#45;&gt;Node10 -->
<g id="edge9" class="edge">
<title>Node2&#45;&gt;Node10</title>
<path fill="none" stroke="midnightblue" d="M656.75,-299.12C593.67,-296.59 483.59,-287.41 395.5,-255 359.65,-241.81 323.13,-216.02 301.93,-199.56"/>
<polygon fill="midnightblue" stroke="midnightblue" points="303.84,-196.6 293.83,-193.14 299.49,-202.09 303.84,-196.6"/>
</g>
<!-- Node2&#45;&gt;Node13 -->
<g id="edge14" class="edge">
<title>Node2&#45;&gt;Node13</title>
<path fill="none" stroke="midnightblue" d="M737.92,-291.44C770.78,-282.2 823.28,-267.44 859.47,-257.26"/>
<polygon fill="midnightblue" stroke="midnightblue" points="860.54,-260.59 869.22,-254.52 858.65,-253.85 860.54,-260.59"/>
</g>
<!-- Node17 -->
<g id="node17" class="node">
<title>Node17</title>
<g id="a_node17"><a xlink:href="catch__tostring_8h.html" target="_top" xlink:title=" ">
<polygon fill="white" stroke="black" points="405,-235.5 405,-254.5 500,-254.5 500,-235.5 405,-235.5"/>
<text text-anchor="middle" x="452.5" y="-242.5" font-family="Helvetica,sans-Serif" font-size="10.00">catch_tostring.h</text>
</a>
</g>
</g>
<!-- Node2&#45;&gt;Node17 -->
<g id="edge23" class="edge">
<title>Node2&#45;&gt;Node17</title>
<path fill="none" stroke="midnightblue" d="M667.09,-291.44C622.52,-282 550.73,-266.8 502.61,-256.61"/>
<polygon fill="midnightblue" stroke="midnightblue" points="503.22,-253.16 492.72,-254.52 501.77,-260.01 503.22,-253.16"/>
</g>
<!-- Node18 -->
<g id="node18" class="node">
<title>Node18</title>
<g id="a_node18"><a xlink:title=" ">
<polygon fill="white" stroke="#bfbfbf" points="516,-112.5 516,-131.5 563,-131.5 563,-112.5 516,-112.5"/>
<text text-anchor="middle" x="539.5" y="-119.5" font-family="Helvetica,sans-Serif" font-size="10.00">vector</text>
</a>
</g>
</g>
<!-- Node2&#45;&gt;Node18 -->
<g id="edge34" class="edge">
<title>Node2&#45;&gt;Node18</title>
<path fill="none" stroke="midnightblue" d="M706.1,-291.31C701.91,-268.13 687.45,-204.12 650.5,-168 639.06,-156.82 601.28,-142.82 572.95,-133.43"/>
<polygon fill="midnightblue" stroke="midnightblue" points="573.97,-130.09 563.38,-130.32 571.8,-136.74 573.97,-130.09"/>
</g>
<!-- Node5 -->
<g id="node5" class="node">
<title>Node5</title>
<g id="a_node5"><a xlink:href="catch__compiler__capabilities_8h.html" target="_top" xlink:title=" ">
<polygon fill="white" stroke="black" points="15,-56.5 15,-75.5 176,-75.5 176,-56.5 15,-56.5"/>
<text text-anchor="middle" x="95.5" y="-63.5" font-family="Helvetica,sans-Serif" font-size="10.00">catch_compiler_capabilities.h</text>
</a>
</g>
</g>
<!-- Node4&#45;&gt;Node5 -->
<g id="edge4" class="edge">
<title>Node4&#45;&gt;Node5</title>
<path fill="none" stroke="midnightblue" d="M191.44,-112.44C172.93,-103.68 143.92,-89.94 122.64,-79.86"/>
<polygon fill="midnightblue" stroke="midnightblue" points="124.01,-76.63 113.48,-75.52 121.02,-82.96 124.01,-76.63"/>
</g>
<!-- Node7 -->
<g id="node7" class="node">
<title>Node7</title>
<g id="a_node7"><a xlink:title=" ">
<polygon fill="white" stroke="#bfbfbf" points="263.5,-56.5 263.5,-75.5 311.5,-75.5 311.5,-56.5 263.5,-56.5"/>
<text text-anchor="middle" x="287.5" y="-63.5" font-family="Helvetica,sans-Serif" font-size="10.00">iosfwd</text>
</a>
</g>
</g>
<!-- Node4&#45;&gt;Node7 -->
<g id="edge6" class="edge">
<title>Node4&#45;&gt;Node7</title>
<path fill="none" stroke="midnightblue" d="M222.03,-112.32C234.09,-103.98 252.53,-91.21 266.77,-81.35"/>
<polygon fill="midnightblue" stroke="midnightblue" points="268.77,-84.22 275,-75.65 264.78,-78.47 268.77,-84.22"/>
</g>
<!-- Node4&#45;&gt;Node8 -->
<g id="edge7" class="edge">
<title>Node4&#45;&gt;Node8</title>
<path fill="none" stroke="midnightblue" d="M259.53,-115.58C361.48,-104.52 590.76,-79.66 675.36,-70.49"/>
<polygon fill="midnightblue" stroke="midnightblue" points="675.83,-73.95 685.39,-69.4 675.07,-67 675.83,-73.95"/>
</g>
<!-- Node9 -->
<g id="node9" class="node">
<title>Node9</title>
<g id="a_node9"><a xlink:title=" ">
<polygon fill="white" stroke="#bfbfbf" points="194.5,-56.5 194.5,-75.5 244.5,-75.5 244.5,-56.5 194.5,-56.5"/>
<text text-anchor="middle" x="219.5" y="-63.5" font-family="Helvetica,sans-Serif" font-size="10.00">cstdint</text>
</a>
</g>
</g>
<!-- Node4&#45;&gt;Node9 -->
<g id="edge8" class="edge">
<title>Node4&#45;&gt;Node9</title>
<path fill="none" stroke="midnightblue" d="M211.15,-112.08C212.48,-104.93 214.38,-94.64 216.04,-85.69"/>
<polygon fill="midnightblue" stroke="midnightblue" points="219.5,-86.22 217.88,-75.75 212.62,-84.95 219.5,-86.22"/>
</g>
<!-- Node6 -->
<g id="node6" class="node">
<title>Node6</title>
<g id="a_node6"><a xlink:href="catch__platform_8h.html" target="_top" xlink:title=" ">
<polygon fill="white" stroke="black" points="46,-0.5 46,-19.5 145,-19.5 145,-0.5 46,-0.5"/>
<text text-anchor="middle" x="95.5" y="-7.5" font-family="Helvetica,sans-Serif" font-size="10.00">catch_platform.h</text>
</a>
</g>
</g>
<!-- Node5&#45;&gt;Node6 -->
<g id="edge5" class="edge">
<title>Node5&#45;&gt;Node6</title>
<path fill="none" stroke="midnightblue" d="M95.5,-56.08C95.5,-49.01 95.5,-38.86 95.5,-29.99"/>
<polygon fill="midnightblue" stroke="midnightblue" points="99,-29.75 95.5,-19.75 92,-29.75 99,-29.75"/>
</g>
<!-- Node10&#45;&gt;Node4 -->
<g id="edge10" class="edge">
<title>Node10&#45;&gt;Node4</title>
<path fill="none" stroke="midnightblue" d="M272.9,-173.98C261.25,-164.61 242.31,-149.38 228.17,-138.01"/>
<polygon fill="midnightblue" stroke="midnightblue" points="230.07,-135.05 220.08,-131.51 225.68,-140.5 230.07,-135.05"/>
</g>
<!-- Node10&#45;&gt;Node7 -->
<g id="edge11" class="edge">
<title>Node10&#45;&gt;Node7</title>
<path fill="none" stroke="midnightblue" d="M283.8,-173.82C284.44,-155.26 285.96,-111.34 286.84,-85.97"/>
<polygon fill="midnightblue" stroke="midnightblue" points="290.35,-85.9 287.2,-75.78 283.35,-85.65 290.35,-85.9"/>
</g>
<!-- Node11 -->
<g id="node11" class="node">
<title>Node11</title>
<g id="a_node11"><a xlink:title=" ">
<polygon fill="white" stroke="#bfbfbf" points="413,-56.5 413,-75.5 466,-75.5 466,-56.5 413,-56.5"/>
<text text-anchor="middle" x="439.5" y="-63.5" font-family="Helvetica,sans-Serif" font-size="10.00">cstddef</text>
</a>
</g>
</g>
<!-- Node10&#45;&gt;Node11 -->
<g id="edge12" class="edge">
<title>Node10&#45;&gt;Node11</title>
<path fill="none" stroke="midnightblue" d="M305.47,-173.94C326.27,-165.23 357.74,-150.4 381.5,-132 399.35,-118.17 416.11,-98.37 426.97,-84.26"/>
<polygon fill="midnightblue" stroke="midnightblue" points="430.02,-86.03 433.22,-75.93 424.42,-81.83 430.02,-86.03"/>
</g>
<!-- Node12 -->
<g id="node12" class="node">
<title>Node12</title>
<g id="a_node12"><a xlink:title=" ">
<polygon fill="white" stroke="#bfbfbf" points="316,-112.5 316,-131.5 373,-131.5 373,-112.5 316,-112.5"/>
<text text-anchor="middle" x="344.5" y="-119.5" font-family="Helvetica,sans-Serif" font-size="10.00">ostream</text>
</a>
</g>
</g>
<!-- Node10&#45;&gt;Node12 -->
<g id="edge13" class="edge">
<title>Node10&#45;&gt;Node12</title>
<path fill="none" stroke="midnightblue" d="M292.24,-173.98C301.66,-164.78 316.86,-149.96 328.45,-138.66"/>
<polygon fill="midnightblue" stroke="midnightblue" points="331.06,-141 335.78,-131.51 326.17,-135.99 331.06,-141"/>
</g>
<!-- Node13&#45;&gt;Node3 -->
<g id="edge22" class="edge">
<title>Node13&#45;&gt;Node3</title>
<path fill="none" stroke="midnightblue" d="M889.47,-235.48C878.45,-226.11 860.54,-210.88 847.16,-199.51"/>
<polygon fill="midnightblue" stroke="midnightblue" points="849.4,-196.82 839.51,-193.01 844.86,-202.15 849.4,-196.82"/>
</g>
<!-- Node13&#45;&gt;Node8 -->
<g id="edge15" class="edge">
<title>Node13&#45;&gt;Node8</title>
<path fill="none" stroke="midnightblue" d="M904.76,-235.29C913.04,-220.36 926.84,-189.4 913.5,-168 875.2,-106.57 787.45,-81.45 739.77,-72.06"/>
<polygon fill="midnightblue" stroke="midnightblue" points="740.15,-68.57 729.68,-70.18 738.87,-75.45 740.15,-68.57"/>
</g>
<!-- Node14 -->
<g id="node14" class="node">
<title>Node14</title>
<g id="a_node14"><a xlink:title=" ">
<polygon fill="white" stroke="#bfbfbf" points="979.5,-174 979.5,-193 1029.5,-193 1029.5,-174 979.5,-174"/>
<text text-anchor="middle" x="1004.5" y="-181" font-family="Helvetica,sans-Serif" font-size="10.00">chrono</text>
</a>
</g>
</g>
<!-- Node13&#45;&gt;Node14 -->
<g id="edge16" class="edge">
<title>Node13&#45;&gt;Node14</title>
<path fill="none" stroke="midnightblue" d="M914.54,-235.48C931.78,-225.71 960.24,-209.58 980.53,-198.08"/>
<polygon fill="midnightblue" stroke="midnightblue" points="982.51,-200.98 989.48,-193.01 979.06,-194.89 982.51,-200.98"/>
</g>
<!-- Node15 -->
<g id="node15" class="node">
<title>Node15</title>
<g id="a_node15"><a xlink:href="catch__stringref_8h.html" target="_top" xlink:title=" ">
<polygon fill="white" stroke="black" points="581.5,-112.5 581.5,-131.5 679.5,-131.5 679.5,-112.5 581.5,-112.5"/>
<text text-anchor="middle" x="630.5" y="-119.5" font-family="Helvetica,sans-Serif" font-size="10.00">catch_stringref.h</text>
</a>
</g>
</g>
<!-- Node13&#45;&gt;Node15 -->
<g id="edge17" class="edge">
<title>Node13&#45;&gt;Node15</title>
<path fill="none" stroke="midnightblue" d="M901.97,-235.42C905.87,-219.83 911.41,-186.76 894.5,-168 867.92,-138.52 759.37,-128.35 690,-124.84"/>
<polygon fill="midnightblue" stroke="midnightblue" points="689.8,-121.33 679.65,-124.35 689.47,-128.32 689.8,-121.33"/>
</g>
<!-- Node15&#45;&gt;Node7 -->
<g id="edge20" class="edge">
<title>Node15&#45;&gt;Node7</title>
<path fill="none" stroke="midnightblue" d="M581.36,-113.26C510.79,-102.15 382.55,-81.96 321.53,-72.36"/>
<polygon fill="midnightblue" stroke="midnightblue" points="322.06,-68.9 311.63,-70.8 320.97,-75.81 322.06,-68.9"/>
</g>
<!-- Node15&#45;&gt;Node8 -->
<g id="edge19" class="edge">
<title>Node15&#45;&gt;Node8</title>
<path fill="none" stroke="midnightblue" d="M642.87,-112.32C654.66,-104.06 672.63,-91.45 686.64,-81.63"/>
<polygon fill="midnightblue" stroke="midnightblue" points="688.98,-84.26 695.16,-75.65 684.96,-78.53 688.98,-84.26"/>
</g>
<!-- Node15&#45;&gt;Node11 -->
<g id="edge18" class="edge">
<title>Node15&#45;&gt;Node11</title>
<path fill="none" stroke="midnightblue" d="M600.24,-112.44C566.49,-102.9 511.92,-87.47 475.88,-77.28"/>
<polygon fill="midnightblue" stroke="midnightblue" points="476.81,-73.91 466.23,-74.56 474.9,-80.65 476.81,-73.91"/>
</g>
<!-- Node15&#45;&gt;Node16 -->
<g id="edge21" class="edge">
<title>Node15&#45;&gt;Node16</title>
<path fill="none" stroke="midnightblue" d="M675.66,-112.44C732.05,-101.76 827.38,-83.7 879.25,-73.87"/>
<polygon fill="midnightblue" stroke="midnightblue" points="880.15,-77.26 889.33,-71.96 878.85,-70.38 880.15,-77.26"/>
</g>
<!-- Node17&#45;&gt;Node5 -->
<g id="edge28" class="edge">
<title>Node17&#45;&gt;Node5</title>
<path fill="none" stroke="midnightblue" d="M404.8,-241.43C357.86,-237.32 285.18,-226.66 228.5,-199 173.36,-172.09 127.28,-113.19 106.84,-84.04"/>
<polygon fill="midnightblue" stroke="midnightblue" points="109.66,-81.97 101.12,-75.7 103.89,-85.93 109.66,-81.97"/>
</g>
<!-- Node17&#45;&gt;Node8 -->
<g id="edge27" class="edge">
<title>Node17&#45;&gt;Node8</title>
<path fill="none" stroke="midnightblue" d="M500.16,-243.73C543.31,-241.22 606.65,-231.59 650.5,-199 687.46,-171.53 700.76,-115.09 705.3,-85.71"/>
<polygon fill="midnightblue" stroke="midnightblue" points="708.79,-85.95 706.68,-75.57 701.86,-85 708.79,-85.95"/>
</g>
<!-- Node17&#45;&gt;Node10 -->
<g id="edge29" class="edge">
<title>Node17&#45;&gt;Node10</title>
<path fill="none" stroke="midnightblue" d="M428.29,-235.48C399.17,-225.22 350.13,-207.96 317.3,-196.4"/>
<polygon fill="midnightblue" stroke="midnightblue" points="318.26,-193.03 307.67,-193.01 315.94,-199.63 318.26,-193.03"/>
</g>
<!-- Node17&#45;&gt;Node11 -->
<g id="edge25" class="edge">
<title>Node17&#45;&gt;Node11</title>
<path fill="none" stroke="midnightblue" d="M424.48,-235.4C407.33,-228.51 386.75,-216.98 376.5,-199 369.68,-187.03 371.81,-180.95 376.5,-168 383.59,-148.42 395.05,-149.4 406.5,-132 416.38,-116.99 425.46,-98.62 431.58,-85.25"/>
<polygon fill="midnightblue" stroke="midnightblue" points="434.94,-86.31 435.81,-75.75 428.54,-83.46 434.94,-86.31"/>
</g>
<!-- Node17&#45;&gt;Node18 -->
<g id="edge24" class="edge">
<title>Node17&#45;&gt;Node18</title>
<path fill="none" stroke="midnightblue" d="M457.76,-235.37C466.58,-221.05 485.07,-191.65 502.5,-168 509.62,-158.33 518.1,-147.95 525.14,-139.6"/>
<polygon fill="midnightblue" stroke="midnightblue" points="528.02,-141.62 531.84,-131.74 522.69,-137.08 528.02,-141.62"/>
</g>
<!-- Node19 -->
<g id="node19" class="node">
<title>Node19</title>
<g id="a_node19"><a xlink:title=" ">
<polygon fill="white" stroke="#bfbfbf" points="386,-174 386,-193 455,-193 455,-174 386,-174"/>
<text text-anchor="middle" x="420.5" y="-181" font-family="Helvetica,sans-Serif" font-size="10.00">type_traits</text>
</a>
</g>
</g>
<!-- Node17&#45;&gt;Node19 -->
<g id="edge26" class="edge">
<title>Node17&#45;&gt;Node19</title>
<path fill="none" stroke="midnightblue" d="M447.92,-235.48C443.26,-226.82 435.91,-213.15 429.99,-202.15"/>
<polygon fill="midnightblue" stroke="midnightblue" points="432.9,-200.16 425.08,-193.01 426.73,-203.47 432.9,-200.16"/>
</g>
<!-- Node20 -->
<g id="node20" class="node">
<title>Node20</title>
<g id="a_node20"><a xlink:href="catch__interfaces__enum__values__registry_8h.html" target="_top" xlink:title=" ">
<polygon fill="white" stroke="black" points="511.5,-168.5 511.5,-198.5 641.5,-198.5 641.5,-168.5 511.5,-168.5"/>
<text text-anchor="start" x="519.5" y="-186.5" font-family="Helvetica,sans-Serif" font-size="10.00">catch_interfaces_enum</text>
<text text-anchor="middle" x="576.5" y="-175.5" font-family="Helvetica,sans-Serif" font-size="10.00">_values_registry.h</text>
</a>
</g>
</g>
<!-- Node17&#45;&gt;Node20 -->
<g id="edge30" class="edge">
<title>Node17&#45;&gt;Node20</title>
<path fill="none" stroke="midnightblue" d="M470.27,-235.48C487.92,-227 515.57,-213.74 538.23,-202.86"/>
<polygon fill="midnightblue" stroke="midnightblue" points="539.77,-206 547.28,-198.52 536.75,-199.69 539.77,-206"/>
</g>
<!-- Node20&#45;&gt;Node15 -->
<g id="edge31" class="edge">
<title>Node20&#45;&gt;Node15</title>
<path fill="none" stroke="midnightblue" d="M589.3,-168.4C597.22,-159.66 607.44,-148.41 615.71,-139.3"/>
<polygon fill="midnightblue" stroke="midnightblue" points="618.51,-141.42 622.64,-131.66 613.33,-136.71 618.51,-141.42"/>
</g>
<!-- Node20&#45;&gt;Node18 -->
<g id="edge32" class="edge">
<title>Node20&#45;&gt;Node18</title>
<path fill="none" stroke="midnightblue" d="M567.73,-168.4C562.52,-160.02 555.87,-149.33 550.33,-140.42"/>
<polygon fill="midnightblue" stroke="midnightblue" points="553.14,-138.3 544.88,-131.66 547.19,-142 553.14,-138.3"/>
</g>
<!-- Node22&#45;&gt;Node4 -->
<g id="edge38" class="edge">
<title>Node22&#45;&gt;Node4</title>
<path fill="none" stroke="midnightblue" d="M137.11,-235.3C149.93,-215.41 181.55,-166.35 198.45,-140.15"/>
<polygon fill="midnightblue" stroke="midnightblue" points="201.46,-141.92 203.94,-131.62 195.58,-138.13 201.46,-141.92"/>
</g>
<!-- Node22&#45;&gt;Node5 -->
<g id="edge39" class="edge">
<title>Node22&#45;&gt;Node5</title>
<path fill="none" stroke="midnightblue" d="M129.76,-235.46C124.26,-208.43 107.14,-124.24 99.39,-86.11"/>
<polygon fill="midnightblue" stroke="midnightblue" points="102.73,-84.97 97.3,-75.87 95.87,-86.37 102.73,-84.97"/>
</g>
<!-- Node22&#45;&gt;Node10 -->
<g id="edge40" class="edge">
<title>Node22&#45;&gt;Node10</title>
<path fill="none" stroke="midnightblue" d="M153.28,-235.48C179.24,-225.31 222.81,-208.26 252.33,-196.7"/>
<polygon fill="midnightblue" stroke="midnightblue" points="253.73,-199.91 261.76,-193.01 251.17,-193.4 253.73,-199.91"/>
</g>
<!-- Node23 -->
<g id="node23" class="node">
<title>Node23</title>
<g id="a_node23"><a xlink:title=" ">
<polygon fill="white" stroke="#bfbfbf" points="0,-174 0,-193 65,-193 65,-174 0,-174"/>
<text text-anchor="middle" x="32.5" y="-181" font-family="Helvetica,sans-Serif" font-size="10.00">exception</text>
</a>
</g>
</g>
<!-- Node22&#45;&gt;Node23 -->
<g id="edge41" class="edge">
<title>Node22&#45;&gt;Node23</title>
<path fill="none" stroke="midnightblue" d="M117.32,-235.48C101.14,-225.75 74.47,-209.73 55.36,-198.24"/>
<polygon fill="midnightblue" stroke="midnightblue" points="57.03,-195.16 46.66,-193.01 53.43,-201.16 57.03,-195.16"/>
</g>
</g>
</svg>
        <g id="navigator" transform="translate(0 0)" fill="#404254">
                <rect fill="#f2f5e9" fill-opacity="0.5" stroke="#606060" stroke-width=".5" x="0" y="0" width="60" height="60"/>
                <use id="zoomplus" xlink:href="#zoomPlus" x="17" y="9" onmousedown="handleZoom(evt,'in')"/>
                <use id="zoomminus" xlink:href="#zoomMin" x="42" y="9" onmousedown="handleZoom(evt,'out')"/>
                <use id="reset" xlink:href="#resetDef" x="30" y="36" onmousedown="handleReset()"/>
                <g id="arrowUp" xlink:href="#dirArrow" transform="translate(30 24)" onmousedown="handlePan(0,-1)">
                  <use xlink:href="#rim" fill="#404040">
                        <set attributeName="fill" to="#808080" begin="arrowUp.mouseover" end="arrowUp.mouseout"/>
                  </use>
                  <path fill="none" stroke="white" stroke-width="1.5" d="M0,-3.0v7 M-2.5,-0.5L0,-3.0L2.5,-0.5"/>
                </g>
                <g id="arrowRight" xlink:href="#dirArrow" transform="rotate(90) translate(36 -43)" onmousedown="handlePan(1,0)">
                  <use xlink:href="#rim" fill="#404040">
                        <set attributeName="fill" to="#808080" begin="arrowRight.mouseover" end="arrowRight.mouseout"/>
                  </use>
                  <path fill="none" stroke="white" stroke-width="1.5" d="M0,-3.0v7 M-2.5,-0.5L0,-3.0L2.5,-0.5"/>
                </g>
                <g id="arrowDown" xlink:href="#dirArrow" transform="rotate(180) translate(-30 -48)" onmousedown="handlePan(0,1)">
                  <use xlink:href="#rim" fill="#404040">
                        <set attributeName="fill" to="#808080" begin="arrowDown.mouseover" end="arrowDown.mouseout"/>
                  </use>
                  <path fill="none" stroke="white" stroke-width="1.5" d="M0,-3.0v7 M-2.5,-0.5L0,-3.0L2.5,-0.5"/>
                </g>
                <g id="arrowLeft" xlink:href="#dirArrow" transform="rotate(270) translate(-36 17)" onmousedown="handlePan(-1,0)">
                  <use xlink:href="#rim" fill="#404040">
                        <set attributeName="fill" to="#808080" begin="arrowLeft.mouseover" end="arrowLeft.mouseout"/>
                  </use>
                  <path fill="none" stroke="white" stroke-width="1.5" d="M0,-3.0v7 M-2.5,-0.5L0,-3.0L2.5,-0.5"/>
                </g>
        </g>
        <svg viewBox="0 0 15 15" width="100%" height="30px" preserveAspectRatio="xMaxYMin meet">
         <g id="arrow_out" transform="scale(0.3 0.3)">
          <a xlink:href="catch__message_8cpp__incl_org.svg" target="_base">
           <rect id="button" ry="5" rx="5" y="6" x="6" height="38" width="38"
                fill="#f2f5e9" fill-opacity="0.5" stroke="#606060" stroke-width="1.0"/>
           <path id="arrow"
             d="M 11.500037,31.436501 C 11.940474,20.09759 22.043105,11.32322 32.158766,21.979434 L 37.068811,17.246167 C 37.068811,17.246167 37.088388,32 37.088388,32 L 22.160133,31.978069 C 22.160133,31.978069 26.997745,27.140456 26.997745,27.140456 C 18.528582,18.264221 13.291696,25.230495 11.500037,31.436501 z"
             style="fill:#404040;"/>
          </a>
         </g>
        </svg>
</svg>
