<?xml version="1.0" encoding="UTF-8" standalone="no"?>
<!DOCTYPE svg PUBLIC "-//W3C//DTD SVG 1.1//EN"
 "http://www.w3.org/Graphics/SVG/1.1/DTD/svg11.dtd">
<!-- Generated by graphviz version 2.43.0 (0)
 -->
<!-- Title: language/lib/Catch2/include/internal/catch_string_manip.cpp Pages: 1 -->
<svg width="589pt" height="218pt"
 viewBox="0.00 0.00 589.00 218.00" xmlns="http://www.w3.org/2000/svg" xmlns:xlink="http://www.w3.org/1999/xlink">
<g id="graph0" class="graph" transform="scale(1 1) rotate(0) translate(4 214)">
<title>language/lib/Catch2/include/internal/catch_string_manip.cpp</title>
<polygon fill="white" stroke="transparent" points="-4,4 -4,-214 585,-214 585,4 -4,4"/>
<!-- Node1 -->
<g id="node1" class="node">
<title>Node1</title>
<g id="a_node1"><a xlink:title=" ">
<polygon fill="#bfbfbf" stroke="black" points="275,-168.5 275,-209.5 400,-209.5 400,-168.5 275,-168.5"/>
<text text-anchor="start" x="283" y="-197.5" font-family="Helvetica,sans-Serif" font-size="10.00">language/lib/Catch2</text>
<text text-anchor="start" x="283" y="-186.5" font-family="Helvetica,sans-Serif" font-size="10.00">/include/internal/catch</text>
<text text-anchor="middle" x="337.5" y="-175.5" font-family="Helvetica,sans-Serif" font-size="10.00">_string_manip.cpp</text>
</a>
</g>
</g>
<!-- Node2 -->
<g id="node2" class="node">
<title>Node2</title>
<g id="a_node2"><a xlink:href="catch__string__manip_8h.html" target="_top" xlink:title=" ">
<polygon fill="white" stroke="black" points="128,-112.5 128,-131.5 249,-131.5 249,-112.5 128,-112.5"/>
<text text-anchor="middle" x="188.5" y="-119.5" font-family="Helvetica,sans-Serif" font-size="10.00">catch_string_manip.h</text>
</a>
</g>
</g>
<!-- Node1&#45;&gt;Node2 -->
<g id="edge1" class="edge">
<title>Node1&#45;&gt;Node2</title>
<path fill="none" stroke="midnightblue" d="M292.8,-168.5C268.41,-157.86 238.93,-145 217.54,-135.67"/>
<polygon fill="midnightblue" stroke="midnightblue" points="218.9,-132.44 208.33,-131.65 216.1,-138.86 218.9,-132.44"/>
</g>
<!-- Node3 -->
<g id="node3" class="node">
<title>Node3</title>
<g id="a_node3"><a xlink:href="catch__stringref_8h.html" target="_top" xlink:title=" ">
<polygon fill="white" stroke="black" points="55.5,-56.5 55.5,-75.5 153.5,-75.5 153.5,-56.5 55.5,-56.5"/>
<text text-anchor="middle" x="104.5" y="-63.5" font-family="Helvetica,sans-Serif" font-size="10.00">catch_stringref.h</text>
</a>
</g>
</g>
<!-- Node1&#45;&gt;Node3 -->
<g id="edge10" class="edge">
<title>Node1&#45;&gt;Node3</title>
<path fill="none" stroke="midnightblue" d="M274.79,-179.25C218.31,-170.1 140.96,-153.99 119.5,-132 107.76,-119.96 104.51,-100.67 103.9,-86.23"/>
<polygon fill="midnightblue" stroke="midnightblue" points="107.4,-85.9 103.86,-75.91 100.4,-85.93 107.4,-85.9"/>
</g>
<!-- Node8 -->
<g id="node8" class="node">
<title>Node8</title>
<g id="a_node8"><a xlink:title=" ">
<polygon fill="white" stroke="#bfbfbf" points="253,-56.5 253,-75.5 300,-75.5 300,-56.5 253,-56.5"/>
<text text-anchor="middle" x="276.5" y="-63.5" font-family="Helvetica,sans-Serif" font-size="10.00">vector</text>
</a>
</g>
</g>
<!-- Node1&#45;&gt;Node8 -->
<g id="edge15" class="edge">
<title>Node1&#45;&gt;Node8</title>
<path fill="none" stroke="midnightblue" d="M320.57,-168.32C312.4,-158.03 302.99,-144.92 296.5,-132 289.05,-117.16 283.75,-99.01 280.49,-85.67"/>
<polygon fill="midnightblue" stroke="midnightblue" points="283.86,-84.73 278.22,-75.76 277.04,-86.29 283.86,-84.73"/>
</g>
<!-- Node9 -->
<g id="node9" class="node">
<title>Node9</title>
<g id="a_node9"><a xlink:title=" ">
<polygon fill="white" stroke="#bfbfbf" points="305.5,-112.5 305.5,-131.5 369.5,-131.5 369.5,-112.5 305.5,-112.5"/>
<text text-anchor="middle" x="337.5" y="-119.5" font-family="Helvetica,sans-Serif" font-size="10.00">algorithm</text>
</a>
</g>
</g>
<!-- Node1&#45;&gt;Node9 -->
<g id="edge11" class="edge">
<title>Node1&#45;&gt;Node9</title>
<path fill="none" stroke="midnightblue" d="M337.5,-168.5C337.5,-160.07 337.5,-150.24 337.5,-141.87"/>
<polygon fill="midnightblue" stroke="midnightblue" points="341,-141.65 337.5,-131.65 334,-141.65 341,-141.65"/>
</g>
<!-- Node10 -->
<g id="node10" class="node">
<title>Node10</title>
<g id="a_node10"><a xlink:title=" ">
<polygon fill="white" stroke="#bfbfbf" points="388,-112.5 388,-131.5 445,-131.5 445,-112.5 388,-112.5"/>
<text text-anchor="middle" x="416.5" y="-119.5" font-family="Helvetica,sans-Serif" font-size="10.00">ostream</text>
</a>
</g>
</g>
<!-- Node1&#45;&gt;Node10 -->
<g id="edge12" class="edge">
<title>Node1&#45;&gt;Node10</title>
<path fill="none" stroke="midnightblue" d="M361.2,-168.5C373.08,-158.72 387.24,-147.07 398.26,-138.01"/>
<polygon fill="midnightblue" stroke="midnightblue" points="400.49,-140.71 405.98,-131.65 396.04,-135.3 400.49,-140.71"/>
</g>
<!-- Node11 -->
<g id="node11" class="node">
<title>Node11</title>
<g id="a_node11"><a xlink:title=" ">
<polygon fill="white" stroke="#bfbfbf" points="463.5,-112.5 463.5,-131.5 513.5,-131.5 513.5,-112.5 463.5,-112.5"/>
<text text-anchor="middle" x="488.5" y="-119.5" font-family="Helvetica,sans-Serif" font-size="10.00">cstring</text>
</a>
</g>
</g>
<!-- Node1&#45;&gt;Node11 -->
<g id="edge13" class="edge">
<title>Node1&#45;&gt;Node11</title>
<path fill="none" stroke="midnightblue" d="M382.8,-168.5C407.51,-157.86 437.39,-145 459.07,-135.67"/>
<polygon fill="midnightblue" stroke="midnightblue" points="460.6,-138.82 468.4,-131.65 457.83,-132.39 460.6,-138.82"/>
</g>
<!-- Node12 -->
<g id="node12" class="node">
<title>Node12</title>
<g id="a_node12"><a xlink:title=" ">
<polygon fill="white" stroke="#bfbfbf" points="532,-112.5 532,-131.5 581,-131.5 581,-112.5 532,-112.5"/>
<text text-anchor="middle" x="556.5" y="-119.5" font-family="Helvetica,sans-Serif" font-size="10.00">cctype</text>
</a>
</g>
</g>
<!-- Node1&#45;&gt;Node12 -->
<g id="edge14" class="edge">
<title>Node1&#45;&gt;Node12</title>
<path fill="none" stroke="midnightblue" d="M400.26,-169.37C439.83,-157.63 489.44,-142.9 522,-133.24"/>
<polygon fill="midnightblue" stroke="midnightblue" points="523.35,-136.49 531.94,-130.29 521.36,-129.78 523.35,-136.49"/>
</g>
<!-- Node2&#45;&gt;Node3 -->
<g id="edge2" class="edge">
<title>Node2&#45;&gt;Node3</title>
<path fill="none" stroke="midnightblue" d="M175,-112.32C161.9,-103.9 141.79,-90.97 126.39,-81.07"/>
<polygon fill="midnightblue" stroke="midnightblue" points="128.27,-78.12 117.96,-75.65 124.48,-84.01 128.27,-78.12"/>
</g>
<!-- Node5 -->
<g id="node5" class="node">
<title>Node5</title>
<g id="a_node5"><a xlink:title=" ">
<polygon fill="white" stroke="#bfbfbf" points="141.5,-0.5 141.5,-19.5 185.5,-19.5 185.5,-0.5 141.5,-0.5"/>
<text text-anchor="middle" x="163.5" y="-7.5" font-family="Helvetica,sans-Serif" font-size="10.00">string</text>
</a>
</g>
</g>
<!-- Node2&#45;&gt;Node5 -->
<g id="edge7" class="edge">
<title>Node2&#45;&gt;Node5</title>
<path fill="none" stroke="midnightblue" d="M186.54,-112.37C182.5,-94.62 173.2,-53.67 167.73,-29.6"/>
<polygon fill="midnightblue" stroke="midnightblue" points="171.08,-28.57 165.45,-19.59 164.26,-30.12 171.08,-28.57"/>
</g>
<!-- Node6 -->
<g id="node6" class="node">
<title>Node6</title>
<g id="a_node6"><a xlink:title=" ">
<polygon fill="white" stroke="#bfbfbf" points="203.5,-0.5 203.5,-19.5 251.5,-19.5 251.5,-0.5 203.5,-0.5"/>
<text text-anchor="middle" x="227.5" y="-7.5" font-family="Helvetica,sans-Serif" font-size="10.00">iosfwd</text>
</a>
</g>
</g>
<!-- Node2&#45;&gt;Node6 -->
<g id="edge8" class="edge">
<title>Node2&#45;&gt;Node6</title>
<path fill="none" stroke="midnightblue" d="M191.56,-112.37C197.88,-94.54 212.5,-53.3 221.02,-29.27"/>
<polygon fill="midnightblue" stroke="midnightblue" points="224.41,-30.19 224.45,-19.59 217.81,-27.85 224.41,-30.19"/>
</g>
<!-- Node2&#45;&gt;Node8 -->
<g id="edge9" class="edge">
<title>Node2&#45;&gt;Node8</title>
<path fill="none" stroke="midnightblue" d="M202.64,-112.32C216.37,-103.9 237.44,-90.97 253.56,-81.07"/>
<polygon fill="midnightblue" stroke="midnightblue" points="255.7,-83.87 262.4,-75.65 252.04,-77.9 255.7,-83.87"/>
</g>
<!-- Node4 -->
<g id="node4" class="node">
<title>Node4</title>
<g id="a_node4"><a xlink:title=" ">
<polygon fill="white" stroke="#bfbfbf" points="0,-0.5 0,-19.5 53,-19.5 53,-0.5 0,-0.5"/>
<text text-anchor="middle" x="26.5" y="-7.5" font-family="Helvetica,sans-Serif" font-size="10.00">cstddef</text>
</a>
</g>
</g>
<!-- Node3&#45;&gt;Node4 -->
<g id="edge3" class="edge">
<title>Node3&#45;&gt;Node4</title>
<path fill="none" stroke="midnightblue" d="M91.97,-56.32C79.91,-47.98 61.47,-35.21 47.23,-25.35"/>
<polygon fill="midnightblue" stroke="midnightblue" points="49.22,-22.47 39,-19.65 45.23,-28.22 49.22,-22.47"/>
</g>
<!-- Node3&#45;&gt;Node5 -->
<g id="edge4" class="edge">
<title>Node3&#45;&gt;Node5</title>
<path fill="none" stroke="midnightblue" d="M113.98,-56.32C122.7,-48.34 135.84,-36.31 146.4,-26.65"/>
<polygon fill="midnightblue" stroke="midnightblue" points="148.83,-29.17 153.85,-19.83 144.11,-24 148.83,-29.17"/>
</g>
<!-- Node3&#45;&gt;Node6 -->
<g id="edge5" class="edge">
<title>Node3&#45;&gt;Node6</title>
<path fill="none" stroke="midnightblue" d="M123.99,-56.44C144.14,-47.6 175.82,-33.69 198.83,-23.59"/>
<polygon fill="midnightblue" stroke="midnightblue" points="200.35,-26.74 208.1,-19.52 197.54,-20.33 200.35,-26.74"/>
</g>
<!-- Node7 -->
<g id="node7" class="node">
<title>Node7</title>
<g id="a_node7"><a xlink:title=" ">
<polygon fill="white" stroke="#bfbfbf" points="71.5,-0.5 71.5,-19.5 123.5,-19.5 123.5,-0.5 71.5,-0.5"/>
<text text-anchor="middle" x="97.5" y="-7.5" font-family="Helvetica,sans-Serif" font-size="10.00">cassert</text>
</a>
</g>
</g>
<!-- Node3&#45;&gt;Node7 -->
<g id="edge6" class="edge">
<title>Node3&#45;&gt;Node7</title>
<path fill="none" stroke="midnightblue" d="M103.34,-56.08C102.42,-48.93 101.08,-38.64 99.92,-29.69"/>
<polygon fill="midnightblue" stroke="midnightblue" points="103.39,-29.22 98.63,-19.75 96.45,-30.12 103.39,-29.22"/>
</g>
</g>
</svg>
