<?xml version="1.0" encoding="UTF-8" standalone="no"?>
<!DOCTYPE svg PUBLIC "-//W3C//DTD SVG 1.1//EN"
 "http://www.w3.org/Graphics/SVG/1.1/DTD/svg11.dtd">
<!-- Generated by graphviz version 2.43.0 (0)
 -->
<!-- Title: language/lib/Catch2/include/internal/catch_message.h Pages: 1 -->
<!--zoomable 341 -->
<svg id="main" version="1.1" xmlns="http://www.w3.org/2000/svg" xmlns:xlink="http://www.w3.org/1999/xlink" xml:space="preserve" onload="init(evt)">
<style type="text/css"><![CDATA[
.edge:hover path { stroke: red; }
.edge:hover polygon { stroke: red; fill: red; }
]]></style>
<script type="text/javascript"><![CDATA[
var edges = document.getElementsByTagName('g');
if (edges && edges.length) {
  for (var i=0;i<edges.length;i++) {
    if (edges[i].id.substr(0,4)=='edge') {
      edges[i].setAttribute('class','edge');
    }
  }
}
]]></script>
        <defs>
                <circle id="rim" cx="0" cy="0" r="7"/>
                <circle id="rim2" cx="0" cy="0" r="3.5"/>
                <g id="zoomPlus">
                        <use xlink:href="#rim" fill="#404040">
                                <set attributeName="fill" to="#808080" begin="zoomplus.mouseover" end="zoomplus.mouseout"/>
                        </use>
                        <path d="M-4,0h8M0,-4v8" fill="none" stroke="white" stroke-width="1.5" pointer-events="none"/>
                </g>
                <g id="zoomMin">
                        <use xlink:href="#rim" fill="#404040">
                                <set attributeName="fill" to="#808080" begin="zoomminus.mouseover" end="zoomminus.mouseout"/>
                        </use>
                        <path d="M-4,0h8" fill="none" stroke="white" stroke-width="1.5" pointer-events="none"/>
                </g>
                <g id="dirArrow">
                        <path fill="none" stroke="white" stroke-width="1.5" d="M0,-3.0v7 M-2.5,-0.5L0,-3.0L2.5,-0.5"/>
                </g>
               <g id="resetDef">
                       <use xlink:href="#rim2" fill="#404040">
                               <set attributeName="fill" to="#808080" begin="reset.mouseover" end="reset.mouseout"/>
                       </use>
               </g>
        </defs>

<script type="text/javascript">
var viewWidth = 862;
var viewHeight = 341;
var sectionId = 'dynsection-0';
</script>
<script xlink:href="svgpan.js"/>
<svg id="graph" class="graph">
<g id="viewport">
<title>language/lib/Catch2/include/internal/catch_message.h</title>
<polygon fill="white" stroke="transparent" points="-4,4 -4,-337 857.53,-337 857.53,4 -4,4"/>
<!-- Node1 -->
<g id="node1" class="node">
<title>Node1</title>
<g id="a_node1"><a xlink:title=" ">
<polygon fill="#bfbfbf" stroke="black" points="213.17,-291.5 213.17,-332.5 338.17,-332.5 338.17,-291.5 213.17,-291.5"/>
<text text-anchor="start" x="221.17" y="-320.5" font-family="Helvetica,sans-Serif" font-size="10.00">language/lib/Catch2</text>
<text text-anchor="start" x="221.17" y="-309.5" font-family="Helvetica,sans-Serif" font-size="10.00">/include/internal/catch</text>
<text text-anchor="middle" x="275.67" y="-298.5" font-family="Helvetica,sans-Serif" font-size="10.00">_message.h</text>
</a>
</g>
</g>
<!-- Node2 -->
<g id="node2" class="node">
<title>Node2</title>
<g id="a_node2"><a xlink:href="catch__result__type_8h.html" target="_top" xlink:title=" ">
<polygon fill="white" stroke="black" points="15.67,-174 15.67,-193 127.67,-193 127.67,-174 15.67,-174"/>
<text text-anchor="middle" x="71.67" y="-181" font-family="Helvetica,sans-Serif" font-size="10.00">catch_result_type.h</text>
</a>
</g>
</g>
<!-- Node1&#45;&gt;Node2 -->
<g id="edge1" class="edge">
<title>Node1&#45;&gt;Node2</title>
<path fill="none" stroke="midnightblue" d="M212.78,-307.22C172.67,-301.52 122.45,-287.76 90.67,-255 77.32,-241.23 73.12,-219.12 71.91,-203.33"/>
<polygon fill="midnightblue" stroke="midnightblue" points="75.4,-203 71.47,-193.16 68.4,-203.3 75.4,-203"/>
</g>
<!-- Node3 -->
<g id="node3" class="node">
<title>Node3</title>
<g id="a_node3"><a xlink:href="catch__common_8h.html" target="_top" xlink:title=" ">
<polygon fill="white" stroke="black" points="289.67,-112.5 289.67,-131.5 389.67,-131.5 389.67,-112.5 289.67,-112.5"/>
<text text-anchor="middle" x="339.67" y="-119.5" font-family="Helvetica,sans-Serif" font-size="10.00">catch_common.h</text>
</a>
</g>
</g>
<!-- Node1&#45;&gt;Node3 -->
<g id="edge2" class="edge">
<title>Node1&#45;&gt;Node3</title>
<path fill="none" stroke="midnightblue" d="M282.4,-291.24C294.85,-254.67 321.31,-176.95 333.4,-141.42"/>
<polygon fill="midnightblue" stroke="midnightblue" points="336.76,-142.44 336.66,-131.84 330.13,-140.18 336.76,-142.44"/>
</g>
<!-- Node7 -->
<g id="node7" class="node">
<title>Node7</title>
<g id="a_node7"><a xlink:title=" ">
<polygon fill="white" stroke="#bfbfbf" points="239.67,-56.5 239.67,-75.5 283.67,-75.5 283.67,-56.5 239.67,-56.5"/>
<text text-anchor="middle" x="261.67" y="-63.5" font-family="Helvetica,sans-Serif" font-size="10.00">string</text>
</a>
</g>
</g>
<!-- Node1&#45;&gt;Node7 -->
<g id="edge32" class="edge">
<title>Node1&#45;&gt;Node7</title>
<path fill="none" stroke="midnightblue" d="M212.9,-307.4C145.29,-299.56 42.57,-275.06 6.67,-199 -36.81,-106.86 151.68,-77.71 229.46,-69.7"/>
<polygon fill="midnightblue" stroke="midnightblue" points="230.05,-73.16 239.66,-68.7 229.37,-66.19 230.05,-73.16"/>
</g>
<!-- Node9 -->
<g id="node9" class="node">
<title>Node9</title>
<g id="a_node9"><a xlink:href="catch__stream_8h.html" target="_top" xlink:title=" ">
<polygon fill="white" stroke="black" points="390.67,-174 390.67,-193 482.67,-193 482.67,-174 390.67,-174"/>
<text text-anchor="middle" x="436.67" y="-181" font-family="Helvetica,sans-Serif" font-size="10.00">catch_stream.h</text>
</a>
</g>
</g>
<!-- Node1&#45;&gt;Node9 -->
<g id="edge8" class="edge">
<title>Node1&#45;&gt;Node9</title>
<path fill="none" stroke="midnightblue" d="M300.83,-291.23C333.05,-265.92 388.2,-222.59 417.33,-199.7"/>
<polygon fill="midnightblue" stroke="midnightblue" points="419.78,-202.23 425.48,-193.29 415.46,-196.72 419.78,-202.23"/>
</g>
<!-- Node12 -->
<g id="node12" class="node">
<title>Node12</title>
<g id="a_node12"><a xlink:href="catch__interfaces__capture_8h.html" target="_top" xlink:title=" ">
<polygon fill="white" stroke="black" points="99.67,-235.5 99.67,-254.5 247.67,-254.5 247.67,-235.5 99.67,-235.5"/>
<text text-anchor="middle" x="173.67" y="-242.5" font-family="Helvetica,sans-Serif" font-size="10.00">catch_interfaces_capture.h</text>
</a>
</g>
</g>
<!-- Node1&#45;&gt;Node12 -->
<g id="edge13" class="edge">
<title>Node1&#45;&gt;Node12</title>
<path fill="none" stroke="midnightblue" d="M245.07,-291.5C229.28,-281.44 210.37,-269.38 195.98,-260.21"/>
<polygon fill="midnightblue" stroke="midnightblue" points="197.57,-257.08 187.25,-254.65 193.8,-262.98 197.57,-257.08"/>
</g>
<!-- Node16 -->
<g id="node16" class="node">
<title>Node16</title>
<g id="a_node16"><a xlink:href="catch__tostring_8h.html" target="_top" xlink:title=" ">
<polygon fill="white" stroke="black" points="547.17,-235.5 547.17,-254.5 642.17,-254.5 642.17,-235.5 547.17,-235.5"/>
<text text-anchor="middle" x="594.67" y="-242.5" font-family="Helvetica,sans-Serif" font-size="10.00">catch_tostring.h</text>
</a>
</g>
</g>
<!-- Node1&#45;&gt;Node16 -->
<g id="edge22" class="edge">
<title>Node1&#45;&gt;Node16</title>
<path fill="none" stroke="midnightblue" d="M338.32,-298.24C397.93,-286.09 486.6,-268.02 542.49,-256.63"/>
<polygon fill="midnightblue" stroke="midnightblue" points="543.43,-260.01 552.53,-254.59 542.03,-253.16 543.43,-260.01"/>
</g>
<!-- Node17 -->
<g id="node17" class="node">
<title>Node17</title>
<g id="a_node17"><a xlink:title=" ">
<polygon fill="white" stroke="#bfbfbf" points="714.17,-112.5 714.17,-131.5 761.17,-131.5 761.17,-112.5 714.17,-112.5"/>
<text text-anchor="middle" x="737.67" y="-119.5" font-family="Helvetica,sans-Serif" font-size="10.00">vector</text>
</a>
</g>
</g>
<!-- Node1&#45;&gt;Node17 -->
<g id="edge33" class="edge">
<title>Node1&#45;&gt;Node17</title>
<path fill="none" stroke="midnightblue" d="M338.23,-308.7C472.69,-302.25 781.95,-278.87 841.67,-199 849.93,-187.97 849.24,-179.52 841.67,-168 826.17,-144.4 795.37,-133.12 771.3,-127.76"/>
<polygon fill="midnightblue" stroke="midnightblue" points="771.94,-124.32 761.45,-125.81 770.58,-131.19 771.94,-124.32"/>
</g>
<!-- Node4 -->
<g id="node4" class="node">
<title>Node4</title>
<g id="a_node4"><a xlink:href="catch__compiler__capabilities_8h.html" target="_top" xlink:title=" ">
<polygon fill="white" stroke="black" points="605.17,-56.5 605.17,-75.5 766.17,-75.5 766.17,-56.5 605.17,-56.5"/>
<text text-anchor="middle" x="685.67" y="-63.5" font-family="Helvetica,sans-Serif" font-size="10.00">catch_compiler_capabilities.h</text>
</a>
</g>
</g>
<!-- Node3&#45;&gt;Node4 -->
<g id="edge3" class="edge">
<title>Node3&#45;&gt;Node4</title>
<path fill="none" stroke="midnightblue" d="M389.99,-113.15C451.04,-103.62 554.11,-87.53 621.01,-77.09"/>
<polygon fill="midnightblue" stroke="midnightblue" points="621.68,-80.53 631.02,-75.53 620.6,-73.61 621.68,-80.53"/>
</g>
<!-- Node6 -->
<g id="node6" class="node">
<title>Node6</title>
<g id="a_node6"><a xlink:title=" ">
<polygon fill="white" stroke="#bfbfbf" points="468.67,-56.5 468.67,-75.5 516.67,-75.5 516.67,-56.5 468.67,-56.5"/>
<text text-anchor="middle" x="492.67" y="-63.5" font-family="Helvetica,sans-Serif" font-size="10.00">iosfwd</text>
</a>
</g>
</g>
<!-- Node3&#45;&gt;Node6 -->
<g id="edge5" class="edge">
<title>Node3&#45;&gt;Node6</title>
<path fill="none" stroke="midnightblue" d="M363.92,-112.44C389.54,-103.4 430.16,-89.06 458.91,-78.92"/>
<polygon fill="midnightblue" stroke="midnightblue" points="460.28,-82.15 468.54,-75.52 457.95,-75.54 460.28,-82.15"/>
</g>
<!-- Node3&#45;&gt;Node7 -->
<g id="edge6" class="edge">
<title>Node3&#45;&gt;Node7</title>
<path fill="none" stroke="midnightblue" d="M327.14,-112.32C315.09,-103.98 296.65,-91.21 282.41,-81.35"/>
<polygon fill="midnightblue" stroke="midnightblue" points="284.39,-78.47 274.18,-75.65 280.4,-84.22 284.39,-78.47"/>
</g>
<!-- Node8 -->
<g id="node8" class="node">
<title>Node8</title>
<g id="a_node8"><a xlink:title=" ">
<polygon fill="white" stroke="#bfbfbf" points="314.67,-56.5 314.67,-75.5 364.67,-75.5 364.67,-56.5 314.67,-56.5"/>
<text text-anchor="middle" x="339.67" y="-63.5" font-family="Helvetica,sans-Serif" font-size="10.00">cstdint</text>
</a>
</g>
</g>
<!-- Node3&#45;&gt;Node8 -->
<g id="edge7" class="edge">
<title>Node3&#45;&gt;Node8</title>
<path fill="none" stroke="midnightblue" d="M339.67,-112.08C339.67,-105.01 339.67,-94.86 339.67,-85.99"/>
<polygon fill="midnightblue" stroke="midnightblue" points="343.17,-85.75 339.67,-75.75 336.17,-85.75 343.17,-85.75"/>
</g>
<!-- Node5 -->
<g id="node5" class="node">
<title>Node5</title>
<g id="a_node5"><a xlink:href="catch__platform_8h.html" target="_top" xlink:title=" ">
<polygon fill="white" stroke="black" points="636.17,-0.5 636.17,-19.5 735.17,-19.5 735.17,-0.5 636.17,-0.5"/>
<text text-anchor="middle" x="685.67" y="-7.5" font-family="Helvetica,sans-Serif" font-size="10.00">catch_platform.h</text>
</a>
</g>
</g>
<!-- Node4&#45;&gt;Node5 -->
<g id="edge4" class="edge">
<title>Node4&#45;&gt;Node5</title>
<path fill="none" stroke="midnightblue" d="M685.67,-56.08C685.67,-49.01 685.67,-38.86 685.67,-29.99"/>
<polygon fill="midnightblue" stroke="midnightblue" points="689.17,-29.75 685.67,-19.75 682.17,-29.75 689.17,-29.75"/>
</g>
<!-- Node9&#45;&gt;Node3 -->
<g id="edge9" class="edge">
<title>Node9&#45;&gt;Node3</title>
<path fill="none" stroke="midnightblue" d="M422.78,-173.98C407,-164.3 381.04,-148.37 362.33,-136.89"/>
<polygon fill="midnightblue" stroke="midnightblue" points="363.9,-133.75 353.55,-131.51 360.24,-139.72 363.9,-133.75"/>
</g>
<!-- Node9&#45;&gt;Node6 -->
<g id="edge10" class="edge">
<title>Node9&#45;&gt;Node6</title>
<path fill="none" stroke="midnightblue" d="M444.79,-173.88C453.36,-164.33 466.72,-148.14 474.67,-132 481.95,-117.23 486.66,-99.07 489.43,-85.71"/>
<polygon fill="midnightblue" stroke="midnightblue" points="492.89,-86.26 491.32,-75.79 486.01,-84.96 492.89,-86.26"/>
</g>
<!-- Node10 -->
<g id="node10" class="node">
<title>Node10</title>
<g id="a_node10"><a xlink:title=" ">
<polygon fill="white" stroke="#bfbfbf" points="784.17,-56.5 784.17,-75.5 837.17,-75.5 837.17,-56.5 784.17,-56.5"/>
<text text-anchor="middle" x="810.67" y="-63.5" font-family="Helvetica,sans-Serif" font-size="10.00">cstddef</text>
</a>
</g>
</g>
<!-- Node9&#45;&gt;Node10 -->
<g id="edge11" class="edge">
<title>Node9&#45;&gt;Node10</title>
<path fill="none" stroke="midnightblue" d="M473.03,-173.92C511.84,-164.54 575,-148.61 628.67,-132 682.14,-115.45 743.21,-92.87 779.27,-79.15"/>
<polygon fill="midnightblue" stroke="midnightblue" points="780.66,-82.36 788.75,-75.52 778.16,-75.82 780.66,-82.36"/>
</g>
<!-- Node11 -->
<g id="node11" class="node">
<title>Node11</title>
<g id="a_node11"><a xlink:title=" ">
<polygon fill="white" stroke="#bfbfbf" points="408.17,-112.5 408.17,-131.5 465.17,-131.5 465.17,-112.5 408.17,-112.5"/>
<text text-anchor="middle" x="436.67" y="-119.5" font-family="Helvetica,sans-Serif" font-size="10.00">ostream</text>
</a>
</g>
</g>
<!-- Node9&#45;&gt;Node11 -->
<g id="edge12" class="edge">
<title>Node9&#45;&gt;Node11</title>
<path fill="none" stroke="midnightblue" d="M436.67,-173.98C436.67,-165.58 436.67,-152.48 436.67,-141.66"/>
<polygon fill="midnightblue" stroke="midnightblue" points="440.17,-141.51 436.67,-131.51 433.17,-141.51 440.17,-141.51"/>
</g>
<!-- Node12&#45;&gt;Node2 -->
<g id="edge21" class="edge">
<title>Node12&#45;&gt;Node2</title>
<path fill="none" stroke="midnightblue" d="M159.06,-235.48C142.32,-225.71 114.67,-209.58 94.96,-198.08"/>
<polygon fill="midnightblue" stroke="midnightblue" points="96.66,-195.02 86.26,-193.01 93.14,-201.07 96.66,-195.02"/>
</g>
<!-- Node12&#45;&gt;Node7 -->
<g id="edge14" class="edge">
<title>Node12&#45;&gt;Node7</title>
<path fill="none" stroke="midnightblue" d="M180.38,-235.36C187.05,-226.54 197.32,-212.28 204.67,-199 226.25,-160.01 245.45,-111.22 255.1,-85.25"/>
<polygon fill="midnightblue" stroke="midnightblue" points="258.47,-86.21 258.63,-75.61 251.9,-83.8 258.47,-86.21"/>
</g>
<!-- Node13 -->
<g id="node13" class="node">
<title>Node13</title>
<g id="a_node13"><a xlink:title=" ">
<polygon fill="white" stroke="#bfbfbf" points="145.67,-174 145.67,-193 195.67,-193 195.67,-174 145.67,-174"/>
<text text-anchor="middle" x="170.67" y="-181" font-family="Helvetica,sans-Serif" font-size="10.00">chrono</text>
</a>
</g>
</g>
<!-- Node12&#45;&gt;Node13 -->
<g id="edge15" class="edge">
<title>Node12&#45;&gt;Node13</title>
<path fill="none" stroke="midnightblue" d="M173.24,-235.48C172.82,-227.08 172.16,-213.98 171.62,-203.16"/>
<polygon fill="midnightblue" stroke="midnightblue" points="175.1,-202.82 171.1,-193.01 168.11,-203.17 175.1,-202.82"/>
</g>
<!-- Node14 -->
<g id="node14" class="node">
<title>Node14</title>
<g id="a_node14"><a xlink:href="catch__stringref_8h.html" target="_top" xlink:title=" ">
<polygon fill="white" stroke="black" points="521.67,-112.5 521.67,-131.5 619.67,-131.5 619.67,-112.5 521.67,-112.5"/>
<text text-anchor="middle" x="570.67" y="-119.5" font-family="Helvetica,sans-Serif" font-size="10.00">catch_stringref.h</text>
</a>
</g>
</g>
<!-- Node12&#45;&gt;Node14 -->
<g id="edge16" class="edge">
<title>Node12&#45;&gt;Node14</title>
<path fill="none" stroke="midnightblue" d="M247.8,-238.8C327.98,-232.25 449.94,-219.33 491.67,-199 519.65,-185.37 544.11,-158.15 558.14,-140.26"/>
<polygon fill="midnightblue" stroke="midnightblue" points="561.24,-141.96 564.49,-131.87 555.66,-137.73 561.24,-141.96"/>
</g>
<!-- Node14&#45;&gt;Node6 -->
<g id="edge19" class="edge">
<title>Node14&#45;&gt;Node6</title>
<path fill="none" stroke="midnightblue" d="M558.14,-112.32C546.09,-103.98 527.65,-91.21 513.41,-81.35"/>
<polygon fill="midnightblue" stroke="midnightblue" points="515.39,-78.47 505.18,-75.65 511.4,-84.22 515.39,-78.47"/>
</g>
<!-- Node14&#45;&gt;Node7 -->
<g id="edge18" class="edge">
<title>Node14&#45;&gt;Node7</title>
<path fill="none" stroke="midnightblue" d="M521.26,-113.12C467.96,-104.5 380.67,-90.03 305.67,-76 301.93,-75.3 298.01,-74.54 294.12,-73.76"/>
<polygon fill="midnightblue" stroke="midnightblue" points="294.53,-70.28 284.03,-71.72 293.14,-77.14 294.53,-70.28"/>
</g>
<!-- Node14&#45;&gt;Node10 -->
<g id="edge17" class="edge">
<title>Node14&#45;&gt;Node10</title>
<path fill="none" stroke="midnightblue" d="M611.61,-112.46C650.96,-104.16 712.33,-90.94 774.04,-76.33"/>
<polygon fill="midnightblue" stroke="midnightblue" points="775.03,-79.7 783.95,-73.98 773.41,-72.89 775.03,-79.7"/>
</g>
<!-- Node15 -->
<g id="node15" class="node">
<title>Node15</title>
<g id="a_node15"><a xlink:title=" ">
<polygon fill="white" stroke="#bfbfbf" points="534.67,-56.5 534.67,-75.5 586.67,-75.5 586.67,-56.5 534.67,-56.5"/>
<text text-anchor="middle" x="560.67" y="-63.5" font-family="Helvetica,sans-Serif" font-size="10.00">cassert</text>
</a>
</g>
</g>
<!-- Node14&#45;&gt;Node15 -->
<g id="edge20" class="edge">
<title>Node14&#45;&gt;Node15</title>
<path fill="none" stroke="midnightblue" d="M569.02,-112.08C567.7,-104.93 565.79,-94.64 564.14,-85.69"/>
<polygon fill="midnightblue" stroke="midnightblue" points="567.56,-84.95 562.29,-75.75 560.67,-86.22 567.56,-84.95"/>
</g>
<!-- Node16&#45;&gt;Node4 -->
<g id="edge27" class="edge">
<title>Node16&#45;&gt;Node4</title>
<path fill="none" stroke="midnightblue" d="M586.83,-235.13C574.86,-220.49 554.76,-190.62 567.67,-168 583.28,-140.66 604.44,-152.09 628.67,-132 645.93,-117.7 662.44,-97.97 673.21,-84.01"/>
<polygon fill="midnightblue" stroke="midnightblue" points="676.19,-85.88 679.41,-75.78 670.6,-81.67 676.19,-85.88"/>
</g>
<!-- Node16&#45;&gt;Node7 -->
<g id="edge26" class="edge">
<title>Node16&#45;&gt;Node7</title>
<path fill="none" stroke="midnightblue" d="M547.03,-239.15C502.82,-233.44 435.88,-221.72 381.67,-199 332,-178.17 312.62,-175.38 280.67,-132 270.76,-118.54 266,-99.98 263.72,-86.14"/>
<polygon fill="midnightblue" stroke="midnightblue" points="267.14,-85.28 262.34,-75.83 260.2,-86.21 267.14,-85.28"/>
</g>
<!-- Node16&#45;&gt;Node9 -->
<g id="edge28" class="edge">
<title>Node16&#45;&gt;Node9</title>
<path fill="none" stroke="midnightblue" d="M572.04,-235.48C544.93,-225.27 499.36,-208.11 468.67,-196.55"/>
<polygon fill="midnightblue" stroke="midnightblue" points="469.86,-193.26 459.27,-193.01 467.39,-199.81 469.86,-193.26"/>
</g>
<!-- Node16&#45;&gt;Node10 -->
<g id="edge24" class="edge">
<title>Node16&#45;&gt;Node10</title>
<path fill="none" stroke="midnightblue" d="M642.3,-242.32C706.81,-238.94 816.79,-228.83 841.67,-199 869.6,-165.53 840.91,-111.42 822.89,-84.04"/>
<polygon fill="midnightblue" stroke="midnightblue" points="825.62,-81.82 817.08,-75.54 819.84,-85.77 825.62,-81.82"/>
</g>
<!-- Node16&#45;&gt;Node17 -->
<g id="edge23" class="edge">
<title>Node16&#45;&gt;Node17</title>
<path fill="none" stroke="midnightblue" d="M642.33,-236.84C667.32,-230.74 696.61,-219.53 715.67,-199 730.1,-183.46 735.13,-159.02 736.85,-142.07"/>
<polygon fill="midnightblue" stroke="midnightblue" points="740.36,-141.96 737.58,-131.74 733.38,-141.46 740.36,-141.96"/>
</g>
<!-- Node18 -->
<g id="node18" class="node">
<title>Node18</title>
<g id="a_node18"><a xlink:title=" ">
<polygon fill="white" stroke="#bfbfbf" points="763.17,-174 763.17,-193 832.17,-193 832.17,-174 763.17,-174"/>
<text text-anchor="middle" x="797.67" y="-181" font-family="Helvetica,sans-Serif" font-size="10.00">type_traits</text>
</a>
</g>
</g>
<!-- Node16&#45;&gt;Node18 -->
<g id="edge25" class="edge">
<title>Node16&#45;&gt;Node18</title>
<path fill="none" stroke="midnightblue" d="M623.92,-235.49C654.9,-226.46 705.25,-211.77 748.67,-199 752.05,-198.01 755.56,-196.97 759.08,-195.93"/>
<polygon fill="midnightblue" stroke="midnightblue" points="760.32,-199.22 768.92,-193.03 758.34,-192.5 760.32,-199.22"/>
</g>
<!-- Node19 -->
<g id="node19" class="node">
<title>Node19</title>
<g id="a_node19"><a xlink:href="catch__interfaces__enum__values__registry_8h.html" target="_top" xlink:title=" ">
<polygon fill="white" stroke="black" points="576.67,-168.5 576.67,-198.5 706.67,-198.5 706.67,-168.5 576.67,-168.5"/>
<text text-anchor="start" x="584.67" y="-186.5" font-family="Helvetica,sans-Serif" font-size="10.00">catch_interfaces_enum</text>
<text text-anchor="middle" x="641.67" y="-175.5" font-family="Helvetica,sans-Serif" font-size="10.00">_values_registry.h</text>
</a>
</g>
</g>
<!-- Node16&#45;&gt;Node19 -->
<g id="edge29" class="edge">
<title>Node16&#45;&gt;Node19</title>
<path fill="none" stroke="midnightblue" d="M601.41,-235.48C607.36,-227.94 616.3,-216.63 624.24,-206.57"/>
<polygon fill="midnightblue" stroke="midnightblue" points="627.15,-208.54 630.6,-198.52 621.65,-204.2 627.15,-208.54"/>
</g>
<!-- Node19&#45;&gt;Node14 -->
<g id="edge30" class="edge">
<title>Node19&#45;&gt;Node14</title>
<path fill="none" stroke="midnightblue" d="M624.85,-168.4C614,-159.31 599.9,-147.49 588.8,-138.19"/>
<polygon fill="midnightblue" stroke="midnightblue" points="590.92,-135.4 581.01,-131.66 586.42,-140.76 590.92,-135.4"/>
</g>
<!-- Node19&#45;&gt;Node17 -->
<g id="edge31" class="edge">
<title>Node19&#45;&gt;Node17</title>
<path fill="none" stroke="midnightblue" d="M664.42,-168.4C679.67,-158.95 699.66,-146.56 714.91,-137.11"/>
<polygon fill="midnightblue" stroke="midnightblue" points="717.05,-139.9 723.71,-131.66 713.36,-133.95 717.05,-139.9"/>
</g>
</g>
</svg>
        <g id="navigator" transform="translate(0 0)" fill="#404254">
                <rect fill="#f2f5e9" fill-opacity="0.5" stroke="#606060" stroke-width=".5" x="0" y="0" width="60" height="60"/>
                <use id="zoomplus" xlink:href="#zoomPlus" x="17" y="9" onmousedown="handleZoom(evt,'in')"/>
                <use id="zoomminus" xlink:href="#zoomMin" x="42" y="9" onmousedown="handleZoom(evt,'out')"/>
                <use id="reset" xlink:href="#resetDef" x="30" y="36" onmousedown="handleReset()"/>
                <g id="arrowUp" xlink:href="#dirArrow" transform="translate(30 24)" onmousedown="handlePan(0,-1)">
                  <use xlink:href="#rim" fill="#404040">
                        <set attributeName="fill" to="#808080" begin="arrowUp.mouseover" end="arrowUp.mouseout"/>
                  </use>
                  <path fill="none" stroke="white" stroke-width="1.5" d="M0,-3.0v7 M-2.5,-0.5L0,-3.0L2.5,-0.5"/>
                </g>
                <g id="arrowRight" xlink:href="#dirArrow" transform="rotate(90) translate(36 -43)" onmousedown="handlePan(1,0)">
                  <use xlink:href="#rim" fill="#404040">
                        <set attributeName="fill" to="#808080" begin="arrowRight.mouseover" end="arrowRight.mouseout"/>
                  </use>
                  <path fill="none" stroke="white" stroke-width="1.5" d="M0,-3.0v7 M-2.5,-0.5L0,-3.0L2.5,-0.5"/>
                </g>
                <g id="arrowDown" xlink:href="#dirArrow" transform="rotate(180) translate(-30 -48)" onmousedown="handlePan(0,1)">
                  <use xlink:href="#rim" fill="#404040">
                        <set attributeName="fill" to="#808080" begin="arrowDown.mouseover" end="arrowDown.mouseout"/>
                  </use>
                  <path fill="none" stroke="white" stroke-width="1.5" d="M0,-3.0v7 M-2.5,-0.5L0,-3.0L2.5,-0.5"/>
                </g>
                <g id="arrowLeft" xlink:href="#dirArrow" transform="rotate(270) translate(-36 17)" onmousedown="handlePan(-1,0)">
                  <use xlink:href="#rim" fill="#404040">
                        <set attributeName="fill" to="#808080" begin="arrowLeft.mouseover" end="arrowLeft.mouseout"/>
                  </use>
                  <path fill="none" stroke="white" stroke-width="1.5" d="M0,-3.0v7 M-2.5,-0.5L0,-3.0L2.5,-0.5"/>
                </g>
        </g>
        <svg viewBox="0 0 15 15" width="100%" height="30px" preserveAspectRatio="xMaxYMin meet">
         <g id="arrow_out" transform="scale(0.3 0.3)">
          <a xlink:href="catch__message_8h__incl_org.svg" target="_base">
           <rect id="button" ry="5" rx="5" y="6" x="6" height="38" width="38"
                fill="#f2f5e9" fill-opacity="0.5" stroke="#606060" stroke-width="1.0"/>
           <path id="arrow"
             d="M 11.500037,31.436501 C 11.940474,20.09759 22.043105,11.32322 32.158766,21.979434 L 37.068811,17.246167 C 37.068811,17.246167 37.088388,32 37.088388,32 L 22.160133,31.978069 C 22.160133,31.978069 26.997745,27.140456 26.997745,27.140456 C 18.528582,18.264221 13.291696,25.230495 11.500037,31.436501 z"
             style="fill:#404040;"/>
          </a>
         </g>
        </svg>
</svg>
