<?xml version="1.0" encoding="UTF-8" standalone="no"?>
<!DOCTYPE svg PUBLIC "-//W3C//DTD SVG 1.1//EN"
 "http://www.w3.org/Graphics/SVG/1.1/DTD/svg11.dtd">
<!-- Generated by graphviz version 2.43.0 (0)
 -->
<!-- Title: language/lib/Catch2/include/internal/benchmark/detail/catch_run_for_at_least.hpp Pages: 1 -->
<svg width="413pt" height="295pt"
 viewBox="0.00 0.00 413.27 295.00" xmlns="http://www.w3.org/2000/svg" xmlns:xlink="http://www.w3.org/1999/xlink">
<g id="graph0" class="graph" transform="scale(1 1) rotate(0) translate(4 291)">
<title>language/lib/Catch2/include/internal/benchmark/detail/catch_run_for_at_least.hpp</title>
<polygon fill="white" stroke="transparent" points="-4,4 -4,-291 409.27,-291 409.27,4 -4,4"/>
<!-- Node1 -->
<g id="node1" class="node">
<title>Node1</title>
<g id="a_node1"><a xlink:title=" ">
<polygon fill="#bfbfbf" stroke="black" points="163,-234.5 163,-286.5 316,-286.5 316,-234.5 163,-234.5"/>
<text text-anchor="start" x="171" y="-274.5" font-family="Helvetica,sans-Serif" font-size="10.00">language/lib/Catch2</text>
<text text-anchor="start" x="171" y="-263.5" font-family="Helvetica,sans-Serif" font-size="10.00">/include/internal/benchmark</text>
<text text-anchor="start" x="171" y="-252.5" font-family="Helvetica,sans-Serif" font-size="10.00">/detail/catch_run_for_at</text>
<text text-anchor="middle" x="239.5" y="-241.5" font-family="Helvetica,sans-Serif" font-size="10.00">_least.hpp</text>
</a>
</g>
</g>
<!-- Node2 -->
<g id="node2" class="node">
<title>Node2</title>
<g id="a_node2"><a xlink:href="catch__execution__plan_8hpp.html" target="_top" xlink:title=" ">
<polygon fill="white" stroke="black" points="0,-156.5 0,-197.5 153,-197.5 153,-156.5 0,-156.5"/>
<text text-anchor="start" x="8" y="-185.5" font-family="Helvetica,sans-Serif" font-size="10.00">language/lib/Catch2</text>
<text text-anchor="start" x="8" y="-174.5" font-family="Helvetica,sans-Serif" font-size="10.00">/include/internal/benchmark</text>
<text text-anchor="middle" x="76.5" y="-163.5" font-family="Helvetica,sans-Serif" font-size="10.00">/catch_execution_plan.hpp</text>
</a>
</g>
</g>
<!-- Node1&#45;&gt;Node2 -->
<g id="edge1" class="edge">
<title>Node1&#45;&gt;Node2</title>
<path fill="none" stroke="midnightblue" d="M180.21,-229.86C158.74,-219.12 135.03,-207.26 115.71,-197.6"/>
<polygon fill="midnightblue" stroke="midnightblue" points="178.76,-233.04 189.26,-234.38 181.89,-226.78 178.76,-233.04"/>
</g>
<!-- Node3 -->
<g id="node3" class="node">
<title>Node3</title>
<g id="a_node3"><a xlink:href="catch__benchmark_8hpp.html" target="_top" xlink:title=" ">
<polygon fill="white" stroke="black" points="110,-78.5 110,-119.5 263,-119.5 263,-78.5 110,-78.5"/>
<text text-anchor="start" x="118" y="-107.5" font-family="Helvetica,sans-Serif" font-size="10.00">language/lib/Catch2</text>
<text text-anchor="start" x="118" y="-96.5" font-family="Helvetica,sans-Serif" font-size="10.00">/include/internal/benchmark</text>
<text text-anchor="middle" x="186.5" y="-85.5" font-family="Helvetica,sans-Serif" font-size="10.00">/catch_benchmark.hpp</text>
</a>
</g>
</g>
<!-- Node1&#45;&gt;Node3 -->
<g id="edge8" class="edge">
<title>Node1&#45;&gt;Node3</title>
<path fill="none" stroke="midnightblue" d="M214.71,-226.04C209.25,-217.29 204.05,-207.61 200.5,-198 190.92,-172.04 187.85,-139.97 186.9,-119.75"/>
<polygon fill="midnightblue" stroke="midnightblue" points="211.8,-227.99 220.21,-234.45 217.66,-224.16 211.8,-227.99"/>
</g>
<!-- Node4 -->
<g id="node4" class="node">
<title>Node4</title>
<g id="a_node4"><a xlink:href="catch__benchmarking__all_8hpp.html" target="_top" xlink:title=" ">
<polygon fill="white" stroke="black" points="159,-0.5 159,-41.5 318,-41.5 318,-0.5 159,-0.5"/>
<text text-anchor="start" x="167" y="-29.5" font-family="Helvetica,sans-Serif" font-size="10.00">language/lib/Catch2</text>
<text text-anchor="start" x="167" y="-18.5" font-family="Helvetica,sans-Serif" font-size="10.00">/include/internal/benchmark</text>
<text text-anchor="middle" x="238.5" y="-7.5" font-family="Helvetica,sans-Serif" font-size="10.00">/catch_benchmarking_all.hpp</text>
</a>
</g>
</g>
<!-- Node1&#45;&gt;Node4 -->
<g id="edge9" class="edge">
<title>Node1&#45;&gt;Node4</title>
<path fill="none" stroke="midnightblue" d="M325.92,-244.83C352.37,-235.84 378.64,-221.36 394.5,-198 436.48,-136.18 338.72,-72.81 279.56,-41.69"/>
<polygon fill="midnightblue" stroke="midnightblue" points="324.67,-241.55 316.19,-247.9 326.78,-248.23 324.67,-241.55"/>
</g>
<!-- Node5 -->
<g id="node5" class="node">
<title>Node5</title>
<g id="a_node5"><a xlink:href="catch__estimate__clock_8hpp.html" target="_top" xlink:title=" ">
<polygon fill="white" stroke="black" points="209,-156.5 209,-197.5 386,-197.5 386,-156.5 209,-156.5"/>
<text text-anchor="start" x="217" y="-185.5" font-family="Helvetica,sans-Serif" font-size="10.00">language/lib/Catch2</text>
<text text-anchor="start" x="217" y="-174.5" font-family="Helvetica,sans-Serif" font-size="10.00">/include/internal/benchmark</text>
<text text-anchor="middle" x="297.5" y="-163.5" font-family="Helvetica,sans-Serif" font-size="10.00">/detail/catch_estimate_clock.hpp</text>
</a>
</g>
</g>
<!-- Node1&#45;&gt;Node5 -->
<g id="edge5" class="edge">
<title>Node1&#45;&gt;Node5</title>
<path fill="none" stroke="midnightblue" d="M263.41,-225.9C270.26,-216.28 277.49,-206.11 283.53,-197.63"/>
<polygon fill="midnightblue" stroke="midnightblue" points="260.48,-223.98 257.53,-234.16 266.18,-228.04 260.48,-223.98"/>
</g>
<!-- Node2&#45;&gt;Node3 -->
<g id="edge2" class="edge">
<title>Node2&#45;&gt;Node3</title>
<path fill="none" stroke="midnightblue" d="M113.21,-150.64C127.9,-140.49 144.55,-128.98 158.27,-119.51"/>
<polygon fill="midnightblue" stroke="midnightblue" points="111.07,-147.86 104.83,-156.43 115.04,-153.62 111.07,-147.86"/>
</g>
<!-- Node2&#45;&gt;Node4 -->
<g id="edge4" class="edge">
<title>Node2&#45;&gt;Node4</title>
<path fill="none" stroke="midnightblue" d="M76.86,-146.21C78.63,-124.92 84.23,-96.82 100.5,-78 115.72,-60.39 137.29,-48.25 158.87,-39.89"/>
<polygon fill="midnightblue" stroke="midnightblue" points="73.36,-146.15 76.26,-156.34 80.35,-146.56 73.36,-146.15"/>
</g>
<!-- Node3&#45;&gt;Node4 -->
<g id="edge3" class="edge">
<title>Node3&#45;&gt;Node4</title>
<path fill="none" stroke="midnightblue" d="M205.63,-70.05C212.11,-60.57 219.22,-50.18 225.15,-41.51"/>
<polygon fill="midnightblue" stroke="midnightblue" points="202.65,-68.2 199.89,-78.43 208.43,-72.15 202.65,-68.2"/>
</g>
<!-- Node5&#45;&gt;Node3 -->
<g id="edge6" class="edge">
<title>Node5&#45;&gt;Node3</title>
<path fill="none" stroke="midnightblue" d="M260.45,-150.64C245.63,-140.49 228.83,-128.98 214.99,-119.51"/>
<polygon fill="midnightblue" stroke="midnightblue" points="258.69,-153.67 268.91,-156.43 262.64,-147.89 258.69,-153.67"/>
</g>
<!-- Node5&#45;&gt;Node4 -->
<g id="edge7" class="edge">
<title>Node5&#45;&gt;Node4</title>
<path fill="none" stroke="midnightblue" d="M291.85,-146.35C287.54,-126.55 280.76,-100.16 271.5,-78 266.19,-65.3 258.45,-51.98 251.8,-41.53"/>
<polygon fill="midnightblue" stroke="midnightblue" points="288.46,-147.26 293.93,-156.33 295.31,-145.83 288.46,-147.26"/>
</g>
</g>
</svg>
