<?xml version="1.0" encoding="UTF-8" standalone="no"?>
<!DOCTYPE svg PUBLIC "-//W3C//DTD SVG 1.1//EN"
 "http://www.w3.org/Graphics/SVG/1.1/DTD/svg11.dtd">
<!-- Generated by graphviz version 2.43.0 (0)
 -->
<!-- Title: language/lib/Catch2/include/internal/catch_capture.hpp Pages: 1 -->
<svg width="1302pt" height="284pt"
 viewBox="0.00 0.00 1302.00 284.00" xmlns="http://www.w3.org/2000/svg" xmlns:xlink="http://www.w3.org/1999/xlink">
<g id="graph0" class="graph" transform="scale(1 1) rotate(0) translate(4 280)">
<title>language/lib/Catch2/include/internal/catch_capture.hpp</title>
<polygon fill="white" stroke="transparent" points="-4,4 -4,-280 1298,-280 1298,4 -4,4"/>
<!-- Node1 -->
<g id="node1" class="node">
<title>Node1</title>
<g id="a_node1"><a xlink:title=" ">
<polygon fill="#bfbfbf" stroke="black" points="632,-234.5 632,-275.5 757,-275.5 757,-234.5 632,-234.5"/>
<text text-anchor="start" x="640" y="-263.5" font-family="Helvetica,sans-Serif" font-size="10.00">language/lib/Catch2</text>
<text text-anchor="start" x="640" y="-252.5" font-family="Helvetica,sans-Serif" font-size="10.00">/include/internal/catch</text>
<text text-anchor="middle" x="694.5" y="-241.5" font-family="Helvetica,sans-Serif" font-size="10.00">_capture.hpp</text>
</a>
</g>
</g>
<!-- Node2 -->
<g id="node2" class="node">
<title>Node2</title>
<g id="a_node2"><a xlink:href="include_2catch_8hpp.html" target="_top" xlink:title=" ">
<polygon fill="white" stroke="black" points="0,-84 0,-114 113,-114 113,-84 0,-84"/>
<text text-anchor="start" x="8" y="-102" font-family="Helvetica,sans-Serif" font-size="10.00">language/lib/Catch2</text>
<text text-anchor="middle" x="56.5" y="-91" font-family="Helvetica,sans-Serif" font-size="10.00">/include/catch.hpp</text>
</a>
</g>
</g>
<!-- Node1&#45;&gt;Node2 -->
<g id="edge1" class="edge">
<title>Node1&#45;&gt;Node2</title>
<path fill="none" stroke="midnightblue" d="M621.8,-254.66C527.14,-253.46 357.7,-244.18 221.5,-198 163.44,-178.31 103.6,-136.3 74.54,-114.22"/>
<polygon fill="midnightblue" stroke="midnightblue" points="621.81,-258.16 631.84,-254.76 621.88,-251.16 621.81,-258.16"/>
</g>
<!-- Node4 -->
<g id="node4" class="node">
<title>Node4</title>
<g id="a_node4"><a xlink:href="catch__capture__matchers_8h.html" target="_top" xlink:title=" ">
<polygon fill="white" stroke="black" points="231,-156.5 231,-197.5 356,-197.5 356,-156.5 231,-156.5"/>
<text text-anchor="start" x="239" y="-185.5" font-family="Helvetica,sans-Serif" font-size="10.00">language/lib/Catch2</text>
<text text-anchor="start" x="239" y="-174.5" font-family="Helvetica,sans-Serif" font-size="10.00">/include/internal/catch</text>
<text text-anchor="middle" x="293.5" y="-163.5" font-family="Helvetica,sans-Serif" font-size="10.00">_capture_matchers.h</text>
</a>
</g>
</g>
<!-- Node1&#45;&gt;Node4 -->
<g id="edge3" class="edge">
<title>Node1&#45;&gt;Node4</title>
<path fill="none" stroke="midnightblue" d="M621.88,-240.24C545.94,-225.84 427.99,-203.49 356.05,-189.85"/>
<polygon fill="midnightblue" stroke="midnightblue" points="621.37,-243.7 631.84,-242.12 622.67,-236.82 621.37,-243.7"/>
</g>
<!-- Node8 -->
<g id="node8" class="node">
<title>Node8</title>
<g id="a_node8"><a xlink:href="catch__run__context_8h.html" target="_top" xlink:title=" ">
<polygon fill="white" stroke="black" points="632,-156.5 632,-197.5 757,-197.5 757,-156.5 632,-156.5"/>
<text text-anchor="start" x="640" y="-185.5" font-family="Helvetica,sans-Serif" font-size="10.00">language/lib/Catch2</text>
<text text-anchor="start" x="640" y="-174.5" font-family="Helvetica,sans-Serif" font-size="10.00">/include/internal/catch</text>
<text text-anchor="middle" x="694.5" y="-163.5" font-family="Helvetica,sans-Serif" font-size="10.00">_run_context.h</text>
</a>
</g>
</g>
<!-- Node1&#45;&gt;Node8 -->
<g id="edge9" class="edge">
<title>Node1&#45;&gt;Node8</title>
<path fill="none" stroke="midnightblue" d="M694.5,-224.3C694.5,-215.3 694.5,-205.65 694.5,-197.51"/>
<polygon fill="midnightblue" stroke="midnightblue" points="691,-224.43 694.5,-234.43 698,-224.43 691,-224.43"/>
</g>
<!-- Node14 -->
<g id="node14" class="node">
<title>Node14</title>
<g id="a_node14"><a xlink:href="catch__section_8cpp.html" target="_top" xlink:title=" ">
<polygon fill="white" stroke="black" points="938,-156.5 938,-197.5 1063,-197.5 1063,-156.5 938,-156.5"/>
<text text-anchor="start" x="946" y="-185.5" font-family="Helvetica,sans-Serif" font-size="10.00">language/lib/Catch2</text>
<text text-anchor="start" x="946" y="-174.5" font-family="Helvetica,sans-Serif" font-size="10.00">/include/internal/catch</text>
<text text-anchor="middle" x="1000.5" y="-163.5" font-family="Helvetica,sans-Serif" font-size="10.00">_section.cpp</text>
</a>
</g>
</g>
<!-- Node1&#45;&gt;Node14 -->
<g id="edge21" class="edge">
<title>Node1&#45;&gt;Node14</title>
<path fill="none" stroke="midnightblue" d="M766.99,-236C818.99,-223.08 888.34,-205.86 937.92,-193.54"/>
<polygon fill="midnightblue" stroke="midnightblue" points="766.02,-232.63 757.16,-238.44 767.71,-239.42 766.02,-232.63"/>
</g>
<!-- Node15 -->
<g id="node15" class="node">
<title>Node15</title>
<g id="a_node15"><a xlink:href="catch__reporter__xml_8cpp.html" target="_top" xlink:title=" ">
<polygon fill="white" stroke="black" points="1163,-156.5 1163,-197.5 1294,-197.5 1294,-156.5 1163,-156.5"/>
<text text-anchor="start" x="1171" y="-185.5" font-family="Helvetica,sans-Serif" font-size="10.00">language/lib/Catch2</text>
<text text-anchor="start" x="1171" y="-174.5" font-family="Helvetica,sans-Serif" font-size="10.00">/include/reporters/catch</text>
<text text-anchor="middle" x="1228.5" y="-163.5" font-family="Helvetica,sans-Serif" font-size="10.00">_reporter_xml.cpp</text>
</a>
</g>
</g>
<!-- Node1&#45;&gt;Node15 -->
<g id="edge23" class="edge">
<title>Node1&#45;&gt;Node15</title>
<path fill="none" stroke="midnightblue" d="M767.2,-243.65C871.65,-228.79 1062.59,-201.61 1162.92,-187.33"/>
<polygon fill="midnightblue" stroke="midnightblue" points="766.47,-240.22 757.06,-245.1 767.46,-247.15 766.47,-240.22"/>
</g>
<!-- Node3 -->
<g id="node3" class="node">
<title>Node3</title>
<g id="a_node3"><a xlink:href="catch__with__main_8hpp.html" target="_top" xlink:title=" ">
<polygon fill="white" stroke="black" points="0,-0.5 0,-41.5 113,-41.5 113,-0.5 0,-0.5"/>
<text text-anchor="start" x="8" y="-29.5" font-family="Helvetica,sans-Serif" font-size="10.00">language/lib/Catch2</text>
<text text-anchor="start" x="8" y="-18.5" font-family="Helvetica,sans-Serif" font-size="10.00">/include/catch_with</text>
<text text-anchor="middle" x="56.5" y="-7.5" font-family="Helvetica,sans-Serif" font-size="10.00">_main.hpp</text>
</a>
</g>
</g>
<!-- Node2&#45;&gt;Node3 -->
<g id="edge2" class="edge">
<title>Node2&#45;&gt;Node3</title>
<path fill="none" stroke="midnightblue" d="M56.5,-73.66C56.5,-63.33 56.5,-51.44 56.5,-41.68"/>
<polygon fill="midnightblue" stroke="midnightblue" points="53,-73.7 56.5,-83.7 60,-73.71 53,-73.7"/>
</g>
<!-- Node4&#45;&gt;Node2 -->
<g id="edge4" class="edge">
<title>Node4&#45;&gt;Node2</title>
<path fill="none" stroke="midnightblue" d="M222.83,-153.34C183.12,-140.6 134.8,-125.11 100.49,-114.11"/>
<polygon fill="midnightblue" stroke="midnightblue" points="221.88,-156.71 232.47,-156.43 224.01,-150.04 221.88,-156.71"/>
</g>
<!-- Node5 -->
<g id="node5" class="node">
<title>Node5</title>
<g id="a_node5"><a xlink:href="catch__assertionhandler_8cpp.html" target="_top" xlink:title=" ">
<polygon fill="white" stroke="black" points="280,-78.5 280,-119.5 405,-119.5 405,-78.5 280,-78.5"/>
<text text-anchor="start" x="288" y="-107.5" font-family="Helvetica,sans-Serif" font-size="10.00">language/lib/Catch2</text>
<text text-anchor="start" x="288" y="-96.5" font-family="Helvetica,sans-Serif" font-size="10.00">/include/internal/catch</text>
<text text-anchor="middle" x="342.5" y="-85.5" font-family="Helvetica,sans-Serif" font-size="10.00">_assertionhandler.cpp</text>
</a>
</g>
</g>
<!-- Node4&#45;&gt;Node5 -->
<g id="edge5" class="edge">
<title>Node4&#45;&gt;Node5</title>
<path fill="none" stroke="midnightblue" d="M311.71,-147.76C317.77,-138.35 324.39,-128.1 329.92,-119.51"/>
<polygon fill="midnightblue" stroke="midnightblue" points="308.6,-146.13 306.12,-156.43 314.48,-149.92 308.6,-146.13"/>
</g>
<!-- Node7 -->
<g id="node7" class="node">
<title>Node7</title>
<g id="a_node7"><a xlink:href="catch__capture__matchers_8cpp.html" target="_top" xlink:title=" ">
<polygon fill="white" stroke="black" points="131.5,-78.5 131.5,-119.5 261.5,-119.5 261.5,-78.5 131.5,-78.5"/>
<text text-anchor="start" x="139.5" y="-107.5" font-family="Helvetica,sans-Serif" font-size="10.00">language/lib/Catch2</text>
<text text-anchor="start" x="139.5" y="-96.5" font-family="Helvetica,sans-Serif" font-size="10.00">/include/internal/catch</text>
<text text-anchor="middle" x="196.5" y="-85.5" font-family="Helvetica,sans-Serif" font-size="10.00">_capture_matchers.cpp</text>
</a>
</g>
</g>
<!-- Node4&#45;&gt;Node7 -->
<g id="edge7" class="edge">
<title>Node4&#45;&gt;Node7</title>
<path fill="none" stroke="midnightblue" d="M260.4,-150.06C247.63,-140.06 233.26,-128.8 221.4,-119.51"/>
<polygon fill="midnightblue" stroke="midnightblue" points="258.49,-153.02 268.52,-156.43 262.81,-147.51 258.49,-153.02"/>
</g>
<!-- Node6 -->
<g id="node6" class="node">
<title>Node6</title>
<g id="a_node6"><a xlink:href="catch__objc__impl_8mm.html" target="_top" xlink:title=" ">
<polygon fill="white" stroke="black" points="757,-0.5 757,-41.5 886,-41.5 886,-0.5 757,-0.5"/>
<text text-anchor="start" x="765" y="-29.5" font-family="Helvetica,sans-Serif" font-size="10.00">language/lib/Catch2</text>
<text text-anchor="start" x="765" y="-18.5" font-family="Helvetica,sans-Serif" font-size="10.00">/projects/XCode/OCTest</text>
<text text-anchor="middle" x="821.5" y="-7.5" font-family="Helvetica,sans-Serif" font-size="10.00">/catch_objc_impl.mm</text>
</a>
</g>
</g>
<!-- Node5&#45;&gt;Node6 -->
<g id="edge6" class="edge">
<title>Node5&#45;&gt;Node6</title>
<path fill="none" stroke="midnightblue" d="M414.91,-77.83C540.73,-52.14 677.91,-36.14 756.72,-28.1"/>
<polygon fill="midnightblue" stroke="midnightblue" points="414.19,-74.41 405.1,-79.86 415.61,-81.26 414.19,-74.41"/>
</g>
<!-- Node7&#45;&gt;Node6 -->
<g id="edge8" class="edge">
<title>Node7&#45;&gt;Node6</title>
<path fill="none" stroke="midnightblue" d="M271.68,-77.93C452.23,-45.29 655.45,-30.85 756.97,-25.15"/>
<polygon fill="midnightblue" stroke="midnightblue" points="270.94,-74.51 261.74,-79.75 272.2,-81.39 270.94,-74.51"/>
</g>
<!-- Node8&#45;&gt;Node5 -->
<g id="edge10" class="edge">
<title>Node8&#45;&gt;Node5</title>
<path fill="none" stroke="midnightblue" d="M621.99,-163.15C565.04,-152.68 483.88,-136.9 413.5,-120 410.76,-119.34 407.97,-118.65 405.15,-117.93"/>
<polygon fill="midnightblue" stroke="midnightblue" points="621.51,-166.62 631.97,-164.98 622.77,-159.74 621.51,-166.62"/>
</g>
<!-- Node9 -->
<g id="node9" class="node">
<title>Node9</title>
<g id="a_node9"><a xlink:href="catch__fatal__condition_8cpp.html" target="_top" xlink:title=" ">
<polygon fill="white" stroke="black" points="423,-78.5 423,-119.5 548,-119.5 548,-78.5 423,-78.5"/>
<text text-anchor="start" x="431" y="-107.5" font-family="Helvetica,sans-Serif" font-size="10.00">language/lib/Catch2</text>
<text text-anchor="start" x="431" y="-96.5" font-family="Helvetica,sans-Serif" font-size="10.00">/include/internal/catch</text>
<text text-anchor="middle" x="485.5" y="-85.5" font-family="Helvetica,sans-Serif" font-size="10.00">_fatal_condition.cpp</text>
</a>
</g>
</g>
<!-- Node8&#45;&gt;Node9 -->
<g id="edge11" class="edge">
<title>Node8&#45;&gt;Node9</title>
<path fill="none" stroke="midnightblue" d="M630.94,-152.89C601.6,-142.22 567.15,-129.69 539.14,-119.51"/>
<polygon fill="midnightblue" stroke="midnightblue" points="630.08,-156.3 640.68,-156.43 632.48,-149.72 630.08,-156.3"/>
</g>
<!-- Node10 -->
<g id="node10" class="node">
<title>Node10</title>
<g id="a_node10"><a xlink:href="catch__random__number__generator_8cpp.html" target="_top" xlink:title=" ">
<polygon fill="white" stroke="black" points="566.5,-78.5 566.5,-119.5 740.5,-119.5 740.5,-78.5 566.5,-78.5"/>
<text text-anchor="start" x="574.5" y="-107.5" font-family="Helvetica,sans-Serif" font-size="10.00">language/lib/Catch2</text>
<text text-anchor="start" x="574.5" y="-96.5" font-family="Helvetica,sans-Serif" font-size="10.00">/include/internal/catch</text>
<text text-anchor="middle" x="653.5" y="-85.5" font-family="Helvetica,sans-Serif" font-size="10.00">_random_number_generator.cpp</text>
</a>
</g>
</g>
<!-- Node8&#45;&gt;Node10 -->
<g id="edge13" class="edge">
<title>Node8&#45;&gt;Node10</title>
<path fill="none" stroke="midnightblue" d="M679.11,-147.47C674.08,-138.14 668.61,-128.01 664.02,-119.51"/>
<polygon fill="midnightblue" stroke="midnightblue" points="676.11,-149.29 683.94,-156.43 682.27,-145.97 676.11,-149.29"/>
</g>
<!-- Node11 -->
<g id="node11" class="node">
<title>Node11</title>
<g id="a_node11"><a xlink:href="catch__run__context_8cpp.html" target="_top" xlink:title=" ">
<polygon fill="white" stroke="black" points="759,-78.5 759,-119.5 884,-119.5 884,-78.5 759,-78.5"/>
<text text-anchor="start" x="767" y="-107.5" font-family="Helvetica,sans-Serif" font-size="10.00">language/lib/Catch2</text>
<text text-anchor="start" x="767" y="-96.5" font-family="Helvetica,sans-Serif" font-size="10.00">/include/internal/catch</text>
<text text-anchor="middle" x="821.5" y="-85.5" font-family="Helvetica,sans-Serif" font-size="10.00">_run_context.cpp</text>
</a>
</g>
</g>
<!-- Node8&#45;&gt;Node11 -->
<g id="edge15" class="edge">
<title>Node8&#45;&gt;Node11</title>
<path fill="none" stroke="midnightblue" d="M735.94,-151.2C753.12,-140.92 772.77,-129.16 788.91,-119.51"/>
<polygon fill="midnightblue" stroke="midnightblue" points="733.99,-148.29 727.21,-156.43 737.58,-154.3 733.99,-148.29"/>
</g>
<!-- Node12 -->
<g id="node12" class="node">
<title>Node12</title>
<g id="a_node12"><a xlink:href="catch__session_8cpp.html" target="_top" xlink:title=" ">
<polygon fill="white" stroke="black" points="902,-78.5 902,-119.5 1027,-119.5 1027,-78.5 902,-78.5"/>
<text text-anchor="start" x="910" y="-107.5" font-family="Helvetica,sans-Serif" font-size="10.00">language/lib/Catch2</text>
<text text-anchor="start" x="910" y="-96.5" font-family="Helvetica,sans-Serif" font-size="10.00">/include/internal/catch</text>
<text text-anchor="middle" x="964.5" y="-85.5" font-family="Helvetica,sans-Serif" font-size="10.00">_session.cpp</text>
</a>
</g>
</g>
<!-- Node8&#45;&gt;Node12 -->
<g id="edge17" class="edge">
<title>Node8&#45;&gt;Node12</title>
<path fill="none" stroke="midnightblue" d="M766.76,-155.66C808.85,-143.81 861.4,-129.02 901.75,-117.66"/>
<polygon fill="midnightblue" stroke="midnightblue" points="765.8,-152.29 757.12,-158.37 767.7,-159.03 765.8,-152.29"/>
</g>
<!-- Node13 -->
<g id="node13" class="node">
<title>Node13</title>
<g id="a_node13"><a xlink:href="catch__test__case__registry__impl_8cpp.html" target="_top" xlink:title=" ">
<polygon fill="white" stroke="black" points="1045.5,-78.5 1045.5,-119.5 1203.5,-119.5 1203.5,-78.5 1045.5,-78.5"/>
<text text-anchor="start" x="1053.5" y="-107.5" font-family="Helvetica,sans-Serif" font-size="10.00">language/lib/Catch2</text>
<text text-anchor="start" x="1053.5" y="-96.5" font-family="Helvetica,sans-Serif" font-size="10.00">/include/internal/catch</text>
<text text-anchor="middle" x="1124.5" y="-85.5" font-family="Helvetica,sans-Serif" font-size="10.00">_test_case_registry_impl.cpp</text>
</a>
</g>
</g>
<!-- Node8&#45;&gt;Node13 -->
<g id="edge19" class="edge">
<title>Node8&#45;&gt;Node13</title>
<path fill="none" stroke="midnightblue" d="M767.07,-165.43C836.45,-155.02 943.92,-138.08 1036.5,-120 1039.42,-119.43 1042.39,-118.83 1045.39,-118.22"/>
<polygon fill="midnightblue" stroke="midnightblue" points="766.48,-161.98 757.11,-166.92 767.52,-168.91 766.48,-161.98"/>
</g>
<!-- Node9&#45;&gt;Node6 -->
<g id="edge12" class="edge">
<title>Node9&#45;&gt;Node6</title>
<path fill="none" stroke="midnightblue" d="M558.19,-77.9C631.87,-60.05 705.66,-44.75 756.96,-34.53"/>
<polygon fill="midnightblue" stroke="midnightblue" points="557.15,-74.55 548.27,-80.32 558.81,-81.35 557.15,-74.55"/>
</g>
<!-- Node10&#45;&gt;Node6 -->
<g id="edge14" class="edge">
<title>Node10&#45;&gt;Node6</title>
<path fill="none" stroke="midnightblue" d="M706.13,-74.19C729.38,-63.67 756.36,-51.47 778.38,-41.51"/>
<polygon fill="midnightblue" stroke="midnightblue" points="704.43,-71.12 696.76,-78.43 707.32,-77.5 704.43,-71.12"/>
</g>
<!-- Node11&#45;&gt;Node6 -->
<g id="edge16" class="edge">
<title>Node11&#45;&gt;Node6</title>
<path fill="none" stroke="midnightblue" d="M821.5,-68.3C821.5,-59.3 821.5,-49.65 821.5,-41.51"/>
<polygon fill="midnightblue" stroke="midnightblue" points="818,-68.43 821.5,-78.43 825,-68.43 818,-68.43"/>
</g>
<!-- Node12&#45;&gt;Node6 -->
<g id="edge18" class="edge">
<title>Node12&#45;&gt;Node6</title>
<path fill="none" stroke="midnightblue" d="M918.64,-73.63C899.1,-63.24 876.61,-51.29 858.2,-41.51"/>
<polygon fill="midnightblue" stroke="midnightblue" points="917.2,-76.83 927.67,-78.43 920.49,-70.64 917.2,-76.83"/>
</g>
<!-- Node13&#45;&gt;Node6 -->
<g id="edge20" class="edge">
<title>Node13&#45;&gt;Node6</title>
<path fill="none" stroke="midnightblue" d="M1036.71,-75.98C988.73,-63.95 930.33,-49.3 886.47,-38.3"/>
<polygon fill="midnightblue" stroke="midnightblue" points="1035.92,-79.39 1046.47,-78.43 1037.62,-72.6 1035.92,-79.39"/>
</g>
<!-- Node14&#45;&gt;Node6 -->
<g id="edge22" class="edge">
<title>Node14&#45;&gt;Node6</title>
<path fill="none" stroke="midnightblue" d="M1073.31,-167.61C1151.03,-155.8 1257.3,-129.68 1212.5,-78 1171.06,-30.2 986.26,-22.21 886.27,-21.48"/>
<polygon fill="midnightblue" stroke="midnightblue" points="1072.42,-164.2 1063.03,-169.11 1073.43,-171.13 1072.42,-164.2"/>
</g>
<!-- Node15&#45;&gt;Node6 -->
<g id="edge24" class="edge">
<title>Node15&#45;&gt;Node6</title>
<path fill="none" stroke="midnightblue" d="M1238.95,-146.82C1244.65,-125.23 1247.64,-96.49 1231.5,-78 1209.15,-52.39 995.78,-34.04 886.03,-26.21"/>
<polygon fill="midnightblue" stroke="midnightblue" points="1235.58,-145.89 1236.11,-156.47 1242.3,-147.86 1235.58,-145.89"/>
</g>
</g>
</svg>
