<?xml version="1.0" encoding="UTF-8" standalone="no"?>
<!DOCTYPE svg PUBLIC "-//W3C//DTD SVG 1.1//EN"
 "http://www.w3.org/Graphics/SVG/1.1/DTD/svg11.dtd">
<!-- Generated by graphviz version 2.43.0 (0)
 -->
<!-- Title: language/lib/Catch2/include/internal/catch_reenable_warnings.h Pages: 1 -->
<svg width="290pt" height="206pt"
 viewBox="0.00 0.00 289.50 206.00" xmlns="http://www.w3.org/2000/svg" xmlns:xlink="http://www.w3.org/1999/xlink">
<g id="graph0" class="graph" transform="scale(1 1) rotate(0) translate(4 202)">
<title>language/lib/Catch2/include/internal/catch_reenable_warnings.h</title>
<polygon fill="white" stroke="transparent" points="-4,4 -4,-202 285.5,-202 285.5,4 -4,4"/>
<!-- Node1 -->
<g id="node1" class="node">
<title>Node1</title>
<g id="a_node1"><a xlink:title=" ">
<polygon fill="#bfbfbf" stroke="black" points="69,-156.5 69,-197.5 194,-197.5 194,-156.5 69,-156.5"/>
<text text-anchor="start" x="77" y="-185.5" font-family="Helvetica,sans-Serif" font-size="10.00">language/lib/Catch2</text>
<text text-anchor="start" x="77" y="-174.5" font-family="Helvetica,sans-Serif" font-size="10.00">/include/internal/catch</text>
<text text-anchor="middle" x="131.5" y="-163.5" font-family="Helvetica,sans-Serif" font-size="10.00">_reenable_warnings.h</text>
</a>
</g>
</g>
<!-- Node2 -->
<g id="node2" class="node">
<title>Node2</title>
<g id="a_node2"><a xlink:href="include_2catch_8hpp.html" target="_top" xlink:title=" ">
<polygon fill="white" stroke="black" points="0,-84 0,-114 113,-114 113,-84 0,-84"/>
<text text-anchor="start" x="8" y="-102" font-family="Helvetica,sans-Serif" font-size="10.00">language/lib/Catch2</text>
<text text-anchor="middle" x="56.5" y="-91" font-family="Helvetica,sans-Serif" font-size="10.00">/include/catch.hpp</text>
</a>
</g>
</g>
<!-- Node1&#45;&gt;Node2 -->
<g id="edge1" class="edge">
<title>Node1&#45;&gt;Node2</title>
<path fill="none" stroke="midnightblue" d="M104.85,-148.99C93.26,-137.25 80.17,-123.99 70.54,-114.23"/>
<polygon fill="midnightblue" stroke="midnightblue" points="102.67,-151.77 112.19,-156.43 107.65,-146.85 102.67,-151.77"/>
</g>
<!-- Node4 -->
<g id="node4" class="node">
<title>Node4</title>
<g id="a_node4"><a xlink:href="projects_2_self_test_2_surrogate_cpps_2catch__xmlwriter_8cpp.html" target="_top" xlink:title=" ">
<polygon fill="white" stroke="black" points="131.5,-78.5 131.5,-119.5 281.5,-119.5 281.5,-78.5 131.5,-78.5"/>
<text text-anchor="start" x="139.5" y="-107.5" font-family="Helvetica,sans-Serif" font-size="10.00">language/lib/Catch2</text>
<text text-anchor="start" x="139.5" y="-96.5" font-family="Helvetica,sans-Serif" font-size="10.00">/projects/SelfTest/Surrogate</text>
<text text-anchor="middle" x="206.5" y="-85.5" font-family="Helvetica,sans-Serif" font-size="10.00">Cpps/catch_xmlwriter.cpp</text>
</a>
</g>
</g>
<!-- Node1&#45;&gt;Node4 -->
<g id="edge3" class="edge">
<title>Node1&#45;&gt;Node4</title>
<path fill="none" stroke="midnightblue" d="M157.94,-149.2C167.6,-139.42 178.34,-128.54 187.25,-119.51"/>
<polygon fill="midnightblue" stroke="midnightblue" points="155.35,-146.85 150.81,-156.43 160.33,-151.77 155.35,-146.85"/>
</g>
<!-- Node3 -->
<g id="node3" class="node">
<title>Node3</title>
<g id="a_node3"><a xlink:href="catch__with__main_8hpp.html" target="_top" xlink:title=" ">
<polygon fill="white" stroke="black" points="0,-0.5 0,-41.5 113,-41.5 113,-0.5 0,-0.5"/>
<text text-anchor="start" x="8" y="-29.5" font-family="Helvetica,sans-Serif" font-size="10.00">language/lib/Catch2</text>
<text text-anchor="start" x="8" y="-18.5" font-family="Helvetica,sans-Serif" font-size="10.00">/include/catch_with</text>
<text text-anchor="middle" x="56.5" y="-7.5" font-family="Helvetica,sans-Serif" font-size="10.00">_main.hpp</text>
</a>
</g>
</g>
<!-- Node2&#45;&gt;Node3 -->
<g id="edge2" class="edge">
<title>Node2&#45;&gt;Node3</title>
<path fill="none" stroke="midnightblue" d="M56.5,-73.66C56.5,-63.33 56.5,-51.44 56.5,-41.68"/>
<polygon fill="midnightblue" stroke="midnightblue" points="53,-73.7 56.5,-83.7 60,-73.71 53,-73.7"/>
</g>
</g>
</svg>
