<?xml version="1.0" encoding="UTF-8" standalone="no"?>
<!DOCTYPE svg PUBLIC "-//W3C//DTD SVG 1.1//EN"
 "http://www.w3.org/Graphics/SVG/1.1/DTD/svg11.dtd">
<!-- Generated by graphviz version 2.43.0 (0)
 -->
<!-- Title: language/lib/Catch2/include/internal/catch_random_number_generator.h Pages: 1 -->
<svg width="1330pt" height="284pt"
 viewBox="0.00 0.00 1330.00 284.00" xmlns="http://www.w3.org/2000/svg" xmlns:xlink="http://www.w3.org/1999/xlink">
<g id="graph0" class="graph" transform="scale(1 1) rotate(0) translate(4 280)">
<title>language/lib/Catch2/include/internal/catch_random_number_generator.h</title>
<polygon fill="white" stroke="transparent" points="-4,4 -4,-280 1326,-280 1326,4 -4,4"/>
<!-- Node1 -->
<g id="node1" class="node">
<title>Node1</title>
<g id="a_node1"><a xlink:title=" ">
<polygon fill="#bfbfbf" stroke="black" points="531,-234.5 531,-275.5 694,-275.5 694,-234.5 531,-234.5"/>
<text text-anchor="start" x="539" y="-263.5" font-family="Helvetica,sans-Serif" font-size="10.00">language/lib/Catch2</text>
<text text-anchor="start" x="539" y="-252.5" font-family="Helvetica,sans-Serif" font-size="10.00">/include/internal/catch</text>
<text text-anchor="middle" x="612.5" y="-241.5" font-family="Helvetica,sans-Serif" font-size="10.00">_random_number_generator.h</text>
</a>
</g>
</g>
<!-- Node2 -->
<g id="node2" class="node">
<title>Node2</title>
<g id="a_node2"><a xlink:href="catch__generators__specific_8hpp.html" target="_top" xlink:title=" ">
<polygon fill="white" stroke="black" points="0,-156.5 0,-197.5 137,-197.5 137,-156.5 0,-156.5"/>
<text text-anchor="start" x="8" y="-185.5" font-family="Helvetica,sans-Serif" font-size="10.00">language/lib/Catch2</text>
<text text-anchor="start" x="8" y="-174.5" font-family="Helvetica,sans-Serif" font-size="10.00">/include/internal/catch</text>
<text text-anchor="middle" x="68.5" y="-163.5" font-family="Helvetica,sans-Serif" font-size="10.00">_generators_specific.hpp</text>
</a>
</g>
</g>
<!-- Node1&#45;&gt;Node2 -->
<g id="edge1" class="edge">
<title>Node1&#45;&gt;Node2</title>
<path fill="none" stroke="midnightblue" d="M520.47,-246.65C425.88,-238.24 274.59,-222.39 145.5,-198 142.79,-197.49 140.03,-196.93 137.24,-196.35"/>
<polygon fill="midnightblue" stroke="midnightblue" points="520.31,-250.15 530.58,-247.54 520.93,-243.18 520.31,-250.15"/>
</g>
<!-- Node5 -->
<g id="node5" class="node">
<title>Node5</title>
<g id="a_node5"><a xlink:href="catch__context_8cpp.html" target="_top" xlink:title=" ">
<polygon fill="white" stroke="black" points="155,-156.5 155,-197.5 280,-197.5 280,-156.5 155,-156.5"/>
<text text-anchor="start" x="163" y="-185.5" font-family="Helvetica,sans-Serif" font-size="10.00">language/lib/Catch2</text>
<text text-anchor="start" x="163" y="-174.5" font-family="Helvetica,sans-Serif" font-size="10.00">/include/internal/catch</text>
<text text-anchor="middle" x="217.5" y="-163.5" font-family="Helvetica,sans-Serif" font-size="10.00">_context.cpp</text>
</a>
</g>
</g>
<!-- Node1&#45;&gt;Node5 -->
<g id="edge4" class="edge">
<title>Node1&#45;&gt;Node5</title>
<path fill="none" stroke="midnightblue" d="M520.57,-240.71C455.44,-230.66 366.18,-215.6 288.5,-198 285.75,-197.38 282.95,-196.71 280.13,-196.02"/>
<polygon fill="midnightblue" stroke="midnightblue" points="520.4,-244.22 530.81,-242.28 521.46,-237.3 520.4,-244.22"/>
</g>
<!-- Node7 -->
<g id="node7" class="node">
<title>Node7</title>
<g id="a_node7"><a xlink:href="catch__generators_8cpp.html" target="_top" xlink:title=" ">
<polygon fill="white" stroke="black" points="298,-156.5 298,-197.5 423,-197.5 423,-156.5 298,-156.5"/>
<text text-anchor="start" x="306" y="-185.5" font-family="Helvetica,sans-Serif" font-size="10.00">language/lib/Catch2</text>
<text text-anchor="start" x="306" y="-174.5" font-family="Helvetica,sans-Serif" font-size="10.00">/include/internal/catch</text>
<text text-anchor="middle" x="360.5" y="-163.5" font-family="Helvetica,sans-Serif" font-size="10.00">_generators.cpp</text>
</a>
</g>
</g>
<!-- Node1&#45;&gt;Node7 -->
<g id="edge6" class="edge">
<title>Node1&#45;&gt;Node7</title>
<path fill="none" stroke="midnightblue" d="M537.98,-231.52C501.39,-220.49 457.82,-207.35 423,-196.85"/>
<polygon fill="midnightblue" stroke="midnightblue" points="537.02,-234.89 547.6,-234.43 539.04,-228.19 537.02,-234.89"/>
</g>
<!-- Node8 -->
<g id="node8" class="node">
<title>Node8</title>
<g id="a_node8"><a xlink:href="catch__random__number__generator_8cpp.html" target="_top" xlink:title=" ">
<polygon fill="white" stroke="black" points="441.5,-156.5 441.5,-197.5 615.5,-197.5 615.5,-156.5 441.5,-156.5"/>
<text text-anchor="start" x="449.5" y="-185.5" font-family="Helvetica,sans-Serif" font-size="10.00">language/lib/Catch2</text>
<text text-anchor="start" x="449.5" y="-174.5" font-family="Helvetica,sans-Serif" font-size="10.00">/include/internal/catch</text>
<text text-anchor="middle" x="528.5" y="-163.5" font-family="Helvetica,sans-Serif" font-size="10.00">_random_number_generator.cpp</text>
</a>
</g>
</g>
<!-- Node1&#45;&gt;Node8 -->
<g id="edge7" class="edge">
<title>Node1&#45;&gt;Node8</title>
<path fill="none" stroke="midnightblue" d="M583.2,-227.49C572.3,-217.63 560.14,-206.63 550.06,-197.51"/>
<polygon fill="midnightblue" stroke="midnightblue" points="581.1,-230.31 590.87,-234.43 585.8,-225.12 581.1,-230.31"/>
</g>
<!-- Node9 -->
<g id="node9" class="node">
<title>Node9</title>
<g id="a_node9"><a xlink:href="catch__run__context_8cpp.html" target="_top" xlink:title=" ">
<polygon fill="white" stroke="black" points="634,-156.5 634,-197.5 759,-197.5 759,-156.5 634,-156.5"/>
<text text-anchor="start" x="642" y="-185.5" font-family="Helvetica,sans-Serif" font-size="10.00">language/lib/Catch2</text>
<text text-anchor="start" x="642" y="-174.5" font-family="Helvetica,sans-Serif" font-size="10.00">/include/internal/catch</text>
<text text-anchor="middle" x="696.5" y="-163.5" font-family="Helvetica,sans-Serif" font-size="10.00">_run_context.cpp</text>
</a>
</g>
</g>
<!-- Node1&#45;&gt;Node9 -->
<g id="edge9" class="edge">
<title>Node1&#45;&gt;Node9</title>
<path fill="none" stroke="midnightblue" d="M641.8,-227.49C652.7,-217.63 664.86,-206.63 674.94,-197.51"/>
<polygon fill="midnightblue" stroke="midnightblue" points="639.2,-225.12 634.13,-234.43 643.9,-230.31 639.2,-225.12"/>
</g>
<!-- Node10 -->
<g id="node10" class="node">
<title>Node10</title>
<g id="a_node10"><a xlink:href="catch__session_8cpp.html" target="_top" xlink:title=" ">
<polygon fill="white" stroke="black" points="777,-156.5 777,-197.5 902,-197.5 902,-156.5 777,-156.5"/>
<text text-anchor="start" x="785" y="-185.5" font-family="Helvetica,sans-Serif" font-size="10.00">language/lib/Catch2</text>
<text text-anchor="start" x="785" y="-174.5" font-family="Helvetica,sans-Serif" font-size="10.00">/include/internal/catch</text>
<text text-anchor="middle" x="839.5" y="-163.5" font-family="Helvetica,sans-Serif" font-size="10.00">_session.cpp</text>
</a>
</g>
</g>
<!-- Node1&#45;&gt;Node10 -->
<g id="edge11" class="edge">
<title>Node1&#45;&gt;Node10</title>
<path fill="none" stroke="midnightblue" d="M680.7,-231.17C712.75,-220.44 750.56,-207.78 781.24,-197.51"/>
<polygon fill="midnightblue" stroke="midnightblue" points="679.33,-227.93 670.96,-234.43 681.55,-234.57 679.33,-227.93"/>
</g>
<!-- Node11 -->
<g id="node11" class="node">
<title>Node11</title>
<g id="a_node11"><a xlink:href="catch__test__case__registry__impl_8cpp.html" target="_top" xlink:title=" ">
<polygon fill="white" stroke="black" points="920.5,-156.5 920.5,-197.5 1078.5,-197.5 1078.5,-156.5 920.5,-156.5"/>
<text text-anchor="start" x="928.5" y="-185.5" font-family="Helvetica,sans-Serif" font-size="10.00">language/lib/Catch2</text>
<text text-anchor="start" x="928.5" y="-174.5" font-family="Helvetica,sans-Serif" font-size="10.00">/include/internal/catch</text>
<text text-anchor="middle" x="999.5" y="-163.5" font-family="Helvetica,sans-Serif" font-size="10.00">_test_case_registry_impl.cpp</text>
</a>
</g>
</g>
<!-- Node1&#45;&gt;Node11 -->
<g id="edge13" class="edge">
<title>Node1&#45;&gt;Node11</title>
<path fill="none" stroke="midnightblue" d="M704.28,-237.75C763.53,-227.03 842.2,-212.36 911.5,-198 914.41,-197.4 917.38,-196.77 920.38,-196.13"/>
<polygon fill="midnightblue" stroke="midnightblue" points="703.42,-234.35 694.2,-239.57 704.67,-241.24 703.42,-234.35"/>
</g>
<!-- Node12 -->
<g id="node12" class="node">
<title>Node12</title>
<g id="a_node12"><a xlink:href="_random_number_generation_8tests_8cpp.html" target="_top" xlink:title=" ">
<polygon fill="white" stroke="black" points="1097,-156.5 1097,-197.5 1322,-197.5 1322,-156.5 1097,-156.5"/>
<text text-anchor="start" x="1105" y="-185.5" font-family="Helvetica,sans-Serif" font-size="10.00">language/lib/Catch2</text>
<text text-anchor="start" x="1105" y="-174.5" font-family="Helvetica,sans-Serif" font-size="10.00">/projects/SelfTest/Introspective</text>
<text text-anchor="middle" x="1209.5" y="-163.5" font-family="Helvetica,sans-Serif" font-size="10.00">Tests/RandomNumberGeneration.tests.cpp</text>
</a>
</g>
</g>
<!-- Node1&#45;&gt;Node12 -->
<g id="edge15" class="edge">
<title>Node1&#45;&gt;Node12</title>
<path fill="none" stroke="midnightblue" d="M704.12,-244.44C799.89,-234.15 954.48,-216.73 1087.5,-198 1090.58,-197.57 1093.71,-197.12 1096.86,-196.66"/>
<polygon fill="midnightblue" stroke="midnightblue" points="703.74,-240.96 694.17,-245.5 704.49,-247.92 703.74,-240.96"/>
</g>
<!-- Node3 -->
<g id="node3" class="node">
<title>Node3</title>
<g id="a_node3"><a xlink:href="include_2catch_8hpp.html" target="_top" xlink:title=" ">
<polygon fill="white" stroke="black" points="12,-84 12,-114 125,-114 125,-84 12,-84"/>
<text text-anchor="start" x="20" y="-102" font-family="Helvetica,sans-Serif" font-size="10.00">language/lib/Catch2</text>
<text text-anchor="middle" x="68.5" y="-91" font-family="Helvetica,sans-Serif" font-size="10.00">/include/catch.hpp</text>
</a>
</g>
</g>
<!-- Node2&#45;&gt;Node3 -->
<g id="edge2" class="edge">
<title>Node2&#45;&gt;Node3</title>
<path fill="none" stroke="midnightblue" d="M68.5,-146.28C68.5,-135.25 68.5,-123.25 68.5,-114.23"/>
<polygon fill="midnightblue" stroke="midnightblue" points="65,-146.43 68.5,-156.43 72,-146.43 65,-146.43"/>
</g>
<!-- Node4 -->
<g id="node4" class="node">
<title>Node4</title>
<g id="a_node4"><a xlink:href="catch__with__main_8hpp.html" target="_top" xlink:title=" ">
<polygon fill="white" stroke="black" points="12,-0.5 12,-41.5 125,-41.5 125,-0.5 12,-0.5"/>
<text text-anchor="start" x="20" y="-29.5" font-family="Helvetica,sans-Serif" font-size="10.00">language/lib/Catch2</text>
<text text-anchor="start" x="20" y="-18.5" font-family="Helvetica,sans-Serif" font-size="10.00">/include/catch_with</text>
<text text-anchor="middle" x="68.5" y="-7.5" font-family="Helvetica,sans-Serif" font-size="10.00">_main.hpp</text>
</a>
</g>
</g>
<!-- Node3&#45;&gt;Node4 -->
<g id="edge3" class="edge">
<title>Node3&#45;&gt;Node4</title>
<path fill="none" stroke="midnightblue" d="M68.5,-73.66C68.5,-63.33 68.5,-51.44 68.5,-41.68"/>
<polygon fill="midnightblue" stroke="midnightblue" points="65,-73.7 68.5,-83.7 72,-73.71 65,-73.7"/>
</g>
<!-- Node6 -->
<g id="node6" class="node">
<title>Node6</title>
<g id="a_node6"><a xlink:href="catch__objc__impl_8mm.html" target="_top" xlink:title=" ">
<polygon fill="white" stroke="black" points="632,-78.5 632,-119.5 761,-119.5 761,-78.5 632,-78.5"/>
<text text-anchor="start" x="640" y="-107.5" font-family="Helvetica,sans-Serif" font-size="10.00">language/lib/Catch2</text>
<text text-anchor="start" x="640" y="-96.5" font-family="Helvetica,sans-Serif" font-size="10.00">/projects/XCode/OCTest</text>
<text text-anchor="middle" x="696.5" y="-85.5" font-family="Helvetica,sans-Serif" font-size="10.00">/catch_objc_impl.mm</text>
</a>
</g>
</g>
<!-- Node5&#45;&gt;Node6 -->
<g id="edge5" class="edge">
<title>Node5&#45;&gt;Node6</title>
<path fill="none" stroke="midnightblue" d="M289.91,-155.83C415.73,-130.14 552.91,-114.14 631.72,-106.1"/>
<polygon fill="midnightblue" stroke="midnightblue" points="289.19,-152.41 280.1,-157.86 290.61,-159.26 289.19,-152.41"/>
</g>
<!-- Node8&#45;&gt;Node6 -->
<g id="edge8" class="edge">
<title>Node8&#45;&gt;Node6</title>
<path fill="none" stroke="midnightblue" d="M581.13,-152.19C604.38,-141.67 631.36,-129.47 653.38,-119.51"/>
<polygon fill="midnightblue" stroke="midnightblue" points="579.43,-149.12 571.76,-156.43 582.32,-155.5 579.43,-149.12"/>
</g>
<!-- Node9&#45;&gt;Node6 -->
<g id="edge10" class="edge">
<title>Node9&#45;&gt;Node6</title>
<path fill="none" stroke="midnightblue" d="M696.5,-146.3C696.5,-137.3 696.5,-127.65 696.5,-119.51"/>
<polygon fill="midnightblue" stroke="midnightblue" points="693,-146.43 696.5,-156.43 700,-146.43 693,-146.43"/>
</g>
<!-- Node10&#45;&gt;Node6 -->
<g id="edge12" class="edge">
<title>Node10&#45;&gt;Node6</title>
<path fill="none" stroke="midnightblue" d="M793.64,-151.63C774.1,-141.24 751.61,-129.29 733.2,-119.51"/>
<polygon fill="midnightblue" stroke="midnightblue" points="792.2,-154.83 802.67,-156.43 795.49,-148.64 792.2,-154.83"/>
</g>
<!-- Node11&#45;&gt;Node6 -->
<g id="edge14" class="edge">
<title>Node11&#45;&gt;Node6</title>
<path fill="none" stroke="midnightblue" d="M911.71,-153.98C863.73,-141.95 805.33,-127.3 761.47,-116.3"/>
<polygon fill="midnightblue" stroke="midnightblue" points="910.92,-157.39 921.47,-156.43 912.62,-150.6 910.92,-157.39"/>
</g>
</g>
</svg>
