<?xml version="1.0" encoding="UTF-8" standalone="no"?>
<!DOCTYPE svg PUBLIC "-//W3C//DTD SVG 1.1//EN"
 "http://www.w3.org/Graphics/SVG/1.1/DTD/svg11.dtd">
<!-- Generated by graphviz version 2.43.0 (0)
 -->
<!-- Title: language/lib/Catch2/include/internal/catch_exception_translator_registry.cpp Pages: 1 -->
<svg width="1354pt" height="464pt"
 viewBox="0.00 0.00 1353.69 464.00" xmlns="http://www.w3.org/2000/svg" xmlns:xlink="http://www.w3.org/1999/xlink">
<g id="graph0" class="graph" transform="scale(1 1) rotate(0) translate(4 460)">
<title>language/lib/Catch2/include/internal/catch_exception_translator_registry.cpp</title>
<polygon fill="white" stroke="transparent" points="-4,4 -4,-460 1349.69,-460 1349.69,4 -4,4"/>
<!-- Node1 -->
<g id="node1" class="node">
<title>Node1</title>
<g id="a_node1"><a xlink:title=" ">
<polygon fill="#bfbfbf" stroke="black" points="285.5,-414.5 285.5,-455.5 469.5,-455.5 469.5,-414.5 285.5,-414.5"/>
<text text-anchor="start" x="293.5" y="-443.5" font-family="Helvetica,sans-Serif" font-size="10.00">language/lib/Catch2</text>
<text text-anchor="start" x="293.5" y="-432.5" font-family="Helvetica,sans-Serif" font-size="10.00">/include/internal/catch</text>
<text text-anchor="middle" x="377.5" y="-421.5" font-family="Helvetica,sans-Serif" font-size="10.00">_exception_translator_registry.cpp</text>
</a>
</g>
</g>
<!-- Node2 -->
<g id="node2" class="node">
<title>Node2</title>
<g id="a_node2"><a xlink:href="catch__exception__translator__registry_8h.html" target="_top" xlink:title=" ">
<polygon fill="white" stroke="black" points="1136,-291.5 1136,-321.5 1285,-321.5 1285,-291.5 1136,-291.5"/>
<text text-anchor="start" x="1144" y="-309.5" font-family="Helvetica,sans-Serif" font-size="10.00">catch_exception_translator</text>
<text text-anchor="middle" x="1210.5" y="-298.5" font-family="Helvetica,sans-Serif" font-size="10.00">_registry.h</text>
</a>
</g>
</g>
<!-- Node1&#45;&gt;Node2 -->
<g id="edge1" class="edge">
<title>Node1&#45;&gt;Node2</title>
<path fill="none" stroke="midnightblue" d="M469.83,-419.98C632.62,-395.26 968.33,-344.28 1125.65,-320.38"/>
<polygon fill="midnightblue" stroke="midnightblue" points="1126.39,-323.81 1135.75,-318.85 1125.34,-316.89 1126.39,-323.81"/>
</g>
<!-- Node6 -->
<g id="node6" class="node">
<title>Node6</title>
<g id="a_node6"><a xlink:href="catch__compiler__capabilities_8h.html" target="_top" xlink:title=" ">
<polygon fill="white" stroke="black" points="0,-56.5 0,-75.5 161,-75.5 161,-56.5 0,-56.5"/>
<text text-anchor="middle" x="80.5" y="-63.5" font-family="Helvetica,sans-Serif" font-size="10.00">catch_compiler_capabilities.h</text>
</a>
</g>
</g>
<!-- Node1&#45;&gt;Node6 -->
<g id="edge51" class="edge">
<title>Node1&#45;&gt;Node6</title>
<path fill="none" stroke="midnightblue" d="M285.11,-420.92C176.1,-402.84 9.5,-365.68 9.5,-307.5 9.5,-307.5 9.5,-307.5 9.5,-182.5 9.5,-141.8 41.89,-103.39 62.92,-82.74"/>
<polygon fill="midnightblue" stroke="midnightblue" points="65.47,-85.15 70.33,-75.73 60.66,-80.06 65.47,-85.15"/>
</g>
<!-- Node14 -->
<g id="node14" class="node">
<title>Node14</title>
<g id="a_node14"><a xlink:href="catch__assertionhandler_8h.html" target="_top" xlink:title=" ">
<polygon fill="white" stroke="black" points="394.5,-358.5 394.5,-377.5 532.5,-377.5 532.5,-358.5 394.5,-358.5"/>
<text text-anchor="middle" x="463.5" y="-365.5" font-family="Helvetica,sans-Serif" font-size="10.00">catch_assertionhandler.h</text>
</a>
</g>
</g>
<!-- Node1&#45;&gt;Node14 -->
<g id="edge18" class="edge">
<title>Node1&#45;&gt;Node14</title>
<path fill="none" stroke="midnightblue" d="M403.3,-414.5C416.36,-404.63 431.95,-392.84 444,-383.74"/>
<polygon fill="midnightblue" stroke="midnightblue" points="446.18,-386.47 452.05,-377.65 441.96,-380.89 446.18,-386.47"/>
</g>
<!-- Node29 -->
<g id="node29" class="node">
<title>Node29</title>
<g id="a_node29"><a xlink:href="catch__enforce_8h.html" target="_top" xlink:title=" ">
<polygon fill="white" stroke="black" points="157.5,-235.5 157.5,-254.5 251.5,-254.5 251.5,-235.5 157.5,-235.5"/>
<text text-anchor="middle" x="204.5" y="-242.5" font-family="Helvetica,sans-Serif" font-size="10.00">catch_enforce.h</text>
</a>
</g>
</g>
<!-- Node1&#45;&gt;Node29 -->
<g id="edge52" class="edge">
<title>Node1&#45;&gt;Node29</title>
<path fill="none" stroke="midnightblue" d="M359.31,-414.24C325.08,-377.04 251.67,-297.26 219.8,-262.62"/>
<polygon fill="midnightblue" stroke="midnightblue" points="221.98,-259.83 212.64,-254.84 216.83,-264.57 221.98,-259.83"/>
</g>
<!-- Node3 -->
<g id="node3" class="node">
<title>Node3</title>
<g id="a_node3"><a xlink:href="catch__interfaces__exception_8h.html" target="_top" xlink:title=" ">
<polygon fill="white" stroke="black" points="1131,-235.5 1131,-254.5 1290,-254.5 1290,-235.5 1131,-235.5"/>
<text text-anchor="middle" x="1210.5" y="-242.5" font-family="Helvetica,sans-Serif" font-size="10.00">catch_interfaces_exception.h</text>
</a>
</g>
</g>
<!-- Node2&#45;&gt;Node3 -->
<g id="edge2" class="edge">
<title>Node2&#45;&gt;Node3</title>
<path fill="none" stroke="midnightblue" d="M1210.5,-291.4C1210.5,-283.47 1210.5,-273.46 1210.5,-264.86"/>
<polygon fill="midnightblue" stroke="midnightblue" points="1214,-264.66 1210.5,-254.66 1207,-264.66 1214,-264.66"/>
</g>
<!-- Node9 -->
<g id="node9" class="node">
<title>Node9</title>
<g id="a_node9"><a xlink:title=" ">
<polygon fill="white" stroke="#bfbfbf" points="815.5,-56.5 815.5,-75.5 859.5,-75.5 859.5,-56.5 815.5,-56.5"/>
<text text-anchor="middle" x="837.5" y="-63.5" font-family="Helvetica,sans-Serif" font-size="10.00">string</text>
</a>
</g>
</g>
<!-- Node2&#45;&gt;Node9 -->
<g id="edge16" class="edge">
<title>Node2&#45;&gt;Node9</title>
<path fill="none" stroke="midnightblue" d="M1267.13,-291.43C1286.4,-283.8 1306.17,-272.27 1318.5,-255 1355.54,-203.12 1356.83,-152.37 1307.5,-112 1273.72,-84.36 970.81,-71.56 869.98,-68.04"/>
<polygon fill="midnightblue" stroke="midnightblue" points="869.9,-64.54 859.79,-67.7 869.66,-71.53 869.9,-64.54"/>
</g>
<!-- Node11 -->
<g id="node11" class="node">
<title>Node11</title>
<g id="a_node11"><a xlink:title=" ">
<polygon fill="white" stroke="#bfbfbf" points="1216.5,-112.5 1216.5,-131.5 1274.5,-131.5 1274.5,-112.5 1216.5,-112.5"/>
<text text-anchor="middle" x="1245.5" y="-119.5" font-family="Helvetica,sans-Serif" font-size="10.00">memory</text>
</a>
</g>
</g>
<!-- Node2&#45;&gt;Node11 -->
<g id="edge17" class="edge">
<title>Node2&#45;&gt;Node11</title>
<path fill="none" stroke="midnightblue" d="M1252.01,-291.43C1269.2,-283.46 1287.62,-271.67 1298.5,-255 1319.68,-222.54 1321.69,-202.74 1304.5,-168 1297.9,-154.66 1285.24,-144.19 1273.33,-136.73"/>
<polygon fill="midnightblue" stroke="midnightblue" points="1274.89,-133.59 1264.48,-131.6 1271.38,-139.64 1274.89,-133.59"/>
</g>
<!-- Node13 -->
<g id="node13" class="node">
<title>Node13</title>
<g id="a_node13"><a xlink:title=" ">
<polygon fill="white" stroke="#bfbfbf" points="1047,-112.5 1047,-131.5 1094,-131.5 1094,-112.5 1047,-112.5"/>
<text text-anchor="middle" x="1070.5" y="-119.5" font-family="Helvetica,sans-Serif" font-size="10.00">vector</text>
</a>
</g>
</g>
<!-- Node2&#45;&gt;Node13 -->
<g id="edge15" class="edge">
<title>Node2&#45;&gt;Node13</title>
<path fill="none" stroke="midnightblue" d="M1173.18,-291.35C1155.51,-283.05 1135.31,-271.01 1121.5,-255 1092.45,-221.32 1078.98,-169.25 1073.58,-141.65"/>
<polygon fill="midnightblue" stroke="midnightblue" points="1077.02,-140.97 1071.79,-131.75 1070.13,-142.22 1077.02,-140.97"/>
</g>
<!-- Node4 -->
<g id="node4" class="node">
<title>Node4</title>
<g id="a_node4"><a xlink:href="catch__interfaces__registry__hub_8h.html" target="_top" xlink:title=" ">
<polygon fill="white" stroke="black" points="1155.5,-168.5 1155.5,-198.5 1295.5,-198.5 1295.5,-168.5 1155.5,-168.5"/>
<text text-anchor="start" x="1163.5" y="-186.5" font-family="Helvetica,sans-Serif" font-size="10.00">catch_interfaces_registry</text>
<text text-anchor="middle" x="1225.5" y="-175.5" font-family="Helvetica,sans-Serif" font-size="10.00">_hub.h</text>
</a>
</g>
</g>
<!-- Node3&#45;&gt;Node4 -->
<g id="edge3" class="edge">
<title>Node3&#45;&gt;Node4</title>
<path fill="none" stroke="midnightblue" d="M1212.65,-235.48C1214.43,-228.4 1217.06,-217.97 1219.48,-208.39"/>
<polygon fill="midnightblue" stroke="midnightblue" points="1222.91,-209.08 1221.96,-198.52 1216.13,-207.36 1222.91,-209.08"/>
</g>
<!-- Node3&#45;&gt;Node9 -->
<g id="edge13" class="edge">
<title>Node3&#45;&gt;Node9</title>
<path fill="none" stroke="midnightblue" d="M1250.65,-235.43C1270.47,-228.95 1292.64,-217.83 1304.5,-199 1325.7,-165.34 1315.01,-136.27 1283.5,-112 1250.85,-86.85 966.91,-72.51 869.86,-68.31"/>
<polygon fill="midnightblue" stroke="midnightblue" points="869.9,-64.81 859.76,-67.88 869.6,-71.8 869.9,-64.81"/>
</g>
<!-- Node12 -->
<g id="node12" class="node">
<title>Node12</title>
<g id="a_node12"><a xlink:title=" ">
<polygon fill="white" stroke="#bfbfbf" points="644,-174 644,-193 709,-193 709,-174 644,-174"/>
<text text-anchor="middle" x="676.5" y="-181" font-family="Helvetica,sans-Serif" font-size="10.00">exception</text>
</a>
</g>
</g>
<!-- Node3&#45;&gt;Node12 -->
<g id="edge12" class="edge">
<title>Node3&#45;&gt;Node12</title>
<path fill="none" stroke="midnightblue" d="M1130.79,-242.6C1032.74,-239.53 861.68,-229.79 718.5,-199 715,-198.25 711.39,-197.29 707.82,-196.23"/>
<polygon fill="midnightblue" stroke="midnightblue" points="708.61,-192.8 698.02,-193.04 706.44,-199.46 708.61,-192.8"/>
</g>
<!-- Node3&#45;&gt;Node13 -->
<g id="edge14" class="edge">
<title>Node3&#45;&gt;Node13</title>
<path fill="none" stroke="midnightblue" d="M1196.77,-235.34C1183.46,-226.72 1162.93,-212.81 1146.5,-199 1123.88,-179.98 1100.16,-155.4 1085.35,-139.43"/>
<polygon fill="midnightblue" stroke="midnightblue" points="1087.82,-136.93 1078.48,-131.93 1082.66,-141.67 1087.82,-136.93"/>
</g>
<!-- Node5 -->
<g id="node5" class="node">
<title>Node5</title>
<g id="a_node5"><a xlink:href="catch__common_8h.html" target="_top" xlink:title=" ">
<polygon fill="white" stroke="black" points="265.5,-112.5 265.5,-131.5 365.5,-131.5 365.5,-112.5 265.5,-112.5"/>
<text text-anchor="middle" x="315.5" y="-119.5" font-family="Helvetica,sans-Serif" font-size="10.00">catch_common.h</text>
</a>
</g>
</g>
<!-- Node4&#45;&gt;Node5 -->
<g id="edge4" class="edge">
<title>Node4&#45;&gt;Node5</title>
<path fill="none" stroke="midnightblue" d="M1155.38,-177.01C1118.77,-174.2 1073.23,-170.79 1032.5,-168 773.94,-150.29 709.13,-148.62 450.5,-132 426,-130.43 399,-128.64 375.62,-127.07"/>
<polygon fill="midnightblue" stroke="midnightblue" points="375.72,-123.57 365.5,-126.39 375.25,-130.55 375.72,-123.57"/>
</g>
<!-- Node4&#45;&gt;Node9 -->
<g id="edge10" class="edge">
<title>Node4&#45;&gt;Node9</title>
<path fill="none" stroke="midnightblue" d="M1206.1,-168.47C1182.72,-152.27 1141.65,-126.04 1102.5,-112 1021.92,-83.1 920.74,-72.51 869.87,-68.83"/>
<polygon fill="midnightblue" stroke="midnightblue" points="870.02,-65.33 859.8,-68.15 869.54,-72.32 870.02,-65.33"/>
</g>
<!-- Node4&#45;&gt;Node11 -->
<g id="edge11" class="edge">
<title>Node4&#45;&gt;Node11</title>
<path fill="none" stroke="midnightblue" d="M1230.24,-168.4C1232.97,-160.29 1236.42,-150.01 1239.36,-141.28"/>
<polygon fill="midnightblue" stroke="midnightblue" points="1242.72,-142.25 1242.59,-131.66 1236.09,-140.02 1242.72,-142.25"/>
</g>
<!-- Node5&#45;&gt;Node6 -->
<g id="edge5" class="edge">
<title>Node5&#45;&gt;Node6</title>
<path fill="none" stroke="midnightblue" d="M278.26,-112.44C237.44,-103.06 171.86,-87.99 127.52,-77.8"/>
<polygon fill="midnightblue" stroke="midnightblue" points="128.09,-74.34 117.56,-75.52 126.52,-81.17 128.09,-74.34"/>
</g>
<!-- Node8 -->
<g id="node8" class="node">
<title>Node8</title>
<g id="a_node8"><a xlink:title=" ">
<polygon fill="white" stroke="#bfbfbf" points="218.5,-56.5 218.5,-75.5 266.5,-75.5 266.5,-56.5 218.5,-56.5"/>
<text text-anchor="middle" x="242.5" y="-63.5" font-family="Helvetica,sans-Serif" font-size="10.00">iosfwd</text>
</a>
</g>
</g>
<!-- Node5&#45;&gt;Node8 -->
<g id="edge7" class="edge">
<title>Node5&#45;&gt;Node8</title>
<path fill="none" stroke="midnightblue" d="M303.77,-112.32C292.66,-104.11 275.76,-91.6 262.52,-81.81"/>
<polygon fill="midnightblue" stroke="midnightblue" points="264.56,-78.97 254.44,-75.83 260.4,-84.59 264.56,-78.97"/>
</g>
<!-- Node5&#45;&gt;Node9 -->
<g id="edge8" class="edge">
<title>Node5&#45;&gt;Node9</title>
<path fill="none" stroke="midnightblue" d="M365.55,-115.82C471.74,-104.84 717.09,-79.46 805.23,-70.34"/>
<polygon fill="midnightblue" stroke="midnightblue" points="805.83,-73.79 815.42,-69.28 805.11,-66.83 805.83,-73.79"/>
</g>
<!-- Node10 -->
<g id="node10" class="node">
<title>Node10</title>
<g id="a_node10"><a xlink:title=" ">
<polygon fill="white" stroke="#bfbfbf" points="290.5,-56.5 290.5,-75.5 340.5,-75.5 340.5,-56.5 290.5,-56.5"/>
<text text-anchor="middle" x="315.5" y="-63.5" font-family="Helvetica,sans-Serif" font-size="10.00">cstdint</text>
</a>
</g>
</g>
<!-- Node5&#45;&gt;Node10 -->
<g id="edge9" class="edge">
<title>Node5&#45;&gt;Node10</title>
<path fill="none" stroke="midnightblue" d="M315.5,-112.08C315.5,-105.01 315.5,-94.86 315.5,-85.99"/>
<polygon fill="midnightblue" stroke="midnightblue" points="319,-85.75 315.5,-75.75 312,-85.75 319,-85.75"/>
</g>
<!-- Node7 -->
<g id="node7" class="node">
<title>Node7</title>
<g id="a_node7"><a xlink:href="catch__platform_8h.html" target="_top" xlink:title=" ">
<polygon fill="white" stroke="black" points="31,-0.5 31,-19.5 130,-19.5 130,-0.5 31,-0.5"/>
<text text-anchor="middle" x="80.5" y="-7.5" font-family="Helvetica,sans-Serif" font-size="10.00">catch_platform.h</text>
</a>
</g>
</g>
<!-- Node6&#45;&gt;Node7 -->
<g id="edge6" class="edge">
<title>Node6&#45;&gt;Node7</title>
<path fill="none" stroke="midnightblue" d="M80.5,-56.08C80.5,-49.01 80.5,-38.86 80.5,-29.99"/>
<polygon fill="midnightblue" stroke="midnightblue" points="84,-29.75 80.5,-19.75 77,-29.75 84,-29.75"/>
</g>
<!-- Node15 -->
<g id="node15" class="node">
<title>Node15</title>
<g id="a_node15"><a xlink:href="catch__assertioninfo_8h.html" target="_top" xlink:title=" ">
<polygon fill="white" stroke="black" points="428,-174 428,-193 549,-193 549,-174 428,-174"/>
<text text-anchor="middle" x="488.5" y="-181" font-family="Helvetica,sans-Serif" font-size="10.00">catch_assertioninfo.h</text>
</a>
</g>
</g>
<!-- Node14&#45;&gt;Node15 -->
<g id="edge19" class="edge">
<title>Node14&#45;&gt;Node15</title>
<path fill="none" stroke="midnightblue" d="M469.85,-358.23C475.72,-349.52 484.06,-335.56 487.5,-322 497.99,-280.68 494.33,-230.1 491.16,-203.29"/>
<polygon fill="midnightblue" stroke="midnightblue" points="494.59,-202.52 489.83,-193.05 487.65,-203.42 494.59,-202.52"/>
</g>
<!-- Node20 -->
<g id="node20" class="node">
<title>Node20</title>
<g id="a_node20"><a xlink:href="catch__decomposer_8h.html" target="_top" xlink:title=" ">
<polygon fill="white" stroke="black" points="362.5,-297 362.5,-316 478.5,-316 478.5,-297 362.5,-297"/>
<text text-anchor="middle" x="420.5" y="-304" font-family="Helvetica,sans-Serif" font-size="10.00">catch_decomposer.h</text>
</a>
</g>
</g>
<!-- Node14&#45;&gt;Node20 -->
<g id="edge27" class="edge">
<title>Node14&#45;&gt;Node20</title>
<path fill="none" stroke="midnightblue" d="M457.34,-358.48C450.89,-349.55 440.6,-335.31 432.53,-324.14"/>
<polygon fill="midnightblue" stroke="midnightblue" points="435.34,-322.06 426.65,-316.01 429.67,-326.16 435.34,-322.06"/>
</g>
<!-- Node27 -->
<g id="node27" class="node">
<title>Node27</title>
<g id="a_node27"><a xlink:href="catch__interfaces__capture_8h.html" target="_top" xlink:title=" ">
<polygon fill="white" stroke="black" points="727.5,-174 727.5,-193 875.5,-193 875.5,-174 727.5,-174"/>
<text text-anchor="middle" x="801.5" y="-181" font-family="Helvetica,sans-Serif" font-size="10.00">catch_interfaces_capture.h</text>
</a>
</g>
</g>
<!-- Node14&#45;&gt;Node27 -->
<g id="edge46" class="edge">
<title>Node14&#45;&gt;Node27</title>
<path fill="none" stroke="midnightblue" d="M479.35,-358.44C533.46,-329.22 711.19,-233.26 776.84,-197.82"/>
<polygon fill="midnightblue" stroke="midnightblue" points="778.55,-200.87 785.69,-193.04 775.22,-194.71 778.55,-200.87"/>
</g>
<!-- Node15&#45;&gt;Node5 -->
<g id="edge21" class="edge">
<title>Node15&#45;&gt;Node5</title>
<path fill="none" stroke="midnightblue" d="M463.71,-173.98C433.91,-163.72 383.71,-146.46 350.1,-134.9"/>
<polygon fill="midnightblue" stroke="midnightblue" points="350.84,-131.45 340.24,-131.51 348.56,-138.07 350.84,-131.45"/>
</g>
<!-- Node16 -->
<g id="node16" class="node">
<title>Node16</title>
<g id="a_node16"><a xlink:href="catch__result__type_8h.html" target="_top" xlink:title=" ">
<polygon fill="white" stroke="black" points="459.5,-112.5 459.5,-131.5 571.5,-131.5 571.5,-112.5 459.5,-112.5"/>
<text text-anchor="middle" x="515.5" y="-119.5" font-family="Helvetica,sans-Serif" font-size="10.00">catch_result_type.h</text>
</a>
</g>
</g>
<!-- Node15&#45;&gt;Node16 -->
<g id="edge20" class="edge">
<title>Node15&#45;&gt;Node16</title>
<path fill="none" stroke="midnightblue" d="M492.37,-173.98C496.3,-165.32 502.5,-151.65 507.49,-140.65"/>
<polygon fill="midnightblue" stroke="midnightblue" points="510.69,-142.06 511.64,-131.51 504.32,-139.17 510.69,-142.06"/>
</g>
<!-- Node17 -->
<g id="node17" class="node">
<title>Node17</title>
<g id="a_node17"><a xlink:href="catch__stringref_8h.html" target="_top" xlink:title=" ">
<polygon fill="white" stroke="black" points="589.5,-112.5 589.5,-131.5 687.5,-131.5 687.5,-112.5 589.5,-112.5"/>
<text text-anchor="middle" x="638.5" y="-119.5" font-family="Helvetica,sans-Serif" font-size="10.00">catch_stringref.h</text>
</a>
</g>
</g>
<!-- Node15&#45;&gt;Node17 -->
<g id="edge22" class="edge">
<title>Node15&#45;&gt;Node17</title>
<path fill="none" stroke="midnightblue" d="M509.99,-173.98C535.61,-163.81 578.61,-146.76 607.74,-135.2"/>
<polygon fill="midnightblue" stroke="midnightblue" points="609.04,-138.45 617.05,-131.51 606.46,-131.94 609.04,-138.45"/>
</g>
<!-- Node17&#45;&gt;Node8 -->
<g id="edge25" class="edge">
<title>Node17&#45;&gt;Node8</title>
<path fill="none" stroke="midnightblue" d="M589.47,-113.27C586.44,-112.83 583.43,-112.4 580.5,-112 447.9,-93.74 413.34,-99.08 281.5,-76 280,-75.74 278.48,-75.45 276.94,-75.16"/>
<polygon fill="midnightblue" stroke="midnightblue" points="277.26,-71.65 266.76,-73.02 275.83,-78.5 277.26,-71.65"/>
</g>
<!-- Node17&#45;&gt;Node9 -->
<g id="edge24" class="edge">
<title>Node17&#45;&gt;Node9</title>
<path fill="none" stroke="midnightblue" d="M670.03,-112.44C707.1,-102.39 768.27,-85.79 805.52,-75.68"/>
<polygon fill="midnightblue" stroke="midnightblue" points="806.62,-79.01 815.36,-73.01 804.79,-72.25 806.62,-79.01"/>
</g>
<!-- Node18 -->
<g id="node18" class="node">
<title>Node18</title>
<g id="a_node18"><a xlink:title=" ">
<polygon fill="white" stroke="#bfbfbf" points="405,-56.5 405,-75.5 458,-75.5 458,-56.5 405,-56.5"/>
<text text-anchor="middle" x="431.5" y="-63.5" font-family="Helvetica,sans-Serif" font-size="10.00">cstddef</text>
</a>
</g>
</g>
<!-- Node17&#45;&gt;Node18 -->
<g id="edge23" class="edge">
<title>Node17&#45;&gt;Node18</title>
<path fill="none" stroke="midnightblue" d="M605.7,-112.44C568.24,-102.67 507.1,-86.72 468.11,-76.55"/>
<polygon fill="midnightblue" stroke="midnightblue" points="468.78,-73.11 458.22,-73.97 467.01,-79.88 468.78,-73.11"/>
</g>
<!-- Node19 -->
<g id="node19" class="node">
<title>Node19</title>
<g id="a_node19"><a xlink:title=" ">
<polygon fill="white" stroke="#bfbfbf" points="612.5,-56.5 612.5,-75.5 664.5,-75.5 664.5,-56.5 612.5,-56.5"/>
<text text-anchor="middle" x="638.5" y="-63.5" font-family="Helvetica,sans-Serif" font-size="10.00">cassert</text>
</a>
</g>
</g>
<!-- Node17&#45;&gt;Node19 -->
<g id="edge26" class="edge">
<title>Node17&#45;&gt;Node19</title>
<path fill="none" stroke="midnightblue" d="M638.5,-112.08C638.5,-105.01 638.5,-94.86 638.5,-85.99"/>
<polygon fill="midnightblue" stroke="midnightblue" points="642,-85.75 638.5,-75.75 635,-85.75 642,-85.75"/>
</g>
<!-- Node20&#45;&gt;Node8 -->
<g id="edge45" class="edge">
<title>Node20&#45;&gt;Node8</title>
<path fill="none" stroke="midnightblue" d="M362.19,-302.9C290.77,-298.39 175.87,-286.33 148.5,-255 106.65,-207.09 107.96,-165.42 142.5,-112 156.93,-89.68 185.37,-78.32 208.24,-72.61"/>
<polygon fill="midnightblue" stroke="midnightblue" points="209.29,-75.96 218.28,-70.36 207.76,-69.13 209.29,-75.96"/>
</g>
<!-- Node20&#45;&gt;Node17 -->
<g id="edge42" class="edge">
<title>Node20&#45;&gt;Node17</title>
<path fill="none" stroke="midnightblue" d="M431.75,-296.97C444.92,-286.97 467.36,-269.87 486.5,-255 518.24,-230.34 527.04,-225.22 557.5,-199 580.65,-179.07 606.16,-154.71 622.25,-139.03"/>
<polygon fill="midnightblue" stroke="midnightblue" points="625.05,-141.19 629.74,-131.69 620.15,-136.19 625.05,-141.19"/>
</g>
<!-- Node21 -->
<g id="node21" class="node">
<title>Node21</title>
<g id="a_node21"><a xlink:href="catch__tostring_8h.html" target="_top" xlink:title=" ">
<polygon fill="white" stroke="black" points="383,-235.5 383,-254.5 478,-254.5 478,-235.5 383,-235.5"/>
<text text-anchor="middle" x="430.5" y="-242.5" font-family="Helvetica,sans-Serif" font-size="10.00">catch_tostring.h</text>
</a>
</g>
</g>
<!-- Node20&#45;&gt;Node21 -->
<g id="edge28" class="edge">
<title>Node20&#45;&gt;Node21</title>
<path fill="none" stroke="midnightblue" d="M421.93,-296.98C423.34,-288.58 425.55,-275.48 427.36,-264.66"/>
<polygon fill="midnightblue" stroke="midnightblue" points="430.86,-264.95 429.07,-254.51 423.96,-263.79 430.86,-264.95"/>
</g>
<!-- Node26 -->
<g id="node26" class="node">
<title>Node26</title>
<g id="a_node26"><a xlink:href="catch__meta_8hpp.html" target="_top" xlink:title=" ">
<polygon fill="white" stroke="black" points="270,-235.5 270,-254.5 365,-254.5 365,-235.5 270,-235.5"/>
<text text-anchor="middle" x="317.5" y="-242.5" font-family="Helvetica,sans-Serif" font-size="10.00">catch_meta.hpp</text>
</a>
</g>
</g>
<!-- Node20&#45;&gt;Node26 -->
<g id="edge43" class="edge">
<title>Node20&#45;&gt;Node26</title>
<path fill="none" stroke="midnightblue" d="M405.74,-296.98C388.84,-287.21 360.92,-271.08 341.01,-259.58"/>
<polygon fill="midnightblue" stroke="midnightblue" points="342.64,-256.48 332.23,-254.51 339.14,-262.54 342.64,-256.48"/>
</g>
<!-- Node21&#45;&gt;Node6 -->
<g id="edge33" class="edge">
<title>Node21&#45;&gt;Node6</title>
<path fill="none" stroke="midnightblue" d="M382.73,-236.24C313.1,-224.79 191.02,-204.18 182.5,-199 158.51,-184.42 112.36,-116.22 91.37,-83.98"/>
<polygon fill="midnightblue" stroke="midnightblue" points="94.3,-82.07 85.94,-75.57 88.42,-85.86 94.3,-82.07"/>
</g>
<!-- Node21&#45;&gt;Node9 -->
<g id="edge32" class="edge">
<title>Node21&#45;&gt;Node9</title>
<path fill="none" stroke="midnightblue" d="M457.06,-235.45C482.96,-226.91 523.32,-213.07 557.5,-199 653.01,-159.68 762.92,-105 811.78,-80.19"/>
<polygon fill="midnightblue" stroke="midnightblue" points="813.4,-83.29 820.72,-75.64 810.22,-77.06 813.4,-83.29"/>
</g>
<!-- Node21&#45;&gt;Node13 -->
<g id="edge29" class="edge">
<title>Node21&#45;&gt;Node13</title>
<path fill="none" stroke="midnightblue" d="M478.36,-243.11C612.77,-240.25 986.92,-229.58 1032.5,-199 1051.98,-185.93 1061.92,-159.78 1066.66,-141.84"/>
<polygon fill="midnightblue" stroke="midnightblue" points="1070.11,-142.45 1068.97,-131.92 1063.29,-140.86 1070.11,-142.45"/>
</g>
<!-- Node21&#45;&gt;Node18 -->
<g id="edge30" class="edge">
<title>Node21&#45;&gt;Node18</title>
<path fill="none" stroke="midnightblue" d="M427.41,-235.17C424.45,-226.2 420.18,-211.83 418.5,-199 413.21,-158.63 421.43,-111.05 427.02,-85.48"/>
<polygon fill="midnightblue" stroke="midnightblue" points="430.45,-86.2 429.28,-75.67 423.62,-84.63 430.45,-86.2"/>
</g>
<!-- Node22 -->
<g id="node22" class="node">
<title>Node22</title>
<g id="a_node22"><a xlink:title=" ">
<polygon fill="white" stroke="#bfbfbf" points="302,-174 302,-193 371,-193 371,-174 302,-174"/>
<text text-anchor="middle" x="336.5" y="-181" font-family="Helvetica,sans-Serif" font-size="10.00">type_traits</text>
</a>
</g>
</g>
<!-- Node21&#45;&gt;Node22 -->
<g id="edge31" class="edge">
<title>Node21&#45;&gt;Node22</title>
<path fill="none" stroke="midnightblue" d="M417.03,-235.48C401.82,-225.84 376.81,-210.02 358.7,-198.55"/>
<polygon fill="midnightblue" stroke="midnightblue" points="360.26,-195.4 349.94,-193.01 356.52,-201.31 360.26,-195.4"/>
</g>
<!-- Node23 -->
<g id="node23" class="node">
<title>Node23</title>
<g id="a_node23"><a xlink:href="catch__stream_8h.html" target="_top" xlink:title=" ">
<polygon fill="white" stroke="black" points="191.5,-174 191.5,-193 283.5,-193 283.5,-174 191.5,-174"/>
<text text-anchor="middle" x="237.5" y="-181" font-family="Helvetica,sans-Serif" font-size="10.00">catch_stream.h</text>
</a>
</g>
</g>
<!-- Node21&#45;&gt;Node23 -->
<g id="edge34" class="edge">
<title>Node21&#45;&gt;Node23</title>
<path fill="none" stroke="midnightblue" d="M402.85,-235.48C369.31,-225.14 312.63,-207.66 275.13,-196.1"/>
<polygon fill="midnightblue" stroke="midnightblue" points="275.69,-192.61 265.1,-193.01 273.63,-199.3 275.69,-192.61"/>
</g>
<!-- Node25 -->
<g id="node25" class="node">
<title>Node25</title>
<g id="a_node25"><a xlink:href="catch__interfaces__enum__values__registry_8h.html" target="_top" xlink:title=" ">
<polygon fill="white" stroke="black" points="893.5,-168.5 893.5,-198.5 1023.5,-198.5 1023.5,-168.5 893.5,-168.5"/>
<text text-anchor="start" x="901.5" y="-186.5" font-family="Helvetica,sans-Serif" font-size="10.00">catch_interfaces_enum</text>
<text text-anchor="middle" x="958.5" y="-175.5" font-family="Helvetica,sans-Serif" font-size="10.00">_values_registry.h</text>
</a>
</g>
</g>
<!-- Node21&#45;&gt;Node25 -->
<g id="edge39" class="edge">
<title>Node21&#45;&gt;Node25</title>
<path fill="none" stroke="midnightblue" d="M478.07,-240.78C559.14,-234.95 729.46,-221.32 883.09,-199.12"/>
<polygon fill="midnightblue" stroke="midnightblue" points="883.8,-202.55 893.19,-197.65 882.79,-195.63 883.8,-202.55"/>
</g>
<!-- Node23&#45;&gt;Node5 -->
<g id="edge35" class="edge">
<title>Node23&#45;&gt;Node5</title>
<path fill="none" stroke="midnightblue" d="M248.68,-173.98C261.07,-164.52 281.29,-149.1 296.25,-137.69"/>
<polygon fill="midnightblue" stroke="midnightblue" points="298.52,-140.36 304.35,-131.51 294.27,-134.79 298.52,-140.36"/>
</g>
<!-- Node23&#45;&gt;Node8 -->
<g id="edge36" class="edge">
<title>Node23&#45;&gt;Node8</title>
<path fill="none" stroke="midnightblue" d="M237.88,-173.82C238.68,-155.26 240.58,-111.34 241.68,-85.97"/>
<polygon fill="midnightblue" stroke="midnightblue" points="245.18,-85.92 242.12,-75.78 238.19,-85.62 245.18,-85.92"/>
</g>
<!-- Node23&#45;&gt;Node18 -->
<g id="edge37" class="edge">
<title>Node23&#45;&gt;Node18</title>
<path fill="none" stroke="midnightblue" d="M265.67,-173.93C300.22,-163.11 356.43,-144.42 374.5,-132 393.17,-119.17 409.64,-98.87 420.01,-84.38"/>
<polygon fill="midnightblue" stroke="midnightblue" points="423.12,-86.04 425.91,-75.82 417.35,-82.07 423.12,-86.04"/>
</g>
<!-- Node24 -->
<g id="node24" class="node">
<title>Node24</title>
<g id="a_node24"><a xlink:title=" ">
<polygon fill="white" stroke="#bfbfbf" points="152,-112.5 152,-131.5 209,-131.5 209,-112.5 152,-112.5"/>
<text text-anchor="middle" x="180.5" y="-119.5" font-family="Helvetica,sans-Serif" font-size="10.00">ostream</text>
</a>
</g>
</g>
<!-- Node23&#45;&gt;Node24 -->
<g id="edge38" class="edge">
<title>Node23&#45;&gt;Node24</title>
<path fill="none" stroke="midnightblue" d="M229.33,-173.98C220.61,-164.87 206.6,-150.24 195.81,-138.98"/>
<polygon fill="midnightblue" stroke="midnightblue" points="198.1,-136.31 188.65,-131.51 193.04,-141.15 198.1,-136.31"/>
</g>
<!-- Node25&#45;&gt;Node13 -->
<g id="edge41" class="edge">
<title>Node25&#45;&gt;Node13</title>
<path fill="none" stroke="midnightblue" d="M985.04,-168.4C1003.16,-158.77 1027.04,-146.09 1044.94,-136.58"/>
<polygon fill="midnightblue" stroke="midnightblue" points="1047.01,-139.44 1054.2,-131.66 1043.73,-133.26 1047.01,-139.44"/>
</g>
<!-- Node25&#45;&gt;Node17 -->
<g id="edge40" class="edge">
<title>Node25&#45;&gt;Node17</title>
<path fill="none" stroke="midnightblue" d="M893.14,-169.65C890.22,-169.09 887.33,-168.54 884.5,-168 820.05,-155.79 745.98,-142.32 696.11,-133.33"/>
<polygon fill="midnightblue" stroke="midnightblue" points="696.61,-129.86 686.15,-131.53 695.37,-136.75 696.61,-129.86"/>
</g>
<!-- Node26&#45;&gt;Node22 -->
<g id="edge44" class="edge">
<title>Node26&#45;&gt;Node22</title>
<path fill="none" stroke="midnightblue" d="M320.22,-235.48C322.93,-226.99 327.17,-213.7 330.65,-202.82"/>
<polygon fill="midnightblue" stroke="midnightblue" points="334.07,-203.6 333.78,-193.01 327.41,-201.47 334.07,-203.6"/>
</g>
<!-- Node27&#45;&gt;Node9 -->
<g id="edge47" class="edge">
<title>Node27&#45;&gt;Node9</title>
<path fill="none" stroke="midnightblue" d="M804.49,-173.96C807.97,-163.94 813.84,-146.83 818.5,-132 823.4,-116.4 828.59,-98.57 832.3,-85.53"/>
<polygon fill="midnightblue" stroke="midnightblue" points="835.68,-86.44 835.03,-75.87 828.94,-84.54 835.68,-86.44"/>
</g>
<!-- Node27&#45;&gt;Node16 -->
<g id="edge50" class="edge">
<title>Node27&#45;&gt;Node16</title>
<path fill="none" stroke="midnightblue" d="M760.52,-173.98C709.34,-163.33 621.77,-145.11 566.36,-133.58"/>
<polygon fill="midnightblue" stroke="midnightblue" points="566.9,-130.12 556.4,-131.51 565.48,-136.97 566.9,-130.12"/>
</g>
<!-- Node27&#45;&gt;Node17 -->
<g id="edge49" class="edge">
<title>Node27&#45;&gt;Node17</title>
<path fill="none" stroke="midnightblue" d="M778.15,-173.98C750.19,-163.77 703.17,-146.61 671.51,-135.05"/>
<polygon fill="midnightblue" stroke="midnightblue" points="672.4,-131.65 661.81,-131.51 670,-138.23 672.4,-131.65"/>
</g>
<!-- Node28 -->
<g id="node28" class="node">
<title>Node28</title>
<g id="a_node28"><a xlink:title=" ">
<polygon fill="white" stroke="#bfbfbf" points="759.5,-112.5 759.5,-131.5 809.5,-131.5 809.5,-112.5 759.5,-112.5"/>
<text text-anchor="middle" x="784.5" y="-119.5" font-family="Helvetica,sans-Serif" font-size="10.00">chrono</text>
</a>
</g>
</g>
<!-- Node27&#45;&gt;Node28 -->
<g id="edge48" class="edge">
<title>Node27&#45;&gt;Node28</title>
<path fill="none" stroke="midnightblue" d="M799.06,-173.98C796.64,-165.49 792.84,-152.2 789.73,-141.32"/>
<polygon fill="midnightblue" stroke="midnightblue" points="793.04,-140.16 786.93,-131.51 786.31,-142.09 793.04,-140.16"/>
</g>
<!-- Node29&#45;&gt;Node5 -->
<g id="edge53" class="edge">
<title>Node29&#45;&gt;Node5</title>
<path fill="none" stroke="midnightblue" d="M197.48,-235.2C186.37,-220.13 167.45,-188.98 182.5,-168 199.13,-144.82 228.36,-133.43 255.18,-127.89"/>
<polygon fill="midnightblue" stroke="midnightblue" points="256.11,-131.28 265.32,-126.04 254.85,-124.39 256.11,-131.28"/>
</g>
<!-- Node29&#45;&gt;Node6 -->
<g id="edge54" class="edge">
<title>Node29&#45;&gt;Node6</title>
<path fill="none" stroke="midnightblue" d="M195.68,-235.4C177.66,-217.48 136.11,-174.3 109.5,-132 100.15,-117.14 92.25,-98.77 87.07,-85.34"/>
<polygon fill="midnightblue" stroke="midnightblue" points="90.29,-83.96 83.52,-75.81 83.73,-86.4 90.29,-83.96"/>
</g>
<!-- Node29&#45;&gt;Node12 -->
<g id="edge56" class="edge">
<title>Node29&#45;&gt;Node12</title>
<path fill="none" stroke="midnightblue" d="M251.53,-236.31C254.57,-235.85 257.57,-235.41 260.5,-235 392.17,-216.45 425.51,-215.04 557.5,-199 582.85,-195.92 611.24,-192.46 633.93,-189.69"/>
<polygon fill="midnightblue" stroke="midnightblue" points="634.42,-193.16 643.92,-188.48 633.57,-186.21 634.42,-193.16"/>
</g>
<!-- Node29&#45;&gt;Node23 -->
<g id="edge55" class="edge">
<title>Node29&#45;&gt;Node23</title>
<path fill="none" stroke="midnightblue" d="M209.23,-235.48C214.08,-226.73 221.77,-212.87 227.9,-201.81"/>
<polygon fill="midnightblue" stroke="midnightblue" points="230.99,-203.45 232.78,-193.01 224.87,-200.06 230.99,-203.45"/>
</g>
</g>
</svg>
