<?xml version="1.0" encoding="UTF-8" standalone="no"?>
<!DOCTYPE svg PUBLIC "-//W3C//DTD SVG 1.1//EN"
 "http://www.w3.org/Graphics/SVG/1.1/DTD/svg11.dtd">
<!-- Generated by graphviz version 2.43.0 (0)
 -->
<!-- Title: language/lib/Catch2/include/internal/catch_startup_exception_registry.cpp Pages: 1 -->
<svg width="324pt" height="173pt"
 viewBox="0.00 0.00 323.50 173.00" xmlns="http://www.w3.org/2000/svg" xmlns:xlink="http://www.w3.org/1999/xlink">
<g id="graph0" class="graph" transform="scale(1 1) rotate(0) translate(4 169)">
<title>language/lib/Catch2/include/internal/catch_startup_exception_registry.cpp</title>
<polygon fill="white" stroke="transparent" points="-4,4 -4,-169 319.5,-169 319.5,4 -4,4"/>
<!-- Node1 -->
<g id="node1" class="node">
<title>Node1</title>
<g id="a_node1"><a xlink:title=" ">
<polygon fill="#bfbfbf" stroke="black" points="65.5,-123.5 65.5,-164.5 236.5,-164.5 236.5,-123.5 65.5,-123.5"/>
<text text-anchor="start" x="73.5" y="-152.5" font-family="Helvetica,sans-Serif" font-size="10.00">language/lib/Catch2</text>
<text text-anchor="start" x="73.5" y="-141.5" font-family="Helvetica,sans-Serif" font-size="10.00">/include/internal/catch</text>
<text text-anchor="middle" x="151" y="-130.5" font-family="Helvetica,sans-Serif" font-size="10.00">_startup_exception_registry.cpp</text>
</a>
</g>
</g>
<!-- Node2 -->
<g id="node2" class="node">
<title>Node2</title>
<g id="a_node2"><a xlink:href="catch__startup__exception__registry_8h.html" target="_top" xlink:title=" ">
<polygon fill="white" stroke="black" points="0,-56.5 0,-86.5 136,-86.5 136,-56.5 0,-56.5"/>
<text text-anchor="start" x="8" y="-74.5" font-family="Helvetica,sans-Serif" font-size="10.00">catch_startup_exception</text>
<text text-anchor="middle" x="68" y="-63.5" font-family="Helvetica,sans-Serif" font-size="10.00">_registry.h</text>
</a>
</g>
</g>
<!-- Node1&#45;&gt;Node2 -->
<g id="edge1" class="edge">
<title>Node1&#45;&gt;Node2</title>
<path fill="none" stroke="midnightblue" d="M127.88,-123.36C116.84,-113.99 103.63,-102.76 92.42,-93.25"/>
<polygon fill="midnightblue" stroke="midnightblue" points="94.57,-90.48 84.68,-86.67 90.04,-95.81 94.57,-90.48"/>
</g>
<!-- Node5 -->
<g id="node5" class="node">
<title>Node5</title>
<g id="a_node5"><a xlink:href="catch__compiler__capabilities_8h.html" target="_top" xlink:title=" ">
<polygon fill="white" stroke="black" points="154.5,-62 154.5,-81 315.5,-81 315.5,-62 154.5,-62"/>
<text text-anchor="middle" x="235" y="-69" font-family="Helvetica,sans-Serif" font-size="10.00">catch_compiler_capabilities.h</text>
</a>
</g>
</g>
<!-- Node1&#45;&gt;Node5 -->
<g id="edge4" class="edge">
<title>Node1&#45;&gt;Node5</title>
<path fill="none" stroke="midnightblue" d="M174.4,-123.36C187.81,-112.11 204.39,-98.19 216.82,-87.76"/>
<polygon fill="midnightblue" stroke="midnightblue" points="219.26,-90.28 224.67,-81.17 214.76,-84.92 219.26,-90.28"/>
</g>
<!-- Node3 -->
<g id="node3" class="node">
<title>Node3</title>
<g id="a_node3"><a xlink:title=" ">
<polygon fill="white" stroke="#bfbfbf" points="4.5,-0.5 4.5,-19.5 51.5,-19.5 51.5,-0.5 4.5,-0.5"/>
<text text-anchor="middle" x="28" y="-7.5" font-family="Helvetica,sans-Serif" font-size="10.00">vector</text>
</a>
</g>
</g>
<!-- Node2&#45;&gt;Node3 -->
<g id="edge2" class="edge">
<title>Node2&#45;&gt;Node3</title>
<path fill="none" stroke="midnightblue" d="M58.52,-56.4C52.83,-47.93 45.55,-37.1 39.52,-28.14"/>
<polygon fill="midnightblue" stroke="midnightblue" points="42.3,-26 33.82,-19.66 36.49,-29.91 42.3,-26"/>
</g>
<!-- Node4 -->
<g id="node4" class="node">
<title>Node4</title>
<g id="a_node4"><a xlink:title=" ">
<polygon fill="white" stroke="#bfbfbf" points="69.5,-0.5 69.5,-19.5 134.5,-19.5 134.5,-0.5 69.5,-0.5"/>
<text text-anchor="middle" x="102" y="-7.5" font-family="Helvetica,sans-Serif" font-size="10.00">exception</text>
</a>
</g>
</g>
<!-- Node2&#45;&gt;Node4 -->
<g id="edge3" class="edge">
<title>Node2&#45;&gt;Node4</title>
<path fill="none" stroke="midnightblue" d="M76.06,-56.4C80.85,-48.02 86.96,-37.33 92.04,-28.42"/>
<polygon fill="midnightblue" stroke="midnightblue" points="95.13,-30.08 97.05,-19.66 89.05,-26.6 95.13,-30.08"/>
</g>
<!-- Node6 -->
<g id="node6" class="node">
<title>Node6</title>
<g id="a_node6"><a xlink:href="catch__platform_8h.html" target="_top" xlink:title=" ">
<polygon fill="white" stroke="black" points="185.5,-0.5 185.5,-19.5 284.5,-19.5 284.5,-0.5 185.5,-0.5"/>
<text text-anchor="middle" x="235" y="-7.5" font-family="Helvetica,sans-Serif" font-size="10.00">catch_platform.h</text>
</a>
</g>
</g>
<!-- Node5&#45;&gt;Node6 -->
<g id="edge5" class="edge">
<title>Node5&#45;&gt;Node6</title>
<path fill="none" stroke="midnightblue" d="M235,-61.98C235,-53.58 235,-40.48 235,-29.66"/>
<polygon fill="midnightblue" stroke="midnightblue" points="238.5,-29.51 235,-19.51 231.5,-29.51 238.5,-29.51"/>
</g>
</g>
</svg>
