<?xml version="1.0" encoding="UTF-8" standalone="no"?>
<!DOCTYPE svg PUBLIC "-//W3C//DTD SVG 1.1//EN"
 "http://www.w3.org/Graphics/SVG/1.1/DTD/svg11.dtd">
<!-- Generated by graphviz version 2.43.0 (0)
 -->
<!-- Title: language/lib/Catch2/include/internal/catch_common.cpp Pages: 1 -->
<svg width="783pt" height="274pt"
 viewBox="0.00 0.00 783.00 274.00" xmlns="http://www.w3.org/2000/svg" xmlns:xlink="http://www.w3.org/1999/xlink">
<g id="graph0" class="graph" transform="scale(1 1) rotate(0) translate(4 270)">
<title>language/lib/Catch2/include/internal/catch_common.cpp</title>
<polygon fill="white" stroke="transparent" points="-4,4 -4,-270 779,-270 779,4 -4,4"/>
<!-- Node1 -->
<g id="node1" class="node">
<title>Node1</title>
<g id="a_node1"><a xlink:title=" ">
<polygon fill="#bfbfbf" stroke="black" points="522,-224.5 522,-265.5 647,-265.5 647,-224.5 522,-224.5"/>
<text text-anchor="start" x="530" y="-253.5" font-family="Helvetica,sans-Serif" font-size="10.00">language/lib/Catch2</text>
<text text-anchor="start" x="530" y="-242.5" font-family="Helvetica,sans-Serif" font-size="10.00">/include/internal/catch</text>
<text text-anchor="middle" x="584.5" y="-231.5" font-family="Helvetica,sans-Serif" font-size="10.00">_common.cpp</text>
</a>
</g>
</g>
<!-- Node2 -->
<g id="node2" class="node">
<title>Node2</title>
<g id="a_node2"><a xlink:href="catch__common_8h.html" target="_top" xlink:title=" ">
<polygon fill="white" stroke="black" points="150.5,-112.5 150.5,-131.5 250.5,-131.5 250.5,-112.5 150.5,-112.5"/>
<text text-anchor="middle" x="200.5" y="-119.5" font-family="Helvetica,sans-Serif" font-size="10.00">catch_common.h</text>
</a>
</g>
</g>
<!-- Node1&#45;&gt;Node2 -->
<g id="edge1" class="edge">
<title>Node1&#45;&gt;Node2</title>
<path fill="none" stroke="midnightblue" d="M521.71,-229.48C478.78,-219.1 420.78,-204.14 370.5,-188 320.39,-171.92 263.52,-149.25 229.9,-135.37"/>
<polygon fill="midnightblue" stroke="midnightblue" points="231.23,-132.13 220.66,-131.53 228.55,-138.6 231.23,-132.13"/>
</g>
<!-- Node8 -->
<g id="node8" class="node">
<title>Node8</title>
<g id="a_node8"><a xlink:href="catch__context_8h.html" target="_top" xlink:title=" ">
<polygon fill="white" stroke="black" points="537.5,-168.5 537.5,-187.5 631.5,-187.5 631.5,-168.5 537.5,-168.5"/>
<text text-anchor="middle" x="584.5" y="-175.5" font-family="Helvetica,sans-Serif" font-size="10.00">catch_context.h</text>
</a>
</g>
</g>
<!-- Node1&#45;&gt;Node8 -->
<g id="edge7" class="edge">
<title>Node1&#45;&gt;Node8</title>
<path fill="none" stroke="midnightblue" d="M584.5,-224.5C584.5,-216.07 584.5,-206.24 584.5,-197.87"/>
<polygon fill="midnightblue" stroke="midnightblue" points="588,-197.65 584.5,-187.65 581,-197.65 588,-197.65"/>
</g>
<!-- Node10 -->
<g id="node10" class="node">
<title>Node10</title>
<g id="a_node10"><a xlink:href="catch__interfaces__config_8h.html" target="_top" xlink:title=" ">
<polygon fill="white" stroke="black" points="379.5,-168.5 379.5,-187.5 519.5,-187.5 519.5,-168.5 379.5,-168.5"/>
<text text-anchor="middle" x="449.5" y="-175.5" font-family="Helvetica,sans-Serif" font-size="10.00">catch_interfaces_config.h</text>
</a>
</g>
</g>
<!-- Node1&#45;&gt;Node10 -->
<g id="edge9" class="edge">
<title>Node1&#45;&gt;Node10</title>
<path fill="none" stroke="midnightblue" d="M544,-224.5C522.2,-214.01 495.92,-201.35 476.61,-192.05"/>
<polygon fill="midnightblue" stroke="midnightblue" points="478,-188.84 467.47,-187.65 474.96,-195.14 478,-188.84"/>
</g>
<!-- Node14 -->
<g id="node14" class="node">
<title>Node14</title>
<g id="a_node14"><a xlink:title=" ">
<polygon fill="white" stroke="#bfbfbf" points="649.5,-168.5 649.5,-187.5 699.5,-187.5 699.5,-168.5 649.5,-168.5"/>
<text text-anchor="middle" x="674.5" y="-175.5" font-family="Helvetica,sans-Serif" font-size="10.00">cstring</text>
</a>
</g>
</g>
<!-- Node1&#45;&gt;Node14 -->
<g id="edge17" class="edge">
<title>Node1&#45;&gt;Node14</title>
<path fill="none" stroke="midnightblue" d="M611.5,-224.5C625.17,-214.63 641.49,-202.84 654.09,-193.74"/>
<polygon fill="midnightblue" stroke="midnightblue" points="656.46,-196.34 662.52,-187.65 652.36,-190.67 656.46,-196.34"/>
</g>
<!-- Node15 -->
<g id="node15" class="node">
<title>Node15</title>
<g id="a_node15"><a xlink:title=" ">
<polygon fill="white" stroke="#bfbfbf" points="718,-168.5 718,-187.5 775,-187.5 775,-168.5 718,-168.5"/>
<text text-anchor="middle" x="746.5" y="-175.5" font-family="Helvetica,sans-Serif" font-size="10.00">ostream</text>
</a>
</g>
</g>
<!-- Node1&#45;&gt;Node15 -->
<g id="edge18" class="edge">
<title>Node1&#45;&gt;Node15</title>
<path fill="none" stroke="midnightblue" d="M633.11,-224.5C659.85,-213.77 692.24,-200.77 715.55,-191.42"/>
<polygon fill="midnightblue" stroke="midnightblue" points="716.96,-194.62 724.94,-187.65 714.35,-188.13 716.96,-194.62"/>
</g>
<!-- Node3 -->
<g id="node3" class="node">
<title>Node3</title>
<g id="a_node3"><a xlink:href="catch__compiler__capabilities_8h.html" target="_top" xlink:title=" ">
<polygon fill="white" stroke="black" points="0,-56.5 0,-75.5 161,-75.5 161,-56.5 0,-56.5"/>
<text text-anchor="middle" x="80.5" y="-63.5" font-family="Helvetica,sans-Serif" font-size="10.00">catch_compiler_capabilities.h</text>
</a>
</g>
</g>
<!-- Node2&#45;&gt;Node3 -->
<g id="edge2" class="edge">
<title>Node2&#45;&gt;Node3</title>
<path fill="none" stroke="midnightblue" d="M181.49,-112.44C161.91,-103.64 131.19,-89.81 108.77,-79.72"/>
<polygon fill="midnightblue" stroke="midnightblue" points="109.98,-76.43 99.43,-75.52 107.11,-82.81 109.98,-76.43"/>
</g>
<!-- Node5 -->
<g id="node5" class="node">
<title>Node5</title>
<g id="a_node5"><a xlink:title=" ">
<polygon fill="white" stroke="#bfbfbf" points="428.5,-56.5 428.5,-75.5 476.5,-75.5 476.5,-56.5 428.5,-56.5"/>
<text text-anchor="middle" x="452.5" y="-63.5" font-family="Helvetica,sans-Serif" font-size="10.00">iosfwd</text>
</a>
</g>
</g>
<!-- Node2&#45;&gt;Node5 -->
<g id="edge4" class="edge">
<title>Node2&#45;&gt;Node5</title>
<path fill="none" stroke="midnightblue" d="M240.43,-112.44C289.59,-101.91 372.23,-84.2 418.5,-74.29"/>
<polygon fill="midnightblue" stroke="midnightblue" points="419.3,-77.69 428.34,-72.18 417.83,-70.85 419.3,-77.69"/>
</g>
<!-- Node6 -->
<g id="node6" class="node">
<title>Node6</title>
<g id="a_node6"><a xlink:title=" ">
<polygon fill="white" stroke="#bfbfbf" points="253.5,-56.5 253.5,-75.5 297.5,-75.5 297.5,-56.5 253.5,-56.5"/>
<text text-anchor="middle" x="275.5" y="-63.5" font-family="Helvetica,sans-Serif" font-size="10.00">string</text>
</a>
</g>
</g>
<!-- Node2&#45;&gt;Node6 -->
<g id="edge5" class="edge">
<title>Node2&#45;&gt;Node6</title>
<path fill="none" stroke="midnightblue" d="M212.55,-112.32C223.96,-104.11 241.33,-91.6 254.93,-81.81"/>
<polygon fill="midnightblue" stroke="midnightblue" points="257.16,-84.52 263.23,-75.83 253.07,-78.84 257.16,-84.52"/>
</g>
<!-- Node7 -->
<g id="node7" class="node">
<title>Node7</title>
<g id="a_node7"><a xlink:title=" ">
<polygon fill="white" stroke="#bfbfbf" points="179.5,-56.5 179.5,-75.5 229.5,-75.5 229.5,-56.5 179.5,-56.5"/>
<text text-anchor="middle" x="204.5" y="-63.5" font-family="Helvetica,sans-Serif" font-size="10.00">cstdint</text>
</a>
</g>
</g>
<!-- Node2&#45;&gt;Node7 -->
<g id="edge6" class="edge">
<title>Node2&#45;&gt;Node7</title>
<path fill="none" stroke="midnightblue" d="M201.16,-112.08C201.68,-105.01 202.44,-94.86 203.09,-85.99"/>
<polygon fill="midnightblue" stroke="midnightblue" points="206.6,-85.98 203.85,-75.75 199.62,-85.47 206.6,-85.98"/>
</g>
<!-- Node4 -->
<g id="node4" class="node">
<title>Node4</title>
<g id="a_node4"><a xlink:href="catch__platform_8h.html" target="_top" xlink:title=" ">
<polygon fill="white" stroke="black" points="31,-0.5 31,-19.5 130,-19.5 130,-0.5 31,-0.5"/>
<text text-anchor="middle" x="80.5" y="-7.5" font-family="Helvetica,sans-Serif" font-size="10.00">catch_platform.h</text>
</a>
</g>
</g>
<!-- Node3&#45;&gt;Node4 -->
<g id="edge3" class="edge">
<title>Node3&#45;&gt;Node4</title>
<path fill="none" stroke="midnightblue" d="M80.5,-56.08C80.5,-49.01 80.5,-38.86 80.5,-29.99"/>
<polygon fill="midnightblue" stroke="midnightblue" points="84,-29.75 80.5,-19.75 77,-29.75 84,-29.75"/>
</g>
<!-- Node9 -->
<g id="node9" class="node">
<title>Node9</title>
<g id="a_node9"><a xlink:title=" ">
<polygon fill="white" stroke="#bfbfbf" points="596.5,-112.5 596.5,-131.5 654.5,-131.5 654.5,-112.5 596.5,-112.5"/>
<text text-anchor="middle" x="625.5" y="-119.5" font-family="Helvetica,sans-Serif" font-size="10.00">memory</text>
</a>
</g>
</g>
<!-- Node8&#45;&gt;Node9 -->
<g id="edge8" class="edge">
<title>Node8&#45;&gt;Node9</title>
<path fill="none" stroke="midnightblue" d="M591.27,-168.08C597.06,-160.46 605.56,-149.26 612.64,-139.94"/>
<polygon fill="midnightblue" stroke="midnightblue" points="615.6,-141.83 618.86,-131.75 610.02,-137.6 615.6,-141.83"/>
</g>
<!-- Node10&#45;&gt;Node2 -->
<g id="edge10" class="edge">
<title>Node10&#45;&gt;Node2</title>
<path fill="none" stroke="midnightblue" d="M410.05,-168.44C366.61,-159.02 296.71,-143.87 249.72,-133.68"/>
<polygon fill="midnightblue" stroke="midnightblue" points="250.28,-130.22 239.77,-131.52 248.8,-137.06 250.28,-130.22"/>
</g>
<!-- Node10&#45;&gt;Node5 -->
<g id="edge13" class="edge">
<title>Node10&#45;&gt;Node5</title>
<path fill="none" stroke="midnightblue" d="M494.2,-168.48C514.73,-162.09 537.2,-151.02 549.5,-132 567.83,-103.65 521.25,-84.67 486.46,-74.88"/>
<polygon fill="midnightblue" stroke="midnightblue" points="487.14,-71.44 476.58,-72.24 485.34,-78.2 487.14,-71.44"/>
</g>
<!-- Node10&#45;&gt;Node6 -->
<g id="edge14" class="edge">
<title>Node10&#45;&gt;Node6</title>
<path fill="none" stroke="midnightblue" d="M379.25,-170.35C350.73,-164.35 319.41,-153.09 297.5,-132 285.04,-120.01 279.63,-100.71 277.29,-86.25"/>
<polygon fill="midnightblue" stroke="midnightblue" points="280.71,-85.41 275.99,-75.93 273.77,-86.28 280.71,-85.41"/>
</g>
<!-- Node10&#45;&gt;Node9 -->
<g id="edge16" class="edge">
<title>Node10&#45;&gt;Node9</title>
<path fill="none" stroke="midnightblue" d="M477.39,-168.44C507.25,-159.28 554.81,-144.69 587.96,-134.52"/>
<polygon fill="midnightblue" stroke="midnightblue" points="589.21,-137.8 597.74,-131.52 587.16,-131.1 589.21,-137.8"/>
</g>
<!-- Node11 -->
<g id="node11" class="node">
<title>Node11</title>
<g id="a_node11"><a xlink:href="catch__option_8hpp.html" target="_top" xlink:title=" ">
<polygon fill="white" stroke="black" points="306.5,-112.5 306.5,-131.5 406.5,-131.5 406.5,-112.5 306.5,-112.5"/>
<text text-anchor="middle" x="356.5" y="-119.5" font-family="Helvetica,sans-Serif" font-size="10.00">catch_option.hpp</text>
</a>
</g>
</g>
<!-- Node10&#45;&gt;Node11 -->
<g id="edge11" class="edge">
<title>Node10&#45;&gt;Node11</title>
<path fill="none" stroke="midnightblue" d="M434.56,-168.32C419.91,-159.82 397.37,-146.73 380.26,-136.8"/>
<polygon fill="midnightblue" stroke="midnightblue" points="381.81,-133.65 371.4,-131.65 378.3,-139.7 381.81,-133.65"/>
</g>
<!-- Node12 -->
<g id="node12" class="node">
<title>Node12</title>
<g id="a_node12"><a xlink:title=" ">
<polygon fill="white" stroke="#bfbfbf" points="424.5,-112.5 424.5,-131.5 474.5,-131.5 474.5,-112.5 424.5,-112.5"/>
<text text-anchor="middle" x="449.5" y="-119.5" font-family="Helvetica,sans-Serif" font-size="10.00">chrono</text>
</a>
</g>
</g>
<!-- Node10&#45;&gt;Node12 -->
<g id="edge12" class="edge">
<title>Node10&#45;&gt;Node12</title>
<path fill="none" stroke="midnightblue" d="M449.5,-168.08C449.5,-161.01 449.5,-150.86 449.5,-141.99"/>
<polygon fill="midnightblue" stroke="midnightblue" points="453,-141.75 449.5,-131.75 446,-141.75 453,-141.75"/>
</g>
<!-- Node13 -->
<g id="node13" class="node">
<title>Node13</title>
<g id="a_node13"><a xlink:title=" ">
<polygon fill="white" stroke="#bfbfbf" points="493,-112.5 493,-131.5 540,-131.5 540,-112.5 493,-112.5"/>
<text text-anchor="middle" x="516.5" y="-119.5" font-family="Helvetica,sans-Serif" font-size="10.00">vector</text>
</a>
</g>
</g>
<!-- Node10&#45;&gt;Node13 -->
<g id="edge15" class="edge">
<title>Node10&#45;&gt;Node13</title>
<path fill="none" stroke="midnightblue" d="M460.26,-168.32C470.27,-160.26 485.39,-148.08 497.43,-138.37"/>
<polygon fill="midnightblue" stroke="midnightblue" points="499.95,-140.83 505.54,-131.83 495.56,-135.38 499.95,-140.83"/>
</g>
</g>
</svg>
