<?xml version="1.0" encoding="UTF-8" standalone="no"?>
<!DOCTYPE svg PUBLIC "-//W3C//DTD SVG 1.1//EN"
 "http://www.w3.org/Graphics/SVG/1.1/DTD/svg11.dtd">
<!-- Generated by graphviz version 2.43.0 (0)
 -->
<!-- Title: language/lib/Catch2/include/internal/catch_tag_alias_registry.cpp Pages: 1 -->
<!--zoomable 352 -->
<svg id="main" version="1.1" xmlns="http://www.w3.org/2000/svg" xmlns:xlink="http://www.w3.org/1999/xlink" xml:space="preserve" onload="init(evt)">
<style type="text/css"><![CDATA[
.edge:hover path { stroke: red; }
.edge:hover polygon { stroke: red; fill: red; }
]]></style>
<script type="text/javascript"><![CDATA[
var edges = document.getElementsByTagName('g');
if (edges && edges.length) {
  for (var i=0;i<edges.length;i++) {
    if (edges[i].id.substr(0,4)=='edge') {
      edges[i].setAttribute('class','edge');
    }
  }
}
]]></script>
        <defs>
                <circle id="rim" cx="0" cy="0" r="7"/>
                <circle id="rim2" cx="0" cy="0" r="3.5"/>
                <g id="zoomPlus">
                        <use xlink:href="#rim" fill="#404040">
                                <set attributeName="fill" to="#808080" begin="zoomplus.mouseover" end="zoomplus.mouseout"/>
                        </use>
                        <path d="M-4,0h8M0,-4v8" fill="none" stroke="white" stroke-width="1.5" pointer-events="none"/>
                </g>
                <g id="zoomMin">
                        <use xlink:href="#rim" fill="#404040">
                                <set attributeName="fill" to="#808080" begin="zoomminus.mouseover" end="zoomminus.mouseout"/>
                        </use>
                        <path d="M-4,0h8" fill="none" stroke="white" stroke-width="1.5" pointer-events="none"/>
                </g>
                <g id="dirArrow">
                        <path fill="none" stroke="white" stroke-width="1.5" d="M0,-3.0v7 M-2.5,-0.5L0,-3.0L2.5,-0.5"/>
                </g>
               <g id="resetDef">
                       <use xlink:href="#rim2" fill="#404040">
                               <set attributeName="fill" to="#808080" begin="reset.mouseover" end="reset.mouseout"/>
                       </use>
               </g>
        </defs>

<script type="text/javascript">
var viewWidth = 927;
var viewHeight = 352;
var sectionId = 'dynsection-0';
</script>
<script xlink:href="svgpan.js"/>
<svg id="graph" class="graph">
<g id="viewport">
<title>language/lib/Catch2/include/internal/catch_tag_alias_registry.cpp</title>
<polygon fill="white" stroke="transparent" points="-4,4 -4,-348 923,-348 923,4 -4,4"/>
<!-- Node1 -->
<g id="node1" class="node">
<title>Node1</title>
<g id="a_node1"><a xlink:title=" ">
<polygon fill="#bfbfbf" stroke="black" points="439.5,-302.5 439.5,-343.5 567.5,-343.5 567.5,-302.5 439.5,-302.5"/>
<text text-anchor="start" x="447.5" y="-331.5" font-family="Helvetica,sans-Serif" font-size="10.00">language/lib/Catch2</text>
<text text-anchor="start" x="447.5" y="-320.5" font-family="Helvetica,sans-Serif" font-size="10.00">/include/internal/catch</text>
<text text-anchor="middle" x="503.5" y="-309.5" font-family="Helvetica,sans-Serif" font-size="10.00">_tag_alias_registry.cpp</text>
</a>
</g>
</g>
<!-- Node2 -->
<g id="node2" class="node">
<title>Node2</title>
<g id="a_node2"><a xlink:href="catch__tag__alias__registry_8h.html" target="_top" xlink:title=" ">
<polygon fill="white" stroke="black" points="489,-246.5 489,-265.5 632,-265.5 632,-246.5 489,-246.5"/>
<text text-anchor="middle" x="560.5" y="-253.5" font-family="Helvetica,sans-Serif" font-size="10.00">catch_tag_alias_registry.h</text>
</a>
</g>
</g>
<!-- Node1&#45;&gt;Node2 -->
<g id="edge1" class="edge">
<title>Node1&#45;&gt;Node2</title>
<path fill="none" stroke="midnightblue" d="M520.6,-302.5C528.75,-293.2 538.39,-282.21 546.16,-273.36"/>
<polygon fill="midnightblue" stroke="midnightblue" points="548.95,-275.48 552.91,-265.65 543.69,-270.86 548.95,-275.48"/>
</g>
<!-- Node12 -->
<g id="node12" class="node">
<title>Node12</title>
<g id="a_node12"><a xlink:href="catch__console__colour_8h.html" target="_top" xlink:title=" ">
<polygon fill="white" stroke="black" points="281,-246.5 281,-265.5 410,-265.5 410,-246.5 281,-246.5"/>
<text text-anchor="middle" x="345.5" y="-253.5" font-family="Helvetica,sans-Serif" font-size="10.00">catch_console_colour.h</text>
</a>
</g>
</g>
<!-- Node1&#45;&gt;Node12 -->
<g id="edge13" class="edge">
<title>Node1&#45;&gt;Node12</title>
<path fill="none" stroke="midnightblue" d="M456.09,-302.5C430.12,-291.81 398.7,-278.89 375.99,-269.54"/>
<polygon fill="midnightblue" stroke="midnightblue" points="377.11,-266.22 366.53,-265.65 374.45,-272.69 377.11,-266.22"/>
</g>
<!-- Node13 -->
<g id="node13" class="node">
<title>Node13</title>
<g id="a_node13"><a xlink:href="catch__enforce_8h.html" target="_top" xlink:title=" ">
<polygon fill="white" stroke="black" points="162.5,-246.5 162.5,-265.5 256.5,-265.5 256.5,-246.5 162.5,-246.5"/>
<text text-anchor="middle" x="209.5" y="-253.5" font-family="Helvetica,sans-Serif" font-size="10.00">catch_enforce.h</text>
</a>
</g>
</g>
<!-- Node1&#45;&gt;Node13 -->
<g id="edge15" class="edge">
<title>Node1&#45;&gt;Node13</title>
<path fill="none" stroke="midnightblue" d="M439.34,-307.82C384.81,-295.76 307.69,-278.71 258.14,-267.75"/>
<polygon fill="midnightblue" stroke="midnightblue" points="258.82,-264.32 248.3,-265.58 257.31,-271.16 258.82,-264.32"/>
</g>
<!-- Node18 -->
<g id="node18" class="node">
<title>Node18</title>
<g id="a_node18"><a xlink:href="catch__interfaces__registry__hub_8h.html" target="_top" xlink:title=" ">
<polygon fill="white" stroke="black" points="351.5,-179.5 351.5,-209.5 491.5,-209.5 491.5,-179.5 351.5,-179.5"/>
<text text-anchor="start" x="359.5" y="-197.5" font-family="Helvetica,sans-Serif" font-size="10.00">catch_interfaces_registry</text>
<text text-anchor="middle" x="421.5" y="-186.5" font-family="Helvetica,sans-Serif" font-size="10.00">_hub.h</text>
</a>
</g>
</g>
<!-- Node1&#45;&gt;Node18 -->
<g id="edge24" class="edge">
<title>Node1&#45;&gt;Node18</title>
<path fill="none" stroke="midnightblue" d="M490.69,-302.23C475.91,-279.44 451.66,-242.03 436.15,-218.1"/>
<polygon fill="midnightblue" stroke="midnightblue" points="439.04,-216.13 430.67,-209.64 433.17,-219.94 439.04,-216.13"/>
</g>
<!-- Node20 -->
<g id="node20" class="node">
<title>Node20</title>
<g id="a_node20"><a xlink:href="catch__string__manip_8h.html" target="_top" xlink:title=" ">
<polygon fill="white" stroke="black" points="724,-185 724,-204 845,-204 845,-185 724,-185"/>
<text text-anchor="middle" x="784.5" y="-192" font-family="Helvetica,sans-Serif" font-size="10.00">catch_string_manip.h</text>
</a>
</g>
</g>
<!-- Node1&#45;&gt;Node20 -->
<g id="edge28" class="edge">
<title>Node1&#45;&gt;Node20</title>
<path fill="none" stroke="midnightblue" d="M555.14,-302.45C581.28,-292.2 613.36,-279.07 641.5,-266 658.81,-257.96 662.45,-254.58 679.5,-246 705.67,-232.83 735.83,-218.4 757.09,-208.35"/>
<polygon fill="midnightblue" stroke="midnightblue" points="758.64,-211.49 766.19,-204.06 755.65,-205.16 758.64,-211.49"/>
</g>
<!-- Node24 -->
<g id="node24" class="node">
<title>Node24</title>
<g id="a_node24"><a xlink:title=" ">
<polygon fill="white" stroke="#bfbfbf" points="688.5,-246.5 688.5,-265.5 744.5,-265.5 744.5,-246.5 688.5,-246.5"/>
<text text-anchor="middle" x="716.5" y="-253.5" font-family="Helvetica,sans-Serif" font-size="10.00">sstream</text>
</a>
</g>
</g>
<!-- Node1&#45;&gt;Node24 -->
<g id="edge37" class="edge">
<title>Node1&#45;&gt;Node24</title>
<path fill="none" stroke="midnightblue" d="M567.41,-302.5C603.63,-291.44 647.72,-277.99 678.52,-268.59"/>
<polygon fill="midnightblue" stroke="midnightblue" points="679.88,-271.83 688.43,-265.57 677.84,-265.14 679.88,-271.83"/>
</g>
<!-- Node3 -->
<g id="node3" class="node">
<title>Node3</title>
<g id="a_node3"><a xlink:href="catch__interfaces__tag__alias__registry_8h.html" target="_top" xlink:title=" ">
<polygon fill="white" stroke="black" points="697.5,-112.5 697.5,-142.5 815.5,-142.5 815.5,-112.5 697.5,-112.5"/>
<text text-anchor="start" x="705.5" y="-130.5" font-family="Helvetica,sans-Serif" font-size="10.00">catch_interfaces_tag</text>
<text text-anchor="middle" x="756.5" y="-119.5" font-family="Helvetica,sans-Serif" font-size="10.00">_alias_registry.h</text>
</a>
</g>
</g>
<!-- Node2&#45;&gt;Node3 -->
<g id="edge2" class="edge">
<title>Node2&#45;&gt;Node3</title>
<path fill="none" stroke="midnightblue" d="M593.02,-246.44C617.3,-239.12 650.61,-227.05 676.5,-210 701.12,-193.79 724.12,-168.92 739.09,-150.92"/>
<polygon fill="midnightblue" stroke="midnightblue" points="742.17,-152.67 745.76,-142.7 736.74,-148.25 742.17,-152.67"/>
</g>
<!-- Node5 -->
<g id="node5" class="node">
<title>Node5</title>
<g id="a_node5"><a xlink:href="catch__tag__alias_8h.html" target="_top" xlink:title=" ">
<polygon fill="white" stroke="black" points="510,-185 510,-204 611,-204 611,-185 510,-185"/>
<text text-anchor="middle" x="560.5" y="-192" font-family="Helvetica,sans-Serif" font-size="10.00">catch_tag_alias.h</text>
</a>
</g>
</g>
<!-- Node2&#45;&gt;Node5 -->
<g id="edge4" class="edge">
<title>Node2&#45;&gt;Node5</title>
<path fill="none" stroke="midnightblue" d="M560.5,-246.48C560.5,-238.08 560.5,-224.98 560.5,-214.16"/>
<polygon fill="midnightblue" stroke="midnightblue" points="564,-214.01 560.5,-204.01 557,-214.01 564,-214.01"/>
</g>
<!-- Node11 -->
<g id="node11" class="node">
<title>Node11</title>
<g id="a_node11"><a xlink:title=" ">
<polygon fill="white" stroke="#bfbfbf" points="629.5,-185 629.5,-204 667.5,-204 667.5,-185 629.5,-185"/>
<text text-anchor="middle" x="648.5" y="-192" font-family="Helvetica,sans-Serif" font-size="10.00">map</text>
</a>
</g>
</g>
<!-- Node2&#45;&gt;Node11 -->
<g id="edge12" class="edge">
<title>Node2&#45;&gt;Node11</title>
<path fill="none" stroke="midnightblue" d="M573.11,-246.48C587.22,-236.93 610.33,-221.31 627.25,-209.87"/>
<polygon fill="midnightblue" stroke="midnightblue" points="629.59,-212.51 635.92,-204.01 625.67,-206.71 629.59,-212.51"/>
</g>
<!-- Node4 -->
<g id="node4" class="node">
<title>Node4</title>
<g id="a_node4"><a xlink:title=" ">
<polygon fill="white" stroke="#bfbfbf" points="628.5,-56.5 628.5,-75.5 672.5,-75.5 672.5,-56.5 628.5,-56.5"/>
<text text-anchor="middle" x="650.5" y="-63.5" font-family="Helvetica,sans-Serif" font-size="10.00">string</text>
</a>
</g>
</g>
<!-- Node3&#45;&gt;Node4 -->
<g id="edge3" class="edge">
<title>Node3&#45;&gt;Node4</title>
<path fill="none" stroke="midnightblue" d="M731.38,-112.4C714.23,-102.77 691.64,-90.09 674.69,-80.58"/>
<polygon fill="midnightblue" stroke="midnightblue" points="676.36,-77.5 665.92,-75.66 672.93,-83.6 676.36,-77.5"/>
</g>
<!-- Node5&#45;&gt;Node4 -->
<g id="edge11" class="edge">
<title>Node5&#45;&gt;Node4</title>
<path fill="none" stroke="midnightblue" d="M588.06,-184.9C607.65,-177.23 632.67,-163.92 645.5,-143 656.06,-125.78 655.8,-102.05 653.87,-85.71"/>
<polygon fill="midnightblue" stroke="midnightblue" points="657.32,-85.13 652.38,-75.75 650.4,-86.16 657.32,-85.13"/>
</g>
<!-- Node6 -->
<g id="node6" class="node">
<title>Node6</title>
<g id="a_node6"><a xlink:href="catch__common_8h.html" target="_top" xlink:title=" ">
<polygon fill="white" stroke="black" points="273.5,-118 273.5,-137 373.5,-137 373.5,-118 273.5,-118"/>
<text text-anchor="middle" x="323.5" y="-125" font-family="Helvetica,sans-Serif" font-size="10.00">catch_common.h</text>
</a>
</g>
</g>
<!-- Node5&#45;&gt;Node6 -->
<g id="edge5" class="edge">
<title>Node5&#45;&gt;Node6</title>
<path fill="none" stroke="midnightblue" d="M529.03,-184.87C486.68,-173.25 411.28,-152.58 364.53,-139.75"/>
<polygon fill="midnightblue" stroke="midnightblue" points="365.29,-136.33 354.72,-137.06 363.44,-143.08 365.29,-136.33"/>
</g>
<!-- Node6&#45;&gt;Node4 -->
<g id="edge9" class="edge">
<title>Node6&#45;&gt;Node4</title>
<path fill="none" stroke="midnightblue" d="M356.48,-117.93C364.93,-115.87 374.03,-113.75 382.5,-112 427.18,-102.77 557.29,-81.81 618.27,-72.1"/>
<polygon fill="midnightblue" stroke="midnightblue" points="619.14,-75.51 628.47,-70.48 618.04,-68.59 619.14,-75.51"/>
</g>
<!-- Node7 -->
<g id="node7" class="node">
<title>Node7</title>
<g id="a_node7"><a xlink:href="catch__compiler__capabilities_8h.html" target="_top" xlink:title=" ">
<polygon fill="white" stroke="black" points="66,-56.5 66,-75.5 227,-75.5 227,-56.5 66,-56.5"/>
<text text-anchor="middle" x="146.5" y="-63.5" font-family="Helvetica,sans-Serif" font-size="10.00">catch_compiler_capabilities.h</text>
</a>
</g>
</g>
<!-- Node6&#45;&gt;Node7 -->
<g id="edge6" class="edge">
<title>Node6&#45;&gt;Node7</title>
<path fill="none" stroke="midnightblue" d="M298.14,-117.98C267.52,-107.68 215.84,-90.31 181.45,-78.75"/>
<polygon fill="midnightblue" stroke="midnightblue" points="182.41,-75.38 171.81,-75.51 180.18,-82.01 182.41,-75.38"/>
</g>
<!-- Node9 -->
<g id="node9" class="node">
<title>Node9</title>
<g id="a_node9"><a xlink:title=" ">
<polygon fill="white" stroke="#bfbfbf" points="446.5,-56.5 446.5,-75.5 494.5,-75.5 494.5,-56.5 446.5,-56.5"/>
<text text-anchor="middle" x="470.5" y="-63.5" font-family="Helvetica,sans-Serif" font-size="10.00">iosfwd</text>
</a>
</g>
</g>
<!-- Node6&#45;&gt;Node9 -->
<g id="edge8" class="edge">
<title>Node6&#45;&gt;Node9</title>
<path fill="none" stroke="midnightblue" d="M344.56,-117.98C369.56,-107.86 411.44,-90.9 439.99,-79.35"/>
<polygon fill="midnightblue" stroke="midnightblue" points="441.52,-82.51 449.48,-75.51 438.89,-76.02 441.52,-82.51"/>
</g>
<!-- Node10 -->
<g id="node10" class="node">
<title>Node10</title>
<g id="a_node10"><a xlink:title=" ">
<polygon fill="white" stroke="#bfbfbf" points="298.5,-56.5 298.5,-75.5 348.5,-75.5 348.5,-56.5 298.5,-56.5"/>
<text text-anchor="middle" x="323.5" y="-63.5" font-family="Helvetica,sans-Serif" font-size="10.00">cstdint</text>
</a>
</g>
</g>
<!-- Node6&#45;&gt;Node10 -->
<g id="edge10" class="edge">
<title>Node6&#45;&gt;Node10</title>
<path fill="none" stroke="midnightblue" d="M323.5,-117.98C323.5,-109.58 323.5,-96.48 323.5,-85.66"/>
<polygon fill="midnightblue" stroke="midnightblue" points="327,-85.51 323.5,-75.51 320,-85.51 327,-85.51"/>
</g>
<!-- Node8 -->
<g id="node8" class="node">
<title>Node8</title>
<g id="a_node8"><a xlink:href="catch__platform_8h.html" target="_top" xlink:title=" ">
<polygon fill="white" stroke="black" points="97,-0.5 97,-19.5 196,-19.5 196,-0.5 97,-0.5"/>
<text text-anchor="middle" x="146.5" y="-7.5" font-family="Helvetica,sans-Serif" font-size="10.00">catch_platform.h</text>
</a>
</g>
</g>
<!-- Node7&#45;&gt;Node8 -->
<g id="edge7" class="edge">
<title>Node7&#45;&gt;Node8</title>
<path fill="none" stroke="midnightblue" d="M146.5,-56.08C146.5,-49.01 146.5,-38.86 146.5,-29.99"/>
<polygon fill="midnightblue" stroke="midnightblue" points="150,-29.75 146.5,-19.75 143,-29.75 150,-29.75"/>
</g>
<!-- Node12&#45;&gt;Node6 -->
<g id="edge14" class="edge">
<title>Node12&#45;&gt;Node6</title>
<path fill="none" stroke="midnightblue" d="M343.99,-246.31C340.46,-225.99 331.6,-175.05 326.77,-147.28"/>
<polygon fill="midnightblue" stroke="midnightblue" points="330.18,-146.51 325.02,-137.26 323.29,-147.71 330.18,-146.51"/>
</g>
<!-- Node13&#45;&gt;Node6 -->
<g id="edge16" class="edge">
<title>Node13&#45;&gt;Node6</title>
<path fill="none" stroke="midnightblue" d="M222.08,-246.18C233.76,-237.65 251.3,-224.01 264.5,-210 283.53,-189.81 301.66,-163.3 312.68,-146.09"/>
<polygon fill="midnightblue" stroke="midnightblue" points="315.94,-147.47 318.3,-137.14 310.01,-143.75 315.94,-147.47"/>
</g>
<!-- Node13&#45;&gt;Node7 -->
<g id="edge17" class="edge">
<title>Node13&#45;&gt;Node7</title>
<path fill="none" stroke="midnightblue" d="M196.71,-246.37C184.87,-237.99 167.23,-224.44 154.5,-210 131.26,-183.64 122.21,-176.78 112.5,-143 108.69,-129.76 108.12,-125.06 112.5,-112 116.1,-101.25 123.4,-91.02 130.32,-83.04"/>
<polygon fill="midnightblue" stroke="midnightblue" points="132.98,-85.32 137.21,-75.61 127.85,-80.56 132.98,-85.32"/>
</g>
<!-- Node14 -->
<g id="node14" class="node">
<title>Node14</title>
<g id="a_node14"><a xlink:href="catch__stream_8h.html" target="_top" xlink:title=" ">
<polygon fill="white" stroke="black" points="163.5,-185 163.5,-204 255.5,-204 255.5,-185 163.5,-185"/>
<text text-anchor="middle" x="209.5" y="-192" font-family="Helvetica,sans-Serif" font-size="10.00">catch_stream.h</text>
</a>
</g>
</g>
<!-- Node13&#45;&gt;Node14 -->
<g id="edge18" class="edge">
<title>Node13&#45;&gt;Node14</title>
<path fill="none" stroke="midnightblue" d="M209.5,-246.48C209.5,-238.08 209.5,-224.98 209.5,-214.16"/>
<polygon fill="midnightblue" stroke="midnightblue" points="213,-214.01 209.5,-204.01 206,-214.01 213,-214.01"/>
</g>
<!-- Node17 -->
<g id="node17" class="node">
<title>Node17</title>
<g id="a_node17"><a xlink:title=" ">
<polygon fill="white" stroke="#bfbfbf" points="0,-185 0,-204 65,-204 65,-185 0,-185"/>
<text text-anchor="middle" x="32.5" y="-192" font-family="Helvetica,sans-Serif" font-size="10.00">exception</text>
</a>
</g>
</g>
<!-- Node13&#45;&gt;Node17 -->
<g id="edge23" class="edge">
<title>Node13&#45;&gt;Node17</title>
<path fill="none" stroke="midnightblue" d="M184.14,-246.48C153.52,-236.18 101.84,-218.81 67.45,-207.25"/>
<polygon fill="midnightblue" stroke="midnightblue" points="68.41,-203.88 57.81,-204.01 66.18,-210.51 68.41,-203.88"/>
</g>
<!-- Node14&#45;&gt;Node6 -->
<g id="edge19" class="edge">
<title>Node14&#45;&gt;Node6</title>
<path fill="none" stroke="midnightblue" d="M224.87,-184.73C244.02,-173.82 276.94,-155.05 299.44,-142.22"/>
<polygon fill="midnightblue" stroke="midnightblue" points="301.42,-145.12 308.37,-137.13 297.95,-139.04 301.42,-145.12"/>
</g>
<!-- Node14&#45;&gt;Node9 -->
<g id="edge20" class="edge">
<title>Node14&#45;&gt;Node9</title>
<path fill="none" stroke="midnightblue" d="M212.68,-185C219.44,-168.17 236.92,-130.63 264.5,-112 327.78,-69.25 358.01,-92.8 432.5,-76 433.76,-75.71 435.05,-75.42 436.35,-75.12"/>
<polygon fill="midnightblue" stroke="midnightblue" points="437.45,-78.46 446.4,-72.79 435.86,-71.64 437.45,-78.46"/>
</g>
<!-- Node15 -->
<g id="node15" class="node">
<title>Node15</title>
<g id="a_node15"><a xlink:title=" ">
<polygon fill="white" stroke="#bfbfbf" points="371,-56.5 371,-75.5 424,-75.5 424,-56.5 371,-56.5"/>
<text text-anchor="middle" x="397.5" y="-63.5" font-family="Helvetica,sans-Serif" font-size="10.00">cstddef</text>
</a>
</g>
</g>
<!-- Node14&#45;&gt;Node15 -->
<g id="edge21" class="edge">
<title>Node14&#45;&gt;Node15</title>
<path fill="none" stroke="midnightblue" d="M209.21,-184.76C209.16,-168.17 211.51,-132.01 231.5,-112 236.16,-107.34 313.34,-87.7 360.8,-75.97"/>
<polygon fill="midnightblue" stroke="midnightblue" points="361.86,-79.31 370.73,-73.52 360.18,-72.51 361.86,-79.31"/>
</g>
<!-- Node16 -->
<g id="node16" class="node">
<title>Node16</title>
<g id="a_node16"><a xlink:title=" ">
<polygon fill="white" stroke="#bfbfbf" points="122,-118 122,-137 179,-137 179,-118 122,-118"/>
<text text-anchor="middle" x="150.5" y="-125" font-family="Helvetica,sans-Serif" font-size="10.00">ostream</text>
</a>
</g>
</g>
<!-- Node14&#45;&gt;Node16 -->
<g id="edge22" class="edge">
<title>Node14&#45;&gt;Node16</title>
<path fill="none" stroke="midnightblue" d="M201.54,-184.73C192.25,-174.5 176.7,-157.36 165.2,-144.69"/>
<polygon fill="midnightblue" stroke="midnightblue" points="167.64,-142.18 158.33,-137.13 162.46,-146.88 167.64,-142.18"/>
</g>
<!-- Node18&#45;&gt;Node4 -->
<g id="edge26" class="edge">
<title>Node18&#45;&gt;Node4</title>
<path fill="none" stroke="midnightblue" d="M484.94,-179.46C536.52,-167.59 602.36,-151.25 612.5,-143 630.53,-128.34 640.75,-102.95 645.96,-85.58"/>
<polygon fill="midnightblue" stroke="midnightblue" points="649.45,-86.09 648.68,-75.52 642.69,-84.26 649.45,-86.09"/>
</g>
<!-- Node18&#45;&gt;Node6 -->
<g id="edge25" class="edge">
<title>Node18&#45;&gt;Node6</title>
<path fill="none" stroke="midnightblue" d="M400.24,-179.4C383.8,-168.5 361.16,-153.48 344.73,-142.58"/>
<polygon fill="midnightblue" stroke="midnightblue" points="346.59,-139.62 336.33,-137.01 342.72,-145.45 346.59,-139.62"/>
</g>
<!-- Node19 -->
<g id="node19" class="node">
<title>Node19</title>
<g id="a_node19"><a xlink:title=" ">
<polygon fill="white" stroke="#bfbfbf" points="391.5,-118 391.5,-137 449.5,-137 449.5,-118 391.5,-118"/>
<text text-anchor="middle" x="420.5" y="-125" font-family="Helvetica,sans-Serif" font-size="10.00">memory</text>
</a>
</g>
</g>
<!-- Node18&#45;&gt;Node19 -->
<g id="edge27" class="edge">
<title>Node18&#45;&gt;Node19</title>
<path fill="none" stroke="midnightblue" d="M421.28,-179.4C421.14,-170.06 420.95,-157.71 420.79,-147.52"/>
<polygon fill="midnightblue" stroke="midnightblue" points="424.29,-147.14 420.63,-137.19 417.29,-147.25 424.29,-147.14"/>
</g>
<!-- Node20&#45;&gt;Node4 -->
<g id="edge34" class="edge">
<title>Node20&#45;&gt;Node4</title>
<path fill="none" stroke="midnightblue" d="M794.76,-184.76C811.92,-169.1 842.83,-135.68 824.5,-112 807.27,-89.74 727.88,-76.5 682.52,-70.63"/>
<polygon fill="midnightblue" stroke="midnightblue" points="682.94,-67.15 672.58,-69.39 682.07,-74.1 682.94,-67.15"/>
</g>
<!-- Node20&#45;&gt;Node9 -->
<g id="edge35" class="edge">
<title>Node20&#45;&gt;Node9</title>
<path fill="none" stroke="midnightblue" d="M727.07,-184.96C645.58,-172.62 505.23,-150.46 496.5,-143 479.81,-128.73 473.81,-103.25 471.67,-85.76"/>
<polygon fill="midnightblue" stroke="midnightblue" points="475.14,-85.25 470.75,-75.61 468.17,-85.89 475.14,-85.25"/>
</g>
<!-- Node21 -->
<g id="node21" class="node">
<title>Node21</title>
<g id="a_node21"><a xlink:href="catch__stringref_8h.html" target="_top" xlink:title=" ">
<polygon fill="white" stroke="black" points="505.5,-118 505.5,-137 603.5,-137 603.5,-118 505.5,-118"/>
<text text-anchor="middle" x="554.5" y="-125" font-family="Helvetica,sans-Serif" font-size="10.00">catch_stringref.h</text>
</a>
</g>
</g>
<!-- Node20&#45;&gt;Node21 -->
<g id="edge29" class="edge">
<title>Node20&#45;&gt;Node21</title>
<path fill="none" stroke="midnightblue" d="M753.96,-184.87C712.95,-173.28 640,-152.66 594.6,-139.83"/>
<polygon fill="midnightblue" stroke="midnightblue" points="595.38,-136.42 584.8,-137.06 593.47,-143.15 595.38,-136.42"/>
</g>
<!-- Node23 -->
<g id="node23" class="node">
<title>Node23</title>
<g id="a_node23"><a xlink:title=" ">
<polygon fill="white" stroke="#bfbfbf" points="872,-118 872,-137 919,-137 919,-118 872,-118"/>
<text text-anchor="middle" x="895.5" y="-125" font-family="Helvetica,sans-Serif" font-size="10.00">vector</text>
</a>
</g>
</g>
<!-- Node20&#45;&gt;Node23 -->
<g id="edge36" class="edge">
<title>Node20&#45;&gt;Node23</title>
<path fill="none" stroke="midnightblue" d="M799.47,-184.73C818.11,-173.82 850.16,-155.05 872.07,-142.22"/>
<polygon fill="midnightblue" stroke="midnightblue" points="873.91,-145.2 880.77,-137.13 870.37,-139.16 873.91,-145.2"/>
</g>
<!-- Node21&#45;&gt;Node4 -->
<g id="edge31" class="edge">
<title>Node21&#45;&gt;Node4</title>
<path fill="none" stroke="midnightblue" d="M568.25,-117.98C583.87,-108.3 609.56,-92.37 628.08,-80.89"/>
<polygon fill="midnightblue" stroke="midnightblue" points="630.12,-83.75 636.77,-75.51 626.43,-77.8 630.12,-83.75"/>
</g>
<!-- Node21&#45;&gt;Node9 -->
<g id="edge32" class="edge">
<title>Node21&#45;&gt;Node9</title>
<path fill="none" stroke="midnightblue" d="M542.46,-117.98C528.99,-108.43 506.93,-92.81 490.78,-81.37"/>
<polygon fill="midnightblue" stroke="midnightblue" points="492.7,-78.43 482.51,-75.51 488.65,-84.15 492.7,-78.43"/>
</g>
<!-- Node21&#45;&gt;Node15 -->
<g id="edge30" class="edge">
<title>Node21&#45;&gt;Node15</title>
<path fill="none" stroke="midnightblue" d="M532.01,-117.98C505.19,-107.81 460.18,-90.76 429.69,-79.2"/>
<polygon fill="midnightblue" stroke="midnightblue" points="430.54,-75.78 419.95,-75.51 428.06,-82.33 430.54,-75.78"/>
</g>
<!-- Node22 -->
<g id="node22" class="node">
<title>Node22</title>
<g id="a_node22"><a xlink:title=" ">
<polygon fill="white" stroke="#bfbfbf" points="528.5,-56.5 528.5,-75.5 580.5,-75.5 580.5,-56.5 528.5,-56.5"/>
<text text-anchor="middle" x="554.5" y="-63.5" font-family="Helvetica,sans-Serif" font-size="10.00">cassert</text>
</a>
</g>
</g>
<!-- Node21&#45;&gt;Node22 -->
<g id="edge33" class="edge">
<title>Node21&#45;&gt;Node22</title>
<path fill="none" stroke="midnightblue" d="M554.5,-117.98C554.5,-109.58 554.5,-96.48 554.5,-85.66"/>
<polygon fill="midnightblue" stroke="midnightblue" points="558,-85.51 554.5,-75.51 551,-85.51 558,-85.51"/>
</g>
</g>
</svg>
        <g id="navigator" transform="translate(0 0)" fill="#404254">
                <rect fill="#f2f5e9" fill-opacity="0.5" stroke="#606060" stroke-width=".5" x="0" y="0" width="60" height="60"/>
                <use id="zoomplus" xlink:href="#zoomPlus" x="17" y="9" onmousedown="handleZoom(evt,'in')"/>
                <use id="zoomminus" xlink:href="#zoomMin" x="42" y="9" onmousedown="handleZoom(evt,'out')"/>
                <use id="reset" xlink:href="#resetDef" x="30" y="36" onmousedown="handleReset()"/>
                <g id="arrowUp" xlink:href="#dirArrow" transform="translate(30 24)" onmousedown="handlePan(0,-1)">
                  <use xlink:href="#rim" fill="#404040">
                        <set attributeName="fill" to="#808080" begin="arrowUp.mouseover" end="arrowUp.mouseout"/>
                  </use>
                  <path fill="none" stroke="white" stroke-width="1.5" d="M0,-3.0v7 M-2.5,-0.5L0,-3.0L2.5,-0.5"/>
                </g>
                <g id="arrowRight" xlink:href="#dirArrow" transform="rotate(90) translate(36 -43)" onmousedown="handlePan(1,0)">
                  <use xlink:href="#rim" fill="#404040">
                        <set attributeName="fill" to="#808080" begin="arrowRight.mouseover" end="arrowRight.mouseout"/>
                  </use>
                  <path fill="none" stroke="white" stroke-width="1.5" d="M0,-3.0v7 M-2.5,-0.5L0,-3.0L2.5,-0.5"/>
                </g>
                <g id="arrowDown" xlink:href="#dirArrow" transform="rotate(180) translate(-30 -48)" onmousedown="handlePan(0,1)">
                  <use xlink:href="#rim" fill="#404040">
                        <set attributeName="fill" to="#808080" begin="arrowDown.mouseover" end="arrowDown.mouseout"/>
                  </use>
                  <path fill="none" stroke="white" stroke-width="1.5" d="M0,-3.0v7 M-2.5,-0.5L0,-3.0L2.5,-0.5"/>
                </g>
                <g id="arrowLeft" xlink:href="#dirArrow" transform="rotate(270) translate(-36 17)" onmousedown="handlePan(-1,0)">
                  <use xlink:href="#rim" fill="#404040">
                        <set attributeName="fill" to="#808080" begin="arrowLeft.mouseover" end="arrowLeft.mouseout"/>
                  </use>
                  <path fill="none" stroke="white" stroke-width="1.5" d="M0,-3.0v7 M-2.5,-0.5L0,-3.0L2.5,-0.5"/>
                </g>
        </g>
        <svg viewBox="0 0 15 15" width="100%" height="30px" preserveAspectRatio="xMaxYMin meet">
         <g id="arrow_out" transform="scale(0.3 0.3)">
          <a xlink:href="catch__tag__alias__registry_8cpp__incl_org.svg" target="_base">
           <rect id="button" ry="5" rx="5" y="6" x="6" height="38" width="38"
                fill="#f2f5e9" fill-opacity="0.5" stroke="#606060" stroke-width="1.0"/>
           <path id="arrow"
             d="M 11.500037,31.436501 C 11.940474,20.09759 22.043105,11.32322 32.158766,21.979434 L 37.068811,17.246167 C 37.068811,17.246167 37.088388,32 37.088388,32 L 22.160133,31.978069 C 22.160133,31.978069 26.997745,27.140456 26.997745,27.140456 C 18.528582,18.264221 13.291696,25.230495 11.500037,31.436501 z"
             style="fill:#404040;"/>
          </a>
         </g>
        </svg>
</svg>
