<?xml version="1.0" encoding="UTF-8" standalone="no"?>
<!DOCTYPE svg PUBLIC "-//W3C//DTD SVG 1.1//EN"
 "http://www.w3.org/Graphics/SVG/1.1/DTD/svg11.dtd">
<!-- Generated by graphviz version 2.43.0 (0)
 -->
<!-- Title: language/lib/Catch2/include/internal/benchmark/detail/catch_estimate_clock.hpp Pages: 1 -->
<svg width="1663pt" height="554pt"
 viewBox="0.00 0.00 1663.00 554.00" xmlns="http://www.w3.org/2000/svg" xmlns:xlink="http://www.w3.org/1999/xlink">
<g id="graph0" class="graph" transform="scale(1 1) rotate(0) translate(4 550)">
<title>language/lib/Catch2/include/internal/benchmark/detail/catch_estimate_clock.hpp</title>
<polygon fill="white" stroke="transparent" points="-4,4 -4,-550 1659,-550 1659,4 -4,4"/>
<!-- Node1 -->
<g id="node1" class="node">
<title>Node1</title>
<g id="a_node1"><a xlink:title=" ">
<polygon fill="#bfbfbf" stroke="black" points="766.5,-504.5 766.5,-545.5 943.5,-545.5 943.5,-504.5 766.5,-504.5"/>
<text text-anchor="start" x="774.5" y="-533.5" font-family="Helvetica,sans-Serif" font-size="10.00">language/lib/Catch2</text>
<text text-anchor="start" x="774.5" y="-522.5" font-family="Helvetica,sans-Serif" font-size="10.00">/include/internal/benchmark</text>
<text text-anchor="middle" x="855" y="-511.5" font-family="Helvetica,sans-Serif" font-size="10.00">/detail/catch_estimate_clock.hpp</text>
</a>
</g>
</g>
<!-- Node2 -->
<g id="node2" class="node">
<title>Node2</title>
<g id="a_node2"><a xlink:href="catch__clock_8hpp.html" target="_top" xlink:title=" ">
<polygon fill="white" stroke="black" points="1105,-280.5 1105,-299.5 1209,-299.5 1209,-280.5 1105,-280.5"/>
<text text-anchor="middle" x="1157" y="-287.5" font-family="Helvetica,sans-Serif" font-size="10.00">../catch_clock.hpp</text>
</a>
</g>
</g>
<!-- Node1&#45;&gt;Node2 -->
<g id="edge1" class="edge">
<title>Node1&#45;&gt;Node2</title>
<path fill="none" stroke="midnightblue" d="M943.7,-515.98C983.3,-508.63 1028.47,-494.63 1062,-468 1114.98,-425.92 1142.22,-345.97 1152.31,-309.71"/>
<polygon fill="midnightblue" stroke="midnightblue" points="1155.81,-310.14 1154.99,-299.58 1149.05,-308.35 1155.81,-310.14"/>
</g>
<!-- Node5 -->
<g id="node5" class="node">
<title>Node5</title>
<g id="a_node5"><a xlink:href="catch__environment_8hpp.html" target="_top" xlink:title=" ">
<polygon fill="white" stroke="black" points="913,-448.5 913,-467.5 1053,-467.5 1053,-448.5 913,-448.5"/>
<text text-anchor="middle" x="983" y="-455.5" font-family="Helvetica,sans-Serif" font-size="10.00">../catch_environment.hpp</text>
</a>
</g>
</g>
<!-- Node1&#45;&gt;Node5 -->
<g id="edge4" class="edge">
<title>Node1&#45;&gt;Node5</title>
<path fill="none" stroke="midnightblue" d="M893.4,-504.5C913.88,-494.1 938.54,-481.58 956.8,-472.31"/>
<polygon fill="midnightblue" stroke="midnightblue" points="958.63,-475.3 965.96,-467.65 955.46,-469.06 958.63,-475.3"/>
</g>
<!-- Node7 -->
<g id="node7" class="node">
<title>Node7</title>
<g id="a_node7"><a xlink:href="catch__stats_8hpp.html" target="_top" xlink:title=" ">
<polygon fill="white" stroke="black" points="428.5,-448.5 428.5,-467.5 521.5,-467.5 521.5,-448.5 428.5,-448.5"/>
<text text-anchor="middle" x="475" y="-455.5" font-family="Helvetica,sans-Serif" font-size="10.00">catch_stats.hpp</text>
</a>
</g>
</g>
<!-- Node1&#45;&gt;Node7 -->
<g id="edge7" class="edge">
<title>Node1&#45;&gt;Node7</title>
<path fill="none" stroke="midnightblue" d="M766.39,-508.84C693.88,-496.44 593.52,-479.27 531.51,-468.67"/>
<polygon fill="midnightblue" stroke="midnightblue" points="531.97,-465.19 521.52,-466.96 530.79,-472.09 531.97,-465.19"/>
</g>
<!-- Node9 -->
<g id="node9" class="node">
<title>Node9</title>
<g id="a_node9"><a xlink:title=" ">
<polygon fill="white" stroke="#bfbfbf" points="0,-392.5 0,-411.5 64,-411.5 64,-392.5 0,-392.5"/>
<text text-anchor="middle" x="32" y="-399.5" font-family="Helvetica,sans-Serif" font-size="10.00">algorithm</text>
</a>
</g>
</g>
<!-- Node1&#45;&gt;Node9 -->
<g id="edge61" class="edge">
<title>Node1&#45;&gt;Node9</title>
<path fill="none" stroke="midnightblue" d="M766.4,-518.6C657.3,-511.12 466.59,-495.34 305,-468 221.06,-453.8 124.52,-428.7 71.69,-414.2"/>
<polygon fill="midnightblue" stroke="midnightblue" points="72.6,-410.82 62.03,-411.53 70.74,-417.57 72.6,-410.82"/>
</g>
<!-- Node11 -->
<g id="node11" class="node">
<title>Node11</title>
<g id="a_node11"><a xlink:title=" ">
<polygon fill="white" stroke="#bfbfbf" points="82.5,-392.5 82.5,-411.5 129.5,-411.5 129.5,-392.5 82.5,-392.5"/>
<text text-anchor="middle" x="106" y="-399.5" font-family="Helvetica,sans-Serif" font-size="10.00">vector</text>
</a>
</g>
</g>
<!-- Node1&#45;&gt;Node11 -->
<g id="edge64" class="edge">
<title>Node1&#45;&gt;Node11</title>
<path fill="none" stroke="midnightblue" d="M766.21,-514.52C677.91,-504.64 538.71,-487.85 419,-468 295.95,-447.6 265.81,-438.82 144,-412 142.55,-411.68 141.07,-411.35 139.58,-411.01"/>
<polygon fill="midnightblue" stroke="midnightblue" points="140.22,-407.57 129.69,-408.73 138.65,-414.39 140.22,-407.57"/>
</g>
<!-- Node12 -->
<g id="node12" class="node">
<title>Node12</title>
<g id="a_node12"><a xlink:title=" ">
<polygon fill="white" stroke="#bfbfbf" points="670.5,-392.5 670.5,-411.5 723.5,-411.5 723.5,-392.5 670.5,-392.5"/>
<text text-anchor="middle" x="697" y="-399.5" font-family="Helvetica,sans-Serif" font-size="10.00">iterator</text>
</a>
</g>
</g>
<!-- Node1&#45;&gt;Node12 -->
<g id="edge62" class="edge">
<title>Node1&#45;&gt;Node12</title>
<path fill="none" stroke="midnightblue" d="M829.26,-504.29C797.56,-480.01 744.45,-439.34 716.14,-417.66"/>
<polygon fill="midnightblue" stroke="midnightblue" points="718.26,-414.88 708.2,-411.57 714.01,-420.43 718.26,-414.88"/>
</g>
<!-- Node14 -->
<g id="node14" class="node">
<title>Node14</title>
<g id="a_node14"><a xlink:title=" ">
<polygon fill="white" stroke="#bfbfbf" points="908.5,-280.5 908.5,-299.5 949.5,-299.5 949.5,-280.5 908.5,-280.5"/>
<text text-anchor="middle" x="929" y="-287.5" font-family="Helvetica,sans-Serif" font-size="10.00">tuple</text>
</a>
</g>
</g>
<!-- Node1&#45;&gt;Node14 -->
<g id="edge63" class="edge">
<title>Node1&#45;&gt;Node14</title>
<path fill="none" stroke="midnightblue" d="M863.7,-504.23C871.97,-487.37 885.84,-463.48 904,-448 934.29,-422.18 964.24,-445.32 986,-412 1009.04,-376.72 970.77,-330.65 946.53,-306.82"/>
<polygon fill="midnightblue" stroke="midnightblue" points="948.63,-303.98 938.96,-299.64 943.81,-309.06 948.63,-303.98"/>
</g>
<!-- Node15 -->
<g id="node15" class="node">
<title>Node15</title>
<g id="a_node15"><a xlink:title=" ">
<polygon fill="white" stroke="#bfbfbf" points="741.5,-392.5 741.5,-411.5 788.5,-411.5 788.5,-392.5 741.5,-392.5"/>
<text text-anchor="middle" x="765" y="-399.5" font-family="Helvetica,sans-Serif" font-size="10.00">cmath</text>
</a>
</g>
</g>
<!-- Node1&#45;&gt;Node15 -->
<g id="edge65" class="edge">
<title>Node1&#45;&gt;Node15</title>
<path fill="none" stroke="midnightblue" d="M840.34,-504.29C822.83,-480.75 793.84,-441.78 777.4,-419.67"/>
<polygon fill="midnightblue" stroke="midnightblue" points="780.15,-417.51 771.38,-411.57 774.54,-421.69 780.15,-417.51"/>
</g>
<!-- Node19 -->
<g id="node19" class="node">
<title>Node19</title>
<g id="a_node19"><a xlink:href="catch__measure_8hpp.html" target="_top" xlink:title=" ">
<polygon fill="white" stroke="black" points="1147,-392.5 1147,-411.5 1259,-411.5 1259,-392.5 1147,-392.5"/>
<text text-anchor="middle" x="1203" y="-399.5" font-family="Helvetica,sans-Serif" font-size="10.00">catch_measure.hpp</text>
</a>
</g>
</g>
<!-- Node1&#45;&gt;Node19 -->
<g id="edge21" class="edge">
<title>Node1&#45;&gt;Node19</title>
<path fill="none" stroke="midnightblue" d="M943.67,-510.17C989.86,-501.27 1046.63,-487.63 1095,-468 1127.68,-454.74 1162.01,-432.42 1182.97,-417.69"/>
<polygon fill="midnightblue" stroke="midnightblue" points="1185.24,-420.37 1191.34,-411.71 1181.17,-414.68 1185.24,-420.37"/>
</g>
<!-- Node34 -->
<g id="node34" class="node">
<title>Node34</title>
<g id="a_node34"><a xlink:href="catch__run__for__at__least_8hpp.html" target="_top" xlink:title=" ">
<polygon fill="white" stroke="black" points="1251,-448.5 1251,-467.5 1399,-467.5 1399,-448.5 1251,-448.5"/>
<text text-anchor="middle" x="1325" y="-455.5" font-family="Helvetica,sans-Serif" font-size="10.00">catch_run_for_at_least.hpp</text>
</a>
</g>
</g>
<!-- Node1&#45;&gt;Node34 -->
<g id="edge48" class="edge">
<title>Node1&#45;&gt;Node34</title>
<path fill="none" stroke="midnightblue" d="M943.68,-511.74C1033.31,-499.34 1170.12,-480.42 1253.19,-468.93"/>
<polygon fill="midnightblue" stroke="midnightblue" points="1253.87,-472.37 1263.3,-467.53 1252.91,-465.44 1253.87,-472.37"/>
</g>
<!-- Node3 -->
<g id="node3" class="node">
<title>Node3</title>
<g id="a_node3"><a xlink:title=" ">
<polygon fill="white" stroke="#bfbfbf" points="1103,-224.5 1103,-243.5 1153,-243.5 1153,-224.5 1103,-224.5"/>
<text text-anchor="middle" x="1128" y="-231.5" font-family="Helvetica,sans-Serif" font-size="10.00">chrono</text>
</a>
</g>
</g>
<!-- Node2&#45;&gt;Node3 -->
<g id="edge2" class="edge">
<title>Node2&#45;&gt;Node3</title>
<path fill="none" stroke="midnightblue" d="M1152.21,-280.08C1148.24,-272.69 1142.47,-261.95 1137.57,-252.81"/>
<polygon fill="midnightblue" stroke="midnightblue" points="1140.51,-250.91 1132.7,-243.75 1134.35,-254.22 1140.51,-250.91"/>
</g>
<!-- Node4 -->
<g id="node4" class="node">
<title>Node4</title>
<g id="a_node4"><a xlink:title=" ">
<polygon fill="white" stroke="#bfbfbf" points="1045.5,-224.5 1045.5,-243.5 1084.5,-243.5 1084.5,-224.5 1045.5,-224.5"/>
<text text-anchor="middle" x="1065" y="-231.5" font-family="Helvetica,sans-Serif" font-size="10.00">ratio</text>
</a>
</g>
</g>
<!-- Node2&#45;&gt;Node4 -->
<g id="edge3" class="edge">
<title>Node2&#45;&gt;Node4</title>
<path fill="none" stroke="midnightblue" d="M1142.22,-280.32C1127.73,-271.82 1105.43,-258.73 1088.51,-248.8"/>
<polygon fill="midnightblue" stroke="midnightblue" points="1090.14,-245.7 1079.74,-243.65 1086.6,-251.74 1090.14,-245.7"/>
</g>
<!-- Node5&#45;&gt;Node2 -->
<g id="edge5" class="edge">
<title>Node5&#45;&gt;Node2</title>
<path fill="none" stroke="midnightblue" d="M991.38,-448.29C1010.89,-428.1 1061.02,-376.75 1105,-336 1115.95,-325.86 1128.6,-314.89 1138.69,-306.32"/>
<polygon fill="midnightblue" stroke="midnightblue" points="1141.07,-308.89 1146.46,-299.76 1136.56,-303.54 1141.07,-308.89"/>
</g>
<!-- Node6 -->
<g id="node6" class="node">
<title>Node6</title>
<g id="a_node6"><a xlink:href="catch__outlier__classification_8hpp.html" target="_top" xlink:title=" ">
<polygon fill="white" stroke="black" points="807,-392.5 807,-411.5 977,-411.5 977,-392.5 807,-392.5"/>
<text text-anchor="middle" x="892" y="-399.5" font-family="Helvetica,sans-Serif" font-size="10.00">catch_outlier_classification.hpp</text>
</a>
</g>
</g>
<!-- Node5&#45;&gt;Node6 -->
<g id="edge6" class="edge">
<title>Node5&#45;&gt;Node6</title>
<path fill="none" stroke="midnightblue" d="M968.38,-448.32C954.05,-439.82 931.99,-426.73 915.25,-416.8"/>
<polygon fill="midnightblue" stroke="midnightblue" points="916.97,-413.75 906.58,-411.65 913.4,-419.77 916.97,-413.75"/>
</g>
<!-- Node7&#45;&gt;Node2 -->
<g id="edge8" class="edge">
<title>Node7&#45;&gt;Node2</title>
<path fill="none" stroke="midnightblue" d="M509.1,-448.49C539.49,-440.48 584.91,-427.41 623,-412 641.06,-404.69 643.62,-398.45 662,-392 812.71,-339.1 999.5,-310.35 1094.76,-298.16"/>
<polygon fill="midnightblue" stroke="midnightblue" points="1095.32,-301.62 1104.81,-296.9 1094.45,-294.68 1095.32,-301.62"/>
</g>
<!-- Node7&#45;&gt;Node6 -->
<g id="edge10" class="edge">
<title>Node7&#45;&gt;Node6</title>
<path fill="none" stroke="midnightblue" d="M521.62,-450.96C593.07,-441.71 730.38,-423.93 816.25,-412.81"/>
<polygon fill="midnightblue" stroke="midnightblue" points="816.73,-416.28 826.2,-411.52 815.84,-409.33 816.73,-416.28"/>
</g>
<!-- Node8 -->
<g id="node8" class="node">
<title>Node8</title>
<g id="a_node8"><a xlink:href="catch__estimate_8hpp.html" target="_top" xlink:title=" ">
<polygon fill="white" stroke="black" points="262,-392.5 262,-411.5 384,-411.5 384,-392.5 262,-392.5"/>
<text text-anchor="middle" x="323" y="-399.5" font-family="Helvetica,sans-Serif" font-size="10.00">../catch_estimate.hpp</text>
</a>
</g>
</g>
<!-- Node7&#45;&gt;Node8 -->
<g id="edge9" class="edge">
<title>Node7&#45;&gt;Node8</title>
<path fill="none" stroke="midnightblue" d="M450.92,-448.44C425.46,-439.4 385.11,-425.06 356.54,-414.92"/>
<polygon fill="midnightblue" stroke="midnightblue" points="357.57,-411.57 346.97,-411.52 355.22,-418.16 357.57,-411.57"/>
</g>
<!-- Node7&#45;&gt;Node9 -->
<g id="edge11" class="edge">
<title>Node7&#45;&gt;Node9</title>
<path fill="none" stroke="midnightblue" d="M428.36,-453.37C355.05,-447.33 208.23,-433.81 74.2,-412.04"/>
<polygon fill="midnightblue" stroke="midnightblue" points="74.6,-408.56 64.17,-410.39 73.47,-415.47 74.6,-408.56"/>
</g>
<!-- Node10 -->
<g id="node10" class="node">
<title>Node10</title>
<g id="a_node10"><a xlink:title=" ">
<polygon fill="white" stroke="#bfbfbf" points="402.5,-392.5 402.5,-411.5 467.5,-411.5 467.5,-392.5 402.5,-392.5"/>
<text text-anchor="middle" x="435" y="-399.5" font-family="Helvetica,sans-Serif" font-size="10.00">functional</text>
</a>
</g>
</g>
<!-- Node7&#45;&gt;Node10 -->
<g id="edge12" class="edge">
<title>Node7&#45;&gt;Node10</title>
<path fill="none" stroke="midnightblue" d="M468.39,-448.08C462.74,-440.46 454.46,-429.26 447.55,-419.94"/>
<polygon fill="midnightblue" stroke="midnightblue" points="450.25,-417.7 441.48,-411.75 444.62,-421.87 450.25,-417.7"/>
</g>
<!-- Node7&#45;&gt;Node11 -->
<g id="edge13" class="edge">
<title>Node7&#45;&gt;Node11</title>
<path fill="none" stroke="midnightblue" d="M428.45,-452.12C364.18,-445.05 244.78,-430.74 144,-412 142.54,-411.73 141.06,-411.44 139.56,-411.13"/>
<polygon fill="midnightblue" stroke="midnightblue" points="140.16,-407.68 129.64,-408.98 138.67,-414.52 140.16,-407.68"/>
</g>
<!-- Node7&#45;&gt;Node12 -->
<g id="edge14" class="edge">
<title>Node7&#45;&gt;Node12</title>
<path fill="none" stroke="midnightblue" d="M510.18,-448.44C551.29,-438.44 618.99,-421.98 660.61,-411.85"/>
<polygon fill="midnightblue" stroke="midnightblue" points="661.46,-415.25 670.35,-409.48 659.81,-408.45 661.46,-415.25"/>
</g>
<!-- Node13 -->
<g id="node13" class="node">
<title>Node13</title>
<g id="a_node13"><a xlink:title=" ">
<polygon fill="white" stroke="#bfbfbf" points="486,-392.5 486,-411.5 542,-411.5 542,-392.5 486,-392.5"/>
<text text-anchor="middle" x="514" y="-399.5" font-family="Helvetica,sans-Serif" font-size="10.00">numeric</text>
</a>
</g>
</g>
<!-- Node7&#45;&gt;Node13 -->
<g id="edge15" class="edge">
<title>Node7&#45;&gt;Node13</title>
<path fill="none" stroke="midnightblue" d="M481.44,-448.08C486.95,-440.46 495.03,-429.26 501.76,-419.94"/>
<polygon fill="midnightblue" stroke="midnightblue" points="504.66,-421.91 507.68,-411.75 498.99,-417.81 504.66,-421.91"/>
</g>
<!-- Node7&#45;&gt;Node14 -->
<g id="edge16" class="edge">
<title>Node7&#45;&gt;Node14</title>
<path fill="none" stroke="midnightblue" d="M428.29,-450.71C366.5,-441.92 264.05,-425.51 253,-412 247.37,-405.12 247.2,-398.73 253,-392 338.34,-292.96 777.6,-289.59 898.29,-290.57"/>
<polygon fill="midnightblue" stroke="midnightblue" points="898.29,-294.07 908.33,-290.67 898.36,-287.07 898.29,-294.07"/>
</g>
<!-- Node7&#45;&gt;Node15 -->
<g id="edge17" class="edge">
<title>Node7&#45;&gt;Node15</title>
<path fill="none" stroke="midnightblue" d="M521.89,-450.29C571.68,-442.83 652.84,-429.75 731.26,-412.23"/>
<polygon fill="midnightblue" stroke="midnightblue" points="732.32,-415.57 741.3,-409.95 730.78,-408.75 732.32,-415.57"/>
</g>
<!-- Node16 -->
<g id="node16" class="node">
<title>Node16</title>
<g id="a_node16"><a xlink:title=" ">
<polygon fill="white" stroke="#bfbfbf" points="982.5,-224.5 982.5,-243.5 1027.5,-243.5 1027.5,-224.5 982.5,-224.5"/>
<text text-anchor="middle" x="1005" y="-231.5" font-family="Helvetica,sans-Serif" font-size="10.00">utility</text>
</a>
</g>
</g>
<!-- Node7&#45;&gt;Node16 -->
<g id="edge18" class="edge">
<title>Node7&#45;&gt;Node16</title>
<path fill="none" stroke="midnightblue" d="M428.23,-451.05C364.41,-442.46 256.57,-426.06 245,-412 239.35,-405.14 241.33,-400.09 245,-392 306.86,-255.67 834.04,-237.72 972.05,-235.36"/>
<polygon fill="midnightblue" stroke="midnightblue" points="972.44,-238.85 982.39,-235.2 972.33,-231.85 972.44,-238.85"/>
</g>
<!-- Node17 -->
<g id="node17" class="node">
<title>Node17</title>
<g id="a_node17"><a xlink:title=" ">
<polygon fill="white" stroke="#bfbfbf" points="533.5,-112.5 533.5,-131.5 586.5,-131.5 586.5,-112.5 533.5,-112.5"/>
<text text-anchor="middle" x="560" y="-119.5" font-family="Helvetica,sans-Serif" font-size="10.00">cstddef</text>
</a>
</g>
</g>
<!-- Node7&#45;&gt;Node17 -->
<g id="edge19" class="edge">
<title>Node7&#45;&gt;Node17</title>
<path fill="none" stroke="midnightblue" d="M428.31,-450.9C369.22,-442.71 271.14,-427.4 238,-412 196.45,-392.7 158,-392.81 158,-347 158,-347 158,-347 158,-233 158,-157.69 423.8,-132.12 523.14,-125.2"/>
<polygon fill="midnightblue" stroke="midnightblue" points="523.57,-128.68 533.31,-124.51 523.1,-121.69 523.57,-128.68"/>
</g>
<!-- Node18 -->
<g id="node18" class="node">
<title>Node18</title>
<g id="a_node18"><a xlink:title=" ">
<polygon fill="white" stroke="#bfbfbf" points="560,-392.5 560,-411.5 614,-411.5 614,-392.5 560,-392.5"/>
<text text-anchor="middle" x="587" y="-399.5" font-family="Helvetica,sans-Serif" font-size="10.00">random</text>
</a>
</g>
</g>
<!-- Node7&#45;&gt;Node18 -->
<g id="edge20" class="edge">
<title>Node7&#45;&gt;Node18</title>
<path fill="none" stroke="midnightblue" d="M492.99,-448.32C511.04,-439.62 539.05,-426.12 559.8,-416.11"/>
<polygon fill="midnightblue" stroke="midnightblue" points="561.56,-419.15 569.05,-411.65 558.52,-412.84 561.56,-419.15"/>
</g>
<!-- Node19&#45;&gt;Node2 -->
<g id="edge22" class="edge">
<title>Node19&#45;&gt;Node2</title>
<path fill="none" stroke="midnightblue" d="M1197.21,-392.34C1191.48,-383.5 1182.77,-369.23 1177,-356 1170.36,-340.78 1164.98,-322.67 1161.48,-309.43"/>
<polygon fill="midnightblue" stroke="midnightblue" points="1164.85,-308.47 1159,-299.63 1158.06,-310.19 1164.85,-308.47"/>
</g>
<!-- Node19&#45;&gt;Node16 -->
<g id="edge47" class="edge">
<title>Node19&#45;&gt;Node16</title>
<path fill="none" stroke="midnightblue" d="M1192.63,-392.31C1160.69,-365.53 1063.49,-284.03 1023,-250.09"/>
<polygon fill="midnightblue" stroke="midnightblue" points="1025.18,-247.35 1015.26,-243.61 1020.68,-252.71 1025.18,-247.35"/>
</g>
<!-- Node20 -->
<g id="node20" class="node">
<title>Node20</title>
<g id="a_node20"><a xlink:href="catch__complete__invoke_8hpp.html" target="_top" xlink:title=" ">
<polygon fill="white" stroke="black" points="1265,-280.5 1265,-299.5 1417,-299.5 1417,-280.5 1265,-280.5"/>
<text text-anchor="middle" x="1341" y="-287.5" font-family="Helvetica,sans-Serif" font-size="10.00">catch_complete_invoke.hpp</text>
</a>
</g>
</g>
<!-- Node19&#45;&gt;Node20 -->
<g id="edge23" class="edge">
<title>Node19&#45;&gt;Node20</title>
<path fill="none" stroke="midnightblue" d="M1229.15,-392.49C1249.03,-385.1 1276.24,-372.91 1296,-356 1311.44,-342.79 1324.07,-323.11 1331.98,-308.87"/>
<polygon fill="midnightblue" stroke="midnightblue" points="1335.29,-310.11 1336.88,-299.64 1329.1,-306.83 1335.29,-310.11"/>
</g>
<!-- Node33 -->
<g id="node33" class="node">
<title>Node33</title>
<g id="a_node33"><a xlink:href="catch__timing_8hpp.html" target="_top" xlink:title=" ">
<polygon fill="white" stroke="black" points="1185.5,-336.5 1185.5,-355.5 1286.5,-355.5 1286.5,-336.5 1185.5,-336.5"/>
<text text-anchor="middle" x="1236" y="-343.5" font-family="Helvetica,sans-Serif" font-size="10.00">catch_timing.hpp</text>
</a>
</g>
</g>
<!-- Node19&#45;&gt;Node33 -->
<g id="edge42" class="edge">
<title>Node19&#45;&gt;Node33</title>
<path fill="none" stroke="midnightblue" d="M1208.45,-392.08C1213.01,-384.61 1219.67,-373.72 1225.29,-364.52"/>
<polygon fill="midnightblue" stroke="midnightblue" points="1228.42,-366.11 1230.65,-355.75 1222.45,-362.46 1228.42,-366.11"/>
</g>
<!-- Node20&#45;&gt;Node16 -->
<g id="edge41" class="edge">
<title>Node20&#45;&gt;Node16</title>
<path fill="none" stroke="midnightblue" d="M1264.94,-280.47C1205.51,-273.17 1120.71,-261.39 1037.51,-243.86"/>
<polygon fill="midnightblue" stroke="midnightblue" points="1038.15,-240.42 1027.64,-241.75 1036.68,-247.26 1038.15,-240.42"/>
</g>
<!-- Node21 -->
<g id="node21" class="node">
<title>Node21</title>
<g id="a_node21"><a xlink:href="catch__enforce_8h.html" target="_top" xlink:title=" ">
<polygon fill="white" stroke="black" points="1171,-224.5 1171,-243.5 1283,-243.5 1283,-224.5 1171,-224.5"/>
<text text-anchor="middle" x="1227" y="-231.5" font-family="Helvetica,sans-Serif" font-size="10.00">../../catch_enforce.h</text>
</a>
</g>
</g>
<!-- Node20&#45;&gt;Node21 -->
<g id="edge24" class="edge">
<title>Node20&#45;&gt;Node21</title>
<path fill="none" stroke="midnightblue" d="M1322.94,-280.44C1304.43,-271.68 1275.42,-257.94 1254.14,-247.86"/>
<polygon fill="midnightblue" stroke="midnightblue" points="1255.51,-244.63 1244.98,-243.52 1252.52,-250.96 1255.51,-244.63"/>
</g>
<!-- Node31 -->
<g id="node31" class="node">
<title>Node31</title>
<g id="a_node31"><a xlink:href="catch__meta_8hpp.html" target="_top" xlink:title=" ">
<polygon fill="white" stroke="black" points="1480.5,-224.5 1480.5,-243.5 1593.5,-243.5 1593.5,-224.5 1480.5,-224.5"/>
<text text-anchor="middle" x="1537" y="-231.5" font-family="Helvetica,sans-Serif" font-size="10.00">../../catch_meta.hpp</text>
</a>
</g>
</g>
<!-- Node20&#45;&gt;Node31 -->
<g id="edge38" class="edge">
<title>Node20&#45;&gt;Node31</title>
<path fill="none" stroke="midnightblue" d="M1372.06,-280.44C1405.6,-271.2 1459.2,-256.44 1496.14,-246.26"/>
<polygon fill="midnightblue" stroke="midnightblue" points="1497.38,-249.55 1506.09,-243.52 1495.52,-242.8 1497.38,-249.55"/>
</g>
<!-- Node32 -->
<g id="node32" class="node">
<title>Node32</title>
<g id="a_node32"><a xlink:title=" ">
<polygon fill="white" stroke="#bfbfbf" points="1383.5,-168.5 1383.5,-187.5 1452.5,-187.5 1452.5,-168.5 1383.5,-168.5"/>
<text text-anchor="middle" x="1418" y="-175.5" font-family="Helvetica,sans-Serif" font-size="10.00">type_traits</text>
</a>
</g>
</g>
<!-- Node20&#45;&gt;Node32 -->
<g id="edge40" class="edge">
<title>Node20&#45;&gt;Node32</title>
<path fill="none" stroke="midnightblue" d="M1347.04,-280.37C1359.75,-262.22 1389.44,-219.8 1406.11,-195.99"/>
<polygon fill="midnightblue" stroke="midnightblue" points="1409.12,-197.79 1411.99,-187.59 1403.38,-193.78 1409.12,-197.79"/>
</g>
<!-- Node22 -->
<g id="node22" class="node">
<title>Node22</title>
<g id="a_node22"><a xlink:href="catch__common_8h.html" target="_top" xlink:title=" ">
<polygon fill="white" stroke="black" points="1006,-112.5 1006,-131.5 1106,-131.5 1106,-112.5 1006,-112.5"/>
<text text-anchor="middle" x="1056" y="-119.5" font-family="Helvetica,sans-Serif" font-size="10.00">catch_common.h</text>
</a>
</g>
</g>
<!-- Node21&#45;&gt;Node22 -->
<g id="edge25" class="edge">
<title>Node21&#45;&gt;Node22</title>
<path fill="none" stroke="midnightblue" d="M1181.34,-224.49C1142.26,-216.33 1090.01,-203.06 1075,-188 1062.95,-175.91 1058.46,-156.63 1056.83,-142.2"/>
<polygon fill="midnightblue" stroke="midnightblue" points="1060.29,-141.6 1056.04,-131.9 1053.31,-142.13 1060.29,-141.6"/>
</g>
<!-- Node23 -->
<g id="node23" class="node">
<title>Node23</title>
<g id="a_node23"><a xlink:href="catch__compiler__capabilities_8h.html" target="_top" xlink:title=" ">
<polygon fill="white" stroke="black" points="1201.5,-56.5 1201.5,-75.5 1362.5,-75.5 1362.5,-56.5 1201.5,-56.5"/>
<text text-anchor="middle" x="1282" y="-63.5" font-family="Helvetica,sans-Serif" font-size="10.00">catch_compiler_capabilities.h</text>
</a>
</g>
</g>
<!-- Node21&#45;&gt;Node23 -->
<g id="edge31" class="edge">
<title>Node21&#45;&gt;Node23</title>
<path fill="none" stroke="midnightblue" d="M1238.43,-224.39C1248.35,-216.21 1262.15,-202.97 1269,-188 1284.32,-154.5 1284.8,-110.49 1283.55,-85.84"/>
<polygon fill="midnightblue" stroke="midnightblue" points="1287.03,-85.45 1282.88,-75.7 1280.05,-85.91 1287.03,-85.45"/>
</g>
<!-- Node28 -->
<g id="node28" class="node">
<title>Node28</title>
<g id="a_node28"><a xlink:href="catch__stream_8h.html" target="_top" xlink:title=" ">
<polygon fill="white" stroke="black" points="1084,-168.5 1084,-187.5 1176,-187.5 1176,-168.5 1084,-168.5"/>
<text text-anchor="middle" x="1130" y="-175.5" font-family="Helvetica,sans-Serif" font-size="10.00">catch_stream.h</text>
</a>
</g>
</g>
<!-- Node21&#45;&gt;Node28 -->
<g id="edge32" class="edge">
<title>Node21&#45;&gt;Node28</title>
<path fill="none" stroke="midnightblue" d="M1211.42,-224.32C1196,-215.74 1172.19,-202.49 1154.29,-192.52"/>
<polygon fill="midnightblue" stroke="midnightblue" points="1155.99,-189.46 1145.55,-187.65 1152.58,-195.58 1155.99,-189.46"/>
</g>
<!-- Node30 -->
<g id="node30" class="node">
<title>Node30</title>
<g id="a_node30"><a xlink:title=" ">
<polygon fill="white" stroke="#bfbfbf" points="1194.5,-168.5 1194.5,-187.5 1259.5,-187.5 1259.5,-168.5 1194.5,-168.5"/>
<text text-anchor="middle" x="1227" y="-175.5" font-family="Helvetica,sans-Serif" font-size="10.00">exception</text>
</a>
</g>
</g>
<!-- Node21&#45;&gt;Node30 -->
<g id="edge37" class="edge">
<title>Node21&#45;&gt;Node30</title>
<path fill="none" stroke="midnightblue" d="M1227,-224.08C1227,-217.01 1227,-206.86 1227,-197.99"/>
<polygon fill="midnightblue" stroke="midnightblue" points="1230.5,-197.75 1227,-187.75 1223.5,-197.75 1230.5,-197.75"/>
</g>
<!-- Node22&#45;&gt;Node23 -->
<g id="edge26" class="edge">
<title>Node22&#45;&gt;Node23</title>
<path fill="none" stroke="midnightblue" d="M1091.81,-112.44C1130.99,-103.08 1193.88,-88.06 1236.52,-77.87"/>
<polygon fill="midnightblue" stroke="midnightblue" points="1237.44,-81.24 1246.36,-75.52 1235.82,-74.44 1237.44,-81.24"/>
</g>
<!-- Node25 -->
<g id="node25" class="node">
<title>Node25</title>
<g id="a_node25"><a xlink:title=" ">
<polygon fill="white" stroke="#bfbfbf" points="1125,-56.5 1125,-75.5 1173,-75.5 1173,-56.5 1125,-56.5"/>
<text text-anchor="middle" x="1149" y="-63.5" font-family="Helvetica,sans-Serif" font-size="10.00">iosfwd</text>
</a>
</g>
</g>
<!-- Node22&#45;&gt;Node25 -->
<g id="edge28" class="edge">
<title>Node22&#45;&gt;Node25</title>
<path fill="none" stroke="midnightblue" d="M1070.94,-112.32C1085.59,-103.82 1108.13,-90.73 1125.24,-80.8"/>
<polygon fill="midnightblue" stroke="midnightblue" points="1127.2,-83.7 1134.1,-75.65 1123.69,-77.65 1127.2,-83.7"/>
</g>
<!-- Node26 -->
<g id="node26" class="node">
<title>Node26</title>
<g id="a_node26"><a xlink:title=" ">
<polygon fill="white" stroke="#bfbfbf" points="974,-56.5 974,-75.5 1018,-75.5 1018,-56.5 974,-56.5"/>
<text text-anchor="middle" x="996" y="-63.5" font-family="Helvetica,sans-Serif" font-size="10.00">string</text>
</a>
</g>
</g>
<!-- Node22&#45;&gt;Node26 -->
<g id="edge29" class="edge">
<title>Node22&#45;&gt;Node26</title>
<path fill="none" stroke="midnightblue" d="M1046.36,-112.32C1037.49,-104.34 1024.13,-92.31 1013.39,-82.65"/>
<polygon fill="midnightblue" stroke="midnightblue" points="1015.59,-79.92 1005.82,-75.83 1010.91,-85.13 1015.59,-79.92"/>
</g>
<!-- Node27 -->
<g id="node27" class="node">
<title>Node27</title>
<g id="a_node27"><a xlink:title=" ">
<polygon fill="white" stroke="#bfbfbf" points="1036,-56.5 1036,-75.5 1086,-75.5 1086,-56.5 1036,-56.5"/>
<text text-anchor="middle" x="1061" y="-63.5" font-family="Helvetica,sans-Serif" font-size="10.00">cstdint</text>
</a>
</g>
</g>
<!-- Node22&#45;&gt;Node27 -->
<g id="edge30" class="edge">
<title>Node22&#45;&gt;Node27</title>
<path fill="none" stroke="midnightblue" d="M1056.83,-112.08C1057.48,-105.01 1058.42,-94.86 1059.24,-85.99"/>
<polygon fill="midnightblue" stroke="midnightblue" points="1062.75,-86.03 1060.19,-75.75 1055.78,-85.39 1062.75,-86.03"/>
</g>
<!-- Node24 -->
<g id="node24" class="node">
<title>Node24</title>
<g id="a_node24"><a xlink:href="catch__platform_8h.html" target="_top" xlink:title=" ">
<polygon fill="white" stroke="black" points="1232.5,-0.5 1232.5,-19.5 1331.5,-19.5 1331.5,-0.5 1232.5,-0.5"/>
<text text-anchor="middle" x="1282" y="-7.5" font-family="Helvetica,sans-Serif" font-size="10.00">catch_platform.h</text>
</a>
</g>
</g>
<!-- Node23&#45;&gt;Node24 -->
<g id="edge27" class="edge">
<title>Node23&#45;&gt;Node24</title>
<path fill="none" stroke="midnightblue" d="M1282,-56.08C1282,-49.01 1282,-38.86 1282,-29.99"/>
<polygon fill="midnightblue" stroke="midnightblue" points="1285.5,-29.75 1282,-19.75 1278.5,-29.75 1285.5,-29.75"/>
</g>
<!-- Node28&#45;&gt;Node17 -->
<g id="edge35" class="edge">
<title>Node28&#45;&gt;Node17</title>
<path fill="none" stroke="midnightblue" d="M1083.84,-172.63C973.62,-162.19 696.88,-135.97 596.82,-126.49"/>
<polygon fill="midnightblue" stroke="midnightblue" points="596.89,-122.98 586.61,-125.52 596.23,-129.95 596.89,-122.98"/>
</g>
<!-- Node28&#45;&gt;Node22 -->
<g id="edge33" class="edge">
<title>Node28&#45;&gt;Node22</title>
<path fill="none" stroke="midnightblue" d="M1118.11,-168.32C1106.85,-160.11 1089.71,-147.6 1076.29,-137.81"/>
<polygon fill="midnightblue" stroke="midnightblue" points="1078.25,-134.9 1068.11,-131.83 1074.12,-140.56 1078.25,-134.9"/>
</g>
<!-- Node28&#45;&gt;Node25 -->
<g id="edge34" class="edge">
<title>Node28&#45;&gt;Node25</title>
<path fill="none" stroke="midnightblue" d="M1149.91,-168.41C1164.22,-161.04 1182.46,-148.92 1191,-132 1200.04,-114.09 1184.24,-94.95 1169.51,-82.12"/>
<polygon fill="midnightblue" stroke="midnightblue" points="1171.56,-79.28 1161.59,-75.68 1167.14,-84.71 1171.56,-79.28"/>
</g>
<!-- Node29 -->
<g id="node29" class="node">
<title>Node29</title>
<g id="a_node29"><a xlink:title=" ">
<polygon fill="white" stroke="#bfbfbf" points="1124.5,-112.5 1124.5,-131.5 1181.5,-131.5 1181.5,-112.5 1124.5,-112.5"/>
<text text-anchor="middle" x="1153" y="-119.5" font-family="Helvetica,sans-Serif" font-size="10.00">ostream</text>
</a>
</g>
</g>
<!-- Node28&#45;&gt;Node29 -->
<g id="edge36" class="edge">
<title>Node28&#45;&gt;Node29</title>
<path fill="none" stroke="midnightblue" d="M1133.8,-168.08C1136.91,-160.77 1141.42,-150.18 1145.29,-141.1"/>
<polygon fill="midnightblue" stroke="midnightblue" points="1148.57,-142.32 1149.27,-131.75 1142.13,-139.58 1148.57,-142.32"/>
</g>
<!-- Node31&#45;&gt;Node32 -->
<g id="edge39" class="edge">
<title>Node31&#45;&gt;Node32</title>
<path fill="none" stroke="midnightblue" d="M1518.14,-224.44C1498.73,-215.64 1468.27,-201.81 1446.04,-191.72"/>
<polygon fill="midnightblue" stroke="midnightblue" points="1447.32,-188.46 1436.77,-187.52 1444.43,-194.84 1447.32,-188.46"/>
</g>
<!-- Node33&#45;&gt;Node2 -->
<g id="edge43" class="edge">
<title>Node33&#45;&gt;Node2</title>
<path fill="none" stroke="midnightblue" d="M1223.31,-336.32C1211.1,-327.98 1192.42,-315.21 1178,-305.35"/>
<polygon fill="midnightblue" stroke="midnightblue" points="1179.89,-302.41 1169.66,-299.65 1175.94,-308.19 1179.89,-302.41"/>
</g>
<!-- Node33&#45;&gt;Node14 -->
<g id="edge45" class="edge">
<title>Node33&#45;&gt;Node14</title>
<path fill="none" stroke="midnightblue" d="M1187.35,-336.44C1123.32,-325.18 1012.65,-305.71 959.38,-296.34"/>
<polygon fill="midnightblue" stroke="midnightblue" points="959.97,-292.89 949.52,-294.61 958.76,-299.79 959.97,-292.89"/>
</g>
<!-- Node33&#45;&gt;Node20 -->
<g id="edge44" class="edge">
<title>Node33&#45;&gt;Node20</title>
<path fill="none" stroke="midnightblue" d="M1252.87,-336.32C1269.71,-327.66 1295.81,-314.24 1315.24,-304.25"/>
<polygon fill="midnightblue" stroke="midnightblue" points="1316.88,-307.34 1324.17,-299.65 1313.68,-301.12 1316.88,-307.34"/>
</g>
<!-- Node33&#45;&gt;Node32 -->
<g id="edge46" class="edge">
<title>Node33&#45;&gt;Node32</title>
<path fill="none" stroke="midnightblue" d="M1236.76,-336.12C1238.31,-322.7 1242.89,-297.03 1256,-280 1289.68,-236.24 1348.14,-206.66 1384.86,-191.34"/>
<polygon fill="midnightblue" stroke="midnightblue" points="1386.19,-194.57 1394.15,-187.57 1383.56,-188.08 1386.19,-194.57"/>
</g>
<!-- Node34&#45;&gt;Node2 -->
<g id="edge49" class="edge">
<title>Node34&#45;&gt;Node2</title>
<path fill="none" stroke="midnightblue" d="M1325.59,-448.38C1326.58,-426.54 1326.07,-368.51 1296,-336 1276.21,-314.61 1246.19,-303.35 1219.1,-297.44"/>
<polygon fill="midnightblue" stroke="midnightblue" points="1219.77,-294.01 1209.28,-295.5 1218.41,-300.88 1219.77,-294.01"/>
</g>
<!-- Node34&#45;&gt;Node16 -->
<g id="edge59" class="edge">
<title>Node34&#45;&gt;Node16</title>
<path fill="none" stroke="midnightblue" d="M1250.64,-450.95C1214.31,-445.17 1171.35,-433.91 1138,-412 1075.14,-370.7 1030.67,-289.12 1013.2,-252.97"/>
<polygon fill="midnightblue" stroke="midnightblue" points="1016.25,-251.23 1008.83,-243.67 1009.92,-254.21 1016.25,-251.23"/>
</g>
<!-- Node34&#45;&gt;Node19 -->
<g id="edge55" class="edge">
<title>Node34&#45;&gt;Node19</title>
<path fill="none" stroke="midnightblue" d="M1305.67,-448.44C1285.68,-439.6 1254.26,-425.69 1231.44,-415.59"/>
<polygon fill="midnightblue" stroke="midnightblue" points="1232.8,-412.36 1222.24,-411.52 1229.97,-418.76 1232.8,-412.36"/>
</g>
<!-- Node34&#45;&gt;Node20 -->
<g id="edge56" class="edge">
<title>Node34&#45;&gt;Node20</title>
<path fill="none" stroke="midnightblue" d="M1328.55,-448.21C1331.98,-439.27 1336.93,-424.93 1339,-412 1344.75,-376.17 1343.65,-333.6 1342.33,-309.7"/>
<polygon fill="midnightblue" stroke="midnightblue" points="1345.81,-309.34 1341.69,-299.58 1338.83,-309.78 1345.81,-309.34"/>
</g>
<!-- Node34&#45;&gt;Node31 -->
<g id="edge58" class="edge">
<title>Node34&#45;&gt;Node31</title>
<path fill="none" stroke="midnightblue" d="M1389.15,-448.45C1445.59,-437.32 1525.25,-412.17 1568,-356 1588.55,-329.01 1586.65,-311.86 1575,-280 1570.94,-268.91 1562.81,-258.67 1555.11,-250.76"/>
<polygon fill="midnightblue" stroke="midnightblue" points="1557.36,-248.07 1547.71,-243.7 1552.53,-253.14 1557.36,-248.07"/>
</g>
<!-- Node34&#45;&gt;Node32 -->
<g id="edge60" class="edge">
<title>Node34&#45;&gt;Node32</title>
<path fill="none" stroke="midnightblue" d="M1392.18,-448.46C1488.67,-434.28 1655,-401.88 1655,-347 1655,-347 1655,-347 1655,-289 1655,-205.19 1531.55,-185.06 1462.84,-180.34"/>
<polygon fill="midnightblue" stroke="midnightblue" points="1462.91,-176.84 1452.72,-179.73 1462.49,-183.83 1462.91,-176.84"/>
</g>
<!-- Node34&#45;&gt;Node33 -->
<g id="edge57" class="edge">
<title>Node34&#45;&gt;Node33</title>
<path fill="none" stroke="midnightblue" d="M1318.02,-448.37C1303.26,-430.14 1268.71,-387.43 1249.49,-363.68"/>
<polygon fill="midnightblue" stroke="midnightblue" points="1251.96,-361.16 1242.95,-355.59 1246.52,-365.57 1251.96,-361.16"/>
</g>
<!-- Node35 -->
<g id="node35" class="node">
<title>Node35</title>
<g id="a_node35"><a xlink:href="catch__chronometer_8hpp.html" target="_top" xlink:title=" ">
<polygon fill="white" stroke="black" points="1419,-336.5 1419,-355.5 1559,-355.5 1559,-336.5 1419,-336.5"/>
<text text-anchor="middle" x="1489" y="-343.5" font-family="Helvetica,sans-Serif" font-size="10.00">../catch_chronometer.hpp</text>
</a>
</g>
</g>
<!-- Node34&#45;&gt;Node35 -->
<g id="edge50" class="edge">
<title>Node34&#45;&gt;Node35</title>
<path fill="none" stroke="midnightblue" d="M1341.97,-448.38C1358.46,-439.79 1384.02,-425.91 1405,-412 1428.82,-396.21 1454.58,-375.71 1471.21,-362"/>
<polygon fill="midnightblue" stroke="midnightblue" points="1473.57,-364.59 1479.01,-355.5 1469.09,-359.21 1473.57,-364.59"/>
</g>
<!-- Node35&#45;&gt;Node2 -->
<g id="edge51" class="edge">
<title>Node35&#45;&gt;Node2</title>
<path fill="none" stroke="midnightblue" d="M1436.39,-336.44C1377.42,-326.85 1281.87,-311.31 1219.23,-301.12"/>
<polygon fill="midnightblue" stroke="midnightblue" points="1219.52,-297.62 1209.09,-299.47 1218.4,-304.53 1219.52,-297.62"/>
</g>
<!-- Node35&#45;&gt;Node20 -->
<g id="edge53" class="edge">
<title>Node35&#45;&gt;Node20</title>
<path fill="none" stroke="midnightblue" d="M1465.55,-336.44C1440.87,-327.44 1401.81,-313.19 1374.02,-303.05"/>
<polygon fill="midnightblue" stroke="midnightblue" points="1374.94,-299.66 1364.34,-299.52 1372.54,-306.23 1374.94,-299.66"/>
</g>
<!-- Node35&#45;&gt;Node31 -->
<g id="edge54" class="edge">
<title>Node35&#45;&gt;Node31</title>
<path fill="none" stroke="midnightblue" d="M1514.16,-336.38C1530.42,-329.34 1550.29,-317.65 1560,-300 1568.44,-284.66 1559.73,-265.63 1550.71,-252.14"/>
<polygon fill="midnightblue" stroke="midnightblue" points="1553.34,-249.81 1544.62,-243.79 1547.69,-253.94 1553.34,-249.81"/>
</g>
<!-- Node36 -->
<g id="node36" class="node">
<title>Node36</title>
<g id="a_node36"><a xlink:href="catch__optimizer_8hpp.html" target="_top" xlink:title=" ">
<polygon fill="white" stroke="black" points="1435.5,-280.5 1435.5,-299.5 1550.5,-299.5 1550.5,-280.5 1435.5,-280.5"/>
<text text-anchor="middle" x="1493" y="-287.5" font-family="Helvetica,sans-Serif" font-size="10.00">catch_optimizer.hpp</text>
</a>
</g>
</g>
<!-- Node35&#45;&gt;Node36 -->
<g id="edge52" class="edge">
<title>Node35&#45;&gt;Node36</title>
<path fill="none" stroke="midnightblue" d="M1489.66,-336.08C1490.18,-329.01 1490.94,-318.86 1491.59,-309.99"/>
<polygon fill="midnightblue" stroke="midnightblue" points="1495.1,-309.98 1492.35,-299.75 1488.12,-309.47 1495.1,-309.98"/>
</g>
</g>
</svg>
