<?xml version="1.0" encoding="UTF-8" standalone="no"?>
<!DOCTYPE svg PUBLIC "-//W3C//DTD SVG 1.1//EN"
 "http://www.w3.org/Graphics/SVG/1.1/DTD/svg11.dtd">
<!-- Generated by graphviz version 2.43.0 (0)
 -->
<!-- Title: language/lib/Catch2/include/reporters/catch_reporter_bases.hpp Pages: 1 -->
<svg width="823pt" height="362pt"
 viewBox="0.00 0.00 823.00 362.00" xmlns="http://www.w3.org/2000/svg" xmlns:xlink="http://www.w3.org/1999/xlink">
<g id="graph0" class="graph" transform="scale(1 1) rotate(0) translate(4 358)">
<title>language/lib/Catch2/include/reporters/catch_reporter_bases.hpp</title>
<polygon fill="white" stroke="transparent" points="-4,4 -4,-358 819,-358 819,4 -4,4"/>
<!-- Node1 -->
<g id="node1" class="node">
<title>Node1</title>
<g id="a_node1"><a xlink:title=" ">
<polygon fill="#bfbfbf" stroke="black" points="347,-312.5 347,-353.5 478,-353.5 478,-312.5 347,-312.5"/>
<text text-anchor="start" x="355" y="-341.5" font-family="Helvetica,sans-Serif" font-size="10.00">language/lib/Catch2</text>
<text text-anchor="start" x="355" y="-330.5" font-family="Helvetica,sans-Serif" font-size="10.00">/include/reporters/catch</text>
<text text-anchor="middle" x="412.5" y="-319.5" font-family="Helvetica,sans-Serif" font-size="10.00">_reporter_bases.hpp</text>
</a>
</g>
</g>
<!-- Node2 -->
<g id="node2" class="node">
<title>Node2</title>
<g id="a_node2"><a xlink:href="catch__external__interfaces_8h.html" target="_top" xlink:title=" ">
<polygon fill="white" stroke="black" points="149,-156.5 149,-197.5 274,-197.5 274,-156.5 149,-156.5"/>
<text text-anchor="start" x="157" y="-185.5" font-family="Helvetica,sans-Serif" font-size="10.00">language/lib/Catch2</text>
<text text-anchor="start" x="157" y="-174.5" font-family="Helvetica,sans-Serif" font-size="10.00">/include/internal/catch</text>
<text text-anchor="middle" x="211.5" y="-163.5" font-family="Helvetica,sans-Serif" font-size="10.00">_external_interfaces.h</text>
</a>
</g>
</g>
<!-- Node1&#45;&gt;Node2 -->
<g id="edge1" class="edge">
<title>Node1&#45;&gt;Node2</title>
<path fill="none" stroke="midnightblue" d="M336.74,-322.96C279.46,-314.39 207.68,-299.31 189.5,-276 171.81,-253.31 186.06,-219.16 198.43,-197.75"/>
<polygon fill="midnightblue" stroke="midnightblue" points="336.49,-326.46 346.89,-324.44 337.5,-319.54 336.49,-326.46"/>
</g>
<!-- Node5 -->
<g id="node5" class="node">
<title>Node5</title>
<g id="a_node5"><a xlink:href="catch__reporter__compact_8h.html" target="_top" xlink:title=" ">
<polygon fill="white" stroke="black" points="10,-234.5 10,-275.5 141,-275.5 141,-234.5 10,-234.5"/>
<text text-anchor="start" x="18" y="-263.5" font-family="Helvetica,sans-Serif" font-size="10.00">language/lib/Catch2</text>
<text text-anchor="start" x="18" y="-252.5" font-family="Helvetica,sans-Serif" font-size="10.00">/include/reporters/catch</text>
<text text-anchor="middle" x="75.5" y="-241.5" font-family="Helvetica,sans-Serif" font-size="10.00">_reporter_compact.h</text>
</a>
</g>
</g>
<!-- Node1&#45;&gt;Node5 -->
<g id="edge4" class="edge">
<title>Node1&#45;&gt;Node5</title>
<path fill="none" stroke="midnightblue" d="M336.88,-316.15C285.61,-305.26 216.36,-290.24 155.5,-276 150.9,-274.92 146.16,-273.79 141.38,-272.64"/>
<polygon fill="midnightblue" stroke="midnightblue" points="336.38,-319.63 346.88,-318.28 337.83,-312.78 336.38,-319.63"/>
</g>
<!-- Node8 -->
<g id="node8" class="node">
<title>Node8</title>
<g id="a_node8"><a xlink:href="catch__reporter__console_8h.html" target="_top" xlink:title=" ">
<polygon fill="white" stroke="black" points="198,-234.5 198,-275.5 329,-275.5 329,-234.5 198,-234.5"/>
<text text-anchor="start" x="206" y="-263.5" font-family="Helvetica,sans-Serif" font-size="10.00">language/lib/Catch2</text>
<text text-anchor="start" x="206" y="-252.5" font-family="Helvetica,sans-Serif" font-size="10.00">/include/reporters/catch</text>
<text text-anchor="middle" x="263.5" y="-241.5" font-family="Helvetica,sans-Serif" font-size="10.00">_reporter_console.h</text>
</a>
</g>
</g>
<!-- Node1&#45;&gt;Node8 -->
<g id="edge8" class="edge">
<title>Node1&#45;&gt;Node8</title>
<path fill="none" stroke="midnightblue" d="M364.99,-307.77C344.57,-297.35 321.01,-285.34 301.74,-275.51"/>
<polygon fill="midnightblue" stroke="midnightblue" points="363.63,-311 374.13,-312.43 366.81,-304.77 363.63,-311"/>
</g>
<!-- Node10 -->
<g id="node10" class="node">
<title>Node10</title>
<g id="a_node10"><a xlink:href="catch__reporter__junit_8h.html" target="_top" xlink:title=" ">
<polygon fill="white" stroke="black" points="496,-234.5 496,-275.5 627,-275.5 627,-234.5 496,-234.5"/>
<text text-anchor="start" x="504" y="-263.5" font-family="Helvetica,sans-Serif" font-size="10.00">language/lib/Catch2</text>
<text text-anchor="start" x="504" y="-252.5" font-family="Helvetica,sans-Serif" font-size="10.00">/include/reporters/catch</text>
<text text-anchor="middle" x="561.5" y="-241.5" font-family="Helvetica,sans-Serif" font-size="10.00">_reporter_junit.h</text>
</a>
</g>
</g>
<!-- Node1&#45;&gt;Node10 -->
<g id="edge12" class="edge">
<title>Node1&#45;&gt;Node10</title>
<path fill="none" stroke="midnightblue" d="M460.01,-307.77C480.43,-297.35 503.99,-285.34 523.26,-275.51"/>
<polygon fill="midnightblue" stroke="midnightblue" points="458.19,-304.77 450.87,-312.43 461.37,-311 458.19,-304.77"/>
</g>
<!-- Node11 -->
<g id="node11" class="node">
<title>Node11</title>
<g id="a_node11"><a xlink:href="catch__reporter__junit_8cpp.html" target="_top" xlink:title=" ">
<polygon fill="white" stroke="black" points="590,-156.5 590,-197.5 721,-197.5 721,-156.5 590,-156.5"/>
<text text-anchor="start" x="598" y="-185.5" font-family="Helvetica,sans-Serif" font-size="10.00">language/lib/Catch2</text>
<text text-anchor="start" x="598" y="-174.5" font-family="Helvetica,sans-Serif" font-size="10.00">/include/reporters/catch</text>
<text text-anchor="middle" x="655.5" y="-163.5" font-family="Helvetica,sans-Serif" font-size="10.00">_reporter_junit.cpp</text>
</a>
</g>
</g>
<!-- Node1&#45;&gt;Node11 -->
<g id="edge22" class="edge">
<title>Node1&#45;&gt;Node11</title>
<path fill="none" stroke="midnightblue" d="M488.26,-321.89C544.99,-312.76 616.18,-297.44 636.5,-276 656.41,-254.99 658.43,-219.69 657.43,-197.68"/>
<polygon fill="midnightblue" stroke="midnightblue" points="487.55,-318.46 478.21,-323.47 488.63,-325.38 487.55,-318.46"/>
</g>
<!-- Node12 -->
<g id="node12" class="node">
<title>Node12</title>
<g id="a_node12"><a xlink:href="catch__reporter__xml_8h.html" target="_top" xlink:title=" ">
<polygon fill="white" stroke="black" points="347,-234.5 347,-275.5 478,-275.5 478,-234.5 347,-234.5"/>
<text text-anchor="start" x="355" y="-263.5" font-family="Helvetica,sans-Serif" font-size="10.00">language/lib/Catch2</text>
<text text-anchor="start" x="355" y="-252.5" font-family="Helvetica,sans-Serif" font-size="10.00">/include/reporters/catch</text>
<text text-anchor="middle" x="412.5" y="-241.5" font-family="Helvetica,sans-Serif" font-size="10.00">_reporter_xml.h</text>
</a>
</g>
</g>
<!-- Node1&#45;&gt;Node12 -->
<g id="edge16" class="edge">
<title>Node1&#45;&gt;Node12</title>
<path fill="none" stroke="midnightblue" d="M412.5,-302.3C412.5,-293.3 412.5,-283.65 412.5,-275.51"/>
<polygon fill="midnightblue" stroke="midnightblue" points="409,-302.43 412.5,-312.43 416,-302.43 409,-302.43"/>
</g>
<!-- Node14 -->
<g id="node14" class="node">
<title>Node14</title>
<g id="a_node14"><a xlink:href="catch__reporter__bases_8cpp.html" target="_top" xlink:title=" ">
<polygon fill="white" stroke="black" points="684,-234.5 684,-275.5 815,-275.5 815,-234.5 684,-234.5"/>
<text text-anchor="start" x="692" y="-263.5" font-family="Helvetica,sans-Serif" font-size="10.00">language/lib/Catch2</text>
<text text-anchor="start" x="692" y="-252.5" font-family="Helvetica,sans-Serif" font-size="10.00">/include/reporters/catch</text>
<text text-anchor="middle" x="749.5" y="-241.5" font-family="Helvetica,sans-Serif" font-size="10.00">_reporter_bases.cpp</text>
</a>
</g>
</g>
<!-- Node1&#45;&gt;Node14 -->
<g id="edge20" class="edge">
<title>Node1&#45;&gt;Node14</title>
<path fill="none" stroke="midnightblue" d="M488.12,-316.15C539.39,-305.26 608.64,-290.24 669.5,-276 674.1,-274.92 678.84,-273.79 683.62,-272.64"/>
<polygon fill="midnightblue" stroke="midnightblue" points="487.17,-312.78 478.12,-318.28 488.62,-319.63 487.17,-312.78"/>
</g>
<!-- Node3 -->
<g id="node3" class="node">
<title>Node3</title>
<g id="a_node3"><a xlink:href="include_2catch_8hpp.html" target="_top" xlink:title=" ">
<polygon fill="white" stroke="black" points="155,-84 155,-114 268,-114 268,-84 155,-84"/>
<text text-anchor="start" x="163" y="-102" font-family="Helvetica,sans-Serif" font-size="10.00">language/lib/Catch2</text>
<text text-anchor="middle" x="211.5" y="-91" font-family="Helvetica,sans-Serif" font-size="10.00">/include/catch.hpp</text>
</a>
</g>
</g>
<!-- Node2&#45;&gt;Node3 -->
<g id="edge2" class="edge">
<title>Node2&#45;&gt;Node3</title>
<path fill="none" stroke="midnightblue" d="M211.5,-146.28C211.5,-135.25 211.5,-123.25 211.5,-114.23"/>
<polygon fill="midnightblue" stroke="midnightblue" points="208,-146.43 211.5,-156.43 215,-146.43 208,-146.43"/>
</g>
<!-- Node4 -->
<g id="node4" class="node">
<title>Node4</title>
<g id="a_node4"><a xlink:href="catch__with__main_8hpp.html" target="_top" xlink:title=" ">
<polygon fill="white" stroke="black" points="155,-0.5 155,-41.5 268,-41.5 268,-0.5 155,-0.5"/>
<text text-anchor="start" x="163" y="-29.5" font-family="Helvetica,sans-Serif" font-size="10.00">language/lib/Catch2</text>
<text text-anchor="start" x="163" y="-18.5" font-family="Helvetica,sans-Serif" font-size="10.00">/include/catch_with</text>
<text text-anchor="middle" x="211.5" y="-7.5" font-family="Helvetica,sans-Serif" font-size="10.00">_main.hpp</text>
</a>
</g>
</g>
<!-- Node3&#45;&gt;Node4 -->
<g id="edge3" class="edge">
<title>Node3&#45;&gt;Node4</title>
<path fill="none" stroke="midnightblue" d="M211.5,-73.66C211.5,-63.33 211.5,-51.44 211.5,-41.68"/>
<polygon fill="midnightblue" stroke="midnightblue" points="208,-73.7 211.5,-83.7 215,-73.71 208,-73.7"/>
</g>
<!-- Node5&#45;&gt;Node2 -->
<g id="edge5" class="edge">
<title>Node5&#45;&gt;Node2</title>
<path fill="none" stroke="midnightblue" d="M119.37,-229.49C137.89,-219.13 159.16,-207.25 176.6,-197.51"/>
<polygon fill="midnightblue" stroke="midnightblue" points="117.55,-226.49 110.52,-234.43 120.96,-232.61 117.55,-226.49"/>
</g>
<!-- Node6 -->
<g id="node6" class="node">
<title>Node6</title>
<g id="a_node6"><a xlink:href="catch__reporter__compact_8cpp.html" target="_top" xlink:title=" ">
<polygon fill="white" stroke="black" points="0,-156.5 0,-197.5 131,-197.5 131,-156.5 0,-156.5"/>
<text text-anchor="start" x="8" y="-185.5" font-family="Helvetica,sans-Serif" font-size="10.00">language/lib/Catch2</text>
<text text-anchor="start" x="8" y="-174.5" font-family="Helvetica,sans-Serif" font-size="10.00">/include/reporters/catch</text>
<text text-anchor="middle" x="65.5" y="-163.5" font-family="Helvetica,sans-Serif" font-size="10.00">_reporter_compact.cpp</text>
</a>
</g>
</g>
<!-- Node5&#45;&gt;Node6 -->
<g id="edge6" class="edge">
<title>Node5&#45;&gt;Node6</title>
<path fill="none" stroke="midnightblue" d="M71.59,-224.3C70.41,-215.3 69.14,-205.65 68.07,-197.51"/>
<polygon fill="midnightblue" stroke="midnightblue" points="68.15,-224.97 72.92,-234.43 75.09,-224.06 68.15,-224.97"/>
</g>
<!-- Node7 -->
<g id="node7" class="node">
<title>Node7</title>
<g id="a_node7"><a xlink:href="catch__objc__impl_8mm.html" target="_top" xlink:title=" ">
<polygon fill="white" stroke="black" points="442,-78.5 442,-119.5 571,-119.5 571,-78.5 442,-78.5"/>
<text text-anchor="start" x="450" y="-107.5" font-family="Helvetica,sans-Serif" font-size="10.00">language/lib/Catch2</text>
<text text-anchor="start" x="450" y="-96.5" font-family="Helvetica,sans-Serif" font-size="10.00">/projects/XCode/OCTest</text>
<text text-anchor="middle" x="506.5" y="-85.5" font-family="Helvetica,sans-Serif" font-size="10.00">/catch_objc_impl.mm</text>
</a>
</g>
</g>
<!-- Node6&#45;&gt;Node7 -->
<g id="edge7" class="edge">
<title>Node6&#45;&gt;Node7</title>
<path fill="none" stroke="midnightblue" d="M141.3,-155.95C252.44,-133.09 370.72,-116.72 441.99,-107.71"/>
<polygon fill="midnightblue" stroke="midnightblue" points="140.33,-152.57 131.25,-158.03 141.76,-159.42 140.33,-152.57"/>
</g>
<!-- Node8&#45;&gt;Node2 -->
<g id="edge9" class="edge">
<title>Node8&#45;&gt;Node2</title>
<path fill="none" stroke="midnightblue" d="M244.37,-226.05C237.89,-216.57 230.78,-206.18 224.85,-197.51"/>
<polygon fill="midnightblue" stroke="midnightblue" points="241.57,-228.15 250.11,-234.43 247.35,-224.2 241.57,-228.15"/>
</g>
<!-- Node9 -->
<g id="node9" class="node">
<title>Node9</title>
<g id="a_node9"><a xlink:href="catch__reporter__console_8cpp.html" target="_top" xlink:title=" ">
<polygon fill="white" stroke="black" points="292,-156.5 292,-197.5 423,-197.5 423,-156.5 292,-156.5"/>
<text text-anchor="start" x="300" y="-185.5" font-family="Helvetica,sans-Serif" font-size="10.00">language/lib/Catch2</text>
<text text-anchor="start" x="300" y="-174.5" font-family="Helvetica,sans-Serif" font-size="10.00">/include/reporters/catch</text>
<text text-anchor="middle" x="357.5" y="-163.5" font-family="Helvetica,sans-Serif" font-size="10.00">_reporter_console.cpp</text>
</a>
</g>
</g>
<!-- Node8&#45;&gt;Node9 -->
<g id="edge10" class="edge">
<title>Node8&#45;&gt;Node9</title>
<path fill="none" stroke="midnightblue" d="M295.58,-228.06C307.96,-218.06 321.87,-206.8 333.37,-197.51"/>
<polygon fill="midnightblue" stroke="midnightblue" points="293.28,-225.42 287.71,-234.43 297.68,-230.86 293.28,-225.42"/>
</g>
<!-- Node9&#45;&gt;Node7 -->
<g id="edge11" class="edge">
<title>Node9&#45;&gt;Node7</title>
<path fill="none" stroke="midnightblue" d="M405.01,-151.77C425.43,-141.35 448.99,-129.34 468.26,-119.51"/>
<polygon fill="midnightblue" stroke="midnightblue" points="403.19,-148.77 395.87,-156.43 406.37,-155 403.19,-148.77"/>
</g>
<!-- Node10&#45;&gt;Node2 -->
<g id="edge13" class="edge">
<title>Node10&#45;&gt;Node2</title>
<path fill="none" stroke="midnightblue" d="M485.99,-233.76C395.9,-214.24 370.22,-217.65 283.5,-198 280.46,-197.31 277.36,-196.58 274.24,-195.81"/>
<polygon fill="midnightblue" stroke="midnightblue" points="485.29,-237.19 495.81,-235.92 486.79,-230.35 485.29,-237.19"/>
</g>
<!-- Node10&#45;&gt;Node11 -->
<g id="edge14" class="edge">
<title>Node10&#45;&gt;Node11</title>
<path fill="none" stroke="midnightblue" d="M593.58,-228.06C605.96,-218.06 619.87,-206.8 631.37,-197.51"/>
<polygon fill="midnightblue" stroke="midnightblue" points="591.28,-225.42 585.71,-234.43 595.68,-230.86 591.28,-225.42"/>
</g>
<!-- Node11&#45;&gt;Node7 -->
<g id="edge15" class="edge">
<title>Node11&#45;&gt;Node7</title>
<path fill="none" stroke="midnightblue" d="M607.99,-151.77C587.57,-141.35 564.01,-129.34 544.74,-119.51"/>
<polygon fill="midnightblue" stroke="midnightblue" points="606.63,-155 617.13,-156.43 609.81,-148.77 606.63,-155"/>
</g>
<!-- Node12&#45;&gt;Node2 -->
<g id="edge17" class="edge">
<title>Node12&#45;&gt;Node2</title>
<path fill="none" stroke="midnightblue" d="M351.37,-230.89C323.16,-220.22 290.02,-207.69 263.09,-197.51"/>
<polygon fill="midnightblue" stroke="midnightblue" points="350.15,-234.17 360.74,-234.43 352.62,-227.62 350.15,-234.17"/>
</g>
<!-- Node13 -->
<g id="node13" class="node">
<title>Node13</title>
<g id="a_node13"><a xlink:href="catch__reporter__xml_8cpp.html" target="_top" xlink:title=" ">
<polygon fill="white" stroke="black" points="441,-156.5 441,-197.5 572,-197.5 572,-156.5 441,-156.5"/>
<text text-anchor="start" x="449" y="-185.5" font-family="Helvetica,sans-Serif" font-size="10.00">language/lib/Catch2</text>
<text text-anchor="start" x="449" y="-174.5" font-family="Helvetica,sans-Serif" font-size="10.00">/include/reporters/catch</text>
<text text-anchor="middle" x="506.5" y="-163.5" font-family="Helvetica,sans-Serif" font-size="10.00">_reporter_xml.cpp</text>
</a>
</g>
</g>
<!-- Node12&#45;&gt;Node13 -->
<g id="edge18" class="edge">
<title>Node12&#45;&gt;Node13</title>
<path fill="none" stroke="midnightblue" d="M444.58,-228.06C456.96,-218.06 470.87,-206.8 482.37,-197.51"/>
<polygon fill="midnightblue" stroke="midnightblue" points="442.28,-225.42 436.71,-234.43 446.68,-230.86 442.28,-225.42"/>
</g>
<!-- Node13&#45;&gt;Node7 -->
<g id="edge19" class="edge">
<title>Node13&#45;&gt;Node7</title>
<path fill="none" stroke="midnightblue" d="M506.5,-146.3C506.5,-137.3 506.5,-127.65 506.5,-119.51"/>
<polygon fill="midnightblue" stroke="midnightblue" points="503,-146.43 506.5,-156.43 510,-146.43 503,-146.43"/>
</g>
<!-- Node14&#45;&gt;Node7 -->
<g id="edge21" class="edge">
<title>Node14&#45;&gt;Node7</title>
<path fill="none" stroke="midnightblue" d="M751.63,-224.03C751.47,-202.4 747.53,-173.97 730.5,-156 708.82,-133.13 629.25,-117.22 571.1,-108.36"/>
<polygon fill="midnightblue" stroke="midnightblue" points="748.12,-224.25 751.43,-234.32 755.12,-224.39 748.12,-224.25"/>
</g>
</g>
</svg>
