<?xml version="1.0" encoding="UTF-8" standalone="no"?>
<!DOCTYPE svg PUBLIC "-//W3C//DTD SVG 1.1//EN"
 "http://www.w3.org/Graphics/SVG/1.1/DTD/svg11.dtd">
<!-- Generated by graphviz version 2.43.0 (0)
 -->
<!-- Title: language/lib/Catch2/include/internal/catch_interfaces_generatortracker.h Pages: 1 -->
<svg width="1402pt" height="362pt"
 viewBox="0.00 0.00 1401.72 362.00" xmlns="http://www.w3.org/2000/svg" xmlns:xlink="http://www.w3.org/1999/xlink">
<g id="graph0" class="graph" transform="scale(1 1) rotate(0) translate(4 358)">
<title>language/lib/Catch2/include/internal/catch_interfaces_generatortracker.h</title>
<polygon fill="white" stroke="transparent" points="-4,4 -4,-358 1397.72,-358 1397.72,4 -4,4"/>
<!-- Node1 -->
<g id="node1" class="node">
<title>Node1</title>
<g id="a_node1"><a xlink:title=" ">
<polygon fill="#bfbfbf" stroke="black" points="459.22,-312.5 459.22,-353.5 624.22,-353.5 624.22,-312.5 459.22,-312.5"/>
<text text-anchor="start" x="467.22" y="-341.5" font-family="Helvetica,sans-Serif" font-size="10.00">language/lib/Catch2</text>
<text text-anchor="start" x="467.22" y="-330.5" font-family="Helvetica,sans-Serif" font-size="10.00">/include/internal/catch</text>
<text text-anchor="middle" x="541.72" y="-319.5" font-family="Helvetica,sans-Serif" font-size="10.00">_interfaces_generatortracker.h</text>
</a>
</g>
</g>
<!-- Node2 -->
<g id="node2" class="node">
<title>Node2</title>
<g id="a_node2"><a xlink:href="catch__generators_8hpp.html" target="_top" xlink:title=" ">
<polygon fill="white" stroke="black" points="178.22,-234.5 178.22,-275.5 303.22,-275.5 303.22,-234.5 178.22,-234.5"/>
<text text-anchor="start" x="186.22" y="-263.5" font-family="Helvetica,sans-Serif" font-size="10.00">language/lib/Catch2</text>
<text text-anchor="start" x="186.22" y="-252.5" font-family="Helvetica,sans-Serif" font-size="10.00">/include/internal/catch</text>
<text text-anchor="middle" x="240.72" y="-241.5" font-family="Helvetica,sans-Serif" font-size="10.00">_generators.hpp</text>
</a>
</g>
</g>
<!-- Node1&#45;&gt;Node2 -->
<g id="edge1" class="edge">
<title>Node1&#45;&gt;Node2</title>
<path fill="none" stroke="midnightblue" d="M454.37,-309.94C406.01,-297.74 347.03,-282.84 303.3,-271.8"/>
<polygon fill="midnightblue" stroke="midnightblue" points="453.65,-313.37 464.2,-312.43 455.36,-306.59 453.65,-313.37"/>
</g>
<!-- Node8 -->
<g id="node8" class="node">
<title>Node8</title>
<g id="a_node8"><a xlink:href="catch__run__context_8h.html" target="_top" xlink:title=" ">
<polygon fill="white" stroke="black" points="781.22,-234.5 781.22,-275.5 906.22,-275.5 906.22,-234.5 781.22,-234.5"/>
<text text-anchor="start" x="789.22" y="-263.5" font-family="Helvetica,sans-Serif" font-size="10.00">language/lib/Catch2</text>
<text text-anchor="start" x="789.22" y="-252.5" font-family="Helvetica,sans-Serif" font-size="10.00">/include/internal/catch</text>
<text text-anchor="middle" x="843.72" y="-241.5" font-family="Helvetica,sans-Serif" font-size="10.00">_run_context.h</text>
</a>
</g>
</g>
<!-- Node1&#45;&gt;Node8 -->
<g id="edge9" class="edge">
<title>Node1&#45;&gt;Node8</title>
<path fill="none" stroke="midnightblue" d="M629.36,-309.94C677.88,-297.74 737.05,-282.84 780.93,-271.8"/>
<polygon fill="midnightblue" stroke="midnightblue" points="628.33,-306.59 619.49,-312.43 630.04,-313.38 628.33,-306.59"/>
</g>
<!-- Node3 -->
<g id="node3" class="node">
<title>Node3</title>
<g id="a_node3"><a xlink:href="include_2catch_8hpp.html" target="_top" xlink:title=" ">
<polygon fill="white" stroke="black" points="29.22,-84 29.22,-114 142.22,-114 142.22,-84 29.22,-84"/>
<text text-anchor="start" x="37.22" y="-102" font-family="Helvetica,sans-Serif" font-size="10.00">language/lib/Catch2</text>
<text text-anchor="middle" x="85.72" y="-91" font-family="Helvetica,sans-Serif" font-size="10.00">/include/catch.hpp</text>
</a>
</g>
</g>
<!-- Node2&#45;&gt;Node3 -->
<g id="edge2" class="edge">
<title>Node2&#45;&gt;Node3</title>
<path fill="none" stroke="midnightblue" d="M168.03,-246.31C107.27,-238.21 27.48,-223.07 7.72,-198 -3.84,-183.34 -0.8,-172.61 7.72,-156 17.31,-137.31 36.35,-123.45 53.22,-114.2"/>
<polygon fill="midnightblue" stroke="midnightblue" points="167.61,-249.79 177.98,-247.6 168.51,-242.84 167.61,-249.79"/>
</g>
<!-- Node5 -->
<g id="node5" class="node">
<title>Node5</title>
<g id="a_node5"><a xlink:href="catch__generators__generic_8hpp.html" target="_top" xlink:title=" ">
<polygon fill="white" stroke="black" points="17.22,-156.5 17.22,-197.5 154.22,-197.5 154.22,-156.5 17.22,-156.5"/>
<text text-anchor="start" x="25.22" y="-185.5" font-family="Helvetica,sans-Serif" font-size="10.00">language/lib/Catch2</text>
<text text-anchor="start" x="25.22" y="-174.5" font-family="Helvetica,sans-Serif" font-size="10.00">/include/internal/catch</text>
<text text-anchor="middle" x="85.72" y="-163.5" font-family="Helvetica,sans-Serif" font-size="10.00">_generators_generic.hpp</text>
</a>
</g>
</g>
<!-- Node2&#45;&gt;Node5 -->
<g id="edge4" class="edge">
<title>Node2&#45;&gt;Node5</title>
<path fill="none" stroke="midnightblue" d="M191.58,-229.91C170.27,-219.46 145.64,-207.38 125.5,-197.51"/>
<polygon fill="midnightblue" stroke="midnightblue" points="190.28,-233.17 200.8,-234.43 193.36,-226.88 190.28,-233.17"/>
</g>
<!-- Node6 -->
<g id="node6" class="node">
<title>Node6</title>
<g id="a_node6"><a xlink:href="catch__generators__specific_8hpp.html" target="_top" xlink:title=" ">
<polygon fill="white" stroke="black" points="172.22,-156.5 172.22,-197.5 309.22,-197.5 309.22,-156.5 172.22,-156.5"/>
<text text-anchor="start" x="180.22" y="-185.5" font-family="Helvetica,sans-Serif" font-size="10.00">language/lib/Catch2</text>
<text text-anchor="start" x="180.22" y="-174.5" font-family="Helvetica,sans-Serif" font-size="10.00">/include/internal/catch</text>
<text text-anchor="middle" x="240.72" y="-163.5" font-family="Helvetica,sans-Serif" font-size="10.00">_generators_specific.hpp</text>
</a>
</g>
</g>
<!-- Node2&#45;&gt;Node6 -->
<g id="edge6" class="edge">
<title>Node2&#45;&gt;Node6</title>
<path fill="none" stroke="midnightblue" d="M240.72,-224.3C240.72,-215.3 240.72,-205.65 240.72,-197.51"/>
<polygon fill="midnightblue" stroke="midnightblue" points="237.22,-224.43 240.72,-234.43 244.22,-224.43 237.22,-224.43"/>
</g>
<!-- Node7 -->
<g id="node7" class="node">
<title>Node7</title>
<g id="a_node7"><a xlink:href="catch__generators_8cpp.html" target="_top" xlink:title=" ">
<polygon fill="white" stroke="black" points="327.22,-156.5 327.22,-197.5 452.22,-197.5 452.22,-156.5 327.22,-156.5"/>
<text text-anchor="start" x="335.22" y="-185.5" font-family="Helvetica,sans-Serif" font-size="10.00">language/lib/Catch2</text>
<text text-anchor="start" x="335.22" y="-174.5" font-family="Helvetica,sans-Serif" font-size="10.00">/include/internal/catch</text>
<text text-anchor="middle" x="389.72" y="-163.5" font-family="Helvetica,sans-Serif" font-size="10.00">_generators.cpp</text>
</a>
</g>
</g>
<!-- Node2&#45;&gt;Node7 -->
<g id="edge8" class="edge">
<title>Node2&#45;&gt;Node7</title>
<path fill="none" stroke="midnightblue" d="M288.23,-229.77C308.65,-219.35 332.2,-207.34 351.48,-197.51"/>
<polygon fill="midnightblue" stroke="midnightblue" points="286.41,-226.77 279.09,-234.43 289.59,-233 286.41,-226.77"/>
</g>
<!-- Node4 -->
<g id="node4" class="node">
<title>Node4</title>
<g id="a_node4"><a xlink:href="catch__with__main_8hpp.html" target="_top" xlink:title=" ">
<polygon fill="white" stroke="black" points="29.22,-0.5 29.22,-41.5 142.22,-41.5 142.22,-0.5 29.22,-0.5"/>
<text text-anchor="start" x="37.22" y="-29.5" font-family="Helvetica,sans-Serif" font-size="10.00">language/lib/Catch2</text>
<text text-anchor="start" x="37.22" y="-18.5" font-family="Helvetica,sans-Serif" font-size="10.00">/include/catch_with</text>
<text text-anchor="middle" x="85.72" y="-7.5" font-family="Helvetica,sans-Serif" font-size="10.00">_main.hpp</text>
</a>
</g>
</g>
<!-- Node3&#45;&gt;Node4 -->
<g id="edge3" class="edge">
<title>Node3&#45;&gt;Node4</title>
<path fill="none" stroke="midnightblue" d="M85.72,-73.66C85.72,-63.33 85.72,-51.44 85.72,-41.68"/>
<polygon fill="midnightblue" stroke="midnightblue" points="82.22,-73.7 85.72,-83.7 89.22,-73.71 82.22,-73.7"/>
</g>
<!-- Node5&#45;&gt;Node3 -->
<g id="edge5" class="edge">
<title>Node5&#45;&gt;Node3</title>
<path fill="none" stroke="midnightblue" d="M85.72,-146.28C85.72,-135.25 85.72,-123.25 85.72,-114.23"/>
<polygon fill="midnightblue" stroke="midnightblue" points="82.22,-146.43 85.72,-156.43 89.22,-146.43 82.22,-146.43"/>
</g>
<!-- Node6&#45;&gt;Node3 -->
<g id="edge7" class="edge">
<title>Node6&#45;&gt;Node3</title>
<path fill="none" stroke="midnightblue" d="M191.71,-151.97C166.39,-139.55 136.35,-124.83 114.73,-114.23"/>
<polygon fill="midnightblue" stroke="midnightblue" points="190.28,-155.17 200.8,-156.43 193.36,-148.88 190.28,-155.17"/>
</g>
<!-- Node9 -->
<g id="node9" class="node">
<title>Node9</title>
<g id="a_node9"><a xlink:href="catch__assertionhandler_8cpp.html" target="_top" xlink:title=" ">
<polygon fill="white" stroke="black" points="470.22,-156.5 470.22,-197.5 595.22,-197.5 595.22,-156.5 470.22,-156.5"/>
<text text-anchor="start" x="478.22" y="-185.5" font-family="Helvetica,sans-Serif" font-size="10.00">language/lib/Catch2</text>
<text text-anchor="start" x="478.22" y="-174.5" font-family="Helvetica,sans-Serif" font-size="10.00">/include/internal/catch</text>
<text text-anchor="middle" x="532.72" y="-163.5" font-family="Helvetica,sans-Serif" font-size="10.00">_assertionhandler.cpp</text>
</a>
</g>
</g>
<!-- Node8&#45;&gt;Node9 -->
<g id="edge10" class="edge">
<title>Node8&#45;&gt;Node9</title>
<path fill="none" stroke="midnightblue" d="M771.19,-237.98C723.47,-227.21 659.71,-212.41 603.72,-198 600.99,-197.3 598.21,-196.57 595.4,-195.82"/>
<polygon fill="midnightblue" stroke="midnightblue" points="770.59,-241.43 781.12,-240.21 772.13,-234.6 770.59,-241.43"/>
</g>
<!-- Node11 -->
<g id="node11" class="node">
<title>Node11</title>
<g id="a_node11"><a xlink:href="catch__fatal__condition_8cpp.html" target="_top" xlink:title=" ">
<polygon fill="white" stroke="black" points="613.22,-156.5 613.22,-197.5 738.22,-197.5 738.22,-156.5 613.22,-156.5"/>
<text text-anchor="start" x="621.22" y="-185.5" font-family="Helvetica,sans-Serif" font-size="10.00">language/lib/Catch2</text>
<text text-anchor="start" x="621.22" y="-174.5" font-family="Helvetica,sans-Serif" font-size="10.00">/include/internal/catch</text>
<text text-anchor="middle" x="675.72" y="-163.5" font-family="Helvetica,sans-Serif" font-size="10.00">_fatal_condition.cpp</text>
</a>
</g>
</g>
<!-- Node8&#45;&gt;Node11 -->
<g id="edge12" class="edge">
<title>Node8&#45;&gt;Node11</title>
<path fill="none" stroke="midnightblue" d="M791.08,-230.19C767.84,-219.67 740.86,-207.47 718.84,-197.51"/>
<polygon fill="midnightblue" stroke="midnightblue" points="789.9,-233.5 800.45,-234.43 792.79,-227.12 789.9,-233.5"/>
</g>
<!-- Node12 -->
<g id="node12" class="node">
<title>Node12</title>
<g id="a_node12"><a xlink:href="catch__random__number__generator_8cpp.html" target="_top" xlink:title=" ">
<polygon fill="white" stroke="black" points="756.72,-156.5 756.72,-197.5 930.72,-197.5 930.72,-156.5 756.72,-156.5"/>
<text text-anchor="start" x="764.72" y="-185.5" font-family="Helvetica,sans-Serif" font-size="10.00">language/lib/Catch2</text>
<text text-anchor="start" x="764.72" y="-174.5" font-family="Helvetica,sans-Serif" font-size="10.00">/include/internal/catch</text>
<text text-anchor="middle" x="843.72" y="-163.5" font-family="Helvetica,sans-Serif" font-size="10.00">_random_number_generator.cpp</text>
</a>
</g>
</g>
<!-- Node8&#45;&gt;Node12 -->
<g id="edge14" class="edge">
<title>Node8&#45;&gt;Node12</title>
<path fill="none" stroke="midnightblue" d="M843.72,-224.3C843.72,-215.3 843.72,-205.65 843.72,-197.51"/>
<polygon fill="midnightblue" stroke="midnightblue" points="840.22,-224.43 843.72,-234.43 847.22,-224.43 840.22,-224.43"/>
</g>
<!-- Node13 -->
<g id="node13" class="node">
<title>Node13</title>
<g id="a_node13"><a xlink:href="catch__run__context_8cpp.html" target="_top" xlink:title=" ">
<polygon fill="white" stroke="black" points="949.22,-156.5 949.22,-197.5 1074.22,-197.5 1074.22,-156.5 949.22,-156.5"/>
<text text-anchor="start" x="957.22" y="-185.5" font-family="Helvetica,sans-Serif" font-size="10.00">language/lib/Catch2</text>
<text text-anchor="start" x="957.22" y="-174.5" font-family="Helvetica,sans-Serif" font-size="10.00">/include/internal/catch</text>
<text text-anchor="middle" x="1011.72" y="-163.5" font-family="Helvetica,sans-Serif" font-size="10.00">_run_context.cpp</text>
</a>
</g>
</g>
<!-- Node8&#45;&gt;Node13 -->
<g id="edge16" class="edge">
<title>Node8&#45;&gt;Node13</title>
<path fill="none" stroke="midnightblue" d="M896.35,-230.19C919.59,-219.67 946.58,-207.47 968.6,-197.51"/>
<polygon fill="midnightblue" stroke="midnightblue" points="894.65,-227.12 886.98,-234.43 897.54,-233.5 894.65,-227.12"/>
</g>
<!-- Node14 -->
<g id="node14" class="node">
<title>Node14</title>
<g id="a_node14"><a xlink:href="catch__session_8cpp.html" target="_top" xlink:title=" ">
<polygon fill="white" stroke="black" points="1092.22,-156.5 1092.22,-197.5 1217.22,-197.5 1217.22,-156.5 1092.22,-156.5"/>
<text text-anchor="start" x="1100.22" y="-185.5" font-family="Helvetica,sans-Serif" font-size="10.00">language/lib/Catch2</text>
<text text-anchor="start" x="1100.22" y="-174.5" font-family="Helvetica,sans-Serif" font-size="10.00">/include/internal/catch</text>
<text text-anchor="middle" x="1154.72" y="-163.5" font-family="Helvetica,sans-Serif" font-size="10.00">_session.cpp</text>
</a>
</g>
</g>
<!-- Node8&#45;&gt;Node14 -->
<g id="edge18" class="edge">
<title>Node8&#45;&gt;Node14</title>
<path fill="none" stroke="midnightblue" d="M916.25,-237.98C963.97,-227.21 1027.72,-212.41 1083.72,-198 1086.45,-197.3 1089.23,-196.57 1092.04,-195.82"/>
<polygon fill="midnightblue" stroke="midnightblue" points="915.31,-234.6 906.32,-240.21 916.84,-241.43 915.31,-234.6"/>
</g>
<!-- Node15 -->
<g id="node15" class="node">
<title>Node15</title>
<g id="a_node15"><a xlink:href="catch__test__case__registry__impl_8cpp.html" target="_top" xlink:title=" ">
<polygon fill="white" stroke="black" points="1235.72,-156.5 1235.72,-197.5 1393.72,-197.5 1393.72,-156.5 1235.72,-156.5"/>
<text text-anchor="start" x="1243.72" y="-185.5" font-family="Helvetica,sans-Serif" font-size="10.00">language/lib/Catch2</text>
<text text-anchor="start" x="1243.72" y="-174.5" font-family="Helvetica,sans-Serif" font-size="10.00">/include/internal/catch</text>
<text text-anchor="middle" x="1314.72" y="-163.5" font-family="Helvetica,sans-Serif" font-size="10.00">_test_case_registry_impl.cpp</text>
</a>
</g>
</g>
<!-- Node8&#45;&gt;Node15 -->
<g id="edge20" class="edge">
<title>Node8&#45;&gt;Node15</title>
<path fill="none" stroke="midnightblue" d="M916.43,-245.09C993.68,-235.23 1119.24,-218.04 1226.72,-198 1229.64,-197.45 1232.62,-196.88 1235.62,-196.28"/>
<polygon fill="midnightblue" stroke="midnightblue" points="915.8,-241.64 906.32,-246.38 916.69,-248.59 915.8,-241.64"/>
</g>
<!-- Node10 -->
<g id="node10" class="node">
<title>Node10</title>
<g id="a_node10"><a xlink:href="catch__objc__impl_8mm.html" target="_top" xlink:title=" ">
<polygon fill="white" stroke="black" points="863.22,-78.5 863.22,-119.5 992.22,-119.5 992.22,-78.5 863.22,-78.5"/>
<text text-anchor="start" x="871.22" y="-107.5" font-family="Helvetica,sans-Serif" font-size="10.00">language/lib/Catch2</text>
<text text-anchor="start" x="871.22" y="-96.5" font-family="Helvetica,sans-Serif" font-size="10.00">/projects/XCode/OCTest</text>
<text text-anchor="middle" x="927.72" y="-85.5" font-family="Helvetica,sans-Serif" font-size="10.00">/catch_objc_impl.mm</text>
</a>
</g>
</g>
<!-- Node9&#45;&gt;Node10 -->
<g id="edge11" class="edge">
<title>Node9&#45;&gt;Node10</title>
<path fill="none" stroke="midnightblue" d="M605.38,-155.72C700.03,-134.64 799.66,-118.6 863.09,-109.16"/>
<polygon fill="midnightblue" stroke="midnightblue" points="604.34,-152.37 595.35,-157.98 605.87,-159.2 604.34,-152.37"/>
</g>
<!-- Node11&#45;&gt;Node10 -->
<g id="edge13" class="edge">
<title>Node11&#45;&gt;Node10</title>
<path fill="none" stroke="midnightblue" d="M748.32,-154.1C784.45,-143.21 827.77,-130.14 862.79,-119.58"/>
<polygon fill="midnightblue" stroke="midnightblue" points="746.9,-150.88 738.33,-157.12 748.92,-157.58 746.9,-150.88"/>
</g>
<!-- Node12&#45;&gt;Node10 -->
<g id="edge15" class="edge">
<title>Node12&#45;&gt;Node10</title>
<path fill="none" stroke="midnightblue" d="M873.02,-149.49C883.92,-139.63 896.08,-128.63 906.16,-119.51"/>
<polygon fill="midnightblue" stroke="midnightblue" points="870.42,-147.12 865.35,-156.43 875.11,-152.31 870.42,-147.12"/>
</g>
<!-- Node13&#45;&gt;Node10 -->
<g id="edge17" class="edge">
<title>Node13&#45;&gt;Node10</title>
<path fill="none" stroke="midnightblue" d="M982.42,-149.49C971.52,-139.63 959.36,-128.63 949.28,-119.51"/>
<polygon fill="midnightblue" stroke="midnightblue" points="980.32,-152.31 990.09,-156.43 985.02,-147.12 980.32,-152.31"/>
</g>
<!-- Node14&#45;&gt;Node10 -->
<g id="edge19" class="edge">
<title>Node14&#45;&gt;Node10</title>
<path fill="none" stroke="midnightblue" d="M1086.51,-153.17C1054.47,-142.44 1016.66,-129.78 985.98,-119.51"/>
<polygon fill="midnightblue" stroke="midnightblue" points="1085.67,-156.57 1096.26,-156.43 1087.89,-149.93 1085.67,-156.57"/>
</g>
<!-- Node15&#45;&gt;Node10 -->
<g id="edge21" class="edge">
<title>Node15&#45;&gt;Node10</title>
<path fill="none" stroke="midnightblue" d="M1225.63,-155.81C1139.3,-138.05 1050.71,-121.8 992.31,-111.36"/>
<polygon fill="midnightblue" stroke="midnightblue" points="1225.09,-159.27 1235.6,-157.87 1226.51,-152.42 1225.09,-159.27"/>
</g>
</g>
</svg>
