<?xml version="1.0" encoding="UTF-8" standalone="no"?>
<!DOCTYPE svg PUBLIC "-//W3C//DTD SVG 1.1//EN"
 "http://www.w3.org/Graphics/SVG/1.1/DTD/svg11.dtd">
<!-- Generated by graphviz version 2.43.0 (0)
 -->
<!-- Title: language/lib/Catch2/include/internal/catch_section_info.h Pages: 1 -->
<svg width="2563pt" height="518pt"
 viewBox="0.00 0.00 2563.02 518.00" xmlns="http://www.w3.org/2000/svg" xmlns:xlink="http://www.w3.org/1999/xlink">
<g id="graph0" class="graph" transform="scale(1 1) rotate(0) translate(4 514)">
<title>language/lib/Catch2/include/internal/catch_section_info.h</title>
<polygon fill="white" stroke="transparent" points="-4,4 -4,-514 2559.02,-514 2559.02,4 -4,4"/>
<!-- Node1 -->
<g id="node1" class="node">
<title>Node1</title>
<g id="a_node1"><a xlink:title=" ">
<polygon fill="#bfbfbf" stroke="black" points="1799.86,-468.5 1799.86,-509.5 1924.86,-509.5 1924.86,-468.5 1799.86,-468.5"/>
<text text-anchor="start" x="1807.86" y="-497.5" font-family="Helvetica,sans-Serif" font-size="10.00">language/lib/Catch2</text>
<text text-anchor="start" x="1807.86" y="-486.5" font-family="Helvetica,sans-Serif" font-size="10.00">/include/internal/catch</text>
<text text-anchor="middle" x="1862.36" y="-475.5" font-family="Helvetica,sans-Serif" font-size="10.00">_section_info.h</text>
</a>
</g>
</g>
<!-- Node2 -->
<g id="node2" class="node">
<title>Node2</title>
<g id="a_node2"><a xlink:href="catch__section_8h.html" target="_top" xlink:title=" ">
<polygon fill="white" stroke="black" points="16.86,-234.5 16.86,-275.5 141.86,-275.5 141.86,-234.5 16.86,-234.5"/>
<text text-anchor="start" x="24.86" y="-263.5" font-family="Helvetica,sans-Serif" font-size="10.00">language/lib/Catch2</text>
<text text-anchor="start" x="24.86" y="-252.5" font-family="Helvetica,sans-Serif" font-size="10.00">/include/internal/catch</text>
<text text-anchor="middle" x="79.36" y="-241.5" font-family="Helvetica,sans-Serif" font-size="10.00">_section.h</text>
</a>
</g>
</g>
<!-- Node1&#45;&gt;Node2 -->
<g id="edge1" class="edge">
<title>Node1&#45;&gt;Node2</title>
<path fill="none" stroke="midnightblue" d="M1789.57,-482.57C1594.16,-467.51 1041.98,-421.83 586.36,-354 425.2,-330.01 237.32,-290.69 141.9,-269.89"/>
<polygon fill="midnightblue" stroke="midnightblue" points="1789.48,-486.07 1799.72,-483.35 1790.01,-479.09 1789.48,-486.07"/>
</g>
<!-- Node7 -->
<g id="node7" class="node">
<title>Node7</title>
<g id="a_node7"><a xlink:href="catch__interfaces__reporter_8h.html" target="_top" xlink:title=" ">
<polygon fill="white" stroke="black" points="1799.86,-390.5 1799.86,-431.5 1924.86,-431.5 1924.86,-390.5 1799.86,-390.5"/>
<text text-anchor="start" x="1807.86" y="-419.5" font-family="Helvetica,sans-Serif" font-size="10.00">language/lib/Catch2</text>
<text text-anchor="start" x="1807.86" y="-408.5" font-family="Helvetica,sans-Serif" font-size="10.00">/include/internal/catch</text>
<text text-anchor="middle" x="1862.36" y="-397.5" font-family="Helvetica,sans-Serif" font-size="10.00">_interfaces_reporter.h</text>
</a>
</g>
</g>
<!-- Node1&#45;&gt;Node7 -->
<g id="edge6" class="edge">
<title>Node1&#45;&gt;Node7</title>
<path fill="none" stroke="midnightblue" d="M1862.36,-458.3C1862.36,-449.3 1862.36,-439.65 1862.36,-431.51"/>
<polygon fill="midnightblue" stroke="midnightblue" points="1858.86,-458.43 1862.36,-468.43 1865.86,-458.43 1858.86,-458.43"/>
</g>
<!-- Node37 -->
<g id="node37" class="node">
<title>Node37</title>
<g id="a_node37"><a xlink:href="catch__section__info_8cpp.html" target="_top" xlink:title=" ">
<polygon fill="white" stroke="black" points="2229.86,-390.5 2229.86,-431.5 2354.86,-431.5 2354.86,-390.5 2229.86,-390.5"/>
<text text-anchor="start" x="2237.86" y="-419.5" font-family="Helvetica,sans-Serif" font-size="10.00">language/lib/Catch2</text>
<text text-anchor="start" x="2237.86" y="-408.5" font-family="Helvetica,sans-Serif" font-size="10.00">/include/internal/catch</text>
<text text-anchor="middle" x="2292.36" y="-397.5" font-family="Helvetica,sans-Serif" font-size="10.00">_section_info.cpp</text>
</a>
</g>
</g>
<!-- Node1&#45;&gt;Node37 -->
<g id="edge63" class="edge">
<title>Node1&#45;&gt;Node37</title>
<path fill="none" stroke="midnightblue" d="M1934.96,-475.17C2017.67,-460.55 2151.46,-436.9 2229.76,-423.06"/>
<polygon fill="midnightblue" stroke="midnightblue" points="1934.13,-471.76 1924.89,-476.95 1935.34,-478.65 1934.13,-471.76"/>
</g>
<!-- Node3 -->
<g id="node3" class="node">
<title>Node3</title>
<g id="a_node3"><a xlink:href="include_2catch_8hpp.html" target="_top" xlink:title=" ">
<polygon fill="white" stroke="black" points="122.86,-84 122.86,-114 235.86,-114 235.86,-84 122.86,-84"/>
<text text-anchor="start" x="130.86" y="-102" font-family="Helvetica,sans-Serif" font-size="10.00">language/lib/Catch2</text>
<text text-anchor="middle" x="179.36" y="-91" font-family="Helvetica,sans-Serif" font-size="10.00">/include/catch.hpp</text>
</a>
</g>
</g>
<!-- Node2&#45;&gt;Node3 -->
<g id="edge2" class="edge">
<title>Node2&#45;&gt;Node3</title>
<path fill="none" stroke="midnightblue" d="M33.62,-228.45C23.08,-220.2 13.24,-210.02 7.36,-198 -0.84,-181.23 -3.61,-171.1 7.36,-156 33.47,-120.04 83.26,-106.73 122.58,-102.01"/>
<polygon fill="midnightblue" stroke="midnightblue" points="31.62,-231.33 41.77,-234.38 35.74,-225.67 31.62,-231.33"/>
</g>
<!-- Node5 -->
<g id="node5" class="node">
<title>Node5</title>
<g id="a_node5"><a xlink:href="catch__section_8cpp.html" target="_top" xlink:title=" ">
<polygon fill="white" stroke="black" points="16.86,-156.5 16.86,-197.5 141.86,-197.5 141.86,-156.5 16.86,-156.5"/>
<text text-anchor="start" x="24.86" y="-185.5" font-family="Helvetica,sans-Serif" font-size="10.00">language/lib/Catch2</text>
<text text-anchor="start" x="24.86" y="-174.5" font-family="Helvetica,sans-Serif" font-size="10.00">/include/internal/catch</text>
<text text-anchor="middle" x="79.36" y="-163.5" font-family="Helvetica,sans-Serif" font-size="10.00">_section.cpp</text>
</a>
</g>
</g>
<!-- Node2&#45;&gt;Node5 -->
<g id="edge4" class="edge">
<title>Node2&#45;&gt;Node5</title>
<path fill="none" stroke="midnightblue" d="M79.36,-224.3C79.36,-215.3 79.36,-205.65 79.36,-197.51"/>
<polygon fill="midnightblue" stroke="midnightblue" points="75.86,-224.43 79.36,-234.43 82.86,-224.43 75.86,-224.43"/>
</g>
<!-- Node4 -->
<g id="node4" class="node">
<title>Node4</title>
<g id="a_node4"><a xlink:href="catch__with__main_8hpp.html" target="_top" xlink:title=" ">
<polygon fill="white" stroke="black" points="122.86,-0.5 122.86,-41.5 235.86,-41.5 235.86,-0.5 122.86,-0.5"/>
<text text-anchor="start" x="130.86" y="-29.5" font-family="Helvetica,sans-Serif" font-size="10.00">language/lib/Catch2</text>
<text text-anchor="start" x="130.86" y="-18.5" font-family="Helvetica,sans-Serif" font-size="10.00">/include/catch_with</text>
<text text-anchor="middle" x="179.36" y="-7.5" font-family="Helvetica,sans-Serif" font-size="10.00">_main.hpp</text>
</a>
</g>
</g>
<!-- Node3&#45;&gt;Node4 -->
<g id="edge3" class="edge">
<title>Node3&#45;&gt;Node4</title>
<path fill="none" stroke="midnightblue" d="M179.36,-73.66C179.36,-63.33 179.36,-51.44 179.36,-41.68"/>
<polygon fill="midnightblue" stroke="midnightblue" points="175.86,-73.7 179.36,-83.7 182.86,-73.71 175.86,-73.7"/>
</g>
<!-- Node6 -->
<g id="node6" class="node">
<title>Node6</title>
<g id="a_node6"><a xlink:href="catch__objc__impl_8mm.html" target="_top" xlink:title=" ">
<polygon fill="white" stroke="black" points="1414.86,-78.5 1414.86,-119.5 1543.86,-119.5 1543.86,-78.5 1414.86,-78.5"/>
<text text-anchor="start" x="1422.86" y="-107.5" font-family="Helvetica,sans-Serif" font-size="10.00">language/lib/Catch2</text>
<text text-anchor="start" x="1422.86" y="-96.5" font-family="Helvetica,sans-Serif" font-size="10.00">/projects/XCode/OCTest</text>
<text text-anchor="middle" x="1479.36" y="-85.5" font-family="Helvetica,sans-Serif" font-size="10.00">/catch_objc_impl.mm</text>
</a>
</g>
</g>
<!-- Node5&#45;&gt;Node6 -->
<g id="edge5" class="edge">
<title>Node5&#45;&gt;Node6</title>
<path fill="none" stroke="midnightblue" d="M151.92,-155.98C418.06,-116.1 1186.31,-103.64 1414.66,-100.74"/>
<polygon fill="midnightblue" stroke="midnightblue" points="151.25,-152.54 141.9,-157.53 152.32,-159.46 151.25,-152.54"/>
</g>
<!-- Node8 -->
<g id="node8" class="node">
<title>Node8</title>
<g id="a_node8"><a xlink:href="catch__reporter__bases_8hpp.html" target="_top" xlink:title=" ">
<polygon fill="white" stroke="black" points="595.86,-312.5 595.86,-353.5 726.86,-353.5 726.86,-312.5 595.86,-312.5"/>
<text text-anchor="start" x="603.86" y="-341.5" font-family="Helvetica,sans-Serif" font-size="10.00">language/lib/Catch2</text>
<text text-anchor="start" x="603.86" y="-330.5" font-family="Helvetica,sans-Serif" font-size="10.00">/include/reporters/catch</text>
<text text-anchor="middle" x="661.36" y="-319.5" font-family="Helvetica,sans-Serif" font-size="10.00">_reporter_bases.hpp</text>
</a>
</g>
</g>
<!-- Node7&#45;&gt;Node8 -->
<g id="edge7" class="edge">
<title>Node7&#45;&gt;Node8</title>
<path fill="none" stroke="midnightblue" d="M1789.48,-405.39C1572.64,-391.67 933.87,-351.24 726.9,-338.15"/>
<polygon fill="midnightblue" stroke="midnightblue" points="1789.28,-408.88 1799.48,-406.02 1789.72,-401.9 1789.28,-408.88"/>
</g>
<!-- Node18 -->
<g id="node18" class="node">
<title>Node18</title>
<g id="a_node18"><a xlink:href="catch__reporter__bases_8cpp.html" target="_top" xlink:title=" ">
<polygon fill="white" stroke="black" points="885.86,-234.5 885.86,-275.5 1016.86,-275.5 1016.86,-234.5 885.86,-234.5"/>
<text text-anchor="start" x="893.86" y="-263.5" font-family="Helvetica,sans-Serif" font-size="10.00">language/lib/Catch2</text>
<text text-anchor="start" x="893.86" y="-252.5" font-family="Helvetica,sans-Serif" font-size="10.00">/include/reporters/catch</text>
<text text-anchor="middle" x="951.36" y="-241.5" font-family="Helvetica,sans-Serif" font-size="10.00">_reporter_bases.cpp</text>
</a>
</g>
</g>
<!-- Node7&#45;&gt;Node18 -->
<g id="edge61" class="edge">
<title>Node7&#45;&gt;Node18</title>
<path fill="none" stroke="midnightblue" d="M1789.59,-406.01C1685.56,-399.49 1488.61,-384.17 1323.36,-354 1212.82,-333.82 1086.9,-297.84 1013.56,-275.54"/>
<polygon fill="midnightblue" stroke="midnightblue" points="1789.47,-409.51 1799.67,-406.63 1789.91,-402.52 1789.47,-409.51"/>
</g>
<!-- Node19 -->
<g id="node19" class="node">
<title>Node19</title>
<g id="a_node19"><a xlink:href="catch__benchmark_8hpp.html" target="_top" xlink:title=" ">
<polygon fill="white" stroke="black" points="1332.86,-312.5 1332.86,-353.5 1485.86,-353.5 1485.86,-312.5 1332.86,-312.5"/>
<text text-anchor="start" x="1340.86" y="-341.5" font-family="Helvetica,sans-Serif" font-size="10.00">language/lib/Catch2</text>
<text text-anchor="start" x="1340.86" y="-330.5" font-family="Helvetica,sans-Serif" font-size="10.00">/include/internal/benchmark</text>
<text text-anchor="middle" x="1409.36" y="-319.5" font-family="Helvetica,sans-Serif" font-size="10.00">/catch_benchmark.hpp</text>
</a>
</g>
</g>
<!-- Node7&#45;&gt;Node19 -->
<g id="edge29" class="edge">
<title>Node7&#45;&gt;Node19</title>
<path fill="none" stroke="midnightblue" d="M1789.97,-397.86C1706.8,-383.9 1570.89,-361.1 1485.97,-346.85"/>
<polygon fill="midnightblue" stroke="midnightblue" points="1789.41,-401.31 1799.85,-399.51 1790.57,-394.41 1789.41,-401.31"/>
</g>
<!-- Node21 -->
<g id="node21" class="node">
<title>Node21</title>
<g id="a_node21"><a xlink:href="catch__run__context_8h.html" target="_top" xlink:title=" ">
<polygon fill="white" stroke="black" points="1479.86,-234.5 1479.86,-275.5 1604.86,-275.5 1604.86,-234.5 1479.86,-234.5"/>
<text text-anchor="start" x="1487.86" y="-263.5" font-family="Helvetica,sans-Serif" font-size="10.00">language/lib/Catch2</text>
<text text-anchor="start" x="1487.86" y="-252.5" font-family="Helvetica,sans-Serif" font-size="10.00">/include/internal/catch</text>
<text text-anchor="middle" x="1542.36" y="-241.5" font-family="Helvetica,sans-Serif" font-size="10.00">_run_context.h</text>
</a>
</g>
</g>
<!-- Node7&#45;&gt;Node21 -->
<g id="edge31" class="edge">
<title>Node7&#45;&gt;Node21</title>
<path fill="none" stroke="midnightblue" d="M1812.46,-385.99C1749.26,-355.57 1641.55,-303.74 1583.06,-275.59"/>
<polygon fill="midnightblue" stroke="midnightblue" points="1811.3,-389.31 1821.83,-390.5 1814.34,-383.01 1811.3,-389.31"/>
</g>
<!-- Node26 -->
<g id="node26" class="node">
<title>Node26</title>
<g id="a_node26"><a xlink:href="catch__session_8cpp.html" target="_top" xlink:title=" ">
<polygon fill="white" stroke="black" points="1735.86,-156.5 1735.86,-197.5 1860.86,-197.5 1860.86,-156.5 1735.86,-156.5"/>
<text text-anchor="start" x="1743.86" y="-185.5" font-family="Helvetica,sans-Serif" font-size="10.00">language/lib/Catch2</text>
<text text-anchor="start" x="1743.86" y="-174.5" font-family="Helvetica,sans-Serif" font-size="10.00">/include/internal/catch</text>
<text text-anchor="middle" x="1798.36" y="-163.5" font-family="Helvetica,sans-Serif" font-size="10.00">_session.cpp</text>
</a>
</g>
</g>
<!-- Node7&#45;&gt;Node26 -->
<g id="edge60" class="edge">
<title>Node7&#45;&gt;Node26</title>
<path fill="none" stroke="midnightblue" d="M1816.62,-384.45C1806.08,-376.2 1796.24,-366.02 1790.36,-354 1765.1,-302.34 1781.25,-231.64 1791.62,-197.72"/>
<polygon fill="midnightblue" stroke="midnightblue" points="1814.62,-387.33 1824.77,-390.38 1818.74,-381.67 1814.62,-387.33"/>
</g>
<!-- Node28 -->
<g id="node28" class="node">
<title>Node28</title>
<g id="a_node28"><a xlink:href="catch__commandline_8cpp.html" target="_top" xlink:title=" ">
<polygon fill="white" stroke="black" points="1799.86,-312.5 1799.86,-353.5 1924.86,-353.5 1924.86,-312.5 1799.86,-312.5"/>
<text text-anchor="start" x="1807.86" y="-341.5" font-family="Helvetica,sans-Serif" font-size="10.00">language/lib/Catch2</text>
<text text-anchor="start" x="1807.86" y="-330.5" font-family="Helvetica,sans-Serif" font-size="10.00">/include/internal/catch</text>
<text text-anchor="middle" x="1862.36" y="-319.5" font-family="Helvetica,sans-Serif" font-size="10.00">_commandline.cpp</text>
</a>
</g>
</g>
<!-- Node7&#45;&gt;Node28 -->
<g id="edge44" class="edge">
<title>Node7&#45;&gt;Node28</title>
<path fill="none" stroke="midnightblue" d="M1862.36,-380.3C1862.36,-371.3 1862.36,-361.65 1862.36,-353.51"/>
<polygon fill="midnightblue" stroke="midnightblue" points="1858.86,-380.43 1862.36,-390.43 1865.86,-380.43 1858.86,-380.43"/>
</g>
<!-- Node29 -->
<g id="node29" class="node">
<title>Node29</title>
<g id="a_node29"><a xlink:href="include_2internal_2catch__interfaces__reporter_8cpp.html" target="_top" xlink:title=" ">
<polygon fill="white" stroke="black" points="1917.36,-156.5 1917.36,-197.5 2051.36,-197.5 2051.36,-156.5 1917.36,-156.5"/>
<text text-anchor="start" x="1925.36" y="-185.5" font-family="Helvetica,sans-Serif" font-size="10.00">language/lib/Catch2</text>
<text text-anchor="start" x="1925.36" y="-174.5" font-family="Helvetica,sans-Serif" font-size="10.00">/include/internal/catch</text>
<text text-anchor="middle" x="1984.36" y="-163.5" font-family="Helvetica,sans-Serif" font-size="10.00">_interfaces_reporter.cpp</text>
</a>
</g>
</g>
<!-- Node7&#45;&gt;Node29 -->
<g id="edge46" class="edge">
<title>Node7&#45;&gt;Node29</title>
<path fill="none" stroke="midnightblue" d="M1903.82,-384.24C1914.73,-375.76 1925.61,-365.52 1933.36,-354 1950.86,-328.01 1971.63,-237.79 1980.27,-197.59"/>
<polygon fill="midnightblue" stroke="midnightblue" points="1901.49,-381.61 1895.53,-390.37 1905.65,-387.24 1901.49,-381.61"/>
</g>
<!-- Node30 -->
<g id="node30" class="node">
<title>Node30</title>
<g id="a_node30"><a xlink:href="catch__reporter__listening_8h.html" target="_top" xlink:title=" ">
<polygon fill="white" stroke="black" points="1981.86,-234.5 1981.86,-275.5 2112.86,-275.5 2112.86,-234.5 1981.86,-234.5"/>
<text text-anchor="start" x="1989.86" y="-263.5" font-family="Helvetica,sans-Serif" font-size="10.00">language/lib/Catch2</text>
<text text-anchor="start" x="1989.86" y="-252.5" font-family="Helvetica,sans-Serif" font-size="10.00">/include/reporters/catch</text>
<text text-anchor="middle" x="2047.36" y="-241.5" font-family="Helvetica,sans-Serif" font-size="10.00">_reporter_listening.h</text>
</a>
</g>
</g>
<!-- Node7&#45;&gt;Node30 -->
<g id="edge48" class="edge">
<title>Node7&#45;&gt;Node30</title>
<path fill="none" stroke="midnightblue" d="M1917.45,-385.83C1934.35,-377.08 1952.41,-366.29 1967.36,-354 1995.35,-330.99 2020.5,-296.93 2034.83,-275.62"/>
<polygon fill="midnightblue" stroke="midnightblue" points="1915.57,-382.85 1908.21,-390.47 1918.72,-389.11 1915.57,-382.85"/>
</g>
<!-- Node32 -->
<g id="node32" class="node">
<title>Node32</title>
<g id="a_node32"><a xlink:href="catch__list_8cpp.html" target="_top" xlink:title=" ">
<polygon fill="white" stroke="black" points="2019.86,-312.5 2019.86,-353.5 2144.86,-353.5 2144.86,-312.5 2019.86,-312.5"/>
<text text-anchor="start" x="2027.86" y="-341.5" font-family="Helvetica,sans-Serif" font-size="10.00">language/lib/Catch2</text>
<text text-anchor="start" x="2027.86" y="-330.5" font-family="Helvetica,sans-Serif" font-size="10.00">/include/internal/catch</text>
<text text-anchor="middle" x="2082.36" y="-319.5" font-family="Helvetica,sans-Serif" font-size="10.00">_list.cpp</text>
</a>
</g>
</g>
<!-- Node7&#45;&gt;Node32 -->
<g id="edge53" class="edge">
<title>Node7&#45;&gt;Node32</title>
<path fill="none" stroke="midnightblue" d="M1928.86,-387.03C1959.83,-376.33 1996.29,-363.73 2025.9,-353.51"/>
<polygon fill="midnightblue" stroke="midnightblue" points="1927.33,-383.85 1919.02,-390.43 1929.61,-390.47 1927.33,-383.85"/>
</g>
<!-- Node33 -->
<g id="node33" class="node">
<title>Node33</title>
<g id="a_node33"><a xlink:href="catch__reporter__registry_8h.html" target="_top" xlink:title=" ">
<polygon fill="white" stroke="black" points="2257.86,-234.5 2257.86,-275.5 2382.86,-275.5 2382.86,-234.5 2257.86,-234.5"/>
<text text-anchor="start" x="2265.86" y="-263.5" font-family="Helvetica,sans-Serif" font-size="10.00">language/lib/Catch2</text>
<text text-anchor="start" x="2265.86" y="-252.5" font-family="Helvetica,sans-Serif" font-size="10.00">/include/internal/catch</text>
<text text-anchor="middle" x="2320.36" y="-241.5" font-family="Helvetica,sans-Serif" font-size="10.00">_reporter_registry.h</text>
</a>
</g>
</g>
<!-- Node7&#45;&gt;Node33 -->
<g id="edge55" class="edge">
<title>Node7&#45;&gt;Node33</title>
<path fill="none" stroke="midnightblue" d="M1934.96,-408.47C1996.56,-404.36 2085.49,-391.63 2153.36,-354 2175.64,-341.65 2171.59,-326.75 2192.36,-312 2213.52,-296.97 2239.36,-284.73 2262.26,-275.56"/>
<polygon fill="midnightblue" stroke="midnightblue" points="1934.7,-404.97 1924.93,-409.07 1935.13,-411.96 1934.7,-404.97"/>
</g>
<!-- Node36 -->
<g id="node36" class="node">
<title>Node36</title>
<g id="a_node36"><a xlink:href="projects_2_self_test_2_surrogate_cpps_2catch__interfaces__reporter_8cpp.html" target="_top" xlink:title=" ">
<polygon fill="white" stroke="black" points="2201.36,-312.5 2201.36,-353.5 2389.36,-353.5 2389.36,-312.5 2201.36,-312.5"/>
<text text-anchor="start" x="2209.36" y="-341.5" font-family="Helvetica,sans-Serif" font-size="10.00">language/lib/Catch2</text>
<text text-anchor="start" x="2209.36" y="-330.5" font-family="Helvetica,sans-Serif" font-size="10.00">/projects/SelfTest/Surrogate</text>
<text text-anchor="middle" x="2295.36" y="-319.5" font-family="Helvetica,sans-Serif" font-size="10.00">Cpps/catch_interfaces_reporter.cpp</text>
</a>
</g>
</g>
<!-- Node7&#45;&gt;Node36 -->
<g id="edge62" class="edge">
<title>Node7&#45;&gt;Node36</title>
<path fill="none" stroke="midnightblue" d="M1934.88,-397.77C2000.78,-386.6 2100.65,-369.5 2187.36,-354 2191.87,-353.19 2196.48,-352.36 2201.13,-351.52"/>
<polygon fill="midnightblue" stroke="midnightblue" points="1934.28,-394.32 1925.01,-399.44 1935.45,-401.22 1934.28,-394.32"/>
</g>
<!-- Node9 -->
<g id="node9" class="node">
<title>Node9</title>
<g id="a_node9"><a xlink:href="catch__external__interfaces_8h.html" target="_top" xlink:title=" ">
<polygon fill="white" stroke="black" points="308.86,-156.5 308.86,-197.5 433.86,-197.5 433.86,-156.5 308.86,-156.5"/>
<text text-anchor="start" x="316.86" y="-185.5" font-family="Helvetica,sans-Serif" font-size="10.00">language/lib/Catch2</text>
<text text-anchor="start" x="316.86" y="-174.5" font-family="Helvetica,sans-Serif" font-size="10.00">/include/internal/catch</text>
<text text-anchor="middle" x="371.36" y="-163.5" font-family="Helvetica,sans-Serif" font-size="10.00">_external_interfaces.h</text>
</a>
</g>
</g>
<!-- Node8&#45;&gt;Node9 -->
<g id="edge8" class="edge">
<title>Node8&#45;&gt;Node9</title>
<path fill="none" stroke="midnightblue" d="M585.6,-325.67C515.16,-318.18 417.19,-303.16 390.36,-276 370.02,-255.41 368.13,-219.98 369.28,-197.83"/>
<polygon fill="midnightblue" stroke="midnightblue" points="585.47,-329.17 595.78,-326.72 586.19,-322.21 585.47,-329.17"/>
</g>
<!-- Node10 -->
<g id="node10" class="node">
<title>Node10</title>
<g id="a_node10"><a xlink:href="catch__reporter__compact_8h.html" target="_top" xlink:title=" ">
<polygon fill="white" stroke="black" points="211.86,-234.5 211.86,-275.5 342.86,-275.5 342.86,-234.5 211.86,-234.5"/>
<text text-anchor="start" x="219.86" y="-263.5" font-family="Helvetica,sans-Serif" font-size="10.00">language/lib/Catch2</text>
<text text-anchor="start" x="219.86" y="-252.5" font-family="Helvetica,sans-Serif" font-size="10.00">/include/reporters/catch</text>
<text text-anchor="middle" x="277.36" y="-241.5" font-family="Helvetica,sans-Serif" font-size="10.00">_reporter_compact.h</text>
</a>
</g>
</g>
<!-- Node8&#45;&gt;Node10 -->
<g id="edge10" class="edge">
<title>Node8&#45;&gt;Node10</title>
<path fill="none" stroke="midnightblue" d="M585.56,-319.4C523.9,-308.82 434.74,-292.78 357.36,-276 352.74,-275 347.99,-273.92 343.21,-272.81"/>
<polygon fill="midnightblue" stroke="midnightblue" points="585.15,-322.88 595.6,-321.11 586.33,-315.98 585.15,-322.88"/>
</g>
<!-- Node12 -->
<g id="node12" class="node">
<title>Node12</title>
<g id="a_node12"><a xlink:href="catch__reporter__console_8h.html" target="_top" xlink:title=" ">
<polygon fill="white" stroke="black" points="399.86,-234.5 399.86,-275.5 530.86,-275.5 530.86,-234.5 399.86,-234.5"/>
<text text-anchor="start" x="407.86" y="-263.5" font-family="Helvetica,sans-Serif" font-size="10.00">language/lib/Catch2</text>
<text text-anchor="start" x="407.86" y="-252.5" font-family="Helvetica,sans-Serif" font-size="10.00">/include/reporters/catch</text>
<text text-anchor="middle" x="465.36" y="-241.5" font-family="Helvetica,sans-Serif" font-size="10.00">_reporter_console.h</text>
</a>
</g>
</g>
<!-- Node8&#45;&gt;Node12 -->
<g id="edge14" class="edge">
<title>Node8&#45;&gt;Node12</title>
<path fill="none" stroke="midnightblue" d="M601.4,-308.75C573.96,-298.11 541.82,-285.65 515.66,-275.51"/>
<polygon fill="midnightblue" stroke="midnightblue" points="600.3,-312.08 610.89,-312.43 602.83,-305.55 600.3,-312.08"/>
</g>
<!-- Node14 -->
<g id="node14" class="node">
<title>Node14</title>
<g id="a_node14"><a xlink:href="catch__reporter__junit_8h.html" target="_top" xlink:title=" ">
<polygon fill="white" stroke="black" points="548.86,-234.5 548.86,-275.5 679.86,-275.5 679.86,-234.5 548.86,-234.5"/>
<text text-anchor="start" x="556.86" y="-263.5" font-family="Helvetica,sans-Serif" font-size="10.00">language/lib/Catch2</text>
<text text-anchor="start" x="556.86" y="-252.5" font-family="Helvetica,sans-Serif" font-size="10.00">/include/reporters/catch</text>
<text text-anchor="middle" x="614.36" y="-241.5" font-family="Helvetica,sans-Serif" font-size="10.00">_reporter_junit.h</text>
</a>
</g>
</g>
<!-- Node8&#45;&gt;Node14 -->
<g id="edge18" class="edge">
<title>Node8&#45;&gt;Node14</title>
<path fill="none" stroke="midnightblue" d="M643.9,-303.76C638.08,-294.35 631.74,-284.1 626.42,-275.51"/>
<polygon fill="midnightblue" stroke="midnightblue" points="641.02,-305.76 649.26,-312.43 646.97,-302.08 641.02,-305.76"/>
</g>
<!-- Node15 -->
<g id="node15" class="node">
<title>Node15</title>
<g id="a_node15"><a xlink:href="catch__reporter__junit_8cpp.html" target="_top" xlink:title=" ">
<polygon fill="white" stroke="black" points="600.86,-156.5 600.86,-197.5 731.86,-197.5 731.86,-156.5 600.86,-156.5"/>
<text text-anchor="start" x="608.86" y="-185.5" font-family="Helvetica,sans-Serif" font-size="10.00">language/lib/Catch2</text>
<text text-anchor="start" x="608.86" y="-174.5" font-family="Helvetica,sans-Serif" font-size="10.00">/include/reporters/catch</text>
<text text-anchor="middle" x="666.36" y="-163.5" font-family="Helvetica,sans-Serif" font-size="10.00">_reporter_junit.cpp</text>
</a>
</g>
</g>
<!-- Node8&#45;&gt;Node15 -->
<g id="edge28" class="edge">
<title>Node8&#45;&gt;Node15</title>
<path fill="none" stroke="midnightblue" d="M678.26,-303.24C682.4,-294.75 686.25,-285.25 688.36,-276 692.52,-257.8 691.83,-252.34 688.36,-234 685.99,-221.48 680.88,-208.17 676.18,-197.68"/>
<polygon fill="midnightblue" stroke="midnightblue" points="675.05,-301.84 673.54,-312.33 681.26,-305.07 675.05,-301.84"/>
</g>
<!-- Node16 -->
<g id="node16" class="node">
<title>Node16</title>
<g id="a_node16"><a xlink:href="catch__reporter__xml_8h.html" target="_top" xlink:title=" ">
<polygon fill="white" stroke="black" points="736.86,-234.5 736.86,-275.5 867.86,-275.5 867.86,-234.5 736.86,-234.5"/>
<text text-anchor="start" x="744.86" y="-263.5" font-family="Helvetica,sans-Serif" font-size="10.00">language/lib/Catch2</text>
<text text-anchor="start" x="744.86" y="-252.5" font-family="Helvetica,sans-Serif" font-size="10.00">/include/reporters/catch</text>
<text text-anchor="middle" x="802.36" y="-241.5" font-family="Helvetica,sans-Serif" font-size="10.00">_reporter_xml.h</text>
</a>
</g>
</g>
<!-- Node8&#45;&gt;Node16 -->
<g id="edge22" class="edge">
<title>Node8&#45;&gt;Node16</title>
<path fill="none" stroke="midnightblue" d="M706.58,-307.63C725.85,-297.24 748.02,-285.29 766.17,-275.51"/>
<polygon fill="midnightblue" stroke="midnightblue" points="704.81,-304.6 697.67,-312.43 708.14,-310.76 704.81,-304.6"/>
</g>
<!-- Node8&#45;&gt;Node18 -->
<g id="edge26" class="edge">
<title>Node8&#45;&gt;Node18</title>
<path fill="none" stroke="midnightblue" d="M736.96,-312.42C778.18,-301.72 830.09,-288.2 876.36,-276 879.36,-275.21 882.42,-274.4 885.52,-273.58"/>
<polygon fill="midnightblue" stroke="midnightblue" points="736.06,-309.04 727.26,-314.94 737.81,-315.82 736.06,-309.04"/>
</g>
<!-- Node9&#45;&gt;Node3 -->
<g id="edge9" class="edge">
<title>Node9&#45;&gt;Node3</title>
<path fill="none" stroke="midnightblue" d="M312.27,-152.61C280.45,-140.02 242.26,-124.9 215,-114.11"/>
<polygon fill="midnightblue" stroke="midnightblue" points="311.33,-156 321.92,-156.43 313.91,-149.49 311.33,-156"/>
</g>
<!-- Node10&#45;&gt;Node9 -->
<g id="edge11" class="edge">
<title>Node10&#45;&gt;Node9</title>
<path fill="none" stroke="midnightblue" d="M309.44,-228.06C321.82,-218.06 335.73,-206.8 347.24,-197.51"/>
<polygon fill="midnightblue" stroke="midnightblue" points="307.14,-225.42 301.57,-234.43 311.55,-230.86 307.14,-225.42"/>
</g>
<!-- Node11 -->
<g id="node11" class="node">
<title>Node11</title>
<g id="a_node11"><a xlink:href="catch__reporter__compact_8cpp.html" target="_top" xlink:title=" ">
<polygon fill="white" stroke="black" points="159.86,-156.5 159.86,-197.5 290.86,-197.5 290.86,-156.5 159.86,-156.5"/>
<text text-anchor="start" x="167.86" y="-185.5" font-family="Helvetica,sans-Serif" font-size="10.00">language/lib/Catch2</text>
<text text-anchor="start" x="167.86" y="-174.5" font-family="Helvetica,sans-Serif" font-size="10.00">/include/reporters/catch</text>
<text text-anchor="middle" x="225.36" y="-163.5" font-family="Helvetica,sans-Serif" font-size="10.00">_reporter_compact.cpp</text>
</a>
</g>
</g>
<!-- Node10&#45;&gt;Node11 -->
<g id="edge12" class="edge">
<title>Node10&#45;&gt;Node11</title>
<path fill="none" stroke="midnightblue" d="M258.24,-226.05C251.75,-216.57 244.65,-206.18 238.71,-197.51"/>
<polygon fill="midnightblue" stroke="midnightblue" points="255.43,-228.15 263.97,-234.43 261.21,-224.2 255.43,-228.15"/>
</g>
<!-- Node11&#45;&gt;Node6 -->
<g id="edge13" class="edge">
<title>Node11&#45;&gt;Node6</title>
<path fill="none" stroke="midnightblue" d="M301.2,-155.92C536.97,-121.36 1203.77,-105.51 1414.64,-101.23"/>
<polygon fill="midnightblue" stroke="midnightblue" points="300.33,-152.51 290.97,-157.48 301.38,-159.44 300.33,-152.51"/>
</g>
<!-- Node12&#45;&gt;Node9 -->
<g id="edge15" class="edge">
<title>Node12&#45;&gt;Node9</title>
<path fill="none" stroke="midnightblue" d="M433.28,-228.06C420.91,-218.06 406.99,-206.8 395.49,-197.51"/>
<polygon fill="midnightblue" stroke="midnightblue" points="431.18,-230.86 441.15,-234.43 435.58,-225.42 431.18,-230.86"/>
</g>
<!-- Node13 -->
<g id="node13" class="node">
<title>Node13</title>
<g id="a_node13"><a xlink:href="catch__reporter__console_8cpp.html" target="_top" xlink:title=" ">
<polygon fill="white" stroke="black" points="451.86,-156.5 451.86,-197.5 582.86,-197.5 582.86,-156.5 451.86,-156.5"/>
<text text-anchor="start" x="459.86" y="-185.5" font-family="Helvetica,sans-Serif" font-size="10.00">language/lib/Catch2</text>
<text text-anchor="start" x="459.86" y="-174.5" font-family="Helvetica,sans-Serif" font-size="10.00">/include/reporters/catch</text>
<text text-anchor="middle" x="517.36" y="-163.5" font-family="Helvetica,sans-Serif" font-size="10.00">_reporter_console.cpp</text>
</a>
</g>
</g>
<!-- Node12&#45;&gt;Node13 -->
<g id="edge16" class="edge">
<title>Node12&#45;&gt;Node13</title>
<path fill="none" stroke="midnightblue" d="M484.49,-226.05C490.97,-216.57 498.08,-206.18 504.02,-197.51"/>
<polygon fill="midnightblue" stroke="midnightblue" points="481.51,-224.2 478.75,-234.43 487.29,-228.15 481.51,-224.2"/>
</g>
<!-- Node13&#45;&gt;Node6 -->
<g id="edge17" class="edge">
<title>Node13&#45;&gt;Node6</title>
<path fill="none" stroke="midnightblue" d="M593.1,-155.88C904.52,-105.53 1269.22,-99.81 1414.79,-99.65"/>
<polygon fill="midnightblue" stroke="midnightblue" points="592.28,-152.46 582.98,-157.53 593.41,-159.37 592.28,-152.46"/>
</g>
<!-- Node14&#45;&gt;Node9 -->
<g id="edge19" class="edge">
<title>Node14&#45;&gt;Node9</title>
<path fill="none" stroke="midnightblue" d="M542.24,-231.44C507.74,-220.66 466.86,-207.87 433.73,-197.51"/>
<polygon fill="midnightblue" stroke="midnightblue" points="541.19,-234.78 551.78,-234.43 543.28,-228.1 541.19,-234.78"/>
</g>
<!-- Node14&#45;&gt;Node15 -->
<g id="edge20" class="edge">
<title>Node14&#45;&gt;Node15</title>
<path fill="none" stroke="midnightblue" d="M633.49,-226.05C639.97,-216.57 647.08,-206.18 653.02,-197.51"/>
<polygon fill="midnightblue" stroke="midnightblue" points="630.51,-224.2 627.75,-234.43 636.29,-228.15 630.51,-224.2"/>
</g>
<!-- Node15&#45;&gt;Node6 -->
<g id="edge21" class="edge">
<title>Node15&#45;&gt;Node6</title>
<path fill="none" stroke="midnightblue" d="M742.09,-155.86C994.86,-113.44 1287.16,-103.32 1414.61,-100.82"/>
<polygon fill="midnightblue" stroke="midnightblue" points="741.26,-152.45 731.99,-157.58 742.43,-159.35 741.26,-152.45"/>
</g>
<!-- Node16&#45;&gt;Node9 -->
<g id="edge23" class="edge">
<title>Node16&#45;&gt;Node9</title>
<path fill="none" stroke="midnightblue" d="M726.58,-240.4C713.83,-238.2 700.73,-235.99 688.36,-234 579.27,-216.45 550.43,-221.03 442.36,-198 439.61,-197.41 436.8,-196.78 433.97,-196.11"/>
<polygon fill="midnightblue" stroke="midnightblue" points="726.25,-243.89 736.71,-242.15 727.45,-236.99 726.25,-243.89"/>
</g>
<!-- Node17 -->
<g id="node17" class="node">
<title>Node17</title>
<g id="a_node17"><a xlink:href="catch__reporter__xml_8cpp.html" target="_top" xlink:title=" ">
<polygon fill="white" stroke="black" points="749.86,-156.5 749.86,-197.5 880.86,-197.5 880.86,-156.5 749.86,-156.5"/>
<text text-anchor="start" x="757.86" y="-185.5" font-family="Helvetica,sans-Serif" font-size="10.00">language/lib/Catch2</text>
<text text-anchor="start" x="757.86" y="-174.5" font-family="Helvetica,sans-Serif" font-size="10.00">/include/reporters/catch</text>
<text text-anchor="middle" x="815.36" y="-163.5" font-family="Helvetica,sans-Serif" font-size="10.00">_reporter_xml.cpp</text>
</a>
</g>
</g>
<!-- Node16&#45;&gt;Node17 -->
<g id="edge24" class="edge">
<title>Node16&#45;&gt;Node17</title>
<path fill="none" stroke="midnightblue" d="M807.44,-224.3C808.98,-215.3 810.63,-205.65 812.02,-197.51"/>
<polygon fill="midnightblue" stroke="midnightblue" points="803.95,-223.98 805.71,-234.43 810.84,-225.16 803.95,-223.98"/>
</g>
<!-- Node17&#45;&gt;Node6 -->
<g id="edge25" class="edge">
<title>Node17&#45;&gt;Node6</title>
<path fill="none" stroke="midnightblue" d="M890.96,-156.79C892.44,-156.51 893.91,-156.25 895.36,-156 1082.32,-123.85 1306.36,-108.84 1414.56,-103.05"/>
<polygon fill="midnightblue" stroke="midnightblue" points="890.25,-153.36 881.12,-158.73 891.61,-160.23 890.25,-153.36"/>
</g>
<!-- Node18&#45;&gt;Node6 -->
<g id="edge27" class="edge">
<title>Node18&#45;&gt;Node6</title>
<path fill="none" stroke="midnightblue" d="M932.62,-225.42C921.04,-203.85 911.34,-174.83 928.36,-156 960.45,-120.48 1275.99,-106.34 1414.61,-101.8"/>
<polygon fill="midnightblue" stroke="midnightblue" points="929.61,-227.22 937.62,-234.16 935.69,-223.74 929.61,-227.22"/>
</g>
<!-- Node20 -->
<g id="node20" class="node">
<title>Node20</title>
<g id="a_node20"><a xlink:href="catch__benchmarking__all_8hpp.html" target="_top" xlink:title=" ">
<polygon fill="white" stroke="black" points="1302.86,-234.5 1302.86,-275.5 1461.86,-275.5 1461.86,-234.5 1302.86,-234.5"/>
<text text-anchor="start" x="1310.86" y="-263.5" font-family="Helvetica,sans-Serif" font-size="10.00">language/lib/Catch2</text>
<text text-anchor="start" x="1310.86" y="-252.5" font-family="Helvetica,sans-Serif" font-size="10.00">/include/internal/benchmark</text>
<text text-anchor="middle" x="1382.36" y="-241.5" font-family="Helvetica,sans-Serif" font-size="10.00">/catch_benchmarking_all.hpp</text>
</a>
</g>
</g>
<!-- Node19&#45;&gt;Node20 -->
<g id="edge30" class="edge">
<title>Node19&#45;&gt;Node20</title>
<path fill="none" stroke="midnightblue" d="M1399.02,-302.88C1395.76,-293.72 1392.25,-283.83 1389.29,-275.51"/>
<polygon fill="midnightblue" stroke="midnightblue" points="1395.76,-304.18 1402.41,-312.43 1402.36,-301.83 1395.76,-304.18"/>
</g>
<!-- Node22 -->
<g id="node22" class="node">
<title>Node22</title>
<g id="a_node22"><a xlink:href="catch__assertionhandler_8cpp.html" target="_top" xlink:title=" ">
<polygon fill="white" stroke="black" points="937.86,-156.5 937.86,-197.5 1062.86,-197.5 1062.86,-156.5 937.86,-156.5"/>
<text text-anchor="start" x="945.86" y="-185.5" font-family="Helvetica,sans-Serif" font-size="10.00">language/lib/Catch2</text>
<text text-anchor="start" x="945.86" y="-174.5" font-family="Helvetica,sans-Serif" font-size="10.00">/include/internal/catch</text>
<text text-anchor="middle" x="1000.36" y="-163.5" font-family="Helvetica,sans-Serif" font-size="10.00">_assertionhandler.cpp</text>
</a>
</g>
</g>
<!-- Node21&#45;&gt;Node22 -->
<g id="edge32" class="edge">
<title>Node21&#45;&gt;Node22</title>
<path fill="none" stroke="midnightblue" d="M1469.82,-234.1C1293.4,-203.04 1243.3,-229.69 1071.36,-198 1068.59,-197.49 1065.77,-196.92 1062.93,-196.3"/>
<polygon fill="midnightblue" stroke="midnightblue" points="1469.23,-237.55 1479.69,-235.87 1470.46,-230.66 1469.23,-237.55"/>
</g>
<!-- Node23 -->
<g id="node23" class="node">
<title>Node23</title>
<g id="a_node23"><a xlink:href="catch__fatal__condition_8cpp.html" target="_top" xlink:title=" ">
<polygon fill="white" stroke="black" points="1080.86,-156.5 1080.86,-197.5 1205.86,-197.5 1205.86,-156.5 1080.86,-156.5"/>
<text text-anchor="start" x="1088.86" y="-185.5" font-family="Helvetica,sans-Serif" font-size="10.00">language/lib/Catch2</text>
<text text-anchor="start" x="1088.86" y="-174.5" font-family="Helvetica,sans-Serif" font-size="10.00">/include/internal/catch</text>
<text text-anchor="middle" x="1143.36" y="-163.5" font-family="Helvetica,sans-Serif" font-size="10.00">_fatal_condition.cpp</text>
</a>
</g>
</g>
<!-- Node21&#45;&gt;Node23 -->
<g id="edge34" class="edge">
<title>Node21&#45;&gt;Node23</title>
<path fill="none" stroke="midnightblue" d="M1469.56,-233.99C1356.5,-211.21 1324.23,-220.71 1215.36,-198 1212.31,-197.36 1209.2,-196.67 1206.07,-195.94"/>
<polygon fill="midnightblue" stroke="midnightblue" points="1469.15,-237.48 1479.65,-236.06 1470.56,-230.62 1469.15,-237.48"/>
</g>
<!-- Node24 -->
<g id="node24" class="node">
<title>Node24</title>
<g id="a_node24"><a xlink:href="catch__random__number__generator_8cpp.html" target="_top" xlink:title=" ">
<polygon fill="white" stroke="black" points="1224.36,-156.5 1224.36,-197.5 1398.36,-197.5 1398.36,-156.5 1224.36,-156.5"/>
<text text-anchor="start" x="1232.36" y="-185.5" font-family="Helvetica,sans-Serif" font-size="10.00">language/lib/Catch2</text>
<text text-anchor="start" x="1232.36" y="-174.5" font-family="Helvetica,sans-Serif" font-size="10.00">/include/internal/catch</text>
<text text-anchor="middle" x="1311.36" y="-163.5" font-family="Helvetica,sans-Serif" font-size="10.00">_random_number_generator.cpp</text>
</a>
</g>
</g>
<!-- Node21&#45;&gt;Node24 -->
<g id="edge36" class="edge">
<title>Node21&#45;&gt;Node24</title>
<path fill="none" stroke="midnightblue" d="M1472.96,-231.17C1440.35,-220.44 1401.87,-207.78 1370.65,-197.51"/>
<polygon fill="midnightblue" stroke="midnightblue" points="1472.28,-234.63 1482.87,-234.43 1474.47,-227.98 1472.28,-234.63"/>
</g>
<!-- Node25 -->
<g id="node25" class="node">
<title>Node25</title>
<g id="a_node25"><a xlink:href="catch__run__context_8cpp.html" target="_top" xlink:title=" ">
<polygon fill="white" stroke="black" points="1416.86,-156.5 1416.86,-197.5 1541.86,-197.5 1541.86,-156.5 1416.86,-156.5"/>
<text text-anchor="start" x="1424.86" y="-185.5" font-family="Helvetica,sans-Serif" font-size="10.00">language/lib/Catch2</text>
<text text-anchor="start" x="1424.86" y="-174.5" font-family="Helvetica,sans-Serif" font-size="10.00">/include/internal/catch</text>
<text text-anchor="middle" x="1479.36" y="-163.5" font-family="Helvetica,sans-Serif" font-size="10.00">_run_context.cpp</text>
</a>
</g>
</g>
<!-- Node21&#45;&gt;Node25 -->
<g id="edge38" class="edge">
<title>Node21&#45;&gt;Node25</title>
<path fill="none" stroke="midnightblue" d="M1519.67,-226.63C1511.68,-216.99 1502.87,-206.36 1495.53,-197.51"/>
<polygon fill="midnightblue" stroke="midnightblue" points="1517.06,-228.96 1526.14,-234.43 1522.45,-224.5 1517.06,-228.96"/>
</g>
<!-- Node21&#45;&gt;Node26 -->
<g id="edge40" class="edge">
<title>Node21&#45;&gt;Node26</title>
<path fill="none" stroke="midnightblue" d="M1614.97,-232.45C1652.97,-221.16 1699.04,-207.49 1735.5,-196.66"/>
<polygon fill="midnightblue" stroke="midnightblue" points="1613.58,-229.21 1604.99,-235.41 1615.57,-235.92 1613.58,-229.21"/>
</g>
<!-- Node27 -->
<g id="node27" class="node">
<title>Node27</title>
<g id="a_node27"><a xlink:href="catch__test__case__registry__impl_8cpp.html" target="_top" xlink:title=" ">
<polygon fill="white" stroke="black" points="1560.36,-156.5 1560.36,-197.5 1718.36,-197.5 1718.36,-156.5 1560.36,-156.5"/>
<text text-anchor="start" x="1568.36" y="-185.5" font-family="Helvetica,sans-Serif" font-size="10.00">language/lib/Catch2</text>
<text text-anchor="start" x="1568.36" y="-174.5" font-family="Helvetica,sans-Serif" font-size="10.00">/include/internal/catch</text>
<text text-anchor="middle" x="1639.36" y="-163.5" font-family="Helvetica,sans-Serif" font-size="10.00">_test_case_registry_impl.cpp</text>
</a>
</g>
</g>
<!-- Node21&#45;&gt;Node27 -->
<g id="edge42" class="edge">
<title>Node21&#45;&gt;Node27</title>
<path fill="none" stroke="midnightblue" d="M1575.46,-228.06C1588.24,-218.06 1602.6,-206.8 1614.47,-197.51"/>
<polygon fill="midnightblue" stroke="midnightblue" points="1573.05,-225.51 1567.34,-234.43 1577.37,-231.02 1573.05,-225.51"/>
</g>
<!-- Node22&#45;&gt;Node6 -->
<g id="edge33" class="edge">
<title>Node22&#45;&gt;Node6</title>
<path fill="none" stroke="midnightblue" d="M1072.77,-155.83C1198.59,-130.14 1335.77,-114.14 1414.58,-106.1"/>
<polygon fill="midnightblue" stroke="midnightblue" points="1072.05,-152.41 1062.97,-157.86 1073.47,-159.26 1072.05,-152.41"/>
</g>
<!-- Node23&#45;&gt;Node6 -->
<g id="edge35" class="edge">
<title>Node23&#45;&gt;Node6</title>
<path fill="none" stroke="midnightblue" d="M1216.05,-155.9C1289.73,-138.05 1363.52,-122.75 1414.82,-112.53"/>
<polygon fill="midnightblue" stroke="midnightblue" points="1215.02,-152.55 1206.13,-158.32 1216.67,-159.35 1215.02,-152.55"/>
</g>
<!-- Node24&#45;&gt;Node6 -->
<g id="edge37" class="edge">
<title>Node24&#45;&gt;Node6</title>
<path fill="none" stroke="midnightblue" d="M1364,-152.19C1387.24,-141.67 1414.22,-129.47 1436.24,-119.51"/>
<polygon fill="midnightblue" stroke="midnightblue" points="1362.29,-149.12 1354.63,-156.43 1365.18,-155.5 1362.29,-149.12"/>
</g>
<!-- Node25&#45;&gt;Node6 -->
<g id="edge39" class="edge">
<title>Node25&#45;&gt;Node6</title>
<path fill="none" stroke="midnightblue" d="M1479.36,-146.3C1479.36,-137.3 1479.36,-127.65 1479.36,-119.51"/>
<polygon fill="midnightblue" stroke="midnightblue" points="1475.86,-146.43 1479.36,-156.43 1482.86,-146.43 1475.86,-146.43"/>
</g>
<!-- Node26&#45;&gt;Node6 -->
<g id="edge41" class="edge">
<title>Node26&#45;&gt;Node6</title>
<path fill="none" stroke="midnightblue" d="M1725.81,-155.66C1658.8,-138.82 1591.89,-123.94 1544.07,-113.64"/>
<polygon fill="midnightblue" stroke="midnightblue" points="1725.14,-159.1 1735.69,-158.15 1726.85,-152.31 1725.14,-159.1"/>
</g>
<!-- Node27&#45;&gt;Node6 -->
<g id="edge43" class="edge">
<title>Node27&#45;&gt;Node6</title>
<path fill="none" stroke="midnightblue" d="M1588.94,-152.05C1566.87,-141.57 1541.31,-129.42 1520.43,-119.51"/>
<polygon fill="midnightblue" stroke="midnightblue" points="1587.62,-155.3 1598.16,-156.43 1590.63,-148.98 1587.62,-155.3"/>
</g>
<!-- Node28&#45;&gt;Node6 -->
<g id="edge45" class="edge">
<title>Node28&#45;&gt;Node6</title>
<path fill="none" stroke="midnightblue" d="M1874.47,-302.66C1888.21,-264.09 1904.48,-196.52 1869.36,-156 1828.03,-108.31 1643.71,-100.28 1543.96,-99.51"/>
<polygon fill="midnightblue" stroke="midnightblue" points="1871.1,-301.67 1870.88,-312.26 1877.66,-304.11 1871.1,-301.67"/>
</g>
<!-- Node29&#45;&gt;Node6 -->
<g id="edge47" class="edge">
<title>Node29&#45;&gt;Node6</title>
<path fill="none" stroke="midnightblue" d="M1907.23,-156.75C1905.93,-156.49 1904.64,-156.24 1903.36,-156 1776.96,-132.12 1627.45,-114.92 1544,-106.29"/>
<polygon fill="midnightblue" stroke="midnightblue" points="1906.8,-160.23 1917.3,-158.84 1908.22,-153.38 1906.8,-160.23"/>
</g>
<!-- Node30&#45;&gt;Node26 -->
<g id="edge50" class="edge">
<title>Node30&#45;&gt;Node26</title>
<path fill="none" stroke="midnightblue" d="M1973.34,-231.41C1937.57,-220.49 1895.11,-207.53 1860.98,-197.11"/>
<polygon fill="midnightblue" stroke="midnightblue" points="1972.65,-234.86 1983.24,-234.43 1974.69,-228.16 1972.65,-234.86"/>
</g>
<!-- Node30&#45;&gt;Node29 -->
<g id="edge49" class="edge">
<title>Node30&#45;&gt;Node29</title>
<path fill="none" stroke="midnightblue" d="M2024.67,-226.63C2016.68,-216.99 2007.87,-206.36 2000.53,-197.51"/>
<polygon fill="midnightblue" stroke="midnightblue" points="2022.06,-228.96 2031.14,-234.43 2027.45,-224.5 2022.06,-228.96"/>
</g>
<!-- Node31 -->
<g id="node31" class="node">
<title>Node31</title>
<g id="a_node31"><a xlink:href="catch__reporter__listening_8cpp.html" target="_top" xlink:title=" ">
<polygon fill="white" stroke="black" points="2069.86,-156.5 2069.86,-197.5 2200.86,-197.5 2200.86,-156.5 2069.86,-156.5"/>
<text text-anchor="start" x="2077.86" y="-185.5" font-family="Helvetica,sans-Serif" font-size="10.00">language/lib/Catch2</text>
<text text-anchor="start" x="2077.86" y="-174.5" font-family="Helvetica,sans-Serif" font-size="10.00">/include/reporters/catch</text>
<text text-anchor="middle" x="2135.36" y="-163.5" font-family="Helvetica,sans-Serif" font-size="10.00">_reporter_listening.cpp</text>
</a>
</g>
</g>
<!-- Node30&#45;&gt;Node31 -->
<g id="edge51" class="edge">
<title>Node30&#45;&gt;Node31</title>
<path fill="none" stroke="midnightblue" d="M2077.72,-227.78C2089.23,-217.84 2102.11,-206.72 2112.78,-197.51"/>
<polygon fill="midnightblue" stroke="midnightblue" points="2075.3,-225.24 2070.02,-234.43 2079.88,-230.54 2075.3,-225.24"/>
</g>
<!-- Node31&#45;&gt;Node6 -->
<g id="edge52" class="edge">
<title>Node31&#45;&gt;Node6</title>
<path fill="none" stroke="midnightblue" d="M2059.63,-156.03C1867.03,-122.03 1649.77,-108.02 1543.88,-102.75"/>
<polygon fill="midnightblue" stroke="midnightblue" points="2059.19,-159.51 2069.65,-157.82 2060.42,-152.62 2059.19,-159.51"/>
</g>
<!-- Node32&#45;&gt;Node6 -->
<g id="edge54" class="edge">
<title>Node32&#45;&gt;Node6</title>
<path fill="none" stroke="midnightblue" d="M2123.16,-306.7C2175.66,-271.14 2254.96,-205.23 2209.36,-156 2164.64,-107.71 1714.42,-100.9 1544.14,-100.06"/>
<polygon fill="midnightblue" stroke="midnightblue" points="2121.06,-303.89 2114.67,-312.34 2124.94,-309.72 2121.06,-303.89"/>
</g>
<!-- Node34 -->
<g id="node34" class="node">
<title>Node34</title>
<g id="a_node34"><a xlink:href="catch__registry__hub_8cpp.html" target="_top" xlink:title=" ">
<polygon fill="white" stroke="black" points="2257.86,-156.5 2257.86,-197.5 2382.86,-197.5 2382.86,-156.5 2257.86,-156.5"/>
<text text-anchor="start" x="2265.86" y="-185.5" font-family="Helvetica,sans-Serif" font-size="10.00">language/lib/Catch2</text>
<text text-anchor="start" x="2265.86" y="-174.5" font-family="Helvetica,sans-Serif" font-size="10.00">/include/internal/catch</text>
<text text-anchor="middle" x="2320.36" y="-163.5" font-family="Helvetica,sans-Serif" font-size="10.00">_registry_hub.cpp</text>
</a>
</g>
</g>
<!-- Node33&#45;&gt;Node34 -->
<g id="edge56" class="edge">
<title>Node33&#45;&gt;Node34</title>
<path fill="none" stroke="midnightblue" d="M2320.36,-224.3C2320.36,-215.3 2320.36,-205.65 2320.36,-197.51"/>
<polygon fill="midnightblue" stroke="midnightblue" points="2316.86,-224.43 2320.36,-234.43 2323.86,-224.43 2316.86,-224.43"/>
</g>
<!-- Node35 -->
<g id="node35" class="node">
<title>Node35</title>
<g id="a_node35"><a xlink:href="catch__reporter__registry_8cpp.html" target="_top" xlink:title=" ">
<polygon fill="white" stroke="black" points="2400.86,-156.5 2400.86,-197.5 2525.86,-197.5 2525.86,-156.5 2400.86,-156.5"/>
<text text-anchor="start" x="2408.86" y="-185.5" font-family="Helvetica,sans-Serif" font-size="10.00">language/lib/Catch2</text>
<text text-anchor="start" x="2408.86" y="-174.5" font-family="Helvetica,sans-Serif" font-size="10.00">/include/internal/catch</text>
<text text-anchor="middle" x="2463.36" y="-163.5" font-family="Helvetica,sans-Serif" font-size="10.00">_reporter_registry.cpp</text>
</a>
</g>
</g>
<!-- Node33&#45;&gt;Node35 -->
<g id="edge58" class="edge">
<title>Node33&#45;&gt;Node35</title>
<path fill="none" stroke="midnightblue" d="M2366.22,-229.63C2385.76,-219.24 2408.25,-207.29 2426.66,-197.51"/>
<polygon fill="midnightblue" stroke="midnightblue" points="2364.37,-226.64 2357.19,-234.43 2367.66,-232.83 2364.37,-226.64"/>
</g>
<!-- Node34&#45;&gt;Node6 -->
<g id="edge57" class="edge">
<title>Node34&#45;&gt;Node6</title>
<path fill="none" stroke="midnightblue" d="M2247.3,-156.68C2245.98,-156.44 2244.66,-156.22 2243.36,-156 1986.67,-113.61 1676.15,-103.31 1543.97,-100.8"/>
<polygon fill="midnightblue" stroke="midnightblue" points="2247.04,-160.2 2257.53,-158.69 2248.39,-153.33 2247.04,-160.2"/>
</g>
<!-- Node35&#45;&gt;Node6 -->
<g id="edge59" class="edge">
<title>Node35&#45;&gt;Node6</title>
<path fill="none" stroke="midnightblue" d="M2390.73,-156.1C2069.07,-103.18 1692.48,-98.83 1544.02,-99.34"/>
<polygon fill="midnightblue" stroke="midnightblue" points="2390.27,-159.57 2400.71,-157.76 2391.42,-152.67 2390.27,-159.57"/>
</g>
<!-- Node37&#45;&gt;Node6 -->
<g id="edge64" class="edge">
<title>Node37&#45;&gt;Node6</title>
<path fill="none" stroke="midnightblue" d="M2345.46,-386.13C2438.73,-341.16 2614.77,-240.79 2534.36,-156 2500.19,-119.96 1768.43,-104.82 1544.13,-101.01"/>
<polygon fill="midnightblue" stroke="midnightblue" points="2343.96,-382.97 2336.44,-390.43 2346.97,-389.29 2343.96,-382.97"/>
</g>
</g>
</svg>
