<?xml version="1.0" encoding="UTF-8" standalone="no"?>
<!DOCTYPE svg PUBLIC "-//W3C//DTD SVG 1.1//EN"
 "http://www.w3.org/Graphics/SVG/1.1/DTD/svg11.dtd">
<!-- Generated by graphviz version 2.43.0 (0)
 -->
<!-- Title: language/lib/Catch2/include/internal/catch_interfaces_capture.h Pages: 1 -->
<svg width="349pt" height="162pt"
 viewBox="0.00 0.00 349.00 162.00" xmlns="http://www.w3.org/2000/svg" xmlns:xlink="http://www.w3.org/1999/xlink">
<g id="graph0" class="graph" transform="scale(1 1) rotate(0) translate(4 158)">
<title>language/lib/Catch2/include/internal/catch_interfaces_capture.h</title>
<polygon fill="white" stroke="transparent" points="-4,4 -4,-158 345,-158 345,4 -4,4"/>
<!-- Node1 -->
<g id="node1" class="node">
<title>Node1</title>
<g id="a_node1"><a xlink:title=" ">
<polygon fill="#bfbfbf" stroke="black" points="53.5,-112.5 53.5,-153.5 178.5,-153.5 178.5,-112.5 53.5,-112.5"/>
<text text-anchor="start" x="61.5" y="-141.5" font-family="Helvetica,sans-Serif" font-size="10.00">language/lib/Catch2</text>
<text text-anchor="start" x="61.5" y="-130.5" font-family="Helvetica,sans-Serif" font-size="10.00">/include/internal/catch</text>
<text text-anchor="middle" x="116" y="-119.5" font-family="Helvetica,sans-Serif" font-size="10.00">_interfaces_capture.h</text>
</a>
</g>
</g>
<!-- Node2 -->
<g id="node2" class="node">
<title>Node2</title>
<g id="a_node2"><a xlink:title=" ">
<polygon fill="white" stroke="#bfbfbf" points="0,-0.5 0,-19.5 44,-19.5 44,-0.5 0,-0.5"/>
<text text-anchor="middle" x="22" y="-7.5" font-family="Helvetica,sans-Serif" font-size="10.00">string</text>
</a>
</g>
</g>
<!-- Node1&#45;&gt;Node2 -->
<g id="edge1" class="edge">
<title>Node1&#45;&gt;Node2</title>
<path fill="none" stroke="midnightblue" d="M76.03,-112.27C61.36,-103.15 45.94,-90.97 36,-76 26.92,-62.33 23.61,-43.79 22.46,-30.01"/>
<polygon fill="midnightblue" stroke="midnightblue" points="25.94,-29.57 21.92,-19.77 18.95,-29.94 25.94,-29.57"/>
</g>
<!-- Node3 -->
<g id="node3" class="node">
<title>Node3</title>
<g id="a_node3"><a xlink:title=" ">
<polygon fill="white" stroke="#bfbfbf" points="45,-56.5 45,-75.5 95,-75.5 95,-56.5 45,-56.5"/>
<text text-anchor="middle" x="70" y="-63.5" font-family="Helvetica,sans-Serif" font-size="10.00">chrono</text>
</a>
</g>
</g>
<!-- Node1&#45;&gt;Node3 -->
<g id="edge2" class="edge">
<title>Node1&#45;&gt;Node3</title>
<path fill="none" stroke="midnightblue" d="M102.2,-112.5C95.76,-103.39 88.16,-92.66 81.97,-83.91"/>
<polygon fill="midnightblue" stroke="midnightblue" points="84.76,-81.79 76.12,-75.65 79.04,-85.84 84.76,-81.79"/>
</g>
<!-- Node4 -->
<g id="node4" class="node">
<title>Node4</title>
<g id="a_node4"><a xlink:href="catch__stringref_8h.html" target="_top" xlink:title=" ">
<polygon fill="white" stroke="black" points="113,-56.5 113,-75.5 211,-75.5 211,-56.5 113,-56.5"/>
<text text-anchor="middle" x="162" y="-63.5" font-family="Helvetica,sans-Serif" font-size="10.00">catch_stringref.h</text>
</a>
</g>
</g>
<!-- Node1&#45;&gt;Node4 -->
<g id="edge3" class="edge">
<title>Node1&#45;&gt;Node4</title>
<path fill="none" stroke="midnightblue" d="M129.8,-112.5C136.24,-103.39 143.84,-92.66 150.03,-83.91"/>
<polygon fill="midnightblue" stroke="midnightblue" points="152.96,-85.84 155.88,-75.65 147.24,-81.79 152.96,-85.84"/>
</g>
<!-- Node8 -->
<g id="node8" class="node">
<title>Node8</title>
<g id="a_node8"><a xlink:href="catch__result__type_8h.html" target="_top" xlink:title=" ">
<polygon fill="white" stroke="black" points="229,-56.5 229,-75.5 341,-75.5 341,-56.5 229,-56.5"/>
<text text-anchor="middle" x="285" y="-63.5" font-family="Helvetica,sans-Serif" font-size="10.00">catch_result_type.h</text>
</a>
</g>
</g>
<!-- Node1&#45;&gt;Node8 -->
<g id="edge8" class="edge">
<title>Node1&#45;&gt;Node8</title>
<path fill="none" stroke="midnightblue" d="M166.71,-112.5C194.73,-101.72 228.7,-88.65 253.04,-79.29"/>
<polygon fill="midnightblue" stroke="midnightblue" points="254.43,-82.51 262.5,-75.65 251.91,-75.98 254.43,-82.51"/>
</g>
<!-- Node4&#45;&gt;Node2 -->
<g id="edge5" class="edge">
<title>Node4&#45;&gt;Node2</title>
<path fill="none" stroke="midnightblue" d="M139.82,-56.44C116.57,-47.48 79.85,-33.31 53.58,-23.18"/>
<polygon fill="midnightblue" stroke="midnightblue" points="54.67,-19.85 44.08,-19.52 52.15,-26.38 54.67,-19.85"/>
</g>
<!-- Node5 -->
<g id="node5" class="node">
<title>Node5</title>
<g id="a_node5"><a xlink:title=" ">
<polygon fill="white" stroke="#bfbfbf" points="66.5,-0.5 66.5,-19.5 119.5,-19.5 119.5,-0.5 66.5,-0.5"/>
<text text-anchor="middle" x="93" y="-7.5" font-family="Helvetica,sans-Serif" font-size="10.00">cstddef</text>
</a>
</g>
</g>
<!-- Node4&#45;&gt;Node5 -->
<g id="edge4" class="edge">
<title>Node4&#45;&gt;Node5</title>
<path fill="none" stroke="midnightblue" d="M150.91,-56.32C140.51,-48.18 124.74,-35.84 112.28,-26.09"/>
<polygon fill="midnightblue" stroke="midnightblue" points="114.32,-23.24 104.29,-19.83 110.01,-28.75 114.32,-23.24"/>
</g>
<!-- Node6 -->
<g id="node6" class="node">
<title>Node6</title>
<g id="a_node6"><a xlink:title=" ">
<polygon fill="white" stroke="#bfbfbf" points="138,-0.5 138,-19.5 186,-19.5 186,-0.5 138,-0.5"/>
<text text-anchor="middle" x="162" y="-7.5" font-family="Helvetica,sans-Serif" font-size="10.00">iosfwd</text>
</a>
</g>
</g>
<!-- Node4&#45;&gt;Node6 -->
<g id="edge6" class="edge">
<title>Node4&#45;&gt;Node6</title>
<path fill="none" stroke="midnightblue" d="M162,-56.08C162,-49.01 162,-38.86 162,-29.99"/>
<polygon fill="midnightblue" stroke="midnightblue" points="165.5,-29.75 162,-19.75 158.5,-29.75 165.5,-29.75"/>
</g>
<!-- Node7 -->
<g id="node7" class="node">
<title>Node7</title>
<g id="a_node7"><a xlink:title=" ">
<polygon fill="white" stroke="#bfbfbf" points="204,-0.5 204,-19.5 256,-19.5 256,-0.5 204,-0.5"/>
<text text-anchor="middle" x="230" y="-7.5" font-family="Helvetica,sans-Serif" font-size="10.00">cassert</text>
</a>
</g>
</g>
<!-- Node4&#45;&gt;Node7 -->
<g id="edge7" class="edge">
<title>Node4&#45;&gt;Node7</title>
<path fill="none" stroke="midnightblue" d="M172.93,-56.32C183.17,-48.18 198.72,-35.84 211,-26.09"/>
<polygon fill="midnightblue" stroke="midnightblue" points="213.22,-28.79 218.88,-19.83 208.87,-23.31 213.22,-28.79"/>
</g>
</g>
</svg>
