<?xml version="1.0" encoding="UTF-8" standalone="no"?>
<!DOCTYPE svg PUBLIC "-//W3C//DTD SVG 1.1//EN"
 "http://www.w3.org/Graphics/SVG/1.1/DTD/svg11.dtd">
<!-- Generated by graphviz version 2.43.0 (0)
 -->
<!-- Title: clara::detail::Opt::parse Pages: 1 -->
<svg width="613pt" height="134pt"
 viewBox="0.00 0.00 613.00 134.00" xmlns="http://www.w3.org/2000/svg" xmlns:xlink="http://www.w3.org/1999/xlink">
<g id="graph0" class="graph" transform="scale(1 1) rotate(0) translate(4 130)">
<title>clara::detail::Opt::parse</title>
<polygon fill="white" stroke="transparent" points="-4,4 -4,-130 609,-130 609,4 -4,4"/>
<!-- Node1 -->
<g id="node1" class="node">
<title>Node1</title>
<g id="a_node1"><a xlink:title=" ">
<polygon fill="#bfbfbf" stroke="black" points="0,-70.5 0,-100.5 98,-100.5 98,-70.5 0,-70.5"/>
<text text-anchor="start" x="8" y="-88.5" font-family="Helvetica,sans-Serif" font-size="10.00">clara::detail::Opt</text>
<text text-anchor="middle" x="49" y="-77.5" font-family="Helvetica,sans-Serif" font-size="10.00">::parse</text>
</a>
</g>
</g>
<!-- Node2 -->
<g id="node2" class="node">
<title>Node2</title>
<g id="a_node2"><a xlink:href="classclara_1_1detail_1_1_opt.html#ae90ef5667c4d14bb6d2aa12c0ca3ada1" target="_top" xlink:title=" ">
<polygon fill="white" stroke="black" points="134,-95.5 134,-125.5 232,-125.5 232,-95.5 134,-95.5"/>
<text text-anchor="start" x="142" y="-113.5" font-family="Helvetica,sans-Serif" font-size="10.00">clara::detail::Opt</text>
<text text-anchor="middle" x="183" y="-102.5" font-family="Helvetica,sans-Serif" font-size="10.00">::isMatch</text>
</a>
</g>
</g>
<!-- Node1&#45;&gt;Node2 -->
<g id="edge1" class="edge">
<title>Node1&#45;&gt;Node2</title>
<path fill="none" stroke="midnightblue" d="M98.03,-94.6C106.4,-96.18 115.19,-97.85 123.8,-99.48"/>
<polygon fill="midnightblue" stroke="midnightblue" points="123.31,-102.95 133.79,-101.37 124.61,-96.07 123.31,-102.95"/>
</g>
<!-- Node4 -->
<g id="node4" class="node">
<title>Node4</title>
<g id="a_node4"><a xlink:href="classclara_1_1detail_1_1_opt.html#a5b9ff60d5b491673c74721f3409c867d" target="_top" xlink:title=" ">
<polygon fill="white" stroke="black" points="134,-46.5 134,-76.5 232,-76.5 232,-46.5 134,-46.5"/>
<text text-anchor="start" x="142" y="-64.5" font-family="Helvetica,sans-Serif" font-size="10.00">clara::detail::Opt</text>
<text text-anchor="middle" x="183" y="-53.5" font-family="Helvetica,sans-Serif" font-size="10.00">::validate</text>
</a>
</g>
</g>
<!-- Node1&#45;&gt;Node4 -->
<g id="edge3" class="edge">
<title>Node1&#45;&gt;Node4</title>
<path fill="none" stroke="midnightblue" d="M98.03,-76.77C106.4,-75.25 115.19,-73.65 123.8,-72.08"/>
<polygon fill="midnightblue" stroke="midnightblue" points="124.57,-75.5 133.79,-70.27 123.32,-68.61 124.57,-75.5"/>
</g>
<!-- Node3 -->
<g id="node3" class="node">
<title>Node3</title>
<g id="a_node3"><a xlink:href="namespaceclara_1_1detail.html#a0b9885a3081b3126868413951a8bad6d" target="_top" xlink:title=" ">
<polygon fill="white" stroke="black" points="268,-101 268,-120 414,-120 414,-101 268,-101"/>
<text text-anchor="middle" x="341" y="-108" font-family="Helvetica,sans-Serif" font-size="10.00">clara::detail::normaliseOpt</text>
</a>
</g>
</g>
<!-- Node2&#45;&gt;Node3 -->
<g id="edge2" class="edge">
<title>Node2&#45;&gt;Node3</title>
<path fill="none" stroke="midnightblue" d="M232.08,-110.5C240.34,-110.5 249.13,-110.5 257.98,-110.5"/>
<polygon fill="midnightblue" stroke="midnightblue" points="257.99,-114 267.99,-110.5 257.99,-107 257.99,-114"/>
</g>
<!-- Node5 -->
<g id="node5" class="node">
<title>Node5</title>
<g id="a_node5"><a xlink:href="classclara_1_1detail_1_1_basic_result.html#adfdc1e9a0b5778edf69f6bbe9df3a65e" target="_top" xlink:title=" ">
<polygon fill="white" stroke="black" points="272.5,-49.5 272.5,-79.5 409.5,-79.5 409.5,-49.5 272.5,-49.5"/>
<text text-anchor="start" x="280.5" y="-67.5" font-family="Helvetica,sans-Serif" font-size="10.00">clara::detail::BasicResult</text>
<text text-anchor="middle" x="341" y="-56.5" font-family="Helvetica,sans-Serif" font-size="10.00">::logicError</text>
</a>
</g>
</g>
<!-- Node4&#45;&gt;Node5 -->
<g id="edge4" class="edge">
<title>Node4&#45;&gt;Node5</title>
<path fill="none" stroke="midnightblue" d="M232.08,-62.42C241.61,-62.61 251.85,-62.8 262.09,-63"/>
<polygon fill="midnightblue" stroke="midnightblue" points="262.23,-66.5 272.29,-63.2 262.36,-59.51 262.23,-66.5"/>
</g>
<!-- Node6 -->
<g id="node6" class="node">
<title>Node6</title>
<g id="a_node6"><a xlink:href="classclara_1_1detail_1_1_parser_base.html#a7bc9d13683524141f7fab43318a448f4" target="_top" xlink:title=" ">
<polygon fill="white" stroke="black" points="274,-0.5 274,-30.5 408,-30.5 408,-0.5 274,-0.5"/>
<text text-anchor="start" x="282" y="-18.5" font-family="Helvetica,sans-Serif" font-size="10.00">clara::detail::ParserBase</text>
<text text-anchor="middle" x="341" y="-7.5" font-family="Helvetica,sans-Serif" font-size="10.00">::validate</text>
</a>
</g>
</g>
<!-- Node4&#45;&gt;Node6 -->
<g id="edge5" class="edge">
<title>Node4&#45;&gt;Node6</title>
<path fill="none" stroke="midnightblue" d="M232.08,-47.32C247.05,-42.91 263.76,-37.98 279.48,-33.35"/>
<polygon fill="midnightblue" stroke="midnightblue" points="280.51,-36.69 289.11,-30.51 278.53,-29.98 280.51,-36.69"/>
</g>
<!-- Node7 -->
<g id="node7" class="node">
<title>Node7</title>
<g id="a_node7"><a xlink:href="classclara_1_1detail_1_1_basic_result.html#acf718bf211bc86e2dcd27f247fce960e" target="_top" xlink:title=" ">
<polygon fill="white" stroke="black" points="450,-6 450,-25 605,-25 605,-6 450,-6"/>
<text text-anchor="middle" x="527.5" y="-13" font-family="Helvetica,sans-Serif" font-size="10.00">clara::detail::BasicResult::ok</text>
</a>
</g>
</g>
<!-- Node6&#45;&gt;Node7 -->
<g id="edge6" class="edge">
<title>Node6&#45;&gt;Node7</title>
<path fill="none" stroke="midnightblue" d="M408.09,-15.5C418.35,-15.5 429.09,-15.5 439.73,-15.5"/>
<polygon fill="midnightblue" stroke="midnightblue" points="439.88,-19 449.88,-15.5 439.88,-12 439.88,-19"/>
</g>
</g>
</svg>
