<?xml version="1.0" encoding="UTF-8" standalone="no"?>
<!DOCTYPE svg PUBLIC "-//W3C//DTD SVG 1.1//EN"
 "http://www.w3.org/Graphics/SVG/1.1/DTD/svg11.dtd">
<!-- Generated by graphviz version 2.43.0 (0)
 -->
<!-- Title: Catch::Generators::FilterGenerator::FilterGenerator Pages: 1 -->
<svg width="557pt" height="39pt"
 viewBox="0.00 0.00 557.00 39.00" xmlns="http://www.w3.org/2000/svg" xmlns:xlink="http://www.w3.org/1999/xlink">
<g id="graph0" class="graph" transform="scale(1 1) rotate(0) translate(4 35)">
<title>Catch::Generators::FilterGenerator::FilterGenerator</title>
<polygon fill="white" stroke="transparent" points="-4,4 -4,-35 553,-35 553,4 -4,4"/>
<!-- Node1 -->
<g id="node1" class="node">
<title>Node1</title>
<g id="a_node1"><a xlink:title=" ">
<polygon fill="#bfbfbf" stroke="black" points="0,-0.5 0,-30.5 170,-30.5 170,-0.5 0,-0.5"/>
<text text-anchor="start" x="8" y="-18.5" font-family="Helvetica,sans-Serif" font-size="10.00">Catch::Generators::</text>
<text text-anchor="middle" x="85" y="-7.5" font-family="Helvetica,sans-Serif" font-size="10.00">FilterGenerator::FilterGenerator</text>
</a>
</g>
</g>
<!-- Node2 -->
<g id="node2" class="node">
<title>Node2</title>
<g id="a_node2"><a xlink:href="namespace_catch.html#a3cbceeab9252d1b752f66a2826e92548" target="_top" xlink:title=" ">
<polygon fill="white" stroke="black" points="206,-6 206,-25 337,-25 337,-6 206,-6"/>
<text text-anchor="middle" x="271.5" y="-13" font-family="Helvetica,sans-Serif" font-size="10.00">Catch::throw_exception</text>
</a>
</g>
</g>
<!-- Node1&#45;&gt;Node2 -->
<g id="edge1" class="edge">
<title>Node1&#45;&gt;Node2</title>
<path fill="none" stroke="midnightblue" d="M170.15,-15.5C178.66,-15.5 187.27,-15.5 195.68,-15.5"/>
<polygon fill="midnightblue" stroke="midnightblue" points="195.81,-19 205.81,-15.5 195.81,-12 195.81,-19"/>
</g>
<!-- Node3 -->
<g id="node3" class="node">
<title>Node3</title>
<g id="a_node3"><a xlink:href="namespace_catch.html#a54c1ce08041448d684ae8edc14162cd2" target="_top" xlink:title=" ">
<polygon fill="white" stroke="black" points="373,-6 373,-25 442,-25 442,-6 373,-6"/>
<text text-anchor="middle" x="407.5" y="-13" font-family="Helvetica,sans-Serif" font-size="10.00">Catch::cerr</text>
</a>
</g>
</g>
<!-- Node2&#45;&gt;Node3 -->
<g id="edge2" class="edge">
<title>Node2&#45;&gt;Node3</title>
<path fill="none" stroke="midnightblue" d="M337.14,-15.5C345.8,-15.5 354.51,-15.5 362.7,-15.5"/>
<polygon fill="midnightblue" stroke="midnightblue" points="362.74,-19 372.74,-15.5 362.74,-12 362.74,-19"/>
</g>
<!-- Node4 -->
<g id="node4" class="node">
<title>Node4</title>
<g id="a_node4"><a xlink:href="namespace_catch.html#a1b2213f54e4d31a659db49827e81856b" target="_top" xlink:title=" ">
<polygon fill="white" stroke="black" points="478,-6 478,-25 549,-25 549,-6 478,-6"/>
<text text-anchor="middle" x="513.5" y="-13" font-family="Helvetica,sans-Serif" font-size="10.00">Catch::clog</text>
</a>
</g>
</g>
<!-- Node3&#45;&gt;Node4 -->
<g id="edge3" class="edge">
<title>Node3&#45;&gt;Node4</title>
<path fill="none" stroke="midnightblue" d="M442.27,-15.5C450.36,-15.5 459.13,-15.5 467.64,-15.5"/>
<polygon fill="midnightblue" stroke="midnightblue" points="467.83,-19 477.83,-15.5 467.83,-12 467.83,-19"/>
</g>
</g>
</svg>
