<?xml version="1.0" encoding="UTF-8" standalone="no"?>
<!DOCTYPE svg PUBLIC "-//W3C//DTD SVG 1.1//EN"
 "http://www.w3.org/Graphics/SVG/1.1/DTD/svg11.dtd">
<!-- Generated by graphviz version 2.43.0 (0)
 -->
<!-- Title: Catch::Detail::IsStreamInsertable&lt; T &gt; Pages: 1 -->
<svg width="214pt" height="171pt"
 viewBox="0.00 0.00 214.00 171.00" xmlns="http://www.w3.org/2000/svg" xmlns:xlink="http://www.w3.org/1999/xlink">
<g id="graph0" class="graph" transform="scale(1 1) rotate(0) translate(4 167)">
<title>Catch::Detail::IsStreamInsertable&lt; T &gt;</title>
<polygon fill="white" stroke="transparent" points="-4,4 -4,-167 210,-167 210,4 -4,4"/>
<!-- Node1 -->
<g id="node1" class="node">
<title>Node1</title>
<g id="a_node1"><a xlink:title=" ">
<polygon fill="#bfbfbf" stroke="black" points="0,-0.5 0,-57.5 206,-57.5 206,-0.5 0,-0.5"/>
<text text-anchor="middle" x="103" y="-45.5" font-family="Helvetica,sans-Serif" font-size="10.00">Catch::Detail::IsStreamInsertable&lt; T &gt;</text>
<polyline fill="none" stroke="black" points="0,-38.5 206,-38.5 "/>
<text text-anchor="middle" x="103" y="-26.5" font-family="Helvetica,sans-Serif" font-size="10.00"> </text>
<polyline fill="none" stroke="black" points="0,-19.5 206,-19.5 "/>
<text text-anchor="middle" x="103" y="-7.5" font-family="Helvetica,sans-Serif" font-size="10.00"> </text>
</a>
</g>
</g>
<!-- Node2 -->
<g id="node2" class="node">
<title>Node2</title>
<g id="a_node2"><a xlink:href="classbool.html" target="_top" xlink:title=" ">
<polygon fill="white" stroke="black" points="84,-105.5 84,-162.5 122,-162.5 122,-105.5 84,-105.5"/>
<text text-anchor="middle" x="103" y="-150.5" font-family="Helvetica,sans-Serif" font-size="10.00">bool</text>
<polyline fill="none" stroke="black" points="84,-143.5 122,-143.5 "/>
<text text-anchor="middle" x="103" y="-131.5" font-family="Helvetica,sans-Serif" font-size="10.00"> </text>
<polyline fill="none" stroke="black" points="84,-124.5 122,-124.5 "/>
<text text-anchor="middle" x="103" y="-112.5" font-family="Helvetica,sans-Serif" font-size="10.00"> </text>
</a>
</g>
</g>
<!-- Node2&#45;&gt;Node1 -->
<g id="edge1" class="edge">
<title>Node2&#45;&gt;Node1</title>
<path fill="none" stroke="#404040" d="M103,-105.4C103,-94.55 103,-81.87 103,-70.05"/>
<polygon fill="none" stroke="#404040" points="103,-69.68 99,-63.68 103,-57.68 107,-63.68 103,-69.68"/>
<text text-anchor="middle" x="122.5" y="-79" font-family="Helvetica,sans-Serif" font-size="10.00"> +value</text>
</g>
</g>
</svg>
