<?xml version="1.0" encoding="UTF-8" standalone="no"?>
<!DOCTYPE svg PUBLIC "-//W3C//DTD SVG 1.1//EN"
 "http://www.w3.org/Graphics/SVG/1.1/DTD/svg11.dtd">
<!-- Generated by graphviz version 2.43.0 (0)
 -->
<!-- Title: clara::detail::BasicResult&lt; T &gt; Pages: 1 -->
<svg width="270pt" height="503pt"
 viewBox="0.00 0.00 270.00 503.00" xmlns="http://www.w3.org/2000/svg" xmlns:xlink="http://www.w3.org/1999/xlink">
<g id="graph0" class="graph" transform="scale(1 1) rotate(0) translate(4 499)">
<title>clara::detail::BasicResult&lt; T &gt;</title>
<polygon fill="white" stroke="transparent" points="-4,4 -4,-499 266,-499 266,4 -4,4"/>
<!-- Node1 -->
<g id="node1" class="node">
<title>Node1</title>
<g id="a_node1"><a xlink:title=" ">
<polygon fill="#bfbfbf" stroke="black" points="67,-0.5 67,-156.5 233,-156.5 233,-0.5 67,-0.5"/>
<text text-anchor="middle" x="150" y="-144.5" font-family="Helvetica,sans-Serif" font-size="10.00">clara::detail::BasicResult&lt; T &gt;</text>
<polyline fill="none" stroke="black" points="67,-137.5 233,-137.5 "/>
<text text-anchor="start" x="75" y="-125.5" font-family="Helvetica,sans-Serif" font-size="10.00"># m_type</text>
<polyline fill="none" stroke="black" points="67,-118.5 233,-118.5 "/>
<text text-anchor="start" x="75" y="-106.5" font-family="Helvetica,sans-Serif" font-size="10.00">+ BasicResult()</text>
<text text-anchor="start" x="75" y="-95.5" font-family="Helvetica,sans-Serif" font-size="10.00">+ operator bool()</text>
<text text-anchor="start" x="75" y="-84.5" font-family="Helvetica,sans-Serif" font-size="10.00">+ type()</text>
<text text-anchor="start" x="75" y="-73.5" font-family="Helvetica,sans-Serif" font-size="10.00">+ errorMessage()</text>
<text text-anchor="start" x="75" y="-62.5" font-family="Helvetica,sans-Serif" font-size="10.00">+ ok()</text>
<text text-anchor="start" x="75" y="-51.5" font-family="Helvetica,sans-Serif" font-size="10.00">+ ok()</text>
<text text-anchor="start" x="75" y="-40.5" font-family="Helvetica,sans-Serif" font-size="10.00">+ logicError()</text>
<text text-anchor="start" x="75" y="-29.5" font-family="Helvetica,sans-Serif" font-size="10.00">+ runtimeError()</text>
<text text-anchor="start" x="75" y="-18.5" font-family="Helvetica,sans-Serif" font-size="10.00"># enforceOk()</text>
<text text-anchor="start" x="75" y="-7.5" font-family="Helvetica,sans-Serif" font-size="10.00"># BasicResult()</text>
</a>
</g>
</g>
<!-- Node2 -->
<g id="node2" class="node">
<title>Node2</title>
<g id="a_node2"><a xlink:href="classclara_1_1detail_1_1_result_value_base_3_01void_01_4.html" target="_top" xlink:title=" ">
<polygon fill="white" stroke="black" points="0,-204.5 0,-272.5 138,-272.5 138,-204.5 0,-204.5"/>
<text text-anchor="start" x="8" y="-260.5" font-family="Helvetica,sans-Serif" font-size="10.00">clara::detail::ResultValue</text>
<text text-anchor="middle" x="69" y="-249.5" font-family="Helvetica,sans-Serif" font-size="10.00">Base&lt; void &gt;</text>
<polyline fill="none" stroke="black" points="0,-242.5 138,-242.5 "/>
<text text-anchor="middle" x="69" y="-230.5" font-family="Helvetica,sans-Serif" font-size="10.00"> </text>
<polyline fill="none" stroke="black" points="0,-223.5 138,-223.5 "/>
<text text-anchor="start" x="8" y="-211.5" font-family="Helvetica,sans-Serif" font-size="10.00"># ResultBase()</text>
</a>
</g>
</g>
<!-- Node2&#45;&gt;Node1 -->
<g id="edge1" class="edge">
<title>Node2&#45;&gt;Node1</title>
<path fill="none" stroke="midnightblue" d="M90.72,-195.14C96.84,-183.19 103.7,-169.82 110.52,-156.52"/>
<polygon fill="none" stroke="midnightblue" points="87.43,-193.88 85.98,-204.38 93.66,-197.08 87.43,-193.88"/>
</g>
<!-- Node3 -->
<g id="node3" class="node">
<title>Node3</title>
<g id="a_node3"><a xlink:href="classclara_1_1detail_1_1_result_base.html" target="_top" xlink:title=" ">
<polygon fill="white" stroke="black" points="1.5,-310.5 1.5,-389.5 136.5,-389.5 136.5,-310.5 1.5,-310.5"/>
<text text-anchor="middle" x="69" y="-377.5" font-family="Helvetica,sans-Serif" font-size="10.00">clara::detail::ResultBase</text>
<polyline fill="none" stroke="black" points="1.5,-370.5 136.5,-370.5 "/>
<text text-anchor="middle" x="69" y="-358.5" font-family="Helvetica,sans-Serif" font-size="10.00"> </text>
<polyline fill="none" stroke="black" points="1.5,-351.5 136.5,-351.5 "/>
<text text-anchor="start" x="9.5" y="-339.5" font-family="Helvetica,sans-Serif" font-size="10.00"># ResultBase()</text>
<text text-anchor="start" x="9.5" y="-328.5" font-family="Helvetica,sans-Serif" font-size="10.00"># ~ResultBase()</text>
<text text-anchor="start" x="9.5" y="-317.5" font-family="Helvetica,sans-Serif" font-size="10.00"># enforceOk()</text>
</a>
</g>
</g>
<!-- Node3&#45;&gt;Node2 -->
<g id="edge2" class="edge">
<title>Node3&#45;&gt;Node2</title>
<path fill="none" stroke="midnightblue" d="M69,-300.38C69,-291.02 69,-281.41 69,-272.67"/>
<polygon fill="none" stroke="midnightblue" points="65.5,-300.39 69,-310.39 72.5,-300.39 65.5,-300.39"/>
</g>
<!-- Node4 -->
<g id="node4" class="node">
<title>Node4</title>
<g id="a_node4"><a xlink:title=" ">
<polygon fill="white" stroke="#bfbfbf" points="49.5,-437.5 49.5,-494.5 88.5,-494.5 88.5,-437.5 49.5,-437.5"/>
<text text-anchor="middle" x="69" y="-482.5" font-family="Helvetica,sans-Serif" font-size="10.00">Type</text>
<polyline fill="none" stroke="#bfbfbf" points="49.5,-475.5 88.5,-475.5 "/>
<text text-anchor="middle" x="69" y="-463.5" font-family="Helvetica,sans-Serif" font-size="10.00"> </text>
<polyline fill="none" stroke="#bfbfbf" points="49.5,-456.5 88.5,-456.5 "/>
<text text-anchor="middle" x="69" y="-444.5" font-family="Helvetica,sans-Serif" font-size="10.00"> </text>
</a>
</g>
</g>
<!-- Node4&#45;&gt;Node3 -->
<g id="edge3" class="edge">
<title>Node4&#45;&gt;Node3</title>
<path fill="none" stroke="#404040" d="M69,-437.4C69,-426.63 69,-413.93 69,-401.62"/>
<polygon fill="none" stroke="#404040" points="69,-401.54 65,-395.54 69,-389.54 73,-395.54 69,-401.54"/>
<text text-anchor="middle" x="93.5" y="-411" font-family="Helvetica,sans-Serif" font-size="10.00"> #m_type</text>
</g>
<!-- Node5 -->
<g id="node5" class="node">
<title>Node5</title>
<g id="a_node5"><a xlink:title=" ">
<polygon fill="white" stroke="#bfbfbf" points="156,-210 156,-267 200,-267 200,-210 156,-210"/>
<text text-anchor="middle" x="178" y="-255" font-family="Helvetica,sans-Serif" font-size="10.00">string</text>
<polyline fill="none" stroke="#bfbfbf" points="156,-248 200,-248 "/>
<text text-anchor="middle" x="178" y="-236" font-family="Helvetica,sans-Serif" font-size="10.00"> </text>
<polyline fill="none" stroke="#bfbfbf" points="156,-229 200,-229 "/>
<text text-anchor="middle" x="178" y="-217" font-family="Helvetica,sans-Serif" font-size="10.00"> </text>
</a>
</g>
</g>
<!-- Node5&#45;&gt;Node1 -->
<g id="edge4" class="edge">
<title>Node5&#45;&gt;Node1</title>
<path fill="none" stroke="#404040" d="M173.12,-209.98C171.03,-198.19 168.46,-183.69 165.81,-168.69"/>
<polygon fill="none" stroke="#404040" points="165.76,-168.41 160.77,-163.2 163.66,-156.6 168.65,-161.81 165.76,-168.41"/>
<text text-anchor="middle" x="215" y="-178" font-family="Helvetica,sans-Serif" font-size="10.00"> #m_errorMessage</text>
</g>
</g>
</svg>
