<?xml version="1.0" encoding="UTF-8" standalone="no"?>
<!DOCTYPE svg PUBLIC "-//W3C//DTD SVG 1.1//EN"
 "http://www.w3.org/Graphics/SVG/1.1/DTD/svg11.dtd">
<!-- Generated by graphviz version 2.43.0 (0)
 -->
<!-- Title: conanfile.CatchConan Pages: 1 -->
<svg width="286pt" height="259pt"
 viewBox="0.00 0.00 285.50 259.00" xmlns="http://www.w3.org/2000/svg" xmlns:xlink="http://www.w3.org/1999/xlink">
<g id="graph0" class="graph" transform="scale(1 1) rotate(0) translate(4 255)">
<title>conanfile.CatchConan</title>
<polygon fill="white" stroke="transparent" points="-4,4 -4,-255 281.5,-255 281.5,4 -4,4"/>
<!-- Node1 -->
<g id="node1" class="node">
<title>Node1</title>
<g id="a_node1"><a xlink:title=" ">
<polygon fill="#bfbfbf" stroke="black" points="42.5,-0.5 42.5,-79.5 164.5,-79.5 164.5,-0.5 42.5,-0.5"/>
<text text-anchor="middle" x="103.5" y="-67.5" font-family="Helvetica,sans-Serif" font-size="10.00">conanfile.CatchConan</text>
<polyline fill="none" stroke="black" points="42.5,-60.5 164.5,-60.5 "/>
<text text-anchor="middle" x="103.5" y="-48.5" font-family="Helvetica,sans-Serif" font-size="10.00"> </text>
<polyline fill="none" stroke="black" points="42.5,-41.5 164.5,-41.5 "/>
<text text-anchor="start" x="50.5" y="-29.5" font-family="Helvetica,sans-Serif" font-size="10.00">+ package()</text>
<text text-anchor="start" x="50.5" y="-18.5" font-family="Helvetica,sans-Serif" font-size="10.00">+ package_id()</text>
<text text-anchor="start" x="50.5" y="-7.5" font-family="Helvetica,sans-Serif" font-size="10.00">+ package_info()</text>
</a>
</g>
</g>
<!-- Node2 -->
<g id="node2" class="node">
<title>Node2</title>
<g id="a_node2"><a xlink:title=" ">
<polygon fill="white" stroke="#bfbfbf" points="0,-193.5 0,-250.5 65,-250.5 65,-193.5 0,-193.5"/>
<text text-anchor="middle" x="32.5" y="-238.5" font-family="Helvetica,sans-Serif" font-size="10.00">ConanFile</text>
<polyline fill="none" stroke="#bfbfbf" points="0,-231.5 65,-231.5 "/>
<text text-anchor="middle" x="32.5" y="-219.5" font-family="Helvetica,sans-Serif" font-size="10.00"> </text>
<polyline fill="none" stroke="#bfbfbf" points="0,-212.5 65,-212.5 "/>
<text text-anchor="middle" x="32.5" y="-200.5" font-family="Helvetica,sans-Serif" font-size="10.00"> </text>
</a>
</g>
</g>
<!-- Node2&#45;&gt;Node1 -->
<g id="edge1" class="edge">
<title>Node2&#45;&gt;Node1</title>
<path fill="none" stroke="midnightblue" d="M47.15,-183.87C59.13,-153.48 76.04,-110.63 88.2,-79.79"/>
<polygon fill="none" stroke="midnightblue" points="43.85,-182.68 43.44,-193.27 50.36,-185.25 43.85,-182.68"/>
</g>
<!-- Node3 -->
<g id="node3" class="node">
<title>Node3</title>
<g id="a_node3"><a xlink:title=" ">
<polygon fill="white" stroke="#bfbfbf" points="83,-193.5 83,-250.5 124,-250.5 124,-193.5 83,-193.5"/>
<text text-anchor="middle" x="103.5" y="-238.5" font-family="Helvetica,sans-Serif" font-size="10.00">tuple</text>
<polyline fill="none" stroke="#bfbfbf" points="83,-231.5 124,-231.5 "/>
<text text-anchor="middle" x="103.5" y="-219.5" font-family="Helvetica,sans-Serif" font-size="10.00"> </text>
<polyline fill="none" stroke="#bfbfbf" points="83,-212.5 124,-212.5 "/>
<text text-anchor="middle" x="103.5" y="-200.5" font-family="Helvetica,sans-Serif" font-size="10.00"> </text>
</a>
</g>
</g>
<!-- Node3&#45;&gt;Node1 -->
<g id="edge2" class="edge">
<title>Node3&#45;&gt;Node1</title>
<path fill="none" stroke="#404040" d="M103.5,-193.27C103.5,-166.34 103.5,-124.81 103.5,-91.92"/>
<polygon fill="none" stroke="#404040" points="103.5,-91.79 99.5,-85.79 103.5,-79.79 107.5,-85.79 103.5,-91.79"/>
<text text-anchor="middle" x="147.5" y="-139.5" font-family="Helvetica,sans-Serif" font-size="10.00"> +topics</text>
<text text-anchor="middle" x="147.5" y="-128.5" font-family="Helvetica,sans-Serif" font-size="10.00">+exports_sources</text>
</g>
<!-- Node4 -->
<g id="node4" class="node">
<title>Node4</title>
<g id="a_node4"><a xlink:title=" ">
<polygon fill="white" stroke="#bfbfbf" points="192.5,-193.5 192.5,-250.5 236.5,-250.5 236.5,-193.5 192.5,-193.5"/>
<text text-anchor="middle" x="214.5" y="-238.5" font-family="Helvetica,sans-Serif" font-size="10.00">string</text>
<polyline fill="none" stroke="#bfbfbf" points="192.5,-231.5 236.5,-231.5 "/>
<text text-anchor="middle" x="214.5" y="-219.5" font-family="Helvetica,sans-Serif" font-size="10.00"> </text>
<polyline fill="none" stroke="#bfbfbf" points="192.5,-212.5 236.5,-212.5 "/>
<text text-anchor="middle" x="214.5" y="-200.5" font-family="Helvetica,sans-Serif" font-size="10.00"> </text>
</a>
</g>
</g>
<!-- Node4&#45;&gt;Node1 -->
<g id="edge3" class="edge">
<title>Node4&#45;&gt;Node1</title>
<path fill="none" stroke="#404040" d="M215.67,-193.25C215.46,-166.67 211.54,-126.5 192.5,-98 187.59,-90.66 181.39,-84.06 174.54,-78.19"/>
<polygon fill="none" stroke="#404040" points="174.33,-78.02 167.14,-77.48 164.87,-70.63 172.07,-71.18 174.33,-78.02"/>
<text text-anchor="middle" x="246" y="-167" font-family="Helvetica,sans-Serif" font-size="10.00"> +url</text>
<text text-anchor="middle" x="246" y="-156" font-family="Helvetica,sans-Serif" font-size="10.00">+exports</text>
<text text-anchor="middle" x="246" y="-145" font-family="Helvetica,sans-Serif" font-size="10.00">+license</text>
<text text-anchor="middle" x="246" y="-134" font-family="Helvetica,sans-Serif" font-size="10.00">+generators</text>
<text text-anchor="middle" x="246" y="-123" font-family="Helvetica,sans-Serif" font-size="10.00">+homepage</text>
<text text-anchor="middle" x="246" y="-112" font-family="Helvetica,sans-Serif" font-size="10.00">+name</text>
<text text-anchor="middle" x="246" y="-101" font-family="Helvetica,sans-Serif" font-size="10.00">+description</text>
</g>
</g>
</svg>
