<?xml version="1.0" encoding="UTF-8" standalone="no"?>
<!DOCTYPE svg PUBLIC "-//W3C//DTD SVG 1.1//EN"
 "http://www.w3.org/Graphics/SVG/1.1/DTD/svg11.dtd">
<!-- Generated by graphviz version 2.43.0 (0)
 -->
<!-- Title: Catch::XmlWriter::startElement Pages: 1 -->
<svg width="1269pt" height="624pt"
 viewBox="0.00 0.00 1269.00 624.00" xmlns="http://www.w3.org/2000/svg" xmlns:xlink="http://www.w3.org/1999/xlink">
<g id="graph0" class="graph" transform="scale(1 1) rotate(0) translate(4 620)">
<title>Catch::XmlWriter::startElement</title>
<polygon fill="white" stroke="transparent" points="-4,4 -4,-620 1265,-620 1265,4 -4,4"/>
<!-- Node1 -->
<g id="node1" class="node">
<title>Node1</title>
<g id="a_node1"><a xlink:title=" ">
<polygon fill="#bfbfbf" stroke="black" points="1092,-153 1092,-172 1261,-172 1261,-153 1092,-153"/>
<text text-anchor="middle" x="1176.5" y="-160" font-family="Helvetica,sans-Serif" font-size="10.00">Catch::XmlWriter::startElement</text>
</a>
</g>
</g>
<!-- Node2 -->
<g id="node2" class="node">
<title>Node2</title>
<g id="a_node2"><a xlink:href="class_catch_1_1_xml_writer.html#ad2fbf17f0dc39443b2db8ab614f4c625" target="_top" xlink:title=" ">
<polygon fill="white" stroke="black" points="913,-364.5 913,-394.5 1053,-394.5 1053,-364.5 913,-364.5"/>
<text text-anchor="start" x="921" y="-382.5" font-family="Helvetica,sans-Serif" font-size="10.00">Catch::XmlWriter::scoped</text>
<text text-anchor="middle" x="983" y="-371.5" font-family="Helvetica,sans-Serif" font-size="10.00">Element</text>
</a>
</g>
</g>
<!-- Node1&#45;&gt;Node2 -->
<g id="edge1" class="edge">
<title>Node1&#45;&gt;Node2</title>
<path fill="none" stroke="midnightblue" d="M1160.32,-179.7C1123.91,-220.96 1032.03,-325.07 997.45,-364.26"/>
<polygon fill="midnightblue" stroke="midnightblue" points="1163.03,-181.92 1167.02,-172.1 1157.78,-177.29 1163.03,-181.92"/>
</g>
<!-- Node7 -->
<g id="node7" class="node">
<title>Node7</title>
<g id="a_node7"><a xlink:href="class_catch_1_1_xml_reporter.html#ab5de0b02d5a30612ae5449360d867672" target="_top" xlink:title=" ">
<polygon fill="white" stroke="black" points="745,-185.5 745,-215.5 857,-215.5 857,-185.5 745,-185.5"/>
<text text-anchor="start" x="753" y="-203.5" font-family="Helvetica,sans-Serif" font-size="10.00">Catch::XmlReporter</text>
<text text-anchor="middle" x="801" y="-192.5" font-family="Helvetica,sans-Serif" font-size="10.00">::testRunStarting</text>
</a>
</g>
</g>
<!-- Node1&#45;&gt;Node7 -->
<g id="edge21" class="edge">
<title>Node1&#45;&gt;Node7</title>
<path fill="none" stroke="midnightblue" d="M1156.68,-178.61C1134.37,-196.55 1095.26,-224.46 1056,-235.5 993.54,-253.07 974.09,-245.63 910,-235.5 885.66,-231.66 859.34,-223.22 838.78,-215.59"/>
<polygon fill="midnightblue" stroke="midnightblue" points="1159.14,-181.12 1164.63,-172.06 1154.69,-175.72 1159.14,-181.12"/>
</g>
<!-- Node16 -->
<g id="node16" class="node">
<title>Node16</title>
<g id="a_node16"><a xlink:href="class_catch_1_1_xml_reporter.html#a06befa9cf2b661c5226317bff0f05c64" target="_top" xlink:title=" ">
<polygon fill="white" stroke="black" points="927,-196.5 927,-226.5 1039,-226.5 1039,-196.5 927,-196.5"/>
<text text-anchor="start" x="935" y="-214.5" font-family="Helvetica,sans-Serif" font-size="10.00">Catch::XmlReporter</text>
<text text-anchor="middle" x="983" y="-203.5" font-family="Helvetica,sans-Serif" font-size="10.00">::sectionStarting</text>
</a>
</g>
</g>
<!-- Node1&#45;&gt;Node16 -->
<g id="edge17" class="edge">
<title>Node1&#45;&gt;Node16</title>
<path fill="none" stroke="midnightblue" d="M1128.15,-174.62C1101.16,-181.52 1067.22,-190.21 1039.06,-197.41"/>
<polygon fill="midnightblue" stroke="midnightblue" points="1129.3,-177.93 1138.12,-172.06 1127.57,-171.15 1129.3,-177.93"/>
</g>
<!-- Node17 -->
<g id="node17" class="node">
<title>Node17</title>
<g id="a_node17"><a xlink:href="class_catch_1_1_xml_reporter.html#a1395b2efb62faaa947a42638a03be32c" target="_top" xlink:title=" ">
<polygon fill="white" stroke="black" points="927,-147.5 927,-177.5 1039,-177.5 1039,-147.5 927,-147.5"/>
<text text-anchor="start" x="935" y="-165.5" font-family="Helvetica,sans-Serif" font-size="10.00">Catch::XmlReporter</text>
<text text-anchor="middle" x="983" y="-154.5" font-family="Helvetica,sans-Serif" font-size="10.00">::testCaseStarting</text>
</a>
</g>
</g>
<!-- Node1&#45;&gt;Node17 -->
<g id="edge18" class="edge">
<title>Node1&#45;&gt;Node17</title>
<path fill="none" stroke="midnightblue" d="M1081.72,-162.5C1067.15,-162.5 1052.51,-162.5 1039.17,-162.5"/>
<polygon fill="midnightblue" stroke="midnightblue" points="1081.78,-166 1091.78,-162.5 1081.78,-159 1081.78,-166"/>
</g>
<!-- Node18 -->
<g id="node18" class="node">
<title>Node18</title>
<g id="a_node18"><a xlink:href="class_catch_1_1_xml_reporter.html#a873beb2333056238c4fd476ef90412fb" target="_top" xlink:title=" ">
<polygon fill="white" stroke="black" points="927,-98.5 927,-128.5 1039,-128.5 1039,-98.5 927,-98.5"/>
<text text-anchor="start" x="935" y="-116.5" font-family="Helvetica,sans-Serif" font-size="10.00">Catch::XmlReporter</text>
<text text-anchor="middle" x="983" y="-105.5" font-family="Helvetica,sans-Serif" font-size="10.00">::testGroupStarting</text>
</a>
</g>
</g>
<!-- Node1&#45;&gt;Node18 -->
<g id="edge19" class="edge">
<title>Node1&#45;&gt;Node18</title>
<path fill="none" stroke="midnightblue" d="M1128.15,-150.38C1101.16,-143.48 1067.22,-134.79 1039.06,-127.59"/>
<polygon fill="midnightblue" stroke="midnightblue" points="1127.57,-153.85 1138.12,-152.94 1129.3,-147.07 1127.57,-153.85"/>
</g>
<!-- Node19 -->
<g id="node19" class="node">
<title>Node19</title>
<g id="a_node19"><a xlink:href="class_catch_1_1_junit_reporter.html#a416da4586bd135749eea5adc8aa41280" target="_top" xlink:title=" ">
<polygon fill="white" stroke="black" points="926,-49.5 926,-79.5 1040,-79.5 1040,-49.5 926,-49.5"/>
<text text-anchor="start" x="934" y="-67.5" font-family="Helvetica,sans-Serif" font-size="10.00">Catch::JunitReporter</text>
<text text-anchor="middle" x="983" y="-56.5" font-family="Helvetica,sans-Serif" font-size="10.00">::testRunStarting</text>
</a>
</g>
</g>
<!-- Node1&#45;&gt;Node19 -->
<g id="edge20" class="edge">
<title>Node1&#45;&gt;Node19</title>
<path fill="none" stroke="midnightblue" d="M1153.67,-146.81C1130.35,-130.59 1091.89,-105.32 1056,-88.5 1049.08,-85.26 1041.6,-82.25 1034.17,-79.54"/>
<polygon fill="midnightblue" stroke="midnightblue" points="1151.92,-149.86 1162.11,-152.75 1155.94,-144.13 1151.92,-149.86"/>
</g>
<!-- Node20 -->
<g id="node20" class="node">
<title>Node20</title>
<g id="a_node20"><a xlink:href="struct_catch_1_1_sonar_qube_reporter.html#a58ed9dede9b58d4857567e5b9daf5837" target="_top" xlink:title=" ">
<polygon fill="white" stroke="black" points="910,-0.5 910,-30.5 1056,-30.5 1056,-0.5 910,-0.5"/>
<text text-anchor="start" x="918" y="-18.5" font-family="Helvetica,sans-Serif" font-size="10.00">Catch::SonarQubeReporter</text>
<text text-anchor="middle" x="983" y="-7.5" font-family="Helvetica,sans-Serif" font-size="10.00">::testRunStarting</text>
</a>
</g>
</g>
<!-- Node1&#45;&gt;Node20 -->
<g id="edge22" class="edge">
<title>Node1&#45;&gt;Node20</title>
<path fill="none" stroke="midnightblue" d="M1162.65,-144.61C1142.69,-118.05 1101.76,-68.24 1056,-39.5 1050.64,-36.14 1044.77,-33.19 1038.75,-30.62"/>
<polygon fill="midnightblue" stroke="midnightblue" points="1159.84,-146.69 1168.59,-152.66 1165.47,-142.53 1159.84,-146.69"/>
</g>
<!-- Node3 -->
<g id="node3" class="node">
<title>Node3</title>
<g id="a_node3"><a xlink:href="class_catch_1_1_xml_reporter.html#a73c809f067d58a7a6748cb13643448e5" target="_top" xlink:title=" ">
<polygon fill="white" stroke="black" points="745,-585.5 745,-615.5 857,-615.5 857,-585.5 745,-585.5"/>
<text text-anchor="start" x="753" y="-603.5" font-family="Helvetica,sans-Serif" font-size="10.00">Catch::XmlReporter</text>
<text text-anchor="middle" x="801" y="-592.5" font-family="Helvetica,sans-Serif" font-size="10.00">::sectionEnded</text>
</a>
</g>
</g>
<!-- Node2&#45;&gt;Node3 -->
<g id="edge2" class="edge">
<title>Node2&#45;&gt;Node3</title>
<path fill="none" stroke="midnightblue" d="M975.02,-404.13C962.02,-445.65 930.17,-529.61 874,-576.5 868.94,-580.72 863.11,-584.21 857.01,-587.09"/>
<polygon fill="midnightblue" stroke="midnightblue" points="978.38,-405.13 977.92,-394.54 971.68,-403.1 978.38,-405.13"/>
</g>
<!-- Node4 -->
<g id="node4" class="node">
<title>Node4</title>
<g id="a_node4"><a xlink:href="class_catch_1_1_xml_reporter.html#ab641ec7e115cb94efa02f85e9d91de0f" target="_top" xlink:title=" ">
<polygon fill="white" stroke="black" points="745,-536.5 745,-566.5 857,-566.5 857,-536.5 745,-536.5"/>
<text text-anchor="start" x="753" y="-554.5" font-family="Helvetica,sans-Serif" font-size="10.00">Catch::XmlReporter</text>
<text text-anchor="middle" x="801" y="-543.5" font-family="Helvetica,sans-Serif" font-size="10.00">::testCaseEnded</text>
</a>
</g>
</g>
<!-- Node2&#45;&gt;Node4 -->
<g id="edge3" class="edge">
<title>Node2&#45;&gt;Node4</title>
<path fill="none" stroke="midnightblue" d="M970.14,-404.25C953.22,-437.03 919.15,-494.5 874,-527.5 868.89,-531.23 863.17,-534.41 857.24,-537.11"/>
<polygon fill="midnightblue" stroke="midnightblue" points="973.46,-405.44 974.83,-394.93 967.21,-402.29 973.46,-405.44"/>
</g>
<!-- Node5 -->
<g id="node5" class="node">
<title>Node5</title>
<g id="a_node5"><a xlink:href="class_catch_1_1_xml_reporter.html#ab9ba05f0311cb976fb6f7e5bd2df477c" target="_top" xlink:title=" ">
<polygon fill="white" stroke="black" points="745,-487.5 745,-517.5 857,-517.5 857,-487.5 745,-487.5"/>
<text text-anchor="start" x="753" y="-505.5" font-family="Helvetica,sans-Serif" font-size="10.00">Catch::XmlReporter</text>
<text text-anchor="middle" x="801" y="-494.5" font-family="Helvetica,sans-Serif" font-size="10.00">::testGroupEnded</text>
</a>
</g>
</g>
<!-- Node2&#45;&gt;Node5 -->
<g id="edge4" class="edge">
<title>Node2&#45;&gt;Node5</title>
<path fill="none" stroke="midnightblue" d="M962.41,-402.36C942.25,-424.59 908.95,-457.94 874,-478.5 868.32,-481.84 862.12,-484.79 855.8,-487.38"/>
<polygon fill="midnightblue" stroke="midnightblue" points="965.18,-404.51 969.22,-394.71 959.95,-399.85 965.18,-404.51"/>
</g>
<!-- Node6 -->
<g id="node6" class="node">
<title>Node6</title>
<g id="a_node6"><a xlink:href="class_catch_1_1_xml_reporter.html#a2458c9f342a446f0b3a7480b53c93705" target="_top" xlink:title=" ">
<polygon fill="white" stroke="black" points="745,-438.5 745,-468.5 857,-468.5 857,-438.5 745,-438.5"/>
<text text-anchor="start" x="753" y="-456.5" font-family="Helvetica,sans-Serif" font-size="10.00">Catch::XmlReporter</text>
<text text-anchor="middle" x="801" y="-445.5" font-family="Helvetica,sans-Serif" font-size="10.00">::testRunEnded</text>
</a>
</g>
</g>
<!-- Node2&#45;&gt;Node6 -->
<g id="edge5" class="edge">
<title>Node2&#45;&gt;Node6</title>
<path fill="none" stroke="midnightblue" d="M942.46,-399.1C922.22,-408.8 897.05,-420.36 874,-429.5 866.16,-432.61 857.74,-435.66 849.52,-438.5"/>
<polygon fill="midnightblue" stroke="midnightblue" points="944.19,-402.15 951.67,-394.65 941.15,-395.85 944.19,-402.15"/>
</g>
<!-- Node2&#45;&gt;Node7 -->
<g id="edge6" class="edge">
<title>Node2&#45;&gt;Node7</title>
<path fill="none" stroke="midnightblue" d="M966.79,-355.33C942.95,-318.01 897.1,-248.77 874,-230.5 866.46,-224.54 857.56,-219.57 848.64,-215.51"/>
<polygon fill="midnightblue" stroke="midnightblue" points="964.04,-357.51 972.35,-364.07 969.94,-353.76 964.04,-357.51"/>
</g>
<!-- Node8 -->
<g id="node8" class="node">
<title>Node8</title>
<g id="a_node8"><a xlink:href="class_catch_1_1_junit_reporter.html#a13caa24a5b9bcfdb398702fe3146e066" target="_top" xlink:title=" ">
<polygon fill="white" stroke="black" points="744,-389.5 744,-419.5 858,-419.5 858,-389.5 744,-389.5"/>
<text text-anchor="start" x="752" y="-407.5" font-family="Helvetica,sans-Serif" font-size="10.00">Catch::JunitReporter</text>
<text text-anchor="middle" x="801" y="-396.5" font-family="Helvetica,sans-Serif" font-size="10.00">::writeGroup</text>
</a>
</g>
</g>
<!-- Node2&#45;&gt;Node8 -->
<g id="edge7" class="edge">
<title>Node2&#45;&gt;Node8</title>
<path fill="none" stroke="midnightblue" d="M902.61,-390.53C887.59,-392.61 872.18,-394.75 858.07,-396.71"/>
<polygon fill="midnightblue" stroke="midnightblue" points="903.5,-393.94 912.92,-389.09 902.54,-387 903.5,-393.94"/>
</g>
<!-- Node10 -->
<g id="node10" class="node">
<title>Node10</title>
<g id="a_node10"><a xlink:href="class_catch_1_1_junit_reporter.html#a38e349527bd049bbabd268c6faad1719" target="_top" xlink:title=" ">
<polygon fill="white" stroke="black" points="744,-340.5 744,-370.5 858,-370.5 858,-340.5 744,-340.5"/>
<text text-anchor="start" x="752" y="-358.5" font-family="Helvetica,sans-Serif" font-size="10.00">Catch::JunitReporter</text>
<text text-anchor="middle" x="801" y="-347.5" font-family="Helvetica,sans-Serif" font-size="10.00">::writeSection</text>
</a>
</g>
</g>
<!-- Node2&#45;&gt;Node10 -->
<g id="edge9" class="edge">
<title>Node2&#45;&gt;Node10</title>
<path fill="none" stroke="midnightblue" d="M902.61,-368.91C887.59,-366.91 872.18,-364.86 858.07,-362.98"/>
<polygon fill="midnightblue" stroke="midnightblue" points="902.55,-372.44 912.92,-370.29 903.47,-365.5 902.55,-372.44"/>
</g>
<!-- Node11 -->
<g id="node11" class="node">
<title>Node11</title>
<g id="a_node11"><a xlink:href="struct_catch_1_1_sonar_qube_reporter.html#a6c3bf02bc36f29c9f58ac8261d903f53" target="_top" xlink:title=" ">
<polygon fill="white" stroke="black" points="728,-273.5 728,-303.5 874,-303.5 874,-273.5 728,-273.5"/>
<text text-anchor="start" x="736" y="-291.5" font-family="Helvetica,sans-Serif" font-size="10.00">Catch::SonarQubeReporter</text>
<text text-anchor="middle" x="801" y="-280.5" font-family="Helvetica,sans-Serif" font-size="10.00">::writeSection</text>
</a>
</g>
</g>
<!-- Node2&#45;&gt;Node11 -->
<g id="edge10" class="edge">
<title>Node2&#45;&gt;Node11</title>
<path fill="none" stroke="midnightblue" d="M943.25,-359.91C909.83,-343.01 862.27,-318.97 831.77,-303.55"/>
<polygon fill="midnightblue" stroke="midnightblue" points="941.77,-363.08 952.28,-364.47 944.93,-356.84 941.77,-363.08"/>
</g>
<!-- Node13 -->
<g id="node13" class="node">
<title>Node13</title>
<g id="a_node13"><a xlink:href="struct_catch_1_1_sonar_qube_reporter.html#a2fd55ff70771a8f84c58d76d4d0edab6" target="_top" xlink:title=" ">
<polygon fill="white" stroke="black" points="364,-251.5 364,-281.5 510,-281.5 510,-251.5 364,-251.5"/>
<text text-anchor="start" x="372" y="-269.5" font-family="Helvetica,sans-Serif" font-size="10.00">Catch::SonarQubeReporter</text>
<text text-anchor="middle" x="437" y="-258.5" font-family="Helvetica,sans-Serif" font-size="10.00">::writeTestFile</text>
</a>
</g>
</g>
<!-- Node2&#45;&gt;Node13 -->
<g id="edge16" class="edge">
<title>Node2&#45;&gt;Node13</title>
<path fill="none" stroke="midnightblue" d="M968.08,-355.25C950.37,-327.09 916.84,-282.15 874,-263.5 749.07,-209.12 584.27,-232.69 497.43,-251.49"/>
<polygon fill="midnightblue" stroke="midnightblue" points="965.28,-357.37 973.48,-364.09 971.26,-353.73 965.28,-357.37"/>
</g>
<!-- Node9 -->
<g id="node9" class="node">
<title>Node9</title>
<g id="a_node9"><a xlink:href="class_catch_1_1_junit_reporter.html#aa91e71b824c3a7733993821668fe7e6e" target="_top" xlink:title=" ">
<polygon fill="white" stroke="black" points="562,-389.5 562,-419.5 676,-419.5 676,-389.5 562,-389.5"/>
<text text-anchor="start" x="570" y="-407.5" font-family="Helvetica,sans-Serif" font-size="10.00">Catch::JunitReporter</text>
<text text-anchor="middle" x="619" y="-396.5" font-family="Helvetica,sans-Serif" font-size="10.00">::testGroupEnded</text>
</a>
</g>
</g>
<!-- Node8&#45;&gt;Node9 -->
<g id="edge8" class="edge">
<title>Node8&#45;&gt;Node9</title>
<path fill="none" stroke="midnightblue" d="M733.29,-404.5C714.54,-404.5 694.34,-404.5 676.26,-404.5"/>
<polygon fill="midnightblue" stroke="midnightblue" points="733.54,-408 743.54,-404.5 733.54,-401 733.54,-408"/>
</g>
<!-- Node11&#45;&gt;Node11 -->
<g id="edge11" class="edge">
<title>Node11&#45;&gt;Node11</title>
<path fill="none" stroke="midnightblue" d="M833.34,-313.96C829.33,-318.68 818.55,-322 801,-322 772.21,-322 761.63,-313.06 769.28,-303.66"/>
<polygon fill="midnightblue" stroke="midnightblue" points="836.81,-313.43 832.72,-303.66 829.83,-313.85 836.81,-313.43"/>
</g>
<!-- Node12 -->
<g id="node12" class="node">
<title>Node12</title>
<g id="a_node12"><a xlink:href="struct_catch_1_1_sonar_qube_reporter.html#a28756eaa7e0bb22a8fdb6a66bf655f7a" target="_top" xlink:title=" ">
<polygon fill="white" stroke="black" points="546,-273.5 546,-303.5 692,-303.5 692,-273.5 546,-273.5"/>
<text text-anchor="start" x="554" y="-291.5" font-family="Helvetica,sans-Serif" font-size="10.00">Catch::SonarQubeReporter</text>
<text text-anchor="middle" x="619" y="-280.5" font-family="Helvetica,sans-Serif" font-size="10.00">::writeTestCase</text>
</a>
</g>
</g>
<!-- Node11&#45;&gt;Node12 -->
<g id="edge12" class="edge">
<title>Node11&#45;&gt;Node12</title>
<path fill="none" stroke="midnightblue" d="M717.56,-288.5C709.09,-288.5 700.54,-288.5 692.19,-288.5"/>
<polygon fill="midnightblue" stroke="midnightblue" points="717.82,-292 727.82,-288.5 717.82,-285 717.82,-292"/>
</g>
<!-- Node12&#45;&gt;Node13 -->
<g id="edge13" class="edge">
<title>Node12&#45;&gt;Node13</title>
<path fill="none" stroke="midnightblue" d="M535.84,-278.46C527.28,-277.41 518.63,-276.35 510.19,-275.32"/>
<polygon fill="midnightblue" stroke="midnightblue" points="535.47,-281.94 545.82,-279.68 536.32,-274.99 535.47,-281.94"/>
</g>
<!-- Node14 -->
<g id="node14" class="node">
<title>Node14</title>
<g id="a_node14"><a xlink:href="struct_catch_1_1_sonar_qube_reporter.html#a3bc0c0875aa9f901d558fac64dd6c8e5" target="_top" xlink:title=" ">
<polygon fill="white" stroke="black" points="182,-251.5 182,-281.5 328,-281.5 328,-251.5 182,-251.5"/>
<text text-anchor="start" x="190" y="-269.5" font-family="Helvetica,sans-Serif" font-size="10.00">Catch::SonarQubeReporter</text>
<text text-anchor="middle" x="255" y="-258.5" font-family="Helvetica,sans-Serif" font-size="10.00">::writeGroup</text>
</a>
</g>
</g>
<!-- Node13&#45;&gt;Node14 -->
<g id="edge14" class="edge">
<title>Node13&#45;&gt;Node14</title>
<path fill="none" stroke="midnightblue" d="M353.56,-266.5C345.09,-266.5 336.54,-266.5 328.19,-266.5"/>
<polygon fill="midnightblue" stroke="midnightblue" points="353.82,-270 363.82,-266.5 353.82,-263 353.82,-270"/>
</g>
<!-- Node15 -->
<g id="node15" class="node">
<title>Node15</title>
<g id="a_node15"><a xlink:href="struct_catch_1_1_sonar_qube_reporter.html#a8e580abdf551dc4f3acfb18d9609db46" target="_top" xlink:title=" ">
<polygon fill="white" stroke="black" points="0,-251.5 0,-281.5 146,-281.5 146,-251.5 0,-251.5"/>
<text text-anchor="start" x="8" y="-269.5" font-family="Helvetica,sans-Serif" font-size="10.00">Catch::SonarQubeReporter</text>
<text text-anchor="middle" x="73" y="-258.5" font-family="Helvetica,sans-Serif" font-size="10.00">::testGroupEnded</text>
</a>
</g>
</g>
<!-- Node14&#45;&gt;Node15 -->
<g id="edge15" class="edge">
<title>Node14&#45;&gt;Node15</title>
<path fill="none" stroke="midnightblue" d="M171.56,-266.5C163.09,-266.5 154.54,-266.5 146.19,-266.5"/>
<polygon fill="midnightblue" stroke="midnightblue" points="171.82,-270 181.82,-266.5 171.82,-263 171.82,-270"/>
</g>
</g>
</svg>
