<?xml version="1.0" encoding="UTF-8" standalone="no"?>
<!DOCTYPE svg PUBLIC "-//W3C//DTD SVG 1.1//EN"
 "http://www.w3.org/Graphics/SVG/1.1/DTD/svg11.dtd">
<!-- Generated by graphviz version 2.43.0 (0)
 -->
<!-- Title: Catch::JunitReporter::testGroupEnded Pages: 1 -->
<svg width="891pt" height="137pt"
 viewBox="0.00 0.00 891.00 137.00" xmlns="http://www.w3.org/2000/svg" xmlns:xlink="http://www.w3.org/1999/xlink">
<g id="graph0" class="graph" transform="scale(1 1) rotate(0) translate(4 133)">
<title>Catch::JunitReporter::testGroupEnded</title>
<polygon fill="white" stroke="transparent" points="-4,4 -4,-133 887,-133 887,4 -4,4"/>
<!-- Node1 -->
<g id="node1" class="node">
<title>Node1</title>
<g id="a_node1"><a xlink:title=" ">
<polygon fill="#bfbfbf" stroke="black" points="0,-49.5 0,-79.5 114,-79.5 114,-49.5 0,-49.5"/>
<text text-anchor="start" x="8" y="-67.5" font-family="Helvetica,sans-Serif" font-size="10.00">Catch::JunitReporter</text>
<text text-anchor="middle" x="57" y="-56.5" font-family="Helvetica,sans-Serif" font-size="10.00">::testGroupEnded</text>
</a>
</g>
</g>
<!-- Node2 -->
<g id="node2" class="node">
<title>Node2</title>
<g id="a_node2"><a xlink:href="class_catch_1_1_timer.html#a065e37e3c9eb16bd4dcf41971d8deedc" target="_top" xlink:title=" ">
<polygon fill="white" stroke="black" points="155,-98.5 155,-128.5 294,-128.5 294,-98.5 155,-98.5"/>
<text text-anchor="start" x="163" y="-116.5" font-family="Helvetica,sans-Serif" font-size="10.00">Catch::Timer::getElapsed</text>
<text text-anchor="middle" x="224.5" y="-105.5" font-family="Helvetica,sans-Serif" font-size="10.00">Seconds</text>
</a>
</g>
</g>
<!-- Node1&#45;&gt;Node2 -->
<g id="edge1" class="edge">
<title>Node1&#45;&gt;Node2</title>
<path fill="none" stroke="midnightblue" d="M109.01,-79.6C126.07,-84.66 145.27,-90.34 162.99,-95.58"/>
<polygon fill="midnightblue" stroke="midnightblue" points="162.08,-98.97 172.66,-98.45 164.07,-92.25 162.08,-98.97"/>
</g>
<!-- Node6 -->
<g id="node6" class="node">
<title>Node6</title>
<g id="a_node6"><a xlink:href="struct_catch_1_1_cumulative_reporter_base.html#a7e33466bcd3a32923d8808bcc0fe9fe7" target="_top" xlink:title=" ">
<polygon fill="white" stroke="black" points="150,-49.5 150,-79.5 299,-79.5 299,-49.5 150,-49.5"/>
<text text-anchor="start" x="158" y="-67.5" font-family="Helvetica,sans-Serif" font-size="10.00">Catch::CumulativeReporter</text>
<text text-anchor="middle" x="224.5" y="-56.5" font-family="Helvetica,sans-Serif" font-size="10.00">Base::testGroupEnded</text>
</a>
</g>
</g>
<!-- Node1&#45;&gt;Node6 -->
<g id="edge5" class="edge">
<title>Node1&#45;&gt;Node6</title>
<path fill="none" stroke="midnightblue" d="M114.03,-64.5C122.32,-64.5 131.01,-64.5 139.72,-64.5"/>
<polygon fill="midnightblue" stroke="midnightblue" points="139.92,-68 149.92,-64.5 139.92,-61 139.92,-68"/>
</g>
<!-- Node7 -->
<g id="node7" class="node">
<title>Node7</title>
<g id="a_node7"><a xlink:href="class_catch_1_1_junit_reporter.html#a13caa24a5b9bcfdb398702fe3146e066" target="_top" xlink:title=" ">
<polygon fill="white" stroke="black" points="167.5,-0.5 167.5,-30.5 281.5,-30.5 281.5,-0.5 167.5,-0.5"/>
<text text-anchor="start" x="175.5" y="-18.5" font-family="Helvetica,sans-Serif" font-size="10.00">Catch::JunitReporter</text>
<text text-anchor="middle" x="224.5" y="-7.5" font-family="Helvetica,sans-Serif" font-size="10.00">::writeGroup</text>
</a>
</g>
</g>
<!-- Node1&#45;&gt;Node7 -->
<g id="edge6" class="edge">
<title>Node1&#45;&gt;Node7</title>
<path fill="none" stroke="midnightblue" d="M109.01,-49.4C126.07,-44.34 145.27,-38.66 162.99,-33.42"/>
<polygon fill="midnightblue" stroke="midnightblue" points="164.07,-36.75 172.66,-30.55 162.08,-30.03 164.07,-36.75"/>
</g>
<!-- Node3 -->
<g id="node3" class="node">
<title>Node3</title>
<g id="a_node3"><a xlink:href="class_catch_1_1_timer.html#a545de17a61a6fee1dbe3de5b0723e5fa" target="_top" xlink:title=" ">
<polygon fill="white" stroke="black" points="335.5,-98.5 335.5,-128.5 474.5,-128.5 474.5,-98.5 335.5,-98.5"/>
<text text-anchor="start" x="343.5" y="-116.5" font-family="Helvetica,sans-Serif" font-size="10.00">Catch::Timer::getElapsed</text>
<text text-anchor="middle" x="405" y="-105.5" font-family="Helvetica,sans-Serif" font-size="10.00">Microseconds</text>
</a>
</g>
</g>
<!-- Node2&#45;&gt;Node3 -->
<g id="edge2" class="edge">
<title>Node2&#45;&gt;Node3</title>
<path fill="none" stroke="midnightblue" d="M294,-113.5C304.18,-113.5 314.73,-113.5 325.1,-113.5"/>
<polygon fill="midnightblue" stroke="midnightblue" points="325.39,-117 335.39,-113.5 325.39,-110 325.39,-117"/>
</g>
<!-- Node4 -->
<g id="node4" class="node">
<title>Node4</title>
<g id="a_node4"><a xlink:href="class_catch_1_1_timer.html#a57be5d17ca868a2d6fb1eea84de665cf" target="_top" xlink:title=" ">
<polygon fill="white" stroke="black" points="526,-98.5 526,-128.5 665,-128.5 665,-98.5 526,-98.5"/>
<text text-anchor="start" x="534" y="-116.5" font-family="Helvetica,sans-Serif" font-size="10.00">Catch::Timer::getElapsed</text>
<text text-anchor="middle" x="595.5" y="-105.5" font-family="Helvetica,sans-Serif" font-size="10.00">Nanoseconds</text>
</a>
</g>
</g>
<!-- Node3&#45;&gt;Node4 -->
<g id="edge3" class="edge">
<title>Node3&#45;&gt;Node4</title>
<path fill="none" stroke="midnightblue" d="M474.59,-113.5C487.92,-113.5 502,-113.5 515.64,-113.5"/>
<polygon fill="midnightblue" stroke="midnightblue" points="515.97,-117 525.97,-113.5 515.96,-110 515.97,-117"/>
</g>
<!-- Node5 -->
<g id="node5" class="node">
<title>Node5</title>
<g id="a_node5"><a xlink:href="namespace_catch.html#a98d058468488c486a9cb5c8463f3ba29" target="_top" xlink:title=" ">
<polygon fill="white" stroke="black" points="716,-98.5 716,-128.5 883,-128.5 883,-98.5 716,-98.5"/>
<text text-anchor="start" x="724" y="-116.5" font-family="Helvetica,sans-Serif" font-size="10.00">Catch::getCurrentNanoseconds</text>
<text text-anchor="middle" x="799.5" y="-105.5" font-family="Helvetica,sans-Serif" font-size="10.00">SinceEpoch</text>
</a>
</g>
</g>
<!-- Node4&#45;&gt;Node5 -->
<g id="edge4" class="edge">
<title>Node4&#45;&gt;Node5</title>
<path fill="none" stroke="midnightblue" d="M665.17,-113.5C678.11,-113.5 691.85,-113.5 705.39,-113.5"/>
<polygon fill="midnightblue" stroke="midnightblue" points="705.69,-117 715.69,-113.5 705.69,-110 705.69,-117"/>
</g>
<!-- Node8 -->
<g id="node8" class="node">
<title>Node8</title>
<g id="a_node8"><a xlink:href="class_catch_1_1_xml_writer.html#ad2fbf17f0dc39443b2db8ab614f4c625" target="_top" xlink:title=" ">
<polygon fill="white" stroke="black" points="335,-0.5 335,-30.5 475,-30.5 475,-0.5 335,-0.5"/>
<text text-anchor="start" x="343" y="-18.5" font-family="Helvetica,sans-Serif" font-size="10.00">Catch::XmlWriter::scoped</text>
<text text-anchor="middle" x="405" y="-7.5" font-family="Helvetica,sans-Serif" font-size="10.00">Element</text>
</a>
</g>
</g>
<!-- Node7&#45;&gt;Node8 -->
<g id="edge7" class="edge">
<title>Node7&#45;&gt;Node8</title>
<path fill="none" stroke="midnightblue" d="M281.98,-15.5C295.46,-15.5 310.09,-15.5 324.4,-15.5"/>
<polygon fill="midnightblue" stroke="midnightblue" points="324.73,-19 334.73,-15.5 324.73,-12 324.73,-19"/>
</g>
<!-- Node9 -->
<g id="node9" class="node">
<title>Node9</title>
<g id="a_node9"><a xlink:href="class_catch_1_1_xml_writer.html#a5e5190bcb1f47a76ddca863591a6cc00" target="_top" xlink:title=" ">
<polygon fill="white" stroke="black" points="511,-6 511,-25 680,-25 680,-6 511,-6"/>
<text text-anchor="middle" x="595.5" y="-13" font-family="Helvetica,sans-Serif" font-size="10.00">Catch::XmlWriter::startElement</text>
</a>
</g>
</g>
<!-- Node8&#45;&gt;Node9 -->
<g id="edge8" class="edge">
<title>Node8&#45;&gt;Node9</title>
<path fill="none" stroke="midnightblue" d="M475.12,-15.5C483.5,-15.5 492.17,-15.5 500.83,-15.5"/>
<polygon fill="midnightblue" stroke="midnightblue" points="500.98,-19 510.98,-15.5 500.98,-12 500.98,-19"/>
</g>
<!-- Node10 -->
<g id="node10" class="node">
<title>Node10</title>
<g id="a_node10"><a xlink:href="class_catch_1_1_xml_writer.html#aba98703d9852416e237de82aed4a9c4f" target="_top" xlink:title=" ">
<polygon fill="white" stroke="black" points="730,-0.5 730,-30.5 869,-30.5 869,-0.5 730,-0.5"/>
<text text-anchor="start" x="738" y="-18.5" font-family="Helvetica,sans-Serif" font-size="10.00">Catch::XmlWriter::ensure</text>
<text text-anchor="middle" x="799.5" y="-7.5" font-family="Helvetica,sans-Serif" font-size="10.00">TagClosed</text>
</a>
</g>
</g>
<!-- Node9&#45;&gt;Node10 -->
<g id="edge9" class="edge">
<title>Node9&#45;&gt;Node10</title>
<path fill="none" stroke="midnightblue" d="M680.12,-15.5C693.14,-15.5 706.55,-15.5 719.46,-15.5"/>
<polygon fill="midnightblue" stroke="midnightblue" points="719.69,-19 729.69,-15.5 719.69,-12 719.69,-19"/>
</g>
</g>
</svg>
