<?xml version="1.0" encoding="UTF-8" standalone="no"?>
<!DOCTYPE svg PUBLIC "-//W3C//DTD SVG 1.1//EN"
 "http://www.w3.org/Graphics/SVG/1.1/DTD/svg11.dtd">
<!-- Generated by graphviz version 2.43.0 (0)
 -->
<!-- Title: Catch::Generators::GeneratorWrapper::next Pages: 1 -->
<svg width="566pt" height="284pt"
 viewBox="0.00 0.00 566.00 284.00" xmlns="http://www.w3.org/2000/svg" xmlns:xlink="http://www.w3.org/1999/xlink">
<g id="graph0" class="graph" transform="scale(1 1) rotate(0) translate(4 280)">
<title>Catch::Generators::GeneratorWrapper::next</title>
<polygon fill="white" stroke="transparent" points="-4,4 -4,-280 562,-280 562,4 -4,4"/>
<!-- Node1 -->
<g id="node1" class="node">
<title>Node1</title>
<g id="a_node1"><a xlink:title=" ">
<polygon fill="#bfbfbf" stroke="black" points="424,-122.5 424,-152.5 558,-152.5 558,-122.5 424,-122.5"/>
<text text-anchor="start" x="432" y="-140.5" font-family="Helvetica,sans-Serif" font-size="10.00">Catch::Generators::</text>
<text text-anchor="middle" x="491" y="-129.5" font-family="Helvetica,sans-Serif" font-size="10.00">GeneratorWrapper::next</text>
</a>
</g>
</g>
<!-- Node2 -->
<g id="node2" class="node">
<title>Node2</title>
<g id="a_node2"><a xlink:href="class_catch_1_1_generators_1_1_chunk_generator.html#a50c334d00cde3166d71e9b90ebc2d2e3" target="_top" xlink:title=" ">
<polygon fill="white" stroke="black" points="206,-245.5 206,-275.5 388,-275.5 388,-245.5 206,-245.5"/>
<text text-anchor="start" x="214" y="-263.5" font-family="Helvetica,sans-Serif" font-size="10.00">Catch::Generators::</text>
<text text-anchor="middle" x="297" y="-252.5" font-family="Helvetica,sans-Serif" font-size="10.00">ChunkGenerator::ChunkGenerator</text>
</a>
</g>
</g>
<!-- Node1&#45;&gt;Node2 -->
<g id="edge1" class="edge">
<title>Node1&#45;&gt;Node2</title>
<path fill="none" stroke="midnightblue" d="M472.08,-160.78C453.46,-183.39 422.27,-217.08 388,-236.5 381.95,-239.93 375.39,-242.88 368.67,-245.42"/>
<polygon fill="midnightblue" stroke="midnightblue" points="475.04,-162.69 478.59,-152.71 469.59,-158.3 475.04,-162.69"/>
</g>
<!-- Node3 -->
<g id="node3" class="node">
<title>Node3</title>
<g id="a_node3"><a xlink:href="class_catch_1_1_generators_1_1_take_generator.html#ae343f3e28fe04e0a20d6fdf69bfb4c78" target="_top" xlink:title=" ">
<polygon fill="white" stroke="black" points="239.5,-196.5 239.5,-226.5 354.5,-226.5 354.5,-196.5 239.5,-196.5"/>
<text text-anchor="start" x="247.5" y="-214.5" font-family="Helvetica,sans-Serif" font-size="10.00">Catch::Generators::</text>
<text text-anchor="middle" x="297" y="-203.5" font-family="Helvetica,sans-Serif" font-size="10.00">TakeGenerator::next</text>
</a>
</g>
</g>
<!-- Node1&#45;&gt;Node3 -->
<g id="edge2" class="edge">
<title>Node1&#45;&gt;Node3</title>
<path fill="none" stroke="midnightblue" d="M453.95,-157.32C434.77,-167.31 410.54,-179.06 388,-187.5 377.4,-191.47 365.87,-195.06 354.7,-198.19"/>
<polygon fill="midnightblue" stroke="midnightblue" points="455.73,-160.34 462.94,-152.57 452.46,-154.15 455.73,-160.34"/>
</g>
<!-- Node4 -->
<g id="node4" class="node">
<title>Node4</title>
<g id="a_node4"><a xlink:href="class_catch_1_1_generators_1_1_filter_generator.html#a02ce0839dcaa7545c55d0fe70cc50e84" target="_top" xlink:title=" ">
<polygon fill="white" stroke="black" points="238,-147.5 238,-177.5 356,-177.5 356,-147.5 238,-147.5"/>
<text text-anchor="start" x="246" y="-165.5" font-family="Helvetica,sans-Serif" font-size="10.00">Catch::Generators::</text>
<text text-anchor="middle" x="297" y="-154.5" font-family="Helvetica,sans-Serif" font-size="10.00">FilterGenerator::next</text>
</a>
</g>
</g>
<!-- Node1&#45;&gt;Node4 -->
<g id="edge3" class="edge">
<title>Node1&#45;&gt;Node4</title>
<path fill="none" stroke="midnightblue" d="M413.98,-147.4C394.74,-149.9 374.38,-152.56 356.17,-154.93"/>
<polygon fill="midnightblue" stroke="midnightblue" points="414.46,-150.87 423.92,-146.1 413.56,-143.92 414.46,-150.87"/>
</g>
<!-- Node6 -->
<g id="node6" class="node">
<title>Node6</title>
<g id="a_node6"><a xlink:href="class_catch_1_1_generators_1_1_repeat_generator.html#a24d5c2b1c09d6d220d4bd4c83f222dcb" target="_top" xlink:title=" ">
<polygon fill="white" stroke="black" points="233,-98.5 233,-128.5 361,-128.5 361,-98.5 233,-98.5"/>
<text text-anchor="start" x="241" y="-116.5" font-family="Helvetica,sans-Serif" font-size="10.00">Catch::Generators::</text>
<text text-anchor="middle" x="297" y="-105.5" font-family="Helvetica,sans-Serif" font-size="10.00">RepeatGenerator::next</text>
</a>
</g>
</g>
<!-- Node1&#45;&gt;Node6 -->
<g id="edge5" class="edge">
<title>Node1&#45;&gt;Node6</title>
<path fill="none" stroke="midnightblue" d="M413.8,-127.97C396.39,-125.8 378.08,-123.51 361.28,-121.41"/>
<polygon fill="midnightblue" stroke="midnightblue" points="413.57,-131.47 423.92,-129.24 414.44,-124.53 413.57,-131.47"/>
</g>
<!-- Node7 -->
<g id="node7" class="node">
<title>Node7</title>
<g id="a_node7"><a xlink:href="class_catch_1_1_generators_1_1_map_generator.html#aa07e2f12d38ae060c30cc30d9dc236c5" target="_top" xlink:title=" ">
<polygon fill="white" stroke="black" points="240,-49.5 240,-79.5 354,-79.5 354,-49.5 240,-49.5"/>
<text text-anchor="start" x="248" y="-67.5" font-family="Helvetica,sans-Serif" font-size="10.00">Catch::Generators::</text>
<text text-anchor="middle" x="297" y="-56.5" font-family="Helvetica,sans-Serif" font-size="10.00">MapGenerator::next</text>
</a>
</g>
</g>
<!-- Node1&#45;&gt;Node7 -->
<g id="edge6" class="edge">
<title>Node1&#45;&gt;Node7</title>
<path fill="none" stroke="midnightblue" d="M451.94,-117.71C433.04,-108.37 409.66,-97.54 388,-89.5 377.21,-85.49 365.48,-81.79 354.16,-78.52"/>
<polygon fill="midnightblue" stroke="midnightblue" points="450.59,-120.95 461.1,-122.3 453.73,-114.69 450.59,-120.95"/>
</g>
<!-- Node8 -->
<g id="node8" class="node">
<title>Node8</title>
<g id="a_node8"><a xlink:href="class_catch_1_1_generators_1_1_chunk_generator.html#a545e89f80eb1e3c953491541ea083f86" target="_top" xlink:title=" ">
<polygon fill="white" stroke="black" points="235,-0.5 235,-30.5 359,-30.5 359,-0.5 235,-0.5"/>
<text text-anchor="start" x="243" y="-18.5" font-family="Helvetica,sans-Serif" font-size="10.00">Catch::Generators::</text>
<text text-anchor="middle" x="297" y="-7.5" font-family="Helvetica,sans-Serif" font-size="10.00">ChunkGenerator::next</text>
</a>
</g>
</g>
<!-- Node1&#45;&gt;Node8 -->
<g id="edge7" class="edge">
<title>Node1&#45;&gt;Node8</title>
<path fill="none" stroke="midnightblue" d="M471.63,-114.41C452.86,-92.32 421.74,-59.62 388,-40.5 379.11,-35.46 369.15,-31.39 359.18,-28.11"/>
<polygon fill="midnightblue" stroke="midnightblue" points="469.11,-116.86 478.2,-122.31 474.49,-112.38 469.11,-116.86"/>
</g>
<!-- Node5 -->
<g id="node5" class="node">
<title>Node5</title>
<g id="a_node5"><a xlink:href="class_catch_1_1_generators_1_1_filter_generator.html#aa16886a5e41cbd3b6ffa3dd52388a3a1" target="_top" xlink:title=" ">
<polygon fill="white" stroke="black" points="0,-147.5 0,-177.5 170,-177.5 170,-147.5 0,-147.5"/>
<text text-anchor="start" x="8" y="-165.5" font-family="Helvetica,sans-Serif" font-size="10.00">Catch::Generators::</text>
<text text-anchor="middle" x="85" y="-154.5" font-family="Helvetica,sans-Serif" font-size="10.00">FilterGenerator::FilterGenerator</text>
</a>
</g>
</g>
<!-- Node4&#45;&gt;Node5 -->
<g id="edge4" class="edge">
<title>Node4&#45;&gt;Node5</title>
<path fill="none" stroke="midnightblue" d="M227.53,-162.5C209.26,-162.5 189.3,-162.5 170.28,-162.5"/>
<polygon fill="midnightblue" stroke="midnightblue" points="227.78,-166 237.78,-162.5 227.78,-159 227.78,-166"/>
</g>
</g>
</svg>
