<?xml version="1.0" encoding="UTF-8" standalone="no"?>
<!DOCTYPE svg PUBLIC "-//W3C//DTD SVG 1.1//EN"
 "http://www.w3.org/Graphics/SVG/1.1/DTD/svg11.dtd">
<!-- Generated by graphviz version 2.43.0 (0)
 -->
<!-- Title: Catch::XmlReporter::sectionStarting Pages: 1 -->
<svg width="534pt" height="229pt"
 viewBox="0.00 0.00 534.00 229.11" xmlns="http://www.w3.org/2000/svg" xmlns:xlink="http://www.w3.org/1999/xlink">
<g id="graph0" class="graph" transform="scale(1 1) rotate(0) translate(4 225.11)">
<title>Catch::XmlReporter::sectionStarting</title>
<polygon fill="white" stroke="transparent" points="-4,4 -4,-225.11 530,-225.11 530,4 -4,4"/>
<!-- Node1 -->
<g id="node1" class="node">
<title>Node1</title>
<g id="a_node1"><a xlink:title=" ">
<polygon fill="#bfbfbf" stroke="black" points="0,-101.5 0,-131.5 112,-131.5 112,-101.5 0,-101.5"/>
<text text-anchor="start" x="8" y="-119.5" font-family="Helvetica,sans-Serif" font-size="10.00">Catch::XmlReporter</text>
<text text-anchor="middle" x="56" y="-108.5" font-family="Helvetica,sans-Serif" font-size="10.00">::sectionStarting</text>
</a>
</g>
</g>
<!-- Node2 -->
<g id="node2" class="node">
<title>Node2</title>
<g id="a_node2"><a xlink:href="class_catch_1_1_xml_writer.html#aba98703d9852416e237de82aed4a9c4f" target="_top" xlink:title=" ">
<polygon fill="white" stroke="black" points="370,-164.5 370,-194.5 509,-194.5 509,-164.5 370,-164.5"/>
<text text-anchor="start" x="378" y="-182.5" font-family="Helvetica,sans-Serif" font-size="10.00">Catch::XmlWriter::ensure</text>
<text text-anchor="middle" x="439.5" y="-171.5" font-family="Helvetica,sans-Serif" font-size="10.00">TagClosed</text>
</a>
</g>
</g>
<!-- Node1&#45;&gt;Node2 -->
<g id="edge1" class="edge">
<title>Node1&#45;&gt;Node2</title>
<path fill="none" stroke="midnightblue" d="M66.85,-131.59C81.57,-152.6 111.53,-189.75 148,-204.5 226.9,-236.41 327.48,-215.62 387.22,-197.59"/>
<polygon fill="midnightblue" stroke="midnightblue" points="388.29,-200.92 396.8,-194.61 386.21,-194.24 388.29,-200.92"/>
</g>
<!-- Node3 -->
<g id="node3" class="node">
<title>Node3</title>
<g id="a_node3"><a xlink:href="struct_catch_1_1_streaming_reporter_base.html#a249cfe647a373a77d118e4c564422e49" target="_top" xlink:title=" ">
<polygon fill="white" stroke="black" points="161,-164.5 161,-194.5 304,-194.5 304,-164.5 161,-164.5"/>
<text text-anchor="start" x="169" y="-182.5" font-family="Helvetica,sans-Serif" font-size="10.00">Catch::StreamingReporter</text>
<text text-anchor="middle" x="232.5" y="-171.5" font-family="Helvetica,sans-Serif" font-size="10.00">Base::sectionStarting</text>
</a>
</g>
</g>
<!-- Node1&#45;&gt;Node3 -->
<g id="edge2" class="edge">
<title>Node1&#45;&gt;Node3</title>
<path fill="none" stroke="midnightblue" d="M90.81,-131.61C107.8,-138.95 128.81,-147.64 148,-154.5 154.51,-156.83 161.36,-159.12 168.21,-161.32"/>
<polygon fill="midnightblue" stroke="midnightblue" points="167.63,-164.8 178.22,-164.46 169.73,-158.12 167.63,-164.8"/>
</g>
<!-- Node4 -->
<g id="node4" class="node">
<title>Node4</title>
<g id="a_node4"><a xlink:href="class_catch_1_1_xml_writer.html#a5e5190bcb1f47a76ddca863591a6cc00" target="_top" xlink:title=" ">
<polygon fill="white" stroke="black" points="148,-126 148,-145 317,-145 317,-126 148,-126"/>
<text text-anchor="middle" x="232.5" y="-133" font-family="Helvetica,sans-Serif" font-size="10.00">Catch::XmlWriter::startElement</text>
</a>
</g>
</g>
<!-- Node1&#45;&gt;Node4 -->
<g id="edge3" class="edge">
<title>Node1&#45;&gt;Node4</title>
<path fill="none" stroke="midnightblue" d="M112.21,-122.51C120.48,-123.41 129.2,-124.36 138,-125.32"/>
<polygon fill="midnightblue" stroke="midnightblue" points="137.64,-128.8 147.96,-126.4 138.39,-121.84 137.64,-128.8"/>
</g>
<!-- Node5 -->
<g id="node5" class="node">
<title>Node5</title>
<g id="a_node5"><a xlink:href="namespace_catch.html#aea28035c2fa625ced568c1765e82a3bc" target="_top" xlink:title="Returns a new string without whitespace at the start/end.">
<polygon fill="white" stroke="black" points="197,-88 197,-107 268,-107 268,-88 197,-88"/>
<text text-anchor="middle" x="232.5" y="-95" font-family="Helvetica,sans-Serif" font-size="10.00">Catch::trim</text>
</a>
</g>
</g>
<!-- Node1&#45;&gt;Node5 -->
<g id="edge5" class="edge">
<title>Node1&#45;&gt;Node5</title>
<path fill="none" stroke="midnightblue" d="M112.21,-110.49C136.28,-107.87 164.13,-104.83 186.87,-102.36"/>
<polygon fill="midnightblue" stroke="midnightblue" points="187.36,-105.83 196.92,-101.27 186.6,-98.87 187.36,-105.83"/>
</g>
<!-- Node6 -->
<g id="node6" class="node">
<title>Node6</title>
<g id="a_node6"><a xlink:href="class_catch_1_1_xml_writer.html#ad433310b59d30e0fedc7130dc11c563b" target="_top" xlink:title=" ">
<polygon fill="white" stroke="black" points="353,-28 353,-47 526,-47 526,-28 353,-28"/>
<text text-anchor="middle" x="439.5" y="-35" font-family="Helvetica,sans-Serif" font-size="10.00">Catch::XmlWriter::writeAttribute</text>
</a>
</g>
</g>
<!-- Node1&#45;&gt;Node6 -->
<g id="edge6" class="edge">
<title>Node1&#45;&gt;Node6</title>
<path fill="none" stroke="midnightblue" d="M87.47,-101.47C104.83,-93.5 127.2,-84.21 148,-78.5 211.71,-61.01 285.44,-50.72 342.68,-44.82"/>
<polygon fill="midnightblue" stroke="midnightblue" points="343.2,-48.29 352.8,-43.81 342.5,-41.32 343.2,-48.29"/>
</g>
<!-- Node7 -->
<g id="node7" class="node">
<title>Node7</title>
<g id="a_node7"><a xlink:href="class_catch_1_1_xml_reporter.html#a190d2ae83de78e06273fa476d3729771" target="_top" xlink:title=" ">
<polygon fill="white" stroke="black" points="176.5,-0.5 176.5,-30.5 288.5,-30.5 288.5,-0.5 176.5,-0.5"/>
<text text-anchor="start" x="184.5" y="-18.5" font-family="Helvetica,sans-Serif" font-size="10.00">Catch::XmlReporter</text>
<text text-anchor="middle" x="232.5" y="-7.5" font-family="Helvetica,sans-Serif" font-size="10.00">::writeSourceInfo</text>
</a>
</g>
</g>
<!-- Node1&#45;&gt;Node7 -->
<g id="edge7" class="edge">
<title>Node1&#45;&gt;Node7</title>
<path fill="none" stroke="midnightblue" d="M72.98,-101.44C90.32,-85.74 119.39,-61.27 148,-45.5 155.47,-41.38 163.61,-37.65 171.78,-34.32"/>
<polygon fill="midnightblue" stroke="midnightblue" points="173.3,-37.48 181.35,-30.59 170.77,-30.96 173.3,-37.48"/>
</g>
<!-- Node4&#45;&gt;Node2 -->
<g id="edge4" class="edge">
<title>Node4&#45;&gt;Node2</title>
<path fill="none" stroke="midnightblue" d="M277.98,-145.05C301.89,-150.18 332.09,-156.66 359.82,-162.61"/>
<polygon fill="midnightblue" stroke="midnightblue" points="359.4,-166.1 369.91,-164.78 360.87,-159.26 359.4,-166.1"/>
</g>
<!-- Node7&#45;&gt;Node6 -->
<g id="edge8" class="edge">
<title>Node7&#45;&gt;Node6</title>
<path fill="none" stroke="midnightblue" d="M288.71,-21.42C305.39,-23.22 324.22,-25.24 342.75,-27.22"/>
<polygon fill="midnightblue" stroke="midnightblue" points="342.39,-30.71 352.7,-28.29 343.13,-23.75 342.39,-30.71"/>
</g>
</g>
</svg>
