<?xml version="1.0" encoding="UTF-8" standalone="no"?>
<!DOCTYPE svg PUBLIC "-//W3C//DTD SVG 1.1//EN"
 "http://www.w3.org/Graphics/SVG/1.1/DTD/svg11.dtd">
<!-- Generated by graphviz version 2.43.0 (0)
 -->
<!-- Title: IStatment::eval Pages: 1 -->
<svg width="388pt" height="104pt"
 viewBox="0.00 0.00 388.00 104.00" xmlns="http://www.w3.org/2000/svg" xmlns:xlink="http://www.w3.org/1999/xlink">
<g id="graph0" class="graph" transform="scale(1 1) rotate(0) translate(4 100)">
<title>IStatment::eval</title>
<polygon fill="white" stroke="transparent" points="-4,4 -4,-100 384,-100 384,4 -4,4"/>
<!-- Node1 -->
<g id="node1" class="node">
<title>Node1</title>
<g id="a_node1"><a xlink:title="Function uesed to evaluate statment in the scope.">
<polygon fill="#bfbfbf" stroke="black" points="288,-38.5 288,-57.5 380,-57.5 380,-38.5 288,-38.5"/>
<text text-anchor="middle" x="334" y="-45.5" font-family="Helvetica,sans-Serif" font-size="10.00">IStatment::eval</text>
</a>
</g>
</g>
<!-- Node2 -->
<g id="node2" class="node">
<title>Node2</title>
<g id="a_node2"><a xlink:href="class_loop.html#aab33bee4801f7a0eaf7c542825a812ed" target="_top" xlink:title="Evaluates all statments in block as long as condition is true.">
<polygon fill="white" stroke="black" points="163,-76.5 163,-95.5 230,-95.5 230,-76.5 163,-76.5"/>
<text text-anchor="middle" x="196.5" y="-83.5" font-family="Helvetica,sans-Serif" font-size="10.00">Loop::eval</text>
</a>
</g>
</g>
<!-- Node1&#45;&gt;Node2 -->
<g id="edge1" class="edge">
<title>Node1&#45;&gt;Node2</title>
<path fill="none" stroke="midnightblue" d="M289.11,-60.31C269.98,-65.67 247.95,-71.85 230.28,-76.81"/>
<polygon fill="midnightblue" stroke="midnightblue" points="290.12,-63.66 298.81,-57.59 288.23,-56.92 290.12,-63.66"/>
</g>
<!-- Node3 -->
<g id="node3" class="node">
<title>Node3</title>
<g id="a_node3"><a xlink:href="class_conditional.html#ad5e0729431c9cd0f7e480e605e564800" target="_top" xlink:title="Evaluates all the statments in either true or false block depending on evaluation of condition (all i...">
<polygon fill="white" stroke="black" points="147,-38.5 147,-57.5 246,-57.5 246,-38.5 147,-38.5"/>
<text text-anchor="middle" x="196.5" y="-45.5" font-family="Helvetica,sans-Serif" font-size="10.00">Conditional::eval</text>
</a>
</g>
</g>
<!-- Node1&#45;&gt;Node3 -->
<g id="edge2" class="edge">
<title>Node1&#45;&gt;Node3</title>
<path fill="none" stroke="midnightblue" d="M277.62,-48C267.19,-48 256.35,-48 246.15,-48"/>
<polygon fill="midnightblue" stroke="midnightblue" points="277.88,-51.5 287.88,-48 277.88,-44.5 277.88,-51.5"/>
</g>
<!-- Node4 -->
<g id="node4" class="node">
<title>Node4</title>
<g id="a_node4"><a xlink:href="class_binding_usage.html#a48b8cc69f900054b9d07a05141454c1f" target="_top" xlink:title="Evaluates variable in scope and returns updated value of the variable.">
<polygon fill="white" stroke="black" points="141,-0.5 141,-19.5 252,-19.5 252,-0.5 141,-0.5"/>
<text text-anchor="middle" x="196.5" y="-7.5" font-family="Helvetica,sans-Serif" font-size="10.00">BindingUsage::eval</text>
</a>
</g>
</g>
<!-- Node1&#45;&gt;Node4 -->
<g id="edge3" class="edge">
<title>Node1&#45;&gt;Node4</title>
<path fill="none" stroke="midnightblue" d="M289.08,-35.68C270.46,-30.46 249.09,-24.47 231.68,-19.59"/>
<polygon fill="midnightblue" stroke="midnightblue" points="288.23,-39.08 298.81,-38.41 290.12,-32.34 288.23,-39.08"/>
</g>
<!-- Node5 -->
<g id="node5" class="node">
<title>Node5</title>
<g id="a_node5"><a xlink:href="class_expr_variable.html#a342a03728761cf098697fdc4df4feed4" target="_top" xlink:title="Evaluates to value of the variable in scopr.">
<polygon fill="white" stroke="black" points="0,-0.5 0,-19.5 105,-19.5 105,-0.5 0,-0.5"/>
<text text-anchor="middle" x="52.5" y="-7.5" font-family="Helvetica,sans-Serif" font-size="10.00">ExprVariable::eval</text>
</a>
</g>
</g>
<!-- Node4&#45;&gt;Node5 -->
<g id="edge4" class="edge">
<title>Node4&#45;&gt;Node5</title>
<path fill="none" stroke="midnightblue" d="M130.46,-10C122.08,-10 113.59,-10 105.46,-10"/>
<polygon fill="midnightblue" stroke="midnightblue" points="130.6,-13.5 140.6,-10 130.6,-6.5 130.6,-13.5"/>
</g>
</g>
</svg>
