<?xml version="1.0" encoding="UTF-8" standalone="no"?>
<!DOCTYPE svg PUBLIC "-//W3C//DTD SVG 1.1//EN"
 "http://www.w3.org/Graphics/SVG/1.1/DTD/svg11.dtd">
<!-- Generated by graphviz version 2.43.0 (0)
 -->
<!-- Title: Catch::AssertionHandler::handleExpr Pages: 1 -->
<svg width="361pt" height="57pt"
 viewBox="0.00 0.00 361.00 57.00" xmlns="http://www.w3.org/2000/svg" xmlns:xlink="http://www.w3.org/1999/xlink">
<g id="graph0" class="graph" transform="scale(1 1) rotate(0) translate(4 53)">
<title>Catch::AssertionHandler::handleExpr</title>
<polygon fill="white" stroke="transparent" points="-4,4 -4,-53 357,-53 357,4 -4,4"/>
<!-- Node1 -->
<g id="node1" class="node">
<title>Node1</title>
<g id="a_node1"><a xlink:title=" ">
<polygon fill="#bfbfbf" stroke="black" points="219,-0.5 219,-30.5 353,-30.5 353,-0.5 219,-0.5"/>
<text text-anchor="start" x="227" y="-18.5" font-family="Helvetica,sans-Serif" font-size="10.00">Catch::AssertionHandler</text>
<text text-anchor="middle" x="286" y="-7.5" font-family="Helvetica,sans-Serif" font-size="10.00">::handleExpr</text>
</a>
</g>
</g>
<!-- Node1&#45;&gt;Node1 -->
<g id="edge2" class="edge">
<title>Node1&#45;&gt;Node1</title>
<path fill="none" stroke="midnightblue" d="M320.47,-40.96C316.19,-45.68 304.7,-49 286,-49 255.31,-49 244.04,-40.06 252.19,-30.66"/>
<polygon fill="midnightblue" stroke="midnightblue" points="323.94,-40.41 319.81,-30.66 316.96,-40.86 323.94,-40.41"/>
</g>
<!-- Node2 -->
<g id="node2" class="node">
<title>Node2</title>
<g id="a_node2"><a xlink:href="namespace_catch.html#a3a96a82307107087642e22fc4be5844d" target="_top" xlink:title=" ">
<polygon fill="white" stroke="black" points="0,-6 0,-25 183,-25 183,-6 0,-6"/>
<text text-anchor="middle" x="91.5" y="-13" font-family="Helvetica,sans-Serif" font-size="10.00">Catch::handleExceptionMatchExpr</text>
</a>
</g>
</g>
<!-- Node1&#45;&gt;Node2 -->
<g id="edge1" class="edge">
<title>Node1&#45;&gt;Node2</title>
<path fill="none" stroke="midnightblue" d="M208.61,-15.5C200.2,-15.5 191.58,-15.5 183.01,-15.5"/>
<polygon fill="midnightblue" stroke="midnightblue" points="208.75,-19 218.75,-15.5 208.75,-12 208.75,-19"/>
</g>
</g>
</svg>
