<?xml version="1.0" encoding="UTF-8" standalone="no"?>
<!DOCTYPE svg PUBLIC "-//W3C//DTD SVG 1.1//EN"
 "http://www.w3.org/Graphics/SVG/1.1/DTD/svg11.dtd">
<!-- Generated by graphviz version 2.43.0 (0)
 -->
<!-- Title: Catch::RunContext::sectionStarted Pages: 1 -->
<svg width="508pt" height="235pt"
 viewBox="0.00 0.00 508.00 235.00" xmlns="http://www.w3.org/2000/svg" xmlns:xlink="http://www.w3.org/1999/xlink">
<g id="graph0" class="graph" transform="scale(1 1) rotate(0) translate(4 231)">
<title>Catch::RunContext::sectionStarted</title>
<polygon fill="white" stroke="transparent" points="-4,4 -4,-231 504,-231 504,4 -4,4"/>
<!-- Node1 -->
<g id="node1" class="node">
<title>Node1</title>
<g id="a_node1"><a xlink:title=" ">
<polygon fill="#bfbfbf" stroke="black" points="0,-73.5 0,-103.5 113,-103.5 113,-73.5 0,-73.5"/>
<text text-anchor="start" x="8" y="-91.5" font-family="Helvetica,sans-Serif" font-size="10.00">Catch::RunContext::</text>
<text text-anchor="middle" x="56.5" y="-80.5" font-family="Helvetica,sans-Serif" font-size="10.00">sectionStarted</text>
</a>
</g>
</g>
<!-- Node2 -->
<g id="node2" class="node">
<title>Node2</title>
<g id="a_node2"><a xlink:href="class_catch_1_1_test_case_tracking_1_1_section_tracker.html#a30bdd2cd2f15dd29bb4f14ddc029b332" target="_top" xlink:title=" ">
<polygon fill="white" stroke="black" points="149,-98.5 149,-128.5 284,-128.5 284,-98.5 149,-98.5"/>
<text text-anchor="start" x="157" y="-116.5" font-family="Helvetica,sans-Serif" font-size="10.00">Catch::TestCaseTracking</text>
<text text-anchor="middle" x="216.5" y="-105.5" font-family="Helvetica,sans-Serif" font-size="10.00">::SectionTracker::acquire</text>
</a>
</g>
</g>
<!-- Node1&#45;&gt;Node2 -->
<g id="edge1" class="edge">
<title>Node1&#45;&gt;Node2</title>
<path fill="none" stroke="midnightblue" d="M113.2,-97.31C121.51,-98.63 130.18,-100 138.83,-101.37"/>
<polygon fill="midnightblue" stroke="midnightblue" points="138.5,-104.86 148.93,-102.97 139.6,-97.95 138.5,-104.86"/>
</g>
<!-- Node8 -->
<g id="node8" class="node">
<title>Node8</title>
<g id="a_node8"><a xlink:href="class_catch_1_1_test_case_tracking_1_1_i_tracker.html#a72617a6781de28006a37218b3d9cc624" target="_top" xlink:title=" ">
<polygon fill="white" stroke="black" points="149.5,-49.5 149.5,-79.5 283.5,-79.5 283.5,-49.5 149.5,-49.5"/>
<text text-anchor="start" x="157.5" y="-67.5" font-family="Helvetica,sans-Serif" font-size="10.00">Catch::TestCaseTracking</text>
<text text-anchor="middle" x="216.5" y="-56.5" font-family="Helvetica,sans-Serif" font-size="10.00">::ITracker::isOpen</text>
</a>
</g>
</g>
<!-- Node1&#45;&gt;Node8 -->
<g id="edge7" class="edge">
<title>Node1&#45;&gt;Node8</title>
<path fill="none" stroke="midnightblue" d="M113.2,-80.04C121.73,-78.74 130.64,-77.39 139.51,-76.04"/>
<polygon fill="midnightblue" stroke="midnightblue" points="140.12,-79.49 149.48,-74.53 139.06,-72.57 140.12,-79.49"/>
</g>
<!-- Node3 -->
<g id="node3" class="node">
<title>Node3</title>
<g id="a_node3"><a xlink:href="class_catch_1_1_test_case_tracking_1_1_i_tracker.html#afd8da278a151a96992f2bf029f7a70c0" target="_top" xlink:title=" ">
<polygon fill="white" stroke="black" points="343,-196.5 343,-226.5 477,-226.5 477,-196.5 343,-196.5"/>
<text text-anchor="start" x="351" y="-214.5" font-family="Helvetica,sans-Serif" font-size="10.00">Catch::TestCaseTracking</text>
<text text-anchor="middle" x="410" y="-203.5" font-family="Helvetica,sans-Serif" font-size="10.00">::ITracker::addChild</text>
</a>
</g>
</g>
<!-- Node2&#45;&gt;Node3 -->
<g id="edge2" class="edge">
<title>Node2&#45;&gt;Node3</title>
<path fill="none" stroke="midnightblue" d="M234.4,-128.7C253.77,-145.37 287.1,-171.84 320,-187.5 324.29,-189.54 328.78,-191.43 333.37,-193.18"/>
<polygon fill="midnightblue" stroke="midnightblue" points="332.3,-196.52 342.89,-196.57 334.65,-189.92 332.3,-196.52"/>
</g>
<!-- Node4 -->
<g id="node4" class="node">
<title>Node4</title>
<g id="a_node4"><a xlink:href="class_catch_1_1_test_case_tracking_1_1_tracker_context.html#ab1af8d52dfe96cdb55a7a6da24cb70d6" target="_top" xlink:title=" ">
<polygon fill="white" stroke="black" points="320,-147.5 320,-177.5 500,-177.5 500,-147.5 320,-147.5"/>
<text text-anchor="start" x="328" y="-165.5" font-family="Helvetica,sans-Serif" font-size="10.00">Catch::TestCaseTracking</text>
<text text-anchor="middle" x="410" y="-154.5" font-family="Helvetica,sans-Serif" font-size="10.00">::TrackerContext::completedCycle</text>
</a>
</g>
</g>
<!-- Node2&#45;&gt;Node4 -->
<g id="edge3" class="edge">
<title>Node2&#45;&gt;Node4</title>
<path fill="none" stroke="midnightblue" d="M276.26,-128.53C296.57,-133.73 319.51,-139.6 340.53,-144.98"/>
<polygon fill="midnightblue" stroke="midnightblue" points="339.8,-148.41 350.35,-147.49 341.53,-141.62 339.8,-148.41"/>
</g>
<!-- Node5 -->
<g id="node5" class="node">
<title>Node5</title>
<g id="a_node5"><a xlink:href="class_catch_1_1_test_case_tracking_1_1_tracker_context.html#a9294627e8f7cb5774cc17579f3558d0d" target="_top" xlink:title=" ">
<polygon fill="white" stroke="black" points="325,-98.5 325,-128.5 495,-128.5 495,-98.5 325,-98.5"/>
<text text-anchor="start" x="333" y="-116.5" font-family="Helvetica,sans-Serif" font-size="10.00">Catch::TestCaseTracking</text>
<text text-anchor="middle" x="410" y="-105.5" font-family="Helvetica,sans-Serif" font-size="10.00">::TrackerContext::currentTracker</text>
</a>
</g>
</g>
<!-- Node2&#45;&gt;Node5 -->
<g id="edge4" class="edge">
<title>Node2&#45;&gt;Node5</title>
<path fill="none" stroke="midnightblue" d="M284.21,-113.5C294,-113.5 304.25,-113.5 314.47,-113.5"/>
<polygon fill="midnightblue" stroke="midnightblue" points="314.67,-117 324.67,-113.5 314.67,-110 314.67,-117"/>
</g>
<!-- Node6 -->
<g id="node6" class="node">
<title>Node6</title>
<g id="a_node6"><a xlink:href="class_catch_1_1_test_case_tracking_1_1_i_tracker.html#a6d3d8fa8b48f03df71eaf994a2edc528" target="_top" xlink:title=" ">
<polygon fill="white" stroke="black" points="343,-49.5 343,-79.5 477,-79.5 477,-49.5 343,-49.5"/>
<text text-anchor="start" x="351" y="-67.5" font-family="Helvetica,sans-Serif" font-size="10.00">Catch::TestCaseTracking</text>
<text text-anchor="middle" x="410" y="-56.5" font-family="Helvetica,sans-Serif" font-size="10.00">::ITracker::findChild</text>
</a>
</g>
</g>
<!-- Node2&#45;&gt;Node6 -->
<g id="edge5" class="edge">
<title>Node2&#45;&gt;Node6</title>
<path fill="none" stroke="midnightblue" d="M276.26,-98.47C296.57,-93.27 319.51,-87.4 340.53,-82.02"/>
<polygon fill="midnightblue" stroke="midnightblue" points="341.53,-85.38 350.35,-79.51 339.8,-78.59 341.53,-85.38"/>
</g>
<!-- Node7 -->
<g id="node7" class="node">
<title>Node7</title>
<g id="a_node7"><a xlink:href="class_catch_1_1_test_case_tracking_1_1_i_tracker.html#a238e8f123d4bbc4bcefd615ae4a5d2d3" target="_top" xlink:title=" ">
<polygon fill="white" stroke="black" points="333,-0.5 333,-30.5 487,-30.5 487,-0.5 333,-0.5"/>
<text text-anchor="start" x="341" y="-18.5" font-family="Helvetica,sans-Serif" font-size="10.00">Catch::TestCaseTracking</text>
<text text-anchor="middle" x="410" y="-7.5" font-family="Helvetica,sans-Serif" font-size="10.00">::ITracker::nameAndLocation</text>
</a>
</g>
</g>
<!-- Node2&#45;&gt;Node7 -->
<g id="edge6" class="edge">
<title>Node2&#45;&gt;Node7</title>
<path fill="none" stroke="midnightblue" d="M269.2,-98.37C274.43,-95.82 279.48,-92.88 284,-89.5 305.65,-73.32 297.78,-55.88 320,-40.5 322.86,-38.52 325.87,-36.7 328.99,-35.02"/>
<polygon fill="midnightblue" stroke="midnightblue" points="330.54,-38.16 338.02,-30.66 327.49,-31.86 330.54,-38.16"/>
</g>
</g>
</svg>
