<?xml version="1.0" encoding="UTF-8" standalone="no"?>
<!DOCTYPE svg PUBLIC "-//W3C//DTD SVG 1.1//EN"
 "http://www.w3.org/Graphics/SVG/1.1/DTD/svg11.dtd">
<!-- Generated by graphviz version 2.43.0 (0)
 -->
<!-- Title: Catch::clara::detail::BasicResult&lt; T &gt; Pages: 1 -->
<svg width="280pt" height="525pt"
 viewBox="0.00 0.00 280.00 525.00" xmlns="http://www.w3.org/2000/svg" xmlns:xlink="http://www.w3.org/1999/xlink">
<g id="graph0" class="graph" transform="scale(1 1) rotate(0) translate(4 521)">
<title>Catch::clara::detail::BasicResult&lt; T &gt;</title>
<polygon fill="white" stroke="transparent" points="-4,4 -4,-521 276,-521 276,4 -4,4"/>
<!-- Node1 -->
<g id="node1" class="node">
<title>Node1</title>
<g id="a_node1"><a xlink:title=" ">
<polygon fill="#bfbfbf" stroke="black" points="105,-0.5 105,-167.5 213,-167.5 213,-0.5 105,-0.5"/>
<text text-anchor="start" x="113" y="-155.5" font-family="Helvetica,sans-Serif" font-size="10.00">Catch::clara::detail</text>
<text text-anchor="middle" x="159" y="-144.5" font-family="Helvetica,sans-Serif" font-size="10.00">::BasicResult&lt; T &gt;</text>
<polyline fill="none" stroke="black" points="105,-137.5 213,-137.5 "/>
<text text-anchor="start" x="113" y="-125.5" font-family="Helvetica,sans-Serif" font-size="10.00"># m_type</text>
<polyline fill="none" stroke="black" points="105,-118.5 213,-118.5 "/>
<text text-anchor="start" x="113" y="-106.5" font-family="Helvetica,sans-Serif" font-size="10.00">+ BasicResult()</text>
<text text-anchor="start" x="113" y="-95.5" font-family="Helvetica,sans-Serif" font-size="10.00">+ operator bool()</text>
<text text-anchor="start" x="113" y="-84.5" font-family="Helvetica,sans-Serif" font-size="10.00">+ type()</text>
<text text-anchor="start" x="113" y="-73.5" font-family="Helvetica,sans-Serif" font-size="10.00">+ errorMessage()</text>
<text text-anchor="start" x="113" y="-62.5" font-family="Helvetica,sans-Serif" font-size="10.00">+ ok()</text>
<text text-anchor="start" x="113" y="-51.5" font-family="Helvetica,sans-Serif" font-size="10.00">+ ok()</text>
<text text-anchor="start" x="113" y="-40.5" font-family="Helvetica,sans-Serif" font-size="10.00">+ logicError()</text>
<text text-anchor="start" x="113" y="-29.5" font-family="Helvetica,sans-Serif" font-size="10.00">+ runtimeError()</text>
<text text-anchor="start" x="113" y="-18.5" font-family="Helvetica,sans-Serif" font-size="10.00"># enforceOk()</text>
<text text-anchor="start" x="113" y="-7.5" font-family="Helvetica,sans-Serif" font-size="10.00"># BasicResult()</text>
</a>
</g>
</g>
<!-- Node2 -->
<g id="node2" class="node">
<title>Node2</title>
<g id="a_node2"><a xlink:href="class_catch_1_1clara_1_1detail_1_1_result_value_base_3_01void_01_4.html" target="_top" xlink:title=" ">
<polygon fill="white" stroke="black" points="0,-215.5 0,-283.5 148,-283.5 148,-215.5 0,-215.5"/>
<text text-anchor="start" x="8" y="-271.5" font-family="Helvetica,sans-Serif" font-size="10.00">Catch::clara::detail</text>
<text text-anchor="middle" x="74" y="-260.5" font-family="Helvetica,sans-Serif" font-size="10.00">::ResultValueBase&lt; void &gt;</text>
<polyline fill="none" stroke="black" points="0,-253.5 148,-253.5 "/>
<text text-anchor="middle" x="74" y="-241.5" font-family="Helvetica,sans-Serif" font-size="10.00"> </text>
<polyline fill="none" stroke="black" points="0,-234.5 148,-234.5 "/>
<text text-anchor="start" x="8" y="-222.5" font-family="Helvetica,sans-Serif" font-size="10.00"># ResultBase()</text>
</a>
</g>
</g>
<!-- Node2&#45;&gt;Node1 -->
<g id="edge1" class="edge">
<title>Node2&#45;&gt;Node1</title>
<path fill="none" stroke="midnightblue" d="M95.97,-206.25C102.13,-194.4 109.05,-181.09 115.98,-167.74"/>
<polygon fill="none" stroke="midnightblue" points="92.71,-204.93 91.2,-215.41 98.92,-208.16 92.71,-204.93"/>
</g>
<!-- Node3 -->
<g id="node3" class="node">
<title>Node3</title>
<g id="a_node3"><a xlink:href="class_catch_1_1clara_1_1detail_1_1_result_base.html" target="_top" xlink:title=" ">
<polygon fill="white" stroke="black" points="20,-321.5 20,-411.5 128,-411.5 128,-321.5 20,-321.5"/>
<text text-anchor="start" x="28" y="-399.5" font-family="Helvetica,sans-Serif" font-size="10.00">Catch::clara::detail</text>
<text text-anchor="middle" x="74" y="-388.5" font-family="Helvetica,sans-Serif" font-size="10.00">::ResultBase</text>
<polyline fill="none" stroke="black" points="20,-381.5 128,-381.5 "/>
<text text-anchor="middle" x="74" y="-369.5" font-family="Helvetica,sans-Serif" font-size="10.00"> </text>
<polyline fill="none" stroke="black" points="20,-362.5 128,-362.5 "/>
<text text-anchor="start" x="28" y="-350.5" font-family="Helvetica,sans-Serif" font-size="10.00"># ResultBase()</text>
<text text-anchor="start" x="28" y="-339.5" font-family="Helvetica,sans-Serif" font-size="10.00"># ~ResultBase()</text>
<text text-anchor="start" x="28" y="-328.5" font-family="Helvetica,sans-Serif" font-size="10.00"># enforceOk()</text>
</a>
</g>
</g>
<!-- Node3&#45;&gt;Node2 -->
<g id="edge2" class="edge">
<title>Node3&#45;&gt;Node2</title>
<path fill="none" stroke="midnightblue" d="M74,-311.23C74,-301.8 74,-292.26 74,-283.62"/>
<polygon fill="none" stroke="midnightblue" points="70.5,-311.37 74,-321.37 77.5,-311.37 70.5,-311.37"/>
</g>
<!-- Node4 -->
<g id="node4" class="node">
<title>Node4</title>
<g id="a_node4"><a xlink:title=" ">
<polygon fill="white" stroke="#bfbfbf" points="54.5,-459.5 54.5,-516.5 93.5,-516.5 93.5,-459.5 54.5,-459.5"/>
<text text-anchor="middle" x="74" y="-504.5" font-family="Helvetica,sans-Serif" font-size="10.00">Type</text>
<polyline fill="none" stroke="#bfbfbf" points="54.5,-497.5 93.5,-497.5 "/>
<text text-anchor="middle" x="74" y="-485.5" font-family="Helvetica,sans-Serif" font-size="10.00"> </text>
<polyline fill="none" stroke="#bfbfbf" points="54.5,-478.5 93.5,-478.5 "/>
<text text-anchor="middle" x="74" y="-466.5" font-family="Helvetica,sans-Serif" font-size="10.00"> </text>
</a>
</g>
</g>
<!-- Node4&#45;&gt;Node3 -->
<g id="edge3" class="edge">
<title>Node4&#45;&gt;Node3</title>
<path fill="none" stroke="#404040" d="M74,-459.28C74,-448.73 74,-436.29 74,-424.03"/>
<polygon fill="none" stroke="#404040" points="74,-423.91 70,-417.91 74,-411.91 78,-417.91 74,-423.91"/>
<text text-anchor="middle" x="98.5" y="-433" font-family="Helvetica,sans-Serif" font-size="10.00"> #m_type</text>
</g>
<!-- Node5 -->
<g id="node5" class="node">
<title>Node5</title>
<g id="a_node5"><a xlink:title=" ">
<polygon fill="white" stroke="#bfbfbf" points="166,-221 166,-278 210,-278 210,-221 166,-221"/>
<text text-anchor="middle" x="188" y="-266" font-family="Helvetica,sans-Serif" font-size="10.00">string</text>
<polyline fill="none" stroke="#bfbfbf" points="166,-259 210,-259 "/>
<text text-anchor="middle" x="188" y="-247" font-family="Helvetica,sans-Serif" font-size="10.00"> </text>
<polyline fill="none" stroke="#bfbfbf" points="166,-240 210,-240 "/>
<text text-anchor="middle" x="188" y="-228" font-family="Helvetica,sans-Serif" font-size="10.00"> </text>
</a>
</g>
</g>
<!-- Node5&#45;&gt;Node1 -->
<g id="edge4" class="edge">
<title>Node5&#45;&gt;Node1</title>
<path fill="none" stroke="#404040" d="M183.08,-220.76C181,-209.05 178.45,-194.65 175.79,-179.66"/>
<polygon fill="none" stroke="#404040" points="175.74,-179.36 170.75,-174.15 173.64,-167.55 178.63,-172.75 175.74,-179.36"/>
<text text-anchor="middle" x="225" y="-189" font-family="Helvetica,sans-Serif" font-size="10.00"> #m_errorMessage</text>
</g>
</g>
</svg>
