<?xml version="1.0" encoding="UTF-8" standalone="no"?>
<!DOCTYPE svg PUBLIC "-//W3C//DTD SVG 1.1//EN"
 "http://www.w3.org/Graphics/SVG/1.1/DTD/svg11.dtd">
<!-- Generated by graphviz version 2.43.0 (0)
 -->
<!-- Title: NSObject Pages: 1 -->
<svg width="158pt" height="171pt"
 viewBox="0.00 0.00 157.50 171.00" xmlns="http://www.w3.org/2000/svg" xmlns:xlink="http://www.w3.org/1999/xlink">
<g id="graph0" class="graph" transform="scale(1 1) rotate(0) translate(4 167)">
<title>NSObject</title>
<polygon fill="white" stroke="transparent" points="-4,4 -4,-167 153.5,-167 153.5,4 -4,4"/>
<!-- Node1 -->
<g id="node1" class="node">
<title>Node1</title>
<g id="a_node1"><a xlink:title=" ">
<polygon fill="#bfbfbf" stroke="black" points="46,-105.5 46,-162.5 108,-162.5 108,-105.5 46,-105.5"/>
<text text-anchor="middle" x="77" y="-150.5" font-family="Helvetica,sans-Serif" font-size="10.00">NSObject</text>
<polyline fill="none" stroke="black" points="46,-143.5 108,-143.5 "/>
<text text-anchor="middle" x="77" y="-131.5" font-family="Helvetica,sans-Serif" font-size="10.00"> </text>
<polyline fill="none" stroke="black" points="46,-124.5 108,-124.5 "/>
<text text-anchor="middle" x="77" y="-112.5" font-family="Helvetica,sans-Serif" font-size="10.00"> </text>
</a>
</g>
</g>
<!-- Node2 -->
<g id="node2" class="node">
<title>Node2</title>
<g id="a_node2"><a xlink:href="interface_test_fixture.html" target="_top" xlink:title=" ">
<polygon fill="white" stroke="black" points="0,-6 0,-63 70,-63 70,-6 0,-6"/>
<text text-anchor="middle" x="35" y="-51" font-family="Helvetica,sans-Serif" font-size="10.00">TestFixture</text>
<polyline fill="none" stroke="black" points="0,-44 70,-44 "/>
<text text-anchor="start" x="8" y="-32" font-family="Helvetica,sans-Serif" font-size="10.00"># obj</text>
<polyline fill="none" stroke="black" points="0,-25 70,-25 "/>
<text text-anchor="middle" x="35" y="-13" font-family="Helvetica,sans-Serif" font-size="10.00"> </text>
</a>
</g>
</g>
<!-- Node1&#45;&gt;Node2 -->
<g id="edge1" class="edge">
<title>Node1&#45;&gt;Node2</title>
<path fill="none" stroke="midnightblue" d="M61.08,-96.03C56.39,-85.16 51.35,-73.44 46.95,-63.25"/>
<polygon fill="none" stroke="midnightblue" points="57.91,-97.52 65.08,-105.32 64.33,-94.75 57.91,-97.52"/>
</g>
<!-- Node3 -->
<g id="node3" class="node">
<title>Node3</title>
<g id="a_node3"><a xlink:href="interface_test_obj.html" target="_top" xlink:title=" ">
<polygon fill="white" stroke="black" points="88.5,-0.5 88.5,-68.5 149.5,-68.5 149.5,-0.5 88.5,-0.5"/>
<text text-anchor="middle" x="119" y="-56.5" font-family="Helvetica,sans-Serif" font-size="10.00">TestObj</text>
<polyline fill="none" stroke="black" points="88.5,-49.5 149.5,-49.5 "/>
<text text-anchor="start" x="96.5" y="-37.5" font-family="Helvetica,sans-Serif" font-size="10.00">+ int_val</text>
<polyline fill="none" stroke="black" points="88.5,-30.5 149.5,-30.5 "/>
<text text-anchor="start" x="96.5" y="-18.5" font-family="Helvetica,sans-Serif" font-size="10.00">+ isTrue</text>
<text text-anchor="start" x="96.5" y="-7.5" font-family="Helvetica,sans-Serif" font-size="10.00">+ isFalse</text>
</a>
</g>
</g>
<!-- Node1&#45;&gt;Node3 -->
<g id="edge2" class="edge">
<title>Node1&#45;&gt;Node3</title>
<path fill="none" stroke="midnightblue" d="M92.97,-95.92C96.82,-87 100.9,-77.52 104.66,-68.79"/>
<polygon fill="none" stroke="midnightblue" points="89.67,-94.75 88.92,-105.32 96.09,-97.52 89.67,-94.75"/>
</g>
</g>
</svg>
