<?xml version="1.0" encoding="UTF-8" standalone="no"?>
<!DOCTYPE svg PUBLIC "-//W3C//DTD SVG 1.1//EN"
 "http://www.w3.org/Graphics/SVG/1.1/DTD/svg11.dtd">
<!-- Generated by graphviz version 2.43.0 (0)
 -->
<!-- Title: Catch::Config::testSpec Pages: 1 -->
<svg width="421pt" height="104pt"
 viewBox="0.00 0.00 421.00 104.00" xmlns="http://www.w3.org/2000/svg" xmlns:xlink="http://www.w3.org/1999/xlink">
<g id="graph0" class="graph" transform="scale(1 1) rotate(0) translate(4 100)">
<title>Catch::Config::testSpec</title>
<polygon fill="white" stroke="transparent" points="-4,4 -4,-100 417,-100 417,4 -4,4"/>
<!-- Node1 -->
<g id="node1" class="node">
<title>Node1</title>
<g id="a_node1"><a xlink:title=" ">
<polygon fill="#bfbfbf" stroke="black" points="284,-38.5 284,-57.5 413,-57.5 413,-38.5 284,-38.5"/>
<text text-anchor="middle" x="348.5" y="-45.5" font-family="Helvetica,sans-Serif" font-size="10.00">Catch::Config::testSpec</text>
</a>
</g>
</g>
<!-- Node2 -->
<g id="node2" class="node">
<title>Node2</title>
<g id="a_node2"><a xlink:href="namespace_catch.html#a2226866b4114853fb3ff63dbecc8b0c9" target="_top" xlink:title=" ">
<polygon fill="white" stroke="black" points="131,-76.5 131,-95.5 218,-95.5 218,-76.5 131,-76.5"/>
<text text-anchor="middle" x="174.5" y="-83.5" font-family="Helvetica,sans-Serif" font-size="10.00">Catch::listTags</text>
</a>
</g>
</g>
<!-- Node1&#45;&gt;Node2 -->
<g id="edge1" class="edge">
<title>Node1&#45;&gt;Node2</title>
<path fill="none" stroke="midnightblue" d="M294.27,-59.76C269.85,-65.16 241.29,-71.47 218.29,-76.55"/>
<polygon fill="midnightblue" stroke="midnightblue" points="295.09,-63.16 304.1,-57.59 293.58,-56.33 295.09,-63.16"/>
</g>
<!-- Node4 -->
<g id="node4" class="node">
<title>Node4</title>
<g id="a_node4"><a xlink:href="namespace_catch.html#ac2542a1569e5b9dc72206347368a921e" target="_top" xlink:title=" ">
<polygon fill="white" stroke="black" points="129.5,-38.5 129.5,-57.5 219.5,-57.5 219.5,-38.5 129.5,-38.5"/>
<text text-anchor="middle" x="174.5" y="-45.5" font-family="Helvetica,sans-Serif" font-size="10.00">Catch::listTests</text>
</a>
</g>
</g>
<!-- Node1&#45;&gt;Node4 -->
<g id="edge3" class="edge">
<title>Node1&#45;&gt;Node4</title>
<path fill="none" stroke="midnightblue" d="M273.82,-48C255.41,-48 236.23,-48 219.75,-48"/>
<polygon fill="midnightblue" stroke="midnightblue" points="273.94,-51.5 283.94,-48 273.94,-44.5 273.94,-51.5"/>
</g>
<!-- Node5 -->
<g id="node5" class="node">
<title>Node5</title>
<g id="a_node5"><a xlink:href="namespace_catch.html#a7f2d0f82056a4b9adc4204b9a1fbd117" target="_top" xlink:title=" ">
<polygon fill="white" stroke="black" points="101,-0.5 101,-19.5 248,-19.5 248,-0.5 101,-0.5"/>
<text text-anchor="middle" x="174.5" y="-7.5" font-family="Helvetica,sans-Serif" font-size="10.00">Catch::listTestsNamesOnly</text>
</a>
</g>
</g>
<!-- Node1&#45;&gt;Node5 -->
<g id="edge5" class="edge">
<title>Node1&#45;&gt;Node5</title>
<path fill="none" stroke="midnightblue" d="M294.3,-36.25C269.98,-30.87 241.55,-24.59 218.59,-19.52"/>
<polygon fill="midnightblue" stroke="midnightblue" points="293.58,-39.67 304.1,-38.41 295.09,-32.84 293.58,-39.67"/>
</g>
<!-- Node3 -->
<g id="node3" class="node">
<title>Node3</title>
<g id="a_node3"><a xlink:href="namespace_catch.html#a8267f077fd7ddf88bb182e8b9ead85d3" target="_top" xlink:title=" ">
<polygon fill="white" stroke="black" points="0,-38.5 0,-57.5 65,-57.5 65,-38.5 0,-38.5"/>
<text text-anchor="middle" x="32.5" y="-45.5" font-family="Helvetica,sans-Serif" font-size="10.00">Catch::list</text>
</a>
</g>
</g>
<!-- Node2&#45;&gt;Node3 -->
<g id="edge2" class="edge">
<title>Node2&#45;&gt;Node3</title>
<path fill="none" stroke="midnightblue" d="M126.72,-73.87C118.15,-71.61 109.3,-69.26 101,-67 89.25,-63.81 76.38,-60.21 65.06,-57.01"/>
<polygon fill="midnightblue" stroke="midnightblue" points="126.02,-77.31 136.58,-76.46 127.8,-70.54 126.02,-77.31"/>
</g>
<!-- Node4&#45;&gt;Node3 -->
<g id="edge4" class="edge">
<title>Node4&#45;&gt;Node3</title>
<path fill="none" stroke="midnightblue" d="M118.96,-48C100.71,-48 80.99,-48 65.09,-48"/>
<polygon fill="midnightblue" stroke="midnightblue" points="119.2,-51.5 129.2,-48 119.2,-44.5 119.2,-51.5"/>
</g>
<!-- Node5&#45;&gt;Node3 -->
<g id="edge6" class="edge">
<title>Node5&#45;&gt;Node3</title>
<path fill="none" stroke="midnightblue" d="M126.72,-22.13C118.15,-24.39 109.3,-26.74 101,-29 89.25,-32.19 76.38,-35.79 65.06,-38.99"/>
<polygon fill="midnightblue" stroke="midnightblue" points="127.8,-25.46 136.58,-19.54 126.02,-18.69 127.8,-25.46"/>
</g>
</g>
</svg>
