<?xml version="1.0" encoding="UTF-8" standalone="no"?>
<!DOCTYPE svg PUBLIC "-//W3C//DTD SVG 1.1//EN"
 "http://www.w3.org/Graphics/SVG/1.1/DTD/svg11.dtd">
<!-- Generated by graphviz version 2.43.0 (0)
 -->
<!-- Title: Catch::Generators::GeneratorUntypedBase Pages: 1 -->
<svg width="2083pt" height="463pt"
 viewBox="0.00 0.00 2083.00 463.00" xmlns="http://www.w3.org/2000/svg" xmlns:xlink="http://www.w3.org/1999/xlink">
<g id="graph0" class="graph" transform="scale(1 1) rotate(0) translate(4 459)">
<title>Catch::Generators::GeneratorUntypedBase</title>
<polygon fill="white" stroke="transparent" points="-4,4 -4,-459 2079,-459 2079,4 -4,4"/>
<!-- Node1 -->
<g id="node1" class="node">
<title>Node1</title>
<g id="a_node1"><a xlink:title=" ">
<polygon fill="#bfbfbf" stroke="black" points="1550.5,-331.5 1550.5,-454.5 1708.5,-454.5 1708.5,-331.5 1550.5,-331.5"/>
<text text-anchor="start" x="1558.5" y="-442.5" font-family="Helvetica,sans-Serif" font-size="10.00">Catch::Generators::</text>
<text text-anchor="middle" x="1629.5" y="-431.5" font-family="Helvetica,sans-Serif" font-size="10.00">GeneratorUntypedBase</text>
<polyline fill="none" stroke="black" points="1550.5,-424.5 1708.5,-424.5 "/>
<text text-anchor="middle" x="1629.5" y="-412.5" font-family="Helvetica,sans-Serif" font-size="10.00"> </text>
<polyline fill="none" stroke="black" points="1550.5,-405.5 1708.5,-405.5 "/>
<text text-anchor="start" x="1558.5" y="-393.5" font-family="Helvetica,sans-Serif" font-size="10.00">+ GeneratorUntypedBase()</text>
<text text-anchor="start" x="1558.5" y="-382.5" font-family="Helvetica,sans-Serif" font-size="10.00">+ ~GeneratorUntypedBase()</text>
<text text-anchor="start" x="1558.5" y="-371.5" font-family="Helvetica,sans-Serif" font-size="10.00">+ next()</text>
<text text-anchor="start" x="1558.5" y="-360.5" font-family="Helvetica,sans-Serif" font-size="10.00">+ GeneratorUntypedBase()</text>
<text text-anchor="start" x="1558.5" y="-349.5" font-family="Helvetica,sans-Serif" font-size="10.00">+ ~GeneratorUntypedBase()</text>
<text text-anchor="start" x="1558.5" y="-338.5" font-family="Helvetica,sans-Serif" font-size="10.00">+ next()</text>
</a>
</g>
</g>
<!-- Node2 -->
<g id="node2" class="node">
<title>Node2</title>
<g id="a_node2"><a xlink:href="struct_catch_1_1_generators_1_1_i_generator.html" target="_top" xlink:title=" ">
<polygon fill="white" stroke="black" points="655.5,-188 655.5,-289 765.5,-289 765.5,-188 655.5,-188"/>
<text text-anchor="start" x="663.5" y="-277" font-family="Helvetica,sans-Serif" font-size="10.00">Catch::Generators::</text>
<text text-anchor="middle" x="710.5" y="-266" font-family="Helvetica,sans-Serif" font-size="10.00">IGenerator&lt; T &gt;</text>
<polyline fill="none" stroke="black" points="655.5,-259 765.5,-259 "/>
<text text-anchor="middle" x="710.5" y="-247" font-family="Helvetica,sans-Serif" font-size="10.00"> </text>
<polyline fill="none" stroke="black" points="655.5,-240 765.5,-240 "/>
<text text-anchor="start" x="663.5" y="-228" font-family="Helvetica,sans-Serif" font-size="10.00">+ ~IGenerator()</text>
<text text-anchor="start" x="663.5" y="-217" font-family="Helvetica,sans-Serif" font-size="10.00">+ get()</text>
<text text-anchor="start" x="663.5" y="-206" font-family="Helvetica,sans-Serif" font-size="10.00">+ ~IGenerator()</text>
<text text-anchor="start" x="663.5" y="-195" font-family="Helvetica,sans-Serif" font-size="10.00">+ get()</text>
</a>
</g>
</g>
<!-- Node1&#45;&gt;Node2 -->
<g id="edge1" class="edge">
<title>Node1&#45;&gt;Node2</title>
<path fill="none" stroke="midnightblue" d="M1540.21,-377.18C1351.89,-345.93 918.8,-274.07 765.51,-248.63"/>
<polygon fill="none" stroke="midnightblue" points="1539.91,-380.68 1550.35,-378.87 1541.06,-373.78 1539.91,-380.68"/>
</g>
<!-- Node12 -->
<g id="node12" class="node">
<title>Node12</title>
<g id="a_node12"><a xlink:href="struct_catch_1_1_generators_1_1_i_generator.html" target="_top" xlink:title=" ">
<polygon fill="white" stroke="black" points="1353.5,-188 1353.5,-289 1469.5,-289 1469.5,-188 1353.5,-188"/>
<text text-anchor="start" x="1361.5" y="-277" font-family="Helvetica,sans-Serif" font-size="10.00">Catch::Generators::</text>
<text text-anchor="middle" x="1411.5" y="-266" font-family="Helvetica,sans-Serif" font-size="10.00">IGenerator&lt; Float &gt;</text>
<polyline fill="none" stroke="black" points="1353.5,-259 1469.5,-259 "/>
<text text-anchor="middle" x="1411.5" y="-247" font-family="Helvetica,sans-Serif" font-size="10.00"> </text>
<polyline fill="none" stroke="black" points="1353.5,-240 1469.5,-240 "/>
<text text-anchor="start" x="1361.5" y="-228" font-family="Helvetica,sans-Serif" font-size="10.00">+ ~IGenerator()</text>
<text text-anchor="start" x="1361.5" y="-217" font-family="Helvetica,sans-Serif" font-size="10.00">+ ~IGenerator()</text>
<text text-anchor="start" x="1361.5" y="-206" font-family="Helvetica,sans-Serif" font-size="10.00">+ get()</text>
<text text-anchor="start" x="1361.5" y="-195" font-family="Helvetica,sans-Serif" font-size="10.00">+ get()</text>
</a>
</g>
</g>
<!-- Node1&#45;&gt;Node12 -->
<g id="edge11" class="edge">
<title>Node1&#45;&gt;Node12</title>
<path fill="none" stroke="midnightblue" d="M1542.29,-330.99C1517.9,-313.93 1492,-295.81 1469.74,-280.24"/>
<polygon fill="none" stroke="midnightblue" points="1540.29,-333.86 1550.49,-336.73 1544.3,-328.13 1540.29,-333.86"/>
</g>
<!-- Node14 -->
<g id="node14" class="node">
<title>Node14</title>
<g id="a_node14"><a xlink:href="struct_catch_1_1_generators_1_1_i_generator.html" target="_top" xlink:title=" ">
<polygon fill="white" stroke="black" points="1506.5,-188 1506.5,-289 1616.5,-289 1616.5,-188 1506.5,-188"/>
<text text-anchor="start" x="1514.5" y="-277" font-family="Helvetica,sans-Serif" font-size="10.00">Catch::Generators::</text>
<text text-anchor="middle" x="1561.5" y="-266" font-family="Helvetica,sans-Serif" font-size="10.00">IGenerator&lt; int &gt;</text>
<polyline fill="none" stroke="black" points="1506.5,-259 1616.5,-259 "/>
<text text-anchor="middle" x="1561.5" y="-247" font-family="Helvetica,sans-Serif" font-size="10.00"> </text>
<polyline fill="none" stroke="black" points="1506.5,-240 1616.5,-240 "/>
<text text-anchor="start" x="1514.5" y="-228" font-family="Helvetica,sans-Serif" font-size="10.00">+ ~IGenerator()</text>
<text text-anchor="start" x="1514.5" y="-217" font-family="Helvetica,sans-Serif" font-size="10.00">+ ~IGenerator()</text>
<text text-anchor="start" x="1514.5" y="-206" font-family="Helvetica,sans-Serif" font-size="10.00">+ get()</text>
<text text-anchor="start" x="1514.5" y="-195" font-family="Helvetica,sans-Serif" font-size="10.00">+ get()</text>
</a>
</g>
</g>
<!-- Node1&#45;&gt;Node14 -->
<g id="edge13" class="edge">
<title>Node1&#45;&gt;Node14</title>
<path fill="none" stroke="midnightblue" d="M1598.31,-322.05C1593.37,-310.97 1588.35,-299.72 1583.67,-289.23"/>
<polygon fill="none" stroke="midnightblue" points="1595.16,-323.58 1602.43,-331.29 1601.55,-320.73 1595.16,-323.58"/>
</g>
<!-- Node16 -->
<g id="node16" class="node">
<title>Node16</title>
<g id="a_node16"><a xlink:href="struct_catch_1_1_generators_1_1_i_generator.html" target="_top" xlink:title=" ">
<polygon fill="white" stroke="black" points="1639,-188 1639,-289 1764,-289 1764,-188 1639,-188"/>
<text text-anchor="start" x="1647" y="-277" font-family="Helvetica,sans-Serif" font-size="10.00">Catch::Generators::</text>
<text text-anchor="middle" x="1701.5" y="-266" font-family="Helvetica,sans-Serif" font-size="10.00">IGenerator&lt; Integer &gt;</text>
<polyline fill="none" stroke="black" points="1639,-259 1764,-259 "/>
<text text-anchor="middle" x="1701.5" y="-247" font-family="Helvetica,sans-Serif" font-size="10.00"> </text>
<polyline fill="none" stroke="black" points="1639,-240 1764,-240 "/>
<text text-anchor="start" x="1647" y="-228" font-family="Helvetica,sans-Serif" font-size="10.00">+ ~IGenerator()</text>
<text text-anchor="start" x="1647" y="-217" font-family="Helvetica,sans-Serif" font-size="10.00">+ ~IGenerator()</text>
<text text-anchor="start" x="1647" y="-206" font-family="Helvetica,sans-Serif" font-size="10.00">+ get()</text>
<text text-anchor="start" x="1647" y="-195" font-family="Helvetica,sans-Serif" font-size="10.00">+ get()</text>
</a>
</g>
</g>
<!-- Node1&#45;&gt;Node16 -->
<g id="edge15" class="edge">
<title>Node1&#45;&gt;Node16</title>
<path fill="none" stroke="midnightblue" d="M1662.53,-322.05C1667.76,-310.97 1673.07,-299.72 1678.02,-289.23"/>
<polygon fill="none" stroke="midnightblue" points="1659.27,-320.75 1658.16,-331.29 1665.6,-323.74 1659.27,-320.75"/>
</g>
<!-- Node18 -->
<g id="node18" class="node">
<title>Node18</title>
<g id="a_node18"><a xlink:href="struct_catch_1_1_generators_1_1_i_generator.html" target="_top" xlink:title=" ">
<polygon fill="white" stroke="black" points="1784.5,-188 1784.5,-289 1924.5,-289 1924.5,-188 1784.5,-188"/>
<text text-anchor="start" x="1792.5" y="-277" font-family="Helvetica,sans-Serif" font-size="10.00">Catch::Generators::</text>
<text text-anchor="middle" x="1854.5" y="-266" font-family="Helvetica,sans-Serif" font-size="10.00">IGenerator&lt; std::string &gt;</text>
<polyline fill="none" stroke="black" points="1784.5,-259 1924.5,-259 "/>
<text text-anchor="middle" x="1854.5" y="-247" font-family="Helvetica,sans-Serif" font-size="10.00"> </text>
<polyline fill="none" stroke="black" points="1784.5,-240 1924.5,-240 "/>
<text text-anchor="start" x="1792.5" y="-228" font-family="Helvetica,sans-Serif" font-size="10.00">+ ~IGenerator()</text>
<text text-anchor="start" x="1792.5" y="-217" font-family="Helvetica,sans-Serif" font-size="10.00">+ ~IGenerator()</text>
<text text-anchor="start" x="1792.5" y="-206" font-family="Helvetica,sans-Serif" font-size="10.00">+ get()</text>
<text text-anchor="start" x="1792.5" y="-195" font-family="Helvetica,sans-Serif" font-size="10.00">+ get()</text>
</a>
</g>
</g>
<!-- Node1&#45;&gt;Node18 -->
<g id="edge17" class="edge">
<title>Node1&#45;&gt;Node18</title>
<path fill="none" stroke="midnightblue" d="M1716.98,-332.7C1739.29,-317.58 1762.99,-301.53 1784.3,-287.08"/>
<polygon fill="none" stroke="midnightblue" points="1714.82,-329.94 1708.51,-338.45 1718.75,-335.74 1714.82,-329.94"/>
</g>
<!-- Node20 -->
<g id="node20" class="node">
<title>Node20</title>
<g id="a_node20"><a xlink:href="struct_catch_1_1_generators_1_1_i_generator.html" target="_top" xlink:title=" ">
<polygon fill="white" stroke="black" points="1944,-182.5 1944,-294.5 2075,-294.5 2075,-182.5 1944,-182.5"/>
<text text-anchor="start" x="1952" y="-282.5" font-family="Helvetica,sans-Serif" font-size="10.00">Catch::Generators::</text>
<text text-anchor="start" x="1952" y="-271.5" font-family="Helvetica,sans-Serif" font-size="10.00">IGenerator&lt; std::vector</text>
<text text-anchor="middle" x="2009.5" y="-260.5" font-family="Helvetica,sans-Serif" font-size="10.00">&lt; T &gt; &gt;</text>
<polyline fill="none" stroke="black" points="1944,-253.5 2075,-253.5 "/>
<text text-anchor="middle" x="2009.5" y="-241.5" font-family="Helvetica,sans-Serif" font-size="10.00"> </text>
<polyline fill="none" stroke="black" points="1944,-234.5 2075,-234.5 "/>
<text text-anchor="start" x="1952" y="-222.5" font-family="Helvetica,sans-Serif" font-size="10.00">+ ~IGenerator()</text>
<text text-anchor="start" x="1952" y="-211.5" font-family="Helvetica,sans-Serif" font-size="10.00">+ ~IGenerator()</text>
<text text-anchor="start" x="1952" y="-200.5" font-family="Helvetica,sans-Serif" font-size="10.00">+ get()</text>
<text text-anchor="start" x="1952" y="-189.5" font-family="Helvetica,sans-Serif" font-size="10.00">+ get()</text>
</a>
</g>
</g>
<!-- Node1&#45;&gt;Node20 -->
<g id="edge19" class="edge">
<title>Node1&#45;&gt;Node20</title>
<path fill="none" stroke="midnightblue" d="M1718.53,-371.69C1780.76,-355.57 1864.69,-329.94 1933.5,-295 1937,-293.22 1940.51,-291.29 1943.99,-289.25"/>
<polygon fill="none" stroke="midnightblue" points="1717.56,-368.32 1708.73,-374.19 1719.29,-375.1 1717.56,-368.32"/>
</g>
<!-- Node3 -->
<g id="node3" class="node">
<title>Node3</title>
<g id="a_node3"><a xlink:href="class_catch_1_1_generators_1_1_filter_generator.html" target="_top" xlink:title=" ">
<polygon fill="white" stroke="black" points="0,-11.5 0,-134.5 119,-134.5 119,-11.5 0,-11.5"/>
<text text-anchor="start" x="8" y="-122.5" font-family="Helvetica,sans-Serif" font-size="10.00">Catch::Generators::</text>
<text text-anchor="middle" x="59.5" y="-111.5" font-family="Helvetica,sans-Serif" font-size="10.00">FilterGenerator&lt; T &gt;</text>
<polyline fill="none" stroke="black" points="0,-104.5 119,-104.5 "/>
<text text-anchor="middle" x="59.5" y="-92.5" font-family="Helvetica,sans-Serif" font-size="10.00"> </text>
<polyline fill="none" stroke="black" points="0,-85.5 119,-85.5 "/>
<text text-anchor="start" x="8" y="-73.5" font-family="Helvetica,sans-Serif" font-size="10.00">+ FilterGenerator()</text>
<text text-anchor="start" x="8" y="-62.5" font-family="Helvetica,sans-Serif" font-size="10.00">+ get()</text>
<text text-anchor="start" x="8" y="-51.5" font-family="Helvetica,sans-Serif" font-size="10.00">+ next()</text>
<text text-anchor="start" x="8" y="-40.5" font-family="Helvetica,sans-Serif" font-size="10.00">+ FilterGenerator()</text>
<text text-anchor="start" x="8" y="-29.5" font-family="Helvetica,sans-Serif" font-size="10.00">+ get()</text>
<text text-anchor="start" x="8" y="-18.5" font-family="Helvetica,sans-Serif" font-size="10.00">+ next()</text>
</a>
</g>
</g>
<!-- Node2&#45;&gt;Node3 -->
<g id="edge2" class="edge">
<title>Node2&#45;&gt;Node3</title>
<path fill="none" stroke="midnightblue" d="M645.49,-232.53C513.19,-221.57 217.63,-192.55 128.5,-146 122.51,-142.87 116.75,-139.03 111.28,-134.76"/>
<polygon fill="none" stroke="midnightblue" points="645.24,-236.02 655.49,-233.35 645.81,-229.04 645.24,-236.02"/>
</g>
<!-- Node4 -->
<g id="node4" class="node">
<title>Node4</title>
<g id="a_node4"><a xlink:href="class_catch_1_1_generators_1_1_fixed_values_generator.html" target="_top" xlink:title=" ">
<polygon fill="white" stroke="black" points="137.5,-11.5 137.5,-134.5 289.5,-134.5 289.5,-11.5 137.5,-11.5"/>
<text text-anchor="start" x="145.5" y="-122.5" font-family="Helvetica,sans-Serif" font-size="10.00">Catch::Generators::</text>
<text text-anchor="middle" x="213.5" y="-111.5" font-family="Helvetica,sans-Serif" font-size="10.00">FixedValuesGenerator&lt; T &gt;</text>
<polyline fill="none" stroke="black" points="137.5,-104.5 289.5,-104.5 "/>
<text text-anchor="middle" x="213.5" y="-92.5" font-family="Helvetica,sans-Serif" font-size="10.00"> </text>
<polyline fill="none" stroke="black" points="137.5,-85.5 289.5,-85.5 "/>
<text text-anchor="start" x="145.5" y="-73.5" font-family="Helvetica,sans-Serif" font-size="10.00">+ FixedValuesGenerator()</text>
<text text-anchor="start" x="145.5" y="-62.5" font-family="Helvetica,sans-Serif" font-size="10.00">+ get()</text>
<text text-anchor="start" x="145.5" y="-51.5" font-family="Helvetica,sans-Serif" font-size="10.00">+ next()</text>
<text text-anchor="start" x="145.5" y="-40.5" font-family="Helvetica,sans-Serif" font-size="10.00">+ FixedValuesGenerator()</text>
<text text-anchor="start" x="145.5" y="-29.5" font-family="Helvetica,sans-Serif" font-size="10.00">+ get()</text>
<text text-anchor="start" x="145.5" y="-18.5" font-family="Helvetica,sans-Serif" font-size="10.00">+ next()</text>
</a>
</g>
</g>
<!-- Node2&#45;&gt;Node4 -->
<g id="edge3" class="edge">
<title>Node2&#45;&gt;Node4</title>
<path fill="none" stroke="midnightblue" d="M645.21,-232.73C561.16,-224.46 412.38,-202.52 298.5,-146 291.92,-142.73 285.42,-138.85 279.12,-134.6"/>
<polygon fill="none" stroke="midnightblue" points="645.1,-236.23 655.38,-233.69 645.76,-229.26 645.1,-236.23"/>
</g>
<!-- Node5 -->
<g id="node5" class="node">
<title>Node5</title>
<g id="a_node5"><a xlink:href="class_catch_1_1_generators_1_1_generators.html" target="_top" xlink:title=" ">
<polygon fill="white" stroke="black" points="307.5,-11.5 307.5,-134.5 417.5,-134.5 417.5,-11.5 307.5,-11.5"/>
<text text-anchor="start" x="315.5" y="-122.5" font-family="Helvetica,sans-Serif" font-size="10.00">Catch::Generators::</text>
<text text-anchor="middle" x="362.5" y="-111.5" font-family="Helvetica,sans-Serif" font-size="10.00">Generators&lt; T &gt;</text>
<polyline fill="none" stroke="black" points="307.5,-104.5 417.5,-104.5 "/>
<text text-anchor="middle" x="362.5" y="-92.5" font-family="Helvetica,sans-Serif" font-size="10.00"> </text>
<polyline fill="none" stroke="black" points="307.5,-85.5 417.5,-85.5 "/>
<text text-anchor="start" x="315.5" y="-73.5" font-family="Helvetica,sans-Serif" font-size="10.00">+ Generators()</text>
<text text-anchor="start" x="315.5" y="-62.5" font-family="Helvetica,sans-Serif" font-size="10.00">+ get()</text>
<text text-anchor="start" x="315.5" y="-51.5" font-family="Helvetica,sans-Serif" font-size="10.00">+ next()</text>
<text text-anchor="start" x="315.5" y="-40.5" font-family="Helvetica,sans-Serif" font-size="10.00">+ Generators()</text>
<text text-anchor="start" x="315.5" y="-29.5" font-family="Helvetica,sans-Serif" font-size="10.00">+ get()</text>
<text text-anchor="start" x="315.5" y="-18.5" font-family="Helvetica,sans-Serif" font-size="10.00">+ next()</text>
</a>
</g>
</g>
<!-- Node2&#45;&gt;Node5 -->
<g id="edge4" class="edge">
<title>Node2&#45;&gt;Node5</title>
<path fill="none" stroke="midnightblue" d="M645.68,-226.8C585.19,-214.56 494.32,-190.23 426.5,-146 421.32,-142.62 416.3,-138.71 411.5,-134.5"/>
<polygon fill="none" stroke="midnightblue" points="645.01,-230.23 655.49,-228.73 646.36,-223.37 645.01,-230.23"/>
</g>
<!-- Node6 -->
<g id="node6" class="node">
<title>Node6</title>
<g id="a_node6"><a xlink:href="class_catch_1_1_generators_1_1_iterator_generator.html" target="_top" xlink:title=" ">
<polygon fill="white" stroke="black" points="435.5,-11.5 435.5,-134.5 565.5,-134.5 565.5,-11.5 435.5,-11.5"/>
<text text-anchor="start" x="443.5" y="-122.5" font-family="Helvetica,sans-Serif" font-size="10.00">Catch::Generators::</text>
<text text-anchor="middle" x="500.5" y="-111.5" font-family="Helvetica,sans-Serif" font-size="10.00">IteratorGenerator&lt; T &gt;</text>
<polyline fill="none" stroke="black" points="435.5,-104.5 565.5,-104.5 "/>
<text text-anchor="middle" x="500.5" y="-92.5" font-family="Helvetica,sans-Serif" font-size="10.00"> </text>
<polyline fill="none" stroke="black" points="435.5,-85.5 565.5,-85.5 "/>
<text text-anchor="start" x="443.5" y="-73.5" font-family="Helvetica,sans-Serif" font-size="10.00">+ IteratorGenerator()</text>
<text text-anchor="start" x="443.5" y="-62.5" font-family="Helvetica,sans-Serif" font-size="10.00">+ get()</text>
<text text-anchor="start" x="443.5" y="-51.5" font-family="Helvetica,sans-Serif" font-size="10.00">+ next()</text>
<text text-anchor="start" x="443.5" y="-40.5" font-family="Helvetica,sans-Serif" font-size="10.00">+ IteratorGenerator()</text>
<text text-anchor="start" x="443.5" y="-29.5" font-family="Helvetica,sans-Serif" font-size="10.00">+ get()</text>
<text text-anchor="start" x="443.5" y="-18.5" font-family="Helvetica,sans-Serif" font-size="10.00">+ next()</text>
</a>
</g>
</g>
<!-- Node2&#45;&gt;Node6 -->
<g id="edge5" class="edge">
<title>Node2&#45;&gt;Node6</title>
<path fill="none" stroke="midnightblue" d="M646.82,-198.06C623.42,-182.69 597.13,-164.37 574.5,-146 570.05,-142.38 565.55,-138.55 561.09,-134.6"/>
<polygon fill="none" stroke="midnightblue" points="645.01,-201.05 655.3,-203.58 648.83,-195.19 645.01,-201.05"/>
</g>
<!-- Node7 -->
<g id="node7" class="node">
<title>Node7</title>
<g id="a_node7"><a xlink:href="class_catch_1_1_generators_1_1_map_generator.html" target="_top" xlink:title=" ">
<polygon fill="white" stroke="black" points="584,-11.5 584,-134.5 699,-134.5 699,-11.5 584,-11.5"/>
<text text-anchor="start" x="592" y="-122.5" font-family="Helvetica,sans-Serif" font-size="10.00">Catch::Generators::</text>
<text text-anchor="middle" x="641.5" y="-111.5" font-family="Helvetica,sans-Serif" font-size="10.00">MapGenerator&lt; T &gt;</text>
<polyline fill="none" stroke="black" points="584,-104.5 699,-104.5 "/>
<text text-anchor="middle" x="641.5" y="-92.5" font-family="Helvetica,sans-Serif" font-size="10.00"> </text>
<polyline fill="none" stroke="black" points="584,-85.5 699,-85.5 "/>
<text text-anchor="start" x="592" y="-73.5" font-family="Helvetica,sans-Serif" font-size="10.00">+ MapGenerator()</text>
<text text-anchor="start" x="592" y="-62.5" font-family="Helvetica,sans-Serif" font-size="10.00">+ get()</text>
<text text-anchor="start" x="592" y="-51.5" font-family="Helvetica,sans-Serif" font-size="10.00">+ next()</text>
<text text-anchor="start" x="592" y="-40.5" font-family="Helvetica,sans-Serif" font-size="10.00">+ MapGenerator()</text>
<text text-anchor="start" x="592" y="-29.5" font-family="Helvetica,sans-Serif" font-size="10.00">+ get()</text>
<text text-anchor="start" x="592" y="-18.5" font-family="Helvetica,sans-Serif" font-size="10.00">+ next()</text>
</a>
</g>
</g>
<!-- Node2&#45;&gt;Node7 -->
<g id="edge6" class="edge">
<title>Node2&#45;&gt;Node7</title>
<path fill="none" stroke="midnightblue" d="M685.37,-177.95C679.41,-163.83 673.05,-148.75 667.07,-134.58"/>
<polygon fill="none" stroke="midnightblue" points="682.31,-179.7 689.42,-187.56 688.76,-176.98 682.31,-179.7"/>
</g>
<!-- Node8 -->
<g id="node8" class="node">
<title>Node8</title>
<g id="a_node8"><a xlink:href="class_catch_1_1_generators_1_1_range_generator.html" target="_top" xlink:title=" ">
<polygon fill="white" stroke="black" points="717,-0.5 717,-145.5 842,-145.5 842,-0.5 717,-0.5"/>
<text text-anchor="start" x="725" y="-133.5" font-family="Helvetica,sans-Serif" font-size="10.00">Catch::Generators::</text>
<text text-anchor="middle" x="779.5" y="-122.5" font-family="Helvetica,sans-Serif" font-size="10.00">RangeGenerator&lt; T &gt;</text>
<polyline fill="none" stroke="black" points="717,-115.5 842,-115.5 "/>
<text text-anchor="middle" x="779.5" y="-103.5" font-family="Helvetica,sans-Serif" font-size="10.00"> </text>
<polyline fill="none" stroke="black" points="717,-96.5 842,-96.5 "/>
<text text-anchor="start" x="725" y="-84.5" font-family="Helvetica,sans-Serif" font-size="10.00">+ RangeGenerator()</text>
<text text-anchor="start" x="725" y="-73.5" font-family="Helvetica,sans-Serif" font-size="10.00">+ RangeGenerator()</text>
<text text-anchor="start" x="725" y="-62.5" font-family="Helvetica,sans-Serif" font-size="10.00">+ get()</text>
<text text-anchor="start" x="725" y="-51.5" font-family="Helvetica,sans-Serif" font-size="10.00">+ next()</text>
<text text-anchor="start" x="725" y="-40.5" font-family="Helvetica,sans-Serif" font-size="10.00">+ RangeGenerator()</text>
<text text-anchor="start" x="725" y="-29.5" font-family="Helvetica,sans-Serif" font-size="10.00">+ RangeGenerator()</text>
<text text-anchor="start" x="725" y="-18.5" font-family="Helvetica,sans-Serif" font-size="10.00">+ get()</text>
<text text-anchor="start" x="725" y="-7.5" font-family="Helvetica,sans-Serif" font-size="10.00">+ next()</text>
</a>
</g>
</g>
<!-- Node2&#45;&gt;Node8 -->
<g id="edge7" class="edge">
<title>Node2&#45;&gt;Node8</title>
<path fill="none" stroke="midnightblue" d="M735.59,-178.05C740.04,-167.51 744.71,-156.44 749.28,-145.61"/>
<polygon fill="none" stroke="midnightblue" points="732.24,-176.98 731.58,-187.56 738.69,-179.7 732.24,-176.98"/>
</g>
<!-- Node9 -->
<g id="node9" class="node">
<title>Node9</title>
<g id="a_node9"><a xlink:href="class_catch_1_1_generators_1_1_repeat_generator.html" target="_top" xlink:title=" ">
<polygon fill="white" stroke="black" points="860.5,-11.5 860.5,-134.5 988.5,-134.5 988.5,-11.5 860.5,-11.5"/>
<text text-anchor="start" x="868.5" y="-122.5" font-family="Helvetica,sans-Serif" font-size="10.00">Catch::Generators::</text>
<text text-anchor="middle" x="924.5" y="-111.5" font-family="Helvetica,sans-Serif" font-size="10.00">RepeatGenerator&lt; T &gt;</text>
<polyline fill="none" stroke="black" points="860.5,-104.5 988.5,-104.5 "/>
<text text-anchor="middle" x="924.5" y="-92.5" font-family="Helvetica,sans-Serif" font-size="10.00"> </text>
<polyline fill="none" stroke="black" points="860.5,-85.5 988.5,-85.5 "/>
<text text-anchor="start" x="868.5" y="-73.5" font-family="Helvetica,sans-Serif" font-size="10.00">+ RepeatGenerator()</text>
<text text-anchor="start" x="868.5" y="-62.5" font-family="Helvetica,sans-Serif" font-size="10.00">+ get()</text>
<text text-anchor="start" x="868.5" y="-51.5" font-family="Helvetica,sans-Serif" font-size="10.00">+ next()</text>
<text text-anchor="start" x="868.5" y="-40.5" font-family="Helvetica,sans-Serif" font-size="10.00">+ RepeatGenerator()</text>
<text text-anchor="start" x="868.5" y="-29.5" font-family="Helvetica,sans-Serif" font-size="10.00">+ get()</text>
<text text-anchor="start" x="868.5" y="-18.5" font-family="Helvetica,sans-Serif" font-size="10.00">+ next()</text>
</a>
</g>
</g>
<!-- Node2&#45;&gt;Node9 -->
<g id="edge8" class="edge">
<title>Node2&#45;&gt;Node9</title>
<path fill="none" stroke="midnightblue" d="M774.25,-199.49C798.82,-183.91 826.68,-165.08 850.5,-146 854.98,-142.41 859.49,-138.6 863.96,-134.67"/>
<polygon fill="none" stroke="midnightblue" points="772.31,-196.58 765.71,-204.86 776.04,-202.5 772.31,-196.58"/>
</g>
<!-- Node10 -->
<g id="node10" class="node">
<title>Node10</title>
<g id="a_node10"><a xlink:href="class_catch_1_1_generators_1_1_single_value_generator.html" target="_top" xlink:title=" ">
<polygon fill="white" stroke="black" points="1007,-11.5 1007,-134.5 1158,-134.5 1158,-11.5 1007,-11.5"/>
<text text-anchor="start" x="1015" y="-122.5" font-family="Helvetica,sans-Serif" font-size="10.00">Catch::Generators::</text>
<text text-anchor="middle" x="1082.5" y="-111.5" font-family="Helvetica,sans-Serif" font-size="10.00">SingleValueGenerator&lt; T &gt;</text>
<polyline fill="none" stroke="black" points="1007,-104.5 1158,-104.5 "/>
<text text-anchor="middle" x="1082.5" y="-92.5" font-family="Helvetica,sans-Serif" font-size="10.00"> </text>
<polyline fill="none" stroke="black" points="1007,-85.5 1158,-85.5 "/>
<text text-anchor="start" x="1015" y="-73.5" font-family="Helvetica,sans-Serif" font-size="10.00">+ SingleValueGenerator()</text>
<text text-anchor="start" x="1015" y="-62.5" font-family="Helvetica,sans-Serif" font-size="10.00">+ get()</text>
<text text-anchor="start" x="1015" y="-51.5" font-family="Helvetica,sans-Serif" font-size="10.00">+ next()</text>
<text text-anchor="start" x="1015" y="-40.5" font-family="Helvetica,sans-Serif" font-size="10.00">+ SingleValueGenerator()</text>
<text text-anchor="start" x="1015" y="-29.5" font-family="Helvetica,sans-Serif" font-size="10.00">+ get()</text>
<text text-anchor="start" x="1015" y="-18.5" font-family="Helvetica,sans-Serif" font-size="10.00">+ next()</text>
</a>
</g>
</g>
<!-- Node2&#45;&gt;Node10 -->
<g id="edge9" class="edge">
<title>Node2&#45;&gt;Node10</title>
<path fill="none" stroke="midnightblue" d="M775.47,-224.5C835.65,-210.72 926.32,-185.42 997.5,-146 1003.59,-142.63 1009.65,-138.78 1015.56,-134.66"/>
<polygon fill="none" stroke="midnightblue" points="774.7,-221.09 765.71,-226.7 776.24,-227.92 774.7,-221.09"/>
</g>
<!-- Node11 -->
<g id="node11" class="node">
<title>Node11</title>
<g id="a_node11"><a xlink:href="class_catch_1_1_generators_1_1_take_generator.html" target="_top" xlink:title=" ">
<polygon fill="white" stroke="black" points="1176.5,-11.5 1176.5,-134.5 1292.5,-134.5 1292.5,-11.5 1176.5,-11.5"/>
<text text-anchor="start" x="1184.5" y="-122.5" font-family="Helvetica,sans-Serif" font-size="10.00">Catch::Generators::</text>
<text text-anchor="middle" x="1234.5" y="-111.5" font-family="Helvetica,sans-Serif" font-size="10.00">TakeGenerator&lt; T &gt;</text>
<polyline fill="none" stroke="black" points="1176.5,-104.5 1292.5,-104.5 "/>
<text text-anchor="middle" x="1234.5" y="-92.5" font-family="Helvetica,sans-Serif" font-size="10.00"> </text>
<polyline fill="none" stroke="black" points="1176.5,-85.5 1292.5,-85.5 "/>
<text text-anchor="start" x="1184.5" y="-73.5" font-family="Helvetica,sans-Serif" font-size="10.00">+ TakeGenerator()</text>
<text text-anchor="start" x="1184.5" y="-62.5" font-family="Helvetica,sans-Serif" font-size="10.00">+ get()</text>
<text text-anchor="start" x="1184.5" y="-51.5" font-family="Helvetica,sans-Serif" font-size="10.00">+ next()</text>
<text text-anchor="start" x="1184.5" y="-40.5" font-family="Helvetica,sans-Serif" font-size="10.00">+ TakeGenerator()</text>
<text text-anchor="start" x="1184.5" y="-29.5" font-family="Helvetica,sans-Serif" font-size="10.00">+ get()</text>
<text text-anchor="start" x="1184.5" y="-18.5" font-family="Helvetica,sans-Serif" font-size="10.00">+ next()</text>
</a>
</g>
</g>
<!-- Node2&#45;&gt;Node11 -->
<g id="edge10" class="edge">
<title>Node2&#45;&gt;Node11</title>
<path fill="none" stroke="midnightblue" d="M775.82,-236.63C868.36,-232.79 1040.39,-215.88 1166.5,-146 1172.21,-142.83 1177.73,-139.02 1182.98,-134.82"/>
<polygon fill="none" stroke="midnightblue" points="775.62,-233.14 765.76,-237.01 775.88,-240.13 775.62,-233.14"/>
</g>
<!-- Node13 -->
<g id="node13" class="node">
<title>Node13</title>
<g id="a_node13"><a xlink:href="class_catch_1_1_generators_1_1_random_floating_generator.html" target="_top" xlink:title=" ">
<polygon fill="white" stroke="black" points="1310.5,-6 1310.5,-140 1474.5,-140 1474.5,-6 1310.5,-6"/>
<text text-anchor="start" x="1318.5" y="-128" font-family="Helvetica,sans-Serif" font-size="10.00">Catch::Generators::</text>
<text text-anchor="start" x="1318.5" y="-117" font-family="Helvetica,sans-Serif" font-size="10.00">RandomFloatingGenerator</text>
<text text-anchor="middle" x="1392.5" y="-106" font-family="Helvetica,sans-Serif" font-size="10.00">&lt; Float &gt;</text>
<polyline fill="none" stroke="black" points="1310.5,-99 1474.5,-99 "/>
<text text-anchor="middle" x="1392.5" y="-87" font-family="Helvetica,sans-Serif" font-size="10.00"> </text>
<polyline fill="none" stroke="black" points="1310.5,-80 1474.5,-80 "/>
<text text-anchor="start" x="1318.5" y="-68" font-family="Helvetica,sans-Serif" font-size="10.00">+ RandomFloatingGenerator()</text>
<text text-anchor="start" x="1318.5" y="-57" font-family="Helvetica,sans-Serif" font-size="10.00">+ get()</text>
<text text-anchor="start" x="1318.5" y="-46" font-family="Helvetica,sans-Serif" font-size="10.00">+ next()</text>
<text text-anchor="start" x="1318.5" y="-35" font-family="Helvetica,sans-Serif" font-size="10.00">+ RandomFloatingGenerator()</text>
<text text-anchor="start" x="1318.5" y="-24" font-family="Helvetica,sans-Serif" font-size="10.00">+ get()</text>
<text text-anchor="start" x="1318.5" y="-13" font-family="Helvetica,sans-Serif" font-size="10.00">+ next()</text>
</a>
</g>
</g>
<!-- Node12&#45;&gt;Node13 -->
<g id="edge12" class="edge">
<title>Node12&#45;&gt;Node13</title>
<path fill="none" stroke="midnightblue" d="M1404.53,-177.54C1403.12,-165.4 1401.63,-152.56 1400.19,-140.21"/>
<polygon fill="none" stroke="midnightblue" points="1401.07,-178.03 1405.7,-187.56 1408.02,-177.22 1401.07,-178.03"/>
</g>
<!-- Node15 -->
<g id="node15" class="node">
<title>Node15</title>
<g id="a_node15"><a xlink:href="class_random_int_generator.html" target="_top" xlink:title=" ">
<polygon fill="white" stroke="black" points="1493,-33.5 1493,-112.5 1630,-112.5 1630,-33.5 1493,-33.5"/>
<text text-anchor="middle" x="1561.5" y="-100.5" font-family="Helvetica,sans-Serif" font-size="10.00">RandomIntGenerator</text>
<polyline fill="none" stroke="black" points="1493,-93.5 1630,-93.5 "/>
<text text-anchor="middle" x="1561.5" y="-81.5" font-family="Helvetica,sans-Serif" font-size="10.00"> </text>
<polyline fill="none" stroke="black" points="1493,-74.5 1630,-74.5 "/>
<text text-anchor="start" x="1501" y="-62.5" font-family="Helvetica,sans-Serif" font-size="10.00">+ RandomIntGenerator()</text>
<text text-anchor="start" x="1501" y="-51.5" font-family="Helvetica,sans-Serif" font-size="10.00">+ get()</text>
<text text-anchor="start" x="1501" y="-40.5" font-family="Helvetica,sans-Serif" font-size="10.00">+ next()</text>
</a>
</g>
</g>
<!-- Node14&#45;&gt;Node15 -->
<g id="edge14" class="edge">
<title>Node14&#45;&gt;Node15</title>
<path fill="none" stroke="midnightblue" d="M1561.5,-177.48C1561.5,-155.86 1561.5,-132.07 1561.5,-112.75"/>
<polygon fill="none" stroke="midnightblue" points="1558,-177.56 1561.5,-187.56 1565,-177.56 1558,-177.56"/>
</g>
<!-- Node17 -->
<g id="node17" class="node">
<title>Node17</title>
<g id="a_node17"><a xlink:href="class_catch_1_1_generators_1_1_random_integer_generator.html" target="_top" xlink:title=" ">
<polygon fill="white" stroke="black" points="1648,-6 1648,-140 1807,-140 1807,-6 1648,-6"/>
<text text-anchor="start" x="1656" y="-128" font-family="Helvetica,sans-Serif" font-size="10.00">Catch::Generators::</text>
<text text-anchor="start" x="1656" y="-117" font-family="Helvetica,sans-Serif" font-size="10.00">RandomIntegerGenerator</text>
<text text-anchor="middle" x="1727.5" y="-106" font-family="Helvetica,sans-Serif" font-size="10.00">&lt; Integer &gt;</text>
<polyline fill="none" stroke="black" points="1648,-99 1807,-99 "/>
<text text-anchor="middle" x="1727.5" y="-87" font-family="Helvetica,sans-Serif" font-size="10.00"> </text>
<polyline fill="none" stroke="black" points="1648,-80 1807,-80 "/>
<text text-anchor="start" x="1656" y="-68" font-family="Helvetica,sans-Serif" font-size="10.00">+ RandomIntegerGenerator()</text>
<text text-anchor="start" x="1656" y="-57" font-family="Helvetica,sans-Serif" font-size="10.00">+ get()</text>
<text text-anchor="start" x="1656" y="-46" font-family="Helvetica,sans-Serif" font-size="10.00">+ next()</text>
<text text-anchor="start" x="1656" y="-35" font-family="Helvetica,sans-Serif" font-size="10.00">+ RandomIntegerGenerator()</text>
<text text-anchor="start" x="1656" y="-24" font-family="Helvetica,sans-Serif" font-size="10.00">+ get()</text>
<text text-anchor="start" x="1656" y="-13" font-family="Helvetica,sans-Serif" font-size="10.00">+ next()</text>
</a>
</g>
</g>
<!-- Node16&#45;&gt;Node17 -->
<g id="edge16" class="edge">
<title>Node16&#45;&gt;Node17</title>
<path fill="none" stroke="midnightblue" d="M1711.03,-177.54C1712.97,-165.4 1715.01,-152.56 1716.97,-140.21"/>
<polygon fill="none" stroke="midnightblue" points="1707.56,-177.13 1709.44,-187.56 1714.47,-178.23 1707.56,-177.13"/>
</g>
<!-- Node19 -->
<g id="node19" class="node">
<title>Node19</title>
<g id="a_node19"><a xlink:href="class_line_generator.html" target="_top" xlink:title=" ">
<polygon fill="white" stroke="black" points="1825.5,-33.5 1825.5,-112.5 1929.5,-112.5 1929.5,-33.5 1825.5,-33.5"/>
<text text-anchor="middle" x="1877.5" y="-100.5" font-family="Helvetica,sans-Serif" font-size="10.00">LineGenerator</text>
<polyline fill="none" stroke="black" points="1825.5,-93.5 1929.5,-93.5 "/>
<text text-anchor="middle" x="1877.5" y="-81.5" font-family="Helvetica,sans-Serif" font-size="10.00"> </text>
<polyline fill="none" stroke="black" points="1825.5,-74.5 1929.5,-74.5 "/>
<text text-anchor="start" x="1833.5" y="-62.5" font-family="Helvetica,sans-Serif" font-size="10.00">+ LineGenerator()</text>
<text text-anchor="start" x="1833.5" y="-51.5" font-family="Helvetica,sans-Serif" font-size="10.00">+ get()</text>
<text text-anchor="start" x="1833.5" y="-40.5" font-family="Helvetica,sans-Serif" font-size="10.00">+ next()</text>
</a>
</g>
</g>
<!-- Node18&#45;&gt;Node19 -->
<g id="edge18" class="edge">
<title>Node18&#45;&gt;Node19</title>
<path fill="none" stroke="midnightblue" d="M1862.94,-177.48C1865.98,-155.86 1869.33,-132.07 1872.05,-112.75"/>
<polygon fill="none" stroke="midnightblue" points="1859.45,-177.17 1861.53,-187.56 1866.38,-178.14 1859.45,-177.17"/>
</g>
<!-- Node21 -->
<g id="node21" class="node">
<title>Node21</title>
<g id="a_node21"><a xlink:href="class_catch_1_1_generators_1_1_chunk_generator.html" target="_top" xlink:title=" ">
<polygon fill="white" stroke="black" points="1948,-11.5 1948,-134.5 2073,-134.5 2073,-11.5 1948,-11.5"/>
<text text-anchor="start" x="1956" y="-122.5" font-family="Helvetica,sans-Serif" font-size="10.00">Catch::Generators::</text>
<text text-anchor="middle" x="2010.5" y="-111.5" font-family="Helvetica,sans-Serif" font-size="10.00">ChunkGenerator&lt; T &gt;</text>
<polyline fill="none" stroke="black" points="1948,-104.5 2073,-104.5 "/>
<text text-anchor="middle" x="2010.5" y="-92.5" font-family="Helvetica,sans-Serif" font-size="10.00"> </text>
<polyline fill="none" stroke="black" points="1948,-85.5 2073,-85.5 "/>
<text text-anchor="start" x="1956" y="-73.5" font-family="Helvetica,sans-Serif" font-size="10.00">+ ChunkGenerator()</text>
<text text-anchor="start" x="1956" y="-62.5" font-family="Helvetica,sans-Serif" font-size="10.00">+ get()</text>
<text text-anchor="start" x="1956" y="-51.5" font-family="Helvetica,sans-Serif" font-size="10.00">+ next()</text>
<text text-anchor="start" x="1956" y="-40.5" font-family="Helvetica,sans-Serif" font-size="10.00">+ ChunkGenerator()</text>
<text text-anchor="start" x="1956" y="-29.5" font-family="Helvetica,sans-Serif" font-size="10.00">+ get()</text>
<text text-anchor="start" x="1956" y="-18.5" font-family="Helvetica,sans-Serif" font-size="10.00">+ next()</text>
</a>
</g>
</g>
<!-- Node20&#45;&gt;Node21 -->
<g id="edge20" class="edge">
<title>Node20&#45;&gt;Node21</title>
<path fill="none" stroke="midnightblue" d="M2009.9,-171.94C2009.98,-159.62 2010.05,-146.79 2010.13,-134.63"/>
<polygon fill="none" stroke="midnightblue" points="2006.4,-172.13 2009.84,-182.15 2013.4,-172.17 2006.4,-172.13"/>
</g>
</g>
</svg>
