<?xml version="1.0" encoding="UTF-8" standalone="no"?>
<!DOCTYPE svg PUBLIC "-//W3C//DTD SVG 1.1//EN"
 "http://www.w3.org/Graphics/SVG/1.1/DTD/svg11.dtd">
<!-- Generated by graphviz version 2.43.0 (0)
 -->
<!-- Title: Catch::XmlReporter::testRunStarting Pages: 1 -->
<svg width="744pt" height="340pt"
 viewBox="0.00 0.00 744.00 339.50" xmlns="http://www.w3.org/2000/svg" xmlns:xlink="http://www.w3.org/1999/xlink">
<g id="graph0" class="graph" transform="scale(1 1) rotate(0) translate(4 335.5)">
<title>Catch::XmlReporter::testRunStarting</title>
<polygon fill="white" stroke="transparent" points="-4,4 -4,-335.5 740,-335.5 740,4 -4,4"/>
<!-- Node1 -->
<g id="node1" class="node">
<title>Node1</title>
<g id="a_node1"><a xlink:title=" ">
<polygon fill="#bfbfbf" stroke="black" points="0,-148 0,-178 112,-178 112,-148 0,-148"/>
<text text-anchor="start" x="8" y="-166" font-family="Helvetica,sans-Serif" font-size="10.00">Catch::XmlReporter</text>
<text text-anchor="middle" x="56" y="-155" font-family="Helvetica,sans-Serif" font-size="10.00">::testRunStarting</text>
</a>
</g>
</g>
<!-- Node2 -->
<g id="node2" class="node">
<title>Node2</title>
<g id="a_node2"><a xlink:href="class_catch_1_1_xml_reporter.html#ad94c592b511097332f6e5ecf29ccb2ee" target="_top" xlink:title=" ">
<polygon fill="white" stroke="black" points="191.5,-301 191.5,-331 303.5,-331 303.5,-301 191.5,-301"/>
<text text-anchor="start" x="199.5" y="-319" font-family="Helvetica,sans-Serif" font-size="10.00">Catch::XmlReporter</text>
<text text-anchor="middle" x="247.5" y="-308" font-family="Helvetica,sans-Serif" font-size="10.00">::getStylesheetRef</text>
</a>
</g>
</g>
<!-- Node1&#45;&gt;Node2 -->
<g id="edge1" class="edge">
<title>Node1&#45;&gt;Node2</title>
<path fill="none" stroke="midnightblue" d="M63.25,-178.03C75.37,-205.23 104.73,-262.54 148,-292 158,-298.81 169.74,-303.69 181.55,-307.19"/>
<polygon fill="midnightblue" stroke="midnightblue" points="180.89,-310.64 191.46,-309.82 182.69,-303.87 180.89,-310.64"/>
</g>
<!-- Node3 -->
<g id="node3" class="node">
<title>Node3</title>
<g id="a_node3"><a xlink:href="class_catch_1_1_xml_writer.html#ad2fbf17f0dc39443b2db8ab614f4c625" target="_top" xlink:title=" ">
<polygon fill="white" stroke="black" points="177.5,-252 177.5,-282 317.5,-282 317.5,-252 177.5,-252"/>
<text text-anchor="start" x="185.5" y="-270" font-family="Helvetica,sans-Serif" font-size="10.00">Catch::XmlWriter::scoped</text>
<text text-anchor="middle" x="247.5" y="-259" font-family="Helvetica,sans-Serif" font-size="10.00">Element</text>
</a>
</g>
</g>
<!-- Node1&#45;&gt;Node3 -->
<g id="edge2" class="edge">
<title>Node1&#45;&gt;Node3</title>
<path fill="none" stroke="midnightblue" d="M71.77,-178.12C88.76,-194.72 118.16,-221.12 148,-237 156.32,-241.43 165.38,-245.3 174.54,-248.67"/>
<polygon fill="midnightblue" stroke="midnightblue" points="173.48,-252.01 184.08,-251.99 175.79,-245.39 173.48,-252.01"/>
</g>
<!-- Node4 -->
<g id="node4" class="node">
<title>Node4</title>
<g id="a_node4"><a xlink:href="class_catch_1_1_xml_writer.html#a5e5190bcb1f47a76ddca863591a6cc00" target="_top" xlink:title=" ">
<polygon fill="white" stroke="black" points="387.5,-248.5 387.5,-267.5 556.5,-267.5 556.5,-248.5 387.5,-248.5"/>
<text text-anchor="middle" x="472" y="-255.5" font-family="Helvetica,sans-Serif" font-size="10.00">Catch::XmlWriter::startElement</text>
</a>
</g>
</g>
<!-- Node1&#45;&gt;Node4 -->
<g id="edge9" class="edge">
<title>Node1&#45;&gt;Node4</title>
<path fill="none" stroke="midnightblue" d="M85.36,-178.07C102.96,-186.83 126.28,-197.41 148,-204 192.22,-217.41 310.51,-235.56 390.97,-247.03"/>
<polygon fill="midnightblue" stroke="midnightblue" points="390.69,-250.52 401.08,-248.46 391.67,-243.59 390.69,-250.52"/>
</g>
<!-- Node6 -->
<g id="node6" class="node">
<title>Node6</title>
<g id="a_node6"><a xlink:href="namespace_catch.html#a517007deae24c241b3402b4433160a9b" target="_top" xlink:title=" ">
<polygon fill="white" stroke="black" points="186.5,-175.5 186.5,-194.5 308.5,-194.5 308.5,-175.5 186.5,-175.5"/>
<text text-anchor="middle" x="247.5" y="-182.5" font-family="Helvetica,sans-Serif" font-size="10.00">Catch::serializeFilters</text>
</a>
</g>
</g>
<!-- Node1&#45;&gt;Node6 -->
<g id="edge5" class="edge">
<title>Node1&#45;&gt;Node6</title>
<path fill="none" stroke="midnightblue" d="M112.07,-169.39C132.16,-171.73 155.16,-174.4 176.39,-176.86"/>
<polygon fill="midnightblue" stroke="midnightblue" points="175.98,-180.34 186.32,-178.01 176.79,-173.38 175.98,-180.34"/>
</g>
<!-- Node10 -->
<g id="node10" class="node">
<title>Node10</title>
<g id="a_node10"><a xlink:href="struct_catch_1_1_streaming_reporter_base.html#a510b201b48fb7d0ebd11d0c8c65a43ba" target="_top" xlink:title=" ">
<polygon fill="white" stroke="black" points="176,-126 176,-156 319,-156 319,-126 176,-126"/>
<text text-anchor="start" x="184" y="-144" font-family="Helvetica,sans-Serif" font-size="10.00">Catch::StreamingReporter</text>
<text text-anchor="middle" x="247.5" y="-133" font-family="Helvetica,sans-Serif" font-size="10.00">Base::testRunStarting</text>
</a>
</g>
</g>
<!-- Node1&#45;&gt;Node10 -->
<g id="edge10" class="edge">
<title>Node1&#45;&gt;Node10</title>
<path fill="none" stroke="midnightblue" d="M112.07,-156.61C128.85,-154.66 147.65,-152.48 165.76,-150.37"/>
<polygon fill="midnightblue" stroke="midnightblue" points="166.21,-153.85 175.74,-149.22 165.4,-146.89 166.21,-153.85"/>
</g>
<!-- Node11 -->
<g id="node11" class="node">
<title>Node11</title>
<g id="a_node11"><a xlink:href="class_catch_1_1_xml_writer_1_1_scoped_element.html#aa45e9a057a4086cefee0ce291589f362" target="_top" xlink:title=" ">
<polygon fill="white" stroke="black" points="177,-77 177,-107 318,-107 318,-77 177,-77"/>
<text text-anchor="start" x="185" y="-95" font-family="Helvetica,sans-Serif" font-size="10.00">Catch::XmlWriter::Scoped</text>
<text text-anchor="middle" x="247.5" y="-84" font-family="Helvetica,sans-Serif" font-size="10.00">Element::writeAttribute</text>
</a>
</g>
</g>
<!-- Node1&#45;&gt;Node11 -->
<g id="edge11" class="edge">
<title>Node1&#45;&gt;Node11</title>
<path fill="none" stroke="midnightblue" d="M82.99,-147.93C100.82,-138.08 125.29,-125.5 148,-117 154.76,-114.47 161.87,-112.11 169.06,-109.93"/>
<polygon fill="midnightblue" stroke="midnightblue" points="170.24,-113.23 178.87,-107.07 168.29,-106.51 170.24,-113.23"/>
</g>
<!-- Node12 -->
<g id="node12" class="node">
<title>Node12</title>
<g id="a_node12"><a xlink:href="class_catch_1_1_xml_writer.html#ad433310b59d30e0fedc7130dc11c563b" target="_top" xlink:title=" ">
<polygon fill="white" stroke="black" points="385.5,-60.5 385.5,-79.5 558.5,-79.5 558.5,-60.5 385.5,-60.5"/>
<text text-anchor="middle" x="472" y="-67.5" font-family="Helvetica,sans-Serif" font-size="10.00">Catch::XmlWriter::writeAttribute</text>
</a>
</g>
</g>
<!-- Node1&#45;&gt;Node12 -->
<g id="edge13" class="edge">
<title>Node1&#45;&gt;Node12</title>
<path fill="none" stroke="midnightblue" d="M65.79,-147.71C79.81,-125.07 109.6,-83.51 148,-67 239.45,-27.68 359.37,-44.33 424.31,-58.24"/>
<polygon fill="midnightblue" stroke="midnightblue" points="423.73,-61.69 434.25,-60.44 425.24,-54.86 423.73,-61.69"/>
</g>
<!-- Node13 -->
<g id="node13" class="node">
<title>Node13</title>
<g id="a_node13"><a xlink:href="class_catch_1_1_xml_writer.html#a82beef2dcf4342d5b132236c96b4705e" target="_top" xlink:title=" ">
<polygon fill="white" stroke="black" points="148,-0.5 148,-19.5 347,-19.5 347,-0.5 148,-0.5"/>
<text text-anchor="middle" x="247.5" y="-7.5" font-family="Helvetica,sans-Serif" font-size="10.00">Catch::XmlWriter::writeStylesheetRef</text>
</a>
</g>
</g>
<!-- Node1&#45;&gt;Node13 -->
<g id="edge14" class="edge">
<title>Node1&#45;&gt;Node13</title>
<path fill="none" stroke="midnightblue" d="M63.25,-147.97C75.37,-120.77 104.73,-63.46 148,-34 154.62,-29.49 162,-25.83 169.66,-22.85"/>
<polygon fill="midnightblue" stroke="midnightblue" points="170.82,-26.16 179.1,-19.55 168.51,-19.55 170.82,-26.16"/>
</g>
<!-- Node3&#45;&gt;Node4 -->
<g id="edge3" class="edge">
<title>Node3&#45;&gt;Node4</title>
<path fill="none" stroke="midnightblue" d="M317.68,-264.2C336.56,-263.44 357.34,-262.6 377.33,-261.79"/>
<polygon fill="midnightblue" stroke="midnightblue" points="377.54,-265.28 387.39,-261.38 377.26,-258.29 377.54,-265.28"/>
</g>
<!-- Node5 -->
<g id="node5" class="node">
<title>Node5</title>
<g id="a_node5"><a xlink:href="class_catch_1_1_xml_writer.html#aba98703d9852416e237de82aed4a9c4f" target="_top" xlink:title=" ">
<polygon fill="white" stroke="black" points="597,-243 597,-273 736,-273 736,-243 597,-243"/>
<text text-anchor="start" x="605" y="-261" font-family="Helvetica,sans-Serif" font-size="10.00">Catch::XmlWriter::ensure</text>
<text text-anchor="middle" x="666.5" y="-250" font-family="Helvetica,sans-Serif" font-size="10.00">TagClosed</text>
</a>
</g>
</g>
<!-- Node4&#45;&gt;Node5 -->
<g id="edge4" class="edge">
<title>Node4&#45;&gt;Node5</title>
<path fill="none" stroke="midnightblue" d="M556.59,-258C566.53,-258 576.66,-258 586.53,-258"/>
<polygon fill="midnightblue" stroke="midnightblue" points="586.71,-261.5 596.71,-258 586.71,-254.5 586.71,-261.5"/>
</g>
<!-- Node7 -->
<g id="node7" class="node">
<title>Node7</title>
<g id="a_node7"><a xlink:href="namespace_catch_1_1_generators.html#a4df89be8072a9685ee89b6776a54bb93" target="_top" xlink:title=" ">
<polygon fill="white" stroke="black" points="417,-178 417,-208 527,-208 527,-178 417,-178"/>
<text text-anchor="start" x="425" y="-196" font-family="Helvetica,sans-Serif" font-size="10.00">Catch::Generators::</text>
<text text-anchor="middle" x="472" y="-185" font-family="Helvetica,sans-Serif" font-size="10.00">filter</text>
</a>
</g>
</g>
<!-- Node6&#45;&gt;Node7 -->
<g id="edge6" class="edge">
<title>Node6&#45;&gt;Node7</title>
<path fill="none" stroke="midnightblue" d="M308.71,-187.16C339.01,-188.25 375.75,-189.58 406.6,-190.68"/>
<polygon fill="midnightblue" stroke="midnightblue" points="406.71,-194.19 416.83,-191.05 406.96,-187.2 406.71,-194.19"/>
</g>
<!-- Node9 -->
<g id="node9" class="node">
<title>Node9</title>
<g id="a_node9"><a xlink:href="class_catch_1_1_reusable_string_stream.html#a0e9ecf260b2a5d35f4886ef0d51f6270" target="_top" xlink:title=" ">
<polygon fill="white" stroke="black" points="383,-139.5 383,-158.5 561,-158.5 561,-139.5 383,-139.5"/>
<text text-anchor="middle" x="472" y="-146.5" font-family="Helvetica,sans-Serif" font-size="10.00">Catch::ReusableStringStream::str</text>
</a>
</g>
</g>
<!-- Node6&#45;&gt;Node9 -->
<g id="edge8" class="edge">
<title>Node6&#45;&gt;Node9</title>
<path fill="none" stroke="midnightblue" d="M307.25,-175.49C336.28,-170.8 371.51,-165.1 401.84,-160.19"/>
<polygon fill="midnightblue" stroke="midnightblue" points="402.61,-163.61 411.92,-158.56 401.49,-156.7 402.61,-163.61"/>
</g>
<!-- Node8 -->
<g id="node8" class="node">
<title>Node8</title>
<g id="a_node8"><a xlink:href="namespace_catch_1_1_generators_1_1pf.html#a015e8fcef2972da878a07023e40d46d8" target="_top" xlink:title=" ">
<polygon fill="white" stroke="black" points="611.5,-178 611.5,-208 721.5,-208 721.5,-178 611.5,-178"/>
<text text-anchor="start" x="619.5" y="-196" font-family="Helvetica,sans-Serif" font-size="10.00">Catch::Generators::</text>
<text text-anchor="middle" x="666.5" y="-185" font-family="Helvetica,sans-Serif" font-size="10.00">pf::make_unique</text>
</a>
</g>
</g>
<!-- Node7&#45;&gt;Node8 -->
<g id="edge7" class="edge">
<title>Node7&#45;&gt;Node8</title>
<path fill="none" stroke="midnightblue" d="M527.13,-193C550.2,-193 577.27,-193 601.33,-193"/>
<polygon fill="midnightblue" stroke="midnightblue" points="601.44,-196.5 611.44,-193 601.44,-189.5 601.44,-196.5"/>
</g>
<!-- Node11&#45;&gt;Node12 -->
<g id="edge12" class="edge">
<title>Node11&#45;&gt;Node12</title>
<path fill="none" stroke="midnightblue" d="M318.29,-85.1C336.41,-83.31 356.25,-81.35 375.45,-79.45"/>
<polygon fill="midnightblue" stroke="midnightblue" points="375.81,-82.93 385.42,-78.46 375.13,-75.96 375.81,-82.93"/>
</g>
</g>
</svg>
