<?xml version="1.0" encoding="UTF-8" standalone="no"?>
<!DOCTYPE svg PUBLIC "-//W3C//DTD SVG 1.1//EN"
 "http://www.w3.org/Graphics/SVG/1.1/DTD/svg11.dtd">
<!-- Generated by graphviz version 2.43.0 (0)
 -->
<!-- Title: Catch::clara::TextFlow::Columns::end Pages: 1 -->
<svg width="546pt" height="88pt"
 viewBox="0.00 0.00 546.00 88.00" xmlns="http://www.w3.org/2000/svg" xmlns:xlink="http://www.w3.org/1999/xlink">
<g id="graph0" class="graph" transform="scale(1 1) rotate(0) translate(4 84)">
<title>Catch::clara::TextFlow::Columns::end</title>
<polygon fill="white" stroke="transparent" points="-4,4 -4,-84 542,-84 542,4 -4,4"/>
<!-- Node1 -->
<g id="node1" class="node">
<title>Node1</title>
<g id="a_node1"><a xlink:title=" ">
<polygon fill="#bfbfbf" stroke="black" points="414,-24.5 414,-54.5 538,-54.5 538,-24.5 414,-24.5"/>
<text text-anchor="start" x="422" y="-42.5" font-family="Helvetica,sans-Serif" font-size="10.00">Catch::clara::TextFlow</text>
<text text-anchor="middle" x="476" y="-31.5" font-family="Helvetica,sans-Serif" font-size="10.00">::Columns::end</text>
</a>
</g>
</g>
<!-- Node2 -->
<g id="node2" class="node">
<title>Node2</title>
<g id="a_node2"><a xlink:href="class_catch_1_1clara_1_1_text_flow_1_1_columns_1_1iterator.html#a9e0ffe3fa66eaf8b3b95761f2a0a5abd" target="_top" xlink:title=" ">
<polygon fill="white" stroke="black" points="212.5,-49.5 212.5,-79.5 372.5,-79.5 372.5,-49.5 212.5,-49.5"/>
<text text-anchor="start" x="220.5" y="-67.5" font-family="Helvetica,sans-Serif" font-size="10.00">Catch::clara::TextFlow</text>
<text text-anchor="middle" x="292.5" y="-56.5" font-family="Helvetica,sans-Serif" font-size="10.00">::Columns::iterator::operator*</text>
</a>
</g>
</g>
<!-- Node1&#45;&gt;Node2 -->
<g id="edge1" class="edge">
<title>Node1&#45;&gt;Node2</title>
<path fill="none" stroke="midnightblue" d="M403.77,-49.31C393.6,-50.71 383.09,-52.16 372.78,-53.58"/>
<polygon fill="midnightblue" stroke="midnightblue" points="404.38,-52.76 413.81,-47.93 403.42,-45.83 404.38,-52.76"/>
</g>
<!-- Node3 -->
<g id="node3" class="node">
<title>Node3</title>
<g id="a_node3"><a xlink:href="class_catch_1_1clara_1_1_text_flow_1_1_columns_1_1iterator.html#a5b0e43f9eae865e049c68c0b0ade3705" target="_top" xlink:title=" ">
<polygon fill="white" stroke="black" points="207,-0.5 207,-30.5 378,-30.5 378,-0.5 207,-0.5"/>
<text text-anchor="start" x="215" y="-18.5" font-family="Helvetica,sans-Serif" font-size="10.00">Catch::clara::TextFlow</text>
<text text-anchor="middle" x="292.5" y="-7.5" font-family="Helvetica,sans-Serif" font-size="10.00">::Columns::iterator::operator++</text>
</a>
</g>
</g>
<!-- Node1&#45;&gt;Node3 -->
<g id="edge2" class="edge">
<title>Node1&#45;&gt;Node3</title>
<path fill="none" stroke="midnightblue" d="M403.74,-30.08C395.38,-28.97 386.79,-27.84 378.27,-26.71"/>
<polygon fill="midnightblue" stroke="midnightblue" points="403.43,-33.57 413.81,-31.41 404.35,-26.63 403.43,-33.57"/>
</g>
<!-- Node4 -->
<g id="node4" class="node">
<title>Node4</title>
<g id="a_node4"><a xlink:href="class_catch_1_1clara_1_1_text_flow_1_1_columns_1_1iterator.html#ab11ec3fa9c9d905b5d0d43d74bfc5f2c" target="_top" xlink:title=" ">
<polygon fill="white" stroke="black" points="0,-0.5 0,-30.5 171,-30.5 171,-0.5 0,-0.5"/>
<text text-anchor="start" x="8" y="-18.5" font-family="Helvetica,sans-Serif" font-size="10.00">Catch::clara::TextFlow</text>
<text text-anchor="middle" x="85.5" y="-7.5" font-family="Helvetica,sans-Serif" font-size="10.00">::Columns::iterator::operator++</text>
</a>
</g>
</g>
<!-- Node3&#45;&gt;Node4 -->
<g id="edge3" class="edge">
<title>Node3&#45;&gt;Node4</title>
<path fill="none" stroke="midnightblue" d="M196.91,-15.5C188.34,-15.5 179.69,-15.5 171.2,-15.5"/>
<polygon fill="midnightblue" stroke="midnightblue" points="196.94,-19 206.94,-15.5 196.94,-12 196.94,-19"/>
</g>
</g>
</svg>
