<?xml version="1.0" encoding="UTF-8" standalone="no"?>
<!DOCTYPE svg PUBLIC "-//W3C//DTD SVG 1.1//EN"
 "http://www.w3.org/Graphics/SVG/1.1/DTD/svg11.dtd">
<!-- Generated by graphviz version 2.43.0 (0)
 -->
<!-- Title: Catch::Singleton&lt; SingletonImplT, InterfaceT, MutableInterfaceT &gt; Pages: 1 -->
<svg width="218pt" height="182pt"
 viewBox="0.00 0.00 217.50 182.00" xmlns="http://www.w3.org/2000/svg" xmlns:xlink="http://www.w3.org/1999/xlink">
<g id="graph0" class="graph" transform="scale(1 1) rotate(0) translate(4 178)">
<title>Catch::Singleton&lt; SingletonImplT, InterfaceT, MutableInterfaceT &gt;</title>
<polygon fill="white" stroke="transparent" points="-4,4 -4,-178 213.5,-178 213.5,4 -4,4"/>
<!-- Node1 -->
<g id="node1" class="node">
<title>Node1</title>
<g id="a_node1"><a xlink:title=" ">
<polygon fill="#bfbfbf" stroke="black" points="0,-0.5 0,-79.5 206,-79.5 206,-0.5 0,-0.5"/>
<text text-anchor="start" x="8" y="-67.5" font-family="Helvetica,sans-Serif" font-size="10.00">Catch::Singleton&lt; Singleton</text>
<text text-anchor="middle" x="103" y="-56.5" font-family="Helvetica,sans-Serif" font-size="10.00">ImplT, InterfaceT, MutableInterfaceT &gt;</text>
<polyline fill="none" stroke="black" points="0,-49.5 206,-49.5 "/>
<text text-anchor="middle" x="103" y="-37.5" font-family="Helvetica,sans-Serif" font-size="10.00"> </text>
<polyline fill="none" stroke="black" points="0,-30.5 206,-30.5 "/>
<text text-anchor="start" x="8" y="-18.5" font-family="Helvetica,sans-Serif" font-size="10.00">+ get()</text>
<text text-anchor="start" x="8" y="-7.5" font-family="Helvetica,sans-Serif" font-size="10.00">+ getMutable()</text>
</a>
</g>
</g>
<!-- Node2 -->
<g id="node2" class="node">
<title>Node2</title>
<g id="a_node2"><a xlink:href="class_singleton_impl_t.html" target="_top" xlink:title=" ">
<polygon fill="white" stroke="black" points="2,-116.5 2,-173.5 92,-173.5 92,-116.5 2,-116.5"/>
<text text-anchor="middle" x="47" y="-161.5" font-family="Helvetica,sans-Serif" font-size="10.00">SingletonImplT</text>
<polyline fill="none" stroke="black" points="2,-154.5 92,-154.5 "/>
<text text-anchor="middle" x="47" y="-142.5" font-family="Helvetica,sans-Serif" font-size="10.00"> </text>
<polyline fill="none" stroke="black" points="2,-135.5 92,-135.5 "/>
<text text-anchor="middle" x="47" y="-123.5" font-family="Helvetica,sans-Serif" font-size="10.00"> </text>
</a>
</g>
</g>
<!-- Node2&#45;&gt;Node1 -->
<g id="edge1" class="edge">
<title>Node2&#45;&gt;Node1</title>
<path fill="none" stroke="#8b1a1a" d="M66.8,-107.58C71.74,-98.49 77.06,-88.71 82.06,-79.52"/>
<polygon fill="none" stroke="#8b1a1a" points="63.71,-105.94 62.01,-116.4 69.86,-109.28 63.71,-105.94"/>
</g>
<!-- Node3 -->
<g id="node3" class="node">
<title>Node3</title>
<g id="a_node3"><a xlink:href="struct_catch_1_1_i_singleton.html" target="_top" xlink:title=" ">
<polygon fill="white" stroke="black" points="110.5,-116.5 110.5,-173.5 209.5,-173.5 209.5,-116.5 110.5,-116.5"/>
<text text-anchor="middle" x="160" y="-161.5" font-family="Helvetica,sans-Serif" font-size="10.00">Catch::ISingleton</text>
<polyline fill="none" stroke="black" points="110.5,-154.5 209.5,-154.5 "/>
<text text-anchor="middle" x="160" y="-142.5" font-family="Helvetica,sans-Serif" font-size="10.00"> </text>
<polyline fill="none" stroke="black" points="110.5,-135.5 209.5,-135.5 "/>
<text text-anchor="start" x="118.5" y="-123.5" font-family="Helvetica,sans-Serif" font-size="10.00">+ ~ISingleton()</text>
</a>
</g>
</g>
<!-- Node3&#45;&gt;Node1 -->
<g id="edge2" class="edge">
<title>Node3&#45;&gt;Node1</title>
<path fill="none" stroke="midnightblue" d="M139.85,-107.58C134.82,-98.49 129.4,-88.71 124.32,-79.52"/>
<polygon fill="none" stroke="midnightblue" points="136.82,-109.34 144.73,-116.4 142.95,-105.95 136.82,-109.34"/>
</g>
</g>
</svg>
