<?xml version="1.0" encoding="UTF-8" standalone="no"?>
<!DOCTYPE svg PUBLIC "-//W3C//DTD SVG 1.1//EN"
 "http://www.w3.org/Graphics/SVG/1.1/DTD/svg11.dtd">
<!-- Generated by graphviz version 2.43.0 (0)
 -->
<!-- Title: Env::get_bindings Pages: 1 -->
<svg width="360pt" height="66pt"
 viewBox="0.00 0.00 360.00 66.00" xmlns="http://www.w3.org/2000/svg" xmlns:xlink="http://www.w3.org/1999/xlink">
<g id="graph0" class="graph" transform="scale(1 1) rotate(0) translate(4 62)">
<title>Env::get_bindings</title>
<polygon fill="white" stroke="transparent" points="-4,4 -4,-62 356,-62 356,4 -4,4"/>
<!-- Node1 -->
<g id="node1" class="node">
<title>Node1</title>
<g id="a_node1"><a xlink:title="Get a mutable reference to variable bindings.">
<polygon fill="#bfbfbf" stroke="black" points="250,-19.5 250,-38.5 352,-38.5 352,-19.5 250,-19.5"/>
<text text-anchor="middle" x="301" y="-26.5" font-family="Helvetica,sans-Serif" font-size="10.00">Env::get_bindings</text>
</a>
</g>
</g>
<!-- Node2 -->
<g id="node2" class="node">
<title>Node2</title>
<g id="a_node2"><a xlink:href="class_block.html#a6410fa3655af7eb5ee7e1d474745d40f" target="_top" xlink:title="Evaluates all statment in block in current scope.">
<polygon fill="white" stroke="black" points="143,-19.5 143,-38.5 214,-38.5 214,-19.5 143,-19.5"/>
<text text-anchor="middle" x="178.5" y="-26.5" font-family="Helvetica,sans-Serif" font-size="10.00">Block::eval</text>
</a>
</g>
</g>
<!-- Node1&#45;&gt;Node2 -->
<g id="edge1" class="edge">
<title>Node1&#45;&gt;Node2</title>
<path fill="none" stroke="midnightblue" d="M239.71,-29C230.95,-29 222.2,-29 214.18,-29"/>
<polygon fill="midnightblue" stroke="midnightblue" points="239.94,-32.5 249.94,-29 239.94,-25.5 239.94,-32.5"/>
</g>
<!-- Node3 -->
<g id="node3" class="node">
<title>Node3</title>
<g id="a_node3"><a xlink:href="class_conditional.html#ad5e0729431c9cd0f7e480e605e564800" target="_top" xlink:title="Evaluates all the statments in either true or false block depending on evaluation of condition (all i...">
<polygon fill="white" stroke="black" points="4,-38.5 4,-57.5 103,-57.5 103,-38.5 4,-38.5"/>
<text text-anchor="middle" x="53.5" y="-45.5" font-family="Helvetica,sans-Serif" font-size="10.00">Conditional::eval</text>
</a>
</g>
</g>
<!-- Node2&#45;&gt;Node3 -->
<g id="edge2" class="edge">
<title>Node2&#45;&gt;Node3</title>
<path fill="none" stroke="midnightblue" d="M132.73,-35.92C123.08,-37.41 112.84,-38.99 103.05,-40.5"/>
<polygon fill="midnightblue" stroke="midnightblue" points="133.56,-39.33 142.91,-34.34 132.49,-32.41 133.56,-39.33"/>
</g>
<!-- Node4 -->
<g id="node4" class="node">
<title>Node4</title>
<g id="a_node4"><a xlink:href="class_block.html#a1e977192ac764e320c32806ef0db3572" target="_top" xlink:title=" ">
<polygon fill="white" stroke="black" points="0,-0.5 0,-19.5 107,-19.5 107,-0.5 0,-0.5"/>
<text text-anchor="middle" x="53.5" y="-7.5" font-family="Helvetica,sans-Serif" font-size="10.00">Block::operator==</text>
</a>
</g>
</g>
<!-- Node2&#45;&gt;Node4 -->
<g id="edge3" class="edge">
<title>Node2&#45;&gt;Node4</title>
<path fill="none" stroke="midnightblue" d="M132.98,-22.12C124.62,-20.83 115.8,-19.47 107.21,-18.14"/>
<polygon fill="midnightblue" stroke="midnightblue" points="132.49,-25.59 142.91,-23.66 133.56,-18.67 132.49,-25.59"/>
</g>
</g>
</svg>
