<?xml version="1.0" encoding="UTF-8" standalone="no"?>
<!DOCTYPE svg PUBLIC "-//W3C//DTD SVG 1.1//EN"
 "http://www.w3.org/Graphics/SVG/1.1/DTD/svg11.dtd">
<!-- Generated by graphviz version 2.43.0 (0)
 -->
<!-- Title: Catch::XmlWriter::scopedElement Pages: 1 -->
<svg width="1058pt" height="453pt"
 viewBox="0.00 0.00 1058.00 452.72" xmlns="http://www.w3.org/2000/svg" xmlns:xlink="http://www.w3.org/1999/xlink">
<g id="graph0" class="graph" transform="scale(1 1) rotate(0) translate(4 448.72)">
<title>Catch::XmlWriter::scopedElement</title>
<polygon fill="white" stroke="transparent" points="-4,4 -4,-448.72 1054,-448.72 1054,4 -4,4"/>
<!-- Node1 -->
<g id="node1" class="node">
<title>Node1</title>
<g id="a_node1"><a xlink:title=" ">
<polygon fill="#bfbfbf" stroke="black" points="910,-218.22 910,-248.22 1050,-248.22 1050,-218.22 910,-218.22"/>
<text text-anchor="start" x="918" y="-236.22" font-family="Helvetica,sans-Serif" font-size="10.00">Catch::XmlWriter::scoped</text>
<text text-anchor="middle" x="980" y="-225.22" font-family="Helvetica,sans-Serif" font-size="10.00">Element</text>
</a>
</g>
</g>
<!-- Node2 -->
<g id="node2" class="node">
<title>Node2</title>
<g id="a_node2"><a xlink:href="class_catch_1_1_xml_reporter.html#a73c809f067d58a7a6748cb13643448e5" target="_top" xlink:title=" ">
<polygon fill="white" stroke="black" points="745,-414.22 745,-444.22 857,-444.22 857,-414.22 745,-414.22"/>
<text text-anchor="start" x="753" y="-432.22" font-family="Helvetica,sans-Serif" font-size="10.00">Catch::XmlReporter</text>
<text text-anchor="middle" x="801" y="-421.22" font-family="Helvetica,sans-Serif" font-size="10.00">::sectionEnded</text>
</a>
</g>
</g>
<!-- Node1&#45;&gt;Node2 -->
<g id="edge1" class="edge">
<title>Node1&#45;&gt;Node2</title>
<path fill="none" stroke="midnightblue" d="M970.32,-257.87C956,-295.09 923.92,-365.5 874,-405.22 868.95,-409.25 863.19,-412.61 857.19,-415.41"/>
<polygon fill="midnightblue" stroke="midnightblue" points="973.68,-258.9 973.89,-248.31 967.12,-256.45 973.68,-258.9"/>
</g>
<!-- Node3 -->
<g id="node3" class="node">
<title>Node3</title>
<g id="a_node3"><a xlink:href="class_catch_1_1_xml_reporter.html#ab641ec7e115cb94efa02f85e9d91de0f" target="_top" xlink:title=" ">
<polygon fill="white" stroke="black" points="745,-365.22 745,-395.22 857,-395.22 857,-365.22 745,-365.22"/>
<text text-anchor="start" x="753" y="-383.22" font-family="Helvetica,sans-Serif" font-size="10.00">Catch::XmlReporter</text>
<text text-anchor="middle" x="801" y="-372.22" font-family="Helvetica,sans-Serif" font-size="10.00">::testCaseEnded</text>
</a>
</g>
</g>
<!-- Node1&#45;&gt;Node3 -->
<g id="edge2" class="edge">
<title>Node1&#45;&gt;Node3</title>
<path fill="none" stroke="midnightblue" d="M964.47,-257.05C946.47,-284.65 913.33,-329.72 874,-356.22 868.86,-359.69 863.19,-362.68 857.34,-365.27"/>
<polygon fill="midnightblue" stroke="midnightblue" points="967.55,-258.72 969.98,-248.41 961.65,-254.96 967.55,-258.72"/>
</g>
<!-- Node4 -->
<g id="node4" class="node">
<title>Node4</title>
<g id="a_node4"><a xlink:href="class_catch_1_1_xml_reporter.html#ab9ba05f0311cb976fb6f7e5bd2df477c" target="_top" xlink:title=" ">
<polygon fill="white" stroke="black" points="745,-316.22 745,-346.22 857,-346.22 857,-316.22 745,-316.22"/>
<text text-anchor="start" x="753" y="-334.22" font-family="Helvetica,sans-Serif" font-size="10.00">Catch::XmlReporter</text>
<text text-anchor="middle" x="801" y="-323.22" font-family="Helvetica,sans-Serif" font-size="10.00">::testGroupEnded</text>
</a>
</g>
</g>
<!-- Node1&#45;&gt;Node4 -->
<g id="edge3" class="edge">
<title>Node1&#45;&gt;Node4</title>
<path fill="none" stroke="midnightblue" d="M953.18,-254.67C932.72,-270.83 902.87,-292.64 874,-307.22 867.53,-310.49 860.52,-313.46 853.5,-316.12"/>
<polygon fill="midnightblue" stroke="midnightblue" points="955.47,-257.32 961.08,-248.34 951.09,-251.86 955.47,-257.32"/>
</g>
<!-- Node5 -->
<g id="node5" class="node">
<title>Node5</title>
<g id="a_node5"><a xlink:href="class_catch_1_1_xml_reporter.html#a2458c9f342a446f0b3a7480b53c93705" target="_top" xlink:title=" ">
<polygon fill="white" stroke="black" points="745,-267.22 745,-297.22 857,-297.22 857,-267.22 745,-267.22"/>
<text text-anchor="start" x="753" y="-285.22" font-family="Helvetica,sans-Serif" font-size="10.00">Catch::XmlReporter</text>
<text text-anchor="middle" x="801" y="-274.22" font-family="Helvetica,sans-Serif" font-size="10.00">::testRunEnded</text>
</a>
</g>
</g>
<!-- Node1&#45;&gt;Node5 -->
<g id="edge4" class="edge">
<title>Node1&#45;&gt;Node5</title>
<path fill="none" stroke="midnightblue" d="M914.63,-251.05C895.51,-256.34 874.78,-262.08 856.37,-267.17"/>
<polygon fill="midnightblue" stroke="midnightblue" points="915.75,-254.37 924.45,-248.33 913.88,-247.62 915.75,-254.37"/>
</g>
<!-- Node6 -->
<g id="node6" class="node">
<title>Node6</title>
<g id="a_node6"><a xlink:href="class_catch_1_1_xml_reporter.html#ab5de0b02d5a30612ae5449360d867672" target="_top" xlink:title=" ">
<polygon fill="white" stroke="black" points="745,-218.22 745,-248.22 857,-248.22 857,-218.22 745,-218.22"/>
<text text-anchor="start" x="753" y="-236.22" font-family="Helvetica,sans-Serif" font-size="10.00">Catch::XmlReporter</text>
<text text-anchor="middle" x="801" y="-225.22" font-family="Helvetica,sans-Serif" font-size="10.00">::testRunStarting</text>
</a>
</g>
</g>
<!-- Node1&#45;&gt;Node6 -->
<g id="edge5" class="edge">
<title>Node1&#45;&gt;Node6</title>
<path fill="none" stroke="midnightblue" d="M899.48,-233.22C885.2,-233.22 870.59,-233.22 857.19,-233.22"/>
<polygon fill="midnightblue" stroke="midnightblue" points="899.81,-236.72 909.81,-233.22 899.81,-229.72 899.81,-236.72"/>
</g>
<!-- Node7 -->
<g id="node7" class="node">
<title>Node7</title>
<g id="a_node7"><a xlink:href="class_catch_1_1_junit_reporter.html#a13caa24a5b9bcfdb398702fe3146e066" target="_top" xlink:title=" ">
<polygon fill="white" stroke="black" points="744,-169.22 744,-199.22 858,-199.22 858,-169.22 744,-169.22"/>
<text text-anchor="start" x="752" y="-187.22" font-family="Helvetica,sans-Serif" font-size="10.00">Catch::JunitReporter</text>
<text text-anchor="middle" x="801" y="-176.22" font-family="Helvetica,sans-Serif" font-size="10.00">::writeGroup</text>
</a>
</g>
</g>
<!-- Node1&#45;&gt;Node7 -->
<g id="edge6" class="edge">
<title>Node1&#45;&gt;Node7</title>
<path fill="none" stroke="midnightblue" d="M914.63,-215.4C895.51,-210.11 874.78,-204.37 856.37,-199.28"/>
<polygon fill="midnightblue" stroke="midnightblue" points="913.88,-218.83 924.45,-218.12 915.75,-212.08 913.88,-218.83"/>
</g>
<!-- Node9 -->
<g id="node9" class="node">
<title>Node9</title>
<g id="a_node9"><a xlink:href="class_catch_1_1_junit_reporter.html#a38e349527bd049bbabd268c6faad1719" target="_top" xlink:title=" ">
<polygon fill="white" stroke="black" points="744,-120.22 744,-150.22 858,-150.22 858,-120.22 744,-120.22"/>
<text text-anchor="start" x="752" y="-138.22" font-family="Helvetica,sans-Serif" font-size="10.00">Catch::JunitReporter</text>
<text text-anchor="middle" x="801" y="-127.22" font-family="Helvetica,sans-Serif" font-size="10.00">::writeSection</text>
</a>
</g>
</g>
<!-- Node1&#45;&gt;Node9 -->
<g id="edge8" class="edge">
<title>Node1&#45;&gt;Node9</title>
<path fill="none" stroke="midnightblue" d="M952.71,-211.91C932.21,-196.05 902.52,-174.74 874,-160.22 866.81,-156.56 858.95,-153.23 851.16,-150.27"/>
<polygon fill="midnightblue" stroke="midnightblue" points="950.61,-214.7 960.64,-218.12 954.92,-209.19 950.61,-214.7"/>
</g>
<!-- Node10 -->
<g id="node10" class="node">
<title>Node10</title>
<g id="a_node10"><a xlink:href="struct_catch_1_1_sonar_qube_reporter.html#a6c3bf02bc36f29c9f58ac8261d903f53" target="_top" xlink:title=" ">
<polygon fill="white" stroke="black" points="728,-53.22 728,-83.22 874,-83.22 874,-53.22 728,-53.22"/>
<text text-anchor="start" x="736" y="-71.22" font-family="Helvetica,sans-Serif" font-size="10.00">Catch::SonarQubeReporter</text>
<text text-anchor="middle" x="801" y="-60.22" font-family="Helvetica,sans-Serif" font-size="10.00">::writeSection</text>
</a>
</g>
</g>
<!-- Node1&#45;&gt;Node10 -->
<g id="edge9" class="edge">
<title>Node1&#45;&gt;Node10</title>
<path fill="none" stroke="midnightblue" d="M962.43,-209.76C943.2,-183.62 909.55,-141.12 874,-111.22 861.3,-100.54 845.63,-90.85 832.16,-83.38"/>
<polygon fill="midnightblue" stroke="midnightblue" points="959.67,-211.92 968.38,-217.96 965.34,-207.81 959.67,-211.92"/>
</g>
<!-- Node12 -->
<g id="node12" class="node">
<title>Node12</title>
<g id="a_node12"><a xlink:href="struct_catch_1_1_sonar_qube_reporter.html#a2fd55ff70771a8f84c58d76d4d0edab6" target="_top" xlink:title=" ">
<polygon fill="white" stroke="black" points="364,-31.22 364,-61.22 510,-61.22 510,-31.22 364,-31.22"/>
<text text-anchor="start" x="372" y="-49.22" font-family="Helvetica,sans-Serif" font-size="10.00">Catch::SonarQubeReporter</text>
<text text-anchor="middle" x="437" y="-38.22" font-family="Helvetica,sans-Serif" font-size="10.00">::writeTestFile</text>
</a>
</g>
</g>
<!-- Node1&#45;&gt;Node12 -->
<g id="edge15" class="edge">
<title>Node1&#45;&gt;Node12</title>
<path fill="none" stroke="midnightblue" d="M973.72,-208.11C963.2,-165.3 935.2,-79.33 874,-43.22 750.12,29.85 569.96,-7.2 485.3,-31.16"/>
<polygon fill="midnightblue" stroke="midnightblue" points="970.34,-209.06 976.02,-218.01 977.16,-207.47 970.34,-209.06"/>
</g>
<!-- Node8 -->
<g id="node8" class="node">
<title>Node8</title>
<g id="a_node8"><a xlink:href="class_catch_1_1_junit_reporter.html#aa91e71b824c3a7733993821668fe7e6e" target="_top" xlink:title=" ">
<polygon fill="white" stroke="black" points="562,-169.22 562,-199.22 676,-199.22 676,-169.22 562,-169.22"/>
<text text-anchor="start" x="570" y="-187.22" font-family="Helvetica,sans-Serif" font-size="10.00">Catch::JunitReporter</text>
<text text-anchor="middle" x="619" y="-176.22" font-family="Helvetica,sans-Serif" font-size="10.00">::testGroupEnded</text>
</a>
</g>
</g>
<!-- Node7&#45;&gt;Node8 -->
<g id="edge7" class="edge">
<title>Node7&#45;&gt;Node8</title>
<path fill="none" stroke="midnightblue" d="M733.29,-184.22C714.54,-184.22 694.34,-184.22 676.26,-184.22"/>
<polygon fill="midnightblue" stroke="midnightblue" points="733.54,-187.72 743.54,-184.22 733.54,-180.72 733.54,-187.72"/>
</g>
<!-- Node10&#45;&gt;Node10 -->
<g id="edge10" class="edge">
<title>Node10&#45;&gt;Node10</title>
<path fill="none" stroke="midnightblue" d="M832.63,-93.68C828.7,-98.4 818.16,-101.72 801,-101.72 772.84,-101.72 762.5,-92.78 769.98,-83.38"/>
<polygon fill="midnightblue" stroke="midnightblue" points="836.1,-93.16 832.02,-83.38 829.12,-93.57 836.1,-93.16"/>
</g>
<!-- Node11 -->
<g id="node11" class="node">
<title>Node11</title>
<g id="a_node11"><a xlink:href="struct_catch_1_1_sonar_qube_reporter.html#a28756eaa7e0bb22a8fdb6a66bf655f7a" target="_top" xlink:title=" ">
<polygon fill="white" stroke="black" points="546,-53.22 546,-83.22 692,-83.22 692,-53.22 546,-53.22"/>
<text text-anchor="start" x="554" y="-71.22" font-family="Helvetica,sans-Serif" font-size="10.00">Catch::SonarQubeReporter</text>
<text text-anchor="middle" x="619" y="-60.22" font-family="Helvetica,sans-Serif" font-size="10.00">::writeTestCase</text>
</a>
</g>
</g>
<!-- Node10&#45;&gt;Node11 -->
<g id="edge11" class="edge">
<title>Node10&#45;&gt;Node11</title>
<path fill="none" stroke="midnightblue" d="M717.56,-68.22C709.09,-68.22 700.54,-68.22 692.19,-68.22"/>
<polygon fill="midnightblue" stroke="midnightblue" points="717.82,-71.72 727.82,-68.22 717.82,-64.72 717.82,-71.72"/>
</g>
<!-- Node11&#45;&gt;Node12 -->
<g id="edge12" class="edge">
<title>Node11&#45;&gt;Node12</title>
<path fill="none" stroke="midnightblue" d="M535.84,-58.18C527.28,-57.14 518.63,-56.08 510.19,-55.05"/>
<polygon fill="midnightblue" stroke="midnightblue" points="535.47,-61.66 545.82,-59.4 536.32,-54.72 535.47,-61.66"/>
</g>
<!-- Node13 -->
<g id="node13" class="node">
<title>Node13</title>
<g id="a_node13"><a xlink:href="struct_catch_1_1_sonar_qube_reporter.html#a3bc0c0875aa9f901d558fac64dd6c8e5" target="_top" xlink:title=" ">
<polygon fill="white" stroke="black" points="182,-31.22 182,-61.22 328,-61.22 328,-31.22 182,-31.22"/>
<text text-anchor="start" x="190" y="-49.22" font-family="Helvetica,sans-Serif" font-size="10.00">Catch::SonarQubeReporter</text>
<text text-anchor="middle" x="255" y="-38.22" font-family="Helvetica,sans-Serif" font-size="10.00">::writeGroup</text>
</a>
</g>
</g>
<!-- Node12&#45;&gt;Node13 -->
<g id="edge13" class="edge">
<title>Node12&#45;&gt;Node13</title>
<path fill="none" stroke="midnightblue" d="M353.56,-46.22C345.09,-46.22 336.54,-46.22 328.19,-46.22"/>
<polygon fill="midnightblue" stroke="midnightblue" points="353.82,-49.72 363.82,-46.22 353.82,-42.72 353.82,-49.72"/>
</g>
<!-- Node14 -->
<g id="node14" class="node">
<title>Node14</title>
<g id="a_node14"><a xlink:href="struct_catch_1_1_sonar_qube_reporter.html#a8e580abdf551dc4f3acfb18d9609db46" target="_top" xlink:title=" ">
<polygon fill="white" stroke="black" points="0,-31.22 0,-61.22 146,-61.22 146,-31.22 0,-31.22"/>
<text text-anchor="start" x="8" y="-49.22" font-family="Helvetica,sans-Serif" font-size="10.00">Catch::SonarQubeReporter</text>
<text text-anchor="middle" x="73" y="-38.22" font-family="Helvetica,sans-Serif" font-size="10.00">::testGroupEnded</text>
</a>
</g>
</g>
<!-- Node13&#45;&gt;Node14 -->
<g id="edge14" class="edge">
<title>Node13&#45;&gt;Node14</title>
<path fill="none" stroke="midnightblue" d="M171.56,-46.22C163.09,-46.22 154.54,-46.22 146.19,-46.22"/>
<polygon fill="midnightblue" stroke="midnightblue" points="171.82,-49.72 181.82,-46.22 171.82,-42.72 171.82,-49.72"/>
</g>
</g>
</svg>
