<?xml version="1.0" encoding="UTF-8" standalone="no"?>
<!DOCTYPE svg PUBLIC "-//W3C//DTD SVG 1.1//EN"
 "http://www.w3.org/Graphics/SVG/1.1/DTD/svg11.dtd">
<!-- Generated by graphviz version 2.43.0 (0)
 -->
<!-- Title: clara::detail::Opt Pages: 1 -->
<svg width="476pt" height="657pt"
 viewBox="0.00 0.00 475.50 657.00" xmlns="http://www.w3.org/2000/svg" xmlns:xlink="http://www.w3.org/1999/xlink">
<g id="graph0" class="graph" transform="scale(1 1) rotate(0) translate(4 653)">
<title>clara::detail::Opt</title>
<polygon fill="white" stroke="transparent" points="-4,4 -4,-653 471.5,-653 471.5,4 -4,4"/>
<!-- Node1 -->
<g id="node1" class="node">
<title>Node1</title>
<g id="a_node1"><a xlink:title=" ">
<polygon fill="#bfbfbf" stroke="black" points="266.5,-0.5 266.5,-167.5 382.5,-167.5 382.5,-0.5 266.5,-0.5"/>
<text text-anchor="middle" x="324.5" y="-155.5" font-family="Helvetica,sans-Serif" font-size="10.00">clara::detail::Opt</text>
<polyline fill="none" stroke="black" points="266.5,-148.5 382.5,-148.5 "/>
<text text-anchor="middle" x="324.5" y="-136.5" font-family="Helvetica,sans-Serif" font-size="10.00"> </text>
<polyline fill="none" stroke="black" points="266.5,-129.5 382.5,-129.5 "/>
<text text-anchor="start" x="274.5" y="-117.5" font-family="Helvetica,sans-Serif" font-size="10.00">+ Opt()</text>
<text text-anchor="start" x="274.5" y="-106.5" font-family="Helvetica,sans-Serif" font-size="10.00">+ Opt()</text>
<text text-anchor="start" x="274.5" y="-95.5" font-family="Helvetica,sans-Serif" font-size="10.00">+ Opt()</text>
<text text-anchor="start" x="274.5" y="-84.5" font-family="Helvetica,sans-Serif" font-size="10.00">+ Opt()</text>
<text text-anchor="start" x="274.5" y="-73.5" font-family="Helvetica,sans-Serif" font-size="10.00">+ operator[]()</text>
<text text-anchor="start" x="274.5" y="-62.5" font-family="Helvetica,sans-Serif" font-size="10.00">+ getHelpColumns()</text>
<text text-anchor="start" x="274.5" y="-51.5" font-family="Helvetica,sans-Serif" font-size="10.00">+ isMatch()</text>
<text text-anchor="start" x="274.5" y="-40.5" font-family="Helvetica,sans-Serif" font-size="10.00">+ parse()</text>
<text text-anchor="start" x="274.5" y="-29.5" font-family="Helvetica,sans-Serif" font-size="10.00">+ validate()</text>
<text text-anchor="start" x="274.5" y="-18.5" font-family="Helvetica,sans-Serif" font-size="10.00">+ parse()</text>
<text text-anchor="start" x="274.5" y="-7.5" font-family="Helvetica,sans-Serif" font-size="10.00">+ parse()</text>
</a>
</g>
</g>
<!-- Node2 -->
<g id="node2" class="node">
<title>Node2</title>
<g id="a_node2"><a xlink:href="classclara_1_1detail_1_1_parser_ref_impl.html" target="_top" xlink:title=" ">
<polygon fill="white" stroke="black" points="191,-215.5 191,-371.5 318,-371.5 318,-215.5 191,-215.5"/>
<text text-anchor="start" x="199" y="-359.5" font-family="Helvetica,sans-Serif" font-size="10.00">clara::detail::ParserRef</text>
<text text-anchor="middle" x="254.5" y="-348.5" font-family="Helvetica,sans-Serif" font-size="10.00">Impl&lt; Opt &gt;</text>
<polyline fill="none" stroke="black" points="191,-341.5 318,-341.5 "/>
<text text-anchor="middle" x="254.5" y="-329.5" font-family="Helvetica,sans-Serif" font-size="10.00"> </text>
<polyline fill="none" stroke="black" points="191,-322.5 318,-322.5 "/>
<text text-anchor="start" x="199" y="-310.5" font-family="Helvetica,sans-Serif" font-size="10.00">+ ParserRefImpl()</text>
<text text-anchor="start" x="199" y="-299.5" font-family="Helvetica,sans-Serif" font-size="10.00">+ ParserRefImpl()</text>
<text text-anchor="start" x="199" y="-288.5" font-family="Helvetica,sans-Serif" font-size="10.00">+ operator()()</text>
<text text-anchor="start" x="199" y="-277.5" font-family="Helvetica,sans-Serif" font-size="10.00">+ optional()</text>
<text text-anchor="start" x="199" y="-266.5" font-family="Helvetica,sans-Serif" font-size="10.00">+ required()</text>
<text text-anchor="start" x="199" y="-255.5" font-family="Helvetica,sans-Serif" font-size="10.00">+ isOptional()</text>
<text text-anchor="start" x="199" y="-244.5" font-family="Helvetica,sans-Serif" font-size="10.00">+ cardinality()</text>
<text text-anchor="start" x="199" y="-233.5" font-family="Helvetica,sans-Serif" font-size="10.00">+ hint()</text>
<text text-anchor="start" x="199" y="-222.5" font-family="Helvetica,sans-Serif" font-size="10.00"># ParserRefImpl()</text>
</a>
</g>
</g>
<!-- Node2&#45;&gt;Node1 -->
<g id="edge1" class="edge">
<title>Node2&#45;&gt;Node1</title>
<path fill="none" stroke="midnightblue" d="M283.79,-205.66C288.05,-193.04 292.43,-180.08 296.65,-167.55"/>
<polygon fill="none" stroke="midnightblue" points="280.45,-204.64 280.57,-215.23 287.08,-206.88 280.45,-204.64"/>
</g>
<!-- Node3 -->
<g id="node3" class="node">
<title>Node3</title>
<g id="a_node3"><a xlink:href="classclara_1_1detail_1_1_composable_parser_impl.html" target="_top" xlink:title=" ">
<polygon fill="white" stroke="black" points="0,-430.5 0,-509.5 141,-509.5 141,-430.5 0,-430.5"/>
<text text-anchor="start" x="8" y="-497.5" font-family="Helvetica,sans-Serif" font-size="10.00">clara::detail::Composable</text>
<text text-anchor="middle" x="70.5" y="-486.5" font-family="Helvetica,sans-Serif" font-size="10.00">ParserImpl&lt; Opt &gt;</text>
<polyline fill="none" stroke="black" points="0,-479.5 141,-479.5 "/>
<text text-anchor="middle" x="70.5" y="-467.5" font-family="Helvetica,sans-Serif" font-size="10.00"> </text>
<polyline fill="none" stroke="black" points="0,-460.5 141,-460.5 "/>
<text text-anchor="start" x="8" y="-448.5" font-family="Helvetica,sans-Serif" font-size="10.00">+ operator|()</text>
<text text-anchor="start" x="8" y="-437.5" font-family="Helvetica,sans-Serif" font-size="10.00">+ operator+()</text>
</a>
</g>
</g>
<!-- Node3&#45;&gt;Node2 -->
<g id="edge2" class="edge">
<title>Node3&#45;&gt;Node2</title>
<path fill="none" stroke="midnightblue" d="M118.62,-423.36C140.63,-402.49 167.01,-377.47 190.65,-355.06"/>
<polygon fill="none" stroke="midnightblue" points="116.18,-420.85 111.34,-430.27 121,-425.93 116.18,-420.85"/>
</g>
<!-- Node4 -->
<g id="node4" class="node">
<title>Node4</title>
<g id="a_node4"><a xlink:href="classclara_1_1detail_1_1_parser_base.html" target="_top" xlink:title=" ">
<polygon fill="white" stroke="black" points="3.5,-547.5 3.5,-648.5 137.5,-648.5 137.5,-547.5 3.5,-547.5"/>
<text text-anchor="middle" x="70.5" y="-636.5" font-family="Helvetica,sans-Serif" font-size="10.00">clara::detail::ParserBase</text>
<polyline fill="none" stroke="black" points="3.5,-629.5 137.5,-629.5 "/>
<text text-anchor="middle" x="70.5" y="-617.5" font-family="Helvetica,sans-Serif" font-size="10.00"> </text>
<polyline fill="none" stroke="black" points="3.5,-610.5 137.5,-610.5 "/>
<text text-anchor="start" x="11.5" y="-598.5" font-family="Helvetica,sans-Serif" font-size="10.00">+ ~ParserBase()</text>
<text text-anchor="start" x="11.5" y="-587.5" font-family="Helvetica,sans-Serif" font-size="10.00">+ validate()</text>
<text text-anchor="start" x="11.5" y="-576.5" font-family="Helvetica,sans-Serif" font-size="10.00">+ parse()</text>
<text text-anchor="start" x="11.5" y="-565.5" font-family="Helvetica,sans-Serif" font-size="10.00">+ cardinality()</text>
<text text-anchor="start" x="11.5" y="-554.5" font-family="Helvetica,sans-Serif" font-size="10.00">+ parse()</text>
</a>
</g>
</g>
<!-- Node4&#45;&gt;Node3 -->
<g id="edge3" class="edge">
<title>Node4&#45;&gt;Node3</title>
<path fill="none" stroke="midnightblue" d="M70.5,-537.11C70.5,-527.74 70.5,-518.28 70.5,-509.56"/>
<polygon fill="none" stroke="midnightblue" points="67,-537.2 70.5,-547.2 74,-537.2 67,-537.2"/>
</g>
<!-- Node5 -->
<g id="node5" class="node">
<title>Node5</title>
<g id="a_node5"><a xlink:title=" ">
<polygon fill="white" stroke="#bfbfbf" points="159.5,-436 159.5,-504 269.5,-504 269.5,-436 159.5,-436"/>
<text text-anchor="start" x="167.5" y="-492" font-family="Helvetica,sans-Serif" font-size="10.00">shared_ptr&lt; clara::</text>
<text text-anchor="middle" x="214.5" y="-481" font-family="Helvetica,sans-Serif" font-size="10.00">detail::BoundRef &gt;</text>
<polyline fill="none" stroke="#bfbfbf" points="159.5,-474 269.5,-474 "/>
<text text-anchor="middle" x="214.5" y="-462" font-family="Helvetica,sans-Serif" font-size="10.00"> </text>
<polyline fill="none" stroke="#bfbfbf" points="159.5,-455 269.5,-455 "/>
<text text-anchor="middle" x="214.5" y="-443" font-family="Helvetica,sans-Serif" font-size="10.00"> </text>
</a>
</g>
</g>
<!-- Node5&#45;&gt;Node2 -->
<g id="edge4" class="edge">
<title>Node5&#45;&gt;Node2</title>
<path fill="none" stroke="#404040" d="M222.12,-435.77C225.56,-420.77 229.8,-402.26 234.07,-383.64"/>
<polygon fill="none" stroke="#404040" points="234.11,-383.44 231.55,-376.7 236.79,-371.74 239.35,-378.49 234.11,-383.44"/>
<text text-anchor="middle" x="252.5" y="-398.5" font-family="Helvetica,sans-Serif" font-size="10.00"> #m_ref</text>
</g>
<!-- Node6 -->
<g id="node6" class="node">
<title>Node6</title>
<g id="a_node6"><a xlink:title=" ">
<polygon fill="white" stroke="#bfbfbf" points="287.5,-441.5 287.5,-498.5 331.5,-498.5 331.5,-441.5 287.5,-441.5"/>
<text text-anchor="middle" x="309.5" y="-486.5" font-family="Helvetica,sans-Serif" font-size="10.00">string</text>
<polyline fill="none" stroke="#bfbfbf" points="287.5,-479.5 331.5,-479.5 "/>
<text text-anchor="middle" x="309.5" y="-467.5" font-family="Helvetica,sans-Serif" font-size="10.00"> </text>
<polyline fill="none" stroke="#bfbfbf" points="287.5,-460.5 331.5,-460.5 "/>
<text text-anchor="middle" x="309.5" y="-448.5" font-family="Helvetica,sans-Serif" font-size="10.00"> </text>
</a>
</g>
</g>
<!-- Node6&#45;&gt;Node2 -->
<g id="edge5" class="edge">
<title>Node6&#45;&gt;Node2</title>
<path fill="none" stroke="#404040" d="M300.79,-441.35C295.78,-425.46 289.17,-404.51 282.53,-383.43"/>
<polygon fill="none" stroke="#404040" points="282.45,-383.19 276.83,-378.67 278.85,-371.74 284.46,-376.26 282.45,-383.19"/>
<text text-anchor="middle" x="331" y="-404" font-family="Helvetica,sans-Serif" font-size="10.00"> #m_description</text>
<text text-anchor="middle" x="331" y="-393" font-family="Helvetica,sans-Serif" font-size="10.00">#m_hint</text>
</g>
<!-- Node7 -->
<g id="node7" class="node">
<title>Node7</title>
<g id="a_node7"><a xlink:title=" ">
<polygon fill="white" stroke="#bfbfbf" points="364,-441.5 364,-498.5 435,-498.5 435,-441.5 364,-441.5"/>
<text text-anchor="middle" x="399.5" y="-486.5" font-family="Helvetica,sans-Serif" font-size="10.00">Optionality</text>
<polyline fill="none" stroke="#bfbfbf" points="364,-479.5 435,-479.5 "/>
<text text-anchor="middle" x="399.5" y="-467.5" font-family="Helvetica,sans-Serif" font-size="10.00"> </text>
<polyline fill="none" stroke="#bfbfbf" points="364,-460.5 435,-460.5 "/>
<text text-anchor="middle" x="399.5" y="-448.5" font-family="Helvetica,sans-Serif" font-size="10.00"> </text>
</a>
</g>
</g>
<!-- Node7&#45;&gt;Node2 -->
<g id="edge6" class="edge">
<title>Node7&#45;&gt;Node2</title>
<path fill="none" stroke="#404040" d="M397.27,-441.41C394.56,-424.64 388.59,-403.86 375.5,-390 361.75,-375.44 349.62,-382.18 328.88,-372.27"/>
<polygon fill="none" stroke="#404040" points="328.73,-372.18 321.53,-372.63 318.35,-366.16 325.54,-365.71 328.73,-372.18"/>
<text text-anchor="middle" x="428" y="-398.5" font-family="Helvetica,sans-Serif" font-size="10.00"> #m_optionality</text>
</g>
<!-- Node8 -->
<g id="node8" class="node">
<title>Node8</title>
<g id="a_node8"><a xlink:title=" ">
<polygon fill="white" stroke="#bfbfbf" points="336,-265 336,-322 455,-322 455,-265 336,-265"/>
<text text-anchor="middle" x="395.5" y="-310" font-family="Helvetica,sans-Serif" font-size="10.00">vector&lt; std::string &gt;</text>
<polyline fill="none" stroke="#bfbfbf" points="336,-303 455,-303 "/>
<text text-anchor="middle" x="395.5" y="-291" font-family="Helvetica,sans-Serif" font-size="10.00"> </text>
<polyline fill="none" stroke="#bfbfbf" points="336,-284 455,-284 "/>
<text text-anchor="middle" x="395.5" y="-272" font-family="Helvetica,sans-Serif" font-size="10.00"> </text>
</a>
</g>
</g>
<!-- Node8&#45;&gt;Node1 -->
<g id="edge7" class="edge">
<title>Node8&#45;&gt;Node1</title>
<path fill="none" stroke="#404040" d="M386.07,-264.95C378.51,-242.85 367.44,-210.49 356.76,-179.28"/>
<polygon fill="none" stroke="#404040" points="356.73,-179.21 351.01,-174.83 352.85,-167.85 358.58,-172.24 356.73,-179.21"/>
<text text-anchor="middle" x="400" y="-189" font-family="Helvetica,sans-Serif" font-size="10.00"> #m_optNames</text>
</g>
</g>
</svg>
