<?xml version="1.0" encoding="UTF-8" standalone="no"?>
<!DOCTYPE svg PUBLIC "-//W3C//DTD SVG 1.1//EN"
 "http://www.w3.org/Graphics/SVG/1.1/DTD/svg11.dtd">
<!-- Generated by graphviz version 2.43.0 (0)
 -->
<!-- Title: Catch::Section::~Section Pages: 1 -->
<!--zoomable 218 -->
<svg id="main" version="1.1" xmlns="http://www.w3.org/2000/svg" xmlns:xlink="http://www.w3.org/1999/xlink" xml:space="preserve" onload="init(evt)">
<style type="text/css"><![CDATA[
.edge:hover path { stroke: red; }
.edge:hover polygon { stroke: red; fill: red; }
]]></style>
<script type="text/javascript"><![CDATA[
var edges = document.getElementsByTagName('g');
if (edges && edges.length) {
  for (var i=0;i<edges.length;i++) {
    if (edges[i].id.substr(0,4)=='edge') {
      edges[i].setAttribute('class','edge');
    }
  }
}
]]></script>
        <defs>
                <circle id="rim" cx="0" cy="0" r="7"/>
                <circle id="rim2" cx="0" cy="0" r="3.5"/>
                <g id="zoomPlus">
                        <use xlink:href="#rim" fill="#404040">
                                <set attributeName="fill" to="#808080" begin="zoomplus.mouseover" end="zoomplus.mouseout"/>
                        </use>
                        <path d="M-4,0h8M0,-4v8" fill="none" stroke="white" stroke-width="1.5" pointer-events="none"/>
                </g>
                <g id="zoomMin">
                        <use xlink:href="#rim" fill="#404040">
                                <set attributeName="fill" to="#808080" begin="zoomminus.mouseover" end="zoomminus.mouseout"/>
                        </use>
                        <path d="M-4,0h8" fill="none" stroke="white" stroke-width="1.5" pointer-events="none"/>
                </g>
                <g id="dirArrow">
                        <path fill="none" stroke="white" stroke-width="1.5" d="M0,-3.0v7 M-2.5,-0.5L0,-3.0L2.5,-0.5"/>
                </g>
               <g id="resetDef">
                       <use xlink:href="#rim2" fill="#404040">
                               <set attributeName="fill" to="#808080" begin="reset.mouseover" end="reset.mouseout"/>
                       </use>
               </g>
        </defs>

<script type="text/javascript">
var viewWidth = 892;
var viewHeight = 218;
var sectionId = 'dynsection-3';
</script>
<script xlink:href="svgpan.js"/>
<svg id="graph" class="graph">
<g id="viewport">
<title>Catch::Section::~Section</title>
<polygon fill="white" stroke="transparent" points="-4,4 -4,-213.5 888,-213.5 888,4 -4,4"/>
<!-- Node1 -->
<g id="node1" class="node">
<title>Node1</title>
<g id="a_node1"><a xlink:title=" ">
<polygon fill="#bfbfbf" stroke="black" points="0,-93.5 0,-112.5 137,-112.5 137,-93.5 0,-93.5"/>
<text text-anchor="middle" x="68.5" y="-100.5" font-family="Helvetica,sans-Serif" font-size="10.00">Catch::Section::~Section</text>
</a>
</g>
</g>
<!-- Node2 -->
<g id="node2" class="node">
<title>Node2</title>
<g id="a_node2"><a xlink:href="class_catch_1_1_timer.html#a065e37e3c9eb16bd4dcf41971d8deedc" target="_top" xlink:title=" ">
<polygon fill="white" stroke="black" points="180.5,-176 180.5,-206 319.5,-206 319.5,-176 180.5,-176"/>
<text text-anchor="start" x="188.5" y="-194" font-family="Helvetica,sans-Serif" font-size="10.00">Catch::Timer::getElapsed</text>
<text text-anchor="middle" x="250" y="-183" font-family="Helvetica,sans-Serif" font-size="10.00">Seconds</text>
</a>
</g>
</g>
<!-- Node1&#45;&gt;Node2 -->
<g id="edge1" class="edge">
<title>Node1&#45;&gt;Node2</title>
<path fill="none" stroke="midnightblue" d="M83,-112.61C102.24,-125.98 139,-150.31 173,-166 177.89,-168.25 183.04,-170.4 188.26,-172.42"/>
<polygon fill="midnightblue" stroke="midnightblue" points="187.09,-175.72 197.69,-175.9 189.52,-169.15 187.09,-175.72"/>
</g>
<!-- Node6 -->
<g id="node6" class="node">
<title>Node6</title>
<g id="a_node6"><a xlink:href="namespace_catch.html#af718eeab870712f292ed8dc6ee3f6488" target="_top" xlink:title=" ">
<polygon fill="white" stroke="black" points="182.5,-137.5 182.5,-156.5 317.5,-156.5 317.5,-137.5 182.5,-137.5"/>
<text text-anchor="middle" x="250" y="-144.5" font-family="Helvetica,sans-Serif" font-size="10.00">Catch::getResultCapture</text>
</a>
</g>
</g>
<!-- Node1&#45;&gt;Node6 -->
<g id="edge5" class="edge">
<title>Node1&#45;&gt;Node6</title>
<path fill="none" stroke="midnightblue" d="M108.45,-112.55C135.38,-119.15 171.41,-127.98 200.25,-135.05"/>
<polygon fill="midnightblue" stroke="midnightblue" points="199.58,-138.49 210.13,-137.47 201.25,-131.69 199.58,-138.49"/>
</g>
<!-- Node9 -->
<g id="node9" class="node">
<title>Node9</title>
<g id="a_node9"><a xlink:href="struct_catch_1_1_i_result_capture.html#a4e152bc43dc0933684e31fa67a58195d" target="_top" xlink:title=" ">
<polygon fill="white" stroke="black" points="189,-88 189,-118 311,-118 311,-88 189,-88"/>
<text text-anchor="start" x="197" y="-106" font-family="Helvetica,sans-Serif" font-size="10.00">Catch::IResultCapture</text>
<text text-anchor="middle" x="250" y="-95" font-family="Helvetica,sans-Serif" font-size="10.00">::sectionEnded</text>
</a>
</g>
</g>
<!-- Node1&#45;&gt;Node9 -->
<g id="edge8" class="edge">
<title>Node1&#45;&gt;Node9</title>
<path fill="none" stroke="midnightblue" d="M137.11,-103C150.65,-103 164.91,-103 178.54,-103"/>
<polygon fill="midnightblue" stroke="midnightblue" points="178.83,-106.5 188.83,-103 178.83,-99.5 178.83,-106.5"/>
</g>
<!-- Node10 -->
<g id="node10" class="node">
<title>Node10</title>
<g id="a_node10"><a xlink:href="struct_catch_1_1_i_result_capture.html#afcc71eef8ca821ae132cced4a2be6988" target="_top" xlink:title=" ">
<polygon fill="white" stroke="black" points="189,-39 189,-69 311,-69 311,-39 189,-39"/>
<text text-anchor="start" x="197" y="-57" font-family="Helvetica,sans-Serif" font-size="10.00">Catch::IResultCapture</text>
<text text-anchor="middle" x="250" y="-46" font-family="Helvetica,sans-Serif" font-size="10.00">::sectionEndedEarly</text>
</a>
</g>
</g>
<!-- Node1&#45;&gt;Node10 -->
<g id="edge9" class="edge">
<title>Node1&#45;&gt;Node10</title>
<path fill="none" stroke="midnightblue" d="M104.54,-93.44C127.16,-87.26 157.29,-79.04 184.18,-71.7"/>
<polygon fill="midnightblue" stroke="midnightblue" points="185.19,-75.05 193.92,-69.04 183.35,-68.29 185.19,-75.05"/>
</g>
<!-- Node11 -->
<g id="node11" class="node">
<title>Node11</title>
<g id="a_node11"><a xlink:href="namespace_catch.html#a4b5a2b34a00e65b753185bbc6a4962be" target="_top" xlink:title=" ">
<polygon fill="white" stroke="black" points="173,-0.5 173,-19.5 327,-19.5 327,-0.5 173,-0.5"/>
<text text-anchor="middle" x="250" y="-7.5" font-family="Helvetica,sans-Serif" font-size="10.00">Catch::uncaught_exceptions</text>
</a>
</g>
</g>
<!-- Node1&#45;&gt;Node11 -->
<g id="edge10" class="edge">
<title>Node1&#45;&gt;Node11</title>
<path fill="none" stroke="midnightblue" d="M80.12,-93.29C97.97,-77.49 135.7,-46.23 173,-29 178.3,-26.55 183.96,-24.39 189.71,-22.49"/>
<polygon fill="midnightblue" stroke="midnightblue" points="190.87,-25.79 199.42,-19.53 188.83,-19.1 190.87,-25.79"/>
</g>
<!-- Node3 -->
<g id="node3" class="node">
<title>Node3</title>
<g id="a_node3"><a xlink:href="class_catch_1_1_timer.html#a545de17a61a6fee1dbe3de5b0723e5fa" target="_top" xlink:title=" ">
<polygon fill="white" stroke="black" points="363.5,-177 363.5,-207 502.5,-207 502.5,-177 363.5,-177"/>
<text text-anchor="start" x="371.5" y="-195" font-family="Helvetica,sans-Serif" font-size="10.00">Catch::Timer::getElapsed</text>
<text text-anchor="middle" x="433" y="-184" font-family="Helvetica,sans-Serif" font-size="10.00">Microseconds</text>
</a>
</g>
</g>
<!-- Node2&#45;&gt;Node3 -->
<g id="edge2" class="edge">
<title>Node2&#45;&gt;Node3</title>
<path fill="none" stroke="midnightblue" d="M319.69,-191.38C330.64,-191.44 342.04,-191.5 353.2,-191.56"/>
<polygon fill="midnightblue" stroke="midnightblue" points="353.34,-195.07 363.36,-191.62 353.38,-188.07 353.34,-195.07"/>
</g>
<!-- Node4 -->
<g id="node4" class="node">
<title>Node4</title>
<g id="a_node4"><a xlink:href="class_catch_1_1_timer.html#a57be5d17ca868a2d6fb1eea84de665cf" target="_top" xlink:title=" ">
<polygon fill="white" stroke="black" points="540.5,-179 540.5,-209 679.5,-209 679.5,-179 540.5,-179"/>
<text text-anchor="start" x="548.5" y="-197" font-family="Helvetica,sans-Serif" font-size="10.00">Catch::Timer::getElapsed</text>
<text text-anchor="middle" x="610" y="-186" font-family="Helvetica,sans-Serif" font-size="10.00">Nanoseconds</text>
</a>
</g>
</g>
<!-- Node3&#45;&gt;Node4 -->
<g id="edge3" class="edge">
<title>Node3&#45;&gt;Node4</title>
<path fill="none" stroke="midnightblue" d="M502.66,-192.78C511.64,-192.89 520.89,-192.99 530.02,-193.1"/>
<polygon fill="midnightblue" stroke="midnightblue" points="530.21,-196.6 540.25,-193.21 530.29,-189.6 530.21,-196.6"/>
</g>
<!-- Node5 -->
<g id="node5" class="node">
<title>Node5</title>
<g id="a_node5"><a xlink:href="namespace_catch.html#a98d058468488c486a9cb5c8463f3ba29" target="_top" xlink:title=" ">
<polygon fill="white" stroke="black" points="717,-179 717,-209 884,-209 884,-179 717,-179"/>
<text text-anchor="start" x="725" y="-197" font-family="Helvetica,sans-Serif" font-size="10.00">Catch::getCurrentNanoseconds</text>
<text text-anchor="middle" x="800.5" y="-186" font-family="Helvetica,sans-Serif" font-size="10.00">SinceEpoch</text>
</a>
</g>
</g>
<!-- Node4&#45;&gt;Node5 -->
<g id="edge4" class="edge">
<title>Node4&#45;&gt;Node5</title>
<path fill="none" stroke="midnightblue" d="M679.59,-194C688.38,-194 697.5,-194 706.6,-194"/>
<polygon fill="midnightblue" stroke="midnightblue" points="706.85,-197.5 716.85,-194 706.85,-190.5 706.85,-197.5"/>
</g>
<!-- Node7 -->
<g id="node7" class="node">
<title>Node7</title>
<g id="a_node7"><a xlink:href="namespace_catch.html#a228a625318bb6183842e394eeba17d50" target="_top" xlink:title=" ">
<polygon fill="white" stroke="black" points="363,-137.5 363,-156.5 503,-156.5 503,-137.5 363,-137.5"/>
<text text-anchor="middle" x="433" y="-144.5" font-family="Helvetica,sans-Serif" font-size="10.00">Catch::getCurrentContext</text>
</a>
</g>
</g>
<!-- Node6&#45;&gt;Node7 -->
<g id="edge6" class="edge">
<title>Node6&#45;&gt;Node7</title>
<path fill="none" stroke="midnightblue" d="M317.63,-147C329.01,-147 340.93,-147 352.61,-147"/>
<polygon fill="midnightblue" stroke="midnightblue" points="352.78,-150.5 362.78,-147 352.78,-143.5 352.78,-150.5"/>
</g>
<!-- Node8 -->
<g id="node8" class="node">
<title>Node8</title>
<g id="a_node8"><a xlink:href="namespace_catch.html#a710841d4732b86c06f816bd4822bd425" target="_top" xlink:title=" ">
<polygon fill="white" stroke="black" points="539,-130 539,-160 681,-160 681,-130 539,-130"/>
<text text-anchor="start" x="547" y="-148" font-family="Helvetica,sans-Serif" font-size="10.00">Catch::getCurrentMutable</text>
<text text-anchor="middle" x="610" y="-137" font-family="Helvetica,sans-Serif" font-size="10.00">Context</text>
</a>
</g>
</g>
<!-- Node7&#45;&gt;Node8 -->
<g id="edge7" class="edge">
<title>Node7&#45;&gt;Node8</title>
<path fill="none" stroke="midnightblue" d="M503.16,-146.21C511.61,-146.11 520.3,-146.01 528.88,-145.92"/>
<polygon fill="midnightblue" stroke="midnightblue" points="528.94,-149.42 538.9,-145.8 528.86,-142.42 528.94,-149.42"/>
</g>
</g>
</svg>
        <g id="navigator" transform="translate(0 0)" fill="#404254">
                <rect fill="#f2f5e9" fill-opacity="0.5" stroke="#606060" stroke-width=".5" x="0" y="0" width="60" height="60"/>
                <use id="zoomplus" xlink:href="#zoomPlus" x="17" y="9" onmousedown="handleZoom(evt,'in')"/>
                <use id="zoomminus" xlink:href="#zoomMin" x="42" y="9" onmousedown="handleZoom(evt,'out')"/>
                <use id="reset" xlink:href="#resetDef" x="30" y="36" onmousedown="handleReset()"/>
                <g id="arrowUp" xlink:href="#dirArrow" transform="translate(30 24)" onmousedown="handlePan(0,-1)">
                  <use xlink:href="#rim" fill="#404040">
                        <set attributeName="fill" to="#808080" begin="arrowUp.mouseover" end="arrowUp.mouseout"/>
                  </use>
                  <path fill="none" stroke="white" stroke-width="1.5" d="M0,-3.0v7 M-2.5,-0.5L0,-3.0L2.5,-0.5"/>
                </g>
                <g id="arrowRight" xlink:href="#dirArrow" transform="rotate(90) translate(36 -43)" onmousedown="handlePan(1,0)">
                  <use xlink:href="#rim" fill="#404040">
                        <set attributeName="fill" to="#808080" begin="arrowRight.mouseover" end="arrowRight.mouseout"/>
                  </use>
                  <path fill="none" stroke="white" stroke-width="1.5" d="M0,-3.0v7 M-2.5,-0.5L0,-3.0L2.5,-0.5"/>
                </g>
                <g id="arrowDown" xlink:href="#dirArrow" transform="rotate(180) translate(-30 -48)" onmousedown="handlePan(0,1)">
                  <use xlink:href="#rim" fill="#404040">
                        <set attributeName="fill" to="#808080" begin="arrowDown.mouseover" end="arrowDown.mouseout"/>
                  </use>
                  <path fill="none" stroke="white" stroke-width="1.5" d="M0,-3.0v7 M-2.5,-0.5L0,-3.0L2.5,-0.5"/>
                </g>
                <g id="arrowLeft" xlink:href="#dirArrow" transform="rotate(270) translate(-36 17)" onmousedown="handlePan(-1,0)">
                  <use xlink:href="#rim" fill="#404040">
                        <set attributeName="fill" to="#808080" begin="arrowLeft.mouseover" end="arrowLeft.mouseout"/>
                  </use>
                  <path fill="none" stroke="white" stroke-width="1.5" d="M0,-3.0v7 M-2.5,-0.5L0,-3.0L2.5,-0.5"/>
                </g>
        </g>
        <svg viewBox="0 0 15 15" width="100%" height="30px" preserveAspectRatio="xMaxYMin meet">
         <g id="arrow_out" transform="scale(0.3 0.3)">
          <a xlink:href="class_catch_1_1_section_aa1422edd68a77aa578b5cc6b8b69f86f_cgraph_org.svg" target="_base">
           <rect id="button" ry="5" rx="5" y="6" x="6" height="38" width="38"
                fill="#f2f5e9" fill-opacity="0.5" stroke="#606060" stroke-width="1.0"/>
           <path id="arrow"
             d="M 11.500037,31.436501 C 11.940474,20.09759 22.043105,11.32322 32.158766,21.979434 L 37.068811,17.246167 C 37.068811,17.246167 37.088388,32 37.088388,32 L 22.160133,31.978069 C 22.160133,31.978069 26.997745,27.140456 26.997745,27.140456 C 18.528582,18.264221 13.291696,25.230495 11.500037,31.436501 z"
             style="fill:#404040;"/>
          </a>
         </g>
        </svg>
</svg>
