<?xml version="1.0" encoding="UTF-8" standalone="no"?>
<!DOCTYPE svg PUBLIC "-//W3C//DTD SVG 1.1//EN"
 "http://www.w3.org/Graphics/SVG/1.1/DTD/svg11.dtd">
<!-- Generated by graphviz version 2.43.0 (0)
 -->
<!-- Title: Catch::AssertionResult::getExpandedExpression Pages: 1 -->
<svg width="400pt" height="61pt"
 viewBox="0.00 0.00 400.00 61.00" xmlns="http://www.w3.org/2000/svg" xmlns:xlink="http://www.w3.org/1999/xlink">
<g id="graph0" class="graph" transform="scale(1 1) rotate(0) translate(4 57)">
<title>Catch::AssertionResult::getExpandedExpression</title>
<polygon fill="white" stroke="transparent" points="-4,4 -4,-57 396,-57 396,4 -4,4"/>
<!-- Node1 -->
<g id="node1" class="node">
<title>Node1</title>
<g id="a_node1"><a xlink:title=" ">
<polygon fill="#bfbfbf" stroke="black" points="252,-0.5 252,-30.5 392,-30.5 392,-0.5 252,-0.5"/>
<text text-anchor="start" x="260" y="-18.5" font-family="Helvetica,sans-Serif" font-size="10.00">Catch::AssertionResult</text>
<text text-anchor="middle" x="322" y="-7.5" font-family="Helvetica,sans-Serif" font-size="10.00">::getExpandedExpression</text>
</a>
</g>
</g>
<!-- Node2 -->
<g id="node2" class="node">
<title>Node2</title>
<g id="a_node2"><a xlink:href="class_catch_1_1_assertion_result.html#a78c43506c2b3d8cc1fb141a97d09ec94" target="_top" xlink:title=" ">
<polygon fill="white" stroke="black" points="75,-22.5 75,-52.5 216,-52.5 216,-22.5 75,-22.5"/>
<text text-anchor="start" x="83" y="-40.5" font-family="Helvetica,sans-Serif" font-size="10.00">Catch::AssertionResult</text>
<text text-anchor="middle" x="145.5" y="-29.5" font-family="Helvetica,sans-Serif" font-size="10.00">::hasExpandedExpression</text>
</a>
</g>
</g>
<!-- Node1&#45;&gt;Node2 -->
<g id="edge1" class="edge">
<title>Node1&#45;&gt;Node2</title>
<path fill="none" stroke="midnightblue" d="M241.82,-25.48C233.27,-26.56 224.63,-27.65 216.21,-28.71"/>
<polygon fill="midnightblue" stroke="midnightblue" points="242.3,-28.95 251.78,-24.23 241.42,-22 242.3,-28.95"/>
</g>
<!-- Node3 -->
<g id="node3" class="node">
<title>Node3</title>
<g id="a_node3"><a xlink:href="210-_evt-_event_listeners_8cpp.html#ab1667f970fa12a38558740e5899d8659" target="_top" xlink:title=" ">
<polygon fill="white" stroke="black" points="0,-6 0,-25 39,-25 39,-6 0,-6"/>
<text text-anchor="middle" x="19.5" y="-13" font-family="Helvetica,sans-Serif" font-size="10.00">print</text>
</a>
</g>
</g>
<!-- Node1&#45;&gt;Node3 -->
<g id="edge3" class="edge">
<title>Node1&#45;&gt;Node3</title>
<path fill="none" stroke="midnightblue" d="M241.75,-13.79C193.54,-13.02 130.71,-12.48 75,-13.5 63.07,-13.72 49.68,-14.21 39.16,-14.65"/>
<polygon fill="midnightblue" stroke="midnightblue" points="241.75,-17.29 251.81,-13.96 241.87,-10.29 241.75,-17.29"/>
</g>
<!-- Node2&#45;&gt;Node3 -->
<g id="edge2" class="edge">
<title>Node2&#45;&gt;Node3</title>
<path fill="none" stroke="midnightblue" d="M64.78,-23.36C55.25,-21.66 46.32,-20.08 39.02,-18.79"/>
<polygon fill="midnightblue" stroke="midnightblue" points="64.43,-26.85 74.89,-25.15 65.65,-19.96 64.43,-26.85"/>
</g>
</g>
</svg>
