<?xml version="1.0" encoding="UTF-8" standalone="no"?>
<!DOCTYPE svg PUBLIC "-//W3C//DTD SVG 1.1//EN"
 "http://www.w3.org/Graphics/SVG/1.1/DTD/svg11.dtd">
<!-- Generated by graphviz version 2.43.0 (0)
 -->
<!-- Title: Number Pages: 1 -->
<svg width="196pt" height="314pt"
 viewBox="0.00 0.00 196.00 314.00" xmlns="http://www.w3.org/2000/svg" xmlns:xlink="http://www.w3.org/1999/xlink">
<g id="graph0" class="graph" transform="scale(1 1) rotate(0) translate(4 310)">
<title>Number</title>
<polygon fill="white" stroke="transparent" points="-4,4 -4,-310 192,-310 192,4 -4,4"/>
<!-- Node1 -->
<g id="node1" class="node">
<title>Node1</title>
<g id="a_node1"><a xlink:title="Repersentation of a number in whole language.">
<polygon fill="#bfbfbf" stroke="black" points="43.5,-0.5 43.5,-167.5 136.5,-167.5 136.5,-0.5 43.5,-0.5"/>
<text text-anchor="middle" x="90" y="-155.5" font-family="Helvetica,sans-Serif" font-size="10.00">Number</text>
<polyline fill="none" stroke="black" points="43.5,-148.5 136.5,-148.5 "/>
<text text-anchor="middle" x="90" y="-136.5" font-family="Helvetica,sans-Serif" font-size="10.00"> </text>
<polyline fill="none" stroke="black" points="43.5,-129.5 136.5,-129.5 "/>
<text text-anchor="start" x="51.5" y="-117.5" font-family="Helvetica,sans-Serif" font-size="10.00">+ Number()</text>
<text text-anchor="start" x="51.5" y="-106.5" font-family="Helvetica,sans-Serif" font-size="10.00">+ Number()</text>
<text text-anchor="start" x="51.5" y="-95.5" font-family="Helvetica,sans-Serif" font-size="10.00">+ operator==()</text>
<text text-anchor="start" x="51.5" y="-84.5" font-family="Helvetica,sans-Serif" font-size="10.00">+ operator!=()</text>
<text text-anchor="start" x="51.5" y="-73.5" font-family="Helvetica,sans-Serif" font-size="10.00">+ value()</text>
<text text-anchor="start" x="51.5" y="-62.5" font-family="Helvetica,sans-Serif" font-size="10.00">+ get_value()</text>
<text text-anchor="start" x="51.5" y="-51.5" font-family="Helvetica,sans-Serif" font-size="10.00">+ eval()</text>
<text text-anchor="start" x="51.5" y="-40.5" font-family="Helvetica,sans-Serif" font-size="10.00">+ clone()</text>
<text text-anchor="start" x="51.5" y="-29.5" font-family="Helvetica,sans-Serif" font-size="10.00">+ ~Number()</text>
<text text-anchor="start" x="51.5" y="-18.5" font-family="Helvetica,sans-Serif" font-size="10.00">+ Parse()</text>
<text text-anchor="start" x="51.5" y="-7.5" font-family="Helvetica,sans-Serif" font-size="10.00">+ parse()</text>
</a>
</g>
</g>
<!-- Node2 -->
<g id="node2" class="node">
<title>Node2</title>
<g id="a_node2"><a xlink:href="class_i_value.html" target="_top" xlink:title="Base class for all possible evaluation results.">
<polygon fill="white" stroke="black" points="0,-204.5 0,-305.5 78,-305.5 78,-204.5 0,-204.5"/>
<text text-anchor="middle" x="39" y="-293.5" font-family="Helvetica,sans-Serif" font-size="10.00">IValue</text>
<polyline fill="none" stroke="black" points="0,-286.5 78,-286.5 "/>
<text text-anchor="middle" x="39" y="-274.5" font-family="Helvetica,sans-Serif" font-size="10.00"> </text>
<polyline fill="none" stroke="black" points="0,-267.5 78,-267.5 "/>
<text text-anchor="start" x="8" y="-255.5" font-family="Helvetica,sans-Serif" font-size="10.00">+ IValue()</text>
<text text-anchor="start" x="8" y="-244.5" font-family="Helvetica,sans-Serif" font-size="10.00">+ get_type()</text>
<text text-anchor="start" x="8" y="-233.5" font-family="Helvetica,sans-Serif" font-size="10.00">+ value()</text>
<text text-anchor="start" x="8" y="-222.5" font-family="Helvetica,sans-Serif" font-size="10.00">+ clone()</text>
<text text-anchor="start" x="8" y="-211.5" font-family="Helvetica,sans-Serif" font-size="10.00">+ ~IValue()</text>
</a>
</g>
</g>
<!-- Node2&#45;&gt;Node1 -->
<g id="edge1" class="edge">
<title>Node2&#45;&gt;Node1</title>
<path fill="none" stroke="midnightblue" d="M56.93,-194.57C59.56,-185.87 62.3,-176.78 65.04,-167.72"/>
<polygon fill="none" stroke="midnightblue" points="53.56,-193.62 54.03,-204.21 60.27,-195.65 53.56,-193.62"/>
</g>
<!-- Node3 -->
<g id="node3" class="node">
<title>Node3</title>
<g id="a_node3"><a xlink:href="class_i_statment.html" target="_top" xlink:title="Base class for all possible statments in the language.">
<polygon fill="white" stroke="black" points="96,-204.5 96,-305.5 188,-305.5 188,-204.5 96,-204.5"/>
<text text-anchor="middle" x="142" y="-293.5" font-family="Helvetica,sans-Serif" font-size="10.00">IStatment</text>
<polyline fill="none" stroke="black" points="96,-286.5 188,-286.5 "/>
<text text-anchor="middle" x="142" y="-274.5" font-family="Helvetica,sans-Serif" font-size="10.00"> </text>
<polyline fill="none" stroke="black" points="96,-267.5 188,-267.5 "/>
<text text-anchor="start" x="104" y="-255.5" font-family="Helvetica,sans-Serif" font-size="10.00">+ IStatment()</text>
<text text-anchor="start" x="104" y="-244.5" font-family="Helvetica,sans-Serif" font-size="10.00">+ eval()</text>
<text text-anchor="start" x="104" y="-233.5" font-family="Helvetica,sans-Serif" font-size="10.00">+ clone()</text>
<text text-anchor="start" x="104" y="-222.5" font-family="Helvetica,sans-Serif" font-size="10.00">+ ~IStatment()</text>
<text text-anchor="start" x="104" y="-211.5" font-family="Helvetica,sans-Serif" font-size="10.00">+ parse()</text>
</a>
</g>
</g>
<!-- Node3&#45;&gt;Node1 -->
<g id="edge2" class="edge">
<title>Node3&#45;&gt;Node1</title>
<path fill="none" stroke="midnightblue" d="M123.71,-194.57C121.04,-185.87 118.24,-176.78 115.45,-167.72"/>
<polygon fill="none" stroke="midnightblue" points="120.39,-195.68 126.68,-204.21 127.08,-193.62 120.39,-195.68"/>
</g>
</g>
</svg>
