<?xml version="1.0" encoding="UTF-8" standalone="no"?>
<!DOCTYPE svg PUBLIC "-//W3C//DTD SVG 1.1//EN"
 "http://www.w3.org/Graphics/SVG/1.1/DTD/svg11.dtd">
<!-- Generated by graphviz version 2.43.0 (0)
 -->
<!-- Title: Catch::JunitReporter Pages: 1 -->
<!--zoomable 876 -->
<svg id="main" version="1.1" xmlns="http://www.w3.org/2000/svg" xmlns:xlink="http://www.w3.org/1999/xlink" xml:space="preserve" onload="init(evt)">
<style type="text/css"><![CDATA[
.edge:hover path { stroke: red; }
.edge:hover polygon { stroke: red; fill: red; }
]]></style>
<script type="text/javascript"><![CDATA[
var edges = document.getElementsByTagName('g');
if (edges && edges.length) {
  for (var i=0;i<edges.length;i++) {
    if (edges[i].id.substr(0,4)=='edge') {
      edges[i].setAttribute('class','edge');
    }
  }
}
]]></script>
        <defs>
                <circle id="rim" cx="0" cy="0" r="7"/>
                <circle id="rim2" cx="0" cy="0" r="3.5"/>
                <g id="zoomPlus">
                        <use xlink:href="#rim" fill="#404040">
                                <set attributeName="fill" to="#808080" begin="zoomplus.mouseover" end="zoomplus.mouseout"/>
                        </use>
                        <path d="M-4,0h8M0,-4v8" fill="none" stroke="white" stroke-width="1.5" pointer-events="none"/>
                </g>
                <g id="zoomMin">
                        <use xlink:href="#rim" fill="#404040">
                                <set attributeName="fill" to="#808080" begin="zoomminus.mouseover" end="zoomminus.mouseout"/>
                        </use>
                        <path d="M-4,0h8" fill="none" stroke="white" stroke-width="1.5" pointer-events="none"/>
                </g>
                <g id="dirArrow">
                        <path fill="none" stroke="white" stroke-width="1.5" d="M0,-3.0v7 M-2.5,-0.5L0,-3.0L2.5,-0.5"/>
                </g>
               <g id="resetDef">
                       <use xlink:href="#rim2" fill="#404040">
                               <set attributeName="fill" to="#808080" begin="reset.mouseover" end="reset.mouseout"/>
                       </use>
               </g>
        </defs>

<script type="text/javascript">
var viewWidth = 1994;
var viewHeight = 876;
var sectionId = 'dynsection-1';
</script>
<script xlink:href="svgpan.js"/>
<svg id="graph" class="graph">
<g id="viewport">
<title>Catch::JunitReporter</title>
<polygon fill="white" stroke="transparent" points="-4,4 -4,-872 1989.5,-872 1989.5,4 -4,4"/>
<!-- Node1 -->
<g id="node1" class="node">
<title>Node1</title>
<g id="a_node1"><a xlink:title=" ">
<polygon fill="#bfbfbf" stroke="black" points="1543,-0.5 1543,-222.5 1702,-222.5 1702,-0.5 1543,-0.5"/>
<text text-anchor="middle" x="1622.5" y="-210.5" font-family="Helvetica,sans-Serif" font-size="10.00">Catch::JunitReporter</text>
<polyline fill="none" stroke="black" points="1543,-203.5 1702,-203.5 "/>
<text text-anchor="middle" x="1622.5" y="-191.5" font-family="Helvetica,sans-Serif" font-size="10.00"> </text>
<polyline fill="none" stroke="black" points="1543,-184.5 1702,-184.5 "/>
<text text-anchor="start" x="1551" y="-172.5" font-family="Helvetica,sans-Serif" font-size="10.00">+ JunitReporter()</text>
<text text-anchor="start" x="1551" y="-161.5" font-family="Helvetica,sans-Serif" font-size="10.00">+ ~JunitReporter()</text>
<text text-anchor="start" x="1551" y="-150.5" font-family="Helvetica,sans-Serif" font-size="10.00">+ noMatchingTestCases()</text>
<text text-anchor="start" x="1551" y="-139.5" font-family="Helvetica,sans-Serif" font-size="10.00">+ testRunStarting()</text>
<text text-anchor="start" x="1551" y="-128.5" font-family="Helvetica,sans-Serif" font-size="10.00">+ testGroupStarting()</text>
<text text-anchor="start" x="1551" y="-117.5" font-family="Helvetica,sans-Serif" font-size="10.00">+ testCaseStarting()</text>
<text text-anchor="start" x="1551" y="-106.5" font-family="Helvetica,sans-Serif" font-size="10.00">+ assertionEnded()</text>
<text text-anchor="start" x="1551" y="-95.5" font-family="Helvetica,sans-Serif" font-size="10.00">+ testCaseEnded()</text>
<text text-anchor="start" x="1551" y="-84.5" font-family="Helvetica,sans-Serif" font-size="10.00">+ testGroupEnded()</text>
<text text-anchor="start" x="1551" y="-73.5" font-family="Helvetica,sans-Serif" font-size="10.00">+ testRunEndedCumulative()</text>
<text text-anchor="start" x="1551" y="-62.5" font-family="Helvetica,sans-Serif" font-size="10.00">+ writeGroup()</text>
<text text-anchor="start" x="1551" y="-51.5" font-family="Helvetica,sans-Serif" font-size="10.00">+ writeTestCase()</text>
<text text-anchor="start" x="1551" y="-40.5" font-family="Helvetica,sans-Serif" font-size="10.00">+ writeSection()</text>
<text text-anchor="start" x="1551" y="-29.5" font-family="Helvetica,sans-Serif" font-size="10.00">+ writeAssertions()</text>
<text text-anchor="start" x="1551" y="-18.5" font-family="Helvetica,sans-Serif" font-size="10.00">+ writeAssertion()</text>
<text text-anchor="start" x="1551" y="-7.5" font-family="Helvetica,sans-Serif" font-size="10.00">+ getDescription()</text>
</a>
</g>
</g>
<!-- Node2 -->
<g id="node2" class="node">
<title>Node2</title>
<g id="a_node2"><a xlink:href="struct_catch_1_1_cumulative_reporter_base.html" target="_top" xlink:title=" ">
<polygon fill="white" stroke="black" points="710.5,-281.5 710.5,-514.5 876.5,-514.5 876.5,-281.5 710.5,-281.5"/>
<text text-anchor="start" x="718.5" y="-502.5" font-family="Helvetica,sans-Serif" font-size="10.00">Catch::CumulativeReporter</text>
<text text-anchor="middle" x="793.5" y="-491.5" font-family="Helvetica,sans-Serif" font-size="10.00">Base&lt; JunitReporter &gt;</text>
<polyline fill="none" stroke="black" points="710.5,-484.5 876.5,-484.5 "/>
<text text-anchor="middle" x="793.5" y="-472.5" font-family="Helvetica,sans-Serif" font-size="10.00"> </text>
<polyline fill="none" stroke="black" points="710.5,-465.5 876.5,-465.5 "/>
<text text-anchor="start" x="718.5" y="-453.5" font-family="Helvetica,sans-Serif" font-size="10.00">+ CumulativeReporterBase()</text>
<text text-anchor="start" x="718.5" y="-442.5" font-family="Helvetica,sans-Serif" font-size="10.00">+ ~CumulativeReporterBase()</text>
<text text-anchor="start" x="718.5" y="-431.5" font-family="Helvetica,sans-Serif" font-size="10.00">+ getPreferences()</text>
<text text-anchor="start" x="718.5" y="-420.5" font-family="Helvetica,sans-Serif" font-size="10.00">+ testRunStarting()</text>
<text text-anchor="start" x="718.5" y="-409.5" font-family="Helvetica,sans-Serif" font-size="10.00">+ testGroupStarting()</text>
<text text-anchor="start" x="718.5" y="-398.5" font-family="Helvetica,sans-Serif" font-size="10.00">+ testCaseStarting()</text>
<text text-anchor="start" x="718.5" y="-387.5" font-family="Helvetica,sans-Serif" font-size="10.00">+ sectionStarting()</text>
<text text-anchor="start" x="718.5" y="-376.5" font-family="Helvetica,sans-Serif" font-size="10.00">+ assertionStarting()</text>
<text text-anchor="start" x="718.5" y="-365.5" font-family="Helvetica,sans-Serif" font-size="10.00">+ assertionEnded()</text>
<text text-anchor="start" x="718.5" y="-354.5" font-family="Helvetica,sans-Serif" font-size="10.00">+ sectionEnded()</text>
<text text-anchor="start" x="718.5" y="-343.5" font-family="Helvetica,sans-Serif" font-size="10.00">+ testCaseEnded()</text>
<text text-anchor="start" x="718.5" y="-332.5" font-family="Helvetica,sans-Serif" font-size="10.00">+ testGroupEnded()</text>
<text text-anchor="start" x="718.5" y="-321.5" font-family="Helvetica,sans-Serif" font-size="10.00">+ testRunEnded()</text>
<text text-anchor="start" x="718.5" y="-310.5" font-family="Helvetica,sans-Serif" font-size="10.00">+ testRunEndedCumulative()</text>
<text text-anchor="start" x="718.5" y="-299.5" font-family="Helvetica,sans-Serif" font-size="10.00">+ skipTest()</text>
<text text-anchor="start" x="718.5" y="-288.5" font-family="Helvetica,sans-Serif" font-size="10.00">+ getSupportedVerbosities()</text>
</a>
</g>
</g>
<!-- Node2&#45;&gt;Node1 -->
<g id="edge1" class="edge">
<title>Node2&#45;&gt;Node1</title>
<path fill="none" stroke="midnightblue" d="M886.38,-365.13C1050.47,-308.81 1388.84,-192.69 1542.93,-139.81"/>
<polygon fill="none" stroke="midnightblue" points="885.11,-361.86 876.78,-368.42 887.38,-368.48 885.11,-361.86"/>
</g>
<!-- Node3 -->
<g id="node3" class="node">
<title>Node3</title>
<g id="a_node3"><a xlink:href="struct_catch_1_1_i_streaming_reporter.html" target="_top" xlink:title=" ">
<polygon fill="white" stroke="black" points="801,-584.5 801,-751.5 952,-751.5 952,-584.5 801,-584.5"/>
<text text-anchor="middle" x="876.5" y="-739.5" font-family="Helvetica,sans-Serif" font-size="10.00">Catch::IStreamingReporter</text>
<polyline fill="none" stroke="black" points="801,-732.5 952,-732.5 "/>
<text text-anchor="middle" x="876.5" y="-720.5" font-family="Helvetica,sans-Serif" font-size="10.00"> </text>
<polyline fill="none" stroke="black" points="801,-713.5 952,-713.5 "/>
<text text-anchor="start" x="809" y="-701.5" font-family="Helvetica,sans-Serif" font-size="10.00">+ ~IStreamingReporter()</text>
<text text-anchor="start" x="809" y="-690.5" font-family="Helvetica,sans-Serif" font-size="10.00">+ getPreferences()</text>
<text text-anchor="start" x="809" y="-679.5" font-family="Helvetica,sans-Serif" font-size="10.00">+ noMatchingTestCases()</text>
<text text-anchor="start" x="809" y="-668.5" font-family="Helvetica,sans-Serif" font-size="10.00">+ reportInvalidArguments()</text>
<text text-anchor="start" x="809" y="-657.5" font-family="Helvetica,sans-Serif" font-size="10.00">+ testRunStarting()</text>
<text text-anchor="start" x="809" y="-646.5" font-family="Helvetica,sans-Serif" font-size="10.00">+ testGroupStarting()</text>
<text text-anchor="start" x="809" y="-635.5" font-family="Helvetica,sans-Serif" font-size="10.00">+ testCaseStarting()</text>
<text text-anchor="start" x="809" y="-624.5" font-family="Helvetica,sans-Serif" font-size="10.00">+ sectionStarting()</text>
<text text-anchor="start" x="809" y="-613.5" font-family="Helvetica,sans-Serif" font-size="10.00">+ assertionStarting()</text>
<text text-anchor="start" x="809" y="-602.5" font-family="Helvetica,sans-Serif" font-size="10.00">+ assertionEnded()</text>
<text text-anchor="start" x="809" y="-591.5" font-family="Helvetica,sans-Serif" font-size="10.00">and 7 more...</text>
</a>
</g>
</g>
<!-- Node3&#45;&gt;Node2 -->
<g id="edge2" class="edge">
<title>Node3&#45;&gt;Node2</title>
<path fill="none" stroke="midnightblue" d="M847.93,-574.74C841.95,-555.44 835.57,-534.86 829.37,-514.82"/>
<polygon fill="none" stroke="midnightblue" points="844.62,-575.89 850.92,-584.4 851.3,-573.82 844.62,-575.89"/>
</g>
<!-- Node4 -->
<g id="node4" class="node">
<title>Node4</title>
<g id="a_node4"><a xlink:title=" ">
<polygon fill="white" stroke="#bfbfbf" points="0,-628.5 0,-707.5 179,-707.5 179,-628.5 0,-628.5"/>
<text text-anchor="start" x="8" y="-695.5" font-family="Helvetica,sans-Serif" font-size="10.00">vector&lt; std::shared</text>
<text text-anchor="start" x="8" y="-684.5" font-family="Helvetica,sans-Serif" font-size="10.00">_ptr&lt; Catch::CumulativeReporter</text>
<text text-anchor="middle" x="89.5" y="-673.5" font-family="Helvetica,sans-Serif" font-size="10.00">Base::Node &gt; &gt;</text>
<polyline fill="none" stroke="#bfbfbf" points="0,-666.5 179,-666.5 "/>
<text text-anchor="middle" x="89.5" y="-654.5" font-family="Helvetica,sans-Serif" font-size="10.00"> </text>
<polyline fill="none" stroke="#bfbfbf" points="0,-647.5 179,-647.5 "/>
<text text-anchor="middle" x="89.5" y="-635.5" font-family="Helvetica,sans-Serif" font-size="10.00"> </text>
</a>
</g>
</g>
<!-- Node4&#45;&gt;Node2 -->
<g id="edge3" class="edge">
<title>Node4&#45;&gt;Node2</title>
<path fill="none" stroke="#404040" d="M116.03,-628.47C139.08,-597.96 175.2,-556.66 216.5,-533 370.28,-444.91 578.49,-414.7 698.17,-404.36"/>
<polygon fill="none" stroke="#404040" points="698.22,-404.35 703.87,-399.87 710.18,-403.36 704.53,-407.84 698.22,-404.35"/>
<text text-anchor="middle" x="255" y="-558" font-family="Helvetica,sans-Serif" font-size="10.00"> +m_testCases</text>
<text text-anchor="middle" x="255" y="-547" font-family="Helvetica,sans-Serif" font-size="10.00">+m_testRuns</text>
<text text-anchor="middle" x="255" y="-536" font-family="Helvetica,sans-Serif" font-size="10.00">+m_testGroups</text>
</g>
<!-- Node5 -->
<g id="node5" class="node">
<title>Node5</title>
<g id="a_node5"><a xlink:title=" ">
<polygon fill="white" stroke="#bfbfbf" points="197.5,-639.5 197.5,-696.5 265.5,-696.5 265.5,-639.5 197.5,-639.5"/>
<text text-anchor="middle" x="231.5" y="-684.5" font-family="Helvetica,sans-Serif" font-size="10.00">ostream &amp;</text>
<polyline fill="none" stroke="#bfbfbf" points="197.5,-677.5 265.5,-677.5 "/>
<text text-anchor="middle" x="231.5" y="-665.5" font-family="Helvetica,sans-Serif" font-size="10.00"> </text>
<polyline fill="none" stroke="#bfbfbf" points="197.5,-658.5 265.5,-658.5 "/>
<text text-anchor="middle" x="231.5" y="-646.5" font-family="Helvetica,sans-Serif" font-size="10.00"> </text>
</a>
</g>
</g>
<!-- Node5&#45;&gt;Node2 -->
<g id="edge4" class="edge">
<title>Node5&#45;&gt;Node2</title>
<path fill="none" stroke="#404040" d="M239.99,-639.48C246.78,-621.55 257.92,-598.82 274.5,-584 395.77,-475.58 584.94,-429.57 698.29,-410.89"/>
<polygon fill="none" stroke="#404040" points="698.52,-410.86 703.82,-405.96 710.37,-408.96 705.08,-413.86 698.52,-410.86"/>
<text text-anchor="middle" x="356.5" y="-547" font-family="Helvetica,sans-Serif" font-size="10.00"> +stream</text>
</g>
<!-- Node6 -->
<g id="node6" class="node">
<title>Node6</title>
<g id="a_node6"><a xlink:title=" ">
<polygon fill="white" stroke="#bfbfbf" points="284,-628.5 284,-707.5 423,-707.5 423,-628.5 284,-628.5"/>
<text text-anchor="start" x="292" y="-695.5" font-family="Helvetica,sans-Serif" font-size="10.00">shared_ptr&lt; Catch::</text>
<text text-anchor="start" x="292" y="-684.5" font-family="Helvetica,sans-Serif" font-size="10.00">CumulativeReporterBase</text>
<text text-anchor="middle" x="353.5" y="-673.5" font-family="Helvetica,sans-Serif" font-size="10.00">::SectionNode &gt;</text>
<polyline fill="none" stroke="#bfbfbf" points="284,-666.5 423,-666.5 "/>
<text text-anchor="middle" x="353.5" y="-654.5" font-family="Helvetica,sans-Serif" font-size="10.00"> </text>
<polyline fill="none" stroke="#bfbfbf" points="284,-647.5 423,-647.5 "/>
<text text-anchor="middle" x="353.5" y="-635.5" font-family="Helvetica,sans-Serif" font-size="10.00"> </text>
</a>
</g>
</g>
<!-- Node6&#45;&gt;Node2 -->
<g id="edge5" class="edge">
<title>Node6&#45;&gt;Node2</title>
<path fill="none" stroke="#404040" d="M386.14,-628.17C399.43,-613.49 415.44,-597.16 431.5,-584 512.8,-517.38 622.02,-465.67 699.16,-434.06"/>
<polygon fill="none" stroke="#404040" points="699.18,-434.05 703.24,-428.09 710.3,-429.54 706.24,-435.5 699.18,-434.05"/>
<text text-anchor="middle" x="545.5" y="-552.5" font-family="Helvetica,sans-Serif" font-size="10.00"> +m_deepestSection</text>
<text text-anchor="middle" x="545.5" y="-541.5" font-family="Helvetica,sans-Serif" font-size="10.00">+m_rootSection</text>
</g>
<!-- Node7 -->
<g id="node7" class="node">
<title>Node7</title>
<g id="a_node7"><a xlink:title=" ">
<polygon fill="white" stroke="#bfbfbf" points="441,-628.5 441,-707.5 620,-707.5 620,-628.5 441,-628.5"/>
<text text-anchor="start" x="449" y="-695.5" font-family="Helvetica,sans-Serif" font-size="10.00">vector&lt; std::shared</text>
<text text-anchor="start" x="449" y="-684.5" font-family="Helvetica,sans-Serif" font-size="10.00">_ptr&lt; Catch::CumulativeReporter</text>
<text text-anchor="middle" x="530.5" y="-673.5" font-family="Helvetica,sans-Serif" font-size="10.00">Base::SectionNode &gt; &gt;</text>
<polyline fill="none" stroke="#bfbfbf" points="441,-666.5 620,-666.5 "/>
<text text-anchor="middle" x="530.5" y="-654.5" font-family="Helvetica,sans-Serif" font-size="10.00"> </text>
<polyline fill="none" stroke="#bfbfbf" points="441,-647.5 620,-647.5 "/>
<text text-anchor="middle" x="530.5" y="-635.5" font-family="Helvetica,sans-Serif" font-size="10.00"> </text>
</a>
</g>
</g>
<!-- Node7&#45;&gt;Node2 -->
<g id="edge6" class="edge">
<title>Node7&#45;&gt;Node2</title>
<path fill="none" stroke="#404040" d="M563.16,-628.29C586.56,-601.05 619.17,-564.05 649.5,-533 665.86,-516.26 683.78,-498.87 701.26,-482.39"/>
<polygon fill="none" stroke="#404040" points="701.6,-482.07 703.24,-475.05 710.35,-473.86 708.71,-480.88 701.6,-482.07"/>
<text text-anchor="middle" x="694" y="-547" font-family="Helvetica,sans-Serif" font-size="10.00"> +m_sectionStack</text>
</g>
<!-- Node8 -->
<g id="node8" class="node">
<title>Node8</title>
<g id="a_node8"><a xlink:title=" ">
<polygon fill="white" stroke="#bfbfbf" points="638,-623 638,-713 783,-713 783,-623 638,-623"/>
<text text-anchor="start" x="646" y="-701" font-family="Helvetica,sans-Serif" font-size="10.00">vector&lt; std::vector</text>
<text text-anchor="start" x="646" y="-690" font-family="Helvetica,sans-Serif" font-size="10.00">&lt; std::shared_ptr&lt; Catch</text>
<text text-anchor="start" x="646" y="-679" font-family="Helvetica,sans-Serif" font-size="10.00">::CumulativeReporterBase</text>
<text text-anchor="middle" x="710.5" y="-668" font-family="Helvetica,sans-Serif" font-size="10.00">::SectionNode &gt; &gt; &gt;</text>
<polyline fill="none" stroke="#bfbfbf" points="638,-661 783,-661 "/>
<text text-anchor="middle" x="710.5" y="-649" font-family="Helvetica,sans-Serif" font-size="10.00"> </text>
<polyline fill="none" stroke="#bfbfbf" points="638,-642 783,-642 "/>
<text text-anchor="middle" x="710.5" y="-630" font-family="Helvetica,sans-Serif" font-size="10.00"> </text>
</a>
</g>
</g>
<!-- Node8&#45;&gt;Node2 -->
<g id="edge7" class="edge">
<title>Node8&#45;&gt;Node2</title>
<path fill="none" stroke="#404040" d="M724.21,-622.75C732.42,-596.23 743.32,-561.04 754.03,-526.44"/>
<polygon fill="none" stroke="#404040" points="754.11,-526.2 752.06,-519.29 757.66,-514.74 759.7,-521.65 754.11,-526.2"/>
<text text-anchor="middle" x="786" y="-547" font-family="Helvetica,sans-Serif" font-size="10.00"> +m_sections</text>
</g>
<!-- Node9 -->
<g id="node9" class="node">
<title>Node9</title>
<g id="a_node9"><a xlink:href="struct_catch_1_1_reporter_preferences.html" target="_top" xlink:title=" ">
<polygon fill="white" stroke="black" points="970.5,-639.5 970.5,-696.5 1120.5,-696.5 1120.5,-639.5 970.5,-639.5"/>
<text text-anchor="middle" x="1045.5" y="-684.5" font-family="Helvetica,sans-Serif" font-size="10.00">Catch::ReporterPreferences</text>
<polyline fill="none" stroke="black" points="970.5,-677.5 1120.5,-677.5 "/>
<text text-anchor="middle" x="1045.5" y="-665.5" font-family="Helvetica,sans-Serif" font-size="10.00"> </text>
<polyline fill="none" stroke="black" points="970.5,-658.5 1120.5,-658.5 "/>
<text text-anchor="middle" x="1045.5" y="-646.5" font-family="Helvetica,sans-Serif" font-size="10.00"> </text>
</a>
</g>
</g>
<!-- Node9&#45;&gt;Node2 -->
<g id="edge8" class="edge">
<title>Node9&#45;&gt;Node2</title>
<path fill="none" stroke="#404040" d="M1019.48,-639.33C987.86,-605.7 932.79,-547.14 884.93,-496.24"/>
<polygon fill="none" stroke="#404040" points="884.93,-496.23 877.9,-494.6 876.71,-487.49 883.73,-489.12 884.93,-496.23"/>
<text text-anchor="middle" x="995" y="-547" font-family="Helvetica,sans-Serif" font-size="10.00"> +m_reporterPrefs</text>
</g>
<!-- Node10 -->
<g id="node10" class="node">
<title>Node10</title>
<g id="a_node10"><a xlink:href="classbool.html" target="_top" xlink:title=" ">
<polygon fill="white" stroke="black" points="1221.5,-810.5 1221.5,-867.5 1259.5,-867.5 1259.5,-810.5 1221.5,-810.5"/>
<text text-anchor="middle" x="1240.5" y="-855.5" font-family="Helvetica,sans-Serif" font-size="10.00">bool</text>
<polyline fill="none" stroke="black" points="1221.5,-848.5 1259.5,-848.5 "/>
<text text-anchor="middle" x="1240.5" y="-836.5" font-family="Helvetica,sans-Serif" font-size="10.00"> </text>
<polyline fill="none" stroke="black" points="1221.5,-829.5 1259.5,-829.5 "/>
<text text-anchor="middle" x="1240.5" y="-817.5" font-family="Helvetica,sans-Serif" font-size="10.00"> </text>
</a>
</g>
</g>
<!-- Node10&#45;&gt;Node1 -->
<g id="edge15" class="edge">
<title>Node10&#45;&gt;Node1</title>
<path fill="none" stroke="#404040" d="M1259.63,-834.95C1296.97,-827.88 1379.18,-806.61 1416.5,-752 1535.01,-578.57 1367.6,-471.77 1455.5,-281 1473.15,-242.69 1503.4,-208.07 1533.35,-180.31"/>
<polygon fill="none" stroke="#404040" points="1533.72,-179.98 1535.49,-172.98 1542.62,-171.92 1540.86,-178.92 1533.72,-179.98"/>
<text text-anchor="middle" x="1489.5" y="-547" font-family="Helvetica,sans-Serif" font-size="10.00"> +m_okToFail</text>
</g>
<!-- Node10&#45;&gt;Node9 -->
<g id="edge9" class="edge">
<title>Node10&#45;&gt;Node9</title>
<path fill="none" stroke="#404040" d="M1221.49,-824.36C1198.94,-807.93 1160.49,-779.14 1129.5,-752 1112.9,-737.46 1095.4,-720.47 1080.7,-705.66"/>
<polygon fill="none" stroke="#404040" points="1080.36,-705.32 1073.3,-703.85 1071.94,-696.77 1079,-698.24 1080.36,-705.32"/>
<text text-anchor="middle" x="1247.5" y="-784" font-family="Helvetica,sans-Serif" font-size="10.00"> +shouldReportAllAssertions</text>
<text text-anchor="middle" x="1247.5" y="-773" font-family="Helvetica,sans-Serif" font-size="10.00">+shouldRedirectStdOut</text>
</g>
<!-- Node11 -->
<g id="node11" class="node">
<title>Node11</title>
<g id="a_node11"><a xlink:title=" ">
<polygon fill="white" stroke="#bfbfbf" points="1138.5,-634 1138.5,-702 1276.5,-702 1276.5,-634 1138.5,-634"/>
<text text-anchor="start" x="1146.5" y="-690" font-family="Helvetica,sans-Serif" font-size="10.00">vector&lt; Catch::Assertion</text>
<text text-anchor="middle" x="1207.5" y="-679" font-family="Helvetica,sans-Serif" font-size="10.00">Stats &gt;</text>
<polyline fill="none" stroke="#bfbfbf" points="1138.5,-672 1276.5,-672 "/>
<text text-anchor="middle" x="1207.5" y="-660" font-family="Helvetica,sans-Serif" font-size="10.00"> </text>
<polyline fill="none" stroke="#bfbfbf" points="1138.5,-653 1276.5,-653 "/>
<text text-anchor="middle" x="1207.5" y="-641" font-family="Helvetica,sans-Serif" font-size="10.00"> </text>
</a>
</g>
</g>
<!-- Node11&#45;&gt;Node2 -->
<g id="edge10" class="edge">
<title>Node11&#45;&gt;Node2</title>
<path fill="none" stroke="#404040" d="M1180.13,-633.82C1165.96,-617.74 1147.82,-598.77 1129.5,-584 1055.07,-524 958.44,-473.11 887.93,-439.99"/>
<polygon fill="none" stroke="#404040" points="887.72,-439.89 880.59,-440.99 876.84,-434.83 883.97,-433.73 887.72,-439.89"/>
<text text-anchor="middle" x="1144" y="-547" font-family="Helvetica,sans-Serif" font-size="10.00"> +m_assertions</text>
</g>
<!-- Node12 -->
<g id="node12" class="node">
<title>Node12</title>
<g id="a_node12"><a xlink:title=" ">
<polygon fill="white" stroke="#bfbfbf" points="1295,-634 1295,-702 1408,-702 1408,-634 1295,-634"/>
<text text-anchor="start" x="1303" y="-690" font-family="Helvetica,sans-Serif" font-size="10.00">shared_ptr&lt; IConfig</text>
<text text-anchor="middle" x="1351.5" y="-679" font-family="Helvetica,sans-Serif" font-size="10.00"> const &gt;</text>
<polyline fill="none" stroke="#bfbfbf" points="1295,-672 1408,-672 "/>
<text text-anchor="middle" x="1351.5" y="-660" font-family="Helvetica,sans-Serif" font-size="10.00"> </text>
<polyline fill="none" stroke="#bfbfbf" points="1295,-653 1408,-653 "/>
<text text-anchor="middle" x="1351.5" y="-641" font-family="Helvetica,sans-Serif" font-size="10.00"> </text>
</a>
</g>
</g>
<!-- Node12&#45;&gt;Node2 -->
<g id="edge11" class="edge">
<title>Node12&#45;&gt;Node2</title>
<path fill="none" stroke="#404040" d="M1330.16,-633.89C1318.4,-617.45 1302.72,-598.13 1285.5,-584 1168,-487.55 995.1,-438.29 888.64,-415.64"/>
<polygon fill="none" stroke="#404040" points="888.39,-415.59 881.7,-418.28 876.64,-413.14 883.33,-410.45 888.39,-415.59"/>
<text text-anchor="middle" x="1280.5" y="-547" font-family="Helvetica,sans-Serif" font-size="10.00"> +m_config</text>
</g>
<!-- Node13 -->
<g id="node13" class="node">
<title>Node13</title>
<g id="a_node13"><a xlink:href="class_catch_1_1_timer.html" target="_top" xlink:title=" ">
<polygon fill="white" stroke="black" points="1464.5,-320 1464.5,-476 1620.5,-476 1620.5,-320 1464.5,-320"/>
<text text-anchor="middle" x="1542.5" y="-464" font-family="Helvetica,sans-Serif" font-size="10.00">Catch::Timer</text>
<polyline fill="none" stroke="black" points="1464.5,-457 1620.5,-457 "/>
<text text-anchor="middle" x="1542.5" y="-445" font-family="Helvetica,sans-Serif" font-size="10.00"> </text>
<polyline fill="none" stroke="black" points="1464.5,-438 1620.5,-438 "/>
<text text-anchor="start" x="1472.5" y="-426" font-family="Helvetica,sans-Serif" font-size="10.00">+ start()</text>
<text text-anchor="start" x="1472.5" y="-415" font-family="Helvetica,sans-Serif" font-size="10.00">+ getElapsedNanoseconds()</text>
<text text-anchor="start" x="1472.5" y="-404" font-family="Helvetica,sans-Serif" font-size="10.00">+ getElapsedMicroseconds()</text>
<text text-anchor="start" x="1472.5" y="-393" font-family="Helvetica,sans-Serif" font-size="10.00">+ getElapsedMilliseconds()</text>
<text text-anchor="start" x="1472.5" y="-382" font-family="Helvetica,sans-Serif" font-size="10.00">+ getElapsedSeconds()</text>
<text text-anchor="start" x="1472.5" y="-371" font-family="Helvetica,sans-Serif" font-size="10.00">+ start()</text>
<text text-anchor="start" x="1472.5" y="-360" font-family="Helvetica,sans-Serif" font-size="10.00">+ getElapsedNanoseconds()</text>
<text text-anchor="start" x="1472.5" y="-349" font-family="Helvetica,sans-Serif" font-size="10.00">+ getElapsedMicroseconds()</text>
<text text-anchor="start" x="1472.5" y="-338" font-family="Helvetica,sans-Serif" font-size="10.00">+ getElapsedMilliseconds()</text>
<text text-anchor="start" x="1472.5" y="-327" font-family="Helvetica,sans-Serif" font-size="10.00">+ getElapsedSeconds()</text>
</a>
</g>
</g>
<!-- Node13&#45;&gt;Node1 -->
<g id="edge12" class="edge">
<title>Node13&#45;&gt;Node1</title>
<path fill="none" stroke="#404040" d="M1564.25,-319.63C1571.64,-293.39 1580.07,-263.39 1588.19,-234.52"/>
<polygon fill="none" stroke="#404040" points="1588.27,-234.22 1586.05,-227.36 1591.52,-222.67 1593.75,-229.53 1588.27,-234.22"/>
<text text-anchor="middle" x="1616.5" y="-249.5" font-family="Helvetica,sans-Serif" font-size="10.00"> +suiteTimer</text>
</g>
<!-- Node14 -->
<g id="node14" class="node">
<title>Node14</title>
<g id="a_node14"><a xlink:href="class_catch_1_1_xml_writer.html" target="_top" xlink:title=" ">
<polygon fill="white" stroke="black" points="1638.5,-292.5 1638.5,-503.5 1766.5,-503.5 1766.5,-292.5 1638.5,-292.5"/>
<text text-anchor="middle" x="1702.5" y="-491.5" font-family="Helvetica,sans-Serif" font-size="10.00">Catch::XmlWriter</text>
<polyline fill="none" stroke="black" points="1638.5,-484.5 1766.5,-484.5 "/>
<text text-anchor="middle" x="1702.5" y="-472.5" font-family="Helvetica,sans-Serif" font-size="10.00"> </text>
<polyline fill="none" stroke="black" points="1638.5,-465.5 1766.5,-465.5 "/>
<text text-anchor="start" x="1646.5" y="-453.5" font-family="Helvetica,sans-Serif" font-size="10.00">+ XmlWriter()</text>
<text text-anchor="start" x="1646.5" y="-442.5" font-family="Helvetica,sans-Serif" font-size="10.00">+ ~XmlWriter()</text>
<text text-anchor="start" x="1646.5" y="-431.5" font-family="Helvetica,sans-Serif" font-size="10.00">+ XmlWriter()</text>
<text text-anchor="start" x="1646.5" y="-420.5" font-family="Helvetica,sans-Serif" font-size="10.00">+ operator=()</text>
<text text-anchor="start" x="1646.5" y="-409.5" font-family="Helvetica,sans-Serif" font-size="10.00">+ startElement()</text>
<text text-anchor="start" x="1646.5" y="-398.5" font-family="Helvetica,sans-Serif" font-size="10.00">+ scopedElement()</text>
<text text-anchor="start" x="1646.5" y="-387.5" font-family="Helvetica,sans-Serif" font-size="10.00">+ endElement()</text>
<text text-anchor="start" x="1646.5" y="-376.5" font-family="Helvetica,sans-Serif" font-size="10.00">+ writeAttribute()</text>
<text text-anchor="start" x="1646.5" y="-365.5" font-family="Helvetica,sans-Serif" font-size="10.00">+ writeAttribute()</text>
<text text-anchor="start" x="1646.5" y="-354.5" font-family="Helvetica,sans-Serif" font-size="10.00">+ writeAttribute()</text>
<text text-anchor="start" x="1646.5" y="-343.5" font-family="Helvetica,sans-Serif" font-size="10.00">+ writeText()</text>
<text text-anchor="start" x="1646.5" y="-332.5" font-family="Helvetica,sans-Serif" font-size="10.00">+ writeComment()</text>
<text text-anchor="start" x="1646.5" y="-321.5" font-family="Helvetica,sans-Serif" font-size="10.00">+ writeStylesheetRef()</text>
<text text-anchor="start" x="1646.5" y="-310.5" font-family="Helvetica,sans-Serif" font-size="10.00">+ writeBlankLine()</text>
<text text-anchor="start" x="1646.5" y="-299.5" font-family="Helvetica,sans-Serif" font-size="10.00">+ ensureTagClosed()</text>
</a>
</g>
</g>
<!-- Node14&#45;&gt;Node1 -->
<g id="edge13" class="edge">
<title>Node14&#45;&gt;Node1</title>
<path fill="none" stroke="#404040" d="M1673.05,-292.27C1667.75,-273.42 1662.18,-253.63 1656.76,-234.34"/>
<polygon fill="none" stroke="#404040" points="1656.75,-234.28 1651.27,-229.59 1653.5,-222.73 1658.97,-227.43 1656.75,-234.28"/>
<text text-anchor="middle" x="1678" y="-249.5" font-family="Helvetica,sans-Serif" font-size="10.00"> +xml</text>
</g>
<!-- Node15 -->
<g id="node15" class="node">
<title>Node15</title>
<g id="a_node15"><a xlink:title=" ">
<polygon fill="white" stroke="#bfbfbf" points="1785,-369.5 1785,-426.5 1814,-426.5 1814,-369.5 1785,-369.5"/>
<text text-anchor="middle" x="1799.5" y="-414.5" font-family="Helvetica,sans-Serif" font-size="10.00">int</text>
<polyline fill="none" stroke="#bfbfbf" points="1785,-407.5 1814,-407.5 "/>
<text text-anchor="middle" x="1799.5" y="-395.5" font-family="Helvetica,sans-Serif" font-size="10.00"> </text>
<polyline fill="none" stroke="#bfbfbf" points="1785,-388.5 1814,-388.5 "/>
<text text-anchor="middle" x="1799.5" y="-376.5" font-family="Helvetica,sans-Serif" font-size="10.00"> </text>
</a>
</g>
</g>
<!-- Node15&#45;&gt;Node1 -->
<g id="edge14" class="edge">
<title>Node15&#45;&gt;Node1</title>
<path fill="none" stroke="#404040" d="M1797.9,-369.4C1795.55,-345 1789.77,-309.04 1775.5,-281 1759.08,-248.73 1734.81,-217.97 1710.41,-191.77"/>
<polygon fill="none" stroke="#404040" points="1710.41,-191.77 1703.38,-190.17 1702.15,-183.07 1709.18,-184.66 1710.41,-191.77"/>
<text text-anchor="middle" x="1823.5" y="-249.5" font-family="Helvetica,sans-Serif" font-size="10.00"> +unexpectedExceptions</text>
</g>
<!-- Node16 -->
<g id="node16" class="node">
<title>Node16</title>
<g id="a_node16"><a xlink:title=" ">
<polygon fill="white" stroke="#bfbfbf" points="1900.5,-369.5 1900.5,-426.5 1944.5,-426.5 1944.5,-369.5 1900.5,-369.5"/>
<text text-anchor="middle" x="1922.5" y="-414.5" font-family="Helvetica,sans-Serif" font-size="10.00">string</text>
<polyline fill="none" stroke="#bfbfbf" points="1900.5,-407.5 1944.5,-407.5 "/>
<text text-anchor="middle" x="1922.5" y="-395.5" font-family="Helvetica,sans-Serif" font-size="10.00"> </text>
<polyline fill="none" stroke="#bfbfbf" points="1900.5,-388.5 1944.5,-388.5 "/>
<text text-anchor="middle" x="1922.5" y="-376.5" font-family="Helvetica,sans-Serif" font-size="10.00"> </text>
</a>
</g>
</g>
<!-- Node16&#45;&gt;Node1 -->
<g id="edge16" class="edge">
<title>Node16&#45;&gt;Node1</title>
<path fill="none" stroke="#404040" d="M1923.45,-369.43C1923.19,-335.66 1917.93,-278.33 1888.5,-241 1845.11,-185.97 1772.26,-153.08 1713.76,-134.37"/>
<polygon fill="none" stroke="#404040" points="1713.72,-134.36 1706.81,-136.4 1702.26,-130.81 1709.17,-128.76 1713.72,-134.36"/>
<text text-anchor="middle" x="1943.5" y="-255" font-family="Helvetica,sans-Serif" font-size="10.00"> +stdOutForSuite</text>
<text text-anchor="middle" x="1943.5" y="-244" font-family="Helvetica,sans-Serif" font-size="10.00">+stdErrForSuite</text>
</g>
</g>
</svg>
        <g id="navigator" transform="translate(0 0)" fill="#404254">
                <rect fill="#f2f5e9" fill-opacity="0.5" stroke="#606060" stroke-width=".5" x="0" y="0" width="60" height="60"/>
                <use id="zoomplus" xlink:href="#zoomPlus" x="17" y="9" onmousedown="handleZoom(evt,'in')"/>
                <use id="zoomminus" xlink:href="#zoomMin" x="42" y="9" onmousedown="handleZoom(evt,'out')"/>
                <use id="reset" xlink:href="#resetDef" x="30" y="36" onmousedown="handleReset()"/>
                <g id="arrowUp" xlink:href="#dirArrow" transform="translate(30 24)" onmousedown="handlePan(0,-1)">
                  <use xlink:href="#rim" fill="#404040">
                        <set attributeName="fill" to="#808080" begin="arrowUp.mouseover" end="arrowUp.mouseout"/>
                  </use>
                  <path fill="none" stroke="white" stroke-width="1.5" d="M0,-3.0v7 M-2.5,-0.5L0,-3.0L2.5,-0.5"/>
                </g>
                <g id="arrowRight" xlink:href="#dirArrow" transform="rotate(90) translate(36 -43)" onmousedown="handlePan(1,0)">
                  <use xlink:href="#rim" fill="#404040">
                        <set attributeName="fill" to="#808080" begin="arrowRight.mouseover" end="arrowRight.mouseout"/>
                  </use>
                  <path fill="none" stroke="white" stroke-width="1.5" d="M0,-3.0v7 M-2.5,-0.5L0,-3.0L2.5,-0.5"/>
                </g>
                <g id="arrowDown" xlink:href="#dirArrow" transform="rotate(180) translate(-30 -48)" onmousedown="handlePan(0,1)">
                  <use xlink:href="#rim" fill="#404040">
                        <set attributeName="fill" to="#808080" begin="arrowDown.mouseover" end="arrowDown.mouseout"/>
                  </use>
                  <path fill="none" stroke="white" stroke-width="1.5" d="M0,-3.0v7 M-2.5,-0.5L0,-3.0L2.5,-0.5"/>
                </g>
                <g id="arrowLeft" xlink:href="#dirArrow" transform="rotate(270) translate(-36 17)" onmousedown="handlePan(-1,0)">
                  <use xlink:href="#rim" fill="#404040">
                        <set attributeName="fill" to="#808080" begin="arrowLeft.mouseover" end="arrowLeft.mouseout"/>
                  </use>
                  <path fill="none" stroke="white" stroke-width="1.5" d="M0,-3.0v7 M-2.5,-0.5L0,-3.0L2.5,-0.5"/>
                </g>
        </g>
        <svg viewBox="0 0 15 15" width="100%" height="30px" preserveAspectRatio="xMaxYMin meet">
         <g id="arrow_out" transform="scale(0.3 0.3)">
          <a xlink:href="class_catch_1_1_junit_reporter__coll__graph_org.svg" target="_base">
           <rect id="button" ry="5" rx="5" y="6" x="6" height="38" width="38"
                fill="#f2f5e9" fill-opacity="0.5" stroke="#606060" stroke-width="1.0"/>
           <path id="arrow"
             d="M 11.500037,31.436501 C 11.940474,20.09759 22.043105,11.32322 32.158766,21.979434 L 37.068811,17.246167 C 37.068811,17.246167 37.088388,32 37.088388,32 L 22.160133,31.978069 C 22.160133,31.978069 26.997745,27.140456 26.997745,27.140456 C 18.528582,18.264221 13.291696,25.230495 11.500037,31.436501 z"
             style="fill:#404040;"/>
          </a>
         </g>
        </svg>
</svg>
