<?xml version="1.0" encoding="UTF-8" standalone="no"?>
<!DOCTYPE svg PUBLIC "-//W3C//DTD SVG 1.1//EN"
 "http://www.w3.org/Graphics/SVG/1.1/DTD/svg11.dtd">
<!-- Generated by graphviz version 2.43.0 (0)
 -->
<!-- Title: Catch::RunContext::runTest Pages: 1 -->
<!--zoomable 437 -->
<svg id="main" version="1.1" xmlns="http://www.w3.org/2000/svg" xmlns:xlink="http://www.w3.org/1999/xlink" xml:space="preserve" onload="init(evt)">
<style type="text/css"><![CDATA[
.edge:hover path { stroke: red; }
.edge:hover polygon { stroke: red; fill: red; }
]]></style>
<script type="text/javascript"><![CDATA[
var edges = document.getElementsByTagName('g');
if (edges && edges.length) {
  for (var i=0;i<edges.length;i++) {
    if (edges[i].id.substr(0,4)=='edge') {
      edges[i].setAttribute('class','edge');
    }
  }
}
]]></script>
        <defs>
                <circle id="rim" cx="0" cy="0" r="7"/>
                <circle id="rim2" cx="0" cy="0" r="3.5"/>
                <g id="zoomPlus">
                        <use xlink:href="#rim" fill="#404040">
                                <set attributeName="fill" to="#808080" begin="zoomplus.mouseover" end="zoomplus.mouseout"/>
                        </use>
                        <path d="M-4,0h8M0,-4v8" fill="none" stroke="white" stroke-width="1.5" pointer-events="none"/>
                </g>
                <g id="zoomMin">
                        <use xlink:href="#rim" fill="#404040">
                                <set attributeName="fill" to="#808080" begin="zoomminus.mouseover" end="zoomminus.mouseout"/>
                        </use>
                        <path d="M-4,0h8" fill="none" stroke="white" stroke-width="1.5" pointer-events="none"/>
                </g>
                <g id="dirArrow">
                        <path fill="none" stroke="white" stroke-width="1.5" d="M0,-3.0v7 M-2.5,-0.5L0,-3.0L2.5,-0.5"/>
                </g>
               <g id="resetDef">
                       <use xlink:href="#rim2" fill="#404040">
                               <set attributeName="fill" to="#808080" begin="reset.mouseover" end="reset.mouseout"/>
                       </use>
               </g>
        </defs>

<script type="text/javascript">
var viewWidth = 561;
var viewHeight = 437;
var sectionId = 'dynsection-10';
</script>
<script xlink:href="svgpan.js"/>
<svg id="graph" class="graph">
<g id="viewport">
<title>Catch::RunContext::runTest</title>
<polygon fill="white" stroke="transparent" points="-4,4 -4,-432.5 557,-432.5 557,4 -4,4"/>
<!-- Node1 -->
<g id="node1" class="node">
<title>Node1</title>
<g id="a_node1"><a xlink:title=" ">
<polygon fill="#bfbfbf" stroke="black" points="0,-171.5 0,-201.5 113,-201.5 113,-171.5 0,-171.5"/>
<text text-anchor="start" x="8" y="-189.5" font-family="Helvetica,sans-Serif" font-size="10.00">Catch::RunContext::</text>
<text text-anchor="middle" x="56.5" y="-178.5" font-family="Helvetica,sans-Serif" font-size="10.00">runTest</text>
</a>
</g>
</g>
<!-- Node2 -->
<g id="node2" class="node">
<title>Node2</title>
<g id="a_node2"><a xlink:href="class_catch_1_1_run_context.html#ae13c7eb3c14fc70827056b89b0e7e088" target="_top" xlink:title=" ">
<polygon fill="white" stroke="black" points="186.5,-379.5 186.5,-409.5 299.5,-409.5 299.5,-379.5 186.5,-379.5"/>
<text text-anchor="start" x="194.5" y="-397.5" font-family="Helvetica,sans-Serif" font-size="10.00">Catch::RunContext::</text>
<text text-anchor="middle" x="243" y="-386.5" font-family="Helvetica,sans-Serif" font-size="10.00">aborting</text>
</a>
</g>
</g>
<!-- Node1&#45;&gt;Node2 -->
<g id="edge1" class="edge">
<title>Node1&#45;&gt;Node2</title>
<path fill="none" stroke="midnightblue" d="M65.37,-201.78C79.63,-228.58 111.75,-284.95 149,-324.5 166.7,-343.29 189.9,-360.76 208.7,-373.55"/>
<polygon fill="midnightblue" stroke="midnightblue" points="207,-376.62 217.26,-379.26 210.88,-370.8 207,-376.62"/>
</g>
<!-- Node4 -->
<g id="node4" class="node">
<title>Node4</title>
<g id="a_node4"><a xlink:href="class_catch_1_1_test_case_tracking_1_1_section_tracker.html#a30bdd2cd2f15dd29bb4f14ddc029b332" target="_top" xlink:title=" ">
<polygon fill="white" stroke="black" points="175.5,-284.5 175.5,-314.5 310.5,-314.5 310.5,-284.5 175.5,-284.5"/>
<text text-anchor="start" x="183.5" y="-302.5" font-family="Helvetica,sans-Serif" font-size="10.00">Catch::TestCaseTracking</text>
<text text-anchor="middle" x="243" y="-291.5" font-family="Helvetica,sans-Serif" font-size="10.00">::SectionTracker::acquire</text>
</a>
</g>
</g>
<!-- Node1&#45;&gt;Node4 -->
<g id="edge3" class="edge">
<title>Node1&#45;&gt;Node4</title>
<path fill="none" stroke="midnightblue" d="M69.1,-201.66C84.99,-221.37 115.42,-255.53 149,-274.5 154.22,-277.45 159.81,-280.06 165.55,-282.38"/>
<polygon fill="midnightblue" stroke="midnightblue" points="164.74,-285.81 175.33,-286 167.17,-279.25 164.74,-285.81"/>
</g>
<!-- Node10 -->
<g id="node10" class="node">
<title>Node10</title>
<g id="a_node10"><a xlink:href="struct_catch_1_1_totals.html#a1a94a654f5f3786b75695e081fc9bca2" target="_top" xlink:title=" ">
<polygon fill="white" stroke="black" points="188,-246 188,-265 298,-265 298,-246 188,-246"/>
<text text-anchor="middle" x="243" y="-253" font-family="Helvetica,sans-Serif" font-size="10.00">Catch::Totals::delta</text>
</a>
</g>
</g>
<!-- Node1&#45;&gt;Node10 -->
<g id="edge9" class="edge">
<title>Node1&#45;&gt;Node10</title>
<path fill="none" stroke="midnightblue" d="M81.1,-201.52C99.09,-212.37 124.81,-226.62 149,-235.5 158.19,-238.87 168.1,-241.75 177.92,-244.19"/>
<polygon fill="midnightblue" stroke="midnightblue" points="177.13,-247.6 187.67,-246.48 178.73,-240.79 177.13,-247.6"/>
</g>
<!-- Node11 -->
<g id="node11" class="node">
<title>Node11</title>
<g id="a_node11"><a xlink:href="class_catch_1_1_test_case.html#a804d0a6a5dc92b219e724f1390c25c7f" target="_top" xlink:title=" ">
<polygon fill="white" stroke="black" points="175.5,-196.5 175.5,-226.5 310.5,-226.5 310.5,-196.5 175.5,-196.5"/>
<text text-anchor="start" x="183.5" y="-214.5" font-family="Helvetica,sans-Serif" font-size="10.00">Catch::TestCase::getTest</text>
<text text-anchor="middle" x="243" y="-203.5" font-family="Helvetica,sans-Serif" font-size="10.00">CaseInfo</text>
</a>
</g>
</g>
<!-- Node1&#45;&gt;Node11 -->
<g id="edge10" class="edge">
<title>Node1&#45;&gt;Node11</title>
<path fill="none" stroke="midnightblue" d="M113.11,-194.03C129.51,-196.26 147.77,-198.73 165.26,-201.1"/>
<polygon fill="midnightblue" stroke="midnightblue" points="165.07,-204.61 175.45,-202.48 166.01,-197.67 165.07,-204.61"/>
</g>
<!-- Node12 -->
<g id="node12" class="node">
<title>Node12</title>
<g id="a_node12"><a xlink:href="class_catch_1_1_test_case_tracking_1_1_i_tracker.html#a91af0a3bcb13a76cb665d75329d30458" target="_top" xlink:title=" ">
<polygon fill="white" stroke="black" points="170.5,-147.5 170.5,-177.5 315.5,-177.5 315.5,-147.5 170.5,-147.5"/>
<text text-anchor="start" x="178.5" y="-165.5" font-family="Helvetica,sans-Serif" font-size="10.00">Catch::TestCaseTracking</text>
<text text-anchor="middle" x="243" y="-154.5" font-family="Helvetica,sans-Serif" font-size="10.00">::ITracker::isSectionTracker</text>
</a>
</g>
</g>
<!-- Node1&#45;&gt;Node12 -->
<g id="edge11" class="edge">
<title>Node1&#45;&gt;Node12</title>
<path fill="none" stroke="midnightblue" d="M113.11,-179.27C127.9,-177.34 144.2,-175.22 160.09,-173.16"/>
<polygon fill="midnightblue" stroke="midnightblue" points="160.98,-176.57 170.44,-171.81 160.08,-169.63 160.98,-176.57"/>
</g>
<!-- Node13 -->
<g id="node13" class="node">
<title>Node13</title>
<g id="a_node13"><a xlink:href="class_catch_1_1_test_case_tracking_1_1_i_tracker.html#ad5bd2235dc66579d13de98dbd75f2858" target="_top" xlink:title=" ">
<polygon fill="white" stroke="black" points="149,-98.5 149,-128.5 337,-128.5 337,-98.5 149,-98.5"/>
<text text-anchor="start" x="157" y="-116.5" font-family="Helvetica,sans-Serif" font-size="10.00">Catch::TestCaseTracking</text>
<text text-anchor="middle" x="243" y="-105.5" font-family="Helvetica,sans-Serif" font-size="10.00">::ITracker::isSuccessfullyCompleted</text>
</a>
</g>
</g>
<!-- Node1&#45;&gt;Node13 -->
<g id="edge12" class="edge">
<title>Node1&#45;&gt;Node13</title>
<path fill="none" stroke="midnightblue" d="M81.98,-171.31C99.98,-160.66 125.33,-146.74 149,-137.5 154.37,-135.4 159.99,-133.43 165.69,-131.6"/>
<polygon fill="midnightblue" stroke="midnightblue" points="166.81,-134.92 175.34,-128.63 164.75,-128.23 166.81,-134.92"/>
</g>
<!-- Node14 -->
<g id="node14" class="node">
<title>Node14</title>
<g id="a_node14"><a xlink:href="class_catch_1_1_test_case_tracking_1_1_tracker_context.html#adb2be6ac725c76b23f37c7a1ff35e9c1" target="_top" xlink:title=" ">
<polygon fill="white" stroke="black" points="167.5,-49.5 167.5,-79.5 318.5,-79.5 318.5,-49.5 167.5,-49.5"/>
<text text-anchor="start" x="175.5" y="-67.5" font-family="Helvetica,sans-Serif" font-size="10.00">Catch::TestCaseTracking</text>
<text text-anchor="middle" x="243" y="-56.5" font-family="Helvetica,sans-Serif" font-size="10.00">::TrackerContext::startCycle</text>
</a>
</g>
</g>
<!-- Node1&#45;&gt;Node14 -->
<g id="edge13" class="edge">
<title>Node1&#45;&gt;Node14</title>
<path fill="none" stroke="midnightblue" d="M67.38,-171.38C82.38,-149.66 112.98,-109.9 149,-88.5 151.87,-86.8 154.85,-85.21 157.92,-83.74"/>
<polygon fill="midnightblue" stroke="midnightblue" points="159.57,-86.84 167.35,-79.65 156.78,-80.42 159.57,-86.84"/>
</g>
<!-- Node15 -->
<g id="node15" class="node">
<title>Node15</title>
<g id="a_node15"><a xlink:href="class_catch_1_1_test_case_tracking_1_1_tracker_context.html#ae9b7c019b9b562bef9b2787eff05245c" target="_top" xlink:title=" ">
<polygon fill="white" stroke="black" points="171.5,-0.5 171.5,-30.5 314.5,-30.5 314.5,-0.5 171.5,-0.5"/>
<text text-anchor="start" x="179.5" y="-18.5" font-family="Helvetica,sans-Serif" font-size="10.00">Catch::TestCaseTracking</text>
<text text-anchor="middle" x="243" y="-7.5" font-family="Helvetica,sans-Serif" font-size="10.00">::TrackerContext::startRun</text>
</a>
</g>
</g>
<!-- Node1&#45;&gt;Node15 -->
<g id="edge14" class="edge">
<title>Node1&#45;&gt;Node15</title>
<path fill="none" stroke="midnightblue" d="M62.56,-171.35C73.39,-141.32 101.75,-74.19 149,-39.5 152.99,-36.57 157.31,-34 161.82,-31.74"/>
<polygon fill="midnightblue" stroke="midnightblue" points="163.59,-34.78 171.31,-27.53 160.75,-28.38 163.59,-34.78"/>
</g>
<!-- Node3 -->
<g id="node3" class="node">
<title>Node3</title>
<g id="a_node3"><a xlink:href="xml_8sw_8approved_8txt.html#ab8b8577604b92144025744c78797c3bc" target="_top" xlink:title=" ">
<polygon fill="white" stroke="black" points="440.5,-409 440.5,-428 485.5,-428 485.5,-409 440.5,-409"/>
<text text-anchor="middle" x="463" y="-416" font-family="Helvetica,sans-Serif" font-size="10.00">size_t</text>
</a>
</g>
</g>
<!-- Node2&#45;&gt;Node3 -->
<g id="edge2" class="edge">
<title>Node2&#45;&gt;Node3</title>
<path fill="none" stroke="midnightblue" d="M299.57,-400.62C340.89,-405.17 395.82,-411.21 430.04,-414.98"/>
<polygon fill="midnightblue" stroke="midnightblue" points="430.05,-418.5 440.37,-416.12 430.82,-411.55 430.05,-418.5"/>
</g>
<!-- Node5 -->
<g id="node5" class="node">
<title>Node5</title>
<g id="a_node5"><a xlink:href="class_catch_1_1_test_case_tracking_1_1_i_tracker.html#afd8da278a151a96992f2bf029f7a70c0" target="_top" xlink:title=" ">
<polygon fill="white" stroke="black" points="396,-359.5 396,-389.5 530,-389.5 530,-359.5 396,-359.5"/>
<text text-anchor="start" x="404" y="-377.5" font-family="Helvetica,sans-Serif" font-size="10.00">Catch::TestCaseTracking</text>
<text text-anchor="middle" x="463" y="-366.5" font-family="Helvetica,sans-Serif" font-size="10.00">::ITracker::addChild</text>
</a>
</g>
</g>
<!-- Node4&#45;&gt;Node5 -->
<g id="edge4" class="edge">
<title>Node4&#45;&gt;Node5</title>
<path fill="none" stroke="midnightblue" d="M278.92,-314.55C304.65,-325.33 340.65,-339.78 373,-350.5 379.33,-352.6 385.95,-354.65 392.61,-356.61"/>
<polygon fill="midnightblue" stroke="midnightblue" points="391.78,-360.01 402.36,-359.42 393.72,-353.29 391.78,-360.01"/>
</g>
<!-- Node6 -->
<g id="node6" class="node">
<title>Node6</title>
<g id="a_node6"><a xlink:href="class_catch_1_1_test_case_tracking_1_1_tracker_context.html#ab1af8d52dfe96cdb55a7a6da24cb70d6" target="_top" xlink:title=" ">
<polygon fill="white" stroke="black" points="373,-310.5 373,-340.5 553,-340.5 553,-310.5 373,-310.5"/>
<text text-anchor="start" x="381" y="-328.5" font-family="Helvetica,sans-Serif" font-size="10.00">Catch::TestCaseTracking</text>
<text text-anchor="middle" x="463" y="-317.5" font-family="Helvetica,sans-Serif" font-size="10.00">::TrackerContext::completedCycle</text>
</a>
</g>
</g>
<!-- Node4&#45;&gt;Node6 -->
<g id="edge5" class="edge">
<title>Node4&#45;&gt;Node6</title>
<path fill="none" stroke="midnightblue" d="M310.59,-307.44C327.03,-309.4 344.98,-311.54 362.6,-313.65"/>
<polygon fill="midnightblue" stroke="midnightblue" points="362.58,-317.17 372.92,-314.88 363.41,-310.22 362.58,-317.17"/>
</g>
<!-- Node7 -->
<g id="node7" class="node">
<title>Node7</title>
<g id="a_node7"><a xlink:href="class_catch_1_1_test_case_tracking_1_1_tracker_context.html#a9294627e8f7cb5774cc17579f3558d0d" target="_top" xlink:title=" ">
<polygon fill="white" stroke="black" points="378,-261.5 378,-291.5 548,-291.5 548,-261.5 378,-261.5"/>
<text text-anchor="start" x="386" y="-279.5" font-family="Helvetica,sans-Serif" font-size="10.00">Catch::TestCaseTracking</text>
<text text-anchor="middle" x="463" y="-268.5" font-family="Helvetica,sans-Serif" font-size="10.00">::TrackerContext::currentTracker</text>
</a>
</g>
</g>
<!-- Node4&#45;&gt;Node7 -->
<g id="edge6" class="edge">
<title>Node4&#45;&gt;Node7</title>
<path fill="none" stroke="midnightblue" d="M310.59,-292.47C328.61,-290.57 348.46,-288.48 367.69,-286.45"/>
<polygon fill="midnightblue" stroke="midnightblue" points="368.1,-289.93 377.68,-285.4 367.37,-282.96 368.1,-289.93"/>
</g>
<!-- Node8 -->
<g id="node8" class="node">
<title>Node8</title>
<g id="a_node8"><a xlink:href="class_catch_1_1_test_case_tracking_1_1_i_tracker.html#a6d3d8fa8b48f03df71eaf994a2edc528" target="_top" xlink:title=" ">
<polygon fill="white" stroke="black" points="396,-212.5 396,-242.5 530,-242.5 530,-212.5 396,-212.5"/>
<text text-anchor="start" x="404" y="-230.5" font-family="Helvetica,sans-Serif" font-size="10.00">Catch::TestCaseTracking</text>
<text text-anchor="middle" x="463" y="-219.5" font-family="Helvetica,sans-Serif" font-size="10.00">::ITracker::findChild</text>
</a>
</g>
</g>
<!-- Node4&#45;&gt;Node8 -->
<g id="edge7" class="edge">
<title>Node4&#45;&gt;Node8</title>
<path fill="none" stroke="midnightblue" d="M309.35,-284.48C318.78,-281.59 328.24,-278.26 337,-274.5 354.23,-267.1 355.81,-259.99 373,-252.5 378.47,-250.12 384.22,-247.9 390.06,-245.85"/>
<polygon fill="midnightblue" stroke="midnightblue" points="391.57,-249.04 399.95,-242.55 389.35,-242.39 391.57,-249.04"/>
</g>
<!-- Node9 -->
<g id="node9" class="node">
<title>Node9</title>
<g id="a_node9"><a xlink:href="class_catch_1_1_test_case_tracking_1_1_i_tracker.html#a238e8f123d4bbc4bcefd615ae4a5d2d3" target="_top" xlink:title=" ">
<polygon fill="white" stroke="black" points="386,-163.5 386,-193.5 540,-193.5 540,-163.5 386,-163.5"/>
<text text-anchor="start" x="394" y="-181.5" font-family="Helvetica,sans-Serif" font-size="10.00">Catch::TestCaseTracking</text>
<text text-anchor="middle" x="463" y="-170.5" font-family="Helvetica,sans-Serif" font-size="10.00">::ITracker::nameAndLocation</text>
</a>
</g>
</g>
<!-- Node4&#45;&gt;Node9 -->
<g id="edge8" class="edge">
<title>Node4&#45;&gt;Node9</title>
<path fill="none" stroke="midnightblue" d="M310.89,-288.96C320.3,-285.43 329.36,-280.74 337,-274.5 364.71,-251.87 345.3,-225.14 373,-202.5 374.58,-201.21 376.22,-199.99 377.92,-198.83"/>
<polygon fill="midnightblue" stroke="midnightblue" points="379.98,-201.68 386.8,-193.57 376.41,-195.66 379.98,-201.68"/>
</g>
</g>
</svg>
        <g id="navigator" transform="translate(0 0)" fill="#404254">
                <rect fill="#f2f5e9" fill-opacity="0.5" stroke="#606060" stroke-width=".5" x="0" y="0" width="60" height="60"/>
                <use id="zoomplus" xlink:href="#zoomPlus" x="17" y="9" onmousedown="handleZoom(evt,'in')"/>
                <use id="zoomminus" xlink:href="#zoomMin" x="42" y="9" onmousedown="handleZoom(evt,'out')"/>
                <use id="reset" xlink:href="#resetDef" x="30" y="36" onmousedown="handleReset()"/>
                <g id="arrowUp" xlink:href="#dirArrow" transform="translate(30 24)" onmousedown="handlePan(0,-1)">
                  <use xlink:href="#rim" fill="#404040">
                        <set attributeName="fill" to="#808080" begin="arrowUp.mouseover" end="arrowUp.mouseout"/>
                  </use>
                  <path fill="none" stroke="white" stroke-width="1.5" d="M0,-3.0v7 M-2.5,-0.5L0,-3.0L2.5,-0.5"/>
                </g>
                <g id="arrowRight" xlink:href="#dirArrow" transform="rotate(90) translate(36 -43)" onmousedown="handlePan(1,0)">
                  <use xlink:href="#rim" fill="#404040">
                        <set attributeName="fill" to="#808080" begin="arrowRight.mouseover" end="arrowRight.mouseout"/>
                  </use>
                  <path fill="none" stroke="white" stroke-width="1.5" d="M0,-3.0v7 M-2.5,-0.5L0,-3.0L2.5,-0.5"/>
                </g>
                <g id="arrowDown" xlink:href="#dirArrow" transform="rotate(180) translate(-30 -48)" onmousedown="handlePan(0,1)">
                  <use xlink:href="#rim" fill="#404040">
                        <set attributeName="fill" to="#808080" begin="arrowDown.mouseover" end="arrowDown.mouseout"/>
                  </use>
                  <path fill="none" stroke="white" stroke-width="1.5" d="M0,-3.0v7 M-2.5,-0.5L0,-3.0L2.5,-0.5"/>
                </g>
                <g id="arrowLeft" xlink:href="#dirArrow" transform="rotate(270) translate(-36 17)" onmousedown="handlePan(-1,0)">
                  <use xlink:href="#rim" fill="#404040">
                        <set attributeName="fill" to="#808080" begin="arrowLeft.mouseover" end="arrowLeft.mouseout"/>
                  </use>
                  <path fill="none" stroke="white" stroke-width="1.5" d="M0,-3.0v7 M-2.5,-0.5L0,-3.0L2.5,-0.5"/>
                </g>
        </g>
        <svg viewBox="0 0 15 15" width="100%" height="30px" preserveAspectRatio="xMaxYMin meet">
         <g id="arrow_out" transform="scale(0.3 0.3)">
          <a xlink:href="class_catch_1_1_run_context_a50c4bd4b7be11450476e6b092a928bcd_cgraph_org.svg" target="_base">
           <rect id="button" ry="5" rx="5" y="6" x="6" height="38" width="38"
                fill="#f2f5e9" fill-opacity="0.5" stroke="#606060" stroke-width="1.0"/>
           <path id="arrow"
             d="M 11.500037,31.436501 C 11.940474,20.09759 22.043105,11.32322 32.158766,21.979434 L 37.068811,17.246167 C 37.068811,17.246167 37.088388,32 37.088388,32 L 22.160133,31.978069 C 22.160133,31.978069 26.997745,27.140456 26.997745,27.140456 C 18.528582,18.264221 13.291696,25.230495 11.500037,31.436501 z"
             style="fill:#404040;"/>
          </a>
         </g>
        </svg>
</svg>
