<?xml version="1.0" encoding="UTF-8" standalone="no"?>
<!DOCTYPE svg PUBLIC "-//W3C//DTD SVG 1.1//EN"
 "http://www.w3.org/Graphics/SVG/1.1/DTD/svg11.dtd">
<!-- Generated by graphviz version 2.43.0 (0)
 -->
<!-- Title: ErrorStatment::ErrorStatment Pages: 1 -->
<svg width="320pt" height="66pt"
 viewBox="0.00 0.00 320.00 66.00" xmlns="http://www.w3.org/2000/svg" xmlns:xlink="http://www.w3.org/1999/xlink">
<g id="graph0" class="graph" transform="scale(1 1) rotate(0) translate(4 62)">
<title>ErrorStatment::ErrorStatment</title>
<polygon fill="white" stroke="transparent" points="-4,4 -4,-62 316,-62 316,4 -4,4"/>
<!-- Node1 -->
<g id="node1" class="node">
<title>Node1</title>
<g id="a_node1"><a xlink:title=" ">
<polygon fill="#bfbfbf" stroke="black" points="153,-19.5 153,-38.5 312,-38.5 312,-19.5 153,-19.5"/>
<text text-anchor="middle" x="232.5" y="-26.5" font-family="Helvetica,sans-Serif" font-size="10.00">ErrorStatment::ErrorStatment</text>
</a>
</g>
</g>
<!-- Node2 -->
<g id="node2" class="node">
<title>Node2</title>
<g id="a_node2"><a xlink:href="class_error_statment.html#a6cd9ef39c57531ac9b29f419555a0c61" target="_top" xlink:title=" ">
<polygon fill="white" stroke="black" points="0,-38.5 0,-57.5 117,-57.5 117,-38.5 0,-38.5"/>
<text text-anchor="middle" x="58.5" y="-45.5" font-family="Helvetica,sans-Serif" font-size="10.00">ErrorStatment::clone</text>
</a>
</g>
</g>
<!-- Node1&#45;&gt;Node2 -->
<g id="edge1" class="edge">
<title>Node1&#45;&gt;Node2</title>
<path fill="none" stroke="midnightblue" d="M142.62,-38.82C133.95,-39.78 125.32,-40.73 117.08,-41.64"/>
<polygon fill="midnightblue" stroke="midnightblue" points="143.24,-42.27 152.8,-37.69 142.47,-35.31 143.24,-42.27"/>
</g>
<!-- Node3 -->
<g id="node3" class="node">
<title>Node3</title>
<g id="a_node3"><a xlink:href="class_error_statment.html#a982ed19004d2037886da2b20eca6e931" target="_top" xlink:title="Evaluation of the Error returns itself.">
<polygon fill="white" stroke="black" points="2.5,-0.5 2.5,-19.5 114.5,-19.5 114.5,-0.5 2.5,-0.5"/>
<text text-anchor="middle" x="58.5" y="-7.5" font-family="Helvetica,sans-Serif" font-size="10.00">ErrorStatment::eval</text>
</a>
</g>
</g>
<!-- Node1&#45;&gt;Node3 -->
<g id="edge2" class="edge">
<title>Node1&#45;&gt;Node3</title>
<path fill="none" stroke="midnightblue" d="M142.79,-19.2C133.17,-18.14 123.61,-17.08 114.57,-16.08"/>
<polygon fill="midnightblue" stroke="midnightblue" points="142.47,-22.69 152.8,-20.31 143.24,-15.73 142.47,-22.69"/>
</g>
</g>
</svg>
