<?xml version="1.0" encoding="UTF-8" standalone="no"?>
<!DOCTYPE svg PUBLIC "-//W3C//DTD SVG 1.1//EN"
 "http://www.w3.org/Graphics/SVG/1.1/DTD/svg11.dtd">
<!-- Generated by graphviz version 2.43.0 (0)
 -->
<!-- Title: Catch::Session::Session Pages: 1 -->
<!--zoomable 503 -->
<svg id="main" version="1.1" xmlns="http://www.w3.org/2000/svg" xmlns:xlink="http://www.w3.org/1999/xlink" xml:space="preserve" onload="init(evt)">
<style type="text/css"><![CDATA[
.edge:hover path { stroke: red; }
.edge:hover polygon { stroke: red; fill: red; }
]]></style>
<script type="text/javascript"><![CDATA[
var edges = document.getElementsByTagName('g');
if (edges && edges.length) {
  for (var i=0;i<edges.length;i++) {
    if (edges[i].id.substr(0,4)=='edge') {
      edges[i].setAttribute('class','edge');
    }
  }
}
]]></script>
        <defs>
                <circle id="rim" cx="0" cy="0" r="7"/>
                <circle id="rim2" cx="0" cy="0" r="3.5"/>
                <g id="zoomPlus">
                        <use xlink:href="#rim" fill="#404040">
                                <set attributeName="fill" to="#808080" begin="zoomplus.mouseover" end="zoomplus.mouseout"/>
                        </use>
                        <path d="M-4,0h8M0,-4v8" fill="none" stroke="white" stroke-width="1.5" pointer-events="none"/>
                </g>
                <g id="zoomMin">
                        <use xlink:href="#rim" fill="#404040">
                                <set attributeName="fill" to="#808080" begin="zoomminus.mouseover" end="zoomminus.mouseout"/>
                        </use>
                        <path d="M-4,0h8" fill="none" stroke="white" stroke-width="1.5" pointer-events="none"/>
                </g>
                <g id="dirArrow">
                        <path fill="none" stroke="white" stroke-width="1.5" d="M0,-3.0v7 M-2.5,-0.5L0,-3.0L2.5,-0.5"/>
                </g>
               <g id="resetDef">
                       <use xlink:href="#rim2" fill="#404040">
                               <set attributeName="fill" to="#808080" begin="reset.mouseover" end="reset.mouseout"/>
                       </use>
               </g>
        </defs>

<script type="text/javascript">
var viewWidth = 730;
var viewHeight = 503;
var sectionId = 'dynsection-2';
</script>
<script xlink:href="svgpan.js"/>
<svg id="graph" class="graph">
<g id="viewport">
<title>Catch::Session::Session</title>
<polygon fill="white" stroke="transparent" points="-4,4 -4,-499 726,-499 726,4 -4,4"/>
<!-- Node1 -->
<g id="node1" class="node">
<title>Node1</title>
<g id="a_node1"><a xlink:title=" ">
<polygon fill="#bfbfbf" stroke="black" points="0,-262.5 0,-281.5 131,-281.5 131,-262.5 0,-262.5"/>
<text text-anchor="middle" x="65.5" y="-269.5" font-family="Helvetica,sans-Serif" font-size="10.00">Catch::Session::Session</text>
</a>
</g>
</g>
<!-- Node2 -->
<g id="node2" class="node">
<title>Node2</title>
<g id="a_node2"><a xlink:href="namespace_catch.html#a54c1ce08041448d684ae8edc14162cd2" target="_top" xlink:title=" ">
<polygon fill="white" stroke="black" points="221.5,-475.5 221.5,-494.5 290.5,-494.5 290.5,-475.5 221.5,-475.5"/>
<text text-anchor="middle" x="256" y="-482.5" font-family="Helvetica,sans-Serif" font-size="10.00">Catch::cerr</text>
</a>
</g>
</g>
<!-- Node1&#45;&gt;Node2 -->
<g id="edge1" class="edge">
<title>Node1&#45;&gt;Node2</title>
<path fill="none" stroke="midnightblue" d="M68.42,-281.52C75.36,-313.3 102.21,-416.47 167,-466 179.51,-475.56 195.8,-480.54 210.96,-483.06"/>
<polygon fill="midnightblue" stroke="midnightblue" points="210.84,-486.58 221.22,-484.44 211.77,-479.64 210.84,-486.58"/>
</g>
<!-- Node4 -->
<g id="node4" class="node">
<title>Node4</title>
<g id="a_node4"><a xlink:href="class_catch_1_1_session.html#afac375cd0ef4715b09924575d88fdc13" target="_top" xlink:title=" ">
<polygon fill="white" stroke="black" points="194.5,-437.5 194.5,-456.5 317.5,-456.5 317.5,-437.5 194.5,-437.5"/>
<text text-anchor="middle" x="256" y="-444.5" font-family="Helvetica,sans-Serif" font-size="10.00">Catch::Session::config</text>
</a>
</g>
</g>
<!-- Node1&#45;&gt;Node4 -->
<g id="edge3" class="edge">
<title>Node1&#45;&gt;Node4</title>
<path fill="none" stroke="midnightblue" d="M69.68,-281.57C79.38,-309.19 111.37,-389.49 167,-428 172.31,-431.68 178.2,-434.66 184.35,-437.09"/>
<polygon fill="midnightblue" stroke="midnightblue" points="183.58,-440.52 194.17,-440.44 185.84,-433.9 183.58,-440.52"/>
</g>
<!-- Node5 -->
<g id="node5" class="node">
<title>Node5</title>
<g id="a_node5"><a xlink:href="namespace_catch.html#a710841d4732b86c06f816bd4822bd425" target="_top" xlink:title=" ">
<polygon fill="white" stroke="black" points="185,-388 185,-418 327,-418 327,-388 185,-388"/>
<text text-anchor="start" x="193" y="-406" font-family="Helvetica,sans-Serif" font-size="10.00">Catch::getCurrentMutable</text>
<text text-anchor="middle" x="256" y="-395" font-family="Helvetica,sans-Serif" font-size="10.00">Context</text>
</a>
</g>
</g>
<!-- Node1&#45;&gt;Node5 -->
<g id="edge4" class="edge">
<title>Node1&#45;&gt;Node5</title>
<path fill="none" stroke="midnightblue" d="M72.76,-281.66C86.92,-302.7 123.54,-352.86 167,-379 169.85,-380.71 172.82,-382.31 175.88,-383.79"/>
<polygon fill="midnightblue" stroke="midnightblue" points="174.71,-387.1 185.28,-387.91 177.53,-380.69 174.71,-387.1"/>
</g>
<!-- Node6 -->
<g id="node6" class="node">
<title>Node6</title>
<g id="a_node6"><a xlink:href="class_catch_1_1_startup_exception_registry.html#adc67e4febbec8095bbe37b61697feb2e" target="_top" xlink:title=" ">
<polygon fill="white" stroke="black" points="169,-339 169,-369 343,-369 343,-339 169,-339"/>
<text text-anchor="start" x="177" y="-357" font-family="Helvetica,sans-Serif" font-size="10.00">Catch::StartupExceptionRegistry</text>
<text text-anchor="middle" x="256" y="-346" font-family="Helvetica,sans-Serif" font-size="10.00">::getExceptions</text>
</a>
</g>
</g>
<!-- Node1&#45;&gt;Node6 -->
<g id="edge5" class="edge">
<title>Node1&#45;&gt;Node6</title>
<path fill="none" stroke="midnightblue" d="M80.92,-281.65C99.95,-294.04 134.8,-315.53 167,-329 172.77,-331.41 178.84,-333.68 185,-335.78"/>
<polygon fill="midnightblue" stroke="midnightblue" points="184.1,-339.17 194.69,-338.95 186.28,-332.51 184.1,-339.17"/>
</g>
<!-- Node7 -->
<g id="node7" class="node">
<title>Node7</title>
<g id="a_node7"><a xlink:href="namespace_catch.html#a585459763f2c7610e57de2dd22dd1ad8" target="_top" xlink:title=" ">
<polygon fill="white" stroke="black" points="173,-300.5 173,-319.5 339,-319.5 339,-300.5 173,-300.5"/>
<text text-anchor="middle" x="256" y="-307.5" font-family="Helvetica,sans-Serif" font-size="10.00">Catch::getMutableRegistryHub</text>
</a>
</g>
</g>
<!-- Node1&#45;&gt;Node7 -->
<g id="edge6" class="edge">
<title>Node1&#45;&gt;Node7</title>
<path fill="none" stroke="midnightblue" d="M114.07,-281.59C139.5,-286.72 171,-293.07 197.77,-298.46"/>
<polygon fill="midnightblue" stroke="midnightblue" points="197.28,-301.93 207.78,-300.48 198.66,-295.07 197.28,-301.93"/>
</g>
<!-- Node9 -->
<g id="node9" class="node">
<title>Node9</title>
<g id="a_node9"><a xlink:href="namespace_catch.html#a5d328566cb8da87b48f1fac3f319ac7a" target="_top" xlink:title=" ">
<polygon fill="white" stroke="black" points="397,-262.5 397,-281.5 523,-281.5 523,-262.5 397,-262.5"/>
<text text-anchor="middle" x="460" y="-269.5" font-family="Helvetica,sans-Serif" font-size="10.00">Catch::getRegistryHub</text>
</a>
</g>
</g>
<!-- Node1&#45;&gt;Node9 -->
<g id="edge8" class="edge">
<title>Node1&#45;&gt;Node9</title>
<path fill="none" stroke="midnightblue" d="M131.31,-272C201.6,-272 313.52,-272 386.63,-272"/>
<polygon fill="midnightblue" stroke="midnightblue" points="386.69,-275.5 396.69,-272 386.69,-268.5 386.69,-275.5"/>
</g>
<!-- Node11 -->
<g id="node11" class="node">
<title>Node11</title>
<g id="a_node11"><a xlink:href="struct_catch_1_1_i_registry_hub.html#a00281210628e6c616aca1d3e0d84db04" target="_top" xlink:title=" ">
<polygon fill="white" stroke="black" points="175,-213 175,-243 337,-243 337,-213 175,-213"/>
<text text-anchor="start" x="183" y="-231" font-family="Helvetica,sans-Serif" font-size="10.00">Catch::IRegistryHub</text>
<text text-anchor="middle" x="256" y="-220" font-family="Helvetica,sans-Serif" font-size="10.00">::getStartupExceptionRegistry</text>
</a>
</g>
</g>
<!-- Node1&#45;&gt;Node11 -->
<g id="edge10" class="edge">
<title>Node1&#45;&gt;Node11</title>
<path fill="none" stroke="midnightblue" d="M107.4,-262.45C128.81,-257.45 155.7,-251.18 180.65,-245.36"/>
<polygon fill="midnightblue" stroke="midnightblue" points="181.52,-248.75 190.46,-243.07 179.92,-241.93 181.52,-248.75"/>
</g>
<!-- Node12 -->
<g id="node12" class="node">
<title>Node12</title>
<g id="a_node12"><a xlink:href="class_catch_1_1clara_1_1_text_flow_1_1_column.html#a8d5fa87d9f25f27e6948965c62b53867" target="_top" xlink:title=" ">
<polygon fill="white" stroke="black" points="194,-164 194,-194 318,-194 318,-164 194,-164"/>
<text text-anchor="start" x="202" y="-182" font-family="Helvetica,sans-Serif" font-size="10.00">Catch::clara::TextFlow</text>
<text text-anchor="middle" x="256" y="-171" font-family="Helvetica,sans-Serif" font-size="10.00">::Column::indent</text>
</a>
</g>
</g>
<!-- Node1&#45;&gt;Node12 -->
<g id="edge11" class="edge">
<title>Node1&#45;&gt;Node12</title>
<path fill="none" stroke="midnightblue" d="M78.13,-262.3C96.11,-247.73 132.24,-220.19 167,-204 172.57,-201.4 178.48,-199.02 184.48,-196.85"/>
<polygon fill="midnightblue" stroke="midnightblue" points="185.63,-200.15 193.96,-193.6 183.36,-193.53 185.63,-200.15"/>
</g>
<!-- Node13 -->
<g id="node13" class="node">
<title>Node13</title>
<g id="a_node13"><a xlink:href="namespace_catch.html#add4f86f38bf30c7b49daacfac665aaff" target="_top" xlink:title=" ">
<polygon fill="white" stroke="black" points="167,-125.5 167,-144.5 345,-144.5 345,-125.5 167,-125.5"/>
<text text-anchor="middle" x="256" y="-132.5" font-family="Helvetica,sans-Serif" font-size="10.00">Catch::makeCommandLineParser</text>
</a>
</g>
</g>
<!-- Node1&#45;&gt;Node13 -->
<g id="edge12" class="edge">
<title>Node1&#45;&gt;Node13</title>
<path fill="none" stroke="midnightblue" d="M71.84,-262.3C84.88,-239.62 120.67,-182.92 167,-155 171.42,-152.34 176.15,-150.03 181.05,-148.03"/>
<polygon fill="midnightblue" stroke="midnightblue" points="182.43,-151.25 190.63,-144.55 180.04,-144.68 182.43,-151.25"/>
</g>
<!-- Node23 -->
<g id="node23" class="node">
<title>Node23</title>
<g id="a_node23"><a xlink:href="struct_catch_1_1_i_mutable_registry_hub.html#a72a7d5386851ac3200f8da794a009c86" target="_top" xlink:title=" ">
<polygon fill="white" stroke="black" points="179.5,-76 179.5,-106 332.5,-106 332.5,-76 179.5,-76"/>
<text text-anchor="start" x="187.5" y="-94" font-family="Helvetica,sans-Serif" font-size="10.00">Catch::IMutableRegistryHub</text>
<text text-anchor="middle" x="256" y="-83" font-family="Helvetica,sans-Serif" font-size="10.00">::registerStartupException</text>
</a>
</g>
</g>
<!-- Node1&#45;&gt;Node23 -->
<g id="edge23" class="edge">
<title>Node1&#45;&gt;Node23</title>
<path fill="none" stroke="midnightblue" d="M69.95,-262.21C80.15,-234.7 112.9,-156.08 167,-116 169.53,-114.12 172.21,-112.39 174.98,-110.78"/>
<polygon fill="midnightblue" stroke="midnightblue" points="176.83,-113.76 184.12,-106.08 173.63,-107.54 176.83,-113.76"/>
</g>
<!-- Node24 -->
<g id="node24" class="node">
<title>Node24</title>
<g id="a_node24"><a xlink:href="struct_catch_1_1_i_mutable_context.html#aa81ba080fce084e9482f20338bc88531" target="_top" xlink:title=" ">
<polygon fill="white" stroke="black" points="190.5,-27 190.5,-57 321.5,-57 321.5,-27 190.5,-27"/>
<text text-anchor="start" x="198.5" y="-45" font-family="Helvetica,sans-Serif" font-size="10.00">Catch::IMutableContext</text>
<text text-anchor="middle" x="256" y="-34" font-family="Helvetica,sans-Serif" font-size="10.00">::setConfig</text>
</a>
</g>
</g>
<!-- Node1&#45;&gt;Node24 -->
<g id="edge24" class="edge">
<title>Node1&#45;&gt;Node24</title>
<path fill="none" stroke="midnightblue" d="M68.25,-262.5C74.76,-229.78 100.8,-120.82 167,-66 171.27,-62.47 176.02,-59.45 181.03,-56.87"/>
<polygon fill="midnightblue" stroke="midnightblue" points="182.62,-60 190.3,-52.7 179.74,-53.62 182.62,-60"/>
</g>
<!-- Node3 -->
<g id="node3" class="node">
<title>Node3</title>
<g id="a_node3"><a xlink:href="namespace_catch.html#a1b2213f54e4d31a659db49827e81856b" target="_top" xlink:title=" ">
<polygon fill="white" stroke="black" points="424.5,-475.5 424.5,-494.5 495.5,-494.5 495.5,-475.5 424.5,-475.5"/>
<text text-anchor="middle" x="460" y="-482.5" font-family="Helvetica,sans-Serif" font-size="10.00">Catch::clog</text>
</a>
</g>
</g>
<!-- Node2&#45;&gt;Node3 -->
<g id="edge2" class="edge">
<title>Node2&#45;&gt;Node3</title>
<path fill="none" stroke="midnightblue" d="M290.81,-485C324.69,-485 377.03,-485 414.31,-485"/>
<polygon fill="midnightblue" stroke="midnightblue" points="414.4,-488.5 424.4,-485 414.4,-481.5 414.4,-488.5"/>
</g>
<!-- Node8 -->
<g id="node8" class="node">
<title>Node8</title>
<g id="a_node8"><a xlink:href="class_catch_1_1_singleton.html#a8c18286fe40405813c5bab05e20ce4f0" target="_top" xlink:title=" ">
<polygon fill="white" stroke="black" points="381,-300.5 381,-319.5 539,-319.5 539,-300.5 381,-300.5"/>
<text text-anchor="middle" x="460" y="-307.5" font-family="Helvetica,sans-Serif" font-size="10.00">Catch::Singleton::getMutable</text>
</a>
</g>
</g>
<!-- Node7&#45;&gt;Node8 -->
<g id="edge7" class="edge">
<title>Node7&#45;&gt;Node8</title>
<path fill="none" stroke="midnightblue" d="M339.16,-310C349.59,-310 360.3,-310 370.82,-310"/>
<polygon fill="midnightblue" stroke="midnightblue" points="370.83,-313.5 380.83,-310 370.83,-306.5 370.83,-313.5"/>
</g>
<!-- Node10 -->
<g id="node10" class="node">
<title>Node10</title>
<g id="a_node10"><a xlink:href="class_catch_1_1_singleton.html#aa1b2bb002acd8838489a225dbbaf2865" target="_top" xlink:title=" ">
<polygon fill="white" stroke="black" points="589.5,-262.5 589.5,-281.5 707.5,-281.5 707.5,-262.5 589.5,-262.5"/>
<text text-anchor="middle" x="648.5" y="-269.5" font-family="Helvetica,sans-Serif" font-size="10.00">Catch::Singleton::get</text>
</a>
</g>
</g>
<!-- Node9&#45;&gt;Node10 -->
<g id="edge9" class="edge">
<title>Node9&#45;&gt;Node10</title>
<path fill="none" stroke="midnightblue" d="M523.1,-272C541.16,-272 560.98,-272 579.39,-272"/>
<polygon fill="midnightblue" stroke="midnightblue" points="579.45,-275.5 589.45,-272 579.45,-268.5 579.45,-275.5"/>
</g>
<!-- Node13&#45;&gt;Node9 -->
<g id="edge17" class="edge">
<title>Node13&#45;&gt;Node9</title>
<path fill="none" stroke="midnightblue" d="M328.74,-144.65C334.64,-147.36 340.18,-150.76 345,-155 379.85,-185.64 346.39,-222.1 381,-253 383.19,-254.96 385.55,-256.72 388.04,-258.31"/>
<polygon fill="midnightblue" stroke="midnightblue" points="386.45,-261.43 396.92,-263.07 389.76,-255.26 386.45,-261.43"/>
</g>
<!-- Node14 -->
<g id="node14" class="node">
<title>Node14</title>
<g id="a_node14"><a xlink:href="namespace_catch_1_1clara_1_1detail.html#a19e6ad854f8d2d01aa16b9b67b28cb3b" target="_top" xlink:title=" ">
<polygon fill="white" stroke="black" points="406,-213 406,-243 514,-243 514,-213 406,-213"/>
<text text-anchor="start" x="414" y="-231" font-family="Helvetica,sans-Serif" font-size="10.00">Catch::clara::detail</text>
<text text-anchor="middle" x="460" y="-220" font-family="Helvetica,sans-Serif" font-size="10.00">::convertInto</text>
</a>
</g>
</g>
<!-- Node13&#45;&gt;Node14 -->
<g id="edge13" class="edge">
<title>Node13&#45;&gt;Node14</title>
<path fill="none" stroke="midnightblue" d="M323.06,-144.51C330.81,-147.19 338.32,-150.62 345,-155 367.6,-169.82 358.97,-188.35 381,-204 385.74,-207.36 390.95,-210.27 396.38,-212.77"/>
<polygon fill="midnightblue" stroke="midnightblue" points="395.08,-216.02 405.66,-216.61 397.76,-209.55 395.08,-216.02"/>
</g>
<!-- Node17 -->
<g id="node17" class="node">
<title>Node17</title>
<g id="a_node17"><a xlink:href="struct_catch_1_1_i_reporter_registry.html#a76ffc8a26c38929f370196937ed112b5" target="_top" xlink:title=" ">
<polygon fill="white" stroke="black" points="392,-164 392,-194 528,-194 528,-164 392,-164"/>
<text text-anchor="start" x="400" y="-182" font-family="Helvetica,sans-Serif" font-size="10.00">Catch::IReporterRegistry</text>
<text text-anchor="middle" x="460" y="-171" font-family="Helvetica,sans-Serif" font-size="10.00">::getFactories</text>
</a>
</g>
</g>
<!-- Node13&#45;&gt;Node17 -->
<g id="edge16" class="edge">
<title>Node13&#45;&gt;Node17</title>
<path fill="none" stroke="midnightblue" d="M300.83,-144.55C324.5,-149.7 354.41,-156.22 381.83,-162.19"/>
<polygon fill="midnightblue" stroke="midnightblue" points="381.29,-165.65 391.8,-164.36 382.78,-158.82 381.29,-165.65"/>
</g>
<!-- Node18 -->
<g id="node18" class="node">
<title>Node18</title>
<g id="a_node18"><a xlink:href="struct_catch_1_1_i_registry_hub.html#a55534563f7ecf7e20ec1e37285ebe54d" target="_top" xlink:title=" ">
<polygon fill="white" stroke="black" points="399.5,-115 399.5,-145 520.5,-145 520.5,-115 399.5,-115"/>
<text text-anchor="start" x="407.5" y="-133" font-family="Helvetica,sans-Serif" font-size="10.00">Catch::IRegistryHub</text>
<text text-anchor="middle" x="460" y="-122" font-family="Helvetica,sans-Serif" font-size="10.00">::getReporterRegistry</text>
</a>
</g>
</g>
<!-- Node13&#45;&gt;Node18 -->
<g id="edge18" class="edge">
<title>Node13&#45;&gt;Node18</title>
<path fill="none" stroke="midnightblue" d="M345.01,-132.82C359.81,-132.46 374.99,-132.08 389.25,-131.73"/>
<polygon fill="midnightblue" stroke="midnightblue" points="389.54,-135.22 399.45,-131.47 389.37,-128.22 389.54,-135.22"/>
</g>
<!-- Node19 -->
<g id="node19" class="node">
<title>Node19</title>
<g id="a_node19"><a xlink:href="namespace_catch.html#a695f62327be0676e046291eeaae15110" target="_top" xlink:title=" ">
<polygon fill="white" stroke="black" points="409.5,-76.5 409.5,-95.5 510.5,-95.5 510.5,-76.5 409.5,-76.5"/>
<text text-anchor="middle" x="460" y="-83.5" font-family="Helvetica,sans-Serif" font-size="10.00">Catch::startsWith</text>
</a>
</g>
</g>
<!-- Node13&#45;&gt;Node19 -->
<g id="edge19" class="edge">
<title>Node13&#45;&gt;Node19</title>
<path fill="none" stroke="midnightblue" d="M303.7,-125.45C317.07,-122.57 331.65,-119.29 345,-116 361.12,-112.02 364.96,-110.28 381,-106 390.83,-103.38 401.37,-100.63 411.42,-98.04"/>
<polygon fill="midnightblue" stroke="midnightblue" points="412.45,-101.39 421.27,-95.51 410.71,-94.61 412.45,-101.39"/>
</g>
<!-- Node20 -->
<g id="node20" class="node">
<title>Node20</title>
<g id="a_node20"><a xlink:href="namespace_catch.html#ac036a17412d318598ffda8e1fe7a1177" target="_top" xlink:title=" ">
<polygon fill="white" stroke="black" points="415.5,-38.5 415.5,-57.5 504.5,-57.5 504.5,-38.5 415.5,-38.5"/>
<text text-anchor="middle" x="460" y="-45.5" font-family="Helvetica,sans-Serif" font-size="10.00">Catch::toLower</text>
</a>
</g>
</g>
<!-- Node13&#45;&gt;Node20 -->
<g id="edge20" class="edge">
<title>Node13&#45;&gt;Node20</title>
<path fill="none" stroke="midnightblue" d="M325.77,-125.35C332.55,-122.89 339.1,-119.82 345,-116 367.68,-101.31 358.52,-81.99 381,-67 388.41,-62.06 396.99,-58.4 405.69,-55.69"/>
<polygon fill="midnightblue" stroke="midnightblue" points="406.77,-59.02 415.5,-53.02 404.93,-52.27 406.77,-59.02"/>
</g>
<!-- Node22 -->
<g id="node22" class="node">
<title>Node22</title>
<g id="a_node22"><a xlink:href="namespace_catch.html#aea28035c2fa625ced568c1765e82a3bc" target="_top" xlink:title="Returns a new string without whitespace at the start/end.">
<polygon fill="white" stroke="black" points="424.5,-0.5 424.5,-19.5 495.5,-19.5 495.5,-0.5 424.5,-0.5"/>
<text text-anchor="middle" x="460" y="-7.5" font-family="Helvetica,sans-Serif" font-size="10.00">Catch::trim</text>
</a>
</g>
</g>
<!-- Node13&#45;&gt;Node22 -->
<g id="edge22" class="edge">
<title>Node13&#45;&gt;Node22</title>
<path fill="none" stroke="midnightblue" d="M329.84,-125.41C335.3,-122.9 340.44,-119.81 345,-116 377.13,-89.18 349.23,-56.24 381,-29 390.34,-20.99 402.52,-16.25 414.46,-13.47"/>
<polygon fill="midnightblue" stroke="midnightblue" points="415.21,-16.89 424.37,-11.57 413.89,-10.01 415.21,-16.89"/>
</g>
<!-- Node15 -->
<g id="node15" class="node">
<title>Node15</title>
<g id="a_node15"><a xlink:href="class_catch_1_1clara_1_1detail_1_1_basic_result.html#ac48a1cb282f89218d149c021cbd32eb6" target="_top" xlink:title=" ">
<polygon fill="white" stroke="black" points="594.5,-213 594.5,-243 702.5,-243 702.5,-213 594.5,-213"/>
<text text-anchor="start" x="602.5" y="-231" font-family="Helvetica,sans-Serif" font-size="10.00">Catch::clara::detail</text>
<text text-anchor="middle" x="648.5" y="-220" font-family="Helvetica,sans-Serif" font-size="10.00">::BasicResult::ok</text>
</a>
</g>
</g>
<!-- Node14&#45;&gt;Node15 -->
<g id="edge14" class="edge">
<title>Node14&#45;&gt;Node15</title>
<path fill="none" stroke="midnightblue" d="M514.19,-228C535.95,-228 561.29,-228 584.01,-228"/>
<polygon fill="midnightblue" stroke="midnightblue" points="584.24,-231.5 594.24,-228 584.24,-224.5 584.24,-231.5"/>
</g>
<!-- Node16 -->
<g id="node16" class="node">
<title>Node16</title>
<g id="a_node16"><a xlink:href="class_catch_1_1clara_1_1detail_1_1_basic_result.html#a8beb3ea9d8153ee786cb1f5578f938a8" target="_top" xlink:title=" ">
<polygon fill="white" stroke="black" points="575,-164 575,-194 722,-194 722,-164 575,-164"/>
<text text-anchor="start" x="583" y="-182" font-family="Helvetica,sans-Serif" font-size="10.00">Catch::clara::detail</text>
<text text-anchor="middle" x="648.5" y="-171" font-family="Helvetica,sans-Serif" font-size="10.00">::BasicResult::runtimeError</text>
</a>
</g>
</g>
<!-- Node14&#45;&gt;Node16 -->
<g id="edge15" class="edge">
<title>Node14&#45;&gt;Node16</title>
<path fill="none" stroke="midnightblue" d="M514.19,-214.02C534.83,-208.6 558.69,-202.33 580.48,-196.61"/>
<polygon fill="midnightblue" stroke="midnightblue" points="581.54,-199.95 590.32,-194.02 579.76,-193.18 581.54,-199.95"/>
</g>
<!-- Node21 -->
<g id="node21" class="node">
<title>Node21</title>
<g id="a_node21"><a xlink:href="namespace_catch.html#a0760dbe87d090a55a35414db57d272c4" target="_top" xlink:title=" ">
<polygon fill="white" stroke="black" points="586,-38.5 586,-57.5 711,-57.5 711,-38.5 586,-38.5"/>
<text text-anchor="middle" x="648.5" y="-45.5" font-family="Helvetica,sans-Serif" font-size="10.00">Catch::toLowerInPlace</text>
</a>
</g>
</g>
<!-- Node20&#45;&gt;Node21 -->
<g id="edge21" class="edge">
<title>Node20&#45;&gt;Node21</title>
<path fill="none" stroke="midnightblue" d="M504.73,-48C525.83,-48 551.7,-48 575.59,-48"/>
<polygon fill="midnightblue" stroke="midnightblue" points="575.69,-51.5 585.69,-48 575.69,-44.5 575.69,-51.5"/>
</g>
</g>
</svg>
        <g id="navigator" transform="translate(0 0)" fill="#404254">
                <rect fill="#f2f5e9" fill-opacity="0.5" stroke="#606060" stroke-width=".5" x="0" y="0" width="60" height="60"/>
                <use id="zoomplus" xlink:href="#zoomPlus" x="17" y="9" onmousedown="handleZoom(evt,'in')"/>
                <use id="zoomminus" xlink:href="#zoomMin" x="42" y="9" onmousedown="handleZoom(evt,'out')"/>
                <use id="reset" xlink:href="#resetDef" x="30" y="36" onmousedown="handleReset()"/>
                <g id="arrowUp" xlink:href="#dirArrow" transform="translate(30 24)" onmousedown="handlePan(0,-1)">
                  <use xlink:href="#rim" fill="#404040">
                        <set attributeName="fill" to="#808080" begin="arrowUp.mouseover" end="arrowUp.mouseout"/>
                  </use>
                  <path fill="none" stroke="white" stroke-width="1.5" d="M0,-3.0v7 M-2.5,-0.5L0,-3.0L2.5,-0.5"/>
                </g>
                <g id="arrowRight" xlink:href="#dirArrow" transform="rotate(90) translate(36 -43)" onmousedown="handlePan(1,0)">
                  <use xlink:href="#rim" fill="#404040">
                        <set attributeName="fill" to="#808080" begin="arrowRight.mouseover" end="arrowRight.mouseout"/>
                  </use>
                  <path fill="none" stroke="white" stroke-width="1.5" d="M0,-3.0v7 M-2.5,-0.5L0,-3.0L2.5,-0.5"/>
                </g>
                <g id="arrowDown" xlink:href="#dirArrow" transform="rotate(180) translate(-30 -48)" onmousedown="handlePan(0,1)">
                  <use xlink:href="#rim" fill="#404040">
                        <set attributeName="fill" to="#808080" begin="arrowDown.mouseover" end="arrowDown.mouseout"/>
                  </use>
                  <path fill="none" stroke="white" stroke-width="1.5" d="M0,-3.0v7 M-2.5,-0.5L0,-3.0L2.5,-0.5"/>
                </g>
                <g id="arrowLeft" xlink:href="#dirArrow" transform="rotate(270) translate(-36 17)" onmousedown="handlePan(-1,0)">
                  <use xlink:href="#rim" fill="#404040">
                        <set attributeName="fill" to="#808080" begin="arrowLeft.mouseover" end="arrowLeft.mouseout"/>
                  </use>
                  <path fill="none" stroke="white" stroke-width="1.5" d="M0,-3.0v7 M-2.5,-0.5L0,-3.0L2.5,-0.5"/>
                </g>
        </g>
        <svg viewBox="0 0 15 15" width="100%" height="30px" preserveAspectRatio="xMaxYMin meet">
         <g id="arrow_out" transform="scale(0.3 0.3)">
          <a xlink:href="class_catch_1_1_session_a4564992e2b028770e38a1dcc6fff8b34_cgraph_org.svg" target="_base">
           <rect id="button" ry="5" rx="5" y="6" x="6" height="38" width="38"
                fill="#f2f5e9" fill-opacity="0.5" stroke="#606060" stroke-width="1.0"/>
           <path id="arrow"
             d="M 11.500037,31.436501 C 11.940474,20.09759 22.043105,11.32322 32.158766,21.979434 L 37.068811,17.246167 C 37.068811,17.246167 37.088388,32 37.088388,32 L 22.160133,31.978069 C 22.160133,31.978069 26.997745,27.140456 26.997745,27.140456 C 18.528582,18.264221 13.291696,25.230495 11.500037,31.436501 z"
             style="fill:#404040;"/>
          </a>
         </g>
        </svg>
</svg>
