<?xml version="1.0" encoding="UTF-8" standalone="no"?>
<!DOCTYPE svg PUBLIC "-//W3C//DTD SVG 1.1//EN"
 "http://www.w3.org/Graphics/SVG/1.1/DTD/svg11.dtd">
<!-- Generated by graphviz version 2.43.0 (0)
 -->
<!-- Title: Catch::BinaryExpr&lt; LhsT, RhsT &gt; Pages: 1 -->
<svg width="225pt" height="497pt"
 viewBox="0.00 0.00 224.50 497.00" xmlns="http://www.w3.org/2000/svg" xmlns:xlink="http://www.w3.org/1999/xlink">
<g id="graph0" class="graph" transform="scale(1 1) rotate(0) translate(4 493)">
<title>Catch::BinaryExpr&lt; LhsT, RhsT &gt;</title>
<polygon fill="white" stroke="transparent" points="-4,4 -4,-493 220.5,-493 220.5,4 -4,4"/>
<!-- Node1 -->
<g id="node1" class="node">
<title>Node1</title>
<g id="a_node1"><a xlink:title=" ">
<polygon fill="#bfbfbf" stroke="black" points="40.5,-0.5 40.5,-178.5 152.5,-178.5 152.5,-0.5 40.5,-0.5"/>
<text text-anchor="start" x="48.5" y="-166.5" font-family="Helvetica,sans-Serif" font-size="10.00">Catch::BinaryExpr&lt;</text>
<text text-anchor="middle" x="96.5" y="-155.5" font-family="Helvetica,sans-Serif" font-size="10.00"> LhsT, RhsT &gt;</text>
<polyline fill="none" stroke="black" points="40.5,-148.5 152.5,-148.5 "/>
<text text-anchor="middle" x="96.5" y="-136.5" font-family="Helvetica,sans-Serif" font-size="10.00"> </text>
<polyline fill="none" stroke="black" points="40.5,-129.5 152.5,-129.5 "/>
<text text-anchor="start" x="48.5" y="-117.5" font-family="Helvetica,sans-Serif" font-size="10.00">+ BinaryExpr()</text>
<text text-anchor="start" x="48.5" y="-106.5" font-family="Helvetica,sans-Serif" font-size="10.00">+ operator&amp;&amp;()</text>
<text text-anchor="start" x="48.5" y="-95.5" font-family="Helvetica,sans-Serif" font-size="10.00">+ operator||()</text>
<text text-anchor="start" x="48.5" y="-84.5" font-family="Helvetica,sans-Serif" font-size="10.00">+ operator==()</text>
<text text-anchor="start" x="48.5" y="-73.5" font-family="Helvetica,sans-Serif" font-size="10.00">+ operator!=()</text>
<text text-anchor="start" x="48.5" y="-62.5" font-family="Helvetica,sans-Serif" font-size="10.00">+ operator&gt;()</text>
<text text-anchor="start" x="48.5" y="-51.5" font-family="Helvetica,sans-Serif" font-size="10.00">+ operator&lt;()</text>
<text text-anchor="start" x="48.5" y="-40.5" font-family="Helvetica,sans-Serif" font-size="10.00">+ operator&gt;=()</text>
<text text-anchor="start" x="48.5" y="-29.5" font-family="Helvetica,sans-Serif" font-size="10.00">+ operator&lt;=()</text>
<text text-anchor="start" x="48.5" y="-18.5" font-family="Helvetica,sans-Serif" font-size="10.00">+ BinaryExpr()</text>
<text text-anchor="start" x="48.5" y="-7.5" font-family="Helvetica,sans-Serif" font-size="10.00">and 8 more...</text>
</a>
</g>
</g>
<!-- Node2 -->
<g id="node2" class="node">
<title>Node2</title>
<g id="a_node2"><a xlink:href="struct_catch_1_1_i_transient_expression.html" target="_top" xlink:title=" ">
<polygon fill="white" stroke="black" points="0,-216.5 0,-372.5 193,-372.5 193,-216.5 0,-216.5"/>
<text text-anchor="middle" x="96.5" y="-360.5" font-family="Helvetica,sans-Serif" font-size="10.00">Catch::ITransientExpression</text>
<polyline fill="none" stroke="black" points="0,-353.5 193,-353.5 "/>
<text text-anchor="middle" x="96.5" y="-341.5" font-family="Helvetica,sans-Serif" font-size="10.00"> </text>
<polyline fill="none" stroke="black" points="0,-334.5 193,-334.5 "/>
<text text-anchor="start" x="8" y="-322.5" font-family="Helvetica,sans-Serif" font-size="10.00">+ isBinaryExpression()</text>
<text text-anchor="start" x="8" y="-311.5" font-family="Helvetica,sans-Serif" font-size="10.00">+ getResult()</text>
<text text-anchor="start" x="8" y="-300.5" font-family="Helvetica,sans-Serif" font-size="10.00">+ streamReconstructedExpression()</text>
<text text-anchor="start" x="8" y="-289.5" font-family="Helvetica,sans-Serif" font-size="10.00">+ ITransientExpression()</text>
<text text-anchor="start" x="8" y="-278.5" font-family="Helvetica,sans-Serif" font-size="10.00">+ ~ITransientExpression()</text>
<text text-anchor="start" x="8" y="-267.5" font-family="Helvetica,sans-Serif" font-size="10.00">+ isBinaryExpression()</text>
<text text-anchor="start" x="8" y="-256.5" font-family="Helvetica,sans-Serif" font-size="10.00">+ getResult()</text>
<text text-anchor="start" x="8" y="-245.5" font-family="Helvetica,sans-Serif" font-size="10.00">+ streamReconstructedExpression()</text>
<text text-anchor="start" x="8" y="-234.5" font-family="Helvetica,sans-Serif" font-size="10.00">+ ITransientExpression()</text>
<text text-anchor="start" x="8" y="-223.5" font-family="Helvetica,sans-Serif" font-size="10.00">+ ~ITransientExpression()</text>
</a>
</g>
</g>
<!-- Node2&#45;&gt;Node1 -->
<g id="edge1" class="edge">
<title>Node2&#45;&gt;Node1</title>
<path fill="none" stroke="midnightblue" d="M96.5,-206.25C96.5,-197.12 96.5,-187.84 96.5,-178.7"/>
<polygon fill="none" stroke="midnightblue" points="93,-206.46 96.5,-216.46 100,-206.46 93,-206.46"/>
</g>
<!-- Node3 -->
<g id="node3" class="node">
<title>Node3</title>
<g id="a_node3"><a xlink:href="classbool.html" target="_top" xlink:title=" ">
<polygon fill="white" stroke="black" points="77.5,-431.5 77.5,-488.5 115.5,-488.5 115.5,-431.5 77.5,-431.5"/>
<text text-anchor="middle" x="96.5" y="-476.5" font-family="Helvetica,sans-Serif" font-size="10.00">bool</text>
<polyline fill="none" stroke="black" points="77.5,-469.5 115.5,-469.5 "/>
<text text-anchor="middle" x="96.5" y="-457.5" font-family="Helvetica,sans-Serif" font-size="10.00"> </text>
<polyline fill="none" stroke="black" points="77.5,-450.5 115.5,-450.5 "/>
<text text-anchor="middle" x="96.5" y="-438.5" font-family="Helvetica,sans-Serif" font-size="10.00"> </text>
</a>
</g>
</g>
<!-- Node3&#45;&gt;Node2 -->
<g id="edge2" class="edge">
<title>Node3&#45;&gt;Node2</title>
<path fill="none" stroke="#404040" d="M96.5,-431.26C96.5,-418.21 96.5,-401.84 96.5,-385.02"/>
<polygon fill="none" stroke="#404040" points="96.5,-384.74 92.5,-378.74 96.5,-372.74 100.5,-378.74 96.5,-384.74"/>
<text text-anchor="middle" x="156.5" y="-405" font-family="Helvetica,sans-Serif" font-size="10.00"> +m_isBinaryExpression</text>
<text text-anchor="middle" x="156.5" y="-394" font-family="Helvetica,sans-Serif" font-size="10.00">+m_result</text>
</g>
</g>
</svg>
