<?xml version="1.0" encoding="UTF-8" standalone="no"?>
<!DOCTYPE svg PUBLIC "-//W3C//DTD SVG 1.1//EN"
 "http://www.w3.org/Graphics/SVG/1.1/DTD/svg11.dtd">
<!-- Generated by graphviz version 2.43.0 (0)
 -->
<!-- Title: Catch::JunitReporter::testGroupStarting Pages: 1 -->
<svg width="510pt" height="83pt"
 viewBox="0.00 0.00 510.00 83.00" xmlns="http://www.w3.org/2000/svg" xmlns:xlink="http://www.w3.org/1999/xlink">
<g id="graph0" class="graph" transform="scale(1 1) rotate(0) translate(4 79)">
<title>Catch::JunitReporter::testGroupStarting</title>
<polygon fill="white" stroke="transparent" points="-4,4 -4,-79 506,-79 506,4 -4,4"/>
<!-- Node1 -->
<g id="node1" class="node">
<title>Node1</title>
<g id="a_node1"><a xlink:title=" ">
<polygon fill="#bfbfbf" stroke="black" points="0,-22.5 0,-52.5 114,-52.5 114,-22.5 0,-22.5"/>
<text text-anchor="start" x="8" y="-40.5" font-family="Helvetica,sans-Serif" font-size="10.00">Catch::JunitReporter</text>
<text text-anchor="middle" x="57" y="-29.5" font-family="Helvetica,sans-Serif" font-size="10.00">::testGroupStarting</text>
</a>
</g>
</g>
<!-- Node2 -->
<g id="node2" class="node">
<title>Node2</title>
<g id="a_node2"><a xlink:href="class_catch_1_1_timer.html#a0a56e879e43f36c102bf9ea8b5fc8b72" target="_top" xlink:title=" ">
<polygon fill="white" stroke="black" points="171,-50 171,-69 278,-69 278,-50 171,-50"/>
<text text-anchor="middle" x="224.5" y="-57" font-family="Helvetica,sans-Serif" font-size="10.00">Catch::Timer::start</text>
</a>
</g>
</g>
<!-- Node1&#45;&gt;Node2 -->
<g id="edge1" class="edge">
<title>Node1&#45;&gt;Node2</title>
<path fill="none" stroke="midnightblue" d="M114.03,-44.95C129.11,-46.95 145.51,-49.13 160.92,-51.18"/>
<polygon fill="midnightblue" stroke="midnightblue" points="160.5,-54.66 170.88,-52.51 161.43,-47.72 160.5,-54.66"/>
</g>
<!-- Node4 -->
<g id="node4" class="node">
<title>Node4</title>
<g id="a_node4"><a xlink:href="struct_catch_1_1_cumulative_reporter_base.html#a2422d4701dd7796d1c60dfb90a99b9d0" target="_top" xlink:title=" ">
<polygon fill="white" stroke="black" points="150,-0.5 150,-30.5 299,-30.5 299,-0.5 150,-0.5"/>
<text text-anchor="start" x="158" y="-18.5" font-family="Helvetica,sans-Serif" font-size="10.00">Catch::CumulativeReporter</text>
<text text-anchor="middle" x="224.5" y="-7.5" font-family="Helvetica,sans-Serif" font-size="10.00">Base::testGroupStarting</text>
</a>
</g>
</g>
<!-- Node1&#45;&gt;Node4 -->
<g id="edge3" class="edge">
<title>Node1&#45;&gt;Node4</title>
<path fill="none" stroke="midnightblue" d="M114.03,-30.05C122.41,-28.94 131.2,-27.77 140,-26.6"/>
<polygon fill="midnightblue" stroke="midnightblue" points="140.47,-30.07 149.92,-25.28 139.55,-23.13 140.47,-30.07"/>
</g>
<!-- Node3 -->
<g id="node3" class="node">
<title>Node3</title>
<g id="a_node3"><a xlink:href="namespace_catch.html#a98d058468488c486a9cb5c8463f3ba29" target="_top" xlink:title=" ">
<polygon fill="white" stroke="black" points="335,-44.5 335,-74.5 502,-74.5 502,-44.5 335,-44.5"/>
<text text-anchor="start" x="343" y="-62.5" font-family="Helvetica,sans-Serif" font-size="10.00">Catch::getCurrentNanoseconds</text>
<text text-anchor="middle" x="418.5" y="-51.5" font-family="Helvetica,sans-Serif" font-size="10.00">SinceEpoch</text>
</a>
</g>
</g>
<!-- Node2&#45;&gt;Node3 -->
<g id="edge2" class="edge">
<title>Node2&#45;&gt;Node3</title>
<path fill="none" stroke="midnightblue" d="M278.22,-59.5C292.61,-59.5 308.64,-59.5 324.55,-59.5"/>
<polygon fill="midnightblue" stroke="midnightblue" points="324.98,-63 334.98,-59.5 324.98,-56 324.98,-63"/>
</g>
</g>
</svg>
