<?xml version="1.0" encoding="UTF-8" standalone="no"?>
<!DOCTYPE svg PUBLIC "-//W3C//DTD SVG 1.1//EN"
 "http://www.w3.org/Graphics/SVG/1.1/DTD/svg11.dtd">
<!-- Generated by graphviz version 2.43.0 (0)
 -->
<!-- Title: Catch::AssertionResult::getExpression Pages: 1 -->
<svg width="563pt" height="94pt"
 viewBox="0.00 0.00 563.00 93.96" xmlns="http://www.w3.org/2000/svg" xmlns:xlink="http://www.w3.org/1999/xlink">
<g id="graph0" class="graph" transform="scale(1 1) rotate(0) translate(4 89.96)">
<title>Catch::AssertionResult::getExpression</title>
<polygon fill="white" stroke="transparent" points="-4,4 -4,-89.96 559,-89.96 559,4 -4,4"/>
<!-- Node1 -->
<g id="node1" class="node">
<title>Node1</title>
<g id="a_node1"><a xlink:title=" ">
<polygon fill="#bfbfbf" stroke="black" points="428,-14.46 428,-44.46 555,-44.46 555,-14.46 428,-14.46"/>
<text text-anchor="start" x="436" y="-32.46" font-family="Helvetica,sans-Serif" font-size="10.00">Catch::AssertionResult</text>
<text text-anchor="middle" x="491.5" y="-21.46" font-family="Helvetica,sans-Serif" font-size="10.00">::getExpression</text>
</a>
</g>
</g>
<!-- Node2 -->
<g id="node2" class="node">
<title>Node2</title>
<g id="a_node2"><a xlink:href="class_catch_1_1_assertion_result.html#aaa46070791a6c07caaed86229b8d9d75" target="_top" xlink:title=" ">
<polygon fill="white" stroke="black" points="252,-14.46 252,-44.46 392,-44.46 392,-14.46 252,-14.46"/>
<text text-anchor="start" x="260" y="-32.46" font-family="Helvetica,sans-Serif" font-size="10.00">Catch::AssertionResult</text>
<text text-anchor="middle" x="322" y="-21.46" font-family="Helvetica,sans-Serif" font-size="10.00">::getExpandedExpression</text>
</a>
</g>
</g>
<!-- Node1&#45;&gt;Node2 -->
<g id="edge1" class="edge">
<title>Node1&#45;&gt;Node2</title>
<path fill="none" stroke="midnightblue" d="M417.47,-29.46C409.04,-29.46 400.47,-29.46 392.1,-29.46"/>
<polygon fill="midnightblue" stroke="midnightblue" points="417.65,-32.96 427.65,-29.46 417.65,-25.96 417.65,-32.96"/>
</g>
<!-- Node3 -->
<g id="node3" class="node">
<title>Node3</title>
<g id="a_node3"><a xlink:href="class_catch_1_1_assertion_result.html#a78c43506c2b3d8cc1fb141a97d09ec94" target="_top" xlink:title=" ">
<polygon fill="white" stroke="black" points="75,-55.46 75,-85.46 216,-85.46 216,-55.46 75,-55.46"/>
<text text-anchor="start" x="83" y="-73.46" font-family="Helvetica,sans-Serif" font-size="10.00">Catch::AssertionResult</text>
<text text-anchor="middle" x="145.5" y="-62.46" font-family="Helvetica,sans-Serif" font-size="10.00">::hasExpandedExpression</text>
</a>
</g>
</g>
<!-- Node1&#45;&gt;Node3 -->
<g id="edge5" class="edge">
<title>Node1&#45;&gt;Node3</title>
<path fill="none" stroke="midnightblue" d="M428.73,-46.98C416.63,-49.89 403.98,-52.57 392,-54.46 333.15,-63.77 265.54,-67.68 216.19,-69.32"/>
<polygon fill="midnightblue" stroke="midnightblue" points="429.87,-50.3 438.73,-44.5 428.18,-43.51 429.87,-50.3"/>
</g>
<!-- Node4 -->
<g id="node4" class="node">
<title>Node4</title>
<g id="a_node4"><a xlink:href="210-_evt-_event_listeners_8cpp.html#ab1667f970fa12a38558740e5899d8659" target="_top" xlink:title=" ">
<polygon fill="white" stroke="black" points="0,-16.96 0,-35.96 39,-35.96 39,-16.96 0,-16.96"/>
<text text-anchor="middle" x="19.5" y="-23.96" font-family="Helvetica,sans-Serif" font-size="10.00">print</text>
</a>
</g>
</g>
<!-- Node1&#45;&gt;Node4 -->
<g id="edge6" class="edge">
<title>Node1&#45;&gt;Node4</title>
<path fill="none" stroke="midnightblue" d="M428.78,-12.04C416.68,-9.3 404.01,-6.9 392,-5.46 257.31,10.71 93.61,-13.78 39.13,-23.1"/>
<polygon fill="midnightblue" stroke="midnightblue" points="428.25,-15.51 438.78,-14.4 429.86,-8.7 428.25,-15.51"/>
</g>
<!-- Node2&#45;&gt;Node3 -->
<g id="edge2" class="edge">
<title>Node2&#45;&gt;Node3</title>
<path fill="none" stroke="midnightblue" d="M246.93,-46.86C234.81,-49.71 222.33,-52.64 210.48,-55.43"/>
<polygon fill="midnightblue" stroke="midnightblue" points="248.08,-50.19 257.01,-44.5 246.48,-43.38 248.08,-50.19"/>
</g>
<!-- Node2&#45;&gt;Node4 -->
<g id="edge4" class="edge">
<title>Node2&#45;&gt;Node4</title>
<path fill="none" stroke="midnightblue" d="M241.33,-28.67C172.73,-27.98 78.73,-27.04 39.21,-26.65"/>
<polygon fill="midnightblue" stroke="midnightblue" points="241.65,-32.17 251.68,-28.77 241.72,-25.17 241.65,-32.17"/>
</g>
<!-- Node3&#45;&gt;Node4 -->
<g id="edge3" class="edge">
<title>Node3&#45;&gt;Node4</title>
<path fill="none" stroke="midnightblue" d="M92.68,-52.07C73.66,-45.32 53.32,-38.11 39.1,-33.06"/>
<polygon fill="midnightblue" stroke="midnightblue" points="91.58,-55.4 102.17,-55.44 93.92,-48.8 91.58,-55.4"/>
</g>
</g>
</svg>
