<?xml version="1.0" encoding="UTF-8" standalone="no"?>
<!DOCTYPE svg PUBLIC "-//W3C//DTD SVG 1.1//EN"
 "http://www.w3.org/Graphics/SVG/1.1/DTD/svg11.dtd">
<!-- Generated by graphviz version 2.43.0 (0)
 -->
<!-- Title: Catch::clara::detail::ParserRefImpl&lt; DerivedT &gt; Pages: 1 -->
<svg width="480pt" height="464pt"
 viewBox="0.00 0.00 480.00 464.00" xmlns="http://www.w3.org/2000/svg" xmlns:xlink="http://www.w3.org/1999/xlink">
<g id="graph0" class="graph" transform="scale(1 1) rotate(0) translate(4 460)">
<title>Catch::clara::detail::ParserRefImpl&lt; DerivedT &gt;</title>
<polygon fill="white" stroke="transparent" points="-4,4 -4,-460 476,-460 476,4 -4,4"/>
<!-- Node1 -->
<g id="node1" class="node">
<title>Node1</title>
<g id="a_node1"><a xlink:title=" ">
<polygon fill="#bfbfbf" stroke="black" points="148.5,-0.5 148.5,-156.5 306.5,-156.5 306.5,-0.5 148.5,-0.5"/>
<text text-anchor="start" x="156.5" y="-144.5" font-family="Helvetica,sans-Serif" font-size="10.00">Catch::clara::detail</text>
<text text-anchor="middle" x="227.5" y="-133.5" font-family="Helvetica,sans-Serif" font-size="10.00">::ParserRefImpl&lt; DerivedT &gt;</text>
<polyline fill="none" stroke="black" points="148.5,-126.5 306.5,-126.5 "/>
<text text-anchor="middle" x="227.5" y="-114.5" font-family="Helvetica,sans-Serif" font-size="10.00"> </text>
<polyline fill="none" stroke="black" points="148.5,-107.5 306.5,-107.5 "/>
<text text-anchor="start" x="156.5" y="-95.5" font-family="Helvetica,sans-Serif" font-size="10.00">+ ParserRefImpl()</text>
<text text-anchor="start" x="156.5" y="-84.5" font-family="Helvetica,sans-Serif" font-size="10.00">+ ParserRefImpl()</text>
<text text-anchor="start" x="156.5" y="-73.5" font-family="Helvetica,sans-Serif" font-size="10.00">+ operator()()</text>
<text text-anchor="start" x="156.5" y="-62.5" font-family="Helvetica,sans-Serif" font-size="10.00">+ optional()</text>
<text text-anchor="start" x="156.5" y="-51.5" font-family="Helvetica,sans-Serif" font-size="10.00">+ required()</text>
<text text-anchor="start" x="156.5" y="-40.5" font-family="Helvetica,sans-Serif" font-size="10.00">+ isOptional()</text>
<text text-anchor="start" x="156.5" y="-29.5" font-family="Helvetica,sans-Serif" font-size="10.00">+ cardinality()</text>
<text text-anchor="start" x="156.5" y="-18.5" font-family="Helvetica,sans-Serif" font-size="10.00">+ hint()</text>
<text text-anchor="start" x="156.5" y="-7.5" font-family="Helvetica,sans-Serif" font-size="10.00"># ParserRefImpl()</text>
</a>
</g>
</g>
<!-- Node2 -->
<g id="node2" class="node">
<title>Node2</title>
<g id="a_node2"><a xlink:href="class_catch_1_1clara_1_1detail_1_1_composable_parser_impl.html" target="_top" xlink:title=" ">
<polygon fill="white" stroke="black" points="0,-215.5 0,-305.5 135,-305.5 135,-215.5 0,-215.5"/>
<text text-anchor="start" x="8" y="-293.5" font-family="Helvetica,sans-Serif" font-size="10.00">Catch::clara::detail</text>
<text text-anchor="start" x="8" y="-282.5" font-family="Helvetica,sans-Serif" font-size="10.00">::ComposableParserImpl</text>
<text text-anchor="middle" x="67.5" y="-271.5" font-family="Helvetica,sans-Serif" font-size="10.00">&lt; DerivedT &gt;</text>
<polyline fill="none" stroke="black" points="0,-264.5 135,-264.5 "/>
<text text-anchor="middle" x="67.5" y="-252.5" font-family="Helvetica,sans-Serif" font-size="10.00"> </text>
<polyline fill="none" stroke="black" points="0,-245.5 135,-245.5 "/>
<text text-anchor="start" x="8" y="-233.5" font-family="Helvetica,sans-Serif" font-size="10.00">+ operator|()</text>
<text text-anchor="start" x="8" y="-222.5" font-family="Helvetica,sans-Serif" font-size="10.00">+ operator+()</text>
</a>
</g>
</g>
<!-- Node2&#45;&gt;Node1 -->
<g id="edge1" class="edge">
<title>Node2&#45;&gt;Node1</title>
<path fill="none" stroke="midnightblue" d="M113.44,-207.82C127.59,-191.9 143.48,-174.02 158.82,-156.77"/>
<polygon fill="none" stroke="midnightblue" points="110.67,-205.67 106.64,-215.47 115.9,-210.32 110.67,-205.67"/>
</g>
<!-- Node3 -->
<g id="node3" class="node">
<title>Node3</title>
<g id="a_node3"><a xlink:href="class_catch_1_1clara_1_1detail_1_1_parser_base.html" target="_top" xlink:title=" ">
<polygon fill="white" stroke="black" points="13.5,-343.5 13.5,-455.5 121.5,-455.5 121.5,-343.5 13.5,-343.5"/>
<text text-anchor="start" x="21.5" y="-443.5" font-family="Helvetica,sans-Serif" font-size="10.00">Catch::clara::detail</text>
<text text-anchor="middle" x="67.5" y="-432.5" font-family="Helvetica,sans-Serif" font-size="10.00">::ParserBase</text>
<polyline fill="none" stroke="black" points="13.5,-425.5 121.5,-425.5 "/>
<text text-anchor="middle" x="67.5" y="-413.5" font-family="Helvetica,sans-Serif" font-size="10.00"> </text>
<polyline fill="none" stroke="black" points="13.5,-406.5 121.5,-406.5 "/>
<text text-anchor="start" x="21.5" y="-394.5" font-family="Helvetica,sans-Serif" font-size="10.00">+ ~ParserBase()</text>
<text text-anchor="start" x="21.5" y="-383.5" font-family="Helvetica,sans-Serif" font-size="10.00">+ validate()</text>
<text text-anchor="start" x="21.5" y="-372.5" font-family="Helvetica,sans-Serif" font-size="10.00">+ parse()</text>
<text text-anchor="start" x="21.5" y="-361.5" font-family="Helvetica,sans-Serif" font-size="10.00">+ cardinality()</text>
<text text-anchor="start" x="21.5" y="-350.5" font-family="Helvetica,sans-Serif" font-size="10.00">+ parse()</text>
</a>
</g>
</g>
<!-- Node3&#45;&gt;Node2 -->
<g id="edge2" class="edge">
<title>Node3&#45;&gt;Node2</title>
<path fill="none" stroke="midnightblue" d="M67.5,-333.13C67.5,-323.83 67.5,-314.44 67.5,-305.67"/>
<polygon fill="none" stroke="midnightblue" points="64,-333.17 67.5,-343.17 71,-333.17 64,-333.17"/>
</g>
<!-- Node4 -->
<g id="node4" class="node">
<title>Node4</title>
<g id="a_node4"><a xlink:title=" ">
<polygon fill="white" stroke="#bfbfbf" points="153.5,-232 153.5,-289 197.5,-289 197.5,-232 153.5,-232"/>
<text text-anchor="middle" x="175.5" y="-277" font-family="Helvetica,sans-Serif" font-size="10.00">string</text>
<polyline fill="none" stroke="#bfbfbf" points="153.5,-270 197.5,-270 "/>
<text text-anchor="middle" x="175.5" y="-258" font-family="Helvetica,sans-Serif" font-size="10.00"> </text>
<polyline fill="none" stroke="#bfbfbf" points="153.5,-251 197.5,-251 "/>
<text text-anchor="middle" x="175.5" y="-239" font-family="Helvetica,sans-Serif" font-size="10.00"> </text>
</a>
</g>
</g>
<!-- Node4&#45;&gt;Node1 -->
<g id="edge3" class="edge">
<title>Node4&#45;&gt;Node1</title>
<path fill="none" stroke="#404040" d="M172.54,-231.67C171.58,-214.98 171.76,-193.47 176.5,-175 177.09,-172.71 177.74,-170.42 178.45,-168.13"/>
<polygon fill="none" stroke="#404040" points="178.48,-168.03 176.68,-161.05 182.44,-156.7 184.24,-163.68 178.48,-168.03"/>
<text text-anchor="middle" x="217" y="-189" font-family="Helvetica,sans-Serif" font-size="10.00"> #m_description</text>
<text text-anchor="middle" x="217" y="-178" font-family="Helvetica,sans-Serif" font-size="10.00">#m_hint</text>
</g>
<!-- Node5 -->
<g id="node5" class="node">
<title>Node5</title>
<g id="a_node5"><a xlink:title=" ">
<polygon fill="white" stroke="#bfbfbf" points="244,-232 244,-289 315,-289 315,-232 244,-232"/>
<text text-anchor="middle" x="279.5" y="-277" font-family="Helvetica,sans-Serif" font-size="10.00">Optionality</text>
<polyline fill="none" stroke="#bfbfbf" points="244,-270 315,-270 "/>
<text text-anchor="middle" x="279.5" y="-258" font-family="Helvetica,sans-Serif" font-size="10.00"> </text>
<polyline fill="none" stroke="#bfbfbf" points="244,-251 315,-251 "/>
<text text-anchor="middle" x="279.5" y="-239" font-family="Helvetica,sans-Serif" font-size="10.00"> </text>
</a>
</g>
</g>
<!-- Node5&#45;&gt;Node1 -->
<g id="edge4" class="edge">
<title>Node5&#45;&gt;Node1</title>
<path fill="none" stroke="#404040" d="M272.61,-231.62C268.44,-215.11 262.9,-193.8 257.5,-175 256.85,-172.74 256.19,-170.46 255.52,-168.16"/>
<polygon fill="none" stroke="#404040" points="255.48,-168.04 249.94,-163.43 252.06,-156.54 257.61,-161.15 255.48,-168.04"/>
<text text-anchor="middle" x="302" y="-183.5" font-family="Helvetica,sans-Serif" font-size="10.00"> #m_optionality</text>
</g>
<!-- Node6 -->
<g id="node6" class="node">
<title>Node6</title>
<g id="a_node6"><a xlink:title=" ">
<polygon fill="white" stroke="#bfbfbf" points="333,-226.5 333,-294.5 472,-294.5 472,-226.5 333,-226.5"/>
<text text-anchor="start" x="341" y="-282.5" font-family="Helvetica,sans-Serif" font-size="10.00">shared_ptr&lt; Catch::</text>
<text text-anchor="middle" x="402.5" y="-271.5" font-family="Helvetica,sans-Serif" font-size="10.00">clara::detail::BoundRef &gt;</text>
<polyline fill="none" stroke="#bfbfbf" points="333,-264.5 472,-264.5 "/>
<text text-anchor="middle" x="402.5" y="-252.5" font-family="Helvetica,sans-Serif" font-size="10.00"> </text>
<polyline fill="none" stroke="#bfbfbf" points="333,-245.5 472,-245.5 "/>
<text text-anchor="middle" x="402.5" y="-233.5" font-family="Helvetica,sans-Serif" font-size="10.00"> </text>
</a>
</g>
</g>
<!-- Node6&#45;&gt;Node1 -->
<g id="edge5" class="edge">
<title>Node6&#45;&gt;Node1</title>
<path fill="none" stroke="#404040" d="M383.22,-226.14C373.05,-209.87 359.73,-190.52 345.5,-175 336.41,-165.08 326.25,-155.32 315.82,-146.05"/>
<polygon fill="none" stroke="#404040" points="315.65,-145.91 308.5,-145 306.59,-138.04 313.74,-138.96 315.65,-145.91"/>
<text text-anchor="middle" x="382.5" y="-183.5" font-family="Helvetica,sans-Serif" font-size="10.00"> #m_ref</text>
</g>
</g>
</svg>
