<?xml version="1.0" encoding="UTF-8" standalone="no"?>
<!DOCTYPE svg PUBLIC "-//W3C//DTD SVG 1.1//EN"
 "http://www.w3.org/Graphics/SVG/1.1/DTD/svg11.dtd">
<!-- Generated by graphviz version 2.43.0 (0)
 -->
<!-- Title: BindDef::eval Pages: 1 -->
<svg width="232pt" height="66pt"
 viewBox="0.00 0.00 232.00 66.00" xmlns="http://www.w3.org/2000/svg" xmlns:xlink="http://www.w3.org/1999/xlink">
<g id="graph0" class="graph" transform="scale(1 1) rotate(0) translate(4 62)">
<title>BindDef::eval</title>
<polygon fill="white" stroke="transparent" points="-4,4 -4,-62 228,-62 228,4 -4,4"/>
<!-- Node1 -->
<g id="node1" class="node">
<title>Node1</title>
<g id="a_node1"><a xlink:title="Evaluation of Binding stores te value of the binding in current scope and return the evaluated value.">
<polygon fill="#bfbfbf" stroke="black" points="0,-19.5 0,-38.5 82,-38.5 82,-19.5 0,-19.5"/>
<text text-anchor="middle" x="41" y="-26.5" font-family="Helvetica,sans-Serif" font-size="10.00">BindDef::eval</text>
</a>
</g>
</g>
<!-- Node2 -->
<g id="node2" class="node">
<title>Node2</title>
<g id="a_node2"><a xlink:href="class_i_statment.html#a025b03bf014221e27a23db0f0356120e" target="_top" xlink:title="Function uesed to evaluate statment in the scope.">
<polygon fill="white" stroke="black" points="125,-38.5 125,-57.5 217,-57.5 217,-38.5 125,-38.5"/>
<text text-anchor="middle" x="171" y="-45.5" font-family="Helvetica,sans-Serif" font-size="10.00">IStatment::eval</text>
</a>
</g>
</g>
<!-- Node1&#45;&gt;Node2 -->
<g id="edge1" class="edge">
<title>Node1&#45;&gt;Node2</title>
<path fill="none" stroke="midnightblue" d="M82.15,-34.96C92.48,-36.49 103.77,-38.17 114.72,-39.79"/>
<polygon fill="midnightblue" stroke="midnightblue" points="114.24,-43.26 124.64,-41.27 115.26,-36.34 114.24,-43.26"/>
</g>
<!-- Node3 -->
<g id="node3" class="node">
<title>Node3</title>
<g id="a_node3"><a xlink:href="class_env.html#ae215959a3872c8b6816222bb1634b31e" target="_top" xlink:title="Store variable name with coresponding value.">
<polygon fill="white" stroke="black" points="118,-0.5 118,-19.5 224,-19.5 224,-0.5 118,-0.5"/>
<text text-anchor="middle" x="171" y="-7.5" font-family="Helvetica,sans-Serif" font-size="10.00">Env::store_binding</text>
</a>
</g>
</g>
<!-- Node1&#45;&gt;Node3 -->
<g id="edge2" class="edge">
<title>Node1&#45;&gt;Node3</title>
<path fill="none" stroke="midnightblue" d="M82.15,-23.04C90.26,-21.84 98.98,-20.54 107.65,-19.26"/>
<polygon fill="midnightblue" stroke="midnightblue" points="108.39,-22.68 117.77,-17.75 107.37,-15.76 108.39,-22.68"/>
</g>
</g>
</svg>
