<?xml version="1.0" encoding="UTF-8" standalone="no"?>
<!DOCTYPE svg PUBLIC "-//W3C//DTD SVG 1.1//EN"
 "http://www.w3.org/Graphics/SVG/1.1/DTD/svg11.dtd">
<!-- Generated by graphviz version 2.43.0 (0)
 -->
<!-- Title: Catch::clara::detail::Arg Pages: 1 -->
<!--zoomable 592 -->
<svg id="main" version="1.1" xmlns="http://www.w3.org/2000/svg" xmlns:xlink="http://www.w3.org/1999/xlink" xml:space="preserve" onload="init(evt)">
<style type="text/css"><![CDATA[
.edge:hover path { stroke: red; }
.edge:hover polygon { stroke: red; fill: red; }
]]></style>
<script type="text/javascript"><![CDATA[
var edges = document.getElementsByTagName('g');
if (edges && edges.length) {
  for (var i=0;i<edges.length;i++) {
    if (edges[i].id.substr(0,4)=='edge') {
      edges[i].setAttribute('class','edge');
    }
  }
}
]]></script>
        <defs>
                <circle id="rim" cx="0" cy="0" r="7"/>
                <circle id="rim2" cx="0" cy="0" r="3.5"/>
                <g id="zoomPlus">
                        <use xlink:href="#rim" fill="#404040">
                                <set attributeName="fill" to="#808080" begin="zoomplus.mouseover" end="zoomplus.mouseout"/>
                        </use>
                        <path d="M-4,0h8M0,-4v8" fill="none" stroke="white" stroke-width="1.5" pointer-events="none"/>
                </g>
                <g id="zoomMin">
                        <use xlink:href="#rim" fill="#404040">
                                <set attributeName="fill" to="#808080" begin="zoomminus.mouseover" end="zoomminus.mouseout"/>
                        </use>
                        <path d="M-4,0h8" fill="none" stroke="white" stroke-width="1.5" pointer-events="none"/>
                </g>
                <g id="dirArrow">
                        <path fill="none" stroke="white" stroke-width="1.5" d="M0,-3.0v7 M-2.5,-0.5L0,-3.0L2.5,-0.5"/>
                </g>
               <g id="resetDef">
                       <use xlink:href="#rim2" fill="#404040">
                               <set attributeName="fill" to="#808080" begin="reset.mouseover" end="reset.mouseout"/>
                       </use>
               </g>
        </defs>

<script type="text/javascript">
var viewWidth = 480;
var viewHeight = 592;
var sectionId = 'dynsection-1';
</script>
<script xlink:href="svgpan.js"/>
<svg id="graph" class="graph">
<g id="viewport">
<title>Catch::clara::detail::Arg</title>
<polygon fill="white" stroke="transparent" points="-4,4 -4,-588 476,-588 476,4 -4,4"/>
<!-- Node1 -->
<g id="node1" class="node">
<title>Node1</title>
<g id="a_node1"><a xlink:title=" ">
<polygon fill="#bfbfbf" stroke="black" points="162,-0.5 162,-90.5 293,-90.5 293,-0.5 162,-0.5"/>
<text text-anchor="middle" x="227.5" y="-78.5" font-family="Helvetica,sans-Serif" font-size="10.00">Catch::clara::detail::Arg</text>
<polyline fill="none" stroke="black" points="162,-71.5 293,-71.5 "/>
<text text-anchor="middle" x="227.5" y="-59.5" font-family="Helvetica,sans-Serif" font-size="10.00"> </text>
<polyline fill="none" stroke="black" points="162,-52.5 293,-52.5 "/>
<text text-anchor="start" x="170" y="-40.5" font-family="Helvetica,sans-Serif" font-size="10.00">+ parse()</text>
<text text-anchor="start" x="170" y="-29.5" font-family="Helvetica,sans-Serif" font-size="10.00">+ ParserRefImpl()</text>
<text text-anchor="start" x="170" y="-18.5" font-family="Helvetica,sans-Serif" font-size="10.00">+ ParserRefImpl()</text>
<text text-anchor="start" x="170" y="-7.5" font-family="Helvetica,sans-Serif" font-size="10.00">+ ParserRefImpl()</text>
</a>
</g>
</g>
<!-- Node2 -->
<g id="node2" class="node">
<title>Node2</title>
<g id="a_node2"><a xlink:href="class_catch_1_1clara_1_1detail_1_1_parser_ref_impl.html" target="_top" xlink:title=" ">
<polygon fill="white" stroke="black" points="162.5,-128.5 162.5,-284.5 292.5,-284.5 292.5,-128.5 162.5,-128.5"/>
<text text-anchor="start" x="170.5" y="-272.5" font-family="Helvetica,sans-Serif" font-size="10.00">Catch::clara::detail</text>
<text text-anchor="middle" x="227.5" y="-261.5" font-family="Helvetica,sans-Serif" font-size="10.00">::ParserRefImpl&lt; Arg &gt;</text>
<polyline fill="none" stroke="black" points="162.5,-254.5 292.5,-254.5 "/>
<text text-anchor="middle" x="227.5" y="-242.5" font-family="Helvetica,sans-Serif" font-size="10.00"> </text>
<polyline fill="none" stroke="black" points="162.5,-235.5 292.5,-235.5 "/>
<text text-anchor="start" x="170.5" y="-223.5" font-family="Helvetica,sans-Serif" font-size="10.00">+ ParserRefImpl()</text>
<text text-anchor="start" x="170.5" y="-212.5" font-family="Helvetica,sans-Serif" font-size="10.00">+ ParserRefImpl()</text>
<text text-anchor="start" x="170.5" y="-201.5" font-family="Helvetica,sans-Serif" font-size="10.00">+ operator()()</text>
<text text-anchor="start" x="170.5" y="-190.5" font-family="Helvetica,sans-Serif" font-size="10.00">+ optional()</text>
<text text-anchor="start" x="170.5" y="-179.5" font-family="Helvetica,sans-Serif" font-size="10.00">+ required()</text>
<text text-anchor="start" x="170.5" y="-168.5" font-family="Helvetica,sans-Serif" font-size="10.00">+ isOptional()</text>
<text text-anchor="start" x="170.5" y="-157.5" font-family="Helvetica,sans-Serif" font-size="10.00">+ cardinality()</text>
<text text-anchor="start" x="170.5" y="-146.5" font-family="Helvetica,sans-Serif" font-size="10.00">+ hint()</text>
<text text-anchor="start" x="170.5" y="-135.5" font-family="Helvetica,sans-Serif" font-size="10.00"># ParserRefImpl()</text>
</a>
</g>
</g>
<!-- Node2&#45;&gt;Node1 -->
<g id="edge1" class="edge">
<title>Node2&#45;&gt;Node1</title>
<path fill="none" stroke="midnightblue" d="M227.5,-118.3C227.5,-108.71 227.5,-99.26 227.5,-90.54"/>
<polygon fill="none" stroke="midnightblue" points="224,-118.33 227.5,-128.33 231,-118.33 224,-118.33"/>
</g>
<!-- Node3 -->
<g id="node3" class="node">
<title>Node3</title>
<g id="a_node3"><a xlink:href="class_catch_1_1clara_1_1detail_1_1_composable_parser_impl.html" target="_top" xlink:title=" ">
<polygon fill="white" stroke="black" points="0,-343.5 0,-433.5 135,-433.5 135,-343.5 0,-343.5"/>
<text text-anchor="start" x="8" y="-421.5" font-family="Helvetica,sans-Serif" font-size="10.00">Catch::clara::detail</text>
<text text-anchor="start" x="8" y="-410.5" font-family="Helvetica,sans-Serif" font-size="10.00">::ComposableParserImpl</text>
<text text-anchor="middle" x="67.5" y="-399.5" font-family="Helvetica,sans-Serif" font-size="10.00">&lt; DerivedT &gt;</text>
<polyline fill="none" stroke="black" points="0,-392.5 135,-392.5 "/>
<text text-anchor="middle" x="67.5" y="-380.5" font-family="Helvetica,sans-Serif" font-size="10.00"> </text>
<polyline fill="none" stroke="black" points="0,-373.5 135,-373.5 "/>
<text text-anchor="start" x="8" y="-361.5" font-family="Helvetica,sans-Serif" font-size="10.00">+ operator|()</text>
<text text-anchor="start" x="8" y="-350.5" font-family="Helvetica,sans-Serif" font-size="10.00">+ operator+()</text>
</a>
</g>
</g>
<!-- Node3&#45;&gt;Node2 -->
<g id="edge2" class="edge">
<title>Node3&#45;&gt;Node2</title>
<path fill="none" stroke="midnightblue" d="M113.47,-335.78C128.68,-318.67 145.9,-299.3 162.27,-280.88"/>
<polygon fill="none" stroke="midnightblue" points="110.67,-333.67 106.64,-343.47 115.9,-338.32 110.67,-333.67"/>
</g>
<!-- Node4 -->
<g id="node4" class="node">
<title>Node4</title>
<g id="a_node4"><a xlink:href="class_catch_1_1clara_1_1detail_1_1_parser_base.html" target="_top" xlink:title=" ">
<polygon fill="white" stroke="black" points="13.5,-471.5 13.5,-583.5 121.5,-583.5 121.5,-471.5 13.5,-471.5"/>
<text text-anchor="start" x="21.5" y="-571.5" font-family="Helvetica,sans-Serif" font-size="10.00">Catch::clara::detail</text>
<text text-anchor="middle" x="67.5" y="-560.5" font-family="Helvetica,sans-Serif" font-size="10.00">::ParserBase</text>
<polyline fill="none" stroke="black" points="13.5,-553.5 121.5,-553.5 "/>
<text text-anchor="middle" x="67.5" y="-541.5" font-family="Helvetica,sans-Serif" font-size="10.00"> </text>
<polyline fill="none" stroke="black" points="13.5,-534.5 121.5,-534.5 "/>
<text text-anchor="start" x="21.5" y="-522.5" font-family="Helvetica,sans-Serif" font-size="10.00">+ ~ParserBase()</text>
<text text-anchor="start" x="21.5" y="-511.5" font-family="Helvetica,sans-Serif" font-size="10.00">+ validate()</text>
<text text-anchor="start" x="21.5" y="-500.5" font-family="Helvetica,sans-Serif" font-size="10.00">+ parse()</text>
<text text-anchor="start" x="21.5" y="-489.5" font-family="Helvetica,sans-Serif" font-size="10.00">+ cardinality()</text>
<text text-anchor="start" x="21.5" y="-478.5" font-family="Helvetica,sans-Serif" font-size="10.00">+ parse()</text>
</a>
</g>
</g>
<!-- Node4&#45;&gt;Node3 -->
<g id="edge3" class="edge">
<title>Node4&#45;&gt;Node3</title>
<path fill="none" stroke="midnightblue" d="M67.5,-461.13C67.5,-451.83 67.5,-442.44 67.5,-433.67"/>
<polygon fill="none" stroke="midnightblue" points="64,-461.17 67.5,-471.17 71,-461.17 64,-461.17"/>
</g>
<!-- Node5 -->
<g id="node5" class="node">
<title>Node5</title>
<g id="a_node5"><a xlink:title=" ">
<polygon fill="white" stroke="#bfbfbf" points="153.5,-360 153.5,-417 197.5,-417 197.5,-360 153.5,-360"/>
<text text-anchor="middle" x="175.5" y="-405" font-family="Helvetica,sans-Serif" font-size="10.00">string</text>
<polyline fill="none" stroke="#bfbfbf" points="153.5,-398 197.5,-398 "/>
<text text-anchor="middle" x="175.5" y="-386" font-family="Helvetica,sans-Serif" font-size="10.00"> </text>
<polyline fill="none" stroke="#bfbfbf" points="153.5,-379 197.5,-379 "/>
<text text-anchor="middle" x="175.5" y="-367" font-family="Helvetica,sans-Serif" font-size="10.00"> </text>
</a>
</g>
</g>
<!-- Node5&#45;&gt;Node2 -->
<g id="edge4" class="edge">
<title>Node5&#45;&gt;Node2</title>
<path fill="none" stroke="#404040" d="M172.54,-359.67C171.58,-342.98 171.76,-321.47 176.5,-303 177.09,-300.71 177.74,-298.42 178.45,-296.13"/>
<polygon fill="none" stroke="#404040" points="178.48,-296.03 176.68,-289.05 182.44,-284.7 184.24,-291.68 178.48,-296.03"/>
<text text-anchor="middle" x="217" y="-317" font-family="Helvetica,sans-Serif" font-size="10.00"> #m_description</text>
<text text-anchor="middle" x="217" y="-306" font-family="Helvetica,sans-Serif" font-size="10.00">#m_hint</text>
</g>
<!-- Node6 -->
<g id="node6" class="node">
<title>Node6</title>
<g id="a_node6"><a xlink:title=" ">
<polygon fill="white" stroke="#bfbfbf" points="244,-360 244,-417 315,-417 315,-360 244,-360"/>
<text text-anchor="middle" x="279.5" y="-405" font-family="Helvetica,sans-Serif" font-size="10.00">Optionality</text>
<polyline fill="none" stroke="#bfbfbf" points="244,-398 315,-398 "/>
<text text-anchor="middle" x="279.5" y="-386" font-family="Helvetica,sans-Serif" font-size="10.00"> </text>
<polyline fill="none" stroke="#bfbfbf" points="244,-379 315,-379 "/>
<text text-anchor="middle" x="279.5" y="-367" font-family="Helvetica,sans-Serif" font-size="10.00"> </text>
</a>
</g>
</g>
<!-- Node6&#45;&gt;Node2 -->
<g id="edge5" class="edge">
<title>Node6&#45;&gt;Node2</title>
<path fill="none" stroke="#404040" d="M272.61,-359.62C268.44,-343.11 262.9,-321.8 257.5,-303 256.85,-300.74 256.19,-298.46 255.52,-296.16"/>
<polygon fill="none" stroke="#404040" points="255.48,-296.04 249.94,-291.43 252.06,-284.54 257.61,-289.15 255.48,-296.04"/>
<text text-anchor="middle" x="302" y="-311.5" font-family="Helvetica,sans-Serif" font-size="10.00"> #m_optionality</text>
</g>
<!-- Node7 -->
<g id="node7" class="node">
<title>Node7</title>
<g id="a_node7"><a xlink:title=" ">
<polygon fill="white" stroke="#bfbfbf" points="333,-354.5 333,-422.5 472,-422.5 472,-354.5 333,-354.5"/>
<text text-anchor="start" x="341" y="-410.5" font-family="Helvetica,sans-Serif" font-size="10.00">shared_ptr&lt; Catch::</text>
<text text-anchor="middle" x="402.5" y="-399.5" font-family="Helvetica,sans-Serif" font-size="10.00">clara::detail::BoundRef &gt;</text>
<polyline fill="none" stroke="#bfbfbf" points="333,-392.5 472,-392.5 "/>
<text text-anchor="middle" x="402.5" y="-380.5" font-family="Helvetica,sans-Serif" font-size="10.00"> </text>
<polyline fill="none" stroke="#bfbfbf" points="333,-373.5 472,-373.5 "/>
<text text-anchor="middle" x="402.5" y="-361.5" font-family="Helvetica,sans-Serif" font-size="10.00"> </text>
</a>
</g>
</g>
<!-- Node7&#45;&gt;Node2 -->
<g id="edge6" class="edge">
<title>Node7&#45;&gt;Node2</title>
<path fill="none" stroke="#404040" d="M383.22,-354.14C373.05,-337.87 359.73,-318.52 345.5,-303 332.45,-288.76 317.2,-274.85 302.08,-262.24"/>
<polygon fill="none" stroke="#404040" points="301.99,-262.17 294.81,-261.46 292.7,-254.57 299.88,-255.27 301.99,-262.17"/>
<text text-anchor="middle" x="382.5" y="-311.5" font-family="Helvetica,sans-Serif" font-size="10.00"> #m_ref</text>
</g>
</g>
</svg>
        <g id="navigator" transform="translate(0 0)" fill="#404254">
                <rect fill="#f2f5e9" fill-opacity="0.5" stroke="#606060" stroke-width=".5" x="0" y="0" width="60" height="60"/>
                <use id="zoomplus" xlink:href="#zoomPlus" x="17" y="9" onmousedown="handleZoom(evt,'in')"/>
                <use id="zoomminus" xlink:href="#zoomMin" x="42" y="9" onmousedown="handleZoom(evt,'out')"/>
                <use id="reset" xlink:href="#resetDef" x="30" y="36" onmousedown="handleReset()"/>
                <g id="arrowUp" xlink:href="#dirArrow" transform="translate(30 24)" onmousedown="handlePan(0,-1)">
                  <use xlink:href="#rim" fill="#404040">
                        <set attributeName="fill" to="#808080" begin="arrowUp.mouseover" end="arrowUp.mouseout"/>
                  </use>
                  <path fill="none" stroke="white" stroke-width="1.5" d="M0,-3.0v7 M-2.5,-0.5L0,-3.0L2.5,-0.5"/>
                </g>
                <g id="arrowRight" xlink:href="#dirArrow" transform="rotate(90) translate(36 -43)" onmousedown="handlePan(1,0)">
                  <use xlink:href="#rim" fill="#404040">
                        <set attributeName="fill" to="#808080" begin="arrowRight.mouseover" end="arrowRight.mouseout"/>
                  </use>
                  <path fill="none" stroke="white" stroke-width="1.5" d="M0,-3.0v7 M-2.5,-0.5L0,-3.0L2.5,-0.5"/>
                </g>
                <g id="arrowDown" xlink:href="#dirArrow" transform="rotate(180) translate(-30 -48)" onmousedown="handlePan(0,1)">
                  <use xlink:href="#rim" fill="#404040">
                        <set attributeName="fill" to="#808080" begin="arrowDown.mouseover" end="arrowDown.mouseout"/>
                  </use>
                  <path fill="none" stroke="white" stroke-width="1.5" d="M0,-3.0v7 M-2.5,-0.5L0,-3.0L2.5,-0.5"/>
                </g>
                <g id="arrowLeft" xlink:href="#dirArrow" transform="rotate(270) translate(-36 17)" onmousedown="handlePan(-1,0)">
                  <use xlink:href="#rim" fill="#404040">
                        <set attributeName="fill" to="#808080" begin="arrowLeft.mouseover" end="arrowLeft.mouseout"/>
                  </use>
                  <path fill="none" stroke="white" stroke-width="1.5" d="M0,-3.0v7 M-2.5,-0.5L0,-3.0L2.5,-0.5"/>
                </g>
        </g>
        <svg viewBox="0 0 15 15" width="100%" height="30px" preserveAspectRatio="xMaxYMin meet">
         <g id="arrow_out" transform="scale(0.3 0.3)">
          <a xlink:href="class_catch_1_1clara_1_1detail_1_1_arg__coll__graph_org.svg" target="_base">
           <rect id="button" ry="5" rx="5" y="6" x="6" height="38" width="38"
                fill="#f2f5e9" fill-opacity="0.5" stroke="#606060" stroke-width="1.0"/>
           <path id="arrow"
             d="M 11.500037,31.436501 C 11.940474,20.09759 22.043105,11.32322 32.158766,21.979434 L 37.068811,17.246167 C 37.068811,17.246167 37.088388,32 37.088388,32 L 22.160133,31.978069 C 22.160133,31.978069 26.997745,27.140456 26.997745,27.140456 C 18.528582,18.264221 13.291696,25.230495 11.500037,31.436501 z"
             style="fill:#404040;"/>
          </a>
         </g>
        </svg>
</svg>
