<?xml version="1.0" encoding="UTF-8" standalone="no"?>
<!DOCTYPE svg PUBLIC "-//W3C//DTD SVG 1.1//EN"
 "http://www.w3.org/Graphics/SVG/1.1/DTD/svg11.dtd">
<!-- Generated by graphviz version 2.43.0 (0)
 -->
<!-- Title: Catch::clara::detail::ResultValueBase&lt; T &gt; Pages: 1 -->
<svg width="141pt" height="270pt"
 viewBox="0.00 0.00 141.00 270.00" xmlns="http://www.w3.org/2000/svg" xmlns:xlink="http://www.w3.org/1999/xlink">
<g id="graph0" class="graph" transform="scale(1 1) rotate(0) translate(4 266)">
<title>Catch::clara::detail::ResultValueBase&lt; T &gt;</title>
<polygon fill="white" stroke="transparent" points="-4,4 -4,-266 137,-266 137,4 -4,4"/>
<!-- Node1 -->
<g id="node1" class="node">
<title>Node1</title>
<g id="a_node1"><a xlink:title=" ">
<polygon fill="#bfbfbf" stroke="black" points="0,-0.5 0,-134.5 133,-134.5 133,-0.5 0,-0.5"/>
<text text-anchor="start" x="8" y="-122.5" font-family="Helvetica,sans-Serif" font-size="10.00">Catch::clara::detail</text>
<text text-anchor="middle" x="66.5" y="-111.5" font-family="Helvetica,sans-Serif" font-size="10.00">::ResultValueBase&lt; T &gt;</text>
<polyline fill="none" stroke="black" points="0,-104.5 133,-104.5 "/>
<text text-anchor="start" x="8" y="-92.5" font-family="Helvetica,sans-Serif" font-size="10.00">+ m_value</text>
<text text-anchor="start" x="8" y="-81.5" font-family="Helvetica,sans-Serif" font-size="10.00"># @1</text>
<polyline fill="none" stroke="black" points="0,-74.5 133,-74.5 "/>
<text text-anchor="start" x="8" y="-62.5" font-family="Helvetica,sans-Serif" font-size="10.00">+ value()</text>
<text text-anchor="start" x="8" y="-51.5" font-family="Helvetica,sans-Serif" font-size="10.00"># ResultValueBase()</text>
<text text-anchor="start" x="8" y="-40.5" font-family="Helvetica,sans-Serif" font-size="10.00"># ResultValueBase()</text>
<text text-anchor="start" x="8" y="-29.5" font-family="Helvetica,sans-Serif" font-size="10.00"># ResultValueBase()</text>
<text text-anchor="start" x="8" y="-18.5" font-family="Helvetica,sans-Serif" font-size="10.00"># operator=()</text>
<text text-anchor="start" x="8" y="-7.5" font-family="Helvetica,sans-Serif" font-size="10.00"># ~ResultValueBase()</text>
</a>
</g>
</g>
<!-- Node2 -->
<g id="node2" class="node">
<title>Node2</title>
<g id="a_node2"><a xlink:href="class_catch_1_1clara_1_1detail_1_1_result_base.html" target="_top" xlink:title=" ">
<polygon fill="white" stroke="black" points="12.5,-171.5 12.5,-261.5 120.5,-261.5 120.5,-171.5 12.5,-171.5"/>
<text text-anchor="start" x="20.5" y="-249.5" font-family="Helvetica,sans-Serif" font-size="10.00">Catch::clara::detail</text>
<text text-anchor="middle" x="66.5" y="-238.5" font-family="Helvetica,sans-Serif" font-size="10.00">::ResultBase</text>
<polyline fill="none" stroke="black" points="12.5,-231.5 120.5,-231.5 "/>
<text text-anchor="start" x="20.5" y="-219.5" font-family="Helvetica,sans-Serif" font-size="10.00"># m_type</text>
<polyline fill="none" stroke="black" points="12.5,-212.5 120.5,-212.5 "/>
<text text-anchor="start" x="20.5" y="-200.5" font-family="Helvetica,sans-Serif" font-size="10.00"># ResultBase()</text>
<text text-anchor="start" x="20.5" y="-189.5" font-family="Helvetica,sans-Serif" font-size="10.00"># ~ResultBase()</text>
<text text-anchor="start" x="20.5" y="-178.5" font-family="Helvetica,sans-Serif" font-size="10.00"># enforceOk()</text>
</a>
</g>
</g>
<!-- Node2&#45;&gt;Node1 -->
<g id="edge1" class="edge">
<title>Node2&#45;&gt;Node1</title>
<path fill="none" stroke="midnightblue" d="M66.5,-161.37C66.5,-152.66 66.5,-143.55 66.5,-134.59"/>
<polygon fill="none" stroke="midnightblue" points="63,-161.4 66.5,-171.4 70,-161.4 63,-161.4"/>
</g>
</g>
</svg>
