<?xml version="1.0" encoding="UTF-8" standalone="no"?>
<!DOCTYPE svg PUBLIC "-//W3C//DTD SVG 1.1//EN"
 "http://www.w3.org/Graphics/SVG/1.1/DTD/svg11.dtd">
<!-- Generated by graphviz version 2.43.0 (0)
 -->
<!-- Title: Catch::clara::detail::Opt Pages: 1 -->
<svg width="480pt" height="679pt"
 viewBox="0.00 0.00 480.00 679.00" xmlns="http://www.w3.org/2000/svg" xmlns:xlink="http://www.w3.org/1999/xlink">
<g id="graph0" class="graph" transform="scale(1 1) rotate(0) translate(4 675)">
<title>Catch::clara::detail::Opt</title>
<polygon fill="white" stroke="transparent" points="-4,4 -4,-675 476,-675 476,4 -4,4"/>
<!-- Node1 -->
<g id="node1" class="node">
<title>Node1</title>
<g id="a_node1"><a xlink:title=" ">
<polygon fill="#bfbfbf" stroke="black" points="233,-0.5 233,-167.5 364,-167.5 364,-0.5 233,-0.5"/>
<text text-anchor="middle" x="298.5" y="-155.5" font-family="Helvetica,sans-Serif" font-size="10.00">Catch::clara::detail::Opt</text>
<polyline fill="none" stroke="black" points="233,-148.5 364,-148.5 "/>
<text text-anchor="middle" x="298.5" y="-136.5" font-family="Helvetica,sans-Serif" font-size="10.00"> </text>
<polyline fill="none" stroke="black" points="233,-129.5 364,-129.5 "/>
<text text-anchor="start" x="241" y="-117.5" font-family="Helvetica,sans-Serif" font-size="10.00">+ Opt()</text>
<text text-anchor="start" x="241" y="-106.5" font-family="Helvetica,sans-Serif" font-size="10.00">+ Opt()</text>
<text text-anchor="start" x="241" y="-95.5" font-family="Helvetica,sans-Serif" font-size="10.00">+ Opt()</text>
<text text-anchor="start" x="241" y="-84.5" font-family="Helvetica,sans-Serif" font-size="10.00">+ Opt()</text>
<text text-anchor="start" x="241" y="-73.5" font-family="Helvetica,sans-Serif" font-size="10.00">+ operator[]()</text>
<text text-anchor="start" x="241" y="-62.5" font-family="Helvetica,sans-Serif" font-size="10.00">+ getHelpColumns()</text>
<text text-anchor="start" x="241" y="-51.5" font-family="Helvetica,sans-Serif" font-size="10.00">+ isMatch()</text>
<text text-anchor="start" x="241" y="-40.5" font-family="Helvetica,sans-Serif" font-size="10.00">+ parse()</text>
<text text-anchor="start" x="241" y="-29.5" font-family="Helvetica,sans-Serif" font-size="10.00">+ validate()</text>
<text text-anchor="start" x="241" y="-18.5" font-family="Helvetica,sans-Serif" font-size="10.00">+ parse()</text>
<text text-anchor="start" x="241" y="-7.5" font-family="Helvetica,sans-Serif" font-size="10.00">+ parse()</text>
</a>
</g>
</g>
<!-- Node2 -->
<g id="node2" class="node">
<title>Node2</title>
<g id="a_node2"><a xlink:href="class_catch_1_1clara_1_1detail_1_1_parser_ref_impl.html" target="_top" xlink:title=" ">
<polygon fill="white" stroke="black" points="162,-215.5 162,-371.5 293,-371.5 293,-215.5 162,-215.5"/>
<text text-anchor="start" x="170" y="-359.5" font-family="Helvetica,sans-Serif" font-size="10.00">Catch::clara::detail</text>
<text text-anchor="middle" x="227.5" y="-348.5" font-family="Helvetica,sans-Serif" font-size="10.00">::ParserRefImpl&lt; Opt &gt;</text>
<polyline fill="none" stroke="black" points="162,-341.5 293,-341.5 "/>
<text text-anchor="middle" x="227.5" y="-329.5" font-family="Helvetica,sans-Serif" font-size="10.00"> </text>
<polyline fill="none" stroke="black" points="162,-322.5 293,-322.5 "/>
<text text-anchor="start" x="170" y="-310.5" font-family="Helvetica,sans-Serif" font-size="10.00">+ ParserRefImpl()</text>
<text text-anchor="start" x="170" y="-299.5" font-family="Helvetica,sans-Serif" font-size="10.00">+ ParserRefImpl()</text>
<text text-anchor="start" x="170" y="-288.5" font-family="Helvetica,sans-Serif" font-size="10.00">+ operator()()</text>
<text text-anchor="start" x="170" y="-277.5" font-family="Helvetica,sans-Serif" font-size="10.00">+ optional()</text>
<text text-anchor="start" x="170" y="-266.5" font-family="Helvetica,sans-Serif" font-size="10.00">+ required()</text>
<text text-anchor="start" x="170" y="-255.5" font-family="Helvetica,sans-Serif" font-size="10.00">+ isOptional()</text>
<text text-anchor="start" x="170" y="-244.5" font-family="Helvetica,sans-Serif" font-size="10.00">+ cardinality()</text>
<text text-anchor="start" x="170" y="-233.5" font-family="Helvetica,sans-Serif" font-size="10.00">+ hint()</text>
<text text-anchor="start" x="170" y="-222.5" font-family="Helvetica,sans-Serif" font-size="10.00"># ParserRefImpl()</text>
</a>
</g>
</g>
<!-- Node2&#45;&gt;Node1 -->
<g id="edge1" class="edge">
<title>Node2&#45;&gt;Node1</title>
<path fill="none" stroke="midnightblue" d="M257.21,-205.66C261.53,-193.04 265.97,-180.08 270.26,-167.55"/>
<polygon fill="none" stroke="midnightblue" points="253.86,-204.64 253.94,-215.23 260.49,-206.91 253.86,-204.64"/>
</g>
<!-- Node3 -->
<g id="node3" class="node">
<title>Node3</title>
<g id="a_node3"><a xlink:href="class_catch_1_1clara_1_1detail_1_1_composable_parser_impl.html" target="_top" xlink:title=" ">
<polygon fill="white" stroke="black" points="0,-430.5 0,-520.5 135,-520.5 135,-430.5 0,-430.5"/>
<text text-anchor="start" x="8" y="-508.5" font-family="Helvetica,sans-Serif" font-size="10.00">Catch::clara::detail</text>
<text text-anchor="start" x="8" y="-497.5" font-family="Helvetica,sans-Serif" font-size="10.00">::ComposableParserImpl</text>
<text text-anchor="middle" x="67.5" y="-486.5" font-family="Helvetica,sans-Serif" font-size="10.00">&lt; DerivedT &gt;</text>
<polyline fill="none" stroke="black" points="0,-479.5 135,-479.5 "/>
<text text-anchor="middle" x="67.5" y="-467.5" font-family="Helvetica,sans-Serif" font-size="10.00"> </text>
<polyline fill="none" stroke="black" points="0,-460.5 135,-460.5 "/>
<text text-anchor="start" x="8" y="-448.5" font-family="Helvetica,sans-Serif" font-size="10.00">+ operator|()</text>
<text text-anchor="start" x="8" y="-437.5" font-family="Helvetica,sans-Serif" font-size="10.00">+ operator+()</text>
</a>
</g>
</g>
<!-- Node3&#45;&gt;Node2 -->
<g id="edge2" class="edge">
<title>Node3&#45;&gt;Node2</title>
<path fill="none" stroke="midnightblue" d="M113.44,-422.82C128.55,-405.81 145.67,-386.56 161.96,-368.24"/>
<polygon fill="none" stroke="midnightblue" points="110.67,-420.67 106.64,-430.47 115.9,-425.32 110.67,-420.67"/>
</g>
<!-- Node4 -->
<g id="node4" class="node">
<title>Node4</title>
<g id="a_node4"><a xlink:href="class_catch_1_1clara_1_1detail_1_1_parser_base.html" target="_top" xlink:title=" ">
<polygon fill="white" stroke="black" points="13.5,-558.5 13.5,-670.5 121.5,-670.5 121.5,-558.5 13.5,-558.5"/>
<text text-anchor="start" x="21.5" y="-658.5" font-family="Helvetica,sans-Serif" font-size="10.00">Catch::clara::detail</text>
<text text-anchor="middle" x="67.5" y="-647.5" font-family="Helvetica,sans-Serif" font-size="10.00">::ParserBase</text>
<polyline fill="none" stroke="black" points="13.5,-640.5 121.5,-640.5 "/>
<text text-anchor="middle" x="67.5" y="-628.5" font-family="Helvetica,sans-Serif" font-size="10.00"> </text>
<polyline fill="none" stroke="black" points="13.5,-621.5 121.5,-621.5 "/>
<text text-anchor="start" x="21.5" y="-609.5" font-family="Helvetica,sans-Serif" font-size="10.00">+ ~ParserBase()</text>
<text text-anchor="start" x="21.5" y="-598.5" font-family="Helvetica,sans-Serif" font-size="10.00">+ validate()</text>
<text text-anchor="start" x="21.5" y="-587.5" font-family="Helvetica,sans-Serif" font-size="10.00">+ parse()</text>
<text text-anchor="start" x="21.5" y="-576.5" font-family="Helvetica,sans-Serif" font-size="10.00">+ cardinality()</text>
<text text-anchor="start" x="21.5" y="-565.5" font-family="Helvetica,sans-Serif" font-size="10.00">+ parse()</text>
</a>
</g>
</g>
<!-- Node4&#45;&gt;Node3 -->
<g id="edge3" class="edge">
<title>Node4&#45;&gt;Node3</title>
<path fill="none" stroke="midnightblue" d="M67.5,-548.13C67.5,-538.83 67.5,-529.44 67.5,-520.67"/>
<polygon fill="none" stroke="midnightblue" points="64,-548.17 67.5,-558.17 71,-548.17 64,-548.17"/>
</g>
<!-- Node5 -->
<g id="node5" class="node">
<title>Node5</title>
<g id="a_node5"><a xlink:title=" ">
<polygon fill="white" stroke="#bfbfbf" points="153.5,-447 153.5,-504 197.5,-504 197.5,-447 153.5,-447"/>
<text text-anchor="middle" x="175.5" y="-492" font-family="Helvetica,sans-Serif" font-size="10.00">string</text>
<polyline fill="none" stroke="#bfbfbf" points="153.5,-485 197.5,-485 "/>
<text text-anchor="middle" x="175.5" y="-473" font-family="Helvetica,sans-Serif" font-size="10.00"> </text>
<polyline fill="none" stroke="#bfbfbf" points="153.5,-466 197.5,-466 "/>
<text text-anchor="middle" x="175.5" y="-454" font-family="Helvetica,sans-Serif" font-size="10.00"> </text>
</a>
</g>
</g>
<!-- Node5&#45;&gt;Node2 -->
<g id="edge4" class="edge">
<title>Node5&#45;&gt;Node2</title>
<path fill="none" stroke="#404040" d="M172.54,-446.67C171.58,-429.98 171.76,-408.47 176.5,-390 177.09,-387.71 177.74,-385.42 178.45,-383.13"/>
<polygon fill="none" stroke="#404040" points="178.48,-383.03 176.68,-376.05 182.44,-371.7 184.24,-378.68 178.48,-383.03"/>
<text text-anchor="middle" x="217" y="-404" font-family="Helvetica,sans-Serif" font-size="10.00"> #m_description</text>
<text text-anchor="middle" x="217" y="-393" font-family="Helvetica,sans-Serif" font-size="10.00">#m_hint</text>
</g>
<!-- Node6 -->
<g id="node6" class="node">
<title>Node6</title>
<g id="a_node6"><a xlink:title=" ">
<polygon fill="white" stroke="#bfbfbf" points="244,-447 244,-504 315,-504 315,-447 244,-447"/>
<text text-anchor="middle" x="279.5" y="-492" font-family="Helvetica,sans-Serif" font-size="10.00">Optionality</text>
<polyline fill="none" stroke="#bfbfbf" points="244,-485 315,-485 "/>
<text text-anchor="middle" x="279.5" y="-473" font-family="Helvetica,sans-Serif" font-size="10.00"> </text>
<polyline fill="none" stroke="#bfbfbf" points="244,-466 315,-466 "/>
<text text-anchor="middle" x="279.5" y="-454" font-family="Helvetica,sans-Serif" font-size="10.00"> </text>
</a>
</g>
</g>
<!-- Node6&#45;&gt;Node2 -->
<g id="edge5" class="edge">
<title>Node6&#45;&gt;Node2</title>
<path fill="none" stroke="#404040" d="M272.61,-446.62C268.44,-430.11 262.9,-408.8 257.5,-390 256.85,-387.74 256.19,-385.46 255.52,-383.16"/>
<polygon fill="none" stroke="#404040" points="255.48,-383.04 249.94,-378.43 252.06,-371.54 257.61,-376.15 255.48,-383.04"/>
<text text-anchor="middle" x="303" y="-398.5" font-family="Helvetica,sans-Serif" font-size="10.00"> #m_optionality</text>
</g>
<!-- Node7 -->
<g id="node7" class="node">
<title>Node7</title>
<g id="a_node7"><a xlink:title=" ">
<polygon fill="white" stroke="#bfbfbf" points="333,-441.5 333,-509.5 472,-509.5 472,-441.5 333,-441.5"/>
<text text-anchor="start" x="341" y="-497.5" font-family="Helvetica,sans-Serif" font-size="10.00">shared_ptr&lt; Catch::</text>
<text text-anchor="middle" x="402.5" y="-486.5" font-family="Helvetica,sans-Serif" font-size="10.00">clara::detail::BoundRef &gt;</text>
<polyline fill="none" stroke="#bfbfbf" points="333,-479.5 472,-479.5 "/>
<text text-anchor="middle" x="402.5" y="-467.5" font-family="Helvetica,sans-Serif" font-size="10.00"> </text>
<polyline fill="none" stroke="#bfbfbf" points="333,-460.5 472,-460.5 "/>
<text text-anchor="middle" x="402.5" y="-448.5" font-family="Helvetica,sans-Serif" font-size="10.00"> </text>
</a>
</g>
</g>
<!-- Node7&#45;&gt;Node2 -->
<g id="edge6" class="edge">
<title>Node7&#45;&gt;Node2</title>
<path fill="none" stroke="#404040" d="M386.69,-441.26C377.1,-424.03 363.43,-403.77 346.5,-390 332.21,-378.37 322.5,-382.29 303.66,-372.39"/>
<polygon fill="none" stroke="#404040" points="303.5,-372.29 296.3,-372.58 293.26,-366.04 300.47,-365.75 303.5,-372.29"/>
<text text-anchor="middle" x="386.5" y="-398.5" font-family="Helvetica,sans-Serif" font-size="10.00"> #m_ref</text>
</g>
<!-- Node8 -->
<g id="node8" class="node">
<title>Node8</title>
<g id="a_node8"><a xlink:title=" ">
<polygon fill="white" stroke="#bfbfbf" points="311,-265 311,-322 430,-322 430,-265 311,-265"/>
<text text-anchor="middle" x="370.5" y="-310" font-family="Helvetica,sans-Serif" font-size="10.00">vector&lt; std::string &gt;</text>
<polyline fill="none" stroke="#bfbfbf" points="311,-303 430,-303 "/>
<text text-anchor="middle" x="370.5" y="-291" font-family="Helvetica,sans-Serif" font-size="10.00"> </text>
<polyline fill="none" stroke="#bfbfbf" points="311,-284 430,-284 "/>
<text text-anchor="middle" x="370.5" y="-272" font-family="Helvetica,sans-Serif" font-size="10.00"> </text>
</a>
</g>
</g>
<!-- Node8&#45;&gt;Node1 -->
<g id="edge7" class="edge">
<title>Node8&#45;&gt;Node1</title>
<path fill="none" stroke="#404040" d="M360.94,-264.95C353.27,-242.85 342.04,-210.49 331.21,-179.28"/>
<polygon fill="none" stroke="#404040" points="331.18,-179.19 325.44,-174.83 327.25,-167.85 333,-172.21 331.18,-179.19"/>
<text text-anchor="middle" x="375" y="-189" font-family="Helvetica,sans-Serif" font-size="10.00"> #m_optNames</text>
</g>
</g>
</svg>
