<?xml version="1.0" encoding="UTF-8" standalone="no"?>
<!DOCTYPE svg PUBLIC "-//W3C//DTD SVG 1.1//EN"
 "http://www.w3.org/Graphics/SVG/1.1/DTD/svg11.dtd">
<!-- Generated by graphviz version 2.43.0 (0)
 -->
<!-- Title: Catch::XmlWriter::ScopedElement::writeText Pages: 1 -->
<svg width="299pt" height="88pt"
 viewBox="0.00 0.00 299.00 88.00" xmlns="http://www.w3.org/2000/svg" xmlns:xlink="http://www.w3.org/1999/xlink">
<g id="graph0" class="graph" transform="scale(1 1) rotate(0) translate(4 84)">
<title>Catch::XmlWriter::ScopedElement::writeText</title>
<polygon fill="white" stroke="transparent" points="-4,4 -4,-84 295,-84 295,4 -4,4"/>
<!-- Node1 -->
<g id="node1" class="node">
<title>Node1</title>
<g id="a_node1"><a xlink:title=" ">
<polygon fill="#bfbfbf" stroke="black" points="150,-24.5 150,-54.5 291,-54.5 291,-24.5 150,-24.5"/>
<text text-anchor="start" x="158" y="-42.5" font-family="Helvetica,sans-Serif" font-size="10.00">Catch::XmlWriter::Scoped</text>
<text text-anchor="middle" x="220.5" y="-31.5" font-family="Helvetica,sans-Serif" font-size="10.00">Element::writeText</text>
</a>
</g>
</g>
<!-- Node2 -->
<g id="node2" class="node">
<title>Node2</title>
<g id="a_node2"><a xlink:href="class_catch_1_1_xml_reporter.html#ab641ec7e115cb94efa02f85e9d91de0f" target="_top" xlink:title=" ">
<polygon fill="white" stroke="black" points="1,-49.5 1,-79.5 113,-79.5 113,-49.5 1,-49.5"/>
<text text-anchor="start" x="9" y="-67.5" font-family="Helvetica,sans-Serif" font-size="10.00">Catch::XmlReporter</text>
<text text-anchor="middle" x="57" y="-56.5" font-family="Helvetica,sans-Serif" font-size="10.00">::testCaseEnded</text>
</a>
</g>
</g>
<!-- Node1&#45;&gt;Node2 -->
<g id="edge1" class="edge">
<title>Node1&#45;&gt;Node2</title>
<path fill="none" stroke="midnightblue" d="M139.62,-51.87C130.76,-53.24 121.87,-54.61 113.41,-55.92"/>
<polygon fill="midnightblue" stroke="midnightblue" points="140.26,-55.31 149.6,-50.32 139.19,-48.39 140.26,-55.31"/>
</g>
<!-- Node3 -->
<g id="node3" class="node">
<title>Node3</title>
<g id="a_node3"><a xlink:href="class_catch_1_1_junit_reporter.html#a38e349527bd049bbabd268c6faad1719" target="_top" xlink:title=" ">
<polygon fill="white" stroke="black" points="0,-0.5 0,-30.5 114,-30.5 114,-0.5 0,-0.5"/>
<text text-anchor="start" x="8" y="-18.5" font-family="Helvetica,sans-Serif" font-size="10.00">Catch::JunitReporter</text>
<text text-anchor="middle" x="57" y="-7.5" font-family="Helvetica,sans-Serif" font-size="10.00">::writeSection</text>
</a>
</g>
</g>
<!-- Node1&#45;&gt;Node3 -->
<g id="edge2" class="edge">
<title>Node1&#45;&gt;Node3</title>
<path fill="none" stroke="midnightblue" d="M139.63,-27.63C131.1,-26.36 122.56,-25.09 114.39,-23.88"/>
<polygon fill="midnightblue" stroke="midnightblue" points="139.2,-31.1 149.6,-29.11 140.23,-24.18 139.2,-31.1"/>
</g>
</g>
</svg>
