<?xml version="1.0" encoding="UTF-8" standalone="no"?>
<!DOCTYPE svg PUBLIC "-//W3C//DTD SVG 1.1//EN"
 "http://www.w3.org/Graphics/SVG/1.1/DTD/svg11.dtd">
<!-- Generated by graphviz version 2.43.0 (0)
 -->
<!-- Title: clara::detail::ResultValueBase&lt; void &gt; Pages: 1 -->
<svg width="146pt" height="299pt"
 viewBox="0.00 0.00 146.00 299.00" xmlns="http://www.w3.org/2000/svg" xmlns:xlink="http://www.w3.org/1999/xlink">
<g id="graph0" class="graph" transform="scale(1 1) rotate(0) translate(4 295)">
<title>clara::detail::ResultValueBase&lt; void &gt;</title>
<polygon fill="white" stroke="transparent" points="-4,4 -4,-295 142,-295 142,4 -4,4"/>
<!-- Node1 -->
<g id="node1" class="node">
<title>Node1</title>
<g id="a_node1"><a xlink:title=" ">
<polygon fill="#bfbfbf" stroke="black" points="0,-0.5 0,-68.5 138,-68.5 138,-0.5 0,-0.5"/>
<text text-anchor="start" x="8" y="-56.5" font-family="Helvetica,sans-Serif" font-size="10.00">clara::detail::ResultValue</text>
<text text-anchor="middle" x="69" y="-45.5" font-family="Helvetica,sans-Serif" font-size="10.00">Base&lt; void &gt;</text>
<polyline fill="none" stroke="black" points="0,-38.5 138,-38.5 "/>
<text text-anchor="middle" x="69" y="-26.5" font-family="Helvetica,sans-Serif" font-size="10.00"> </text>
<polyline fill="none" stroke="black" points="0,-19.5 138,-19.5 "/>
<text text-anchor="start" x="8" y="-7.5" font-family="Helvetica,sans-Serif" font-size="10.00"># ResultBase()</text>
</a>
</g>
</g>
<!-- Node2 -->
<g id="node2" class="node">
<title>Node2</title>
<g id="a_node2"><a xlink:href="classclara_1_1detail_1_1_result_base.html" target="_top" xlink:title=" ">
<polygon fill="white" stroke="black" points="1.5,-106.5 1.5,-185.5 136.5,-185.5 136.5,-106.5 1.5,-106.5"/>
<text text-anchor="middle" x="69" y="-173.5" font-family="Helvetica,sans-Serif" font-size="10.00">clara::detail::ResultBase</text>
<polyline fill="none" stroke="black" points="1.5,-166.5 136.5,-166.5 "/>
<text text-anchor="middle" x="69" y="-154.5" font-family="Helvetica,sans-Serif" font-size="10.00"> </text>
<polyline fill="none" stroke="black" points="1.5,-147.5 136.5,-147.5 "/>
<text text-anchor="start" x="9.5" y="-135.5" font-family="Helvetica,sans-Serif" font-size="10.00"># ResultBase()</text>
<text text-anchor="start" x="9.5" y="-124.5" font-family="Helvetica,sans-Serif" font-size="10.00"># ~ResultBase()</text>
<text text-anchor="start" x="9.5" y="-113.5" font-family="Helvetica,sans-Serif" font-size="10.00"># enforceOk()</text>
</a>
</g>
</g>
<!-- Node2&#45;&gt;Node1 -->
<g id="edge1" class="edge">
<title>Node2&#45;&gt;Node1</title>
<path fill="none" stroke="midnightblue" d="M69,-96.38C69,-87.02 69,-77.41 69,-68.67"/>
<polygon fill="none" stroke="midnightblue" points="65.5,-96.39 69,-106.39 72.5,-96.39 65.5,-96.39"/>
</g>
<!-- Node3 -->
<g id="node3" class="node">
<title>Node3</title>
<g id="a_node3"><a xlink:title=" ">
<polygon fill="white" stroke="#bfbfbf" points="49.5,-233.5 49.5,-290.5 88.5,-290.5 88.5,-233.5 49.5,-233.5"/>
<text text-anchor="middle" x="69" y="-278.5" font-family="Helvetica,sans-Serif" font-size="10.00">Type</text>
<polyline fill="none" stroke="#bfbfbf" points="49.5,-271.5 88.5,-271.5 "/>
<text text-anchor="middle" x="69" y="-259.5" font-family="Helvetica,sans-Serif" font-size="10.00"> </text>
<polyline fill="none" stroke="#bfbfbf" points="49.5,-252.5 88.5,-252.5 "/>
<text text-anchor="middle" x="69" y="-240.5" font-family="Helvetica,sans-Serif" font-size="10.00"> </text>
</a>
</g>
</g>
<!-- Node3&#45;&gt;Node2 -->
<g id="edge2" class="edge">
<title>Node3&#45;&gt;Node2</title>
<path fill="none" stroke="#404040" d="M69,-233.4C69,-222.63 69,-209.93 69,-197.62"/>
<polygon fill="none" stroke="#404040" points="69,-197.54 65,-191.54 69,-185.54 73,-191.54 69,-197.54"/>
<text text-anchor="middle" x="93.5" y="-207" font-family="Helvetica,sans-Serif" font-size="10.00"> #m_type</text>
</g>
</g>
</svg>
