<?xml version="1.0" encoding="UTF-8" standalone="no"?>
<!DOCTYPE svg PUBLIC "-//W3C//DTD SVG 1.1//EN"
 "http://www.w3.org/Graphics/SVG/1.1/DTD/svg11.dtd">
<!-- Generated by graphviz version 2.43.0 (0)
 -->
<!-- Title: Conditional::eval Pages: 1 -->
<svg width="400pt" height="104pt"
 viewBox="0.00 0.00 400.00 104.00" xmlns="http://www.w3.org/2000/svg" xmlns:xlink="http://www.w3.org/1999/xlink">
<g id="graph0" class="graph" transform="scale(1 1) rotate(0) translate(4 100)">
<title>Conditional::eval</title>
<polygon fill="white" stroke="transparent" points="-4,4 -4,-100 396,-100 396,4 -4,4"/>
<!-- Node1 -->
<g id="node1" class="node">
<title>Node1</title>
<g id="a_node1"><a xlink:title="Evaluates all the statments in either true or false block depending on evaluation of condition (all i...">
<polygon fill="#bfbfbf" stroke="black" points="0,-57.5 0,-76.5 99,-76.5 99,-57.5 0,-57.5"/>
<text text-anchor="middle" x="49.5" y="-64.5" font-family="Helvetica,sans-Serif" font-size="10.00">Conditional::eval</text>
</a>
</g>
</g>
<!-- Node2 -->
<g id="node2" class="node">
<title>Node2</title>
<g id="a_node2"><a xlink:href="class_i_statment.html#a025b03bf014221e27a23db0f0356120e" target="_top" xlink:title="Function uesed to evaluate statment in the scope.">
<polygon fill="white" stroke="black" points="135,-76.5 135,-95.5 227,-95.5 227,-76.5 135,-76.5"/>
<text text-anchor="middle" x="181" y="-83.5" font-family="Helvetica,sans-Serif" font-size="10.00">IStatment::eval</text>
</a>
</g>
</g>
<!-- Node1&#45;&gt;Node2 -->
<g id="edge1" class="edge">
<title>Node1&#45;&gt;Node2</title>
<path fill="none" stroke="midnightblue" d="M99.09,-74.13C107.55,-75.37 116.4,-76.67 125.02,-77.93"/>
<polygon fill="midnightblue" stroke="midnightblue" points="124.59,-81.41 134.99,-79.4 125.6,-74.48 124.59,-81.41"/>
</g>
<!-- Node3 -->
<g id="node3" class="node">
<title>Node3</title>
<g id="a_node3"><a xlink:href="class_block.html#a6410fa3655af7eb5ee7e1d474745d40f" target="_top" xlink:title="Evaluates all statment in block in current scope.">
<polygon fill="white" stroke="black" points="145.5,-38.5 145.5,-57.5 216.5,-57.5 216.5,-38.5 145.5,-38.5"/>
<text text-anchor="middle" x="181" y="-45.5" font-family="Helvetica,sans-Serif" font-size="10.00">Block::eval</text>
</a>
</g>
</g>
<!-- Node1&#45;&gt;Node3 -->
<g id="edge2" class="edge">
<title>Node1&#45;&gt;Node3</title>
<path fill="none" stroke="midnightblue" d="M99.09,-59.87C110.97,-58.13 123.62,-56.27 135.31,-54.56"/>
<polygon fill="midnightblue" stroke="midnightblue" points="135.9,-58.01 145.29,-53.09 134.88,-51.08 135.9,-58.01"/>
</g>
<!-- Node4 -->
<g id="node4" class="node">
<title>Node4</title>
<g id="a_node4"><a xlink:href="class_env.html#a58005057bcfc4f85383cc5ee5fd1111a" target="_top" xlink:title="Get value coresponding to variable name.">
<polygon fill="white" stroke="black" points="263,-76.5 263,-95.5 392,-95.5 392,-76.5 263,-76.5"/>
<text text-anchor="middle" x="327.5" y="-83.5" font-family="Helvetica,sans-Serif" font-size="10.00">Env::get_binding_value</text>
</a>
</g>
</g>
<!-- Node3&#45;&gt;Node4 -->
<g id="edge3" class="edge">
<title>Node3&#45;&gt;Node4</title>
<path fill="none" stroke="midnightblue" d="M216.61,-57.1C235.7,-62.12 259.65,-68.42 280.31,-73.85"/>
<polygon fill="midnightblue" stroke="midnightblue" points="279.59,-77.28 290.15,-76.44 281.37,-70.51 279.59,-77.28"/>
</g>
<!-- Node5 -->
<g id="node5" class="node">
<title>Node5</title>
<g id="a_node5"><a xlink:href="class_env.html#a15fcb12407211fcd32c5b1030f1fd605" target="_top" xlink:title="Get a mutable reference to variable bindings.">
<polygon fill="white" stroke="black" points="276.5,-38.5 276.5,-57.5 378.5,-57.5 378.5,-38.5 276.5,-38.5"/>
<text text-anchor="middle" x="327.5" y="-45.5" font-family="Helvetica,sans-Serif" font-size="10.00">Env::get_bindings</text>
</a>
</g>
</g>
<!-- Node3&#45;&gt;Node5 -->
<g id="edge4" class="edge">
<title>Node3&#45;&gt;Node5</title>
<path fill="none" stroke="midnightblue" d="M216.61,-48C231.41,-48 249.13,-48 265.97,-48"/>
<polygon fill="midnightblue" stroke="midnightblue" points="266.31,-51.5 276.31,-48 266.31,-44.5 266.31,-51.5"/>
</g>
<!-- Node6 -->
<g id="node6" class="node">
<title>Node6</title>
<g id="a_node6"><a xlink:href="class_env.html#ae215959a3872c8b6816222bb1634b31e" target="_top" xlink:title="Store variable name with coresponding value.">
<polygon fill="white" stroke="black" points="274.5,-0.5 274.5,-19.5 380.5,-19.5 380.5,-0.5 274.5,-0.5"/>
<text text-anchor="middle" x="327.5" y="-7.5" font-family="Helvetica,sans-Serif" font-size="10.00">Env::store_binding</text>
</a>
</g>
</g>
<!-- Node3&#45;&gt;Node6 -->
<g id="edge5" class="edge">
<title>Node3&#45;&gt;Node6</title>
<path fill="none" stroke="midnightblue" d="M216.61,-38.9C235.7,-33.88 259.65,-27.58 280.31,-22.15"/>
<polygon fill="midnightblue" stroke="midnightblue" points="281.37,-25.49 290.15,-19.56 279.59,-18.72 281.37,-25.49"/>
</g>
</g>
</svg>
