<?xml version="1.0" encoding="UTF-8" standalone="no"?>
<!DOCTYPE svg PUBLIC "-//W3C//DTD SVG 1.1//EN"
 "http://www.w3.org/Graphics/SVG/1.1/DTD/svg11.dtd">
<!-- Generated by graphviz version 2.43.0 (0)
 -->
<!-- Title: clara::detail::ParserRefImpl&lt; DerivedT &gt; Pages: 1 -->
<svg width="473pt" height="442pt"
 viewBox="0.00 0.00 472.50 442.00" xmlns="http://www.w3.org/2000/svg" xmlns:xlink="http://www.w3.org/1999/xlink">
<g id="graph0" class="graph" transform="scale(1 1) rotate(0) translate(4 438)">
<title>clara::detail::ParserRefImpl&lt; DerivedT &gt;</title>
<polygon fill="white" stroke="transparent" points="-4,4 -4,-438 468.5,-438 468.5,4 -4,4"/>
<!-- Node1 -->
<g id="node1" class="node">
<title>Node1</title>
<g id="a_node1"><a xlink:title=" ">
<polygon fill="#bfbfbf" stroke="black" points="191,-0.5 191,-156.5 318,-156.5 318,-0.5 191,-0.5"/>
<text text-anchor="start" x="199" y="-144.5" font-family="Helvetica,sans-Serif" font-size="10.00">clara::detail::ParserRef</text>
<text text-anchor="middle" x="254.5" y="-133.5" font-family="Helvetica,sans-Serif" font-size="10.00">Impl&lt; DerivedT &gt;</text>
<polyline fill="none" stroke="black" points="191,-126.5 318,-126.5 "/>
<text text-anchor="middle" x="254.5" y="-114.5" font-family="Helvetica,sans-Serif" font-size="10.00"> </text>
<polyline fill="none" stroke="black" points="191,-107.5 318,-107.5 "/>
<text text-anchor="start" x="199" y="-95.5" font-family="Helvetica,sans-Serif" font-size="10.00">+ ParserRefImpl()</text>
<text text-anchor="start" x="199" y="-84.5" font-family="Helvetica,sans-Serif" font-size="10.00">+ ParserRefImpl()</text>
<text text-anchor="start" x="199" y="-73.5" font-family="Helvetica,sans-Serif" font-size="10.00">+ operator()()</text>
<text text-anchor="start" x="199" y="-62.5" font-family="Helvetica,sans-Serif" font-size="10.00">+ optional()</text>
<text text-anchor="start" x="199" y="-51.5" font-family="Helvetica,sans-Serif" font-size="10.00">+ required()</text>
<text text-anchor="start" x="199" y="-40.5" font-family="Helvetica,sans-Serif" font-size="10.00">+ isOptional()</text>
<text text-anchor="start" x="199" y="-29.5" font-family="Helvetica,sans-Serif" font-size="10.00">+ cardinality()</text>
<text text-anchor="start" x="199" y="-18.5" font-family="Helvetica,sans-Serif" font-size="10.00">+ hint()</text>
<text text-anchor="start" x="199" y="-7.5" font-family="Helvetica,sans-Serif" font-size="10.00"># ParserRefImpl()</text>
</a>
</g>
</g>
<!-- Node2 -->
<g id="node2" class="node">
<title>Node2</title>
<g id="a_node2"><a xlink:href="classclara_1_1detail_1_1_composable_parser_impl.html" target="_top" xlink:title=" ">
<polygon fill="white" stroke="black" points="0,-215.5 0,-294.5 141,-294.5 141,-215.5 0,-215.5"/>
<text text-anchor="start" x="8" y="-282.5" font-family="Helvetica,sans-Serif" font-size="10.00">clara::detail::Composable</text>
<text text-anchor="middle" x="70.5" y="-271.5" font-family="Helvetica,sans-Serif" font-size="10.00">ParserImpl&lt; DerivedT &gt;</text>
<polyline fill="none" stroke="black" points="0,-264.5 141,-264.5 "/>
<text text-anchor="middle" x="70.5" y="-252.5" font-family="Helvetica,sans-Serif" font-size="10.00"> </text>
<polyline fill="none" stroke="black" points="0,-245.5 141,-245.5 "/>
<text text-anchor="start" x="8" y="-233.5" font-family="Helvetica,sans-Serif" font-size="10.00">+ operator|()</text>
<text text-anchor="start" x="8" y="-222.5" font-family="Helvetica,sans-Serif" font-size="10.00">+ operator+()</text>
</a>
</g>
</g>
<!-- Node2&#45;&gt;Node1 -->
<g id="edge1" class="edge">
<title>Node2&#45;&gt;Node1</title>
<path fill="none" stroke="midnightblue" d="M118.62,-208.36C140.63,-187.49 167.01,-162.47 190.65,-140.06"/>
<polygon fill="none" stroke="midnightblue" points="116.18,-205.85 111.34,-215.27 121,-210.93 116.18,-205.85"/>
</g>
<!-- Node3 -->
<g id="node3" class="node">
<title>Node3</title>
<g id="a_node3"><a xlink:href="classclara_1_1detail_1_1_parser_base.html" target="_top" xlink:title=" ">
<polygon fill="white" stroke="black" points="3.5,-332.5 3.5,-433.5 137.5,-433.5 137.5,-332.5 3.5,-332.5"/>
<text text-anchor="middle" x="70.5" y="-421.5" font-family="Helvetica,sans-Serif" font-size="10.00">clara::detail::ParserBase</text>
<polyline fill="none" stroke="black" points="3.5,-414.5 137.5,-414.5 "/>
<text text-anchor="middle" x="70.5" y="-402.5" font-family="Helvetica,sans-Serif" font-size="10.00"> </text>
<polyline fill="none" stroke="black" points="3.5,-395.5 137.5,-395.5 "/>
<text text-anchor="start" x="11.5" y="-383.5" font-family="Helvetica,sans-Serif" font-size="10.00">+ ~ParserBase()</text>
<text text-anchor="start" x="11.5" y="-372.5" font-family="Helvetica,sans-Serif" font-size="10.00">+ validate()</text>
<text text-anchor="start" x="11.5" y="-361.5" font-family="Helvetica,sans-Serif" font-size="10.00">+ parse()</text>
<text text-anchor="start" x="11.5" y="-350.5" font-family="Helvetica,sans-Serif" font-size="10.00">+ cardinality()</text>
<text text-anchor="start" x="11.5" y="-339.5" font-family="Helvetica,sans-Serif" font-size="10.00">+ parse()</text>
</a>
</g>
</g>
<!-- Node3&#45;&gt;Node2 -->
<g id="edge2" class="edge">
<title>Node3&#45;&gt;Node2</title>
<path fill="none" stroke="midnightblue" d="M70.5,-322.11C70.5,-312.74 70.5,-303.28 70.5,-294.56"/>
<polygon fill="none" stroke="midnightblue" points="67,-322.2 70.5,-332.2 74,-322.2 67,-322.2"/>
</g>
<!-- Node4 -->
<g id="node4" class="node">
<title>Node4</title>
<g id="a_node4"><a xlink:title=" ">
<polygon fill="white" stroke="#bfbfbf" points="159.5,-221 159.5,-289 269.5,-289 269.5,-221 159.5,-221"/>
<text text-anchor="start" x="167.5" y="-277" font-family="Helvetica,sans-Serif" font-size="10.00">shared_ptr&lt; clara::</text>
<text text-anchor="middle" x="214.5" y="-266" font-family="Helvetica,sans-Serif" font-size="10.00">detail::BoundRef &gt;</text>
<polyline fill="none" stroke="#bfbfbf" points="159.5,-259 269.5,-259 "/>
<text text-anchor="middle" x="214.5" y="-247" font-family="Helvetica,sans-Serif" font-size="10.00"> </text>
<polyline fill="none" stroke="#bfbfbf" points="159.5,-240 269.5,-240 "/>
<text text-anchor="middle" x="214.5" y="-228" font-family="Helvetica,sans-Serif" font-size="10.00"> </text>
</a>
</g>
</g>
<!-- Node4&#45;&gt;Node1 -->
<g id="edge3" class="edge">
<title>Node4&#45;&gt;Node1</title>
<path fill="none" stroke="#404040" d="M222.12,-220.77C225.56,-205.77 229.8,-187.26 234.07,-168.64"/>
<polygon fill="none" stroke="#404040" points="234.11,-168.44 231.55,-161.7 236.79,-156.74 239.35,-163.49 234.11,-168.44"/>
<text text-anchor="middle" x="251.5" y="-183.5" font-family="Helvetica,sans-Serif" font-size="10.00"> #m_ref</text>
</g>
<!-- Node5 -->
<g id="node5" class="node">
<title>Node5</title>
<g id="a_node5"><a xlink:title=" ">
<polygon fill="white" stroke="#bfbfbf" points="287.5,-226.5 287.5,-283.5 331.5,-283.5 331.5,-226.5 287.5,-226.5"/>
<text text-anchor="middle" x="309.5" y="-271.5" font-family="Helvetica,sans-Serif" font-size="10.00">string</text>
<polyline fill="none" stroke="#bfbfbf" points="287.5,-264.5 331.5,-264.5 "/>
<text text-anchor="middle" x="309.5" y="-252.5" font-family="Helvetica,sans-Serif" font-size="10.00"> </text>
<polyline fill="none" stroke="#bfbfbf" points="287.5,-245.5 331.5,-245.5 "/>
<text text-anchor="middle" x="309.5" y="-233.5" font-family="Helvetica,sans-Serif" font-size="10.00"> </text>
</a>
</g>
</g>
<!-- Node5&#45;&gt;Node1 -->
<g id="edge4" class="edge">
<title>Node5&#45;&gt;Node1</title>
<path fill="none" stroke="#404040" d="M300.79,-226.35C295.78,-210.46 289.17,-189.51 282.53,-168.43"/>
<polygon fill="none" stroke="#404040" points="282.45,-168.19 276.83,-163.67 278.85,-156.74 284.46,-161.26 282.45,-168.19"/>
<text text-anchor="middle" x="330" y="-189" font-family="Helvetica,sans-Serif" font-size="10.00"> #m_description</text>
<text text-anchor="middle" x="330" y="-178" font-family="Helvetica,sans-Serif" font-size="10.00">#m_hint</text>
</g>
<!-- Node6 -->
<g id="node6" class="node">
<title>Node6</title>
<g id="a_node6"><a xlink:title=" ">
<polygon fill="white" stroke="#bfbfbf" points="364,-226.5 364,-283.5 435,-283.5 435,-226.5 364,-226.5"/>
<text text-anchor="middle" x="399.5" y="-271.5" font-family="Helvetica,sans-Serif" font-size="10.00">Optionality</text>
<polyline fill="none" stroke="#bfbfbf" points="364,-264.5 435,-264.5 "/>
<text text-anchor="middle" x="399.5" y="-252.5" font-family="Helvetica,sans-Serif" font-size="10.00"> </text>
<polyline fill="none" stroke="#bfbfbf" points="364,-245.5 435,-245.5 "/>
<text text-anchor="middle" x="399.5" y="-233.5" font-family="Helvetica,sans-Serif" font-size="10.00"> </text>
</a>
</g>
</g>
<!-- Node6&#45;&gt;Node1 -->
<g id="edge5" class="edge">
<title>Node6&#45;&gt;Node1</title>
<path fill="none" stroke="#404040" d="M394.91,-226.25C391.28,-210.23 385.02,-190.29 374.5,-175 362.02,-156.86 345.09,-140.48 327.87,-126.61"/>
<polygon fill="none" stroke="#404040" points="327.78,-126.53 320.59,-126 318.31,-119.16 325.5,-119.69 327.78,-126.53"/>
<text text-anchor="middle" x="425" y="-183.5" font-family="Helvetica,sans-Serif" font-size="10.00"> #m_optionality</text>
</g>
</g>
</svg>
