<?xml version="1.0" encoding="UTF-8" standalone="no"?>
<!DOCTYPE svg PUBLIC "-//W3C//DTD SVG 1.1//EN"
 "http://www.w3.org/Graphics/SVG/1.1/DTD/svg11.dtd">
<!-- Generated by graphviz version 2.43.0 (0)
 -->
<!-- Title: Catch::Generators::RandomIntegerGenerator&lt; Integer &gt; Pages: 1 -->
<svg width="167pt" height="441pt"
 viewBox="0.00 0.00 167.00 441.00" xmlns="http://www.w3.org/2000/svg" xmlns:xlink="http://www.w3.org/1999/xlink">
<g id="graph0" class="graph" transform="scale(1 1) rotate(0) translate(4 437)">
<title>Catch::Generators::RandomIntegerGenerator&lt; Integer &gt;</title>
<polygon fill="white" stroke="transparent" points="-4,4 -4,-437 163,-437 163,4 -4,4"/>
<!-- Node1 -->
<g id="node1" class="node">
<title>Node1</title>
<g id="a_node1"><a xlink:title=" ">
<polygon fill="#bfbfbf" stroke="black" points="0,-0.5 0,-134.5 159,-134.5 159,-0.5 0,-0.5"/>
<text text-anchor="start" x="8" y="-122.5" font-family="Helvetica,sans-Serif" font-size="10.00">Catch::Generators::</text>
<text text-anchor="start" x="8" y="-111.5" font-family="Helvetica,sans-Serif" font-size="10.00">RandomIntegerGenerator</text>
<text text-anchor="middle" x="79.5" y="-100.5" font-family="Helvetica,sans-Serif" font-size="10.00">&lt; Integer &gt;</text>
<polyline fill="none" stroke="black" points="0,-93.5 159,-93.5 "/>
<text text-anchor="middle" x="79.5" y="-81.5" font-family="Helvetica,sans-Serif" font-size="10.00"> </text>
<polyline fill="none" stroke="black" points="0,-74.5 159,-74.5 "/>
<text text-anchor="start" x="8" y="-62.5" font-family="Helvetica,sans-Serif" font-size="10.00">+ RandomIntegerGenerator()</text>
<text text-anchor="start" x="8" y="-51.5" font-family="Helvetica,sans-Serif" font-size="10.00">+ get()</text>
<text text-anchor="start" x="8" y="-40.5" font-family="Helvetica,sans-Serif" font-size="10.00">+ next()</text>
<text text-anchor="start" x="8" y="-29.5" font-family="Helvetica,sans-Serif" font-size="10.00">+ RandomIntegerGenerator()</text>
<text text-anchor="start" x="8" y="-18.5" font-family="Helvetica,sans-Serif" font-size="10.00">+ get()</text>
<text text-anchor="start" x="8" y="-7.5" font-family="Helvetica,sans-Serif" font-size="10.00">+ next()</text>
</a>
</g>
</g>
<!-- Node2 -->
<g id="node2" class="node">
<title>Node2</title>
<g id="a_node2"><a xlink:href="struct_catch_1_1_generators_1_1_i_generator.html" target="_top" xlink:title=" ">
<polygon fill="white" stroke="black" points="17,-171.5 17,-272.5 142,-272.5 142,-171.5 17,-171.5"/>
<text text-anchor="start" x="25" y="-260.5" font-family="Helvetica,sans-Serif" font-size="10.00">Catch::Generators::</text>
<text text-anchor="middle" x="79.5" y="-249.5" font-family="Helvetica,sans-Serif" font-size="10.00">IGenerator&lt; Integer &gt;</text>
<polyline fill="none" stroke="black" points="17,-242.5 142,-242.5 "/>
<text text-anchor="middle" x="79.5" y="-230.5" font-family="Helvetica,sans-Serif" font-size="10.00"> </text>
<polyline fill="none" stroke="black" points="17,-223.5 142,-223.5 "/>
<text text-anchor="start" x="25" y="-211.5" font-family="Helvetica,sans-Serif" font-size="10.00">+ ~IGenerator()</text>
<text text-anchor="start" x="25" y="-200.5" font-family="Helvetica,sans-Serif" font-size="10.00">+ ~IGenerator()</text>
<text text-anchor="start" x="25" y="-189.5" font-family="Helvetica,sans-Serif" font-size="10.00">+ get()</text>
<text text-anchor="start" x="25" y="-178.5" font-family="Helvetica,sans-Serif" font-size="10.00">+ get()</text>
</a>
</g>
</g>
<!-- Node2&#45;&gt;Node1 -->
<g id="edge1" class="edge">
<title>Node2&#45;&gt;Node1</title>
<path fill="none" stroke="midnightblue" d="M79.5,-161.38C79.5,-152.63 79.5,-143.56 79.5,-134.69"/>
<polygon fill="none" stroke="midnightblue" points="76,-161.49 79.5,-171.49 83,-161.49 76,-161.49"/>
</g>
<!-- Node3 -->
<g id="node3" class="node">
<title>Node3</title>
<g id="a_node3"><a xlink:href="class_catch_1_1_generators_1_1_generator_untyped_base.html" target="_top" xlink:title=" ">
<polygon fill="white" stroke="black" points="0.5,-309.5 0.5,-432.5 158.5,-432.5 158.5,-309.5 0.5,-309.5"/>
<text text-anchor="start" x="8.5" y="-420.5" font-family="Helvetica,sans-Serif" font-size="10.00">Catch::Generators::</text>
<text text-anchor="middle" x="79.5" y="-409.5" font-family="Helvetica,sans-Serif" font-size="10.00">GeneratorUntypedBase</text>
<polyline fill="none" stroke="black" points="0.5,-402.5 158.5,-402.5 "/>
<text text-anchor="middle" x="79.5" y="-390.5" font-family="Helvetica,sans-Serif" font-size="10.00"> </text>
<polyline fill="none" stroke="black" points="0.5,-383.5 158.5,-383.5 "/>
<text text-anchor="start" x="8.5" y="-371.5" font-family="Helvetica,sans-Serif" font-size="10.00">+ GeneratorUntypedBase()</text>
<text text-anchor="start" x="8.5" y="-360.5" font-family="Helvetica,sans-Serif" font-size="10.00">+ ~GeneratorUntypedBase()</text>
<text text-anchor="start" x="8.5" y="-349.5" font-family="Helvetica,sans-Serif" font-size="10.00">+ next()</text>
<text text-anchor="start" x="8.5" y="-338.5" font-family="Helvetica,sans-Serif" font-size="10.00">+ GeneratorUntypedBase()</text>
<text text-anchor="start" x="8.5" y="-327.5" font-family="Helvetica,sans-Serif" font-size="10.00">+ ~GeneratorUntypedBase()</text>
<text text-anchor="start" x="8.5" y="-316.5" font-family="Helvetica,sans-Serif" font-size="10.00">+ next()</text>
</a>
</g>
</g>
<!-- Node3&#45;&gt;Node2 -->
<g id="edge2" class="edge">
<title>Node3&#45;&gt;Node2</title>
<path fill="none" stroke="midnightblue" d="M79.5,-299.29C79.5,-290.32 79.5,-281.3 79.5,-272.76"/>
<polygon fill="none" stroke="midnightblue" points="76,-299.36 79.5,-309.36 83,-299.36 76,-299.36"/>
</g>
</g>
</svg>
