<?xml version="1.0" encoding="UTF-8" standalone="no"?>
<!DOCTYPE svg PUBLIC "-//W3C//DTD SVG 1.1//EN"
 "http://www.w3.org/Graphics/SVG/1.1/DTD/svg11.dtd">
<!-- Generated by graphviz version 2.43.0 (0)
 -->
<!-- Title: Catch::Generators::IteratorGenerator::IteratorGenerator Pages: 1 -->
<svg width="530pt" height="50pt"
 viewBox="0.00 0.00 530.00 50.00" xmlns="http://www.w3.org/2000/svg" xmlns:xlink="http://www.w3.org/1999/xlink">
<g id="graph0" class="graph" transform="scale(1 1) rotate(0) translate(4 46)">
<title>Catch::Generators::IteratorGenerator::IteratorGenerator</title>
<polygon fill="white" stroke="transparent" points="-4,4 -4,-46 526,-46 526,4 -4,4"/>
<!-- Node1 -->
<g id="node1" class="node">
<title>Node1</title>
<g id="a_node1"><a xlink:title=" ">
<polygon fill="#bfbfbf" stroke="black" points="0,-0.5 0,-41.5 143,-41.5 143,-0.5 0,-0.5"/>
<text text-anchor="start" x="8" y="-29.5" font-family="Helvetica,sans-Serif" font-size="10.00">Catch::Generators::</text>
<text text-anchor="start" x="8" y="-18.5" font-family="Helvetica,sans-Serif" font-size="10.00">IteratorGenerator::Iterator</text>
<text text-anchor="middle" x="71.5" y="-7.5" font-family="Helvetica,sans-Serif" font-size="10.00">Generator</text>
</a>
</g>
</g>
<!-- Node2 -->
<g id="node2" class="node">
<title>Node2</title>
<g id="a_node2"><a xlink:href="namespace_catch.html#a3cbceeab9252d1b752f66a2826e92548" target="_top" xlink:title=" ">
<polygon fill="white" stroke="black" points="179,-11.5 179,-30.5 310,-30.5 310,-11.5 179,-11.5"/>
<text text-anchor="middle" x="244.5" y="-18.5" font-family="Helvetica,sans-Serif" font-size="10.00">Catch::throw_exception</text>
</a>
</g>
</g>
<!-- Node1&#45;&gt;Node2 -->
<g id="edge1" class="edge">
<title>Node1&#45;&gt;Node2</title>
<path fill="none" stroke="midnightblue" d="M143.04,-21C151.48,-21 160.11,-21 168.61,-21"/>
<polygon fill="midnightblue" stroke="midnightblue" points="168.88,-24.5 178.88,-21 168.88,-17.5 168.88,-24.5"/>
</g>
<!-- Node3 -->
<g id="node3" class="node">
<title>Node3</title>
<g id="a_node3"><a xlink:href="namespace_catch.html#a54c1ce08041448d684ae8edc14162cd2" target="_top" xlink:title=" ">
<polygon fill="white" stroke="black" points="346,-11.5 346,-30.5 415,-30.5 415,-11.5 346,-11.5"/>
<text text-anchor="middle" x="380.5" y="-18.5" font-family="Helvetica,sans-Serif" font-size="10.00">Catch::cerr</text>
</a>
</g>
</g>
<!-- Node2&#45;&gt;Node3 -->
<g id="edge2" class="edge">
<title>Node2&#45;&gt;Node3</title>
<path fill="none" stroke="midnightblue" d="M310.14,-21C318.8,-21 327.51,-21 335.7,-21"/>
<polygon fill="midnightblue" stroke="midnightblue" points="335.74,-24.5 345.74,-21 335.74,-17.5 335.74,-24.5"/>
</g>
<!-- Node4 -->
<g id="node4" class="node">
<title>Node4</title>
<g id="a_node4"><a xlink:href="namespace_catch.html#a1b2213f54e4d31a659db49827e81856b" target="_top" xlink:title=" ">
<polygon fill="white" stroke="black" points="451,-11.5 451,-30.5 522,-30.5 522,-11.5 451,-11.5"/>
<text text-anchor="middle" x="486.5" y="-18.5" font-family="Helvetica,sans-Serif" font-size="10.00">Catch::clog</text>
</a>
</g>
</g>
<!-- Node3&#45;&gt;Node4 -->
<g id="edge3" class="edge">
<title>Node3&#45;&gt;Node4</title>
<path fill="none" stroke="midnightblue" d="M415.27,-21C423.36,-21 432.13,-21 440.64,-21"/>
<polygon fill="midnightblue" stroke="midnightblue" points="440.83,-24.5 450.83,-21 440.83,-17.5 440.83,-24.5"/>
</g>
</g>
</svg>
