<?xml version="1.0" encoding="UTF-8" standalone="no"?>
<!DOCTYPE svg PUBLIC "-//W3C//DTD SVG 1.1//EN"
 "http://www.w3.org/Graphics/SVG/1.1/DTD/svg11.dtd">
<!-- Generated by graphviz version 2.43.0 (0)
 -->
<!-- Title: Catch::ScopedMessage Pages: 1 -->
<!--zoomable 623 -->
<svg id="main" version="1.1" xmlns="http://www.w3.org/2000/svg" xmlns:xlink="http://www.w3.org/1999/xlink" xml:space="preserve" onload="init(evt)">
<style type="text/css"><![CDATA[
.edge:hover path { stroke: red; }
.edge:hover polygon { stroke: red; fill: red; }
]]></style>
<script type="text/javascript"><![CDATA[
var edges = document.getElementsByTagName('g');
if (edges && edges.length) {
  for (var i=0;i<edges.length;i++) {
    if (edges[i].id.substr(0,4)=='edge') {
      edges[i].setAttribute('class','edge');
    }
  }
}
]]></script>
        <defs>
                <circle id="rim" cx="0" cy="0" r="7"/>
                <circle id="rim2" cx="0" cy="0" r="3.5"/>
                <g id="zoomPlus">
                        <use xlink:href="#rim" fill="#404040">
                                <set attributeName="fill" to="#808080" begin="zoomplus.mouseover" end="zoomplus.mouseout"/>
                        </use>
                        <path d="M-4,0h8M0,-4v8" fill="none" stroke="white" stroke-width="1.5" pointer-events="none"/>
                </g>
                <g id="zoomMin">
                        <use xlink:href="#rim" fill="#404040">
                                <set attributeName="fill" to="#808080" begin="zoomminus.mouseover" end="zoomminus.mouseout"/>
                        </use>
                        <path d="M-4,0h8" fill="none" stroke="white" stroke-width="1.5" pointer-events="none"/>
                </g>
                <g id="dirArrow">
                        <path fill="none" stroke="white" stroke-width="1.5" d="M0,-3.0v7 M-2.5,-0.5L0,-3.0L2.5,-0.5"/>
                </g>
               <g id="resetDef">
                       <use xlink:href="#rim2" fill="#404040">
                               <set attributeName="fill" to="#808080" begin="reset.mouseover" end="reset.mouseout"/>
                       </use>
               </g>
        </defs>

<script type="text/javascript">
var viewWidth = 493;
var viewHeight = 623;
var sectionId = 'dynsection-0';
</script>
<script xlink:href="svgpan.js"/>
<svg id="graph" class="graph">
<g id="viewport">
<title>Catch::ScopedMessage</title>
<polygon fill="white" stroke="transparent" points="-4,4 -4,-619 489,-619 489,4 -4,4"/>
<!-- Node1 -->
<g id="node1" class="node">
<title>Node1</title>
<g id="a_node1"><a xlink:title=" ">
<polygon fill="#bfbfbf" stroke="black" points="282.5,-0.5 282.5,-134.5 411.5,-134.5 411.5,-0.5 282.5,-0.5"/>
<text text-anchor="middle" x="347" y="-122.5" font-family="Helvetica,sans-Serif" font-size="10.00">Catch::ScopedMessage</text>
<polyline fill="none" stroke="black" points="282.5,-115.5 411.5,-115.5 "/>
<text text-anchor="middle" x="347" y="-103.5" font-family="Helvetica,sans-Serif" font-size="10.00"> </text>
<polyline fill="none" stroke="black" points="282.5,-96.5 411.5,-96.5 "/>
<text text-anchor="start" x="290.5" y="-84.5" font-family="Helvetica,sans-Serif" font-size="10.00">+ ScopedMessage()</text>
<text text-anchor="start" x="290.5" y="-73.5" font-family="Helvetica,sans-Serif" font-size="10.00">+ ScopedMessage()</text>
<text text-anchor="start" x="290.5" y="-62.5" font-family="Helvetica,sans-Serif" font-size="10.00">+ ScopedMessage()</text>
<text text-anchor="start" x="290.5" y="-51.5" font-family="Helvetica,sans-Serif" font-size="10.00">+ ~ScopedMessage()</text>
<text text-anchor="start" x="290.5" y="-40.5" font-family="Helvetica,sans-Serif" font-size="10.00">+ ScopedMessage()</text>
<text text-anchor="start" x="290.5" y="-29.5" font-family="Helvetica,sans-Serif" font-size="10.00">+ ScopedMessage()</text>
<text text-anchor="start" x="290.5" y="-18.5" font-family="Helvetica,sans-Serif" font-size="10.00">+ ScopedMessage()</text>
<text text-anchor="start" x="290.5" y="-7.5" font-family="Helvetica,sans-Serif" font-size="10.00">+ ~ScopedMessage()</text>
</a>
</g>
</g>
<!-- Node2 -->
<g id="node2" class="node">
<title>Node2</title>
<g id="a_node2"><a xlink:href="struct_catch_1_1_message_info.html" target="_top" xlink:title=" ">
<polygon fill="white" stroke="black" points="243.5,-182.5 243.5,-294.5 356.5,-294.5 356.5,-182.5 243.5,-182.5"/>
<text text-anchor="middle" x="300" y="-282.5" font-family="Helvetica,sans-Serif" font-size="10.00">Catch::MessageInfo</text>
<polyline fill="none" stroke="black" points="243.5,-275.5 356.5,-275.5 "/>
<text text-anchor="middle" x="300" y="-263.5" font-family="Helvetica,sans-Serif" font-size="10.00"> </text>
<polyline fill="none" stroke="black" points="243.5,-256.5 356.5,-256.5 "/>
<text text-anchor="start" x="251.5" y="-244.5" font-family="Helvetica,sans-Serif" font-size="10.00">+ MessageInfo()</text>
<text text-anchor="start" x="251.5" y="-233.5" font-family="Helvetica,sans-Serif" font-size="10.00">+ operator==()</text>
<text text-anchor="start" x="251.5" y="-222.5" font-family="Helvetica,sans-Serif" font-size="10.00">+ operator&lt;()</text>
<text text-anchor="start" x="251.5" y="-211.5" font-family="Helvetica,sans-Serif" font-size="10.00">+ MessageInfo()</text>
<text text-anchor="start" x="251.5" y="-200.5" font-family="Helvetica,sans-Serif" font-size="10.00">+ operator==()</text>
<text text-anchor="start" x="251.5" y="-189.5" font-family="Helvetica,sans-Serif" font-size="10.00">+ operator&lt;()</text>
</a>
</g>
</g>
<!-- Node2&#45;&gt;Node1 -->
<g id="edge1" class="edge">
<title>Node2&#45;&gt;Node1</title>
<path fill="none" stroke="#404040" d="M315.39,-182.16C318.6,-170.64 322.03,-158.29 325.41,-146.13"/>
<polygon fill="none" stroke="#404040" points="325.41,-146.12 323.17,-139.27 328.63,-134.56 330.87,-141.41 325.41,-146.12"/>
<text text-anchor="middle" x="347" y="-156" font-family="Helvetica,sans-Serif" font-size="10.00"> +m_info</text>
</g>
<!-- Node3 -->
<g id="node3" class="node">
<title>Node3</title>
<g id="a_node3"><a xlink:href="struct_catch_1_1_source_line_info.html" target="_top" xlink:title=" ">
<polygon fill="white" stroke="black" points="0,-342.5 0,-509.5 122,-509.5 122,-342.5 0,-342.5"/>
<text text-anchor="middle" x="61" y="-497.5" font-family="Helvetica,sans-Serif" font-size="10.00">Catch::SourceLineInfo</text>
<polyline fill="none" stroke="black" points="0,-490.5 122,-490.5 "/>
<text text-anchor="middle" x="61" y="-478.5" font-family="Helvetica,sans-Serif" font-size="10.00"> </text>
<polyline fill="none" stroke="black" points="0,-471.5 122,-471.5 "/>
<text text-anchor="start" x="8" y="-459.5" font-family="Helvetica,sans-Serif" font-size="10.00">+ SourceLineInfo()</text>
<text text-anchor="start" x="8" y="-448.5" font-family="Helvetica,sans-Serif" font-size="10.00">+ SourceLineInfo()</text>
<text text-anchor="start" x="8" y="-437.5" font-family="Helvetica,sans-Serif" font-size="10.00">+ SourceLineInfo()</text>
<text text-anchor="start" x="8" y="-426.5" font-family="Helvetica,sans-Serif" font-size="10.00">+ operator=()</text>
<text text-anchor="start" x="8" y="-415.5" font-family="Helvetica,sans-Serif" font-size="10.00">+ SourceLineInfo()</text>
<text text-anchor="start" x="8" y="-404.5" font-family="Helvetica,sans-Serif" font-size="10.00">+ operator=()</text>
<text text-anchor="start" x="8" y="-393.5" font-family="Helvetica,sans-Serif" font-size="10.00">+ empty()</text>
<text text-anchor="start" x="8" y="-382.5" font-family="Helvetica,sans-Serif" font-size="10.00">+ operator==()</text>
<text text-anchor="start" x="8" y="-371.5" font-family="Helvetica,sans-Serif" font-size="10.00">+ operator&lt;()</text>
<text text-anchor="start" x="8" y="-360.5" font-family="Helvetica,sans-Serif" font-size="10.00">+ SourceLineInfo()</text>
<text text-anchor="start" x="8" y="-349.5" font-family="Helvetica,sans-Serif" font-size="10.00">and 8 more...</text>
</a>
</g>
</g>
<!-- Node3&#45;&gt;Node2 -->
<g id="edge2" class="edge">
<title>Node3&#45;&gt;Node2</title>
<path fill="none" stroke="#404040" d="M122.06,-350.95C125.03,-347.88 128.02,-344.88 131,-342 160.51,-313.53 199.29,-289.31 232.26,-271.57"/>
<polygon fill="none" stroke="#404040" points="232.58,-271.4 236.02,-265.06 243.2,-265.8 239.75,-272.14 232.58,-271.4"/>
<text text-anchor="middle" x="189.5" y="-316" font-family="Helvetica,sans-Serif" font-size="10.00"> +lineInfo</text>
</g>
<!-- Node4 -->
<g id="node4" class="node">
<title>Node4</title>
<g id="a_node4"><a xlink:href="classchar.html" target="_top" xlink:title=" ">
<polygon fill="white" stroke="black" points="12,-557.5 12,-614.5 50,-614.5 50,-557.5 12,-557.5"/>
<text text-anchor="middle" x="31" y="-602.5" font-family="Helvetica,sans-Serif" font-size="10.00">char</text>
<polyline fill="none" stroke="black" points="12,-595.5 50,-595.5 "/>
<text text-anchor="middle" x="31" y="-583.5" font-family="Helvetica,sans-Serif" font-size="10.00"> </text>
<polyline fill="none" stroke="black" points="12,-576.5 50,-576.5 "/>
<text text-anchor="middle" x="31" y="-564.5" font-family="Helvetica,sans-Serif" font-size="10.00"> </text>
</a>
</g>
</g>
<!-- Node4&#45;&gt;Node3 -->
<g id="edge3" class="edge">
<title>Node4&#45;&gt;Node3</title>
<path fill="none" stroke="#404040" d="M36.23,-557.48C38.19,-547.12 40.56,-534.67 43.03,-521.63"/>
<polygon fill="none" stroke="#404040" points="43.09,-521.33 40.28,-514.68 45.33,-509.54 48.14,-516.18 43.09,-521.33"/>
<text text-anchor="middle" x="55.5" y="-531" font-family="Helvetica,sans-Serif" font-size="10.00"> +file</text>
</g>
<!-- Node5 -->
<g id="node5" class="node">
<title>Node5</title>
<g id="a_node5"><a xlink:title=" ">
<polygon fill="white" stroke="#bfbfbf" points="68.5,-557.5 68.5,-614.5 113.5,-614.5 113.5,-557.5 68.5,-557.5"/>
<text text-anchor="middle" x="91" y="-602.5" font-family="Helvetica,sans-Serif" font-size="10.00">size_t</text>
<polyline fill="none" stroke="#bfbfbf" points="68.5,-595.5 113.5,-595.5 "/>
<text text-anchor="middle" x="91" y="-583.5" font-family="Helvetica,sans-Serif" font-size="10.00"> </text>
<polyline fill="none" stroke="#bfbfbf" points="68.5,-576.5 113.5,-576.5 "/>
<text text-anchor="middle" x="91" y="-564.5" font-family="Helvetica,sans-Serif" font-size="10.00"> </text>
</a>
</g>
</g>
<!-- Node5&#45;&gt;Node3 -->
<g id="edge4" class="edge">
<title>Node5&#45;&gt;Node3</title>
<path fill="none" stroke="#404040" d="M85.77,-557.48C83.81,-547.12 81.44,-534.67 78.97,-521.63"/>
<polygon fill="none" stroke="#404040" points="78.91,-521.33 73.86,-516.18 76.67,-509.54 81.72,-514.68 78.91,-521.33"/>
<text text-anchor="middle" x="98" y="-531" font-family="Helvetica,sans-Serif" font-size="10.00"> +line</text>
</g>
<!-- Node6 -->
<g id="node6" class="node">
<title>Node6</title>
<g id="a_node6"><a xlink:href="class_catch_1_1_string_ref.html" target="_top" xlink:title=" ">
<polygon fill="white" stroke="black" points="140,-342.5 140,-509.5 268,-509.5 268,-342.5 140,-342.5"/>
<text text-anchor="middle" x="204" y="-497.5" font-family="Helvetica,sans-Serif" font-size="10.00">Catch::StringRef</text>
<polyline fill="none" stroke="black" points="140,-490.5 268,-490.5 "/>
<text text-anchor="middle" x="204" y="-478.5" font-family="Helvetica,sans-Serif" font-size="10.00"> </text>
<polyline fill="none" stroke="black" points="140,-471.5 268,-471.5 "/>
<text text-anchor="start" x="148" y="-459.5" font-family="Helvetica,sans-Serif" font-size="10.00">+ StringRef()</text>
<text text-anchor="start" x="148" y="-448.5" font-family="Helvetica,sans-Serif" font-size="10.00">+ StringRef()</text>
<text text-anchor="start" x="148" y="-437.5" font-family="Helvetica,sans-Serif" font-size="10.00">+ StringRef()</text>
<text text-anchor="start" x="148" y="-426.5" font-family="Helvetica,sans-Serif" font-size="10.00">+ StringRef()</text>
<text text-anchor="start" x="148" y="-415.5" font-family="Helvetica,sans-Serif" font-size="10.00">+ operator std::string()</text>
<text text-anchor="start" x="148" y="-404.5" font-family="Helvetica,sans-Serif" font-size="10.00">+ operator==()</text>
<text text-anchor="start" x="148" y="-393.5" font-family="Helvetica,sans-Serif" font-size="10.00">+ operator!=()</text>
<text text-anchor="start" x="148" y="-382.5" font-family="Helvetica,sans-Serif" font-size="10.00">+ operator[]()</text>
<text text-anchor="start" x="148" y="-371.5" font-family="Helvetica,sans-Serif" font-size="10.00">+ empty()</text>
<text text-anchor="start" x="148" y="-360.5" font-family="Helvetica,sans-Serif" font-size="10.00">+ size()</text>
<text text-anchor="start" x="148" y="-349.5" font-family="Helvetica,sans-Serif" font-size="10.00">and 22 more...</text>
</a>
</g>
</g>
<!-- Node6&#45;&gt;Node2 -->
<g id="edge5" class="edge">
<title>Node6&#45;&gt;Node2</title>
<path fill="none" stroke="#404040" d="M213.52,-342.27C216.41,-332.08 220.15,-322.07 225,-313 228.06,-307.27 231.72,-301.71 235.75,-296.39"/>
<polygon fill="none" stroke="#404040" points="235.77,-296.36 236.48,-289.19 243.37,-287.07 242.67,-294.25 235.77,-296.36"/>
<text text-anchor="middle" x="261" y="-316" font-family="Helvetica,sans-Serif" font-size="10.00"> +macroName</text>
</g>
<!-- Node7 -->
<g id="node7" class="node">
<title>Node7</title>
<g id="a_node7"><a xlink:title=" ">
<polygon fill="white" stroke="#bfbfbf" points="286.5,-397.5 286.5,-454.5 315.5,-454.5 315.5,-397.5 286.5,-397.5"/>
<text text-anchor="middle" x="301" y="-442.5" font-family="Helvetica,sans-Serif" font-size="10.00">int</text>
<polyline fill="none" stroke="#bfbfbf" points="286.5,-435.5 315.5,-435.5 "/>
<text text-anchor="middle" x="301" y="-423.5" font-family="Helvetica,sans-Serif" font-size="10.00"> </text>
<polyline fill="none" stroke="#bfbfbf" points="286.5,-416.5 315.5,-416.5 "/>
<text text-anchor="middle" x="301" y="-404.5" font-family="Helvetica,sans-Serif" font-size="10.00"> </text>
</a>
</g>
</g>
<!-- Node7&#45;&gt;Node2 -->
<g id="edge6" class="edge">
<title>Node7&#45;&gt;Node2</title>
<path fill="none" stroke="#404040" d="M300.85,-397.23C300.72,-373.41 300.53,-338.09 300.36,-306.91"/>
<polygon fill="none" stroke="#404040" points="300.36,-306.75 296.33,-300.77 300.3,-294.75 304.33,-300.73 300.36,-306.75"/>
<text text-anchor="middle" x="330" y="-316" font-family="Helvetica,sans-Serif" font-size="10.00"> +sequence</text>
</g>
<!-- Node8 -->
<g id="node8" class="node">
<title>Node8</title>
<g id="a_node8"><a xlink:title=" ">
<polygon fill="white" stroke="#bfbfbf" points="359,-397.5 359,-454.5 403,-454.5 403,-397.5 359,-397.5"/>
<text text-anchor="middle" x="381" y="-442.5" font-family="Helvetica,sans-Serif" font-size="10.00">string</text>
<polyline fill="none" stroke="#bfbfbf" points="359,-435.5 403,-435.5 "/>
<text text-anchor="middle" x="381" y="-423.5" font-family="Helvetica,sans-Serif" font-size="10.00"> </text>
<polyline fill="none" stroke="#bfbfbf" points="359,-416.5 403,-416.5 "/>
<text text-anchor="middle" x="381" y="-404.5" font-family="Helvetica,sans-Serif" font-size="10.00"> </text>
</a>
</g>
</g>
<!-- Node8&#45;&gt;Node2 -->
<g id="edge7" class="edge">
<title>Node8&#45;&gt;Node2</title>
<path fill="none" stroke="#404040" d="M379.25,-397.16C376.93,-373.77 371.53,-339.95 359,-313 357.78,-310.37 356.44,-307.75 355.01,-305.16"/>
<polygon fill="none" stroke="#404040" points="354.88,-304.93 348.35,-301.85 348.68,-294.65 355.21,-297.72 354.88,-304.93"/>
<text text-anchor="middle" x="390" y="-316" font-family="Helvetica,sans-Serif" font-size="10.00"> +message</text>
</g>
<!-- Node9 -->
<g id="node9" class="node">
<title>Node9</title>
<g id="a_node9"><a xlink:title=" ">
<polygon fill="white" stroke="#bfbfbf" points="435,-397.5 435,-454.5 485,-454.5 485,-397.5 435,-397.5"/>
<text text-anchor="middle" x="460" y="-442.5" font-family="Helvetica,sans-Serif" font-size="10.00">OfType</text>
<polyline fill="none" stroke="#bfbfbf" points="435,-435.5 485,-435.5 "/>
<text text-anchor="middle" x="460" y="-423.5" font-family="Helvetica,sans-Serif" font-size="10.00"> </text>
<polyline fill="none" stroke="#bfbfbf" points="435,-416.5 485,-416.5 "/>
<text text-anchor="middle" x="460" y="-404.5" font-family="Helvetica,sans-Serif" font-size="10.00"> </text>
</a>
</g>
</g>
<!-- Node9&#45;&gt;Node2 -->
<g id="edge8" class="edge">
<title>Node9&#45;&gt;Node2</title>
<path fill="none" stroke="#404040" d="M457.59,-397.37C453.95,-372.14 444.83,-335.47 422,-313 405.62,-296.88 392.45,-304.96 367.6,-294.73"/>
<polygon fill="none" stroke="#404040" points="367.39,-294.63 360.25,-295.58 356.62,-289.34 363.77,-288.4 367.39,-294.63"/>
<text text-anchor="middle" x="447" y="-316" font-family="Helvetica,sans-Serif" font-size="10.00"> +type</text>
</g>
<!-- Node10 -->
<g id="node10" class="node">
<title>Node10</title>
<g id="a_node10"><a xlink:href="classbool.html" target="_top" xlink:title=" ">
<polygon fill="white" stroke="black" points="375,-210 375,-267 413,-267 413,-210 375,-210"/>
<text text-anchor="middle" x="394" y="-255" font-family="Helvetica,sans-Serif" font-size="10.00">bool</text>
<polyline fill="none" stroke="black" points="375,-248 413,-248 "/>
<text text-anchor="middle" x="394" y="-236" font-family="Helvetica,sans-Serif" font-size="10.00"> </text>
<polyline fill="none" stroke="black" points="375,-229 413,-229 "/>
<text text-anchor="middle" x="394" y="-217" font-family="Helvetica,sans-Serif" font-size="10.00"> </text>
</a>
</g>
</g>
<!-- Node10&#45;&gt;Node1 -->
<g id="edge9" class="edge">
<title>Node10&#45;&gt;Node1</title>
<path fill="none" stroke="#404040" d="M387,-209.66C382.78,-193.15 377.24,-171.84 372,-153 371.41,-150.88 370.81,-148.73 370.2,-146.57"/>
<polygon fill="none" stroke="#404040" points="370.15,-146.4 364.66,-141.73 366.86,-134.86 372.35,-139.54 370.15,-146.4"/>
<text text-anchor="middle" x="404.5" y="-156" font-family="Helvetica,sans-Serif" font-size="10.00"> +m_moved</text>
</g>
</g>
</svg>
        <g id="navigator" transform="translate(0 0)" fill="#404254">
                <rect fill="#f2f5e9" fill-opacity="0.5" stroke="#606060" stroke-width=".5" x="0" y="0" width="60" height="60"/>
                <use id="zoomplus" xlink:href="#zoomPlus" x="17" y="9" onmousedown="handleZoom(evt,'in')"/>
                <use id="zoomminus" xlink:href="#zoomMin" x="42" y="9" onmousedown="handleZoom(evt,'out')"/>
                <use id="reset" xlink:href="#resetDef" x="30" y="36" onmousedown="handleReset()"/>
                <g id="arrowUp" xlink:href="#dirArrow" transform="translate(30 24)" onmousedown="handlePan(0,-1)">
                  <use xlink:href="#rim" fill="#404040">
                        <set attributeName="fill" to="#808080" begin="arrowUp.mouseover" end="arrowUp.mouseout"/>
                  </use>
                  <path fill="none" stroke="white" stroke-width="1.5" d="M0,-3.0v7 M-2.5,-0.5L0,-3.0L2.5,-0.5"/>
                </g>
                <g id="arrowRight" xlink:href="#dirArrow" transform="rotate(90) translate(36 -43)" onmousedown="handlePan(1,0)">
                  <use xlink:href="#rim" fill="#404040">
                        <set attributeName="fill" to="#808080" begin="arrowRight.mouseover" end="arrowRight.mouseout"/>
                  </use>
                  <path fill="none" stroke="white" stroke-width="1.5" d="M0,-3.0v7 M-2.5,-0.5L0,-3.0L2.5,-0.5"/>
                </g>
                <g id="arrowDown" xlink:href="#dirArrow" transform="rotate(180) translate(-30 -48)" onmousedown="handlePan(0,1)">
                  <use xlink:href="#rim" fill="#404040">
                        <set attributeName="fill" to="#808080" begin="arrowDown.mouseover" end="arrowDown.mouseout"/>
                  </use>
                  <path fill="none" stroke="white" stroke-width="1.5" d="M0,-3.0v7 M-2.5,-0.5L0,-3.0L2.5,-0.5"/>
                </g>
                <g id="arrowLeft" xlink:href="#dirArrow" transform="rotate(270) translate(-36 17)" onmousedown="handlePan(-1,0)">
                  <use xlink:href="#rim" fill="#404040">
                        <set attributeName="fill" to="#808080" begin="arrowLeft.mouseover" end="arrowLeft.mouseout"/>
                  </use>
                  <path fill="none" stroke="white" stroke-width="1.5" d="M0,-3.0v7 M-2.5,-0.5L0,-3.0L2.5,-0.5"/>
                </g>
        </g>
        <svg viewBox="0 0 15 15" width="100%" height="30px" preserveAspectRatio="xMaxYMin meet">
         <g id="arrow_out" transform="scale(0.3 0.3)">
          <a xlink:href="class_catch_1_1_scoped_message__coll__graph_org.svg" target="_base">
           <rect id="button" ry="5" rx="5" y="6" x="6" height="38" width="38"
                fill="#f2f5e9" fill-opacity="0.5" stroke="#606060" stroke-width="1.0"/>
           <path id="arrow"
             d="M 11.500037,31.436501 C 11.940474,20.09759 22.043105,11.32322 32.158766,21.979434 L 37.068811,17.246167 C 37.068811,17.246167 37.088388,32 37.088388,32 L 22.160133,31.978069 C 22.160133,31.978069 26.997745,27.140456 26.997745,27.140456 C 18.528582,18.264221 13.291696,25.230495 11.500037,31.436501 z"
             style="fill:#404040;"/>
          </a>
         </g>
        </svg>
</svg>
