<?xml version="1.0" encoding="UTF-8" standalone="no"?>
<!DOCTYPE svg PUBLIC "-//W3C//DTD SVG 1.1//EN"
 "http://www.w3.org/Graphics/SVG/1.1/DTD/svg11.dtd">
<!-- Generated by graphviz version 2.43.0 (0)
 -->
<!-- Title: Catch::XmlReporter::testCaseStarting Pages: 1 -->
<svg width="534pt" height="328pt"
 viewBox="0.00 0.00 534.00 327.82" xmlns="http://www.w3.org/2000/svg" xmlns:xlink="http://www.w3.org/1999/xlink">
<g id="graph0" class="graph" transform="scale(1 1) rotate(0) translate(4 323.82)">
<title>Catch::XmlReporter::testCaseStarting</title>
<polygon fill="white" stroke="transparent" points="-4,4 -4,-323.82 530,-323.82 530,4 -4,4"/>
<!-- Node1 -->
<g id="node1" class="node">
<title>Node1</title>
<g id="a_node1"><a xlink:title=" ">
<polygon fill="#bfbfbf" stroke="black" points="0,-150.5 0,-180.5 112,-180.5 112,-150.5 0,-150.5"/>
<text text-anchor="start" x="8" y="-168.5" font-family="Helvetica,sans-Serif" font-size="10.00">Catch::XmlReporter</text>
<text text-anchor="middle" x="56" y="-157.5" font-family="Helvetica,sans-Serif" font-size="10.00">::testCaseStarting</text>
</a>
</g>
</g>
<!-- Node2 -->
<g id="node2" class="node">
<title>Node2</title>
<g id="a_node2"><a xlink:href="class_catch_1_1_xml_writer.html#aba98703d9852416e237de82aed4a9c4f" target="_top" xlink:title=" ">
<polygon fill="white" stroke="black" points="370,-281.5 370,-311.5 509,-311.5 509,-281.5 370,-281.5"/>
<text text-anchor="start" x="378" y="-299.5" font-family="Helvetica,sans-Serif" font-size="10.00">Catch::XmlWriter::ensure</text>
<text text-anchor="middle" x="439.5" y="-288.5" font-family="Helvetica,sans-Serif" font-size="10.00">TagClosed</text>
</a>
</g>
</g>
<!-- Node1&#45;&gt;Node2 -->
<g id="edge1" class="edge">
<title>Node1&#45;&gt;Node2</title>
<path fill="none" stroke="midnightblue" d="M62.61,-180.69C73.85,-208.63 102.08,-267.52 148,-291.5 213.97,-325.95 300.38,-322.35 361.77,-313.12"/>
<polygon fill="midnightblue" stroke="midnightblue" points="362.45,-316.55 371.78,-311.53 361.36,-309.64 362.45,-316.55"/>
</g>
<!-- Node3 -->
<g id="node3" class="node">
<title>Node3</title>
<g id="a_node3"><a xlink:href="class_catch_1_1_timer.html#a0a56e879e43f36c102bf9ea8b5fc8b72" target="_top" xlink:title=" ">
<polygon fill="white" stroke="black" points="179,-225 179,-244 286,-244 286,-225 179,-225"/>
<text text-anchor="middle" x="232.5" y="-232" font-family="Helvetica,sans-Serif" font-size="10.00">Catch::Timer::start</text>
</a>
</g>
</g>
<!-- Node1&#45;&gt;Node3 -->
<g id="edge2" class="edge">
<title>Node1&#45;&gt;Node3</title>
<path fill="none" stroke="midnightblue" d="M80.08,-180.54C97.97,-191.61 123.73,-206.28 148,-215.5 154.78,-218.08 162.02,-220.36 169.28,-222.37"/>
<polygon fill="midnightblue" stroke="midnightblue" points="168.61,-225.81 179.17,-224.95 170.37,-219.04 168.61,-225.81"/>
</g>
<!-- Node5 -->
<g id="node5" class="node">
<title>Node5</title>
<g id="a_node5"><a xlink:href="class_catch_1_1_xml_writer.html#a5e5190bcb1f47a76ddca863591a6cc00" target="_top" xlink:title=" ">
<polygon fill="white" stroke="black" points="148,-263 148,-282 317,-282 317,-263 148,-263"/>
<text text-anchor="middle" x="232.5" y="-270" font-family="Helvetica,sans-Serif" font-size="10.00">Catch::XmlWriter::startElement</text>
</a>
</g>
</g>
<!-- Node1&#45;&gt;Node5 -->
<g id="edge4" class="edge">
<title>Node1&#45;&gt;Node5</title>
<path fill="none" stroke="midnightblue" d="M68.14,-180.52C83.73,-200.4 113.98,-235.09 148,-253.5 152.27,-255.81 156.81,-257.84 161.48,-259.63"/>
<polygon fill="midnightblue" stroke="midnightblue" points="160.61,-263.03 171.21,-262.95 162.88,-256.41 160.61,-263.03"/>
</g>
<!-- Node6 -->
<g id="node6" class="node">
<title>Node6</title>
<g id="a_node6"><a xlink:href="struct_catch_1_1_test_case_info.html#a17506de67fb18e27511c17f8a81119d8" target="_top" xlink:title=" ">
<polygon fill="white" stroke="black" points="176,-175.5 176,-205.5 289,-205.5 289,-175.5 176,-175.5"/>
<text text-anchor="start" x="184" y="-193.5" font-family="Helvetica,sans-Serif" font-size="10.00">Catch::TestCaseInfo</text>
<text text-anchor="middle" x="232.5" y="-182.5" font-family="Helvetica,sans-Serif" font-size="10.00">::tagsAsString</text>
</a>
</g>
</g>
<!-- Node1&#45;&gt;Node6 -->
<g id="edge6" class="edge">
<title>Node1&#45;&gt;Node6</title>
<path fill="none" stroke="midnightblue" d="M112.21,-173.41C129.16,-175.84 147.97,-178.53 165.56,-181.05"/>
<polygon fill="midnightblue" stroke="midnightblue" points="165.35,-184.56 175.75,-182.51 166.34,-177.63 165.35,-184.56"/>
</g>
<!-- Node8 -->
<g id="node8" class="node">
<title>Node8</title>
<g id="a_node8"><a xlink:href="struct_catch_1_1_streaming_reporter_base.html#ad8a773ceb481c17f3cedee3bf65b9820" target="_top" xlink:title=" ">
<polygon fill="white" stroke="black" points="161,-126.5 161,-156.5 304,-156.5 304,-126.5 161,-126.5"/>
<text text-anchor="start" x="169" y="-144.5" font-family="Helvetica,sans-Serif" font-size="10.00">Catch::StreamingReporter</text>
<text text-anchor="middle" x="232.5" y="-133.5" font-family="Helvetica,sans-Serif" font-size="10.00">Base::testCaseStarting</text>
</a>
</g>
</g>
<!-- Node1&#45;&gt;Node8 -->
<g id="edge8" class="edge">
<title>Node1&#45;&gt;Node8</title>
<path fill="none" stroke="midnightblue" d="M112.21,-157.91C124.55,-156.21 137.87,-154.38 150.99,-152.57"/>
<polygon fill="midnightblue" stroke="midnightblue" points="151.53,-156.03 160.96,-151.2 150.58,-149.1 151.53,-156.03"/>
</g>
<!-- Node9 -->
<g id="node9" class="node">
<title>Node9</title>
<g id="a_node9"><a xlink:href="namespace_catch.html#aea28035c2fa625ced568c1765e82a3bc" target="_top" xlink:title="Returns a new string without whitespace at the start/end.">
<polygon fill="white" stroke="black" points="197,-88 197,-107 268,-107 268,-88 197,-88"/>
<text text-anchor="middle" x="232.5" y="-95" font-family="Helvetica,sans-Serif" font-size="10.00">Catch::trim</text>
</a>
</g>
</g>
<!-- Node1&#45;&gt;Node9 -->
<g id="edge9" class="edge">
<title>Node1&#45;&gt;Node9</title>
<path fill="none" stroke="midnightblue" d="M81.71,-150.29C99.58,-139.84 124.6,-126.31 148,-117.5 160.33,-112.86 174.1,-109.04 186.84,-106.02"/>
<polygon fill="midnightblue" stroke="midnightblue" points="187.81,-109.39 196.79,-103.78 186.27,-102.56 187.81,-109.39"/>
</g>
<!-- Node10 -->
<g id="node10" class="node">
<title>Node10</title>
<g id="a_node10"><a xlink:href="class_catch_1_1_xml_writer.html#ad433310b59d30e0fedc7130dc11c563b" target="_top" xlink:title=" ">
<polygon fill="white" stroke="black" points="353,-28 353,-47 526,-47 526,-28 353,-28"/>
<text text-anchor="middle" x="439.5" y="-35" font-family="Helvetica,sans-Serif" font-size="10.00">Catch::XmlWriter::writeAttribute</text>
</a>
</g>
</g>
<!-- Node1&#45;&gt;Node10 -->
<g id="edge10" class="edge">
<title>Node1&#45;&gt;Node10</title>
<path fill="none" stroke="midnightblue" d="M67.97,-150.24C83.36,-130.11 113.39,-95.29 148,-78.5 181.52,-62.24 271.61,-51.17 342.66,-44.68"/>
<polygon fill="midnightblue" stroke="midnightblue" points="343.35,-48.13 353,-43.75 342.72,-41.16 343.35,-48.13"/>
</g>
<!-- Node11 -->
<g id="node11" class="node">
<title>Node11</title>
<g id="a_node11"><a xlink:href="class_catch_1_1_xml_reporter.html#a190d2ae83de78e06273fa476d3729771" target="_top" xlink:title=" ">
<polygon fill="white" stroke="black" points="176.5,-0.5 176.5,-30.5 288.5,-30.5 288.5,-0.5 176.5,-0.5"/>
<text text-anchor="start" x="184.5" y="-18.5" font-family="Helvetica,sans-Serif" font-size="10.00">Catch::XmlReporter</text>
<text text-anchor="middle" x="232.5" y="-7.5" font-family="Helvetica,sans-Serif" font-size="10.00">::writeSourceInfo</text>
</a>
</g>
</g>
<!-- Node1&#45;&gt;Node11 -->
<g id="edge11" class="edge">
<title>Node1&#45;&gt;Node11</title>
<path fill="none" stroke="midnightblue" d="M64.68,-150.35C78.2,-125.13 108.59,-74.44 148,-45.5 153.8,-41.24 160.27,-37.53 166.97,-34.32"/>
<polygon fill="midnightblue" stroke="midnightblue" points="168.47,-37.48 176.2,-30.24 165.64,-31.08 168.47,-37.48"/>
</g>
<!-- Node4 -->
<g id="node4" class="node">
<title>Node4</title>
<g id="a_node4"><a xlink:href="namespace_catch.html#a98d058468488c486a9cb5c8463f3ba29" target="_top" xlink:title=" ">
<polygon fill="white" stroke="black" points="356,-219.5 356,-249.5 523,-249.5 523,-219.5 356,-219.5"/>
<text text-anchor="start" x="364" y="-237.5" font-family="Helvetica,sans-Serif" font-size="10.00">Catch::getCurrentNanoseconds</text>
<text text-anchor="middle" x="439.5" y="-226.5" font-family="Helvetica,sans-Serif" font-size="10.00">SinceEpoch</text>
</a>
</g>
</g>
<!-- Node3&#45;&gt;Node4 -->
<g id="edge3" class="edge">
<title>Node3&#45;&gt;Node4</title>
<path fill="none" stroke="midnightblue" d="M286.03,-234.5C304.28,-234.5 325.32,-234.5 345.84,-234.5"/>
<polygon fill="midnightblue" stroke="midnightblue" points="345.85,-238 355.85,-234.5 345.85,-231 345.85,-238"/>
</g>
<!-- Node5&#45;&gt;Node2 -->
<g id="edge5" class="edge">
<title>Node5&#45;&gt;Node2</title>
<path fill="none" stroke="midnightblue" d="M314.82,-282.02C329.62,-283.75 345.04,-285.56 359.77,-287.28"/>
<polygon fill="midnightblue" stroke="midnightblue" points="359.5,-290.78 369.84,-288.46 360.31,-283.82 359.5,-290.78"/>
</g>
<!-- Node7 -->
<g id="node7" class="node">
<title>Node7</title>
<g id="a_node7"><a xlink:href="xml_8sw_8approved_8txt.html#ab8b8577604b92144025744c78797c3bc" target="_top" xlink:title=" ">
<polygon fill="white" stroke="black" points="417,-181 417,-200 462,-200 462,-181 417,-181"/>
<text text-anchor="middle" x="439.5" y="-188" font-family="Helvetica,sans-Serif" font-size="10.00">size_t</text>
</a>
</g>
</g>
<!-- Node6&#45;&gt;Node7 -->
<g id="edge7" class="edge">
<title>Node6&#45;&gt;Node7</title>
<path fill="none" stroke="midnightblue" d="M289.25,-190.5C326.9,-190.5 375.26,-190.5 406.56,-190.5"/>
<polygon fill="midnightblue" stroke="midnightblue" points="406.88,-194 416.88,-190.5 406.88,-187 406.88,-194"/>
</g>
<!-- Node11&#45;&gt;Node10 -->
<g id="edge12" class="edge">
<title>Node11&#45;&gt;Node10</title>
<path fill="none" stroke="midnightblue" d="M288.71,-21.42C305.39,-23.22 324.22,-25.24 342.75,-27.22"/>
<polygon fill="midnightblue" stroke="midnightblue" points="342.39,-30.71 352.7,-28.29 343.13,-23.75 342.39,-30.71"/>
</g>
</g>
</svg>
