<?xml version="1.0" encoding="UTF-8" standalone="no"?>
<!DOCTYPE svg PUBLIC "-//W3C//DTD SVG 1.1//EN"
 "http://www.w3.org/Graphics/SVG/1.1/DTD/svg11.dtd">
<!-- Generated by graphviz version 2.43.0 (0)
 -->
<!-- Title: clara::detail::ComposableParserImpl&lt; DerivedT &gt; Pages: 1 -->
<svg width="149pt" height="452pt"
 viewBox="0.00 0.00 149.00 452.00" xmlns="http://www.w3.org/2000/svg" xmlns:xlink="http://www.w3.org/1999/xlink">
<g id="graph0" class="graph" transform="scale(1 1) rotate(0) translate(4 448)">
<title>clara::detail::ComposableParserImpl&lt; DerivedT &gt;</title>
<polygon fill="white" stroke="transparent" points="-4,4 -4,-448 145,-448 145,4 -4,4"/>
<!-- Node1 -->
<g id="node1" class="node">
<title>Node1</title>
<g id="a_node1"><a xlink:title=" ">
<polygon fill="#bfbfbf" stroke="black" points="0,-226.5 0,-305.5 141,-305.5 141,-226.5 0,-226.5"/>
<text text-anchor="start" x="8" y="-293.5" font-family="Helvetica,sans-Serif" font-size="10.00">clara::detail::Composable</text>
<text text-anchor="middle" x="70.5" y="-282.5" font-family="Helvetica,sans-Serif" font-size="10.00">ParserImpl&lt; DerivedT &gt;</text>
<polyline fill="none" stroke="black" points="0,-275.5 141,-275.5 "/>
<text text-anchor="middle" x="70.5" y="-263.5" font-family="Helvetica,sans-Serif" font-size="10.00"> </text>
<polyline fill="none" stroke="black" points="0,-256.5 141,-256.5 "/>
<text text-anchor="start" x="8" y="-244.5" font-family="Helvetica,sans-Serif" font-size="10.00">+ operator|()</text>
<text text-anchor="start" x="8" y="-233.5" font-family="Helvetica,sans-Serif" font-size="10.00">+ operator+()</text>
</a>
</g>
</g>
<!-- Node3 -->
<g id="node3" class="node">
<title>Node3</title>
<g id="a_node3"><a xlink:href="classclara_1_1detail_1_1_parser_ref_impl.html" target="_top" xlink:title=" ">
<polygon fill="white" stroke="black" points="7,-0.5 7,-189.5 134,-189.5 134,-0.5 7,-0.5"/>
<text text-anchor="start" x="15" y="-177.5" font-family="Helvetica,sans-Serif" font-size="10.00">clara::detail::ParserRef</text>
<text text-anchor="middle" x="70.5" y="-166.5" font-family="Helvetica,sans-Serif" font-size="10.00">Impl&lt; DerivedT &gt;</text>
<polyline fill="none" stroke="black" points="7,-159.5 134,-159.5 "/>
<text text-anchor="start" x="15" y="-147.5" font-family="Helvetica,sans-Serif" font-size="10.00"># m_optionality</text>
<text text-anchor="start" x="15" y="-136.5" font-family="Helvetica,sans-Serif" font-size="10.00"># m_ref</text>
<text text-anchor="start" x="15" y="-125.5" font-family="Helvetica,sans-Serif" font-size="10.00"># m_hint</text>
<text text-anchor="start" x="15" y="-114.5" font-family="Helvetica,sans-Serif" font-size="10.00"># m_description</text>
<polyline fill="none" stroke="black" points="7,-107.5 134,-107.5 "/>
<text text-anchor="start" x="15" y="-95.5" font-family="Helvetica,sans-Serif" font-size="10.00">+ ParserRefImpl()</text>
<text text-anchor="start" x="15" y="-84.5" font-family="Helvetica,sans-Serif" font-size="10.00">+ ParserRefImpl()</text>
<text text-anchor="start" x="15" y="-73.5" font-family="Helvetica,sans-Serif" font-size="10.00">+ operator()()</text>
<text text-anchor="start" x="15" y="-62.5" font-family="Helvetica,sans-Serif" font-size="10.00">+ optional()</text>
<text text-anchor="start" x="15" y="-51.5" font-family="Helvetica,sans-Serif" font-size="10.00">+ required()</text>
<text text-anchor="start" x="15" y="-40.5" font-family="Helvetica,sans-Serif" font-size="10.00">+ isOptional()</text>
<text text-anchor="start" x="15" y="-29.5" font-family="Helvetica,sans-Serif" font-size="10.00">+ cardinality()</text>
<text text-anchor="start" x="15" y="-18.5" font-family="Helvetica,sans-Serif" font-size="10.00">+ hint()</text>
<text text-anchor="start" x="15" y="-7.5" font-family="Helvetica,sans-Serif" font-size="10.00"># ParserRefImpl()</text>
</a>
</g>
</g>
<!-- Node1&#45;&gt;Node3 -->
<g id="edge2" class="edge">
<title>Node1&#45;&gt;Node3</title>
<path fill="none" stroke="midnightblue" d="M70.5,-215.97C70.5,-207.6 70.5,-198.67 70.5,-189.6"/>
<polygon fill="none" stroke="midnightblue" points="67,-216.23 70.5,-226.23 74,-216.23 67,-216.23"/>
</g>
<!-- Node2 -->
<g id="node2" class="node">
<title>Node2</title>
<g id="a_node2"><a xlink:href="classclara_1_1detail_1_1_parser_base.html" target="_top" xlink:title=" ">
<polygon fill="white" stroke="black" points="3.5,-342.5 3.5,-443.5 137.5,-443.5 137.5,-342.5 3.5,-342.5"/>
<text text-anchor="middle" x="70.5" y="-431.5" font-family="Helvetica,sans-Serif" font-size="10.00">clara::detail::ParserBase</text>
<polyline fill="none" stroke="black" points="3.5,-424.5 137.5,-424.5 "/>
<text text-anchor="middle" x="70.5" y="-412.5" font-family="Helvetica,sans-Serif" font-size="10.00"> </text>
<polyline fill="none" stroke="black" points="3.5,-405.5 137.5,-405.5 "/>
<text text-anchor="start" x="11.5" y="-393.5" font-family="Helvetica,sans-Serif" font-size="10.00">+ ~ParserBase()</text>
<text text-anchor="start" x="11.5" y="-382.5" font-family="Helvetica,sans-Serif" font-size="10.00">+ validate()</text>
<text text-anchor="start" x="11.5" y="-371.5" font-family="Helvetica,sans-Serif" font-size="10.00">+ parse()</text>
<text text-anchor="start" x="11.5" y="-360.5" font-family="Helvetica,sans-Serif" font-size="10.00">+ cardinality()</text>
<text text-anchor="start" x="11.5" y="-349.5" font-family="Helvetica,sans-Serif" font-size="10.00">+ parse()</text>
</a>
</g>
</g>
<!-- Node2&#45;&gt;Node1 -->
<g id="edge1" class="edge">
<title>Node2&#45;&gt;Node1</title>
<path fill="none" stroke="midnightblue" d="M70.5,-332.19C70.5,-323.22 70.5,-314.18 70.5,-305.81"/>
<polygon fill="none" stroke="midnightblue" points="67,-332.24 70.5,-342.24 74,-332.24 67,-332.24"/>
</g>
</g>
</svg>
