<?xml version="1.0" encoding="UTF-8" standalone="no"?>
<!DOCTYPE svg PUBLIC "-//W3C//DTD SVG 1.1//EN"
 "http://www.w3.org/Graphics/SVG/1.1/DTD/svg11.dtd">
<!-- Generated by graphviz version 2.43.0 (0)
 -->
<!-- Title: Catch::XmlReporter::sectionEnded Pages: 1 -->
<svg width="704pt" height="176pt"
 viewBox="0.00 0.00 704.00 175.50" xmlns="http://www.w3.org/2000/svg" xmlns:xlink="http://www.w3.org/1999/xlink">
<g id="graph0" class="graph" transform="scale(1 1) rotate(0) translate(4 171.5)">
<title>Catch::XmlReporter::sectionEnded</title>
<polygon fill="white" stroke="transparent" points="-4,4 -4,-171.5 700,-171.5 700,4 -4,4"/>
<!-- Node1 -->
<g id="node1" class="node">
<title>Node1</title>
<g id="a_node1"><a xlink:title=" ">
<polygon fill="#bfbfbf" stroke="black" points="0,-73.5 0,-103.5 112,-103.5 112,-73.5 0,-73.5"/>
<text text-anchor="start" x="8" y="-91.5" font-family="Helvetica,sans-Serif" font-size="10.00">Catch::XmlReporter</text>
<text text-anchor="middle" x="56" y="-80.5" font-family="Helvetica,sans-Serif" font-size="10.00">::sectionEnded</text>
</a>
</g>
</g>
<!-- Node2 -->
<g id="node2" class="node">
<title>Node2</title>
<g id="a_node2"><a xlink:href="class_catch_1_1_xml_writer.html#a548009dad62cd446371e0b76775ce657" target="_top" xlink:title=" ">
<polygon fill="white" stroke="black" points="148,-148 148,-167 312,-167 312,-148 148,-148"/>
<text text-anchor="middle" x="230" y="-155" font-family="Helvetica,sans-Serif" font-size="10.00">Catch::XmlWriter::endElement</text>
</a>
</g>
</g>
<!-- Node1&#45;&gt;Node2 -->
<g id="edge1" class="edge">
<title>Node1&#45;&gt;Node2</title>
<path fill="none" stroke="midnightblue" d="M80.47,-103.73C98.36,-114.75 123.93,-129.26 148,-138.5 154.68,-141.06 161.8,-143.34 168.94,-145.36"/>
<polygon fill="midnightblue" stroke="midnightblue" points="168.1,-148.75 178.67,-147.94 169.9,-141.99 168.1,-148.75"/>
</g>
<!-- Node3 -->
<g id="node3" class="node">
<title>Node3</title>
<g id="a_node3"><a xlink:href="class_catch_1_1_xml_writer.html#ad2fbf17f0dc39443b2db8ab614f4c625" target="_top" xlink:title=" ">
<polygon fill="white" stroke="black" points="160,-98.5 160,-128.5 300,-128.5 300,-98.5 160,-98.5"/>
<text text-anchor="start" x="168" y="-116.5" font-family="Helvetica,sans-Serif" font-size="10.00">Catch::XmlWriter::scoped</text>
<text text-anchor="middle" x="230" y="-105.5" font-family="Helvetica,sans-Serif" font-size="10.00">Element</text>
</a>
</g>
</g>
<!-- Node1&#45;&gt;Node3 -->
<g id="edge2" class="edge">
<title>Node1&#45;&gt;Node3</title>
<path fill="none" stroke="midnightblue" d="M112.37,-96.55C124.3,-98.28 137.14,-100.15 149.78,-101.99"/>
<polygon fill="midnightblue" stroke="midnightblue" points="149.46,-105.48 159.86,-103.45 150.47,-98.55 149.46,-105.48"/>
</g>
<!-- Node6 -->
<g id="node6" class="node">
<title>Node6</title>
<g id="a_node6"><a xlink:href="struct_catch_1_1_streaming_reporter_base.html#ab889c47d829ddb5a2b96b46e1e09d207" target="_top" xlink:title=" ">
<polygon fill="white" stroke="black" points="158.5,-49.5 158.5,-79.5 301.5,-79.5 301.5,-49.5 158.5,-49.5"/>
<text text-anchor="start" x="166.5" y="-67.5" font-family="Helvetica,sans-Serif" font-size="10.00">Catch::StreamingReporter</text>
<text text-anchor="middle" x="230" y="-56.5" font-family="Helvetica,sans-Serif" font-size="10.00">Base::sectionEnded</text>
</a>
</g>
</g>
<!-- Node1&#45;&gt;Node6 -->
<g id="edge5" class="edge">
<title>Node1&#45;&gt;Node6</title>
<path fill="none" stroke="midnightblue" d="M112.37,-80.77C123.8,-79.18 136.06,-77.47 148.19,-75.78"/>
<polygon fill="midnightblue" stroke="midnightblue" points="148.9,-79.21 158.32,-74.36 147.93,-72.28 148.9,-79.21"/>
</g>
<!-- Node7 -->
<g id="node7" class="node">
<title>Node7</title>
<g id="a_node7"><a xlink:href="class_catch_1_1_xml_writer_1_1_scoped_element.html#aa45e9a057a4086cefee0ce291589f362" target="_top" xlink:title=" ">
<polygon fill="white" stroke="black" points="159.5,-0.5 159.5,-30.5 300.5,-30.5 300.5,-0.5 159.5,-0.5"/>
<text text-anchor="start" x="167.5" y="-18.5" font-family="Helvetica,sans-Serif" font-size="10.00">Catch::XmlWriter::Scoped</text>
<text text-anchor="middle" x="230" y="-7.5" font-family="Helvetica,sans-Serif" font-size="10.00">Element::writeAttribute</text>
</a>
</g>
</g>
<!-- Node1&#45;&gt;Node7 -->
<g id="edge6" class="edge">
<title>Node1&#45;&gt;Node7</title>
<path fill="none" stroke="midnightblue" d="M82.66,-73.31C100.56,-63.14 125.22,-49.93 148,-40.5 153.71,-38.14 159.73,-35.88 165.8,-33.75"/>
<polygon fill="midnightblue" stroke="midnightblue" points="166.99,-37.04 175.34,-30.52 164.75,-30.41 166.99,-37.04"/>
</g>
<!-- Node4 -->
<g id="node4" class="node">
<title>Node4</title>
<g id="a_node4"><a xlink:href="class_catch_1_1_xml_writer.html#a5e5190bcb1f47a76ddca863591a6cc00" target="_top" xlink:title=" ">
<polygon fill="white" stroke="black" points="350,-104 350,-123 519,-123 519,-104 350,-104"/>
<text text-anchor="middle" x="434.5" y="-111" font-family="Helvetica,sans-Serif" font-size="10.00">Catch::XmlWriter::startElement</text>
</a>
</g>
</g>
<!-- Node3&#45;&gt;Node4 -->
<g id="edge3" class="edge">
<title>Node3&#45;&gt;Node4</title>
<path fill="none" stroke="midnightblue" d="M300.12,-113.5C312.9,-113.5 326.45,-113.5 339.82,-113.5"/>
<polygon fill="midnightblue" stroke="midnightblue" points="339.99,-117 349.99,-113.5 339.99,-110 339.99,-117"/>
</g>
<!-- Node5 -->
<g id="node5" class="node">
<title>Node5</title>
<g id="a_node5"><a xlink:href="class_catch_1_1_xml_writer.html#aba98703d9852416e237de82aed4a9c4f" target="_top" xlink:title=" ">
<polygon fill="white" stroke="black" points="557,-98.5 557,-128.5 696,-128.5 696,-98.5 557,-98.5"/>
<text text-anchor="start" x="565" y="-116.5" font-family="Helvetica,sans-Serif" font-size="10.00">Catch::XmlWriter::ensure</text>
<text text-anchor="middle" x="626.5" y="-105.5" font-family="Helvetica,sans-Serif" font-size="10.00">TagClosed</text>
</a>
</g>
</g>
<!-- Node4&#45;&gt;Node5 -->
<g id="edge4" class="edge">
<title>Node4&#45;&gt;Node5</title>
<path fill="none" stroke="midnightblue" d="M519.11,-113.5C528.3,-113.5 537.63,-113.5 546.76,-113.5"/>
<polygon fill="midnightblue" stroke="midnightblue" points="546.95,-117 556.95,-113.5 546.95,-110 546.95,-117"/>
</g>
<!-- Node8 -->
<g id="node8" class="node">
<title>Node8</title>
<g id="a_node8"><a xlink:href="class_catch_1_1_xml_writer.html#ad433310b59d30e0fedc7130dc11c563b" target="_top" xlink:title=" ">
<polygon fill="white" stroke="black" points="348,-6 348,-25 521,-25 521,-6 348,-6"/>
<text text-anchor="middle" x="434.5" y="-13" font-family="Helvetica,sans-Serif" font-size="10.00">Catch::XmlWriter::writeAttribute</text>
</a>
</g>
</g>
<!-- Node7&#45;&gt;Node8 -->
<g id="edge7" class="edge">
<title>Node7&#45;&gt;Node8</title>
<path fill="none" stroke="midnightblue" d="M300.69,-15.5C312.7,-15.5 325.36,-15.5 337.91,-15.5"/>
<polygon fill="midnightblue" stroke="midnightblue" points="337.93,-19 347.93,-15.5 337.93,-12 337.93,-19"/>
</g>
</g>
</svg>
