<?xml version="1.0" encoding="UTF-8" standalone="no"?>
<!DOCTYPE svg PUBLIC "-//W3C//DTD SVG 1.1//EN"
 "http://www.w3.org/Graphics/SVG/1.1/DTD/svg11.dtd">
<!-- Generated by graphviz version 2.43.0 (0)
 -->
<!-- Title: Catch::Singleton::getMutable Pages: 1 -->
<svg width="567pt" height="264pt"
 viewBox="0.00 0.00 567.00 264.00" xmlns="http://www.w3.org/2000/svg" xmlns:xlink="http://www.w3.org/1999/xlink">
<g id="graph0" class="graph" transform="scale(1 1) rotate(0) translate(4 260)">
<title>Catch::Singleton::getMutable</title>
<polygon fill="white" stroke="transparent" points="-4,4 -4,-260 563,-260 563,4 -4,4"/>
<!-- Node1 -->
<g id="node1" class="node">
<title>Node1</title>
<g id="a_node1"><a xlink:title=" ">
<polygon fill="#bfbfbf" stroke="black" points="401,-88.5 401,-107.5 559,-107.5 559,-88.5 401,-88.5"/>
<text text-anchor="middle" x="480" y="-95.5" font-family="Helvetica,sans-Serif" font-size="10.00">Catch::Singleton::getMutable</text>
</a>
</g>
</g>
<!-- Node2 -->
<g id="node2" class="node">
<title>Node2</title>
<g id="a_node2"><a xlink:href="namespace_catch.html#a585459763f2c7610e57de2dd22dd1ad8" target="_top" xlink:title=" ">
<polygon fill="white" stroke="black" points="199,-110.5 199,-129.5 365,-129.5 365,-110.5 199,-110.5"/>
<text text-anchor="middle" x="282" y="-117.5" font-family="Helvetica,sans-Serif" font-size="10.00">Catch::getMutableRegistryHub</text>
</a>
</g>
</g>
<!-- Node1&#45;&gt;Node2 -->
<g id="edge1" class="edge">
<title>Node1&#45;&gt;Node2</title>
<path fill="none" stroke="midnightblue" d="M390.99,-107.88C382.42,-108.84 373.76,-109.81 365.26,-110.77"/>
<polygon fill="midnightblue" stroke="midnightblue" points="391.43,-111.35 400.97,-106.76 390.64,-104.4 391.43,-111.35"/>
</g>
<!-- Node9 -->
<g id="node9" class="node">
<title>Node9</title>
<g id="a_node9"><a xlink:href="class_catch_1_1_reusable_string_stream.html#aba9384e258a4db3178447b6a58414712" target="_top" xlink:title=" ">
<polygon fill="white" stroke="black" points="202.5,-61 202.5,-91 361.5,-91 361.5,-61 202.5,-61"/>
<text text-anchor="start" x="210.5" y="-79" font-family="Helvetica,sans-Serif" font-size="10.00">Catch::ReusableStringStream</text>
<text text-anchor="middle" x="282" y="-68" font-family="Helvetica,sans-Serif" font-size="10.00">::~ReusableStringStream</text>
</a>
</g>
</g>
<!-- Node1&#45;&gt;Node9 -->
<g id="edge8" class="edge">
<title>Node1&#45;&gt;Node9</title>
<path fill="none" stroke="midnightblue" d="M390.9,-88.11C381.18,-87.02 371.32,-85.91 361.72,-84.84"/>
<polygon fill="midnightblue" stroke="midnightblue" points="390.64,-91.6 400.97,-89.24 391.43,-84.65 390.64,-91.6"/>
</g>
<!-- Node3 -->
<g id="node3" class="node">
<title>Node3</title>
<g id="a_node3"><a xlink:href="struct_catch_1_1_auto_reg.html#a7eba02fb9d80b9896bf5a6517369af28" target="_top" xlink:title=" ">
<polygon fill="white" stroke="black" points="12,-236.5 12,-255.5 151,-255.5 151,-236.5 12,-236.5"/>
<text text-anchor="middle" x="81.5" y="-243.5" font-family="Helvetica,sans-Serif" font-size="10.00">Catch::AutoReg::AutoReg</text>
</a>
</g>
</g>
<!-- Node2&#45;&gt;Node3 -->
<g id="edge2" class="edge">
<title>Node2&#45;&gt;Node3</title>
<path fill="none" stroke="midnightblue" d="M266.68,-137.68C246.25,-161.68 206.38,-204.19 163,-227 155.63,-230.88 147.47,-233.97 139.25,-236.44"/>
<polygon fill="midnightblue" stroke="midnightblue" points="269.58,-139.66 273.3,-129.74 264.21,-135.18 269.58,-139.66"/>
</g>
<!-- Node4 -->
<g id="node4" class="node">
<title>Node4</title>
<g id="a_node4"><a xlink:href="class_catch_1_1_exception_translator_registrar.html#aa73229de911f26b1df6c6c87c4d9e04e" target="_top" xlink:title=" ">
<polygon fill="white" stroke="black" points="0,-176.5 0,-217.5 163,-217.5 163,-176.5 0,-176.5"/>
<text text-anchor="start" x="8" y="-205.5" font-family="Helvetica,sans-Serif" font-size="10.00">Catch::ExceptionTranslator</text>
<text text-anchor="start" x="8" y="-194.5" font-family="Helvetica,sans-Serif" font-size="10.00">Registrar::ExceptionTranslator</text>
<text text-anchor="middle" x="81.5" y="-183.5" font-family="Helvetica,sans-Serif" font-size="10.00">Registrar</text>
</a>
</g>
</g>
<!-- Node2&#45;&gt;Node4 -->
<g id="edge3" class="edge">
<title>Node2&#45;&gt;Node4</title>
<path fill="none" stroke="midnightblue" d="M248.02,-133.37C224.4,-142.88 191.81,-155.9 163,-167 155.07,-170.06 146.68,-173.24 138.42,-176.34"/>
<polygon fill="midnightblue" stroke="midnightblue" points="249.59,-136.51 257.55,-129.52 246.97,-130.01 249.59,-136.51"/>
</g>
<!-- Node5 -->
<g id="node5" class="node">
<title>Node5</title>
<g id="a_node5"><a xlink:href="class_catch_1_1_listener_registrar.html#a78774bfcd1f56a1da244656da0ea47ad" target="_top" xlink:title=" ">
<polygon fill="white" stroke="black" points="14.5,-127 14.5,-157 148.5,-157 148.5,-127 14.5,-127"/>
<text text-anchor="start" x="22.5" y="-145" font-family="Helvetica,sans-Serif" font-size="10.00">Catch::ListenerRegistrar</text>
<text text-anchor="middle" x="81.5" y="-134" font-family="Helvetica,sans-Serif" font-size="10.00">::ListenerRegistrar</text>
</a>
</g>
</g>
<!-- Node2&#45;&gt;Node5 -->
<g id="edge4" class="edge">
<title>Node2&#45;&gt;Node5</title>
<path fill="none" stroke="midnightblue" d="M188.56,-130.25C175.06,-131.74 161.4,-133.26 148.57,-134.68"/>
<polygon fill="midnightblue" stroke="midnightblue" points="189.28,-133.69 198.83,-129.11 188.5,-126.73 189.28,-133.69"/>
</g>
<!-- Node6 -->
<g id="node6" class="node">
<title>Node6</title>
<g id="a_node6"><a xlink:href="namespace_catch.html#ad0c3dd7b4c55aeb3a31a7a8b13c17cfb" target="_top" xlink:title=" ">
<polygon fill="white" stroke="black" points="7,-88.5 7,-107.5 156,-107.5 156,-88.5 7,-88.5"/>
<text text-anchor="middle" x="81.5" y="-95.5" font-family="Helvetica,sans-Serif" font-size="10.00">Catch::registerTestMethods</text>
</a>
</g>
</g>
<!-- Node2&#45;&gt;Node6 -->
<g id="edge5" class="edge">
<title>Node2&#45;&gt;Node6</title>
<path fill="none" stroke="midnightblue" d="M188.79,-109.78C177.81,-108.56 166.71,-107.33 156.04,-106.15"/>
<polygon fill="midnightblue" stroke="midnightblue" points="188.5,-113.27 198.83,-110.89 189.28,-106.31 188.5,-113.27"/>
</g>
<!-- Node7 -->
<g id="node7" class="node">
<title>Node7</title>
<g id="a_node7"><a xlink:href="class_catch_1_1_reporter_registrar.html#a8fe330fcb9d1dd44b5a7262ddf51fc62" target="_top" xlink:title=" ">
<polygon fill="white" stroke="black" points="13,-39 13,-69 150,-69 150,-39 13,-39"/>
<text text-anchor="start" x="21" y="-57" font-family="Helvetica,sans-Serif" font-size="10.00">Catch::ReporterRegistrar</text>
<text text-anchor="middle" x="81.5" y="-46" font-family="Helvetica,sans-Serif" font-size="10.00">::ReporterRegistrar</text>
</a>
</g>
</g>
<!-- Node2&#45;&gt;Node7 -->
<g id="edge6" class="edge">
<title>Node2&#45;&gt;Node7</title>
<path fill="none" stroke="midnightblue" d="M218.42,-107.72C211.77,-105.76 205.18,-103.53 199,-101 181.64,-93.9 180.08,-86.73 163,-79 154.87,-75.32 146.04,-71.98 137.31,-69.01"/>
<polygon fill="midnightblue" stroke="midnightblue" points="217.59,-111.12 228.16,-110.39 219.45,-104.37 217.59,-111.12"/>
</g>
<!-- Node8 -->
<g id="node8" class="node">
<title>Node8</title>
<g id="a_node8"><a xlink:href="class_catch_1_1_session.html#a4564992e2b028770e38a1dcc6fff8b34" target="_top" xlink:title=" ">
<polygon fill="white" stroke="black" points="16,-0.5 16,-19.5 147,-19.5 147,-0.5 16,-0.5"/>
<text text-anchor="middle" x="81.5" y="-7.5" font-family="Helvetica,sans-Serif" font-size="10.00">Catch::Session::Session</text>
</a>
</g>
</g>
<!-- Node2&#45;&gt;Node8 -->
<g id="edge7" class="edge">
<title>Node2&#45;&gt;Node8</title>
<path fill="none" stroke="midnightblue" d="M206.35,-105.96C203.78,-104.46 201.32,-102.82 199,-101 171.15,-79.18 190.68,-52.04 163,-30 157.59,-25.69 151.38,-22.3 144.86,-19.63"/>
<polygon fill="midnightblue" stroke="midnightblue" points="204.92,-109.16 215.44,-110.48 208.04,-102.89 204.92,-109.16"/>
</g>
</g>
</svg>
