<?xml version="1.0" encoding="UTF-8" standalone="no"?>
<!DOCTYPE svg PUBLIC "-//W3C//DTD SVG 1.1//EN"
 "http://www.w3.org/Graphics/SVG/1.1/DTD/svg11.dtd">
<!-- Generated by graphviz version 2.43.0 (0)
 -->
<!-- Title: Catch::AssertionHandler::handleUnexpectedInflightException Pages: 1 -->
<svg width="811pt" height="127pt"
 viewBox="0.00 0.00 811.00 127.00" xmlns="http://www.w3.org/2000/svg" xmlns:xlink="http://www.w3.org/1999/xlink">
<g id="graph0" class="graph" transform="scale(1 1) rotate(0) translate(4 123)">
<title>Catch::AssertionHandler::handleUnexpectedInflightException</title>
<polygon fill="white" stroke="transparent" points="-4,4 -4,-123 807,-123 807,4 -4,4"/>
<!-- Node1 -->
<g id="node1" class="node">
<title>Node1</title>
<g id="a_node1"><a xlink:title=" ">
<polygon fill="#bfbfbf" stroke="black" points="0,-66.5 0,-96.5 196,-96.5 196,-66.5 0,-66.5"/>
<text text-anchor="start" x="8" y="-84.5" font-family="Helvetica,sans-Serif" font-size="10.00">Catch::AssertionHandler</text>
<text text-anchor="middle" x="98" y="-73.5" font-family="Helvetica,sans-Serif" font-size="10.00">::handleUnexpectedInflightException</text>
</a>
</g>
</g>
<!-- Node2 -->
<g id="node2" class="node">
<title>Node2</title>
<g id="a_node2"><a xlink:href="struct_catch_1_1_i_result_capture.html#afc97bc69829185222f955ebeef97adfe" target="_top" xlink:title=" ">
<polygon fill="white" stroke="black" points="232,-88.5 232,-118.5 428,-118.5 428,-88.5 232,-88.5"/>
<text text-anchor="start" x="240" y="-106.5" font-family="Helvetica,sans-Serif" font-size="10.00">Catch::IResultCapture</text>
<text text-anchor="middle" x="330" y="-95.5" font-family="Helvetica,sans-Serif" font-size="10.00">::handleUnexpectedInflightException</text>
</a>
</g>
</g>
<!-- Node1&#45;&gt;Node2 -->
<g id="edge1" class="edge">
<title>Node1&#45;&gt;Node2</title>
<path fill="none" stroke="midnightblue" d="M196.21,-90.8C204.67,-91.61 213.26,-92.43 221.79,-93.25"/>
<polygon fill="midnightblue" stroke="midnightblue" points="221.48,-96.73 231.77,-94.2 222.15,-89.76 221.48,-96.73"/>
</g>
<!-- Node3 -->
<g id="node3" class="node">
<title>Node3</title>
<g id="a_node3"><a xlink:href="namespace_catch.html#adafff91485eeeeb9e9333f317cc0e3b1" target="_top" xlink:title=" ">
<polygon fill="white" stroke="black" points="243.5,-50 243.5,-69 416.5,-69 416.5,-50 243.5,-50"/>
<text text-anchor="middle" x="330" y="-57" font-family="Helvetica,sans-Serif" font-size="10.00">Catch::translateActiveException</text>
</a>
</g>
</g>
<!-- Node1&#45;&gt;Node3 -->
<g id="edge2" class="edge">
<title>Node1&#45;&gt;Node3</title>
<path fill="none" stroke="midnightblue" d="M196.21,-72.2C208.47,-71.03 221,-69.83 233.24,-68.66"/>
<polygon fill="midnightblue" stroke="midnightblue" points="233.82,-72.12 243.44,-67.68 233.15,-65.15 233.82,-72.12"/>
</g>
<!-- Node4 -->
<g id="node4" class="node">
<title>Node4</title>
<g id="a_node4"><a xlink:href="struct_catch_1_1_i_registry_hub.html#a48347c170d9c583af73027a27b2f0bd4" target="_top" xlink:title=" ">
<polygon fill="white" stroke="black" points="469,-88.5 469,-118.5 644,-118.5 644,-88.5 469,-88.5"/>
<text text-anchor="start" x="477" y="-106.5" font-family="Helvetica,sans-Serif" font-size="10.00">Catch::IRegistryHub</text>
<text text-anchor="middle" x="556.5" y="-95.5" font-family="Helvetica,sans-Serif" font-size="10.00">::getExceptionTranslatorRegistry</text>
</a>
</g>
</g>
<!-- Node3&#45;&gt;Node4 -->
<g id="edge3" class="edge">
<title>Node3&#45;&gt;Node4</title>
<path fill="none" stroke="midnightblue" d="M379.71,-69.05C405.67,-74.13 438.38,-80.54 468.52,-86.45"/>
<polygon fill="midnightblue" stroke="midnightblue" points="468.15,-89.95 478.63,-88.43 469.49,-83.08 468.15,-89.95"/>
</g>
<!-- Node5 -->
<g id="node5" class="node">
<title>Node5</title>
<g id="a_node5"><a xlink:href="namespace_catch.html#a5d328566cb8da87b48f1fac3f319ac7a" target="_top" xlink:title=" ">
<polygon fill="white" stroke="black" points="493.5,-50 493.5,-69 619.5,-69 619.5,-50 493.5,-50"/>
<text text-anchor="middle" x="556.5" y="-57" font-family="Helvetica,sans-Serif" font-size="10.00">Catch::getRegistryHub</text>
</a>
</g>
</g>
<!-- Node3&#45;&gt;Node5 -->
<g id="edge4" class="edge">
<title>Node3&#45;&gt;Node5</title>
<path fill="none" stroke="midnightblue" d="M416.51,-59.5C438.45,-59.5 461.83,-59.5 483.04,-59.5"/>
<polygon fill="midnightblue" stroke="midnightblue" points="483.26,-63 493.26,-59.5 483.26,-56 483.26,-63"/>
</g>
<!-- Node7 -->
<g id="node7" class="node">
<title>Node7</title>
<g id="a_node7"><a xlink:href="struct_catch_1_1_i_exception_translator_registry.html#af76ae8c331a17f2a94c9720bc0d686bb" target="_top" xlink:title=" ">
<polygon fill="white" stroke="black" points="464,-0.5 464,-30.5 649,-30.5 649,-0.5 464,-0.5"/>
<text text-anchor="start" x="472" y="-18.5" font-family="Helvetica,sans-Serif" font-size="10.00">Catch::IExceptionTranslator</text>
<text text-anchor="middle" x="556.5" y="-7.5" font-family="Helvetica,sans-Serif" font-size="10.00">Registry::translateActiveException</text>
</a>
</g>
</g>
<!-- Node3&#45;&gt;Node7 -->
<g id="edge6" class="edge">
<title>Node3&#45;&gt;Node7</title>
<path fill="none" stroke="midnightblue" d="M379.71,-49.95C405.67,-44.87 438.38,-38.46 468.52,-32.55"/>
<polygon fill="midnightblue" stroke="midnightblue" points="469.49,-35.92 478.63,-30.57 468.15,-29.05 469.49,-35.92"/>
</g>
<!-- Node6 -->
<g id="node6" class="node">
<title>Node6</title>
<g id="a_node6"><a xlink:href="class_catch_1_1_singleton.html#aa1b2bb002acd8838489a225dbbaf2865" target="_top" xlink:title=" ">
<polygon fill="white" stroke="black" points="685,-50 685,-69 803,-69 803,-50 685,-50"/>
<text text-anchor="middle" x="744" y="-57" font-family="Helvetica,sans-Serif" font-size="10.00">Catch::Singleton::get</text>
</a>
</g>
</g>
<!-- Node5&#45;&gt;Node6 -->
<g id="edge5" class="edge">
<title>Node5&#45;&gt;Node6</title>
<path fill="none" stroke="midnightblue" d="M619.53,-59.5C637.22,-59.5 656.59,-59.5 674.64,-59.5"/>
<polygon fill="midnightblue" stroke="midnightblue" points="674.8,-63 684.8,-59.5 674.8,-56 674.8,-63"/>
</g>
</g>
</svg>
