<?xml version="1.0" encoding="UTF-8" standalone="no"?>
<!DOCTYPE svg PUBLIC "-//W3C//DTD SVG 1.1//EN"
 "http://www.w3.org/Graphics/SVG/1.1/DTD/svg11.dtd">
<!-- Generated by graphviz version 2.43.0 (0)
 -->
<!-- Title: Catch::XmlReporter::testCaseEnded Pages: 1 -->
<svg width="907pt" height="351pt"
 viewBox="0.00 0.00 907.00 350.50" xmlns="http://www.w3.org/2000/svg" xmlns:xlink="http://www.w3.org/1999/xlink">
<g id="graph0" class="graph" transform="scale(1 1) rotate(0) translate(4 346.5)">
<title>Catch::XmlReporter::testCaseEnded</title>
<polygon fill="white" stroke="transparent" points="-4,4 -4,-346.5 903,-346.5 903,4 -4,4"/>
<!-- Node1 -->
<g id="node1" class="node">
<title>Node1</title>
<g id="a_node1"><a xlink:title=" ">
<polygon fill="#bfbfbf" stroke="black" points="0,-161.5 0,-191.5 112,-191.5 112,-161.5 0,-161.5"/>
<text text-anchor="start" x="8" y="-179.5" font-family="Helvetica,sans-Serif" font-size="10.00">Catch::XmlReporter</text>
<text text-anchor="middle" x="56" y="-168.5" font-family="Helvetica,sans-Serif" font-size="10.00">::testCaseEnded</text>
</a>
</g>
</g>
<!-- Node2 -->
<g id="node2" class="node">
<title>Node2</title>
<g id="a_node2"><a xlink:href="struct_catch_1_1_counts.html#a33bd996e016030155b99fe1c51c08991" target="_top" xlink:title=" ">
<polygon fill="white" stroke="black" points="172,-323 172,-342 288,-342 288,-323 172,-323"/>
<text text-anchor="middle" x="230" y="-330" font-family="Helvetica,sans-Serif" font-size="10.00">Catch::Counts::allOk</text>
</a>
</g>
</g>
<!-- Node1&#45;&gt;Node2 -->
<g id="edge1" class="edge">
<title>Node1&#45;&gt;Node2</title>
<path fill="none" stroke="midnightblue" d="M62.6,-191.59C74.01,-220.15 102.75,-282.05 148,-313.5 152.34,-316.51 157.09,-319.06 162.04,-321.2"/>
<polygon fill="midnightblue" stroke="midnightblue" points="161.18,-324.61 171.78,-324.84 163.64,-318.06 161.18,-324.61"/>
</g>
<!-- Node3 -->
<g id="node3" class="node">
<title>Node3</title>
<g id="a_node3"><a xlink:href="class_catch_1_1_xml_writer.html#a548009dad62cd446371e0b76775ce657" target="_top" xlink:title=" ">
<polygon fill="white" stroke="black" points="148,-285 148,-304 312,-304 312,-285 148,-285"/>
<text text-anchor="middle" x="230" y="-292" font-family="Helvetica,sans-Serif" font-size="10.00">Catch::XmlWriter::endElement</text>
</a>
</g>
</g>
<!-- Node1&#45;&gt;Node3 -->
<g id="edge2" class="edge">
<title>Node1&#45;&gt;Node3</title>
<path fill="none" stroke="midnightblue" d="M66.46,-191.52C81.13,-213.52 111.52,-254.18 148,-275.5 151.72,-277.67 155.67,-279.6 159.75,-281.3"/>
<polygon fill="midnightblue" stroke="midnightblue" points="158.85,-284.7 169.45,-284.89 161.28,-278.14 158.85,-284.7"/>
</g>
<!-- Node4 -->
<g id="node4" class="node">
<title>Node4</title>
<g id="a_node4"><a xlink:href="class_catch_1_1_timer.html#a065e37e3c9eb16bd4dcf41971d8deedc" target="_top" xlink:title=" ">
<polygon fill="white" stroke="black" points="160.5,-235.5 160.5,-265.5 299.5,-265.5 299.5,-235.5 160.5,-235.5"/>
<text text-anchor="start" x="168.5" y="-253.5" font-family="Helvetica,sans-Serif" font-size="10.00">Catch::Timer::getElapsed</text>
<text text-anchor="middle" x="230" y="-242.5" font-family="Helvetica,sans-Serif" font-size="10.00">Seconds</text>
</a>
</g>
</g>
<!-- Node1&#45;&gt;Node4 -->
<g id="edge3" class="edge">
<title>Node1&#45;&gt;Node4</title>
<path fill="none" stroke="midnightblue" d="M81.01,-191.55C98.96,-202.34 124.38,-216.64 148,-226.5 152.7,-228.46 157.62,-230.33 162.61,-232.1"/>
<polygon fill="midnightblue" stroke="midnightblue" points="161.65,-235.47 172.25,-235.37 163.9,-228.85 161.65,-235.47"/>
</g>
<!-- Node8 -->
<g id="node8" class="node">
<title>Node8</title>
<g id="a_node8"><a xlink:href="class_catch_1_1_xml_writer.html#ad2fbf17f0dc39443b2db8ab614f4c625" target="_top" xlink:title=" ">
<polygon fill="white" stroke="black" points="160,-186.5 160,-216.5 300,-216.5 300,-186.5 160,-186.5"/>
<text text-anchor="start" x="168" y="-204.5" font-family="Helvetica,sans-Serif" font-size="10.00">Catch::XmlWriter::scoped</text>
<text text-anchor="middle" x="230" y="-193.5" font-family="Helvetica,sans-Serif" font-size="10.00">Element</text>
</a>
</g>
</g>
<!-- Node1&#45;&gt;Node8 -->
<g id="edge7" class="edge">
<title>Node1&#45;&gt;Node8</title>
<path fill="none" stroke="midnightblue" d="M112.37,-184.55C124.3,-186.28 137.14,-188.15 149.78,-189.99"/>
<polygon fill="midnightblue" stroke="midnightblue" points="149.46,-193.48 159.86,-191.45 150.47,-186.55 149.46,-193.48"/>
</g>
<!-- Node11 -->
<g id="node11" class="node">
<title>Node11</title>
<g id="a_node11"><a xlink:href="struct_catch_1_1_streaming_reporter_base.html#ae9e916b4aeb5e9080f3b77a10d69c5f6" target="_top" xlink:title=" ">
<polygon fill="white" stroke="black" points="158.5,-137.5 158.5,-167.5 301.5,-167.5 301.5,-137.5 158.5,-137.5"/>
<text text-anchor="start" x="166.5" y="-155.5" font-family="Helvetica,sans-Serif" font-size="10.00">Catch::StreamingReporter</text>
<text text-anchor="middle" x="230" y="-144.5" font-family="Helvetica,sans-Serif" font-size="10.00">Base::testCaseEnded</text>
</a>
</g>
</g>
<!-- Node1&#45;&gt;Node11 -->
<g id="edge10" class="edge">
<title>Node1&#45;&gt;Node11</title>
<path fill="none" stroke="midnightblue" d="M112.37,-168.77C123.8,-167.18 136.06,-165.47 148.19,-163.78"/>
<polygon fill="midnightblue" stroke="midnightblue" points="148.9,-167.21 158.32,-162.36 147.93,-160.28 148.9,-167.21"/>
</g>
<!-- Node12 -->
<g id="node12" class="node">
<title>Node12</title>
<g id="a_node12"><a xlink:href="namespace_catch.html#aea28035c2fa625ced568c1765e82a3bc" target="_top" xlink:title="Returns a new string without whitespace at the start/end.">
<polygon fill="white" stroke="black" points="194.5,-99 194.5,-118 265.5,-118 265.5,-99 194.5,-99"/>
<text text-anchor="middle" x="230" y="-106" font-family="Helvetica,sans-Serif" font-size="10.00">Catch::trim</text>
</a>
</g>
</g>
<!-- Node1&#45;&gt;Node12 -->
<g id="edge11" class="edge">
<title>Node1&#45;&gt;Node12</title>
<path fill="none" stroke="midnightblue" d="M80.89,-161.37C98.78,-150.62 124.17,-136.53 148,-127.5 159.5,-123.14 172.31,-119.58 184.29,-116.77"/>
<polygon fill="midnightblue" stroke="midnightblue" points="185.11,-120.17 194.11,-114.58 183.59,-113.34 185.11,-120.17"/>
</g>
<!-- Node13 -->
<g id="node13" class="node">
<title>Node13</title>
<g id="a_node13"><a xlink:href="class_catch_1_1_xml_writer_1_1_scoped_element.html#aa45e9a057a4086cefee0ce291589f362" target="_top" xlink:title=" ">
<polygon fill="white" stroke="black" points="159.5,-49.5 159.5,-79.5 300.5,-79.5 300.5,-49.5 159.5,-49.5"/>
<text text-anchor="start" x="167.5" y="-67.5" font-family="Helvetica,sans-Serif" font-size="10.00">Catch::XmlWriter::Scoped</text>
<text text-anchor="middle" x="230" y="-56.5" font-family="Helvetica,sans-Serif" font-size="10.00">Element::writeAttribute</text>
</a>
</g>
</g>
<!-- Node1&#45;&gt;Node13 -->
<g id="edge12" class="edge">
<title>Node1&#45;&gt;Node13</title>
<path fill="none" stroke="midnightblue" d="M68.94,-161.37C84.95,-142.03 115.21,-108.76 148,-89.5 151.64,-87.36 155.48,-85.39 159.43,-83.57"/>
<polygon fill="midnightblue" stroke="midnightblue" points="160.97,-86.72 168.81,-79.6 158.24,-80.28 160.97,-86.72"/>
</g>
<!-- Node15 -->
<g id="node15" class="node">
<title>Node15</title>
<g id="a_node15"><a xlink:href="class_catch_1_1_xml_writer_1_1_scoped_element.html#a00ffb16507baa238d079df0bf274dcbf" target="_top" xlink:title=" ">
<polygon fill="white" stroke="black" points="159.5,-0.5 159.5,-30.5 300.5,-30.5 300.5,-0.5 159.5,-0.5"/>
<text text-anchor="start" x="167.5" y="-18.5" font-family="Helvetica,sans-Serif" font-size="10.00">Catch::XmlWriter::Scoped</text>
<text text-anchor="middle" x="230" y="-7.5" font-family="Helvetica,sans-Serif" font-size="10.00">Element::writeText</text>
</a>
</g>
</g>
<!-- Node1&#45;&gt;Node15 -->
<g id="edge14" class="edge">
<title>Node1&#45;&gt;Node15</title>
<path fill="none" stroke="midnightblue" d="M62.95,-161.2C74.76,-132.85 103.9,-72.08 148,-39.5 149.87,-38.12 151.82,-36.82 153.83,-35.59"/>
<polygon fill="midnightblue" stroke="midnightblue" points="155.83,-38.49 162.98,-30.67 152.52,-32.32 155.83,-38.49"/>
</g>
<!-- Node5 -->
<g id="node5" class="node">
<title>Node5</title>
<g id="a_node5"><a xlink:href="class_catch_1_1_timer.html#a545de17a61a6fee1dbe3de5b0723e5fa" target="_top" xlink:title=" ">
<polygon fill="white" stroke="black" points="365,-235.5 365,-265.5 504,-265.5 504,-235.5 365,-235.5"/>
<text text-anchor="start" x="373" y="-253.5" font-family="Helvetica,sans-Serif" font-size="10.00">Catch::Timer::getElapsed</text>
<text text-anchor="middle" x="434.5" y="-242.5" font-family="Helvetica,sans-Serif" font-size="10.00">Microseconds</text>
</a>
</g>
</g>
<!-- Node4&#45;&gt;Node5 -->
<g id="edge4" class="edge">
<title>Node4&#45;&gt;Node5</title>
<path fill="none" stroke="midnightblue" d="M299.56,-250.5C317.19,-250.5 336.31,-250.5 354.43,-250.5"/>
<polygon fill="midnightblue" stroke="midnightblue" points="354.67,-254 364.67,-250.5 354.67,-247 354.67,-254"/>
</g>
<!-- Node6 -->
<g id="node6" class="node">
<title>Node6</title>
<g id="a_node6"><a xlink:href="class_catch_1_1_timer.html#a57be5d17ca868a2d6fb1eea84de665cf" target="_top" xlink:title=" ">
<polygon fill="white" stroke="black" points="557,-235.5 557,-265.5 696,-265.5 696,-235.5 557,-235.5"/>
<text text-anchor="start" x="565" y="-253.5" font-family="Helvetica,sans-Serif" font-size="10.00">Catch::Timer::getElapsed</text>
<text text-anchor="middle" x="626.5" y="-242.5" font-family="Helvetica,sans-Serif" font-size="10.00">Nanoseconds</text>
</a>
</g>
</g>
<!-- Node5&#45;&gt;Node6 -->
<g id="edge5" class="edge">
<title>Node5&#45;&gt;Node6</title>
<path fill="none" stroke="midnightblue" d="M504.09,-250.5C517.87,-250.5 532.44,-250.5 546.53,-250.5"/>
<polygon fill="midnightblue" stroke="midnightblue" points="546.69,-254 556.69,-250.5 546.69,-247 546.69,-254"/>
</g>
<!-- Node7 -->
<g id="node7" class="node">
<title>Node7</title>
<g id="a_node7"><a xlink:href="namespace_catch.html#a98d058468488c486a9cb5c8463f3ba29" target="_top" xlink:title=" ">
<polygon fill="white" stroke="black" points="732,-235.5 732,-265.5 899,-265.5 899,-235.5 732,-235.5"/>
<text text-anchor="start" x="740" y="-253.5" font-family="Helvetica,sans-Serif" font-size="10.00">Catch::getCurrentNanoseconds</text>
<text text-anchor="middle" x="815.5" y="-242.5" font-family="Helvetica,sans-Serif" font-size="10.00">SinceEpoch</text>
</a>
</g>
</g>
<!-- Node6&#45;&gt;Node7 -->
<g id="edge6" class="edge">
<title>Node6&#45;&gt;Node7</title>
<path fill="none" stroke="midnightblue" d="M696.07,-250.5C704.46,-250.5 713.14,-250.5 721.81,-250.5"/>
<polygon fill="midnightblue" stroke="midnightblue" points="721.97,-254 731.97,-250.5 721.97,-247 721.97,-254"/>
</g>
<!-- Node9 -->
<g id="node9" class="node">
<title>Node9</title>
<g id="a_node9"><a xlink:href="class_catch_1_1_xml_writer.html#a5e5190bcb1f47a76ddca863591a6cc00" target="_top" xlink:title=" ">
<polygon fill="white" stroke="black" points="350,-192 350,-211 519,-211 519,-192 350,-192"/>
<text text-anchor="middle" x="434.5" y="-199" font-family="Helvetica,sans-Serif" font-size="10.00">Catch::XmlWriter::startElement</text>
</a>
</g>
</g>
<!-- Node8&#45;&gt;Node9 -->
<g id="edge8" class="edge">
<title>Node8&#45;&gt;Node9</title>
<path fill="none" stroke="midnightblue" d="M300.12,-201.5C312.9,-201.5 326.45,-201.5 339.82,-201.5"/>
<polygon fill="midnightblue" stroke="midnightblue" points="339.99,-205 349.99,-201.5 339.99,-198 339.99,-205"/>
</g>
<!-- Node10 -->
<g id="node10" class="node">
<title>Node10</title>
<g id="a_node10"><a xlink:href="class_catch_1_1_xml_writer.html#aba98703d9852416e237de82aed4a9c4f" target="_top" xlink:title=" ">
<polygon fill="white" stroke="black" points="557,-186.5 557,-216.5 696,-216.5 696,-186.5 557,-186.5"/>
<text text-anchor="start" x="565" y="-204.5" font-family="Helvetica,sans-Serif" font-size="10.00">Catch::XmlWriter::ensure</text>
<text text-anchor="middle" x="626.5" y="-193.5" font-family="Helvetica,sans-Serif" font-size="10.00">TagClosed</text>
</a>
</g>
</g>
<!-- Node9&#45;&gt;Node10 -->
<g id="edge9" class="edge">
<title>Node9&#45;&gt;Node10</title>
<path fill="none" stroke="midnightblue" d="M519.11,-201.5C528.3,-201.5 537.63,-201.5 546.76,-201.5"/>
<polygon fill="midnightblue" stroke="midnightblue" points="546.95,-205 556.95,-201.5 546.95,-198 546.95,-205"/>
</g>
<!-- Node14 -->
<g id="node14" class="node">
<title>Node14</title>
<g id="a_node14"><a xlink:href="class_catch_1_1_xml_writer.html#ad433310b59d30e0fedc7130dc11c563b" target="_top" xlink:title=" ">
<polygon fill="white" stroke="black" points="348,-55 348,-74 521,-74 521,-55 348,-55"/>
<text text-anchor="middle" x="434.5" y="-62" font-family="Helvetica,sans-Serif" font-size="10.00">Catch::XmlWriter::writeAttribute</text>
</a>
</g>
</g>
<!-- Node13&#45;&gt;Node14 -->
<g id="edge13" class="edge">
<title>Node13&#45;&gt;Node14</title>
<path fill="none" stroke="midnightblue" d="M300.69,-64.5C312.7,-64.5 325.36,-64.5 337.91,-64.5"/>
<polygon fill="midnightblue" stroke="midnightblue" points="337.93,-68 347.93,-64.5 337.93,-61 337.93,-68"/>
</g>
</g>
</svg>
