<?xml version="1.0" encoding="UTF-8" standalone="no"?>
<!DOCTYPE svg PUBLIC "-//W3C//DTD SVG 1.1//EN"
 "http://www.w3.org/Graphics/SVG/1.1/DTD/svg11.dtd">
<!-- Generated by graphviz version 2.43.0 (0)
 -->
<!-- Title: Catch::clara::TextFlow::Column::iterator::operator++ Pages: 1 -->
<svg width="536pt" height="78pt"
 viewBox="0.00 0.00 536.00 77.50" xmlns="http://www.w3.org/2000/svg" xmlns:xlink="http://www.w3.org/1999/xlink">
<g id="graph0" class="graph" transform="scale(1 1) rotate(0) translate(4 73.5)">
<title>Catch::clara::TextFlow::Column::iterator::operator++</title>
<polygon fill="white" stroke="transparent" points="-4,4 -4,-73.5 532,-73.5 532,4 -4,4"/>
<!-- Node1 -->
<g id="node1" class="node">
<title>Node1</title>
<g id="a_node1"><a xlink:title=" ">
<polygon fill="#bfbfbf" stroke="black" points="0,-17 0,-47 166,-47 166,-17 0,-17"/>
<text text-anchor="start" x="8" y="-35" font-family="Helvetica,sans-Serif" font-size="10.00">Catch::clara::TextFlow</text>
<text text-anchor="middle" x="83" y="-24" font-family="Helvetica,sans-Serif" font-size="10.00">::Column::iterator::operator++</text>
</a>
</g>
</g>
<!-- Node2 -->
<g id="node2" class="node">
<title>Node2</title>
<g id="a_node2"><a xlink:href="class_catch_1_1clara_1_1_text_flow_1_1_column_1_1iterator.html#a40e04cef57ec93a51f172c433dfb48a6" target="_top" xlink:title=" ">
<polygon fill="white" stroke="black" points="202,-17 202,-47 368,-47 368,-17 202,-17"/>
<text text-anchor="start" x="210" y="-35" font-family="Helvetica,sans-Serif" font-size="10.00">Catch::clara::TextFlow</text>
<text text-anchor="middle" x="285" y="-24" font-family="Helvetica,sans-Serif" font-size="10.00">::Column::iterator::operator++</text>
</a>
</g>
</g>
<!-- Node1&#45;&gt;Node2 -->
<g id="edge1" class="edge">
<title>Node1&#45;&gt;Node2</title>
<path fill="none" stroke="midnightblue" d="M166.21,-32C174.56,-32 183.08,-32 191.53,-32"/>
<polygon fill="midnightblue" stroke="midnightblue" points="191.78,-35.5 201.78,-32 191.78,-28.5 191.78,-35.5"/>
</g>
<!-- Node3 -->
<g id="node3" class="node">
<title>Node3</title>
<g id="a_node3"><a xlink:href="namespace_catch_1_1clara_1_1_text_flow.html#a347fb120e0caf611298020cee0d9919e" target="_top" xlink:title=" ">
<polygon fill="white" stroke="black" points="404,-39 404,-69 528,-69 528,-39 404,-39"/>
<text text-anchor="start" x="412" y="-57" font-family="Helvetica,sans-Serif" font-size="10.00">Catch::clara::TextFlow</text>
<text text-anchor="middle" x="466" y="-46" font-family="Helvetica,sans-Serif" font-size="10.00">::isWhitespace</text>
</a>
</g>
</g>
<!-- Node2&#45;&gt;Node3 -->
<g id="edge2" class="edge">
<title>Node2&#45;&gt;Node3</title>
<path fill="none" stroke="midnightblue" d="M368.17,-42.1C376.73,-43.15 385.37,-44.21 393.8,-45.25"/>
<polygon fill="midnightblue" stroke="midnightblue" points="393.59,-48.75 403.94,-46.5 394.44,-41.8 393.59,-48.75"/>
</g>
<!-- Node4 -->
<g id="node4" class="node">
<title>Node4</title>
<g id="a_node4"><a xlink:href="xml_8sw_8approved_8txt.html#add174ec999e66e5d56cb44a7ed30290b" target="_top" xlink:title=" ">
<polygon fill="white" stroke="black" points="448,-0.5 448,-19.5 484,-19.5 484,-0.5 448,-0.5"/>
<text text-anchor="middle" x="466" y="-7.5" font-family="Helvetica,sans-Serif" font-size="10.00">size</text>
</a>
</g>
</g>
<!-- Node2&#45;&gt;Node4 -->
<g id="edge3" class="edge">
<title>Node2&#45;&gt;Node4</title>
<path fill="none" stroke="midnightblue" d="M368.17,-21.9C393.21,-18.82 419.03,-15.65 437.7,-13.36"/>
<polygon fill="midnightblue" stroke="midnightblue" points="438.31,-16.81 447.81,-12.11 437.46,-9.86 438.31,-16.81"/>
</g>
</g>
</svg>
