<?xml version="1.0" encoding="UTF-8" standalone="no"?>
<!DOCTYPE svg PUBLIC "-//W3C//DTD SVG 1.1//EN"
 "http://www.w3.org/Graphics/SVG/1.1/DTD/svg11.dtd">
<!-- Generated by graphviz version 2.43.0 (0)
 -->
<!-- Title: Catch::Singleton::get Pages: 1 -->
<!--zoomable 388 -->
<svg id="main" version="1.1" xmlns="http://www.w3.org/2000/svg" xmlns:xlink="http://www.w3.org/1999/xlink" xml:space="preserve" onload="init(evt)">
<style type="text/css"><![CDATA[
.edge:hover path { stroke: red; }
.edge:hover polygon { stroke: red; fill: red; }
]]></style>
<script type="text/javascript"><![CDATA[
var edges = document.getElementsByTagName('g');
if (edges && edges.length) {
  for (var i=0;i<edges.length;i++) {
    if (edges[i].id.substr(0,4)=='edge') {
      edges[i].setAttribute('class','edge');
    }
  }
}
]]></script>
        <defs>
                <circle id="rim" cx="0" cy="0" r="7"/>
                <circle id="rim2" cx="0" cy="0" r="3.5"/>
                <g id="zoomPlus">
                        <use xlink:href="#rim" fill="#404040">
                                <set attributeName="fill" to="#808080" begin="zoomplus.mouseover" end="zoomplus.mouseout"/>
                        </use>
                        <path d="M-4,0h8M0,-4v8" fill="none" stroke="white" stroke-width="1.5" pointer-events="none"/>
                </g>
                <g id="zoomMin">
                        <use xlink:href="#rim" fill="#404040">
                                <set attributeName="fill" to="#808080" begin="zoomminus.mouseover" end="zoomminus.mouseout"/>
                        </use>
                        <path d="M-4,0h8" fill="none" stroke="white" stroke-width="1.5" pointer-events="none"/>
                </g>
                <g id="dirArrow">
                        <path fill="none" stroke="white" stroke-width="1.5" d="M0,-3.0v7 M-2.5,-0.5L0,-3.0L2.5,-0.5"/>
                </g>
               <g id="resetDef">
                       <use xlink:href="#rim2" fill="#404040">
                               <set attributeName="fill" to="#808080" begin="reset.mouseover" end="reset.mouseout"/>
                       </use>
               </g>
        </defs>

<script type="text/javascript">
var viewWidth = 1162;
var viewHeight = 388;
var sectionId = 'dynsection-2';
</script>
<script xlink:href="svgpan.js"/>
<svg id="graph" class="graph">
<g id="viewport">
<title>Catch::Singleton::get</title>
<polygon fill="white" stroke="transparent" points="-4,4 -4,-383.5 1158,-383.5 1158,4 -4,4"/>
<!-- Node1 -->
<g id="node1" class="node">
<title>Node1</title>
<g id="a_node1"><a xlink:title=" ">
<polygon fill="#bfbfbf" stroke="black" points="1036,-189 1036,-208 1154,-208 1154,-189 1036,-189"/>
<text text-anchor="middle" x="1095" y="-196" font-family="Helvetica,sans-Serif" font-size="10.00">Catch::Singleton::get</text>
</a>
</g>
</g>
<!-- Node2 -->
<g id="node2" class="node">
<title>Node2</title>
<g id="a_node2"><a xlink:href="namespace_catch.html#a5d328566cb8da87b48f1fac3f319ac7a" target="_top" xlink:title=" ">
<polygon fill="white" stroke="black" points="874,-189 874,-208 1000,-208 1000,-189 874,-189"/>
<text text-anchor="middle" x="937" y="-196" font-family="Helvetica,sans-Serif" font-size="10.00">Catch::getRegistryHub</text>
</a>
</g>
</g>
<!-- Node1&#45;&gt;Node2 -->
<g id="edge1" class="edge">
<title>Node1&#45;&gt;Node2</title>
<path fill="none" stroke="midnightblue" d="M1025.64,-198.5C1017.13,-198.5 1008.46,-198.5 1000.06,-198.5"/>
<polygon fill="midnightblue" stroke="midnightblue" points="1025.91,-202 1035.91,-198.5 1025.91,-195 1025.91,-202"/>
</g>
<!-- Node3 -->
<g id="node3" class="node">
<title>Node3</title>
<g id="a_node3"><a xlink:href="struct_catch_1_1_i_tag_alias_registry.html#a7c4bf6e2fc52de95fb2596ba19b3bf76" target="_top" xlink:title=" ">
<polygon fill="white" stroke="black" points="671.5,-331 671.5,-350 826.5,-350 826.5,-331 671.5,-331"/>
<text text-anchor="middle" x="749" y="-338" font-family="Helvetica,sans-Serif" font-size="10.00">Catch::ITagAliasRegistry::get</text>
</a>
</g>
</g>
<!-- Node2&#45;&gt;Node3 -->
<g id="edge2" class="edge">
<title>Node2&#45;&gt;Node3</title>
<path fill="none" stroke="midnightblue" d="M921.15,-215.56C902.94,-235.81 870.47,-269.81 838,-293.5 817.01,-308.81 790.41,-322.32 771.97,-330.87"/>
<polygon fill="midnightblue" stroke="midnightblue" points="923.81,-217.83 927.83,-208.03 918.57,-213.19 923.81,-217.83"/>
</g>
<!-- Node6 -->
<g id="node6" class="node">
<title>Node6</title>
<g id="a_node6"><a xlink:href="namespace_catch.html#a97039bab95e97f059410f67425f1f2da" target="_top" xlink:title=" ">
<polygon fill="white" stroke="black" points="669.5,-265 669.5,-284 828.5,-284 828.5,-265 669.5,-265"/>
<text text-anchor="middle" x="749" y="-272" font-family="Helvetica,sans-Serif" font-size="10.00">Catch::getAllTestCasesSorted</text>
</a>
</g>
</g>
<!-- Node2&#45;&gt;Node6 -->
<g id="edge5" class="edge">
<title>Node2&#45;&gt;Node6</title>
<path fill="none" stroke="midnightblue" d="M903.03,-211.97C865.78,-227.19 806.1,-251.58 773.37,-264.95"/>
<polygon fill="midnightblue" stroke="midnightblue" points="904.51,-215.15 912.44,-208.13 901.86,-208.67 904.51,-215.15"/>
</g>
<!-- Node11 -->
<g id="node11" class="node">
<title>Node11</title>
<g id="a_node11"><a xlink:href="namespace_catch.html#a372777bee6b529124e0cae35748bb79c" target="_top" xlink:title=" ">
<polygon fill="white" stroke="black" points="692.5,-208 692.5,-227 805.5,-227 805.5,-208 692.5,-208"/>
<text text-anchor="middle" x="749" y="-215" font-family="Helvetica,sans-Serif" font-size="10.00">Catch::listReporters</text>
</a>
</g>
</g>
<!-- Node2&#45;&gt;Node11 -->
<g id="edge12" class="edge">
<title>Node2&#45;&gt;Node11</title>
<path fill="none" stroke="midnightblue" d="M863.82,-205.87C844.48,-207.85 823.86,-209.95 805.57,-211.82"/>
<polygon fill="midnightblue" stroke="midnightblue" points="864.21,-209.35 873.81,-204.85 863.5,-202.39 864.21,-209.35"/>
</g>
<!-- Node12 -->
<g id="node12" class="node">
<title>Node12</title>
<g id="a_node12"><a xlink:href="namespace_catch.html#add4f86f38bf30c7b49daacfac665aaff" target="_top" xlink:title=" ">
<polygon fill="white" stroke="black" points="660,-132 660,-151 838,-151 838,-132 660,-132"/>
<text text-anchor="middle" x="749" y="-139" font-family="Helvetica,sans-Serif" font-size="10.00">Catch::makeCommandLineParser</text>
</a>
</g>
</g>
<!-- Node2&#45;&gt;Node12 -->
<g id="edge14" class="edge">
<title>Node2&#45;&gt;Node12</title>
<path fill="none" stroke="midnightblue" d="M899.64,-185.69C881.25,-179.36 858.53,-171.75 838,-165.5 821.34,-160.43 802.74,-155.28 786.96,-151.06"/>
<polygon fill="midnightblue" stroke="midnightblue" points="898.5,-189 909.1,-188.97 900.8,-182.39 898.5,-189"/>
</g>
<!-- Node13 -->
<g id="node13" class="node">
<title>Node13</title>
<g id="a_node13"><a xlink:href="class_catch_1_1_session.html#a4564992e2b028770e38a1dcc6fff8b34" target="_top" xlink:title=" ">
<polygon fill="white" stroke="black" points="460.5,-170 460.5,-189 591.5,-189 591.5,-170 460.5,-170"/>
<text text-anchor="middle" x="526" y="-177" font-family="Helvetica,sans-Serif" font-size="10.00">Catch::Session::Session</text>
</a>
</g>
</g>
<!-- Node2&#45;&gt;Node13 -->
<g id="edge17" class="edge">
<title>Node2&#45;&gt;Node13</title>
<path fill="none" stroke="midnightblue" d="M863.78,-195.14C786.72,-191.57 665.79,-185.95 591.73,-182.51"/>
<polygon fill="midnightblue" stroke="midnightblue" points="863.73,-198.65 873.88,-195.61 864.05,-191.65 863.73,-198.65"/>
</g>
<!-- Node15 -->
<g id="node15" class="node">
<title>Node15</title>
<g id="a_node15"><a xlink:href="namespace_catch.html#adafff91485eeeeb9e9333f317cc0e3b1" target="_top" xlink:title=" ">
<polygon fill="white" stroke="black" points="662.5,-72 662.5,-91 835.5,-91 835.5,-72 662.5,-72"/>
<text text-anchor="middle" x="749" y="-79" font-family="Helvetica,sans-Serif" font-size="10.00">Catch::translateActiveException</text>
</a>
</g>
</g>
<!-- Node2&#45;&gt;Node15 -->
<g id="edge18" class="edge">
<title>Node2&#45;&gt;Node15</title>
<path fill="none" stroke="midnightblue" d="M917.81,-182.37C898.78,-166.01 867.62,-140.57 838,-122.5 817.42,-109.95 792.38,-98.62 774.27,-91.08"/>
<polygon fill="midnightblue" stroke="midnightblue" points="915.57,-185.07 925.41,-188.99 920.17,-179.79 915.57,-185.07"/>
</g>
<!-- Node4 -->
<g id="node4" class="node">
<title>Node4</title>
<g id="a_node4"><a xlink:href="namespace_catch.html#a30373cc449e9c2fb629ef8a0df323cdd" target="_top" xlink:title=" ">
<polygon fill="white" stroke="black" points="466,-360 466,-379 586,-379 586,-360 466,-360"/>
<text text-anchor="middle" x="526" y="-367" font-family="Helvetica,sans-Serif" font-size="10.00">Catch::parseTestSpec</text>
</a>
</g>
</g>
<!-- Node3&#45;&gt;Node4 -->
<g id="edge3" class="edge">
<title>Node3&#45;&gt;Node4</title>
<path fill="none" stroke="midnightblue" d="M665.36,-351.34C639.02,-354.8 610.42,-358.55 586.09,-361.75"/>
<polygon fill="midnightblue" stroke="midnightblue" points="665.87,-354.81 675.33,-350.04 664.96,-347.87 665.87,-354.81"/>
</g>
<!-- Node5 -->
<g id="node5" class="node">
<title>Node5</title>
<g id="a_node5"><a xlink:href="_cmd_line_8tests_8cpp.html#a84a77db0bea024d94553acc0c70bf7a2" target="_top" xlink:title=" ">
<polygon fill="white" stroke="black" points="262,-360 262,-379 333,-379 333,-360 262,-360"/>
<text text-anchor="middle" x="297.5" y="-367" font-family="Helvetica,sans-Serif" font-size="10.00">TEST_CASE</text>
</a>
</g>
</g>
<!-- Node4&#45;&gt;Node5 -->
<g id="edge4" class="edge">
<title>Node4&#45;&gt;Node5</title>
<path fill="none" stroke="midnightblue" d="M455.67,-369.5C415.06,-369.5 365.54,-369.5 333.08,-369.5"/>
<polygon fill="midnightblue" stroke="midnightblue" points="455.79,-373 465.79,-369.5 455.79,-366 455.79,-373"/>
</g>
<!-- Node7 -->
<g id="node7" class="node">
<title>Node7</title>
<g id="a_node7"><a xlink:href="namespace_catch.html#a2226866b4114853fb3ff63dbecc8b0c9" target="_top" xlink:title=" ">
<polygon fill="white" stroke="black" points="482.5,-322 482.5,-341 569.5,-341 569.5,-322 482.5,-322"/>
<text text-anchor="middle" x="526" y="-329" font-family="Helvetica,sans-Serif" font-size="10.00">Catch::listTags</text>
</a>
</g>
</g>
<!-- Node6&#45;&gt;Node7 -->
<g id="edge6" class="edge">
<title>Node6&#45;&gt;Node7</title>
<path fill="none" stroke="midnightblue" d="M710.07,-287.24C685.67,-295.16 653.18,-305.19 624,-312.5 606.36,-316.92 586.69,-320.94 569.71,-324.13"/>
<polygon fill="midnightblue" stroke="midnightblue" points="711.26,-290.54 719.67,-284.1 709.08,-283.89 711.26,-290.54"/>
</g>
<!-- Node9 -->
<g id="node9" class="node">
<title>Node9</title>
<g id="a_node9"><a xlink:href="namespace_catch.html#ac2542a1569e5b9dc72206347368a921e" target="_top" xlink:title=" ">
<polygon fill="white" stroke="black" points="481,-284 481,-303 571,-303 571,-284 481,-284"/>
<text text-anchor="middle" x="526" y="-291" font-family="Helvetica,sans-Serif" font-size="10.00">Catch::listTests</text>
</a>
</g>
</g>
<!-- Node6&#45;&gt;Node9 -->
<g id="edge8" class="edge">
<title>Node6&#45;&gt;Node9</title>
<path fill="none" stroke="midnightblue" d="M659.29,-282.13C629,-284.73 596.44,-287.53 571.2,-289.7"/>
<polygon fill="midnightblue" stroke="midnightblue" points="659.8,-285.6 669.46,-281.25 659.2,-278.62 659.8,-285.6"/>
</g>
<!-- Node10 -->
<g id="node10" class="node">
<title>Node10</title>
<g id="a_node10"><a xlink:href="namespace_catch.html#a7f2d0f82056a4b9adc4204b9a1fbd117" target="_top" xlink:title=" ">
<polygon fill="white" stroke="black" points="452.5,-246 452.5,-265 599.5,-265 599.5,-246 452.5,-246"/>
<text text-anchor="middle" x="526" y="-253" font-family="Helvetica,sans-Serif" font-size="10.00">Catch::listTestsNamesOnly</text>
</a>
</g>
</g>
<!-- Node6&#45;&gt;Node10 -->
<g id="edge10" class="edge">
<title>Node6&#45;&gt;Node10</title>
<path fill="none" stroke="midnightblue" d="M659.23,-266.87C639.48,-265.17 618.77,-263.39 599.75,-261.75"/>
<polygon fill="midnightblue" stroke="midnightblue" points="659.2,-270.38 669.46,-267.75 659.8,-263.4 659.2,-270.38"/>
</g>
<!-- Node8 -->
<g id="node8" class="node">
<title>Node8</title>
<g id="a_node8"><a xlink:href="namespace_catch.html#a8267f077fd7ddf88bb182e8b9ead85d3" target="_top" xlink:title=" ">
<polygon fill="white" stroke="black" points="265,-265 265,-284 330,-284 330,-265 265,-265"/>
<text text-anchor="middle" x="297.5" y="-272" font-family="Helvetica,sans-Serif" font-size="10.00">Catch::list</text>
</a>
</g>
</g>
<!-- Node7&#45;&gt;Node8 -->
<g id="edge7" class="edge">
<title>Node7&#45;&gt;Node8</title>
<path fill="none" stroke="midnightblue" d="M472.1,-322.05C457.73,-319.24 442.22,-315.97 428,-312.5 393.4,-304.05 354.23,-292.24 328.12,-284.04"/>
<polygon fill="midnightblue" stroke="midnightblue" points="471.84,-325.57 482.32,-324.02 473.16,-318.69 471.84,-325.57"/>
</g>
<!-- Node9&#45;&gt;Node8 -->
<g id="edge9" class="edge">
<title>Node9&#45;&gt;Node8</title>
<path fill="none" stroke="midnightblue" d="M470.57,-288.93C426.7,-285.25 366.53,-280.21 330.2,-277.16"/>
<polygon fill="midnightblue" stroke="midnightblue" points="470.53,-292.44 480.79,-289.79 471.12,-285.47 470.53,-292.44"/>
</g>
<!-- Node10&#45;&gt;Node8 -->
<g id="edge11" class="edge">
<title>Node10&#45;&gt;Node8</title>
<path fill="none" stroke="midnightblue" d="M442.09,-262.46C403.11,-265.72 358.95,-269.43 330.02,-271.86"/>
<polygon fill="midnightblue" stroke="midnightblue" points="442.73,-265.91 452.4,-261.59 442.14,-258.94 442.73,-265.91"/>
</g>
<!-- Node11&#45;&gt;Node8 -->
<g id="edge13" class="edge">
<title>Node11&#45;&gt;Node8</title>
<path fill="none" stroke="midnightblue" d="M682.24,-217.08C617.19,-217.68 515.04,-221.35 428,-236.5 391.53,-242.85 350.75,-255.84 324.87,-264.85"/>
<polygon fill="midnightblue" stroke="midnightblue" points="682.38,-220.58 692.35,-217.01 682.33,-213.58 682.38,-220.58"/>
</g>
<!-- Node12&#45;&gt;Node13 -->
<g id="edge15" class="edge">
<title>Node12&#45;&gt;Node13</title>
<path fill="none" stroke="midnightblue" d="M682.42,-152.78C650.63,-158.24 612.85,-164.74 582.51,-169.96"/>
<polygon fill="midnightblue" stroke="midnightblue" points="683.26,-156.18 692.52,-151.04 682.07,-149.29 683.26,-156.18"/>
</g>
<!-- Node14 -->
<g id="node14" class="node">
<title>Node14</title>
<g id="a_node14"><a xlink:href="_cmd_line_8tests_8cpp.html#a44d5ced817b0c1ec9baafeab51cbe1fd" target="_top" xlink:title=" ">
<polygon fill="white" stroke="black" points="490.5,-132 490.5,-151 561.5,-151 561.5,-132 490.5,-132"/>
<text text-anchor="middle" x="526" y="-139" font-family="Helvetica,sans-Serif" font-size="10.00">TEST_CASE</text>
</a>
</g>
</g>
<!-- Node12&#45;&gt;Node14 -->
<g id="edge16" class="edge">
<title>Node12&#45;&gt;Node14</title>
<path fill="none" stroke="midnightblue" d="M649.56,-141.5C618.12,-141.5 585.37,-141.5 561.64,-141.5"/>
<polygon fill="midnightblue" stroke="midnightblue" points="649.7,-145 659.7,-141.5 649.7,-138 649.7,-145"/>
</g>
<!-- Node16 -->
<g id="node16" class="node">
<title>Node16</title>
<g id="a_node16"><a xlink:href="namespace_catch.html#a3a96a82307107087642e22fc4be5844d" target="_top" xlink:title=" ">
<polygon fill="white" stroke="black" points="434.5,-94 434.5,-113 617.5,-113 617.5,-94 434.5,-94"/>
<text text-anchor="middle" x="526" y="-101" font-family="Helvetica,sans-Serif" font-size="10.00">Catch::handleExceptionMatchExpr</text>
</a>
</g>
</g>
<!-- Node15&#45;&gt;Node16 -->
<g id="edge19" class="edge">
<title>Node15&#45;&gt;Node16</title>
<path fill="none" stroke="midnightblue" d="M652.26,-91.03C640.83,-92.17 629.19,-93.33 617.83,-94.46"/>
<polygon fill="midnightblue" stroke="midnightblue" points="652.64,-94.51 662.24,-90.04 651.94,-87.55 652.64,-94.51"/>
</g>
<!-- Node17 -->
<g id="node17" class="node">
<title>Node17</title>
<g id="a_node17"><a xlink:href="class_catch_1_1_assertion_handler.html#aa2504dad6a91f3645e5f52c932c11270" target="_top" xlink:title=" ">
<polygon fill="white" stroke="black" points="428,-44.5 428,-74.5 624,-74.5 624,-44.5 428,-44.5"/>
<text text-anchor="start" x="436" y="-62.5" font-family="Helvetica,sans-Serif" font-size="10.00">Catch::AssertionHandler</text>
<text text-anchor="middle" x="526" y="-51.5" font-family="Helvetica,sans-Serif" font-size="10.00">::handleUnexpectedInflightException</text>
</a>
</g>
</g>
<!-- Node15&#45;&gt;Node17 -->
<g id="edge20" class="edge">
<title>Node15&#45;&gt;Node17</title>
<path fill="none" stroke="midnightblue" d="M652.2,-71.96C642.88,-71.04 633.43,-70.09 624.1,-69.17"/>
<polygon fill="midnightblue" stroke="midnightblue" points="651.94,-75.45 662.24,-72.96 652.64,-68.49 651.94,-75.45"/>
</g>
<!-- Node18 -->
<g id="node18" class="node">
<title>Node18</title>
<g id="a_node18"><a xlink:href="namespace_catch_1_1_benchmark.html#a59d11a04c61ac4c4a740352ecff9b0eb" target="_top" xlink:title=" ">
<polygon fill="white" stroke="black" points="445.5,-6 445.5,-25 606.5,-25 606.5,-6 445.5,-6"/>
<text text-anchor="middle" x="526" y="-13" font-family="Helvetica,sans-Serif" font-size="10.00">Catch::Benchmark::user_code</text>
</a>
</g>
</g>
<!-- Node15&#45;&gt;Node18 -->
<g id="edge21" class="edge">
<title>Node15&#45;&gt;Node18</title>
<path fill="none" stroke="midnightblue" d="M716.72,-67.96C691.94,-57.65 656.25,-43.7 624,-34.5 611.21,-30.85 597.28,-27.67 584.06,-25.01"/>
<polygon fill="midnightblue" stroke="midnightblue" points="715.41,-71.2 725.98,-71.86 718.12,-64.75 715.41,-71.2"/>
</g>
<!-- Node19 -->
<g id="node19" class="node">
<title>Node19</title>
<g id="a_node19"><a xlink:href="struct_catch_1_1_benchmark_1_1_benchmark.html#aeff43305485b4ce29af38094437a8544" target="_top" xlink:title=" ">
<polygon fill="white" stroke="black" points="203,-6 203,-25 392,-25 392,-6 203,-6"/>
<text text-anchor="middle" x="297.5" y="-13" font-family="Helvetica,sans-Serif" font-size="10.00">Catch::Benchmark::Benchmark::run</text>
</a>
</g>
</g>
<!-- Node18&#45;&gt;Node19 -->
<g id="edge22" class="edge">
<title>Node18&#45;&gt;Node19</title>
<path fill="none" stroke="midnightblue" d="M435.26,-15.5C421.11,-15.5 406.45,-15.5 392.21,-15.5"/>
<polygon fill="midnightblue" stroke="midnightblue" points="435.46,-19 445.46,-15.5 435.46,-12 435.46,-19"/>
</g>
<!-- Node20 -->
<g id="node20" class="node">
<title>Node20</title>
<g id="a_node20"><a xlink:href="struct_catch_1_1_benchmark_1_1_benchmark.html#a57a804496fc648d4ed54e41434677c9d" target="_top" xlink:title=" ">
<polygon fill="white" stroke="black" points="0,-0.5 0,-30.5 167,-30.5 167,-0.5 0,-0.5"/>
<text text-anchor="start" x="8" y="-18.5" font-family="Helvetica,sans-Serif" font-size="10.00">Catch::Benchmark::Benchmark</text>
<text text-anchor="middle" x="83.5" y="-7.5" font-family="Helvetica,sans-Serif" font-size="10.00">::operator=</text>
</a>
</g>
</g>
<!-- Node19&#45;&gt;Node20 -->
<g id="edge23" class="edge">
<title>Node19&#45;&gt;Node20</title>
<path fill="none" stroke="midnightblue" d="M192.85,-15.5C184.26,-15.5 175.66,-15.5 167.27,-15.5"/>
<polygon fill="midnightblue" stroke="midnightblue" points="192.9,-19 202.9,-15.5 192.9,-12 192.9,-19"/>
</g>
</g>
</svg>
        <g id="navigator" transform="translate(0 0)" fill="#404254">
                <rect fill="#f2f5e9" fill-opacity="0.5" stroke="#606060" stroke-width=".5" x="0" y="0" width="60" height="60"/>
                <use id="zoomplus" xlink:href="#zoomPlus" x="17" y="9" onmousedown="handleZoom(evt,'in')"/>
                <use id="zoomminus" xlink:href="#zoomMin" x="42" y="9" onmousedown="handleZoom(evt,'out')"/>
                <use id="reset" xlink:href="#resetDef" x="30" y="36" onmousedown="handleReset()"/>
                <g id="arrowUp" xlink:href="#dirArrow" transform="translate(30 24)" onmousedown="handlePan(0,-1)">
                  <use xlink:href="#rim" fill="#404040">
                        <set attributeName="fill" to="#808080" begin="arrowUp.mouseover" end="arrowUp.mouseout"/>
                  </use>
                  <path fill="none" stroke="white" stroke-width="1.5" d="M0,-3.0v7 M-2.5,-0.5L0,-3.0L2.5,-0.5"/>
                </g>
                <g id="arrowRight" xlink:href="#dirArrow" transform="rotate(90) translate(36 -43)" onmousedown="handlePan(1,0)">
                  <use xlink:href="#rim" fill="#404040">
                        <set attributeName="fill" to="#808080" begin="arrowRight.mouseover" end="arrowRight.mouseout"/>
                  </use>
                  <path fill="none" stroke="white" stroke-width="1.5" d="M0,-3.0v7 M-2.5,-0.5L0,-3.0L2.5,-0.5"/>
                </g>
                <g id="arrowDown" xlink:href="#dirArrow" transform="rotate(180) translate(-30 -48)" onmousedown="handlePan(0,1)">
                  <use xlink:href="#rim" fill="#404040">
                        <set attributeName="fill" to="#808080" begin="arrowDown.mouseover" end="arrowDown.mouseout"/>
                  </use>
                  <path fill="none" stroke="white" stroke-width="1.5" d="M0,-3.0v7 M-2.5,-0.5L0,-3.0L2.5,-0.5"/>
                </g>
                <g id="arrowLeft" xlink:href="#dirArrow" transform="rotate(270) translate(-36 17)" onmousedown="handlePan(-1,0)">
                  <use xlink:href="#rim" fill="#404040">
                        <set attributeName="fill" to="#808080" begin="arrowLeft.mouseover" end="arrowLeft.mouseout"/>
                  </use>
                  <path fill="none" stroke="white" stroke-width="1.5" d="M0,-3.0v7 M-2.5,-0.5L0,-3.0L2.5,-0.5"/>
                </g>
        </g>
        <svg viewBox="0 0 15 15" width="100%" height="30px" preserveAspectRatio="xMaxYMin meet">
         <g id="arrow_out" transform="scale(0.3 0.3)">
          <a xlink:href="class_catch_1_1_singleton_aa1b2bb002acd8838489a225dbbaf2865_icgraph_org.svg" target="_base">
           <rect id="button" ry="5" rx="5" y="6" x="6" height="38" width="38"
                fill="#f2f5e9" fill-opacity="0.5" stroke="#606060" stroke-width="1.0"/>
           <path id="arrow"
             d="M 11.500037,31.436501 C 11.940474,20.09759 22.043105,11.32322 32.158766,21.979434 L 37.068811,17.246167 C 37.068811,17.246167 37.088388,32 37.088388,32 L 22.160133,31.978069 C 22.160133,31.978069 26.997745,27.140456 26.997745,27.140456 C 18.528582,18.264221 13.291696,25.230495 11.500037,31.436501 z"
             style="fill:#404040;"/>
          </a>
         </g>
        </svg>
</svg>
