<?xml version="1.0" encoding="UTF-8" standalone="no"?>
<!DOCTYPE svg PUBLIC "-//W3C//DTD SVG 1.1//EN"
 "http://www.w3.org/Graphics/SVG/1.1/DTD/svg11.dtd">
<!-- Generated by graphviz version 2.43.0 (0)
 -->
<!-- Title: Catch::ExprLhs::makeUnaryExpr Pages: 1 -->
<svg width="573pt" height="96pt"
 viewBox="0.00 0.00 573.00 95.50" xmlns="http://www.w3.org/2000/svg" xmlns:xlink="http://www.w3.org/1999/xlink">
<g id="graph0" class="graph" transform="scale(1 1) rotate(0) translate(4 91.5)">
<title>Catch::ExprLhs::makeUnaryExpr</title>
<polygon fill="white" stroke="transparent" points="-4,4 -4,-91.5 569,-91.5 569,4 -4,4"/>
<!-- Node1 -->
<g id="node1" class="node">
<title>Node1</title>
<g id="a_node1"><a xlink:title=" ">
<polygon fill="#bfbfbf" stroke="black" points="392,-22.5 392,-41.5 565,-41.5 565,-22.5 392,-22.5"/>
<text text-anchor="middle" x="478.5" y="-29.5" font-family="Helvetica,sans-Serif" font-size="10.00">Catch::ExprLhs::makeUnaryExpr</text>
</a>
</g>
</g>
<!-- Node2 -->
<g id="node2" class="node">
<title>Node2</title>
<g id="a_node2"><a xlink:href="class_catch_1_1_assertion_handler.html#a2ef387e567bad90ec6e4b5bf5c367388" target="_top" xlink:title=" ">
<polygon fill="white" stroke="black" points="220.5,-39 220.5,-69 354.5,-69 354.5,-39 220.5,-39"/>
<text text-anchor="start" x="228.5" y="-57" font-family="Helvetica,sans-Serif" font-size="10.00">Catch::AssertionHandler</text>
<text text-anchor="middle" x="287.5" y="-46" font-family="Helvetica,sans-Serif" font-size="10.00">::handleExpr</text>
</a>
</g>
</g>
<!-- Node1&#45;&gt;Node2 -->
<g id="edge1" class="edge">
<title>Node1&#45;&gt;Node2</title>
<path fill="none" stroke="midnightblue" d="M385.72,-42.68C375.29,-43.9 364.8,-45.12 354.79,-46.28"/>
<polygon fill="midnightblue" stroke="midnightblue" points="386.17,-46.15 395.7,-41.52 385.36,-39.2 386.17,-46.15"/>
</g>
<!-- Node4 -->
<g id="node4" class="node">
<title>Node4</title>
<g id="a_node4"><a xlink:href="namespace_catch.html#af2c93db76668a981e75ae835699efce7" target="_top" xlink:title=" ">
<polygon fill="white" stroke="black" points="219,-0.5 219,-19.5 356,-19.5 356,-0.5 219,-0.5"/>
<text text-anchor="middle" x="287.5" y="-7.5" font-family="Helvetica,sans-Serif" font-size="10.00">Catch::handleExpression</text>
</a>
</g>
</g>
<!-- Node1&#45;&gt;Node4 -->
<g id="edge4" class="edge">
<title>Node1&#45;&gt;Node4</title>
<path fill="none" stroke="midnightblue" d="M385.47,-21.29C375.62,-20.14 365.73,-18.99 356.24,-17.88"/>
<polygon fill="midnightblue" stroke="midnightblue" points="385.36,-24.8 395.7,-22.48 386.17,-17.85 385.36,-24.8"/>
</g>
<!-- Node2&#45;&gt;Node2 -->
<g id="edge3" class="edge">
<title>Node2&#45;&gt;Node2</title>
<path fill="none" stroke="midnightblue" d="M321.26,-79.46C317.07,-84.18 305.82,-87.5 287.5,-87.5 257.44,-87.5 246.4,-78.56 254.39,-69.16"/>
<polygon fill="midnightblue" stroke="midnightblue" points="324.73,-78.92 320.61,-69.16 317.75,-79.36 324.73,-78.92"/>
</g>
<!-- Node3 -->
<g id="node3" class="node">
<title>Node3</title>
<g id="a_node3"><a xlink:href="namespace_catch.html#a3a96a82307107087642e22fc4be5844d" target="_top" xlink:title=" ">
<polygon fill="white" stroke="black" points="0,-44.5 0,-63.5 183,-63.5 183,-44.5 0,-44.5"/>
<text text-anchor="middle" x="91.5" y="-51.5" font-family="Helvetica,sans-Serif" font-size="10.00">Catch::handleExceptionMatchExpr</text>
</a>
</g>
</g>
<!-- Node2&#45;&gt;Node3 -->
<g id="edge2" class="edge">
<title>Node2&#45;&gt;Node3</title>
<path fill="none" stroke="midnightblue" d="M210.04,-54C201.2,-54 192.13,-54 183.13,-54"/>
<polygon fill="midnightblue" stroke="midnightblue" points="210.28,-57.5 220.28,-54 210.28,-50.5 210.28,-57.5"/>
</g>
</g>
</svg>
