<?xml version="1.0" encoding="UTF-8" standalone="no"?>
<!DOCTYPE svg PUBLIC "-//W3C//DTD SVG 1.1//EN"
 "http://www.w3.org/Graphics/SVG/1.1/DTD/svg11.dtd">
<!-- Generated by graphviz version 2.43.0 (0)
 -->
<!-- Title: Catch::Capturer::Capturer Pages: 1 -->
<svg width="387pt" height="66pt"
 viewBox="0.00 0.00 387.00 66.00" xmlns="http://www.w3.org/2000/svg" xmlns:xlink="http://www.w3.org/1999/xlink">
<g id="graph0" class="graph" transform="scale(1 1) rotate(0) translate(4 62)">
<title>Catch::Capturer::Capturer</title>
<polygon fill="white" stroke="transparent" points="-4,4 -4,-62 383,-62 383,4 -4,4"/>
<!-- Node1 -->
<g id="node1" class="node">
<title>Node1</title>
<g id="a_node1"><a xlink:title=" ">
<polygon fill="#bfbfbf" stroke="black" points="0,-19.5 0,-38.5 140,-38.5 140,-19.5 0,-19.5"/>
<text text-anchor="middle" x="70" y="-26.5" font-family="Helvetica,sans-Serif" font-size="10.00">Catch::Capturer::Capturer</text>
</a>
</g>
</g>
<!-- Node2 -->
<g id="node2" class="node">
<title>Node2</title>
<g id="a_node2"><a xlink:href="class_catch_1_1_string_ref.html#acb22719801de2b64361b4c283080d4e5" target="_top" xlink:title=" ">
<polygon fill="white" stroke="black" points="181.5,-38.5 181.5,-57.5 301.5,-57.5 301.5,-38.5 181.5,-38.5"/>
<text text-anchor="middle" x="241.5" y="-45.5" font-family="Helvetica,sans-Serif" font-size="10.00">Catch::StringRef::size</text>
</a>
</g>
</g>
<!-- Node1&#45;&gt;Node2 -->
<g id="edge1" class="edge">
<title>Node1&#45;&gt;Node2</title>
<path fill="none" stroke="midnightblue" d="M140.43,-36.78C150.65,-37.93 161.17,-39.11 171.38,-40.25"/>
<polygon fill="midnightblue" stroke="midnightblue" points="171.14,-43.75 181.47,-41.38 171.92,-36.79 171.14,-43.75"/>
</g>
<!-- Node3 -->
<g id="node3" class="node">
<title>Node3</title>
<g id="a_node3"><a xlink:href="class_catch_1_1_string_ref.html#a594bc3e10ffad77df92f7d1a4c99d7ff" target="_top" xlink:title=" ">
<polygon fill="white" stroke="black" points="176,-0.5 176,-19.5 307,-19.5 307,-0.5 176,-0.5"/>
<text text-anchor="middle" x="241.5" y="-7.5" font-family="Helvetica,sans-Serif" font-size="10.00">Catch::StringRef::substr</text>
</a>
</g>
</g>
<!-- Node1&#45;&gt;Node3 -->
<g id="edge2" class="edge">
<title>Node1&#45;&gt;Node3</title>
<path fill="none" stroke="midnightblue" d="M140.43,-21.22C148.75,-20.28 157.27,-19.33 165.67,-18.39"/>
<polygon fill="midnightblue" stroke="midnightblue" points="166.27,-21.84 175.81,-17.25 165.49,-14.89 166.27,-21.84"/>
</g>
<!-- Node4 -->
<g id="node4" class="node">
<title>Node4</title>
<g id="a_node4"><a xlink:href="xml_8sw_8approved_8txt.html#add174ec999e66e5d56cb44a7ed30290b" target="_top" xlink:title=" ">
<polygon fill="white" stroke="black" points="343,-0.5 343,-19.5 379,-19.5 379,-0.5 343,-0.5"/>
<text text-anchor="middle" x="361" y="-7.5" font-family="Helvetica,sans-Serif" font-size="10.00">size</text>
</a>
</g>
</g>
<!-- Node3&#45;&gt;Node4 -->
<g id="edge3" class="edge">
<title>Node3&#45;&gt;Node4</title>
<path fill="none" stroke="midnightblue" d="M307.09,-10C316.08,-10 324.89,-10 332.65,-10"/>
<polygon fill="midnightblue" stroke="midnightblue" points="332.86,-13.5 342.86,-10 332.86,-6.5 332.86,-13.5"/>
</g>
</g>
</svg>
