<?xml version="1.0" encoding="UTF-8" standalone="no"?>
<!DOCTYPE svg PUBLIC "-//W3C//DTD SVG 1.1//EN"
 "http://www.w3.org/Graphics/SVG/1.1/DTD/svg11.dtd">
<!-- Generated by graphviz version 2.43.0 (0)
 -->
<!-- Title: Catch::UnaryExpr&lt; LhsT &gt; Pages: 1 -->
<svg width="201pt" height="281pt"
 viewBox="0.00 0.00 201.00 281.00" xmlns="http://www.w3.org/2000/svg" xmlns:xlink="http://www.w3.org/1999/xlink">
<g id="graph0" class="graph" transform="scale(1 1) rotate(0) translate(4 277)">
<title>Catch::UnaryExpr&lt; LhsT &gt;</title>
<polygon fill="white" stroke="transparent" points="-4,4 -4,-277 197,-277 197,4 -4,4"/>
<!-- Node1 -->
<g id="node1" class="node">
<title>Node1</title>
<g id="a_node1"><a xlink:title=" ">
<polygon fill="#bfbfbf" stroke="black" points="23.5,-0.5 23.5,-68.5 169.5,-68.5 169.5,-0.5 23.5,-0.5"/>
<text text-anchor="middle" x="96.5" y="-56.5" font-family="Helvetica,sans-Serif" font-size="10.00">Catch::UnaryExpr&lt; LhsT &gt;</text>
<polyline fill="none" stroke="black" points="23.5,-49.5 169.5,-49.5 "/>
<text text-anchor="middle" x="96.5" y="-37.5" font-family="Helvetica,sans-Serif" font-size="10.00"> </text>
<polyline fill="none" stroke="black" points="23.5,-30.5 169.5,-30.5 "/>
<text text-anchor="start" x="31.5" y="-18.5" font-family="Helvetica,sans-Serif" font-size="10.00">+ UnaryExpr()</text>
<text text-anchor="start" x="31.5" y="-7.5" font-family="Helvetica,sans-Serif" font-size="10.00">+ UnaryExpr()</text>
</a>
</g>
</g>
<!-- Node2 -->
<g id="node2" class="node">
<title>Node2</title>
<g id="a_node2"><a xlink:href="struct_catch_1_1_i_transient_expression.html" target="_top" xlink:title=" ">
<polygon fill="white" stroke="black" points="0,-105.5 0,-272.5 193,-272.5 193,-105.5 0,-105.5"/>
<text text-anchor="middle" x="96.5" y="-260.5" font-family="Helvetica,sans-Serif" font-size="10.00">Catch::ITransientExpression</text>
<polyline fill="none" stroke="black" points="0,-253.5 193,-253.5 "/>
<text text-anchor="start" x="8" y="-241.5" font-family="Helvetica,sans-Serif" font-size="10.00">+ m_isBinaryExpression</text>
<text text-anchor="start" x="8" y="-230.5" font-family="Helvetica,sans-Serif" font-size="10.00">+ m_result</text>
<polyline fill="none" stroke="black" points="0,-223.5 193,-223.5 "/>
<text text-anchor="start" x="8" y="-211.5" font-family="Helvetica,sans-Serif" font-size="10.00">+ isBinaryExpression()</text>
<text text-anchor="start" x="8" y="-200.5" font-family="Helvetica,sans-Serif" font-size="10.00">+ getResult()</text>
<text text-anchor="start" x="8" y="-189.5" font-family="Helvetica,sans-Serif" font-size="10.00">+ streamReconstructedExpression()</text>
<text text-anchor="start" x="8" y="-178.5" font-family="Helvetica,sans-Serif" font-size="10.00">+ ITransientExpression()</text>
<text text-anchor="start" x="8" y="-167.5" font-family="Helvetica,sans-Serif" font-size="10.00">+ ~ITransientExpression()</text>
<text text-anchor="start" x="8" y="-156.5" font-family="Helvetica,sans-Serif" font-size="10.00">+ isBinaryExpression()</text>
<text text-anchor="start" x="8" y="-145.5" font-family="Helvetica,sans-Serif" font-size="10.00">+ getResult()</text>
<text text-anchor="start" x="8" y="-134.5" font-family="Helvetica,sans-Serif" font-size="10.00">+ streamReconstructedExpression()</text>
<text text-anchor="start" x="8" y="-123.5" font-family="Helvetica,sans-Serif" font-size="10.00">+ ITransientExpression()</text>
<text text-anchor="start" x="8" y="-112.5" font-family="Helvetica,sans-Serif" font-size="10.00">+ ~ITransientExpression()</text>
</a>
</g>
</g>
<!-- Node2&#45;&gt;Node1 -->
<g id="edge1" class="edge">
<title>Node2&#45;&gt;Node1</title>
<path fill="none" stroke="midnightblue" d="M96.5,-94.89C96.5,-85.63 96.5,-76.72 96.5,-68.74"/>
<polygon fill="none" stroke="midnightblue" points="93,-95.06 96.5,-105.06 100,-95.06 93,-95.06"/>
</g>
</g>
</svg>
