<?xml version="1.0" encoding="UTF-8" standalone="no"?>
<!DOCTYPE svg PUBLIC "-//W3C//DTD SVG 1.1//EN"
 "http://www.w3.org/Graphics/SVG/1.1/DTD/svg11.dtd">
<!-- Generated by graphviz version 2.43.0 (0)
 -->
<!-- Title: Catch::UnaryExpr&lt; LhsT &gt; Pages: 1 -->
<svg width="225pt" height="387pt"
 viewBox="0.00 0.00 224.50 387.00" xmlns="http://www.w3.org/2000/svg" xmlns:xlink="http://www.w3.org/1999/xlink">
<g id="graph0" class="graph" transform="scale(1 1) rotate(0) translate(4 383)">
<title>Catch::UnaryExpr&lt; LhsT &gt;</title>
<polygon fill="white" stroke="transparent" points="-4,4 -4,-383 220.5,-383 220.5,4 -4,4"/>
<!-- Node1 -->
<g id="node1" class="node">
<title>Node1</title>
<g id="a_node1"><a xlink:title=" ">
<polygon fill="#bfbfbf" stroke="black" points="23.5,-0.5 23.5,-68.5 169.5,-68.5 169.5,-0.5 23.5,-0.5"/>
<text text-anchor="middle" x="96.5" y="-56.5" font-family="Helvetica,sans-Serif" font-size="10.00">Catch::UnaryExpr&lt; LhsT &gt;</text>
<polyline fill="none" stroke="black" points="23.5,-49.5 169.5,-49.5 "/>
<text text-anchor="middle" x="96.5" y="-37.5" font-family="Helvetica,sans-Serif" font-size="10.00"> </text>
<polyline fill="none" stroke="black" points="23.5,-30.5 169.5,-30.5 "/>
<text text-anchor="start" x="31.5" y="-18.5" font-family="Helvetica,sans-Serif" font-size="10.00">+ UnaryExpr()</text>
<text text-anchor="start" x="31.5" y="-7.5" font-family="Helvetica,sans-Serif" font-size="10.00">+ UnaryExpr()</text>
</a>
</g>
</g>
<!-- Node2 -->
<g id="node2" class="node">
<title>Node2</title>
<g id="a_node2"><a xlink:href="struct_catch_1_1_i_transient_expression.html" target="_top" xlink:title=" ">
<polygon fill="white" stroke="black" points="0,-106.5 0,-262.5 193,-262.5 193,-106.5 0,-106.5"/>
<text text-anchor="middle" x="96.5" y="-250.5" font-family="Helvetica,sans-Serif" font-size="10.00">Catch::ITransientExpression</text>
<polyline fill="none" stroke="black" points="0,-243.5 193,-243.5 "/>
<text text-anchor="middle" x="96.5" y="-231.5" font-family="Helvetica,sans-Serif" font-size="10.00"> </text>
<polyline fill="none" stroke="black" points="0,-224.5 193,-224.5 "/>
<text text-anchor="start" x="8" y="-212.5" font-family="Helvetica,sans-Serif" font-size="10.00">+ isBinaryExpression()</text>
<text text-anchor="start" x="8" y="-201.5" font-family="Helvetica,sans-Serif" font-size="10.00">+ getResult()</text>
<text text-anchor="start" x="8" y="-190.5" font-family="Helvetica,sans-Serif" font-size="10.00">+ streamReconstructedExpression()</text>
<text text-anchor="start" x="8" y="-179.5" font-family="Helvetica,sans-Serif" font-size="10.00">+ ITransientExpression()</text>
<text text-anchor="start" x="8" y="-168.5" font-family="Helvetica,sans-Serif" font-size="10.00">+ ~ITransientExpression()</text>
<text text-anchor="start" x="8" y="-157.5" font-family="Helvetica,sans-Serif" font-size="10.00">+ isBinaryExpression()</text>
<text text-anchor="start" x="8" y="-146.5" font-family="Helvetica,sans-Serif" font-size="10.00">+ getResult()</text>
<text text-anchor="start" x="8" y="-135.5" font-family="Helvetica,sans-Serif" font-size="10.00">+ streamReconstructedExpression()</text>
<text text-anchor="start" x="8" y="-124.5" font-family="Helvetica,sans-Serif" font-size="10.00">+ ITransientExpression()</text>
<text text-anchor="start" x="8" y="-113.5" font-family="Helvetica,sans-Serif" font-size="10.00">+ ~ITransientExpression()</text>
</a>
</g>
</g>
<!-- Node2&#45;&gt;Node1 -->
<g id="edge1" class="edge">
<title>Node2&#45;&gt;Node1</title>
<path fill="none" stroke="midnightblue" d="M96.5,-96.2C96.5,-86.43 96.5,-76.98 96.5,-68.57"/>
<polygon fill="none" stroke="midnightblue" points="93,-96.47 96.5,-106.47 100,-96.47 93,-96.47"/>
</g>
<!-- Node3 -->
<g id="node3" class="node">
<title>Node3</title>
<g id="a_node3"><a xlink:href="classbool.html" target="_top" xlink:title=" ">
<polygon fill="white" stroke="black" points="77.5,-321.5 77.5,-378.5 115.5,-378.5 115.5,-321.5 77.5,-321.5"/>
<text text-anchor="middle" x="96.5" y="-366.5" font-family="Helvetica,sans-Serif" font-size="10.00">bool</text>
<polyline fill="none" stroke="black" points="77.5,-359.5 115.5,-359.5 "/>
<text text-anchor="middle" x="96.5" y="-347.5" font-family="Helvetica,sans-Serif" font-size="10.00"> </text>
<polyline fill="none" stroke="black" points="77.5,-340.5 115.5,-340.5 "/>
<text text-anchor="middle" x="96.5" y="-328.5" font-family="Helvetica,sans-Serif" font-size="10.00"> </text>
</a>
</g>
</g>
<!-- Node3&#45;&gt;Node2 -->
<g id="edge2" class="edge">
<title>Node3&#45;&gt;Node2</title>
<path fill="none" stroke="#404040" d="M96.5,-321.26C96.5,-308.21 96.5,-291.84 96.5,-275.02"/>
<polygon fill="none" stroke="#404040" points="96.5,-274.74 92.5,-268.74 96.5,-262.74 100.5,-268.74 96.5,-274.74"/>
<text text-anchor="middle" x="156.5" y="-295" font-family="Helvetica,sans-Serif" font-size="10.00"> +m_isBinaryExpression</text>
<text text-anchor="middle" x="156.5" y="-284" font-family="Helvetica,sans-Serif" font-size="10.00">+m_result</text>
</g>
</g>
</svg>
