<?xml version="1.0" encoding="UTF-8" standalone="no"?>
<!DOCTYPE svg PUBLIC "-//W3C//DTD SVG 1.1//EN"
 "http://www.w3.org/Graphics/SVG/1.1/DTD/svg11.dtd">
<!-- Generated by graphviz version 2.43.0 (0)
 -->
<!-- Title: ExprVariable Pages: 1 -->
<svg width="113pt" height="408pt"
 viewBox="0.00 0.00 113.00 408.00" xmlns="http://www.w3.org/2000/svg" xmlns:xlink="http://www.w3.org/1999/xlink">
<g id="graph0" class="graph" transform="scale(1 1) rotate(0) translate(4 404)">
<title>ExprVariable</title>
<polygon fill="white" stroke="transparent" points="-4,4 -4,-404 109,-404 109,4 -4,4"/>
<!-- Node1 -->
<g id="node1" class="node">
<title>Node1</title>
<g id="a_node1"><a xlink:title="Usage of existing variable.">
<polygon fill="#bfbfbf" stroke="black" points="0,-0.5 0,-112.5 105,-112.5 105,-0.5 0,-0.5"/>
<text text-anchor="middle" x="52.5" y="-100.5" font-family="Helvetica,sans-Serif" font-size="10.00">ExprVariable</text>
<polyline fill="none" stroke="black" points="0,-93.5 105,-93.5 "/>
<text text-anchor="middle" x="52.5" y="-81.5" font-family="Helvetica,sans-Serif" font-size="10.00"> </text>
<polyline fill="none" stroke="black" points="0,-74.5 105,-74.5 "/>
<text text-anchor="start" x="8" y="-62.5" font-family="Helvetica,sans-Serif" font-size="10.00">+ ExprVariable()</text>
<text text-anchor="start" x="8" y="-51.5" font-family="Helvetica,sans-Serif" font-size="10.00">+ eval()</text>
<text text-anchor="start" x="8" y="-40.5" font-family="Helvetica,sans-Serif" font-size="10.00">+ eval()</text>
<text text-anchor="start" x="8" y="-29.5" font-family="Helvetica,sans-Serif" font-size="10.00">+ clone()</text>
<text text-anchor="start" x="8" y="-18.5" font-family="Helvetica,sans-Serif" font-size="10.00">+ operator==()</text>
<text text-anchor="start" x="8" y="-7.5" font-family="Helvetica,sans-Serif" font-size="10.00">+ ~ExprVariable()</text>
</a>
</g>
</g>
<!-- Node2 -->
<g id="node2" class="node">
<title>Node2</title>
<g id="a_node2"><a xlink:href="class_i_expr.html" target="_top" xlink:title="IExpr Base class for expressions.">
<polygon fill="white" stroke="black" points="18.5,-149.5 18.5,-261.5 86.5,-261.5 86.5,-149.5 18.5,-149.5"/>
<text text-anchor="middle" x="52.5" y="-249.5" font-family="Helvetica,sans-Serif" font-size="10.00">IExpr</text>
<polyline fill="none" stroke="black" points="18.5,-242.5 86.5,-242.5 "/>
<text text-anchor="middle" x="52.5" y="-230.5" font-family="Helvetica,sans-Serif" font-size="10.00"> </text>
<polyline fill="none" stroke="black" points="18.5,-223.5 86.5,-223.5 "/>
<text text-anchor="start" x="26.5" y="-211.5" font-family="Helvetica,sans-Serif" font-size="10.00">+ IExpr()</text>
<text text-anchor="start" x="26.5" y="-200.5" font-family="Helvetica,sans-Serif" font-size="10.00">+ eval()</text>
<text text-anchor="start" x="26.5" y="-189.5" font-family="Helvetica,sans-Serif" font-size="10.00">+ eval()</text>
<text text-anchor="start" x="26.5" y="-178.5" font-family="Helvetica,sans-Serif" font-size="10.00">+ clone()</text>
<text text-anchor="start" x="26.5" y="-167.5" font-family="Helvetica,sans-Serif" font-size="10.00">+ ~IExpr()</text>
<text text-anchor="start" x="26.5" y="-156.5" font-family="Helvetica,sans-Serif" font-size="10.00">+ parse()</text>
</a>
</g>
</g>
<!-- Node2&#45;&gt;Node1 -->
<g id="edge1" class="edge">
<title>Node2&#45;&gt;Node1</title>
<path fill="none" stroke="midnightblue" d="M52.5,-139.18C52.5,-130.43 52.5,-121.52 52.5,-112.96"/>
<polygon fill="none" stroke="midnightblue" points="49,-139.34 52.5,-149.34 56,-139.34 49,-139.34"/>
</g>
<!-- Node3 -->
<g id="node3" class="node">
<title>Node3</title>
<g id="a_node3"><a xlink:href="class_i_statment.html" target="_top" xlink:title="Base class for all possible statments in the language.">
<polygon fill="white" stroke="black" points="6.5,-298.5 6.5,-399.5 98.5,-399.5 98.5,-298.5 6.5,-298.5"/>
<text text-anchor="middle" x="52.5" y="-387.5" font-family="Helvetica,sans-Serif" font-size="10.00">IStatment</text>
<polyline fill="none" stroke="black" points="6.5,-380.5 98.5,-380.5 "/>
<text text-anchor="middle" x="52.5" y="-368.5" font-family="Helvetica,sans-Serif" font-size="10.00"> </text>
<polyline fill="none" stroke="black" points="6.5,-361.5 98.5,-361.5 "/>
<text text-anchor="start" x="14.5" y="-349.5" font-family="Helvetica,sans-Serif" font-size="10.00">+ IStatment()</text>
<text text-anchor="start" x="14.5" y="-338.5" font-family="Helvetica,sans-Serif" font-size="10.00">+ eval()</text>
<text text-anchor="start" x="14.5" y="-327.5" font-family="Helvetica,sans-Serif" font-size="10.00">+ clone()</text>
<text text-anchor="start" x="14.5" y="-316.5" font-family="Helvetica,sans-Serif" font-size="10.00">+ ~IStatment()</text>
<text text-anchor="start" x="14.5" y="-305.5" font-family="Helvetica,sans-Serif" font-size="10.00">+ parse()</text>
</a>
</g>
</g>
<!-- Node3&#45;&gt;Node2 -->
<g id="edge2" class="edge">
<title>Node3&#45;&gt;Node2</title>
<path fill="none" stroke="midnightblue" d="M52.5,-288.01C52.5,-279.29 52.5,-270.34 52.5,-261.72"/>
<polygon fill="none" stroke="midnightblue" points="49,-288.11 52.5,-298.11 56,-288.11 49,-288.11"/>
</g>
</g>
</svg>
