<?xml version="1.0" encoding="UTF-8" standalone="no"?>
<!DOCTYPE svg PUBLIC "-//W3C//DTD SVG 1.1//EN"
 "http://www.w3.org/Graphics/SVG/1.1/DTD/svg11.dtd">
<!-- Generated by graphviz version 2.43.0 (0)
 -->
<!-- Title: clara::TextFlow::Column::iterator::operator++ Pages: 1 -->
<svg width="338pt" height="66pt"
 viewBox="0.00 0.00 338.00 66.00" xmlns="http://www.w3.org/2000/svg" xmlns:xlink="http://www.w3.org/1999/xlink">
<g id="graph0" class="graph" transform="scale(1 1) rotate(0) translate(4 62)">
<title>clara::TextFlow::Column::iterator::operator++</title>
<polygon fill="white" stroke="transparent" points="-4,4 -4,-62 334,-62 334,4 -4,4"/>
<!-- Node1 -->
<g id="node1" class="node">
<title>Node1</title>
<g id="a_node1"><a xlink:title=" ">
<polygon fill="#bfbfbf" stroke="black" points="0,-14 0,-44 133,-44 133,-14 0,-14"/>
<text text-anchor="start" x="8" y="-32" font-family="Helvetica,sans-Serif" font-size="10.00">clara::TextFlow::Column</text>
<text text-anchor="middle" x="66.5" y="-21" font-family="Helvetica,sans-Serif" font-size="10.00">::iterator::operator++</text>
</a>
</g>
</g>
<!-- Node2 -->
<g id="node2" class="node">
<title>Node2</title>
<g id="a_node2"><a xlink:href="namespaceclara_1_1_text_flow.html#afef6a49e0a83b3b6e8bba02196f50c9d" target="_top" xlink:title=" ">
<polygon fill="white" stroke="black" points="169,-38.5 169,-57.5 330,-57.5 330,-38.5 169,-38.5"/>
<text text-anchor="middle" x="249.5" y="-45.5" font-family="Helvetica,sans-Serif" font-size="10.00">clara::TextFlow::isWhitespace</text>
</a>
</g>
</g>
<!-- Node1&#45;&gt;Node2 -->
<g id="edge1" class="edge">
<title>Node1&#45;&gt;Node2</title>
<path fill="none" stroke="midnightblue" d="M133.1,-35.89C141.46,-36.76 150.13,-37.67 158.79,-38.58"/>
<polygon fill="midnightblue" stroke="midnightblue" points="158.63,-42.08 168.94,-39.65 159.36,-35.12 158.63,-42.08"/>
</g>
<!-- Node3 -->
<g id="node3" class="node">
<title>Node3</title>
<g id="a_node3"><a xlink:href="xml_8sw_8approved_8txt.html#add174ec999e66e5d56cb44a7ed30290b" target="_top" xlink:title=" ">
<polygon fill="white" stroke="black" points="231.5,-0.5 231.5,-19.5 267.5,-19.5 267.5,-0.5 231.5,-0.5"/>
<text text-anchor="middle" x="249.5" y="-7.5" font-family="Helvetica,sans-Serif" font-size="10.00">size</text>
</a>
</g>
</g>
<!-- Node1&#45;&gt;Node3 -->
<g id="edge2" class="edge">
<title>Node1&#45;&gt;Node3</title>
<path fill="none" stroke="midnightblue" d="M133.1,-22.11C163.49,-18.92 197.95,-15.31 221.24,-12.86"/>
<polygon fill="midnightblue" stroke="midnightblue" points="221.82,-16.32 231.4,-11.79 221.09,-9.36 221.82,-16.32"/>
</g>
</g>
</svg>
