<?xml version="1.0" encoding="UTF-8" standalone="no"?>
<!DOCTYPE svg PUBLIC "-//W3C//DTD SVG 1.1//EN"
 "http://www.w3.org/Graphics/SVG/1.1/DTD/svg11.dtd">
<!-- Generated by graphviz version 2.43.0 (0)
 -->
<!-- Title: Catch::clara::detail::BasicResult::runtimeError Pages: 1 -->
<svg width="680pt" height="97pt"
 viewBox="0.00 0.00 680.00 96.50" xmlns="http://www.w3.org/2000/svg" xmlns:xlink="http://www.w3.org/1999/xlink">
<g id="graph0" class="graph" transform="scale(1 1) rotate(0) translate(4 92.5)">
<title>Catch::clara::detail::BasicResult::runtimeError</title>
<polygon fill="white" stroke="transparent" points="-4,4 -4,-92.5 676,-92.5 676,4 -4,4"/>
<!-- Node1 -->
<g id="node1" class="node">
<title>Node1</title>
<g id="a_node1"><a xlink:title=" ">
<polygon fill="#bfbfbf" stroke="black" points="525,-22.5 525,-52.5 672,-52.5 672,-22.5 525,-22.5"/>
<text text-anchor="start" x="533" y="-40.5" font-family="Helvetica,sans-Serif" font-size="10.00">Catch::clara::detail</text>
<text text-anchor="middle" x="598.5" y="-29.5" font-family="Helvetica,sans-Serif" font-size="10.00">::BasicResult::runtimeError</text>
</a>
</g>
</g>
<!-- Node2 -->
<g id="node2" class="node">
<title>Node2</title>
<g id="a_node2"><a xlink:href="namespace_catch_1_1clara_1_1detail.html#a19e6ad854f8d2d01aa16b9b67b28cb3b" target="_top" xlink:title=" ">
<polygon fill="white" stroke="black" points="381,-22.5 381,-52.5 489,-52.5 489,-22.5 381,-22.5"/>
<text text-anchor="start" x="389" y="-40.5" font-family="Helvetica,sans-Serif" font-size="10.00">Catch::clara::detail</text>
<text text-anchor="middle" x="435" y="-29.5" font-family="Helvetica,sans-Serif" font-size="10.00">::convertInto</text>
</a>
</g>
</g>
<!-- Node1&#45;&gt;Node2 -->
<g id="edge1" class="edge">
<title>Node1&#45;&gt;Node2</title>
<path fill="none" stroke="midnightblue" d="M514.72,-37.5C506.14,-37.5 497.59,-37.5 489.46,-37.5"/>
<polygon fill="midnightblue" stroke="midnightblue" points="514.78,-41 524.78,-37.5 514.78,-34 514.78,-41"/>
</g>
<!-- Node3 -->
<g id="node3" class="node">
<title>Node3</title>
<g id="a_node3"><a xlink:href="namespace_catch.html#add4f86f38bf30c7b49daacfac665aaff" target="_top" xlink:title=" ">
<polygon fill="white" stroke="black" points="167,-50 167,-69 345,-69 345,-50 167,-50"/>
<text text-anchor="middle" x="256" y="-57" font-family="Helvetica,sans-Serif" font-size="10.00">Catch::makeCommandLineParser</text>
</a>
</g>
</g>
<!-- Node2&#45;&gt;Node3 -->
<g id="edge2" class="edge">
<title>Node2&#45;&gt;Node3</title>
<path fill="none" stroke="midnightblue" d="M370.93,-45.34C358.85,-46.84 346.08,-48.43 333.63,-49.98"/>
<polygon fill="midnightblue" stroke="midnightblue" points="371.4,-48.81 380.89,-44.1 370.54,-41.86 371.4,-48.81"/>
</g>
<!-- Node6 -->
<g id="node6" class="node">
<title>Node6</title>
<g id="a_node6"><a xlink:href="struct_catch_1_1clara_1_1detail_1_1_bound_value_ref.html#ab172e24192cd6878ae5a398a1c8ee95b" target="_top" xlink:title=" ">
<polygon fill="white" stroke="black" points="184,-0.5 184,-30.5 328,-30.5 328,-0.5 184,-0.5"/>
<text text-anchor="start" x="192" y="-18.5" font-family="Helvetica,sans-Serif" font-size="10.00">Catch::clara::detail</text>
<text text-anchor="middle" x="256" y="-7.5" font-family="Helvetica,sans-Serif" font-size="10.00">::BoundValueRef::setValue</text>
</a>
</g>
</g>
<!-- Node2&#45;&gt;Node6 -->
<g id="edge5" class="edge">
<title>Node2&#45;&gt;Node6</title>
<path fill="none" stroke="midnightblue" d="M370.96,-29.66C357.07,-27.94 342.27,-26.1 328.08,-24.34"/>
<polygon fill="midnightblue" stroke="midnightblue" points="370.54,-33.14 380.89,-30.9 371.4,-26.19 370.54,-33.14"/>
</g>
<!-- Node4 -->
<g id="node4" class="node">
<title>Node4</title>
<g id="a_node4"><a xlink:href="class_catch_1_1_session.html#a4564992e2b028770e38a1dcc6fff8b34" target="_top" xlink:title=" ">
<polygon fill="white" stroke="black" points="0,-69 0,-88 131,-88 131,-69 0,-69"/>
<text text-anchor="middle" x="65.5" y="-76" font-family="Helvetica,sans-Serif" font-size="10.00">Catch::Session::Session</text>
</a>
</g>
</g>
<!-- Node3&#45;&gt;Node4 -->
<g id="edge3" class="edge">
<title>Node3&#45;&gt;Node4</title>
<path fill="none" stroke="midnightblue" d="M156.7,-69.41C148.08,-70.28 139.51,-71.14 131.27,-71.97"/>
<polygon fill="midnightblue" stroke="midnightblue" points="157.22,-72.87 166.82,-68.39 156.52,-65.91 157.22,-72.87"/>
</g>
<!-- Node5 -->
<g id="node5" class="node">
<title>Node5</title>
<g id="a_node5"><a xlink:href="_cmd_line_8tests_8cpp.html#a44d5ced817b0c1ec9baafeab51cbe1fd" target="_top" xlink:title=" ">
<polygon fill="white" stroke="black" points="30,-31 30,-50 101,-50 101,-31 30,-31"/>
<text text-anchor="middle" x="65.5" y="-38" font-family="Helvetica,sans-Serif" font-size="10.00">TEST_CASE</text>
</a>
</g>
</g>
<!-- Node3&#45;&gt;Node5 -->
<g id="edge4" class="edge">
<title>Node3&#45;&gt;Node5</title>
<path fill="none" stroke="midnightblue" d="M156.75,-49.6C136.9,-47.6 117.27,-45.62 101.43,-44.02"/>
<polygon fill="midnightblue" stroke="midnightblue" points="156.52,-53.09 166.82,-50.61 157.22,-46.13 156.52,-53.09"/>
</g>
</g>
</svg>
