<?xml version="1.0" encoding="UTF-8" standalone="no"?>
<!DOCTYPE svg PUBLIC "-//W3C//DTD SVG 1.1//EN"
 "http://www.w3.org/Graphics/SVG/1.1/DTD/svg11.dtd">
<!-- Generated by graphviz version 2.43.0 (0)
 -->
<!-- Title: BindingUsage Pages: 1 -->
<svg width="119pt" height="281pt"
 viewBox="0.00 0.00 119.00 281.00" xmlns="http://www.w3.org/2000/svg" xmlns:xlink="http://www.w3.org/1999/xlink">
<g id="graph0" class="graph" transform="scale(1 1) rotate(0) translate(4 277)">
<title>BindingUsage</title>
<polygon fill="white" stroke="transparent" points="-4,4 -4,-277 115,-277 115,4 -4,4"/>
<!-- Node1 -->
<g id="node1" class="node">
<title>Node1</title>
<g id="a_node1"><a xlink:title="Variable binding usage Value can be assigned to variable.">
<polygon fill="#bfbfbf" stroke="black" points="0,-0.5 0,-134.5 111,-134.5 111,-0.5 0,-0.5"/>
<text text-anchor="middle" x="55.5" y="-122.5" font-family="Helvetica,sans-Serif" font-size="10.00">BindingUsage</text>
<polyline fill="none" stroke="black" points="0,-115.5 111,-115.5 "/>
<text text-anchor="middle" x="55.5" y="-103.5" font-family="Helvetica,sans-Serif" font-size="10.00"> </text>
<polyline fill="none" stroke="black" points="0,-96.5 111,-96.5 "/>
<text text-anchor="start" x="8" y="-84.5" font-family="Helvetica,sans-Serif" font-size="10.00">+ BindingUsage()</text>
<text text-anchor="start" x="8" y="-73.5" font-family="Helvetica,sans-Serif" font-size="10.00">+ BindingUsage()</text>
<text text-anchor="start" x="8" y="-62.5" font-family="Helvetica,sans-Serif" font-size="10.00">+ BindingUsage()</text>
<text text-anchor="start" x="8" y="-51.5" font-family="Helvetica,sans-Serif" font-size="10.00">+ ~BindingUsage()</text>
<text text-anchor="start" x="8" y="-40.5" font-family="Helvetica,sans-Serif" font-size="10.00">+ operator==()</text>
<text text-anchor="start" x="8" y="-29.5" font-family="Helvetica,sans-Serif" font-size="10.00">+ eval()</text>
<text text-anchor="start" x="8" y="-18.5" font-family="Helvetica,sans-Serif" font-size="10.00">+ clone()</text>
<text text-anchor="start" x="8" y="-7.5" font-family="Helvetica,sans-Serif" font-size="10.00">+ parse()</text>
</a>
</g>
</g>
<!-- Node2 -->
<g id="node2" class="node">
<title>Node2</title>
<g id="a_node2"><a xlink:href="class_i_statment.html" target="_top" xlink:title="Base class for all possible statments in the language.">
<polygon fill="white" stroke="black" points="9.5,-171.5 9.5,-272.5 101.5,-272.5 101.5,-171.5 9.5,-171.5"/>
<text text-anchor="middle" x="55.5" y="-260.5" font-family="Helvetica,sans-Serif" font-size="10.00">IStatment</text>
<polyline fill="none" stroke="black" points="9.5,-253.5 101.5,-253.5 "/>
<text text-anchor="middle" x="55.5" y="-241.5" font-family="Helvetica,sans-Serif" font-size="10.00"> </text>
<polyline fill="none" stroke="black" points="9.5,-234.5 101.5,-234.5 "/>
<text text-anchor="start" x="17.5" y="-222.5" font-family="Helvetica,sans-Serif" font-size="10.00">+ IStatment()</text>
<text text-anchor="start" x="17.5" y="-211.5" font-family="Helvetica,sans-Serif" font-size="10.00">+ eval()</text>
<text text-anchor="start" x="17.5" y="-200.5" font-family="Helvetica,sans-Serif" font-size="10.00">+ clone()</text>
<text text-anchor="start" x="17.5" y="-189.5" font-family="Helvetica,sans-Serif" font-size="10.00">+ ~IStatment()</text>
<text text-anchor="start" x="17.5" y="-178.5" font-family="Helvetica,sans-Serif" font-size="10.00">+ parse()</text>
</a>
</g>
</g>
<!-- Node2&#45;&gt;Node1 -->
<g id="edge1" class="edge">
<title>Node2&#45;&gt;Node1</title>
<path fill="none" stroke="midnightblue" d="M55.5,-161.38C55.5,-152.63 55.5,-143.56 55.5,-134.69"/>
<polygon fill="none" stroke="midnightblue" points="52,-161.49 55.5,-171.49 59,-161.49 52,-161.49"/>
</g>
</g>
</svg>
