<?xml version="1.0" encoding="UTF-8" standalone="no"?>
<!DOCTYPE svg PUBLIC "-//W3C//DTD SVG 1.1//EN"
 "http://www.w3.org/Graphics/SVG/1.1/DTD/svg11.dtd">
<!-- Generated by graphviz version 2.43.0 (0)
 -->
<!-- Title: Catch::clara::detail::Arg Pages: 1 -->
<svg width="143pt" height="601pt"
 viewBox="0.00 0.00 143.00 601.00" xmlns="http://www.w3.org/2000/svg" xmlns:xlink="http://www.w3.org/1999/xlink">
<g id="graph0" class="graph" transform="scale(1 1) rotate(0) translate(4 597)">
<title>Catch::clara::detail::Arg</title>
<polygon fill="white" stroke="transparent" points="-4,4 -4,-597 139,-597 139,4 -4,4"/>
<!-- Node1 -->
<g id="node1" class="node">
<title>Node1</title>
<g id="a_node1"><a xlink:title=" ">
<polygon fill="#bfbfbf" stroke="black" points="2,-0.5 2,-90.5 133,-90.5 133,-0.5 2,-0.5"/>
<text text-anchor="middle" x="67.5" y="-78.5" font-family="Helvetica,sans-Serif" font-size="10.00">Catch::clara::detail::Arg</text>
<polyline fill="none" stroke="black" points="2,-71.5 133,-71.5 "/>
<text text-anchor="middle" x="67.5" y="-59.5" font-family="Helvetica,sans-Serif" font-size="10.00"> </text>
<polyline fill="none" stroke="black" points="2,-52.5 133,-52.5 "/>
<text text-anchor="start" x="10" y="-40.5" font-family="Helvetica,sans-Serif" font-size="10.00">+ parse()</text>
<text text-anchor="start" x="10" y="-29.5" font-family="Helvetica,sans-Serif" font-size="10.00">+ ParserRefImpl()</text>
<text text-anchor="start" x="10" y="-18.5" font-family="Helvetica,sans-Serif" font-size="10.00">+ ParserRefImpl()</text>
<text text-anchor="start" x="10" y="-7.5" font-family="Helvetica,sans-Serif" font-size="10.00">+ ParserRefImpl()</text>
</a>
</g>
</g>
<!-- Node2 -->
<g id="node2" class="node">
<title>Node2</title>
<g id="a_node2"><a xlink:href="class_catch_1_1clara_1_1detail_1_1_parser_ref_impl.html" target="_top" xlink:title=" ">
<polygon fill="white" stroke="black" points="2.5,-127.5 2.5,-316.5 132.5,-316.5 132.5,-127.5 2.5,-127.5"/>
<text text-anchor="start" x="10.5" y="-304.5" font-family="Helvetica,sans-Serif" font-size="10.00">Catch::clara::detail</text>
<text text-anchor="middle" x="67.5" y="-293.5" font-family="Helvetica,sans-Serif" font-size="10.00">::ParserRefImpl&lt; Arg &gt;</text>
<polyline fill="none" stroke="black" points="2.5,-286.5 132.5,-286.5 "/>
<text text-anchor="start" x="10.5" y="-274.5" font-family="Helvetica,sans-Serif" font-size="10.00"># m_optionality</text>
<text text-anchor="start" x="10.5" y="-263.5" font-family="Helvetica,sans-Serif" font-size="10.00"># m_ref</text>
<text text-anchor="start" x="10.5" y="-252.5" font-family="Helvetica,sans-Serif" font-size="10.00"># m_hint</text>
<text text-anchor="start" x="10.5" y="-241.5" font-family="Helvetica,sans-Serif" font-size="10.00"># m_description</text>
<polyline fill="none" stroke="black" points="2.5,-234.5 132.5,-234.5 "/>
<text text-anchor="start" x="10.5" y="-222.5" font-family="Helvetica,sans-Serif" font-size="10.00">+ ParserRefImpl()</text>
<text text-anchor="start" x="10.5" y="-211.5" font-family="Helvetica,sans-Serif" font-size="10.00">+ ParserRefImpl()</text>
<text text-anchor="start" x="10.5" y="-200.5" font-family="Helvetica,sans-Serif" font-size="10.00">+ operator()()</text>
<text text-anchor="start" x="10.5" y="-189.5" font-family="Helvetica,sans-Serif" font-size="10.00">+ optional()</text>
<text text-anchor="start" x="10.5" y="-178.5" font-family="Helvetica,sans-Serif" font-size="10.00">+ required()</text>
<text text-anchor="start" x="10.5" y="-167.5" font-family="Helvetica,sans-Serif" font-size="10.00">+ isOptional()</text>
<text text-anchor="start" x="10.5" y="-156.5" font-family="Helvetica,sans-Serif" font-size="10.00">+ cardinality()</text>
<text text-anchor="start" x="10.5" y="-145.5" font-family="Helvetica,sans-Serif" font-size="10.00">+ hint()</text>
<text text-anchor="start" x="10.5" y="-134.5" font-family="Helvetica,sans-Serif" font-size="10.00"># ParserRefImpl()</text>
</a>
</g>
</g>
<!-- Node2&#45;&gt;Node1 -->
<g id="edge1" class="edge">
<title>Node2&#45;&gt;Node1</title>
<path fill="none" stroke="midnightblue" d="M67.5,-117.24C67.5,-107.99 67.5,-99 67.5,-90.69"/>
<polygon fill="none" stroke="midnightblue" points="64,-117.36 67.5,-127.36 71,-117.36 64,-117.36"/>
</g>
<!-- Node3 -->
<g id="node3" class="node">
<title>Node3</title>
<g id="a_node3"><a xlink:href="class_catch_1_1clara_1_1detail_1_1_composable_parser_impl.html" target="_top" xlink:title=" ">
<polygon fill="white" stroke="black" points="0,-353.5 0,-443.5 135,-443.5 135,-353.5 0,-353.5"/>
<text text-anchor="start" x="8" y="-431.5" font-family="Helvetica,sans-Serif" font-size="10.00">Catch::clara::detail</text>
<text text-anchor="start" x="8" y="-420.5" font-family="Helvetica,sans-Serif" font-size="10.00">::ComposableParserImpl</text>
<text text-anchor="middle" x="67.5" y="-409.5" font-family="Helvetica,sans-Serif" font-size="10.00">&lt; DerivedT &gt;</text>
<polyline fill="none" stroke="black" points="0,-402.5 135,-402.5 "/>
<text text-anchor="middle" x="67.5" y="-390.5" font-family="Helvetica,sans-Serif" font-size="10.00"> </text>
<polyline fill="none" stroke="black" points="0,-383.5 135,-383.5 "/>
<text text-anchor="start" x="8" y="-371.5" font-family="Helvetica,sans-Serif" font-size="10.00">+ operator|()</text>
<text text-anchor="start" x="8" y="-360.5" font-family="Helvetica,sans-Serif" font-size="10.00">+ operator+()</text>
</a>
</g>
</g>
<!-- Node3&#45;&gt;Node2 -->
<g id="edge2" class="edge">
<title>Node3&#45;&gt;Node2</title>
<path fill="none" stroke="midnightblue" d="M67.5,-343.36C67.5,-334.86 67.5,-325.86 67.5,-316.76"/>
<polygon fill="none" stroke="midnightblue" points="64,-343.47 67.5,-353.47 71,-343.47 64,-343.47"/>
</g>
<!-- Node4 -->
<g id="node4" class="node">
<title>Node4</title>
<g id="a_node4"><a xlink:href="class_catch_1_1clara_1_1detail_1_1_parser_base.html" target="_top" xlink:title=" ">
<polygon fill="white" stroke="black" points="13.5,-480.5 13.5,-592.5 121.5,-592.5 121.5,-480.5 13.5,-480.5"/>
<text text-anchor="start" x="21.5" y="-580.5" font-family="Helvetica,sans-Serif" font-size="10.00">Catch::clara::detail</text>
<text text-anchor="middle" x="67.5" y="-569.5" font-family="Helvetica,sans-Serif" font-size="10.00">::ParserBase</text>
<polyline fill="none" stroke="black" points="13.5,-562.5 121.5,-562.5 "/>
<text text-anchor="middle" x="67.5" y="-550.5" font-family="Helvetica,sans-Serif" font-size="10.00"> </text>
<polyline fill="none" stroke="black" points="13.5,-543.5 121.5,-543.5 "/>
<text text-anchor="start" x="21.5" y="-531.5" font-family="Helvetica,sans-Serif" font-size="10.00">+ ~ParserBase()</text>
<text text-anchor="start" x="21.5" y="-520.5" font-family="Helvetica,sans-Serif" font-size="10.00">+ validate()</text>
<text text-anchor="start" x="21.5" y="-509.5" font-family="Helvetica,sans-Serif" font-size="10.00">+ parse()</text>
<text text-anchor="start" x="21.5" y="-498.5" font-family="Helvetica,sans-Serif" font-size="10.00">+ cardinality()</text>
<text text-anchor="start" x="21.5" y="-487.5" font-family="Helvetica,sans-Serif" font-size="10.00">+ parse()</text>
</a>
</g>
</g>
<!-- Node4&#45;&gt;Node3 -->
<g id="edge3" class="edge">
<title>Node4&#45;&gt;Node3</title>
<path fill="none" stroke="midnightblue" d="M67.5,-470.08C67.5,-461.07 67.5,-452.01 67.5,-443.51"/>
<polygon fill="none" stroke="midnightblue" points="64,-470.18 67.5,-480.18 71,-470.18 64,-470.18"/>
</g>
</g>
</svg>
