<?xml version="1.0" encoding="UTF-8" standalone="no"?>
<!DOCTYPE svg PUBLIC "-//W3C//DTD SVG 1.1//EN"
 "http://www.w3.org/Graphics/SVG/1.1/DTD/svg11.dtd">
<!-- Generated by graphviz version 2.43.0 (0)
 -->
<!-- Title: parse_log_file_arg Pages: 1 -->
<svg width="253pt" height="66pt"
 viewBox="0.00 0.00 253.00 66.00" xmlns="http://www.w3.org/2000/svg" xmlns:xlink="http://www.w3.org/1999/xlink">
<g id="graph0" class="graph" transform="scale(1 1) rotate(0) translate(4 62)">
<title>parse_log_file_arg</title>
<polygon fill="white" stroke="transparent" points="-4,4 -4,-62 249,-62 249,4 -4,4"/>
<!-- Node1 -->
<g id="node1" class="node">
<title>Node1</title>
<g id="a_node1"><a xlink:title=" ">
<polygon fill="#bfbfbf" stroke="black" points="0,-19.5 0,-38.5 105,-38.5 105,-19.5 0,-19.5"/>
<text text-anchor="middle" x="52.5" y="-26.5" font-family="Helvetica,sans-Serif" font-size="10.00">parse_log_file_arg</text>
</a>
</g>
</g>
<!-- Node2 -->
<g id="node2" class="node">
<title>Node2</title>
<g id="a_node2"><a xlink:href="coverage-helper_8cpp.html#a9147e75274cac79757e4f95a13910faa" target="_top" xlink:title=" ">
<polygon fill="white" stroke="black" points="141,-38.5 141,-57.5 245,-57.5 245,-38.5 141,-38.5"/>
<text text-anchor="middle" x="193" y="-45.5" font-family="Helvetica,sans-Serif" font-size="10.00">create_empty_file</text>
</a>
</g>
</g>
<!-- Node1&#45;&gt;Node2 -->
<g id="edge1" class="edge">
<title>Node1&#45;&gt;Node2</title>
<path fill="none" stroke="midnightblue" d="M105.07,-36.07C113.47,-37.23 122.25,-38.43 130.85,-39.61"/>
<polygon fill="midnightblue" stroke="midnightblue" points="130.46,-43.09 140.85,-40.98 131.41,-36.16 130.46,-43.09"/>
</g>
<!-- Node3 -->
<g id="node3" class="node">
<title>Node3</title>
<g id="a_node3"><a xlink:href="coverage-helper_8cpp.html#acf4803e8473417fc0a4ec061a7260106" target="_top" xlink:title=" ">
<polygon fill="white" stroke="black" points="157.5,-0.5 157.5,-19.5 228.5,-19.5 228.5,-0.5 157.5,-0.5"/>
<text text-anchor="middle" x="193" y="-7.5" font-family="Helvetica,sans-Serif" font-size="10.00">starts_with</text>
</a>
</g>
</g>
<!-- Node1&#45;&gt;Node3 -->
<g id="edge2" class="edge">
<title>Node1&#45;&gt;Node3</title>
<path fill="none" stroke="midnightblue" d="M105.07,-21.93C118.92,-20.02 133.79,-17.99 147.23,-16.14"/>
<polygon fill="midnightblue" stroke="midnightblue" points="147.77,-19.6 157.2,-14.77 146.82,-12.67 147.77,-19.6"/>
</g>
</g>
</svg>
