<?xml version="1.0" encoding="UTF-8" standalone="no"?>
<!DOCTYPE svg PUBLIC "-//W3C//DTD SVG 1.1//EN"
 "http://www.w3.org/Graphics/SVG/1.1/DTD/svg11.dtd">
<!-- Generated by graphviz version 2.43.0 (0)
 -->
<!-- Title: language/lib/Catch2/projects/SelfTest/IntrospectiveTests Pages: 1 -->
<svg width="146pt" height="151pt"
 viewBox="0.00 0.00 146.00 151.00" xmlns="http://www.w3.org/2000/svg" xmlns:xlink="http://www.w3.org/1999/xlink">
<g id="graph0" class="graph" transform="scale(1 1) rotate(0) translate(4 147)">
<title>language/lib/Catch2/projects/SelfTest/IntrospectiveTests</title>
<polygon fill="white" stroke="transparent" points="-4,4 -4,-147 142,-147 142,4 -4,4"/>
<g id="clust1" class="cluster">
<title>clusterdir_9a051d50eb3bad14f7ace64b6f2240ff</title>
<g id="a_clust1"><a xlink:href="dir_9a051d50eb3bad14f7ace64b6f2240ff.html" target="_top" xlink:title="SelfTest">
<polygon fill="#ddddee" stroke="black" points="8,-64 8,-135 130,-135 130,-64 8,-64"/>
<text text-anchor="middle" x="69" y="-123" font-family="Helvetica,sans-Serif" font-size="10.00">SelfTest</text>
</a>
</g>
</g>
<!-- dir_96dd436fa0c2c3fe7ae283a861135516 -->
<g id="node1" class="node">
<title>dir_96dd436fa0c2c3fe7ae283a861135516</title>
<g id="a_node1"><a xlink:href="dir_96dd436fa0c2c3fe7ae283a861135516.html" target="_top" xlink:title="IntrospectiveTests">
<polygon fill="#eeeeff" stroke="black" points="121.5,-108 16.5,-108 16.5,-72 121.5,-72 121.5,-108"/>
<text text-anchor="middle" x="69" y="-87.5" font-family="Helvetica,sans-Serif" font-size="10.00">IntrospectiveTests</text>
</a>
</g>
</g>
<!-- dir_e9b9a603a4a357e5131fe56edcd3932d -->
<g id="node2" class="node">
<title>dir_e9b9a603a4a357e5131fe56edcd3932d</title>
<g id="a_node2"><a xlink:href="dir_e9b9a603a4a357e5131fe56edcd3932d.html" target="_top" xlink:title="include">
<polygon fill="white" stroke="red" points="96,-36 42,-36 42,0 96,0 96,-36"/>
<text text-anchor="middle" x="69" y="-15.5" font-family="Helvetica,sans-Serif" font-size="10.00">include</text>
</a>
</g>
</g>
<!-- dir_96dd436fa0c2c3fe7ae283a861135516&#45;&gt;dir_e9b9a603a4a357e5131fe56edcd3932d -->
<g id="edge1" class="edge">
<title>dir_96dd436fa0c2c3fe7ae283a861135516&#45;&gt;dir_e9b9a603a4a357e5131fe56edcd3932d</title>
<path fill="none" stroke="black" d="M69,-71.7C69,-63.98 69,-54.71 69,-46.11"/>
<polygon fill="black" stroke="black" points="72.5,-46.1 69,-36.1 65.5,-46.1 72.5,-46.1"/>
<g id="a_edge1&#45;headlabel"><a xlink:href="dir_000027_000014.html" target="_top" xlink:title="11">
<text text-anchor="middle" x="75.34" y="-47.2" font-family="Helvetica,sans-Serif" font-size="10.00">11</text>
</a>
</g>
</g>
</g>
</svg>
