<?xml version="1.0" encoding="UTF-8" standalone="no"?>
<!DOCTYPE svg PUBLIC "-//W3C//DTD SVG 1.1//EN"
 "http://www.w3.org/Graphics/SVG/1.1/DTD/svg11.dtd">
<!-- Generated by graphviz version 2.43.0 (0)
 -->
<!-- Title: language/lib/Catch2/projects/SelfTest/CompileTimePerfTests Pages: 1 -->
<svg width="166pt" height="151pt"
 viewBox="0.00 0.00 166.00 151.00" xmlns="http://www.w3.org/2000/svg" xmlns:xlink="http://www.w3.org/1999/xlink">
<g id="graph0" class="graph" transform="scale(1 1) rotate(0) translate(4 147)">
<title>language/lib/Catch2/projects/SelfTest/CompileTimePerfTests</title>
<polygon fill="white" stroke="transparent" points="-4,4 -4,-147 162,-147 162,4 -4,4"/>
<g id="clust1" class="cluster">
<title>clusterdir_9a051d50eb3bad14f7ace64b6f2240ff</title>
<g id="a_clust1"><a xlink:href="dir_9a051d50eb3bad14f7ace64b6f2240ff.html" target="_top" xlink:title="SelfTest">
<polygon fill="#ddddee" stroke="black" points="8,-64 8,-135 150,-135 150,-64 8,-64"/>
<text text-anchor="middle" x="79" y="-123" font-family="Helvetica,sans-Serif" font-size="10.00">SelfTest</text>
</a>
</g>
</g>
<!-- dir_47770c780bb3098fd2d7de1cf17910c7 -->
<g id="node1" class="node">
<title>dir_47770c780bb3098fd2d7de1cf17910c7</title>
<g id="a_node1"><a xlink:href="dir_47770c780bb3098fd2d7de1cf17910c7.html" target="_top" xlink:title="CompileTimePerfTests">
<polygon fill="#eeeeff" stroke="black" points="142,-108 16,-108 16,-72 142,-72 142,-108"/>
<text text-anchor="middle" x="79" y="-87.5" font-family="Helvetica,sans-Serif" font-size="10.00">CompileTimePerfTests</text>
</a>
</g>
</g>
<!-- dir_3134cfc7383563dbdee36b08a10379c9 -->
<g id="node2" class="node">
<title>dir_3134cfc7383563dbdee36b08a10379c9</title>
<g id="a_node2"><a xlink:href="dir_3134cfc7383563dbdee36b08a10379c9.html" target="_top" xlink:title="UsageTests">
<polygon fill="none" stroke="black" points="115,-36 43,-36 43,0 115,0 115,-36"/>
<text text-anchor="middle" x="79" y="-15.5" font-family="Helvetica,sans-Serif" font-size="10.00">UsageTests</text>
</a>
</g>
</g>
<!-- dir_47770c780bb3098fd2d7de1cf17910c7&#45;&gt;dir_3134cfc7383563dbdee36b08a10379c9 -->
<g id="edge1" class="edge">
<title>dir_47770c780bb3098fd2d7de1cf17910c7&#45;&gt;dir_3134cfc7383563dbdee36b08a10379c9</title>
<path fill="none" stroke="black" d="M79,-71.7C79,-63.98 79,-54.71 79,-46.11"/>
<polygon fill="black" stroke="black" points="82.5,-46.1 79,-36.1 75.5,-46.1 82.5,-46.1"/>
<g id="a_edge1&#45;headlabel"><a xlink:href="dir_000026_000029.html" target="_top" xlink:title="8">
<text text-anchor="middle" x="85.34" y="-47.2" font-family="Helvetica,sans-Serif" font-size="10.00">8</text>
</a>
</g>
</g>
</g>
</svg>
