<?xml version="1.0" encoding="UTF-8" standalone="no"?>
<!DOCTYPE svg PUBLIC "-//W3C//DTD SVG 1.1//EN"
 "http://www.w3.org/Graphics/SVG/1.1/DTD/svg11.dtd">
<!-- Generated by graphviz version 2.43.0 (0)
 -->
<!-- Title: language/lib/Catch2/include/internal Pages: 1 -->
<svg width="219pt" height="159pt"
 viewBox="0.00 0.00 218.50 159.00" xmlns="http://www.w3.org/2000/svg" xmlns:xlink="http://www.w3.org/1999/xlink">
<g id="graph0" class="graph" transform="scale(1 1) rotate(0) translate(4 155)">
<title>language/lib/Catch2/include/internal</title>
<polygon fill="white" stroke="transparent" points="-4,4 -4,-155 214.5,-155 214.5,4 -4,4"/>
<g id="clust1" class="cluster">
<title>clusterdir_e9b9a603a4a357e5131fe56edcd3932d</title>
<g id="a_clust1"><a xlink:href="dir_e9b9a603a4a357e5131fe56edcd3932d.html" target="_top" xlink:title="include">
<polygon fill="#ddddee" stroke="black" points="8,-56 8,-143 184,-143 184,-56 8,-56"/>
<text text-anchor="middle" x="96" y="-131" font-family="Helvetica,sans-Serif" font-size="10.00">include</text>
</a>
</g>
</g>
<g id="clust2" class="cluster">
<title>clusterdir_34c1518a7dda29cb6a0910e08ce68e28</title>
<g id="a_clust2"><a xlink:href="dir_34c1518a7dda29cb6a0910e08ce68e28.html" target="_top">
<polygon fill="#eeeeff" stroke="black" points="16,-64 16,-116 176,-116 176,-64 16,-64"/>
</a>
</g>
</g>
<!-- dir_34c1518a7dda29cb6a0910e08ce68e28 -->
<g id="node1" class="node">
<title>dir_34c1518a7dda29cb6a0910e08ce68e28</title>
<text text-anchor="middle" x="141" y="-87.5" font-family="Helvetica,sans-Serif" font-size="10.00">internal</text>
</g>
<!-- dir_57e291d2dc9a17d9631d05aed562e1ae -->
<g id="node3" class="node">
<title>dir_57e291d2dc9a17d9631d05aed562e1ae</title>
<g id="a_node3"><a xlink:href="dir_57e291d2dc9a17d9631d05aed562e1ae.html" target="_top" xlink:title="external">
<polygon fill="none" stroke="black" points="131.5,-36 74.5,-36 74.5,0 131.5,0 131.5,-36"/>
<text text-anchor="middle" x="103" y="-15.5" font-family="Helvetica,sans-Serif" font-size="10.00">external</text>
</a>
</g>
</g>
<!-- dir_34c1518a7dda29cb6a0910e08ce68e28&#45;&gt;dir_57e291d2dc9a17d9631d05aed562e1ae -->
<g id="edge2" class="edge">
<title>dir_34c1518a7dda29cb6a0910e08ce68e28&#45;&gt;dir_57e291d2dc9a17d9631d05aed562e1ae</title>
<path fill="none" stroke="black" d="M131.61,-71.7C127.24,-63.64 121.94,-53.89 117.1,-44.98"/>
<polygon fill="black" stroke="black" points="120.13,-43.22 112.29,-36.1 113.98,-46.56 120.13,-43.22"/>
<g id="a_edge2&#45;headlabel"><a xlink:href="dir_000019_000017.html" target="_top" xlink:title="1">
<text text-anchor="middle" x="124.34" y="-42.53" font-family="Helvetica,sans-Serif" font-size="10.00">1</text>
</a>
</g>
</g>
<!-- dir_6b0dd6788999075b0a73fa1061e403c8 -->
<g id="node4" class="node">
<title>dir_6b0dd6788999075b0a73fa1061e403c8</title>
<g id="a_node4"><a xlink:href="dir_6b0dd6788999075b0a73fa1061e403c8.html" target="_top" xlink:title="reporters">
<polygon fill="none" stroke="black" points="210.5,-36 149.5,-36 149.5,0 210.5,0 210.5,-36"/>
<text text-anchor="middle" x="180" y="-15.5" font-family="Helvetica,sans-Serif" font-size="10.00">reporters</text>
</a>
</g>
</g>
<!-- dir_34c1518a7dda29cb6a0910e08ce68e28&#45;&gt;dir_6b0dd6788999075b0a73fa1061e403c8 -->
<g id="edge3" class="edge">
<title>dir_34c1518a7dda29cb6a0910e08ce68e28&#45;&gt;dir_6b0dd6788999075b0a73fa1061e403c8</title>
<path fill="none" stroke="black" d="M144.72,-71.7C148.42,-63.56 153.71,-53.69 159.15,-44.7"/>
<polygon fill="black" stroke="black" points="162.2,-46.43 164.58,-36.1 156.28,-42.69 162.2,-46.43"/>
<g id="a_edge3&#45;headlabel"><a xlink:href="dir_000019_000024.html" target="_top" xlink:title="7">
<text text-anchor="middle" x="162.68" y="-48.48" font-family="Helvetica,sans-Serif" font-size="10.00">7</text>
</a>
</g>
</g>
<!-- dir_ee823e9dd6095faf8271f31f7bf9183b -->
<g id="node2" class="node">
<title>dir_ee823e9dd6095faf8271f31f7bf9183b</title>
<g id="a_node2"><a xlink:href="dir_ee823e9dd6095faf8271f31f7bf9183b.html" target="_top" xlink:title="benchmark">
<polygon fill="white" stroke="red" points="95.5,-108 24.5,-108 24.5,-72 95.5,-72 95.5,-108"/>
<text text-anchor="middle" x="60" y="-87.5" font-family="Helvetica,sans-Serif" font-size="10.00">benchmark</text>
</a>
</g>
</g>
<!-- dir_6b0dd6788999075b0a73fa1061e403c8&#45;&gt;dir_34c1518a7dda29cb6a0910e08ce68e28 -->
<g id="edge1" class="edge">
<title>dir_6b0dd6788999075b0a73fa1061e403c8&#45;&gt;dir_34c1518a7dda29cb6a0910e08ce68e28</title>
<path fill="none" stroke="black" d="M176.37,-36.1C172.7,-44.21 167.42,-54.08 161.99,-63.08"/>
<polygon fill="black" stroke="black" points="158.93,-61.37 156.56,-71.7 164.85,-65.1 158.93,-61.37"/>
<g id="a_edge1&#45;headlabel"><a xlink:href="dir_000024_000019.html" target="_top" xlink:title="21">
<text text-anchor="middle" x="158.44" y="-54.32" font-family="Helvetica,sans-Serif" font-size="10.00">21</text>
</a>
</g>
</g>
</g>
</svg>
