<?xml version="1.0" encoding="UTF-8" standalone="no"?>
<!DOCTYPE svg PUBLIC "-//W3C//DTD SVG 1.1//EN"
 "http://www.w3.org/Graphics/SVG/1.1/DTD/svg11.dtd">
<!-- Generated by graphviz version 2.43.0 (0)
 -->
<!-- Title: language/lib/Catch2/include/internal/benchmark Pages: 1 -->
<svg width="128pt" height="183pt"
 viewBox="0.00 0.00 128.00 183.00" xmlns="http://www.w3.org/2000/svg" xmlns:xlink="http://www.w3.org/1999/xlink">
<g id="graph0" class="graph" transform="scale(1 1) rotate(0) translate(4 179)">
<title>language/lib/Catch2/include/internal/benchmark</title>
<polygon fill="white" stroke="transparent" points="-4,4 -4,-179 124,-179 124,4 -4,4"/>
<g id="clust1" class="cluster">
<title>clusterdir_34c1518a7dda29cb6a0910e08ce68e28</title>
<g id="a_clust1"><a xlink:href="dir_34c1518a7dda29cb6a0910e08ce68e28.html" target="_top" xlink:title="internal">
<polygon fill="#ddddee" stroke="black" points="8,-8 8,-167 112,-167 112,-8 8,-8"/>
<text text-anchor="middle" x="60" y="-155" font-family="Helvetica,sans-Serif" font-size="10.00">internal</text>
</a>
</g>
</g>
<g id="clust2" class="cluster">
<title>clusterdir_ee823e9dd6095faf8271f31f7bf9183b</title>
<g id="a_clust2"><a xlink:href="dir_ee823e9dd6095faf8271f31f7bf9183b.html" target="_top">
<polygon fill="#eeeeff" stroke="black" points="16,-16 16,-140 104,-140 104,-16 16,-16"/>
</a>
</g>
</g>
<!-- dir_ee823e9dd6095faf8271f31f7bf9183b -->
<g id="node1" class="node">
<title>dir_ee823e9dd6095faf8271f31f7bf9183b</title>
<text text-anchor="middle" x="60" y="-111.5" font-family="Helvetica,sans-Serif" font-size="10.00">benchmark</text>
</g>
<!-- dir_b96e789f8373af269637ddecb770db42 -->
<g id="node2" class="node">
<title>dir_b96e789f8373af269637ddecb770db42</title>
<g id="a_node2"><a xlink:href="dir_b96e789f8373af269637ddecb770db42.html" target="_top" xlink:title="detail">
<polygon fill="white" stroke="black" points="87,-60 33,-60 33,-24 87,-24 87,-60"/>
<text text-anchor="middle" x="60" y="-39.5" font-family="Helvetica,sans-Serif" font-size="10.00">detail</text>
</a>
</g>
</g>
<!-- dir_ee823e9dd6095faf8271f31f7bf9183b&#45;&gt;dir_b96e789f8373af269637ddecb770db42 -->
<g id="edge1" class="edge">
<title>dir_ee823e9dd6095faf8271f31f7bf9183b&#45;&gt;dir_b96e789f8373af269637ddecb770db42</title>
<path fill="none" stroke="black" d="M60,-95.7C60,-87.98 60,-78.71 60,-70.11"/>
<polygon fill="black" stroke="black" points="63.5,-70.1 60,-60.1 56.5,-70.1 63.5,-70.1"/>
<g id="a_edge1&#45;headlabel"><a xlink:href="dir_000020_000021.html" target="_top" xlink:title="18">
<text text-anchor="middle" x="66.34" y="-71.2" font-family="Helvetica,sans-Serif" font-size="10.00">18</text>
</a>
</g>
</g>
</g>
</svg>
