<?xml version="1.0" encoding="UTF-8" standalone="no"?>
<!DOCTYPE svg PUBLIC "-//W3C//DTD SVG 1.1//EN"
 "http://www.w3.org/Graphics/SVG/1.1/DTD/svg11.dtd">
<!-- Generated by graphviz version 2.43.0 (0)
 -->
<!-- Title: language/lib/Catch2/projects/SelfTest/SurrogateCpps Pages: 1 -->
<svg width="128pt" height="151pt"
 viewBox="0.00 0.00 128.00 151.00" xmlns="http://www.w3.org/2000/svg" xmlns:xlink="http://www.w3.org/1999/xlink">
<g id="graph0" class="graph" transform="scale(1 1) rotate(0) translate(4 147)">
<title>language/lib/Catch2/projects/SelfTest/SurrogateCpps</title>
<polygon fill="white" stroke="transparent" points="-4,4 -4,-147 124,-147 124,4 -4,4"/>
<g id="clust1" class="cluster">
<title>clusterdir_9a051d50eb3bad14f7ace64b6f2240ff</title>
<g id="a_clust1"><a xlink:href="dir_9a051d50eb3bad14f7ace64b6f2240ff.html" target="_top" xlink:title="SelfTest">
<polygon fill="#ddddee" stroke="black" points="8,-64 8,-135 112,-135 112,-64 8,-64"/>
<text text-anchor="middle" x="60" y="-123" font-family="Helvetica,sans-Serif" font-size="10.00">SelfTest</text>
</a>
</g>
</g>
<!-- dir_9bd2d0ca71173d708dce65c5a343bb83 -->
<g id="node1" class="node">
<title>dir_9bd2d0ca71173d708dce65c5a343bb83</title>
<g id="a_node1"><a xlink:href="dir_9bd2d0ca71173d708dce65c5a343bb83.html" target="_top" xlink:title="SurrogateCpps">
<polygon fill="#eeeeff" stroke="black" points="104,-108 16,-108 16,-72 104,-72 104,-108"/>
<text text-anchor="middle" x="60" y="-87.5" font-family="Helvetica,sans-Serif" font-size="10.00">SurrogateCpps</text>
</a>
</g>
</g>
<!-- dir_e9b9a603a4a357e5131fe56edcd3932d -->
<g id="node2" class="node">
<title>dir_e9b9a603a4a357e5131fe56edcd3932d</title>
<g id="a_node2"><a xlink:href="dir_e9b9a603a4a357e5131fe56edcd3932d.html" target="_top" xlink:title="include">
<polygon fill="white" stroke="red" points="87,-36 33,-36 33,0 87,0 87,-36"/>
<text text-anchor="middle" x="60" y="-15.5" font-family="Helvetica,sans-Serif" font-size="10.00">include</text>
</a>
</g>
</g>
<!-- dir_9bd2d0ca71173d708dce65c5a343bb83&#45;&gt;dir_e9b9a603a4a357e5131fe56edcd3932d -->
<g id="edge1" class="edge">
<title>dir_9bd2d0ca71173d708dce65c5a343bb83&#45;&gt;dir_e9b9a603a4a357e5131fe56edcd3932d</title>
<path fill="none" stroke="black" d="M60,-71.7C60,-63.98 60,-54.71 60,-46.11"/>
<polygon fill="black" stroke="black" points="63.5,-46.1 60,-36.1 56.5,-46.1 63.5,-46.1"/>
<g id="a_edge1&#45;headlabel"><a xlink:href="dir_000023_000014.html" target="_top" xlink:title="15">
<text text-anchor="middle" x="66.34" y="-47.2" font-family="Helvetica,sans-Serif" font-size="10.00">15</text>
</a>
</g>
</g>
</g>
</svg>
