<?xml version="1.0" encoding="UTF-8" standalone="no"?>
<!DOCTYPE svg PUBLIC "-//W3C//DTD SVG 1.1//EN"
 "http://www.w3.org/Graphics/SVG/1.1/DTD/svg11.dtd">
<!-- Generated by graphviz version 2.43.0 (0)
 -->
<!-- Title: language/lib/Catch2 Pages: 1 -->
<svg width="644pt" height="183pt"
 viewBox="0.00 0.00 644.00 183.00" xmlns="http://www.w3.org/2000/svg" xmlns:xlink="http://www.w3.org/1999/xlink">
<g id="graph0" class="graph" transform="scale(1 1) rotate(0) translate(4 179)">
<title>language/lib/Catch2</title>
<polygon fill="white" stroke="transparent" points="-4,4 -4,-179 640,-179 640,4 -4,4"/>
<g id="clust1" class="cluster">
<title>clusterdir_68b4f826634503c241ab8cd6ffe9ccb0</title>
<g id="a_clust1"><a xlink:href="dir_68b4f826634503c241ab8cd6ffe9ccb0.html" target="_top" xlink:title="lib">
<polygon fill="#ddddee" stroke="black" points="8,-8 8,-167 628,-167 628,-8 8,-8"/>
<text text-anchor="middle" x="318" y="-155" font-family="Helvetica,sans-Serif" font-size="10.00">lib</text>
</a>
</g>
</g>
<g id="clust2" class="cluster">
<title>clusterdir_a6115f2f0e5d0fbd2c61d3b61e04d78e</title>
<g id="a_clust2"><a xlink:href="dir_a6115f2f0e5d0fbd2c61d3b61e04d78e.html" target="_top">
<polygon fill="#eeeeff" stroke="black" points="16,-16 16,-140 620,-140 620,-16 16,-16"/>
</a>
</g>
</g>
<!-- dir_a6115f2f0e5d0fbd2c61d3b61e04d78e -->
<g id="node1" class="node">
<title>dir_a6115f2f0e5d0fbd2c61d3b61e04d78e</title>
<text text-anchor="middle" x="585" y="-111.5" font-family="Helvetica,sans-Serif" font-size="10.00">Catch2</text>
</g>
<!-- dir_b24ca69884b2875bdaec88354bdaa760 -->
<g id="node2" class="node">
<title>dir_b24ca69884b2875bdaec88354bdaa760</title>
<g id="a_node2"><a xlink:href="dir_b24ca69884b2875bdaec88354bdaa760.html" target="_top" xlink:title="docs">
<polygon fill="white" stroke="black" points="540,-132 486,-132 486,-96 540,-96 540,-132"/>
<text text-anchor="middle" x="513" y="-111.5" font-family="Helvetica,sans-Serif" font-size="10.00">docs</text>
</a>
</g>
</g>
<!-- dir_8a875c4660ee414c1037f472c4299bfc -->
<g id="node3" class="node">
<title>dir_8a875c4660ee414c1037f472c4299bfc</title>
<g id="a_node3"><a xlink:href="dir_8a875c4660ee414c1037f472c4299bfc.html" target="_top" xlink:title="examples">
<polygon fill="white" stroke="black" points="177.5,-132 112.5,-132 112.5,-96 177.5,-96 177.5,-132"/>
<text text-anchor="middle" x="145" y="-111.5" font-family="Helvetica,sans-Serif" font-size="10.00">examples</text>
</a>
</g>
</g>
<!-- dir_ea8b4eb35ba43b6cc16a1680a4c18183 -->
<g id="node8" class="node">
<title>dir_ea8b4eb35ba43b6cc16a1680a4c18183</title>
<g id="a_node8"><a xlink:href="dir_ea8b4eb35ba43b6cc16a1680a4c18183.html" target="_top" xlink:title="single_include">
<polygon fill="white" stroke="red" points="338,-60 252,-60 252,-24 338,-24 338,-60"/>
<text text-anchor="middle" x="295" y="-39.5" font-family="Helvetica,sans-Serif" font-size="10.00">single_include</text>
</a>
</g>
</g>
<!-- dir_8a875c4660ee414c1037f472c4299bfc&#45;&gt;dir_ea8b4eb35ba43b6cc16a1680a4c18183 -->
<g id="edge2" class="edge">
<title>dir_8a875c4660ee414c1037f472c4299bfc&#45;&gt;dir_ea8b4eb35ba43b6cc16a1680a4c18183</title>
<path fill="none" stroke="black" d="M177.55,-97.81C198.53,-88.02 226.11,-75.15 249.27,-64.34"/>
<polygon fill="black" stroke="black" points="250.99,-67.4 258.57,-60 248.03,-61.06 250.99,-67.4"/>
<g id="a_edge2&#45;headlabel"><a xlink:href="dir_000009_000015.html" target="_top" xlink:title="17">
<text text-anchor="middle" x="248.93" y="-69" font-family="Helvetica,sans-Serif" font-size="10.00">17</text>
</a>
</g>
</g>
<!-- dir_e9b9a603a4a357e5131fe56edcd3932d -->
<g id="node4" class="node">
<title>dir_e9b9a603a4a357e5131fe56edcd3932d</title>
<g id="a_node4"><a xlink:href="dir_e9b9a603a4a357e5131fe56edcd3932d.html" target="_top" xlink:title="include">
<polygon fill="white" stroke="red" points="467,-60 413,-60 413,-24 467,-24 467,-60"/>
<text text-anchor="middle" x="440" y="-39.5" font-family="Helvetica,sans-Serif" font-size="10.00">include</text>
</a>
</g>
</g>
<!-- dir_d3f5d513d6414caa100e623bcbb69372 -->
<g id="node5" class="node">
<title>dir_d3f5d513d6414caa100e623bcbb69372</title>
<g id="a_node5"><a xlink:href="dir_d3f5d513d6414caa100e623bcbb69372.html" target="_top" xlink:title="misc">
<polygon fill="white" stroke="black" points="394,-132 340,-132 340,-96 394,-96 394,-132"/>
<text text-anchor="middle" x="367" y="-111.5" font-family="Helvetica,sans-Serif" font-size="10.00">misc</text>
</a>
</g>
</g>
<!-- dir_65560dc46288b9868b0f6f78795c6045 -->
<g id="node6" class="node">
<title>dir_65560dc46288b9868b0f6f78795c6045</title>
<g id="a_node6"><a xlink:href="dir_65560dc46288b9868b0f6f78795c6045.html" target="_top" xlink:title="projects">
<polygon fill="white" stroke="red" points="468,-132 412,-132 412,-96 468,-96 468,-132"/>
<text text-anchor="middle" x="440" y="-111.5" font-family="Helvetica,sans-Serif" font-size="10.00">projects</text>
</a>
</g>
</g>
<!-- dir_65560dc46288b9868b0f6f78795c6045&#45;&gt;dir_e9b9a603a4a357e5131fe56edcd3932d -->
<g id="edge4" class="edge">
<title>dir_65560dc46288b9868b0f6f78795c6045&#45;&gt;dir_e9b9a603a4a357e5131fe56edcd3932d</title>
<path fill="none" stroke="black" d="M440,-95.7C440,-87.98 440,-78.71 440,-70.11"/>
<polygon fill="black" stroke="black" points="443.5,-70.1 440,-60.1 436.5,-70.1 443.5,-70.1"/>
<g id="a_edge4&#45;headlabel"><a xlink:href="dir_000011_000014.html" target="_top" xlink:title="92">
<text text-anchor="middle" x="446.34" y="-71.2" font-family="Helvetica,sans-Serif" font-size="10.00">92</text>
</a>
</g>
</g>
<!-- dir_65560dc46288b9868b0f6f78795c6045&#45;&gt;dir_ea8b4eb35ba43b6cc16a1680a4c18183 -->
<g id="edge3" class="edge">
<title>dir_65560dc46288b9868b0f6f78795c6045&#45;&gt;dir_ea8b4eb35ba43b6cc16a1680a4c18183</title>
<path fill="none" stroke="black" d="M411.7,-99.34C391.18,-89.43 363.02,-75.84 339.51,-64.49"/>
<polygon fill="black" stroke="black" points="340.95,-61.3 330.42,-60.1 337.9,-67.6 340.95,-61.3"/>
<g id="a_edge3&#45;headlabel"><a xlink:href="dir_000011_000015.html" target="_top" xlink:title="9">
<text text-anchor="middle" x="345.42" y="-57.8" font-family="Helvetica,sans-Serif" font-size="10.00">9</text>
</a>
</g>
</g>
<!-- dir_3667f2082e7db5679aac0881eb963a3a -->
<g id="node7" class="node">
<title>dir_3667f2082e7db5679aac0881eb963a3a</title>
<g id="a_node7"><a xlink:href="dir_3667f2082e7db5679aac0881eb963a3a.html" target="_top" xlink:title="scripts">
<polygon fill="white" stroke="black" points="250,-132 196,-132 196,-96 250,-96 250,-132"/>
<text text-anchor="middle" x="223" y="-111.5" font-family="Helvetica,sans-Serif" font-size="10.00">scripts</text>
</a>
</g>
</g>
<!-- dir_e6cf00b4965d34efdd2a68a6f4985006 -->
<g id="node9" class="node">
<title>dir_e6cf00b4965d34efdd2a68a6f4985006</title>
<g id="a_node9"><a xlink:href="dir_e6cf00b4965d34efdd2a68a6f4985006.html" target="_top" xlink:title="src">
<polygon fill="white" stroke="black" points="322,-132 268,-132 268,-96 322,-96 322,-132"/>
<text text-anchor="middle" x="295" y="-111.5" font-family="Helvetica,sans-Serif" font-size="10.00">src</text>
</a>
</g>
</g>
<!-- dir_e6cf00b4965d34efdd2a68a6f4985006&#45;&gt;dir_ea8b4eb35ba43b6cc16a1680a4c18183 -->
<g id="edge1" class="edge">
<title>dir_e6cf00b4965d34efdd2a68a6f4985006&#45;&gt;dir_ea8b4eb35ba43b6cc16a1680a4c18183</title>
<path fill="none" stroke="black" d="M295,-95.7C295,-87.98 295,-78.71 295,-70.11"/>
<polygon fill="black" stroke="black" points="298.5,-70.1 295,-60.1 291.5,-70.1 298.5,-70.1"/>
<g id="a_edge1&#45;headlabel"><a xlink:href="dir_000035_000015.html" target="_top" xlink:title="1">
<text text-anchor="middle" x="301.34" y="-71.2" font-family="Helvetica,sans-Serif" font-size="10.00">1</text>
</a>
</g>
</g>
<!-- dir_55a1fee35d31990c852bc3f369db9587 -->
<g id="node10" class="node">
<title>dir_55a1fee35d31990c852bc3f369db9587</title>
<g id="a_node10"><a xlink:href="dir_55a1fee35d31990c852bc3f369db9587.html" target="_top" xlink:title="third_party">
<polygon fill="white" stroke="black" points="94,-132 24,-132 24,-96 94,-96 94,-132"/>
<text text-anchor="middle" x="59" y="-111.5" font-family="Helvetica,sans-Serif" font-size="10.00">third_party</text>
</a>
</g>
</g>
</g>
</svg>
