<?xml version="1.0" encoding="UTF-8" standalone="no"?>
<!DOCTYPE svg PUBLIC "-//W3C//DTD SVG 1.1//EN"
 "http://www.w3.org/Graphics/SVG/1.1/DTD/svg11.dtd">
<!-- Generated by graphviz version 2.43.0 (0)
 -->
<!-- Title: language/lib/Catch2/include/reporters Pages: 1 -->
<svg width="102pt" height="151pt"
 viewBox="0.00 0.00 102.00 151.00" xmlns="http://www.w3.org/2000/svg" xmlns:xlink="http://www.w3.org/1999/xlink">
<g id="graph0" class="graph" transform="scale(1 1) rotate(0) translate(4 147)">
<title>language/lib/Catch2/include/reporters</title>
<polygon fill="white" stroke="transparent" points="-4,4 -4,-147 98,-147 98,4 -4,4"/>
<g id="clust1" class="cluster">
<title>clusterdir_e9b9a603a4a357e5131fe56edcd3932d</title>
<g id="a_clust1"><a xlink:href="dir_e9b9a603a4a357e5131fe56edcd3932d.html" target="_top" xlink:title="include">
<polygon fill="#ddddee" stroke="black" points="8,-64 8,-135 86,-135 86,-64 8,-64"/>
<text text-anchor="middle" x="47" y="-123" font-family="Helvetica,sans-Serif" font-size="10.00">include</text>
</a>
</g>
</g>
<!-- dir_6b0dd6788999075b0a73fa1061e403c8 -->
<g id="node1" class="node">
<title>dir_6b0dd6788999075b0a73fa1061e403c8</title>
<g id="a_node1"><a xlink:href="dir_6b0dd6788999075b0a73fa1061e403c8.html" target="_top" xlink:title="reporters">
<polygon fill="#eeeeff" stroke="black" points="77.5,-108 16.5,-108 16.5,-72 77.5,-72 77.5,-108"/>
<text text-anchor="middle" x="47" y="-87.5" font-family="Helvetica,sans-Serif" font-size="10.00">reporters</text>
</a>
</g>
</g>
<!-- dir_34c1518a7dda29cb6a0910e08ce68e28 -->
<g id="node2" class="node">
<title>dir_34c1518a7dda29cb6a0910e08ce68e28</title>
<g id="a_node2"><a xlink:href="dir_34c1518a7dda29cb6a0910e08ce68e28.html" target="_top" xlink:title="internal">
<polygon fill="white" stroke="red" points="74,-36 20,-36 20,0 74,0 74,-36"/>
<text text-anchor="middle" x="47" y="-15.5" font-family="Helvetica,sans-Serif" font-size="10.00">internal</text>
</a>
</g>
</g>
<!-- dir_6b0dd6788999075b0a73fa1061e403c8&#45;&gt;dir_34c1518a7dda29cb6a0910e08ce68e28 -->
<g id="edge1" class="edge">
<title>dir_6b0dd6788999075b0a73fa1061e403c8&#45;&gt;dir_34c1518a7dda29cb6a0910e08ce68e28</title>
<path fill="none" stroke="black" d="M41.08,-71.7C40.29,-63.98 40.06,-54.71 40.4,-46.11"/>
<polygon fill="black" stroke="black" points="43.9,-46.32 41.1,-36.1 36.92,-45.84 43.9,-46.32"/>
<g id="a_edge1&#45;headlabel"><a xlink:href="dir_000024_000019.html" target="_top" xlink:title="21">
<text text-anchor="middle" x="46.48" y="-47.61" font-family="Helvetica,sans-Serif" font-size="10.00">21</text>
</a>
</g>
</g>
<!-- dir_34c1518a7dda29cb6a0910e08ce68e28&#45;&gt;dir_6b0dd6788999075b0a73fa1061e403c8 -->
<g id="edge2" class="edge">
<title>dir_34c1518a7dda29cb6a0910e08ce68e28&#45;&gt;dir_6b0dd6788999075b0a73fa1061e403c8</title>
<path fill="none" stroke="black" d="M52.9,-36.1C53.7,-43.79 53.94,-53.05 53.6,-61.67"/>
<polygon fill="black" stroke="black" points="50.11,-61.48 52.92,-71.7 57.09,-61.96 50.11,-61.48"/>
<g id="a_edge2&#45;headlabel"><a xlink:href="dir_000019_000024.html" target="_top" xlink:title="7">
<text text-anchor="middle" x="47.52" y="-55.2" font-family="Helvetica,sans-Serif" font-size="10.00">7</text>
</a>
</g>
</g>
</g>
</svg>
