<?xml version="1.0" encoding="UTF-8" standalone="no"?>
<!DOCTYPE svg PUBLIC "-//W3C//DTD SVG 1.1//EN"
 "http://www.w3.org/Graphics/SVG/1.1/DTD/svg11.dtd">
<!-- Generated by graphviz version 2.43.0 (0)
 -->
<!-- Title: language/lib/Catch2/include/internal/catch_stream.cpp Pages: 1 -->
<!--zoomable 330 -->
<svg id="main" version="1.1" xmlns="http://www.w3.org/2000/svg" xmlns:xlink="http://www.w3.org/1999/xlink" xml:space="preserve" onload="init(evt)">
<style type="text/css"><![CDATA[
.edge:hover path { stroke: red; }
.edge:hover polygon { stroke: red; fill: red; }
]]></style>
<script type="text/javascript"><![CDATA[
var edges = document.getElementsByTagName('g');
if (edges && edges.length) {
  for (var i=0;i<edges.length;i++) {
    if (edges[i].id.substr(0,4)=='edge') {
      edges[i].setAttribute('class','edge');
    }
  }
}
]]></script>
        <defs>
                <circle id="rim" cx="0" cy="0" r="7"/>
                <circle id="rim2" cx="0" cy="0" r="3.5"/>
                <g id="zoomPlus">
                        <use xlink:href="#rim" fill="#404040">
                                <set attributeName="fill" to="#808080" begin="zoomplus.mouseover" end="zoomplus.mouseout"/>
                        </use>
                        <path d="M-4,0h8M0,-4v8" fill="none" stroke="white" stroke-width="1.5" pointer-events="none"/>
                </g>
                <g id="zoomMin">
                        <use xlink:href="#rim" fill="#404040">
                                <set attributeName="fill" to="#808080" begin="zoomminus.mouseover" end="zoomminus.mouseout"/>
                        </use>
                        <path d="M-4,0h8" fill="none" stroke="white" stroke-width="1.5" pointer-events="none"/>
                </g>
                <g id="dirArrow">
                        <path fill="none" stroke="white" stroke-width="1.5" d="M0,-3.0v7 M-2.5,-0.5L0,-3.0L2.5,-0.5"/>
                </g>
               <g id="resetDef">
                       <use xlink:href="#rim2" fill="#404040">
                               <set attributeName="fill" to="#808080" begin="reset.mouseover" end="reset.mouseout"/>
                       </use>
               </g>
        </defs>

<script type="text/javascript">
var viewWidth = 946;
var viewHeight = 330;
var sectionId = 'dynsection-0';
</script>
<script xlink:href="svgpan.js"/>
<svg id="graph" class="graph">
<g id="viewport">
<title>language/lib/Catch2/include/internal/catch_stream.cpp</title>
<polygon fill="white" stroke="transparent" points="-4,4 -4,-326 941.5,-326 941.5,4 -4,4"/>
<!-- Node1 -->
<g id="node1" class="node">
<title>Node1</title>
<g id="a_node1"><a xlink:title=" ">
<polygon fill="#bfbfbf" stroke="black" points="433,-280.5 433,-321.5 558,-321.5 558,-280.5 433,-280.5"/>
<text text-anchor="start" x="441" y="-309.5" font-family="Helvetica,sans-Serif" font-size="10.00">language/lib/Catch2</text>
<text text-anchor="start" x="441" y="-298.5" font-family="Helvetica,sans-Serif" font-size="10.00">/include/internal/catch</text>
<text text-anchor="middle" x="495.5" y="-287.5" font-family="Helvetica,sans-Serif" font-size="10.00">_stream.cpp</text>
</a>
</g>
</g>
<!-- Node2 -->
<g id="node2" class="node">
<title>Node2</title>
<g id="a_node2"><a xlink:href="catch__common_8h.html" target="_top" xlink:title=" ">
<polygon fill="white" stroke="black" points="121.5,-112.5 121.5,-131.5 221.5,-131.5 221.5,-112.5 121.5,-112.5"/>
<text text-anchor="middle" x="171.5" y="-119.5" font-family="Helvetica,sans-Serif" font-size="10.00">catch_common.h</text>
</a>
</g>
</g>
<!-- Node1&#45;&gt;Node2 -->
<g id="edge1" class="edge">
<title>Node1&#45;&gt;Node2</title>
<path fill="none" stroke="midnightblue" d="M432.99,-285.97C396.32,-276.55 349.65,-262.48 310.5,-244 269.92,-224.85 259.99,-217.86 226.5,-188 210.03,-173.31 194.06,-153.65 183.62,-139.81"/>
<polygon fill="midnightblue" stroke="midnightblue" points="186.36,-137.63 177.6,-131.66 180.73,-141.79 186.36,-137.63"/>
</g>
<!-- Node8 -->
<g id="node8" class="node">
<title>Node8</title>
<g id="a_node8"><a xlink:href="catch__enforce_8h.html" target="_top" xlink:title=" ">
<polygon fill="white" stroke="black" points="85.5,-224.5 85.5,-243.5 179.5,-243.5 179.5,-224.5 85.5,-224.5"/>
<text text-anchor="middle" x="132.5" y="-231.5" font-family="Helvetica,sans-Serif" font-size="10.00">catch_enforce.h</text>
</a>
</g>
</g>
<!-- Node1&#45;&gt;Node8 -->
<g id="edge7" class="edge">
<title>Node1&#45;&gt;Node8</title>
<path fill="none" stroke="midnightblue" d="M432.68,-288.75C364.31,-276.51 255.91,-257.1 189.78,-245.26"/>
<polygon fill="midnightblue" stroke="midnightblue" points="190.01,-241.74 179.55,-243.42 188.77,-248.63 190.01,-241.74"/>
</g>
<!-- Node9 -->
<g id="node9" class="node">
<title>Node9</title>
<g id="a_node9"><a xlink:href="catch__stream_8h.html" target="_top" xlink:title=" ">
<polygon fill="white" stroke="black" points="235.5,-168.5 235.5,-187.5 327.5,-187.5 327.5,-168.5 235.5,-168.5"/>
<text text-anchor="middle" x="281.5" y="-175.5" font-family="Helvetica,sans-Serif" font-size="10.00">catch_stream.h</text>
</a>
</g>
</g>
<!-- Node1&#45;&gt;Node9 -->
<g id="edge16" class="edge">
<title>Node1&#45;&gt;Node9</title>
<path fill="none" stroke="midnightblue" d="M432.88,-286.84C401.41,-278.17 363.84,-264.54 334.5,-244 316.5,-231.4 301.3,-211.06 291.86,-196.49"/>
<polygon fill="midnightblue" stroke="midnightblue" points="294.76,-194.53 286.51,-187.89 288.82,-198.23 294.76,-194.53"/>
</g>
<!-- Node13 -->
<g id="node13" class="node">
<title>Node13</title>
<g id="a_node13"><a xlink:href="catch__debug__console_8h.html" target="_top" xlink:title=" ">
<polygon fill="white" stroke="black" points="509.5,-168.5 509.5,-187.5 639.5,-187.5 639.5,-168.5 509.5,-168.5"/>
<text text-anchor="middle" x="574.5" y="-175.5" font-family="Helvetica,sans-Serif" font-size="10.00">catch_debug_console.h</text>
</a>
</g>
</g>
<!-- Node1&#45;&gt;Node13 -->
<g id="edge17" class="edge">
<title>Node1&#45;&gt;Node13</title>
<path fill="none" stroke="midnightblue" d="M432.9,-284.17C394.32,-271.34 356,-250.96 377.5,-224 386.04,-213.28 457.57,-198.88 512,-189.29"/>
<polygon fill="midnightblue" stroke="midnightblue" points="512.69,-192.72 521.94,-187.55 511.49,-185.82 512.69,-192.72"/>
</g>
<!-- Node14 -->
<g id="node14" class="node">
<title>Node14</title>
<g id="a_node14"><a xlink:href="catch__stringref_8h.html" target="_top" xlink:title=" ">
<polygon fill="white" stroke="black" points="386.5,-168.5 386.5,-187.5 484.5,-187.5 484.5,-168.5 386.5,-168.5"/>
<text text-anchor="middle" x="435.5" y="-175.5" font-family="Helvetica,sans-Serif" font-size="10.00">catch_stringref.h</text>
</a>
</g>
</g>
<!-- Node1&#45;&gt;Node14 -->
<g id="edge19" class="edge">
<title>Node1&#45;&gt;Node14</title>
<path fill="none" stroke="midnightblue" d="M432.62,-293.67C400.32,-286.86 363.61,-272.84 343.5,-244 326.67,-219.87 361.39,-201.65 392.89,-190.73"/>
<polygon fill="midnightblue" stroke="midnightblue" points="394.09,-194.02 402.5,-187.58 391.9,-187.37 394.09,-194.02"/>
</g>
<!-- Node16 -->
<g id="node16" class="node">
<title>Node16</title>
<g id="a_node16"><a xlink:href="catch__singletons_8hpp.html" target="_top" xlink:title=" ">
<polygon fill="white" stroke="black" points="386,-224.5 386,-243.5 505,-243.5 505,-224.5 386,-224.5"/>
<text text-anchor="middle" x="445.5" y="-231.5" font-family="Helvetica,sans-Serif" font-size="10.00">catch_singletons.hpp</text>
</a>
</g>
</g>
<!-- Node1&#45;&gt;Node16 -->
<g id="edge24" class="edge">
<title>Node1&#45;&gt;Node16</title>
<path fill="none" stroke="midnightblue" d="M480.5,-280.5C473.42,-271.3 465.07,-260.44 458.29,-251.63"/>
<polygon fill="midnightblue" stroke="midnightblue" points="461.03,-249.44 452.16,-243.65 455.48,-253.71 461.03,-249.44"/>
</g>
<!-- Node17 -->
<g id="node17" class="node">
<title>Node17</title>
<g id="a_node17"><a xlink:title=" ">
<polygon fill="white" stroke="#bfbfbf" points="523.5,-224.5 523.5,-243.5 569.5,-243.5 569.5,-224.5 523.5,-224.5"/>
<text text-anchor="middle" x="546.5" y="-231.5" font-family="Helvetica,sans-Serif" font-size="10.00">cstdio</text>
</a>
</g>
</g>
<!-- Node1&#45;&gt;Node17 -->
<g id="edge25" class="edge">
<title>Node1&#45;&gt;Node17</title>
<path fill="none" stroke="midnightblue" d="M510.8,-280.5C518.02,-271.3 526.54,-260.44 533.45,-251.63"/>
<polygon fill="midnightblue" stroke="midnightblue" points="536.29,-253.68 539.71,-243.65 530.78,-249.36 536.29,-253.68"/>
</g>
<!-- Node18 -->
<g id="node18" class="node">
<title>Node18</title>
<g id="a_node18"><a xlink:title=" ">
<polygon fill="white" stroke="#bfbfbf" points="587.5,-224.5 587.5,-243.5 647.5,-243.5 647.5,-224.5 587.5,-224.5"/>
<text text-anchor="middle" x="617.5" y="-231.5" font-family="Helvetica,sans-Serif" font-size="10.00">iostream</text>
</a>
</g>
</g>
<!-- Node1&#45;&gt;Node18 -->
<g id="edge26" class="edge">
<title>Node1&#45;&gt;Node18</title>
<path fill="none" stroke="midnightblue" d="M532.1,-280.5C551.53,-270.15 574.9,-257.69 592.28,-248.43"/>
<polygon fill="midnightblue" stroke="midnightblue" points="594.08,-251.44 601.26,-243.65 590.79,-245.27 594.08,-251.44"/>
</g>
<!-- Node19 -->
<g id="node19" class="node">
<title>Node19</title>
<g id="a_node19"><a xlink:title=" ">
<polygon fill="white" stroke="#bfbfbf" points="666,-224.5 666,-243.5 721,-243.5 721,-224.5 666,-224.5"/>
<text text-anchor="middle" x="693.5" y="-231.5" font-family="Helvetica,sans-Serif" font-size="10.00">fstream</text>
</a>
</g>
</g>
<!-- Node1&#45;&gt;Node19 -->
<g id="edge27" class="edge">
<title>Node1&#45;&gt;Node19</title>
<path fill="none" stroke="midnightblue" d="M554.91,-280.5C588.43,-269.49 629.21,-256.11 657.82,-246.71"/>
<polygon fill="midnightblue" stroke="midnightblue" points="658.99,-250.01 667.4,-243.57 656.81,-243.36 658.99,-250.01"/>
</g>
<!-- Node20 -->
<g id="node20" class="node">
<title>Node20</title>
<g id="a_node20"><a xlink:title=" ">
<polygon fill="white" stroke="#bfbfbf" points="739.5,-224.5 739.5,-243.5 795.5,-243.5 795.5,-224.5 739.5,-224.5"/>
<text text-anchor="middle" x="767.5" y="-231.5" font-family="Helvetica,sans-Serif" font-size="10.00">sstream</text>
</a>
</g>
</g>
<!-- Node1&#45;&gt;Node20 -->
<g id="edge28" class="edge">
<title>Node1&#45;&gt;Node20</title>
<path fill="none" stroke="midnightblue" d="M558.36,-285.11C603.39,-274.42 665.74,-259.57 729.41,-244.26"/>
<polygon fill="midnightblue" stroke="midnightblue" points="730.32,-247.64 739.22,-241.89 728.68,-240.83 730.32,-247.64"/>
</g>
<!-- Node21 -->
<g id="node21" class="node">
<title>Node21</title>
<g id="a_node21"><a xlink:title=" ">
<polygon fill="white" stroke="#bfbfbf" points="814,-224.5 814,-243.5 861,-243.5 861,-224.5 814,-224.5"/>
<text text-anchor="middle" x="837.5" y="-231.5" font-family="Helvetica,sans-Serif" font-size="10.00">vector</text>
</a>
</g>
</g>
<!-- Node1&#45;&gt;Node21 -->
<g id="edge29" class="edge">
<title>Node1&#45;&gt;Node21</title>
<path fill="none" stroke="midnightblue" d="M558.26,-290.27C618.72,-280.52 712.91,-264.37 803.84,-243.98"/>
<polygon fill="midnightblue" stroke="midnightblue" points="804.79,-247.36 813.77,-241.74 803.24,-240.53 804.79,-247.36"/>
</g>
<!-- Node22 -->
<g id="node22" class="node">
<title>Node22</title>
<g id="a_node22"><a xlink:title=" ">
<polygon fill="white" stroke="#bfbfbf" points="879.5,-224.5 879.5,-243.5 937.5,-243.5 937.5,-224.5 879.5,-224.5"/>
<text text-anchor="middle" x="908.5" y="-231.5" font-family="Helvetica,sans-Serif" font-size="10.00">memory</text>
</a>
</g>
</g>
<!-- Node1&#45;&gt;Node22 -->
<g id="edge30" class="edge">
<title>Node1&#45;&gt;Node22</title>
<path fill="none" stroke="midnightblue" d="M558.14,-292.29C630.71,-282.99 754.03,-266.05 869.06,-244.15"/>
<polygon fill="midnightblue" stroke="midnightblue" points="869.93,-247.55 879.09,-242.22 868.61,-240.67 869.93,-247.55"/>
</g>
<!-- Node3 -->
<g id="node3" class="node">
<title>Node3</title>
<g id="a_node3"><a xlink:href="catch__compiler__capabilities_8h.html" target="_top" xlink:title=" ">
<polygon fill="white" stroke="black" points="13,-56.5 13,-75.5 174,-75.5 174,-56.5 13,-56.5"/>
<text text-anchor="middle" x="93.5" y="-63.5" font-family="Helvetica,sans-Serif" font-size="10.00">catch_compiler_capabilities.h</text>
</a>
</g>
</g>
<!-- Node2&#45;&gt;Node3 -->
<g id="edge2" class="edge">
<title>Node2&#45;&gt;Node3</title>
<path fill="none" stroke="midnightblue" d="M158.97,-112.32C146.91,-103.98 128.47,-91.21 114.23,-81.35"/>
<polygon fill="midnightblue" stroke="midnightblue" points="116.22,-78.47 106,-75.65 112.23,-84.22 116.22,-78.47"/>
</g>
<!-- Node5 -->
<g id="node5" class="node">
<title>Node5</title>
<g id="a_node5"><a xlink:title=" ">
<polygon fill="white" stroke="#bfbfbf" points="301.5,-56.5 301.5,-75.5 349.5,-75.5 349.5,-56.5 301.5,-56.5"/>
<text text-anchor="middle" x="325.5" y="-63.5" font-family="Helvetica,sans-Serif" font-size="10.00">iosfwd</text>
</a>
</g>
</g>
<!-- Node2&#45;&gt;Node5 -->
<g id="edge4" class="edge">
<title>Node2&#45;&gt;Node5</title>
<path fill="none" stroke="midnightblue" d="M195.9,-112.44C221.77,-103.37 262.82,-88.98 291.77,-78.83"/>
<polygon fill="midnightblue" stroke="midnightblue" points="293.19,-82.04 301.47,-75.43 290.87,-75.43 293.19,-82.04"/>
</g>
<!-- Node6 -->
<g id="node6" class="node">
<title>Node6</title>
<g id="a_node6"><a xlink:title=" ">
<polygon fill="white" stroke="#bfbfbf" points="521.5,-56.5 521.5,-75.5 565.5,-75.5 565.5,-56.5 521.5,-56.5"/>
<text text-anchor="middle" x="543.5" y="-63.5" font-family="Helvetica,sans-Serif" font-size="10.00">string</text>
</a>
</g>
</g>
<!-- Node2&#45;&gt;Node6 -->
<g id="edge5" class="edge">
<title>Node2&#45;&gt;Node6</title>
<path fill="none" stroke="midnightblue" d="M221.71,-113.31C224.68,-112.87 227.63,-112.43 230.5,-112 333.05,-96.81 454.61,-79.54 511.34,-71.53"/>
<polygon fill="midnightblue" stroke="midnightblue" points="512.07,-74.96 521.48,-70.1 511.09,-68.03 512.07,-74.96"/>
</g>
<!-- Node7 -->
<g id="node7" class="node">
<title>Node7</title>
<g id="a_node7"><a xlink:title=" ">
<polygon fill="white" stroke="#bfbfbf" points="192.5,-56.5 192.5,-75.5 242.5,-75.5 242.5,-56.5 192.5,-56.5"/>
<text text-anchor="middle" x="217.5" y="-63.5" font-family="Helvetica,sans-Serif" font-size="10.00">cstdint</text>
</a>
</g>
</g>
<!-- Node2&#45;&gt;Node7 -->
<g id="edge6" class="edge">
<title>Node2&#45;&gt;Node7</title>
<path fill="none" stroke="midnightblue" d="M179.1,-112.08C185.73,-104.3 195.52,-92.8 203.56,-83.37"/>
<polygon fill="midnightblue" stroke="midnightblue" points="206.23,-85.63 210.05,-75.75 200.9,-81.09 206.23,-85.63"/>
</g>
<!-- Node4 -->
<g id="node4" class="node">
<title>Node4</title>
<g id="a_node4"><a xlink:href="catch__platform_8h.html" target="_top" xlink:title=" ">
<polygon fill="white" stroke="black" points="44,-0.5 44,-19.5 143,-19.5 143,-0.5 44,-0.5"/>
<text text-anchor="middle" x="93.5" y="-7.5" font-family="Helvetica,sans-Serif" font-size="10.00">catch_platform.h</text>
</a>
</g>
</g>
<!-- Node3&#45;&gt;Node4 -->
<g id="edge3" class="edge">
<title>Node3&#45;&gt;Node4</title>
<path fill="none" stroke="midnightblue" d="M93.5,-56.08C93.5,-49.01 93.5,-38.86 93.5,-29.99"/>
<polygon fill="midnightblue" stroke="midnightblue" points="97,-29.75 93.5,-19.75 90,-29.75 97,-29.75"/>
</g>
<!-- Node8&#45;&gt;Node2 -->
<g id="edge8" class="edge">
<title>Node8&#45;&gt;Node2</title>
<path fill="none" stroke="midnightblue" d="M135.56,-224.37C141.88,-206.54 156.5,-165.3 165.02,-141.27"/>
<polygon fill="midnightblue" stroke="midnightblue" points="168.41,-142.19 168.45,-131.59 161.81,-139.85 168.41,-142.19"/>
</g>
<!-- Node8&#45;&gt;Node3 -->
<g id="edge9" class="edge">
<title>Node8&#45;&gt;Node3</title>
<path fill="none" stroke="midnightblue" d="M130.4,-224.08C124.26,-197.95 106.24,-121.21 97.86,-85.58"/>
<polygon fill="midnightblue" stroke="midnightblue" points="101.21,-84.5 95.51,-75.57 94.39,-86.1 101.21,-84.5"/>
</g>
<!-- Node8&#45;&gt;Node9 -->
<g id="edge10" class="edge">
<title>Node8&#45;&gt;Node9</title>
<path fill="none" stroke="midnightblue" d="M156.11,-224.44C180.96,-215.44 220.27,-201.19 248.25,-191.05"/>
<polygon fill="midnightblue" stroke="midnightblue" points="249.79,-194.21 258,-187.52 247.41,-187.63 249.79,-194.21"/>
</g>
<!-- Node12 -->
<g id="node12" class="node">
<title>Node12</title>
<g id="a_node12"><a xlink:title=" ">
<polygon fill="white" stroke="#bfbfbf" points="0,-168.5 0,-187.5 65,-187.5 65,-168.5 0,-168.5"/>
<text text-anchor="middle" x="32.5" y="-175.5" font-family="Helvetica,sans-Serif" font-size="10.00">exception</text>
</a>
</g>
</g>
<!-- Node8&#45;&gt;Node12 -->
<g id="edge15" class="edge">
<title>Node8&#45;&gt;Node12</title>
<path fill="none" stroke="midnightblue" d="M116.43,-224.32C100.54,-215.74 75.99,-202.49 57.54,-192.52"/>
<polygon fill="midnightblue" stroke="midnightblue" points="58.99,-189.33 48.53,-187.65 55.66,-195.49 58.99,-189.33"/>
</g>
<!-- Node9&#45;&gt;Node2 -->
<g id="edge11" class="edge">
<title>Node9&#45;&gt;Node2</title>
<path fill="none" stroke="midnightblue" d="M263.83,-168.32C246.11,-159.62 218.6,-146.12 198.21,-136.11"/>
<polygon fill="midnightblue" stroke="midnightblue" points="199.65,-132.92 189.13,-131.65 196.56,-139.2 199.65,-132.92"/>
</g>
<!-- Node9&#45;&gt;Node5 -->
<g id="edge12" class="edge">
<title>Node9&#45;&gt;Node5</title>
<path fill="none" stroke="midnightblue" d="M286.8,-168.28C292.04,-159.39 300.06,-145.08 305.5,-132 311.88,-116.67 317.28,-98.57 320.86,-85.37"/>
<polygon fill="midnightblue" stroke="midnightblue" points="324.27,-86.16 323.42,-75.6 317.5,-84.39 324.27,-86.16"/>
</g>
<!-- Node10 -->
<g id="node10" class="node">
<title>Node10</title>
<g id="a_node10"><a xlink:title=" ">
<polygon fill="white" stroke="#bfbfbf" points="354,-112.5 354,-131.5 407,-131.5 407,-112.5 354,-112.5"/>
<text text-anchor="middle" x="380.5" y="-119.5" font-family="Helvetica,sans-Serif" font-size="10.00">cstddef</text>
</a>
</g>
</g>
<!-- Node9&#45;&gt;Node10 -->
<g id="edge13" class="edge">
<title>Node9&#45;&gt;Node10</title>
<path fill="none" stroke="midnightblue" d="M297.41,-168.32C313.14,-159.74 337.44,-146.49 355.71,-136.52"/>
<polygon fill="midnightblue" stroke="midnightblue" points="357.53,-139.52 364.63,-131.65 354.18,-133.37 357.53,-139.52"/>
</g>
<!-- Node11 -->
<g id="node11" class="node">
<title>Node11</title>
<g id="a_node11"><a xlink:title=" ">
<polygon fill="white" stroke="#bfbfbf" points="240,-112.5 240,-131.5 297,-131.5 297,-112.5 240,-112.5"/>
<text text-anchor="middle" x="268.5" y="-119.5" font-family="Helvetica,sans-Serif" font-size="10.00">ostream</text>
</a>
</g>
</g>
<!-- Node9&#45;&gt;Node11 -->
<g id="edge14" class="edge">
<title>Node9&#45;&gt;Node11</title>
<path fill="none" stroke="midnightblue" d="M279.35,-168.08C277.63,-160.93 275.15,-150.64 273,-141.69"/>
<polygon fill="midnightblue" stroke="midnightblue" points="276.35,-140.65 270.61,-131.75 269.54,-142.29 276.35,-140.65"/>
</g>
<!-- Node13&#45;&gt;Node6 -->
<g id="edge18" class="edge">
<title>Node13&#45;&gt;Node6</title>
<path fill="none" stroke="midnightblue" d="M572.32,-168.13C569.2,-155.59 563.21,-131.96 557.5,-112 554.96,-103.14 551.95,-93.36 549.37,-85.19"/>
<polygon fill="midnightblue" stroke="midnightblue" points="552.68,-84.05 546.3,-75.59 546.01,-86.18 552.68,-84.05"/>
</g>
<!-- Node14&#45;&gt;Node5 -->
<g id="edge22" class="edge">
<title>Node14&#45;&gt;Node5</title>
<path fill="none" stroke="midnightblue" d="M435.14,-168.4C434.14,-154.9 430.4,-128.57 416.5,-112 401.84,-94.52 378.74,-83.21 359.48,-76.31"/>
<polygon fill="midnightblue" stroke="midnightblue" points="360.42,-72.93 349.83,-73.08 358.21,-79.57 360.42,-72.93"/>
</g>
<!-- Node14&#45;&gt;Node6 -->
<g id="edge21" class="edge">
<title>Node14&#45;&gt;Node6</title>
<path fill="none" stroke="midnightblue" d="M466.34,-168.39C485.63,-161.51 509.56,-149.97 524.5,-132 535.41,-118.87 540.06,-99.73 542.04,-85.61"/>
<polygon fill="midnightblue" stroke="midnightblue" points="545.52,-85.9 543.12,-75.58 538.57,-85.15 545.52,-85.9"/>
</g>
<!-- Node14&#45;&gt;Node10 -->
<g id="edge20" class="edge">
<title>Node14&#45;&gt;Node10</title>
<path fill="none" stroke="midnightblue" d="M426.42,-168.08C418.33,-160.14 406.3,-148.34 396.59,-138.8"/>
<polygon fill="midnightblue" stroke="midnightblue" points="399,-136.26 389.41,-131.75 394.1,-141.25 399,-136.26"/>
</g>
<!-- Node15 -->
<g id="node15" class="node">
<title>Node15</title>
<g id="a_node15"><a xlink:title=" ">
<polygon fill="white" stroke="#bfbfbf" points="463.5,-112.5 463.5,-131.5 515.5,-131.5 515.5,-112.5 463.5,-112.5"/>
<text text-anchor="middle" x="489.5" y="-119.5" font-family="Helvetica,sans-Serif" font-size="10.00">cassert</text>
</a>
</g>
</g>
<!-- Node14&#45;&gt;Node15 -->
<g id="edge23" class="edge">
<title>Node14&#45;&gt;Node15</title>
<path fill="none" stroke="midnightblue" d="M444.42,-168.08C452.28,-160.22 463.93,-148.57 473.42,-139.08"/>
<polygon fill="midnightblue" stroke="midnightblue" points="476.15,-141.3 480.75,-131.75 471.2,-136.35 476.15,-141.3"/>
</g>
</g>
</svg>
        <g id="navigator" transform="translate(0 0)" fill="#404254">
                <rect fill="#f2f5e9" fill-opacity="0.5" stroke="#606060" stroke-width=".5" x="0" y="0" width="60" height="60"/>
                <use id="zoomplus" xlink:href="#zoomPlus" x="17" y="9" onmousedown="handleZoom(evt,'in')"/>
                <use id="zoomminus" xlink:href="#zoomMin" x="42" y="9" onmousedown="handleZoom(evt,'out')"/>
                <use id="reset" xlink:href="#resetDef" x="30" y="36" onmousedown="handleReset()"/>
                <g id="arrowUp" xlink:href="#dirArrow" transform="translate(30 24)" onmousedown="handlePan(0,-1)">
                  <use xlink:href="#rim" fill="#404040">
                        <set attributeName="fill" to="#808080" begin="arrowUp.mouseover" end="arrowUp.mouseout"/>
                  </use>
                  <path fill="none" stroke="white" stroke-width="1.5" d="M0,-3.0v7 M-2.5,-0.5L0,-3.0L2.5,-0.5"/>
                </g>
                <g id="arrowRight" xlink:href="#dirArrow" transform="rotate(90) translate(36 -43)" onmousedown="handlePan(1,0)">
                  <use xlink:href="#rim" fill="#404040">
                        <set attributeName="fill" to="#808080" begin="arrowRight.mouseover" end="arrowRight.mouseout"/>
                  </use>
                  <path fill="none" stroke="white" stroke-width="1.5" d="M0,-3.0v7 M-2.5,-0.5L0,-3.0L2.5,-0.5"/>
                </g>
                <g id="arrowDown" xlink:href="#dirArrow" transform="rotate(180) translate(-30 -48)" onmousedown="handlePan(0,1)">
                  <use xlink:href="#rim" fill="#404040">
                        <set attributeName="fill" to="#808080" begin="arrowDown.mouseover" end="arrowDown.mouseout"/>
                  </use>
                  <path fill="none" stroke="white" stroke-width="1.5" d="M0,-3.0v7 M-2.5,-0.5L0,-3.0L2.5,-0.5"/>
                </g>
                <g id="arrowLeft" xlink:href="#dirArrow" transform="rotate(270) translate(-36 17)" onmousedown="handlePan(-1,0)">
                  <use xlink:href="#rim" fill="#404040">
                        <set attributeName="fill" to="#808080" begin="arrowLeft.mouseover" end="arrowLeft.mouseout"/>
                  </use>
                  <path fill="none" stroke="white" stroke-width="1.5" d="M0,-3.0v7 M-2.5,-0.5L0,-3.0L2.5,-0.5"/>
                </g>
        </g>
        <svg viewBox="0 0 15 15" width="100%" height="30px" preserveAspectRatio="xMaxYMin meet">
         <g id="arrow_out" transform="scale(0.3 0.3)">
          <a xlink:href="include_2internal_2catch__stream_8cpp__incl_org.svg" target="_base">
           <rect id="button" ry="5" rx="5" y="6" x="6" height="38" width="38"
                fill="#f2f5e9" fill-opacity="0.5" stroke="#606060" stroke-width="1.0"/>
           <path id="arrow"
             d="M 11.500037,31.436501 C 11.940474,20.09759 22.043105,11.32322 32.158766,21.979434 L 37.068811,17.246167 C 37.068811,17.246167 37.088388,32 37.088388,32 L 22.160133,31.978069 C 22.160133,31.978069 26.997745,27.140456 26.997745,27.140456 C 18.528582,18.264221 13.291696,25.230495 11.500037,31.436501 z"
             style="fill:#404040;"/>
          </a>
         </g>
        </svg>
</svg>
