<?xml version="1.0" encoding="UTF-8" standalone="no"?>
<!DOCTYPE svg PUBLIC "-//W3C//DTD SVG 1.1//EN"
 "http://www.w3.org/Graphics/SVG/1.1/DTD/svg11.dtd">
<!-- Generated by graphviz version 2.43.0 (0)
 -->
<!-- Title: language/lib/Catch2/include/external/clara.hpp Pages: 1 -->
<svg width="769pt" height="507pt"
 viewBox="0.00 0.00 769.00 507.00" xmlns="http://www.w3.org/2000/svg" xmlns:xlink="http://www.w3.org/1999/xlink">
<g id="graph0" class="graph" transform="scale(1 1) rotate(0) translate(4 503)">
<title>language/lib/Catch2/include/external/clara.hpp</title>
<polygon fill="white" stroke="transparent" points="-4,4 -4,-503 765,-503 765,4 -4,4"/>
<!-- Node1 -->
<g id="node1" class="node">
<title>Node1</title>
<g id="a_node1"><a xlink:title=" ">
<polygon fill="#bfbfbf" stroke="black" points="250.5,-468.5 250.5,-498.5 396.5,-498.5 396.5,-468.5 250.5,-468.5"/>
<text text-anchor="start" x="258.5" y="-486.5" font-family="Helvetica,sans-Serif" font-size="10.00">language/lib/Catch2</text>
<text text-anchor="middle" x="323.5" y="-475.5" font-family="Helvetica,sans-Serif" font-size="10.00">/include/external/clara.hpp</text>
</a>
</g>
</g>
<!-- Node2 -->
<g id="node2" class="node">
<title>Node2</title>
<g id="a_node2"><a xlink:href="catch__clara_8h.html" target="_top" xlink:title=" ">
<polygon fill="white" stroke="black" points="261,-390.5 261,-431.5 386,-431.5 386,-390.5 261,-390.5"/>
<text text-anchor="start" x="269" y="-419.5" font-family="Helvetica,sans-Serif" font-size="10.00">language/lib/Catch2</text>
<text text-anchor="start" x="269" y="-408.5" font-family="Helvetica,sans-Serif" font-size="10.00">/include/internal/catch</text>
<text text-anchor="middle" x="323.5" y="-397.5" font-family="Helvetica,sans-Serif" font-size="10.00">_clara.h</text>
</a>
</g>
</g>
<!-- Node1&#45;&gt;Node2 -->
<g id="edge1" class="edge">
<title>Node1&#45;&gt;Node2</title>
<path fill="none" stroke="midnightblue" d="M323.5,-457.98C323.5,-449.35 323.5,-439.76 323.5,-431.59"/>
<polygon fill="midnightblue" stroke="midnightblue" points="320,-458.23 323.5,-468.23 327,-458.23 320,-458.23"/>
</g>
<!-- Node3 -->
<g id="node3" class="node">
<title>Node3</title>
<g id="a_node3"><a xlink:href="catch__commandline_8h.html" target="_top" xlink:title=" ">
<polygon fill="white" stroke="black" points="170,-312.5 170,-353.5 295,-353.5 295,-312.5 170,-312.5"/>
<text text-anchor="start" x="178" y="-341.5" font-family="Helvetica,sans-Serif" font-size="10.00">language/lib/Catch2</text>
<text text-anchor="start" x="178" y="-330.5" font-family="Helvetica,sans-Serif" font-size="10.00">/include/internal/catch</text>
<text text-anchor="middle" x="232.5" y="-319.5" font-family="Helvetica,sans-Serif" font-size="10.00">_commandline.h</text>
</a>
</g>
</g>
<!-- Node2&#45;&gt;Node3 -->
<g id="edge2" class="edge">
<title>Node2&#45;&gt;Node3</title>
<path fill="none" stroke="midnightblue" d="M292.1,-383.78C280.21,-373.84 266.88,-362.72 255.86,-353.51"/>
<polygon fill="midnightblue" stroke="midnightblue" points="290.15,-386.7 300.07,-390.43 294.63,-381.33 290.15,-386.7"/>
</g>
<!-- Node12 -->
<g id="node12" class="node">
<title>Node12</title>
<g id="a_node12"><a xlink:href="catch__text_8h.html" target="_top" xlink:title=" ">
<polygon fill="white" stroke="black" points="371,-312.5 371,-353.5 496,-353.5 496,-312.5 371,-312.5"/>
<text text-anchor="start" x="379" y="-341.5" font-family="Helvetica,sans-Serif" font-size="10.00">language/lib/Catch2</text>
<text text-anchor="start" x="379" y="-330.5" font-family="Helvetica,sans-Serif" font-size="10.00">/include/internal/catch</text>
<text text-anchor="middle" x="433.5" y="-319.5" font-family="Helvetica,sans-Serif" font-size="10.00">_text.h</text>
</a>
</g>
</g>
<!-- Node2&#45;&gt;Node12 -->
<g id="edge13" class="edge">
<title>Node2&#45;&gt;Node12</title>
<path fill="none" stroke="midnightblue" d="M360.21,-384.64C374.9,-374.49 391.55,-362.98 405.27,-353.51"/>
<polygon fill="midnightblue" stroke="midnightblue" points="358.07,-381.86 351.83,-390.43 362.04,-387.62 358.07,-381.86"/>
</g>
<!-- Node4 -->
<g id="node4" class="node">
<title>Node4</title>
<g id="a_node4"><a xlink:href="catch__session_8h.html" target="_top" xlink:title=" ">
<polygon fill="white" stroke="black" points="261,-234.5 261,-275.5 386,-275.5 386,-234.5 261,-234.5"/>
<text text-anchor="start" x="269" y="-263.5" font-family="Helvetica,sans-Serif" font-size="10.00">language/lib/Catch2</text>
<text text-anchor="start" x="269" y="-252.5" font-family="Helvetica,sans-Serif" font-size="10.00">/include/internal/catch</text>
<text text-anchor="middle" x="323.5" y="-241.5" font-family="Helvetica,sans-Serif" font-size="10.00">_session.h</text>
</a>
</g>
</g>
<!-- Node3&#45;&gt;Node4 -->
<g id="edge3" class="edge">
<title>Node3&#45;&gt;Node4</title>
<path fill="none" stroke="midnightblue" d="M263.9,-305.78C275.79,-295.84 289.12,-284.72 300.14,-275.51"/>
<polygon fill="midnightblue" stroke="midnightblue" points="261.37,-303.33 255.93,-312.43 265.85,-308.7 261.37,-303.33"/>
</g>
<!-- Node8 -->
<g id="node8" class="node">
<title>Node8</title>
<g id="a_node8"><a xlink:href="catch__session_8cpp.html" target="_top" xlink:title=" ">
<polygon fill="white" stroke="black" points="307,-156.5 307,-197.5 432,-197.5 432,-156.5 307,-156.5"/>
<text text-anchor="start" x="315" y="-185.5" font-family="Helvetica,sans-Serif" font-size="10.00">language/lib/Catch2</text>
<text text-anchor="start" x="315" y="-174.5" font-family="Helvetica,sans-Serif" font-size="10.00">/include/internal/catch</text>
<text text-anchor="middle" x="369.5" y="-163.5" font-family="Helvetica,sans-Serif" font-size="10.00">_session.cpp</text>
</a>
</g>
</g>
<!-- Node3&#45;&gt;Node8 -->
<g id="edge11" class="edge">
<title>Node3&#45;&gt;Node8</title>
<path fill="none" stroke="midnightblue" d="M231.86,-302.19C232.89,-281.13 237.42,-253.32 252.5,-234 266.22,-216.43 286.82,-204.07 306.94,-195.52"/>
<polygon fill="midnightblue" stroke="midnightblue" points="228.36,-302.13 231.6,-312.22 235.36,-302.31 228.36,-302.13"/>
</g>
<!-- Node10 -->
<g id="node10" class="node">
<title>Node10</title>
<g id="a_node10"><a xlink:href="catch__commandline_8cpp.html" target="_top" xlink:title=" ">
<polygon fill="white" stroke="black" points="21,-156.5 21,-197.5 146,-197.5 146,-156.5 21,-156.5"/>
<text text-anchor="start" x="29" y="-185.5" font-family="Helvetica,sans-Serif" font-size="10.00">language/lib/Catch2</text>
<text text-anchor="start" x="29" y="-174.5" font-family="Helvetica,sans-Serif" font-size="10.00">/include/internal/catch</text>
<text text-anchor="middle" x="83.5" y="-163.5" font-family="Helvetica,sans-Serif" font-size="10.00">_commandline.cpp</text>
</a>
</g>
</g>
<!-- Node3&#45;&gt;Node10 -->
<g id="edge9" class="edge">
<title>Node3&#45;&gt;Node10</title>
<path fill="none" stroke="midnightblue" d="M220.39,-303.08C210.56,-282.1 195.13,-254.02 175.5,-234 161.1,-219.31 142.09,-206.91 125.09,-197.53"/>
<polygon fill="midnightblue" stroke="midnightblue" points="217.32,-304.78 224.63,-312.45 223.69,-301.89 217.32,-304.78"/>
</g>
<!-- Node11 -->
<g id="node11" class="node">
<title>Node11</title>
<g id="a_node11"><a xlink:href="_cmd_line_8tests_8cpp.html" target="_top" xlink:title=" ">
<polygon fill="white" stroke="black" points="0,-234.5 0,-275.5 167,-275.5 167,-234.5 0,-234.5"/>
<text text-anchor="start" x="8" y="-263.5" font-family="Helvetica,sans-Serif" font-size="10.00">language/lib/Catch2</text>
<text text-anchor="start" x="8" y="-252.5" font-family="Helvetica,sans-Serif" font-size="10.00">/projects/SelfTest/Introspective</text>
<text text-anchor="middle" x="83.5" y="-241.5" font-family="Helvetica,sans-Serif" font-size="10.00">Tests/CmdLine.tests.cpp</text>
</a>
</g>
</g>
<!-- Node3&#45;&gt;Node11 -->
<g id="edge12" class="edge">
<title>Node3&#45;&gt;Node11</title>
<path fill="none" stroke="midnightblue" d="M184.99,-307.77C164.57,-297.35 141.01,-285.34 121.74,-275.51"/>
<polygon fill="midnightblue" stroke="midnightblue" points="183.63,-311 194.13,-312.43 186.81,-304.77 183.63,-311"/>
</g>
<!-- Node5 -->
<g id="node5" class="node">
<title>Node5</title>
<g id="a_node5"><a xlink:href="catch__default__main_8hpp.html" target="_top" xlink:title=" ">
<polygon fill="white" stroke="black" points="164,-156.5 164,-197.5 289,-197.5 289,-156.5 164,-156.5"/>
<text text-anchor="start" x="172" y="-185.5" font-family="Helvetica,sans-Serif" font-size="10.00">language/lib/Catch2</text>
<text text-anchor="start" x="172" y="-174.5" font-family="Helvetica,sans-Serif" font-size="10.00">/include/internal/catch</text>
<text text-anchor="middle" x="226.5" y="-163.5" font-family="Helvetica,sans-Serif" font-size="10.00">_default_main.hpp</text>
</a>
</g>
</g>
<!-- Node4&#45;&gt;Node5 -->
<g id="edge4" class="edge">
<title>Node4&#45;&gt;Node5</title>
<path fill="none" stroke="midnightblue" d="M290.4,-228.06C277.63,-218.06 263.26,-206.8 251.4,-197.51"/>
<polygon fill="midnightblue" stroke="midnightblue" points="288.49,-231.02 298.52,-234.43 292.81,-225.51 288.49,-231.02"/>
</g>
<!-- Node4&#45;&gt;Node8 -->
<g id="edge7" class="edge">
<title>Node4&#45;&gt;Node8</title>
<path fill="none" stroke="midnightblue" d="M340.59,-225.76C346.29,-216.35 352.49,-206.1 357.69,-197.51"/>
<polygon fill="midnightblue" stroke="midnightblue" points="337.53,-224.06 335.35,-234.43 343.52,-227.69 337.53,-224.06"/>
</g>
<!-- Node6 -->
<g id="node6" class="node">
<title>Node6</title>
<g id="a_node6"><a xlink:href="include_2catch_8hpp.html" target="_top" xlink:title=" ">
<polygon fill="white" stroke="black" points="170,-84 170,-114 283,-114 283,-84 170,-84"/>
<text text-anchor="start" x="178" y="-102" font-family="Helvetica,sans-Serif" font-size="10.00">language/lib/Catch2</text>
<text text-anchor="middle" x="226.5" y="-91" font-family="Helvetica,sans-Serif" font-size="10.00">/include/catch.hpp</text>
</a>
</g>
</g>
<!-- Node5&#45;&gt;Node6 -->
<g id="edge5" class="edge">
<title>Node5&#45;&gt;Node6</title>
<path fill="none" stroke="midnightblue" d="M226.5,-146.28C226.5,-135.25 226.5,-123.25 226.5,-114.23"/>
<polygon fill="midnightblue" stroke="midnightblue" points="223,-146.43 226.5,-156.43 230,-146.43 223,-146.43"/>
</g>
<!-- Node7 -->
<g id="node7" class="node">
<title>Node7</title>
<g id="a_node7"><a xlink:href="catch__with__main_8hpp.html" target="_top" xlink:title=" ">
<polygon fill="white" stroke="black" points="170,-0.5 170,-41.5 283,-41.5 283,-0.5 170,-0.5"/>
<text text-anchor="start" x="178" y="-29.5" font-family="Helvetica,sans-Serif" font-size="10.00">language/lib/Catch2</text>
<text text-anchor="start" x="178" y="-18.5" font-family="Helvetica,sans-Serif" font-size="10.00">/include/catch_with</text>
<text text-anchor="middle" x="226.5" y="-7.5" font-family="Helvetica,sans-Serif" font-size="10.00">_main.hpp</text>
</a>
</g>
</g>
<!-- Node6&#45;&gt;Node7 -->
<g id="edge6" class="edge">
<title>Node6&#45;&gt;Node7</title>
<path fill="none" stroke="midnightblue" d="M226.5,-73.66C226.5,-63.33 226.5,-51.44 226.5,-41.68"/>
<polygon fill="midnightblue" stroke="midnightblue" points="223,-73.7 226.5,-83.7 230,-73.71 223,-73.7"/>
</g>
<!-- Node9 -->
<g id="node9" class="node">
<title>Node9</title>
<g id="a_node9"><a xlink:href="catch__objc__impl_8mm.html" target="_top" xlink:title=" ">
<polygon fill="white" stroke="black" points="448,-78.5 448,-119.5 577,-119.5 577,-78.5 448,-78.5"/>
<text text-anchor="start" x="456" y="-107.5" font-family="Helvetica,sans-Serif" font-size="10.00">language/lib/Catch2</text>
<text text-anchor="start" x="456" y="-96.5" font-family="Helvetica,sans-Serif" font-size="10.00">/projects/XCode/OCTest</text>
<text text-anchor="middle" x="512.5" y="-85.5" font-family="Helvetica,sans-Serif" font-size="10.00">/catch_objc_impl.mm</text>
</a>
</g>
</g>
<!-- Node8&#45;&gt;Node9 -->
<g id="edge8" class="edge">
<title>Node8&#45;&gt;Node9</title>
<path fill="none" stroke="midnightblue" d="M415.36,-151.63C434.9,-141.24 457.39,-129.29 475.8,-119.51"/>
<polygon fill="midnightblue" stroke="midnightblue" points="413.51,-148.64 406.33,-156.43 416.8,-154.83 413.51,-148.64"/>
</g>
<!-- Node10&#45;&gt;Node9 -->
<g id="edge10" class="edge">
<title>Node10&#45;&gt;Node9</title>
<path fill="none" stroke="midnightblue" d="M156.29,-155.95C264,-133.04 378.27,-116.83 447.92,-107.85"/>
<polygon fill="midnightblue" stroke="midnightblue" points="155.26,-152.59 146.22,-158.12 156.74,-159.44 155.26,-152.59"/>
</g>
<!-- Node12&#45;&gt;Node4 -->
<g id="edge14" class="edge">
<title>Node12&#45;&gt;Node4</title>
<path fill="none" stroke="midnightblue" d="M396.79,-306.64C382.1,-296.49 365.45,-284.98 351.73,-275.51"/>
<polygon fill="midnightblue" stroke="midnightblue" points="394.96,-309.62 405.17,-312.43 398.93,-303.86 394.96,-309.62"/>
</g>
<!-- Node12&#45;&gt;Node8 -->
<g id="edge17" class="edge">
<title>Node12&#45;&gt;Node8</title>
<path fill="none" stroke="midnightblue" d="M422.72,-302.75C415.37,-283.16 405.23,-256.88 395.5,-234 390.3,-221.77 384.03,-208.25 378.96,-197.56"/>
<polygon fill="midnightblue" stroke="midnightblue" points="419.52,-304.18 426.3,-312.33 426.08,-301.73 419.52,-304.18"/>
</g>
<!-- Node13 -->
<g id="node13" class="node">
<title>Node13</title>
<g id="a_node13"><a xlink:href="catch__list_8cpp.html" target="_top" xlink:title=" ">
<polygon fill="white" stroke="black" points="450,-156.5 450,-197.5 575,-197.5 575,-156.5 450,-156.5"/>
<text text-anchor="start" x="458" y="-185.5" font-family="Helvetica,sans-Serif" font-size="10.00">language/lib/Catch2</text>
<text text-anchor="start" x="458" y="-174.5" font-family="Helvetica,sans-Serif" font-size="10.00">/include/internal/catch</text>
<text text-anchor="middle" x="512.5" y="-163.5" font-family="Helvetica,sans-Serif" font-size="10.00">_list.cpp</text>
</a>
</g>
</g>
<!-- Node12&#45;&gt;Node13 -->
<g id="edge15" class="edge">
<title>Node12&#45;&gt;Node13</title>
<path fill="none" stroke="midnightblue" d="M443.05,-302.75C450.05,-282.82 460.42,-256.14 472.5,-234 479.42,-221.31 488.74,-208.1 496.64,-197.71"/>
<polygon fill="midnightblue" stroke="midnightblue" points="439.73,-301.63 439.79,-312.22 446.35,-303.9 439.73,-301.63"/>
</g>
<!-- Node14 -->
<g id="node14" class="node">
<title>Node14</title>
<g id="a_node14"><a xlink:href="catch__reporter__console_8cpp.html" target="_top" xlink:title=" ">
<polygon fill="white" stroke="black" points="481,-234.5 481,-275.5 612,-275.5 612,-234.5 481,-234.5"/>
<text text-anchor="start" x="489" y="-263.5" font-family="Helvetica,sans-Serif" font-size="10.00">language/lib/Catch2</text>
<text text-anchor="start" x="489" y="-252.5" font-family="Helvetica,sans-Serif" font-size="10.00">/include/reporters/catch</text>
<text text-anchor="middle" x="546.5" y="-241.5" font-family="Helvetica,sans-Serif" font-size="10.00">_reporter_console.cpp</text>
</a>
</g>
</g>
<!-- Node12&#45;&gt;Node14 -->
<g id="edge18" class="edge">
<title>Node12&#45;&gt;Node14</title>
<path fill="none" stroke="midnightblue" d="M471.21,-306.64C486.3,-296.49 503.41,-284.98 517.5,-275.51"/>
<polygon fill="midnightblue" stroke="midnightblue" points="468.94,-303.94 462.6,-312.43 472.85,-309.75 468.94,-303.94"/>
</g>
<!-- Node15 -->
<g id="node15" class="node">
<title>Node15</title>
<g id="a_node15"><a xlink:href="catch__reporter__junit_8cpp.html" target="_top" xlink:title=" ">
<polygon fill="white" stroke="black" points="630,-234.5 630,-275.5 761,-275.5 761,-234.5 630,-234.5"/>
<text text-anchor="start" x="638" y="-263.5" font-family="Helvetica,sans-Serif" font-size="10.00">language/lib/Catch2</text>
<text text-anchor="start" x="638" y="-252.5" font-family="Helvetica,sans-Serif" font-size="10.00">/include/reporters/catch</text>
<text text-anchor="middle" x="695.5" y="-241.5" font-family="Helvetica,sans-Serif" font-size="10.00">_reporter_junit.cpp</text>
</a>
</g>
</g>
<!-- Node12&#45;&gt;Node15 -->
<g id="edge20" class="edge">
<title>Node12&#45;&gt;Node15</title>
<path fill="none" stroke="midnightblue" d="M505.9,-311C544.61,-299.77 591.92,-286.05 629.6,-275.12"/>
<polygon fill="midnightblue" stroke="midnightblue" points="504.88,-307.65 496.26,-313.8 506.83,-314.37 504.88,-307.65"/>
</g>
<!-- Node13&#45;&gt;Node9 -->
<g id="edge16" class="edge">
<title>Node13&#45;&gt;Node9</title>
<path fill="none" stroke="midnightblue" d="M512.5,-146.3C512.5,-137.3 512.5,-127.65 512.5,-119.51"/>
<polygon fill="midnightblue" stroke="midnightblue" points="509,-146.43 512.5,-156.43 516,-146.43 509,-146.43"/>
</g>
<!-- Node14&#45;&gt;Node9 -->
<g id="edge19" class="edge">
<title>Node14&#45;&gt;Node9</title>
<path fill="none" stroke="midnightblue" d="M569.68,-226.11C583.26,-206.2 595.74,-178.99 584.5,-156 577.13,-140.92 563.51,-128.73 550.09,-119.62"/>
<polygon fill="midnightblue" stroke="midnightblue" points="566.68,-224.28 563.65,-234.43 572.35,-228.39 566.68,-224.28"/>
</g>
<!-- Node15&#45;&gt;Node9 -->
<g id="edge21" class="edge">
<title>Node15&#45;&gt;Node9</title>
<path fill="none" stroke="midnightblue" d="M672.01,-226.47C653.66,-205.83 626.93,-177.54 600.5,-156 583.94,-142.5 563.95,-129.55 547.21,-119.51"/>
<polygon fill="midnightblue" stroke="midnightblue" points="669.62,-229.06 678.85,-234.26 674.88,-224.44 669.62,-229.06"/>
</g>
</g>
</svg>
