<?xml version="1.0" encoding="UTF-8" standalone="no"?>
<!DOCTYPE svg PUBLIC "-//W3C//DTD SVG 1.1//EN"
 "http://www.w3.org/Graphics/SVG/1.1/DTD/svg11.dtd">
<!-- Generated by graphviz version 2.43.0 (0)
 -->
<!-- Title: Graphical Class Hierarchy Pages: 1 -->
<svg width="671pt" height="568pt"
 viewBox="0.00 0.00 671.00 568.00" xmlns="http://www.w3.org/2000/svg" xmlns:xlink="http://www.w3.org/1999/xlink">
<g id="graph0" class="graph" transform="scale(1 1) rotate(0) translate(4 564)">
<title>Graphical Class Hierarchy</title>
<polygon fill="white" stroke="transparent" points="-4,4 -4,-564 667,-564 667,4 -4,4"/>
<!-- Node0 -->
<g id="node1" class="node">
<title>Node0</title>
<g id="a_node1"><a xlink:href="struct_catch_1_1_i_streaming_reporter.html" target="_top" xlink:title=" ">
<polygon fill="white" stroke="black" points="0,-275 0,-294 146,-294 146,-275 0,-275"/>
<text text-anchor="middle" x="73" y="-282" font-family="Helvetica,sans-Serif" font-size="10.00">Catch::IStreamingReporter</text>
</a>
</g>
</g>
<!-- Node1 -->
<g id="node2" class="node">
<title>Node1</title>
<g id="a_node2"><a xlink:href="struct_catch_1_1_cumulative_reporter_base.html" target="_top" xlink:title=" ">
<polygon fill="white" stroke="black" points="194,-529.5 194,-559.5 343,-559.5 343,-529.5 194,-529.5"/>
<text text-anchor="start" x="202" y="-547.5" font-family="Helvetica,sans-Serif" font-size="10.00">Catch::CumulativeReporter</text>
<text text-anchor="middle" x="268.5" y="-536.5" font-family="Helvetica,sans-Serif" font-size="10.00">Base&lt; DerivedT &gt;</text>
</a>
</g>
</g>
<!-- Node0&#45;&gt;Node1 -->
<g id="edge1" class="edge">
<title>Node0&#45;&gt;Node1</title>
<path fill="none" stroke="midnightblue" d="M77.36,-304.23C86.08,-349.32 113.7,-460.53 182,-519.5 186.45,-523.34 191.46,-526.59 196.77,-529.34"/>
<polygon fill="midnightblue" stroke="midnightblue" points="80.78,-303.48 75.54,-294.27 73.89,-304.73 80.78,-303.48"/>
</g>
<!-- Node2 -->
<g id="node3" class="node">
<title>Node2</title>
<g id="a_node3"><a xlink:href="class_catch_1_1_listening_reporter.html" target="_top" xlink:title=" ">
<polygon fill="white" stroke="black" points="200,-491 200,-510 337,-510 337,-491 200,-491"/>
<text text-anchor="middle" x="268.5" y="-498" font-family="Helvetica,sans-Serif" font-size="10.00">Catch::ListeningReporter</text>
</a>
</g>
</g>
<!-- Node0&#45;&gt;Node2 -->
<g id="edge2" class="edge">
<title>Node0&#45;&gt;Node2</title>
<path fill="none" stroke="midnightblue" d="M78.85,-304.01C89.87,-344.02 120.7,-435.48 182,-481.5 187.35,-485.52 193.39,-488.71 199.72,-491.26"/>
<polygon fill="midnightblue" stroke="midnightblue" points="82.19,-302.95 76.26,-294.17 75.42,-304.73 82.19,-302.95"/>
</g>
<!-- Node3 -->
<g id="node4" class="node">
<title>Node3</title>
<g id="a_node4"><a xlink:href="struct_catch_1_1_streaming_reporter_base.html" target="_top" xlink:title=" ">
<polygon fill="white" stroke="black" points="197,-441.5 197,-471.5 340,-471.5 340,-441.5 197,-441.5"/>
<text text-anchor="start" x="205" y="-459.5" font-family="Helvetica,sans-Serif" font-size="10.00">Catch::StreamingReporter</text>
<text text-anchor="middle" x="268.5" y="-448.5" font-family="Helvetica,sans-Serif" font-size="10.00">Base&lt; DerivedT &gt;</text>
</a>
</g>
</g>
<!-- Node0&#45;&gt;Node3 -->
<g id="edge3" class="edge">
<title>Node0&#45;&gt;Node3</title>
<path fill="none" stroke="midnightblue" d="M82.69,-303.63C98.08,-335.32 133.18,-398.59 182,-432.5 186.94,-435.93 192.36,-438.87 197.99,-441.39"/>
<polygon fill="midnightblue" stroke="midnightblue" points="85.67,-301.73 78.24,-294.18 79.33,-304.72 85.67,-301.73"/>
</g>
<!-- Node4 -->
<g id="node5" class="node">
<title>Node4</title>
<g id="a_node5"><a xlink:href="struct_catch_1_1_cumulative_reporter_base.html" target="_top" xlink:title=" ">
<polygon fill="white" stroke="black" points="194,-392.5 194,-422.5 343,-422.5 343,-392.5 194,-392.5"/>
<text text-anchor="start" x="202" y="-410.5" font-family="Helvetica,sans-Serif" font-size="10.00">Catch::CumulativeReporter</text>
<text text-anchor="middle" x="268.5" y="-399.5" font-family="Helvetica,sans-Serif" font-size="10.00">Base&lt; JunitReporter &gt;</text>
</a>
</g>
</g>
<!-- Node0&#45;&gt;Node4 -->
<g id="edge4" class="edge">
<title>Node0&#45;&gt;Node4</title>
<path fill="none" stroke="midnightblue" d="M88.31,-301.92C107.42,-324.07 143.37,-362 182,-383.5 188.06,-386.87 194.64,-389.8 201.35,-392.34"/>
<polygon fill="midnightblue" stroke="midnightblue" points="90.97,-299.65 81.84,-294.27 85.62,-304.17 90.97,-299.65"/>
</g>
<!-- Node6 -->
<g id="node7" class="node">
<title>Node6</title>
<g id="a_node7"><a xlink:href="struct_catch_1_1_cumulative_reporter_base.html" target="_top" xlink:title=" ">
<polygon fill="white" stroke="black" points="189.5,-343.5 189.5,-373.5 347.5,-373.5 347.5,-343.5 189.5,-343.5"/>
<text text-anchor="start" x="197.5" y="-361.5" font-family="Helvetica,sans-Serif" font-size="10.00">Catch::CumulativeReporter</text>
<text text-anchor="middle" x="268.5" y="-350.5" font-family="Helvetica,sans-Serif" font-size="10.00">Base&lt; SonarQubeReporter &gt;</text>
</a>
</g>
</g>
<!-- Node0&#45;&gt;Node6 -->
<g id="edge6" class="edge">
<title>Node0&#45;&gt;Node6</title>
<path fill="none" stroke="midnightblue" d="M101.53,-298.74C123.06,-309.5 153.93,-324.14 182,-334.5 190.68,-337.7 199.99,-340.72 209.15,-343.47"/>
<polygon fill="midnightblue" stroke="midnightblue" points="102.85,-295.48 92.35,-294.1 99.69,-301.73 102.85,-295.48"/>
</g>
<!-- Node8 -->
<g id="node9" class="node">
<title>Node8</title>
<g id="a_node9"><a xlink:href="struct_catch_1_1_streaming_reporter_base.html" target="_top" xlink:title=" ">
<polygon fill="white" stroke="black" points="191,-294.5 191,-324.5 346,-324.5 346,-294.5 191,-294.5"/>
<text text-anchor="start" x="199" y="-312.5" font-family="Helvetica,sans-Serif" font-size="10.00">Catch::StreamingReporter</text>
<text text-anchor="middle" x="268.5" y="-301.5" font-family="Helvetica,sans-Serif" font-size="10.00">Base&lt; AutomakeReporter &gt;</text>
</a>
</g>
</g>
<!-- Node0&#45;&gt;Node8 -->
<g id="edge8" class="edge">
<title>Node0&#45;&gt;Node8</title>
<path fill="none" stroke="midnightblue" d="M156.09,-295.11C167.62,-296.6 179.43,-298.12 190.85,-299.6"/>
<polygon fill="midnightblue" stroke="midnightblue" points="156.42,-291.62 146.05,-293.81 155.52,-298.56 156.42,-291.62"/>
</g>
<!-- Node10 -->
<g id="node11" class="node">
<title>Node10</title>
<g id="a_node11"><a xlink:href="struct_catch_1_1_streaming_reporter_base.html" target="_top" xlink:title=" ">
<polygon fill="white" stroke="black" points="194,-245.5 194,-275.5 343,-275.5 343,-245.5 194,-245.5"/>
<text text-anchor="start" x="202" y="-263.5" font-family="Helvetica,sans-Serif" font-size="10.00">Catch::StreamingReporter</text>
<text text-anchor="middle" x="268.5" y="-252.5" font-family="Helvetica,sans-Serif" font-size="10.00">Base&lt; CompactReporter &gt;</text>
</a>
</g>
</g>
<!-- Node0&#45;&gt;Node10 -->
<g id="edge10" class="edge">
<title>Node0&#45;&gt;Node10</title>
<path fill="none" stroke="midnightblue" d="M156.02,-274.33C168.55,-272.77 181.43,-271.18 193.77,-269.64"/>
<polygon fill="midnightblue" stroke="midnightblue" points="155.55,-270.86 146.05,-275.56 156.41,-277.81 155.55,-270.86"/>
</g>
<!-- Node12 -->
<g id="node13" class="node">
<title>Node12</title>
<g id="a_node13"><a xlink:href="struct_catch_1_1_streaming_reporter_base.html" target="_top" xlink:title=" ">
<polygon fill="white" stroke="black" points="196.5,-196.5 196.5,-226.5 340.5,-226.5 340.5,-196.5 196.5,-196.5"/>
<text text-anchor="start" x="204.5" y="-214.5" font-family="Helvetica,sans-Serif" font-size="10.00">Catch::StreamingReporter</text>
<text text-anchor="middle" x="268.5" y="-203.5" font-family="Helvetica,sans-Serif" font-size="10.00">Base&lt; ConsoleReporter &gt;</text>
</a>
</g>
</g>
<!-- Node0&#45;&gt;Node12 -->
<g id="edge12" class="edge">
<title>Node0&#45;&gt;Node12</title>
<path fill="none" stroke="midnightblue" d="M102.8,-270.43C124.31,-260.24 154.6,-246.54 182,-236.5 191.58,-232.99 201.91,-229.62 211.96,-226.57"/>
<polygon fill="midnightblue" stroke="midnightblue" points="101.09,-267.37 93.58,-274.85 104.11,-273.69 101.09,-267.37"/>
</g>
<!-- Node14 -->
<g id="node15" class="node">
<title>Node14</title>
<g id="a_node15"><a xlink:href="struct_catch_1_1_streaming_reporter_base.html" target="_top" xlink:title=" ">
<polygon fill="white" stroke="black" points="197,-147.5 197,-177.5 340,-177.5 340,-147.5 197,-147.5"/>
<text text-anchor="start" x="205" y="-165.5" font-family="Helvetica,sans-Serif" font-size="10.00">Catch::StreamingReporter</text>
<text text-anchor="middle" x="268.5" y="-154.5" font-family="Helvetica,sans-Serif" font-size="10.00">Base&lt; TAPReporter &gt;</text>
</a>
</g>
</g>
<!-- Node0&#45;&gt;Node14 -->
<g id="edge14" class="edge">
<title>Node0&#45;&gt;Node14</title>
<path fill="none" stroke="midnightblue" d="M88.67,-267.22C107.97,-245.57 143.9,-208.72 182,-187.5 188.89,-183.66 196.43,-180.36 204.08,-177.54"/>
<polygon fill="midnightblue" stroke="midnightblue" points="85.85,-265.14 81.91,-274.97 91.12,-269.74 85.85,-265.14"/>
</g>
<!-- Node16 -->
<g id="node17" class="node">
<title>Node16</title>
<g id="a_node17"><a xlink:href="struct_catch_1_1_streaming_reporter_base.html" target="_top" xlink:title=" ">
<polygon fill="white" stroke="black" points="193,-98.5 193,-128.5 344,-128.5 344,-98.5 193,-98.5"/>
<text text-anchor="start" x="201" y="-116.5" font-family="Helvetica,sans-Serif" font-size="10.00">Catch::StreamingReporter</text>
<text text-anchor="middle" x="268.5" y="-105.5" font-family="Helvetica,sans-Serif" font-size="10.00">Base&lt; TeamCityReporter &gt;</text>
</a>
</g>
</g>
<!-- Node0&#45;&gt;Node16 -->
<g id="edge16" class="edge">
<title>Node0&#45;&gt;Node16</title>
<path fill="none" stroke="midnightblue" d="M82.8,-265.69C98.36,-234.51 133.68,-172.21 182,-138.5 187.58,-134.61 193.77,-131.31 200.19,-128.53"/>
<polygon fill="midnightblue" stroke="midnightblue" points="79.51,-264.46 78.29,-274.98 85.81,-267.51 79.51,-264.46"/>
</g>
<!-- Node18 -->
<g id="node19" class="node">
<title>Node18</title>
<g id="a_node19"><a xlink:href="struct_catch_1_1_streaming_reporter_base.html" target="_top" xlink:title=" ">
<polygon fill="white" stroke="black" points="182,-49.5 182,-79.5 355,-79.5 355,-49.5 182,-49.5"/>
<text text-anchor="start" x="190" y="-67.5" font-family="Helvetica,sans-Serif" font-size="10.00">Catch::StreamingReporter</text>
<text text-anchor="middle" x="268.5" y="-56.5" font-family="Helvetica,sans-Serif" font-size="10.00">Base&lt; TestEventListenerBase &gt;</text>
</a>
</g>
</g>
<!-- Node0&#45;&gt;Node18 -->
<g id="edge18" class="edge">
<title>Node0&#45;&gt;Node18</title>
<path fill="none" stroke="midnightblue" d="M79.33,-264.96C91.06,-225.66 122.89,-136.79 182,-89.5 186.83,-85.64 192.24,-82.37 197.93,-79.61"/>
<polygon fill="midnightblue" stroke="midnightblue" points="75.94,-264.08 76.55,-274.65 82.67,-266.01 75.94,-264.08"/>
</g>
<!-- Node22 -->
<g id="node23" class="node">
<title>Node22</title>
<g id="a_node23"><a xlink:href="struct_catch_1_1_streaming_reporter_base.html" target="_top" xlink:title=" ">
<polygon fill="white" stroke="black" points="197,-0.5 197,-30.5 340,-30.5 340,-0.5 197,-0.5"/>
<text text-anchor="start" x="205" y="-18.5" font-family="Helvetica,sans-Serif" font-size="10.00">Catch::StreamingReporter</text>
<text text-anchor="middle" x="268.5" y="-7.5" font-family="Helvetica,sans-Serif" font-size="10.00">Base&lt; XmlReporter &gt;</text>
</a>
</g>
</g>
<!-- Node0&#45;&gt;Node22 -->
<g id="edge22" class="edge">
<title>Node0&#45;&gt;Node22</title>
<path fill="none" stroke="midnightblue" d="M76.95,-264.96C84.98,-218.8 111.49,-102.25 182,-40.5 186.42,-36.63 191.41,-33.35 196.71,-30.59"/>
<polygon fill="midnightblue" stroke="midnightblue" points="73.49,-264.44 75.33,-274.87 80.4,-265.57 73.49,-264.44"/>
</g>
<!-- Node5 -->
<g id="node6" class="node">
<title>Node5</title>
<g id="a_node6"><a xlink:href="class_catch_1_1_junit_reporter.html" target="_top" xlink:title=" ">
<polygon fill="white" stroke="black" points="414.5,-398 414.5,-417 528.5,-417 528.5,-398 414.5,-398"/>
<text text-anchor="middle" x="471.5" y="-405" font-family="Helvetica,sans-Serif" font-size="10.00">Catch::JunitReporter</text>
</a>
</g>
</g>
<!-- Node4&#45;&gt;Node5 -->
<g id="edge5" class="edge">
<title>Node4&#45;&gt;Node5</title>
<path fill="none" stroke="midnightblue" d="M353.24,-407.5C373.87,-407.5 395.48,-407.5 414.44,-407.5"/>
<polygon fill="midnightblue" stroke="midnightblue" points="353.2,-404 343.2,-407.5 353.2,-411 353.2,-404"/>
</g>
<!-- Node7 -->
<g id="node8" class="node">
<title>Node7</title>
<g id="a_node8"><a xlink:href="struct_catch_1_1_sonar_qube_reporter.html" target="_top" xlink:title=" ">
<polygon fill="white" stroke="black" points="398.5,-349 398.5,-368 544.5,-368 544.5,-349 398.5,-349"/>
<text text-anchor="middle" x="471.5" y="-356" font-family="Helvetica,sans-Serif" font-size="10.00">Catch::SonarQubeReporter</text>
</a>
</g>
</g>
<!-- Node6&#45;&gt;Node7 -->
<g id="edge7" class="edge">
<title>Node6&#45;&gt;Node7</title>
<path fill="none" stroke="midnightblue" d="M358.02,-358.5C371.5,-358.5 385.26,-358.5 398.34,-358.5"/>
<polygon fill="midnightblue" stroke="midnightblue" points="357.79,-355 347.79,-358.5 357.79,-362 357.79,-355"/>
</g>
<!-- Node9 -->
<g id="node10" class="node">
<title>Node9</title>
<g id="a_node10"><a xlink:href="struct_catch_1_1_automake_reporter.html" target="_top" xlink:title=" ">
<polygon fill="white" stroke="black" points="400.5,-300 400.5,-319 542.5,-319 542.5,-300 400.5,-300"/>
<text text-anchor="middle" x="471.5" y="-307" font-family="Helvetica,sans-Serif" font-size="10.00">Catch::AutomakeReporter</text>
</a>
</g>
</g>
<!-- Node8&#45;&gt;Node9 -->
<g id="edge9" class="edge">
<title>Node8&#45;&gt;Node9</title>
<path fill="none" stroke="midnightblue" d="M356.21,-309.5C370.98,-309.5 386.15,-309.5 400.42,-309.5"/>
<polygon fill="midnightblue" stroke="midnightblue" points="356.06,-306 346.06,-309.5 356.06,-313 356.06,-306"/>
</g>
<!-- Node11 -->
<g id="node12" class="node">
<title>Node11</title>
<g id="a_node12"><a xlink:href="struct_catch_1_1_compact_reporter.html" target="_top" xlink:title=" ">
<polygon fill="white" stroke="black" points="403.5,-251 403.5,-270 539.5,-270 539.5,-251 403.5,-251"/>
<text text-anchor="middle" x="471.5" y="-258" font-family="Helvetica,sans-Serif" font-size="10.00">Catch::CompactReporter</text>
</a>
</g>
</g>
<!-- Node10&#45;&gt;Node11 -->
<g id="edge11" class="edge">
<title>Node10&#45;&gt;Node11</title>
<path fill="none" stroke="midnightblue" d="M353.49,-260.5C370.16,-260.5 387.45,-260.5 403.47,-260.5"/>
<polygon fill="midnightblue" stroke="midnightblue" points="353.2,-257 343.2,-260.5 353.2,-264 353.2,-257"/>
</g>
<!-- Node13 -->
<g id="node14" class="node">
<title>Node13</title>
<g id="a_node14"><a xlink:href="struct_catch_1_1_console_reporter.html" target="_top" xlink:title=" ">
<polygon fill="white" stroke="black" points="406,-202 406,-221 537,-221 537,-202 406,-202"/>
<text text-anchor="middle" x="471.5" y="-209" font-family="Helvetica,sans-Serif" font-size="10.00">Catch::ConsoleReporter</text>
</a>
</g>
</g>
<!-- Node12&#45;&gt;Node13 -->
<g id="edge13" class="edge">
<title>Node12&#45;&gt;Node13</title>
<path fill="none" stroke="midnightblue" d="M350.72,-211.5C369.06,-211.5 388.28,-211.5 405.82,-211.5"/>
<polygon fill="midnightblue" stroke="midnightblue" points="350.65,-208 340.65,-211.5 350.65,-215 350.65,-208"/>
</g>
<!-- Node15 -->
<g id="node16" class="node">
<title>Node15</title>
<g id="a_node16"><a xlink:href="struct_catch_1_1_t_a_p_reporter.html" target="_top" xlink:title=" ">
<polygon fill="white" stroke="black" points="416.5,-153 416.5,-172 526.5,-172 526.5,-153 416.5,-153"/>
<text text-anchor="middle" x="471.5" y="-160" font-family="Helvetica,sans-Serif" font-size="10.00">Catch::TAPReporter</text>
</a>
</g>
</g>
<!-- Node14&#45;&gt;Node15 -->
<g id="edge15" class="edge">
<title>Node14&#45;&gt;Node15</title>
<path fill="none" stroke="midnightblue" d="M350.17,-162.5C372.37,-162.5 395.91,-162.5 416.23,-162.5"/>
<polygon fill="midnightblue" stroke="midnightblue" points="350.08,-159 340.08,-162.5 350.08,-166 350.08,-159"/>
</g>
<!-- Node17 -->
<g id="node18" class="node">
<title>Node17</title>
<g id="a_node18"><a xlink:href="struct_catch_1_1_team_city_reporter.html" target="_top" xlink:title=" ">
<polygon fill="white" stroke="black" points="402.5,-104 402.5,-123 540.5,-123 540.5,-104 402.5,-104"/>
<text text-anchor="middle" x="471.5" y="-111" font-family="Helvetica,sans-Serif" font-size="10.00">Catch::TeamCityReporter</text>
</a>
</g>
</g>
<!-- Node16&#45;&gt;Node17 -->
<g id="edge17" class="edge">
<title>Node16&#45;&gt;Node17</title>
<path fill="none" stroke="midnightblue" d="M354.47,-113.5C370.46,-113.5 386.98,-113.5 402.37,-113.5"/>
<polygon fill="midnightblue" stroke="midnightblue" points="354.06,-110 344.06,-113.5 354.06,-117 354.06,-110"/>
</g>
<!-- Node19 -->
<g id="node20" class="node">
<title>Node19</title>
<g id="a_node20"><a xlink:href="struct_catch_1_1_test_event_listener_base.html" target="_top" xlink:title=" ">
<polygon fill="white" stroke="black" points="391,-55 391,-74 552,-74 552,-55 391,-55"/>
<text text-anchor="middle" x="471.5" y="-62" font-family="Helvetica,sans-Serif" font-size="10.00">Catch::TestEventListenerBase</text>
</a>
</g>
</g>
<!-- Node18&#45;&gt;Node19 -->
<g id="edge19" class="edge">
<title>Node18&#45;&gt;Node19</title>
<path fill="none" stroke="midnightblue" d="M365.09,-64.5C373.69,-64.5 382.34,-64.5 390.79,-64.5"/>
<polygon fill="midnightblue" stroke="midnightblue" points="365.03,-61 355.03,-64.5 365.03,-68 365.03,-61"/>
</g>
<!-- Node20 -->
<g id="node21" class="node">
<title>Node20</title>
<g id="a_node21"><a xlink:href="struct_my_listener.html" target="_top" xlink:title=" ">
<polygon fill="white" stroke="black" points="590,-74 590,-93 661,-93 661,-74 590,-74"/>
<text text-anchor="middle" x="625.5" y="-81" font-family="Helvetica,sans-Serif" font-size="10.00">MyListener</text>
</a>
</g>
</g>
<!-- Node19&#45;&gt;Node20 -->
<g id="edge20" class="edge">
<title>Node19&#45;&gt;Node20</title>
<path fill="none" stroke="midnightblue" d="M559,-75.31C569.89,-76.67 580.48,-78 589.86,-79.17"/>
<polygon fill="midnightblue" stroke="midnightblue" points="559.3,-71.82 548.95,-74.06 558.43,-78.77 559.3,-71.82"/>
</g>
<!-- Node21 -->
<g id="node22" class="node">
<title>Node21</title>
<g id="a_node22"><a xlink:href="struct_test_listener.html" target="_top" xlink:title=" ">
<polygon fill="white" stroke="black" points="588,-36 588,-55 663,-55 663,-36 588,-36"/>
<text text-anchor="middle" x="625.5" y="-43" font-family="Helvetica,sans-Serif" font-size="10.00">TestListener</text>
</a>
</g>
</g>
<!-- Node19&#45;&gt;Node21 -->
<g id="edge21" class="edge">
<title>Node19&#45;&gt;Node21</title>
<path fill="none" stroke="midnightblue" d="M559.12,-53.67C569.23,-52.41 579.09,-51.18 587.95,-50.07"/>
<polygon fill="midnightblue" stroke="midnightblue" points="558.43,-50.23 548.95,-54.94 559.3,-57.18 558.43,-50.23"/>
</g>
<!-- Node23 -->
<g id="node24" class="node">
<title>Node23</title>
<g id="a_node24"><a xlink:href="class_catch_1_1_xml_reporter.html" target="_top" xlink:title=" ">
<polygon fill="white" stroke="black" points="415.5,-6 415.5,-25 527.5,-25 527.5,-6 415.5,-6"/>
<text text-anchor="middle" x="471.5" y="-13" font-family="Helvetica,sans-Serif" font-size="10.00">Catch::XmlReporter</text>
</a>
</g>
</g>
<!-- Node22&#45;&gt;Node23 -->
<g id="edge23" class="edge">
<title>Node22&#45;&gt;Node23</title>
<path fill="none" stroke="midnightblue" d="M350.33,-15.5C372.13,-15.5 395.22,-15.5 415.27,-15.5"/>
<polygon fill="midnightblue" stroke="midnightblue" points="350.08,-12 340.08,-15.5 350.08,-19 350.08,-12"/>
</g>
</g>
</svg>
