<?xml version="1.0" encoding="UTF-8" standalone="no"?>
<!DOCTYPE svg PUBLIC "-//W3C//DTD SVG 1.1//EN"
 "http://www.w3.org/Graphics/SVG/1.1/DTD/svg11.dtd">
<!-- Generated by graphviz version 2.43.0 (0)
 -->
<!-- Title: Graphical Class Hierarchy Pages: 1 -->
<svg width="706pt" height="214pt"
 viewBox="0.00 0.00 706.00 214.00" xmlns="http://www.w3.org/2000/svg" xmlns:xlink="http://www.w3.org/1999/xlink">
<g id="graph0" class="graph" transform="scale(1 1) rotate(0) translate(4 210)">
<title>Graphical Class Hierarchy</title>
<polygon fill="white" stroke="transparent" points="-4,4 -4,-210 702,-210 702,4 -4,4"/>
<!-- Node0 -->
<g id="node1" class="node">
<title>Node0</title>
<g id="a_node1"><a xlink:href="structclara_1_1detail_1_1_non_copyable.html" target="_top" xlink:title=" ">
<polygon fill="white" stroke="black" points="0,-96 0,-115 146,-115 146,-96 0,-96"/>
<text text-anchor="middle" x="73" y="-103" font-family="Helvetica,sans-Serif" font-size="10.00">clara::detail::NonCopyable</text>
</a>
</g>
</g>
<!-- Node1 -->
<g id="node2" class="node">
<title>Node1</title>
<g id="a_node2"><a xlink:href="structclara_1_1detail_1_1_bound_ref.html" target="_top" xlink:title=" ">
<polygon fill="white" stroke="black" points="182,-96 182,-115 310,-115 310,-96 182,-96"/>
<text text-anchor="middle" x="246" y="-103" font-family="Helvetica,sans-Serif" font-size="10.00">clara::detail::BoundRef</text>
</a>
</g>
</g>
<!-- Node0&#45;&gt;Node1 -->
<g id="edge1" class="edge">
<title>Node0&#45;&gt;Node1</title>
<path fill="none" stroke="midnightblue" d="M156.1,-105.5C164.72,-105.5 173.38,-105.5 181.74,-105.5"/>
<polygon fill="midnightblue" stroke="midnightblue" points="156.02,-102 146.02,-105.5 156.02,-109 156.02,-102"/>
</g>
<!-- Node2 -->
<g id="node3" class="node">
<title>Node2</title>
<g id="a_node3"><a xlink:href="structclara_1_1detail_1_1_bound_flag_ref_base.html" target="_top" xlink:title=" ">
<polygon fill="white" stroke="black" points="349,-131.5 349,-161.5 481,-161.5 481,-131.5 349,-131.5"/>
<text text-anchor="start" x="357" y="-149.5" font-family="Helvetica,sans-Serif" font-size="10.00">clara::detail::BoundFlag</text>
<text text-anchor="middle" x="415" y="-138.5" font-family="Helvetica,sans-Serif" font-size="10.00">RefBase</text>
</a>
</g>
</g>
<!-- Node1&#45;&gt;Node2 -->
<g id="edge2" class="edge">
<title>Node1&#45;&gt;Node2</title>
<path fill="none" stroke="midnightblue" d="M295.86,-117.5C313.61,-121.85 333.89,-126.83 352.59,-131.42"/>
<polygon fill="midnightblue" stroke="midnightblue" points="296.28,-113.99 285.73,-115.01 294.61,-120.79 296.28,-113.99"/>
</g>
<!-- Node5 -->
<g id="node6" class="node">
<title>Node5</title>
<g id="a_node6"><a xlink:href="structclara_1_1detail_1_1_bound_value_ref_base.html" target="_top" xlink:title=" ">
<polygon fill="white" stroke="black" points="346,-66.5 346,-96.5 484,-96.5 484,-66.5 346,-66.5"/>
<text text-anchor="start" x="354" y="-84.5" font-family="Helvetica,sans-Serif" font-size="10.00">clara::detail::BoundValue</text>
<text text-anchor="middle" x="415" y="-73.5" font-family="Helvetica,sans-Serif" font-size="10.00">RefBase</text>
</a>
</g>
</g>
<!-- Node1&#45;&gt;Node5 -->
<g id="edge5" class="edge">
<title>Node1&#45;&gt;Node5</title>
<path fill="none" stroke="midnightblue" d="M320.07,-95C328.6,-93.77 337.29,-92.52 345.75,-91.31"/>
<polygon fill="midnightblue" stroke="midnightblue" points="319.54,-91.54 310.14,-96.43 320.53,-98.47 319.54,-91.54"/>
</g>
<!-- Node3 -->
<g id="node4" class="node">
<title>Node3</title>
<g id="a_node4"><a xlink:href="structclara_1_1detail_1_1_bound_flag_lambda.html" target="_top" xlink:title=" ">
<polygon fill="white" stroke="black" points="543,-175.5 543,-205.5 675,-205.5 675,-175.5 543,-175.5"/>
<text text-anchor="start" x="551" y="-193.5" font-family="Helvetica,sans-Serif" font-size="10.00">clara::detail::BoundFlag</text>
<text text-anchor="middle" x="609" y="-182.5" font-family="Helvetica,sans-Serif" font-size="10.00">Lambda&lt; L &gt;</text>
</a>
</g>
</g>
<!-- Node2&#45;&gt;Node3 -->
<g id="edge3" class="edge">
<title>Node2&#45;&gt;Node3</title>
<path fill="none" stroke="midnightblue" d="M490.94,-163.67C508.04,-167.59 526.08,-171.73 542.74,-175.54"/>
<polygon fill="midnightblue" stroke="midnightblue" points="491.53,-160.22 481,-161.4 489.97,-167.04 491.53,-160.22"/>
</g>
<!-- Node4 -->
<g id="node5" class="node">
<title>Node4</title>
<g id="a_node5"><a xlink:href="structclara_1_1detail_1_1_bound_flag_ref.html" target="_top" xlink:title=" ">
<polygon fill="white" stroke="black" points="534.5,-137 534.5,-156 683.5,-156 683.5,-137 534.5,-137"/>
<text text-anchor="middle" x="609" y="-144" font-family="Helvetica,sans-Serif" font-size="10.00">clara::detail::BoundFlagRef</text>
</a>
</g>
</g>
<!-- Node2&#45;&gt;Node4 -->
<g id="edge4" class="edge">
<title>Node2&#45;&gt;Node4</title>
<path fill="none" stroke="midnightblue" d="M491.22,-146.5C505.45,-146.5 520.3,-146.5 534.47,-146.5"/>
<polygon fill="midnightblue" stroke="midnightblue" points="491,-143 481,-146.5 491,-150 491,-143"/>
</g>
<!-- Node6 -->
<g id="node7" class="node">
<title>Node6</title>
<g id="a_node7"><a xlink:href="structclara_1_1detail_1_1_bound_lambda.html" target="_top" xlink:title=" ">
<polygon fill="white" stroke="black" points="520,-99 520,-118 698,-118 698,-99 520,-99"/>
<text text-anchor="middle" x="609" y="-106" font-family="Helvetica,sans-Serif" font-size="10.00">clara::detail::BoundLambda&lt; L &gt;</text>
</a>
</g>
</g>
<!-- Node5&#45;&gt;Node6 -->
<g id="edge6" class="edge">
<title>Node5&#45;&gt;Node6</title>
<path fill="none" stroke="midnightblue" d="M494.18,-92.49C509.47,-94.64 525.39,-96.88 540.31,-98.98"/>
<polygon fill="midnightblue" stroke="midnightblue" points="494.62,-89.02 484.23,-91.1 493.65,-95.95 494.62,-89.02"/>
</g>
<!-- Node7 -->
<g id="node8" class="node">
<title>Node7</title>
<g id="a_node8"><a xlink:href="structclara_1_1detail_1_1_bound_value_ref.html" target="_top" xlink:title=" ">
<polygon fill="white" stroke="black" points="540,-49.5 540,-79.5 678,-79.5 678,-49.5 540,-49.5"/>
<text text-anchor="start" x="548" y="-67.5" font-family="Helvetica,sans-Serif" font-size="10.00">clara::detail::BoundValue</text>
<text text-anchor="middle" x="609" y="-56.5" font-family="Helvetica,sans-Serif" font-size="10.00">Ref&lt; T &gt;</text>
</a>
</g>
</g>
<!-- Node5&#45;&gt;Node7 -->
<g id="edge7" class="edge">
<title>Node5&#45;&gt;Node7</title>
<path fill="none" stroke="midnightblue" d="M494.55,-74.54C509.62,-73.21 525.28,-71.82 539.99,-70.52"/>
<polygon fill="midnightblue" stroke="midnightblue" points="493.88,-71.09 484.23,-75.46 494.5,-78.06 493.88,-71.09"/>
</g>
<!-- Node8 -->
<g id="node9" class="node">
<title>Node8</title>
<g id="a_node9"><a xlink:href="structclara_1_1detail_1_1_bound_value_ref_3_01std_1_1vector_3_01_t_01_4_01_4.html" target="_top" xlink:title=" ">
<polygon fill="white" stroke="black" points="540,-0.5 540,-30.5 678,-30.5 678,-0.5 540,-0.5"/>
<text text-anchor="start" x="548" y="-18.5" font-family="Helvetica,sans-Serif" font-size="10.00">clara::detail::BoundValue</text>
<text text-anchor="middle" x="609" y="-7.5" font-family="Helvetica,sans-Serif" font-size="10.00">Ref&lt; std::vector&lt; T &gt; &gt;</text>
</a>
</g>
</g>
<!-- Node5&#45;&gt;Node8 -->
<g id="edge8" class="edge">
<title>Node5&#45;&gt;Node8</title>
<path fill="none" stroke="midnightblue" d="M459.6,-62.56C478.05,-54.9 499.89,-46.28 520,-39.5 529.3,-36.36 539.26,-33.34 549.01,-30.56"/>
<polygon fill="midnightblue" stroke="midnightblue" points="458.15,-59.37 450.29,-66.47 460.86,-65.83 458.15,-59.37"/>
</g>
</g>
</svg>
