<?xml version="1.0" encoding="UTF-8" standalone="no"?>
<!DOCTYPE svg PUBLIC "-//W3C//DTD SVG 1.1//EN"
 "http://www.w3.org/Graphics/SVG/1.1/DTD/svg11.dtd">
<!-- Generated by graphviz version 2.43.0 (0)
 -->
<!-- Title: Graphical Class Hierarchy Pages: 1 -->
<svg width="256pt" height="110pt"
 viewBox="0.00 0.00 256.00 110.00" xmlns="http://www.w3.org/2000/svg" xmlns:xlink="http://www.w3.org/1999/xlink">
<g id="graph0" class="graph" transform="scale(1 1) rotate(0) translate(4 106)">
<title>Graphical Class Hierarchy</title>
<polygon fill="white" stroke="transparent" points="-4,4 -4,-106 252,-106 252,4 -4,4"/>
<!-- Node22 -->
<g id="node1" class="node">
<title>Node22</title>
<g id="a_node1"><a xlink:title=" ">
<polygon fill="white" stroke="#bfbfbf" points="0,-36 0,-55 63,-55 63,-36 0,-36"/>
<text text-anchor="middle" x="31.5" y="-43" font-family="Helvetica,sans-Serif" font-size="10.00">true_type</text>
</a>
</g>
</g>
<!-- Node0 -->
<g id="node2" class="node">
<title>Node0</title>
<g id="a_node2"><a xlink:href="struct_catch_1_1detail_1_1is__range__impl_3_01_t_00_01typename_01void__type_3_01decltype_07begin8604ecb9de16ea7789f2f694ac896ffd.html" target="_top" xlink:title=" ">
<polygon fill="white" stroke="black" points="99,-49.5 99,-101.5 248,-101.5 248,-49.5 99,-49.5"/>
<text text-anchor="start" x="107" y="-89.5" font-family="Helvetica,sans-Serif" font-size="10.00">Catch::detail::is_range</text>
<text text-anchor="start" x="107" y="-78.5" font-family="Helvetica,sans-Serif" font-size="10.00">_impl&lt; T, typename void</text>
<text text-anchor="start" x="107" y="-67.5" font-family="Helvetica,sans-Serif" font-size="10.00">_type&lt; decltype(begin(std</text>
<text text-anchor="middle" x="173.5" y="-56.5" font-family="Helvetica,sans-Serif" font-size="10.00">::declval&lt; T &gt;()))&gt;::type &gt;</text>
</a>
</g>
</g>
<!-- Node22&#45;&gt;Node0 -->
<g id="edge1" class="edge">
<title>Node22&#45;&gt;Node0</title>
<path fill="none" stroke="midnightblue" d="M73.12,-54.2C81.23,-55.94 89.99,-57.82 98.83,-59.71"/>
<polygon fill="midnightblue" stroke="midnightblue" points="73.73,-50.76 63.22,-52.08 72.27,-57.6 73.73,-50.76"/>
</g>
<!-- Node24 -->
<g id="node3" class="node">
<title>Node24</title>
<g id="a_node3"><a xlink:href="struct_catch_1_1true__given.html" target="_top" xlink:title=" ">
<polygon fill="white" stroke="black" points="118.5,-0.5 118.5,-30.5 228.5,-30.5 228.5,-0.5 118.5,-0.5"/>
<text text-anchor="start" x="126.5" y="-18.5" font-family="Helvetica,sans-Serif" font-size="10.00">Catch::true_given&lt;</text>
<text text-anchor="middle" x="173.5" y="-7.5" font-family="Helvetica,sans-Serif" font-size="10.00"> typename &gt;</text>
</a>
</g>
</g>
<!-- Node22&#45;&gt;Node24 -->
<g id="edge2" class="edge">
<title>Node22&#45;&gt;Node24</title>
<path fill="none" stroke="midnightblue" d="M73.13,-36.79C87.28,-33.76 103.37,-30.31 118.43,-27.09"/>
<polygon fill="midnightblue" stroke="midnightblue" points="72.27,-33.4 63.22,-38.92 73.73,-40.24 72.27,-33.4"/>
</g>
</g>
</svg>
