<?xml version="1.0" encoding="UTF-8" standalone="no"?>
<!DOCTYPE svg PUBLIC "-//W3C//DTD SVG 1.1//EN"
 "http://www.w3.org/Graphics/SVG/1.1/DTD/svg11.dtd">
<!-- Generated by graphviz version 2.43.0 (0)
 -->
<!-- Title: Graphical Class Hierarchy Pages: 1 -->
<svg width="194pt" height="66pt"
 viewBox="0.00 0.00 194.00 66.00" xmlns="http://www.w3.org/2000/svg" xmlns:xlink="http://www.w3.org/1999/xlink">
<g id="graph0" class="graph" transform="scale(1 1) rotate(0) translate(4 62)">
<title>Graphical Class Hierarchy</title>
<polygon fill="white" stroke="transparent" points="-4,4 -4,-62 190,-62 190,4 -4,4"/>
<!-- Node165 -->
<g id="node1" class="node">
<title>Node165</title>
<g id="a_node1"><a xlink:href="class_n_s_object.html" target="_top" xlink:title=" ">
<polygon fill="white" stroke="black" points="9,-0.5 9,-19.5 71,-19.5 71,-0.5 9,-0.5"/>
<text text-anchor="middle" x="40" y="-7.5" font-family="Helvetica,sans-Serif" font-size="10.00">NSObject</text>
</a>
</g>
</g>
<!-- Node1 -->
<g id="node2" class="node">
<title>Node1</title>
<g id="a_node2"><a xlink:href="interface_test_fixture.html" target="_top" xlink:title=" ">
<polygon fill="white" stroke="black" points="116,-38.5 116,-57.5 186,-57.5 186,-38.5 116,-38.5"/>
<text text-anchor="middle" x="151" y="-45.5" font-family="Helvetica,sans-Serif" font-size="10.00">TestFixture</text>
</a>
</g>
</g>
<!-- Node165&#45;&gt;Node1 -->
<g id="edge1" class="edge">
<title>Node165&#45;&gt;Node1</title>
<path fill="none" stroke="midnightblue" d="M78.21,-22.97C92.73,-28.03 109.08,-33.73 122.5,-38.41"/>
<polygon fill="midnightblue" stroke="midnightblue" points="79.1,-19.58 68.51,-19.59 76.8,-26.19 79.1,-19.58"/>
</g>
<!-- Node166 -->
<g id="node3" class="node">
<title>Node166</title>
<g id="a_node3"><a xlink:href="interface_test_obj.html" target="_top" xlink:title=" ">
<polygon fill="white" stroke="black" points="124.5,-0.5 124.5,-19.5 177.5,-19.5 177.5,-0.5 124.5,-0.5"/>
<text text-anchor="middle" x="151" y="-7.5" font-family="Helvetica,sans-Serif" font-size="10.00">TestObj</text>
</a>
</g>
</g>
<!-- Node165&#45;&gt;Node166 -->
<g id="edge2" class="edge">
<title>Node165&#45;&gt;Node166</title>
<path fill="none" stroke="midnightblue" d="M81.28,-10C95.72,-10 111.6,-10 124.46,-10"/>
<polygon fill="midnightblue" stroke="midnightblue" points="81.07,-6.5 71.07,-10 81.07,-13.5 81.07,-6.5"/>
</g>
<!-- Node0 -->
<g id="node4" class="node">
<title>Node0</title>
<g id="a_node4"><a xlink:href="protocol_oc_fixture-p.html" target="_top" xlink:title=" ">
<polygon fill="white" stroke="black" points="0,-38.5 0,-57.5 80,-57.5 80,-38.5 0,-38.5"/>
<text text-anchor="middle" x="40" y="-45.5" font-family="Helvetica,sans-Serif" font-size="10.00">&lt;OcFixture&gt;</text>
</a>
</g>
</g>
<!-- Node0&#45;&gt;Node1 -->
<g id="edge3" class="edge">
<title>Node0&#45;&gt;Node1</title>
<path fill="none" stroke="midnightblue" d="M90.13,-48C98.85,-48 107.74,-48 115.92,-48"/>
<polygon fill="midnightblue" stroke="midnightblue" points="90.04,-44.5 80.04,-48 90.04,-51.5 90.04,-44.5"/>
</g>
</g>
</svg>
