<?xml version="1.0" encoding="UTF-8" standalone="no"?>
<!DOCTYPE svg PUBLIC "-//W3C//DTD SVG 1.1//EN"
 "http://www.w3.org/Graphics/SVG/1.1/DTD/svg11.dtd">
<!-- Generated by graphviz version 2.43.0 (0)
 -->
<!-- Title: Graphical Class Hierarchy Pages: 1 -->
<svg width="579pt" height="218pt"
 viewBox="0.00 0.00 579.00 218.00" xmlns="http://www.w3.org/2000/svg" xmlns:xlink="http://www.w3.org/1999/xlink">
<g id="graph0" class="graph" transform="scale(1 1) rotate(0) translate(4 214)">
<title>Graphical Class Hierarchy</title>
<polygon fill="white" stroke="transparent" points="-4,4 -4,-214 575,-214 575,4 -4,4"/>
<!-- Node331 -->
<g id="node1" class="node">
<title>Node331</title>
<g id="a_node1"><a xlink:href="struct_catch_1_1_i_context.html" target="_top" xlink:title=" ">
<polygon fill="white" stroke="black" points="0,-190.5 0,-209.5 92,-209.5 92,-190.5 0,-190.5"/>
<text text-anchor="middle" x="46" y="-197.5" font-family="Helvetica,sans-Serif" font-size="10.00">Catch::IContext</text>
</a>
</g>
</g>
<!-- Node332 -->
<g id="node2" class="node">
<title>Node332</title>
<g id="a_node2"><a xlink:href="struct_catch_1_1_i_mutable_context.html" target="_top" xlink:title=" ">
<polygon fill="white" stroke="black" points="128,-190.5 128,-209.5 259,-209.5 259,-190.5 128,-190.5"/>
<text text-anchor="middle" x="193.5" y="-197.5" font-family="Helvetica,sans-Serif" font-size="10.00">Catch::IMutableContext</text>
</a>
</g>
</g>
<!-- Node331&#45;&gt;Node332 -->
<g id="edge1" class="edge">
<title>Node331&#45;&gt;Node332</title>
<path fill="none" stroke="midnightblue" d="M102.51,-200C110.77,-200 119.36,-200 127.79,-200"/>
<polygon fill="midnightblue" stroke="midnightblue" points="102.24,-196.5 92.24,-200 102.24,-203.5 102.24,-196.5"/>
</g>
<!-- Node2 -->
<g id="node3" class="node">
<title>Node2</title>
<g id="a_node3"><a xlink:href="class_catch_1_1_context.html" target="_top" xlink:title=" ">
<polygon fill="white" stroke="black" points="330,-190.5 330,-209.5 419,-209.5 419,-190.5 330,-190.5"/>
<text text-anchor="middle" x="374.5" y="-197.5" font-family="Helvetica,sans-Serif" font-size="10.00">Catch::Context</text>
</a>
</g>
</g>
<!-- Node332&#45;&gt;Node2 -->
<g id="edge2" class="edge">
<title>Node332&#45;&gt;Node2</title>
<path fill="none" stroke="midnightblue" d="M269.18,-200C289.88,-200 311.67,-200 329.95,-200"/>
<polygon fill="midnightblue" stroke="midnightblue" points="269.12,-196.5 259.12,-200 269.12,-203.5 269.12,-196.5"/>
</g>
<!-- Node0 -->
<g id="node4" class="node">
<title>Node0</title>
<g id="a_node4"><a xlink:href="class_catch_1_1_non_copyable.html" target="_top" xlink:title=" ">
<polygon fill="white" stroke="black" points="135.5,-95.5 135.5,-114.5 251.5,-114.5 251.5,-95.5 135.5,-95.5"/>
<text text-anchor="middle" x="193.5" y="-102.5" font-family="Helvetica,sans-Serif" font-size="10.00">Catch::NonCopyable</text>
</a>
</g>
</g>
<!-- Node0&#45;&gt;Node2 -->
<g id="edge4" class="edge">
<title>Node0&#45;&gt;Node2</title>
<path fill="none" stroke="#8b1a1a" d="M211.63,-121.51C230.54,-138.85 262.63,-165.66 295,-181 305.77,-186.1 318.04,-189.91 329.63,-192.72"/>
<polygon fill="#8b1a1a" stroke="#8b1a1a" points="213.83,-118.78 204.14,-114.51 209.05,-123.9 213.83,-118.78"/>
</g>
<!-- Node1 -->
<g id="node5" class="node">
<title>Node1</title>
<g id="a_node5"><a xlink:href="struct_catch_1_1_auto_reg.html" target="_top" xlink:title=" ">
<polygon fill="white" stroke="black" points="328.5,-152.5 328.5,-171.5 420.5,-171.5 420.5,-152.5 328.5,-152.5"/>
<text text-anchor="middle" x="374.5" y="-159.5" font-family="Helvetica,sans-Serif" font-size="10.00">Catch::AutoReg</text>
</a>
</g>
</g>
<!-- Node0&#45;&gt;Node1 -->
<g id="edge3" class="edge">
<title>Node0&#45;&gt;Node1</title>
<path fill="none" stroke="midnightblue" d="M226.72,-118.35C246.26,-126.15 271.82,-135.84 295,-143 306.12,-146.43 318.28,-149.64 329.64,-152.4"/>
<polygon fill="midnightblue" stroke="midnightblue" points="227.95,-115.07 217.37,-114.58 225.33,-121.56 227.95,-115.07"/>
</g>
<!-- Node3 -->
<g id="node6" class="node">
<title>Node3</title>
<g id="a_node6"><a xlink:href="struct_catch_1_1_i_config.html" target="_top" xlink:title=" ">
<polygon fill="white" stroke="black" points="332.5,-114.5 332.5,-133.5 416.5,-133.5 416.5,-114.5 332.5,-114.5"/>
<text text-anchor="middle" x="374.5" y="-121.5" font-family="Helvetica,sans-Serif" font-size="10.00">Catch::IConfig</text>
</a>
</g>
</g>
<!-- Node0&#45;&gt;Node3 -->
<g id="edge5" class="edge">
<title>Node0&#45;&gt;Node3</title>
<path fill="none" stroke="midnightblue" d="M261.67,-112.13C285.47,-114.66 311.52,-117.42 332.49,-119.65"/>
<polygon fill="midnightblue" stroke="midnightblue" points="261.94,-108.64 251.63,-111.06 261.2,-115.6 261.94,-108.64"/>
</g>
<!-- Node5 -->
<g id="node8" class="node">
<title>Node5</title>
<g id="a_node8"><a xlink:href="class_catch_1_1_reusable_string_stream.html" target="_top" xlink:title=" ">
<polygon fill="white" stroke="black" points="295,-76.5 295,-95.5 454,-95.5 454,-76.5 295,-76.5"/>
<text text-anchor="middle" x="374.5" y="-83.5" font-family="Helvetica,sans-Serif" font-size="10.00">Catch::ReusableStringStream</text>
</a>
</g>
</g>
<!-- Node0&#45;&gt;Node5 -->
<g id="edge7" class="edge">
<title>Node0&#45;&gt;Node5</title>
<path fill="none" stroke="#8b1a1a" d="M261.77,-97.86C272.53,-96.72 283.73,-95.53 294.72,-94.36"/>
<polygon fill="#8b1a1a" stroke="#8b1a1a" points="261.2,-94.4 251.63,-98.94 261.94,-101.36 261.2,-94.4"/>
</g>
<!-- Node6 -->
<g id="node9" class="node">
<title>Node6</title>
<g id="a_node9"><a xlink:href="class_catch_1_1_section.html" target="_top" xlink:title=" ">
<polygon fill="white" stroke="black" points="331.5,-38.5 331.5,-57.5 417.5,-57.5 417.5,-38.5 331.5,-38.5"/>
<text text-anchor="middle" x="374.5" y="-45.5" font-family="Helvetica,sans-Serif" font-size="10.00">Catch::Section</text>
</a>
</g>
</g>
<!-- Node0&#45;&gt;Node6 -->
<g id="edge8" class="edge">
<title>Node0&#45;&gt;Node6</title>
<path fill="none" stroke="#8b1a1a" d="M226.72,-91.65C246.26,-83.85 271.82,-74.16 295,-67 306.66,-63.4 319.46,-60.05 331.28,-57.2"/>
<polygon fill="#8b1a1a" stroke="#8b1a1a" points="225.33,-88.44 217.37,-95.42 227.95,-94.93 225.33,-88.44"/>
</g>
<!-- Node7 -->
<g id="node10" class="node">
<title>Node7</title>
<g id="a_node10"><a xlink:href="class_catch_1_1_session.html" target="_top" xlink:title=" ">
<polygon fill="white" stroke="black" points="330.5,-0.5 330.5,-19.5 418.5,-19.5 418.5,-0.5 330.5,-0.5"/>
<text text-anchor="middle" x="374.5" y="-7.5" font-family="Helvetica,sans-Serif" font-size="10.00">Catch::Session</text>
</a>
</g>
</g>
<!-- Node0&#45;&gt;Node7 -->
<g id="edge9" class="edge">
<title>Node0&#45;&gt;Node7</title>
<path fill="none" stroke="#8b1a1a" d="M211.63,-88.49C230.54,-71.15 262.63,-44.34 295,-29 306.02,-23.78 318.62,-19.91 330.45,-17.08"/>
<polygon fill="#8b1a1a" stroke="#8b1a1a" points="209.05,-86.1 204.14,-95.49 213.83,-91.22 209.05,-86.1"/>
</g>
<!-- Node4 -->
<g id="node7" class="node">
<title>Node4</title>
<g id="a_node7"><a xlink:href="class_catch_1_1_config.html" target="_top" xlink:title=" ">
<polygon fill="white" stroke="black" points="490,-114.5 490,-133.5 571,-133.5 571,-114.5 490,-114.5"/>
<text text-anchor="middle" x="530.5" y="-121.5" font-family="Helvetica,sans-Serif" font-size="10.00">Catch::Config</text>
</a>
</g>
</g>
<!-- Node3&#45;&gt;Node4 -->
<g id="edge6" class="edge">
<title>Node3&#45;&gt;Node4</title>
<path fill="none" stroke="midnightblue" d="M426.92,-124C447.48,-124 470.78,-124 489.98,-124"/>
<polygon fill="midnightblue" stroke="midnightblue" points="426.77,-120.5 416.77,-124 426.77,-127.5 426.77,-120.5"/>
</g>
</g>
</svg>
