<?xml version="1.0" encoding="UTF-8" standalone="no"?>
<!DOCTYPE svg PUBLIC "-//W3C//DTD SVG 1.1//EN"
 "http://www.w3.org/Graphics/SVG/1.1/DTD/svg11.dtd">
<!-- Generated by graphviz version 2.43.0 (0)
 -->
<!-- Title: Graphical Class Hierarchy Pages: 1 -->
<svg width="594pt" height="247pt"
 viewBox="0.00 0.00 594.00 246.50" xmlns="http://www.w3.org/2000/svg" xmlns:xlink="http://www.w3.org/1999/xlink">
<g id="graph0" class="graph" transform="scale(1 1) rotate(0) translate(4 242.5)">
<title>Graphical Class Hierarchy</title>
<polygon fill="white" stroke="transparent" points="-4,4 -4,-242.5 590,-242.5 590,4 -4,4"/>
<!-- Node0 -->
<g id="node1" class="node">
<title>Node0</title>
<g id="a_node1"><a xlink:href="struct_catch_1_1clara_1_1detail_1_1_non_copyable.html" target="_top" xlink:title=" ">
<polygon fill="white" stroke="black" points="0,-110 0,-140 108,-140 108,-110 0,-110"/>
<text text-anchor="start" x="8" y="-128" font-family="Helvetica,sans-Serif" font-size="10.00">Catch::clara::detail</text>
<text text-anchor="middle" x="54" y="-117" font-family="Helvetica,sans-Serif" font-size="10.00">::NonCopyable</text>
</a>
</g>
</g>
<!-- Node1 -->
<g id="node2" class="node">
<title>Node1</title>
<g id="a_node2"><a xlink:href="struct_catch_1_1clara_1_1detail_1_1_bound_ref.html" target="_top" xlink:title=" ">
<polygon fill="white" stroke="black" points="144,-110 144,-140 252,-140 252,-110 144,-110"/>
<text text-anchor="start" x="152" y="-128" font-family="Helvetica,sans-Serif" font-size="10.00">Catch::clara::detail</text>
<text text-anchor="middle" x="198" y="-117" font-family="Helvetica,sans-Serif" font-size="10.00">::BoundRef</text>
</a>
</g>
</g>
<!-- Node0&#45;&gt;Node1 -->
<g id="edge1" class="edge">
<title>Node0&#45;&gt;Node1</title>
<path fill="none" stroke="midnightblue" d="M118.52,-125C127,-125 135.62,-125 143.89,-125"/>
<polygon fill="midnightblue" stroke="midnightblue" points="118.28,-121.5 108.28,-125 118.28,-128.5 118.28,-121.5"/>
</g>
<!-- Node2 -->
<g id="node3" class="node">
<title>Node2</title>
<g id="a_node3"><a xlink:href="struct_catch_1_1clara_1_1detail_1_1_bound_flag_ref_base.html" target="_top" xlink:title=" ">
<polygon fill="white" stroke="black" points="291,-159 291,-189 406,-189 406,-159 291,-159"/>
<text text-anchor="start" x="299" y="-177" font-family="Helvetica,sans-Serif" font-size="10.00">Catch::clara::detail</text>
<text text-anchor="middle" x="348.5" y="-166" font-family="Helvetica,sans-Serif" font-size="10.00">::BoundFlagRefBase</text>
</a>
</g>
</g>
<!-- Node1&#45;&gt;Node2 -->
<g id="edge2" class="edge">
<title>Node1&#45;&gt;Node2</title>
<path fill="none" stroke="midnightblue" d="M254.34,-143.26C270,-148.43 286.86,-153.99 301.88,-158.95"/>
<polygon fill="midnightblue" stroke="midnightblue" points="255.36,-139.91 244.77,-140.1 253.17,-146.56 255.36,-139.91"/>
</g>
<!-- Node5 -->
<g id="node6" class="node">
<title>Node5</title>
<g id="a_node6"><a xlink:href="struct_catch_1_1clara_1_1detail_1_1_bound_value_ref_base.html" target="_top" xlink:title=" ">
<polygon fill="white" stroke="black" points="288,-86 288,-116 409,-116 409,-86 288,-86"/>
<text text-anchor="start" x="296" y="-104" font-family="Helvetica,sans-Serif" font-size="10.00">Catch::clara::detail</text>
<text text-anchor="middle" x="348.5" y="-93" font-family="Helvetica,sans-Serif" font-size="10.00">::BoundValueRefBase</text>
</a>
</g>
</g>
<!-- Node1&#45;&gt;Node5 -->
<g id="edge5" class="edge">
<title>Node1&#45;&gt;Node5</title>
<path fill="none" stroke="midnightblue" d="M262.1,-114.8C270.65,-113.42 279.39,-112.01 287.87,-110.64"/>
<polygon fill="midnightblue" stroke="midnightblue" points="261.51,-111.35 252.19,-116.4 262.62,-118.26 261.51,-111.35"/>
</g>
<!-- Node3 -->
<g id="node4" class="node">
<title>Node3</title>
<g id="a_node4"><a xlink:href="struct_catch_1_1clara_1_1detail_1_1_bound_flag_lambda.html" target="_top" xlink:title=" ">
<polygon fill="white" stroke="black" points="445,-208 445,-238 586,-238 586,-208 445,-208"/>
<text text-anchor="start" x="453" y="-226" font-family="Helvetica,sans-Serif" font-size="10.00">Catch::clara::detail</text>
<text text-anchor="middle" x="515.5" y="-215" font-family="Helvetica,sans-Serif" font-size="10.00">::BoundFlagLambda&lt; L &gt;</text>
</a>
</g>
</g>
<!-- Node2&#45;&gt;Node3 -->
<g id="edge3" class="edge">
<title>Node2&#45;&gt;Node3</title>
<path fill="none" stroke="midnightblue" d="M410,-191.97C427.68,-197.22 446.81,-202.9 463.82,-207.95"/>
<polygon fill="midnightblue" stroke="midnightblue" points="410.93,-188.59 400.35,-189.1 408.94,-195.3 410.93,-188.59"/>
</g>
<!-- Node4 -->
<g id="node5" class="node">
<title>Node4</title>
<g id="a_node5"><a xlink:href="struct_catch_1_1clara_1_1detail_1_1_bound_flag_ref.html" target="_top" xlink:title=" ">
<polygon fill="white" stroke="black" points="461.5,-159 461.5,-189 569.5,-189 569.5,-159 461.5,-159"/>
<text text-anchor="start" x="469.5" y="-177" font-family="Helvetica,sans-Serif" font-size="10.00">Catch::clara::detail</text>
<text text-anchor="middle" x="515.5" y="-166" font-family="Helvetica,sans-Serif" font-size="10.00">::BoundFlagRef</text>
</a>
</g>
</g>
<!-- Node2&#45;&gt;Node4 -->
<g id="edge4" class="edge">
<title>Node2&#45;&gt;Node4</title>
<path fill="none" stroke="midnightblue" d="M416.52,-174C431.49,-174 447.18,-174 461.5,-174"/>
<polygon fill="midnightblue" stroke="midnightblue" points="416.28,-170.5 406.28,-174 416.28,-177.5 416.28,-170.5"/>
</g>
<!-- Node6 -->
<g id="node7" class="node">
<title>Node6</title>
<g id="a_node7"><a xlink:href="struct_catch_1_1clara_1_1detail_1_1_bound_lambda.html" target="_top" xlink:title=" ">
<polygon fill="white" stroke="black" points="455.5,-110 455.5,-140 575.5,-140 575.5,-110 455.5,-110"/>
<text text-anchor="start" x="463.5" y="-128" font-family="Helvetica,sans-Serif" font-size="10.00">Catch::clara::detail</text>
<text text-anchor="middle" x="515.5" y="-117" font-family="Helvetica,sans-Serif" font-size="10.00">::BoundLambda&lt; L &gt;</text>
</a>
</g>
</g>
<!-- Node5&#45;&gt;Node6 -->
<g id="edge6" class="edge">
<title>Node5&#45;&gt;Node6</title>
<path fill="none" stroke="midnightblue" d="M419.08,-111.12C431.13,-112.87 443.55,-114.68 455.3,-116.39"/>
<polygon fill="midnightblue" stroke="midnightblue" points="419.47,-107.64 409.07,-109.66 418.46,-114.57 419.47,-107.64"/>
</g>
<!-- Node7 -->
<g id="node8" class="node">
<title>Node7</title>
<g id="a_node8"><a xlink:href="struct_catch_1_1clara_1_1detail_1_1_bound_value_ref.html" target="_top" xlink:title=" ">
<polygon fill="white" stroke="black" points="453,-61 453,-91 578,-91 578,-61 453,-61"/>
<text text-anchor="start" x="461" y="-79" font-family="Helvetica,sans-Serif" font-size="10.00">Catch::clara::detail</text>
<text text-anchor="middle" x="515.5" y="-68" font-family="Helvetica,sans-Serif" font-size="10.00">::BoundValueRef&lt; T &gt;</text>
</a>
</g>
</g>
<!-- Node5&#45;&gt;Node7 -->
<g id="edge7" class="edge">
<title>Node5&#45;&gt;Node7</title>
<path fill="none" stroke="midnightblue" d="M419.2,-90.44C430.36,-88.75 441.84,-87.01 452.8,-85.35"/>
<polygon fill="midnightblue" stroke="midnightblue" points="418.43,-87.02 409.07,-91.97 419.48,-93.94 418.43,-87.02"/>
</g>
<!-- Node8 -->
<g id="node9" class="node">
<title>Node8</title>
<g id="a_node9"><a xlink:href="struct_catch_1_1clara_1_1detail_1_1_bound_value_ref_3_01std_1_1vector_3_01_t_01_4_01_4.html" target="_top" xlink:title=" ">
<polygon fill="white" stroke="black" points="454,-0.5 454,-41.5 577,-41.5 577,-0.5 454,-0.5"/>
<text text-anchor="start" x="462" y="-29.5" font-family="Helvetica,sans-Serif" font-size="10.00">Catch::clara::detail</text>
<text text-anchor="start" x="462" y="-18.5" font-family="Helvetica,sans-Serif" font-size="10.00">::BoundValueRef&lt; std</text>
<text text-anchor="middle" x="515.5" y="-7.5" font-family="Helvetica,sans-Serif" font-size="10.00">::vector&lt; T &gt; &gt;</text>
</a>
</g>
</g>
<!-- Node5&#45;&gt;Node8 -->
<g id="edge8" class="edge">
<title>Node5&#45;&gt;Node8</title>
<path fill="none" stroke="midnightblue" d="M386.06,-81.04C403.71,-71.61 425.29,-60.4 445,-51 451.64,-47.83 458.71,-44.62 465.69,-41.52"/>
<polygon fill="midnightblue" stroke="midnightblue" points="384.37,-77.97 377.22,-85.79 387.69,-84.14 384.37,-77.97"/>
</g>
</g>
</svg>
