<?xml version="1.0" encoding="UTF-8" standalone="no"?>
<!DOCTYPE svg PUBLIC "-//W3C//DTD SVG 1.1//EN"
 "http://www.w3.org/Graphics/SVG/1.1/DTD/svg11.dtd">
<!-- Generated by graphviz version 2.43.0 (0)
 -->
<!-- Title: Graphical Class Hierarchy Pages: 1 -->
<svg width="337pt" height="104pt"
 viewBox="0.00 0.00 337.00 104.00" xmlns="http://www.w3.org/2000/svg" xmlns:xlink="http://www.w3.org/1999/xlink">
<g id="graph0" class="graph" transform="scale(1 1) rotate(0) translate(4 100)">
<title>Graphical Class Hierarchy</title>
<polygon fill="white" stroke="transparent" points="-4,4 -4,-100 333,-100 333,4 -4,4"/>
<!-- Node0 -->
<g id="node1" class="node">
<title>Node0</title>
<g id="a_node1"><a xlink:href="struct_catch_1_1_i_test_invoker.html" target="_top" xlink:title=" ">
<polygon fill="white" stroke="black" points="0,-38.5 0,-57.5 109,-57.5 109,-38.5 0,-38.5"/>
<text text-anchor="middle" x="54.5" y="-45.5" font-family="Helvetica,sans-Serif" font-size="10.00">Catch::ITestInvoker</text>
</a>
</g>
</g>
<!-- Node1 -->
<g id="node2" class="node">
<title>Node1</title>
<g id="a_node2"><a xlink:href="class_catch_1_1_oc_method.html" target="_top" xlink:title=" ">
<polygon fill="white" stroke="black" points="187,-76.5 187,-95.5 287,-95.5 287,-76.5 187,-76.5"/>
<text text-anchor="middle" x="237" y="-83.5" font-family="Helvetica,sans-Serif" font-size="10.00">Catch::OcMethod</text>
</a>
</g>
</g>
<!-- Node0&#45;&gt;Node1 -->
<g id="edge1" class="edge">
<title>Node0&#45;&gt;Node1</title>
<path fill="none" stroke="midnightblue" d="M110.06,-59.61C121.6,-62.06 133.7,-64.62 145,-67 159.69,-70.09 175.71,-73.45 190.17,-76.46"/>
<polygon fill="midnightblue" stroke="midnightblue" points="110.62,-56.15 100.11,-57.5 109.16,-63 110.62,-56.15"/>
</g>
<!-- Node2 -->
<g id="node3" class="node">
<title>Node2</title>
<g id="a_node3"><a xlink:href="class_catch_1_1_test_invoker_as_function.html" target="_top" xlink:title=" ">
<polygon fill="white" stroke="black" points="157.5,-38.5 157.5,-57.5 316.5,-57.5 316.5,-38.5 157.5,-38.5"/>
<text text-anchor="middle" x="237" y="-45.5" font-family="Helvetica,sans-Serif" font-size="10.00">Catch::TestInvokerAsFunction</text>
</a>
</g>
</g>
<!-- Node0&#45;&gt;Node2 -->
<g id="edge2" class="edge">
<title>Node0&#45;&gt;Node2</title>
<path fill="none" stroke="midnightblue" d="M119.34,-48C131.68,-48 144.74,-48 157.48,-48"/>
<polygon fill="midnightblue" stroke="midnightblue" points="119.17,-44.5 109.17,-48 119.17,-51.5 119.17,-44.5"/>
</g>
<!-- Node3 -->
<g id="node4" class="node">
<title>Node3</title>
<g id="a_node4"><a xlink:href="class_catch_1_1_test_invoker_as_method.html" target="_top" xlink:title=" ">
<polygon fill="white" stroke="black" points="145,-0.5 145,-19.5 329,-19.5 329,-0.5 145,-0.5"/>
<text text-anchor="middle" x="237" y="-7.5" font-family="Helvetica,sans-Serif" font-size="10.00">Catch::TestInvokerAsMethod&lt; C &gt;</text>
</a>
</g>
</g>
<!-- Node0&#45;&gt;Node3 -->
<g id="edge3" class="edge">
<title>Node0&#45;&gt;Node3</title>
<path fill="none" stroke="midnightblue" d="M110.06,-36.39C121.6,-33.94 133.7,-31.38 145,-29 159.69,-25.91 175.71,-22.55 190.17,-19.54"/>
<polygon fill="midnightblue" stroke="midnightblue" points="109.16,-33 100.11,-38.5 110.62,-39.85 109.16,-33"/>
</g>
</g>
</svg>
