<?xml version="1.0" encoding="UTF-8" standalone="no"?>
<!DOCTYPE svg PUBLIC "-//W3C//DTD SVG 1.1//EN"
 "http://www.w3.org/Graphics/SVG/1.1/DTD/svg11.dtd">
<!-- Generated by graphviz version 2.43.0 (0)
 -->
<!-- Title: Graphical Class Hierarchy Pages: 1 -->
<svg width="485pt" height="88pt"
 viewBox="0.00 0.00 485.00 88.00" xmlns="http://www.w3.org/2000/svg" xmlns:xlink="http://www.w3.org/1999/xlink">
<g id="graph0" class="graph" transform="scale(1 1) rotate(0) translate(4 84)">
<title>Graphical Class Hierarchy</title>
<polygon fill="white" stroke="transparent" points="-4,4 -4,-84 481,-84 481,4 -4,4"/>
<!-- Node327 -->
<g id="node1" class="node">
<title>Node327</title>
<g id="a_node1"><a xlink:href="struct_catch_1_1_i_generator_tracker.html" target="_top" xlink:title=" ">
<polygon fill="white" stroke="black" points="170,-55 170,-74 307,-74 307,-55 170,-55"/>
<text text-anchor="middle" x="238.5" y="-62" font-family="Helvetica,sans-Serif" font-size="10.00">Catch::IGeneratorTracker</text>
</a>
</g>
</g>
<!-- Node2 -->
<g id="node2" class="node">
<title>Node2</title>
<g id="a_node2"><a xlink:href="struct_catch_1_1_generators_1_1_generator_tracker.html" target="_top" xlink:title=" ">
<polygon fill="white" stroke="black" points="355,-49.5 355,-79.5 465,-79.5 465,-49.5 355,-49.5"/>
<text text-anchor="start" x="363" y="-67.5" font-family="Helvetica,sans-Serif" font-size="10.00">Catch::Generators::</text>
<text text-anchor="middle" x="410" y="-56.5" font-family="Helvetica,sans-Serif" font-size="10.00">GeneratorTracker</text>
</a>
</g>
</g>
<!-- Node327&#45;&gt;Node2 -->
<g id="edge1" class="edge">
<title>Node327&#45;&gt;Node2</title>
<path fill="none" stroke="midnightblue" d="M317.52,-64.5C330.13,-64.5 342.95,-64.5 354.84,-64.5"/>
<polygon fill="midnightblue" stroke="midnightblue" points="317.47,-61 307.47,-64.5 317.47,-68 317.47,-61"/>
</g>
<!-- Node0 -->
<g id="node3" class="node">
<title>Node0</title>
<g id="a_node3"><a xlink:href="class_catch_1_1_test_case_tracking_1_1_i_tracker.html" target="_top" xlink:title=" ">
<polygon fill="white" stroke="black" points="0,-3.5 0,-33.5 134,-33.5 134,-3.5 0,-3.5"/>
<text text-anchor="start" x="8" y="-21.5" font-family="Helvetica,sans-Serif" font-size="10.00">Catch::TestCaseTracking</text>
<text text-anchor="middle" x="67" y="-10.5" font-family="Helvetica,sans-Serif" font-size="10.00">::ITracker</text>
</a>
</g>
</g>
<!-- Node1 -->
<g id="node4" class="node">
<title>Node1</title>
<g id="a_node4"><a xlink:href="class_catch_1_1_test_case_tracking_1_1_tracker_base.html" target="_top" xlink:title=" ">
<polygon fill="white" stroke="black" points="171.5,-3.5 171.5,-33.5 305.5,-33.5 305.5,-3.5 171.5,-3.5"/>
<text text-anchor="start" x="179.5" y="-21.5" font-family="Helvetica,sans-Serif" font-size="10.00">Catch::TestCaseTracking</text>
<text text-anchor="middle" x="238.5" y="-10.5" font-family="Helvetica,sans-Serif" font-size="10.00">::TrackerBase</text>
</a>
</g>
</g>
<!-- Node0&#45;&gt;Node1 -->
<g id="edge2" class="edge">
<title>Node0&#45;&gt;Node1</title>
<path fill="none" stroke="midnightblue" d="M144.18,-18.5C153.26,-18.5 162.47,-18.5 171.38,-18.5"/>
<polygon fill="midnightblue" stroke="midnightblue" points="144.02,-15 134.02,-18.5 144.02,-22 144.02,-15"/>
</g>
<!-- Node1&#45;&gt;Node2 -->
<g id="edge3" class="edge">
<title>Node1&#45;&gt;Node2</title>
<path fill="none" stroke="midnightblue" d="M305.09,-36.3C321.53,-40.76 339,-45.5 354.82,-49.8"/>
<polygon fill="midnightblue" stroke="midnightblue" points="305.57,-32.8 295,-33.56 303.73,-39.56 305.57,-32.8"/>
</g>
<!-- Node3 -->
<g id="node5" class="node">
<title>Node3</title>
<g id="a_node5"><a xlink:href="class_catch_1_1_test_case_tracking_1_1_section_tracker.html" target="_top" xlink:title=" ">
<polygon fill="white" stroke="black" points="343,-0.5 343,-30.5 477,-30.5 477,-0.5 343,-0.5"/>
<text text-anchor="start" x="351" y="-18.5" font-family="Helvetica,sans-Serif" font-size="10.00">Catch::TestCaseTracking</text>
<text text-anchor="middle" x="410" y="-7.5" font-family="Helvetica,sans-Serif" font-size="10.00">::SectionTracker</text>
</a>
</g>
</g>
<!-- Node1&#45;&gt;Node3 -->
<g id="edge4" class="edge">
<title>Node1&#45;&gt;Node3</title>
<path fill="none" stroke="midnightblue" d="M315.68,-17.15C324.76,-16.99 333.97,-16.83 342.88,-16.67"/>
<polygon fill="midnightblue" stroke="midnightblue" points="315.45,-13.66 305.52,-17.33 315.58,-20.65 315.45,-13.66"/>
</g>
</g>
</svg>
