<?xml version="1.0" encoding="UTF-8" standalone="no"?>
<!DOCTYPE svg PUBLIC "-//W3C//DTD SVG 1.1//EN"
 "http://www.w3.org/Graphics/SVG/1.1/DTD/svg11.dtd">
<!-- Generated by graphviz version 2.43.0 (0)
 -->
<!-- Title: Graphical Class Hierarchy Pages: 1 -->
<svg width="316pt" height="446pt"
 viewBox="0.00 0.00 316.00 446.00" xmlns="http://www.w3.org/2000/svg" xmlns:xlink="http://www.w3.org/1999/xlink">
<g id="graph0" class="graph" transform="scale(1 1) rotate(0) translate(4 442)">
<title>Graphical Class Hierarchy</title>
<polygon fill="white" stroke="transparent" points="-4,4 -4,-442 312,-442 312,4 -4,4"/>
<!-- Node296 -->
<g id="node1" class="node">
<title>Node296</title>
<g id="a_node1"><a xlink:href="class_i_statment.html" target="_top" xlink:title="Base class for all possible statments in the language.">
<polygon fill="white" stroke="black" points="0,-209.5 0,-228.5 65,-228.5 65,-209.5 0,-209.5"/>
<text text-anchor="middle" x="32.5" y="-216.5" font-family="Helvetica,sans-Serif" font-size="10.00">IStatment</text>
</a>
</g>
</g>
<!-- Node297 -->
<g id="node2" class="node">
<title>Node297</title>
<g id="a_node2"><a xlink:href="class_bind_def.html" target="_top" xlink:title="Variable binding statment.">
<polygon fill="white" stroke="black" points="115.5,-266.5 115.5,-285.5 171.5,-285.5 171.5,-266.5 115.5,-266.5"/>
<text text-anchor="middle" x="143.5" y="-273.5" font-family="Helvetica,sans-Serif" font-size="10.00">BindDef</text>
</a>
</g>
</g>
<!-- Node296&#45;&gt;Node297 -->
<g id="edge1" class="edge">
<title>Node296&#45;&gt;Node297</title>
<path fill="none" stroke="midnightblue" d="M58.64,-233.81C71.22,-241.05 86.77,-249.75 101,-257 107.35,-260.24 114.37,-263.55 120.8,-266.48"/>
<polygon fill="midnightblue" stroke="midnightblue" points="60.07,-230.59 49.66,-228.6 56.55,-236.65 60.07,-230.59"/>
</g>
<!-- Node298 -->
<g id="node3" class="node">
<title>Node298</title>
<g id="a_node3"><a xlink:href="class_binding_usage.html" target="_top" xlink:title="Variable binding usage Value can be assigned to variable.">
<polygon fill="white" stroke="black" points="101.5,-228.5 101.5,-247.5 185.5,-247.5 185.5,-228.5 101.5,-228.5"/>
<text text-anchor="middle" x="143.5" y="-235.5" font-family="Helvetica,sans-Serif" font-size="10.00">BindingUsage</text>
</a>
</g>
</g>
<!-- Node296&#45;&gt;Node298 -->
<g id="edge2" class="edge">
<title>Node296&#45;&gt;Node298</title>
<path fill="none" stroke="midnightblue" d="M74.9,-226.22C83.55,-227.72 92.66,-229.31 101.3,-230.82"/>
<polygon fill="midnightblue" stroke="midnightblue" points="75.48,-222.76 65.03,-224.5 74.28,-229.66 75.48,-222.76"/>
</g>
<!-- Node299 -->
<g id="node4" class="node">
<title>Node299</title>
<g id="a_node4"><a xlink:href="class_block.html" target="_top" xlink:title="Code blocks &#45; scopes Always evaluate to the last statment in them for example:">
<polygon fill="white" stroke="black" points="121.5,-190.5 121.5,-209.5 165.5,-209.5 165.5,-190.5 121.5,-190.5"/>
<text text-anchor="middle" x="143.5" y="-197.5" font-family="Helvetica,sans-Serif" font-size="10.00">Block</text>
</a>
</g>
</g>
<!-- Node296&#45;&gt;Node299 -->
<g id="edge3" class="edge">
<title>Node296&#45;&gt;Node299</title>
<path fill="none" stroke="midnightblue" d="M75.13,-211.74C90.93,-208.99 108.26,-205.97 121.39,-203.68"/>
<polygon fill="midnightblue" stroke="midnightblue" points="74.28,-208.34 65.03,-213.5 75.48,-215.24 74.28,-208.34"/>
</g>
<!-- Node300 -->
<g id="node5" class="node">
<title>Node300</title>
<g id="a_node5"><a xlink:href="class_conditional.html" target="_top" xlink:title="Conditional statments (if, else statments)">
<polygon fill="white" stroke="black" points="107.5,-152.5 107.5,-171.5 179.5,-171.5 179.5,-152.5 107.5,-152.5"/>
<text text-anchor="middle" x="143.5" y="-159.5" font-family="Helvetica,sans-Serif" font-size="10.00">Conditional</text>
</a>
</g>
</g>
<!-- Node296&#45;&gt;Node300 -->
<g id="edge4" class="edge">
<title>Node296&#45;&gt;Node300</title>
<path fill="none" stroke="midnightblue" d="M58.64,-204.19C71.22,-196.95 86.77,-188.25 101,-181 107.35,-177.76 114.37,-174.45 120.8,-171.52"/>
<polygon fill="midnightblue" stroke="midnightblue" points="56.55,-201.35 49.66,-209.4 60.07,-207.41 56.55,-201.35"/>
</g>
<!-- Node1 -->
<g id="node6" class="node">
<title>Node1</title>
<g id="a_node6"><a xlink:href="class_error_statment.html" target="_top" xlink:title="Error value created when there is an error while evaluation.">
<polygon fill="white" stroke="black" points="101,-38.5 101,-57.5 186,-57.5 186,-38.5 101,-38.5"/>
<text text-anchor="middle" x="143.5" y="-45.5" font-family="Helvetica,sans-Serif" font-size="10.00">ErrorStatment</text>
</a>
</g>
</g>
<!-- Node296&#45;&gt;Node1 -->
<g id="edge5" class="edge">
<title>Node296&#45;&gt;Node1</title>
<path fill="none" stroke="midnightblue" d="M37.5,-199.3C44.87,-167.62 63.39,-105.04 101,-67 104.68,-63.28 109.22,-60.22 113.93,-57.72"/>
<polygon fill="midnightblue" stroke="midnightblue" points="33.99,-198.96 35.28,-209.48 40.83,-200.46 33.99,-198.96"/>
</g>
<!-- Node301 -->
<g id="node7" class="node">
<title>Node301</title>
<g id="a_node7"><a xlink:href="class_func_call.html" target="_top" xlink:title=" ">
<polygon fill="white" stroke="black" points="114.5,-418.5 114.5,-437.5 172.5,-437.5 172.5,-418.5 114.5,-418.5"/>
<text text-anchor="middle" x="143.5" y="-425.5" font-family="Helvetica,sans-Serif" font-size="10.00">FuncCall</text>
</a>
</g>
</g>
<!-- Node296&#45;&gt;Node301 -->
<g id="edge6" class="edge">
<title>Node296&#45;&gt;Node301</title>
<path fill="none" stroke="midnightblue" d="M35.46,-238.79C40.17,-276.46 55.37,-359.16 101,-409 104.64,-412.97 109.27,-416.18 114.12,-418.74"/>
<polygon fill="midnightblue" stroke="midnightblue" points="38.91,-238.17 34.31,-228.63 31.96,-238.96 38.91,-238.17"/>
</g>
<!-- Node302 -->
<g id="node8" class="node">
<title>Node302</title>
<g id="a_node8"><a xlink:href="class_func_def.html" target="_top" xlink:title="Function definitions.">
<polygon fill="white" stroke="black" points="115.5,-380.5 115.5,-399.5 171.5,-399.5 171.5,-380.5 115.5,-380.5"/>
<text text-anchor="middle" x="143.5" y="-387.5" font-family="Helvetica,sans-Serif" font-size="10.00">FuncDef</text>
</a>
</g>
</g>
<!-- Node296&#45;&gt;Node302 -->
<g id="edge7" class="edge">
<title>Node296&#45;&gt;Node302</title>
<path fill="none" stroke="midnightblue" d="M37.5,-238.7C44.87,-270.38 63.39,-332.96 101,-371 105.01,-375.06 110.05,-378.34 115.22,-380.95"/>
<polygon fill="midnightblue" stroke="midnightblue" points="40.83,-237.54 35.28,-228.52 33.99,-239.04 40.83,-237.54"/>
</g>
<!-- Node303 -->
<g id="node9" class="node">
<title>Node303</title>
<g id="a_node9"><a xlink:href="class_i_expr.html" target="_top" xlink:title="IExpr Base class for expressions.">
<polygon fill="white" stroke="black" points="123,-342.5 123,-361.5 164,-361.5 164,-342.5 123,-342.5"/>
<text text-anchor="middle" x="143.5" y="-349.5" font-family="Helvetica,sans-Serif" font-size="10.00">IExpr</text>
</a>
</g>
</g>
<!-- Node296&#45;&gt;Node303 -->
<g id="edge8" class="edge">
<title>Node296&#45;&gt;Node303</title>
<path fill="none" stroke="midnightblue" d="M40.51,-237.93C50.52,-262.69 71.08,-306.07 101,-333 107.24,-338.62 115.43,-342.84 122.88,-345.86"/>
<polygon fill="midnightblue" stroke="midnightblue" points="43.75,-236.61 36.87,-228.56 37.23,-239.15 43.75,-236.61"/>
</g>
<!-- Node307 -->
<g id="node13" class="node">
<title>Node307</title>
<g id="a_node13"><a xlink:href="class_loop.html" target="_top" xlink:title="While loop statments.">
<polygon fill="white" stroke="black" points="123.5,-304.5 123.5,-323.5 163.5,-323.5 163.5,-304.5 123.5,-304.5"/>
<text text-anchor="middle" x="143.5" y="-311.5" font-family="Helvetica,sans-Serif" font-size="10.00">Loop</text>
</a>
</g>
</g>
<!-- Node296&#45;&gt;Node307 -->
<g id="edge12" class="edge">
<title>Node296&#45;&gt;Node307</title>
<path fill="none" stroke="midnightblue" d="M46,-236.93C58.4,-253.69 78.74,-278.53 101,-295 107.75,-300 116.03,-304.11 123.41,-307.22"/>
<polygon fill="midnightblue" stroke="midnightblue" points="48.65,-234.63 39.96,-228.56 42.97,-238.72 48.65,-234.63"/>
</g>
<!-- Node2 -->
<g id="node14" class="node">
<title>Node2</title>
<g id="a_node14"><a xlink:href="class_matrix.html" target="_top" xlink:title=" ">
<polygon fill="white" stroke="black" points="119.5,-0.5 119.5,-19.5 167.5,-19.5 167.5,-0.5 119.5,-0.5"/>
<text text-anchor="middle" x="143.5" y="-7.5" font-family="Helvetica,sans-Serif" font-size="10.00">Matrix</text>
</a>
</g>
</g>
<!-- Node296&#45;&gt;Node2 -->
<g id="edge13" class="edge">
<title>Node296&#45;&gt;Node2</title>
<path fill="none" stroke="midnightblue" d="M35.46,-199.21C40.17,-161.54 55.37,-78.84 101,-29 105.92,-23.62 112.67,-19.66 119.29,-16.78"/>
<polygon fill="midnightblue" stroke="midnightblue" points="31.96,-199.04 34.31,-209.37 38.91,-199.83 31.96,-199.04"/>
</g>
<!-- Node3 -->
<g id="node15" class="node">
<title>Node3</title>
<g id="a_node15"><a xlink:href="class_null.html" target="_top" xlink:title="Null value.">
<polygon fill="white" stroke="black" points="125.5,-114.5 125.5,-133.5 161.5,-133.5 161.5,-114.5 125.5,-114.5"/>
<text text-anchor="middle" x="143.5" y="-121.5" font-family="Helvetica,sans-Serif" font-size="10.00">Null</text>
</a>
</g>
</g>
<!-- Node296&#45;&gt;Node3 -->
<g id="edge14" class="edge">
<title>Node296&#45;&gt;Node3</title>
<path fill="none" stroke="midnightblue" d="M46,-201.07C58.4,-184.31 78.74,-159.47 101,-143 108.39,-137.53 117.6,-133.12 125.47,-129.93"/>
<polygon fill="midnightblue" stroke="midnightblue" points="42.97,-199.28 39.96,-209.44 48.65,-203.37 42.97,-199.28"/>
</g>
<!-- Node4 -->
<g id="node16" class="node">
<title>Node4</title>
<g id="a_node16"><a xlink:href="class_number.html" target="_top" xlink:title="Repersentation of a number in whole language.">
<polygon fill="white" stroke="black" points="115.5,-76.5 115.5,-95.5 171.5,-95.5 171.5,-76.5 115.5,-76.5"/>
<text text-anchor="middle" x="143.5" y="-83.5" font-family="Helvetica,sans-Serif" font-size="10.00">Number</text>
</a>
</g>
</g>
<!-- Node296&#45;&gt;Node4 -->
<g id="edge15" class="edge">
<title>Node296&#45;&gt;Node4</title>
<path fill="none" stroke="midnightblue" d="M40.51,-200.07C50.52,-175.31 71.08,-131.93 101,-105 105.12,-101.29 110.09,-98.19 115.14,-95.64"/>
<polygon fill="midnightblue" stroke="midnightblue" points="37.23,-198.85 36.87,-209.44 43.75,-201.39 37.23,-198.85"/>
</g>
<!-- Node304 -->
<g id="node10" class="node">
<title>Node304</title>
<g id="a_node10"><a xlink:href="class_expr_number.html" target="_top" xlink:title="Literal numeric expression.">
<polygon fill="white" stroke="black" points="226.5,-380.5 226.5,-399.5 303.5,-399.5 303.5,-380.5 226.5,-380.5"/>
<text text-anchor="middle" x="265" y="-387.5" font-family="Helvetica,sans-Serif" font-size="10.00">ExprNumber</text>
</a>
</g>
</g>
<!-- Node303&#45;&gt;Node304 -->
<g id="edge9" class="edge">
<title>Node303&#45;&gt;Node304</title>
<path fill="none" stroke="midnightblue" d="M173.78,-361.31C192.05,-367.12 215.51,-374.58 233.93,-380.44"/>
<polygon fill="midnightblue" stroke="midnightblue" points="174.82,-357.97 164.23,-358.27 172.7,-364.64 174.82,-357.97"/>
</g>
<!-- Node305 -->
<g id="node11" class="node">
<title>Node305</title>
<g id="a_node11"><a xlink:href="class_expr_operation.html" target="_top" xlink:title="Mathematical operation (+, &#45;, ==, ...)">
<polygon fill="white" stroke="black" points="222,-342.5 222,-361.5 308,-361.5 308,-342.5 222,-342.5"/>
<text text-anchor="middle" x="265" y="-349.5" font-family="Helvetica,sans-Serif" font-size="10.00">ExprOperation</text>
</a>
</g>
</g>
<!-- Node303&#45;&gt;Node305 -->
<g id="edge10" class="edge">
<title>Node303&#45;&gt;Node305</title>
<path fill="none" stroke="midnightblue" d="M174.52,-352C188.87,-352 206.28,-352 221.92,-352"/>
<polygon fill="midnightblue" stroke="midnightblue" points="174.23,-348.5 164.23,-352 174.23,-355.5 174.23,-348.5"/>
</g>
<!-- Node306 -->
<g id="node12" class="node">
<title>Node306</title>
<g id="a_node12"><a xlink:href="class_expr_variable.html" target="_top" xlink:title="Usage of existing variable.">
<polygon fill="white" stroke="black" points="226,-304.5 226,-323.5 304,-323.5 304,-304.5 226,-304.5"/>
<text text-anchor="middle" x="265" y="-311.5" font-family="Helvetica,sans-Serif" font-size="10.00">ExprVariable</text>
</a>
</g>
</g>
<!-- Node303&#45;&gt;Node306 -->
<g id="edge11" class="edge">
<title>Node303&#45;&gt;Node306</title>
<path fill="none" stroke="midnightblue" d="M173.78,-342.69C192.05,-336.88 215.51,-329.42 233.93,-323.56"/>
<polygon fill="midnightblue" stroke="midnightblue" points="172.7,-339.36 164.23,-345.73 174.82,-346.03 172.7,-339.36"/>
</g>
<!-- Node0 -->
<g id="node17" class="node">
<title>Node0</title>
<g id="a_node17"><a xlink:href="class_i_value.html" target="_top" xlink:title="Base class for all possible evaluation results.">
<polygon fill="white" stroke="black" points="9,-57.5 9,-76.5 56,-76.5 56,-57.5 9,-57.5"/>
<text text-anchor="middle" x="32.5" y="-64.5" font-family="Helvetica,sans-Serif" font-size="10.00">IValue</text>
</a>
</g>
</g>
<!-- Node0&#45;&gt;Node1 -->
<g id="edge16" class="edge">
<title>Node0&#45;&gt;Node1</title>
<path fill="none" stroke="midnightblue" d="M65.99,-61.34C76.84,-59.45 89.09,-57.31 100.56,-55.31"/>
<polygon fill="midnightblue" stroke="midnightblue" points="65.34,-57.9 56.08,-63.06 66.54,-64.79 65.34,-57.9"/>
</g>
<!-- Node0&#45;&gt;Node2 -->
<g id="edge17" class="edge">
<title>Node0&#45;&gt;Node2</title>
<path fill="none" stroke="midnightblue" d="M58.64,-52.19C71.22,-44.95 86.77,-36.25 101,-29 107.35,-25.76 114.37,-22.45 120.8,-19.52"/>
<polygon fill="midnightblue" stroke="midnightblue" points="56.55,-49.35 49.66,-57.4 60.07,-55.41 56.55,-49.35"/>
</g>
<!-- Node0&#45;&gt;Node3 -->
<g id="edge18" class="edge">
<title>Node0&#45;&gt;Node3</title>
<path fill="none" stroke="midnightblue" d="M58.64,-81.81C71.22,-89.05 86.77,-97.75 101,-105 108.91,-109.03 117.84,-113.17 125.39,-116.55"/>
<polygon fill="midnightblue" stroke="midnightblue" points="60.07,-78.59 49.66,-76.6 56.55,-84.65 60.07,-78.59"/>
</g>
<!-- Node0&#45;&gt;Node4 -->
<g id="edge19" class="edge">
<title>Node0&#45;&gt;Node4</title>
<path fill="none" stroke="midnightblue" d="M66.38,-72.73C82.01,-75.46 100.48,-78.68 115.32,-81.26"/>
<polygon fill="midnightblue" stroke="midnightblue" points="66.54,-69.21 56.08,-70.94 65.34,-76.1 66.54,-69.21"/>
</g>
</g>
</svg>
