<?xml version="1.0" encoding="UTF-8" standalone="no"?>
<!DOCTYPE svg PUBLIC "-//W3C//DTD SVG 1.1//EN"
 "http://www.w3.org/Graphics/SVG/1.1/DTD/svg11.dtd">
<!-- Generated by graphviz version 2.43.0 (0)
 -->
<!-- Title: Graphical Class Hierarchy Pages: 1 -->
<svg width="824pt" height="382pt"
 viewBox="0.00 0.00 824.00 381.50" xmlns="http://www.w3.org/2000/svg" xmlns:xlink="http://www.w3.org/1999/xlink">
<g id="graph0" class="graph" transform="scale(1 1) rotate(0) translate(4 377.5)">
<title>Graphical Class Hierarchy</title>
<polygon fill="white" stroke="transparent" points="-4,4 -4,-377.5 820,-377.5 820,4 -4,4"/>
<!-- Node140 -->
<g id="node1" class="node">
<title>Node140</title>
<g id="a_node1"><a xlink:href="classclara_1_1detail_1_1_parser_base.html" target="_top" xlink:title=" ">
<polygon fill="white" stroke="black" points="0,-255 0,-274 134,-274 134,-255 0,-255"/>
<text text-anchor="middle" x="67" y="-262" font-family="Helvetica,sans-Serif" font-size="10.00">clara::detail::ParserBase</text>
</a>
</g>
</g>
<!-- Node141 -->
<g id="node2" class="node">
<title>Node141</title>
<g id="a_node2"><a xlink:href="classclara_1_1detail_1_1_composable_parser_impl.html" target="_top" xlink:title=" ">
<polygon fill="white" stroke="black" points="170,-304.5 170,-334.5 311,-334.5 311,-304.5 170,-304.5"/>
<text text-anchor="start" x="178" y="-322.5" font-family="Helvetica,sans-Serif" font-size="10.00">clara::detail::Composable</text>
<text text-anchor="middle" x="240.5" y="-311.5" font-family="Helvetica,sans-Serif" font-size="10.00">ParserImpl&lt; DerivedT &gt;</text>
</a>
</g>
</g>
<!-- Node140&#45;&gt;Node141 -->
<g id="edge1" class="edge">
<title>Node140&#45;&gt;Node141</title>
<path fill="none" stroke="midnightblue" d="M107.52,-277.17C132.85,-285.3 165.86,-295.88 192.52,-304.43"/>
<polygon fill="midnightblue" stroke="midnightblue" points="108.46,-273.8 97.87,-274.08 106.33,-280.47 108.46,-273.8"/>
</g>
<!-- Node143 -->
<g id="node4" class="node">
<title>Node143</title>
<g id="a_node4"><a xlink:href="structclara_1_1detail_1_1_parser.html" target="_top" xlink:title=" ">
<polygon fill="white" stroke="black" points="185.5,-354 185.5,-373 295.5,-373 295.5,-354 185.5,-354"/>
<text text-anchor="middle" x="240.5" y="-361" font-family="Helvetica,sans-Serif" font-size="10.00">clara::detail::Parser</text>
</a>
</g>
</g>
<!-- Node140&#45;&gt;Node143 -->
<g id="edge3" class="edge">
<title>Node140&#45;&gt;Node143</title>
<path fill="none" stroke="midnightblue" d="M84.8,-281.19C103.89,-299.28 136.75,-327.78 170,-344.5 177.6,-348.32 186.06,-351.45 194.4,-353.99"/>
<polygon fill="midnightblue" stroke="midnightblue" points="87.12,-278.57 77.49,-274.14 82.26,-283.61 87.12,-278.57"/>
</g>
<!-- Node7 -->
<g id="node5" class="node">
<title>Node7</title>
<g id="a_node5"><a xlink:href="class_catch_1_1clara_1_1detail_1_1_composable_parser_impl.html" target="_top" xlink:title=" ">
<polygon fill="white" stroke="black" points="173,-244 173,-285 308,-285 308,-244 173,-244"/>
<text text-anchor="start" x="181" y="-273" font-family="Helvetica,sans-Serif" font-size="10.00">Catch::clara::detail</text>
<text text-anchor="start" x="181" y="-262" font-family="Helvetica,sans-Serif" font-size="10.00">::ComposableParserImpl</text>
<text text-anchor="middle" x="240.5" y="-251" font-family="Helvetica,sans-Serif" font-size="10.00">&lt; Arg &gt;</text>
</a>
</g>
</g>
<!-- Node140&#45;&gt;Node7 -->
<g id="edge4" class="edge">
<title>Node140&#45;&gt;Node7</title>
<path fill="none" stroke="midnightblue" d="M144.48,-264.5C153.92,-264.5 163.52,-264.5 172.8,-264.5"/>
<polygon fill="midnightblue" stroke="midnightblue" points="144.31,-261 134.31,-264.5 144.31,-268 144.31,-261"/>
</g>
<!-- Node10 -->
<g id="node8" class="node">
<title>Node10</title>
<g id="a_node8"><a xlink:href="class_catch_1_1clara_1_1detail_1_1_composable_parser_impl.html" target="_top" xlink:title=" ">
<polygon fill="white" stroke="black" points="173,-184 173,-225 308,-225 308,-184 173,-184"/>
<text text-anchor="start" x="181" y="-213" font-family="Helvetica,sans-Serif" font-size="10.00">Catch::clara::detail</text>
<text text-anchor="start" x="181" y="-202" font-family="Helvetica,sans-Serif" font-size="10.00">::ComposableParserImpl</text>
<text text-anchor="middle" x="240.5" y="-191" font-family="Helvetica,sans-Serif" font-size="10.00">&lt; ExeName &gt;</text>
</a>
</g>
</g>
<!-- Node140&#45;&gt;Node10 -->
<g id="edge7" class="edge">
<title>Node140&#45;&gt;Node10</title>
<path fill="none" stroke="midnightblue" d="M104.85,-251.61C126.99,-243.86 155.66,-233.83 180.85,-225.02"/>
<polygon fill="midnightblue" stroke="midnightblue" points="103.46,-248.39 95.17,-254.99 105.77,-254.99 103.46,-248.39"/>
</g>
<!-- Node13 -->
<g id="node11" class="node">
<title>Node13</title>
<g id="a_node11"><a xlink:href="class_catch_1_1clara_1_1detail_1_1_composable_parser_impl.html" target="_top" xlink:title=" ">
<polygon fill="white" stroke="black" points="173,-124 173,-165 308,-165 308,-124 173,-124"/>
<text text-anchor="start" x="181" y="-153" font-family="Helvetica,sans-Serif" font-size="10.00">Catch::clara::detail</text>
<text text-anchor="start" x="181" y="-142" font-family="Helvetica,sans-Serif" font-size="10.00">::ComposableParserImpl</text>
<text text-anchor="middle" x="240.5" y="-131" font-family="Helvetica,sans-Serif" font-size="10.00">&lt; Opt &gt;</text>
</a>
</g>
</g>
<!-- Node140&#45;&gt;Node13 -->
<g id="edge10" class="edge">
<title>Node140&#45;&gt;Node13</title>
<path fill="none" stroke="midnightblue" d="M83.74,-247.7C102.74,-228.16 136.35,-195.85 170,-174.5 175.33,-171.12 181.1,-167.95 186.96,-165.04"/>
<polygon fill="midnightblue" stroke="midnightblue" points="81.15,-245.35 76.76,-254.99 86.2,-250.19 81.15,-245.35"/>
</g>
<!-- Node142 -->
<g id="node3" class="node">
<title>Node142</title>
<g id="a_node3"><a xlink:href="classclara_1_1detail_1_1_parser_ref_impl.html" target="_top" xlink:title=" ">
<polygon fill="white" stroke="black" points="362.5,-304.5 362.5,-334.5 489.5,-334.5 489.5,-304.5 362.5,-304.5"/>
<text text-anchor="start" x="370.5" y="-322.5" font-family="Helvetica,sans-Serif" font-size="10.00">clara::detail::ParserRef</text>
<text text-anchor="middle" x="426" y="-311.5" font-family="Helvetica,sans-Serif" font-size="10.00">Impl&lt; DerivedT &gt;</text>
</a>
</g>
</g>
<!-- Node141&#45;&gt;Node142 -->
<g id="edge2" class="edge">
<title>Node141&#45;&gt;Node142</title>
<path fill="none" stroke="midnightblue" d="M321.5,-319.5C335.17,-319.5 349.2,-319.5 362.34,-319.5"/>
<polygon fill="midnightblue" stroke="midnightblue" points="321.14,-316 311.14,-319.5 321.14,-323 321.14,-316"/>
</g>
<!-- Node8 -->
<g id="node6" class="node">
<title>Node8</title>
<g id="a_node6"><a xlink:href="class_catch_1_1clara_1_1detail_1_1_parser_ref_impl.html" target="_top" xlink:title=" ">
<polygon fill="white" stroke="black" points="361,-252.5 361,-282.5 491,-282.5 491,-252.5 361,-252.5"/>
<text text-anchor="start" x="369" y="-270.5" font-family="Helvetica,sans-Serif" font-size="10.00">Catch::clara::detail</text>
<text text-anchor="middle" x="426" y="-259.5" font-family="Helvetica,sans-Serif" font-size="10.00">::ParserRefImpl&lt; Arg &gt;</text>
</a>
</g>
</g>
<!-- Node7&#45;&gt;Node8 -->
<g id="edge5" class="edge">
<title>Node7&#45;&gt;Node8</title>
<path fill="none" stroke="midnightblue" d="M318.23,-265.75C332.42,-265.99 347.1,-266.23 360.86,-266.45"/>
<polygon fill="midnightblue" stroke="midnightblue" points="318.06,-262.25 308.01,-265.59 317.95,-269.25 318.06,-262.25"/>
</g>
<!-- Node9 -->
<g id="node7" class="node">
<title>Node9</title>
<g id="a_node7"><a xlink:href="classclara_1_1detail_1_1_arg.html" target="_top" xlink:title=" ">
<polygon fill="white" stroke="black" points="558,-258 558,-277 655,-277 655,-258 558,-258"/>
<text text-anchor="middle" x="606.5" y="-265" font-family="Helvetica,sans-Serif" font-size="10.00">clara::detail::Arg</text>
</a>
</g>
</g>
<!-- Node8&#45;&gt;Node9 -->
<g id="edge6" class="edge">
<title>Node8&#45;&gt;Node9</title>
<path fill="none" stroke="midnightblue" d="M501.37,-267.5C520.46,-267.5 540.49,-267.5 557.82,-267.5"/>
<polygon fill="midnightblue" stroke="midnightblue" points="501.19,-264 491.19,-267.5 501.19,-271 501.19,-264"/>
</g>
<!-- Node11 -->
<g id="node9" class="node">
<title>Node11</title>
<g id="a_node9"><a xlink:href="class_catch_1_1clara_1_1detail_1_1_exe_name.html" target="_top" xlink:title=" ">
<polygon fill="white" stroke="black" points="372,-203.5 372,-233.5 480,-233.5 480,-203.5 372,-203.5"/>
<text text-anchor="start" x="380" y="-221.5" font-family="Helvetica,sans-Serif" font-size="10.00">Catch::clara::detail</text>
<text text-anchor="middle" x="426" y="-210.5" font-family="Helvetica,sans-Serif" font-size="10.00">::ExeName</text>
</a>
</g>
</g>
<!-- Node10&#45;&gt;Node11 -->
<g id="edge8" class="edge">
<title>Node10&#45;&gt;Node11</title>
<path fill="none" stroke="midnightblue" d="M317.99,-210.34C336.13,-211.72 355.1,-213.17 371.93,-214.45"/>
<polygon fill="midnightblue" stroke="midnightblue" points="318.24,-206.85 308.01,-209.57 317.71,-213.82 318.24,-206.85"/>
</g>
<!-- Node12 -->
<g id="node10" class="node">
<title>Node12</title>
<g id="a_node10"><a xlink:href="classclara_1_1detail_1_1_exe_name.html" target="_top" xlink:title=" ">
<polygon fill="white" stroke="black" points="362.5,-165 362.5,-184 489.5,-184 489.5,-165 362.5,-165"/>
<text text-anchor="middle" x="426" y="-172" font-family="Helvetica,sans-Serif" font-size="10.00">clara::detail::ExeName</text>
</a>
</g>
</g>
<!-- Node10&#45;&gt;Node12 -->
<g id="edge9" class="edge">
<title>Node10&#45;&gt;Node12</title>
<path fill="none" stroke="midnightblue" d="M318.02,-191.99C334.27,-189.33 351.17,-186.57 366.61,-184.05"/>
<polygon fill="midnightblue" stroke="midnightblue" points="317.31,-188.56 308.01,-193.63 318.44,-195.47 317.31,-188.56"/>
</g>
<!-- Node14 -->
<g id="node12" class="node">
<title>Node14</title>
<g id="a_node12"><a xlink:href="class_catch_1_1clara_1_1detail_1_1_parser_ref_impl.html" target="_top" xlink:title=" ">
<polygon fill="white" stroke="black" points="360.5,-115.5 360.5,-145.5 491.5,-145.5 491.5,-115.5 360.5,-115.5"/>
<text text-anchor="start" x="368.5" y="-133.5" font-family="Helvetica,sans-Serif" font-size="10.00">Catch::clara::detail</text>
<text text-anchor="middle" x="426" y="-122.5" font-family="Helvetica,sans-Serif" font-size="10.00">::ParserRefImpl&lt; Opt &gt;</text>
</a>
</g>
</g>
<!-- Node13&#45;&gt;Node14 -->
<g id="edge11" class="edge">
<title>Node13&#45;&gt;Node14</title>
<path fill="none" stroke="midnightblue" d="M318.11,-138.66C332.12,-137.59 346.63,-136.48 360.25,-135.44"/>
<polygon fill="midnightblue" stroke="midnightblue" points="317.71,-135.18 308.01,-139.43 318.24,-142.15 317.71,-135.18"/>
</g>
<!-- Node15 -->
<g id="node13" class="node">
<title>Node15</title>
<g id="a_node13"><a xlink:href="classclara_1_1detail_1_1_opt.html" target="_top" xlink:title=" ">
<polygon fill="white" stroke="black" points="557.5,-121 557.5,-140 655.5,-140 655.5,-121 557.5,-121"/>
<text text-anchor="middle" x="606.5" y="-128" font-family="Helvetica,sans-Serif" font-size="10.00">clara::detail::Opt</text>
</a>
</g>
</g>
<!-- Node14&#45;&gt;Node15 -->
<g id="edge12" class="edge">
<title>Node14&#45;&gt;Node15</title>
<path fill="none" stroke="midnightblue" d="M501.72,-130.5C520.5,-130.5 540.16,-130.5 557.26,-130.5"/>
<polygon fill="midnightblue" stroke="midnightblue" points="501.7,-127 491.69,-130.5 501.69,-134 501.7,-127"/>
</g>
<!-- Node16 -->
<g id="node14" class="node">
<title>Node16</title>
<g id="a_node14"><a xlink:href="structclara_1_1detail_1_1_help.html" target="_top" xlink:title=" ">
<polygon fill="white" stroke="black" points="710.5,-121 710.5,-140 813.5,-140 813.5,-121 710.5,-121"/>
<text text-anchor="middle" x="762" y="-128" font-family="Helvetica,sans-Serif" font-size="10.00">clara::detail::Help</text>
</a>
</g>
</g>
<!-- Node15&#45;&gt;Node16 -->
<g id="edge13" class="edge">
<title>Node15&#45;&gt;Node16</title>
<path fill="none" stroke="midnightblue" d="M665.65,-130.5C680.37,-130.5 696.06,-130.5 710.37,-130.5"/>
<polygon fill="midnightblue" stroke="midnightblue" points="665.65,-127 655.65,-130.5 665.65,-134 665.65,-127"/>
</g>
<!-- Node0 -->
<g id="node15" class="node">
<title>Node0</title>
<g id="a_node15"><a xlink:href="class_catch_1_1clara_1_1detail_1_1_parser_base.html" target="_top" xlink:title=" ">
<polygon fill="white" stroke="black" points="13,-129.5 13,-159.5 121,-159.5 121,-129.5 13,-129.5"/>
<text text-anchor="start" x="21" y="-147.5" font-family="Helvetica,sans-Serif" font-size="10.00">Catch::clara::detail</text>
<text text-anchor="middle" x="67" y="-136.5" font-family="Helvetica,sans-Serif" font-size="10.00">::ParserBase</text>
</a>
</g>
</g>
<!-- Node0&#45;&gt;Node7 -->
<g id="edge20" class="edge">
<title>Node0&#45;&gt;Node7</title>
<path fill="none" stroke="midnightblue" d="M89.2,-166.85C108.77,-186.55 139.37,-215.07 170,-234.5 175.33,-237.88 181.1,-241.05 186.96,-243.96"/>
<polygon fill="midnightblue" stroke="midnightblue" points="91.51,-164.21 82.01,-159.51 86.51,-169.11 91.51,-164.21"/>
</g>
<!-- Node0&#45;&gt;Node10 -->
<g id="edge21" class="edge">
<title>Node0&#45;&gt;Node10</title>
<path fill="none" stroke="midnightblue" d="M120.92,-163.01C139.85,-169.64 161.29,-177.14 180.69,-183.92"/>
<polygon fill="midnightblue" stroke="midnightblue" points="121.87,-159.64 111.28,-159.64 119.56,-166.25 121.87,-159.64"/>
</g>
<!-- Node0&#45;&gt;Node13 -->
<g id="edge22" class="edge">
<title>Node0&#45;&gt;Node13</title>
<path fill="none" stroke="midnightblue" d="M131.47,-144.5C144.98,-144.5 159.28,-144.5 172.9,-144.5"/>
<polygon fill="midnightblue" stroke="midnightblue" points="131.32,-141 121.32,-144.5 131.32,-148 131.32,-141"/>
</g>
<!-- Node1 -->
<g id="node16" class="node">
<title>Node1</title>
<g id="a_node16"><a xlink:href="class_catch_1_1clara_1_1detail_1_1_composable_parser_impl.html" target="_top" xlink:title=" ">
<polygon fill="white" stroke="black" points="173,-14 173,-55 308,-55 308,-14 173,-14"/>
<text text-anchor="start" x="181" y="-43" font-family="Helvetica,sans-Serif" font-size="10.00">Catch::clara::detail</text>
<text text-anchor="start" x="181" y="-32" font-family="Helvetica,sans-Serif" font-size="10.00">::ComposableParserImpl</text>
<text text-anchor="middle" x="240.5" y="-21" font-family="Helvetica,sans-Serif" font-size="10.00">&lt; DerivedT &gt;</text>
</a>
</g>
</g>
<!-- Node0&#45;&gt;Node1 -->
<g id="edge14" class="edge">
<title>Node0&#45;&gt;Node1</title>
<path fill="none" stroke="midnightblue" d="M92.45,-122.85C112.4,-105.88 141.79,-82.38 170,-65.5 176.12,-61.84 182.75,-58.34 189.41,-55.1"/>
<polygon fill="midnightblue" stroke="midnightblue" points="90.07,-120.28 84.77,-129.46 94.64,-125.59 90.07,-120.28"/>
</g>
<!-- Node6 -->
<g id="node21" class="node">
<title>Node6</title>
<g id="a_node21"><a xlink:href="struct_catch_1_1clara_1_1detail_1_1_parser.html" target="_top" xlink:title=" ">
<polygon fill="white" stroke="black" points="186.5,-74.5 186.5,-104.5 294.5,-104.5 294.5,-74.5 186.5,-74.5"/>
<text text-anchor="start" x="194.5" y="-92.5" font-family="Helvetica,sans-Serif" font-size="10.00">Catch::clara::detail</text>
<text text-anchor="middle" x="240.5" y="-81.5" font-family="Helvetica,sans-Serif" font-size="10.00">::Parser</text>
</a>
</g>
</g>
<!-- Node0&#45;&gt;Node6 -->
<g id="edge19" class="edge">
<title>Node0&#45;&gt;Node6</title>
<path fill="none" stroke="midnightblue" d="M124.46,-126.39C146.56,-119.3 171.62,-111.27 192.69,-104.51"/>
<polygon fill="midnightblue" stroke="midnightblue" points="123.32,-123.08 114.86,-129.47 125.45,-129.75 123.32,-123.08"/>
</g>
<!-- Node2 -->
<g id="node17" class="node">
<title>Node2</title>
<g id="a_node17"><a xlink:href="class_catch_1_1clara_1_1detail_1_1_parser_ref_impl.html" target="_top" xlink:title=" ">
<polygon fill="white" stroke="black" points="347,-19.5 347,-49.5 505,-49.5 505,-19.5 347,-19.5"/>
<text text-anchor="start" x="355" y="-37.5" font-family="Helvetica,sans-Serif" font-size="10.00">Catch::clara::detail</text>
<text text-anchor="middle" x="426" y="-26.5" font-family="Helvetica,sans-Serif" font-size="10.00">::ParserRefImpl&lt; DerivedT &gt;</text>
</a>
</g>
</g>
<!-- Node1&#45;&gt;Node2 -->
<g id="edge15" class="edge">
<title>Node1&#45;&gt;Node2</title>
<path fill="none" stroke="midnightblue" d="M318.19,-34.5C327.67,-34.5 337.37,-34.5 346.87,-34.5"/>
<polygon fill="midnightblue" stroke="midnightblue" points="318.01,-31 308.01,-34.5 318.01,-38 318.01,-31"/>
</g>
<!-- Node3 -->
<g id="node18" class="node">
<title>Node3</title>
<g id="a_node18"><a xlink:href="class_catch_1_1clara_1_1detail_1_1_arg.html" target="_top" xlink:title=" ">
<polygon fill="white" stroke="black" points="541,-44 541,-63 672,-63 672,-44 541,-44"/>
<text text-anchor="middle" x="606.5" y="-51" font-family="Helvetica,sans-Serif" font-size="10.00">Catch::clara::detail::Arg</text>
</a>
</g>
</g>
<!-- Node2&#45;&gt;Node3 -->
<g id="edge16" class="edge">
<title>Node2&#45;&gt;Node3</title>
<path fill="none" stroke="midnightblue" d="M515.21,-43.89C523.9,-44.81 532.61,-45.74 540.99,-46.63"/>
<polygon fill="midnightblue" stroke="midnightblue" points="515.35,-40.38 505.03,-42.81 514.61,-47.34 515.35,-40.38"/>
</g>
<!-- Node4 -->
<g id="node19" class="node">
<title>Node4</title>
<g id="a_node19"><a xlink:href="class_catch_1_1clara_1_1detail_1_1_opt.html" target="_top" xlink:title=" ">
<polygon fill="white" stroke="black" points="541,-6 541,-25 672,-25 672,-6 541,-6"/>
<text text-anchor="middle" x="606.5" y="-13" font-family="Helvetica,sans-Serif" font-size="10.00">Catch::clara::detail::Opt</text>
</a>
</g>
</g>
<!-- Node2&#45;&gt;Node4 -->
<g id="edge17" class="edge">
<title>Node2&#45;&gt;Node4</title>
<path fill="none" stroke="midnightblue" d="M515.21,-25.11C523.9,-24.19 532.61,-23.26 540.99,-22.37"/>
<polygon fill="midnightblue" stroke="midnightblue" points="514.61,-21.66 505.03,-26.19 515.35,-28.62 514.61,-21.66"/>
</g>
<!-- Node5 -->
<g id="node20" class="node">
<title>Node5</title>
<g id="a_node20"><a xlink:href="struct_catch_1_1clara_1_1detail_1_1_help.html" target="_top" xlink:title=" ">
<polygon fill="white" stroke="black" points="708,-0.5 708,-30.5 816,-30.5 816,-0.5 708,-0.5"/>
<text text-anchor="start" x="716" y="-18.5" font-family="Helvetica,sans-Serif" font-size="10.00">Catch::clara::detail</text>
<text text-anchor="middle" x="762" y="-7.5" font-family="Helvetica,sans-Serif" font-size="10.00">::Help</text>
</a>
</g>
</g>
<!-- Node4&#45;&gt;Node5 -->
<g id="edge18" class="edge">
<title>Node4&#45;&gt;Node5</title>
<path fill="none" stroke="midnightblue" d="M682.18,-15.5C690.75,-15.5 699.36,-15.5 707.57,-15.5"/>
<polygon fill="midnightblue" stroke="midnightblue" points="682.15,-12 672.15,-15.5 682.15,-19 682.15,-12"/>
</g>
</g>
</svg>
