<?xml version="1.0" encoding="UTF-8" standalone="no"?>
<!DOCTYPE svg PUBLIC "-//W3C//DTD SVG 1.1//EN"
 "http://www.w3.org/Graphics/SVG/1.1/DTD/svg11.dtd">
<!-- Generated by graphviz version 2.43.0 (0)
 -->
<!-- Title: interpreter.cc Pages: 1 -->
<svg width="1107pt" height="364pt"
 viewBox="0.00 0.00 1106.50 364.00" xmlns="http://www.w3.org/2000/svg" xmlns:xlink="http://www.w3.org/1999/xlink">
<g id="graph0" class="graph" transform="scale(1 1) rotate(0) translate(4 360)">
<title>interpreter.cc</title>
<polygon fill="white" stroke="transparent" points="-4,4 -4,-360 1102.5,-360 1102.5,4 -4,4"/>
<!-- Node1 -->
<g id="node1" class="node">
<title>Node1</title>
<g id="a_node1"><a xlink:title=" ">
<polygon fill="#bfbfbf" stroke="black" points="831,-336.5 831,-355.5 912,-355.5 912,-336.5 831,-336.5"/>
<text text-anchor="middle" x="871.5" y="-343.5" font-family="Helvetica,sans-Serif" font-size="10.00">interpreter.cc</text>
</a>
</g>
</g>
<!-- Node2 -->
<g id="node2" class="node">
<title>Node2</title>
<g id="a_node2"><a xlink:title=" ">
<polygon fill="white" stroke="#bfbfbf" points="547,-280.5 547,-299.5 602,-299.5 602,-280.5 547,-280.5"/>
<text text-anchor="middle" x="574.5" y="-287.5" font-family="Helvetica,sans-Serif" font-size="10.00">fstream</text>
</a>
</g>
</g>
<!-- Node1&#45;&gt;Node2 -->
<g id="edge1" class="edge">
<title>Node1&#45;&gt;Node2</title>
<path fill="none" stroke="midnightblue" d="M830.81,-338.83C781.45,-331.14 695.51,-317.16 612.21,-300.03"/>
<polygon fill="midnightblue" stroke="midnightblue" points="612.84,-296.59 602.33,-297.98 611.42,-303.44 612.84,-296.59"/>
</g>
<!-- Node3 -->
<g id="node3" class="node">
<title>Node3</title>
<g id="a_node3"><a xlink:title=" ">
<polygon fill="white" stroke="#bfbfbf" points="1010.5,-168.5 1010.5,-187.5 1070.5,-187.5 1070.5,-168.5 1010.5,-168.5"/>
<text text-anchor="middle" x="1040.5" y="-175.5" font-family="Helvetica,sans-Serif" font-size="10.00">iostream</text>
</a>
</g>
</g>
<!-- Node1&#45;&gt;Node3 -->
<g id="edge2" class="edge">
<title>Node1&#45;&gt;Node3</title>
<path fill="none" stroke="midnightblue" d="M883.51,-336.33C906.02,-319.79 955.54,-281.95 991.5,-244 1005.72,-229 1019.68,-209.92 1029.04,-196.32"/>
<polygon fill="midnightblue" stroke="midnightblue" points="1032.04,-198.15 1034.73,-187.9 1026.24,-194.23 1032.04,-198.15"/>
</g>
<!-- Node4 -->
<g id="node4" class="node">
<title>Node4</title>
<g id="a_node4"><a xlink:title=" ">
<polygon fill="white" stroke="#bfbfbf" points="852.5,-280.5 852.5,-299.5 890.5,-299.5 890.5,-280.5 852.5,-280.5"/>
<text text-anchor="middle" x="871.5" y="-287.5" font-family="Helvetica,sans-Serif" font-size="10.00">map</text>
</a>
</g>
</g>
<!-- Node1&#45;&gt;Node4 -->
<g id="edge3" class="edge">
<title>Node1&#45;&gt;Node4</title>
<path fill="none" stroke="midnightblue" d="M871.5,-336.08C871.5,-329.01 871.5,-318.86 871.5,-309.99"/>
<polygon fill="midnightblue" stroke="midnightblue" points="875,-309.75 871.5,-299.75 868,-309.75 875,-309.75"/>
</g>
<!-- Node5 -->
<g id="node5" class="node">
<title>Node5</title>
<g id="a_node5"><a xlink:title=" ">
<polygon fill="white" stroke="#bfbfbf" points="662.5,-0.5 662.5,-19.5 706.5,-19.5 706.5,-0.5 662.5,-0.5"/>
<text text-anchor="middle" x="684.5" y="-7.5" font-family="Helvetica,sans-Serif" font-size="10.00">string</text>
</a>
</g>
</g>
<!-- Node1&#45;&gt;Node5 -->
<g id="edge4" class="edge">
<title>Node1&#45;&gt;Node5</title>
<path fill="none" stroke="midnightblue" d="M912.08,-343.18C977.38,-337.84 1098.5,-316.89 1098.5,-235 1098.5,-235 1098.5,-235 1098.5,-121 1098.5,-42.15 814.45,-18.45 716.92,-12.64"/>
<polygon fill="midnightblue" stroke="midnightblue" points="716.94,-9.14 706.76,-12.06 716.54,-16.13 716.94,-9.14"/>
</g>
<!-- Node6 -->
<g id="node6" class="node">
<title>Node6</title>
<g id="a_node6"><a xlink:href="parser_8h.html" target="_top" xlink:title=" ">
<polygon fill="white" stroke="black" points="620.5,-280.5 620.5,-299.5 724.5,-299.5 724.5,-280.5 620.5,-280.5"/>
<text text-anchor="middle" x="672.5" y="-287.5" font-family="Helvetica,sans-Serif" font-size="10.00">language/parser.h</text>
</a>
</g>
</g>
<!-- Node1&#45;&gt;Node6 -->
<g id="edge5" class="edge">
<title>Node1&#45;&gt;Node6</title>
<path fill="none" stroke="midnightblue" d="M839.97,-336.44C805.91,-327.2 751.49,-312.44 713.98,-302.26"/>
<polygon fill="midnightblue" stroke="midnightblue" points="714.45,-298.76 703.88,-299.52 712.62,-305.51 714.45,-298.76"/>
</g>
<!-- Node6&#45;&gt;Node3 -->
<g id="edge10" class="edge">
<title>Node6&#45;&gt;Node3</title>
<path fill="none" stroke="midnightblue" d="M724.63,-289.18C784.58,-287.56 884.73,-279.14 962.5,-244 987.71,-232.61 1011.32,-210.76 1025.83,-195.55"/>
<polygon fill="midnightblue" stroke="midnightblue" points="1028.68,-197.62 1032.9,-187.89 1023.54,-192.87 1028.68,-197.62"/>
</g>
<!-- Node6&#45;&gt;Node5 -->
<g id="edge13" class="edge">
<title>Node6&#45;&gt;Node5</title>
<path fill="none" stroke="midnightblue" d="M668.39,-280.34C660.49,-263.2 643.48,-223.5 637.5,-188 627.34,-127.68 696.07,-133.3 717.5,-76 723.97,-58.69 712.33,-39.98 701.12,-27.1"/>
<polygon fill="midnightblue" stroke="midnightblue" points="703.42,-24.43 694.02,-19.55 698.32,-29.23 703.42,-24.43"/>
</g>
<!-- Node7 -->
<g id="node7" class="node">
<title>Node7</title>
<g id="a_node7"><a xlink:title=" ">
<polygon fill="white" stroke="#bfbfbf" points="646.5,-168.5 646.5,-187.5 698.5,-187.5 698.5,-168.5 646.5,-168.5"/>
<text text-anchor="middle" x="672.5" y="-175.5" font-family="Helvetica,sans-Serif" font-size="10.00">cassert</text>
</a>
</g>
</g>
<!-- Node6&#45;&gt;Node7 -->
<g id="edge6" class="edge">
<title>Node6&#45;&gt;Node7</title>
<path fill="none" stroke="midnightblue" d="M672.5,-280.37C672.5,-262.62 672.5,-221.67 672.5,-197.6"/>
<polygon fill="midnightblue" stroke="midnightblue" points="676,-197.59 672.5,-187.59 669,-197.59 676,-197.59"/>
</g>
<!-- Node8 -->
<g id="node8" class="node">
<title>Node8</title>
<g id="a_node8"><a xlink:title=" ">
<polygon fill="white" stroke="#bfbfbf" points="771,-224.5 771,-243.5 820,-243.5 820,-224.5 771,-224.5"/>
<text text-anchor="middle" x="795.5" y="-231.5" font-family="Helvetica,sans-Serif" font-size="10.00">cctype</text>
</a>
</g>
</g>
<!-- Node6&#45;&gt;Node8 -->
<g id="edge7" class="edge">
<title>Node6&#45;&gt;Node8</title>
<path fill="none" stroke="midnightblue" d="M691.99,-280.44C712.14,-271.6 743.82,-257.69 766.83,-247.59"/>
<polygon fill="midnightblue" stroke="midnightblue" points="768.35,-250.74 776.1,-243.52 765.54,-244.33 768.35,-250.74"/>
</g>
<!-- Node9 -->
<g id="node9" class="node">
<title>Node9</title>
<g id="a_node9"><a xlink:title=" ">
<polygon fill="white" stroke="#bfbfbf" points="838,-224.5 838,-243.5 885,-243.5 885,-224.5 838,-224.5"/>
<text text-anchor="middle" x="861.5" y="-231.5" font-family="Helvetica,sans-Serif" font-size="10.00">cmath</text>
</a>
</g>
</g>
<!-- Node6&#45;&gt;Node9 -->
<g id="edge8" class="edge">
<title>Node6&#45;&gt;Node9</title>
<path fill="none" stroke="midnightblue" d="M702.45,-280.44C736.65,-270.67 792.45,-254.73 828.05,-244.56"/>
<polygon fill="midnightblue" stroke="midnightblue" points="829.31,-247.84 837.96,-241.73 827.39,-241.11 829.31,-247.84"/>
</g>
<!-- Node10 -->
<g id="node10" class="node">
<title>Node10</title>
<g id="a_node10"><a xlink:title=" ">
<polygon fill="white" stroke="#bfbfbf" points="903.5,-224.5 903.5,-243.5 953.5,-243.5 953.5,-224.5 903.5,-224.5"/>
<text text-anchor="middle" x="928.5" y="-231.5" font-family="Helvetica,sans-Serif" font-size="10.00">cstring</text>
</a>
</g>
</g>
<!-- Node6&#45;&gt;Node10 -->
<g id="edge9" class="edge">
<title>Node6&#45;&gt;Node10</title>
<path fill="none" stroke="midnightblue" d="M718.59,-280.48C761.5,-272.36 827.45,-259.41 893.54,-244.12"/>
<polygon fill="midnightblue" stroke="midnightblue" points="894.35,-247.53 903.29,-241.85 892.76,-240.71 894.35,-247.53"/>
</g>
<!-- Node11 -->
<g id="node11" class="node">
<title>Node11</title>
<g id="a_node11"><a xlink:title=" ">
<polygon fill="white" stroke="#bfbfbf" points="0,-224.5 0,-243.5 53,-243.5 53,-224.5 0,-224.5"/>
<text text-anchor="middle" x="26.5" y="-231.5" font-family="Helvetica,sans-Serif" font-size="10.00">iterator</text>
</a>
</g>
</g>
<!-- Node6&#45;&gt;Node11 -->
<g id="edge11" class="edge">
<title>Node6&#45;&gt;Node11</title>
<path fill="none" stroke="midnightblue" d="M620.29,-281.01C617.32,-280.65 614.37,-280.31 611.5,-280 371.24,-254.45 305.19,-281.9 63.31,-244.01"/>
<polygon fill="midnightblue" stroke="midnightblue" points="63.57,-240.51 53.15,-242.4 62.47,-247.42 63.57,-240.51"/>
</g>
<!-- Node12 -->
<g id="node12" class="node">
<title>Node12</title>
<g id="a_node12"><a xlink:title=" ">
<polygon fill="white" stroke="#bfbfbf" points="71,-224.5 71,-243.5 128,-243.5 128,-224.5 71,-224.5"/>
<text text-anchor="middle" x="99.5" y="-231.5" font-family="Helvetica,sans-Serif" font-size="10.00">ostream</text>
</a>
</g>
</g>
<!-- Node6&#45;&gt;Node12 -->
<g id="edge12" class="edge">
<title>Node6&#45;&gt;Node12</title>
<path fill="none" stroke="midnightblue" d="M620.29,-281.05C617.32,-280.68 614.37,-280.32 611.5,-280 403.74,-256.73 349.47,-273.48 142.5,-244 141.04,-243.79 139.55,-243.56 138.05,-243.32"/>
<polygon fill="midnightblue" stroke="midnightblue" points="138.55,-239.85 128.09,-241.52 137.31,-246.74 138.55,-239.85"/>
</g>
<!-- Node13 -->
<g id="node13" class="node">
<title>Node13</title>
<g id="a_node13"><a xlink:title=" ">
<polygon fill="white" stroke="#bfbfbf" points="597,-112.5 597,-131.5 642,-131.5 642,-112.5 597,-112.5"/>
<text text-anchor="middle" x="619.5" y="-119.5" font-family="Helvetica,sans-Serif" font-size="10.00">utility</text>
</a>
</g>
</g>
<!-- Node6&#45;&gt;Node13 -->
<g id="edge14" class="edge">
<title>Node6&#45;&gt;Node13</title>
<path fill="none" stroke="midnightblue" d="M649.05,-280.41C633.34,-273.28 613.88,-261.46 604.5,-244 586.7,-210.88 600.82,-165.47 611.14,-140.77"/>
<polygon fill="midnightblue" stroke="midnightblue" points="614.37,-142.11 615.22,-131.54 607.97,-139.27 614.37,-142.11"/>
</g>
<!-- Node14 -->
<g id="node14" class="node">
<title>Node14</title>
<g id="a_node14"><a xlink:href="_i_statment_8h.html" target="_top" xlink:title=" ">
<polygon fill="white" stroke="black" points="372.5,-56.5 372.5,-75.5 446.5,-75.5 446.5,-56.5 372.5,-56.5"/>
<text text-anchor="middle" x="409.5" y="-63.5" font-family="Helvetica,sans-Serif" font-size="10.00">IStatment.h</text>
</a>
</g>
</g>
<!-- Node6&#45;&gt;Node14 -->
<g id="edge15" class="edge">
<title>Node6&#45;&gt;Node14</title>
<path fill="none" stroke="midnightblue" d="M622.25,-280.49C569.29,-268.87 487.21,-242.85 440.5,-188 415.51,-158.66 410.28,-111.75 409.41,-85.8"/>
<polygon fill="midnightblue" stroke="midnightblue" points="412.91,-85.73 409.27,-75.78 405.91,-85.83 412.91,-85.73"/>
</g>
<!-- Node16 -->
<g id="node16" class="node">
<title>Node16</title>
<g id="a_node16"><a xlink:href="_i_value_8h.html" target="_top" xlink:title=" ">
<polygon fill="white" stroke="black" points="278.5,-0.5 278.5,-19.5 334.5,-19.5 334.5,-0.5 278.5,-0.5"/>
<text text-anchor="middle" x="306.5" y="-7.5" font-family="Helvetica,sans-Serif" font-size="10.00">IValue.h</text>
</a>
</g>
</g>
<!-- Node6&#45;&gt;Node16 -->
<g id="edge19" class="edge">
<title>Node6&#45;&gt;Node16</title>
<path fill="none" stroke="midnightblue" d="M620.26,-281.24C617.3,-280.82 614.36,-280.4 611.5,-280 508.93,-265.62 156.5,-282.57 156.5,-179 156.5,-179 156.5,-179 156.5,-121 156.5,-65.46 224.21,-34.9 268.64,-20.82"/>
<polygon fill="midnightblue" stroke="midnightblue" points="269.73,-24.15 278.29,-17.9 267.7,-17.45 269.73,-24.15"/>
</g>
<!-- Node17 -->
<g id="node17" class="node">
<title>Node17</title>
<g id="a_node17"><a xlink:href="env_8h.html" target="_top" xlink:title=" ">
<polygon fill="white" stroke="black" points="349,-224.5 349,-243.5 392,-243.5 392,-224.5 349,-224.5"/>
<text text-anchor="middle" x="370.5" y="-231.5" font-family="Helvetica,sans-Serif" font-size="10.00">env.h</text>
</a>
</g>
</g>
<!-- Node6&#45;&gt;Node17 -->
<g id="edge20" class="edge">
<title>Node6&#45;&gt;Node17</title>
<path fill="none" stroke="midnightblue" d="M620.39,-280.68C554.94,-270.14 446.38,-252.35 406.5,-244 405.04,-243.69 403.55,-243.37 402.05,-243.04"/>
<polygon fill="midnightblue" stroke="midnightblue" points="402.68,-239.59 392.14,-240.7 401.07,-246.4 402.68,-239.59"/>
</g>
<!-- Node23 -->
<g id="node23" class="node">
<title>Node23</title>
<g id="a_node23"><a xlink:href="utils_8h.html" target="_top" xlink:title=" ">
<polygon fill="white" stroke="black" points="706,-224.5 706,-243.5 753,-243.5 753,-224.5 706,-224.5"/>
<text text-anchor="middle" x="729.5" y="-231.5" font-family="Helvetica,sans-Serif" font-size="10.00">utils.h</text>
</a>
</g>
</g>
<!-- Node6&#45;&gt;Node23 -->
<g id="edge35" class="edge">
<title>Node6&#45;&gt;Node23</title>
<path fill="none" stroke="midnightblue" d="M681.66,-280.32C690,-272.42 702.53,-260.55 712.68,-250.94"/>
<polygon fill="midnightblue" stroke="midnightblue" points="715.32,-253.25 720.18,-243.83 710.51,-248.17 715.32,-253.25"/>
</g>
<!-- Node14&#45;&gt;Node5 -->
<g id="edge17" class="edge">
<title>Node14&#45;&gt;Node5</title>
<path fill="none" stroke="midnightblue" d="M446.59,-57.72C500.9,-47.05 601.18,-27.36 652.47,-17.29"/>
<polygon fill="midnightblue" stroke="midnightblue" points="653.2,-20.71 662.34,-15.35 651.85,-13.84 653.2,-20.71"/>
</g>
<!-- Node15 -->
<g id="node15" class="node">
<title>Node15</title>
<g id="a_node15"><a xlink:title=" ">
<polygon fill="white" stroke="#bfbfbf" points="454.5,-0.5 454.5,-19.5 510.5,-19.5 510.5,-0.5 454.5,-0.5"/>
<text text-anchor="middle" x="482.5" y="-7.5" font-family="Helvetica,sans-Serif" font-size="10.00">optional</text>
</a>
</g>
</g>
<!-- Node14&#45;&gt;Node15 -->
<g id="edge16" class="edge">
<title>Node14&#45;&gt;Node15</title>
<path fill="none" stroke="midnightblue" d="M421.23,-56.32C432.34,-48.11 449.24,-35.6 462.48,-25.81"/>
<polygon fill="midnightblue" stroke="midnightblue" points="464.6,-28.59 470.56,-19.83 460.44,-22.97 464.6,-28.59"/>
</g>
<!-- Node14&#45;&gt;Node16 -->
<g id="edge18" class="edge">
<title>Node14&#45;&gt;Node16</title>
<path fill="none" stroke="midnightblue" d="M392.95,-56.32C376.51,-47.7 351.07,-34.36 332.03,-24.39"/>
<polygon fill="midnightblue" stroke="midnightblue" points="333.49,-21.2 323.01,-19.65 330.24,-27.4 333.49,-21.2"/>
</g>
<!-- Node17&#45;&gt;Node5 -->
<g id="edge22" class="edge">
<title>Node17&#45;&gt;Node5</title>
<path fill="none" stroke="midnightblue" d="M392.15,-230.58C423.35,-226.27 481.78,-215.01 523.5,-188 560.81,-163.84 558.73,-145.01 588.5,-112 616.27,-81.21 649.88,-46.38 669.07,-26.72"/>
<polygon fill="midnightblue" stroke="midnightblue" points="671.64,-29.1 676.13,-19.5 666.63,-24.2 671.64,-29.1"/>
</g>
<!-- Node17&#45;&gt;Node14 -->
<g id="edge24" class="edge">
<title>Node17&#45;&gt;Node14</title>
<path fill="none" stroke="midnightblue" d="M372.6,-224.08C378.74,-197.95 396.76,-121.21 405.14,-85.58"/>
<polygon fill="midnightblue" stroke="midnightblue" points="408.61,-86.1 407.49,-75.57 401.79,-84.5 408.61,-86.1"/>
</g>
<!-- Node17&#45;&gt;Node15 -->
<g id="edge21" class="edge">
<title>Node17&#45;&gt;Node15</title>
<path fill="none" stroke="midnightblue" d="M366.82,-224.26C355.84,-196.64 326.26,-109.89 363.5,-56 381.54,-29.9 416.8,-18.92 444.28,-14.31"/>
<polygon fill="midnightblue" stroke="midnightblue" points="444.99,-17.75 454.38,-12.84 443.98,-10.82 444.99,-17.75"/>
</g>
<!-- Node17&#45;&gt;Node16 -->
<g id="edge25" class="edge">
<title>Node17&#45;&gt;Node16</title>
<path fill="none" stroke="midnightblue" d="M359.71,-224.23C350.33,-215.94 337.22,-202.63 330.5,-188 305.95,-134.56 304.6,-63.17 305.55,-29.74"/>
<polygon fill="midnightblue" stroke="midnightblue" points="309.06,-29.72 305.95,-19.59 302.06,-29.45 309.06,-29.72"/>
</g>
<!-- Node18 -->
<g id="node18" class="node">
<title>Node18</title>
<g id="a_node18"><a xlink:title=" ">
<polygon fill="white" stroke="#bfbfbf" points="185,-168.5 185,-187.5 278,-187.5 278,-168.5 185,-168.5"/>
<text text-anchor="middle" x="231.5" y="-175.5" font-family="Helvetica,sans-Serif" font-size="10.00">unordered_map</text>
</a>
</g>
</g>
<!-- Node17&#45;&gt;Node18 -->
<g id="edge23" class="edge">
<title>Node17&#45;&gt;Node18</title>
<path fill="none" stroke="midnightblue" d="M348.78,-224.56C325.76,-215.62 289.19,-201.41 263,-191.24"/>
<polygon fill="midnightblue" stroke="midnightblue" points="264.11,-187.92 253.52,-187.56 261.58,-194.44 264.11,-187.92"/>
</g>
<!-- Node19 -->
<g id="node19" class="node">
<title>Node19</title>
<g id="a_node19"><a xlink:href="_func_def_8h.html" target="_top" xlink:title=" ">
<polygon fill="white" stroke="black" points="449,-168.5 449,-187.5 514,-187.5 514,-168.5 449,-168.5"/>
<text text-anchor="middle" x="481.5" y="-175.5" font-family="Helvetica,sans-Serif" font-size="10.00">FuncDef.h</text>
</a>
</g>
</g>
<!-- Node17&#45;&gt;Node19 -->
<g id="edge26" class="edge">
<title>Node17&#45;&gt;Node19</title>
<path fill="none" stroke="midnightblue" d="M388.33,-224.32C406.22,-215.62 433.98,-202.12 454.55,-192.11"/>
<polygon fill="midnightblue" stroke="midnightblue" points="456.25,-195.18 463.71,-187.65 453.19,-188.88 456.25,-195.18"/>
</g>
<!-- Node19&#45;&gt;Node13 -->
<g id="edge27" class="edge">
<title>Node19&#45;&gt;Node13</title>
<path fill="none" stroke="midnightblue" d="M503.37,-168.44C526.28,-159.48 562.48,-145.31 588.37,-135.18"/>
<polygon fill="midnightblue" stroke="midnightblue" points="589.7,-138.42 597.74,-131.52 587.15,-131.9 589.7,-138.42"/>
</g>
<!-- Node19&#45;&gt;Node14 -->
<g id="edge34" class="edge">
<title>Node19&#45;&gt;Node14</title>
<path fill="none" stroke="midnightblue" d="M475.85,-168.37C463.97,-150.22 436.21,-107.8 420.62,-83.99"/>
<polygon fill="midnightblue" stroke="midnightblue" points="423.53,-82.04 415.12,-75.59 417.67,-85.88 423.53,-82.04"/>
</g>
<!-- Node20 -->
<g id="node20" class="node">
<title>Node20</title>
<g id="a_node20"><a xlink:href="_block_8h.html" target="_top" xlink:title=" ">
<polygon fill="white" stroke="black" points="487,-112.5 487,-131.5 540,-131.5 540,-112.5 487,-112.5"/>
<text text-anchor="middle" x="513.5" y="-119.5" font-family="Helvetica,sans-Serif" font-size="10.00">Block.h</text>
</a>
</g>
</g>
<!-- Node19&#45;&gt;Node20 -->
<g id="edge28" class="edge">
<title>Node19&#45;&gt;Node20</title>
<path fill="none" stroke="midnightblue" d="M486.78,-168.08C491.21,-160.61 497.66,-149.72 503.12,-140.52"/>
<polygon fill="midnightblue" stroke="midnightblue" points="506.23,-142.14 508.31,-131.75 500.21,-138.57 506.23,-142.14"/>
</g>
<!-- Node20&#45;&gt;Node5 -->
<g id="edge30" class="edge">
<title>Node20&#45;&gt;Node5</title>
<path fill="none" stroke="midnightblue" d="M526.92,-112.37C556.26,-93.49 626.38,-48.38 662.37,-25.24"/>
<polygon fill="midnightblue" stroke="midnightblue" points="664.63,-27.95 671.14,-19.59 660.84,-22.06 664.63,-27.95"/>
</g>
<!-- Node20&#45;&gt;Node14 -->
<g id="edge32" class="edge">
<title>Node20&#45;&gt;Node14</title>
<path fill="none" stroke="midnightblue" d="M496.79,-112.32C480.19,-103.7 454.5,-90.36 435.28,-80.39"/>
<polygon fill="midnightblue" stroke="midnightblue" points="436.66,-77.16 426.17,-75.65 433.43,-83.37 436.66,-77.16"/>
</g>
<!-- Node20&#45;&gt;Node15 -->
<g id="edge29" class="edge">
<title>Node20&#45;&gt;Node15</title>
<path fill="none" stroke="midnightblue" d="M521.04,-112.39C531.14,-99.75 546.77,-75.57 537.5,-56 531.37,-43.07 519.51,-32.62 508.36,-25.05"/>
<polygon fill="midnightblue" stroke="midnightblue" points="510.03,-21.97 499.7,-19.61 506.31,-27.9 510.03,-21.97"/>
</g>
<!-- Node21 -->
<g id="node21" class="node">
<title>Node21</title>
<g id="a_node21"><a xlink:title=" ">
<polygon fill="white" stroke="#bfbfbf" points="661,-56.5 661,-75.5 708,-75.5 708,-56.5 661,-56.5"/>
<text text-anchor="middle" x="684.5" y="-63.5" font-family="Helvetica,sans-Serif" font-size="10.00">vector</text>
</a>
</g>
</g>
<!-- Node20&#45;&gt;Node21 -->
<g id="edge31" class="edge">
<title>Node20&#45;&gt;Node21</title>
<path fill="none" stroke="midnightblue" d="M540.22,-112.56C570.14,-103.11 618.67,-87.79 651.08,-77.55"/>
<polygon fill="midnightblue" stroke="midnightblue" points="652.51,-80.77 660.99,-74.42 650.4,-74.1 652.51,-80.77"/>
</g>
<!-- Node22 -->
<g id="node22" class="node">
<title>Node22</title>
<g id="a_node22"><a xlink:title=" ">
<polygon fill="white" stroke="#bfbfbf" points="464.5,-56.5 464.5,-75.5 528.5,-75.5 528.5,-56.5 464.5,-56.5"/>
<text text-anchor="middle" x="496.5" y="-63.5" font-family="Helvetica,sans-Serif" font-size="10.00">algorithm</text>
</a>
</g>
</g>
<!-- Node20&#45;&gt;Node22 -->
<g id="edge33" class="edge">
<title>Node20&#45;&gt;Node22</title>
<path fill="none" stroke="midnightblue" d="M510.69,-112.08C508.42,-104.85 505.13,-94.41 502.29,-85.4"/>
<polygon fill="midnightblue" stroke="midnightblue" points="505.6,-84.24 499.25,-75.75 498.92,-86.34 505.6,-84.24"/>
</g>
<!-- Node23&#45;&gt;Node3 -->
<g id="edge38" class="edge">
<title>Node23&#45;&gt;Node3</title>
<path fill="none" stroke="midnightblue" d="M753.21,-226.19C756.32,-225.39 759.48,-224.64 762.5,-224 865.42,-202.12 892.92,-206.55 996.5,-188 997.75,-187.78 999.02,-187.54 1000.31,-187.31"/>
<polygon fill="midnightblue" stroke="midnightblue" points="1001.08,-190.72 1010.24,-185.39 999.76,-183.85 1001.08,-190.72"/>
</g>
<!-- Node23&#45;&gt;Node5 -->
<g id="edge41" class="edge">
<title>Node23&#45;&gt;Node5</title>
<path fill="none" stroke="midnightblue" d="M753.23,-226.26C756.34,-225.45 759.49,-224.68 762.5,-224 852.97,-203.61 1004.66,-251.1 963.5,-168 915.58,-71.25 779.73,-30.93 716.99,-17.11"/>
<polygon fill="midnightblue" stroke="midnightblue" points="717.38,-13.61 706.87,-14.97 715.93,-20.46 717.38,-13.61"/>
</g>
<!-- Node23&#45;&gt;Node7 -->
<g id="edge36" class="edge">
<title>Node23&#45;&gt;Node7</title>
<path fill="none" stroke="midnightblue" d="M720.34,-224.32C712,-216.42 699.47,-204.55 689.32,-194.94"/>
<polygon fill="midnightblue" stroke="midnightblue" points="691.49,-192.17 681.82,-187.83 686.68,-197.25 691.49,-192.17"/>
</g>
<!-- Node23&#45;&gt;Node13 -->
<g id="edge42" class="edge">
<title>Node23&#45;&gt;Node13</title>
<path fill="none" stroke="midnightblue" d="M728.66,-224.4C726.92,-210.91 721.83,-184.59 707.5,-168 692.86,-151.05 670.27,-139.68 651.64,-132.61"/>
<polygon fill="midnightblue" stroke="midnightblue" points="652.65,-129.26 642.05,-129.21 650.31,-135.85 652.65,-129.26"/>
</g>
<!-- Node23&#45;&gt;Node15 -->
<g id="edge39" class="edge">
<title>Node23&#45;&gt;Node15</title>
<path fill="none" stroke="midnightblue" d="M732.59,-224.17C735.55,-215.2 739.82,-200.83 741.5,-188 747.98,-138.57 720.73,-59.16 717.5,-56 690.12,-29.21 580.22,-17.67 520.92,-13.3"/>
<polygon fill="midnightblue" stroke="midnightblue" points="521.03,-9.8 510.81,-12.59 520.54,-16.79 521.03,-9.8"/>
</g>
<!-- Node23&#45;&gt;Node21 -->
<g id="edge43" class="edge">
<title>Node23&#45;&gt;Node21</title>
<path fill="none" stroke="midnightblue" d="M730.04,-224.46C730.62,-211.92 730.94,-187.84 726.5,-168 719.65,-137.38 704.15,-104.22 694.02,-84.55"/>
<polygon fill="midnightblue" stroke="midnightblue" points="697.04,-82.79 689.28,-75.58 690.85,-86.05 697.04,-82.79"/>
</g>
<!-- Node24 -->
<g id="node24" class="node">
<title>Node24</title>
<g id="a_node24"><a xlink:title=" ">
<polygon fill="white" stroke="#bfbfbf" points="831,-168.5 831,-187.5 880,-187.5 880,-168.5 831,-168.5"/>
<text text-anchor="middle" x="855.5" y="-175.5" font-family="Helvetica,sans-Serif" font-size="10.00">cstdlib</text>
</a>
</g>
</g>
<!-- Node23&#45;&gt;Node24 -->
<g id="edge37" class="edge">
<title>Node23&#45;&gt;Node24</title>
<path fill="none" stroke="midnightblue" d="M749.47,-224.44C770.11,-215.6 802.56,-201.69 826.13,-191.59"/>
<polygon fill="midnightblue" stroke="midnightblue" points="827.82,-194.67 835.63,-187.52 825.06,-188.24 827.82,-194.67"/>
</g>
<!-- Node25 -->
<g id="node25" class="node">
<title>Node25</title>
<g id="a_node25"><a xlink:title=" ">
<polygon fill="white" stroke="#bfbfbf" points="898.5,-168.5 898.5,-187.5 954.5,-187.5 954.5,-168.5 898.5,-168.5"/>
<text text-anchor="middle" x="926.5" y="-175.5" font-family="Helvetica,sans-Serif" font-size="10.00">sstream</text>
</a>
</g>
</g>
<!-- Node23&#45;&gt;Node25 -->
<g id="edge40" class="edge">
<title>Node23&#45;&gt;Node25</title>
<path fill="none" stroke="midnightblue" d="M753.26,-226.49C786.85,-217.28 848.56,-200.37 888.53,-189.41"/>
<polygon fill="midnightblue" stroke="midnightblue" points="889.48,-192.78 898.2,-186.76 887.63,-186.03 889.48,-192.78"/>
</g>
</g>
</svg>
