<?xml version="1.0" encoding="UTF-8" standalone="no"?>
<!DOCTYPE svg PUBLIC "-//W3C//DTD SVG 1.1//EN"
 "http://www.w3.org/Graphics/SVG/1.1/DTD/svg11.dtd">
<!-- Generated by graphviz version 2.43.0 (0)
 -->
<!-- Title: set Pages: 1 -->
<svg width="844pt" height="166pt"
 viewBox="0.00 0.00 844.00 165.50" xmlns="http://www.w3.org/2000/svg" xmlns:xlink="http://www.w3.org/1999/xlink">
<g id="graph0" class="graph" transform="scale(1 1) rotate(0) translate(4 161.5)">
<title>set</title>
<polygon fill="white" stroke="transparent" points="-4,4 -4,-161.5 840,-161.5 840,4 -4,4"/>
<!-- Node1 -->
<g id="node1" class="node">
<title>Node1</title>
<g id="a_node1"><a xlink:title=" ">
<polygon fill="#bfbfbf" stroke="black" points="804,-66.5 804,-85.5 836,-85.5 836,-66.5 804,-66.5"/>
<text text-anchor="middle" x="820" y="-73.5" font-family="Helvetica,sans-Serif" font-size="10.00">set</text>
</a>
</g>
</g>
<!-- Node2 -->
<g id="node2" class="node">
<title>Node2</title>
<g id="a_node2"><a xlink:href="namespacetest_random_order.html#a76212030c0dc3bff2e65ed89afc3f948" target="_top" xlink:title=" ">
<polygon fill="white" stroke="black" points="615.5,-127 615.5,-157 749.5,-157 749.5,-127 615.5,-127"/>
<text text-anchor="start" x="623.5" y="-145" font-family="Helvetica,sans-Serif" font-size="10.00">testRandomOrder.check</text>
<text text-anchor="middle" x="682.5" y="-134" font-family="Helvetica,sans-Serif" font-size="10.00">_is_sublist_of</text>
</a>
</g>
</g>
<!-- Node1&#45;&gt;Node2 -->
<g id="edge1" class="edge">
<title>Node1&#45;&gt;Node2</title>
<path fill="none" stroke="midnightblue" d="M801.85,-92.61C792.48,-100.93 780.3,-110.56 768,-117 760.82,-120.76 752.99,-124.04 745.08,-126.87"/>
<polygon fill="midnightblue" stroke="midnightblue" points="804.3,-95.11 809.29,-85.76 799.56,-89.96 804.3,-95.11"/>
</g>
<!-- Node4 -->
<g id="node4" class="node">
<title>Node4</title>
<g id="a_node4"><a xlink:href="namespacegenerate_single_header.html#a33017d9fd8c57447609328827046734b" target="_top" xlink:title=" ">
<polygon fill="white" stroke="black" points="597,-88.5 597,-107.5 768,-107.5 768,-88.5 597,-88.5"/>
<text text-anchor="middle" x="682.5" y="-95.5" font-family="Helvetica,sans-Serif" font-size="10.00">generateSingleHeader.generate</text>
</a>
</g>
</g>
<!-- Node1&#45;&gt;Node4 -->
<g id="edge3" class="edge">
<title>Node1&#45;&gt;Node4</title>
<path fill="none" stroke="midnightblue" d="M793.8,-80.09C779.24,-82.46 760.28,-85.53 742.2,-88.47"/>
<polygon fill="midnightblue" stroke="midnightblue" points="794.67,-83.5 803.98,-78.44 793.55,-76.59 794.67,-83.5"/>
</g>
<!-- Node6 -->
<g id="node6" class="node">
<title>Node6</title>
<g id="a_node6"><a xlink:href="namespaceupdate_document_to_c.html#a956b066e815f1e3b053f5fd82a0808aa" target="_top" xlink:title=" ">
<polygon fill="white" stroke="black" points="605,-39 605,-69 760,-69 760,-39 605,-39"/>
<text text-anchor="start" x="613" y="-57" font-family="Helvetica,sans-Serif" font-size="10.00">updateDocumentToC.tagAnd</text>
<text text-anchor="middle" x="682.5" y="-46" font-family="Helvetica,sans-Serif" font-size="10.00">Collect</text>
</a>
</g>
</g>
<!-- Node1&#45;&gt;Node6 -->
<g id="edge5" class="edge">
<title>Node1&#45;&gt;Node6</title>
<path fill="none" stroke="midnightblue" d="M793.86,-71.92C784.07,-70.33 772.27,-68.41 760.09,-66.44"/>
<polygon fill="midnightblue" stroke="midnightblue" points="793.55,-75.41 803.98,-73.56 794.67,-68.5 793.55,-75.41"/>
</g>
<!-- Node10 -->
<g id="node10" class="node">
<title>Node10</title>
<g id="a_node10"><a xlink:href="_to_string_general_8tests_8cpp.html#ac0b70ac633229712751fb7a26637f8b0" target="_top" xlink:title=" ">
<polygon fill="white" stroke="black" points="647,-0.5 647,-19.5 718,-19.5 718,-0.5 647,-0.5"/>
<text text-anchor="middle" x="682.5" y="-7.5" font-family="Helvetica,sans-Serif" font-size="10.00">TEST_CASE</text>
</a>
</g>
</g>
<!-- Node1&#45;&gt;Node10 -->
<g id="edge9" class="edge">
<title>Node1&#45;&gt;Node10</title>
<path fill="none" stroke="midnightblue" d="M804.72,-58.93C795.31,-48.75 782.14,-36.41 768,-29 752.69,-20.97 734.08,-16.32 718.23,-13.63"/>
<polygon fill="midnightblue" stroke="midnightblue" points="802.17,-61.32 811.41,-66.49 807.41,-56.68 802.17,-61.32"/>
</g>
<!-- Node3 -->
<g id="node3" class="node">
<title>Node3</title>
<g id="a_node3"><a xlink:href="namespacetest_random_order.html#a9a118d8ea77d1135b9e1477a77b21fa4" target="_top" xlink:title=" ">
<polygon fill="white" stroke="black" points="406.5,-132.5 406.5,-151.5 536.5,-151.5 536.5,-132.5 406.5,-132.5"/>
<text text-anchor="middle" x="471.5" y="-139.5" font-family="Helvetica,sans-Serif" font-size="10.00">testRandomOrder.main</text>
</a>
</g>
</g>
<!-- Node2&#45;&gt;Node3 -->
<g id="edge2" class="edge">
<title>Node2&#45;&gt;Node3</title>
<path fill="none" stroke="midnightblue" d="M605.2,-142C582.74,-142 558.4,-142 536.77,-142"/>
<polygon fill="midnightblue" stroke="midnightblue" points="605.37,-145.5 615.37,-142 605.37,-138.5 605.37,-145.5"/>
</g>
<!-- Node5 -->
<g id="node5" class="node">
<title>Node5</title>
<g id="a_node5"><a xlink:href="namespacerelease_common.html#a743db386bf8f9f2e42543e63cecb6f14" target="_top" xlink:title=" ">
<polygon fill="white" stroke="black" points="382,-88.5 382,-107.5 561,-107.5 561,-88.5 382,-88.5"/>
<text text-anchor="middle" x="471.5" y="-95.5" font-family="Helvetica,sans-Serif" font-size="10.00">releaseCommon.performUpdates</text>
</a>
</g>
</g>
<!-- Node4&#45;&gt;Node5 -->
<g id="edge4" class="edge">
<title>Node4&#45;&gt;Node5</title>
<path fill="none" stroke="midnightblue" d="M586.52,-98C578.04,-98 569.49,-98 561.07,-98"/>
<polygon fill="midnightblue" stroke="midnightblue" points="586.79,-101.5 596.79,-98 586.79,-94.5 586.79,-101.5"/>
</g>
<!-- Node7 -->
<g id="node7" class="node">
<title>Node7</title>
<g id="a_node7"><a xlink:href="namespaceupdate_document_to_c.html#af8fa32ceffe8e374bcf15ae6174568c9" target="_top" xlink:title=" ">
<polygon fill="white" stroke="black" points="385,-39 385,-69 558,-69 558,-39 385,-39"/>
<text text-anchor="start" x="393" y="-57" font-family="Helvetica,sans-Serif" font-size="10.00">updateDocumentToC.markdown</text>
<text text-anchor="middle" x="471.5" y="-46" font-family="Helvetica,sans-Serif" font-size="10.00">Toclify</text>
</a>
</g>
</g>
<!-- Node6&#45;&gt;Node7 -->
<g id="edge6" class="edge">
<title>Node6&#45;&gt;Node7</title>
<path fill="none" stroke="midnightblue" d="M594.82,-54C582.75,-54 570.36,-54 558.3,-54"/>
<polygon fill="midnightblue" stroke="midnightblue" points="594.86,-57.5 604.86,-54 594.86,-50.5 594.86,-57.5"/>
</g>
<!-- Node8 -->
<g id="node8" class="node">
<title>Node8</title>
<g id="a_node8"><a xlink:href="namespaceupdate_document_to_c.html#a922b50b4494d30587893779a1d968f79" target="_top" xlink:title=" ">
<polygon fill="white" stroke="black" points="191,-39 191,-69 346,-69 346,-39 191,-39"/>
<text text-anchor="start" x="199" y="-57" font-family="Helvetica,sans-Serif" font-size="10.00">updateDocumentToC.update</text>
<text text-anchor="middle" x="268.5" y="-46" font-family="Helvetica,sans-Serif" font-size="10.00">SingleDocumentToC</text>
</a>
</g>
</g>
<!-- Node7&#45;&gt;Node8 -->
<g id="edge7" class="edge">
<title>Node7&#45;&gt;Node8</title>
<path fill="none" stroke="midnightblue" d="M374.91,-54C365.23,-54 355.49,-54 346.05,-54"/>
<polygon fill="midnightblue" stroke="midnightblue" points="374.97,-57.5 384.97,-54 374.97,-50.5 374.97,-57.5"/>
</g>
<!-- Node9 -->
<g id="node9" class="node">
<title>Node9</title>
<g id="a_node9"><a xlink:href="namespaceupdate_document_to_c.html#ae316b92e2ba60a8c20f7751985a2d9ad" target="_top" xlink:title=" ">
<polygon fill="white" stroke="black" points="0,-39 0,-69 155,-69 155,-39 0,-39"/>
<text text-anchor="start" x="8" y="-57" font-family="Helvetica,sans-Serif" font-size="10.00">updateDocumentToC.update</text>
<text text-anchor="middle" x="77.5" y="-46" font-family="Helvetica,sans-Serif" font-size="10.00">DocumentToC</text>
</a>
</g>
</g>
<!-- Node8&#45;&gt;Node9 -->
<g id="edge8" class="edge">
<title>Node8&#45;&gt;Node9</title>
<path fill="none" stroke="midnightblue" d="M180.9,-54C172.33,-54 163.67,-54 155.21,-54"/>
<polygon fill="midnightblue" stroke="midnightblue" points="180.9,-57.5 190.9,-54 180.9,-50.5 180.9,-57.5"/>
</g>
</g>
</svg>
