<?xml version="1.0" encoding="UTF-8" standalone="no"?>
<!DOCTYPE svg PUBLIC "-//W3C//DTD SVG 1.1//EN"
 "http://www.w3.org/Graphics/SVG/1.1/DTD/svg11.dtd">
<!-- Generated by graphviz version 2.43.0 (0)
 -->
<!-- Title: Catch::parseTestSpec Pages: 1 -->
<svg width="643pt" height="173pt"
 viewBox="0.00 0.00 643.00 172.50" xmlns="http://www.w3.org/2000/svg" xmlns:xlink="http://www.w3.org/1999/xlink">
<g id="graph0" class="graph" transform="scale(1 1) rotate(0) translate(4 168.5)">
<title>Catch::parseTestSpec</title>
<polygon fill="white" stroke="transparent" points="-4,4 -4,-168.5 639,-168.5 639,4 -4,4"/>
<!-- Node1 -->
<g id="node1" class="node">
<title>Node1</title>
<g id="a_node1"><a xlink:title=" ">
<polygon fill="#bfbfbf" stroke="black" points="0,-55 0,-74 120,-74 120,-55 0,-55"/>
<text text-anchor="middle" x="60" y="-62" font-family="Helvetica,sans-Serif" font-size="10.00">Catch::parseTestSpec</text>
</a>
</g>
</g>
<!-- Node2 -->
<g id="node2" class="node">
<title>Node2</title>
<g id="a_node2"><a xlink:href="struct_catch_1_1_i_tag_alias_registry.html#a7c4bf6e2fc52de95fb2596ba19b3bf76" target="_top" xlink:title=" ">
<polygon fill="white" stroke="black" points="156,-101 156,-120 311,-120 311,-101 156,-101"/>
<text text-anchor="middle" x="233.5" y="-108" font-family="Helvetica,sans-Serif" font-size="10.00">Catch::ITagAliasRegistry::get</text>
</a>
</g>
</g>
<!-- Node1&#45;&gt;Node2 -->
<g id="edge1" class="edge">
<title>Node1&#45;&gt;Node2</title>
<path fill="none" stroke="midnightblue" d="M96.53,-74.03C122.86,-81.09 158.95,-90.77 187.32,-98.38"/>
<polygon fill="midnightblue" stroke="midnightblue" points="186.45,-101.77 197.01,-100.98 188.26,-95.01 186.45,-101.77"/>
</g>
<!-- Node6 -->
<g id="node6" class="node">
<title>Node6</title>
<g id="a_node6"><a xlink:href="class_catch_1_1_test_spec_parser.html#ae64a39ddb12beec3f884ff2905682213" target="_top" xlink:title=" ">
<polygon fill="white" stroke="black" points="172,-49.5 172,-79.5 295,-79.5 295,-49.5 172,-49.5"/>
<text text-anchor="start" x="180" y="-67.5" font-family="Helvetica,sans-Serif" font-size="10.00">Catch::TestSpecParser</text>
<text text-anchor="middle" x="233.5" y="-56.5" font-family="Helvetica,sans-Serif" font-size="10.00">::parse</text>
</a>
</g>
</g>
<!-- Node1&#45;&gt;Node6 -->
<g id="edge5" class="edge">
<title>Node1&#45;&gt;Node6</title>
<path fill="none" stroke="midnightblue" d="M120.02,-64.5C133.51,-64.5 147.98,-64.5 161.9,-64.5"/>
<polygon fill="midnightblue" stroke="midnightblue" points="161.91,-68 171.91,-64.5 161.91,-61 161.91,-68"/>
</g>
<!-- Node8 -->
<g id="node8" class="node">
<title>Node8</title>
<g id="a_node8"><a xlink:href="class_catch_1_1_test_spec_parser.html#add7c2909cf42d02e83d504956dc3e8bc" target="_top" xlink:title=" ">
<polygon fill="white" stroke="black" points="172,-0.5 172,-30.5 295,-30.5 295,-0.5 172,-0.5"/>
<text text-anchor="start" x="180" y="-18.5" font-family="Helvetica,sans-Serif" font-size="10.00">Catch::TestSpecParser</text>
<text text-anchor="middle" x="233.5" y="-7.5" font-family="Helvetica,sans-Serif" font-size="10.00">::testSpec</text>
</a>
</g>
</g>
<!-- Node1&#45;&gt;Node8 -->
<g id="edge7" class="edge">
<title>Node1&#45;&gt;Node8</title>
<path fill="none" stroke="midnightblue" d="M94.47,-54.94C116,-48.79 144.62,-40.61 170.23,-33.29"/>
<polygon fill="midnightblue" stroke="midnightblue" points="171.22,-36.65 179.87,-30.54 169.29,-29.92 171.22,-36.65"/>
</g>
<!-- Node3 -->
<g id="node3" class="node">
<title>Node3</title>
<g id="a_node3"><a xlink:href="namespace_catch.html#a5d328566cb8da87b48f1fac3f319ac7a" target="_top" xlink:title=" ">
<polygon fill="white" stroke="black" points="351,-145 351,-164 477,-164 477,-145 351,-145"/>
<text text-anchor="middle" x="414" y="-152" font-family="Helvetica,sans-Serif" font-size="10.00">Catch::getRegistryHub</text>
</a>
</g>
</g>
<!-- Node2&#45;&gt;Node3 -->
<g id="edge2" class="edge">
<title>Node2&#45;&gt;Node3</title>
<path fill="none" stroke="midnightblue" d="M273.23,-120.05C300.01,-126.65 335.85,-135.48 364.52,-142.55"/>
<polygon fill="midnightblue" stroke="midnightblue" points="363.8,-145.98 374.34,-144.97 365.47,-139.18 363.8,-145.98"/>
</g>
<!-- Node5 -->
<g id="node5" class="node">
<title>Node5</title>
<g id="a_node5"><a xlink:href="struct_catch_1_1_i_registry_hub.html#a3c511b1d33e5a6d95c333a0ff387df1a" target="_top" xlink:title=" ">
<polygon fill="white" stroke="black" points="354.5,-95.5 354.5,-125.5 473.5,-125.5 473.5,-95.5 354.5,-95.5"/>
<text text-anchor="start" x="362.5" y="-113.5" font-family="Helvetica,sans-Serif" font-size="10.00">Catch::IRegistryHub</text>
<text text-anchor="middle" x="414" y="-102.5" font-family="Helvetica,sans-Serif" font-size="10.00">::getTagAliasRegistry</text>
</a>
</g>
</g>
<!-- Node2&#45;&gt;Node5 -->
<g id="edge4" class="edge">
<title>Node2&#45;&gt;Node5</title>
<path fill="none" stroke="midnightblue" d="M311.24,-110.5C322.19,-110.5 333.4,-110.5 344.2,-110.5"/>
<polygon fill="midnightblue" stroke="midnightblue" points="344.39,-114 354.39,-110.5 344.39,-107 344.39,-114"/>
</g>
<!-- Node4 -->
<g id="node4" class="node">
<title>Node4</title>
<g id="a_node4"><a xlink:href="class_catch_1_1_singleton.html#aa1b2bb002acd8838489a225dbbaf2865" target="_top" xlink:title=" ">
<polygon fill="white" stroke="black" points="517,-145 517,-164 635,-164 635,-145 517,-145"/>
<text text-anchor="middle" x="576" y="-152" font-family="Helvetica,sans-Serif" font-size="10.00">Catch::Singleton::get</text>
</a>
</g>
</g>
<!-- Node3&#45;&gt;Node4 -->
<g id="edge3" class="edge">
<title>Node3&#45;&gt;Node4</title>
<path fill="none" stroke="midnightblue" d="M477.32,-154.5C486.96,-154.5 496.96,-154.5 506.72,-154.5"/>
<polygon fill="midnightblue" stroke="midnightblue" points="506.78,-158 516.78,-154.5 506.78,-151 506.78,-158"/>
</g>
<!-- Node7 -->
<g id="node7" class="node">
<title>Node7</title>
<g id="a_node7"><a xlink:href="struct_catch_1_1_i_tag_alias_registry.html#ae729a7532faf7466db1a157ce0395170" target="_top" xlink:title=" ">
<polygon fill="white" stroke="black" points="347,-46.5 347,-76.5 481,-76.5 481,-46.5 347,-46.5"/>
<text text-anchor="start" x="355" y="-64.5" font-family="Helvetica,sans-Serif" font-size="10.00">Catch::ITagAliasRegistry</text>
<text text-anchor="middle" x="414" y="-53.5" font-family="Helvetica,sans-Serif" font-size="10.00">::expandAliases</text>
</a>
</g>
</g>
<!-- Node6&#45;&gt;Node7 -->
<g id="edge6" class="edge">
<title>Node6&#45;&gt;Node7</title>
<path fill="none" stroke="midnightblue" d="M295.43,-63.48C308.63,-63.25 322.75,-63.02 336.46,-62.79"/>
<polygon fill="midnightblue" stroke="midnightblue" points="336.91,-66.28 346.85,-62.61 336.79,-59.28 336.91,-66.28"/>
</g>
</g>
</svg>
