<?xml version="1.0" encoding="UTF-8" standalone="no"?>
<!DOCTYPE svg PUBLIC "-//W3C//DTD SVG 1.1//EN"
 "http://www.w3.org/Graphics/SVG/1.1/DTD/svg11.dtd">
<!-- Generated by graphviz version 2.43.0 (0)
 -->
<!-- Title: benchmarkCompile.generate_files Pages: 1 -->
<svg width="1013pt" height="152pt"
 viewBox="0.00 0.00 1013.00 151.80" xmlns="http://www.w3.org/2000/svg" xmlns:xlink="http://www.w3.org/1999/xlink">
<g id="graph0" class="graph" transform="scale(1 1) rotate(0) translate(4 147.8)">
<title>benchmarkCompile.generate_files</title>
<polygon fill="white" stroke="transparent" points="-4,4 -4,-147.8 1009,-147.8 1009,4 -4,4"/>
<!-- Node1 -->
<g id="node1" class="node">
<title>Node1</title>
<g id="a_node1"><a xlink:title=" ">
<polygon fill="#bfbfbf" stroke="black" points="0,-47.3 0,-77.3 158,-77.3 158,-47.3 0,-47.3"/>
<text text-anchor="start" x="8" y="-65.3" font-family="Helvetica,sans-Serif" font-size="10.00">benchmarkCompile.generate</text>
<text text-anchor="middle" x="79" y="-54.3" font-family="Helvetica,sans-Serif" font-size="10.00">_files</text>
</a>
</g>
</g>
<!-- Node2 -->
<g id="node2" class="node">
<title>Node2</title>
<g id="a_node2"><a xlink:href="namespacebenchmark_compile.html#a5d11f2d6c59478c81cc0df4505c0d79f" target="_top" xlink:title=" ">
<polygon fill="white" stroke="black" points="210.5,-91.3 210.5,-121.3 356.5,-121.3 356.5,-91.3 210.5,-91.3"/>
<text text-anchor="start" x="218.5" y="-109.3" font-family="Helvetica,sans-Serif" font-size="10.00">benchmarkCompile.create</text>
<text text-anchor="middle" x="283.5" y="-98.3" font-family="Helvetica,sans-Serif" font-size="10.00">_catch_main</text>
</a>
</g>
</g>
<!-- Node1&#45;&gt;Node2 -->
<g id="edge1" class="edge">
<title>Node1&#45;&gt;Node2</title>
<path fill="none" stroke="midnightblue" d="M149.12,-77.31C166.62,-81.12 185.55,-85.23 203.49,-89.13"/>
<polygon fill="midnightblue" stroke="midnightblue" points="202.83,-92.57 213.35,-91.27 204.32,-85.73 202.83,-92.57"/>
</g>
<!-- Node3 -->
<g id="node3" class="node">
<title>Node3</title>
<g id="a_node3"><a xlink:href="namespacebenchmark_compile.html#aaeae3f169013ee5801626dc0ef6b734f" target="_top" xlink:title=" ">
<polygon fill="white" stroke="black" points="194,-52.8 194,-71.8 373,-71.8 373,-52.8 194,-52.8"/>
<text text-anchor="middle" x="283.5" y="-59.8" font-family="Helvetica,sans-Serif" font-size="10.00">benchmarkCompile.generate_file</text>
</a>
</g>
</g>
<!-- Node1&#45;&gt;Node3 -->
<g id="edge2" class="edge">
<title>Node1&#45;&gt;Node3</title>
<path fill="none" stroke="midnightblue" d="M158,-62.3C166.41,-62.3 175.05,-62.3 183.66,-62.3"/>
<polygon fill="midnightblue" stroke="midnightblue" points="183.74,-65.8 193.74,-62.3 183.74,-58.8 183.74,-65.8"/>
</g>
<!-- Node5 -->
<g id="node5" class="node">
<title>Node5</title>
<g id="a_node5"><a xlink:href="namespace_catch_1_1_generators.html#a6e53e65dfedc4d39febcb7b2b862afd9" target="_top" xlink:title=" ">
<polygon fill="white" stroke="black" points="603,-47.3 603,-77.3 713,-77.3 713,-47.3 603,-47.3"/>
<text text-anchor="start" x="611" y="-65.3" font-family="Helvetica,sans-Serif" font-size="10.00">Catch::Generators::</text>
<text text-anchor="middle" x="658" y="-54.3" font-family="Helvetica,sans-Serif" font-size="10.00">range</text>
</a>
</g>
</g>
<!-- Node1&#45;&gt;Node5 -->
<g id="edge11" class="edge">
<title>Node1&#45;&gt;Node5</title>
<path fill="none" stroke="midnightblue" d="M127.77,-47.27C215.9,-21.82 409.44,23.37 567,-15.3 588.09,-20.47 609.72,-31.55 626.49,-41.65"/>
<polygon fill="midnightblue" stroke="midnightblue" points="624.93,-44.8 635.27,-47.12 628.63,-38.86 624.93,-44.8"/>
</g>
<!-- Node4 -->
<g id="node4" class="node">
<title>Node4</title>
<g id="a_node4"><a xlink:href="namespacebenchmark_compile.html#a467d219dfb56b5c90903a9f91ab0def4" target="_top" xlink:title=" ">
<polygon fill="white" stroke="black" points="420,-113.3 420,-143.3 556,-143.3 556,-113.3 420,-113.3"/>
<text text-anchor="start" x="428" y="-131.3" font-family="Helvetica,sans-Serif" font-size="10.00">benchmarkCompile.char</text>
<text text-anchor="middle" x="488" y="-120.3" font-family="Helvetica,sans-Serif" font-size="10.00">_range</text>
</a>
</g>
</g>
<!-- Node3&#45;&gt;Node4 -->
<g id="edge3" class="edge">
<title>Node3&#45;&gt;Node4</title>
<path fill="none" stroke="midnightblue" d="M334.59,-71.82C347.25,-74.72 360.74,-78.23 373,-82.3 389.62,-87.81 392.82,-91.59 409,-98.3 418.05,-102.05 427.76,-105.9 437.14,-109.55"/>
<polygon fill="midnightblue" stroke="midnightblue" points="436.17,-112.93 446.76,-113.27 438.69,-106.4 436.17,-112.93"/>
</g>
<!-- Node3&#45;&gt;Node5 -->
<g id="edge10" class="edge">
<title>Node3&#45;&gt;Node5</title>
<path fill="none" stroke="midnightblue" d="M373.25,-63.9C385.27,-64.06 397.44,-64.2 409,-64.3 479.22,-64.86 496.78,-65.08 567,-64.3 575.31,-64.2 584.06,-64.06 592.69,-63.9"/>
<polygon fill="midnightblue" stroke="midnightblue" points="592.82,-67.4 602.75,-63.7 592.68,-60.4 592.82,-67.4"/>
</g>
<!-- Node8 -->
<g id="node8" class="node">
<title>Node8</title>
<g id="a_node8"><a xlink:href="namespacebenchmark_compile.html#a8e2bece2b3c7e820d40681edf3f8433f" target="_top" xlink:title=" ">
<polygon fill="white" stroke="black" points="409,-25.3 409,-55.3 567,-55.3 567,-25.3 409,-25.3"/>
<text text-anchor="start" x="417" y="-43.3" font-family="Helvetica,sans-Serif" font-size="10.00">benchmarkCompile.generate</text>
<text text-anchor="middle" x="488" y="-32.3" font-family="Helvetica,sans-Serif" font-size="10.00">_sections</text>
</a>
</g>
</g>
<!-- Node3&#45;&gt;Node8 -->
<g id="edge8" class="edge">
<title>Node3&#45;&gt;Node8</title>
<path fill="none" stroke="midnightblue" d="M372.14,-52.77C380.9,-51.82 389.8,-50.86 398.56,-49.9"/>
<polygon fill="midnightblue" stroke="midnightblue" points="399.21,-53.35 408.78,-48.79 398.46,-46.39 399.21,-53.35"/>
</g>
<!-- Node4&#45;&gt;Node5 -->
<g id="edge4" class="edge">
<title>Node4&#45;&gt;Node5</title>
<path fill="none" stroke="midnightblue" d="M528.32,-113.29C540.71,-108.53 554.44,-103.22 567,-98.3 581,-92.8 596.2,-86.76 610.04,-81.21"/>
<polygon fill="midnightblue" stroke="midnightblue" points="611.41,-84.44 619.39,-77.47 608.8,-77.94 611.41,-84.44"/>
</g>
<!-- Node6 -->
<g id="node6" class="node">
<title>Node6</title>
<g id="a_node6"><a xlink:href="namespace_catch_1_1_generators_1_1pf.html#a015e8fcef2972da878a07023e40d46d8" target="_top" xlink:title=" ">
<polygon fill="white" stroke="black" points="895,-47.3 895,-77.3 1005,-77.3 1005,-47.3 895,-47.3"/>
<text text-anchor="start" x="903" y="-65.3" font-family="Helvetica,sans-Serif" font-size="10.00">Catch::Generators::</text>
<text text-anchor="middle" x="950" y="-54.3" font-family="Helvetica,sans-Serif" font-size="10.00">pf::make_unique</text>
</a>
</g>
</g>
<!-- Node5&#45;&gt;Node6 -->
<g id="edge5" class="edge">
<title>Node5&#45;&gt;Node6</title>
<path fill="none" stroke="midnightblue" d="M713.25,-63.7C725.04,-63.95 737.44,-64.17 749,-64.3 797.89,-64.84 810.11,-64.84 859,-64.3 867.31,-64.2 876.06,-64.06 884.69,-63.9"/>
<polygon fill="midnightblue" stroke="midnightblue" points="884.82,-67.4 894.75,-63.7 884.68,-60.4 884.82,-67.4"/>
</g>
<!-- Node7 -->
<g id="node7" class="node">
<title>Node7</title>
<g id="a_node7"><a xlink:href="namespace_catch_1_1_generators.html#a3b2efc97978cf37951b75394aae1a3fb" target="_top" xlink:title=" ">
<polygon fill="white" stroke="black" points="749,-25.3 749,-55.3 859,-55.3 859,-25.3 749,-25.3"/>
<text text-anchor="start" x="757" y="-43.3" font-family="Helvetica,sans-Serif" font-size="10.00">Catch::Generators::</text>
<text text-anchor="middle" x="804" y="-32.3" font-family="Helvetica,sans-Serif" font-size="10.00">value</text>
</a>
</g>
</g>
<!-- Node5&#45;&gt;Node7 -->
<g id="edge6" class="edge">
<title>Node5&#45;&gt;Node7</title>
<path fill="none" stroke="midnightblue" d="M713.03,-54.04C721.4,-52.76 730.13,-51.43 738.7,-50.12"/>
<polygon fill="midnightblue" stroke="midnightblue" points="739.31,-53.57 748.67,-48.6 738.25,-46.65 739.31,-53.57"/>
</g>
<!-- Node7&#45;&gt;Node6 -->
<g id="edge7" class="edge">
<title>Node7&#45;&gt;Node6</title>
<path fill="none" stroke="midnightblue" d="M859.03,-48.55C867.4,-49.83 876.13,-51.16 884.7,-52.47"/>
<polygon fill="midnightblue" stroke="midnightblue" points="884.25,-55.94 894.67,-53.99 885.31,-49.02 884.25,-55.94"/>
</g>
<!-- Node8&#45;&gt;Node5 -->
<g id="edge9" class="edge">
<title>Node8&#45;&gt;Node5</title>
<path fill="none" stroke="midnightblue" d="M567.1,-50.52C575.63,-51.64 584.24,-52.77 592.57,-53.86"/>
<polygon fill="midnightblue" stroke="midnightblue" points="592.22,-57.34 602.59,-55.17 593.12,-50.4 592.22,-57.34"/>
</g>
</g>
</svg>
