<?xml version="1.0" encoding="UTF-8" standalone="no"?>
<!DOCTYPE svg PUBLIC "-//W3C//DTD SVG 1.1//EN"
 "http://www.w3.org/Graphics/SVG/1.1/DTD/svg11.dtd">
<!-- Generated by graphviz version 2.43.0 (0)
 -->
<!-- Title: releaseCommon.updateDocumentationVersionPlaceholders Pages: 1 -->
<svg width="511pt" height="78pt"
 viewBox="0.00 0.00 511.00 77.50" xmlns="http://www.w3.org/2000/svg" xmlns:xlink="http://www.w3.org/1999/xlink">
<g id="graph0" class="graph" transform="scale(1 1) rotate(0) translate(4 73.5)">
<title>releaseCommon.updateDocumentationVersionPlaceholders</title>
<polygon fill="white" stroke="transparent" points="-4,4 -4,-73.5 507,-73.5 507,4 -4,4"/>
<!-- Node1 -->
<g id="node1" class="node">
<title>Node1</title>
<g id="a_node1"><a xlink:title=" ">
<polygon fill="#bfbfbf" stroke="black" points="0,-22.5 0,-52.5 209,-52.5 209,-22.5 0,-22.5"/>
<text text-anchor="start" x="8" y="-40.5" font-family="Helvetica,sans-Serif" font-size="10.00">releaseCommon.updateDocumentation</text>
<text text-anchor="middle" x="104.5" y="-29.5" font-family="Helvetica,sans-Serif" font-size="10.00">VersionPlaceholders</text>
</a>
</g>
</g>
<!-- Node2 -->
<g id="node2" class="node">
<title>Node2</title>
<g id="a_node2"><a xlink:href="210-_evt-_event_listeners_8cpp.html#a91b9457094088a57b7ba14d485a8771e" target="_top" xlink:title=" ">
<polygon fill="white" stroke="black" points="310.5,-50 310.5,-69 349.5,-69 349.5,-50 310.5,-50"/>
<text text-anchor="middle" x="330" y="-57" font-family="Helvetica,sans-Serif" font-size="10.00">print</text>
</a>
</g>
</g>
<!-- Node1&#45;&gt;Node2 -->
<g id="edge1" class="edge">
<title>Node1&#45;&gt;Node2</title>
<path fill="none" stroke="midnightblue" d="M209.07,-47.69C242.39,-50.97 276.68,-54.35 300.02,-56.65"/>
<polygon fill="midnightblue" stroke="midnightblue" points="299.94,-60.16 310.23,-57.65 300.62,-53.19 299.94,-60.16"/>
</g>
<!-- Node4 -->
<g id="node4" class="node">
<title>Node4</title>
<g id="a_node4"><a xlink:href="namespacerelease_common.html#a50ee6f48f7bea8887fd872293e39ca1d" target="_top" xlink:title=" ">
<polygon fill="white" stroke="black" points="245,-0.5 245,-30.5 415,-30.5 415,-0.5 245,-0.5"/>
<text text-anchor="start" x="253" y="-18.5" font-family="Helvetica,sans-Serif" font-size="10.00">releaseCommon.updateVersion</text>
<text text-anchor="middle" x="330" y="-7.5" font-family="Helvetica,sans-Serif" font-size="10.00">Placeholder</text>
</a>
</g>
</g>
<!-- Node1&#45;&gt;Node4 -->
<g id="edge3" class="edge">
<title>Node1&#45;&gt;Node4</title>
<path fill="none" stroke="midnightblue" d="M209.07,-27.31C217.6,-26.47 226.18,-25.62 234.63,-24.79"/>
<polygon fill="midnightblue" stroke="midnightblue" points="235.25,-28.24 244.86,-23.78 234.57,-21.28 235.25,-28.24"/>
</g>
<!-- Node3 -->
<g id="node3" class="node">
<title>Node3</title>
<g id="a_node3"><a xlink:href="210-_evt-_event_listeners_8cpp.html#aaf05ec28baf9169e247960554e9ffbcb" target="_top" xlink:title=" ">
<polygon fill="white" stroke="black" points="462,-50 462,-69 492,-69 492,-50 462,-50"/>
<text text-anchor="middle" x="477" y="-57" font-family="Helvetica,sans-Serif" font-size="10.00">ws</text>
</a>
</g>
</g>
<!-- Node2&#45;&gt;Node3 -->
<g id="edge2" class="edge">
<title>Node2&#45;&gt;Node3</title>
<path fill="none" stroke="midnightblue" d="M349.66,-59.5C375.7,-59.5 422.98,-59.5 451.74,-59.5"/>
<polygon fill="midnightblue" stroke="midnightblue" points="451.77,-63 461.77,-59.5 451.77,-56 451.77,-63"/>
</g>
<!-- Node5 -->
<g id="node5" class="node">
<title>Node5</title>
<g id="a_node5"><a xlink:href="_xml_8tests_8cpp.html#aecd16812a623571d4fa171136057d189" target="_top" xlink:title=" ">
<polygon fill="white" stroke="black" points="451,-6 451,-25 503,-25 503,-6 451,-6"/>
<text text-anchor="middle" x="477" y="-13" font-family="Helvetica,sans-Serif" font-size="10.00">encode</text>
</a>
</g>
</g>
<!-- Node4&#45;&gt;Node5 -->
<g id="edge4" class="edge">
<title>Node4&#45;&gt;Node5</title>
<path fill="none" stroke="midnightblue" d="M415.35,-15.5C424.26,-15.5 432.92,-15.5 440.78,-15.5"/>
<polygon fill="midnightblue" stroke="midnightblue" points="440.95,-19 450.95,-15.5 440.95,-12 440.95,-19"/>
</g>
</g>
</svg>
