<?xml version="1.0" encoding="UTF-8" standalone="no"?>
<!DOCTYPE svg PUBLIC "-//W3C//DTD SVG 1.1//EN"
 "http://www.w3.org/Graphics/SVG/1.1/DTD/svg11.dtd">
<!-- Generated by graphviz version 2.43.0 (0)
 -->
<!-- Title: Catch::list Pages: 1 -->
<svg width="1017pt" height="646pt"
 viewBox="0.00 0.00 1017.00 646.35" xmlns="http://www.w3.org/2000/svg" xmlns:xlink="http://www.w3.org/1999/xlink">
<g id="graph0" class="graph" transform="scale(1 1) rotate(0) translate(4 642.35)">
<title>Catch::list</title>
<polygon fill="white" stroke="transparent" points="-4,4 -4,-642.35 1013,-642.35 1013,4 -4,4"/>
<!-- Node1 -->
<g id="node1" class="node">
<title>Node1</title>
<g id="a_node1"><a xlink:title=" ">
<polygon fill="#bfbfbf" stroke="black" points="0,-228.5 0,-247.5 65,-247.5 65,-228.5 0,-228.5"/>
<text text-anchor="middle" x="32.5" y="-235.5" font-family="Helvetica,sans-Serif" font-size="10.00">Catch::list</text>
</a>
</g>
</g>
<!-- Node2 -->
<g id="node2" class="node">
<title>Node2</title>
<g id="a_node2"><a xlink:href="namespace_catch.html#a710841d4732b86c06f816bd4822bd425" target="_top" xlink:title=" ">
<polygon fill="white" stroke="black" points="103.5,-469 103.5,-499 245.5,-499 245.5,-469 103.5,-469"/>
<text text-anchor="start" x="111.5" y="-487" font-family="Helvetica,sans-Serif" font-size="10.00">Catch::getCurrentMutable</text>
<text text-anchor="middle" x="174.5" y="-476" font-family="Helvetica,sans-Serif" font-size="10.00">Context</text>
</a>
</g>
</g>
<!-- Node1&#45;&gt;Node2 -->
<g id="edge1" class="edge">
<title>Node1&#45;&gt;Node2</title>
<path fill="none" stroke="midnightblue" d="M33.52,-247.93C34.14,-282.18 40.83,-396.64 101,-459 102.39,-460.44 103.86,-461.79 105.4,-463.07"/>
<polygon fill="midnightblue" stroke="midnightblue" points="103.45,-465.97 113.66,-468.83 107.46,-460.23 103.45,-465.97"/>
</g>
<!-- Node3 -->
<g id="node3" class="node">
<title>Node3</title>
<g id="a_node3"><a xlink:href="namespace_catch.html#a372777bee6b529124e0cae35748bb79c" target="_top" xlink:title=" ">
<polygon fill="white" stroke="black" points="118,-430.5 118,-449.5 231,-449.5 231,-430.5 118,-430.5"/>
<text text-anchor="middle" x="174.5" y="-437.5" font-family="Helvetica,sans-Serif" font-size="10.00">Catch::listReporters</text>
</a>
</g>
</g>
<!-- Node1&#45;&gt;Node3 -->
<g id="edge2" class="edge">
<title>Node1&#45;&gt;Node3</title>
<path fill="none" stroke="midnightblue" d="M40.25,-247.74C62.29,-279.54 132.35,-380.62 161.05,-422.04"/>
<polygon fill="midnightblue" stroke="midnightblue" points="158.24,-424.13 166.82,-430.35 164,-420.14 158.24,-424.13"/>
</g>
<!-- Node12 -->
<g id="node12" class="node">
<title>Node12</title>
<g id="a_node12"><a xlink:href="namespace_catch.html#a2226866b4114853fb3ff63dbecc8b0c9" target="_top" xlink:title=" ">
<polygon fill="white" stroke="black" points="131,-190.5 131,-209.5 218,-209.5 218,-190.5 131,-190.5"/>
<text text-anchor="middle" x="174.5" y="-197.5" font-family="Helvetica,sans-Serif" font-size="10.00">Catch::listTags</text>
</a>
</g>
</g>
<!-- Node1&#45;&gt;Node12 -->
<g id="edge11" class="edge">
<title>Node1&#45;&gt;Node12</title>
<path fill="none" stroke="midnightblue" d="M65.06,-228.99C76.38,-225.79 89.25,-222.19 101,-219 109.3,-216.74 118.15,-214.39 126.72,-212.13"/>
<polygon fill="midnightblue" stroke="midnightblue" points="127.8,-215.46 136.58,-209.54 126.02,-208.69 127.8,-215.46"/>
</g>
<!-- Node28 -->
<g id="node28" class="node">
<title>Node28</title>
<g id="a_node28"><a xlink:href="namespace_catch.html#ac2542a1569e5b9dc72206347368a921e" target="_top" xlink:title=" ">
<polygon fill="white" stroke="black" points="129.5,-266.5 129.5,-285.5 219.5,-285.5 219.5,-266.5 129.5,-266.5"/>
<text text-anchor="middle" x="174.5" y="-273.5" font-family="Helvetica,sans-Serif" font-size="10.00">Catch::listTests</text>
</a>
</g>
</g>
<!-- Node1&#45;&gt;Node28 -->
<g id="edge30" class="edge">
<title>Node1&#45;&gt;Node28</title>
<path fill="none" stroke="midnightblue" d="M65.06,-247.01C76.38,-250.21 89.25,-253.81 101,-257 109.3,-259.26 118.15,-261.61 126.72,-263.87"/>
<polygon fill="midnightblue" stroke="midnightblue" points="126.02,-267.31 136.58,-266.46 127.8,-260.54 126.02,-267.31"/>
</g>
<!-- Node31 -->
<g id="node31" class="node">
<title>Node31</title>
<g id="a_node31"><a xlink:href="namespace_catch.html#a7f2d0f82056a4b9adc4204b9a1fbd117" target="_top" xlink:title=" ">
<polygon fill="white" stroke="black" points="101,-228.5 101,-247.5 248,-247.5 248,-228.5 101,-228.5"/>
<text text-anchor="middle" x="174.5" y="-235.5" font-family="Helvetica,sans-Serif" font-size="10.00">Catch::listTestsNamesOnly</text>
</a>
</g>
</g>
<!-- Node1&#45;&gt;Node31 -->
<g id="edge40" class="edge">
<title>Node1&#45;&gt;Node31</title>
<path fill="none" stroke="midnightblue" d="M65.27,-238C73.01,-238 81.64,-238 90.57,-238"/>
<polygon fill="midnightblue" stroke="midnightblue" points="90.74,-241.5 100.74,-238 90.74,-234.5 90.74,-241.5"/>
</g>
<!-- Node33 -->
<g id="node33" class="node">
<title>Node33</title>
<g id="a_node33"><a xlink:href="struct_catch_1_1_i_mutable_context.html#aa81ba080fce084e9482f20338bc88531" target="_top" xlink:title=" ">
<polygon fill="white" stroke="black" points="109,-141 109,-171 240,-171 240,-141 109,-141"/>
<text text-anchor="start" x="117" y="-159" font-family="Helvetica,sans-Serif" font-size="10.00">Catch::IMutableContext</text>
<text text-anchor="middle" x="174.5" y="-148" font-family="Helvetica,sans-Serif" font-size="10.00">::setConfig</text>
</a>
</g>
</g>
<!-- Node1&#45;&gt;Node33 -->
<g id="edge48" class="edge">
<title>Node1&#45;&gt;Node33</title>
<path fill="none" stroke="midnightblue" d="M42.7,-228.26C54.95,-215.78 77.8,-194.18 101,-181 104.71,-178.89 108.63,-176.92 112.65,-175.08"/>
<polygon fill="midnightblue" stroke="midnightblue" points="114.31,-178.18 122.14,-171.04 111.57,-171.73 114.31,-178.18"/>
</g>
<!-- Node34 -->
<g id="node34" class="node">
<title>Node34</title>
<g id="a_node34"><a xlink:href="class_catch_1_1_option.html#a8d9ae2e30b0eb76fe134a6fbc8423124" target="_top" xlink:title=" ">
<polygon fill="white" stroke="black" points="111,-102.5 111,-121.5 238,-121.5 238,-102.5 111,-102.5"/>
<text text-anchor="middle" x="174.5" y="-109.5" font-family="Helvetica,sans-Serif" font-size="10.00">Catch::Option::valueOr</text>
</a>
</g>
</g>
<!-- Node1&#45;&gt;Node34 -->
<g id="edge49" class="edge">
<title>Node1&#45;&gt;Node34</title>
<path fill="none" stroke="midnightblue" d="M36.8,-228.29C44.51,-207.16 65.74,-156.83 101,-131 103.54,-129.14 106.25,-127.46 109.08,-125.94"/>
<polygon fill="midnightblue" stroke="midnightblue" points="110.79,-129 118.41,-121.64 107.87,-122.65 110.79,-129"/>
</g>
<!-- Node4 -->
<g id="node4" class="node">
<title>Node4</title>
<g id="a_node4"><a xlink:href="namespace_catch.html#a0179d453617ba2296f2baa99a49e7264" target="_top" xlink:title=" ">
<polygon fill="white" stroke="black" points="337.5,-304.5 337.5,-323.5 408.5,-323.5 408.5,-304.5 337.5,-304.5"/>
<text text-anchor="middle" x="373" y="-311.5" font-family="Helvetica,sans-Serif" font-size="10.00">Catch::cout</text>
</a>
</g>
</g>
<!-- Node3&#45;&gt;Node4 -->
<g id="edge3" class="edge">
<title>Node3&#45;&gt;Node4</title>
<path fill="none" stroke="midnightblue" d="M182.12,-430.49C197.41,-409.32 237.45,-358.16 284,-333 297.17,-325.88 312.8,-321.43 327.2,-318.65"/>
<polygon fill="midnightblue" stroke="midnightblue" points="328.16,-322.04 337.43,-316.9 326.98,-315.14 328.16,-322.04"/>
</g>
<!-- Node5 -->
<g id="node5" class="node">
<title>Node5</title>
<g id="a_node5"><a xlink:href="struct_catch_1_1_i_reporter_registry.html#a76ffc8a26c38929f370196937ed112b5" target="_top" xlink:title=" ">
<polygon fill="white" stroke="black" points="305,-567 305,-597 441,-597 441,-567 305,-567"/>
<text text-anchor="start" x="313" y="-585" font-family="Helvetica,sans-Serif" font-size="10.00">Catch::IReporterRegistry</text>
<text text-anchor="middle" x="373" y="-574" font-family="Helvetica,sans-Serif" font-size="10.00">::getFactories</text>
</a>
</g>
</g>
<!-- Node3&#45;&gt;Node5 -->
<g id="edge4" class="edge">
<title>Node3&#45;&gt;Node5</title>
<path fill="none" stroke="midnightblue" d="M231.09,-449.26C237.28,-451.98 243.1,-455.49 248,-460 282.14,-491.42 249.81,-526.63 284,-558 287.6,-561.31 291.62,-564.16 295.89,-566.63"/>
<polygon fill="midnightblue" stroke="midnightblue" points="294.47,-569.83 304.98,-571.18 297.6,-563.57 294.47,-569.83"/>
</g>
<!-- Node6 -->
<g id="node6" class="node">
<title>Node6</title>
<g id="a_node6"><a xlink:href="namespace_catch.html#a5d328566cb8da87b48f1fac3f319ac7a" target="_top" xlink:title=" ">
<polygon fill="white" stroke="black" points="508,-468.5 508,-487.5 634,-487.5 634,-468.5 508,-468.5"/>
<text text-anchor="middle" x="571" y="-475.5" font-family="Helvetica,sans-Serif" font-size="10.00">Catch::getRegistryHub</text>
</a>
</g>
</g>
<!-- Node3&#45;&gt;Node6 -->
<g id="edge5" class="edge">
<title>Node3&#45;&gt;Node6</title>
<path fill="none" stroke="midnightblue" d="M231.23,-448.58C237.47,-451.41 243.27,-455.13 248,-460 294.87,-508.25 231.08,-565.48 284,-607 346.24,-655.84 390.32,-640.47 462,-607 511,-584.12 545.62,-526.85 561.03,-496.91"/>
<polygon fill="midnightblue" stroke="midnightblue" points="564.36,-498.07 565.67,-487.56 558.09,-494.96 564.36,-498.07"/>
</g>
<!-- Node8 -->
<g id="node8" class="node">
<title>Node8</title>
<g id="a_node8"><a xlink:href="struct_catch_1_1_i_registry_hub.html#a55534563f7ecf7e20ec1e37285ebe54d" target="_top" xlink:title=" ">
<polygon fill="white" stroke="black" points="312.5,-518 312.5,-548 433.5,-548 433.5,-518 312.5,-518"/>
<text text-anchor="start" x="320.5" y="-536" font-family="Helvetica,sans-Serif" font-size="10.00">Catch::IRegistryHub</text>
<text text-anchor="middle" x="373" y="-525" font-family="Helvetica,sans-Serif" font-size="10.00">::getReporterRegistry</text>
</a>
</g>
</g>
<!-- Node3&#45;&gt;Node8 -->
<g id="edge7" class="edge">
<title>Node3&#45;&gt;Node8</title>
<path fill="none" stroke="midnightblue" d="M226.95,-449.54C234.38,-452.21 241.66,-455.63 248,-460 270.26,-475.33 261.72,-493.7 284,-509 289.7,-512.91 296.02,-516.19 302.57,-518.94"/>
<polygon fill="midnightblue" stroke="midnightblue" points="301.72,-522.35 312.31,-522.59 304.17,-515.8 301.72,-522.35"/>
</g>
<!-- Node9 -->
<g id="node9" class="node">
<title>Node9</title>
<g id="a_node9"><a xlink:href="class_catch_1_1clara_1_1_text_flow_1_1_column.html#a8d5fa87d9f25f27e6948965c62b53867" target="_top" xlink:title=" ">
<polygon fill="white" stroke="black" points="311,-469 311,-499 435,-499 435,-469 311,-469"/>
<text text-anchor="start" x="319" y="-487" font-family="Helvetica,sans-Serif" font-size="10.00">Catch::clara::TextFlow</text>
<text text-anchor="middle" x="373" y="-476" font-family="Helvetica,sans-Serif" font-size="10.00">::Column::indent</text>
</a>
</g>
</g>
<!-- Node3&#45;&gt;Node9 -->
<g id="edge8" class="edge">
<title>Node3&#45;&gt;Node9</title>
<path fill="none" stroke="midnightblue" d="M218.14,-449.55C242.26,-454.95 273.06,-461.85 300.76,-468.05"/>
<polygon fill="midnightblue" stroke="midnightblue" points="300.28,-471.53 310.8,-470.3 301.81,-464.7 300.28,-471.53"/>
</g>
<!-- Node10 -->
<g id="node10" class="node">
<title>Node10</title>
<g id="a_node10"><a xlink:href="class_catch_1_1clara_1_1_text_flow_1_1_column.html#aeb2cbf067c9f99e87057320d78dd524a" target="_top" xlink:title=" ">
<polygon fill="white" stroke="black" points="310.5,-381 310.5,-411 435.5,-411 435.5,-381 310.5,-381"/>
<text text-anchor="start" x="318.5" y="-399" font-family="Helvetica,sans-Serif" font-size="10.00">Catch::clara::TextFlow</text>
<text text-anchor="middle" x="373" y="-388" font-family="Helvetica,sans-Serif" font-size="10.00">::Column::initialIndent</text>
</a>
</g>
</g>
<!-- Node3&#45;&gt;Node10 -->
<g id="edge9" class="edge">
<title>Node3&#45;&gt;Node10</title>
<path fill="none" stroke="midnightblue" d="M218.14,-430.45C242.16,-425.07 272.81,-418.21 300.41,-412.03"/>
<polygon fill="midnightblue" stroke="midnightblue" points="301.43,-415.39 310.43,-409.79 299.9,-408.56 301.43,-415.39"/>
</g>
<!-- Node11 -->
<g id="node11" class="node">
<title>Node11</title>
<g id="a_node11"><a xlink:href="xml_8sw_8approved_8txt.html#ab8b8577604b92144025744c78797c3bc" target="_top" xlink:title=" ">
<polygon fill="white" stroke="black" points="350.5,-430.5 350.5,-449.5 395.5,-449.5 395.5,-430.5 350.5,-430.5"/>
<text text-anchor="middle" x="373" y="-437.5" font-family="Helvetica,sans-Serif" font-size="10.00">size_t</text>
</a>
</g>
</g>
<!-- Node3&#45;&gt;Node11 -->
<g id="edge10" class="edge">
<title>Node3&#45;&gt;Node11</title>
<path fill="none" stroke="midnightblue" d="M231.02,-440C266.2,-440 310.45,-440 339.89,-440"/>
<polygon fill="midnightblue" stroke="midnightblue" points="340.03,-443.5 350.03,-440 340.03,-436.5 340.03,-443.5"/>
</g>
<!-- Node7 -->
<g id="node7" class="node">
<title>Node7</title>
<g id="a_node7"><a xlink:href="class_catch_1_1_singleton.html#aa1b2bb002acd8838489a225dbbaf2865" target="_top" xlink:title=" ">
<polygon fill="white" stroke="black" points="691.5,-468.5 691.5,-487.5 809.5,-487.5 809.5,-468.5 691.5,-468.5"/>
<text text-anchor="middle" x="750.5" y="-475.5" font-family="Helvetica,sans-Serif" font-size="10.00">Catch::Singleton::get</text>
</a>
</g>
</g>
<!-- Node6&#45;&gt;Node7 -->
<g id="edge6" class="edge">
<title>Node6&#45;&gt;Node7</title>
<path fill="none" stroke="midnightblue" d="M634.08,-478C649.33,-478 665.75,-478 681.27,-478"/>
<polygon fill="midnightblue" stroke="midnightblue" points="681.33,-481.5 691.33,-478 681.33,-474.5 681.33,-481.5"/>
</g>
<!-- Node12&#45;&gt;Node4 -->
<g id="edge12" class="edge">
<title>Node12&#45;&gt;Node4</title>
<path fill="none" stroke="midnightblue" d="M218.31,-204.76C228.89,-207.58 239.59,-212.02 248,-219 276.77,-242.86 254.72,-271.77 284,-295 296.14,-304.63 312.07,-309.65 327.04,-312.19"/>
<polygon fill="midnightblue" stroke="midnightblue" points="326.81,-315.69 337.19,-313.57 327.75,-308.75 326.81,-315.69"/>
</g>
<!-- Node12&#45;&gt;Node10 -->
<g id="edge25" class="edge">
<title>Node12&#45;&gt;Node10</title>
<path fill="none" stroke="midnightblue" d="M218.23,-203.32C229.18,-206.11 240.09,-210.9 248,-219 296.5,-268.67 236.01,-320.84 284,-371 288.79,-376.01 294.51,-380.04 300.7,-383.28"/>
<polygon fill="midnightblue" stroke="midnightblue" points="299.5,-386.57 310.06,-387.47 302.37,-380.19 299.5,-386.57"/>
</g>
<!-- Node13 -->
<g id="node13" class="node">
<title>Node13</title>
<g id="a_node13"><a xlink:href="namespace_catch.html#a105d5acdec8a6b401e12a592557c9dd1" target="_top" xlink:title=" ">
<polygon fill="white" stroke="black" points="324,-76.5 324,-95.5 422,-95.5 422,-76.5 324,-76.5"/>
<text text-anchor="middle" x="373" y="-83.5" font-family="Helvetica,sans-Serif" font-size="10.00">Catch::filterTests</text>
</a>
</g>
</g>
<!-- Node12&#45;&gt;Node13 -->
<g id="edge13" class="edge">
<title>Node12&#45;&gt;Node13</title>
<path fill="none" stroke="midnightblue" d="M218.31,-194.57C228.89,-191.61 239.58,-187.03 248,-180 276.37,-156.29 254.97,-127.9 284,-105 292.64,-98.18 303.19,-93.68 313.94,-90.73"/>
<polygon fill="midnightblue" stroke="midnightblue" points="314.88,-94.11 323.83,-88.44 313.29,-87.29 314.88,-94.11"/>
</g>
<!-- Node20 -->
<g id="node20" class="node">
<title>Node20</title>
<g id="a_node20"><a xlink:href="namespace_catch.html#a97039bab95e97f059410f67425f1f2da" target="_top" xlink:title=" ">
<polygon fill="white" stroke="black" points="293.5,-228.5 293.5,-247.5 452.5,-247.5 452.5,-228.5 293.5,-228.5"/>
<text text-anchor="middle" x="373" y="-235.5" font-family="Helvetica,sans-Serif" font-size="10.00">Catch::getAllTestCasesSorted</text>
</a>
</g>
</g>
<!-- Node12&#45;&gt;Node20 -->
<g id="edge20" class="edge">
<title>Node12&#45;&gt;Node20</title>
<path fill="none" stroke="midnightblue" d="M218.14,-208.25C245.82,-213.6 282.29,-220.65 312.78,-226.55"/>
<polygon fill="midnightblue" stroke="midnightblue" points="312.38,-230.04 322.86,-228.5 313.71,-223.16 312.38,-230.04"/>
</g>
<!-- Node23 -->
<g id="node23" class="node">
<title>Node23</title>
<g id="a_node23"><a xlink:href="class_catch_1_1_config.html#a25c21a50fd3ac97d55dd8a068d83a732" target="_top" xlink:title=" ">
<polygon fill="white" stroke="black" points="296,-114.5 296,-133.5 450,-133.5 450,-114.5 296,-114.5"/>
<text text-anchor="middle" x="373" y="-121.5" font-family="Helvetica,sans-Serif" font-size="10.00">Catch::Config::hasTestFilters</text>
</a>
</g>
</g>
<!-- Node12&#45;&gt;Node23 -->
<g id="edge24" class="edge">
<title>Node12&#45;&gt;Node23</title>
<path fill="none" stroke="midnightblue" d="M218.06,-192.29C228.3,-189.36 238.9,-185.38 248,-180 267.75,-168.32 263.93,-154.12 284,-143 288.14,-140.71 292.53,-138.69 297.06,-136.92"/>
<polygon fill="midnightblue" stroke="midnightblue" points="298.22,-140.22 306.5,-133.61 295.91,-133.61 298.22,-140.22"/>
</g>
<!-- Node24 -->
<g id="node24" class="node">
<title>Node24</title>
<g id="a_node24"><a xlink:href="class_catch_1_1_reusable_string_stream.html#a0e9ecf260b2a5d35f4886ef0d51f6270" target="_top" xlink:title=" ">
<polygon fill="white" stroke="black" points="284,-38.5 284,-57.5 462,-57.5 462,-38.5 284,-38.5"/>
<text text-anchor="middle" x="373" y="-45.5" font-family="Helvetica,sans-Serif" font-size="10.00">Catch::ReusableStringStream::str</text>
</a>
</g>
</g>
<!-- Node12&#45;&gt;Node24 -->
<g id="edge26" class="edge">
<title>Node12&#45;&gt;Node24</title>
<path fill="none" stroke="midnightblue" d="M218.24,-195.55C229.07,-192.59 239.91,-187.78 248,-180 286,-143.47 244.99,-102.44 284,-67 285.69,-65.46 287.48,-64.04 289.34,-62.72"/>
<polygon fill="midnightblue" stroke="midnightblue" points="291.15,-65.72 297.96,-57.6 287.57,-59.7 291.15,-65.72"/>
</g>
<!-- Node25 -->
<g id="node25" class="node">
<title>Node25</title>
<g id="a_node25"><a xlink:href="class_catch_1_1_config.html#a9444b56d6f7549c2c6aad594d1bc6423" target="_top" xlink:title=" ">
<polygon fill="white" stroke="black" points="308.5,-190.5 308.5,-209.5 437.5,-209.5 437.5,-190.5 308.5,-190.5"/>
<text text-anchor="middle" x="373" y="-197.5" font-family="Helvetica,sans-Serif" font-size="10.00">Catch::Config::testSpec</text>
</a>
</g>
</g>
<!-- Node12&#45;&gt;Node25 -->
<g id="edge27" class="edge">
<title>Node12&#45;&gt;Node25</title>
<path fill="none" stroke="midnightblue" d="M218.14,-200C241.46,-200 271.01,-200 297.97,-200"/>
<polygon fill="midnightblue" stroke="midnightblue" points="298.16,-203.5 308.16,-200 298.16,-196.5 298.16,-203.5"/>
</g>
<!-- Node26 -->
<g id="node26" class="node">
<title>Node26</title>
<g id="a_node26"><a xlink:href="namespace_catch.html#ac036a17412d318598ffda8e1fe7a1177" target="_top" xlink:title=" ">
<polygon fill="white" stroke="black" points="328.5,-0.5 328.5,-19.5 417.5,-19.5 417.5,-0.5 328.5,-0.5"/>
<text text-anchor="middle" x="373" y="-7.5" font-family="Helvetica,sans-Serif" font-size="10.00">Catch::toLower</text>
</a>
</g>
</g>
<!-- Node12&#45;&gt;Node26 -->
<g id="edge28" class="edge">
<title>Node12&#45;&gt;Node26</title>
<path fill="none" stroke="midnightblue" d="M218.26,-196.04C229.21,-193.1 240.11,-188.17 248,-180 295.92,-130.37 234.7,-77.26 284,-29 293.17,-20.03 305.5,-14.86 318.02,-11.97"/>
<polygon fill="midnightblue" stroke="midnightblue" points="318.86,-15.37 328.06,-10.12 317.59,-8.49 318.86,-15.37"/>
</g>
<!-- Node14 -->
<g id="node14" class="node">
<title>Node14</title>
<g id="a_node14"><a xlink:href="class_catch_1_1_test_spec.html#ac6d69b4a19677d95e46af0467fc72ecd" target="_top" xlink:title=" ">
<polygon fill="white" stroke="black" points="498,-57.5 498,-76.5 644,-76.5 644,-57.5 498,-57.5"/>
<text text-anchor="middle" x="571" y="-64.5" font-family="Helvetica,sans-Serif" font-size="10.00">Catch::TestSpec::hasFilters</text>
</a>
</g>
</g>
<!-- Node13&#45;&gt;Node14 -->
<g id="edge14" class="edge">
<title>Node13&#45;&gt;Node14</title>
<path fill="none" stroke="midnightblue" d="M422.2,-81.33C441.95,-79.41 465.39,-77.14 487.71,-74.98"/>
<polygon fill="midnightblue" stroke="midnightblue" points="488.25,-78.44 497.87,-73.99 487.58,-71.47 488.25,-78.44"/>
</g>
<!-- Node15 -->
<g id="node15" class="node">
<title>Node15</title>
<g id="a_node15"><a xlink:href="namespace_catch.html#aadef80fbc6bc84589777a462770cef49" target="_top" xlink:title=" ">
<polygon fill="white" stroke="black" points="520.5,-95.5 520.5,-114.5 621.5,-114.5 621.5,-95.5 520.5,-95.5"/>
<text text-anchor="middle" x="571" y="-102.5" font-family="Helvetica,sans-Serif" font-size="10.00">Catch::matchTest</text>
</a>
</g>
</g>
<!-- Node13&#45;&gt;Node15 -->
<g id="edge15" class="edge">
<title>Node13&#45;&gt;Node15</title>
<path fill="none" stroke="midnightblue" d="M422.2,-90.67C448.75,-93.25 481.94,-96.46 510.14,-99.2"/>
<polygon fill="midnightblue" stroke="midnightblue" points="509.99,-102.7 520.28,-100.18 510.67,-95.73 509.99,-102.7"/>
</g>
<!-- Node16 -->
<g id="node16" class="node">
<title>Node16</title>
<g id="a_node16"><a xlink:href="namespace_catch.html#af3e820574c7a0b38d71328c5bd54b0e0" target="_top" xlink:title=" ">
<polygon fill="white" stroke="black" points="695.5,-114.5 695.5,-133.5 805.5,-133.5 805.5,-114.5 695.5,-114.5"/>
<text text-anchor="middle" x="750.5" y="-121.5" font-family="Helvetica,sans-Serif" font-size="10.00">Catch::isThrowSafe</text>
</a>
</g>
</g>
<!-- Node15&#45;&gt;Node16 -->
<g id="edge16" class="edge">
<title>Node15&#45;&gt;Node16</title>
<path fill="none" stroke="midnightblue" d="M621.92,-110.34C641.57,-112.45 664.38,-114.89 685.24,-117.12"/>
<polygon fill="midnightblue" stroke="midnightblue" points="684.98,-120.61 695.3,-118.2 685.73,-113.65 684.98,-120.61"/>
</g>
<!-- Node19 -->
<g id="node19" class="node">
<title>Node19</title>
<g id="a_node19"><a xlink:href="class_catch_1_1_test_spec.html#a2342df9eff2c7db0d26432c1ddef796f" target="_top" xlink:title=" ">
<polygon fill="white" stroke="black" points="680,-76.5 680,-95.5 821,-95.5 821,-76.5 680,-76.5"/>
<text text-anchor="middle" x="750.5" y="-83.5" font-family="Helvetica,sans-Serif" font-size="10.00">Catch::TestSpec::matches</text>
</a>
</g>
</g>
<!-- Node15&#45;&gt;Node19 -->
<g id="edge19" class="edge">
<title>Node15&#45;&gt;Node19</title>
<path fill="none" stroke="midnightblue" d="M621.92,-99.66C636.78,-98.07 653.45,-96.28 669.71,-94.54"/>
<polygon fill="midnightblue" stroke="midnightblue" points="670.19,-98.01 679.76,-93.46 669.45,-91.05 670.19,-98.01"/>
</g>
<!-- Node17 -->
<g id="node17" class="node">
<title>Node17</title>
<g id="a_node17"><a xlink:href="struct_catch_1_1_i_config.html#aadb95f849359de1e6eb915aab063e542" target="_top" xlink:title=" ">
<polygon fill="white" stroke="black" points="857,-136.5 857,-155.5 1009,-155.5 1009,-136.5 857,-136.5"/>
<text text-anchor="middle" x="933" y="-143.5" font-family="Helvetica,sans-Serif" font-size="10.00">Catch::IConfig::allowThrows</text>
</a>
</g>
</g>
<!-- Node16&#45;&gt;Node17 -->
<g id="edge17" class="edge">
<title>Node16&#45;&gt;Node17</title>
<path fill="none" stroke="midnightblue" d="M805.66,-130.6C818.61,-132.18 832.75,-133.9 846.73,-135.61"/>
<polygon fill="midnightblue" stroke="midnightblue" points="846.51,-139.11 856.86,-136.84 847.36,-132.16 846.51,-139.11"/>
</g>
<!-- Node18 -->
<g id="node18" class="node">
<title>Node18</title>
<g id="a_node18"><a xlink:href="struct_catch_1_1_test_case_info.html#afc70d4379a2070cc22b693ffe3932c1a" target="_top" xlink:title=" ">
<polygon fill="white" stroke="black" points="876.5,-87 876.5,-117 989.5,-117 989.5,-87 876.5,-87"/>
<text text-anchor="start" x="884.5" y="-105" font-family="Helvetica,sans-Serif" font-size="10.00">Catch::TestCaseInfo</text>
<text text-anchor="middle" x="933" y="-94" font-family="Helvetica,sans-Serif" font-size="10.00">::throws</text>
</a>
</g>
</g>
<!-- Node16&#45;&gt;Node18 -->
<g id="edge18" class="edge">
<title>Node16&#45;&gt;Node18</title>
<path fill="none" stroke="midnightblue" d="M805.66,-117.4C824.76,-115.07 846.44,-112.43 866.38,-110"/>
<polygon fill="midnightblue" stroke="midnightblue" points="866.82,-113.47 876.32,-108.79 865.97,-106.52 866.82,-113.47"/>
</g>
<!-- Node20&#45;&gt;Node6 -->
<g id="edge22" class="edge">
<title>Node20&#45;&gt;Node6</title>
<path fill="none" stroke="midnightblue" d="M445.71,-247.52C451.55,-250.03 457.08,-253.14 462,-257 529.11,-309.57 557.23,-414.53 566.36,-458.21"/>
<polygon fill="midnightblue" stroke="midnightblue" points="562.95,-459.02 568.32,-468.15 569.82,-457.66 562.95,-459.02"/>
</g>
<!-- Node21 -->
<g id="node21" class="node">
<title>Node21</title>
<g id="a_node21"><a xlink:href="struct_catch_1_1_i_test_case_registry.html#a33e46639d0319d35497c05bb5d02be5a" target="_top" xlink:title=" ">
<polygon fill="white" stroke="black" points="502.5,-247 502.5,-277 639.5,-277 639.5,-247 502.5,-247"/>
<text text-anchor="start" x="510.5" y="-265" font-family="Helvetica,sans-Serif" font-size="10.00">Catch::ITestCaseRegistry</text>
<text text-anchor="middle" x="571" y="-254" font-family="Helvetica,sans-Serif" font-size="10.00">::getAllTestsSorted</text>
</a>
</g>
</g>
<!-- Node20&#45;&gt;Node21 -->
<g id="edge21" class="edge">
<title>Node20&#45;&gt;Node21</title>
<path fill="none" stroke="midnightblue" d="M451.75,-247.52C465.12,-249.16 479.02,-250.86 492.38,-252.5"/>
<polygon fill="midnightblue" stroke="midnightblue" points="492.13,-255.99 502.49,-253.73 492.98,-249.04 492.13,-255.99"/>
</g>
<!-- Node22 -->
<g id="node22" class="node">
<title>Node22</title>
<g id="a_node22"><a xlink:href="struct_catch_1_1_i_registry_hub.html#af4f6255f0c0f8f1f179fa9d7d4843076" target="_top" xlink:title=" ">
<polygon fill="white" stroke="black" points="510,-198 510,-228 632,-228 632,-198 510,-198"/>
<text text-anchor="start" x="518" y="-216" font-family="Helvetica,sans-Serif" font-size="10.00">Catch::IRegistryHub</text>
<text text-anchor="middle" x="571" y="-205" font-family="Helvetica,sans-Serif" font-size="10.00">::getTestCaseRegistry</text>
</a>
</g>
</g>
<!-- Node20&#45;&gt;Node22 -->
<g id="edge23" class="edge">
<title>Node20&#45;&gt;Node22</title>
<path fill="none" stroke="midnightblue" d="M448.66,-228.48C465.41,-226.34 483.13,-224.08 499.7,-221.97"/>
<polygon fill="midnightblue" stroke="midnightblue" points="500.37,-225.41 509.85,-220.67 499.49,-218.47 500.37,-225.41"/>
</g>
<!-- Node27 -->
<g id="node27" class="node">
<title>Node27</title>
<g id="a_node27"><a xlink:href="namespace_catch.html#a0760dbe87d090a55a35414db57d272c4" target="_top" xlink:title=" ">
<polygon fill="white" stroke="black" points="508.5,-0.5 508.5,-19.5 633.5,-19.5 633.5,-0.5 508.5,-0.5"/>
<text text-anchor="middle" x="571" y="-7.5" font-family="Helvetica,sans-Serif" font-size="10.00">Catch::toLowerInPlace</text>
</a>
</g>
</g>
<!-- Node26&#45;&gt;Node27 -->
<g id="edge29" class="edge">
<title>Node26&#45;&gt;Node27</title>
<path fill="none" stroke="midnightblue" d="M417.99,-10C441.61,-10 471.31,-10 498.18,-10"/>
<polygon fill="midnightblue" stroke="midnightblue" points="498.32,-13.5 508.32,-10 498.32,-6.5 498.32,-13.5"/>
</g>
<!-- Node28&#45;&gt;Node4 -->
<g id="edge31" class="edge">
<title>Node28&#45;&gt;Node4</title>
<path fill="none" stroke="midnightblue" d="M219.6,-284.53C251.66,-290.73 294.91,-299.09 327.14,-305.33"/>
<polygon fill="midnightblue" stroke="midnightblue" points="326.71,-308.81 337.19,-307.27 328.04,-301.93 326.71,-308.81"/>
</g>
<!-- Node28&#45;&gt;Node9 -->
<g id="edge35" class="edge">
<title>Node28&#45;&gt;Node9</title>
<path fill="none" stroke="midnightblue" d="M180.08,-285.75C196.37,-320.06 252.25,-434.55 284,-459 289.33,-463.1 295.3,-466.53 301.55,-469.4"/>
<polygon fill="midnightblue" stroke="midnightblue" points="300.3,-472.67 310.88,-473.21 302.95,-466.19 300.3,-472.67"/>
</g>
<!-- Node28&#45;&gt;Node10 -->
<g id="edge36" class="edge">
<title>Node28&#45;&gt;Node10</title>
<path fill="none" stroke="midnightblue" d="M183.74,-285.64C200.61,-304.77 241.11,-347.68 284,-371 289.27,-373.87 294.91,-376.43 300.68,-378.72"/>
<polygon fill="midnightblue" stroke="midnightblue" points="299.9,-382.16 310.49,-382.32 302.31,-375.59 299.9,-382.16"/>
</g>
<!-- Node28&#45;&gt;Node13 -->
<g id="edge32" class="edge">
<title>Node28&#45;&gt;Node13</title>
<path fill="none" stroke="midnightblue" d="M219.74,-272.28C230.18,-269.44 240.45,-264.73 248,-257 296.5,-207.33 234.42,-153.6 284,-105 292.2,-96.96 302.94,-91.97 314.09,-88.94"/>
<polygon fill="midnightblue" stroke="midnightblue" points="314.94,-92.34 323.94,-86.76 313.42,-85.51 314.94,-92.34"/>
</g>
<!-- Node28&#45;&gt;Node20 -->
<g id="edge33" class="edge">
<title>Node28&#45;&gt;Node20</title>
<path fill="none" stroke="midnightblue" d="M219.6,-267.47C247.15,-262.14 282.96,-255.22 312.95,-249.42"/>
<polygon fill="midnightblue" stroke="midnightblue" points="313.72,-252.84 322.87,-247.5 312.39,-245.96 313.72,-252.84"/>
</g>
<!-- Node28&#45;&gt;Node23 -->
<g id="edge34" class="edge">
<title>Node28&#45;&gt;Node23</title>
<path fill="none" stroke="midnightblue" d="M219.74,-271.79C230.05,-268.95 240.27,-264.36 248,-257 286.49,-220.37 244.72,-178.78 284,-143 285.69,-141.46 287.47,-140.04 289.34,-138.72"/>
<polygon fill="midnightblue" stroke="midnightblue" points="291.15,-141.71 297.95,-133.58 287.57,-135.7 291.15,-141.71"/>
</g>
<!-- Node28&#45;&gt;Node25 -->
<g id="edge38" class="edge">
<title>Node28&#45;&gt;Node25</title>
<path fill="none" stroke="midnightblue" d="M219.62,-268.61C229.38,-265.85 239.38,-262.1 248,-257 268.02,-245.15 263.72,-230.41 284,-219 288.57,-216.43 293.44,-214.21 298.47,-212.29"/>
<polygon fill="midnightblue" stroke="midnightblue" points="299.95,-215.48 308.3,-208.95 297.7,-208.85 299.95,-215.48"/>
</g>
<!-- Node29 -->
<g id="node29" class="node">
<title>Node29</title>
<g id="a_node29"><a xlink:href="namespace_catch_1_1_detail.html#af0ad48344ffd3f92f3568465248a9880" target="_top" xlink:title=" ">
<polygon fill="white" stroke="black" points="310.5,-342.5 310.5,-361.5 435.5,-361.5 435.5,-342.5 310.5,-342.5"/>
<text text-anchor="middle" x="373" y="-349.5" font-family="Helvetica,sans-Serif" font-size="10.00">Catch::Detail::stringify</text>
</a>
</g>
</g>
<!-- Node28&#45;&gt;Node29 -->
<g id="edge37" class="edge">
<title>Node28&#45;&gt;Node29</title>
<path fill="none" stroke="midnightblue" d="M190.7,-285.69C211.15,-298.32 249,-320.3 284,-333 291.23,-335.62 298.93,-337.94 306.66,-339.97"/>
<polygon fill="midnightblue" stroke="midnightblue" points="305.88,-343.39 316.43,-342.4 307.56,-336.59 305.88,-343.39"/>
</g>
<!-- Node30 -->
<g id="node30" class="node">
<title>Node30</title>
<g id="a_node30"><a xlink:href="class_catch_1_1_config.html#aa0ac4601dd8e5bedf7dc4c0761ec2097" target="_top" xlink:title=" ">
<polygon fill="white" stroke="black" points="306.5,-266.5 306.5,-285.5 439.5,-285.5 439.5,-266.5 306.5,-266.5"/>
<text text-anchor="middle" x="373" y="-273.5" font-family="Helvetica,sans-Serif" font-size="10.00">Catch::Config::verbosity</text>
</a>
</g>
</g>
<!-- Node28&#45;&gt;Node30 -->
<g id="edge39" class="edge">
<title>Node28&#45;&gt;Node30</title>
<path fill="none" stroke="midnightblue" d="M219.6,-276C242.17,-276 270.3,-276 296.22,-276"/>
<polygon fill="midnightblue" stroke="midnightblue" points="296.4,-279.5 306.4,-276 296.4,-272.5 296.4,-279.5"/>
</g>
<!-- Node31&#45;&gt;Node4 -->
<g id="edge41" class="edge">
<title>Node31&#45;&gt;Node4</title>
<path fill="none" stroke="midnightblue" d="M226.87,-247.62C234.23,-250.08 241.51,-253.16 248,-257 268.02,-268.85 263.72,-283.59 284,-295 297.04,-302.34 312.64,-306.85 327.06,-309.61"/>
<polygon fill="midnightblue" stroke="midnightblue" points="326.85,-313.13 337.29,-311.34 328.01,-306.22 326.85,-313.13"/>
</g>
<!-- Node31&#45;&gt;Node11 -->
<g id="edge44" class="edge">
<title>Node31&#45;&gt;Node11</title>
<path fill="none" stroke="midnightblue" d="M235.2,-247.55C239.93,-250.05 244.3,-253.15 248,-257 299.7,-310.82 231.14,-368.32 284,-421 298.6,-435.55 321.5,-440.15 340.29,-441.19"/>
<polygon fill="midnightblue" stroke="midnightblue" points="340.41,-444.7 350.5,-441.44 340.59,-437.7 340.41,-444.7"/>
</g>
<!-- Node31&#45;&gt;Node13 -->
<g id="edge42" class="edge">
<title>Node31&#45;&gt;Node13</title>
<path fill="none" stroke="midnightblue" d="M234.13,-228.44C239.21,-225.95 243.95,-222.86 248,-219 286.49,-182.37 244.72,-140.78 284,-105 292.32,-97.43 302.91,-92.61 313.85,-89.6"/>
<polygon fill="midnightblue" stroke="midnightblue" points="314.95,-92.93 323.93,-87.31 313.4,-86.11 314.95,-92.93"/>
</g>
<!-- Node31&#45;&gt;Node20 -->
<g id="edge43" class="edge">
<title>Node31&#45;&gt;Node20</title>
<path fill="none" stroke="midnightblue" d="M248.11,-238C259.53,-238 271.44,-238 283.17,-238"/>
<polygon fill="midnightblue" stroke="midnightblue" points="283.41,-241.5 293.41,-238 283.41,-234.5 283.41,-241.5"/>
</g>
<!-- Node31&#45;&gt;Node25 -->
<g id="edge46" class="edge">
<title>Node31&#45;&gt;Node25</title>
<path fill="none" stroke="midnightblue" d="M224.83,-228.46C251.46,-223.31 284.53,-216.92 312.57,-211.49"/>
<polygon fill="midnightblue" stroke="midnightblue" points="313.49,-214.88 322.65,-209.54 312.17,-208.01 313.49,-214.88"/>
</g>
<!-- Node31&#45;&gt;Node30 -->
<g id="edge47" class="edge">
<title>Node31&#45;&gt;Node30</title>
<path fill="none" stroke="midnightblue" d="M224.83,-247.54C251.46,-252.69 284.53,-259.08 312.57,-264.51"/>
<polygon fill="midnightblue" stroke="midnightblue" points="312.17,-267.99 322.65,-266.46 313.49,-261.12 312.17,-267.99"/>
</g>
<!-- Node32 -->
<g id="node32" class="node">
<title>Node32</title>
<g id="a_node32"><a xlink:href="namespace_catch.html#a695f62327be0676e046291eeaae15110" target="_top" xlink:title=" ">
<polygon fill="white" stroke="black" points="322.5,-152.5 322.5,-171.5 423.5,-171.5 423.5,-152.5 322.5,-152.5"/>
<text text-anchor="middle" x="373" y="-159.5" font-family="Helvetica,sans-Serif" font-size="10.00">Catch::startsWith</text>
</a>
</g>
</g>
<!-- Node31&#45;&gt;Node32 -->
<g id="edge45" class="edge">
<title>Node31&#45;&gt;Node32</title>
<path fill="none" stroke="midnightblue" d="M226.87,-228.38C234.23,-225.92 241.51,-222.84 248,-219 268.02,-207.15 263.72,-192.41 284,-181 292.68,-176.11 302.5,-172.48 312.35,-169.79"/>
<polygon fill="midnightblue" stroke="midnightblue" points="313.28,-173.16 322.16,-167.39 311.62,-166.36 313.28,-173.16"/>
</g>
</g>
</svg>
