<?xml version="1.0" encoding="UTF-8" standalone="no"?>
<!DOCTYPE svg PUBLIC "-//W3C//DTD SVG 1.1//EN"
 "http://www.w3.org/Graphics/SVG/1.1/DTD/svg11.dtd">
<!-- Generated by graphviz version 2.43.0 (0)
 -->
<!-- Title: Catch::Matchers::Equals Pages: 1 -->
<svg width="361pt" height="104pt"
 viewBox="0.00 0.00 361.00 104.00" xmlns="http://www.w3.org/2000/svg" xmlns:xlink="http://www.w3.org/1999/xlink">
<g id="graph0" class="graph" transform="scale(1 1) rotate(0) translate(4 100)">
<title>Catch::Matchers::Equals</title>
<polygon fill="white" stroke="transparent" points="-4,4 -4,-100 357,-100 357,4 -4,4"/>
<!-- Node1 -->
<g id="node1" class="node">
<title>Node1</title>
<g id="a_node1"><a xlink:title=" ">
<polygon fill="#bfbfbf" stroke="black" points="219,-38.5 219,-57.5 353,-57.5 353,-38.5 219,-38.5"/>
<text text-anchor="middle" x="286" y="-45.5" font-family="Helvetica,sans-Serif" font-size="10.00">Catch::Matchers::Equals</text>
</a>
</g>
</g>
<!-- Node2 -->
<g id="node2" class="node">
<title>Node2</title>
<g id="a_node2"><a xlink:href="_x01-_prefixed_macros_8cpp.html#a753ae846eb9eb11e8e03dbdfe3f95b59" target="_top" xlink:title=" ">
<polygon fill="white" stroke="black" points="37,-76.5 37,-95.5 146,-95.5 146,-76.5 37,-76.5"/>
<text text-anchor="middle" x="91.5" y="-83.5" font-family="Helvetica,sans-Serif" font-size="10.00">CATCH_TEST_CASE</text>
</a>
</g>
</g>
<!-- Node1&#45;&gt;Node2 -->
<g id="edge1" class="edge">
<title>Node1&#45;&gt;Node2</title>
<path fill="none" stroke="midnightblue" d="M226.55,-59.54C199.09,-64.96 166.76,-71.34 140.73,-76.48"/>
<polygon fill="midnightblue" stroke="midnightblue" points="227.29,-62.96 236.42,-57.59 225.94,-56.09 227.29,-62.96"/>
</g>
<!-- Node3 -->
<g id="node3" class="node">
<title>Node3</title>
<g id="a_node3"><a xlink:href="namespace_catch.html#aea6f8ff3b3838829d4a61694e4bc41ca" target="_top" xlink:title=" ">
<polygon fill="white" stroke="black" points="0,-38.5 0,-57.5 183,-57.5 183,-38.5 0,-38.5"/>
<text text-anchor="middle" x="91.5" y="-45.5" font-family="Helvetica,sans-Serif" font-size="10.00">Catch::handleExceptionMatchExpr</text>
</a>
</g>
</g>
<!-- Node1&#45;&gt;Node3 -->
<g id="edge2" class="edge">
<title>Node1&#45;&gt;Node3</title>
<path fill="none" stroke="midnightblue" d="M208.61,-48C200.2,-48 191.58,-48 183.01,-48"/>
<polygon fill="midnightblue" stroke="midnightblue" points="208.75,-51.5 218.75,-48 208.75,-44.5 208.75,-51.5"/>
</g>
<!-- Node4 -->
<g id="node4" class="node">
<title>Node4</title>
<g id="a_node4"><a xlink:href="_string_manip_8tests_8cpp.html#a82846f4e716550356606acbd0a38dfa4" target="_top" xlink:title=" ">
<polygon fill="white" stroke="black" points="56,-0.5 56,-19.5 127,-19.5 127,-0.5 56,-0.5"/>
<text text-anchor="middle" x="91.5" y="-7.5" font-family="Helvetica,sans-Serif" font-size="10.00">TEST_CASE</text>
</a>
</g>
</g>
<!-- Node1&#45;&gt;Node4 -->
<g id="edge3" class="edge">
<title>Node1&#45;&gt;Node4</title>
<path fill="none" stroke="midnightblue" d="M226.58,-36.47C194.08,-30.05 154.73,-22.28 127.1,-16.83"/>
<polygon fill="midnightblue" stroke="midnightblue" points="225.94,-39.91 236.42,-38.41 227.29,-33.04 225.94,-39.91"/>
</g>
</g>
</svg>
