<?xml version="1.0" encoding="UTF-8" standalone="no"?>
<!DOCTYPE svg PUBLIC "-//W3C//DTD SVG 1.1//EN"
 "http://www.w3.org/Graphics/SVG/1.1/DTD/svg11.dtd">
<!-- Generated by graphviz version 2.43.0 (0)
 -->
<!-- Title: Catch::startsWith Pages: 1 -->
<svg width="498pt" height="291pt"
 viewBox="0.00 0.00 498.00 290.50" xmlns="http://www.w3.org/2000/svg" xmlns:xlink="http://www.w3.org/1999/xlink">
<g id="graph0" class="graph" transform="scale(1 1) rotate(0) translate(4 286.5)">
<title>Catch::startsWith</title>
<polygon fill="white" stroke="transparent" points="-4,4 -4,-286.5 494,-286.5 494,4 -4,4"/>
<!-- Node1 -->
<g id="node1" class="node">
<title>Node1</title>
<g id="a_node1"><a xlink:title=" ">
<polygon fill="#bfbfbf" stroke="black" points="389,-143 389,-162 490,-162 490,-143 389,-143"/>
<text text-anchor="middle" x="439.5" y="-150" font-family="Helvetica,sans-Serif" font-size="10.00">Catch::startsWith</text>
</a>
</g>
</g>
<!-- Node2 -->
<g id="node2" class="node">
<title>Node2</title>
<g id="a_node2"><a xlink:href="namespace_catch.html#a9e1cbffd90354d851c4ba6dff1e09fd7" target="_top" xlink:title=" ">
<polygon fill="white" stroke="black" points="194,-263 194,-282 334,-282 334,-263 194,-263"/>
<text text-anchor="middle" x="264" y="-270" font-family="Helvetica,sans-Serif" font-size="10.00">Catch::extractClassName</text>
</a>
</g>
</g>
<!-- Node1&#45;&gt;Node2 -->
<g id="edge1" class="edge">
<title>Node1&#45;&gt;Node2</title>
<path fill="none" stroke="midnightblue" d="M428.17,-170.92C414.22,-194 387.13,-233.02 353,-253.5 346.57,-257.36 339.45,-260.44 332.14,-262.9"/>
<polygon fill="midnightblue" stroke="midnightblue" points="431.3,-172.5 433.33,-162.1 425.26,-168.97 431.3,-172.5"/>
</g>
<!-- Node4 -->
<g id="node4" class="node">
<title>Node4</title>
<g id="a_node4"><a xlink:href="namespace_catch.html#a7f2d0f82056a4b9adc4204b9a1fbd117" target="_top" xlink:title=" ">
<polygon fill="white" stroke="black" points="190.5,-225 190.5,-244 337.5,-244 337.5,-225 190.5,-225"/>
<text text-anchor="middle" x="264" y="-232" font-family="Helvetica,sans-Serif" font-size="10.00">Catch::listTestsNamesOnly</text>
</a>
</g>
</g>
<!-- Node1&#45;&gt;Node4 -->
<g id="edge3" class="edge">
<title>Node1&#45;&gt;Node4</title>
<path fill="none" stroke="midnightblue" d="M420.69,-169.18C404.33,-183.59 378.76,-203.88 353,-215.5 344.45,-219.36 335.08,-222.45 325.73,-224.92"/>
<polygon fill="midnightblue" stroke="midnightblue" points="423.29,-171.55 428.37,-162.25 418.6,-166.35 423.29,-171.55"/>
</g>
<!-- Node6 -->
<g id="node6" class="node">
<title>Node6</title>
<g id="a_node6"><a xlink:href="namespace_catch.html#add4f86f38bf30c7b49daacfac665aaff" target="_top" xlink:title=" ">
<polygon fill="white" stroke="black" points="175,-187 175,-206 353,-206 353,-187 175,-187"/>
<text text-anchor="middle" x="264" y="-194" font-family="Helvetica,sans-Serif" font-size="10.00">Catch::makeCommandLineParser</text>
</a>
</g>
</g>
<!-- Node1&#45;&gt;Node6 -->
<g id="edge5" class="edge">
<title>Node1&#45;&gt;Node6</title>
<path fill="none" stroke="midnightblue" d="M396.41,-164.77C382.62,-168.67 367.19,-172.9 353,-176.5 338.73,-180.12 323.07,-183.78 308.97,-186.96"/>
<polygon fill="midnightblue" stroke="midnightblue" points="397.46,-168.11 406.12,-162 395.55,-161.37 397.46,-168.11"/>
</g>
<!-- Node9 -->
<g id="node9" class="node">
<title>Node9</title>
<g id="a_node9"><a xlink:href="struct_catch_1_1_matchers_1_1_std_string_1_1_starts_with_matcher.html#a7da4747aed0c48989d8be59a89e2b7fb" target="_top" xlink:title=" ">
<polygon fill="white" stroke="black" points="189,-137.5 189,-167.5 339,-167.5 339,-137.5 189,-137.5"/>
<text text-anchor="start" x="197" y="-155.5" font-family="Helvetica,sans-Serif" font-size="10.00">Catch::Matchers::StdString</text>
<text text-anchor="middle" x="264" y="-144.5" font-family="Helvetica,sans-Serif" font-size="10.00">::StartsWithMatcher::match</text>
</a>
</g>
</g>
<!-- Node1&#45;&gt;Node9 -->
<g id="edge8" class="edge">
<title>Node1&#45;&gt;Node9</title>
<path fill="none" stroke="midnightblue" d="M378.41,-152.5C365.8,-152.5 352.36,-152.5 339.31,-152.5"/>
<polygon fill="midnightblue" stroke="midnightblue" points="378.78,-156 388.78,-152.5 378.78,-149 378.78,-156"/>
</g>
<!-- Node10 -->
<g id="node10" class="node">
<title>Node10</title>
<g id="a_node10"><a xlink:href="class_catch_1_1_wildcard_pattern.html#ae88acde37f50f7cbec8605acf434fe85" target="_top" xlink:title=" ">
<polygon fill="white" stroke="black" points="200,-88.5 200,-118.5 328,-118.5 328,-88.5 200,-88.5"/>
<text text-anchor="start" x="208" y="-106.5" font-family="Helvetica,sans-Serif" font-size="10.00">Catch::WildcardPattern</text>
<text text-anchor="middle" x="264" y="-95.5" font-family="Helvetica,sans-Serif" font-size="10.00">::matches</text>
</a>
</g>
</g>
<!-- Node1&#45;&gt;Node10 -->
<g id="edge9" class="edge">
<title>Node1&#45;&gt;Node10</title>
<path fill="none" stroke="midnightblue" d="M396.69,-140.11C382.8,-136.04 367.25,-131.53 353,-127.5 342.64,-124.57 331.57,-121.51 320.91,-118.58"/>
<polygon fill="midnightblue" stroke="midnightblue" points="395.88,-143.52 406.46,-142.98 397.86,-136.8 395.88,-143.52"/>
</g>
<!-- Node11 -->
<g id="node11" class="node">
<title>Node11</title>
<g id="a_node11"><a xlink:href="namespace_catch.html#ad0c3dd7b4c55aeb3a31a7a8b13c17cfb" target="_top" xlink:title=" ">
<polygon fill="white" stroke="black" points="189.5,-50 189.5,-69 338.5,-69 338.5,-50 189.5,-50"/>
<text text-anchor="middle" x="264" y="-57" font-family="Helvetica,sans-Serif" font-size="10.00">Catch::registerTestMethods</text>
</a>
</g>
</g>
<!-- Node1&#45;&gt;Node11 -->
<g id="edge10" class="edge">
<title>Node1&#45;&gt;Node11</title>
<path fill="none" stroke="midnightblue" d="M423.51,-135.23C407.71,-118.15 381.23,-92.59 353,-78.5 345.17,-74.59 336.55,-71.48 327.87,-69.01"/>
<polygon fill="midnightblue" stroke="midnightblue" points="421.08,-137.76 430.37,-142.84 426.28,-133.07 421.08,-137.76"/>
</g>
<!-- Node12 -->
<g id="node12" class="node">
<title>Node12</title>
<g id="a_node12"><a xlink:href="class_catch_1_1_wildcard_pattern.html#ac58366a382dc34a398eb8825bd56c9d2" target="_top" xlink:title=" ">
<polygon fill="white" stroke="black" points="200,-0.5 200,-30.5 328,-30.5 328,-0.5 200,-0.5"/>
<text text-anchor="start" x="208" y="-18.5" font-family="Helvetica,sans-Serif" font-size="10.00">Catch::WildcardPattern</text>
<text text-anchor="middle" x="264" y="-7.5" font-family="Helvetica,sans-Serif" font-size="10.00">::WildcardPattern</text>
</a>
</g>
</g>
<!-- Node1&#45;&gt;Node12 -->
<g id="edge11" class="edge">
<title>Node1&#45;&gt;Node12</title>
<path fill="none" stroke="midnightblue" d="M429.05,-133.53C415.59,-108.47 388.54,-64.7 353,-40.5 345.52,-35.4 337,-31.34 328.29,-28.1"/>
<polygon fill="midnightblue" stroke="midnightblue" points="426.1,-135.46 433.82,-142.72 432.32,-132.23 426.1,-135.46"/>
</g>
<!-- Node3 -->
<g id="node3" class="node">
<title>Node3</title>
<g id="a_node3"><a xlink:href="struct_catch_1_1_auto_reg.html#a7eba02fb9d80b9896bf5a6517369af28" target="_top" xlink:title=" ">
<polygon fill="white" stroke="black" points="0,-263 0,-282 139,-282 139,-263 0,-263"/>
<text text-anchor="middle" x="69.5" y="-270" font-family="Helvetica,sans-Serif" font-size="10.00">Catch::AutoReg::AutoReg</text>
</a>
</g>
</g>
<!-- Node2&#45;&gt;Node3 -->
<g id="edge2" class="edge">
<title>Node2&#45;&gt;Node3</title>
<path fill="none" stroke="midnightblue" d="M183.65,-272.5C168.87,-272.5 153.54,-272.5 139.11,-272.5"/>
<polygon fill="midnightblue" stroke="midnightblue" points="183.78,-276 193.78,-272.5 183.78,-269 183.78,-276"/>
</g>
<!-- Node5 -->
<g id="node5" class="node">
<title>Node5</title>
<g id="a_node5"><a xlink:href="namespace_catch.html#a8267f077fd7ddf88bb182e8b9ead85d3" target="_top" xlink:title=" ">
<polygon fill="white" stroke="black" points="37,-225 37,-244 102,-244 102,-225 37,-225"/>
<text text-anchor="middle" x="69.5" y="-232" font-family="Helvetica,sans-Serif" font-size="10.00">Catch::list</text>
</a>
</g>
</g>
<!-- Node4&#45;&gt;Node5 -->
<g id="edge4" class="edge">
<title>Node4&#45;&gt;Node5</title>
<path fill="none" stroke="midnightblue" d="M180.39,-234.5C152.73,-234.5 123.53,-234.5 102.18,-234.5"/>
<polygon fill="midnightblue" stroke="midnightblue" points="180.5,-238 190.5,-234.5 180.5,-231 180.5,-238"/>
</g>
<!-- Node7 -->
<g id="node7" class="node">
<title>Node7</title>
<g id="a_node7"><a xlink:href="class_catch_1_1_session.html#a4564992e2b028770e38a1dcc6fff8b34" target="_top" xlink:title=" ">
<polygon fill="white" stroke="black" points="4,-187 4,-206 135,-206 135,-187 4,-187"/>
<text text-anchor="middle" x="69.5" y="-194" font-family="Helvetica,sans-Serif" font-size="10.00">Catch::Session::Session</text>
</a>
</g>
</g>
<!-- Node6&#45;&gt;Node7 -->
<g id="edge6" class="edge">
<title>Node6&#45;&gt;Node7</title>
<path fill="none" stroke="midnightblue" d="M164.87,-196.5C154.82,-196.5 144.79,-196.5 135.23,-196.5"/>
<polygon fill="midnightblue" stroke="midnightblue" points="164.92,-200 174.92,-196.5 164.92,-193 164.92,-200"/>
</g>
<!-- Node8 -->
<g id="node8" class="node">
<title>Node8</title>
<g id="a_node8"><a xlink:href="_cmd_line_8tests_8cpp.html#a44d5ced817b0c1ec9baafeab51cbe1fd" target="_top" xlink:title=" ">
<polygon fill="white" stroke="black" points="34,-149 34,-168 105,-168 105,-149 34,-149"/>
<text text-anchor="middle" x="69.5" y="-156" font-family="Helvetica,sans-Serif" font-size="10.00">TEST_CASE</text>
</a>
</g>
</g>
<!-- Node6&#45;&gt;Node8 -->
<g id="edge7" class="edge">
<title>Node6&#45;&gt;Node8</title>
<path fill="none" stroke="midnightblue" d="M204.58,-184.97C172.08,-178.55 132.73,-170.78 105.1,-165.33"/>
<polygon fill="midnightblue" stroke="midnightblue" points="203.94,-188.41 214.42,-186.91 205.29,-181.54 203.94,-188.41"/>
</g>
</g>
</svg>
