<?xml version="1.0" encoding="UTF-8" standalone="no"?>
<!DOCTYPE svg PUBLIC "-//W3C//DTD SVG 1.1//EN"
 "http://www.w3.org/Graphics/SVG/1.1/DTD/svg11.dtd">
<!-- Generated by graphviz version 2.43.0 (0)
 -->
<!-- Title: Catch::throw_runtime_error Pages: 1 -->
<svg width="509pt" height="39pt"
 viewBox="0.00 0.00 509.00 39.00" xmlns="http://www.w3.org/2000/svg" xmlns:xlink="http://www.w3.org/1999/xlink">
<g id="graph0" class="graph" transform="scale(1 1) rotate(0) translate(4 35)">
<title>Catch::throw_runtime_error</title>
<polygon fill="white" stroke="transparent" points="-4,4 -4,-35 505,-35 505,4 -4,4"/>
<!-- Node1 -->
<g id="node1" class="node">
<title>Node1</title>
<g id="a_node1"><a xlink:title=" ">
<polygon fill="#bfbfbf" stroke="black" points="0,-0.5 0,-30.5 122,-30.5 122,-0.5 0,-0.5"/>
<text text-anchor="start" x="8" y="-18.5" font-family="Helvetica,sans-Serif" font-size="10.00">Catch::throw_runtime</text>
<text text-anchor="middle" x="61" y="-7.5" font-family="Helvetica,sans-Serif" font-size="10.00">_error</text>
</a>
</g>
</g>
<!-- Node2 -->
<g id="node2" class="node">
<title>Node2</title>
<g id="a_node2"><a xlink:href="namespace_catch.html#a3cbceeab9252d1b752f66a2826e92548" target="_top" xlink:title=" ">
<polygon fill="white" stroke="black" points="158,-6 158,-25 289,-25 289,-6 158,-6"/>
<text text-anchor="middle" x="223.5" y="-13" font-family="Helvetica,sans-Serif" font-size="10.00">Catch::throw_exception</text>
</a>
</g>
</g>
<!-- Node1&#45;&gt;Node2 -->
<g id="edge1" class="edge">
<title>Node1&#45;&gt;Node2</title>
<path fill="none" stroke="midnightblue" d="M122.22,-15.5C130.6,-15.5 139.28,-15.5 147.88,-15.5"/>
<polygon fill="midnightblue" stroke="midnightblue" points="147.91,-19 157.91,-15.5 147.91,-12 147.91,-19"/>
</g>
<!-- Node3 -->
<g id="node3" class="node">
<title>Node3</title>
<g id="a_node3"><a xlink:href="namespace_catch.html#a54c1ce08041448d684ae8edc14162cd2" target="_top" xlink:title=" ">
<polygon fill="white" stroke="black" points="325,-6 325,-25 394,-25 394,-6 325,-6"/>
<text text-anchor="middle" x="359.5" y="-13" font-family="Helvetica,sans-Serif" font-size="10.00">Catch::cerr</text>
</a>
</g>
</g>
<!-- Node2&#45;&gt;Node3 -->
<g id="edge2" class="edge">
<title>Node2&#45;&gt;Node3</title>
<path fill="none" stroke="midnightblue" d="M289.14,-15.5C297.8,-15.5 306.51,-15.5 314.7,-15.5"/>
<polygon fill="midnightblue" stroke="midnightblue" points="314.74,-19 324.74,-15.5 314.74,-12 314.74,-19"/>
</g>
<!-- Node4 -->
<g id="node4" class="node">
<title>Node4</title>
<g id="a_node4"><a xlink:href="namespace_catch.html#a1b2213f54e4d31a659db49827e81856b" target="_top" xlink:title=" ">
<polygon fill="white" stroke="black" points="430,-6 430,-25 501,-25 501,-6 430,-6"/>
<text text-anchor="middle" x="465.5" y="-13" font-family="Helvetica,sans-Serif" font-size="10.00">Catch::clog</text>
</a>
</g>
</g>
<!-- Node3&#45;&gt;Node4 -->
<g id="edge3" class="edge">
<title>Node3&#45;&gt;Node4</title>
<path fill="none" stroke="midnightblue" d="M394.27,-15.5C402.36,-15.5 411.13,-15.5 419.64,-15.5"/>
<polygon fill="midnightblue" stroke="midnightblue" points="419.83,-19 429.83,-15.5 419.83,-12 419.83,-19"/>
</g>
</g>
</svg>
