<?xml version="1.0" encoding="UTF-8" standalone="no"?>
<!DOCTYPE svg PUBLIC "-//W3C//DTD SVG 1.1//EN"
 "http://www.w3.org/Graphics/SVG/1.1/DTD/svg11.dtd">
<!-- Generated by graphviz version 2.43.0 (0)
 -->
<!-- Title: Catch::shouldShowDuration Pages: 1 -->
<svg width="358pt" height="66pt"
 viewBox="0.00 0.00 358.00 66.00" xmlns="http://www.w3.org/2000/svg" xmlns:xlink="http://www.w3.org/1999/xlink">
<g id="graph0" class="graph" transform="scale(1 1) rotate(0) translate(4 62)">
<title>Catch::shouldShowDuration</title>
<polygon fill="white" stroke="transparent" points="-4,4 -4,-62 354,-62 354,4 -4,4"/>
<!-- Node1 -->
<g id="node1" class="node">
<title>Node1</title>
<g id="a_node1"><a xlink:title="Should the reporter show.">
<polygon fill="#bfbfbf" stroke="black" points="0,-19.5 0,-38.5 151,-38.5 151,-19.5 0,-19.5"/>
<text text-anchor="middle" x="75.5" y="-26.5" font-family="Helvetica,sans-Serif" font-size="10.00">Catch::shouldShowDuration</text>
</a>
</g>
</g>
<!-- Node2 -->
<g id="node2" class="node">
<title>Node2</title>
<g id="a_node2"><a xlink:href="struct_catch_1_1_i_config.html#a160c6f6e19ed6ae946f7a9e737099189" target="_top" xlink:title=" ">
<polygon fill="white" stroke="black" points="193,-38.5 193,-57.5 344,-57.5 344,-38.5 193,-38.5"/>
<text text-anchor="middle" x="268.5" y="-45.5" font-family="Helvetica,sans-Serif" font-size="10.00">Catch::IConfig::minDuration</text>
</a>
</g>
</g>
<!-- Node1&#45;&gt;Node2 -->
<g id="edge1" class="edge">
<title>Node1&#45;&gt;Node2</title>
<path fill="none" stroke="midnightblue" d="M151.17,-36.43C161.55,-37.46 172.29,-38.53 182.84,-39.58"/>
<polygon fill="midnightblue" stroke="midnightblue" points="182.59,-43.07 192.89,-40.58 183.28,-36.1 182.59,-43.07"/>
</g>
<!-- Node3 -->
<g id="node3" class="node">
<title>Node3</title>
<g id="a_node3"><a xlink:href="struct_catch_1_1_i_config.html#abaa97d281484278291f0d3db6d404aeb" target="_top" xlink:title=" ">
<polygon fill="white" stroke="black" points="187,-0.5 187,-19.5 350,-19.5 350,-0.5 187,-0.5"/>
<text text-anchor="middle" x="268.5" y="-7.5" font-family="Helvetica,sans-Serif" font-size="10.00">Catch::IConfig::showDurations</text>
</a>
</g>
</g>
<!-- Node1&#45;&gt;Node3 -->
<g id="edge2" class="edge">
<title>Node1&#45;&gt;Node3</title>
<path fill="none" stroke="midnightblue" d="M151.17,-21.57C159.59,-20.73 168.24,-19.87 176.84,-19.02"/>
<polygon fill="midnightblue" stroke="midnightblue" points="177.28,-22.49 186.89,-18.02 176.59,-15.53 177.28,-22.49"/>
</g>
</g>
</svg>
