<?xml version="1.0" encoding="UTF-8" standalone="no"?>
<!DOCTYPE svg PUBLIC "-//W3C//DTD SVG 1.1//EN"
 "http://www.w3.org/Graphics/SVG/1.1/DTD/svg11.dtd">
<!-- Generated by graphviz version 2.43.0 (0)
 -->
<!-- Title: updateDocumentToC.updateSingleDocumentToC Pages: 1 -->
<!--zoomable 429 -->
<svg id="main" version="1.1" xmlns="http://www.w3.org/2000/svg" xmlns:xlink="http://www.w3.org/1999/xlink" xml:space="preserve" onload="init(evt)">
<style type="text/css"><![CDATA[
.edge:hover path { stroke: red; }
.edge:hover polygon { stroke: red; fill: red; }
]]></style>
<script type="text/javascript"><![CDATA[
var edges = document.getElementsByTagName('g');
if (edges && edges.length) {
  for (var i=0;i<edges.length;i++) {
    if (edges[i].id.substr(0,4)=='edge') {
      edges[i].setAttribute('class','edge');
    }
  }
}
]]></script>
        <defs>
                <circle id="rim" cx="0" cy="0" r="7"/>
                <circle id="rim2" cx="0" cy="0" r="3.5"/>
                <g id="zoomPlus">
                        <use xlink:href="#rim" fill="#404040">
                                <set attributeName="fill" to="#808080" begin="zoomplus.mouseover" end="zoomplus.mouseout"/>
                        </use>
                        <path d="M-4,0h8M0,-4v8" fill="none" stroke="white" stroke-width="1.5" pointer-events="none"/>
                </g>
                <g id="zoomMin">
                        <use xlink:href="#rim" fill="#404040">
                                <set attributeName="fill" to="#808080" begin="zoomminus.mouseover" end="zoomminus.mouseout"/>
                        </use>
                        <path d="M-4,0h8" fill="none" stroke="white" stroke-width="1.5" pointer-events="none"/>
                </g>
                <g id="dirArrow">
                        <path fill="none" stroke="white" stroke-width="1.5" d="M0,-3.0v7 M-2.5,-0.5L0,-3.0L2.5,-0.5"/>
                </g>
               <g id="resetDef">
                       <use xlink:href="#rim2" fill="#404040">
                               <set attributeName="fill" to="#808080" begin="reset.mouseover" end="reset.mouseout"/>
                       </use>
               </g>
        </defs>

<script type="text/javascript">
var viewWidth = 796;
var viewHeight = 429;
var sectionId = 'dynsection-17';
</script>
<script xlink:href="svgpan.js"/>
<svg id="graph" class="graph">
<g id="viewport">
<title>updateDocumentToC.updateSingleDocumentToC</title>
<polygon fill="white" stroke="transparent" points="-4,4 -4,-424.5 792,-424.5 792,4 -4,4"/>
<!-- Node1 -->
<g id="node1" class="node">
<title>Node1</title>
<g id="a_node1"><a xlink:title=" ">
<polygon fill="#bfbfbf" stroke="black" points="0,-193 0,-223 155,-223 155,-193 0,-193"/>
<text text-anchor="start" x="8" y="-211" font-family="Helvetica,sans-Serif" font-size="10.00">updateDocumentToC.update</text>
<text text-anchor="middle" x="77.5" y="-200" font-family="Helvetica,sans-Serif" font-size="10.00">SingleDocumentToC</text>
</a>
</g>
</g>
<!-- Node2 -->
<g id="node2" class="node">
<title>Node2</title>
<g id="a_node2"><a xlink:href="namespaceupdate_document_to_c.html#ac81d7be9b2b3e2c2f08c70b7cce50209" target="_top" xlink:title=" ">
<polygon fill="white" stroke="black" points="198,-327 198,-357 357,-357 357,-327 198,-327"/>
<text text-anchor="start" x="206" y="-345" font-family="Helvetica,sans-Serif" font-size="10.00">updateDocumentToC.exclude</text>
<text text-anchor="middle" x="277.5" y="-334" font-family="Helvetica,sans-Serif" font-size="10.00">HeadingsFor</text>
</a>
</g>
</g>
<!-- Node1&#45;&gt;Node2 -->
<g id="edge1" class="edge">
<title>Node1&#45;&gt;Node2</title>
<path fill="none" stroke="midnightblue" d="M100.83,-223.11C136.35,-247.15 205.81,-294.16 245.92,-321.31"/>
<polygon fill="midnightblue" stroke="midnightblue" points="244.01,-324.24 254.25,-326.94 247.93,-318.44 244.01,-324.24"/>
</g>
<!-- Node4 -->
<g id="node4" class="node">
<title>Node4</title>
<g id="a_node4"><a xlink:href="namespaceupdate_document_to_c.html#af8fa32ceffe8e374bcf15ae6174568c9" target="_top" xlink:title=" ">
<polygon fill="white" stroke="black" points="191,-193 191,-223 364,-223 364,-193 191,-193"/>
<text text-anchor="start" x="199" y="-211" font-family="Helvetica,sans-Serif" font-size="10.00">updateDocumentToC.markdown</text>
<text text-anchor="middle" x="277.5" y="-200" font-family="Helvetica,sans-Serif" font-size="10.00">Toclify</text>
</a>
</g>
</g>
<!-- Node1&#45;&gt;Node4 -->
<g id="edge3" class="edge">
<title>Node1&#45;&gt;Node4</title>
<path fill="none" stroke="midnightblue" d="M155.05,-208C163.5,-208 172.18,-208 180.82,-208"/>
<polygon fill="midnightblue" stroke="midnightblue" points="180.94,-211.5 190.94,-208 180.94,-204.5 180.94,-211.5"/>
</g>
<!-- Node15 -->
<g id="node15" class="node">
<title>Node15</title>
<g id="a_node15"><a xlink:href="210-_evt-_event_listeners_8cpp.html#a91b9457094088a57b7ba14d485a8771e" target="_top" xlink:title=" ">
<polygon fill="white" stroke="black" points="258,-88.5 258,-107.5 297,-107.5 297,-88.5 258,-88.5"/>
<text text-anchor="middle" x="277.5" y="-95.5" font-family="Helvetica,sans-Serif" font-size="10.00">print</text>
</a>
</g>
</g>
<!-- Node1&#45;&gt;Node15 -->
<g id="edge14" class="edge">
<title>Node1&#45;&gt;Node15</title>
<path fill="none" stroke="midnightblue" d="M105.62,-192.94C143.79,-171.73 212.91,-133.33 250.48,-112.45"/>
<polygon fill="midnightblue" stroke="midnightblue" points="252.28,-115.46 259.32,-107.55 248.88,-109.34 252.28,-115.46"/>
</g>
<!-- Node3 -->
<g id="node3" class="node">
<title>Node3</title>
<g id="a_node3"><a xlink:href="namespaceupdate_document_to_c.html#a610d5e1b3b1ba5ae0ae9ce5b060b0966" target="_top" xlink:title=" ">
<polygon fill="white" stroke="black" points="414,-390 414,-420 582,-420 582,-390 414,-390"/>
<text text-anchor="start" x="422" y="-408" font-family="Helvetica,sans-Serif" font-size="10.00">updateDocumentToC.isRelease</text>
<text text-anchor="middle" x="498" y="-397" font-family="Helvetica,sans-Serif" font-size="10.00">Notes</text>
</a>
</g>
</g>
<!-- Node2&#45;&gt;Node3 -->
<g id="edge2" class="edge">
<title>Node2&#45;&gt;Node3</title>
<path fill="none" stroke="midnightblue" d="M324.78,-357.08C347.38,-364.29 375.03,-372.88 400,-380 408.66,-382.47 417.78,-384.96 426.83,-387.37"/>
<polygon fill="midnightblue" stroke="midnightblue" points="426.03,-390.77 436.59,-389.94 427.81,-384.01 426.03,-390.77"/>
</g>
<!-- Node5 -->
<g id="node5" class="node">
<title>Node5</title>
<g id="a_node5"><a xlink:href="namespaceupdate_document_to_c.html#a5ad84c6135de0a71f3c54799cf72b439" target="_top" xlink:title=" ">
<polygon fill="white" stroke="black" points="400,-351.5 400,-370.5 596,-370.5 596,-351.5 400,-351.5"/>
<text text-anchor="middle" x="498" y="-358.5" font-family="Helvetica,sans-Serif" font-size="10.00">updateDocumentToC.buildMarkdown</text>
</a>
</g>
</g>
<!-- Node4&#45;&gt;Node5 -->
<g id="edge4" class="edge">
<title>Node4&#45;&gt;Node5</title>
<path fill="none" stroke="midnightblue" d="M287.64,-223.38C305.4,-251.81 347.49,-312.36 400,-342 403.97,-344.24 408.17,-346.23 412.5,-347.98"/>
<polygon fill="midnightblue" stroke="midnightblue" points="411.55,-351.36 422.15,-351.45 413.93,-344.77 411.55,-351.36"/>
</g>
<!-- Node6 -->
<g id="node6" class="node">
<title>Node6</title>
<g id="a_node6"><a xlink:href="namespaceupdate_document_to_c.html#a87b6a61d3e0018a6c61ae524d9edae1b" target="_top" xlink:title=" ">
<polygon fill="white" stroke="black" points="414.5,-313.5 414.5,-332.5 581.5,-332.5 581.5,-313.5 414.5,-313.5"/>
<text text-anchor="middle" x="498" y="-320.5" font-family="Helvetica,sans-Serif" font-size="10.00">updateDocumentToC.createToc</text>
</a>
</g>
</g>
<!-- Node4&#45;&gt;Node6 -->
<g id="edge5" class="edge">
<title>Node4&#45;&gt;Node6</title>
<path fill="none" stroke="midnightblue" d="M292.64,-223.01C313.83,-244.53 356.04,-283.78 400,-304 405.44,-306.5 411.21,-308.68 417.1,-310.57"/>
<polygon fill="midnightblue" stroke="midnightblue" points="416.53,-314.04 427.11,-313.48 418.49,-307.32 416.53,-314.04"/>
</g>
<!-- Node7 -->
<g id="node7" class="node">
<title>Node7</title>
<g id="a_node7"><a xlink:href="namespaceupdate_document_to_c.html#a7f4d8730cc31785294777e93f91e1060" target="_top" xlink:title=" ">
<polygon fill="white" stroke="black" points="422,-264 422,-294 574,-294 574,-264 422,-264"/>
<text text-anchor="start" x="430" y="-282" font-family="Helvetica,sans-Serif" font-size="10.00">updateDocumentToC.output</text>
<text text-anchor="middle" x="498" y="-271" font-family="Helvetica,sans-Serif" font-size="10.00">Markdown</text>
</a>
</g>
</g>
<!-- Node4&#45;&gt;Node7 -->
<g id="edge6" class="edge">
<title>Node4&#45;&gt;Node7</title>
<path fill="none" stroke="midnightblue" d="M313.96,-223.09C337.97,-232.96 370.56,-245.7 400,-255 406.94,-257.19 414.21,-259.31 421.51,-261.32"/>
<polygon fill="midnightblue" stroke="midnightblue" points="420.9,-264.78 431.46,-263.98 422.71,-258.01 420.9,-264.78"/>
</g>
<!-- Node8 -->
<g id="node8" class="node">
<title>Node8</title>
<g id="a_node8"><a xlink:href="namespaceupdate_document_to_c.html#aa0d7e95fb6e8e7a0e3013b9a9d5924b7" target="_top" xlink:title=" ">
<polygon fill="white" stroke="black" points="410.5,-215 410.5,-245 585.5,-245 585.5,-215 410.5,-215"/>
<text text-anchor="start" x="418.5" y="-233" font-family="Helvetica,sans-Serif" font-size="10.00">updateDocumentToC.positioning</text>
<text text-anchor="middle" x="498" y="-222" font-family="Helvetica,sans-Serif" font-size="10.00">Headlines</text>
</a>
</g>
</g>
<!-- Node4&#45;&gt;Node8 -->
<g id="edge7" class="edge">
<title>Node4&#45;&gt;Node8</title>
<path fill="none" stroke="midnightblue" d="M364.23,-216.63C376.09,-217.83 388.34,-219.06 400.39,-220.27"/>
<polygon fill="midnightblue" stroke="midnightblue" points="400.14,-223.77 410.44,-221.28 400.84,-216.8 400.14,-223.77"/>
</g>
<!-- Node9 -->
<g id="node9" class="node">
<title>Node9</title>
<g id="a_node9"><a xlink:href="namespaceupdate_document_to_c.html#a7b32b774b30b1dba5993b6d8ae717884" target="_top" xlink:title=" ">
<polygon fill="white" stroke="black" points="414,-176.5 414,-195.5 582,-195.5 582,-176.5 414,-176.5"/>
<text text-anchor="middle" x="498" y="-183.5" font-family="Helvetica,sans-Serif" font-size="10.00">updateDocumentToC.readLines</text>
</a>
</g>
</g>
<!-- Node4&#45;&gt;Node9 -->
<g id="edge8" class="edge">
<title>Node4&#45;&gt;Node9</title>
<path fill="none" stroke="midnightblue" d="M364.23,-199.37C377.06,-198.08 390.34,-196.74 403.33,-195.43"/>
<polygon fill="midnightblue" stroke="midnightblue" points="404.06,-198.88 413.66,-194.39 403.36,-191.91 404.06,-198.88"/>
</g>
<!-- Node10 -->
<g id="node10" class="node">
<title>Node10</title>
<g id="a_node10"><a xlink:href="namespaceupdate_document_to_c.html#a903e91fb9f75fc7d6061dd74b6445503" target="_top" xlink:title=" ">
<polygon fill="white" stroke="black" points="419,-127 419,-157 577,-157 577,-127 419,-127"/>
<text text-anchor="start" x="427" y="-145" font-family="Helvetica,sans-Serif" font-size="10.00">updateDocumentToC.remove</text>
<text text-anchor="middle" x="498" y="-134" font-family="Helvetica,sans-Serif" font-size="10.00">Lines</text>
</a>
</g>
</g>
<!-- Node4&#45;&gt;Node10 -->
<g id="edge9" class="edge">
<title>Node4&#45;&gt;Node10</title>
<path fill="none" stroke="midnightblue" d="M320.71,-192.91C343.97,-184.81 373.43,-174.89 400,-167 408.36,-164.52 417.16,-162.05 425.92,-159.68"/>
<polygon fill="midnightblue" stroke="midnightblue" points="426.99,-163.02 435.75,-157.06 425.19,-156.25 426.99,-163.02"/>
</g>
<!-- Node11 -->
<g id="node11" class="node">
<title>Node11</title>
<g id="a_node11"><a xlink:href="namespaceupdate_document_to_c.html#ab377501b2e8fa1a4198fc26851923073" target="_top" xlink:title=" ">
<polygon fill="white" stroke="black" points="410,-88.5 410,-107.5 586,-107.5 586,-88.5 410,-88.5"/>
<text text-anchor="middle" x="498" y="-95.5" font-family="Helvetica,sans-Serif" font-size="10.00">updateDocumentToC.removeToC</text>
</a>
</g>
</g>
<!-- Node4&#45;&gt;Node11 -->
<g id="edge10" class="edge">
<title>Node4&#45;&gt;Node11</title>
<path fill="none" stroke="midnightblue" d="M293.95,-193C315.74,-172.73 357.58,-136.96 400,-118 406.69,-115.01 413.84,-112.46 421.12,-110.29"/>
<polygon fill="midnightblue" stroke="midnightblue" points="422.36,-113.57 431.08,-107.55 420.51,-106.82 422.36,-113.57"/>
</g>
<!-- Node12 -->
<g id="node12" class="node">
<title>Node12</title>
<g id="a_node12"><a xlink:href="namespaceupdate_document_to_c.html#a956b066e815f1e3b053f5fd82a0808aa" target="_top" xlink:title=" ">
<polygon fill="white" stroke="black" points="420.5,-39 420.5,-69 575.5,-69 575.5,-39 420.5,-39"/>
<text text-anchor="start" x="428.5" y="-57" font-family="Helvetica,sans-Serif" font-size="10.00">updateDocumentToC.tagAnd</text>
<text text-anchor="middle" x="498" y="-46" font-family="Helvetica,sans-Serif" font-size="10.00">Collect</text>
</a>
</g>
</g>
<!-- Node4&#45;&gt;Node12 -->
<g id="edge11" class="edge">
<title>Node4&#45;&gt;Node12</title>
<path fill="none" stroke="midnightblue" d="M292.8,-192.76C324.74,-158.74 399.17,-79.49 400,-79 403.71,-76.81 407.6,-74.81 411.62,-72.98"/>
<polygon fill="midnightblue" stroke="midnightblue" points="413.26,-76.09 421.16,-69.03 410.59,-69.62 413.26,-76.09"/>
</g>
<!-- Node13 -->
<g id="node13" class="node">
<title>Node13</title>
<g id="a_node13"><a xlink:href="namespaceupdate_document_to_c.html#a99f779ba822f5daebbb24459014dfa98" target="_top" xlink:title=" ">
<polygon fill="white" stroke="black" points="632,-61 632,-91 788,-91 788,-61 632,-61"/>
<text text-anchor="start" x="640" y="-79" font-family="Helvetica,sans-Serif" font-size="10.00">updateDocumentToC.dashify</text>
<text text-anchor="middle" x="710" y="-68" font-family="Helvetica,sans-Serif" font-size="10.00">Headline</text>
</a>
</g>
</g>
<!-- Node12&#45;&gt;Node13 -->
<g id="edge12" class="edge">
<title>Node12&#45;&gt;Node13</title>
<path fill="none" stroke="midnightblue" d="M575.71,-62.04C590.7,-63.61 606.53,-65.26 621.83,-66.87"/>
<polygon fill="midnightblue" stroke="midnightblue" points="621.49,-70.35 631.8,-67.91 622.22,-63.39 621.49,-70.35"/>
</g>
<!-- Node14 -->
<g id="node14" class="node">
<title>Node14</title>
<g id="a_node14"><a xlink:href="language_2lib_2_catch2_2_c_make_lists_8txt.html#a7d4ba700ee77373e06dc8f4eadd916e0" target="_top" xlink:title=" ">
<polygon fill="white" stroke="black" points="694,-22.5 694,-41.5 726,-41.5 726,-22.5 694,-22.5"/>
<text text-anchor="middle" x="710" y="-29.5" font-family="Helvetica,sans-Serif" font-size="10.00">set</text>
</a>
</g>
</g>
<!-- Node12&#45;&gt;Node14 -->
<g id="edge13" class="edge">
<title>Node12&#45;&gt;Node14</title>
<path fill="none" stroke="midnightblue" d="M575.71,-45.96C613.81,-41.97 657.28,-37.42 683.93,-34.63"/>
<polygon fill="midnightblue" stroke="midnightblue" points="684.35,-38.1 693.93,-33.58 683.62,-31.14 684.35,-38.1"/>
</g>
<!-- Node16 -->
<g id="node16" class="node">
<title>Node16</title>
<g id="a_node16"><a xlink:href="210-_evt-_event_listeners_8cpp.html#aaf05ec28baf9169e247960554e9ffbcb" target="_top" xlink:title=" ">
<polygon fill="white" stroke="black" points="483,-0.5 483,-19.5 513,-19.5 513,-0.5 483,-0.5"/>
<text text-anchor="middle" x="498" y="-7.5" font-family="Helvetica,sans-Serif" font-size="10.00">ws</text>
</a>
</g>
</g>
<!-- Node15&#45;&gt;Node16 -->
<g id="edge15" class="edge">
<title>Node15&#45;&gt;Node16</title>
<path fill="none" stroke="midnightblue" d="M292.39,-88.33C314.27,-73.56 358.55,-45.45 400,-30 423.93,-21.08 452.73,-15.78 472.71,-12.9"/>
<polygon fill="midnightblue" stroke="midnightblue" points="473.37,-16.34 482.81,-11.54 472.43,-9.41 473.37,-16.34"/>
</g>
</g>
</svg>
        <g id="navigator" transform="translate(0 0)" fill="#404254">
                <rect fill="#f2f5e9" fill-opacity="0.5" stroke="#606060" stroke-width=".5" x="0" y="0" width="60" height="60"/>
                <use id="zoomplus" xlink:href="#zoomPlus" x="17" y="9" onmousedown="handleZoom(evt,'in')"/>
                <use id="zoomminus" xlink:href="#zoomMin" x="42" y="9" onmousedown="handleZoom(evt,'out')"/>
                <use id="reset" xlink:href="#resetDef" x="30" y="36" onmousedown="handleReset()"/>
                <g id="arrowUp" xlink:href="#dirArrow" transform="translate(30 24)" onmousedown="handlePan(0,-1)">
                  <use xlink:href="#rim" fill="#404040">
                        <set attributeName="fill" to="#808080" begin="arrowUp.mouseover" end="arrowUp.mouseout"/>
                  </use>
                  <path fill="none" stroke="white" stroke-width="1.5" d="M0,-3.0v7 M-2.5,-0.5L0,-3.0L2.5,-0.5"/>
                </g>
                <g id="arrowRight" xlink:href="#dirArrow" transform="rotate(90) translate(36 -43)" onmousedown="handlePan(1,0)">
                  <use xlink:href="#rim" fill="#404040">
                        <set attributeName="fill" to="#808080" begin="arrowRight.mouseover" end="arrowRight.mouseout"/>
                  </use>
                  <path fill="none" stroke="white" stroke-width="1.5" d="M0,-3.0v7 M-2.5,-0.5L0,-3.0L2.5,-0.5"/>
                </g>
                <g id="arrowDown" xlink:href="#dirArrow" transform="rotate(180) translate(-30 -48)" onmousedown="handlePan(0,1)">
                  <use xlink:href="#rim" fill="#404040">
                        <set attributeName="fill" to="#808080" begin="arrowDown.mouseover" end="arrowDown.mouseout"/>
                  </use>
                  <path fill="none" stroke="white" stroke-width="1.5" d="M0,-3.0v7 M-2.5,-0.5L0,-3.0L2.5,-0.5"/>
                </g>
                <g id="arrowLeft" xlink:href="#dirArrow" transform="rotate(270) translate(-36 17)" onmousedown="handlePan(-1,0)">
                  <use xlink:href="#rim" fill="#404040">
                        <set attributeName="fill" to="#808080" begin="arrowLeft.mouseover" end="arrowLeft.mouseout"/>
                  </use>
                  <path fill="none" stroke="white" stroke-width="1.5" d="M0,-3.0v7 M-2.5,-0.5L0,-3.0L2.5,-0.5"/>
                </g>
        </g>
        <svg viewBox="0 0 15 15" width="100%" height="30px" preserveAspectRatio="xMaxYMin meet">
         <g id="arrow_out" transform="scale(0.3 0.3)">
          <a xlink:href="namespaceupdate_document_to_c_a922b50b4494d30587893779a1d968f79_cgraph_org.svg" target="_base">
           <rect id="button" ry="5" rx="5" y="6" x="6" height="38" width="38"
                fill="#f2f5e9" fill-opacity="0.5" stroke="#606060" stroke-width="1.0"/>
           <path id="arrow"
             d="M 11.500037,31.436501 C 11.940474,20.09759 22.043105,11.32322 32.158766,21.979434 L 37.068811,17.246167 C 37.068811,17.246167 37.088388,32 37.088388,32 L 22.160133,31.978069 C 22.160133,31.978069 26.997745,27.140456 26.997745,27.140456 C 18.528582,18.264221 13.291696,25.230495 11.500037,31.436501 z"
             style="fill:#404040;"/>
          </a>
         </g>
        </svg>
</svg>
