<?xml version="1.0" encoding="UTF-8" standalone="no"?>
<!DOCTYPE svg PUBLIC "-//W3C//DTD SVG 1.1//EN"
 "http://www.w3.org/Graphics/SVG/1.1/DTD/svg11.dtd">
<!-- Generated by graphviz version 2.43.0 (0)
 -->
<!-- Title: benchmarkCompile.generate_file Pages: 1 -->
<svg width="819pt" height="127pt"
 viewBox="0.00 0.00 819.00 127.00" xmlns="http://www.w3.org/2000/svg" xmlns:xlink="http://www.w3.org/1999/xlink">
<g id="graph0" class="graph" transform="scale(1 1) rotate(0) translate(4 123)">
<title>benchmarkCompile.generate_file</title>
<polygon fill="white" stroke="transparent" points="-4,4 -4,-123 815,-123 815,4 -4,4"/>
<!-- Node1 -->
<g id="node1" class="node">
<title>Node1</title>
<g id="a_node1"><a xlink:title=" ">
<polygon fill="#bfbfbf" stroke="black" points="0,-50 0,-69 179,-69 179,-50 0,-50"/>
<text text-anchor="middle" x="89.5" y="-57" font-family="Helvetica,sans-Serif" font-size="10.00">benchmarkCompile.generate_file</text>
</a>
</g>
</g>
<!-- Node2 -->
<g id="node2" class="node">
<title>Node2</title>
<g id="a_node2"><a xlink:href="namespacebenchmark_compile.html#a467d219dfb56b5c90903a9f91ab0def4" target="_top" xlink:title=" ">
<polygon fill="white" stroke="black" points="226,-88.5 226,-118.5 362,-118.5 362,-88.5 226,-88.5"/>
<text text-anchor="start" x="234" y="-106.5" font-family="Helvetica,sans-Serif" font-size="10.00">benchmarkCompile.char</text>
<text text-anchor="middle" x="294" y="-95.5" font-family="Helvetica,sans-Serif" font-size="10.00">_range</text>
</a>
</g>
</g>
<!-- Node1&#45;&gt;Node2 -->
<g id="edge1" class="edge">
<title>Node1&#45;&gt;Node2</title>
<path fill="none" stroke="midnightblue" d="M134.44,-69.05C158.16,-74.2 188.15,-80.72 215.64,-86.69"/>
<polygon fill="midnightblue" stroke="midnightblue" points="215.12,-90.16 225.64,-88.86 216.61,-83.32 215.12,-90.16"/>
</g>
<!-- Node3 -->
<g id="node3" class="node">
<title>Node3</title>
<g id="a_node3"><a xlink:href="namespace_catch_1_1_generators.html#a6e53e65dfedc4d39febcb7b2b862afd9" target="_top" xlink:title=" ">
<polygon fill="white" stroke="black" points="409,-44.5 409,-74.5 519,-74.5 519,-44.5 409,-44.5"/>
<text text-anchor="start" x="417" y="-62.5" font-family="Helvetica,sans-Serif" font-size="10.00">Catch::Generators::</text>
<text text-anchor="middle" x="464" y="-51.5" font-family="Helvetica,sans-Serif" font-size="10.00">range</text>
</a>
</g>
</g>
<!-- Node1&#45;&gt;Node3 -->
<g id="edge8" class="edge">
<title>Node1&#45;&gt;Node3</title>
<path fill="none" stroke="midnightblue" d="M179.25,-59.5C246.79,-59.5 338.14,-59.5 398.74,-59.5"/>
<polygon fill="midnightblue" stroke="midnightblue" points="398.94,-63 408.94,-59.5 398.94,-56 398.94,-63"/>
</g>
<!-- Node6 -->
<g id="node6" class="node">
<title>Node6</title>
<g id="a_node6"><a xlink:href="namespacebenchmark_compile.html#a8e2bece2b3c7e820d40681edf3f8433f" target="_top" xlink:title=" ">
<polygon fill="white" stroke="black" points="215,-0.5 215,-30.5 373,-30.5 373,-0.5 215,-0.5"/>
<text text-anchor="start" x="223" y="-18.5" font-family="Helvetica,sans-Serif" font-size="10.00">benchmarkCompile.generate</text>
<text text-anchor="middle" x="294" y="-7.5" font-family="Helvetica,sans-Serif" font-size="10.00">_sections</text>
</a>
</g>
</g>
<!-- Node1&#45;&gt;Node6 -->
<g id="edge6" class="edge">
<title>Node1&#45;&gt;Node6</title>
<path fill="none" stroke="midnightblue" d="M134.44,-49.95C157.65,-44.91 186.84,-38.57 213.83,-32.7"/>
<polygon fill="midnightblue" stroke="midnightblue" points="214.64,-36.11 223.67,-30.57 213.15,-29.27 214.64,-36.11"/>
</g>
<!-- Node2&#45;&gt;Node3 -->
<g id="edge2" class="edge">
<title>Node2&#45;&gt;Node3</title>
<path fill="none" stroke="midnightblue" d="M352.35,-88.48C367.32,-84.56 383.55,-80.31 398.85,-76.3"/>
<polygon fill="midnightblue" stroke="midnightblue" points="399.96,-79.63 408.75,-73.71 398.18,-72.86 399.96,-79.63"/>
</g>
<!-- Node4 -->
<g id="node4" class="node">
<title>Node4</title>
<g id="a_node4"><a xlink:href="namespace_catch_1_1_generators_1_1pf.html#a015e8fcef2972da878a07023e40d46d8" target="_top" xlink:title=" ">
<polygon fill="white" stroke="black" points="701,-44.5 701,-74.5 811,-74.5 811,-44.5 701,-44.5"/>
<text text-anchor="start" x="709" y="-62.5" font-family="Helvetica,sans-Serif" font-size="10.00">Catch::Generators::</text>
<text text-anchor="middle" x="756" y="-51.5" font-family="Helvetica,sans-Serif" font-size="10.00">pf::make_unique</text>
</a>
</g>
</g>
<!-- Node3&#45;&gt;Node4 -->
<g id="edge3" class="edge">
<title>Node3&#45;&gt;Node4</title>
<path fill="none" stroke="midnightblue" d="M519.25,-61.6C531.03,-61.98 543.43,-62.31 555,-62.5 603.88,-63.31 616.12,-63.31 665,-62.5 673.31,-62.36 682.06,-62.15 690.7,-61.9"/>
<polygon fill="midnightblue" stroke="midnightblue" points="690.86,-65.4 700.75,-61.6 690.65,-58.4 690.86,-65.4"/>
</g>
<!-- Node5 -->
<g id="node5" class="node">
<title>Node5</title>
<g id="a_node5"><a xlink:href="namespace_catch_1_1_generators.html#a3b2efc97978cf37951b75394aae1a3fb" target="_top" xlink:title=" ">
<polygon fill="white" stroke="black" points="555,-22.5 555,-52.5 665,-52.5 665,-22.5 555,-22.5"/>
<text text-anchor="start" x="563" y="-40.5" font-family="Helvetica,sans-Serif" font-size="10.00">Catch::Generators::</text>
<text text-anchor="middle" x="610" y="-29.5" font-family="Helvetica,sans-Serif" font-size="10.00">value</text>
</a>
</g>
</g>
<!-- Node3&#45;&gt;Node5 -->
<g id="edge4" class="edge">
<title>Node3&#45;&gt;Node5</title>
<path fill="none" stroke="midnightblue" d="M519.03,-51.25C527.4,-49.97 536.13,-48.63 544.7,-47.32"/>
<polygon fill="midnightblue" stroke="midnightblue" points="545.31,-50.77 554.67,-45.8 544.25,-43.85 545.31,-50.77"/>
</g>
<!-- Node5&#45;&gt;Node4 -->
<g id="edge5" class="edge">
<title>Node5&#45;&gt;Node4</title>
<path fill="none" stroke="midnightblue" d="M665.03,-45.75C673.4,-47.03 682.13,-48.37 690.7,-49.68"/>
<polygon fill="midnightblue" stroke="midnightblue" points="690.25,-53.15 700.67,-51.2 691.31,-46.23 690.25,-53.15"/>
</g>
<!-- Node6&#45;&gt;Node3 -->
<g id="edge7" class="edge">
<title>Node6&#45;&gt;Node3</title>
<path fill="none" stroke="midnightblue" d="M352.35,-30.52C367.32,-34.44 383.55,-38.69 398.85,-42.7"/>
<polygon fill="midnightblue" stroke="midnightblue" points="398.18,-46.14 408.75,-45.29 399.96,-39.37 398.18,-46.14"/>
</g>
</g>
</svg>
