<?xml version="1.0" encoding="UTF-8" standalone="no"?>
<!DOCTYPE svg PUBLIC "-//W3C//DTD SVG 1.1//EN"
 "http://www.w3.org/Graphics/SVG/1.1/DTD/svg11.dtd">
<!-- Generated by graphviz version 2.43.0 (0)
 -->
<!-- Title: Catch::fpToString Pages: 1 -->
<svg width="467pt" height="154pt"
 viewBox="0.00 0.00 467.00 153.50" xmlns="http://www.w3.org/2000/svg" xmlns:xlink="http://www.w3.org/1999/xlink">
<g id="graph0" class="graph" transform="scale(1 1) rotate(0) translate(4 149.5)">
<title>Catch::fpToString</title>
<polygon fill="white" stroke="transparent" points="-4,4 -4,-149.5 463,-149.5 463,4 -4,4"/>
<!-- Node1 -->
<g id="node1" class="node">
<title>Node1</title>
<g id="a_node1"><a xlink:title=" ">
<polygon fill="#bfbfbf" stroke="black" points="0,-69 0,-88 99,-88 99,-69 0,-69"/>
<text text-anchor="middle" x="49.5" y="-76" font-family="Helvetica,sans-Serif" font-size="10.00">Catch::fpToString</text>
</a>
</g>
</g>
<!-- Node2 -->
<g id="node2" class="node">
<title>Node2</title>
<g id="a_node2"><a xlink:href="namespace_catch.html#aff37796f0f578c2816f74267e641c5f7" target="_top" xlink:title=" ">
<polygon fill="white" stroke="black" points="185.5,-126 185.5,-145 262.5,-145 262.5,-126 185.5,-126"/>
<text text-anchor="middle" x="224" y="-133" font-family="Helvetica,sans-Serif" font-size="10.00">Catch::isnan</text>
</a>
</g>
</g>
<!-- Node1&#45;&gt;Node2 -->
<g id="edge1" class="edge">
<title>Node1&#45;&gt;Node2</title>
<path fill="none" stroke="midnightblue" d="M68.85,-88.11C85.67,-96.58 111.47,-108.76 135,-116.5 147.9,-120.74 162.17,-124.29 175.41,-127.13"/>
<polygon fill="midnightblue" stroke="midnightblue" points="174.78,-130.58 185.28,-129.16 176.2,-123.72 174.78,-130.58"/>
</g>
<!-- Node4 -->
<g id="node4" class="node">
<title>Node4</title>
<g id="a_node4"><a xlink:href="xml_8sw_8approved_8txt.html#ab8b8577604b92144025744c78797c3bc" target="_top" xlink:title=" ">
<polygon fill="white" stroke="black" points="201.5,-88 201.5,-107 246.5,-107 246.5,-88 201.5,-88"/>
<text text-anchor="middle" x="224" y="-95" font-family="Helvetica,sans-Serif" font-size="10.00">size_t</text>
</a>
</g>
</g>
<!-- Node1&#45;&gt;Node4 -->
<g id="edge3" class="edge">
<title>Node1&#45;&gt;Node4</title>
<path fill="none" stroke="midnightblue" d="M99.01,-83.84C128.61,-87.1 165.61,-91.18 191.45,-94.02"/>
<polygon fill="midnightblue" stroke="midnightblue" points="191.12,-97.51 201.44,-95.13 191.89,-90.55 191.12,-97.51"/>
</g>
<!-- Node5 -->
<g id="node5" class="node">
<title>Node5</title>
<g id="a_node5"><a xlink:href="class_catch_1_1_reusable_string_stream.html#a0e9ecf260b2a5d35f4886ef0d51f6270" target="_top" xlink:title=" ">
<polygon fill="white" stroke="black" points="135,-50 135,-69 313,-69 313,-50 135,-50"/>
<text text-anchor="middle" x="224" y="-57" font-family="Helvetica,sans-Serif" font-size="10.00">Catch::ReusableStringStream::str</text>
</a>
</g>
</g>
<!-- Node1&#45;&gt;Node5 -->
<g id="edge4" class="edge">
<title>Node1&#45;&gt;Node5</title>
<path fill="none" stroke="midnightblue" d="M99.01,-73.16C107.74,-72.2 117.11,-71.16 126.64,-70.11"/>
<polygon fill="midnightblue" stroke="midnightblue" points="127.07,-73.59 136.62,-69.01 126.3,-66.63 127.07,-73.59"/>
</g>
<!-- Node6 -->
<g id="node6" class="node">
<title>Node6</title>
<g id="a_node6"><a xlink:href="namespace_catch_1_1_generators.html#a3b2efc97978cf37951b75394aae1a3fb" target="_top" xlink:title=" ">
<polygon fill="white" stroke="black" points="169,-0.5 169,-30.5 279,-30.5 279,-0.5 169,-0.5"/>
<text text-anchor="start" x="177" y="-18.5" font-family="Helvetica,sans-Serif" font-size="10.00">Catch::Generators::</text>
<text text-anchor="middle" x="224" y="-7.5" font-family="Helvetica,sans-Serif" font-size="10.00">value</text>
</a>
</g>
</g>
<!-- Node1&#45;&gt;Node6 -->
<g id="edge5" class="edge">
<title>Node1&#45;&gt;Node6</title>
<path fill="none" stroke="midnightblue" d="M69.63,-68.93C86.55,-60.7 112.03,-48.88 135,-40.5 142.64,-37.71 150.74,-35.04 158.81,-32.55"/>
<polygon fill="midnightblue" stroke="midnightblue" points="160.05,-35.84 168.62,-29.61 158.03,-29.13 160.05,-35.84"/>
</g>
<!-- Node3 -->
<g id="node3" class="node">
<title>Node3</title>
<g id="a_node3"><a xlink:href="namespace_catch.html#a37d450336c237ac77721f0a3f9fb048d" target="_top" xlink:title=" ">
<polygon fill="white" stroke="black" points="365.5,-126 365.5,-145 442.5,-145 442.5,-126 365.5,-126"/>
<text text-anchor="middle" x="404" y="-133" font-family="Helvetica,sans-Serif" font-size="10.00">Catch::isnan</text>
</a>
</g>
</g>
<!-- Node2&#45;&gt;Node3 -->
<g id="edge2" class="edge">
<title>Node2&#45;&gt;Node3</title>
<path fill="none" stroke="midnightblue" d="M262.75,-135.5C289.65,-135.5 326.03,-135.5 355,-135.5"/>
<polygon fill="midnightblue" stroke="midnightblue" points="355.31,-139 365.31,-135.5 355.31,-132 355.31,-139"/>
</g>
<!-- Node7 -->
<g id="node7" class="node">
<title>Node7</title>
<g id="a_node7"><a xlink:href="namespace_catch_1_1_generators_1_1pf.html#a015e8fcef2972da878a07023e40d46d8" target="_top" xlink:title=" ">
<polygon fill="white" stroke="black" points="349,-0.5 349,-30.5 459,-30.5 459,-0.5 349,-0.5"/>
<text text-anchor="start" x="357" y="-18.5" font-family="Helvetica,sans-Serif" font-size="10.00">Catch::Generators::</text>
<text text-anchor="middle" x="404" y="-7.5" font-family="Helvetica,sans-Serif" font-size="10.00">pf::make_unique</text>
</a>
</g>
</g>
<!-- Node6&#45;&gt;Node7 -->
<g id="edge6" class="edge">
<title>Node6&#45;&gt;Node7</title>
<path fill="none" stroke="midnightblue" d="M279.37,-15.5C298.18,-15.5 319.43,-15.5 338.94,-15.5"/>
<polygon fill="midnightblue" stroke="midnightblue" points="338.96,-19 348.96,-15.5 338.96,-12 338.96,-19"/>
</g>
</g>
</svg>
