<?xml version="1.0" encoding="UTF-8" standalone="no"?>
<!DOCTYPE svg PUBLIC "-//W3C//DTD SVG 1.1//EN"
 "http://www.w3.org/Graphics/SVG/1.1/DTD/svg11.dtd">
<!-- Generated by graphviz version 2.43.0 (0)
 -->
<!-- Title: Catch::isnan Pages: 1 -->
<svg width="484pt" height="88pt"
 viewBox="0.00 0.00 484.00 88.00" xmlns="http://www.w3.org/2000/svg" xmlns:xlink="http://www.w3.org/1999/xlink">
<g id="graph0" class="graph" transform="scale(1 1) rotate(0) translate(4 84)">
<title>Catch::isnan</title>
<polygon fill="white" stroke="transparent" points="-4,4 -4,-84 480,-84 480,4 -4,4"/>
<!-- Node1 -->
<g id="node1" class="node">
<title>Node1</title>
<g id="a_node1"><a xlink:title=" ">
<polygon fill="#bfbfbf" stroke="black" points="399,-30 399,-49 476,-49 476,-30 399,-30"/>
<text text-anchor="middle" x="437.5" y="-37" font-family="Helvetica,sans-Serif" font-size="10.00">Catch::isnan</text>
</a>
</g>
</g>
<!-- Node2 -->
<g id="node2" class="node">
<title>Node2</title>
<g id="a_node2"><a xlink:href="namespace_catch.html#aff37796f0f578c2816f74267e641c5f7" target="_top" xlink:title=" ">
<polygon fill="white" stroke="black" points="286,-30 286,-49 363,-49 363,-30 286,-30"/>
<text text-anchor="middle" x="324.5" y="-37" font-family="Helvetica,sans-Serif" font-size="10.00">Catch::isnan</text>
</a>
</g>
</g>
<!-- Node1&#45;&gt;Node2 -->
<g id="edge1" class="edge">
<title>Node1&#45;&gt;Node2</title>
<path fill="none" stroke="midnightblue" d="M388.65,-39.5C380.08,-39.5 371.27,-39.5 363.04,-39.5"/>
<polygon fill="midnightblue" stroke="midnightblue" points="388.92,-43 398.92,-39.5 388.92,-36 388.92,-43"/>
</g>
<!-- Node3 -->
<g id="node3" class="node">
<title>Node3</title>
<g id="a_node3"><a xlink:href="namespace_catch.html#aca1a4cc9bcecb9df089c972ce72d4737" target="_top" xlink:title=" ">
<polygon fill="white" stroke="black" points="151,-30 151,-49 250,-49 250,-30 151,-30"/>
<text text-anchor="middle" x="200.5" y="-37" font-family="Helvetica,sans-Serif" font-size="10.00">Catch::fpToString</text>
</a>
</g>
</g>
<!-- Node2&#45;&gt;Node3 -->
<g id="edge2" class="edge">
<title>Node2&#45;&gt;Node3</title>
<path fill="none" stroke="midnightblue" d="M275.64,-39.5C267.37,-39.5 258.75,-39.5 250.44,-39.5"/>
<polygon fill="midnightblue" stroke="midnightblue" points="275.9,-43 285.9,-39.5 275.9,-36 275.9,-43"/>
</g>
<!-- Node4 -->
<g id="node4" class="node">
<title>Node4</title>
<g id="a_node4"><a xlink:href="struct_catch_1_1_string_maker_3_01float_01_4.html#a66facca36c17466a954f12c93e9481a7" target="_top" xlink:title=" ">
<polygon fill="white" stroke="black" points="3,-49.5 3,-79.5 112,-79.5 112,-49.5 3,-49.5"/>
<text text-anchor="start" x="11" y="-67.5" font-family="Helvetica,sans-Serif" font-size="10.00">Catch::StringMaker</text>
<text text-anchor="middle" x="57.5" y="-56.5" font-family="Helvetica,sans-Serif" font-size="10.00">&lt; float &gt;::convert</text>
</a>
</g>
</g>
<!-- Node3&#45;&gt;Node4 -->
<g id="edge3" class="edge">
<title>Node3&#45;&gt;Node4</title>
<path fill="none" stroke="midnightblue" d="M140.89,-49.89C131.46,-51.56 121.74,-53.29 112.43,-54.94"/>
<polygon fill="midnightblue" stroke="midnightblue" points="141.74,-53.3 150.98,-48.1 140.52,-46.4 141.74,-53.3"/>
</g>
<!-- Node5 -->
<g id="node5" class="node">
<title>Node5</title>
<g id="a_node5"><a xlink:href="struct_catch_1_1_string_maker_3_01double_01_4.html#a432c08cda58fed297a2324c8dd1f3301" target="_top" xlink:title=" ">
<polygon fill="white" stroke="black" points="0,-0.5 0,-30.5 115,-30.5 115,-0.5 0,-0.5"/>
<text text-anchor="start" x="8" y="-18.5" font-family="Helvetica,sans-Serif" font-size="10.00">Catch::StringMaker</text>
<text text-anchor="middle" x="57.5" y="-7.5" font-family="Helvetica,sans-Serif" font-size="10.00">&lt; double &gt;::convert</text>
</a>
</g>
</g>
<!-- Node3&#45;&gt;Node5 -->
<g id="edge4" class="edge">
<title>Node3&#45;&gt;Node5</title>
<path fill="none" stroke="midnightblue" d="M140.85,-29.52C132.42,-28.08 123.76,-26.61 115.37,-25.18"/>
<polygon fill="midnightblue" stroke="midnightblue" points="140.53,-33.01 150.98,-31.24 141.7,-26.11 140.53,-33.01"/>
</g>
</g>
</svg>
