<?xml version="1.0" encoding="UTF-8" standalone="no"?>
<!DOCTYPE svg PUBLIC "-//W3C//DTD SVG 1.1//EN"
 "http://www.w3.org/Graphics/SVG/1.1/DTD/svg11.dtd">
<!-- Generated by graphviz version 2.43.0 (0)
 -->
<!-- Title: Catch::Detail::rawMemoryToString Pages: 1 -->
<svg width="298pt" height="88pt"
 viewBox="0.00 0.00 298.00 88.00" xmlns="http://www.w3.org/2000/svg" xmlns:xlink="http://www.w3.org/1999/xlink">
<g id="graph0" class="graph" transform="scale(1 1) rotate(0) translate(4 84)">
<title>Catch::Detail::rawMemoryToString</title>
<polygon fill="white" stroke="transparent" points="-4,4 -4,-84 294,-84 294,4 -4,4"/>
<!-- Node1 -->
<g id="node1" class="node">
<title>Node1</title>
<g id="a_node1"><a xlink:title=" ">
<polygon fill="#bfbfbf" stroke="black" points="146,-24.5 146,-54.5 290,-54.5 290,-24.5 146,-24.5"/>
<text text-anchor="start" x="154" y="-42.5" font-family="Helvetica,sans-Serif" font-size="10.00">Catch::Detail::rawMemory</text>
<text text-anchor="middle" x="218" y="-31.5" font-family="Helvetica,sans-Serif" font-size="10.00">ToString</text>
</a>
</g>
</g>
<!-- Node2 -->
<g id="node2" class="node">
<title>Node2</title>
<g id="a_node2"><a xlink:href="struct_catch_1_1_string_maker_3_01_t_01_5_01_4.html#a2adbc75c99d71b8323f4052bcb0815c9" target="_top" xlink:title=" ">
<polygon fill="white" stroke="black" points="0.5,-49.5 0.5,-79.5 109.5,-79.5 109.5,-49.5 0.5,-49.5"/>
<text text-anchor="start" x="8.5" y="-67.5" font-family="Helvetica,sans-Serif" font-size="10.00">Catch::StringMaker</text>
<text text-anchor="middle" x="55" y="-56.5" font-family="Helvetica,sans-Serif" font-size="10.00">&lt; T * &gt;::convert</text>
</a>
</g>
</g>
<!-- Node1&#45;&gt;Node2 -->
<g id="edge1" class="edge">
<title>Node1&#45;&gt;Node2</title>
<path fill="none" stroke="midnightblue" d="M135.92,-52.09C127.05,-53.47 118.2,-54.84 109.78,-56.15"/>
<polygon fill="midnightblue" stroke="midnightblue" points="136.57,-55.53 145.91,-50.54 135.5,-48.61 136.57,-55.53"/>
</g>
<!-- Node3 -->
<g id="node3" class="node">
<title>Node3</title>
<g id="a_node3"><a xlink:href="struct_catch_1_1_string_maker_3_01_r_01_c_1_1_5_01_4.html#af69c15e0b406e945777137fe4a333731" target="_top" xlink:title=" ">
<polygon fill="white" stroke="black" points="0,-0.5 0,-30.5 110,-30.5 110,-0.5 0,-0.5"/>
<text text-anchor="start" x="8" y="-18.5" font-family="Helvetica,sans-Serif" font-size="10.00">Catch::StringMaker</text>
<text text-anchor="middle" x="55" y="-7.5" font-family="Helvetica,sans-Serif" font-size="10.00">&lt; R C::* &gt;::convert</text>
</a>
</g>
</g>
<!-- Node1&#45;&gt;Node3 -->
<g id="edge2" class="edge">
<title>Node1&#45;&gt;Node3</title>
<path fill="none" stroke="midnightblue" d="M135.78,-27.39C127.13,-26.1 118.49,-24.82 110.26,-23.59"/>
<polygon fill="midnightblue" stroke="midnightblue" points="135.51,-30.89 145.91,-28.9 136.54,-23.97 135.51,-30.89"/>
</g>
</g>
</svg>
