<?xml version="1.0" encoding="UTF-8" standalone="no"?>
<!DOCTYPE svg PUBLIC "-//W3C//DTD SVG 1.1//EN"
 "http://www.w3.org/Graphics/SVG/1.1/DTD/svg11.dtd">
<!-- Generated by graphviz version 2.43.0 (0)
 -->
<!-- Title: Catch::clara::detail::convertInto Pages: 1 -->
<svg width="299pt" height="88pt"
 viewBox="0.00 0.00 299.00 88.00" xmlns="http://www.w3.org/2000/svg" xmlns:xlink="http://www.w3.org/1999/xlink">
<g id="graph0" class="graph" transform="scale(1 1) rotate(0) translate(4 84)">
<title>Catch::clara::detail::convertInto</title>
<polygon fill="white" stroke="transparent" points="-4,4 -4,-84 295,-84 295,4 -4,4"/>
<!-- Node1 -->
<g id="node1" class="node">
<title>Node1</title>
<g id="a_node1"><a xlink:title=" ">
<polygon fill="#bfbfbf" stroke="black" points="0,-24.5 0,-54.5 108,-54.5 108,-24.5 0,-24.5"/>
<text text-anchor="start" x="8" y="-42.5" font-family="Helvetica,sans-Serif" font-size="10.00">Catch::clara::detail</text>
<text text-anchor="middle" x="54" y="-31.5" font-family="Helvetica,sans-Serif" font-size="10.00">::convertInto</text>
</a>
</g>
</g>
<!-- Node2 -->
<g id="node2" class="node">
<title>Node2</title>
<g id="a_node2"><a xlink:href="class_catch_1_1clara_1_1detail_1_1_basic_result.html#ac48a1cb282f89218d149c021cbd32eb6" target="_top" xlink:title=" ">
<polygon fill="white" stroke="black" points="163.5,-49.5 163.5,-79.5 271.5,-79.5 271.5,-49.5 163.5,-49.5"/>
<text text-anchor="start" x="171.5" y="-67.5" font-family="Helvetica,sans-Serif" font-size="10.00">Catch::clara::detail</text>
<text text-anchor="middle" x="217.5" y="-56.5" font-family="Helvetica,sans-Serif" font-size="10.00">::BasicResult::ok</text>
</a>
</g>
</g>
<!-- Node1&#45;&gt;Node2 -->
<g id="edge1" class="edge">
<title>Node1&#45;&gt;Node2</title>
<path fill="none" stroke="midnightblue" d="M108.33,-47.76C122.66,-49.97 138.3,-52.4 153.12,-54.69"/>
<polygon fill="midnightblue" stroke="midnightblue" points="152.81,-58.18 163.23,-56.25 153.88,-51.26 152.81,-58.18"/>
</g>
<!-- Node3 -->
<g id="node3" class="node">
<title>Node3</title>
<g id="a_node3"><a xlink:href="class_catch_1_1clara_1_1detail_1_1_basic_result.html#a8beb3ea9d8153ee786cb1f5578f938a8" target="_top" xlink:title=" ">
<polygon fill="white" stroke="black" points="144,-0.5 144,-30.5 291,-30.5 291,-0.5 144,-0.5"/>
<text text-anchor="start" x="152" y="-18.5" font-family="Helvetica,sans-Serif" font-size="10.00">Catch::clara::detail</text>
<text text-anchor="middle" x="217.5" y="-7.5" font-family="Helvetica,sans-Serif" font-size="10.00">::BasicResult::runtimeError</text>
</a>
</g>
</g>
<!-- Node1&#45;&gt;Node3 -->
<g id="edge2" class="edge">
<title>Node1&#45;&gt;Node3</title>
<path fill="none" stroke="midnightblue" d="M108.33,-31.57C116.52,-30.36 125.13,-29.08 133.78,-27.79"/>
<polygon fill="midnightblue" stroke="midnightblue" points="134.54,-31.22 143.92,-26.29 133.51,-24.29 134.54,-31.22"/>
</g>
</g>
</svg>
