<?xml version="1.0" encoding="UTF-8" standalone="no"?>
<!DOCTYPE svg PUBLIC "-//W3C//DTD SVG 1.1//EN"
 "http://www.w3.org/Graphics/SVG/1.1/DTD/svg11.dtd">
<!-- Generated by graphviz version 2.43.0 (0)
 -->
<!-- Title: Catch::handleExceptionMatchExpr Pages: 1 -->
<!--zoomable 166 -->
<svg id="main" version="1.1" xmlns="http://www.w3.org/2000/svg" xmlns:xlink="http://www.w3.org/1999/xlink" xml:space="preserve" onload="init(evt)">
<style type="text/css"><![CDATA[
.edge:hover path { stroke: red; }
.edge:hover polygon { stroke: red; fill: red; }
]]></style>
<script type="text/javascript"><![CDATA[
var edges = document.getElementsByTagName('g');
if (edges && edges.length) {
  for (var i=0;i<edges.length;i++) {
    if (edges[i].id.substr(0,4)=='edge') {
      edges[i].setAttribute('class','edge');
    }
  }
}
]]></script>
        <defs>
                <circle id="rim" cx="0" cy="0" r="7"/>
                <circle id="rim2" cx="0" cy="0" r="3.5"/>
                <g id="zoomPlus">
                        <use xlink:href="#rim" fill="#404040">
                                <set attributeName="fill" to="#808080" begin="zoomplus.mouseover" end="zoomplus.mouseout"/>
                        </use>
                        <path d="M-4,0h8M0,-4v8" fill="none" stroke="white" stroke-width="1.5" pointer-events="none"/>
                </g>
                <g id="zoomMin">
                        <use xlink:href="#rim" fill="#404040">
                                <set attributeName="fill" to="#808080" begin="zoomminus.mouseover" end="zoomminus.mouseout"/>
                        </use>
                        <path d="M-4,0h8" fill="none" stroke="white" stroke-width="1.5" pointer-events="none"/>
                </g>
                <g id="dirArrow">
                        <path fill="none" stroke="white" stroke-width="1.5" d="M0,-3.0v7 M-2.5,-0.5L0,-3.0L2.5,-0.5"/>
                </g>
               <g id="resetDef">
                       <use xlink:href="#rim2" fill="#404040">
                               <set attributeName="fill" to="#808080" begin="reset.mouseover" end="reset.mouseout"/>
                       </use>
               </g>
        </defs>

<script type="text/javascript">
var viewWidth = 775;
var viewHeight = 166;
var sectionId = 'dynsection-35';
</script>
<script xlink:href="svgpan.js"/>
<svg id="graph" class="graph">
<g id="viewport">
<title>Catch::handleExceptionMatchExpr</title>
<polygon fill="white" stroke="transparent" points="-4,4 -4,-161.5 771,-161.5 771,4 -4,4"/>
<!-- Node1 -->
<g id="node1" class="node">
<title>Node1</title>
<g id="a_node1"><a xlink:title=" ">
<polygon fill="#bfbfbf" stroke="black" points="0,-94 0,-113 183,-113 183,-94 0,-94"/>
<text text-anchor="middle" x="91.5" y="-101" font-family="Helvetica,sans-Serif" font-size="10.00">Catch::handleExceptionMatchExpr</text>
</a>
</g>
</g>
<!-- Node2 -->
<g id="node2" class="node">
<title>Node2</title>
<g id="a_node2"><a xlink:href="class_catch_1_1_assertion_handler.html#a2ef387e567bad90ec6e4b5bf5c367388" target="_top" xlink:title=" ">
<polygon fill="white" stroke="black" points="238.5,-121.5 238.5,-151.5 372.5,-151.5 372.5,-121.5 238.5,-121.5"/>
<text text-anchor="start" x="246.5" y="-139.5" font-family="Helvetica,sans-Serif" font-size="10.00">Catch::AssertionHandler</text>
<text text-anchor="middle" x="305.5" y="-128.5" font-family="Helvetica,sans-Serif" font-size="10.00">::handleExpr</text>
</a>
</g>
</g>
<!-- Node1&#45;&gt;Node2 -->
<g id="edge1" class="edge">
<title>Node1&#45;&gt;Node2</title>
<path fill="none" stroke="midnightblue" d="M153.53,-113C176.86,-116.63 203.76,-120.82 228.33,-124.64"/>
<polygon fill="midnightblue" stroke="midnightblue" points="227.92,-128.12 238.34,-126.2 228.99,-121.2 227.92,-128.12"/>
</g>
<!-- Node4 -->
<g id="node4" class="node">
<title>Node4</title>
<g id="a_node4"><a xlink:href="namespace_catch.html#adafff91485eeeeb9e9333f317cc0e3b1" target="_top" xlink:title=" ">
<polygon fill="white" stroke="black" points="219,-72 219,-91 392,-91 392,-72 219,-72"/>
<text text-anchor="middle" x="305.5" y="-79" font-family="Helvetica,sans-Serif" font-size="10.00">Catch::translateActiveException</text>
</a>
</g>
</g>
<!-- Node1&#45;&gt;Node4 -->
<g id="edge3" class="edge">
<title>Node1&#45;&gt;Node4</title>
<path fill="none" stroke="midnightblue" d="M183.02,-94.11C191.6,-93.22 200.31,-92.31 208.93,-91.42"/>
<polygon fill="midnightblue" stroke="midnightblue" points="209.4,-94.89 218.99,-90.37 208.68,-87.92 209.4,-94.89"/>
</g>
<!-- Node3 -->
<g id="node3" class="node">
<title>Node3</title>
<g id="a_node3"><a xlink:href="class_catch_1_1_expr_lhs.html#ab68bd6d5d3ae21b7fba9010150fba95d" target="_top" xlink:title=" ">
<polygon fill="white" stroke="black" points="434,-138 434,-157 607,-157 607,-138 434,-138"/>
<text text-anchor="middle" x="520.5" y="-145" font-family="Helvetica,sans-Serif" font-size="10.00">Catch::ExprLhs::makeUnaryExpr</text>
</a>
</g>
</g>
<!-- Node2&#45;&gt;Node3 -->
<g id="edge2" class="edge">
<title>Node2&#45;&gt;Node3</title>
<path fill="none" stroke="midnightblue" d="M372.73,-139.92C388.86,-140.75 406.43,-141.66 423.63,-142.55"/>
<polygon fill="midnightblue" stroke="midnightblue" points="423.54,-146.05 433.7,-143.07 423.9,-139.06 423.54,-146.05"/>
</g>
<!-- Node5 -->
<g id="node5" class="node">
<title>Node5</title>
<g id="a_node5"><a xlink:href="struct_catch_1_1_i_registry_hub.html#a48347c170d9c583af73027a27b2f0bd4" target="_top" xlink:title=" ">
<polygon fill="white" stroke="black" points="433,-88.5 433,-118.5 608,-118.5 608,-88.5 433,-88.5"/>
<text text-anchor="start" x="441" y="-106.5" font-family="Helvetica,sans-Serif" font-size="10.00">Catch::IRegistryHub</text>
<text text-anchor="middle" x="520.5" y="-95.5" font-family="Helvetica,sans-Serif" font-size="10.00">::getExceptionTranslatorRegistry</text>
</a>
</g>
</g>
<!-- Node4&#45;&gt;Node5 -->
<g id="edge4" class="edge">
<title>Node4&#45;&gt;Node5</title>
<path fill="none" stroke="midnightblue" d="M392.21,-90.35C402.27,-91.39 412.59,-92.46 422.78,-93.51"/>
<polygon fill="midnightblue" stroke="midnightblue" points="422.61,-97.01 432.92,-94.56 423.33,-90.05 422.61,-97.01"/>
</g>
<!-- Node6 -->
<g id="node6" class="node">
<title>Node6</title>
<g id="a_node6"><a xlink:href="namespace_catch.html#a5d328566cb8da87b48f1fac3f319ac7a" target="_top" xlink:title=" ">
<polygon fill="white" stroke="black" points="457.5,-50 457.5,-69 583.5,-69 583.5,-50 457.5,-50"/>
<text text-anchor="middle" x="520.5" y="-57" font-family="Helvetica,sans-Serif" font-size="10.00">Catch::getRegistryHub</text>
</a>
</g>
</g>
<!-- Node4&#45;&gt;Node6 -->
<g id="edge5" class="edge">
<title>Node4&#45;&gt;Node6</title>
<path fill="none" stroke="midnightblue" d="M392.21,-72.65C410.38,-70.77 429.39,-68.81 447.01,-66.99"/>
<polygon fill="midnightblue" stroke="midnightblue" points="447.62,-70.44 457.2,-65.93 446.9,-63.48 447.62,-70.44"/>
</g>
<!-- Node8 -->
<g id="node8" class="node">
<title>Node8</title>
<g id="a_node8"><a xlink:href="struct_catch_1_1_i_exception_translator_registry.html#af76ae8c331a17f2a94c9720bc0d686bb" target="_top" xlink:title=" ">
<polygon fill="white" stroke="black" points="428,-0.5 428,-30.5 613,-30.5 613,-0.5 428,-0.5"/>
<text text-anchor="start" x="436" y="-18.5" font-family="Helvetica,sans-Serif" font-size="10.00">Catch::IExceptionTranslator</text>
<text text-anchor="middle" x="520.5" y="-7.5" font-family="Helvetica,sans-Serif" font-size="10.00">Registry::translateActiveException</text>
</a>
</g>
</g>
<!-- Node4&#45;&gt;Node8 -->
<g id="edge7" class="edge">
<title>Node4&#45;&gt;Node8</title>
<path fill="none" stroke="midnightblue" d="M333.38,-71.92C357.9,-63.31 395.21,-50.5 428,-40.5 435.92,-38.08 444.27,-35.65 452.56,-33.3"/>
<polygon fill="midnightblue" stroke="midnightblue" points="453.56,-36.66 462.24,-30.59 451.67,-29.92 453.56,-36.66"/>
</g>
<!-- Node7 -->
<g id="node7" class="node">
<title>Node7</title>
<g id="a_node7"><a xlink:href="class_catch_1_1_singleton.html#aa1b2bb002acd8838489a225dbbaf2865" target="_top" xlink:title=" ">
<polygon fill="white" stroke="black" points="649,-50 649,-69 767,-69 767,-50 649,-50"/>
<text text-anchor="middle" x="708" y="-57" font-family="Helvetica,sans-Serif" font-size="10.00">Catch::Singleton::get</text>
</a>
</g>
</g>
<!-- Node6&#45;&gt;Node7 -->
<g id="edge6" class="edge">
<title>Node6&#45;&gt;Node7</title>
<path fill="none" stroke="midnightblue" d="M583.53,-59.5C601.22,-59.5 620.59,-59.5 638.64,-59.5"/>
<polygon fill="midnightblue" stroke="midnightblue" points="638.8,-63 648.8,-59.5 638.8,-56 638.8,-63"/>
</g>
</g>
</svg>
        <g id="navigator" transform="translate(0 0)" fill="#404254">
                <rect fill="#f2f5e9" fill-opacity="0.5" stroke="#606060" stroke-width=".5" x="0" y="0" width="60" height="60"/>
                <use id="zoomplus" xlink:href="#zoomPlus" x="17" y="9" onmousedown="handleZoom(evt,'in')"/>
                <use id="zoomminus" xlink:href="#zoomMin" x="42" y="9" onmousedown="handleZoom(evt,'out')"/>
                <use id="reset" xlink:href="#resetDef" x="30" y="36" onmousedown="handleReset()"/>
                <g id="arrowUp" xlink:href="#dirArrow" transform="translate(30 24)" onmousedown="handlePan(0,-1)">
                  <use xlink:href="#rim" fill="#404040">
                        <set attributeName="fill" to="#808080" begin="arrowUp.mouseover" end="arrowUp.mouseout"/>
                  </use>
                  <path fill="none" stroke="white" stroke-width="1.5" d="M0,-3.0v7 M-2.5,-0.5L0,-3.0L2.5,-0.5"/>
                </g>
                <g id="arrowRight" xlink:href="#dirArrow" transform="rotate(90) translate(36 -43)" onmousedown="handlePan(1,0)">
                  <use xlink:href="#rim" fill="#404040">
                        <set attributeName="fill" to="#808080" begin="arrowRight.mouseover" end="arrowRight.mouseout"/>
                  </use>
                  <path fill="none" stroke="white" stroke-width="1.5" d="M0,-3.0v7 M-2.5,-0.5L0,-3.0L2.5,-0.5"/>
                </g>
                <g id="arrowDown" xlink:href="#dirArrow" transform="rotate(180) translate(-30 -48)" onmousedown="handlePan(0,1)">
                  <use xlink:href="#rim" fill="#404040">
                        <set attributeName="fill" to="#808080" begin="arrowDown.mouseover" end="arrowDown.mouseout"/>
                  </use>
                  <path fill="none" stroke="white" stroke-width="1.5" d="M0,-3.0v7 M-2.5,-0.5L0,-3.0L2.5,-0.5"/>
                </g>
                <g id="arrowLeft" xlink:href="#dirArrow" transform="rotate(270) translate(-36 17)" onmousedown="handlePan(-1,0)">
                  <use xlink:href="#rim" fill="#404040">
                        <set attributeName="fill" to="#808080" begin="arrowLeft.mouseover" end="arrowLeft.mouseout"/>
                  </use>
                  <path fill="none" stroke="white" stroke-width="1.5" d="M0,-3.0v7 M-2.5,-0.5L0,-3.0L2.5,-0.5"/>
                </g>
        </g>
        <svg viewBox="0 0 15 15" width="100%" height="30px" preserveAspectRatio="xMaxYMin meet">
         <g id="arrow_out" transform="scale(0.3 0.3)">
          <a xlink:href="namespace_catch_a3a96a82307107087642e22fc4be5844d_cgraph_org.svg" target="_base">
           <rect id="button" ry="5" rx="5" y="6" x="6" height="38" width="38"
                fill="#f2f5e9" fill-opacity="0.5" stroke="#606060" stroke-width="1.0"/>
           <path id="arrow"
             d="M 11.500037,31.436501 C 11.940474,20.09759 22.043105,11.32322 32.158766,21.979434 L 37.068811,17.246167 C 37.068811,17.246167 37.088388,32 37.088388,32 L 22.160133,31.978069 C 22.160133,31.978069 26.997745,27.140456 26.997745,27.140456 C 18.528582,18.264221 13.291696,25.230495 11.500037,31.436501 z"
             style="fill:#404040;"/>
          </a>
         </g>
        </svg>
</svg>
