<?xml version="1.0" encoding="UTF-8" standalone="no"?>
<!DOCTYPE svg PUBLIC "-//W3C//DTD SVG 1.1//EN"
 "http://www.w3.org/Graphics/SVG/1.1/DTD/svg11.dtd">
<!-- Generated by graphviz version 2.43.0 (0)
 -->
<!-- Title: Catch::Generators::acquireGeneratorTracker Pages: 1 -->
<svg width="676pt" height="83pt"
 viewBox="0.00 0.00 676.00 83.00" xmlns="http://www.w3.org/2000/svg" xmlns:xlink="http://www.w3.org/1999/xlink">
<g id="graph0" class="graph" transform="scale(1 1) rotate(0) translate(4 79)">
<title>Catch::Generators::acquireGeneratorTracker</title>
<polygon fill="white" stroke="transparent" points="-4,4 -4,-79 672,-79 672,4 -4,4"/>
<!-- Node1 -->
<g id="node1" class="node">
<title>Node1</title>
<g id="a_node1"><a xlink:title=" ">
<polygon fill="#bfbfbf" stroke="black" points="0,-22.5 0,-52.5 136,-52.5 136,-22.5 0,-22.5"/>
<text text-anchor="start" x="8" y="-40.5" font-family="Helvetica,sans-Serif" font-size="10.00">Catch::Generators::</text>
<text text-anchor="middle" x="68" y="-29.5" font-family="Helvetica,sans-Serif" font-size="10.00">acquireGeneratorTracker</text>
</a>
</g>
</g>
<!-- Node2 -->
<g id="node2" class="node">
<title>Node2</title>
<g id="a_node2"><a xlink:href="struct_catch_1_1_i_result_capture.html#a8f93a848e0a48b630ca9ecbf225e4817" target="_top" xlink:title=" ">
<polygon fill="white" stroke="black" points="172,-44.5 172,-74.5 314,-74.5 314,-44.5 172,-44.5"/>
<text text-anchor="start" x="180" y="-62.5" font-family="Helvetica,sans-Serif" font-size="10.00">Catch::IResultCapture</text>
<text text-anchor="middle" x="243" y="-51.5" font-family="Helvetica,sans-Serif" font-size="10.00">::acquireGeneratorTracker</text>
</a>
</g>
</g>
<!-- Node1&#45;&gt;Node2 -->
<g id="edge1" class="edge">
<title>Node1&#45;&gt;Node2</title>
<path fill="none" stroke="midnightblue" d="M136.38,-46.07C144.77,-47.14 153.41,-48.23 161.96,-49.32"/>
<polygon fill="midnightblue" stroke="midnightblue" points="161.59,-52.8 171.95,-50.59 162.47,-45.86 161.59,-52.8"/>
</g>
<!-- Node3 -->
<g id="node3" class="node">
<title>Node3</title>
<g id="a_node3"><a xlink:href="namespace_catch.html#af718eeab870712f292ed8dc6ee3f6488" target="_top" xlink:title=" ">
<polygon fill="white" stroke="black" points="175.5,-6 175.5,-25 310.5,-25 310.5,-6 175.5,-6"/>
<text text-anchor="middle" x="243" y="-13" font-family="Helvetica,sans-Serif" font-size="10.00">Catch::getResultCapture</text>
</a>
</g>
</g>
<!-- Node1&#45;&gt;Node3 -->
<g id="edge2" class="edge">
<title>Node1&#45;&gt;Node3</title>
<path fill="none" stroke="midnightblue" d="M136.38,-28.93C145.89,-27.72 155.72,-26.47 165.38,-25.24"/>
<polygon fill="midnightblue" stroke="midnightblue" points="165.89,-28.71 175.37,-23.97 165.01,-21.76 165.89,-28.71"/>
</g>
<!-- Node4 -->
<g id="node4" class="node">
<title>Node4</title>
<g id="a_node4"><a xlink:href="namespace_catch.html#a228a625318bb6183842e394eeba17d50" target="_top" xlink:title=" ">
<polygon fill="white" stroke="black" points="350,-6 350,-25 490,-25 490,-6 350,-6"/>
<text text-anchor="middle" x="420" y="-13" font-family="Helvetica,sans-Serif" font-size="10.00">Catch::getCurrentContext</text>
</a>
</g>
</g>
<!-- Node3&#45;&gt;Node4 -->
<g id="edge3" class="edge">
<title>Node3&#45;&gt;Node4</title>
<path fill="none" stroke="midnightblue" d="M310.66,-15.5C320.19,-15.5 330.08,-15.5 339.83,-15.5"/>
<polygon fill="midnightblue" stroke="midnightblue" points="339.91,-19 349.91,-15.5 339.91,-12 339.91,-19"/>
</g>
<!-- Node5 -->
<g id="node5" class="node">
<title>Node5</title>
<g id="a_node5"><a xlink:href="namespace_catch.html#a710841d4732b86c06f816bd4822bd425" target="_top" xlink:title=" ">
<polygon fill="white" stroke="black" points="526,-0.5 526,-30.5 668,-30.5 668,-0.5 526,-0.5"/>
<text text-anchor="start" x="534" y="-18.5" font-family="Helvetica,sans-Serif" font-size="10.00">Catch::getCurrentMutable</text>
<text text-anchor="middle" x="597" y="-7.5" font-family="Helvetica,sans-Serif" font-size="10.00">Context</text>
</a>
</g>
</g>
<!-- Node4&#45;&gt;Node5 -->
<g id="edge4" class="edge">
<title>Node4&#45;&gt;Node5</title>
<path fill="none" stroke="midnightblue" d="M490.16,-15.5C498.61,-15.5 507.3,-15.5 515.88,-15.5"/>
<polygon fill="midnightblue" stroke="midnightblue" points="515.9,-19 525.9,-15.5 515.9,-12 515.9,-19"/>
</g>
</g>
</svg>
