<?xml version="1.0" encoding="UTF-8" standalone="no"?>
<!DOCTYPE svg PUBLIC "-//W3C//DTD SVG 1.1//EN"
 "http://www.w3.org/Graphics/SVG/1.1/DTD/svg11.dtd">
<!-- Generated by graphviz version 2.43.0 (0)
 -->
<!-- Title: fixWhitespace.fixFile Pages: 1 -->
<svg width="267pt" height="28pt"
 viewBox="0.00 0.00 267.00 28.00" xmlns="http://www.w3.org/2000/svg" xmlns:xlink="http://www.w3.org/1999/xlink">
<g id="graph0" class="graph" transform="scale(1 1) rotate(0) translate(4 24)">
<title>fixWhitespace.fixFile</title>
<polygon fill="white" stroke="transparent" points="-4,4 -4,-24 263,-24 263,4 -4,4"/>
<!-- Node1 -->
<g id="node1" class="node">
<title>Node1</title>
<g id="a_node1"><a xlink:title=" ">
<polygon fill="#bfbfbf" stroke="black" points="0,-0.5 0,-19.5 118,-19.5 118,-0.5 0,-0.5"/>
<text text-anchor="middle" x="59" y="-7.5" font-family="Helvetica,sans-Serif" font-size="10.00">fixWhitespace.fixFile</text>
</a>
</g>
</g>
<!-- Node2 -->
<g id="node2" class="node">
<title>Node2</title>
<g id="a_node2"><a xlink:href="210-_evt-_event_listeners_8cpp.html#a91b9457094088a57b7ba14d485a8771e" target="_top" xlink:title=" ">
<polygon fill="white" stroke="black" points="154,-0.5 154,-19.5 193,-19.5 193,-0.5 154,-0.5"/>
<text text-anchor="middle" x="173.5" y="-7.5" font-family="Helvetica,sans-Serif" font-size="10.00">print</text>
</a>
</g>
</g>
<!-- Node1&#45;&gt;Node2 -->
<g id="edge1" class="edge">
<title>Node1&#45;&gt;Node2</title>
<path fill="none" stroke="midnightblue" d="M118.23,-10C127.07,-10 135.85,-10 143.69,-10"/>
<polygon fill="midnightblue" stroke="midnightblue" points="143.72,-13.5 153.72,-10 143.72,-6.5 143.72,-13.5"/>
</g>
<!-- Node3 -->
<g id="node3" class="node">
<title>Node3</title>
<g id="a_node3"><a xlink:href="210-_evt-_event_listeners_8cpp.html#aaf05ec28baf9169e247960554e9ffbcb" target="_top" xlink:title=" ">
<polygon fill="white" stroke="black" points="229,-0.5 229,-19.5 259,-19.5 259,-0.5 229,-0.5"/>
<text text-anchor="middle" x="244" y="-7.5" font-family="Helvetica,sans-Serif" font-size="10.00">ws</text>
</a>
</g>
</g>
<!-- Node2&#45;&gt;Node3 -->
<g id="edge2" class="edge">
<title>Node2&#45;&gt;Node3</title>
<path fill="none" stroke="midnightblue" d="M193.22,-10C201.13,-10 210.44,-10 218.86,-10"/>
<polygon fill="midnightblue" stroke="midnightblue" points="218.87,-13.5 228.87,-10 218.87,-6.5 218.87,-13.5"/>
</g>
</g>
</svg>
