<?xml version="1.0" encoding="UTF-8" standalone="no"?>
<!DOCTYPE svg PUBLIC "-//W3C//DTD SVG 1.1//EN"
 "http://www.w3.org/Graphics/SVG/1.1/DTD/svg11.dtd">
<!-- Generated by graphviz version 2.43.0 (0)
 -->
<!-- Title: Catch::Benchmark::user_code Pages: 1 -->
<svg width="777pt" height="201pt"
 viewBox="0.00 0.00 777.00 201.00" xmlns="http://www.w3.org/2000/svg" xmlns:xlink="http://www.w3.org/1999/xlink">
<g id="graph0" class="graph" transform="scale(1 1) rotate(0) translate(4 197)">
<title>Catch::Benchmark::user_code</title>
<polygon fill="white" stroke="transparent" points="-4,4 -4,-197 773,-197 773,4 -4,4"/>
<!-- Node1 -->
<g id="node1" class="node">
<title>Node1</title>
<g id="a_node1"><a xlink:title=" ">
<polygon fill="#bfbfbf" stroke="black" points="0,-124 0,-143 161,-143 161,-124 0,-124"/>
<text text-anchor="middle" x="80.5" y="-131" font-family="Helvetica,sans-Serif" font-size="10.00">Catch::Benchmark::user_code</text>
</a>
</g>
</g>
<!-- Node2 -->
<g id="node2" class="node">
<title>Node2</title>
<g id="a_node2"><a xlink:href="namespace_catch_1_1_benchmark_1_1_detail.html#adcc60e1d2c95e5037d440a80b7a1fb47" target="_top" xlink:title=" ">
<polygon fill="white" stroke="black" points="213,-162.5 213,-192.5 354,-192.5 354,-162.5 213,-162.5"/>
<text text-anchor="start" x="221" y="-180.5" font-family="Helvetica,sans-Serif" font-size="10.00">Catch::Benchmark::Detail</text>
<text text-anchor="middle" x="283.5" y="-169.5" font-family="Helvetica,sans-Serif" font-size="10.00">::complete_invoke</text>
</a>
</g>
</g>
<!-- Node1&#45;&gt;Node2 -->
<g id="edge1" class="edge">
<title>Node1&#45;&gt;Node2</title>
<path fill="none" stroke="midnightblue" d="M125.11,-143.05C148.05,-148.07 176.87,-154.38 203.57,-160.22"/>
<polygon fill="midnightblue" stroke="midnightblue" points="203.16,-163.72 213.68,-162.43 204.66,-156.88 203.16,-163.72"/>
</g>
<!-- Node3 -->
<g id="node3" class="node">
<title>Node3</title>
<g id="a_node3"><a xlink:href="namespace_catch.html#af718eeab870712f292ed8dc6ee3f6488" target="_top" xlink:title=" ">
<polygon fill="white" stroke="black" points="216,-124 216,-143 351,-143 351,-124 216,-124"/>
<text text-anchor="middle" x="283.5" y="-131" font-family="Helvetica,sans-Serif" font-size="10.00">Catch::getResultCapture</text>
</a>
</g>
</g>
<!-- Node1&#45;&gt;Node3 -->
<g id="edge2" class="edge">
<title>Node1&#45;&gt;Node3</title>
<path fill="none" stroke="midnightblue" d="M161.23,-133.5C175.78,-133.5 190.94,-133.5 205.42,-133.5"/>
<polygon fill="midnightblue" stroke="midnightblue" points="205.82,-137 215.82,-133.5 205.82,-130 205.82,-137"/>
</g>
<!-- Node6 -->
<g id="node6" class="node">
<title>Node6</title>
<g id="a_node6"><a xlink:href="namespace_catch.html#adafff91485eeeeb9e9333f317cc0e3b1" target="_top" xlink:title=" ">
<polygon fill="white" stroke="black" points="197,-72 197,-91 370,-91 370,-72 197,-72"/>
<text text-anchor="middle" x="283.5" y="-79" font-family="Helvetica,sans-Serif" font-size="10.00">Catch::translateActiveException</text>
</a>
</g>
</g>
<!-- Node1&#45;&gt;Node6 -->
<g id="edge5" class="edge">
<title>Node1&#45;&gt;Node6</title>
<path fill="none" stroke="midnightblue" d="M118.37,-123.96C151.41,-115.41 200.05,-102.83 235.81,-93.58"/>
<polygon fill="midnightblue" stroke="midnightblue" points="236.72,-96.96 245.53,-91.07 234.97,-90.18 236.72,-96.96"/>
</g>
<!-- Node4 -->
<g id="node4" class="node">
<title>Node4</title>
<g id="a_node4"><a xlink:href="namespace_catch.html#a228a625318bb6183842e394eeba17d50" target="_top" xlink:title=" ">
<polygon fill="white" stroke="black" points="428.5,-138 428.5,-157 568.5,-157 568.5,-138 428.5,-138"/>
<text text-anchor="middle" x="498.5" y="-145" font-family="Helvetica,sans-Serif" font-size="10.00">Catch::getCurrentContext</text>
</a>
</g>
</g>
<!-- Node3&#45;&gt;Node4 -->
<g id="edge3" class="edge">
<title>Node3&#45;&gt;Node4</title>
<path fill="none" stroke="midnightblue" d="M351.02,-137.87C372.29,-139.27 396.06,-140.83 418.16,-142.28"/>
<polygon fill="midnightblue" stroke="midnightblue" points="417.97,-145.78 428.18,-142.94 418.43,-138.8 417.97,-145.78"/>
</g>
<!-- Node5 -->
<g id="node5" class="node">
<title>Node5</title>
<g id="a_node5"><a xlink:href="namespace_catch.html#a710841d4732b86c06f816bd4822bd425" target="_top" xlink:title=" ">
<polygon fill="white" stroke="black" points="627,-132.5 627,-162.5 769,-162.5 769,-132.5 627,-132.5"/>
<text text-anchor="start" x="635" y="-150.5" font-family="Helvetica,sans-Serif" font-size="10.00">Catch::getCurrentMutable</text>
<text text-anchor="middle" x="698" y="-139.5" font-family="Helvetica,sans-Serif" font-size="10.00">Context</text>
</a>
</g>
</g>
<!-- Node4&#45;&gt;Node5 -->
<g id="edge4" class="edge">
<title>Node4&#45;&gt;Node5</title>
<path fill="none" stroke="midnightblue" d="M568.58,-147.5C584.09,-147.5 600.68,-147.5 616.61,-147.5"/>
<polygon fill="midnightblue" stroke="midnightblue" points="616.96,-151 626.96,-147.5 616.96,-144 616.96,-151"/>
</g>
<!-- Node7 -->
<g id="node7" class="node">
<title>Node7</title>
<g id="a_node7"><a xlink:href="struct_catch_1_1_i_registry_hub.html#a48347c170d9c583af73027a27b2f0bd4" target="_top" xlink:title=" ">
<polygon fill="white" stroke="black" points="411,-88.5 411,-118.5 586,-118.5 586,-88.5 411,-88.5"/>
<text text-anchor="start" x="419" y="-106.5" font-family="Helvetica,sans-Serif" font-size="10.00">Catch::IRegistryHub</text>
<text text-anchor="middle" x="498.5" y="-95.5" font-family="Helvetica,sans-Serif" font-size="10.00">::getExceptionTranslatorRegistry</text>
</a>
</g>
</g>
<!-- Node6&#45;&gt;Node7 -->
<g id="edge6" class="edge">
<title>Node6&#45;&gt;Node7</title>
<path fill="none" stroke="midnightblue" d="M370.21,-90.35C380.27,-91.39 390.59,-92.46 400.78,-93.51"/>
<polygon fill="midnightblue" stroke="midnightblue" points="400.61,-97.01 410.92,-94.56 401.33,-90.05 400.61,-97.01"/>
</g>
<!-- Node8 -->
<g id="node8" class="node">
<title>Node8</title>
<g id="a_node8"><a xlink:href="namespace_catch.html#a5d328566cb8da87b48f1fac3f319ac7a" target="_top" xlink:title=" ">
<polygon fill="white" stroke="black" points="435.5,-50 435.5,-69 561.5,-69 561.5,-50 435.5,-50"/>
<text text-anchor="middle" x="498.5" y="-57" font-family="Helvetica,sans-Serif" font-size="10.00">Catch::getRegistryHub</text>
</a>
</g>
</g>
<!-- Node6&#45;&gt;Node8 -->
<g id="edge7" class="edge">
<title>Node6&#45;&gt;Node8</title>
<path fill="none" stroke="midnightblue" d="M370.21,-72.65C388.38,-70.77 407.39,-68.81 425.01,-66.99"/>
<polygon fill="midnightblue" stroke="midnightblue" points="425.62,-70.44 435.2,-65.93 424.9,-63.48 425.62,-70.44"/>
</g>
<!-- Node10 -->
<g id="node10" class="node">
<title>Node10</title>
<g id="a_node10"><a xlink:href="struct_catch_1_1_i_exception_translator_registry.html#af76ae8c331a17f2a94c9720bc0d686bb" target="_top" xlink:title=" ">
<polygon fill="white" stroke="black" points="406,-0.5 406,-30.5 591,-30.5 591,-0.5 406,-0.5"/>
<text text-anchor="start" x="414" y="-18.5" font-family="Helvetica,sans-Serif" font-size="10.00">Catch::IExceptionTranslator</text>
<text text-anchor="middle" x="498.5" y="-7.5" font-family="Helvetica,sans-Serif" font-size="10.00">Registry::translateActiveException</text>
</a>
</g>
</g>
<!-- Node6&#45;&gt;Node10 -->
<g id="edge9" class="edge">
<title>Node6&#45;&gt;Node10</title>
<path fill="none" stroke="midnightblue" d="M311.38,-71.92C335.9,-63.31 373.21,-50.5 406,-40.5 413.92,-38.08 422.27,-35.65 430.56,-33.3"/>
<polygon fill="midnightblue" stroke="midnightblue" points="431.56,-36.66 440.24,-30.59 429.67,-29.92 431.56,-36.66"/>
</g>
<!-- Node9 -->
<g id="node9" class="node">
<title>Node9</title>
<g id="a_node9"><a xlink:href="class_catch_1_1_singleton.html#aa1b2bb002acd8838489a225dbbaf2865" target="_top" xlink:title=" ">
<polygon fill="white" stroke="black" points="639,-50 639,-69 757,-69 757,-50 639,-50"/>
<text text-anchor="middle" x="698" y="-57" font-family="Helvetica,sans-Serif" font-size="10.00">Catch::Singleton::get</text>
</a>
</g>
</g>
<!-- Node8&#45;&gt;Node9 -->
<g id="edge8" class="edge">
<title>Node8&#45;&gt;Node9</title>
<path fill="none" stroke="midnightblue" d="M561.72,-59.5C583,-59.5 606.91,-59.5 628.65,-59.5"/>
<polygon fill="midnightblue" stroke="midnightblue" points="628.79,-63 638.79,-59.5 628.79,-56 628.79,-63"/>
</g>
</g>
</svg>
