<?xml version="1.0" encoding="UTF-8" standalone="no"?>
<!DOCTYPE svg PUBLIC "-//W3C//DTD SVG 1.1//EN"
 "http://www.w3.org/Graphics/SVG/1.1/DTD/svg11.dtd">
<!-- Generated by graphviz version 2.43.0 (0)
 -->
<!-- Title: Catch::cerr Pages: 1 -->
<svg width="462pt" height="345pt"
 viewBox="0.00 0.00 462.00 345.00" xmlns="http://www.w3.org/2000/svg" xmlns:xlink="http://www.w3.org/1999/xlink">
<g id="graph0" class="graph" transform="scale(1 1) rotate(0) translate(4 341)">
<title>Catch::cerr</title>
<polygon fill="white" stroke="transparent" points="-4,4 -4,-341 458,-341 458,4 -4,4"/>
<!-- Node1 -->
<g id="node1" class="node">
<title>Node1</title>
<g id="a_node1"><a xlink:title=" ">
<polygon fill="#bfbfbf" stroke="black" points="385,-229 385,-248 454,-248 454,-229 385,-229"/>
<text text-anchor="middle" x="419.5" y="-236" font-family="Helvetica,sans-Serif" font-size="10.00">Catch::cerr</text>
</a>
</g>
</g>
<!-- Node2 -->
<g id="node2" class="node">
<title>Node2</title>
<g id="a_node2"><a xlink:href="_x12-_custom_debug_break_macro_8cpp.html#a5ad21ac89152765bc53754b1541071ae" target="_top" xlink:title=" ">
<polygon fill="white" stroke="black" points="223,-305 223,-324 344,-324 344,-305 223,-305"/>
<text text-anchor="middle" x="283.5" y="-312" font-family="Helvetica,sans-Serif" font-size="10.00">custom_debug_break</text>
</a>
</g>
</g>
<!-- Node1&#45;&gt;Node2 -->
<g id="edge1" class="edge">
<title>Node1&#45;&gt;Node2</title>
<path fill="none" stroke="midnightblue" d="M401.66,-255.62C388.39,-268.25 368.87,-284.98 349,-295.5 341.88,-299.27 333.91,-302.38 326.07,-304.93"/>
<polygon fill="midnightblue" stroke="midnightblue" points="404.36,-257.88 409.06,-248.39 399.47,-252.88 404.36,-257.88"/>
</g>
<!-- Node3 -->
<g id="node3" class="node">
<title>Node3</title>
<g id="a_node3"><a xlink:href="coverage-helper_8cpp.html#a3c04138a5bfe5d72780bb7e82a18e627" target="_top" xlink:title=" ">
<polygon fill="white" stroke="black" points="263,-267 263,-286 304,-286 304,-267 263,-267"/>
<text text-anchor="middle" x="283.5" y="-274" font-family="Helvetica,sans-Serif" font-size="10.00">main</text>
</a>
</g>
</g>
<!-- Node1&#45;&gt;Node3 -->
<g id="edge2" class="edge">
<title>Node1&#45;&gt;Node3</title>
<path fill="none" stroke="midnightblue" d="M374.79,-250.89C350.97,-257.65 322.65,-265.68 304.16,-270.92"/>
<polygon fill="midnightblue" stroke="midnightblue" points="376.02,-254.18 384.69,-248.09 374.11,-247.45 376.02,-254.18"/>
</g>
<!-- Node4 -->
<g id="node4" class="node">
<title>Node4</title>
<g id="a_node4"><a xlink:href="class_catch_1_1_session.html#a4564992e2b028770e38a1dcc6fff8b34" target="_top" xlink:title=" ">
<polygon fill="white" stroke="black" points="218,-229 218,-248 349,-248 349,-229 218,-229"/>
<text text-anchor="middle" x="283.5" y="-236" font-family="Helvetica,sans-Serif" font-size="10.00">Catch::Session::Session</text>
</a>
</g>
</g>
<!-- Node1&#45;&gt;Node4 -->
<g id="edge3" class="edge">
<title>Node1&#45;&gt;Node4</title>
<path fill="none" stroke="midnightblue" d="M374.65,-238.5C366.47,-238.5 357.77,-238.5 349.12,-238.5"/>
<polygon fill="midnightblue" stroke="midnightblue" points="374.69,-242 384.69,-238.5 374.69,-235 374.69,-242"/>
</g>
<!-- Node5 -->
<g id="node5" class="node">
<title>Node5</title>
<g id="a_node5"><a xlink:href="_message_8tests_8cpp.html#afe8e5c7d5afe974c319f5bdcfc676ab6" target="_top" xlink:title=" ">
<polygon fill="white" stroke="black" points="248,-191 248,-210 319,-210 319,-191 248,-191"/>
<text text-anchor="middle" x="283.5" y="-198" font-family="Helvetica,sans-Serif" font-size="10.00">TEST_CASE</text>
</a>
</g>
</g>
<!-- Node1&#45;&gt;Node5 -->
<g id="edge4" class="edge">
<title>Node1&#45;&gt;Node5</title>
<path fill="none" stroke="midnightblue" d="M375.06,-226.18C356.65,-220.96 335.52,-214.97 318.3,-210.09"/>
<polygon fill="midnightblue" stroke="midnightblue" points="374.11,-229.55 384.69,-228.91 376.02,-222.82 374.11,-229.55"/>
</g>
<!-- Node6 -->
<g id="node6" class="node">
<title>Node6</title>
<g id="a_node6"><a xlink:href="namespace_catch.html#a3cbceeab9252d1b752f66a2826e92548" target="_top" xlink:title=" ">
<polygon fill="white" stroke="black" points="218,-153 218,-172 349,-172 349,-153 218,-153"/>
<text text-anchor="middle" x="283.5" y="-160" font-family="Helvetica,sans-Serif" font-size="10.00">Catch::throw_exception</text>
</a>
</g>
</g>
<!-- Node1&#45;&gt;Node6 -->
<g id="edge5" class="edge">
<title>Node1&#45;&gt;Node6</title>
<path fill="none" stroke="midnightblue" d="M401.66,-221.38C388.39,-208.75 368.87,-192.02 349,-181.5 341.88,-177.73 333.91,-174.62 326.07,-172.07"/>
<polygon fill="midnightblue" stroke="midnightblue" points="399.47,-224.12 409.06,-228.61 404.36,-219.12 399.47,-224.12"/>
</g>
<!-- Node7 -->
<g id="node7" class="node">
<title>Node7</title>
<g id="a_node7"><a xlink:href="class_catch_1_1_generators_1_1_chunk_generator.html#a50c334d00cde3166d71e9b90ebc2d2e3" target="_top" xlink:title=" ">
<polygon fill="white" stroke="black" points="0,-306.5 0,-336.5 182,-336.5 182,-306.5 0,-306.5"/>
<text text-anchor="start" x="8" y="-324.5" font-family="Helvetica,sans-Serif" font-size="10.00">Catch::Generators::</text>
<text text-anchor="middle" x="91" y="-313.5" font-family="Helvetica,sans-Serif" font-size="10.00">ChunkGenerator::ChunkGenerator</text>
</a>
</g>
</g>
<!-- Node6&#45;&gt;Node7 -->
<g id="edge6" class="edge">
<title>Node6&#45;&gt;Node7</title>
<path fill="none" stroke="midnightblue" d="M222.69,-177.49C221.03,-178.72 219.47,-180.06 218,-181.5 179.55,-219.39 220.93,-260.11 182,-297.5 178.5,-300.86 174.59,-303.76 170.4,-306.27"/>
<polygon fill="midnightblue" stroke="midnightblue" points="224.81,-180.29 231.54,-172.11 221.17,-174.31 224.81,-180.29"/>
</g>
<!-- Node8 -->
<g id="node8" class="node">
<title>Node8</title>
<g id="a_node8"><a xlink:href="class_catch_1_1_generators_1_1_filter_generator.html#aa16886a5e41cbd3b6ffa3dd52388a3a1" target="_top" xlink:title=" ">
<polygon fill="white" stroke="black" points="6,-257.5 6,-287.5 176,-287.5 176,-257.5 6,-257.5"/>
<text text-anchor="start" x="14" y="-275.5" font-family="Helvetica,sans-Serif" font-size="10.00">Catch::Generators::</text>
<text text-anchor="middle" x="91" y="-264.5" font-family="Helvetica,sans-Serif" font-size="10.00">FilterGenerator::FilterGenerator</text>
</a>
</g>
</g>
<!-- Node6&#45;&gt;Node8 -->
<g id="edge7" class="edge">
<title>Node6&#45;&gt;Node8</title>
<path fill="none" stroke="midnightblue" d="M225.23,-176.54C222.68,-178.03 220.26,-179.68 218,-181.5 192,-202.48 208.17,-226.72 182,-247.5 177.17,-251.33 171.8,-254.58 166.14,-257.33"/>
<polygon fill="midnightblue" stroke="midnightblue" points="226.84,-179.65 234.23,-172.06 223.72,-173.38 226.84,-179.65"/>
</g>
<!-- Node9 -->
<g id="node9" class="node">
<title>Node9</title>
<g id="a_node9"><a xlink:href="class_catch_1_1_generators_1_1_iterator_generator.html#a1f795b1bbd515274673115c0a9fc2e54" target="_top" xlink:title=" ">
<polygon fill="white" stroke="black" points="19.5,-197 19.5,-238 162.5,-238 162.5,-197 19.5,-197"/>
<text text-anchor="start" x="27.5" y="-226" font-family="Helvetica,sans-Serif" font-size="10.00">Catch::Generators::</text>
<text text-anchor="start" x="27.5" y="-215" font-family="Helvetica,sans-Serif" font-size="10.00">IteratorGenerator::Iterator</text>
<text text-anchor="middle" x="91" y="-204" font-family="Helvetica,sans-Serif" font-size="10.00">Generator</text>
</a>
</g>
</g>
<!-- Node6&#45;&gt;Node9 -->
<g id="edge8" class="edge">
<title>Node6&#45;&gt;Node9</title>
<path fill="none" stroke="midnightblue" d="M239.65,-174.87C216.96,-181.42 188.52,-189.63 162.66,-197.1"/>
<polygon fill="midnightblue" stroke="midnightblue" points="240.68,-178.22 249.32,-172.08 238.74,-171.49 240.68,-178.22"/>
</g>
<!-- Node10 -->
<g id="node10" class="node">
<title>Node10</title>
<g id="a_node10"><a xlink:href="namespace_catch_1_1_benchmark_1_1_detail.html#affd2008dd02dbda7f93d4955ec179327" target="_top" xlink:title=" ">
<polygon fill="white" stroke="black" points="20.5,-147.5 20.5,-177.5 161.5,-177.5 161.5,-147.5 20.5,-147.5"/>
<text text-anchor="start" x="28.5" y="-165.5" font-family="Helvetica,sans-Serif" font-size="10.00">Catch::Benchmark::Detail</text>
<text text-anchor="middle" x="91" y="-154.5" font-family="Helvetica,sans-Serif" font-size="10.00">::run_for_at_least</text>
</a>
</g>
</g>
<!-- Node6&#45;&gt;Node10 -->
<g id="edge9" class="edge">
<title>Node6&#45;&gt;Node10</title>
<path fill="none" stroke="midnightblue" d="M207.46,-162.5C192.41,-162.5 176.66,-162.5 161.8,-162.5"/>
<polygon fill="midnightblue" stroke="midnightblue" points="207.74,-166 217.74,-162.5 207.74,-159 207.74,-166"/>
</g>
<!-- Node11 -->
<g id="node11" class="node">
<title>Node11</title>
<g id="a_node11"><a xlink:href="namespace_catch.html#ae67297c3e265b0fcd55de371bf408e4e" target="_top" xlink:title=" ">
<polygon fill="white" stroke="black" points="31,-98.5 31,-128.5 151,-128.5 151,-98.5 31,-98.5"/>
<text text-anchor="start" x="39" y="-116.5" font-family="Helvetica,sans-Serif" font-size="10.00">Catch::throw_domain</text>
<text text-anchor="middle" x="91" y="-105.5" font-family="Helvetica,sans-Serif" font-size="10.00">_error</text>
</a>
</g>
</g>
<!-- Node6&#45;&gt;Node11 -->
<g id="edge10" class="edge">
<title>Node6&#45;&gt;Node11</title>
<path fill="none" stroke="midnightblue" d="M235.45,-150.4C209.77,-143.79 177.74,-135.55 150.46,-128.54"/>
<polygon fill="midnightblue" stroke="midnightblue" points="234.76,-153.83 245.32,-152.94 236.5,-147.06 234.76,-153.83"/>
</g>
<!-- Node12 -->
<g id="node12" class="node">
<title>Node12</title>
<g id="a_node12"><a xlink:href="namespace_catch.html#a707884e681203fef6bf7dbf752532fa5" target="_top" xlink:title=" ">
<polygon fill="white" stroke="black" points="37.5,-49.5 37.5,-79.5 144.5,-79.5 144.5,-49.5 37.5,-49.5"/>
<text text-anchor="start" x="45.5" y="-67.5" font-family="Helvetica,sans-Serif" font-size="10.00">Catch::throw_logic</text>
<text text-anchor="middle" x="91" y="-56.5" font-family="Helvetica,sans-Serif" font-size="10.00">_error</text>
</a>
</g>
</g>
<!-- Node6&#45;&gt;Node12 -->
<g id="edge11" class="edge">
<title>Node6&#45;&gt;Node12</title>
<path fill="none" stroke="midnightblue" d="M264.23,-146.08C245.02,-129.62 213.3,-104.6 182,-89.5 170.32,-83.86 157.15,-79.31 144.56,-75.71"/>
<polygon fill="midnightblue" stroke="midnightblue" points="262.05,-148.83 271.89,-152.77 266.65,-143.56 262.05,-148.83"/>
</g>
<!-- Node13 -->
<g id="node13" class="node">
<title>Node13</title>
<g id="a_node13"><a xlink:href="namespace_catch.html#a48d2c35022dd9d56a1b7ee78ad581eea" target="_top" xlink:title=" ">
<polygon fill="white" stroke="black" points="30,-0.5 30,-30.5 152,-30.5 152,-0.5 30,-0.5"/>
<text text-anchor="start" x="38" y="-18.5" font-family="Helvetica,sans-Serif" font-size="10.00">Catch::throw_runtime</text>
<text text-anchor="middle" x="91" y="-7.5" font-family="Helvetica,sans-Serif" font-size="10.00">_error</text>
</a>
</g>
</g>
<!-- Node6&#45;&gt;Node13 -->
<g id="edge12" class="edge">
<title>Node6&#45;&gt;Node13</title>
<path fill="none" stroke="midnightblue" d="M272.35,-144.1C256.57,-117.24 223.6,-67.54 182,-40.5 173.03,-34.67 162.7,-30.18 152.31,-26.73"/>
<polygon fill="midnightblue" stroke="midnightblue" points="269.36,-145.94 277.37,-152.88 275.44,-142.46 269.36,-145.94"/>
</g>
</g>
</svg>
