<?xml version="1.0" encoding="UTF-8" standalone="no"?>
<!DOCTYPE svg PUBLIC "-//W3C//DTD SVG 1.1//EN"
 "http://www.w3.org/Graphics/SVG/1.1/DTD/svg11.dtd">
<!-- Generated by graphviz version 2.43.0 (0)
 -->
<!-- Title: Catch::Benchmark::Detail::repeat Pages: 1 -->
<svg width="344pt" height="78pt"
 viewBox="0.00 0.00 344.00 77.50" xmlns="http://www.w3.org/2000/svg" xmlns:xlink="http://www.w3.org/1999/xlink">
<g id="graph0" class="graph" transform="scale(1 1) rotate(0) translate(4 73.5)">
<title>Catch::Benchmark::Detail::repeat</title>
<polygon fill="white" stroke="transparent" points="-4,4 -4,-73.5 340,-73.5 340,4 -4,4"/>
<!-- Node1 -->
<g id="node1" class="node">
<title>Node1</title>
<g id="a_node1"><a xlink:title=" ">
<polygon fill="#bfbfbf" stroke="black" points="195,-17 195,-47 336,-47 336,-17 195,-17"/>
<text text-anchor="start" x="203" y="-35" font-family="Helvetica,sans-Serif" font-size="10.00">Catch::Benchmark::Detail</text>
<text text-anchor="middle" x="265.5" y="-24" font-family="Helvetica,sans-Serif" font-size="10.00">::repeat</text>
</a>
</g>
</g>
<!-- Node2 -->
<g id="node2" class="node">
<title>Node2</title>
<g id="a_node2"><a xlink:href="struct_catch_1_1_benchmark_1_1_execution_plan.html#ad5a23744653a718b76703688b6825a50" target="_top" xlink:title=" ">
<polygon fill="white" stroke="black" points="0,-39 0,-69 159,-69 159,-39 0,-39"/>
<text text-anchor="start" x="8" y="-57" font-family="Helvetica,sans-Serif" font-size="10.00">Catch::Benchmark::Execution</text>
<text text-anchor="middle" x="79.5" y="-46" font-family="Helvetica,sans-Serif" font-size="10.00">Plan::run</text>
</a>
</g>
</g>
<!-- Node1&#45;&gt;Node2 -->
<g id="edge1" class="edge">
<title>Node1&#45;&gt;Node2</title>
<path fill="none" stroke="midnightblue" d="M184.96,-41.51C176.38,-42.54 167.66,-43.58 159.1,-44.6"/>
<polygon fill="midnightblue" stroke="midnightblue" points="185.42,-44.98 194.94,-40.32 184.59,-38.03 185.42,-44.98"/>
</g>
<!-- Node3 -->
<g id="node3" class="node">
<title>Node3</title>
<g id="a_node3"><a xlink:href="_generators_8tests_8cpp.html#a3ade5e0369a2375dd642b71af413068f" target="_top" xlink:title=" ">
<polygon fill="white" stroke="black" points="44,-0.5 44,-19.5 115,-19.5 115,-0.5 44,-0.5"/>
<text text-anchor="middle" x="79.5" y="-7.5" font-family="Helvetica,sans-Serif" font-size="10.00">TEST_CASE</text>
</a>
</g>
</g>
<!-- Node1&#45;&gt;Node3 -->
<g id="edge2" class="edge">
<title>Node1&#45;&gt;Node3</title>
<path fill="none" stroke="midnightblue" d="M184.92,-22.49C160.49,-19.56 134.87,-16.5 115.12,-14.14"/>
<polygon fill="midnightblue" stroke="midnightblue" points="184.59,-25.97 194.94,-23.68 185.42,-19.02 184.59,-25.97"/>
</g>
</g>
</svg>
