<?xml version="1.0" encoding="UTF-8" standalone="no"?>
<!DOCTYPE svg PUBLIC "-//W3C//DTD SVG 1.1//EN"
 "http://www.w3.org/Graphics/SVG/1.1/DTD/svg11.dtd">
<!-- Generated by graphviz version 2.43.0 (0)
 -->
<!-- Title: Catch::Detail::getAnnotation Pages: 1 -->
<svg width="482pt" height="116pt"
 viewBox="0.00 0.00 482.00 115.50" xmlns="http://www.w3.org/2000/svg" xmlns:xlink="http://www.w3.org/1999/xlink">
<g id="graph0" class="graph" transform="scale(1 1) rotate(0) translate(4 111.5)">
<title>Catch::Detail::getAnnotation</title>
<polygon fill="white" stroke="transparent" points="-4,4 -4,-111.5 478,-111.5 478,4 -4,4"/>
<!-- Node1 -->
<g id="node1" class="node">
<title>Node1</title>
<g id="a_node1"><a xlink:title=" ">
<polygon fill="#bfbfbf" stroke="black" points="0,-50 0,-69 155,-69 155,-50 0,-50"/>
<text text-anchor="middle" x="77.5" y="-57" font-family="Helvetica,sans-Serif" font-size="10.00">Catch::Detail::getAnnotation</text>
</a>
</g>
</g>
<!-- Node2 -->
<g id="node2" class="node">
<title>Node2</title>
<g id="a_node2"><a xlink:href="catch__objc__arc_8hpp.html#a1f6b4a44e1eaaa87534d1f28669897dc" target="_top" xlink:title=" ">
<polygon fill="white" stroke="black" points="213.5,-88 213.5,-107 305.5,-107 305.5,-88 213.5,-88"/>
<text text-anchor="middle" x="259.5" y="-95" font-family="Helvetica,sans-Serif" font-size="10.00">arcSafeRelease</text>
</a>
</g>
</g>
<!-- Node1&#45;&gt;Node2 -->
<g id="edge1" class="edge">
<title>Node1&#45;&gt;Node2</title>
<path fill="none" stroke="midnightblue" d="M123.92,-69.09C148.1,-74.19 178.03,-80.51 203.51,-85.89"/>
<polygon fill="midnightblue" stroke="midnightblue" points="202.9,-89.34 213.41,-87.98 204.34,-82.49 202.9,-89.34"/>
</g>
<!-- Node3 -->
<g id="node3" class="node">
<title>Node3</title>
<g id="a_node3"><a xlink:href="catch__objc__arc_8hpp.html#a2e982f858537aef4c41489fee41bdd91" target="_top" xlink:title=" ">
<polygon fill="white" stroke="black" points="191,-50 191,-69 328,-69 328,-50 191,-50"/>
<text text-anchor="middle" x="259.5" y="-57" font-family="Helvetica,sans-Serif" font-size="10.00">performOptionalSelector</text>
</a>
</g>
</g>
<!-- Node1&#45;&gt;Node3 -->
<g id="edge2" class="edge">
<title>Node1&#45;&gt;Node3</title>
<path fill="none" stroke="midnightblue" d="M155.1,-59.5C163.53,-59.5 172.13,-59.5 180.58,-59.5"/>
<polygon fill="midnightblue" stroke="midnightblue" points="180.8,-63 190.8,-59.5 180.8,-56 180.8,-63"/>
</g>
<!-- Node4 -->
<g id="node4" class="node">
<title>Node4</title>
<g id="a_node4"><a xlink:href="namespace_catch_1_1_generators.html#a3b2efc97978cf37951b75394aae1a3fb" target="_top" xlink:title=" ">
<polygon fill="white" stroke="black" points="204.5,-0.5 204.5,-30.5 314.5,-30.5 314.5,-0.5 204.5,-0.5"/>
<text text-anchor="start" x="212.5" y="-18.5" font-family="Helvetica,sans-Serif" font-size="10.00">Catch::Generators::</text>
<text text-anchor="middle" x="259.5" y="-7.5" font-family="Helvetica,sans-Serif" font-size="10.00">value</text>
</a>
</g>
</g>
<!-- Node1&#45;&gt;Node4 -->
<g id="edge3" class="edge">
<title>Node1&#45;&gt;Node4</title>
<path fill="none" stroke="midnightblue" d="M117.56,-49.95C140.01,-44.46 168.78,-37.43 194.46,-31.16"/>
<polygon fill="midnightblue" stroke="midnightblue" points="195.61,-34.48 204.5,-28.7 193.95,-27.68 195.61,-34.48"/>
</g>
<!-- Node5 -->
<g id="node5" class="node">
<title>Node5</title>
<g id="a_node5"><a xlink:href="namespace_catch_1_1_generators_1_1pf.html#a015e8fcef2972da878a07023e40d46d8" target="_top" xlink:title=" ">
<polygon fill="white" stroke="black" points="364,-0.5 364,-30.5 474,-30.5 474,-0.5 364,-0.5"/>
<text text-anchor="start" x="372" y="-18.5" font-family="Helvetica,sans-Serif" font-size="10.00">Catch::Generators::</text>
<text text-anchor="middle" x="419" y="-7.5" font-family="Helvetica,sans-Serif" font-size="10.00">pf::make_unique</text>
</a>
</g>
</g>
<!-- Node4&#45;&gt;Node5 -->
<g id="edge4" class="edge">
<title>Node4&#45;&gt;Node5</title>
<path fill="none" stroke="midnightblue" d="M314.7,-15.5C327.27,-15.5 340.77,-15.5 353.72,-15.5"/>
<polygon fill="midnightblue" stroke="midnightblue" points="353.96,-19 363.96,-15.5 353.96,-12 353.96,-19"/>
</g>
</g>
</svg>
