<?xml version="1.0" encoding="UTF-8" standalone="no"?>
<!DOCTYPE svg PUBLIC "-//W3C//DTD SVG 1.1//EN"
 "http://www.w3.org/Graphics/SVG/1.1/DTD/svg11.dtd">
<!-- Generated by graphviz version 2.43.0 (0)
 -->
<!-- Title: Catch::matchTest Pages: 1 -->
<svg width="474pt" height="88pt"
 viewBox="0.00 0.00 474.00 88.00" xmlns="http://www.w3.org/2000/svg" xmlns:xlink="http://www.w3.org/1999/xlink">
<g id="graph0" class="graph" transform="scale(1 1) rotate(0) translate(4 84)">
<title>Catch::matchTest</title>
<polygon fill="white" stroke="transparent" points="-4,4 -4,-84 470,-84 470,4 -4,4"/>
<!-- Node1 -->
<g id="node1" class="node">
<title>Node1</title>
<g id="a_node1"><a xlink:title=" ">
<polygon fill="#bfbfbf" stroke="black" points="0,-19.5 0,-38.5 101,-38.5 101,-19.5 0,-19.5"/>
<text text-anchor="middle" x="50.5" y="-26.5" font-family="Helvetica,sans-Serif" font-size="10.00">Catch::matchTest</text>
</a>
</g>
</g>
<!-- Node2 -->
<g id="node2" class="node">
<title>Node2</title>
<g id="a_node2"><a xlink:href="namespace_catch.html#af3e820574c7a0b38d71328c5bd54b0e0" target="_top" xlink:title=" ">
<polygon fill="white" stroke="black" points="152.5,-38.5 152.5,-57.5 262.5,-57.5 262.5,-38.5 152.5,-38.5"/>
<text text-anchor="middle" x="207.5" y="-45.5" font-family="Helvetica,sans-Serif" font-size="10.00">Catch::isThrowSafe</text>
</a>
</g>
</g>
<!-- Node1&#45;&gt;Node2 -->
<g id="edge1" class="edge">
<title>Node1&#45;&gt;Node2</title>
<path fill="none" stroke="midnightblue" d="M101.4,-35.12C114.37,-36.71 128.54,-38.44 142.14,-40.11"/>
<polygon fill="midnightblue" stroke="midnightblue" points="142.06,-43.63 152.41,-41.37 142.91,-36.68 142.06,-43.63"/>
</g>
<!-- Node5 -->
<g id="node5" class="node">
<title>Node5</title>
<g id="a_node5"><a xlink:href="class_catch_1_1_test_spec.html#a2342df9eff2c7db0d26432c1ddef796f" target="_top" xlink:title=" ">
<polygon fill="white" stroke="black" points="137,-0.5 137,-19.5 278,-19.5 278,-0.5 137,-0.5"/>
<text text-anchor="middle" x="207.5" y="-7.5" font-family="Helvetica,sans-Serif" font-size="10.00">Catch::TestSpec::matches</text>
</a>
</g>
</g>
<!-- Node1&#45;&gt;Node5 -->
<g id="edge4" class="edge">
<title>Node1&#45;&gt;Node5</title>
<path fill="none" stroke="midnightblue" d="M101.4,-22.88C109.54,-21.89 118.15,-20.83 126.79,-19.77"/>
<polygon fill="midnightblue" stroke="midnightblue" points="127.43,-23.22 136.93,-18.53 126.58,-16.27 127.43,-23.22"/>
</g>
<!-- Node3 -->
<g id="node3" class="node">
<title>Node3</title>
<g id="a_node3"><a xlink:href="struct_catch_1_1_i_config.html#aadb95f849359de1e6eb915aab063e542" target="_top" xlink:title=" ">
<polygon fill="white" stroke="black" points="314,-60.5 314,-79.5 466,-79.5 466,-60.5 314,-60.5"/>
<text text-anchor="middle" x="390" y="-67.5" font-family="Helvetica,sans-Serif" font-size="10.00">Catch::IConfig::allowThrows</text>
</a>
</g>
</g>
<!-- Node2&#45;&gt;Node3 -->
<g id="edge2" class="edge">
<title>Node2&#45;&gt;Node3</title>
<path fill="none" stroke="midnightblue" d="M262.66,-54.6C275.61,-56.18 289.75,-57.9 303.73,-59.61"/>
<polygon fill="midnightblue" stroke="midnightblue" points="303.51,-63.11 313.86,-60.84 304.36,-56.16 303.51,-63.11"/>
</g>
<!-- Node4 -->
<g id="node4" class="node">
<title>Node4</title>
<g id="a_node4"><a xlink:href="struct_catch_1_1_test_case_info.html#afc70d4379a2070cc22b693ffe3932c1a" target="_top" xlink:title=" ">
<polygon fill="white" stroke="black" points="333.5,-11 333.5,-41 446.5,-41 446.5,-11 333.5,-11"/>
<text text-anchor="start" x="341.5" y="-29" font-family="Helvetica,sans-Serif" font-size="10.00">Catch::TestCaseInfo</text>
<text text-anchor="middle" x="390" y="-18" font-family="Helvetica,sans-Serif" font-size="10.00">::throws</text>
</a>
</g>
</g>
<!-- Node2&#45;&gt;Node4 -->
<g id="edge3" class="edge">
<title>Node2&#45;&gt;Node4</title>
<path fill="none" stroke="midnightblue" d="M262.66,-41.4C281.76,-39.07 303.44,-36.43 323.38,-34"/>
<polygon fill="midnightblue" stroke="midnightblue" points="323.82,-37.47 333.32,-32.79 322.97,-30.52 323.82,-37.47"/>
</g>
</g>
</svg>
