<?xml version="1.0" encoding="UTF-8" standalone="no"?>
<!DOCTYPE svg PUBLIC "-//W3C//DTD SVG 1.1//EN"
 "http://www.w3.org/Graphics/SVG/1.1/DTD/svg11.dtd">
<!-- Generated by graphviz version 2.43.0 (0)
 -->
<!-- Title: extractFeaturesFromReleaseNotes.write_recent_release_notes_with_introduced_text Pages: 1 -->
<svg width="424pt" height="148pt"
 viewBox="0.00 0.00 424.00 148.00" xmlns="http://www.w3.org/2000/svg" xmlns:xlink="http://www.w3.org/1999/xlink">
<g id="graph0" class="graph" transform="scale(1 1) rotate(0) translate(4 144)">
<title>extractFeaturesFromReleaseNotes.write_recent_release_notes_with_introduced_text</title>
<polygon fill="white" stroke="transparent" points="-4,4 -4,-144 420,-144 420,4 -4,4"/>
<!-- Node1 -->
<g id="node1" class="node">
<title>Node1</title>
<g id="a_node1"><a xlink:title=" ">
<polygon fill="#bfbfbf" stroke="black" points="0,-38.5 0,-79.5 157,-79.5 157,-38.5 0,-38.5"/>
<text text-anchor="start" x="8" y="-67.5" font-family="Helvetica,sans-Serif" font-size="10.00">extractFeaturesFromRelease</text>
<text text-anchor="start" x="8" y="-56.5" font-family="Helvetica,sans-Serif" font-size="10.00">Notes.write_recent_release</text>
<text text-anchor="middle" x="78.5" y="-45.5" font-family="Helvetica,sans-Serif" font-size="10.00">_notes_with_introduced_text</text>
</a>
</g>
</g>
<!-- Node2 -->
<g id="node2" class="node">
<title>Node2</title>
<g id="a_node2"><a xlink:href="namespaceextract_features_from_release_notes.html#a33a305aac975f7ef568a8deb5795f22f" target="_top" xlink:title=" ">
<polygon fill="white" stroke="black" points="193,-98.5 193,-139.5 350,-139.5 350,-98.5 193,-98.5"/>
<text text-anchor="start" x="201" y="-127.5" font-family="Helvetica,sans-Serif" font-size="10.00">extractFeaturesFromRelease</text>
<text text-anchor="start" x="201" y="-116.5" font-family="Helvetica,sans-Serif" font-size="10.00">Notes.create_introduced</text>
<text text-anchor="middle" x="271.5" y="-105.5" font-family="Helvetica,sans-Serif" font-size="10.00">_in_text</text>
</a>
</g>
</g>
<!-- Node1&#45;&gt;Node2 -->
<g id="edge1" class="edge">
<title>Node1&#45;&gt;Node2</title>
<path fill="none" stroke="midnightblue" d="M144.96,-79.56C161.21,-84.67 178.75,-90.18 195.42,-95.42"/>
<polygon fill="midnightblue" stroke="midnightblue" points="194.53,-98.8 205.12,-98.46 196.63,-92.13 194.53,-98.8"/>
</g>
<!-- Node3 -->
<g id="node3" class="node">
<title>Node3</title>
<g id="a_node3"><a xlink:href="namespaceextract_features_from_release_notes.html#a1ba56e17c6968e2bfb373becad224029" target="_top" xlink:title=" ">
<polygon fill="white" stroke="black" points="193,-38.5 193,-79.5 350,-79.5 350,-38.5 193,-38.5"/>
<text text-anchor="start" x="201" y="-67.5" font-family="Helvetica,sans-Serif" font-size="10.00">extractFeaturesFromRelease</text>
<text text-anchor="start" x="201" y="-56.5" font-family="Helvetica,sans-Serif" font-size="10.00">Notes.link_to_changes_in</text>
<text text-anchor="middle" x="271.5" y="-45.5" font-family="Helvetica,sans-Serif" font-size="10.00">_release</text>
</a>
</g>
</g>
<!-- Node1&#45;&gt;Node3 -->
<g id="edge2" class="edge">
<title>Node1&#45;&gt;Node3</title>
<path fill="none" stroke="midnightblue" d="M157.19,-59C165.65,-59 174.31,-59 182.88,-59"/>
<polygon fill="midnightblue" stroke="midnightblue" points="182.88,-62.5 192.88,-59 182.88,-55.5 182.88,-62.5"/>
</g>
<!-- Node4 -->
<g id="node4" class="node">
<title>Node4</title>
<g id="a_node4"><a xlink:href="210-_evt-_event_listeners_8cpp.html#a91b9457094088a57b7ba14d485a8771e" target="_top" xlink:title=" ">
<polygon fill="white" stroke="black" points="252,-0.5 252,-19.5 291,-19.5 291,-0.5 252,-0.5"/>
<text text-anchor="middle" x="271.5" y="-7.5" font-family="Helvetica,sans-Serif" font-size="10.00">print</text>
</a>
</g>
</g>
<!-- Node1&#45;&gt;Node4 -->
<g id="edge3" class="edge">
<title>Node1&#45;&gt;Node4</title>
<path fill="none" stroke="midnightblue" d="M156.38,-38.48C168.62,-35.27 181.15,-32.02 193,-29 209.2,-24.87 227.36,-20.41 242.02,-16.85"/>
<polygon fill="midnightblue" stroke="midnightblue" points="243.1,-20.19 252,-14.44 241.46,-13.39 243.1,-20.19"/>
</g>
<!-- Node5 -->
<g id="node5" class="node">
<title>Node5</title>
<g id="a_node5"><a xlink:href="210-_evt-_event_listeners_8cpp.html#aaf05ec28baf9169e247960554e9ffbcb" target="_top" xlink:title=" ">
<polygon fill="white" stroke="black" points="386,-0.5 386,-19.5 416,-19.5 416,-0.5 386,-0.5"/>
<text text-anchor="middle" x="401" y="-7.5" font-family="Helvetica,sans-Serif" font-size="10.00">ws</text>
</a>
</g>
</g>
<!-- Node4&#45;&gt;Node5 -->
<g id="edge4" class="edge">
<title>Node4&#45;&gt;Node5</title>
<path fill="none" stroke="midnightblue" d="M291.04,-10C313.32,-10 350.78,-10 375.45,-10"/>
<polygon fill="midnightblue" stroke="midnightblue" points="375.78,-13.5 385.78,-10 375.78,-6.5 375.78,-13.5"/>
</g>
</g>
</svg>
