<?xml version="1.0" encoding="UTF-8" standalone="no"?>
<!DOCTYPE svg PUBLIC "-//W3C//DTD SVG 1.1//EN"
 "http://www.w3.org/Graphics/SVG/1.1/DTD/svg11.dtd">
<!-- Generated by graphviz version 2.43.0 (0)
 -->
<!-- Title: Catch::listReporters Pages: 1 -->
<svg width="447pt" height="302pt"
 viewBox="0.00 0.00 447.00 302.00" xmlns="http://www.w3.org/2000/svg" xmlns:xlink="http://www.w3.org/1999/xlink">
<g id="graph0" class="graph" transform="scale(1 1) rotate(0) translate(4 298)">
<title>Catch::listReporters</title>
<polygon fill="white" stroke="transparent" points="-4,4 -4,-298 443,-298 443,4 -4,4"/>
<!-- Node1 -->
<g id="node1" class="node">
<title>Node1</title>
<g id="a_node1"><a xlink:title=" ">
<polygon fill="#bfbfbf" stroke="black" points="0,-142.5 0,-161.5 113,-161.5 113,-142.5 0,-142.5"/>
<text text-anchor="middle" x="56.5" y="-149.5" font-family="Helvetica,sans-Serif" font-size="10.00">Catch::listReporters</text>
</a>
</g>
</g>
<!-- Node2 -->
<g id="node2" class="node">
<title>Node2</title>
<g id="a_node2"><a xlink:href="namespace_catch.html#a0179d453617ba2296f2baa99a49e7264" target="_top" xlink:title=" ">
<polygon fill="white" stroke="black" points="181.5,-274.5 181.5,-293.5 252.5,-293.5 252.5,-274.5 181.5,-274.5"/>
<text text-anchor="middle" x="217" y="-281.5" font-family="Helvetica,sans-Serif" font-size="10.00">Catch::cout</text>
</a>
</g>
</g>
<!-- Node1&#45;&gt;Node2 -->
<g id="edge1" class="edge">
<title>Node1&#45;&gt;Node2</title>
<path fill="none" stroke="midnightblue" d="M62.49,-161.54C74.4,-183.33 106.65,-237.06 149,-265 155.82,-269.5 163.7,-272.94 171.61,-275.58"/>
<polygon fill="midnightblue" stroke="midnightblue" points="170.63,-278.94 181.21,-278.41 172.61,-272.23 170.63,-278.94"/>
</g>
<!-- Node3 -->
<g id="node3" class="node">
<title>Node3</title>
<g id="a_node3"><a xlink:href="struct_catch_1_1_i_reporter_registry.html#a76ffc8a26c38929f370196937ed112b5" target="_top" xlink:title=" ">
<polygon fill="white" stroke="black" points="149,-225 149,-255 285,-255 285,-225 149,-225"/>
<text text-anchor="start" x="157" y="-243" font-family="Helvetica,sans-Serif" font-size="10.00">Catch::IReporterRegistry</text>
<text text-anchor="middle" x="217" y="-232" font-family="Helvetica,sans-Serif" font-size="10.00">::getFactories</text>
</a>
</g>
</g>
<!-- Node1&#45;&gt;Node3 -->
<g id="edge2" class="edge">
<title>Node1&#45;&gt;Node3</title>
<path fill="none" stroke="midnightblue" d="M69.33,-161.57C86.21,-174.88 118.55,-199.15 149,-215 153.01,-217.09 157.24,-219.09 161.53,-220.98"/>
<polygon fill="midnightblue" stroke="midnightblue" points="160.43,-224.32 171.01,-224.96 163.14,-217.86 160.43,-224.32"/>
</g>
<!-- Node4 -->
<g id="node4" class="node">
<title>Node4</title>
<g id="a_node4"><a xlink:href="namespace_catch.html#a5d328566cb8da87b48f1fac3f319ac7a" target="_top" xlink:title=" ">
<polygon fill="white" stroke="black" points="154,-186.5 154,-205.5 280,-205.5 280,-186.5 154,-186.5"/>
<text text-anchor="middle" x="217" y="-193.5" font-family="Helvetica,sans-Serif" font-size="10.00">Catch::getRegistryHub</text>
</a>
</g>
</g>
<!-- Node1&#45;&gt;Node4 -->
<g id="edge3" class="edge">
<title>Node1&#45;&gt;Node4</title>
<path fill="none" stroke="midnightblue" d="M91.89,-161.55C115.36,-168.06 146.66,-176.75 171.95,-183.77"/>
<polygon fill="midnightblue" stroke="midnightblue" points="171.1,-187.17 181.67,-186.47 172.98,-180.42 171.1,-187.17"/>
</g>
<!-- Node6 -->
<g id="node6" class="node">
<title>Node6</title>
<g id="a_node6"><a xlink:href="struct_catch_1_1_i_registry_hub.html#a55534563f7ecf7e20ec1e37285ebe54d" target="_top" xlink:title=" ">
<polygon fill="white" stroke="black" points="156.5,-137 156.5,-167 277.5,-167 277.5,-137 156.5,-137"/>
<text text-anchor="start" x="164.5" y="-155" font-family="Helvetica,sans-Serif" font-size="10.00">Catch::IRegistryHub</text>
<text text-anchor="middle" x="217" y="-144" font-family="Helvetica,sans-Serif" font-size="10.00">::getReporterRegistry</text>
</a>
</g>
</g>
<!-- Node1&#45;&gt;Node6 -->
<g id="edge5" class="edge">
<title>Node1&#45;&gt;Node6</title>
<path fill="none" stroke="midnightblue" d="M113.38,-152C124.03,-152 135.29,-152 146.3,-152"/>
<polygon fill="midnightblue" stroke="midnightblue" points="146.32,-155.5 156.32,-152 146.32,-148.5 146.32,-155.5"/>
</g>
<!-- Node7 -->
<g id="node7" class="node">
<title>Node7</title>
<g id="a_node7"><a xlink:href="class_catch_1_1clara_1_1_text_flow_1_1_column.html#a8d5fa87d9f25f27e6948965c62b53867" target="_top" xlink:title=" ">
<polygon fill="white" stroke="black" points="155,-88 155,-118 279,-118 279,-88 155,-88"/>
<text text-anchor="start" x="163" y="-106" font-family="Helvetica,sans-Serif" font-size="10.00">Catch::clara::TextFlow</text>
<text text-anchor="middle" x="217" y="-95" font-family="Helvetica,sans-Serif" font-size="10.00">::Column::indent</text>
</a>
</g>
</g>
<!-- Node1&#45;&gt;Node7 -->
<g id="edge6" class="edge">
<title>Node1&#45;&gt;Node7</title>
<path fill="none" stroke="midnightblue" d="M88.44,-142.44C108.07,-136.37 134.09,-128.32 157.51,-121.08"/>
<polygon fill="midnightblue" stroke="midnightblue" points="158.84,-124.33 167.36,-118.04 156.77,-117.65 158.84,-124.33"/>
</g>
<!-- Node8 -->
<g id="node8" class="node">
<title>Node8</title>
<g id="a_node8"><a xlink:href="class_catch_1_1clara_1_1_text_flow_1_1_column.html#aeb2cbf067c9f99e87057320d78dd524a" target="_top" xlink:title=" ">
<polygon fill="white" stroke="black" points="154.5,-39 154.5,-69 279.5,-69 279.5,-39 154.5,-39"/>
<text text-anchor="start" x="162.5" y="-57" font-family="Helvetica,sans-Serif" font-size="10.00">Catch::clara::TextFlow</text>
<text text-anchor="middle" x="217" y="-46" font-family="Helvetica,sans-Serif" font-size="10.00">::Column::initialIndent</text>
</a>
</g>
</g>
<!-- Node1&#45;&gt;Node8 -->
<g id="edge7" class="edge">
<title>Node1&#45;&gt;Node8</title>
<path fill="none" stroke="midnightblue" d="M67.42,-142.3C83.43,-127.08 116.46,-97.43 149,-79 152.65,-76.94 156.5,-74.98 160.43,-73.14"/>
<polygon fill="midnightblue" stroke="midnightblue" points="161.96,-76.29 169.71,-69.07 159.15,-69.88 161.96,-76.29"/>
</g>
<!-- Node9 -->
<g id="node9" class="node">
<title>Node9</title>
<g id="a_node9"><a xlink:href="xml_8sw_8approved_8txt.html#ab8b8577604b92144025744c78797c3bc" target="_top" xlink:title=" ">
<polygon fill="white" stroke="black" points="194.5,-0.5 194.5,-19.5 239.5,-19.5 239.5,-0.5 194.5,-0.5"/>
<text text-anchor="middle" x="217" y="-7.5" font-family="Helvetica,sans-Serif" font-size="10.00">size_t</text>
</a>
</g>
</g>
<!-- Node1&#45;&gt;Node9 -->
<g id="edge8" class="edge">
<title>Node1&#45;&gt;Node9</title>
<path fill="none" stroke="midnightblue" d="M61.97,-142.43C73.21,-119.44 104.91,-60.73 149,-30 159.4,-22.75 172.46,-18.09 184.28,-15.11"/>
<polygon fill="midnightblue" stroke="midnightblue" points="185.25,-18.48 194.26,-12.9 183.74,-11.65 185.25,-18.48"/>
</g>
<!-- Node5 -->
<g id="node5" class="node">
<title>Node5</title>
<g id="a_node5"><a xlink:href="class_catch_1_1_singleton.html#aa1b2bb002acd8838489a225dbbaf2865" target="_top" xlink:title=" ">
<polygon fill="white" stroke="black" points="321,-186.5 321,-205.5 439,-205.5 439,-186.5 321,-186.5"/>
<text text-anchor="middle" x="380" y="-193.5" font-family="Helvetica,sans-Serif" font-size="10.00">Catch::Singleton::get</text>
</a>
</g>
</g>
<!-- Node4&#45;&gt;Node5 -->
<g id="edge4" class="edge">
<title>Node4&#45;&gt;Node5</title>
<path fill="none" stroke="midnightblue" d="M280.25,-196C290.27,-196 300.69,-196 310.84,-196"/>
<polygon fill="midnightblue" stroke="midnightblue" points="310.88,-199.5 320.88,-196 310.88,-192.5 310.88,-199.5"/>
</g>
</g>
</svg>
