<?xml version="1.0" encoding="UTF-8" standalone="no"?>
<!DOCTYPE svg PUBLIC "-//W3C//DTD SVG 1.1//EN"
 "http://www.w3.org/Graphics/SVG/1.1/DTD/svg11.dtd">
<!-- Generated by graphviz version 2.43.0 (0)
 -->
<!-- Title: fixWhitespace.fixAllFilesInDir Pages: 1 -->
<svg width="468pt" height="66pt"
 viewBox="0.00 0.00 468.00 66.00" xmlns="http://www.w3.org/2000/svg" xmlns:xlink="http://www.w3.org/1999/xlink">
<g id="graph0" class="graph" transform="scale(1 1) rotate(0) translate(4 62)">
<title>fixWhitespace.fixAllFilesInDir</title>
<polygon fill="white" stroke="transparent" points="-4,4 -4,-62 464,-62 464,4 -4,4"/>
<!-- Node1 -->
<g id="node1" class="node">
<title>Node1</title>
<g id="a_node1"><a xlink:title=" ">
<polygon fill="#bfbfbf" stroke="black" points="0,-14 0,-44 136,-44 136,-14 0,-14"/>
<text text-anchor="start" x="8" y="-32" font-family="Helvetica,sans-Serif" font-size="10.00">fixWhitespace.fixAllFiles</text>
<text text-anchor="middle" x="68" y="-21" font-family="Helvetica,sans-Serif" font-size="10.00">InDir</text>
</a>
</g>
</g>
<!-- Node2 -->
<g id="node2" class="node">
<title>Node2</title>
<g id="a_node2"><a xlink:href="namespacefix_whitespace.html#adba5d3fb2d3335d317b1b037509c5367" target="_top" xlink:title=" ">
<polygon fill="white" stroke="black" points="186.5,-38.5 186.5,-57.5 304.5,-57.5 304.5,-38.5 186.5,-38.5"/>
<text text-anchor="middle" x="245.5" y="-45.5" font-family="Helvetica,sans-Serif" font-size="10.00">fixWhitespace.fixFile</text>
</a>
</g>
</g>
<!-- Node1&#45;&gt;Node2 -->
<g id="edge1" class="edge">
<title>Node1&#45;&gt;Node2</title>
<path fill="none" stroke="midnightblue" d="M136.1,-36.26C149.29,-37.69 163.13,-39.19 176.35,-40.62"/>
<polygon fill="midnightblue" stroke="midnightblue" points="176,-44.1 186.32,-41.7 176.75,-37.14 176,-44.1"/>
</g>
<!-- Node5 -->
<g id="node5" class="node">
<title>Node5</title>
<g id="a_node5"><a xlink:href="namespacefix_whitespace.html#a3f4325c71049c7d0823404bf6a61caa4" target="_top" xlink:title=" ">
<polygon fill="white" stroke="black" points="172,-0.5 172,-19.5 319,-19.5 319,-0.5 172,-0.5"/>
<text text-anchor="middle" x="245.5" y="-7.5" font-family="Helvetica,sans-Serif" font-size="10.00">fixWhitespace.isSourceFile</text>
</a>
</g>
</g>
<!-- Node1&#45;&gt;Node5 -->
<g id="edge4" class="edge">
<title>Node1&#45;&gt;Node5</title>
<path fill="none" stroke="midnightblue" d="M136.1,-21.74C144.52,-20.82 153.2,-19.88 161.82,-18.95"/>
<polygon fill="midnightblue" stroke="midnightblue" points="162.32,-22.42 171.89,-17.86 161.57,-15.46 162.32,-22.42"/>
</g>
<!-- Node3 -->
<g id="node3" class="node">
<title>Node3</title>
<g id="a_node3"><a xlink:href="210-_evt-_event_listeners_8cpp.html#a91b9457094088a57b7ba14d485a8771e" target="_top" xlink:title=" ">
<polygon fill="white" stroke="black" points="355,-38.5 355,-57.5 394,-57.5 394,-38.5 355,-38.5"/>
<text text-anchor="middle" x="374.5" y="-45.5" font-family="Helvetica,sans-Serif" font-size="10.00">print</text>
</a>
</g>
</g>
<!-- Node2&#45;&gt;Node3 -->
<g id="edge2" class="edge">
<title>Node2&#45;&gt;Node3</title>
<path fill="none" stroke="midnightblue" d="M304.8,-48C318.68,-48 332.89,-48 344.76,-48"/>
<polygon fill="midnightblue" stroke="midnightblue" points="344.92,-51.5 354.92,-48 344.92,-44.5 344.92,-51.5"/>
</g>
<!-- Node4 -->
<g id="node4" class="node">
<title>Node4</title>
<g id="a_node4"><a xlink:href="210-_evt-_event_listeners_8cpp.html#aaf05ec28baf9169e247960554e9ffbcb" target="_top" xlink:title=" ">
<polygon fill="white" stroke="black" points="430,-38.5 430,-57.5 460,-57.5 460,-38.5 430,-38.5"/>
<text text-anchor="middle" x="445" y="-45.5" font-family="Helvetica,sans-Serif" font-size="10.00">ws</text>
</a>
</g>
</g>
<!-- Node3&#45;&gt;Node4 -->
<g id="edge3" class="edge">
<title>Node3&#45;&gt;Node4</title>
<path fill="none" stroke="midnightblue" d="M394.22,-48C402.13,-48 411.44,-48 419.86,-48"/>
<polygon fill="midnightblue" stroke="midnightblue" points="419.87,-51.5 429.87,-48 419.87,-44.5 419.87,-51.5"/>
</g>
</g>
</svg>
