<?xml version="1.0" encoding="UTF-8" standalone="no"?>
<!DOCTYPE svg PUBLIC "-//W3C//DTD SVG 1.1//EN"
 "http://www.w3.org/Graphics/SVG/1.1/DTD/svg11.dtd">
<!-- Generated by graphviz version 2.43.0 (0)
 -->
<!-- Title: testRandomOrder.main Pages: 1 -->
<svg width="376pt" height="88pt"
 viewBox="0.00 0.00 376.00 88.00" xmlns="http://www.w3.org/2000/svg" xmlns:xlink="http://www.w3.org/1999/xlink">
<g id="graph0" class="graph" transform="scale(1 1) rotate(0) translate(4 84)">
<title>testRandomOrder.main</title>
<polygon fill="white" stroke="transparent" points="-4,4 -4,-84 372,-84 372,4 -4,4"/>
<!-- Node1 -->
<g id="node1" class="node">
<title>Node1</title>
<g id="a_node1"><a xlink:title=" ">
<polygon fill="#bfbfbf" stroke="black" points="0,-30 0,-49 130,-49 130,-30 0,-30"/>
<text text-anchor="middle" x="65" y="-37" font-family="Helvetica,sans-Serif" font-size="10.00">testRandomOrder.main</text>
</a>
</g>
</g>
<!-- Node2 -->
<g id="node2" class="node">
<title>Node2</title>
<g id="a_node2"><a xlink:href="namespacetest_random_order.html#a76212030c0dc3bff2e65ed89afc3f948" target="_top" xlink:title=" ">
<polygon fill="white" stroke="black" points="166,-49.5 166,-79.5 300,-79.5 300,-49.5 166,-49.5"/>
<text text-anchor="start" x="174" y="-67.5" font-family="Helvetica,sans-Serif" font-size="10.00">testRandomOrder.check</text>
<text text-anchor="middle" x="233" y="-56.5" font-family="Helvetica,sans-Serif" font-size="10.00">_is_sublist_of</text>
</a>
</g>
</g>
<!-- Node1&#45;&gt;Node2 -->
<g id="edge1" class="edge">
<title>Node1&#45;&gt;Node2</title>
<path fill="none" stroke="midnightblue" d="M129.23,-49.02C137.95,-50.34 146.98,-51.7 155.9,-53.04"/>
<polygon fill="midnightblue" stroke="midnightblue" points="155.5,-56.52 165.91,-54.55 156.54,-49.6 155.5,-56.52"/>
</g>
<!-- Node4 -->
<g id="node4" class="node">
<title>Node4</title>
<g id="a_node4"><a xlink:href="namespacetest_random_order.html#ac17946d0571cf12dcdc43ab80d79a42f" target="_top" xlink:title=" ">
<polygon fill="white" stroke="black" points="173,-0.5 173,-30.5 293,-30.5 293,-0.5 173,-0.5"/>
<text text-anchor="start" x="181" y="-18.5" font-family="Helvetica,sans-Serif" font-size="10.00">testRandomOrder.list</text>
<text text-anchor="middle" x="233" y="-7.5" font-family="Helvetica,sans-Serif" font-size="10.00">_tests</text>
</a>
</g>
</g>
<!-- Node1&#45;&gt;Node4 -->
<g id="edge3" class="edge">
<title>Node1&#45;&gt;Node4</title>
<path fill="none" stroke="midnightblue" d="M130.18,-30.22C140.83,-28.68 151.91,-27.08 162.68,-25.52"/>
<polygon fill="midnightblue" stroke="midnightblue" points="163.48,-28.94 172.88,-24.05 162.48,-22.01 163.48,-28.94"/>
</g>
<!-- Node3 -->
<g id="node3" class="node">
<title>Node3</title>
<g id="a_node3"><a xlink:href="language_2lib_2_catch2_2_c_make_lists_8txt.html#a7d4ba700ee77373e06dc8f4eadd916e0" target="_top" xlink:title=" ">
<polygon fill="white" stroke="black" points="336,-55 336,-74 368,-74 368,-55 336,-55"/>
<text text-anchor="middle" x="352" y="-62" font-family="Helvetica,sans-Serif" font-size="10.00">set</text>
</a>
</g>
</g>
<!-- Node2&#45;&gt;Node3 -->
<g id="edge2" class="edge">
<title>Node2&#45;&gt;Node3</title>
<path fill="none" stroke="midnightblue" d="M300.02,-64.5C309.18,-64.5 318.09,-64.5 325.83,-64.5"/>
<polygon fill="midnightblue" stroke="midnightblue" points="325.9,-68 335.9,-64.5 325.9,-61 325.9,-68"/>
</g>
</g>
</svg>
