<?xml version="1.0" encoding="UTF-8" standalone="no"?>
<!DOCTYPE svg PUBLIC "-//W3C//DTD SVG 1.1//EN"
 "http://www.w3.org/Graphics/SVG/1.1/DTD/svg11.dtd">
<!-- Generated by graphviz version 2.43.0 (0)
 -->
<!-- Title: Catch::throw_logic_error Pages: 1 -->
<svg width="494pt" height="39pt"
 viewBox="0.00 0.00 494.00 39.00" xmlns="http://www.w3.org/2000/svg" xmlns:xlink="http://www.w3.org/1999/xlink">
<g id="graph0" class="graph" transform="scale(1 1) rotate(0) translate(4 35)">
<title>Catch::throw_logic_error</title>
<polygon fill="white" stroke="transparent" points="-4,4 -4,-35 490,-35 490,4 -4,4"/>
<!-- Node1 -->
<g id="node1" class="node">
<title>Node1</title>
<g id="a_node1"><a xlink:title=" ">
<polygon fill="#bfbfbf" stroke="black" points="0,-0.5 0,-30.5 107,-30.5 107,-0.5 0,-0.5"/>
<text text-anchor="start" x="8" y="-18.5" font-family="Helvetica,sans-Serif" font-size="10.00">Catch::throw_logic</text>
<text text-anchor="middle" x="53.5" y="-7.5" font-family="Helvetica,sans-Serif" font-size="10.00">_error</text>
</a>
</g>
</g>
<!-- Node2 -->
<g id="node2" class="node">
<title>Node2</title>
<g id="a_node2"><a xlink:href="namespace_catch.html#a3cbceeab9252d1b752f66a2826e92548" target="_top" xlink:title=" ">
<polygon fill="white" stroke="black" points="143,-6 143,-25 274,-25 274,-6 143,-6"/>
<text text-anchor="middle" x="208.5" y="-13" font-family="Helvetica,sans-Serif" font-size="10.00">Catch::throw_exception</text>
</a>
</g>
</g>
<!-- Node1&#45;&gt;Node2 -->
<g id="edge1" class="edge">
<title>Node1&#45;&gt;Node2</title>
<path fill="none" stroke="midnightblue" d="M107.15,-15.5C115.42,-15.5 124.09,-15.5 132.74,-15.5"/>
<polygon fill="midnightblue" stroke="midnightblue" points="132.85,-19 142.85,-15.5 132.85,-12 132.85,-19"/>
</g>
<!-- Node3 -->
<g id="node3" class="node">
<title>Node3</title>
<g id="a_node3"><a xlink:href="namespace_catch.html#a54c1ce08041448d684ae8edc14162cd2" target="_top" xlink:title=" ">
<polygon fill="white" stroke="black" points="310,-6 310,-25 379,-25 379,-6 310,-6"/>
<text text-anchor="middle" x="344.5" y="-13" font-family="Helvetica,sans-Serif" font-size="10.00">Catch::cerr</text>
</a>
</g>
</g>
<!-- Node2&#45;&gt;Node3 -->
<g id="edge2" class="edge">
<title>Node2&#45;&gt;Node3</title>
<path fill="none" stroke="midnightblue" d="M274.14,-15.5C282.8,-15.5 291.51,-15.5 299.7,-15.5"/>
<polygon fill="midnightblue" stroke="midnightblue" points="299.74,-19 309.74,-15.5 299.74,-12 299.74,-19"/>
</g>
<!-- Node4 -->
<g id="node4" class="node">
<title>Node4</title>
<g id="a_node4"><a xlink:href="namespace_catch.html#a1b2213f54e4d31a659db49827e81856b" target="_top" xlink:title=" ">
<polygon fill="white" stroke="black" points="415,-6 415,-25 486,-25 486,-6 415,-6"/>
<text text-anchor="middle" x="450.5" y="-13" font-family="Helvetica,sans-Serif" font-size="10.00">Catch::clog</text>
</a>
</g>
</g>
<!-- Node3&#45;&gt;Node4 -->
<g id="edge3" class="edge">
<title>Node3&#45;&gt;Node4</title>
<path fill="none" stroke="midnightblue" d="M379.27,-15.5C387.36,-15.5 396.13,-15.5 404.64,-15.5"/>
<polygon fill="midnightblue" stroke="midnightblue" points="404.83,-19 414.83,-15.5 404.83,-12 404.83,-19"/>
</g>
</g>
</svg>
