<?xml version="1.0" encoding="UTF-8" standalone="no"?>
<!DOCTYPE svg PUBLIC "-//W3C//DTD SVG 1.1//EN"
 "http://www.w3.org/Graphics/SVG/1.1/DTD/svg11.dtd">
<!-- Generated by graphviz version 2.43.0 (0)
 -->
<!-- Title: Catch::contains Pages: 1 -->
<svg width="282pt" height="88pt"
 viewBox="0.00 0.00 282.00 88.00" xmlns="http://www.w3.org/2000/svg" xmlns:xlink="http://www.w3.org/1999/xlink">
<g id="graph0" class="graph" transform="scale(1 1) rotate(0) translate(4 84)">
<title>Catch::contains</title>
<polygon fill="white" stroke="transparent" points="-4,4 -4,-84 278,-84 278,4 -4,4"/>
<!-- Node1 -->
<g id="node1" class="node">
<title>Node1</title>
<g id="a_node1"><a xlink:title=" ">
<polygon fill="#bfbfbf" stroke="black" points="182,-30 182,-49 274,-49 274,-30 182,-30"/>
<text text-anchor="middle" x="228" y="-37" font-family="Helvetica,sans-Serif" font-size="10.00">Catch::contains</text>
</a>
</g>
</g>
<!-- Node2 -->
<g id="node2" class="node">
<title>Node2</title>
<g id="a_node2"><a xlink:href="struct_catch_1_1_matchers_1_1_std_string_1_1_contains_matcher.html#a630628b234b037be83fe587081a80b53" target="_top" xlink:title=" ">
<polygon fill="white" stroke="black" points="0,-49.5 0,-79.5 146,-79.5 146,-49.5 0,-49.5"/>
<text text-anchor="start" x="8" y="-67.5" font-family="Helvetica,sans-Serif" font-size="10.00">Catch::Matchers::StdString</text>
<text text-anchor="middle" x="73" y="-56.5" font-family="Helvetica,sans-Serif" font-size="10.00">::ContainsMatcher::match</text>
</a>
</g>
</g>
<!-- Node1&#45;&gt;Node2 -->
<g id="edge1" class="edge">
<title>Node1&#45;&gt;Node2</title>
<path fill="none" stroke="midnightblue" d="M171.89,-48.5C163.49,-49.88 154.72,-51.31 146.02,-52.73"/>
<polygon fill="midnightblue" stroke="midnightblue" points="172.62,-51.93 181.92,-46.87 171.49,-45.02 172.62,-51.93"/>
</g>
<!-- Node3 -->
<g id="node3" class="node">
<title>Node3</title>
<g id="a_node3"><a xlink:href="class_catch_1_1_wildcard_pattern.html#ae88acde37f50f7cbec8605acf434fe85" target="_top" xlink:title=" ">
<polygon fill="white" stroke="black" points="9,-0.5 9,-30.5 137,-30.5 137,-0.5 9,-0.5"/>
<text text-anchor="start" x="17" y="-18.5" font-family="Helvetica,sans-Serif" font-size="10.00">Catch::WildcardPattern</text>
<text text-anchor="middle" x="73" y="-7.5" font-family="Helvetica,sans-Serif" font-size="10.00">::matches</text>
</a>
</g>
</g>
<!-- Node1&#45;&gt;Node3 -->
<g id="edge2" class="edge">
<title>Node1&#45;&gt;Node3</title>
<path fill="none" stroke="midnightblue" d="M171.82,-30.84C160.58,-29.08 148.67,-27.21 137.18,-25.41"/>
<polygon fill="midnightblue" stroke="midnightblue" points="171.5,-34.34 181.92,-32.43 172.59,-27.42 171.5,-34.34"/>
</g>
</g>
</svg>
