<?xml version="1.0" encoding="UTF-8" standalone="no"?>
<!DOCTYPE svg PUBLIC "-//W3C//DTD SVG 1.1//EN"
 "http://www.w3.org/Graphics/SVG/1.1/DTD/svg11.dtd">
<!-- Generated by graphviz version 2.43.0 (0)
 -->
<!-- Title: Catch::replaceInPlace Pages: 1 -->
<svg width="478pt" height="186pt"
 viewBox="0.00 0.00 478.00 186.00" xmlns="http://www.w3.org/2000/svg" xmlns:xlink="http://www.w3.org/1999/xlink">
<g id="graph0" class="graph" transform="scale(1 1) rotate(0) translate(4 182)">
<title>Catch::replaceInPlace</title>
<polygon fill="white" stroke="transparent" points="-4,4 -4,-182 474,-182 474,4 -4,4"/>
<!-- Node1 -->
<g id="node1" class="node">
<title>Node1</title>
<g id="a_node1"><a xlink:title=" ">
<polygon fill="#bfbfbf" stroke="black" points="348,-57 348,-76 470,-76 470,-57 348,-57"/>
<text text-anchor="middle" x="409" y="-64" font-family="Helvetica,sans-Serif" font-size="10.00">Catch::replaceInPlace</text>
</a>
</g>
</g>
<!-- Node2 -->
<g id="node2" class="node">
<title>Node2</title>
<g id="a_node2"><a xlink:href="struct_catch_1_1_team_city_reporter.html#a53d48a56761e2143718317d28680250b" target="_top" xlink:title=" ">
<polygon fill="white" stroke="black" points="174,-73.5 174,-103.5 312,-103.5 312,-73.5 174,-73.5"/>
<text text-anchor="start" x="182" y="-91.5" font-family="Helvetica,sans-Serif" font-size="10.00">Catch::TeamCityReporter</text>
<text text-anchor="middle" x="243" y="-80.5" font-family="Helvetica,sans-Serif" font-size="10.00">::escape</text>
</a>
</g>
</g>
<!-- Node1&#45;&gt;Node2 -->
<g id="edge1" class="edge">
<title>Node1&#45;&gt;Node2</title>
<path fill="none" stroke="midnightblue" d="M337.94,-75.9C329.4,-77.04 320.68,-78.21 312.17,-79.36"/>
<polygon fill="midnightblue" stroke="midnightblue" points="338.42,-79.37 347.86,-74.57 337.49,-72.43 338.42,-79.37"/>
</g>
<!-- Node7 -->
<g id="node7" class="node">
<title>Node7</title>
<g id="a_node7"><a xlink:href="_string_manip_8tests_8cpp.html#ac9c80fbe6021b5ddf216121f2ebe3f70" target="_top" xlink:title=" ">
<polygon fill="white" stroke="black" points="207.5,-35 207.5,-54 278.5,-54 278.5,-35 207.5,-35"/>
<text text-anchor="middle" x="243" y="-42" font-family="Helvetica,sans-Serif" font-size="10.00">TEST_CASE</text>
</a>
</g>
</g>
<!-- Node1&#45;&gt;Node7 -->
<g id="edge6" class="edge">
<title>Node1&#45;&gt;Node7</title>
<path fill="none" stroke="midnightblue" d="M337.94,-57.1C317.52,-54.36 296.08,-51.49 278.85,-49.18"/>
<polygon fill="midnightblue" stroke="midnightblue" points="337.49,-60.57 347.86,-58.43 338.42,-53.63 337.49,-60.57"/>
</g>
<!-- Node3 -->
<g id="node3" class="node">
<title>Node3</title>
<g id="a_node3"><a xlink:href="struct_catch_1_1_team_city_reporter.html#ab2a5007071e489a4e4c8ee8e84585ef8" target="_top" xlink:title=" ">
<polygon fill="white" stroke="black" points="0,-147.5 0,-177.5 138,-177.5 138,-147.5 0,-147.5"/>
<text text-anchor="start" x="8" y="-165.5" font-family="Helvetica,sans-Serif" font-size="10.00">Catch::TeamCityReporter</text>
<text text-anchor="middle" x="69" y="-154.5" font-family="Helvetica,sans-Serif" font-size="10.00">::testCaseEnded</text>
</a>
</g>
</g>
<!-- Node2&#45;&gt;Node3 -->
<g id="edge2" class="edge">
<title>Node2&#45;&gt;Node3</title>
<path fill="none" stroke="midnightblue" d="M203.66,-108.16C184.22,-117.82 160.1,-129.32 138,-138.5 130.6,-141.57 122.65,-144.61 114.89,-147.44"/>
<polygon fill="midnightblue" stroke="midnightblue" points="205.42,-111.2 212.8,-103.59 202.29,-104.94 205.42,-111.2"/>
</g>
<!-- Node4 -->
<g id="node4" class="node">
<title>Node4</title>
<g id="a_node4"><a xlink:href="struct_catch_1_1_team_city_reporter.html#a512e183512859522d4605fee3ad8e52b" target="_top" xlink:title=" ">
<polygon fill="white" stroke="black" points="0,-98.5 0,-128.5 138,-128.5 138,-98.5 0,-98.5"/>
<text text-anchor="start" x="8" y="-116.5" font-family="Helvetica,sans-Serif" font-size="10.00">Catch::TeamCityReporter</text>
<text text-anchor="middle" x="69" y="-105.5" font-family="Helvetica,sans-Serif" font-size="10.00">::testCaseStarting</text>
</a>
</g>
</g>
<!-- Node2&#45;&gt;Node4 -->
<g id="edge3" class="edge">
<title>Node2&#45;&gt;Node4</title>
<path fill="none" stroke="midnightblue" d="M163.36,-99.93C154.97,-101.15 146.49,-102.38 138.24,-103.58"/>
<polygon fill="midnightblue" stroke="midnightblue" points="164.13,-103.35 173.53,-98.45 163.13,-96.43 164.13,-103.35"/>
</g>
<!-- Node5 -->
<g id="node5" class="node">
<title>Node5</title>
<g id="a_node5"><a xlink:href="struct_catch_1_1_team_city_reporter.html#a1f84a6b49e1b13a3fc5a14b1e351909d" target="_top" xlink:title=" ">
<polygon fill="white" stroke="black" points="0,-49.5 0,-79.5 138,-79.5 138,-49.5 0,-49.5"/>
<text text-anchor="start" x="8" y="-67.5" font-family="Helvetica,sans-Serif" font-size="10.00">Catch::TeamCityReporter</text>
<text text-anchor="middle" x="69" y="-56.5" font-family="Helvetica,sans-Serif" font-size="10.00">::testGroupEnded</text>
</a>
</g>
</g>
<!-- Node2&#45;&gt;Node5 -->
<g id="edge4" class="edge">
<title>Node2&#45;&gt;Node5</title>
<path fill="none" stroke="midnightblue" d="M163.36,-77.53C154.97,-76.36 146.49,-75.17 138.24,-74.02"/>
<polygon fill="midnightblue" stroke="midnightblue" points="163.14,-81.03 173.53,-78.95 164.11,-74.1 163.14,-81.03"/>
</g>
<!-- Node6 -->
<g id="node6" class="node">
<title>Node6</title>
<g id="a_node6"><a xlink:href="struct_catch_1_1_team_city_reporter.html#a6b9db7ad0ac2c39c8b222bffa8eace6c" target="_top" xlink:title=" ">
<polygon fill="white" stroke="black" points="0,-0.5 0,-30.5 138,-30.5 138,-0.5 0,-0.5"/>
<text text-anchor="start" x="8" y="-18.5" font-family="Helvetica,sans-Serif" font-size="10.00">Catch::TeamCityReporter</text>
<text text-anchor="middle" x="69" y="-7.5" font-family="Helvetica,sans-Serif" font-size="10.00">::testGroupStarting</text>
</a>
</g>
</g>
<!-- Node2&#45;&gt;Node6 -->
<g id="edge5" class="edge">
<title>Node2&#45;&gt;Node6</title>
<path fill="none" stroke="midnightblue" d="M187.37,-69.61C182.79,-67.67 178.28,-65.62 174,-63.5 156.99,-55.06 155.01,-48.94 138,-40.5 130.79,-36.92 122.93,-33.57 115.21,-30.56"/>
<polygon fill="midnightblue" stroke="midnightblue" points="186.21,-72.92 196.79,-73.44 188.85,-66.43 186.21,-72.92"/>
</g>
</g>
</svg>
