<?xml version="1.0" encoding="UTF-8" standalone="no"?>
<!DOCTYPE svg PUBLIC "-//W3C//DTD SVG 1.1//EN"
 "http://www.w3.org/Graphics/SVG/1.1/DTD/svg11.dtd">
<!-- Generated by graphviz version 2.43.0 (0)
 -->
<!-- Title: Catch::cleanupSingletons Pages: 1 -->
<svg width="450pt" height="78pt"
 viewBox="0.00 0.00 450.00 77.50" xmlns="http://www.w3.org/2000/svg" xmlns:xlink="http://www.w3.org/1999/xlink">
<g id="graph0" class="graph" transform="scale(1 1) rotate(0) translate(4 73.5)">
<title>Catch::cleanupSingletons</title>
<polygon fill="white" stroke="transparent" points="-4,4 -4,-73.5 446,-73.5 446,4 -4,4"/>
<!-- Node1 -->
<g id="node1" class="node">
<title>Node1</title>
<g id="a_node1"><a xlink:title=" ">
<polygon fill="#bfbfbf" stroke="black" points="302,-22.5 302,-41.5 442,-41.5 442,-22.5 302,-22.5"/>
<text text-anchor="middle" x="372" y="-29.5" font-family="Helvetica,sans-Serif" font-size="10.00">Catch::cleanupSingletons</text>
</a>
</g>
</g>
<!-- Node2 -->
<g id="node2" class="node">
<title>Node2</title>
<g id="a_node2"><a xlink:href="namespace_catch.html#a0f78e9afdebc6d4512d18e76fbf54b8c" target="_top" xlink:title=" ">
<polygon fill="white" stroke="black" points="176,-22.5 176,-41.5 266,-41.5 266,-22.5 176,-22.5"/>
<text text-anchor="middle" x="221" y="-29.5" font-family="Helvetica,sans-Serif" font-size="10.00">Catch::cleanUp</text>
</a>
</g>
</g>
<!-- Node1&#45;&gt;Node2 -->
<g id="edge1" class="edge">
<title>Node1&#45;&gt;Node2</title>
<path fill="none" stroke="midnightblue" d="M291.59,-32C282.96,-32 274.41,-32 266.42,-32"/>
<polygon fill="midnightblue" stroke="midnightblue" points="291.73,-35.5 301.73,-32 291.73,-28.5 291.73,-35.5"/>
</g>
<!-- Node3 -->
<g id="node3" class="node">
<title>Node3</title>
<g id="a_node3"><a xlink:href="struct_catch_1_1_leak_detector.html#af9848cb5a17e799361aaf9722daa54be" target="_top" xlink:title=" ">
<polygon fill="white" stroke="black" points="12,-39 12,-69 128,-69 128,-39 12,-39"/>
<text text-anchor="start" x="20" y="-57" font-family="Helvetica,sans-Serif" font-size="10.00">Catch::LeakDetector</text>
<text text-anchor="middle" x="70" y="-46" font-family="Helvetica,sans-Serif" font-size="10.00">::~LeakDetector</text>
</a>
</g>
</g>
<!-- Node2&#45;&gt;Node3 -->
<g id="edge2" class="edge">
<title>Node2&#45;&gt;Node3</title>
<path fill="none" stroke="midnightblue" d="M165.66,-40.02C153.44,-41.83 140.45,-43.75 128.13,-45.57"/>
<polygon fill="midnightblue" stroke="midnightblue" points="166.32,-43.46 175.7,-38.54 165.29,-36.54 166.32,-43.46"/>
</g>
<!-- Node4 -->
<g id="node4" class="node">
<title>Node4</title>
<g id="a_node4"><a xlink:href="class_catch_1_1_session.html#a4870e67e56335ed29a53a1d98d768fbc" target="_top" xlink:title=" ">
<polygon fill="white" stroke="black" points="0,-0.5 0,-19.5 140,-19.5 140,-0.5 0,-0.5"/>
<text text-anchor="middle" x="70" y="-7.5" font-family="Helvetica,sans-Serif" font-size="10.00">Catch::Session::~Session</text>
</a>
</g>
</g>
<!-- Node2&#45;&gt;Node4 -->
<g id="edge3" class="edge">
<title>Node2&#45;&gt;Node4</title>
<path fill="none" stroke="midnightblue" d="M165.7,-23.98C155.9,-22.54 145.59,-21.01 135.54,-19.53"/>
<polygon fill="midnightblue" stroke="midnightblue" points="165.29,-27.46 175.7,-25.46 166.32,-20.54 165.29,-27.46"/>
</g>
</g>
</svg>
