<?xml version="1.0" encoding="UTF-8" standalone="no"?>
<!DOCTYPE svg PUBLIC "-//W3C//DTD SVG 1.1//EN"
 "http://www.w3.org/Graphics/SVG/1.1/DTD/svg11.dtd">
<!-- Generated by graphviz version 2.43.0 (0)
 -->
<!-- Title: Catch::getResultCapture Pages: 1 -->
<svg width="497pt" height="39pt"
 viewBox="0.00 0.00 497.00 39.00" xmlns="http://www.w3.org/2000/svg" xmlns:xlink="http://www.w3.org/1999/xlink">
<g id="graph0" class="graph" transform="scale(1 1) rotate(0) translate(4 35)">
<title>Catch::getResultCapture</title>
<polygon fill="white" stroke="transparent" points="-4,4 -4,-35 493,-35 493,4 -4,4"/>
<!-- Node1 -->
<g id="node1" class="node">
<title>Node1</title>
<g id="a_node1"><a xlink:title=" ">
<polygon fill="#bfbfbf" stroke="black" points="0,-6 0,-25 135,-25 135,-6 0,-6"/>
<text text-anchor="middle" x="67.5" y="-13" font-family="Helvetica,sans-Serif" font-size="10.00">Catch::getResultCapture</text>
</a>
</g>
</g>
<!-- Node2 -->
<g id="node2" class="node">
<title>Node2</title>
<g id="a_node2"><a xlink:href="namespace_catch.html#a228a625318bb6183842e394eeba17d50" target="_top" xlink:title=" ">
<polygon fill="white" stroke="black" points="171,-6 171,-25 311,-25 311,-6 171,-6"/>
<text text-anchor="middle" x="241" y="-13" font-family="Helvetica,sans-Serif" font-size="10.00">Catch::getCurrentContext</text>
</a>
</g>
</g>
<!-- Node1&#45;&gt;Node2 -->
<g id="edge1" class="edge">
<title>Node1&#45;&gt;Node2</title>
<path fill="none" stroke="midnightblue" d="M135.3,-15.5C143.59,-15.5 152.13,-15.5 160.59,-15.5"/>
<polygon fill="midnightblue" stroke="midnightblue" points="160.84,-19 170.84,-15.5 160.84,-12 160.84,-19"/>
</g>
<!-- Node3 -->
<g id="node3" class="node">
<title>Node3</title>
<g id="a_node3"><a xlink:href="namespace_catch.html#a710841d4732b86c06f816bd4822bd425" target="_top" xlink:title=" ">
<polygon fill="white" stroke="black" points="347,-0.5 347,-30.5 489,-30.5 489,-0.5 347,-0.5"/>
<text text-anchor="start" x="355" y="-18.5" font-family="Helvetica,sans-Serif" font-size="10.00">Catch::getCurrentMutable</text>
<text text-anchor="middle" x="418" y="-7.5" font-family="Helvetica,sans-Serif" font-size="10.00">Context</text>
</a>
</g>
</g>
<!-- Node2&#45;&gt;Node3 -->
<g id="edge2" class="edge">
<title>Node2&#45;&gt;Node3</title>
<path fill="none" stroke="midnightblue" d="M311.16,-15.5C319.61,-15.5 328.3,-15.5 336.88,-15.5"/>
<polygon fill="midnightblue" stroke="midnightblue" points="336.9,-19 346.9,-15.5 336.9,-12 336.9,-19"/>
</g>
</g>
</svg>
