<?xml version="1.0" encoding="UTF-8" standalone="no"?>
<!DOCTYPE svg PUBLIC "-//W3C//DTD SVG 1.1//EN"
 "http://www.w3.org/Graphics/SVG/1.1/DTD/svg11.dtd">
<!-- Generated by graphviz version 2.43.0 (0)
 -->
<!-- Title: Catch::splitStringRef Pages: 1 -->
<svg width="608pt" height="85pt"
 viewBox="0.00 0.00 608.00 85.00" xmlns="http://www.w3.org/2000/svg" xmlns:xlink="http://www.w3.org/1999/xlink">
<g id="graph0" class="graph" transform="scale(1 1) rotate(0) translate(4 81)">
<title>Catch::splitStringRef</title>
<polygon fill="white" stroke="transparent" points="-4,4 -4,-81 604,-81 604,4 -4,4"/>
<!-- Node1 -->
<g id="node1" class="node">
<title>Node1</title>
<g id="a_node1"><a xlink:title=" ">
<polygon fill="#bfbfbf" stroke="black" points="484,-19.5 484,-38.5 600,-38.5 600,-19.5 484,-19.5"/>
<text text-anchor="middle" x="542" y="-26.5" font-family="Helvetica,sans-Serif" font-size="10.00">Catch::splitStringRef</text>
</a>
</g>
</g>
<!-- Node2 -->
<g id="node2" class="node">
<title>Node2</title>
<g id="a_node2"><a xlink:href="namespace_catch_1_1_detail.html#a4e0e09e87f561af2d3a881b209a9a481" target="_top" xlink:title=" ">
<polygon fill="white" stroke="black" points="302,-38.5 302,-57.5 448,-57.5 448,-38.5 302,-38.5"/>
<text text-anchor="middle" x="375" y="-45.5" font-family="Helvetica,sans-Serif" font-size="10.00">Catch::Detail::parseEnums</text>
</a>
</g>
</g>
<!-- Node1&#45;&gt;Node2 -->
<g id="edge1" class="edge">
<title>Node1&#45;&gt;Node2</title>
<path fill="none" stroke="midnightblue" d="M473.67,-36.75C465.3,-37.72 456.71,-38.71 448.26,-39.68"/>
<polygon fill="midnightblue" stroke="midnightblue" points="474.22,-40.21 483.75,-35.59 473.42,-33.26 474.22,-40.21"/>
</g>
<!-- Node6 -->
<g id="node6" class="node">
<title>Node6</title>
<g id="a_node6"><a xlink:href="_string_manip_8tests_8cpp.html#a82846f4e716550356606acbd0a38dfa4" target="_top" xlink:title=" ">
<polygon fill="white" stroke="black" points="339.5,-0.5 339.5,-19.5 410.5,-19.5 410.5,-0.5 339.5,-0.5"/>
<text text-anchor="middle" x="375" y="-7.5" font-family="Helvetica,sans-Serif" font-size="10.00">TEST_CASE</text>
</a>
</g>
</g>
<!-- Node1&#45;&gt;Node6 -->
<g id="edge5" class="edge">
<title>Node1&#45;&gt;Node6</title>
<path fill="none" stroke="midnightblue" d="M473.59,-21.24C451.93,-18.74 428.83,-16.08 410.54,-13.98"/>
<polygon fill="midnightblue" stroke="midnightblue" points="473.42,-24.74 483.75,-22.41 474.22,-17.79 473.42,-24.74"/>
</g>
<!-- Node3 -->
<g id="node3" class="node">
<title>Node3</title>
<g id="a_node3"><a xlink:href="namespace_catch_1_1_detail.html#a4acecf5ffe0667c5c3f7723843d518ac" target="_top" xlink:title=" ">
<polygon fill="white" stroke="black" points="107,-57.5 107,-76.5 266,-76.5 266,-57.5 107,-57.5"/>
<text text-anchor="middle" x="186.5" y="-64.5" font-family="Helvetica,sans-Serif" font-size="10.00">Catch::Detail::makeEnumInfo</text>
</a>
</g>
</g>
<!-- Node2&#45;&gt;Node3 -->
<g id="edge2" class="edge">
<title>Node2&#45;&gt;Node3</title>
<path fill="none" stroke="midnightblue" d="M291.94,-56.36C283.4,-57.23 274.73,-58.11 266.22,-58.98"/>
<polygon fill="midnightblue" stroke="midnightblue" points="292.3,-59.84 301.89,-55.35 291.59,-52.88 292.3,-59.84"/>
</g>
<!-- Node5 -->
<g id="node5" class="node">
<title>Node5</title>
<g id="a_node5"><a xlink:href="_to_string_8tests_8cpp.html#a3143c1dbaba63b9e9b158940ff464b50" target="_top" xlink:title=" ">
<polygon fill="white" stroke="black" points="151,-19.5 151,-38.5 222,-38.5 222,-19.5 151,-19.5"/>
<text text-anchor="middle" x="186.5" y="-26.5" font-family="Helvetica,sans-Serif" font-size="10.00">TEST_CASE</text>
</a>
</g>
</g>
<!-- Node2&#45;&gt;Node5 -->
<g id="edge4" class="edge">
<title>Node2&#45;&gt;Node5</title>
<path fill="none" stroke="midnightblue" d="M291.86,-39.63C267.39,-37.14 241.88,-34.54 222.21,-32.54"/>
<polygon fill="midnightblue" stroke="midnightblue" points="291.59,-43.12 301.89,-40.65 292.3,-36.16 291.59,-43.12"/>
</g>
<!-- Node4 -->
<g id="node4" class="node">
<title>Node4</title>
<g id="a_node4"><a xlink:href="_to_string_8tests_8cpp.html#ad1f3e4ee7465238349cb915d5d3e7a59" target="_top" xlink:title=" ">
<polygon fill="white" stroke="black" points="0,-57.5 0,-76.5 71,-76.5 71,-57.5 0,-57.5"/>
<text text-anchor="middle" x="35.5" y="-64.5" font-family="Helvetica,sans-Serif" font-size="10.00">TEST_CASE</text>
</a>
</g>
</g>
<!-- Node3&#45;&gt;Node4 -->
<g id="edge3" class="edge">
<title>Node3&#45;&gt;Node4</title>
<path fill="none" stroke="midnightblue" d="M96.51,-67C87.62,-67 79.02,-67 71.24,-67"/>
<polygon fill="midnightblue" stroke="midnightblue" points="96.64,-70.5 106.64,-67 96.64,-63.5 96.64,-70.5"/>
</g>
</g>
</svg>
