<?xml version="1.0" encoding="UTF-8" standalone="no"?>
<!DOCTYPE svg PUBLIC "-//W3C//DTD SVG 1.1//EN"
 "http://www.w3.org/Graphics/SVG/1.1/DTD/svg11.dtd">
<!-- Generated by graphviz version 2.43.0 (0)
 -->
<!-- Title: benchmarkCompile.benchmark Pages: 1 -->
<svg width="658pt" height="138pt"
 viewBox="0.00 0.00 658.00 137.50" xmlns="http://www.w3.org/2000/svg" xmlns:xlink="http://www.w3.org/1999/xlink">
<g id="graph0" class="graph" transform="scale(1 1) rotate(0) translate(4 133.5)">
<title>benchmarkCompile.benchmark</title>
<polygon fill="white" stroke="transparent" points="-4,4 -4,-133.5 654,-133.5 654,4 -4,4"/>
<!-- Node1 -->
<g id="node1" class="node">
<title>Node1</title>
<g id="a_node1"><a xlink:title=" ">
<polygon fill="#bfbfbf" stroke="black" points="0,-72 0,-91 170,-91 170,-72 0,-72"/>
<text text-anchor="middle" x="85" y="-79" font-family="Helvetica,sans-Serif" font-size="10.00">benchmarkCompile.benchmark</text>
</a>
</g>
</g>
<!-- Node2 -->
<g id="node2" class="node">
<title>Node2</title>
<g id="a_node2"><a xlink:href="namespacebenchmark_compile.html#ae72e209652952c0309c2440a7a1cb52f" target="_top" xlink:title=" ">
<polygon fill="white" stroke="black" points="210.5,-110 210.5,-129 353.5,-129 353.5,-110 210.5,-110"/>
<text text-anchor="middle" x="282" y="-117" font-family="Helvetica,sans-Serif" font-size="10.00">benchmarkCompile.mean</text>
</a>
</g>
</g>
<!-- Node1&#45;&gt;Node2 -->
<g id="edge1" class="edge">
<title>Node1&#45;&gt;Node2</title>
<path fill="none" stroke="midnightblue" d="M134.96,-91.04C161.38,-96.19 194.19,-102.58 222.02,-108.01"/>
<polygon fill="midnightblue" stroke="midnightblue" points="221.54,-111.48 232.02,-109.96 222.88,-104.61 221.54,-111.48"/>
</g>
<!-- Node3 -->
<g id="node3" class="node">
<title>Node3</title>
<g id="a_node3"><a xlink:href="namespacebenchmark_compile.html#a796cd23290b86ce798b7ef1156a01c17" target="_top" xlink:title=" ">
<polygon fill="white" stroke="black" points="206,-72 206,-91 358,-91 358,-72 206,-72"/>
<text text-anchor="middle" x="282" y="-79" font-family="Helvetica,sans-Serif" font-size="10.00">benchmarkCompile.median</text>
</a>
</g>
</g>
<!-- Node1&#45;&gt;Node3 -->
<g id="edge2" class="edge">
<title>Node1&#45;&gt;Node3</title>
<path fill="none" stroke="midnightblue" d="M170.11,-81.5C178.54,-81.5 187.1,-81.5 195.54,-81.5"/>
<polygon fill="midnightblue" stroke="midnightblue" points="195.76,-85 205.76,-81.5 195.76,-78 195.76,-85"/>
</g>
<!-- Node4 -->
<g id="node4" class="node">
<title>Node4</title>
<g id="a_node4"><a xlink:href="namespace_catch_1_1_generators.html#a6e53e65dfedc4d39febcb7b2b862afd9" target="_top" xlink:title=" ">
<polygon fill="white" stroke="black" points="227,-22.5 227,-52.5 337,-52.5 337,-22.5 227,-22.5"/>
<text text-anchor="start" x="235" y="-40.5" font-family="Helvetica,sans-Serif" font-size="10.00">Catch::Generators::</text>
<text text-anchor="middle" x="282" y="-29.5" font-family="Helvetica,sans-Serif" font-size="10.00">range</text>
</a>
</g>
</g>
<!-- Node1&#45;&gt;Node4 -->
<g id="edge3" class="edge">
<title>Node1&#45;&gt;Node4</title>
<path fill="none" stroke="midnightblue" d="M128.31,-71.95C154.16,-66.12 187.73,-58.54 216.81,-51.98"/>
<polygon fill="midnightblue" stroke="midnightblue" points="217.9,-55.33 226.89,-49.71 216.36,-48.5 217.9,-55.33"/>
</g>
<!-- Node5 -->
<g id="node5" class="node">
<title>Node5</title>
<g id="a_node5"><a xlink:href="namespace_catch_1_1_generators_1_1pf.html#a015e8fcef2972da878a07023e40d46d8" target="_top" xlink:title=" ">
<polygon fill="white" stroke="black" points="540,-22.5 540,-52.5 650,-52.5 650,-22.5 540,-22.5"/>
<text text-anchor="start" x="548" y="-40.5" font-family="Helvetica,sans-Serif" font-size="10.00">Catch::Generators::</text>
<text text-anchor="middle" x="595" y="-29.5" font-family="Helvetica,sans-Serif" font-size="10.00">pf::make_unique</text>
</a>
</g>
</g>
<!-- Node4&#45;&gt;Node5 -->
<g id="edge4" class="edge">
<title>Node4&#45;&gt;Node5</title>
<path fill="none" stroke="midnightblue" d="M337.19,-39.26C355.26,-39.77 375.49,-40.25 394,-40.5 442.88,-41.16 455.12,-41.31 504,-40.5 512.31,-40.36 521.06,-40.15 529.7,-39.9"/>
<polygon fill="midnightblue" stroke="midnightblue" points="529.86,-43.4 539.75,-39.6 529.65,-36.4 529.86,-43.4"/>
</g>
<!-- Node6 -->
<g id="node6" class="node">
<title>Node6</title>
<g id="a_node6"><a xlink:href="namespace_catch_1_1_generators.html#a3b2efc97978cf37951b75394aae1a3fb" target="_top" xlink:title=" ">
<polygon fill="white" stroke="black" points="394,-0.5 394,-30.5 504,-30.5 504,-0.5 394,-0.5"/>
<text text-anchor="start" x="402" y="-18.5" font-family="Helvetica,sans-Serif" font-size="10.00">Catch::Generators::</text>
<text text-anchor="middle" x="449" y="-7.5" font-family="Helvetica,sans-Serif" font-size="10.00">value</text>
</a>
</g>
</g>
<!-- Node4&#45;&gt;Node6 -->
<g id="edge5" class="edge">
<title>Node4&#45;&gt;Node6</title>
<path fill="none" stroke="midnightblue" d="M337.03,-30.3C351.98,-28.3 368.36,-26.12 383.84,-24.05"/>
<polygon fill="midnightblue" stroke="midnightblue" points="384.4,-27.51 393.85,-22.72 383.48,-20.57 384.4,-27.51"/>
</g>
<!-- Node6&#45;&gt;Node5 -->
<g id="edge6" class="edge">
<title>Node6&#45;&gt;Node5</title>
<path fill="none" stroke="midnightblue" d="M504.03,-23.75C512.4,-25.03 521.13,-26.37 529.7,-27.68"/>
<polygon fill="midnightblue" stroke="midnightblue" points="529.25,-31.15 539.67,-29.2 530.31,-24.23 529.25,-31.15"/>
</g>
</g>
</svg>
