<?xml version="1.0" encoding="UTF-8" standalone="no"?>
<!DOCTYPE svg PUBLIC "-//W3C//DTD SVG 1.1//EN"
 "http://www.w3.org/Graphics/SVG/1.1/DTD/svg11.dtd">
<!-- Generated by graphviz version 2.43.0 (0)
 -->
<!-- Title: language/parser.h Pages: 1 -->
<!--zoomable 308 -->
<svg id="main" version="1.1" xmlns="http://www.w3.org/2000/svg" xmlns:xlink="http://www.w3.org/1999/xlink" xml:space="preserve" onload="init(evt)">
<style type="text/css"><![CDATA[
.edge:hover path { stroke: red; }
.edge:hover polygon { stroke: red; fill: red; }
]]></style>
<script type="text/javascript"><![CDATA[
var edges = document.getElementsByTagName('g');
if (edges && edges.length) {
  for (var i=0;i<edges.length;i++) {
    if (edges[i].id.substr(0,4)=='edge') {
      edges[i].setAttribute('class','edge');
    }
  }
}
]]></script>
        <defs>
                <circle id="rim" cx="0" cy="0" r="7"/>
                <circle id="rim2" cx="0" cy="0" r="3.5"/>
                <g id="zoomPlus">
                        <use xlink:href="#rim" fill="#404040">
                                <set attributeName="fill" to="#808080" begin="zoomplus.mouseover" end="zoomplus.mouseout"/>
                        </use>
                        <path d="M-4,0h8M0,-4v8" fill="none" stroke="white" stroke-width="1.5" pointer-events="none"/>
                </g>
                <g id="zoomMin">
                        <use xlink:href="#rim" fill="#404040">
                                <set attributeName="fill" to="#808080" begin="zoomminus.mouseover" end="zoomminus.mouseout"/>
                        </use>
                        <path d="M-4,0h8" fill="none" stroke="white" stroke-width="1.5" pointer-events="none"/>
                </g>
                <g id="dirArrow">
                        <path fill="none" stroke="white" stroke-width="1.5" d="M0,-3.0v7 M-2.5,-0.5L0,-3.0L2.5,-0.5"/>
                </g>
               <g id="resetDef">
                       <use xlink:href="#rim2" fill="#404040">
                               <set attributeName="fill" to="#808080" begin="reset.mouseover" end="reset.mouseout"/>
                       </use>
               </g>
        </defs>

<script type="text/javascript">
var viewWidth = 955;
var viewHeight = 308;
var sectionId = 'dynsection-0';
</script>
<script xlink:href="svgpan.js"/>
<svg id="graph" class="graph">
<g id="viewport">
<title>language/parser.h</title>
<polygon fill="white" stroke="transparent" points="-4,4 -4,-304 950.99,-304 950.99,4 -4,4"/>
<!-- Node1 -->
<g id="node1" class="node">
<title>Node1</title>
<g id="a_node1"><a xlink:title=" ">
<polygon fill="#bfbfbf" stroke="black" points="338.99,-280.5 338.99,-299.5 442.99,-299.5 442.99,-280.5 338.99,-280.5"/>
<text text-anchor="middle" x="390.99" y="-287.5" font-family="Helvetica,sans-Serif" font-size="10.00">language/parser.h</text>
</a>
</g>
</g>
<!-- Node2 -->
<g id="node2" class="node">
<title>Node2</title>
<g id="a_node2"><a xlink:title=" ">
<polygon fill="white" stroke="#bfbfbf" points="532.99,-112.5 532.99,-131.5 584.99,-131.5 584.99,-112.5 532.99,-112.5"/>
<text text-anchor="middle" x="558.99" y="-119.5" font-family="Helvetica,sans-Serif" font-size="10.00">cassert</text>
</a>
</g>
</g>
<!-- Node1&#45;&gt;Node2 -->
<g id="edge1" class="edge">
<title>Node1&#45;&gt;Node2</title>
<path fill="none" stroke="midnightblue" d="M416.44,-280.49C435.76,-273.1 462.13,-260.91 480.99,-244 514.35,-214.09 539.24,-166.72 551.16,-141.02"/>
<polygon fill="midnightblue" stroke="midnightblue" points="554.43,-142.29 555.34,-131.74 548.05,-139.42 554.43,-142.29"/>
</g>
<!-- Node3 -->
<g id="node3" class="node">
<title>Node3</title>
<g id="a_node3"><a xlink:title=" ">
<polygon fill="white" stroke="#bfbfbf" points="29.49,-224.5 29.49,-243.5 78.49,-243.5 78.49,-224.5 29.49,-224.5"/>
<text text-anchor="middle" x="53.99" y="-231.5" font-family="Helvetica,sans-Serif" font-size="10.00">cctype</text>
</a>
</g>
</g>
<!-- Node1&#45;&gt;Node3 -->
<g id="edge2" class="edge">
<title>Node1&#45;&gt;Node3</title>
<path fill="none" stroke="midnightblue" d="M338.75,-283.19C279.99,-276.23 181.6,-263.28 88.63,-244.16"/>
<polygon fill="midnightblue" stroke="midnightblue" points="89.28,-240.72 78.78,-242.1 87.85,-247.57 89.28,-240.72"/>
</g>
<!-- Node4 -->
<g id="node4" class="node">
<title>Node4</title>
<g id="a_node4"><a xlink:title=" ">
<polygon fill="white" stroke="#bfbfbf" points="96.49,-224.5 96.49,-243.5 143.49,-243.5 143.49,-224.5 96.49,-224.5"/>
<text text-anchor="middle" x="119.99" y="-231.5" font-family="Helvetica,sans-Serif" font-size="10.00">cmath</text>
</a>
</g>
</g>
<!-- Node1&#45;&gt;Node4 -->
<g id="edge3" class="edge">
<title>Node1&#45;&gt;Node4</title>
<path fill="none" stroke="midnightblue" d="M339.21,-280.43C293,-272.51 223.31,-259.89 153.56,-243.98"/>
<polygon fill="midnightblue" stroke="midnightblue" points="154.25,-240.55 143.72,-241.72 152.68,-247.37 154.25,-240.55"/>
</g>
<!-- Node5 -->
<g id="node5" class="node">
<title>Node5</title>
<g id="a_node5"><a xlink:title=" ">
<polygon fill="white" stroke="#bfbfbf" points="161.99,-224.5 161.99,-243.5 211.99,-243.5 211.99,-224.5 161.99,-224.5"/>
<text text-anchor="middle" x="186.99" y="-231.5" font-family="Helvetica,sans-Serif" font-size="10.00">cstring</text>
</a>
</g>
</g>
<!-- Node1&#45;&gt;Node5 -->
<g id="edge4" class="edge">
<title>Node1&#45;&gt;Node5</title>
<path fill="none" stroke="midnightblue" d="M358.66,-280.44C321.33,-270.56 260.14,-254.36 221.79,-244.21"/>
<polygon fill="midnightblue" stroke="midnightblue" points="222.65,-240.82 212.09,-241.64 220.86,-247.59 222.65,-240.82"/>
</g>
<!-- Node6 -->
<g id="node6" class="node">
<title>Node6</title>
<g id="a_node6"><a xlink:title=" ">
<polygon fill="white" stroke="#bfbfbf" points="858.99,-112.5 858.99,-131.5 918.99,-131.5 918.99,-112.5 858.99,-112.5"/>
<text text-anchor="middle" x="888.99" y="-119.5" font-family="Helvetica,sans-Serif" font-size="10.00">iostream</text>
</a>
</g>
</g>
<!-- Node1&#45;&gt;Node6 -->
<g id="edge5" class="edge">
<title>Node1&#45;&gt;Node6</title>
<path fill="none" stroke="midnightblue" d="M438.6,-280.49C479.28,-272.68 539.12,-259.93 589.99,-244 692.66,-211.85 809.62,-159.81 861.6,-135.84"/>
<polygon fill="midnightblue" stroke="midnightblue" points="863.22,-138.95 870.82,-131.57 860.28,-132.59 863.22,-138.95"/>
</g>
<!-- Node7 -->
<g id="node7" class="node">
<title>Node7</title>
<g id="a_node7"><a xlink:title=" ">
<polygon fill="white" stroke="#bfbfbf" points="291.49,-224.5 291.49,-243.5 344.49,-243.5 344.49,-224.5 291.49,-224.5"/>
<text text-anchor="middle" x="317.99" y="-231.5" font-family="Helvetica,sans-Serif" font-size="10.00">iterator</text>
</a>
</g>
</g>
<!-- Node1&#45;&gt;Node7 -->
<g id="edge6" class="edge">
<title>Node1&#45;&gt;Node7</title>
<path fill="none" stroke="midnightblue" d="M379.26,-280.32C368.15,-272.11 351.25,-259.6 338,-249.81"/>
<polygon fill="midnightblue" stroke="midnightblue" points="340.05,-246.97 329.93,-243.83 335.89,-252.59 340.05,-246.97"/>
</g>
<!-- Node8 -->
<g id="node8" class="node">
<title>Node8</title>
<g id="a_node8"><a xlink:title=" ">
<polygon fill="white" stroke="#bfbfbf" points="362.49,-224.5 362.49,-243.5 419.49,-243.5 419.49,-224.5 362.49,-224.5"/>
<text text-anchor="middle" x="390.99" y="-231.5" font-family="Helvetica,sans-Serif" font-size="10.00">ostream</text>
</a>
</g>
</g>
<!-- Node1&#45;&gt;Node8 -->
<g id="edge7" class="edge">
<title>Node1&#45;&gt;Node8</title>
<path fill="none" stroke="midnightblue" d="M390.99,-280.08C390.99,-273.01 390.99,-262.86 390.99,-253.99"/>
<polygon fill="midnightblue" stroke="midnightblue" points="394.49,-253.75 390.99,-243.75 387.49,-253.75 394.49,-253.75"/>
</g>
<!-- Node9 -->
<g id="node9" class="node">
<title>Node9</title>
<g id="a_node9"><a xlink:title=" ">
<polygon fill="white" stroke="#bfbfbf" points="597.99,-0.5 597.99,-19.5 641.99,-19.5 641.99,-0.5 597.99,-0.5"/>
<text text-anchor="middle" x="619.99" y="-7.5" font-family="Helvetica,sans-Serif" font-size="10.00">string</text>
</a>
</g>
</g>
<!-- Node1&#45;&gt;Node9 -->
<g id="edge8" class="edge">
<title>Node1&#45;&gt;Node9</title>
<path fill="none" stroke="midnightblue" d="M443.29,-289.64C581.7,-289.95 946.99,-281.09 946.99,-179 946.99,-179 946.99,-179 946.99,-121 946.99,-59.24 734.81,-25.6 652.28,-14.86"/>
<polygon fill="midnightblue" stroke="midnightblue" points="652.57,-11.36 642.21,-13.57 651.69,-18.31 652.57,-11.36"/>
</g>
<!-- Node10 -->
<g id="node10" class="node">
<title>Node10</title>
<g id="a_node10"><a xlink:title=" ">
<polygon fill="white" stroke="#bfbfbf" points="469.49,-112.5 469.49,-131.5 514.49,-131.5 514.49,-112.5 469.49,-112.5"/>
<text text-anchor="middle" x="491.99" y="-119.5" font-family="Helvetica,sans-Serif" font-size="10.00">utility</text>
</a>
</g>
</g>
<!-- Node1&#45;&gt;Node10 -->
<g id="edge9" class="edge">
<title>Node1&#45;&gt;Node10</title>
<path fill="none" stroke="midnightblue" d="M412.81,-280.49C428.77,-273.16 449.7,-261.05 461.99,-244 484.37,-212.94 490.15,-167.02 491.58,-141.62"/>
<polygon fill="midnightblue" stroke="midnightblue" points="495.08,-141.64 491.97,-131.52 488.08,-141.37 495.08,-141.64"/>
</g>
<!-- Node11 -->
<g id="node11" class="node">
<title>Node11</title>
<g id="a_node11"><a xlink:href="_i_statment_8h.html" target="_top" xlink:title=" ">
<polygon fill="white" stroke="black" points="255.99,-56.5 255.99,-75.5 329.99,-75.5 329.99,-56.5 255.99,-56.5"/>
<text text-anchor="middle" x="292.99" y="-63.5" font-family="Helvetica,sans-Serif" font-size="10.00">IStatment.h</text>
</a>
</g>
</g>
<!-- Node1&#45;&gt;Node11 -->
<g id="edge10" class="edge">
<title>Node1&#45;&gt;Node11</title>
<path fill="none" stroke="midnightblue" d="M402.48,-280.4C417.92,-267.78 441.98,-243.62 428.99,-224 406.33,-189.8 372.97,-217.04 343.99,-188 315.23,-159.19 301.77,-111.7 296.27,-85.6"/>
<polygon fill="midnightblue" stroke="midnightblue" points="299.66,-84.71 294.32,-75.56 292.79,-86.04 299.66,-84.71"/>
</g>
<!-- Node13 -->
<g id="node13" class="node">
<title>Node13</title>
<g id="a_node13"><a xlink:href="_i_value_8h.html" target="_top" xlink:title=" ">
<polygon fill="white" stroke="black" points="70.99,-0.5 70.99,-19.5 126.99,-19.5 126.99,-0.5 70.99,-0.5"/>
<text text-anchor="middle" x="98.99" y="-7.5" font-family="Helvetica,sans-Serif" font-size="10.00">IValue.h</text>
</a>
</g>
</g>
<!-- Node1&#45;&gt;Node13 -->
<g id="edge14" class="edge">
<title>Node1&#45;&gt;Node13</title>
<path fill="none" stroke="midnightblue" d="M338.74,-289.52C248.11,-289.33 66.93,-283.82 19.99,-244 -2.96,-224.53 0.99,-209.1 0.99,-179 0.99,-179 0.99,-179 0.99,-121 0.99,-77.38 44.48,-43.06 73.52,-25.01"/>
<polygon fill="midnightblue" stroke="midnightblue" points="75.57,-27.86 82.36,-19.73 71.98,-21.85 75.57,-27.86"/>
</g>
<!-- Node14 -->
<g id="node14" class="node">
<title>Node14</title>
<g id="a_node14"><a xlink:href="env_8h.html" target="_top" xlink:title=" ">
<polygon fill="white" stroke="black" points="230.49,-224.5 230.49,-243.5 273.49,-243.5 273.49,-224.5 230.49,-224.5"/>
<text text-anchor="middle" x="251.99" y="-231.5" font-family="Helvetica,sans-Serif" font-size="10.00">env.h</text>
</a>
</g>
</g>
<!-- Node1&#45;&gt;Node14 -->
<g id="edge15" class="edge">
<title>Node1&#45;&gt;Node14</title>
<path fill="none" stroke="midnightblue" d="M368.96,-280.44C345.88,-271.48 309.43,-257.31 283.35,-247.18"/>
<polygon fill="midnightblue" stroke="midnightblue" points="284.5,-243.88 273.91,-243.52 281.96,-250.4 284.5,-243.88"/>
</g>
<!-- Node20 -->
<g id="node20" class="node">
<title>Node20</title>
<g id="a_node20"><a xlink:href="utils_8h.html" target="_top" xlink:title=" ">
<polygon fill="white" stroke="black" points="627.49,-168.5 627.49,-187.5 674.49,-187.5 674.49,-168.5 627.49,-168.5"/>
<text text-anchor="middle" x="650.99" y="-175.5" font-family="Helvetica,sans-Serif" font-size="10.00">utils.h</text>
</a>
</g>
</g>
<!-- Node1&#45;&gt;Node20 -->
<g id="edge30" class="edge">
<title>Node1&#45;&gt;Node20</title>
<path fill="none" stroke="midnightblue" d="M440.74,-280.48C475.06,-273.47 521.12,-261.75 558.99,-244 587.14,-230.8 615.81,-208.93 633.49,-194.24"/>
<polygon fill="midnightblue" stroke="midnightblue" points="635.87,-196.82 641.24,-187.68 631.35,-191.47 635.87,-196.82"/>
</g>
<!-- Node11&#45;&gt;Node9 -->
<g id="edge12" class="edge">
<title>Node11&#45;&gt;Node9</title>
<path fill="none" stroke="midnightblue" d="M330.12,-57.62C333.12,-57.06 336.1,-56.51 338.99,-56 428.87,-40.02 535.39,-23.66 587.7,-15.8"/>
<polygon fill="midnightblue" stroke="midnightblue" points="588.35,-19.24 597.72,-14.3 587.31,-12.32 588.35,-19.24"/>
</g>
<!-- Node12 -->
<g id="node12" class="node">
<title>Node12</title>
<g id="a_node12"><a xlink:title=" ">
<polygon fill="white" stroke="#bfbfbf" points="337.99,-0.5 337.99,-19.5 393.99,-19.5 393.99,-0.5 337.99,-0.5"/>
<text text-anchor="middle" x="365.99" y="-7.5" font-family="Helvetica,sans-Serif" font-size="10.00">optional</text>
</a>
</g>
</g>
<!-- Node11&#45;&gt;Node12 -->
<g id="edge11" class="edge">
<title>Node11&#45;&gt;Node12</title>
<path fill="none" stroke="midnightblue" d="M304.72,-56.32C315.83,-48.11 332.73,-35.6 345.97,-25.81"/>
<polygon fill="midnightblue" stroke="midnightblue" points="348.09,-28.59 354.05,-19.83 343.92,-22.97 348.09,-28.59"/>
</g>
<!-- Node11&#45;&gt;Node13 -->
<g id="edge13" class="edge">
<title>Node11&#45;&gt;Node13</title>
<path fill="none" stroke="midnightblue" d="M262.25,-56.44C228.26,-46.98 173.49,-31.74 136.88,-21.55"/>
<polygon fill="midnightblue" stroke="midnightblue" points="137.64,-18.12 127.06,-18.82 135.76,-24.87 137.64,-18.12"/>
</g>
<!-- Node14&#45;&gt;Node9 -->
<g id="edge17" class="edge">
<title>Node14&#45;&gt;Node9</title>
<path fill="none" stroke="midnightblue" d="M273.58,-226.38C276.4,-225.56 279.26,-224.74 281.99,-224 346.46,-206.39 376.93,-231.13 427.99,-188 456.12,-164.24 434.05,-137.11 460.99,-112 496.16,-79.22 523.18,-102.95 562.99,-76 581.75,-63.3 598.2,-42.98 608.55,-28.44"/>
<polygon fill="midnightblue" stroke="midnightblue" points="611.66,-30.09 614.42,-19.86 605.89,-26.13 611.66,-30.09"/>
</g>
<!-- Node14&#45;&gt;Node11 -->
<g id="edge19" class="edge">
<title>Node14&#45;&gt;Node11</title>
<path fill="none" stroke="midnightblue" d="M233.6,-224.47C219.89,-217 202.17,-204.71 193.99,-188 190.08,-180.02 190.63,-176.23 193.99,-168 209.46,-130.11 246.76,-98.74 270.9,-81.46"/>
<polygon fill="midnightblue" stroke="midnightblue" points="273.21,-84.12 279.44,-75.55 269.22,-78.37 273.21,-84.12"/>
</g>
<!-- Node14&#45;&gt;Node12 -->
<g id="edge16" class="edge">
<title>Node14&#45;&gt;Node12</title>
<path fill="none" stroke="midnightblue" d="M230.51,-224.36C215.6,-217.09 196.88,-205.12 187.99,-188 174.97,-162.92 210.01,-117.67 212.99,-112 226.5,-86.21 224.59,-74.61 246.99,-56 270.28,-36.65 302.76,-25.11 327.9,-18.58"/>
<polygon fill="midnightblue" stroke="midnightblue" points="328.95,-21.93 337.83,-16.15 327.29,-15.13 328.95,-21.93"/>
</g>
<!-- Node14&#45;&gt;Node13 -->
<g id="edge20" class="edge">
<title>Node14&#45;&gt;Node13</title>
<path fill="none" stroke="midnightblue" d="M232.95,-224.48C217.55,-216.79 196.17,-204.2 181.99,-188 139.03,-138.91 113.79,-63.76 103.88,-29.35"/>
<polygon fill="midnightblue" stroke="midnightblue" points="107.25,-28.4 101.2,-19.7 100.5,-30.27 107.25,-28.4"/>
</g>
<!-- Node15 -->
<g id="node15" class="node">
<title>Node15</title>
<g id="a_node15"><a xlink:title=" ">
<polygon fill="white" stroke="#bfbfbf" points="203.49,-168.5 203.49,-187.5 296.49,-187.5 296.49,-168.5 203.49,-168.5"/>
<text text-anchor="middle" x="249.99" y="-175.5" font-family="Helvetica,sans-Serif" font-size="10.00">unordered_map</text>
</a>
</g>
</g>
<!-- Node14&#45;&gt;Node15 -->
<g id="edge18" class="edge">
<title>Node14&#45;&gt;Node15</title>
<path fill="none" stroke="midnightblue" d="M251.66,-224.08C251.4,-217.01 251.02,-206.86 250.69,-197.99"/>
<polygon fill="midnightblue" stroke="midnightblue" points="254.18,-197.61 250.31,-187.75 247.18,-197.87 254.18,-197.61"/>
</g>
<!-- Node16 -->
<g id="node16" class="node">
<title>Node16</title>
<g id="a_node16"><a xlink:href="_func_def_8h.html" target="_top" xlink:title=" ">
<polygon fill="white" stroke="black" points="353.49,-168.5 353.49,-187.5 418.49,-187.5 418.49,-168.5 353.49,-168.5"/>
<text text-anchor="middle" x="385.99" y="-175.5" font-family="Helvetica,sans-Serif" font-size="10.00">FuncDef.h</text>
</a>
</g>
</g>
<!-- Node14&#45;&gt;Node16 -->
<g id="edge21" class="edge">
<title>Node14&#45;&gt;Node16</title>
<path fill="none" stroke="midnightblue" d="M273.22,-224.44C295.37,-215.52 330.31,-201.44 355.42,-191.32"/>
<polygon fill="midnightblue" stroke="midnightblue" points="356.89,-194.5 364.85,-187.52 354.27,-188.01 356.89,-194.5"/>
</g>
<!-- Node16&#45;&gt;Node10 -->
<g id="edge22" class="edge">
<title>Node16&#45;&gt;Node10</title>
<path fill="none" stroke="midnightblue" d="M403.02,-168.32C420.02,-159.66 446.36,-146.24 465.98,-136.25"/>
<polygon fill="midnightblue" stroke="midnightblue" points="467.68,-139.31 475,-131.65 464.5,-133.08 467.68,-139.31"/>
</g>
<!-- Node16&#45;&gt;Node11 -->
<g id="edge29" class="edge">
<title>Node16&#45;&gt;Node11</title>
<path fill="none" stroke="midnightblue" d="M378.69,-168.37C363.21,-150.05 326.85,-107.05 306.82,-83.36"/>
<polygon fill="midnightblue" stroke="midnightblue" points="309.38,-80.97 300.25,-75.59 304.03,-85.49 309.38,-80.97"/>
</g>
<!-- Node17 -->
<g id="node17" class="node">
<title>Node17</title>
<g id="a_node17"><a xlink:href="_block_8h.html" target="_top" xlink:title=" ">
<polygon fill="white" stroke="black" points="359.49,-112.5 359.49,-131.5 412.49,-131.5 412.49,-112.5 359.49,-112.5"/>
<text text-anchor="middle" x="385.99" y="-119.5" font-family="Helvetica,sans-Serif" font-size="10.00">Block.h</text>
</a>
</g>
</g>
<!-- Node16&#45;&gt;Node17 -->
<g id="edge23" class="edge">
<title>Node16&#45;&gt;Node17</title>
<path fill="none" stroke="midnightblue" d="M385.99,-168.08C385.99,-161.01 385.99,-150.86 385.99,-141.99"/>
<polygon fill="midnightblue" stroke="midnightblue" points="389.49,-141.75 385.99,-131.75 382.49,-141.75 389.49,-141.75"/>
</g>
<!-- Node17&#45;&gt;Node9 -->
<g id="edge25" class="edge">
<title>Node17&#45;&gt;Node9</title>
<path fill="none" stroke="midnightblue" d="M399.03,-112.43C419.52,-99.2 460.76,-73.51 497.99,-56 527.79,-41.98 563.25,-29.33 588.24,-21.03"/>
<polygon fill="midnightblue" stroke="midnightblue" points="589.51,-24.3 597.93,-17.86 587.34,-17.65 589.51,-24.3"/>
</g>
<!-- Node17&#45;&gt;Node11 -->
<g id="edge27" class="edge">
<title>Node17&#45;&gt;Node11</title>
<path fill="none" stroke="midnightblue" d="M371.05,-112.32C356.4,-103.82 333.85,-90.73 316.75,-80.8"/>
<polygon fill="midnightblue" stroke="midnightblue" points="318.3,-77.65 307.89,-75.65 314.78,-83.7 318.3,-77.65"/>
</g>
<!-- Node17&#45;&gt;Node12 -->
<g id="edge24" class="edge">
<title>Node17&#45;&gt;Node12</title>
<path fill="none" stroke="midnightblue" d="M396.48,-112.32C410.02,-99.99 430.76,-76.62 420.99,-56 414.86,-43.07 402.99,-32.62 391.85,-25.05"/>
<polygon fill="midnightblue" stroke="midnightblue" points="393.52,-21.97 383.19,-19.61 389.79,-27.9 393.52,-21.97"/>
</g>
<!-- Node18 -->
<g id="node18" class="node">
<title>Node18</title>
<g id="a_node18"><a xlink:title=" ">
<polygon fill="white" stroke="#bfbfbf" points="506.49,-56.5 506.49,-75.5 553.49,-75.5 553.49,-56.5 506.49,-56.5"/>
<text text-anchor="middle" x="529.99" y="-63.5" font-family="Helvetica,sans-Serif" font-size="10.00">vector</text>
</a>
</g>
</g>
<!-- Node17&#45;&gt;Node18 -->
<g id="edge26" class="edge">
<title>Node17&#45;&gt;Node18</title>
<path fill="none" stroke="midnightblue" d="M408.8,-112.44C432.82,-103.44 470.82,-89.19 497.86,-79.05"/>
<polygon fill="midnightblue" stroke="midnightblue" points="499.14,-82.3 507.28,-75.52 496.69,-75.75 499.14,-82.3"/>
</g>
<!-- Node19 -->
<g id="node19" class="node">
<title>Node19</title>
<g id="a_node19"><a xlink:title=" ">
<polygon fill="white" stroke="#bfbfbf" points="347.99,-56.5 347.99,-75.5 411.99,-75.5 411.99,-56.5 347.99,-56.5"/>
<text text-anchor="middle" x="379.99" y="-63.5" font-family="Helvetica,sans-Serif" font-size="10.00">algorithm</text>
</a>
</g>
</g>
<!-- Node17&#45;&gt;Node19 -->
<g id="edge28" class="edge">
<title>Node17&#45;&gt;Node19</title>
<path fill="none" stroke="midnightblue" d="M385,-112.08C384.2,-104.93 383.06,-94.64 382.06,-85.69"/>
<polygon fill="midnightblue" stroke="midnightblue" points="385.54,-85.3 380.96,-75.75 378.59,-86.08 385.54,-85.3"/>
</g>
<!-- Node20&#45;&gt;Node2 -->
<g id="edge31" class="edge">
<title>Node20&#45;&gt;Node2</title>
<path fill="none" stroke="midnightblue" d="M636.21,-168.32C621.72,-159.82 599.41,-146.73 582.49,-136.8"/>
<polygon fill="midnightblue" stroke="midnightblue" points="584.13,-133.7 573.73,-131.65 580.58,-139.74 584.13,-133.7"/>
</g>
<!-- Node20&#45;&gt;Node6 -->
<g id="edge33" class="edge">
<title>Node20&#45;&gt;Node6</title>
<path fill="none" stroke="midnightblue" d="M674.68,-171.62C715.38,-162.39 799,-143.42 848.91,-132.09"/>
<polygon fill="midnightblue" stroke="midnightblue" points="849.74,-135.49 858.72,-129.87 848.19,-128.67 849.74,-135.49"/>
</g>
<!-- Node20&#45;&gt;Node9 -->
<g id="edge36" class="edge">
<title>Node20&#45;&gt;Node9</title>
<path fill="none" stroke="midnightblue" d="M674.81,-176.45C726.78,-174.3 843.23,-163.74 811.99,-112 777.04,-54.12 696.69,-27.75 651.8,-17.16"/>
<polygon fill="midnightblue" stroke="midnightblue" points="652.52,-13.73 642,-14.97 650.99,-20.57 652.52,-13.73"/>
</g>
<!-- Node20&#45;&gt;Node10 -->
<g id="edge37" class="edge">
<title>Node20&#45;&gt;Node10</title>
<path fill="none" stroke="midnightblue" d="M627.18,-168.92C599.86,-159.64 554.91,-144.37 524.41,-134.01"/>
<polygon fill="midnightblue" stroke="midnightblue" points="525.26,-130.6 514.66,-130.7 523.01,-137.23 525.26,-130.6"/>
</g>
<!-- Node20&#45;&gt;Node12 -->
<g id="edge34" class="edge">
<title>Node20&#45;&gt;Node12</title>
<path fill="none" stroke="midnightblue" d="M647.7,-168.3C638.45,-145.23 609.81,-82.44 562.99,-56 512.72,-27.61 445.68,-17.13 404.2,-13.26"/>
<polygon fill="midnightblue" stroke="midnightblue" points="404.49,-9.77 394.23,-12.41 403.9,-16.74 404.49,-9.77"/>
</g>
<!-- Node20&#45;&gt;Node18 -->
<g id="edge38" class="edge">
<title>Node20&#45;&gt;Node18</title>
<path fill="none" stroke="midnightblue" d="M644.55,-168.42C634.55,-155.41 614.31,-130.25 593.99,-112 581.22,-100.53 565.47,-89.42 552.79,-81.11"/>
<polygon fill="midnightblue" stroke="midnightblue" points="554.49,-78.05 544.18,-75.59 550.71,-83.94 554.49,-78.05"/>
</g>
<!-- Node21 -->
<g id="node21" class="node">
<title>Node21</title>
<g id="a_node21"><a xlink:title=" ">
<polygon fill="white" stroke="#bfbfbf" points="679.49,-112.5 679.49,-131.5 728.49,-131.5 728.49,-112.5 679.49,-112.5"/>
<text text-anchor="middle" x="703.99" y="-119.5" font-family="Helvetica,sans-Serif" font-size="10.00">cstdlib</text>
</a>
</g>
</g>
<!-- Node20&#45;&gt;Node21 -->
<g id="edge32" class="edge">
<title>Node20&#45;&gt;Node21</title>
<path fill="none" stroke="midnightblue" d="M659.74,-168.08C667.46,-160.22 678.89,-148.57 688.2,-139.08"/>
<polygon fill="midnightblue" stroke="midnightblue" points="690.89,-141.34 695.4,-131.75 685.9,-136.44 690.89,-141.34"/>
</g>
<!-- Node22 -->
<g id="node22" class="node">
<title>Node22</title>
<g id="a_node22"><a xlink:title=" ">
<polygon fill="white" stroke="#bfbfbf" points="746.99,-112.5 746.99,-131.5 802.99,-131.5 802.99,-112.5 746.99,-112.5"/>
<text text-anchor="middle" x="774.99" y="-119.5" font-family="Helvetica,sans-Serif" font-size="10.00">sstream</text>
</a>
</g>
</g>
<!-- Node20&#45;&gt;Node22 -->
<g id="edge35" class="edge">
<title>Node20&#45;&gt;Node22</title>
<path fill="none" stroke="midnightblue" d="M670.64,-168.44C690.95,-159.6 722.89,-145.69 746.09,-135.59"/>
<polygon fill="midnightblue" stroke="midnightblue" points="747.66,-138.72 755.43,-131.52 744.87,-132.3 747.66,-138.72"/>
</g>
</g>
</svg>
        <g id="navigator" transform="translate(0 0)" fill="#404254">
                <rect fill="#f2f5e9" fill-opacity="0.5" stroke="#606060" stroke-width=".5" x="0" y="0" width="60" height="60"/>
                <use id="zoomplus" xlink:href="#zoomPlus" x="17" y="9" onmousedown="handleZoom(evt,'in')"/>
                <use id="zoomminus" xlink:href="#zoomMin" x="42" y="9" onmousedown="handleZoom(evt,'out')"/>
                <use id="reset" xlink:href="#resetDef" x="30" y="36" onmousedown="handleReset()"/>
                <g id="arrowUp" xlink:href="#dirArrow" transform="translate(30 24)" onmousedown="handlePan(0,-1)">
                  <use xlink:href="#rim" fill="#404040">
                        <set attributeName="fill" to="#808080" begin="arrowUp.mouseover" end="arrowUp.mouseout"/>
                  </use>
                  <path fill="none" stroke="white" stroke-width="1.5" d="M0,-3.0v7 M-2.5,-0.5L0,-3.0L2.5,-0.5"/>
                </g>
                <g id="arrowRight" xlink:href="#dirArrow" transform="rotate(90) translate(36 -43)" onmousedown="handlePan(1,0)">
                  <use xlink:href="#rim" fill="#404040">
                        <set attributeName="fill" to="#808080" begin="arrowRight.mouseover" end="arrowRight.mouseout"/>
                  </use>
                  <path fill="none" stroke="white" stroke-width="1.5" d="M0,-3.0v7 M-2.5,-0.5L0,-3.0L2.5,-0.5"/>
                </g>
                <g id="arrowDown" xlink:href="#dirArrow" transform="rotate(180) translate(-30 -48)" onmousedown="handlePan(0,1)">
                  <use xlink:href="#rim" fill="#404040">
                        <set attributeName="fill" to="#808080" begin="arrowDown.mouseover" end="arrowDown.mouseout"/>
                  </use>
                  <path fill="none" stroke="white" stroke-width="1.5" d="M0,-3.0v7 M-2.5,-0.5L0,-3.0L2.5,-0.5"/>
                </g>
                <g id="arrowLeft" xlink:href="#dirArrow" transform="rotate(270) translate(-36 17)" onmousedown="handlePan(-1,0)">
                  <use xlink:href="#rim" fill="#404040">
                        <set attributeName="fill" to="#808080" begin="arrowLeft.mouseover" end="arrowLeft.mouseout"/>
                  </use>
                  <path fill="none" stroke="white" stroke-width="1.5" d="M0,-3.0v7 M-2.5,-0.5L0,-3.0L2.5,-0.5"/>
                </g>
        </g>
        <svg viewBox="0 0 15 15" width="100%" height="30px" preserveAspectRatio="xMaxYMin meet">
         <g id="arrow_out" transform="scale(0.3 0.3)">
          <a xlink:href="parser_8h__incl_org.svg" target="_base">
           <rect id="button" ry="5" rx="5" y="6" x="6" height="38" width="38"
                fill="#f2f5e9" fill-opacity="0.5" stroke="#606060" stroke-width="1.0"/>
           <path id="arrow"
             d="M 11.500037,31.436501 C 11.940474,20.09759 22.043105,11.32322 32.158766,21.979434 L 37.068811,17.246167 C 37.068811,17.246167 37.088388,32 37.088388,32 L 22.160133,31.978069 C 22.160133,31.978069 26.997745,27.140456 26.997745,27.140456 C 18.528582,18.264221 13.291696,25.230495 11.500037,31.436501 z"
             style="fill:#404040;"/>
          </a>
         </g>
        </svg>
</svg>
