<?xml version="1.0" encoding="UTF-8" standalone="no"?>
<!DOCTYPE svg PUBLIC "-//W3C//DTD SVG 1.1//EN"
 "http://www.w3.org/Graphics/SVG/1.1/DTD/svg11.dtd">
<!-- Generated by graphviz version 2.43.0 (0)
 -->
<!-- Title: language/parser.h Pages: 1 -->
<svg width="1485pt" height="252pt"
 viewBox="0.00 0.00 1485.00 252.00" xmlns="http://www.w3.org/2000/svg" xmlns:xlink="http://www.w3.org/1999/xlink">
<g id="graph0" class="graph" transform="scale(1 1) rotate(0) translate(4 248)">
<title>language/parser.h</title>
<polygon fill="white" stroke="transparent" points="-4,4 -4,-248 1481,-248 1481,4 -4,4"/>
<!-- Node1 -->
<g id="node1" class="node">
<title>Node1</title>
<g id="a_node1"><a xlink:title=" ">
<polygon fill="#bfbfbf" stroke="black" points="231.5,-224.5 231.5,-243.5 335.5,-243.5 335.5,-224.5 231.5,-224.5"/>
<text text-anchor="middle" x="283.5" y="-231.5" font-family="Helvetica,sans-Serif" font-size="10.00">language/parser.h</text>
</a>
</g>
</g>
<!-- Node2 -->
<g id="node2" class="node">
<title>Node2</title>
<g id="a_node2"><a xlink:href="interpreter_8cc.html" target="_top" xlink:title=" ">
<polygon fill="white" stroke="black" points="136,-168.5 136,-187.5 217,-187.5 217,-168.5 136,-168.5"/>
<text text-anchor="middle" x="176.5" y="-175.5" font-family="Helvetica,sans-Serif" font-size="10.00">interpreter.cc</text>
</a>
</g>
</g>
<!-- Node1&#45;&gt;Node2 -->
<g id="edge1" class="edge">
<title>Node1&#45;&gt;Node2</title>
<path fill="none" stroke="midnightblue" d="M257.2,-219.73C237.39,-209.73 210.79,-196.31 193.65,-187.65"/>
<polygon fill="midnightblue" stroke="midnightblue" points="255.8,-222.94 266.31,-224.32 258.96,-216.69 255.8,-222.94"/>
</g>
<!-- Node3 -->
<g id="node3" class="node">
<title>Node3</title>
<g id="a_node3"><a xlink:href="_expr_8h.html" target="_top" xlink:title=" ">
<polygon fill="white" stroke="black" points="671,-168.5 671,-187.5 766,-187.5 766,-168.5 671,-168.5"/>
<text text-anchor="middle" x="718.5" y="-175.5" font-family="Helvetica,sans-Serif" font-size="10.00">language/Expr.h</text>
</a>
</g>
</g>
<!-- Node1&#45;&gt;Node3 -->
<g id="edge2" class="edge">
<title>Node1&#45;&gt;Node3</title>
<path fill="none" stroke="midnightblue" d="M345.62,-225.29C433.33,-214.4 591.58,-194.76 670.73,-184.93"/>
<polygon fill="midnightblue" stroke="midnightblue" points="345.03,-221.83 335.54,-226.54 345.89,-228.78 345.03,-221.83"/>
</g>
<!-- Node8 -->
<g id="node8" class="node">
<title>Node8</title>
<g id="a_node8"><a xlink:href="_block_8cc.html" target="_top" xlink:title=" ">
<polygon fill="white" stroke="black" points="0,-0.5 0,-19.5 105,-19.5 105,-0.5 0,-0.5"/>
<text text-anchor="middle" x="52.5" y="-7.5" font-family="Helvetica,sans-Serif" font-size="10.00">language/Block.cc</text>
</a>
</g>
</g>
<!-- Node1&#45;&gt;Node8 -->
<g id="edge23" class="edge">
<title>Node1&#45;&gt;Node8</title>
<path fill="none" stroke="midnightblue" d="M269.58,-216.45C258.11,-203.05 241.22,-183.86 225.5,-168 166.38,-108.38 89.76,-42.53 62.59,-19.5"/>
<polygon fill="midnightblue" stroke="midnightblue" points="267.13,-218.97 276.27,-224.33 272.46,-214.44 267.13,-218.97"/>
</g>
<!-- Node16 -->
<g id="node16" class="node">
<title>Node16</title>
<g id="a_node16"><a xlink:href="parser_8cc.html" target="_top" xlink:title=" ">
<polygon fill="white" stroke="black" points="123.5,-0.5 123.5,-19.5 231.5,-19.5 231.5,-0.5 123.5,-0.5"/>
<text text-anchor="middle" x="177.5" y="-7.5" font-family="Helvetica,sans-Serif" font-size="10.00">language/parser.cc</text>
</a>
</g>
</g>
<!-- Node1&#45;&gt;Node16 -->
<g id="edge24" class="edge">
<title>Node1&#45;&gt;Node16</title>
<path fill="none" stroke="midnightblue" d="M286.11,-214.2C289.88,-179.61 293.1,-104.92 259.5,-56 247.09,-37.93 224.96,-26.4 206.82,-19.54"/>
<polygon fill="midnightblue" stroke="midnightblue" points="282.61,-213.95 284.86,-224.3 289.56,-214.81 282.61,-213.95"/>
</g>
<!-- Node20 -->
<g id="node20" class="node">
<title>Node20</title>
<g id="a_node20"><a xlink:href="_test_parser_8cc.html" target="_top" xlink:title=" ">
<polygon fill="white" stroke="black" points="784,-168.5 784,-187.5 933,-187.5 933,-168.5 784,-168.5"/>
<text text-anchor="middle" x="858.5" y="-175.5" font-family="Helvetica,sans-Serif" font-size="10.00">language/test/TestParser.cc</text>
</a>
</g>
</g>
<!-- Node1&#45;&gt;Node20 -->
<g id="edge25" class="edge">
<title>Node1&#45;&gt;Node20</title>
<path fill="none" stroke="midnightblue" d="M345.96,-227.58C439.27,-219.42 620.56,-203.3 774.5,-188 777.56,-187.7 780.69,-187.38 783.85,-187.06"/>
<polygon fill="midnightblue" stroke="midnightblue" points="345.5,-224.11 335.85,-228.47 346.11,-231.08 345.5,-224.11"/>
</g>
<!-- Node4 -->
<g id="node4" class="node">
<title>Node4</title>
<g id="a_node4"><a xlink:href="_bind_def_8h.html" target="_top" xlink:title=" ">
<polygon fill="white" stroke="black" points="662.5,-112.5 662.5,-131.5 774.5,-131.5 774.5,-112.5 662.5,-112.5"/>
<text text-anchor="middle" x="718.5" y="-119.5" font-family="Helvetica,sans-Serif" font-size="10.00">language/BindDef.h</text>
</a>
</g>
</g>
<!-- Node3&#45;&gt;Node4 -->
<g id="edge3" class="edge">
<title>Node3&#45;&gt;Node4</title>
<path fill="none" stroke="midnightblue" d="M718.5,-157.8C718.5,-148.91 718.5,-138.78 718.5,-131.75"/>
<polygon fill="midnightblue" stroke="midnightblue" points="715,-158.08 718.5,-168.08 722,-158.08 715,-158.08"/>
</g>
<!-- Node10 -->
<g id="node10" class="node">
<title>Node10</title>
<g id="a_node10"><a xlink:href="_expr_8cc.html" target="_top" xlink:title=" ">
<polygon fill="white" stroke="black" points="250,-0.5 250,-19.5 349,-19.5 349,-0.5 250,-0.5"/>
<text text-anchor="middle" x="299.5" y="-7.5" font-family="Helvetica,sans-Serif" font-size="10.00">language/Expr.cc</text>
</a>
</g>
</g>
<!-- Node3&#45;&gt;Node10 -->
<g id="edge19" class="edge">
<title>Node3&#45;&gt;Node10</title>
<path fill="none" stroke="midnightblue" d="M687.19,-164.6C605.97,-132.42 390.02,-46.86 321.02,-19.52"/>
<polygon fill="midnightblue" stroke="midnightblue" points="686.27,-168 696.86,-168.42 688.85,-161.49 686.27,-168"/>
</g>
<!-- Node17 -->
<g id="node17" class="node">
<title>Node17</title>
<g id="a_node17"><a xlink:href="_test_bind_8cc.html" target="_top" xlink:title=" ">
<polygon fill="white" stroke="black" points="1336,-0.5 1336,-19.5 1477,-19.5 1477,-0.5 1336,-0.5"/>
<text text-anchor="middle" x="1406.5" y="-7.5" font-family="Helvetica,sans-Serif" font-size="10.00">language/test/TestBind.cc</text>
</a>
</g>
</g>
<!-- Node3&#45;&gt;Node17 -->
<g id="edge20" class="edge">
<title>Node3&#45;&gt;Node17</title>
<path fill="none" stroke="midnightblue" d="M776.41,-167.83C923.04,-149.11 965.17,-167.13 1105.5,-132 1218.32,-103.76 1344.98,-42.35 1389.75,-19.65"/>
<polygon fill="midnightblue" stroke="midnightblue" points="775.59,-164.4 766.13,-169.17 776.51,-171.34 775.59,-164.4"/>
</g>
<!-- Node18 -->
<g id="node18" class="node">
<title>Node18</title>
<g id="a_node18"><a xlink:href="_test_block_8cc.html" target="_top" xlink:title=" ">
<polygon fill="white" stroke="black" points="792.5,-112.5 792.5,-131.5 938.5,-131.5 938.5,-112.5 792.5,-112.5"/>
<text text-anchor="middle" x="865.5" y="-119.5" font-family="Helvetica,sans-Serif" font-size="10.00">language/test/TestBlock.cc</text>
</a>
</g>
</g>
<!-- Node3&#45;&gt;Node18 -->
<g id="edge21" class="edge">
<title>Node3&#45;&gt;Node18</title>
<path fill="none" stroke="midnightblue" d="M751.42,-164.91C779.06,-154.75 817.84,-140.51 842.32,-131.52"/>
<polygon fill="midnightblue" stroke="midnightblue" points="749.97,-161.71 741.79,-168.44 752.39,-168.28 749.97,-161.71"/>
</g>
<!-- Node19 -->
<g id="node19" class="node">
<title>Node19</title>
<g id="a_node19"><a xlink:href="_test_expr_8cc.html" target="_top" xlink:title=" ">
<polygon fill="white" stroke="black" points="956.5,-112.5 956.5,-131.5 1096.5,-131.5 1096.5,-112.5 956.5,-112.5"/>
<text text-anchor="middle" x="1026.5" y="-119.5" font-family="Helvetica,sans-Serif" font-size="10.00">language/test/TestExpr.cc</text>
</a>
</g>
</g>
<!-- Node3&#45;&gt;Node19 -->
<g id="edge22" class="edge">
<title>Node3&#45;&gt;Node19</title>
<path fill="none" stroke="midnightblue" d="M776.42,-166.85C834.58,-156.65 923.2,-141.11 977.84,-131.53"/>
<polygon fill="midnightblue" stroke="midnightblue" points="775.53,-163.45 766.29,-168.62 776.74,-170.34 775.53,-163.45"/>
</g>
<!-- Node5 -->
<g id="node5" class="node">
<title>Node5</title>
<g id="a_node5"><a xlink:href="_bind_def_8cc.html" target="_top" xlink:title=" ">
<polygon fill="white" stroke="black" points="817.5,-56.5 817.5,-75.5 933.5,-75.5 933.5,-56.5 817.5,-56.5"/>
<text text-anchor="middle" x="875.5" y="-63.5" font-family="Helvetica,sans-Serif" font-size="10.00">language/BindDef.cc</text>
</a>
</g>
</g>
<!-- Node4&#45;&gt;Node5 -->
<g id="edge4" class="edge">
<title>Node4&#45;&gt;Node5</title>
<path fill="none" stroke="midnightblue" d="M752.89,-109.17C782.45,-99 824.37,-84.59 850.74,-75.52"/>
<polygon fill="midnightblue" stroke="midnightblue" points="751.7,-105.88 743.38,-112.44 753.97,-112.5 751.7,-105.88"/>
</g>
<!-- Node6 -->
<g id="node6" class="node">
<title>Node6</title>
<g id="a_node6"><a xlink:href="_null_8h.html" target="_top" xlink:title=" ">
<polygon fill="white" stroke="black" points="668,-56.5 668,-75.5 761,-75.5 761,-56.5 668,-56.5"/>
<text text-anchor="middle" x="714.5" y="-63.5" font-family="Helvetica,sans-Serif" font-size="10.00">language/Null.h</text>
</a>
</g>
</g>
<!-- Node4&#45;&gt;Node6 -->
<g id="edge5" class="edge">
<title>Node4&#45;&gt;Node6</title>
<path fill="none" stroke="midnightblue" d="M717.1,-102.1C716.44,-93.14 715.67,-82.86 715.15,-75.75"/>
<polygon fill="midnightblue" stroke="midnightblue" points="713.61,-102.37 717.84,-112.08 720.59,-101.85 713.61,-102.37"/>
</g>
<!-- Node13 -->
<g id="node13" class="node">
<title>Node13</title>
<g id="a_node13"><a xlink:href="_i_statment_8cc.html" target="_top" xlink:title=" ">
<polygon fill="white" stroke="black" points="1191.5,-0.5 1191.5,-19.5 1317.5,-19.5 1317.5,-0.5 1191.5,-0.5"/>
<text text-anchor="middle" x="1254.5" y="-7.5" font-family="Helvetica,sans-Serif" font-size="10.00">language/IStatment.cc</text>
</a>
</g>
</g>
<!-- Node4&#45;&gt;Node13 -->
<g id="edge17" class="edge">
<title>Node4&#45;&gt;Node13</title>
<path fill="none" stroke="midnightblue" d="M734.31,-105.48C751.16,-90 779.37,-66.99 808.5,-56 964.32,2.8 1015.95,-38.19 1181.5,-20 1184.67,-19.65 1187.92,-19.28 1191.2,-18.91"/>
<polygon fill="midnightblue" stroke="midnightblue" points="731.87,-102.97 727,-112.39 736.67,-108.06 731.87,-102.97"/>
</g>
<!-- Node4&#45;&gt;Node17 -->
<g id="edge18" class="edge">
<title>Node4&#45;&gt;Node17</title>
<path fill="none" stroke="midnightblue" d="M782.06,-110.84C916.61,-89.33 1228.07,-39.53 1353.12,-19.53"/>
<polygon fill="midnightblue" stroke="midnightblue" points="781.24,-107.43 771.91,-112.46 782.34,-114.34 781.24,-107.43"/>
</g>
<!-- Node7 -->
<g id="node7" class="node">
<title>Node7</title>
<g id="a_node7"><a xlink:href="_binding_usage_8cc.html" target="_top" xlink:title=" ">
<polygon fill="white" stroke="black" points="483.5,-0.5 483.5,-19.5 629.5,-19.5 629.5,-0.5 483.5,-0.5"/>
<text text-anchor="middle" x="556.5" y="-7.5" font-family="Helvetica,sans-Serif" font-size="10.00">language/BindingUsage.cc</text>
</a>
</g>
</g>
<!-- Node6&#45;&gt;Node7 -->
<g id="edge6" class="edge">
<title>Node6&#45;&gt;Node7</title>
<path fill="none" stroke="midnightblue" d="M679.89,-53.17C650.14,-43 607.95,-28.59 581.42,-19.52"/>
<polygon fill="midnightblue" stroke="midnightblue" points="678.87,-56.52 689.46,-56.44 681.13,-49.9 678.87,-56.52"/>
</g>
<!-- Node6&#45;&gt;Node8 -->
<g id="edge7" class="edge">
<title>Node6&#45;&gt;Node8</title>
<path fill="none" stroke="midnightblue" d="M657.5,-62.04C550.74,-56.22 313.46,-41.88 114.5,-20 111.47,-19.67 108.37,-19.3 105.23,-18.91"/>
<polygon fill="midnightblue" stroke="midnightblue" points="657.54,-65.55 667.72,-62.6 657.92,-58.56 657.54,-65.55"/>
</g>
<!-- Node9 -->
<g id="node9" class="node">
<title>Node9</title>
<g id="a_node9"><a xlink:href="_conditional_8cc.html" target="_top" xlink:title=" ">
<polygon fill="white" stroke="black" points="647.5,-0.5 647.5,-19.5 781.5,-19.5 781.5,-0.5 647.5,-0.5"/>
<text text-anchor="middle" x="714.5" y="-7.5" font-family="Helvetica,sans-Serif" font-size="10.00">language/Conditional.cc</text>
</a>
</g>
</g>
<!-- Node6&#45;&gt;Node9 -->
<g id="edge8" class="edge">
<title>Node6&#45;&gt;Node9</title>
<path fill="none" stroke="midnightblue" d="M714.5,-45.8C714.5,-36.91 714.5,-26.78 714.5,-19.75"/>
<polygon fill="midnightblue" stroke="midnightblue" points="711,-46.08 714.5,-56.08 718,-46.08 711,-46.08"/>
</g>
<!-- Node6&#45;&gt;Node10 -->
<g id="edge9" class="edge">
<title>Node6&#45;&gt;Node10</title>
<path fill="none" stroke="midnightblue" d="M657.82,-58.29C587.53,-49.86 464.06,-34.72 358.5,-20 355.42,-19.57 352.25,-19.12 349.06,-18.65"/>
<polygon fill="midnightblue" stroke="midnightblue" points="657.45,-61.77 667.8,-59.48 658.29,-54.82 657.45,-61.77"/>
</g>
<!-- Node11 -->
<g id="node11" class="node">
<title>Node11</title>
<g id="a_node11"><a xlink:href="_func_call_8cc.html" target="_top" xlink:title=" ">
<polygon fill="white" stroke="black" points="800,-0.5 800,-19.5 919,-19.5 919,-0.5 800,-0.5"/>
<text text-anchor="middle" x="859.5" y="-7.5" font-family="Helvetica,sans-Serif" font-size="10.00">language/FuncCall.cc</text>
</a>
</g>
</g>
<!-- Node6&#45;&gt;Node11 -->
<g id="edge10" class="edge">
<title>Node6&#45;&gt;Node11</title>
<path fill="none" stroke="midnightblue" d="M746.98,-52.91C774.24,-42.75 812.49,-28.51 836.63,-19.52"/>
<polygon fill="midnightblue" stroke="midnightblue" points="745.63,-49.67 737.48,-56.44 748.07,-56.23 745.63,-49.67"/>
</g>
<!-- Node12 -->
<g id="node12" class="node">
<title>Node12</title>
<g id="a_node12"><a xlink:href="_func_def_8cc.html" target="_top" xlink:title=" ">
<polygon fill="white" stroke="black" points="937,-0.5 937,-19.5 1054,-19.5 1054,-0.5 937,-0.5"/>
<text text-anchor="middle" x="995.5" y="-7.5" font-family="Helvetica,sans-Serif" font-size="10.00">language/FuncDef.cc</text>
</a>
</g>
</g>
<!-- Node6&#45;&gt;Node12 -->
<g id="edge11" class="edge">
<title>Node6&#45;&gt;Node12</title>
<path fill="none" stroke="midnightblue" d="M768.95,-54.54C822.05,-44.33 901.84,-29 951.18,-19.52"/>
<polygon fill="midnightblue" stroke="midnightblue" points="768.19,-51.12 759.03,-56.44 769.51,-57.99 768.19,-51.12"/>
</g>
<!-- Node6&#45;&gt;Node13 -->
<g id="edge12" class="edge">
<title>Node6&#45;&gt;Node13</title>
<path fill="none" stroke="midnightblue" d="M771.06,-56.54C772.56,-56.35 774.04,-56.17 775.5,-56 955.4,-34.77 1001.36,-39.09 1181.5,-20 1184.67,-19.66 1187.93,-19.31 1191.21,-18.94"/>
<polygon fill="midnightblue" stroke="midnightblue" points="770.55,-53.08 761.09,-57.84 771.46,-60.02 770.55,-53.08"/>
</g>
<!-- Node14 -->
<g id="node14" class="node">
<title>Node14</title>
<g id="a_node14"><a xlink:href="_loop_8cc.html" target="_top" xlink:title=" ">
<polygon fill="white" stroke="black" points="1072,-0.5 1072,-19.5 1173,-19.5 1173,-0.5 1072,-0.5"/>
<text text-anchor="middle" x="1122.5" y="-7.5" font-family="Helvetica,sans-Serif" font-size="10.00">language/Loop.cc</text>
</a>
</g>
</g>
<!-- Node6&#45;&gt;Node14 -->
<g id="edge13" class="edge">
<title>Node6&#45;&gt;Node14</title>
<path fill="none" stroke="midnightblue" d="M771.07,-56.61C772.56,-56.4 774.04,-56.2 775.5,-56 902.87,-38.62 935.15,-37.54 1062.5,-20 1065.53,-19.58 1068.64,-19.15 1071.77,-18.7"/>
<polygon fill="midnightblue" stroke="midnightblue" points="770.52,-53.15 761.11,-58.02 771.5,-60.08 770.52,-53.15"/>
</g>
<!-- Node15 -->
<g id="node15" class="node">
<title>Node15</title>
<g id="a_node15"><a xlink:href="_null_8cc.html" target="_top" xlink:title=" ">
<polygon fill="white" stroke="black" points="367.5,-0.5 367.5,-19.5 465.5,-19.5 465.5,-0.5 367.5,-0.5"/>
<text text-anchor="middle" x="416.5" y="-7.5" font-family="Helvetica,sans-Serif" font-size="10.00">language/Null.cc</text>
</a>
</g>
</g>
<!-- Node6&#45;&gt;Node15 -->
<g id="edge14" class="edge">
<title>Node6&#45;&gt;Node15</title>
<path fill="none" stroke="midnightblue" d="M657.79,-54.72C601.55,-44.53 516.39,-29.1 463.72,-19.56"/>
<polygon fill="midnightblue" stroke="midnightblue" points="657.47,-58.22 667.94,-56.56 658.72,-51.34 657.47,-58.22"/>
</g>
<!-- Node6&#45;&gt;Node16 -->
<g id="edge15" class="edge">
<title>Node6&#45;&gt;Node16</title>
<path fill="none" stroke="midnightblue" d="M657.85,-60.49C568.86,-53.22 390.91,-37.87 240.5,-20 237.65,-19.66 234.72,-19.3 231.77,-18.92"/>
<polygon fill="midnightblue" stroke="midnightblue" points="657.75,-64 668,-61.32 658.32,-57.02 657.75,-64"/>
</g>
<!-- Node6&#45;&gt;Node17 -->
<g id="edge16" class="edge">
<title>Node6&#45;&gt;Node17</title>
<path fill="none" stroke="midnightblue" d="M771.43,-59.31C783.65,-58.15 796.5,-56.99 808.5,-56 1038.49,-37 1096.67,-40.9 1326.5,-20 1329.56,-19.72 1332.69,-19.42 1335.85,-19.11"/>
<polygon fill="midnightblue" stroke="midnightblue" points="770.96,-55.84 761.34,-60.27 771.62,-62.81 770.96,-55.84"/>
</g>
</g>
</svg>
