<?xml version="1.0" encoding="UTF-8" standalone="no"?>
<!DOCTYPE svg PUBLIC "-//W3C//DTD SVG 1.1//EN"
 "http://www.w3.org/Graphics/SVG/1.1/DTD/svg11.dtd">
<!-- Generated by graphviz version 2.43.0 (0)
 -->
<!-- Title: Catch::MessageStream Pages: 1 -->
<svg width="167pt" height="409pt"
 viewBox="0.00 0.00 167.00 409.00" xmlns="http://www.w3.org/2000/svg" xmlns:xlink="http://www.w3.org/1999/xlink">
<g id="graph0" class="graph" transform="scale(1 1) rotate(0) translate(4 405)">
<title>Catch::MessageStream</title>
<polygon fill="white" stroke="transparent" points="-4,4 -4,-405 163,-405 163,4 -4,4"/>
<!-- Node1 -->
<g id="node1" class="node">
<title>Node1</title>
<g id="a_node1"><a xlink:title=" ">
<polygon fill="#bfbfbf" stroke="black" points="15,-0.5 15,-68.5 144,-68.5 144,-0.5 15,-0.5"/>
<text text-anchor="middle" x="79.5" y="-56.5" font-family="Helvetica,sans-Serif" font-size="10.00">Catch::MessageStream</text>
<polyline fill="none" stroke="black" points="15,-49.5 144,-49.5 "/>
<text text-anchor="middle" x="79.5" y="-37.5" font-family="Helvetica,sans-Serif" font-size="10.00"> </text>
<polyline fill="none" stroke="black" points="15,-30.5 144,-30.5 "/>
<text text-anchor="start" x="23" y="-18.5" font-family="Helvetica,sans-Serif" font-size="10.00">+ operator&lt;&lt;()</text>
<text text-anchor="start" x="23" y="-7.5" font-family="Helvetica,sans-Serif" font-size="10.00">+ operator&lt;&lt;()</text>
</a>
</g>
</g>
<!-- Node2 -->
<g id="node2" class="node">
<title>Node2</title>
<g id="a_node2"><a xlink:href="class_catch_1_1_reusable_string_stream.html" target="_top" xlink:title=" ">
<polygon fill="white" stroke="black" points="0,-116.5 0,-272.5 159,-272.5 159,-116.5 0,-116.5"/>
<text text-anchor="middle" x="79.5" y="-260.5" font-family="Helvetica,sans-Serif" font-size="10.00">Catch::ReusableStringStream</text>
<polyline fill="none" stroke="black" points="0,-253.5 159,-253.5 "/>
<text text-anchor="middle" x="79.5" y="-241.5" font-family="Helvetica,sans-Serif" font-size="10.00"> </text>
<polyline fill="none" stroke="black" points="0,-234.5 159,-234.5 "/>
<text text-anchor="start" x="8" y="-222.5" font-family="Helvetica,sans-Serif" font-size="10.00">+ ReusableStringStream()</text>
<text text-anchor="start" x="8" y="-211.5" font-family="Helvetica,sans-Serif" font-size="10.00">+ ~ReusableStringStream()</text>
<text text-anchor="start" x="8" y="-200.5" font-family="Helvetica,sans-Serif" font-size="10.00">+ str()</text>
<text text-anchor="start" x="8" y="-189.5" font-family="Helvetica,sans-Serif" font-size="10.00">+ operator&lt;&lt;()</text>
<text text-anchor="start" x="8" y="-178.5" font-family="Helvetica,sans-Serif" font-size="10.00">+ get()</text>
<text text-anchor="start" x="8" y="-167.5" font-family="Helvetica,sans-Serif" font-size="10.00">+ ReusableStringStream()</text>
<text text-anchor="start" x="8" y="-156.5" font-family="Helvetica,sans-Serif" font-size="10.00">+ ~ReusableStringStream()</text>
<text text-anchor="start" x="8" y="-145.5" font-family="Helvetica,sans-Serif" font-size="10.00">+ str()</text>
<text text-anchor="start" x="8" y="-134.5" font-family="Helvetica,sans-Serif" font-size="10.00">+ operator&lt;&lt;()</text>
<text text-anchor="start" x="8" y="-123.5" font-family="Helvetica,sans-Serif" font-size="10.00">+ get()</text>
</a>
</g>
</g>
<!-- Node2&#45;&gt;Node1 -->
<g id="edge1" class="edge">
<title>Node2&#45;&gt;Node1</title>
<path fill="none" stroke="#404040" d="M79.5,-116.35C79.5,-104.17 79.5,-91.93 79.5,-80.79"/>
<polygon fill="none" stroke="#404040" points="79.5,-80.75 75.5,-74.75 79.5,-68.75 83.5,-74.75 79.5,-80.75"/>
<text text-anchor="middle" x="110" y="-90" font-family="Helvetica,sans-Serif" font-size="10.00"> +m_stream</text>
</g>
<!-- Node3 -->
<g id="node3" class="node">
<title>Node3</title>
<g id="a_node3"><a xlink:href="class_catch_1_1_non_copyable.html" target="_top" xlink:title=" ">
<polygon fill="white" stroke="black" points="21.5,-310.5 21.5,-400.5 137.5,-400.5 137.5,-310.5 21.5,-310.5"/>
<text text-anchor="middle" x="79.5" y="-388.5" font-family="Helvetica,sans-Serif" font-size="10.00">Catch::NonCopyable</text>
<polyline fill="none" stroke="black" points="21.5,-381.5 137.5,-381.5 "/>
<text text-anchor="middle" x="79.5" y="-369.5" font-family="Helvetica,sans-Serif" font-size="10.00"> </text>
<polyline fill="none" stroke="black" points="21.5,-362.5 137.5,-362.5 "/>
<text text-anchor="start" x="29.5" y="-350.5" font-family="Helvetica,sans-Serif" font-size="10.00"># NonCopyable()</text>
<text text-anchor="start" x="29.5" y="-339.5" font-family="Helvetica,sans-Serif" font-size="10.00"># ~NonCopyable()</text>
<text text-anchor="start" x="29.5" y="-328.5" font-family="Helvetica,sans-Serif" font-size="10.00"># NonCopyable()</text>
<text text-anchor="start" x="29.5" y="-317.5" font-family="Helvetica,sans-Serif" font-size="10.00"># ~NonCopyable()</text>
</a>
</g>
</g>
<!-- Node3&#45;&gt;Node2 -->
<g id="edge2" class="edge">
<title>Node3&#45;&gt;Node2</title>
<path fill="none" stroke="#8b1a1a" d="M79.5,-300.09C79.5,-291.27 79.5,-281.98 79.5,-272.74"/>
<polygon fill="none" stroke="#8b1a1a" points="76,-300.21 79.5,-310.21 83,-300.21 76,-300.21"/>
</g>
</g>
</svg>
