<?xml version="1.0" encoding="UTF-8" standalone="no"?>
<!DOCTYPE svg PUBLIC "-//W3C//DTD SVG 1.1//EN"
 "http://www.w3.org/Graphics/SVG/1.1/DTD/svg11.dtd">
<!-- Generated by graphviz version 2.43.0 (0)
 -->
<!-- Title: Catch::Benchmark::Timing&lt; Duration, Result &gt; Pages: 1 -->
<svg width="268pt" height="182pt"
 viewBox="0.00 0.00 268.00 182.00" xmlns="http://www.w3.org/2000/svg" xmlns:xlink="http://www.w3.org/1999/xlink">
<g id="graph0" class="graph" transform="scale(1 1) rotate(0) translate(4 178)">
<title>Catch::Benchmark::Timing&lt; Duration, Result &gt;</title>
<polygon fill="white" stroke="transparent" points="-4,4 -4,-178 264,-178 264,4 -4,4"/>
<!-- Node1 -->
<g id="node1" class="node">
<title>Node1</title>
<g id="a_node1"><a xlink:title=" ">
<polygon fill="#bfbfbf" stroke="black" points="22.5,-0.5 22.5,-68.5 168.5,-68.5 168.5,-0.5 22.5,-0.5"/>
<text text-anchor="start" x="30.5" y="-56.5" font-family="Helvetica,sans-Serif" font-size="10.00">Catch::Benchmark::Timing</text>
<text text-anchor="middle" x="95.5" y="-45.5" font-family="Helvetica,sans-Serif" font-size="10.00">&lt; Duration, Result &gt;</text>
<polyline fill="none" stroke="black" points="22.5,-38.5 168.5,-38.5 "/>
<text text-anchor="middle" x="95.5" y="-26.5" font-family="Helvetica,sans-Serif" font-size="10.00"> </text>
<polyline fill="none" stroke="black" points="22.5,-19.5 168.5,-19.5 "/>
<text text-anchor="middle" x="95.5" y="-7.5" font-family="Helvetica,sans-Serif" font-size="10.00"> </text>
</a>
</g>
</g>
<!-- Node2 -->
<g id="node2" class="node">
<title>Node2</title>
<g id="a_node2"><a xlink:title=" ">
<polygon fill="white" stroke="#bfbfbf" points="0,-116.5 0,-173.5 29,-173.5 29,-116.5 0,-116.5"/>
<text text-anchor="middle" x="14.5" y="-161.5" font-family="Helvetica,sans-Serif" font-size="10.00">int</text>
<polyline fill="none" stroke="#bfbfbf" points="0,-154.5 29,-154.5 "/>
<text text-anchor="middle" x="14.5" y="-142.5" font-family="Helvetica,sans-Serif" font-size="10.00"> </text>
<polyline fill="none" stroke="#bfbfbf" points="0,-135.5 29,-135.5 "/>
<text text-anchor="middle" x="14.5" y="-123.5" font-family="Helvetica,sans-Serif" font-size="10.00"> </text>
</a>
</g>
</g>
<!-- Node2&#45;&gt;Node1 -->
<g id="edge1" class="edge">
<title>Node2&#45;&gt;Node1</title>
<path fill="none" stroke="#404040" d="M20.34,-116.47C23.26,-106.62 27.49,-95.78 33.5,-87 35.75,-83.71 38.27,-80.51 40.97,-77.43"/>
<polygon fill="none" stroke="#404040" points="41.19,-77.19 42.47,-70.09 49.51,-68.54 48.24,-75.64 41.19,-77.19"/>
<text text-anchor="middle" x="62.5" y="-90" font-family="Helvetica,sans-Serif" font-size="10.00"> +iterations</text>
</g>
<!-- Node3 -->
<g id="node3" class="node">
<title>Node3</title>
<g id="a_node3"><a xlink:title=" ">
<polygon fill="white" stroke="#bfbfbf" points="72,-116.5 72,-173.5 119,-173.5 119,-116.5 72,-116.5"/>
<text text-anchor="middle" x="95.5" y="-161.5" font-family="Helvetica,sans-Serif" font-size="10.00">Result</text>
<polyline fill="none" stroke="#bfbfbf" points="72,-154.5 119,-154.5 "/>
<text text-anchor="middle" x="95.5" y="-142.5" font-family="Helvetica,sans-Serif" font-size="10.00"> </text>
<polyline fill="none" stroke="#bfbfbf" points="72,-135.5 119,-135.5 "/>
<text text-anchor="middle" x="95.5" y="-123.5" font-family="Helvetica,sans-Serif" font-size="10.00"> </text>
</a>
</g>
</g>
<!-- Node3&#45;&gt;Node1 -->
<g id="edge2" class="edge">
<title>Node3&#45;&gt;Node1</title>
<path fill="none" stroke="#404040" d="M95.5,-116.34C95.5,-105.53 95.5,-92.85 95.5,-80.77"/>
<polygon fill="none" stroke="#404040" points="95.5,-80.52 91.5,-74.52 95.5,-68.52 99.5,-74.52 95.5,-80.52"/>
<text text-anchor="middle" x="115.5" y="-90" font-family="Helvetica,sans-Serif" font-size="10.00"> +result</text>
</g>
<!-- Node4 -->
<g id="node4" class="node">
<title>Node4</title>
<g id="a_node4"><a xlink:title=" ">
<polygon fill="white" stroke="#bfbfbf" points="137,-116.5 137,-173.5 260,-173.5 260,-116.5 137,-116.5"/>
<text text-anchor="middle" x="198.5" y="-161.5" font-family="Helvetica,sans-Serif" font-size="10.00">anonymous:+elapsed</text>
<polyline fill="none" stroke="#bfbfbf" points="137,-154.5 260,-154.5 "/>
<text text-anchor="middle" x="198.5" y="-142.5" font-family="Helvetica,sans-Serif" font-size="10.00"> </text>
<polyline fill="none" stroke="#bfbfbf" points="137,-135.5 260,-135.5 "/>
<text text-anchor="middle" x="198.5" y="-123.5" font-family="Helvetica,sans-Serif" font-size="10.00"> </text>
</a>
</g>
</g>
<!-- Node4&#45;&gt;Node1 -->
<g id="edge3" class="edge">
<title>Node4&#45;&gt;Node1</title>
<path fill="none" stroke="#404040" d="M172.24,-116.34C161.01,-104.51 147.64,-90.43 135.24,-77.36"/>
<polygon fill="none" stroke="#404040" points="135.11,-77.22 128.07,-75.62 126.84,-68.52 133.88,-70.12 135.11,-77.22"/>
<text text-anchor="middle" x="177.5" y="-90" font-family="Helvetica,sans-Serif" font-size="10.00"> +elapsed</text>
</g>
</g>
</svg>
