<?xml version="1.0" encoding="UTF-8" standalone="no"?>
<!DOCTYPE svg PUBLIC "-//W3C//DTD SVG 1.1//EN"
 "http://www.w3.org/Graphics/SVG/1.1/DTD/svg11.dtd">
<!-- Generated by graphviz version 2.43.0 (0)
 -->
<!-- Title: Catch::StringStreams Pages: 1 -->
<svg width="419pt" height="193pt"
 viewBox="0.00 0.00 418.50 193.00" xmlns="http://www.w3.org/2000/svg" xmlns:xlink="http://www.w3.org/1999/xlink">
<g id="graph0" class="graph" transform="scale(1 1) rotate(0) translate(4 189)">
<title>Catch::StringStreams</title>
<polygon fill="white" stroke="transparent" points="-4,4 -4,-189 414.5,-189 414.5,4 -4,4"/>
<!-- Node1 -->
<g id="node1" class="node">
<title>Node1</title>
<g id="a_node1"><a xlink:title=" ">
<polygon fill="#bfbfbf" stroke="black" points="159.5,-0.5 159.5,-68.5 278.5,-68.5 278.5,-0.5 159.5,-0.5"/>
<text text-anchor="middle" x="219" y="-56.5" font-family="Helvetica,sans-Serif" font-size="10.00">Catch::StringStreams</text>
<polyline fill="none" stroke="black" points="159.5,-49.5 278.5,-49.5 "/>
<text text-anchor="middle" x="219" y="-37.5" font-family="Helvetica,sans-Serif" font-size="10.00"> </text>
<polyline fill="none" stroke="black" points="159.5,-30.5 278.5,-30.5 "/>
<text text-anchor="start" x="167.5" y="-18.5" font-family="Helvetica,sans-Serif" font-size="10.00">+ add()</text>
<text text-anchor="start" x="167.5" y="-7.5" font-family="Helvetica,sans-Serif" font-size="10.00">+ release()</text>
</a>
</g>
</g>
<!-- Node2 -->
<g id="node2" class="node">
<title>Node2</title>
<g id="a_node2"><a xlink:title=" ">
<polygon fill="white" stroke="#bfbfbf" points="0,-116.5 0,-184.5 158,-184.5 158,-116.5 0,-116.5"/>
<text text-anchor="start" x="8" y="-172.5" font-family="Helvetica,sans-Serif" font-size="10.00">vector&lt; std::unique</text>
<text text-anchor="middle" x="79" y="-161.5" font-family="Helvetica,sans-Serif" font-size="10.00">_ptr&lt; std::ostringstream &gt; &gt;</text>
<polyline fill="none" stroke="#bfbfbf" points="0,-154.5 158,-154.5 "/>
<text text-anchor="middle" x="79" y="-142.5" font-family="Helvetica,sans-Serif" font-size="10.00"> </text>
<polyline fill="none" stroke="#bfbfbf" points="0,-135.5 158,-135.5 "/>
<text text-anchor="middle" x="79" y="-123.5" font-family="Helvetica,sans-Serif" font-size="10.00"> </text>
</a>
</g>
</g>
<!-- Node2&#45;&gt;Node1 -->
<g id="edge1" class="edge">
<title>Node2&#45;&gt;Node1</title>
<path fill="none" stroke="#404040" d="M114.16,-116.31C124.82,-106.61 136.71,-96.17 148,-87 152.49,-83.35 157.22,-79.65 162,-76"/>
<polygon fill="none" stroke="#404040" points="162.27,-75.8 164.66,-69 171.86,-68.59 169.47,-75.39 162.27,-75.8"/>
<text text-anchor="middle" x="181.5" y="-90" font-family="Helvetica,sans-Serif" font-size="10.00"> +m_streams</text>
</g>
<!-- Node3 -->
<g id="node3" class="node">
<title>Node3</title>
<g id="a_node3"><a xlink:title=" ">
<polygon fill="white" stroke="#bfbfbf" points="176.5,-122 176.5,-179 261.5,-179 261.5,-122 176.5,-122"/>
<text text-anchor="middle" x="219" y="-167" font-family="Helvetica,sans-Serif" font-size="10.00">ostringstream</text>
<polyline fill="none" stroke="#bfbfbf" points="176.5,-160 261.5,-160 "/>
<text text-anchor="middle" x="219" y="-148" font-family="Helvetica,sans-Serif" font-size="10.00"> </text>
<polyline fill="none" stroke="#bfbfbf" points="176.5,-141 261.5,-141 "/>
<text text-anchor="middle" x="219" y="-129" font-family="Helvetica,sans-Serif" font-size="10.00"> </text>
</a>
</g>
</g>
<!-- Node3&#45;&gt;Node1 -->
<g id="edge2" class="edge">
<title>Node3&#45;&gt;Node1</title>
<path fill="none" stroke="#404040" d="M219,-121.9C219,-109.59 219,-94.76 219,-80.89"/>
<polygon fill="none" stroke="#404040" points="219,-80.52 215,-74.52 219,-68.52 223,-74.52 219,-80.52"/>
<text text-anchor="middle" x="273.5" y="-90" font-family="Helvetica,sans-Serif" font-size="10.00"> +m_referenceStream</text>
</g>
<!-- Node4 -->
<g id="node4" class="node">
<title>Node4</title>
<g id="a_node4"><a xlink:title=" ">
<polygon fill="white" stroke="#bfbfbf" points="291.5,-122 291.5,-179 410.5,-179 410.5,-122 291.5,-122"/>
<text text-anchor="middle" x="351" y="-167" font-family="Helvetica,sans-Serif" font-size="10.00">vector&lt; std::size_t &gt;</text>
<polyline fill="none" stroke="#bfbfbf" points="291.5,-160 410.5,-160 "/>
<text text-anchor="middle" x="351" y="-148" font-family="Helvetica,sans-Serif" font-size="10.00"> </text>
<polyline fill="none" stroke="#bfbfbf" points="291.5,-141 410.5,-141 "/>
<text text-anchor="middle" x="351" y="-129" font-family="Helvetica,sans-Serif" font-size="10.00"> </text>
</a>
</g>
</g>
<!-- Node4&#45;&gt;Node1 -->
<g id="edge3" class="edge">
<title>Node4&#45;&gt;Node1</title>
<path fill="none" stroke="#404040" d="M346.24,-121.8C343.03,-109.94 337.72,-96.64 329,-87 318.23,-75.1 304.14,-65.73 289.66,-58.43"/>
<polygon fill="none" stroke="#404040" points="289.43,-58.32 282.3,-59.4 278.56,-53.24 285.69,-52.16 289.43,-58.32"/>
<text text-anchor="middle" x="367" y="-90" font-family="Helvetica,sans-Serif" font-size="10.00"> +m_unused</text>
</g>
</g>
</svg>
