<?xml version="1.0" encoding="UTF-8" standalone="no"?>
<!DOCTYPE svg PUBLIC "-//W3C//DTD SVG 1.1//EN"
 "http://www.w3.org/Graphics/SVG/1.1/DTD/svg11.dtd">
<!-- Generated by graphviz version 2.43.0 (0)
 -->
<!-- Title: Catch::Counts::allOk Pages: 1 -->
<svg width="302pt" height="127pt"
 viewBox="0.00 0.00 302.00 126.50" xmlns="http://www.w3.org/2000/svg" xmlns:xlink="http://www.w3.org/1999/xlink">
<g id="graph0" class="graph" transform="scale(1 1) rotate(0) translate(4 122.5)">
<title>Catch::Counts::allOk</title>
<polygon fill="white" stroke="transparent" points="-4,4 -4,-122.5 298,-122.5 298,4 -4,4"/>
<!-- Node1 -->
<g id="node1" class="node">
<title>Node1</title>
<g id="a_node1"><a xlink:title=" ">
<polygon fill="#bfbfbf" stroke="black" points="178,-55 178,-74 294,-74 294,-55 178,-55"/>
<text text-anchor="middle" x="236" y="-62" font-family="Helvetica,sans-Serif" font-size="10.00">Catch::Counts::allOk</text>
</a>
</g>
</g>
<!-- Node2 -->
<g id="node2" class="node">
<title>Node2</title>
<g id="a_node2"><a xlink:href="210-_evt-_event_listeners_8cpp.html#a5bf94f8326977aea354c9aa8b22084b1" target="_top" xlink:title=" ">
<polygon fill="white" stroke="black" points="51.5,-99 51.5,-118 90.5,-118 90.5,-99 51.5,-99"/>
<text text-anchor="middle" x="71" y="-106" font-family="Helvetica,sans-Serif" font-size="10.00">print</text>
</a>
</g>
</g>
<!-- Node1&#45;&gt;Node2 -->
<g id="edge1" class="edge">
<title>Node1&#45;&gt;Node2</title>
<path fill="none" stroke="midnightblue" d="M189.83,-76.69C157.11,-85.52 114.59,-97 90.6,-103.48"/>
<polygon fill="midnightblue" stroke="midnightblue" points="190.89,-80.03 199.63,-74.05 189.06,-73.27 190.89,-80.03"/>
</g>
<!-- Node3 -->
<g id="node3" class="node">
<title>Node3</title>
<g id="a_node3"><a xlink:href="struct_catch_1_1_automake_reporter.html#a88e67aaa39d97ea283795c2fbc2598f0" target="_top" xlink:title=" ">
<polygon fill="white" stroke="black" points="0,-49.5 0,-79.5 142,-79.5 142,-49.5 0,-49.5"/>
<text text-anchor="start" x="8" y="-67.5" font-family="Helvetica,sans-Serif" font-size="10.00">Catch::AutomakeReporter</text>
<text text-anchor="middle" x="71" y="-56.5" font-family="Helvetica,sans-Serif" font-size="10.00">::testCaseEnded</text>
</a>
</g>
</g>
<!-- Node1&#45;&gt;Node3 -->
<g id="edge2" class="edge">
<title>Node1&#45;&gt;Node3</title>
<path fill="none" stroke="midnightblue" d="M167.8,-64.5C159.34,-64.5 150.67,-64.5 142.17,-64.5"/>
<polygon fill="midnightblue" stroke="midnightblue" points="167.99,-68 177.99,-64.5 167.99,-61 167.99,-68"/>
</g>
<!-- Node4 -->
<g id="node4" class="node">
<title>Node4</title>
<g id="a_node4"><a xlink:href="class_catch_1_1_xml_reporter.html#ab641ec7e115cb94efa02f85e9d91de0f" target="_top" xlink:title=" ">
<polygon fill="white" stroke="black" points="15,-0.5 15,-30.5 127,-30.5 127,-0.5 15,-0.5"/>
<text text-anchor="start" x="23" y="-18.5" font-family="Helvetica,sans-Serif" font-size="10.00">Catch::XmlReporter</text>
<text text-anchor="middle" x="71" y="-7.5" font-family="Helvetica,sans-Serif" font-size="10.00">::testCaseEnded</text>
</a>
</g>
</g>
<!-- Node1&#45;&gt;Node4 -->
<g id="edge3" class="edge">
<title>Node1&#45;&gt;Node4</title>
<path fill="none" stroke="midnightblue" d="M193.57,-52.05C171.8,-45.5 144.95,-37.43 122.02,-30.54"/>
<polygon fill="midnightblue" stroke="midnightblue" points="192.6,-55.41 203.19,-54.94 194.62,-48.71 192.6,-55.41"/>
</g>
</g>
</svg>
