<?xml version="1.0" encoding="UTF-8" standalone="no"?>
<!DOCTYPE svg PUBLIC "-//W3C//DTD SVG 1.1//EN"
 "http://www.w3.org/Graphics/SVG/1.1/DTD/svg11.dtd">
<!-- Generated by graphviz version 2.43.0 (0)
 -->
<!-- Title: Catch::TeamCityReporter Pages: 1 -->
<svg width="1169pt" height="932pt"
 viewBox="0.00 0.00 1168.50 932.00" xmlns="http://www.w3.org/2000/svg" xmlns:xlink="http://www.w3.org/1999/xlink">
<g id="graph0" class="graph" transform="scale(1 1) rotate(0) translate(4 928)">
<title>Catch::TeamCityReporter</title>
<polygon fill="white" stroke="transparent" points="-4,4 -4,-928 1164.5,-928 1164.5,4 -4,4"/>
<!-- Node1 -->
<g id="node1" class="node">
<title>Node1</title>
<g id="a_node1"><a xlink:title=" ">
<polygon fill="#bfbfbf" stroke="black" points="480,-0.5 480,-211.5 621,-211.5 621,-0.5 480,-0.5"/>
<text text-anchor="middle" x="550.5" y="-199.5" font-family="Helvetica,sans-Serif" font-size="10.00">Catch::TeamCityReporter</text>
<polyline fill="none" stroke="black" points="480,-192.5 621,-192.5 "/>
<text text-anchor="middle" x="550.5" y="-180.5" font-family="Helvetica,sans-Serif" font-size="10.00"> </text>
<polyline fill="none" stroke="black" points="480,-173.5 621,-173.5 "/>
<text text-anchor="start" x="488" y="-161.5" font-family="Helvetica,sans-Serif" font-size="10.00">+ TeamCityReporter()</text>
<text text-anchor="start" x="488" y="-150.5" font-family="Helvetica,sans-Serif" font-size="10.00">+ ~TeamCityReporter()</text>
<text text-anchor="start" x="488" y="-139.5" font-family="Helvetica,sans-Serif" font-size="10.00">+ skipTest()</text>
<text text-anchor="start" x="488" y="-128.5" font-family="Helvetica,sans-Serif" font-size="10.00">+ noMatchingTestCases()</text>
<text text-anchor="start" x="488" y="-117.5" font-family="Helvetica,sans-Serif" font-size="10.00">+ testGroupStarting()</text>
<text text-anchor="start" x="488" y="-106.5" font-family="Helvetica,sans-Serif" font-size="10.00">+ testGroupEnded()</text>
<text text-anchor="start" x="488" y="-95.5" font-family="Helvetica,sans-Serif" font-size="10.00">+ assertionStarting()</text>
<text text-anchor="start" x="488" y="-84.5" font-family="Helvetica,sans-Serif" font-size="10.00">+ assertionEnded()</text>
<text text-anchor="start" x="488" y="-73.5" font-family="Helvetica,sans-Serif" font-size="10.00">+ sectionStarting()</text>
<text text-anchor="start" x="488" y="-62.5" font-family="Helvetica,sans-Serif" font-size="10.00">+ testCaseStarting()</text>
<text text-anchor="start" x="488" y="-51.5" font-family="Helvetica,sans-Serif" font-size="10.00">and 12 more...</text>
<text text-anchor="start" x="488" y="-40.5" font-family="Helvetica,sans-Serif" font-size="10.00">+ escape()</text>
<text text-anchor="start" x="488" y="-29.5" font-family="Helvetica,sans-Serif" font-size="10.00">+ getDescription()</text>
<text text-anchor="start" x="488" y="-18.5" font-family="Helvetica,sans-Serif" font-size="10.00">+ escape()</text>
<text text-anchor="start" x="488" y="-7.5" font-family="Helvetica,sans-Serif" font-size="10.00">+ getDescription()</text>
</a>
</g>
</g>
<!-- Node2 -->
<g id="node2" class="node">
<title>Node2</title>
<g id="a_node2"><a xlink:href="struct_catch_1_1_streaming_reporter_base.html" target="_top" xlink:title=" ">
<polygon fill="white" stroke="black" points="470.5,-249.5 470.5,-471.5 630.5,-471.5 630.5,-249.5 470.5,-249.5"/>
<text text-anchor="start" x="478.5" y="-459.5" font-family="Helvetica,sans-Serif" font-size="10.00">Catch::StreamingReporter</text>
<text text-anchor="middle" x="550.5" y="-448.5" font-family="Helvetica,sans-Serif" font-size="10.00">Base&lt; TeamCityReporter &gt;</text>
<polyline fill="none" stroke="black" points="470.5,-441.5 630.5,-441.5 "/>
<text text-anchor="middle" x="550.5" y="-429.5" font-family="Helvetica,sans-Serif" font-size="10.00"> </text>
<polyline fill="none" stroke="black" points="470.5,-422.5 630.5,-422.5 "/>
<text text-anchor="start" x="478.5" y="-410.5" font-family="Helvetica,sans-Serif" font-size="10.00">+ StreamingReporterBase()</text>
<text text-anchor="start" x="478.5" y="-399.5" font-family="Helvetica,sans-Serif" font-size="10.00">+ getPreferences()</text>
<text text-anchor="start" x="478.5" y="-388.5" font-family="Helvetica,sans-Serif" font-size="10.00">+ ~StreamingReporterBase()</text>
<text text-anchor="start" x="478.5" y="-377.5" font-family="Helvetica,sans-Serif" font-size="10.00">+ noMatchingTestCases()</text>
<text text-anchor="start" x="478.5" y="-366.5" font-family="Helvetica,sans-Serif" font-size="10.00">+ reportInvalidArguments()</text>
<text text-anchor="start" x="478.5" y="-355.5" font-family="Helvetica,sans-Serif" font-size="10.00">+ testRunStarting()</text>
<text text-anchor="start" x="478.5" y="-344.5" font-family="Helvetica,sans-Serif" font-size="10.00">+ testGroupStarting()</text>
<text text-anchor="start" x="478.5" y="-333.5" font-family="Helvetica,sans-Serif" font-size="10.00">+ testCaseStarting()</text>
<text text-anchor="start" x="478.5" y="-322.5" font-family="Helvetica,sans-Serif" font-size="10.00">+ sectionStarting()</text>
<text text-anchor="start" x="478.5" y="-311.5" font-family="Helvetica,sans-Serif" font-size="10.00">+ sectionEnded()</text>
<text text-anchor="start" x="478.5" y="-300.5" font-family="Helvetica,sans-Serif" font-size="10.00">+ testCaseEnded()</text>
<text text-anchor="start" x="478.5" y="-289.5" font-family="Helvetica,sans-Serif" font-size="10.00">+ testGroupEnded()</text>
<text text-anchor="start" x="478.5" y="-278.5" font-family="Helvetica,sans-Serif" font-size="10.00">+ testRunEnded()</text>
<text text-anchor="start" x="478.5" y="-267.5" font-family="Helvetica,sans-Serif" font-size="10.00">+ skipTest()</text>
<text text-anchor="start" x="478.5" y="-256.5" font-family="Helvetica,sans-Serif" font-size="10.00">+ getSupportedVerbosities()</text>
</a>
</g>
</g>
<!-- Node2&#45;&gt;Node1 -->
<g id="edge1" class="edge">
<title>Node2&#45;&gt;Node1</title>
<path fill="none" stroke="midnightblue" d="M550.5,-239.2C550.5,-230.06 550.5,-220.89 550.5,-211.86"/>
<polygon fill="none" stroke="midnightblue" points="547,-239.48 550.5,-249.48 554,-239.48 547,-239.48"/>
</g>
<!-- Node3 -->
<g id="node3" class="node">
<title>Node3</title>
<g id="a_node3"><a xlink:href="struct_catch_1_1_i_streaming_reporter.html" target="_top" xlink:title=" ">
<polygon fill="white" stroke="black" points="0,-519.5 0,-686.5 151,-686.5 151,-519.5 0,-519.5"/>
<text text-anchor="middle" x="75.5" y="-674.5" font-family="Helvetica,sans-Serif" font-size="10.00">Catch::IStreamingReporter</text>
<polyline fill="none" stroke="black" points="0,-667.5 151,-667.5 "/>
<text text-anchor="middle" x="75.5" y="-655.5" font-family="Helvetica,sans-Serif" font-size="10.00"> </text>
<polyline fill="none" stroke="black" points="0,-648.5 151,-648.5 "/>
<text text-anchor="start" x="8" y="-636.5" font-family="Helvetica,sans-Serif" font-size="10.00">+ ~IStreamingReporter()</text>
<text text-anchor="start" x="8" y="-625.5" font-family="Helvetica,sans-Serif" font-size="10.00">+ getPreferences()</text>
<text text-anchor="start" x="8" y="-614.5" font-family="Helvetica,sans-Serif" font-size="10.00">+ noMatchingTestCases()</text>
<text text-anchor="start" x="8" y="-603.5" font-family="Helvetica,sans-Serif" font-size="10.00">+ reportInvalidArguments()</text>
<text text-anchor="start" x="8" y="-592.5" font-family="Helvetica,sans-Serif" font-size="10.00">+ testRunStarting()</text>
<text text-anchor="start" x="8" y="-581.5" font-family="Helvetica,sans-Serif" font-size="10.00">+ testGroupStarting()</text>
<text text-anchor="start" x="8" y="-570.5" font-family="Helvetica,sans-Serif" font-size="10.00">+ testCaseStarting()</text>
<text text-anchor="start" x="8" y="-559.5" font-family="Helvetica,sans-Serif" font-size="10.00">+ sectionStarting()</text>
<text text-anchor="start" x="8" y="-548.5" font-family="Helvetica,sans-Serif" font-size="10.00">+ assertionStarting()</text>
<text text-anchor="start" x="8" y="-537.5" font-family="Helvetica,sans-Serif" font-size="10.00">+ assertionEnded()</text>
<text text-anchor="start" x="8" y="-526.5" font-family="Helvetica,sans-Serif" font-size="10.00">and 7 more...</text>
</a>
</g>
</g>
<!-- Node3&#45;&gt;Node2 -->
<g id="edge2" class="edge">
<title>Node3&#45;&gt;Node2</title>
<path fill="none" stroke="midnightblue" d="M159.23,-519.17C159.32,-519.12 159.41,-519.06 159.5,-519 258.29,-454.11 388.04,-408.41 470.38,-383.52"/>
<polygon fill="none" stroke="midnightblue" points="157.27,-516.27 151.07,-524.87 161.28,-522.02 157.27,-516.27"/>
</g>
<!-- Node4 -->
<g id="node4" class="node">
<title>Node4</title>
<g id="a_node4"><a xlink:href="struct_catch_1_1_lazy_stat.html" target="_top" xlink:title=" ">
<polygon fill="white" stroke="black" points="169,-563.5 169,-642.5 300,-642.5 300,-563.5 169,-563.5"/>
<text text-anchor="start" x="177" y="-630.5" font-family="Helvetica,sans-Serif" font-size="10.00">Catch::LazyStat&lt; Catch</text>
<text text-anchor="middle" x="234.5" y="-619.5" font-family="Helvetica,sans-Serif" font-size="10.00">::TestCaseInfo &gt;</text>
<polyline fill="none" stroke="black" points="169,-612.5 300,-612.5 "/>
<text text-anchor="middle" x="234.5" y="-600.5" font-family="Helvetica,sans-Serif" font-size="10.00"> </text>
<polyline fill="none" stroke="black" points="169,-593.5 300,-593.5 "/>
<text text-anchor="start" x="177" y="-581.5" font-family="Helvetica,sans-Serif" font-size="10.00">+ operator=()</text>
<text text-anchor="start" x="177" y="-570.5" font-family="Helvetica,sans-Serif" font-size="10.00">+ reset()</text>
</a>
</g>
</g>
<!-- Node4&#45;&gt;Node2 -->
<g id="edge3" class="edge">
<title>Node4&#45;&gt;Node2</title>
<path fill="none" stroke="#404040" d="M252.84,-563.4C265.43,-539.98 283.93,-510.7 306.5,-490 350.7,-449.48 410.05,-417.85 459.15,-396.11"/>
<polygon fill="none" stroke="#404040" points="459.42,-395.99 463.33,-389.93 470.43,-391.21 466.52,-397.27 459.42,-395.99"/>
<text text-anchor="middle" x="361" y="-493" font-family="Helvetica,sans-Serif" font-size="10.00"> +currentTestCaseInfo</text>
</g>
<!-- Node5 -->
<g id="node5" class="node">
<title>Node5</title>
<g id="a_node5"><a xlink:href="class_catch_1_1_option.html" target="_top" xlink:title=" ">
<polygon fill="white" stroke="black" points="173.5,-745.5 173.5,-923.5 295.5,-923.5 295.5,-745.5 173.5,-745.5"/>
<text text-anchor="start" x="181.5" y="-911.5" font-family="Helvetica,sans-Serif" font-size="10.00">Catch::Option&lt; Catch</text>
<text text-anchor="middle" x="234.5" y="-900.5" font-family="Helvetica,sans-Serif" font-size="10.00">::TestCaseInfo &gt;</text>
<polyline fill="none" stroke="black" points="173.5,-893.5 295.5,-893.5 "/>
<text text-anchor="middle" x="234.5" y="-881.5" font-family="Helvetica,sans-Serif" font-size="10.00"> </text>
<polyline fill="none" stroke="black" points="173.5,-874.5 295.5,-874.5 "/>
<text text-anchor="start" x="181.5" y="-862.5" font-family="Helvetica,sans-Serif" font-size="10.00">+ Option()</text>
<text text-anchor="start" x="181.5" y="-851.5" font-family="Helvetica,sans-Serif" font-size="10.00">+ Option()</text>
<text text-anchor="start" x="181.5" y="-840.5" font-family="Helvetica,sans-Serif" font-size="10.00">+ Option()</text>
<text text-anchor="start" x="181.5" y="-829.5" font-family="Helvetica,sans-Serif" font-size="10.00">+ Option()</text>
<text text-anchor="start" x="181.5" y="-818.5" font-family="Helvetica,sans-Serif" font-size="10.00">+ Option()</text>
<text text-anchor="start" x="181.5" y="-807.5" font-family="Helvetica,sans-Serif" font-size="10.00">+ Option()</text>
<text text-anchor="start" x="181.5" y="-796.5" font-family="Helvetica,sans-Serif" font-size="10.00">+ ~Option()</text>
<text text-anchor="start" x="181.5" y="-785.5" font-family="Helvetica,sans-Serif" font-size="10.00">+ ~Option()</text>
<text text-anchor="start" x="181.5" y="-774.5" font-family="Helvetica,sans-Serif" font-size="10.00">+ operator=()</text>
<text text-anchor="start" x="181.5" y="-763.5" font-family="Helvetica,sans-Serif" font-size="10.00">+ operator=()</text>
<text text-anchor="start" x="181.5" y="-752.5" font-family="Helvetica,sans-Serif" font-size="10.00">and 22 more...</text>
</a>
</g>
</g>
<!-- Node5&#45;&gt;Node4 -->
<g id="edge4" class="edge">
<title>Node5&#45;&gt;Node4</title>
<path fill="none" stroke="midnightblue" d="M234.5,-735.35C234.5,-702.67 234.5,-668.14 234.5,-642.7"/>
<polygon fill="none" stroke="midnightblue" points="231,-735.43 234.5,-745.43 238,-735.43 231,-735.43"/>
</g>
<!-- Node6 -->
<g id="node6" class="node">
<title>Node6</title>
<g id="a_node6"><a xlink:href="classbool.html" target="_top" xlink:title=" ">
<polygon fill="white" stroke="black" points="513.5,-806 513.5,-863 551.5,-863 551.5,-806 513.5,-806"/>
<text text-anchor="middle" x="532.5" y="-851" font-family="Helvetica,sans-Serif" font-size="10.00">bool</text>
<polyline fill="none" stroke="black" points="513.5,-844 551.5,-844 "/>
<text text-anchor="middle" x="532.5" y="-832" font-family="Helvetica,sans-Serif" font-size="10.00"> </text>
<polyline fill="none" stroke="black" points="513.5,-825 551.5,-825 "/>
<text text-anchor="middle" x="532.5" y="-813" font-family="Helvetica,sans-Serif" font-size="10.00"> </text>
</a>
</g>
</g>
<!-- Node6&#45;&gt;Node4 -->
<g id="edge5" class="edge">
<title>Node6&#45;&gt;Node4</title>
<path fill="none" stroke="#404040" d="M513.39,-806.06C498.83,-786.82 477.28,-761.67 453.5,-745 425.08,-725.08 336.91,-706.93 308.5,-687 294.77,-677.37 281.84,-664.72 270.74,-652.21"/>
<polygon fill="none" stroke="#404040" points="270.43,-651.84 263.49,-649.88 262.64,-642.72 269.57,-644.68 270.43,-651.84"/>
<text text-anchor="middle" x="429" y="-713.5" font-family="Helvetica,sans-Serif" font-size="10.00"> +used</text>
</g>
<!-- Node7 -->
<g id="node7" class="node">
<title>Node7</title>
<g id="a_node7"><a xlink:href="struct_catch_1_1_lazy_stat.html" target="_top" xlink:title=" ">
<polygon fill="white" stroke="black" points="722,-563.5 722,-642.5 853,-642.5 853,-563.5 722,-563.5"/>
<text text-anchor="start" x="730" y="-630.5" font-family="Helvetica,sans-Serif" font-size="10.00">Catch::LazyStat&lt; Catch</text>
<text text-anchor="middle" x="787.5" y="-619.5" font-family="Helvetica,sans-Serif" font-size="10.00">::TestRunInfo &gt;</text>
<polyline fill="none" stroke="black" points="722,-612.5 853,-612.5 "/>
<text text-anchor="middle" x="787.5" y="-600.5" font-family="Helvetica,sans-Serif" font-size="10.00"> </text>
<polyline fill="none" stroke="black" points="722,-593.5 853,-593.5 "/>
<text text-anchor="start" x="730" y="-581.5" font-family="Helvetica,sans-Serif" font-size="10.00">+ operator=()</text>
<text text-anchor="start" x="730" y="-570.5" font-family="Helvetica,sans-Serif" font-size="10.00">+ reset()</text>
</a>
</g>
</g>
<!-- Node6&#45;&gt;Node7 -->
<g id="edge8" class="edge">
<title>Node6&#45;&gt;Node7</title>
<path fill="none" stroke="#404040" d="M551.6,-825.93C586.84,-811.21 663.01,-775.84 712.5,-727 733.88,-705.9 751.71,-677.53 764.61,-653.35"/>
<polygon fill="none" stroke="#404040" points="764.67,-653.23 763.88,-646.06 770.19,-642.57 770.98,-649.74 764.67,-653.23"/>
<text text-anchor="middle" x="748" y="-713.5" font-family="Helvetica,sans-Serif" font-size="10.00"> +used</text>
</g>
<!-- Node10 -->
<g id="node10" class="node">
<title>Node10</title>
<g id="a_node10"><a xlink:href="struct_catch_1_1_lazy_stat.html" target="_top" xlink:title=" ">
<polygon fill="white" stroke="black" points="318,-563.5 318,-642.5 449,-642.5 449,-563.5 318,-563.5"/>
<text text-anchor="start" x="326" y="-630.5" font-family="Helvetica,sans-Serif" font-size="10.00">Catch::LazyStat&lt; Catch</text>
<text text-anchor="middle" x="383.5" y="-619.5" font-family="Helvetica,sans-Serif" font-size="10.00">::GroupInfo &gt;</text>
<polyline fill="none" stroke="black" points="318,-612.5 449,-612.5 "/>
<text text-anchor="middle" x="383.5" y="-600.5" font-family="Helvetica,sans-Serif" font-size="10.00"> </text>
<polyline fill="none" stroke="black" points="318,-593.5 449,-593.5 "/>
<text text-anchor="start" x="326" y="-581.5" font-family="Helvetica,sans-Serif" font-size="10.00">+ operator=()</text>
<text text-anchor="start" x="326" y="-570.5" font-family="Helvetica,sans-Serif" font-size="10.00">+ reset()</text>
</a>
</g>
</g>
<!-- Node6&#45;&gt;Node10 -->
<g id="edge12" class="edge">
<title>Node6&#45;&gt;Node10</title>
<path fill="none" stroke="#404040" d="M517.81,-805.87C503.48,-779.47 480.67,-738.79 458.5,-705 446.99,-687.46 433.56,-668.86 421.27,-652.47"/>
<polygon fill="none" stroke="#404040" points="421.03,-652.15 414.22,-649.77 413.79,-642.57 420.6,-644.95 421.03,-652.15"/>
<text text-anchor="middle" x="489" y="-713.5" font-family="Helvetica,sans-Serif" font-size="10.00"> +used</text>
</g>
<!-- Node12 -->
<g id="node12" class="node">
<title>Node12</title>
<g id="a_node12"><a xlink:href="struct_catch_1_1_reporter_preferences.html" target="_top" xlink:title=" ">
<polygon fill="white" stroke="black" points="553.5,-574.5 553.5,-631.5 703.5,-631.5 703.5,-574.5 553.5,-574.5"/>
<text text-anchor="middle" x="628.5" y="-619.5" font-family="Helvetica,sans-Serif" font-size="10.00">Catch::ReporterPreferences</text>
<polyline fill="none" stroke="black" points="553.5,-612.5 703.5,-612.5 "/>
<text text-anchor="middle" x="628.5" y="-600.5" font-family="Helvetica,sans-Serif" font-size="10.00"> </text>
<polyline fill="none" stroke="black" points="553.5,-593.5 703.5,-593.5 "/>
<text text-anchor="middle" x="628.5" y="-581.5" font-family="Helvetica,sans-Serif" font-size="10.00"> </text>
</a>
</g>
</g>
<!-- Node6&#45;&gt;Node12 -->
<g id="edge14" class="edge">
<title>Node6&#45;&gt;Node12</title>
<path fill="none" stroke="#404040" d="M539.35,-805.84C546.3,-779.42 558.08,-738.73 572.5,-705 581.72,-683.42 594.22,-660.47 605.06,-641.9"/>
<polygon fill="none" stroke="#404040" points="605.1,-641.84 604.72,-634.64 611.22,-631.52 611.6,-638.72 605.1,-641.84"/>
<text text-anchor="middle" x="642.5" y="-719" font-family="Helvetica,sans-Serif" font-size="10.00"> +shouldReportAllAssertions</text>
<text text-anchor="middle" x="642.5" y="-708" font-family="Helvetica,sans-Serif" font-size="10.00">+shouldRedirectStdOut</text>
</g>
<!-- Node7&#45;&gt;Node2 -->
<g id="edge6" class="edge">
<title>Node7&#45;&gt;Node2</title>
<path fill="none" stroke="#404040" d="M754.94,-563.33C736.05,-541.35 711.5,-513.61 688.5,-490 673.08,-474.17 656.2,-457.76 639.69,-442.17"/>
<polygon fill="none" stroke="#404040" points="639.32,-441.82 632.21,-440.62 630.58,-433.6 637.69,-434.79 639.32,-441.82"/>
<text text-anchor="middle" x="748" y="-493" font-family="Helvetica,sans-Serif" font-size="10.00"> +currentTestRunInfo</text>
</g>
<!-- Node8 -->
<g id="node8" class="node">
<title>Node8</title>
<g id="a_node8"><a xlink:href="class_catch_1_1_option.html" target="_top" xlink:title=" ">
<polygon fill="white" stroke="black" points="726.5,-745.5 726.5,-923.5 848.5,-923.5 848.5,-745.5 726.5,-745.5"/>
<text text-anchor="start" x="734.5" y="-911.5" font-family="Helvetica,sans-Serif" font-size="10.00">Catch::Option&lt; Catch</text>
<text text-anchor="middle" x="787.5" y="-900.5" font-family="Helvetica,sans-Serif" font-size="10.00">::TestRunInfo &gt;</text>
<polyline fill="none" stroke="black" points="726.5,-893.5 848.5,-893.5 "/>
<text text-anchor="middle" x="787.5" y="-881.5" font-family="Helvetica,sans-Serif" font-size="10.00"> </text>
<polyline fill="none" stroke="black" points="726.5,-874.5 848.5,-874.5 "/>
<text text-anchor="start" x="734.5" y="-862.5" font-family="Helvetica,sans-Serif" font-size="10.00">+ Option()</text>
<text text-anchor="start" x="734.5" y="-851.5" font-family="Helvetica,sans-Serif" font-size="10.00">+ Option()</text>
<text text-anchor="start" x="734.5" y="-840.5" font-family="Helvetica,sans-Serif" font-size="10.00">+ Option()</text>
<text text-anchor="start" x="734.5" y="-829.5" font-family="Helvetica,sans-Serif" font-size="10.00">+ Option()</text>
<text text-anchor="start" x="734.5" y="-818.5" font-family="Helvetica,sans-Serif" font-size="10.00">+ Option()</text>
<text text-anchor="start" x="734.5" y="-807.5" font-family="Helvetica,sans-Serif" font-size="10.00">+ Option()</text>
<text text-anchor="start" x="734.5" y="-796.5" font-family="Helvetica,sans-Serif" font-size="10.00">+ ~Option()</text>
<text text-anchor="start" x="734.5" y="-785.5" font-family="Helvetica,sans-Serif" font-size="10.00">+ ~Option()</text>
<text text-anchor="start" x="734.5" y="-774.5" font-family="Helvetica,sans-Serif" font-size="10.00">+ operator=()</text>
<text text-anchor="start" x="734.5" y="-763.5" font-family="Helvetica,sans-Serif" font-size="10.00">+ operator=()</text>
<text text-anchor="start" x="734.5" y="-752.5" font-family="Helvetica,sans-Serif" font-size="10.00">and 22 more...</text>
</a>
</g>
</g>
<!-- Node8&#45;&gt;Node7 -->
<g id="edge7" class="edge">
<title>Node8&#45;&gt;Node7</title>
<path fill="none" stroke="midnightblue" d="M787.5,-735.35C787.5,-702.67 787.5,-668.14 787.5,-642.7"/>
<polygon fill="none" stroke="midnightblue" points="784,-735.43 787.5,-745.43 791,-735.43 784,-735.43"/>
</g>
<!-- Node9 -->
<g id="node9" class="node">
<title>Node9</title>
<g id="a_node9"><a xlink:title=" ">
<polygon fill="white" stroke="#bfbfbf" points="467.5,-574.5 467.5,-631.5 535.5,-631.5 535.5,-574.5 467.5,-574.5"/>
<text text-anchor="middle" x="501.5" y="-619.5" font-family="Helvetica,sans-Serif" font-size="10.00">ostream &amp;</text>
<polyline fill="none" stroke="#bfbfbf" points="467.5,-612.5 535.5,-612.5 "/>
<text text-anchor="middle" x="501.5" y="-600.5" font-family="Helvetica,sans-Serif" font-size="10.00"> </text>
<polyline fill="none" stroke="#bfbfbf" points="467.5,-593.5 535.5,-593.5 "/>
<text text-anchor="middle" x="501.5" y="-581.5" font-family="Helvetica,sans-Serif" font-size="10.00"> </text>
</a>
</g>
</g>
<!-- Node9&#45;&gt;Node2 -->
<g id="edge9" class="edge">
<title>Node9&#45;&gt;Node2</title>
<path fill="none" stroke="#404040" d="M507.12,-574.41C511.75,-551.68 518.67,-517.73 525.63,-483.58"/>
<polygon fill="none" stroke="#404040" points="525.69,-483.27 522.97,-476.59 528.09,-471.51 530.81,-478.19 525.69,-483.27"/>
<text text-anchor="middle" x="545.5" y="-493" font-family="Helvetica,sans-Serif" font-size="10.00"> +stream</text>
</g>
<!-- Node10&#45;&gt;Node2 -->
<g id="edge10" class="edge">
<title>Node10&#45;&gt;Node2</title>
<path fill="none" stroke="#404040" d="M393.23,-563.33C399.94,-540.85 410.24,-512.59 424.5,-490 435.17,-473.11 448.37,-456.63 462.17,-441.43"/>
<polygon fill="none" stroke="#404040" points="462.18,-441.41 463.34,-434.3 470.35,-432.63 469.2,-439.74 462.18,-441.41"/>
<text text-anchor="middle" x="471.5" y="-493" font-family="Helvetica,sans-Serif" font-size="10.00"> +currentGroupInfo</text>
</g>
<!-- Node11 -->
<g id="node11" class="node">
<title>Node11</title>
<g id="a_node11"><a xlink:href="class_catch_1_1_option.html" target="_top" xlink:title=" ">
<polygon fill="white" stroke="black" points="322.5,-745.5 322.5,-923.5 444.5,-923.5 444.5,-745.5 322.5,-745.5"/>
<text text-anchor="start" x="330.5" y="-911.5" font-family="Helvetica,sans-Serif" font-size="10.00">Catch::Option&lt; Catch</text>
<text text-anchor="middle" x="383.5" y="-900.5" font-family="Helvetica,sans-Serif" font-size="10.00">::GroupInfo &gt;</text>
<polyline fill="none" stroke="black" points="322.5,-893.5 444.5,-893.5 "/>
<text text-anchor="middle" x="383.5" y="-881.5" font-family="Helvetica,sans-Serif" font-size="10.00"> </text>
<polyline fill="none" stroke="black" points="322.5,-874.5 444.5,-874.5 "/>
<text text-anchor="start" x="330.5" y="-862.5" font-family="Helvetica,sans-Serif" font-size="10.00">+ Option()</text>
<text text-anchor="start" x="330.5" y="-851.5" font-family="Helvetica,sans-Serif" font-size="10.00">+ Option()</text>
<text text-anchor="start" x="330.5" y="-840.5" font-family="Helvetica,sans-Serif" font-size="10.00">+ Option()</text>
<text text-anchor="start" x="330.5" y="-829.5" font-family="Helvetica,sans-Serif" font-size="10.00">+ Option()</text>
<text text-anchor="start" x="330.5" y="-818.5" font-family="Helvetica,sans-Serif" font-size="10.00">+ Option()</text>
<text text-anchor="start" x="330.5" y="-807.5" font-family="Helvetica,sans-Serif" font-size="10.00">+ Option()</text>
<text text-anchor="start" x="330.5" y="-796.5" font-family="Helvetica,sans-Serif" font-size="10.00">+ ~Option()</text>
<text text-anchor="start" x="330.5" y="-785.5" font-family="Helvetica,sans-Serif" font-size="10.00">+ ~Option()</text>
<text text-anchor="start" x="330.5" y="-774.5" font-family="Helvetica,sans-Serif" font-size="10.00">+ operator=()</text>
<text text-anchor="start" x="330.5" y="-763.5" font-family="Helvetica,sans-Serif" font-size="10.00">+ operator=()</text>
<text text-anchor="start" x="330.5" y="-752.5" font-family="Helvetica,sans-Serif" font-size="10.00">and 22 more...</text>
</a>
</g>
</g>
<!-- Node11&#45;&gt;Node10 -->
<g id="edge11" class="edge">
<title>Node11&#45;&gt;Node10</title>
<path fill="none" stroke="midnightblue" d="M383.5,-735.35C383.5,-702.67 383.5,-668.14 383.5,-642.7"/>
<polygon fill="none" stroke="midnightblue" points="380,-735.43 383.5,-745.43 387,-735.43 380,-735.43"/>
</g>
<!-- Node12&#45;&gt;Node2 -->
<g id="edge13" class="edge">
<title>Node12&#45;&gt;Node2</title>
<path fill="none" stroke="#404040" d="M619.55,-574.41C612.15,-551.58 601.07,-517.43 589.95,-483.13"/>
<polygon fill="none" stroke="#404040" points="589.88,-482.93 584.23,-478.45 586.18,-471.51 591.84,-475.98 589.88,-482.93"/>
<text text-anchor="middle" x="639" y="-493" font-family="Helvetica,sans-Serif" font-size="10.00"> +m_reporterPrefs</text>
</g>
<!-- Node13 -->
<g id="node13" class="node">
<title>Node13</title>
<g id="a_node13"><a xlink:title=" ">
<polygon fill="white" stroke="#bfbfbf" points="871,-569 871,-637 984,-637 984,-569 871,-569"/>
<text text-anchor="start" x="879" y="-625" font-family="Helvetica,sans-Serif" font-size="10.00">shared_ptr&lt; IConfig</text>
<text text-anchor="middle" x="927.5" y="-614" font-family="Helvetica,sans-Serif" font-size="10.00"> const &gt;</text>
<polyline fill="none" stroke="#bfbfbf" points="871,-607 984,-607 "/>
<text text-anchor="middle" x="927.5" y="-595" font-family="Helvetica,sans-Serif" font-size="10.00"> </text>
<polyline fill="none" stroke="#bfbfbf" points="871,-588 984,-588 "/>
<text text-anchor="middle" x="927.5" y="-576" font-family="Helvetica,sans-Serif" font-size="10.00"> </text>
</a>
</g>
</g>
<!-- Node13&#45;&gt;Node2 -->
<g id="edge15" class="edge">
<title>Node13&#45;&gt;Node2</title>
<path fill="none" stroke="#404040" d="M906.62,-568.82C895.08,-552.36 879.62,-533.04 862.5,-519 796.09,-464.53 707.72,-422.14 641.99,-395.13"/>
<polygon fill="none" stroke="#404040" points="641.94,-395.1 634.87,-396.55 630.82,-390.59 637.88,-389.14 641.94,-395.1"/>
<text text-anchor="middle" x="859.5" y="-493" font-family="Helvetica,sans-Serif" font-size="10.00"> +m_config</text>
</g>
<!-- Node14 -->
<g id="node14" class="node">
<title>Node14</title>
<g id="a_node14"><a xlink:title=" ">
<polygon fill="white" stroke="#bfbfbf" points="1002.5,-574.5 1002.5,-631.5 1160.5,-631.5 1160.5,-574.5 1002.5,-574.5"/>
<text text-anchor="middle" x="1081.5" y="-619.5" font-family="Helvetica,sans-Serif" font-size="10.00">vector&lt; Catch::SectionInfo &gt;</text>
<polyline fill="none" stroke="#bfbfbf" points="1002.5,-612.5 1160.5,-612.5 "/>
<text text-anchor="middle" x="1081.5" y="-600.5" font-family="Helvetica,sans-Serif" font-size="10.00"> </text>
<polyline fill="none" stroke="#bfbfbf" points="1002.5,-593.5 1160.5,-593.5 "/>
<text text-anchor="middle" x="1081.5" y="-581.5" font-family="Helvetica,sans-Serif" font-size="10.00"> </text>
</a>
</g>
</g>
<!-- Node14&#45;&gt;Node2 -->
<g id="edge16" class="edge">
<title>Node14&#45;&gt;Node2</title>
<path fill="none" stroke="#404040" d="M1057.68,-574.21C1041.18,-556.39 1017.87,-533.9 993.5,-519 881.64,-450.59 735.75,-406.02 642.57,-382.31"/>
<polygon fill="none" stroke="#404040" points="642.54,-382.3 635.75,-384.72 630.91,-379.38 637.7,-376.96 642.54,-382.3"/>
<text text-anchor="middle" x="1005" y="-493" font-family="Helvetica,sans-Serif" font-size="10.00"> +m_sectionStack</text>
</g>
</g>
</svg>
