<?xml version="1.0" encoding="UTF-8" standalone="no"?>
<!DOCTYPE svg PUBLIC "-//W3C//DTD SVG 1.1//EN"
 "http://www.w3.org/Graphics/SVG/1.1/DTD/svg11.dtd">
<!-- Generated by graphviz version 2.43.0 (0)
 -->
<!-- Title: Catch::ConsoleReporter Pages: 1 -->
<!--zoomable 920 -->
<svg id="main" version="1.1" xmlns="http://www.w3.org/2000/svg" xmlns:xlink="http://www.w3.org/1999/xlink" xml:space="preserve" onload="init(evt)">
<style type="text/css"><![CDATA[
.edge:hover path { stroke: red; }
.edge:hover polygon { stroke: red; fill: red; }
]]></style>
<script type="text/javascript"><![CDATA[
var edges = document.getElementsByTagName('g');
if (edges && edges.length) {
  for (var i=0;i<edges.length;i++) {
    if (edges[i].id.substr(0,4)=='edge') {
      edges[i].setAttribute('class','edge');
    }
  }
}
]]></script>
        <defs>
                <circle id="rim" cx="0" cy="0" r="7"/>
                <circle id="rim2" cx="0" cy="0" r="3.5"/>
                <g id="zoomPlus">
                        <use xlink:href="#rim" fill="#404040">
                                <set attributeName="fill" to="#808080" begin="zoomplus.mouseover" end="zoomplus.mouseout"/>
                        </use>
                        <path d="M-4,0h8M0,-4v8" fill="none" stroke="white" stroke-width="1.5" pointer-events="none"/>
                </g>
                <g id="zoomMin">
                        <use xlink:href="#rim" fill="#404040">
                                <set attributeName="fill" to="#808080" begin="zoomminus.mouseover" end="zoomminus.mouseout"/>
                        </use>
                        <path d="M-4,0h8" fill="none" stroke="white" stroke-width="1.5" pointer-events="none"/>
                </g>
                <g id="dirArrow">
                        <path fill="none" stroke="white" stroke-width="1.5" d="M0,-3.0v7 M-2.5,-0.5L0,-3.0L2.5,-0.5"/>
                </g>
               <g id="resetDef">
                       <use xlink:href="#rim2" fill="#404040">
                               <set attributeName="fill" to="#808080" begin="reset.mouseover" end="reset.mouseout"/>
                       </use>
               </g>
        </defs>

<script type="text/javascript">
var viewWidth = 1169;
var viewHeight = 920;
var sectionId = 'dynsection-1';
</script>
<script xlink:href="svgpan.js"/>
<svg id="graph" class="graph">
<g id="viewport">
<title>Catch::ConsoleReporter</title>
<polygon fill="white" stroke="transparent" points="-4,4 -4,-916 1164.5,-916 1164.5,4 -4,4"/>
<!-- Node1 -->
<g id="node1" class="node">
<title>Node1</title>
<g id="a_node1"><a xlink:title=" ">
<polygon fill="#bfbfbf" stroke="black" points="552,-0.5 552,-189.5 703,-189.5 703,-0.5 552,-0.5"/>
<text text-anchor="middle" x="627.5" y="-177.5" font-family="Helvetica,sans-Serif" font-size="10.00">Catch::ConsoleReporter</text>
<polyline fill="none" stroke="black" points="552,-170.5 703,-170.5 "/>
<text text-anchor="middle" x="627.5" y="-158.5" font-family="Helvetica,sans-Serif" font-size="10.00"> </text>
<polyline fill="none" stroke="black" points="552,-151.5 703,-151.5 "/>
<text text-anchor="start" x="560" y="-139.5" font-family="Helvetica,sans-Serif" font-size="10.00">+ ConsoleReporter()</text>
<text text-anchor="start" x="560" y="-128.5" font-family="Helvetica,sans-Serif" font-size="10.00">+ ~ConsoleReporter()</text>
<text text-anchor="start" x="560" y="-117.5" font-family="Helvetica,sans-Serif" font-size="10.00">+ noMatchingTestCases()</text>
<text text-anchor="start" x="560" y="-106.5" font-family="Helvetica,sans-Serif" font-size="10.00">+ reportInvalidArguments()</text>
<text text-anchor="start" x="560" y="-95.5" font-family="Helvetica,sans-Serif" font-size="10.00">+ assertionStarting()</text>
<text text-anchor="start" x="560" y="-84.5" font-family="Helvetica,sans-Serif" font-size="10.00">+ assertionEnded()</text>
<text text-anchor="start" x="560" y="-73.5" font-family="Helvetica,sans-Serif" font-size="10.00">+ sectionStarting()</text>
<text text-anchor="start" x="560" y="-62.5" font-family="Helvetica,sans-Serif" font-size="10.00">+ sectionEnded()</text>
<text text-anchor="start" x="560" y="-51.5" font-family="Helvetica,sans-Serif" font-size="10.00">+ testCaseEnded()</text>
<text text-anchor="start" x="560" y="-40.5" font-family="Helvetica,sans-Serif" font-size="10.00">+ testGroupEnded()</text>
<text text-anchor="start" x="560" y="-29.5" font-family="Helvetica,sans-Serif" font-size="10.00">+ testRunEnded()</text>
<text text-anchor="start" x="560" y="-18.5" font-family="Helvetica,sans-Serif" font-size="10.00">+ testRunStarting()</text>
<text text-anchor="start" x="560" y="-7.5" font-family="Helvetica,sans-Serif" font-size="10.00">+ getDescription()</text>
</a>
</g>
</g>
<!-- Node2 -->
<g id="node2" class="node">
<title>Node2</title>
<g id="a_node2"><a xlink:href="struct_catch_1_1_streaming_reporter_base.html" target="_top" xlink:title=" ">
<polygon fill="white" stroke="black" points="470.5,-237.5 470.5,-459.5 630.5,-459.5 630.5,-237.5 470.5,-237.5"/>
<text text-anchor="start" x="478.5" y="-447.5" font-family="Helvetica,sans-Serif" font-size="10.00">Catch::StreamingReporter</text>
<text text-anchor="middle" x="550.5" y="-436.5" font-family="Helvetica,sans-Serif" font-size="10.00">Base&lt; ConsoleReporter &gt;</text>
<polyline fill="none" stroke="black" points="470.5,-429.5 630.5,-429.5 "/>
<text text-anchor="middle" x="550.5" y="-417.5" font-family="Helvetica,sans-Serif" font-size="10.00"> </text>
<polyline fill="none" stroke="black" points="470.5,-410.5 630.5,-410.5 "/>
<text text-anchor="start" x="478.5" y="-398.5" font-family="Helvetica,sans-Serif" font-size="10.00">+ StreamingReporterBase()</text>
<text text-anchor="start" x="478.5" y="-387.5" font-family="Helvetica,sans-Serif" font-size="10.00">+ getPreferences()</text>
<text text-anchor="start" x="478.5" y="-376.5" font-family="Helvetica,sans-Serif" font-size="10.00">+ ~StreamingReporterBase()</text>
<text text-anchor="start" x="478.5" y="-365.5" font-family="Helvetica,sans-Serif" font-size="10.00">+ noMatchingTestCases()</text>
<text text-anchor="start" x="478.5" y="-354.5" font-family="Helvetica,sans-Serif" font-size="10.00">+ reportInvalidArguments()</text>
<text text-anchor="start" x="478.5" y="-343.5" font-family="Helvetica,sans-Serif" font-size="10.00">+ testRunStarting()</text>
<text text-anchor="start" x="478.5" y="-332.5" font-family="Helvetica,sans-Serif" font-size="10.00">+ testGroupStarting()</text>
<text text-anchor="start" x="478.5" y="-321.5" font-family="Helvetica,sans-Serif" font-size="10.00">+ testCaseStarting()</text>
<text text-anchor="start" x="478.5" y="-310.5" font-family="Helvetica,sans-Serif" font-size="10.00">+ sectionStarting()</text>
<text text-anchor="start" x="478.5" y="-299.5" font-family="Helvetica,sans-Serif" font-size="10.00">+ sectionEnded()</text>
<text text-anchor="start" x="478.5" y="-288.5" font-family="Helvetica,sans-Serif" font-size="10.00">+ testCaseEnded()</text>
<text text-anchor="start" x="478.5" y="-277.5" font-family="Helvetica,sans-Serif" font-size="10.00">+ testGroupEnded()</text>
<text text-anchor="start" x="478.5" y="-266.5" font-family="Helvetica,sans-Serif" font-size="10.00">+ testRunEnded()</text>
<text text-anchor="start" x="478.5" y="-255.5" font-family="Helvetica,sans-Serif" font-size="10.00">+ skipTest()</text>
<text text-anchor="start" x="478.5" y="-244.5" font-family="Helvetica,sans-Serif" font-size="10.00">+ getSupportedVerbosities()</text>
</a>
</g>
</g>
<!-- Node2&#45;&gt;Node1 -->
<g id="edge1" class="edge">
<title>Node2&#45;&gt;Node1</title>
<path fill="none" stroke="midnightblue" d="M587.24,-227.5C591.12,-214.81 595.04,-202.04 598.81,-189.71"/>
<polygon fill="none" stroke="midnightblue" points="583.85,-226.6 584.27,-237.19 590.55,-228.65 583.85,-226.6"/>
</g>
<!-- Node3 -->
<g id="node3" class="node">
<title>Node3</title>
<g id="a_node3"><a xlink:href="struct_catch_1_1_i_streaming_reporter.html" target="_top" xlink:title=" ">
<polygon fill="white" stroke="black" points="0,-507.5 0,-674.5 151,-674.5 151,-507.5 0,-507.5"/>
<text text-anchor="middle" x="75.5" y="-662.5" font-family="Helvetica,sans-Serif" font-size="10.00">Catch::IStreamingReporter</text>
<polyline fill="none" stroke="black" points="0,-655.5 151,-655.5 "/>
<text text-anchor="middle" x="75.5" y="-643.5" font-family="Helvetica,sans-Serif" font-size="10.00"> </text>
<polyline fill="none" stroke="black" points="0,-636.5 151,-636.5 "/>
<text text-anchor="start" x="8" y="-624.5" font-family="Helvetica,sans-Serif" font-size="10.00">+ ~IStreamingReporter()</text>
<text text-anchor="start" x="8" y="-613.5" font-family="Helvetica,sans-Serif" font-size="10.00">+ getPreferences()</text>
<text text-anchor="start" x="8" y="-602.5" font-family="Helvetica,sans-Serif" font-size="10.00">+ noMatchingTestCases()</text>
<text text-anchor="start" x="8" y="-591.5" font-family="Helvetica,sans-Serif" font-size="10.00">+ reportInvalidArguments()</text>
<text text-anchor="start" x="8" y="-580.5" font-family="Helvetica,sans-Serif" font-size="10.00">+ testRunStarting()</text>
<text text-anchor="start" x="8" y="-569.5" font-family="Helvetica,sans-Serif" font-size="10.00">+ testGroupStarting()</text>
<text text-anchor="start" x="8" y="-558.5" font-family="Helvetica,sans-Serif" font-size="10.00">+ testCaseStarting()</text>
<text text-anchor="start" x="8" y="-547.5" font-family="Helvetica,sans-Serif" font-size="10.00">+ sectionStarting()</text>
<text text-anchor="start" x="8" y="-536.5" font-family="Helvetica,sans-Serif" font-size="10.00">+ assertionStarting()</text>
<text text-anchor="start" x="8" y="-525.5" font-family="Helvetica,sans-Serif" font-size="10.00">+ assertionEnded()</text>
<text text-anchor="start" x="8" y="-514.5" font-family="Helvetica,sans-Serif" font-size="10.00">and 7 more...</text>
</a>
</g>
</g>
<!-- Node3&#45;&gt;Node2 -->
<g id="edge2" class="edge">
<title>Node3&#45;&gt;Node2</title>
<path fill="none" stroke="midnightblue" d="M159.23,-507.17C159.32,-507.12 159.41,-507.06 159.5,-507 258.29,-442.11 388.04,-396.41 470.38,-371.52"/>
<polygon fill="none" stroke="midnightblue" points="157.27,-504.27 151.07,-512.87 161.28,-510.02 157.27,-504.27"/>
</g>
<!-- Node4 -->
<g id="node4" class="node">
<title>Node4</title>
<g id="a_node4"><a xlink:href="struct_catch_1_1_lazy_stat.html" target="_top" xlink:title=" ">
<polygon fill="white" stroke="black" points="169,-551.5 169,-630.5 300,-630.5 300,-551.5 169,-551.5"/>
<text text-anchor="start" x="177" y="-618.5" font-family="Helvetica,sans-Serif" font-size="10.00">Catch::LazyStat&lt; Catch</text>
<text text-anchor="middle" x="234.5" y="-607.5" font-family="Helvetica,sans-Serif" font-size="10.00">::TestCaseInfo &gt;</text>
<polyline fill="none" stroke="black" points="169,-600.5 300,-600.5 "/>
<text text-anchor="middle" x="234.5" y="-588.5" font-family="Helvetica,sans-Serif" font-size="10.00"> </text>
<polyline fill="none" stroke="black" points="169,-581.5 300,-581.5 "/>
<text text-anchor="start" x="177" y="-569.5" font-family="Helvetica,sans-Serif" font-size="10.00">+ operator=()</text>
<text text-anchor="start" x="177" y="-558.5" font-family="Helvetica,sans-Serif" font-size="10.00">+ reset()</text>
</a>
</g>
</g>
<!-- Node4&#45;&gt;Node2 -->
<g id="edge3" class="edge">
<title>Node4&#45;&gt;Node2</title>
<path fill="none" stroke="#404040" d="M253.59,-551.45C266.62,-528.04 285.65,-498.77 308.5,-478 352.35,-438.16 410.81,-406.67 459.29,-384.83"/>
<polygon fill="none" stroke="#404040" points="459.45,-384.76 463.32,-378.68 470.43,-379.91 466.56,-385.99 459.45,-384.76"/>
<text text-anchor="middle" x="363" y="-481" font-family="Helvetica,sans-Serif" font-size="10.00"> +currentTestCaseInfo</text>
</g>
<!-- Node5 -->
<g id="node5" class="node">
<title>Node5</title>
<g id="a_node5"><a xlink:href="class_catch_1_1_option.html" target="_top" xlink:title=" ">
<polygon fill="white" stroke="black" points="173.5,-733.5 173.5,-911.5 295.5,-911.5 295.5,-733.5 173.5,-733.5"/>
<text text-anchor="start" x="181.5" y="-899.5" font-family="Helvetica,sans-Serif" font-size="10.00">Catch::Option&lt; Catch</text>
<text text-anchor="middle" x="234.5" y="-888.5" font-family="Helvetica,sans-Serif" font-size="10.00">::TestCaseInfo &gt;</text>
<polyline fill="none" stroke="black" points="173.5,-881.5 295.5,-881.5 "/>
<text text-anchor="middle" x="234.5" y="-869.5" font-family="Helvetica,sans-Serif" font-size="10.00"> </text>
<polyline fill="none" stroke="black" points="173.5,-862.5 295.5,-862.5 "/>
<text text-anchor="start" x="181.5" y="-850.5" font-family="Helvetica,sans-Serif" font-size="10.00">+ Option()</text>
<text text-anchor="start" x="181.5" y="-839.5" font-family="Helvetica,sans-Serif" font-size="10.00">+ Option()</text>
<text text-anchor="start" x="181.5" y="-828.5" font-family="Helvetica,sans-Serif" font-size="10.00">+ Option()</text>
<text text-anchor="start" x="181.5" y="-817.5" font-family="Helvetica,sans-Serif" font-size="10.00">+ Option()</text>
<text text-anchor="start" x="181.5" y="-806.5" font-family="Helvetica,sans-Serif" font-size="10.00">+ Option()</text>
<text text-anchor="start" x="181.5" y="-795.5" font-family="Helvetica,sans-Serif" font-size="10.00">+ Option()</text>
<text text-anchor="start" x="181.5" y="-784.5" font-family="Helvetica,sans-Serif" font-size="10.00">+ ~Option()</text>
<text text-anchor="start" x="181.5" y="-773.5" font-family="Helvetica,sans-Serif" font-size="10.00">+ ~Option()</text>
<text text-anchor="start" x="181.5" y="-762.5" font-family="Helvetica,sans-Serif" font-size="10.00">+ operator=()</text>
<text text-anchor="start" x="181.5" y="-751.5" font-family="Helvetica,sans-Serif" font-size="10.00">+ operator=()</text>
<text text-anchor="start" x="181.5" y="-740.5" font-family="Helvetica,sans-Serif" font-size="10.00">and 22 more...</text>
</a>
</g>
</g>
<!-- Node5&#45;&gt;Node4 -->
<g id="edge4" class="edge">
<title>Node5&#45;&gt;Node4</title>
<path fill="none" stroke="midnightblue" d="M234.5,-723.35C234.5,-690.67 234.5,-656.14 234.5,-630.7"/>
<polygon fill="none" stroke="midnightblue" points="231,-723.43 234.5,-733.43 238,-723.43 231,-723.43"/>
</g>
<!-- Node6 -->
<g id="node6" class="node">
<title>Node6</title>
<g id="a_node6"><a xlink:href="classbool.html" target="_top" xlink:title=" ">
<polygon fill="white" stroke="black" points="513.5,-794 513.5,-851 551.5,-851 551.5,-794 513.5,-794"/>
<text text-anchor="middle" x="532.5" y="-839" font-family="Helvetica,sans-Serif" font-size="10.00">bool</text>
<polyline fill="none" stroke="black" points="513.5,-832 551.5,-832 "/>
<text text-anchor="middle" x="532.5" y="-820" font-family="Helvetica,sans-Serif" font-size="10.00"> </text>
<polyline fill="none" stroke="black" points="513.5,-813 551.5,-813 "/>
<text text-anchor="middle" x="532.5" y="-801" font-family="Helvetica,sans-Serif" font-size="10.00"> </text>
</a>
</g>
</g>
<!-- Node6&#45;&gt;Node4 -->
<g id="edge5" class="edge">
<title>Node6&#45;&gt;Node4</title>
<path fill="none" stroke="#404040" d="M513.39,-794.06C498.83,-774.82 477.28,-749.67 453.5,-733 425.08,-713.08 336.91,-694.93 308.5,-675 294.77,-665.37 281.84,-652.72 270.74,-640.21"/>
<polygon fill="none" stroke="#404040" points="270.43,-639.84 263.49,-637.88 262.64,-630.72 269.57,-632.68 270.43,-639.84"/>
<text text-anchor="middle" x="430" y="-701.5" font-family="Helvetica,sans-Serif" font-size="10.00"> +used</text>
</g>
<!-- Node7 -->
<g id="node7" class="node">
<title>Node7</title>
<g id="a_node7"><a xlink:href="struct_catch_1_1_lazy_stat.html" target="_top" xlink:title=" ">
<polygon fill="white" stroke="black" points="722,-551.5 722,-630.5 853,-630.5 853,-551.5 722,-551.5"/>
<text text-anchor="start" x="730" y="-618.5" font-family="Helvetica,sans-Serif" font-size="10.00">Catch::LazyStat&lt; Catch</text>
<text text-anchor="middle" x="787.5" y="-607.5" font-family="Helvetica,sans-Serif" font-size="10.00">::TestRunInfo &gt;</text>
<polyline fill="none" stroke="black" points="722,-600.5 853,-600.5 "/>
<text text-anchor="middle" x="787.5" y="-588.5" font-family="Helvetica,sans-Serif" font-size="10.00"> </text>
<polyline fill="none" stroke="black" points="722,-581.5 853,-581.5 "/>
<text text-anchor="start" x="730" y="-569.5" font-family="Helvetica,sans-Serif" font-size="10.00">+ operator=()</text>
<text text-anchor="start" x="730" y="-558.5" font-family="Helvetica,sans-Serif" font-size="10.00">+ reset()</text>
</a>
</g>
</g>
<!-- Node6&#45;&gt;Node7 -->
<g id="edge8" class="edge">
<title>Node6&#45;&gt;Node7</title>
<path fill="none" stroke="#404040" d="M551.6,-813.93C586.84,-799.21 663.01,-763.84 712.5,-715 733.88,-693.9 751.71,-665.53 764.61,-641.35"/>
<polygon fill="none" stroke="#404040" points="764.67,-641.23 763.88,-634.06 770.19,-630.57 770.98,-637.74 764.67,-641.23"/>
<text text-anchor="middle" x="748" y="-701.5" font-family="Helvetica,sans-Serif" font-size="10.00"> +used</text>
</g>
<!-- Node10 -->
<g id="node10" class="node">
<title>Node10</title>
<g id="a_node10"><a xlink:href="struct_catch_1_1_lazy_stat.html" target="_top" xlink:title=" ">
<polygon fill="white" stroke="black" points="318,-551.5 318,-630.5 449,-630.5 449,-551.5 318,-551.5"/>
<text text-anchor="start" x="326" y="-618.5" font-family="Helvetica,sans-Serif" font-size="10.00">Catch::LazyStat&lt; Catch</text>
<text text-anchor="middle" x="383.5" y="-607.5" font-family="Helvetica,sans-Serif" font-size="10.00">::GroupInfo &gt;</text>
<polyline fill="none" stroke="black" points="318,-600.5 449,-600.5 "/>
<text text-anchor="middle" x="383.5" y="-588.5" font-family="Helvetica,sans-Serif" font-size="10.00"> </text>
<polyline fill="none" stroke="black" points="318,-581.5 449,-581.5 "/>
<text text-anchor="start" x="326" y="-569.5" font-family="Helvetica,sans-Serif" font-size="10.00">+ operator=()</text>
<text text-anchor="start" x="326" y="-558.5" font-family="Helvetica,sans-Serif" font-size="10.00">+ reset()</text>
</a>
</g>
</g>
<!-- Node6&#45;&gt;Node10 -->
<g id="edge12" class="edge">
<title>Node6&#45;&gt;Node10</title>
<path fill="none" stroke="#404040" d="M517.81,-793.87C503.48,-767.47 480.67,-726.79 458.5,-693 446.99,-675.46 433.56,-656.86 421.27,-640.47"/>
<polygon fill="none" stroke="#404040" points="421.03,-640.15 414.22,-637.77 413.79,-630.57 420.6,-632.95 421.03,-640.15"/>
<text text-anchor="middle" x="490" y="-701.5" font-family="Helvetica,sans-Serif" font-size="10.00"> +used</text>
</g>
<!-- Node12 -->
<g id="node12" class="node">
<title>Node12</title>
<g id="a_node12"><a xlink:href="struct_catch_1_1_reporter_preferences.html" target="_top" xlink:title=" ">
<polygon fill="white" stroke="black" points="553.5,-562.5 553.5,-619.5 703.5,-619.5 703.5,-562.5 553.5,-562.5"/>
<text text-anchor="middle" x="628.5" y="-607.5" font-family="Helvetica,sans-Serif" font-size="10.00">Catch::ReporterPreferences</text>
<polyline fill="none" stroke="black" points="553.5,-600.5 703.5,-600.5 "/>
<text text-anchor="middle" x="628.5" y="-588.5" font-family="Helvetica,sans-Serif" font-size="10.00"> </text>
<polyline fill="none" stroke="black" points="553.5,-581.5 703.5,-581.5 "/>
<text text-anchor="middle" x="628.5" y="-569.5" font-family="Helvetica,sans-Serif" font-size="10.00"> </text>
</a>
</g>
</g>
<!-- Node6&#45;&gt;Node12 -->
<g id="edge14" class="edge">
<title>Node6&#45;&gt;Node12</title>
<path fill="none" stroke="#404040" d="M539.35,-793.84C546.3,-767.42 558.08,-726.73 572.5,-693 581.72,-671.42 594.22,-648.47 605.06,-629.9"/>
<polygon fill="none" stroke="#404040" points="605.1,-629.84 604.72,-622.64 611.22,-619.52 611.6,-626.72 605.1,-629.84"/>
<text text-anchor="middle" x="642.5" y="-707" font-family="Helvetica,sans-Serif" font-size="10.00"> +shouldReportAllAssertions</text>
<text text-anchor="middle" x="642.5" y="-696" font-family="Helvetica,sans-Serif" font-size="10.00">+shouldRedirectStdOut</text>
</g>
<!-- Node7&#45;&gt;Node2 -->
<g id="edge6" class="edge">
<title>Node7&#45;&gt;Node2</title>
<path fill="none" stroke="#404040" d="M761.63,-551.5C743.8,-527.51 718.21,-497.59 689.5,-478 672.51,-466.4 661.77,-471.75 640.7,-459.77"/>
<polygon fill="none" stroke="#404040" points="640.67,-459.75 633.46,-459.83 630.62,-453.21 637.83,-453.13 640.67,-459.75"/>
<text text-anchor="middle" x="753" y="-481" font-family="Helvetica,sans-Serif" font-size="10.00"> +currentTestRunInfo</text>
</g>
<!-- Node8 -->
<g id="node8" class="node">
<title>Node8</title>
<g id="a_node8"><a xlink:href="class_catch_1_1_option.html" target="_top" xlink:title=" ">
<polygon fill="white" stroke="black" points="726.5,-733.5 726.5,-911.5 848.5,-911.5 848.5,-733.5 726.5,-733.5"/>
<text text-anchor="start" x="734.5" y="-899.5" font-family="Helvetica,sans-Serif" font-size="10.00">Catch::Option&lt; Catch</text>
<text text-anchor="middle" x="787.5" y="-888.5" font-family="Helvetica,sans-Serif" font-size="10.00">::TestRunInfo &gt;</text>
<polyline fill="none" stroke="black" points="726.5,-881.5 848.5,-881.5 "/>
<text text-anchor="middle" x="787.5" y="-869.5" font-family="Helvetica,sans-Serif" font-size="10.00"> </text>
<polyline fill="none" stroke="black" points="726.5,-862.5 848.5,-862.5 "/>
<text text-anchor="start" x="734.5" y="-850.5" font-family="Helvetica,sans-Serif" font-size="10.00">+ Option()</text>
<text text-anchor="start" x="734.5" y="-839.5" font-family="Helvetica,sans-Serif" font-size="10.00">+ Option()</text>
<text text-anchor="start" x="734.5" y="-828.5" font-family="Helvetica,sans-Serif" font-size="10.00">+ Option()</text>
<text text-anchor="start" x="734.5" y="-817.5" font-family="Helvetica,sans-Serif" font-size="10.00">+ Option()</text>
<text text-anchor="start" x="734.5" y="-806.5" font-family="Helvetica,sans-Serif" font-size="10.00">+ Option()</text>
<text text-anchor="start" x="734.5" y="-795.5" font-family="Helvetica,sans-Serif" font-size="10.00">+ Option()</text>
<text text-anchor="start" x="734.5" y="-784.5" font-family="Helvetica,sans-Serif" font-size="10.00">+ ~Option()</text>
<text text-anchor="start" x="734.5" y="-773.5" font-family="Helvetica,sans-Serif" font-size="10.00">+ ~Option()</text>
<text text-anchor="start" x="734.5" y="-762.5" font-family="Helvetica,sans-Serif" font-size="10.00">+ operator=()</text>
<text text-anchor="start" x="734.5" y="-751.5" font-family="Helvetica,sans-Serif" font-size="10.00">+ operator=()</text>
<text text-anchor="start" x="734.5" y="-740.5" font-family="Helvetica,sans-Serif" font-size="10.00">and 22 more...</text>
</a>
</g>
</g>
<!-- Node8&#45;&gt;Node7 -->
<g id="edge7" class="edge">
<title>Node8&#45;&gt;Node7</title>
<path fill="none" stroke="midnightblue" d="M787.5,-723.35C787.5,-690.67 787.5,-656.14 787.5,-630.7"/>
<polygon fill="none" stroke="midnightblue" points="784,-723.43 787.5,-733.43 791,-723.43 784,-723.43"/>
</g>
<!-- Node9 -->
<g id="node9" class="node">
<title>Node9</title>
<g id="a_node9"><a xlink:title=" ">
<polygon fill="white" stroke="#bfbfbf" points="467.5,-562.5 467.5,-619.5 535.5,-619.5 535.5,-562.5 467.5,-562.5"/>
<text text-anchor="middle" x="501.5" y="-607.5" font-family="Helvetica,sans-Serif" font-size="10.00">ostream &amp;</text>
<polyline fill="none" stroke="#bfbfbf" points="467.5,-600.5 535.5,-600.5 "/>
<text text-anchor="middle" x="501.5" y="-588.5" font-family="Helvetica,sans-Serif" font-size="10.00"> </text>
<polyline fill="none" stroke="#bfbfbf" points="467.5,-581.5 535.5,-581.5 "/>
<text text-anchor="middle" x="501.5" y="-569.5" font-family="Helvetica,sans-Serif" font-size="10.00"> </text>
</a>
</g>
</g>
<!-- Node9&#45;&gt;Node2 -->
<g id="edge9" class="edge">
<title>Node9&#45;&gt;Node2</title>
<path fill="none" stroke="#404040" d="M507.12,-562.41C511.75,-539.68 518.67,-505.73 525.63,-471.58"/>
<polygon fill="none" stroke="#404040" points="525.69,-471.27 522.97,-464.59 528.09,-459.51 530.81,-466.19 525.69,-471.27"/>
<text text-anchor="middle" x="546.5" y="-481" font-family="Helvetica,sans-Serif" font-size="10.00"> +stream</text>
</g>
<!-- Node10&#45;&gt;Node2 -->
<g id="edge10" class="edge">
<title>Node10&#45;&gt;Node2</title>
<path fill="none" stroke="#404040" d="M393.66,-551.36C400.6,-528.89 411.15,-500.62 425.5,-478 435.92,-461.57 448.71,-445.5 462.08,-430.59"/>
<polygon fill="none" stroke="#404040" points="462.35,-430.3 463.47,-423.18 470.47,-421.47 469.36,-428.59 462.35,-430.3"/>
<text text-anchor="middle" x="472.5" y="-481" font-family="Helvetica,sans-Serif" font-size="10.00"> +currentGroupInfo</text>
</g>
<!-- Node11 -->
<g id="node11" class="node">
<title>Node11</title>
<g id="a_node11"><a xlink:href="class_catch_1_1_option.html" target="_top" xlink:title=" ">
<polygon fill="white" stroke="black" points="322.5,-733.5 322.5,-911.5 444.5,-911.5 444.5,-733.5 322.5,-733.5"/>
<text text-anchor="start" x="330.5" y="-899.5" font-family="Helvetica,sans-Serif" font-size="10.00">Catch::Option&lt; Catch</text>
<text text-anchor="middle" x="383.5" y="-888.5" font-family="Helvetica,sans-Serif" font-size="10.00">::GroupInfo &gt;</text>
<polyline fill="none" stroke="black" points="322.5,-881.5 444.5,-881.5 "/>
<text text-anchor="middle" x="383.5" y="-869.5" font-family="Helvetica,sans-Serif" font-size="10.00"> </text>
<polyline fill="none" stroke="black" points="322.5,-862.5 444.5,-862.5 "/>
<text text-anchor="start" x="330.5" y="-850.5" font-family="Helvetica,sans-Serif" font-size="10.00">+ Option()</text>
<text text-anchor="start" x="330.5" y="-839.5" font-family="Helvetica,sans-Serif" font-size="10.00">+ Option()</text>
<text text-anchor="start" x="330.5" y="-828.5" font-family="Helvetica,sans-Serif" font-size="10.00">+ Option()</text>
<text text-anchor="start" x="330.5" y="-817.5" font-family="Helvetica,sans-Serif" font-size="10.00">+ Option()</text>
<text text-anchor="start" x="330.5" y="-806.5" font-family="Helvetica,sans-Serif" font-size="10.00">+ Option()</text>
<text text-anchor="start" x="330.5" y="-795.5" font-family="Helvetica,sans-Serif" font-size="10.00">+ Option()</text>
<text text-anchor="start" x="330.5" y="-784.5" font-family="Helvetica,sans-Serif" font-size="10.00">+ ~Option()</text>
<text text-anchor="start" x="330.5" y="-773.5" font-family="Helvetica,sans-Serif" font-size="10.00">+ ~Option()</text>
<text text-anchor="start" x="330.5" y="-762.5" font-family="Helvetica,sans-Serif" font-size="10.00">+ operator=()</text>
<text text-anchor="start" x="330.5" y="-751.5" font-family="Helvetica,sans-Serif" font-size="10.00">+ operator=()</text>
<text text-anchor="start" x="330.5" y="-740.5" font-family="Helvetica,sans-Serif" font-size="10.00">and 22 more...</text>
</a>
</g>
</g>
<!-- Node11&#45;&gt;Node10 -->
<g id="edge11" class="edge">
<title>Node11&#45;&gt;Node10</title>
<path fill="none" stroke="midnightblue" d="M383.5,-723.35C383.5,-690.67 383.5,-656.14 383.5,-630.7"/>
<polygon fill="none" stroke="midnightblue" points="380,-723.43 383.5,-733.43 387,-723.43 380,-723.43"/>
</g>
<!-- Node12&#45;&gt;Node2 -->
<g id="edge13" class="edge">
<title>Node12&#45;&gt;Node2</title>
<path fill="none" stroke="#404040" d="M619.55,-562.41C612.15,-539.58 601.07,-505.43 589.95,-471.13"/>
<polygon fill="none" stroke="#404040" points="589.88,-470.93 584.23,-466.45 586.18,-459.51 591.84,-463.98 589.88,-470.93"/>
<text text-anchor="middle" x="640" y="-481" font-family="Helvetica,sans-Serif" font-size="10.00"> +m_reporterPrefs</text>
</g>
<!-- Node13 -->
<g id="node13" class="node">
<title>Node13</title>
<g id="a_node13"><a xlink:title=" ">
<polygon fill="white" stroke="#bfbfbf" points="871,-557 871,-625 984,-625 984,-557 871,-557"/>
<text text-anchor="start" x="879" y="-613" font-family="Helvetica,sans-Serif" font-size="10.00">shared_ptr&lt; IConfig</text>
<text text-anchor="middle" x="927.5" y="-602" font-family="Helvetica,sans-Serif" font-size="10.00"> const &gt;</text>
<polyline fill="none" stroke="#bfbfbf" points="871,-595 984,-595 "/>
<text text-anchor="middle" x="927.5" y="-583" font-family="Helvetica,sans-Serif" font-size="10.00"> </text>
<polyline fill="none" stroke="#bfbfbf" points="871,-576 984,-576 "/>
<text text-anchor="middle" x="927.5" y="-564" font-family="Helvetica,sans-Serif" font-size="10.00"> </text>
</a>
</g>
</g>
<!-- Node13&#45;&gt;Node2 -->
<g id="edge15" class="edge">
<title>Node13&#45;&gt;Node2</title>
<path fill="none" stroke="#404040" d="M906.47,-557C894.89,-540.58 879.44,-521.26 862.5,-507 841.66,-489.46 834.53,-486.04 808.5,-478 739.85,-456.8 708.89,-492.37 641.32,-460.13"/>
<polygon fill="none" stroke="#404040" points="641.28,-460.11 634.12,-460.92 630.61,-454.62 637.78,-453.81 641.28,-460.11"/>
<text text-anchor="middle" x="864.5" y="-481" font-family="Helvetica,sans-Serif" font-size="10.00"> +m_config</text>
</g>
<!-- Node14 -->
<g id="node14" class="node">
<title>Node14</title>
<g id="a_node14"><a xlink:title=" ">
<polygon fill="white" stroke="#bfbfbf" points="1002.5,-562.5 1002.5,-619.5 1160.5,-619.5 1160.5,-562.5 1002.5,-562.5"/>
<text text-anchor="middle" x="1081.5" y="-607.5" font-family="Helvetica,sans-Serif" font-size="10.00">vector&lt; Catch::SectionInfo &gt;</text>
<polyline fill="none" stroke="#bfbfbf" points="1002.5,-600.5 1160.5,-600.5 "/>
<text text-anchor="middle" x="1081.5" y="-588.5" font-family="Helvetica,sans-Serif" font-size="10.00"> </text>
<polyline fill="none" stroke="#bfbfbf" points="1002.5,-581.5 1160.5,-581.5 "/>
<text text-anchor="middle" x="1081.5" y="-569.5" font-family="Helvetica,sans-Serif" font-size="10.00"> </text>
</a>
</g>
</g>
<!-- Node14&#45;&gt;Node2 -->
<g id="edge16" class="edge">
<title>Node14&#45;&gt;Node2</title>
<path fill="none" stroke="#404040" d="M1058.29,-562.19C1041.87,-544.14 1018.42,-521.38 993.5,-507 954.53,-484.51 940.77,-486.07 896.5,-478 843.37,-468.32 706.93,-484.47 641.52,-459.69"/>
<polygon fill="none" stroke="#404040" points="641.49,-459.67 634.38,-460.87 630.54,-454.76 637.65,-453.57 641.49,-459.67"/>
<text text-anchor="middle" x="998" y="-481" font-family="Helvetica,sans-Serif" font-size="10.00"> +m_sectionStack</text>
</g>
<!-- Node15 -->
<g id="node15" class="node">
<title>Node15</title>
<g id="a_node15"><a xlink:title=" ">
<polygon fill="white" stroke="#bfbfbf" points="649,-314.5 649,-382.5 762,-382.5 762,-314.5 649,-314.5"/>
<text text-anchor="start" x="657" y="-370.5" font-family="Helvetica,sans-Serif" font-size="10.00">unique_ptr&lt; Catch::</text>
<text text-anchor="middle" x="705.5" y="-359.5" font-family="Helvetica,sans-Serif" font-size="10.00">TablePrinter &gt;</text>
<polyline fill="none" stroke="#bfbfbf" points="649,-352.5 762,-352.5 "/>
<text text-anchor="middle" x="705.5" y="-340.5" font-family="Helvetica,sans-Serif" font-size="10.00"> </text>
<polyline fill="none" stroke="#bfbfbf" points="649,-333.5 762,-333.5 "/>
<text text-anchor="middle" x="705.5" y="-321.5" font-family="Helvetica,sans-Serif" font-size="10.00"> </text>
</a>
</g>
</g>
<!-- Node15&#45;&gt;Node1 -->
<g id="edge17" class="edge">
<title>Node15&#45;&gt;Node1</title>
<path fill="none" stroke="#404040" d="M695.22,-314.36C686.26,-285.47 672.76,-241.93 660.16,-201.32"/>
<polygon fill="none" stroke="#404040" points="660.11,-201.14 654.51,-196.59 656.55,-189.68 662.15,-194.22 660.11,-201.14"/>
<text text-anchor="middle" x="706.5" y="-211" font-family="Helvetica,sans-Serif" font-size="10.00"> +m_tablePrinter</text>
</g>
</g>
</svg>
        <g id="navigator" transform="translate(0 0)" fill="#404254">
                <rect fill="#f2f5e9" fill-opacity="0.5" stroke="#606060" stroke-width=".5" x="0" y="0" width="60" height="60"/>
                <use id="zoomplus" xlink:href="#zoomPlus" x="17" y="9" onmousedown="handleZoom(evt,'in')"/>
                <use id="zoomminus" xlink:href="#zoomMin" x="42" y="9" onmousedown="handleZoom(evt,'out')"/>
                <use id="reset" xlink:href="#resetDef" x="30" y="36" onmousedown="handleReset()"/>
                <g id="arrowUp" xlink:href="#dirArrow" transform="translate(30 24)" onmousedown="handlePan(0,-1)">
                  <use xlink:href="#rim" fill="#404040">
                        <set attributeName="fill" to="#808080" begin="arrowUp.mouseover" end="arrowUp.mouseout"/>
                  </use>
                  <path fill="none" stroke="white" stroke-width="1.5" d="M0,-3.0v7 M-2.5,-0.5L0,-3.0L2.5,-0.5"/>
                </g>
                <g id="arrowRight" xlink:href="#dirArrow" transform="rotate(90) translate(36 -43)" onmousedown="handlePan(1,0)">
                  <use xlink:href="#rim" fill="#404040">
                        <set attributeName="fill" to="#808080" begin="arrowRight.mouseover" end="arrowRight.mouseout"/>
                  </use>
                  <path fill="none" stroke="white" stroke-width="1.5" d="M0,-3.0v7 M-2.5,-0.5L0,-3.0L2.5,-0.5"/>
                </g>
                <g id="arrowDown" xlink:href="#dirArrow" transform="rotate(180) translate(-30 -48)" onmousedown="handlePan(0,1)">
                  <use xlink:href="#rim" fill="#404040">
                        <set attributeName="fill" to="#808080" begin="arrowDown.mouseover" end="arrowDown.mouseout"/>
                  </use>
                  <path fill="none" stroke="white" stroke-width="1.5" d="M0,-3.0v7 M-2.5,-0.5L0,-3.0L2.5,-0.5"/>
                </g>
                <g id="arrowLeft" xlink:href="#dirArrow" transform="rotate(270) translate(-36 17)" onmousedown="handlePan(-1,0)">
                  <use xlink:href="#rim" fill="#404040">
                        <set attributeName="fill" to="#808080" begin="arrowLeft.mouseover" end="arrowLeft.mouseout"/>
                  </use>
                  <path fill="none" stroke="white" stroke-width="1.5" d="M0,-3.0v7 M-2.5,-0.5L0,-3.0L2.5,-0.5"/>
                </g>
        </g>
        <svg viewBox="0 0 15 15" width="100%" height="30px" preserveAspectRatio="xMaxYMin meet">
         <g id="arrow_out" transform="scale(0.3 0.3)">
          <a xlink:href="struct_catch_1_1_console_reporter__coll__graph_org.svg" target="_base">
           <rect id="button" ry="5" rx="5" y="6" x="6" height="38" width="38"
                fill="#f2f5e9" fill-opacity="0.5" stroke="#606060" stroke-width="1.0"/>
           <path id="arrow"
             d="M 11.500037,31.436501 C 11.940474,20.09759 22.043105,11.32322 32.158766,21.979434 L 37.068811,17.246167 C 37.068811,17.246167 37.088388,32 37.088388,32 L 22.160133,31.978069 C 22.160133,31.978069 26.997745,27.140456 26.997745,27.140456 C 18.528582,18.264221 13.291696,25.230495 11.500037,31.436501 z"
             style="fill:#404040;"/>
          </a>
         </g>
        </svg>
</svg>
