<?xml version="1.0" encoding="UTF-8" standalone="no"?>
<!DOCTYPE svg PUBLIC "-//W3C//DTD SVG 1.1//EN"
 "http://www.w3.org/Graphics/SVG/1.1/DTD/svg11.dtd">
<!-- Generated by graphviz version 2.43.0 (0)
 -->
<!-- Title: Catch::clara::detail::Parser Pages: 1 -->
<svg width="461pt" height="658pt"
 viewBox="0.00 0.00 461.00 658.00" xmlns="http://www.w3.org/2000/svg" xmlns:xlink="http://www.w3.org/1999/xlink">
<g id="graph0" class="graph" transform="scale(1 1) rotate(0) translate(4 654)">
<title>Catch::clara::detail::Parser</title>
<polygon fill="white" stroke="transparent" points="-4,4 -4,-654 457,-654 457,4 -4,4"/>
<!-- Node1 -->
<g id="node1" class="node">
<title>Node1</title>
<g id="a_node1"><a xlink:title=" ">
<polygon fill="#bfbfbf" stroke="black" points="155,-0.5 155,-200.5 271,-200.5 271,-0.5 155,-0.5"/>
<text text-anchor="start" x="163" y="-188.5" font-family="Helvetica,sans-Serif" font-size="10.00">Catch::clara::detail</text>
<text text-anchor="middle" x="213" y="-177.5" font-family="Helvetica,sans-Serif" font-size="10.00">::Parser</text>
<polyline fill="none" stroke="black" points="155,-170.5 271,-170.5 "/>
<text text-anchor="middle" x="213" y="-158.5" font-family="Helvetica,sans-Serif" font-size="10.00"> </text>
<polyline fill="none" stroke="black" points="155,-151.5 271,-151.5 "/>
<text text-anchor="start" x="163" y="-139.5" font-family="Helvetica,sans-Serif" font-size="10.00">+ operator|=()</text>
<text text-anchor="start" x="163" y="-128.5" font-family="Helvetica,sans-Serif" font-size="10.00">+ operator|=()</text>
<text text-anchor="start" x="163" y="-117.5" font-family="Helvetica,sans-Serif" font-size="10.00">+ operator|=()</text>
<text text-anchor="start" x="163" y="-106.5" font-family="Helvetica,sans-Serif" font-size="10.00">+ operator|=()</text>
<text text-anchor="start" x="163" y="-95.5" font-family="Helvetica,sans-Serif" font-size="10.00">+ operator|()</text>
<text text-anchor="start" x="163" y="-84.5" font-family="Helvetica,sans-Serif" font-size="10.00">+ operator+=()</text>
<text text-anchor="start" x="163" y="-73.5" font-family="Helvetica,sans-Serif" font-size="10.00">+ operator+()</text>
<text text-anchor="start" x="163" y="-62.5" font-family="Helvetica,sans-Serif" font-size="10.00">+ getHelpColumns()</text>
<text text-anchor="start" x="163" y="-51.5" font-family="Helvetica,sans-Serif" font-size="10.00">+ writeToStream()</text>
<text text-anchor="start" x="163" y="-40.5" font-family="Helvetica,sans-Serif" font-size="10.00">+ validate()</text>
<text text-anchor="start" x="163" y="-29.5" font-family="Helvetica,sans-Serif" font-size="10.00">+ parse()</text>
<text text-anchor="start" x="163" y="-18.5" font-family="Helvetica,sans-Serif" font-size="10.00">+ parse()</text>
<text text-anchor="start" x="163" y="-7.5" font-family="Helvetica,sans-Serif" font-size="10.00">+ parse()</text>
</a>
</g>
</g>
<!-- Node2 -->
<g id="node2" class="node">
<title>Node2</title>
<g id="a_node2"><a xlink:href="class_catch_1_1clara_1_1detail_1_1_parser_base.html" target="_top" xlink:title=" ">
<polygon fill="white" stroke="black" points="0,-537.5 0,-649.5 108,-649.5 108,-537.5 0,-537.5"/>
<text text-anchor="start" x="8" y="-637.5" font-family="Helvetica,sans-Serif" font-size="10.00">Catch::clara::detail</text>
<text text-anchor="middle" x="54" y="-626.5" font-family="Helvetica,sans-Serif" font-size="10.00">::ParserBase</text>
<polyline fill="none" stroke="black" points="0,-619.5 108,-619.5 "/>
<text text-anchor="middle" x="54" y="-607.5" font-family="Helvetica,sans-Serif" font-size="10.00"> </text>
<polyline fill="none" stroke="black" points="0,-600.5 108,-600.5 "/>
<text text-anchor="start" x="8" y="-588.5" font-family="Helvetica,sans-Serif" font-size="10.00">+ ~ParserBase()</text>
<text text-anchor="start" x="8" y="-577.5" font-family="Helvetica,sans-Serif" font-size="10.00">+ validate()</text>
<text text-anchor="start" x="8" y="-566.5" font-family="Helvetica,sans-Serif" font-size="10.00">+ parse()</text>
<text text-anchor="start" x="8" y="-555.5" font-family="Helvetica,sans-Serif" font-size="10.00">+ cardinality()</text>
<text text-anchor="start" x="8" y="-544.5" font-family="Helvetica,sans-Serif" font-size="10.00">+ parse()</text>
</a>
</g>
</g>
<!-- Node2&#45;&gt;Node1 -->
<g id="edge1" class="edge">
<title>Node2&#45;&gt;Node1</title>
<path fill="none" stroke="midnightblue" d="M43.04,-527.02C34.07,-455.3 28.49,-338.45 68,-248 86.48,-205.7 123.15,-168.83 154.99,-142.66"/>
<polygon fill="none" stroke="midnightblue" points="39.62,-527.81 44.39,-537.27 46.56,-526.9 39.62,-527.81"/>
</g>
<!-- Node5 -->
<g id="node5" class="node">
<title>Node5</title>
<g id="a_node5"><a xlink:href="class_catch_1_1clara_1_1detail_1_1_composable_parser_impl.html" target="_top" xlink:title=" ">
<polygon fill="white" stroke="black" points="70.5,-409.5 70.5,-499.5 205.5,-499.5 205.5,-409.5 70.5,-409.5"/>
<text text-anchor="start" x="78.5" y="-487.5" font-family="Helvetica,sans-Serif" font-size="10.00">Catch::clara::detail</text>
<text text-anchor="start" x="78.5" y="-476.5" font-family="Helvetica,sans-Serif" font-size="10.00">::ComposableParserImpl</text>
<text text-anchor="middle" x="138" y="-465.5" font-family="Helvetica,sans-Serif" font-size="10.00">&lt; ExeName &gt;</text>
<polyline fill="none" stroke="black" points="70.5,-458.5 205.5,-458.5 "/>
<text text-anchor="middle" x="138" y="-446.5" font-family="Helvetica,sans-Serif" font-size="10.00"> </text>
<polyline fill="none" stroke="black" points="70.5,-439.5 205.5,-439.5 "/>
<text text-anchor="start" x="78.5" y="-427.5" font-family="Helvetica,sans-Serif" font-size="10.00">+ operator|()</text>
<text text-anchor="start" x="78.5" y="-416.5" font-family="Helvetica,sans-Serif" font-size="10.00">+ operator+()</text>
</a>
</g>
</g>
<!-- Node2&#45;&gt;Node5 -->
<g id="edge5" class="edge">
<title>Node2&#45;&gt;Node5</title>
<path fill="none" stroke="midnightblue" d="M93.17,-528.62C99.17,-518.83 105.25,-508.91 110.92,-499.67"/>
<polygon fill="none" stroke="midnightblue" points="90.17,-526.82 87.92,-537.17 96.13,-530.48 90.17,-526.82"/>
</g>
<!-- Node3 -->
<g id="node3" class="node">
<title>Node3</title>
<g id="a_node3"><a xlink:title=" ">
<polygon fill="white" stroke="#bfbfbf" points="203,-276 203,-344 319,-344 319,-276 203,-276"/>
<text text-anchor="start" x="211" y="-332" font-family="Helvetica,sans-Serif" font-size="10.00">vector&lt; Catch::clara</text>
<text text-anchor="middle" x="261" y="-321" font-family="Helvetica,sans-Serif" font-size="10.00">::detail::Arg &gt;</text>
<polyline fill="none" stroke="#bfbfbf" points="203,-314 319,-314 "/>
<text text-anchor="middle" x="261" y="-302" font-family="Helvetica,sans-Serif" font-size="10.00"> </text>
<polyline fill="none" stroke="#bfbfbf" points="203,-295 319,-295 "/>
<text text-anchor="middle" x="261" y="-283" font-family="Helvetica,sans-Serif" font-size="10.00"> </text>
</a>
</g>
</g>
<!-- Node3&#45;&gt;Node1 -->
<g id="edge2" class="edge">
<title>Node3&#45;&gt;Node1</title>
<path fill="none" stroke="#404040" d="M253.29,-275.66C249.23,-258.12 244,-235.49 238.65,-212.39"/>
<polygon fill="none" stroke="#404040" points="238.64,-212.35 233.39,-207.41 235.94,-200.66 241.19,-205.61 238.64,-212.35"/>
<text text-anchor="middle" x="266" y="-222" font-family="Helvetica,sans-Serif" font-size="10.00"> +m_args</text>
</g>
<!-- Node4 -->
<g id="node4" class="node">
<title>Node4</title>
<g id="a_node4"><a xlink:href="class_catch_1_1clara_1_1detail_1_1_exe_name.html" target="_top" xlink:title=" ">
<polygon fill="white" stroke="black" points="77,-248.5 77,-371.5 185,-371.5 185,-248.5 77,-248.5"/>
<text text-anchor="start" x="85" y="-359.5" font-family="Helvetica,sans-Serif" font-size="10.00">Catch::clara::detail</text>
<text text-anchor="middle" x="131" y="-348.5" font-family="Helvetica,sans-Serif" font-size="10.00">::ExeName</text>
<polyline fill="none" stroke="black" points="77,-341.5 185,-341.5 "/>
<text text-anchor="middle" x="131" y="-329.5" font-family="Helvetica,sans-Serif" font-size="10.00"> </text>
<polyline fill="none" stroke="black" points="77,-322.5 185,-322.5 "/>
<text text-anchor="start" x="85" y="-310.5" font-family="Helvetica,sans-Serif" font-size="10.00">+ ExeName()</text>
<text text-anchor="start" x="85" y="-299.5" font-family="Helvetica,sans-Serif" font-size="10.00">+ ExeName()</text>
<text text-anchor="start" x="85" y="-288.5" font-family="Helvetica,sans-Serif" font-size="10.00">+ ExeName()</text>
<text text-anchor="start" x="85" y="-277.5" font-family="Helvetica,sans-Serif" font-size="10.00">+ parse()</text>
<text text-anchor="start" x="85" y="-266.5" font-family="Helvetica,sans-Serif" font-size="10.00">+ name()</text>
<text text-anchor="start" x="85" y="-255.5" font-family="Helvetica,sans-Serif" font-size="10.00">+ set()</text>
</a>
</g>
</g>
<!-- Node4&#45;&gt;Node1 -->
<g id="edge3" class="edge">
<title>Node4&#45;&gt;Node1</title>
<path fill="none" stroke="#404040" d="M152.83,-248.35C156.49,-238.51 160.3,-228.45 164,-219 164.91,-216.67 165.84,-214.31 166.78,-211.94"/>
<polygon fill="none" stroke="#404040" points="166.8,-211.88 165.32,-204.83 171.26,-200.74 172.75,-207.8 166.8,-211.88"/>
<text text-anchor="middle" x="200.5" y="-222" font-family="Helvetica,sans-Serif" font-size="10.00"> +m_exeName</text>
</g>
<!-- Node5&#45;&gt;Node4 -->
<g id="edge4" class="edge">
<title>Node5&#45;&gt;Node4</title>
<path fill="none" stroke="midnightblue" d="M135.33,-399.18C134.89,-390.13 134.42,-380.7 133.97,-371.51"/>
<polygon fill="none" stroke="midnightblue" points="131.84,-399.38 135.82,-409.19 138.83,-399.03 131.84,-399.38"/>
</g>
<!-- Node6 -->
<g id="node6" class="node">
<title>Node6</title>
<g id="a_node6"><a xlink:title=" ">
<polygon fill="white" stroke="#bfbfbf" points="337,-276 337,-344 453,-344 453,-276 337,-276"/>
<text text-anchor="start" x="345" y="-332" font-family="Helvetica,sans-Serif" font-size="10.00">vector&lt; Catch::clara</text>
<text text-anchor="middle" x="395" y="-321" font-family="Helvetica,sans-Serif" font-size="10.00">::detail::Opt &gt;</text>
<polyline fill="none" stroke="#bfbfbf" points="337,-314 453,-314 "/>
<text text-anchor="middle" x="395" y="-302" font-family="Helvetica,sans-Serif" font-size="10.00"> </text>
<polyline fill="none" stroke="#bfbfbf" points="337,-295 453,-295 "/>
<text text-anchor="middle" x="395" y="-283" font-family="Helvetica,sans-Serif" font-size="10.00"> </text>
</a>
</g>
</g>
<!-- Node6&#45;&gt;Node1 -->
<g id="edge6" class="edge">
<title>Node6&#45;&gt;Node1</title>
<path fill="none" stroke="#404040" d="M365.76,-275.66C342.52,-249.17 309.11,-211.08 279.46,-177.27"/>
<polygon fill="none" stroke="#404040" points="279.12,-176.88 272.15,-175.01 271.21,-167.86 278.17,-169.73 279.12,-176.88"/>
<text text-anchor="middle" x="356.5" y="-222" font-family="Helvetica,sans-Serif" font-size="10.00"> +m_options</text>
</g>
</g>
</svg>
