<?xml version="1.0" encoding="UTF-8" standalone="no"?>
<!DOCTYPE svg PUBLIC "-//W3C//DTD SVG 1.1//EN"
 "http://www.w3.org/Graphics/SVG/1.1/DTD/svg11.dtd">
<!-- Generated by graphviz version 2.43.0 (0)
 -->
<!-- Title: clara::detail::BoundLambda&lt; L &gt; Pages: 1 -->
<svg width="186pt" height="436pt"
 viewBox="0.00 0.00 186.00 436.00" xmlns="http://www.w3.org/2000/svg" xmlns:xlink="http://www.w3.org/1999/xlink">
<g id="graph0" class="graph" transform="scale(1 1) rotate(0) translate(4 432)">
<title>clara::detail::BoundLambda&lt; L &gt;</title>
<polygon fill="white" stroke="transparent" points="-4,4 -4,-432 182,-432 182,4 -4,4"/>
<!-- Node1 -->
<g id="node1" class="node">
<title>Node1</title>
<g id="a_node1"><a xlink:title=" ">
<polygon fill="#bfbfbf" stroke="black" points="0,-0.5 0,-68.5 178,-68.5 178,-0.5 0,-0.5"/>
<text text-anchor="middle" x="89" y="-56.5" font-family="Helvetica,sans-Serif" font-size="10.00">clara::detail::BoundLambda&lt; L &gt;</text>
<polyline fill="none" stroke="black" points="0,-49.5 178,-49.5 "/>
<text text-anchor="start" x="8" y="-37.5" font-family="Helvetica,sans-Serif" font-size="10.00">+ m_lambda</text>
<polyline fill="none" stroke="black" points="0,-30.5 178,-30.5 "/>
<text text-anchor="start" x="8" y="-18.5" font-family="Helvetica,sans-Serif" font-size="10.00">+ BoundLambda()</text>
<text text-anchor="start" x="8" y="-7.5" font-family="Helvetica,sans-Serif" font-size="10.00">+ setValue()</text>
</a>
</g>
</g>
<!-- Node2 -->
<g id="node2" class="node">
<title>Node2</title>
<g id="a_node2"><a xlink:href="structclara_1_1detail_1_1_bound_value_ref_base.html" target="_top" xlink:title=" ">
<polygon fill="white" stroke="black" points="20,-105.5 20,-173.5 158,-173.5 158,-105.5 20,-105.5"/>
<text text-anchor="start" x="28" y="-161.5" font-family="Helvetica,sans-Serif" font-size="10.00">clara::detail::BoundValue</text>
<text text-anchor="middle" x="89" y="-150.5" font-family="Helvetica,sans-Serif" font-size="10.00">RefBase</text>
<polyline fill="none" stroke="black" points="20,-143.5 158,-143.5 "/>
<text text-anchor="middle" x="89" y="-131.5" font-family="Helvetica,sans-Serif" font-size="10.00"> </text>
<polyline fill="none" stroke="black" points="20,-124.5 158,-124.5 "/>
<text text-anchor="start" x="28" y="-112.5" font-family="Helvetica,sans-Serif" font-size="10.00">+ setValue()</text>
</a>
</g>
</g>
<!-- Node2&#45;&gt;Node1 -->
<g id="edge1" class="edge">
<title>Node2&#45;&gt;Node1</title>
<path fill="none" stroke="midnightblue" d="M89,-95.14C89,-86.26 89,-77.04 89,-68.59"/>
<polygon fill="none" stroke="midnightblue" points="85.5,-95.34 89,-105.34 92.5,-95.34 85.5,-95.34"/>
</g>
<!-- Node3 -->
<g id="node3" class="node">
<title>Node3</title>
<g id="a_node3"><a xlink:href="structclara_1_1detail_1_1_bound_ref.html" target="_top" xlink:title=" ">
<polygon fill="white" stroke="black" points="25,-210.5 25,-289.5 153,-289.5 153,-210.5 25,-210.5"/>
<text text-anchor="middle" x="89" y="-277.5" font-family="Helvetica,sans-Serif" font-size="10.00">clara::detail::BoundRef</text>
<polyline fill="none" stroke="black" points="25,-270.5 153,-270.5 "/>
<text text-anchor="middle" x="89" y="-258.5" font-family="Helvetica,sans-Serif" font-size="10.00"> </text>
<polyline fill="none" stroke="black" points="25,-251.5 153,-251.5 "/>
<text text-anchor="start" x="33" y="-239.5" font-family="Helvetica,sans-Serif" font-size="10.00">+ ~BoundRef()</text>
<text text-anchor="start" x="33" y="-228.5" font-family="Helvetica,sans-Serif" font-size="10.00">+ isContainer()</text>
<text text-anchor="start" x="33" y="-217.5" font-family="Helvetica,sans-Serif" font-size="10.00">+ isFlag()</text>
</a>
</g>
</g>
<!-- Node3&#45;&gt;Node2 -->
<g id="edge2" class="edge">
<title>Node3&#45;&gt;Node2</title>
<path fill="none" stroke="midnightblue" d="M89,-200.35C89,-191.28 89,-182 89,-173.54"/>
<polygon fill="none" stroke="midnightblue" points="85.5,-200.44 89,-210.44 92.5,-200.44 85.5,-200.44"/>
</g>
<!-- Node4 -->
<g id="node4" class="node">
<title>Node4</title>
<g id="a_node4"><a xlink:href="structclara_1_1detail_1_1_non_copyable.html" target="_top" xlink:title=" ">
<polygon fill="white" stroke="black" points="16,-326.5 16,-427.5 162,-427.5 162,-326.5 16,-326.5"/>
<text text-anchor="middle" x="89" y="-415.5" font-family="Helvetica,sans-Serif" font-size="10.00">clara::detail::NonCopyable</text>
<polyline fill="none" stroke="black" points="16,-408.5 162,-408.5 "/>
<text text-anchor="middle" x="89" y="-396.5" font-family="Helvetica,sans-Serif" font-size="10.00"> </text>
<polyline fill="none" stroke="black" points="16,-389.5 162,-389.5 "/>
<text text-anchor="start" x="24" y="-377.5" font-family="Helvetica,sans-Serif" font-size="10.00">+ NonCopyable()</text>
<text text-anchor="start" x="24" y="-366.5" font-family="Helvetica,sans-Serif" font-size="10.00">+ NonCopyable()</text>
<text text-anchor="start" x="24" y="-355.5" font-family="Helvetica,sans-Serif" font-size="10.00">+ NonCopyable()</text>
<text text-anchor="start" x="24" y="-344.5" font-family="Helvetica,sans-Serif" font-size="10.00">+ operator=()</text>
<text text-anchor="start" x="24" y="-333.5" font-family="Helvetica,sans-Serif" font-size="10.00">+ operator=()</text>
</a>
</g>
</g>
<!-- Node4&#45;&gt;Node3 -->
<g id="edge3" class="edge">
<title>Node4&#45;&gt;Node3</title>
<path fill="none" stroke="midnightblue" d="M89,-316.19C89,-307.22 89,-298.18 89,-289.81"/>
<polygon fill="none" stroke="midnightblue" points="85.5,-316.24 89,-326.24 92.5,-316.24 85.5,-316.24"/>
</g>
</g>
</svg>
