<?xml version="1.0" encoding="UTF-8" standalone="no"?>
<!DOCTYPE svg PUBLIC "-//W3C//DTD SVG 1.1//EN"
 "http://www.w3.org/Graphics/SVG/1.1/DTD/svg11.dtd">
<!-- Generated by graphviz version 2.43.0 (0)
 -->
<!-- Title: Catch::Matchers::StdString::StringMatcherBase Pages: 1 -->
<svg width="646pt" height="645pt"
 viewBox="0.00 0.00 646.00 645.00" xmlns="http://www.w3.org/2000/svg" xmlns:xlink="http://www.w3.org/1999/xlink">
<g id="graph0" class="graph" transform="scale(1 1) rotate(0) translate(4 641)">
<title>Catch::Matchers::StdString::StringMatcherBase</title>
<polygon fill="white" stroke="transparent" points="-4,4 -4,-641 642,-641 642,4 -4,4"/>
<!-- Node1 -->
<g id="node1" class="node">
<title>Node1</title>
<g id="a_node1"><a xlink:title=" ">
<polygon fill="#bfbfbf" stroke="black" points="246,-138.5 246,-250.5 392,-250.5 392,-138.5 246,-138.5"/>
<text text-anchor="start" x="254" y="-238.5" font-family="Helvetica,sans-Serif" font-size="10.00">Catch::Matchers::StdString</text>
<text text-anchor="middle" x="319" y="-227.5" font-family="Helvetica,sans-Serif" font-size="10.00">::StringMatcherBase</text>
<polyline fill="none" stroke="black" points="246,-220.5 392,-220.5 "/>
<text text-anchor="start" x="254" y="-208.5" font-family="Helvetica,sans-Serif" font-size="10.00">+ m_comparator</text>
<text text-anchor="start" x="254" y="-197.5" font-family="Helvetica,sans-Serif" font-size="10.00">+ m_operation</text>
<polyline fill="none" stroke="black" points="246,-190.5 392,-190.5 "/>
<text text-anchor="start" x="254" y="-178.5" font-family="Helvetica,sans-Serif" font-size="10.00">+ StringMatcherBase()</text>
<text text-anchor="start" x="254" y="-167.5" font-family="Helvetica,sans-Serif" font-size="10.00">+ describe()</text>
<text text-anchor="start" x="254" y="-156.5" font-family="Helvetica,sans-Serif" font-size="10.00">+ StringMatcherBase()</text>
<text text-anchor="start" x="254" y="-145.5" font-family="Helvetica,sans-Serif" font-size="10.00">+ describe()</text>
</a>
</g>
</g>
<!-- Node5 -->
<g id="node5" class="node">
<title>Node5</title>
<g id="a_node5"><a xlink:href="struct_catch_1_1_matchers_1_1_std_string_1_1_contains_matcher.html" target="_top" xlink:title=" ">
<polygon fill="white" stroke="black" points="0,-0.5 0,-101.5 146,-101.5 146,-0.5 0,-0.5"/>
<text text-anchor="start" x="8" y="-89.5" font-family="Helvetica,sans-Serif" font-size="10.00">Catch::Matchers::StdString</text>
<text text-anchor="middle" x="73" y="-78.5" font-family="Helvetica,sans-Serif" font-size="10.00">::ContainsMatcher</text>
<polyline fill="none" stroke="black" points="0,-71.5 146,-71.5 "/>
<text text-anchor="middle" x="73" y="-59.5" font-family="Helvetica,sans-Serif" font-size="10.00"> </text>
<polyline fill="none" stroke="black" points="0,-52.5 146,-52.5 "/>
<text text-anchor="start" x="8" y="-40.5" font-family="Helvetica,sans-Serif" font-size="10.00">+ ContainsMatcher()</text>
<text text-anchor="start" x="8" y="-29.5" font-family="Helvetica,sans-Serif" font-size="10.00">+ match()</text>
<text text-anchor="start" x="8" y="-18.5" font-family="Helvetica,sans-Serif" font-size="10.00">+ ContainsMatcher()</text>
<text text-anchor="start" x="8" y="-7.5" font-family="Helvetica,sans-Serif" font-size="10.00">+ match()</text>
</a>
</g>
</g>
<!-- Node1&#45;&gt;Node5 -->
<g id="edge4" class="edge">
<title>Node1&#45;&gt;Node5</title>
<path fill="none" stroke="midnightblue" d="M237.18,-148.66C210.82,-134 181.56,-117.5 155,-102 152.12,-100.32 149.19,-98.6 146.23,-96.85"/>
<polygon fill="none" stroke="midnightblue" points="235.56,-151.77 246,-153.56 238.95,-145.65 235.56,-151.77"/>
</g>
<!-- Node6 -->
<g id="node6" class="node">
<title>Node6</title>
<g id="a_node6"><a xlink:href="struct_catch_1_1_matchers_1_1_std_string_1_1_ends_with_matcher.html" target="_top" xlink:title=" ">
<polygon fill="white" stroke="black" points="164,-0.5 164,-101.5 310,-101.5 310,-0.5 164,-0.5"/>
<text text-anchor="start" x="172" y="-89.5" font-family="Helvetica,sans-Serif" font-size="10.00">Catch::Matchers::StdString</text>
<text text-anchor="middle" x="237" y="-78.5" font-family="Helvetica,sans-Serif" font-size="10.00">::EndsWithMatcher</text>
<polyline fill="none" stroke="black" points="164,-71.5 310,-71.5 "/>
<text text-anchor="middle" x="237" y="-59.5" font-family="Helvetica,sans-Serif" font-size="10.00"> </text>
<polyline fill="none" stroke="black" points="164,-52.5 310,-52.5 "/>
<text text-anchor="start" x="172" y="-40.5" font-family="Helvetica,sans-Serif" font-size="10.00">+ EndsWithMatcher()</text>
<text text-anchor="start" x="172" y="-29.5" font-family="Helvetica,sans-Serif" font-size="10.00">+ match()</text>
<text text-anchor="start" x="172" y="-18.5" font-family="Helvetica,sans-Serif" font-size="10.00">+ EndsWithMatcher()</text>
<text text-anchor="start" x="172" y="-7.5" font-family="Helvetica,sans-Serif" font-size="10.00">+ match()</text>
</a>
</g>
</g>
<!-- Node1&#45;&gt;Node6 -->
<g id="edge5" class="edge">
<title>Node1&#45;&gt;Node6</title>
<path fill="none" stroke="midnightblue" d="M281.91,-129.5C276.5,-120.16 270.99,-110.66 265.78,-101.66"/>
<polygon fill="none" stroke="midnightblue" points="279.02,-131.49 287.06,-138.39 285.08,-127.98 279.02,-131.49"/>
</g>
<!-- Node7 -->
<g id="node7" class="node">
<title>Node7</title>
<g id="a_node7"><a xlink:href="struct_catch_1_1_matchers_1_1_std_string_1_1_equals_matcher.html" target="_top" xlink:title=" ">
<polygon fill="white" stroke="black" points="328,-0.5 328,-101.5 474,-101.5 474,-0.5 328,-0.5"/>
<text text-anchor="start" x="336" y="-89.5" font-family="Helvetica,sans-Serif" font-size="10.00">Catch::Matchers::StdString</text>
<text text-anchor="middle" x="401" y="-78.5" font-family="Helvetica,sans-Serif" font-size="10.00">::EqualsMatcher</text>
<polyline fill="none" stroke="black" points="328,-71.5 474,-71.5 "/>
<text text-anchor="middle" x="401" y="-59.5" font-family="Helvetica,sans-Serif" font-size="10.00"> </text>
<polyline fill="none" stroke="black" points="328,-52.5 474,-52.5 "/>
<text text-anchor="start" x="336" y="-40.5" font-family="Helvetica,sans-Serif" font-size="10.00">+ EqualsMatcher()</text>
<text text-anchor="start" x="336" y="-29.5" font-family="Helvetica,sans-Serif" font-size="10.00">+ match()</text>
<text text-anchor="start" x="336" y="-18.5" font-family="Helvetica,sans-Serif" font-size="10.00">+ EqualsMatcher()</text>
<text text-anchor="start" x="336" y="-7.5" font-family="Helvetica,sans-Serif" font-size="10.00">+ match()</text>
</a>
</g>
</g>
<!-- Node1&#45;&gt;Node7 -->
<g id="edge6" class="edge">
<title>Node1&#45;&gt;Node7</title>
<path fill="none" stroke="midnightblue" d="M356.09,-129.5C361.5,-120.16 367.01,-110.66 372.22,-101.66"/>
<polygon fill="none" stroke="midnightblue" points="352.92,-127.98 350.94,-138.39 358.98,-131.49 352.92,-127.98"/>
</g>
<!-- Node8 -->
<g id="node8" class="node">
<title>Node8</title>
<g id="a_node8"><a xlink:href="struct_catch_1_1_matchers_1_1_std_string_1_1_starts_with_matcher.html" target="_top" xlink:title=" ">
<polygon fill="white" stroke="black" points="492,-0.5 492,-101.5 638,-101.5 638,-0.5 492,-0.5"/>
<text text-anchor="start" x="500" y="-89.5" font-family="Helvetica,sans-Serif" font-size="10.00">Catch::Matchers::StdString</text>
<text text-anchor="middle" x="565" y="-78.5" font-family="Helvetica,sans-Serif" font-size="10.00">::StartsWithMatcher</text>
<polyline fill="none" stroke="black" points="492,-71.5 638,-71.5 "/>
<text text-anchor="middle" x="565" y="-59.5" font-family="Helvetica,sans-Serif" font-size="10.00"> </text>
<polyline fill="none" stroke="black" points="492,-52.5 638,-52.5 "/>
<text text-anchor="start" x="500" y="-40.5" font-family="Helvetica,sans-Serif" font-size="10.00">+ StartsWithMatcher()</text>
<text text-anchor="start" x="500" y="-29.5" font-family="Helvetica,sans-Serif" font-size="10.00">+ match()</text>
<text text-anchor="start" x="500" y="-18.5" font-family="Helvetica,sans-Serif" font-size="10.00">+ StartsWithMatcher()</text>
<text text-anchor="start" x="500" y="-7.5" font-family="Helvetica,sans-Serif" font-size="10.00">+ match()</text>
</a>
</g>
</g>
<!-- Node1&#45;&gt;Node8 -->
<g id="edge7" class="edge">
<title>Node1&#45;&gt;Node8</title>
<path fill="none" stroke="midnightblue" d="M400.82,-148.66C427.18,-134 456.44,-117.5 483,-102 485.88,-100.32 488.81,-98.6 491.77,-96.85"/>
<polygon fill="none" stroke="midnightblue" points="399.05,-145.65 392,-153.56 402.44,-151.77 399.05,-145.65"/>
</g>
<!-- Node2 -->
<g id="node2" class="node">
<title>Node2</title>
<g id="a_node2"><a xlink:href="struct_catch_1_1_matchers_1_1_impl_1_1_matcher_base.html" target="_top" xlink:title=" ">
<polygon fill="white" stroke="black" points="240,-287.5 240,-410.5 398,-410.5 398,-287.5 240,-287.5"/>
<text text-anchor="start" x="248" y="-398.5" font-family="Helvetica,sans-Serif" font-size="10.00">Catch::Matchers::Impl</text>
<text text-anchor="middle" x="319" y="-387.5" font-family="Helvetica,sans-Serif" font-size="10.00">::MatcherBase&lt; std::string &gt;</text>
<polyline fill="none" stroke="black" points="240,-380.5 398,-380.5 "/>
<text text-anchor="middle" x="319" y="-368.5" font-family="Helvetica,sans-Serif" font-size="10.00"> </text>
<polyline fill="none" stroke="black" points="240,-361.5 398,-361.5 "/>
<text text-anchor="start" x="248" y="-349.5" font-family="Helvetica,sans-Serif" font-size="10.00">+ operator&amp;&amp;()</text>
<text text-anchor="start" x="248" y="-338.5" font-family="Helvetica,sans-Serif" font-size="10.00">+ operator||()</text>
<text text-anchor="start" x="248" y="-327.5" font-family="Helvetica,sans-Serif" font-size="10.00">+ operator!()</text>
<text text-anchor="start" x="248" y="-316.5" font-family="Helvetica,sans-Serif" font-size="10.00">+ operator&amp;&amp;()</text>
<text text-anchor="start" x="248" y="-305.5" font-family="Helvetica,sans-Serif" font-size="10.00">+ operator||()</text>
<text text-anchor="start" x="248" y="-294.5" font-family="Helvetica,sans-Serif" font-size="10.00">+ operator!()</text>
</a>
</g>
</g>
<!-- Node2&#45;&gt;Node1 -->
<g id="edge1" class="edge">
<title>Node2&#45;&gt;Node1</title>
<path fill="none" stroke="midnightblue" d="M319,-277.25C319,-268.29 319,-259.23 319,-250.56"/>
<polygon fill="none" stroke="midnightblue" points="315.5,-277.29 319,-287.29 322.5,-277.29 315.5,-277.29"/>
</g>
<!-- Node3 -->
<g id="node3" class="node">
<title>Node3</title>
<g id="a_node3"><a xlink:href="class_catch_1_1_matchers_1_1_impl_1_1_matcher_untyped_base.html" target="_top" xlink:title=" ">
<polygon fill="white" stroke="black" points="166.5,-447.5 166.5,-636.5 315.5,-636.5 315.5,-447.5 166.5,-447.5"/>
<text text-anchor="start" x="174.5" y="-624.5" font-family="Helvetica,sans-Serif" font-size="10.00">Catch::Matchers::Impl</text>
<text text-anchor="middle" x="241" y="-613.5" font-family="Helvetica,sans-Serif" font-size="10.00">::MatcherUntypedBase</text>
<polyline fill="none" stroke="black" points="166.5,-606.5 315.5,-606.5 "/>
<text text-anchor="start" x="174.5" y="-594.5" font-family="Helvetica,sans-Serif" font-size="10.00"># m_cachedToString</text>
<polyline fill="none" stroke="black" points="166.5,-587.5 315.5,-587.5 "/>
<text text-anchor="start" x="174.5" y="-575.5" font-family="Helvetica,sans-Serif" font-size="10.00">+ MatcherUntypedBase()</text>
<text text-anchor="start" x="174.5" y="-564.5" font-family="Helvetica,sans-Serif" font-size="10.00">+ MatcherUntypedBase()</text>
<text text-anchor="start" x="174.5" y="-553.5" font-family="Helvetica,sans-Serif" font-size="10.00">+ operator=()</text>
<text text-anchor="start" x="174.5" y="-542.5" font-family="Helvetica,sans-Serif" font-size="10.00">+ toString()</text>
<text text-anchor="start" x="174.5" y="-531.5" font-family="Helvetica,sans-Serif" font-size="10.00">+ MatcherUntypedBase()</text>
<text text-anchor="start" x="174.5" y="-520.5" font-family="Helvetica,sans-Serif" font-size="10.00">+ MatcherUntypedBase()</text>
<text text-anchor="start" x="174.5" y="-509.5" font-family="Helvetica,sans-Serif" font-size="10.00">+ operator=()</text>
<text text-anchor="start" x="174.5" y="-498.5" font-family="Helvetica,sans-Serif" font-size="10.00">+ toString()</text>
<text text-anchor="start" x="174.5" y="-487.5" font-family="Helvetica,sans-Serif" font-size="10.00"># ~MatcherUntypedBase()</text>
<text text-anchor="start" x="174.5" y="-476.5" font-family="Helvetica,sans-Serif" font-size="10.00"># describe()</text>
<text text-anchor="start" x="174.5" y="-465.5" font-family="Helvetica,sans-Serif" font-size="10.00"># ~MatcherUntypedBase()</text>
<text text-anchor="start" x="174.5" y="-454.5" font-family="Helvetica,sans-Serif" font-size="10.00"># describe()</text>
</a>
</g>
</g>
<!-- Node3&#45;&gt;Node2 -->
<g id="edge2" class="edge">
<title>Node3&#45;&gt;Node2</title>
<path fill="none" stroke="midnightblue" d="M283.02,-438.11C286.83,-428.77 290.6,-419.53 294.19,-410.75"/>
<polygon fill="none" stroke="midnightblue" points="279.74,-436.88 279.2,-447.46 286.22,-439.52 279.74,-436.88"/>
</g>
<!-- Node4 -->
<g id="node4" class="node">
<title>Node4</title>
<g id="a_node4"><a xlink:href="struct_catch_1_1_matchers_1_1_impl_1_1_matcher_method.html" target="_top" xlink:title=" ">
<polygon fill="white" stroke="black" points="334,-502.5 334,-581.5 462,-581.5 462,-502.5 334,-502.5"/>
<text text-anchor="start" x="342" y="-569.5" font-family="Helvetica,sans-Serif" font-size="10.00">Catch::Matchers::Impl</text>
<text text-anchor="middle" x="398" y="-558.5" font-family="Helvetica,sans-Serif" font-size="10.00">::MatcherMethod&lt; T &gt;</text>
<polyline fill="none" stroke="black" points="334,-551.5 462,-551.5 "/>
<text text-anchor="middle" x="398" y="-539.5" font-family="Helvetica,sans-Serif" font-size="10.00"> </text>
<polyline fill="none" stroke="black" points="334,-532.5 462,-532.5 "/>
<text text-anchor="start" x="342" y="-520.5" font-family="Helvetica,sans-Serif" font-size="10.00">+ match()</text>
<text text-anchor="start" x="342" y="-509.5" font-family="Helvetica,sans-Serif" font-size="10.00">+ match()</text>
</a>
</g>
</g>
<!-- Node4&#45;&gt;Node2 -->
<g id="edge3" class="edge">
<title>Node4&#45;&gt;Node2</title>
<path fill="none" stroke="midnightblue" d="M378.19,-493.09C367.87,-468.15 355.14,-437.39 344.14,-410.78"/>
<polygon fill="none" stroke="midnightblue" points="374.96,-494.45 382.01,-502.35 381.43,-491.77 374.96,-494.45"/>
</g>
</g>
</svg>
