<?xml version="1.0" encoding="UTF-8" standalone="no"?>
<!DOCTYPE svg PUBLIC "-//W3C//DTD SVG 1.1//EN"
 "http://www.w3.org/Graphics/SVG/1.1/DTD/svg11.dtd">
<!-- Generated by graphviz version 2.43.0 (0)
 -->
<!-- Title: Catch::Counts::allPassed Pages: 1 -->
<svg width="322pt" height="78pt"
 viewBox="0.00 0.00 322.00 77.50" xmlns="http://www.w3.org/2000/svg" xmlns:xlink="http://www.w3.org/1999/xlink">
<g id="graph0" class="graph" transform="scale(1 1) rotate(0) translate(4 73.5)">
<title>Catch::Counts::allPassed</title>
<polygon fill="white" stroke="transparent" points="-4,4 -4,-73.5 318,-73.5 318,4 -4,4"/>
<!-- Node1 -->
<g id="node1" class="node">
<title>Node1</title>
<g id="a_node1"><a xlink:title=" ">
<polygon fill="#bfbfbf" stroke="black" points="178,-28 178,-47 314,-47 314,-28 178,-28"/>
<text text-anchor="middle" x="246" y="-35" font-family="Helvetica,sans-Serif" font-size="10.00">Catch::Counts::allPassed</text>
</a>
</g>
</g>
<!-- Node2 -->
<g id="node2" class="node">
<title>Node2</title>
<g id="a_node2"><a xlink:href="210-_evt-_event_listeners_8cpp.html#a5bf94f8326977aea354c9aa8b22084b1" target="_top" xlink:title=" ">
<polygon fill="white" stroke="black" points="51.5,-50 51.5,-69 90.5,-69 90.5,-50 51.5,-50"/>
<text text-anchor="middle" x="71" y="-57" font-family="Helvetica,sans-Serif" font-size="10.00">print</text>
</a>
</g>
</g>
<!-- Node1&#45;&gt;Node2 -->
<g id="edge1" class="edge">
<title>Node1&#45;&gt;Node2</title>
<path fill="none" stroke="midnightblue" d="M167.62,-47.34C139.12,-50.96 109.29,-54.76 90.68,-57.12"/>
<polygon fill="midnightblue" stroke="midnightblue" points="168.14,-50.8 177.62,-46.07 167.26,-43.86 168.14,-50.8"/>
</g>
<!-- Node3 -->
<g id="node3" class="node">
<title>Node3</title>
<g id="a_node3"><a xlink:href="struct_catch_1_1_automake_reporter.html#a88e67aaa39d97ea283795c2fbc2598f0" target="_top" xlink:title=" ">
<polygon fill="white" stroke="black" points="0,-0.5 0,-30.5 142,-30.5 142,-0.5 0,-0.5"/>
<text text-anchor="start" x="8" y="-18.5" font-family="Helvetica,sans-Serif" font-size="10.00">Catch::AutomakeReporter</text>
<text text-anchor="middle" x="71" y="-7.5" font-family="Helvetica,sans-Serif" font-size="10.00">::testCaseEnded</text>
</a>
</g>
</g>
<!-- Node1&#45;&gt;Node3 -->
<g id="edge2" class="edge">
<title>Node1&#45;&gt;Node3</title>
<path fill="none" stroke="midnightblue" d="M167.68,-27.67C159.14,-26.58 150.49,-25.48 142.05,-24.41"/>
<polygon fill="midnightblue" stroke="midnightblue" points="167.26,-31.14 177.62,-28.93 168.14,-24.2 167.26,-31.14"/>
</g>
</g>
</svg>
