<?xml version="1.0" encoding="UTF-8" standalone="no"?>
<!DOCTYPE svg PUBLIC "-//W3C//DTD SVG 1.1//EN"
 "http://www.w3.org/Graphics/SVG/1.1/DTD/svg11.dtd">
<!-- Generated by graphviz version 2.43.0 (0)
 -->
<!-- Title: clara::detail::BoundFlagLambda&lt; L &gt; Pages: 1 -->
<svg width="220pt" height="471pt"
 viewBox="0.00 0.00 220.00 471.00" xmlns="http://www.w3.org/2000/svg" xmlns:xlink="http://www.w3.org/1999/xlink">
<g id="graph0" class="graph" transform="scale(1 1) rotate(0) translate(4 467)">
<title>clara::detail::BoundFlagLambda&lt; L &gt;</title>
<polygon fill="white" stroke="transparent" points="-4,4 -4,-467 216,-467 216,4 -4,4"/>
<!-- Node1 -->
<g id="node1" class="node">
<title>Node1</title>
<g id="a_node1"><a xlink:title=" ">
<polygon fill="#bfbfbf" stroke="black" points="56,-0.5 56,-79.5 188,-79.5 188,-0.5 56,-0.5"/>
<text text-anchor="start" x="64" y="-67.5" font-family="Helvetica,sans-Serif" font-size="10.00">clara::detail::BoundFlag</text>
<text text-anchor="middle" x="122" y="-56.5" font-family="Helvetica,sans-Serif" font-size="10.00">Lambda&lt; L &gt;</text>
<polyline fill="none" stroke="black" points="56,-49.5 188,-49.5 "/>
<text text-anchor="middle" x="122" y="-37.5" font-family="Helvetica,sans-Serif" font-size="10.00"> </text>
<polyline fill="none" stroke="black" points="56,-30.5 188,-30.5 "/>
<text text-anchor="start" x="64" y="-18.5" font-family="Helvetica,sans-Serif" font-size="10.00">+ BoundFlagLambda()</text>
<text text-anchor="start" x="64" y="-7.5" font-family="Helvetica,sans-Serif" font-size="10.00">+ setFlag()</text>
</a>
</g>
</g>
<!-- Node2 -->
<g id="node2" class="node">
<title>Node2</title>
<g id="a_node2"><a xlink:href="structclara_1_1detail_1_1_bound_flag_ref_base.html" target="_top" xlink:title=" ">
<polygon fill="white" stroke="black" points="7,-127.5 7,-206.5 139,-206.5 139,-127.5 7,-127.5"/>
<text text-anchor="start" x="15" y="-194.5" font-family="Helvetica,sans-Serif" font-size="10.00">clara::detail::BoundFlag</text>
<text text-anchor="middle" x="73" y="-183.5" font-family="Helvetica,sans-Serif" font-size="10.00">RefBase</text>
<polyline fill="none" stroke="black" points="7,-176.5 139,-176.5 "/>
<text text-anchor="middle" x="73" y="-164.5" font-family="Helvetica,sans-Serif" font-size="10.00"> </text>
<polyline fill="none" stroke="black" points="7,-157.5 139,-157.5 "/>
<text text-anchor="start" x="15" y="-145.5" font-family="Helvetica,sans-Serif" font-size="10.00">+ setFlag()</text>
<text text-anchor="start" x="15" y="-134.5" font-family="Helvetica,sans-Serif" font-size="10.00">+ isFlag()</text>
</a>
</g>
</g>
<!-- Node2&#45;&gt;Node1 -->
<g id="edge1" class="edge">
<title>Node2&#45;&gt;Node1</title>
<path fill="none" stroke="midnightblue" d="M91.83,-117.97C96.8,-105.28 102.11,-91.74 106.86,-79.61"/>
<polygon fill="none" stroke="midnightblue" points="88.49,-116.89 88.1,-127.48 95.01,-119.44 88.49,-116.89"/>
</g>
<!-- Node3 -->
<g id="node3" class="node">
<title>Node3</title>
<g id="a_node3"><a xlink:href="structclara_1_1detail_1_1_bound_ref.html" target="_top" xlink:title=" ">
<polygon fill="white" stroke="black" points="9,-244.5 9,-323.5 137,-323.5 137,-244.5 9,-244.5"/>
<text text-anchor="middle" x="73" y="-311.5" font-family="Helvetica,sans-Serif" font-size="10.00">clara::detail::BoundRef</text>
<polyline fill="none" stroke="black" points="9,-304.5 137,-304.5 "/>
<text text-anchor="middle" x="73" y="-292.5" font-family="Helvetica,sans-Serif" font-size="10.00"> </text>
<polyline fill="none" stroke="black" points="9,-285.5 137,-285.5 "/>
<text text-anchor="start" x="17" y="-273.5" font-family="Helvetica,sans-Serif" font-size="10.00">+ ~BoundRef()</text>
<text text-anchor="start" x="17" y="-262.5" font-family="Helvetica,sans-Serif" font-size="10.00">+ isContainer()</text>
<text text-anchor="start" x="17" y="-251.5" font-family="Helvetica,sans-Serif" font-size="10.00">+ isFlag()</text>
</a>
</g>
</g>
<!-- Node3&#45;&gt;Node2 -->
<g id="edge2" class="edge">
<title>Node3&#45;&gt;Node2</title>
<path fill="none" stroke="midnightblue" d="M73,-234.2C73,-225.02 73,-215.53 73,-206.71"/>
<polygon fill="none" stroke="midnightblue" points="69.5,-234.39 73,-244.39 76.5,-234.39 69.5,-234.39"/>
</g>
<!-- Node4 -->
<g id="node4" class="node">
<title>Node4</title>
<g id="a_node4"><a xlink:href="structclara_1_1detail_1_1_non_copyable.html" target="_top" xlink:title=" ">
<polygon fill="white" stroke="black" points="0,-361.5 0,-462.5 146,-462.5 146,-361.5 0,-361.5"/>
<text text-anchor="middle" x="73" y="-450.5" font-family="Helvetica,sans-Serif" font-size="10.00">clara::detail::NonCopyable</text>
<polyline fill="none" stroke="black" points="0,-443.5 146,-443.5 "/>
<text text-anchor="middle" x="73" y="-431.5" font-family="Helvetica,sans-Serif" font-size="10.00"> </text>
<polyline fill="none" stroke="black" points="0,-424.5 146,-424.5 "/>
<text text-anchor="start" x="8" y="-412.5" font-family="Helvetica,sans-Serif" font-size="10.00">+ NonCopyable()</text>
<text text-anchor="start" x="8" y="-401.5" font-family="Helvetica,sans-Serif" font-size="10.00">+ NonCopyable()</text>
<text text-anchor="start" x="8" y="-390.5" font-family="Helvetica,sans-Serif" font-size="10.00">+ NonCopyable()</text>
<text text-anchor="start" x="8" y="-379.5" font-family="Helvetica,sans-Serif" font-size="10.00">+ operator=()</text>
<text text-anchor="start" x="8" y="-368.5" font-family="Helvetica,sans-Serif" font-size="10.00">+ operator=()</text>
</a>
</g>
</g>
<!-- Node4&#45;&gt;Node3 -->
<g id="edge3" class="edge">
<title>Node4&#45;&gt;Node3</title>
<path fill="none" stroke="midnightblue" d="M73,-351.11C73,-341.74 73,-332.28 73,-323.56"/>
<polygon fill="none" stroke="midnightblue" points="69.5,-351.2 73,-361.2 76.5,-351.2 69.5,-351.2"/>
</g>
<!-- Node5 -->
<g id="node5" class="node">
<title>Node5</title>
<g id="a_node5"><a xlink:title=" ">
<polygon fill="white" stroke="#bfbfbf" points="157.5,-138.5 157.5,-195.5 186.5,-195.5 186.5,-138.5 157.5,-138.5"/>
<text text-anchor="middle" x="172" y="-183.5" font-family="Helvetica,sans-Serif" font-size="10.00">L</text>
<polyline fill="none" stroke="#bfbfbf" points="157.5,-176.5 186.5,-176.5 "/>
<text text-anchor="middle" x="172" y="-164.5" font-family="Helvetica,sans-Serif" font-size="10.00"> </text>
<polyline fill="none" stroke="#bfbfbf" points="157.5,-157.5 186.5,-157.5 "/>
<text text-anchor="middle" x="172" y="-145.5" font-family="Helvetica,sans-Serif" font-size="10.00"> </text>
</a>
</g>
</g>
<!-- Node5&#45;&gt;Node1 -->
<g id="edge4" class="edge">
<title>Node5&#45;&gt;Node1</title>
<path fill="none" stroke="#404040" d="M160.9,-138.26C155.35,-124.37 148.45,-107.12 142.01,-91.02"/>
<polygon fill="none" stroke="#404040" points="141.88,-90.71 135.94,-86.62 137.43,-79.57 143.37,-83.65 141.88,-90.71"/>
<text text-anchor="middle" x="180" y="-101" font-family="Helvetica,sans-Serif" font-size="10.00"> +m_lambda</text>
</g>
</g>
</svg>
