<?xml version="1.0" encoding="UTF-8" standalone="no"?>
<!DOCTYPE svg PUBLIC "-//W3C//DTD SVG 1.1//EN"
 "http://www.w3.org/Graphics/SVG/1.1/DTD/svg11.dtd">
<!-- Generated by graphviz version 2.43.0 (0)
 -->
<!-- Title: Catch::clara::detail::BoundValueRef&lt; T &gt; Pages: 1 -->
<svg width="200pt" height="482pt"
 viewBox="0.00 0.00 200.00 482.00" xmlns="http://www.w3.org/2000/svg" xmlns:xlink="http://www.w3.org/1999/xlink">
<g id="graph0" class="graph" transform="scale(1 1) rotate(0) translate(4 478)">
<title>Catch::clara::detail::BoundValueRef&lt; T &gt;</title>
<polygon fill="white" stroke="transparent" points="-4,4 -4,-478 196,-478 196,4 -4,4"/>
<!-- Node1 -->
<g id="node1" class="node">
<title>Node1</title>
<g id="a_node1"><a xlink:title=" ">
<polygon fill="#bfbfbf" stroke="black" points="67,-0.5 67,-79.5 192,-79.5 192,-0.5 67,-0.5"/>
<text text-anchor="start" x="75" y="-67.5" font-family="Helvetica,sans-Serif" font-size="10.00">Catch::clara::detail</text>
<text text-anchor="middle" x="129.5" y="-56.5" font-family="Helvetica,sans-Serif" font-size="10.00">::BoundValueRef&lt; T &gt;</text>
<polyline fill="none" stroke="black" points="67,-49.5 192,-49.5 "/>
<text text-anchor="middle" x="129.5" y="-37.5" font-family="Helvetica,sans-Serif" font-size="10.00"> </text>
<polyline fill="none" stroke="black" points="67,-30.5 192,-30.5 "/>
<text text-anchor="start" x="75" y="-18.5" font-family="Helvetica,sans-Serif" font-size="10.00">+ BoundValueRef()</text>
<text text-anchor="start" x="75" y="-7.5" font-family="Helvetica,sans-Serif" font-size="10.00">+ setValue()</text>
</a>
</g>
</g>
<!-- Node2 -->
<g id="node2" class="node">
<title>Node2</title>
<g id="a_node2"><a xlink:href="struct_catch_1_1clara_1_1detail_1_1_bound_value_ref_base.html" target="_top" xlink:title=" ">
<polygon fill="white" stroke="black" points="0,-127.5 0,-195.5 121,-195.5 121,-127.5 0,-127.5"/>
<text text-anchor="start" x="8" y="-183.5" font-family="Helvetica,sans-Serif" font-size="10.00">Catch::clara::detail</text>
<text text-anchor="middle" x="60.5" y="-172.5" font-family="Helvetica,sans-Serif" font-size="10.00">::BoundValueRefBase</text>
<polyline fill="none" stroke="black" points="0,-165.5 121,-165.5 "/>
<text text-anchor="middle" x="60.5" y="-153.5" font-family="Helvetica,sans-Serif" font-size="10.00"> </text>
<polyline fill="none" stroke="black" points="0,-146.5 121,-146.5 "/>
<text text-anchor="start" x="8" y="-134.5" font-family="Helvetica,sans-Serif" font-size="10.00">+ setValue()</text>
</a>
</g>
</g>
<!-- Node2&#45;&gt;Node1 -->
<g id="edge1" class="edge">
<title>Node2&#45;&gt;Node1</title>
<path fill="none" stroke="midnightblue" d="M84.88,-118.28C92.15,-105.68 100.08,-91.95 107.21,-79.6"/>
<polygon fill="none" stroke="midnightblue" points="81.69,-116.8 79.72,-127.21 87.75,-120.3 81.69,-116.8"/>
</g>
<!-- Node3 -->
<g id="node3" class="node">
<title>Node3</title>
<g id="a_node3"><a xlink:href="struct_catch_1_1clara_1_1detail_1_1_bound_ref.html" target="_top" xlink:title=" ">
<polygon fill="white" stroke="black" points="6.5,-233.5 6.5,-323.5 114.5,-323.5 114.5,-233.5 6.5,-233.5"/>
<text text-anchor="start" x="14.5" y="-311.5" font-family="Helvetica,sans-Serif" font-size="10.00">Catch::clara::detail</text>
<text text-anchor="middle" x="60.5" y="-300.5" font-family="Helvetica,sans-Serif" font-size="10.00">::BoundRef</text>
<polyline fill="none" stroke="black" points="6.5,-293.5 114.5,-293.5 "/>
<text text-anchor="middle" x="60.5" y="-281.5" font-family="Helvetica,sans-Serif" font-size="10.00"> </text>
<polyline fill="none" stroke="black" points="6.5,-274.5 114.5,-274.5 "/>
<text text-anchor="start" x="14.5" y="-262.5" font-family="Helvetica,sans-Serif" font-size="10.00">+ ~BoundRef()</text>
<text text-anchor="start" x="14.5" y="-251.5" font-family="Helvetica,sans-Serif" font-size="10.00">+ isContainer()</text>
<text text-anchor="start" x="14.5" y="-240.5" font-family="Helvetica,sans-Serif" font-size="10.00">+ isFlag()</text>
</a>
</g>
</g>
<!-- Node3&#45;&gt;Node2 -->
<g id="edge2" class="edge">
<title>Node3&#45;&gt;Node2</title>
<path fill="none" stroke="midnightblue" d="M60.5,-223.23C60.5,-213.8 60.5,-204.26 60.5,-195.62"/>
<polygon fill="none" stroke="midnightblue" points="57,-223.37 60.5,-233.37 64,-223.37 57,-223.37"/>
</g>
<!-- Node4 -->
<g id="node4" class="node">
<title>Node4</title>
<g id="a_node4"><a xlink:href="struct_catch_1_1clara_1_1detail_1_1_non_copyable.html" target="_top" xlink:title=" ">
<polygon fill="white" stroke="black" points="6.5,-361.5 6.5,-473.5 114.5,-473.5 114.5,-361.5 6.5,-361.5"/>
<text text-anchor="start" x="14.5" y="-461.5" font-family="Helvetica,sans-Serif" font-size="10.00">Catch::clara::detail</text>
<text text-anchor="middle" x="60.5" y="-450.5" font-family="Helvetica,sans-Serif" font-size="10.00">::NonCopyable</text>
<polyline fill="none" stroke="black" points="6.5,-443.5 114.5,-443.5 "/>
<text text-anchor="middle" x="60.5" y="-431.5" font-family="Helvetica,sans-Serif" font-size="10.00"> </text>
<polyline fill="none" stroke="black" points="6.5,-424.5 114.5,-424.5 "/>
<text text-anchor="start" x="14.5" y="-412.5" font-family="Helvetica,sans-Serif" font-size="10.00">+ NonCopyable()</text>
<text text-anchor="start" x="14.5" y="-401.5" font-family="Helvetica,sans-Serif" font-size="10.00">+ NonCopyable()</text>
<text text-anchor="start" x="14.5" y="-390.5" font-family="Helvetica,sans-Serif" font-size="10.00">+ NonCopyable()</text>
<text text-anchor="start" x="14.5" y="-379.5" font-family="Helvetica,sans-Serif" font-size="10.00">+ operator=()</text>
<text text-anchor="start" x="14.5" y="-368.5" font-family="Helvetica,sans-Serif" font-size="10.00">+ operator=()</text>
</a>
</g>
</g>
<!-- Node4&#45;&gt;Node3 -->
<g id="edge3" class="edge">
<title>Node4&#45;&gt;Node3</title>
<path fill="none" stroke="midnightblue" d="M60.5,-351.13C60.5,-341.83 60.5,-332.44 60.5,-323.67"/>
<polygon fill="none" stroke="midnightblue" points="57,-351.17 60.5,-361.17 64,-351.17 57,-351.17"/>
</g>
<!-- Node5 -->
<g id="node5" class="node">
<title>Node5</title>
<g id="a_node5"><a xlink:title=" ">
<polygon fill="white" stroke="#bfbfbf" points="139,-133 139,-190 168,-190 168,-133 139,-133"/>
<text text-anchor="middle" x="153.5" y="-178" font-family="Helvetica,sans-Serif" font-size="10.00">T</text>
<polyline fill="none" stroke="#bfbfbf" points="139,-171 168,-171 "/>
<text text-anchor="middle" x="153.5" y="-159" font-family="Helvetica,sans-Serif" font-size="10.00"> </text>
<polyline fill="none" stroke="#bfbfbf" points="139,-152 168,-152 "/>
<text text-anchor="middle" x="153.5" y="-140" font-family="Helvetica,sans-Serif" font-size="10.00"> </text>
</a>
</g>
</g>
<!-- Node5&#45;&gt;Node1 -->
<g id="edge4" class="edge">
<title>Node5&#45;&gt;Node1</title>
<path fill="none" stroke="#404040" d="M147.93,-132.78C145.49,-120.63 142.55,-105.95 139.73,-91.94"/>
<polygon fill="none" stroke="#404040" points="139.67,-91.65 134.57,-86.55 137.31,-79.88 142.41,-84.98 139.67,-91.65"/>
<text text-anchor="middle" x="162.5" y="-101" font-family="Helvetica,sans-Serif" font-size="10.00"> +m_ref</text>
</g>
</g>
</svg>
