<?xml version="1.0" encoding="UTF-8" standalone="no"?>
<!DOCTYPE svg PUBLIC "-//W3C//DTD SVG 1.1//EN"
 "http://www.w3.org/Graphics/SVG/1.1/DTD/svg11.dtd">
<!-- Generated by graphviz version 2.43.0 (0)
 -->
<!-- Title: Catch::Matchers::StdString::StringMatcherBase Pages: 1 -->
<svg width="561pt" height="613pt"
 viewBox="0.00 0.00 560.53 613.00" xmlns="http://www.w3.org/2000/svg" xmlns:xlink="http://www.w3.org/1999/xlink">
<g id="graph0" class="graph" transform="scale(1 1) rotate(0) translate(4 609)">
<title>Catch::Matchers::StdString::StringMatcherBase</title>
<polygon fill="white" stroke="transparent" points="-4,4 -4,-609 556.53,-609 556.53,4 -4,4"/>
<!-- Node1 -->
<g id="node1" class="node">
<title>Node1</title>
<g id="a_node1"><a xlink:title=" ">
<polygon fill="#bfbfbf" stroke="black" points="109.53,-0.5 109.53,-101.5 255.53,-101.5 255.53,-0.5 109.53,-0.5"/>
<text text-anchor="start" x="117.53" y="-89.5" font-family="Helvetica,sans-Serif" font-size="10.00">Catch::Matchers::StdString</text>
<text text-anchor="middle" x="182.53" y="-78.5" font-family="Helvetica,sans-Serif" font-size="10.00">::StringMatcherBase</text>
<polyline fill="none" stroke="black" points="109.53,-71.5 255.53,-71.5 "/>
<text text-anchor="middle" x="182.53" y="-59.5" font-family="Helvetica,sans-Serif" font-size="10.00"> </text>
<polyline fill="none" stroke="black" points="109.53,-52.5 255.53,-52.5 "/>
<text text-anchor="start" x="117.53" y="-40.5" font-family="Helvetica,sans-Serif" font-size="10.00">+ StringMatcherBase()</text>
<text text-anchor="start" x="117.53" y="-29.5" font-family="Helvetica,sans-Serif" font-size="10.00">+ describe()</text>
<text text-anchor="start" x="117.53" y="-18.5" font-family="Helvetica,sans-Serif" font-size="10.00">+ StringMatcherBase()</text>
<text text-anchor="start" x="117.53" y="-7.5" font-family="Helvetica,sans-Serif" font-size="10.00">+ describe()</text>
</a>
</g>
</g>
<!-- Node2 -->
<g id="node2" class="node">
<title>Node2</title>
<g id="a_node2"><a xlink:href="struct_catch_1_1_matchers_1_1_impl_1_1_matcher_base.html" target="_top" xlink:title=" ">
<polygon fill="white" stroke="black" points="103.53,-139.5 103.53,-262.5 261.53,-262.5 261.53,-139.5 103.53,-139.5"/>
<text text-anchor="start" x="111.53" y="-250.5" font-family="Helvetica,sans-Serif" font-size="10.00">Catch::Matchers::Impl</text>
<text text-anchor="middle" x="182.53" y="-239.5" font-family="Helvetica,sans-Serif" font-size="10.00">::MatcherBase&lt; std::string &gt;</text>
<polyline fill="none" stroke="black" points="103.53,-232.5 261.53,-232.5 "/>
<text text-anchor="middle" x="182.53" y="-220.5" font-family="Helvetica,sans-Serif" font-size="10.00"> </text>
<polyline fill="none" stroke="black" points="103.53,-213.5 261.53,-213.5 "/>
<text text-anchor="start" x="111.53" y="-201.5" font-family="Helvetica,sans-Serif" font-size="10.00">+ operator&amp;&amp;()</text>
<text text-anchor="start" x="111.53" y="-190.5" font-family="Helvetica,sans-Serif" font-size="10.00">+ operator||()</text>
<text text-anchor="start" x="111.53" y="-179.5" font-family="Helvetica,sans-Serif" font-size="10.00">+ operator!()</text>
<text text-anchor="start" x="111.53" y="-168.5" font-family="Helvetica,sans-Serif" font-size="10.00">+ operator&amp;&amp;()</text>
<text text-anchor="start" x="111.53" y="-157.5" font-family="Helvetica,sans-Serif" font-size="10.00">+ operator||()</text>
<text text-anchor="start" x="111.53" y="-146.5" font-family="Helvetica,sans-Serif" font-size="10.00">+ operator!()</text>
</a>
</g>
</g>
<!-- Node2&#45;&gt;Node1 -->
<g id="edge1" class="edge">
<title>Node2&#45;&gt;Node1</title>
<path fill="none" stroke="midnightblue" d="M182.53,-129.37C182.53,-120.1 182.53,-110.75 182.53,-101.92"/>
<polygon fill="none" stroke="midnightblue" points="179.03,-129.38 182.53,-139.38 186.03,-129.38 179.03,-129.38"/>
</g>
<!-- Node3 -->
<g id="node3" class="node">
<title>Node3</title>
<g id="a_node3"><a xlink:href="class_catch_1_1_matchers_1_1_impl_1_1_matcher_untyped_base.html" target="_top" xlink:title=" ">
<polygon fill="white" stroke="black" points="204.03,-310.5 204.03,-499.5 353.03,-499.5 353.03,-310.5 204.03,-310.5"/>
<text text-anchor="start" x="212.03" y="-487.5" font-family="Helvetica,sans-Serif" font-size="10.00">Catch::Matchers::Impl</text>
<text text-anchor="middle" x="278.53" y="-476.5" font-family="Helvetica,sans-Serif" font-size="10.00">::MatcherUntypedBase</text>
<polyline fill="none" stroke="black" points="204.03,-469.5 353.03,-469.5 "/>
<text text-anchor="middle" x="278.53" y="-457.5" font-family="Helvetica,sans-Serif" font-size="10.00"> </text>
<polyline fill="none" stroke="black" points="204.03,-450.5 353.03,-450.5 "/>
<text text-anchor="start" x="212.03" y="-438.5" font-family="Helvetica,sans-Serif" font-size="10.00">+ MatcherUntypedBase()</text>
<text text-anchor="start" x="212.03" y="-427.5" font-family="Helvetica,sans-Serif" font-size="10.00">+ MatcherUntypedBase()</text>
<text text-anchor="start" x="212.03" y="-416.5" font-family="Helvetica,sans-Serif" font-size="10.00">+ operator=()</text>
<text text-anchor="start" x="212.03" y="-405.5" font-family="Helvetica,sans-Serif" font-size="10.00">+ toString()</text>
<text text-anchor="start" x="212.03" y="-394.5" font-family="Helvetica,sans-Serif" font-size="10.00">+ MatcherUntypedBase()</text>
<text text-anchor="start" x="212.03" y="-383.5" font-family="Helvetica,sans-Serif" font-size="10.00">+ MatcherUntypedBase()</text>
<text text-anchor="start" x="212.03" y="-372.5" font-family="Helvetica,sans-Serif" font-size="10.00">+ operator=()</text>
<text text-anchor="start" x="212.03" y="-361.5" font-family="Helvetica,sans-Serif" font-size="10.00">+ toString()</text>
<text text-anchor="start" x="212.03" y="-350.5" font-family="Helvetica,sans-Serif" font-size="10.00"># ~MatcherUntypedBase()</text>
<text text-anchor="start" x="212.03" y="-339.5" font-family="Helvetica,sans-Serif" font-size="10.00"># describe()</text>
<text text-anchor="start" x="212.03" y="-328.5" font-family="Helvetica,sans-Serif" font-size="10.00"># ~MatcherUntypedBase()</text>
<text text-anchor="start" x="212.03" y="-317.5" font-family="Helvetica,sans-Serif" font-size="10.00"># describe()</text>
</a>
</g>
</g>
<!-- Node3&#45;&gt;Node2 -->
<g id="edge2" class="edge">
<title>Node3&#45;&gt;Node2</title>
<path fill="none" stroke="midnightblue" d="M229.71,-301.26C223.44,-288.07 217.19,-274.91 211.38,-262.7"/>
<polygon fill="none" stroke="midnightblue" points="226.59,-302.86 234.05,-310.39 232.92,-299.86 226.59,-302.86"/>
</g>
<!-- Node4 -->
<g id="node4" class="node">
<title>Node4</title>
<g id="a_node4"><a xlink:title=" ">
<polygon fill="white" stroke="#bfbfbf" points="246.53,-547.5 246.53,-604.5 290.53,-604.5 290.53,-547.5 246.53,-547.5"/>
<text text-anchor="middle" x="268.53" y="-592.5" font-family="Helvetica,sans-Serif" font-size="10.00">string</text>
<polyline fill="none" stroke="#bfbfbf" points="246.53,-585.5 290.53,-585.5 "/>
<text text-anchor="middle" x="268.53" y="-573.5" font-family="Helvetica,sans-Serif" font-size="10.00"> </text>
<polyline fill="none" stroke="#bfbfbf" points="246.53,-566.5 290.53,-566.5 "/>
<text text-anchor="middle" x="268.53" y="-554.5" font-family="Helvetica,sans-Serif" font-size="10.00"> </text>
</a>
</g>
</g>
<!-- Node4&#45;&gt;Node1 -->
<g id="edge8" class="edge">
<title>Node4&#45;&gt;Node1</title>
<path fill="none" stroke="#404040" d="M246.24,-575.19C200.14,-574.21 94.8,-564.65 48.53,-500 -45.59,-368.47 13.19,-278.8 94.53,-139 100.31,-129.08 107.51,-119.51 115.28,-110.57"/>
<polygon fill="none" stroke="#404040" points="115.47,-110.37 116.56,-103.24 123.56,-101.5 122.47,-108.63 115.47,-110.37"/>
<text text-anchor="middle" x="55.03" y="-284" font-family="Helvetica,sans-Serif" font-size="10.00"> +m_operation</text>
</g>
<!-- Node4&#45;&gt;Node3 -->
<g id="edge3" class="edge">
<title>Node4&#45;&gt;Node3</title>
<path fill="none" stroke="#404040" d="M268.67,-547.45C268.81,-538.09 269.07,-527.59 269.53,-518 269.63,-515.96 269.74,-513.89 269.85,-511.82"/>
<polygon fill="none" stroke="#404040" points="269.86,-511.76 266.22,-505.53 270.56,-499.78 274.2,-506 269.86,-511.76"/>
<text text-anchor="middle" x="319.53" y="-521" font-family="Helvetica,sans-Serif" font-size="10.00"> #m_cachedToString</text>
</g>
<!-- Node6 -->
<g id="node6" class="node">
<title>Node6</title>
<g id="a_node6"><a xlink:href="struct_catch_1_1_matchers_1_1_std_string_1_1_cased_string.html" target="_top" xlink:title=" ">
<polygon fill="white" stroke="black" points="371.53,-343.5 371.53,-466.5 517.53,-466.5 517.53,-343.5 371.53,-343.5"/>
<text text-anchor="start" x="379.53" y="-454.5" font-family="Helvetica,sans-Serif" font-size="10.00">Catch::Matchers::StdString</text>
<text text-anchor="middle" x="444.53" y="-443.5" font-family="Helvetica,sans-Serif" font-size="10.00">::CasedString</text>
<polyline fill="none" stroke="black" points="371.53,-436.5 517.53,-436.5 "/>
<text text-anchor="middle" x="444.53" y="-424.5" font-family="Helvetica,sans-Serif" font-size="10.00"> </text>
<polyline fill="none" stroke="black" points="371.53,-417.5 517.53,-417.5 "/>
<text text-anchor="start" x="379.53" y="-405.5" font-family="Helvetica,sans-Serif" font-size="10.00">+ CasedString()</text>
<text text-anchor="start" x="379.53" y="-394.5" font-family="Helvetica,sans-Serif" font-size="10.00">+ adjustString()</text>
<text text-anchor="start" x="379.53" y="-383.5" font-family="Helvetica,sans-Serif" font-size="10.00">+ caseSensitivitySuffix()</text>
<text text-anchor="start" x="379.53" y="-372.5" font-family="Helvetica,sans-Serif" font-size="10.00">+ CasedString()</text>
<text text-anchor="start" x="379.53" y="-361.5" font-family="Helvetica,sans-Serif" font-size="10.00">+ adjustString()</text>
<text text-anchor="start" x="379.53" y="-350.5" font-family="Helvetica,sans-Serif" font-size="10.00">+ caseSensitivitySuffix()</text>
</a>
</g>
</g>
<!-- Node4&#45;&gt;Node6 -->
<g id="edge7" class="edge">
<title>Node4&#45;&gt;Node6</title>
<path fill="none" stroke="#404040" d="M290.76,-569.07C312.78,-562.31 346.47,-549.45 369.53,-529 385.8,-514.58 399.67,-495.77 410.89,-477.22"/>
<polygon fill="none" stroke="#404040" points="410.99,-477.04 410.55,-469.84 417.02,-466.66 417.47,-473.86 410.99,-477.04"/>
<text text-anchor="middle" x="400.53" y="-521" font-family="Helvetica,sans-Serif" font-size="10.00"> +m_str</text>
</g>
<!-- Node5 -->
<g id="node5" class="node">
<title>Node5</title>
<g id="a_node5"><a xlink:href="struct_catch_1_1_matchers_1_1_impl_1_1_matcher_method.html" target="_top" xlink:title=" ">
<polygon fill="white" stroke="black" points="57.53,-365.5 57.53,-444.5 185.53,-444.5 185.53,-365.5 57.53,-365.5"/>
<text text-anchor="start" x="65.53" y="-432.5" font-family="Helvetica,sans-Serif" font-size="10.00">Catch::Matchers::Impl</text>
<text text-anchor="middle" x="121.53" y="-421.5" font-family="Helvetica,sans-Serif" font-size="10.00">::MatcherMethod&lt; T &gt;</text>
<polyline fill="none" stroke="black" points="57.53,-414.5 185.53,-414.5 "/>
<text text-anchor="middle" x="121.53" y="-402.5" font-family="Helvetica,sans-Serif" font-size="10.00"> </text>
<polyline fill="none" stroke="black" points="57.53,-395.5 185.53,-395.5 "/>
<text text-anchor="start" x="65.53" y="-383.5" font-family="Helvetica,sans-Serif" font-size="10.00">+ match()</text>
<text text-anchor="start" x="65.53" y="-372.5" font-family="Helvetica,sans-Serif" font-size="10.00">+ match()</text>
</a>
</g>
</g>
<!-- Node5&#45;&gt;Node2 -->
<g id="edge4" class="edge">
<title>Node5&#45;&gt;Node2</title>
<path fill="none" stroke="midnightblue" d="M136.28,-355.16C144.68,-327.35 155.28,-292.26 164.21,-262.69"/>
<polygon fill="none" stroke="midnightblue" points="132.84,-354.47 133.3,-365.05 139.54,-356.49 132.84,-354.47"/>
</g>
<!-- Node6&#45;&gt;Node1 -->
<g id="edge5" class="edge">
<title>Node6&#45;&gt;Node1</title>
<path fill="none" stroke="#404040" d="M409.73,-343.36C376.8,-287.96 324.49,-204.9 270.53,-139 262.7,-129.43 253.93,-119.76 245.05,-110.52"/>
<polygon fill="none" stroke="#404040" points="244.92,-110.39 237.87,-108.9 236.53,-101.81 243.59,-103.3 244.92,-110.39"/>
<text text-anchor="middle" x="399.03" y="-198.5" font-family="Helvetica,sans-Serif" font-size="10.00"> +m_comparator</text>
</g>
<!-- Node7 -->
<g id="node7" class="node">
<title>Node7</title>
<g id="a_node7"><a xlink:title=" ">
<polygon fill="white" stroke="#bfbfbf" points="429.53,-547.5 429.53,-604.5 479.53,-604.5 479.53,-547.5 429.53,-547.5"/>
<text text-anchor="middle" x="454.53" y="-592.5" font-family="Helvetica,sans-Serif" font-size="10.00">Choice</text>
<polyline fill="none" stroke="#bfbfbf" points="429.53,-585.5 479.53,-585.5 "/>
<text text-anchor="middle" x="454.53" y="-573.5" font-family="Helvetica,sans-Serif" font-size="10.00"> </text>
<polyline fill="none" stroke="#bfbfbf" points="429.53,-566.5 479.53,-566.5 "/>
<text text-anchor="middle" x="454.53" y="-554.5" font-family="Helvetica,sans-Serif" font-size="10.00"> </text>
</a>
</g>
</g>
<!-- Node7&#45;&gt;Node6 -->
<g id="edge6" class="edge">
<title>Node7&#45;&gt;Node6</title>
<path fill="none" stroke="#404040" d="M452.91,-547.47C451.8,-528.83 450.29,-503.26 448.85,-478.98"/>
<polygon fill="none" stroke="#404040" points="448.84,-478.81 444.5,-473.05 448.13,-466.83 452.48,-472.58 448.84,-478.81"/>
<text text-anchor="middle" x="502.03" y="-521" font-family="Helvetica,sans-Serif" font-size="10.00"> +m_caseSensitivity</text>
</g>
</g>
</svg>
