<?xml version="1.0" encoding="UTF-8" standalone="no"?>
<!DOCTYPE svg PUBLIC "-//W3C//DTD SVG 1.1//EN"
 "http://www.w3.org/Graphics/SVG/1.1/DTD/svg11.dtd">
<!-- Generated by graphviz version 2.43.0 (0)
 -->
<!-- Title: Catch::Benchmark::Benchmark::run Pages: 1 -->
<svg width="1002pt" height="498pt"
 viewBox="0.00 0.00 1002.00 498.00" xmlns="http://www.w3.org/2000/svg" xmlns:xlink="http://www.w3.org/1999/xlink">
<g id="graph0" class="graph" transform="scale(1 1) rotate(0) translate(4 494)">
<title>Catch::Benchmark::Benchmark::run</title>
<polygon fill="white" stroke="transparent" points="-4,4 -4,-494 998,-494 998,4 -4,4"/>
<!-- Node1 -->
<g id="node1" class="node">
<title>Node1</title>
<g id="a_node1"><a xlink:title=" ">
<polygon fill="#bfbfbf" stroke="black" points="0,-176 0,-195 189,-195 189,-176 0,-176"/>
<text text-anchor="middle" x="94.5" y="-183" font-family="Helvetica,sans-Serif" font-size="10.00">Catch::Benchmark::Benchmark::run</text>
</a>
</g>
</g>
<!-- Node2 -->
<g id="node2" class="node">
<title>Node2</title>
<g id="a_node2"><a xlink:href="namespace_catch_1_1_benchmark_1_1_detail.html#a886d6f88db6f1ce76ff852689ffe926f" target="_top" xlink:title=" ">
<polygon fill="white" stroke="black" points="235,-312.5 235,-342.5 376,-342.5 376,-312.5 235,-312.5"/>
<text text-anchor="start" x="243" y="-330.5" font-family="Helvetica,sans-Serif" font-size="10.00">Catch::Benchmark::Detail</text>
<text text-anchor="middle" x="305.5" y="-319.5" font-family="Helvetica,sans-Serif" font-size="10.00">::analyse</text>
</a>
</g>
</g>
<!-- Node1&#45;&gt;Node2 -->
<g id="edge1" class="edge">
<title>Node1&#45;&gt;Node2</title>
<path fill="none" stroke="midnightblue" d="M109.54,-195.04C142.98,-217.76 228.01,-275.53 273.95,-306.74"/>
<polygon fill="midnightblue" stroke="midnightblue" points="272.08,-309.7 282.32,-312.43 276.01,-303.91 272.08,-309.7"/>
</g>
<!-- Node10 -->
<g id="node10" class="node">
<title>Node10</title>
<g id="a_node10"><a xlink:href="struct_catch_1_1_i_context.html#a72a2718232adea8925fec9e71d3efd75" target="_top" xlink:title=" ">
<polygon fill="white" stroke="black" points="233.5,-214 233.5,-233 377.5,-233 377.5,-214 233.5,-214"/>
<text text-anchor="middle" x="305.5" y="-221" font-family="Helvetica,sans-Serif" font-size="10.00">Catch::IContext::getConfig</text>
</a>
</g>
</g>
<!-- Node1&#45;&gt;Node10 -->
<g id="edge9" class="edge">
<title>Node1&#45;&gt;Node10</title>
<path fill="none" stroke="midnightblue" d="M147.97,-195.04C176.54,-200.23 212.08,-206.7 242.07,-212.15"/>
<polygon fill="midnightblue" stroke="midnightblue" points="241.54,-215.61 252.01,-213.96 242.8,-208.72 241.54,-215.61"/>
</g>
<!-- Node11 -->
<g id="node11" class="node">
<title>Node11</title>
<g id="a_node11"><a xlink:href="namespace_catch.html#a228a625318bb6183842e394eeba17d50" target="_top" xlink:title=" ">
<polygon fill="white" stroke="black" points="653.5,-157 653.5,-176 793.5,-176 793.5,-157 653.5,-157"/>
<text text-anchor="middle" x="723.5" y="-164" font-family="Helvetica,sans-Serif" font-size="10.00">Catch::getCurrentContext</text>
</a>
</g>
</g>
<!-- Node1&#45;&gt;Node11 -->
<g id="edge10" class="edge">
<title>Node1&#45;&gt;Node11</title>
<path fill="none" stroke="midnightblue" d="M189.03,-182.67C312.3,-178.93 527.05,-172.42 642.92,-168.91"/>
<polygon fill="midnightblue" stroke="midnightblue" points="643.25,-172.4 653.14,-168.6 643.04,-165.41 643.25,-172.4"/>
</g>
<!-- Node13 -->
<g id="node13" class="node">
<title>Node13</title>
<g id="a_node13"><a xlink:href="namespace_catch.html#af718eeab870712f292ed8dc6ee3f6488" target="_top" xlink:title=" ">
<polygon fill="white" stroke="black" points="441,-138 441,-157 576,-157 576,-138 441,-138"/>
<text text-anchor="middle" x="508.5" y="-145" font-family="Helvetica,sans-Serif" font-size="10.00">Catch::getResultCapture</text>
</a>
</g>
</g>
<!-- Node1&#45;&gt;Node13 -->
<g id="edge12" class="edge">
<title>Node1&#45;&gt;Node13</title>
<path fill="none" stroke="midnightblue" d="M180.8,-176C195.54,-174.44 210.71,-172.88 225,-171.5 294.68,-164.78 374.12,-158.12 430.97,-153.52"/>
<polygon fill="midnightblue" stroke="midnightblue" points="431.28,-157.01 440.96,-152.72 430.72,-150.03 431.28,-157.01"/>
</g>
<!-- Node14 -->
<g id="node14" class="node">
<title>Node14</title>
<g id="a_node14"><a xlink:href="namespace_catch_1_1_benchmark.html#a59d11a04c61ac4c4a740352ecff9b0eb" target="_top" xlink:title=" ">
<polygon fill="white" stroke="black" points="225,-97 225,-116 386,-116 386,-97 225,-97"/>
<text text-anchor="middle" x="305.5" y="-104" font-family="Helvetica,sans-Serif" font-size="10.00">Catch::Benchmark::user_code</text>
</a>
</g>
</g>
<!-- Node1&#45;&gt;Node14 -->
<g id="edge14" class="edge">
<title>Node1&#45;&gt;Node14</title>
<path fill="none" stroke="midnightblue" d="M118.28,-175.92C144.03,-165.18 187.28,-147.46 225,-133.5 238.07,-128.66 252.47,-123.67 265.38,-119.31"/>
<polygon fill="midnightblue" stroke="midnightblue" points="266.55,-122.62 274.92,-116.12 264.32,-115.98 266.55,-122.62"/>
</g>
<!-- Node3 -->
<g id="node3" class="node">
<title>Node3</title>
<g id="a_node3"><a xlink:href="namespace_catch_1_1_benchmark_1_1_detail.html#a7ee9e4fb035c7f8fa1cbfd4c3cd6242d" target="_top" xlink:title=" ">
<polygon fill="white" stroke="black" points="438,-459.5 438,-489.5 579,-489.5 579,-459.5 438,-459.5"/>
<text text-anchor="start" x="446" y="-477.5" font-family="Helvetica,sans-Serif" font-size="10.00">Catch::Benchmark::Detail</text>
<text text-anchor="middle" x="508.5" y="-466.5" font-family="Helvetica,sans-Serif" font-size="10.00">::analyse_samples</text>
</a>
</g>
</g>
<!-- Node2&#45;&gt;Node3 -->
<g id="edge2" class="edge">
<title>Node2&#45;&gt;Node3</title>
<path fill="none" stroke="midnightblue" d="M316.65,-342.88C334.7,-368.99 374.91,-421.94 422,-450.5 424.83,-452.22 427.8,-453.82 430.84,-455.31"/>
<polygon fill="midnightblue" stroke="midnightblue" points="429.64,-458.6 440.2,-459.44 432.47,-452.2 429.64,-458.6"/>
</g>
<!-- Node4 -->
<g id="node4" class="node">
<title>Node4</title>
<g id="a_node4"><a xlink:href="struct_catch_1_1_i_config.html#ae1ec73d460a2b58c7c9b022a430a34dd" target="_top" xlink:title=" ">
<polygon fill="white" stroke="black" points="436,-410.5 436,-440.5 581,-440.5 581,-410.5 436,-410.5"/>
<text text-anchor="start" x="444" y="-428.5" font-family="Helvetica,sans-Serif" font-size="10.00">Catch::IConfig::benchmark</text>
<text text-anchor="middle" x="508.5" y="-417.5" font-family="Helvetica,sans-Serif" font-size="10.00">ConfidenceInterval</text>
</a>
</g>
</g>
<!-- Node2&#45;&gt;Node4 -->
<g id="edge3" class="edge">
<title>Node2&#45;&gt;Node4</title>
<path fill="none" stroke="midnightblue" d="M325.91,-342.51C348.07,-359.01 385.93,-385.32 422,-401.5 426.43,-403.49 431.06,-405.35 435.77,-407.08"/>
<polygon fill="midnightblue" stroke="midnightblue" points="434.95,-410.5 445.54,-410.47 437.24,-403.89 434.95,-410.5"/>
</g>
<!-- Node5 -->
<g id="node5" class="node">
<title>Node5</title>
<g id="a_node5"><a xlink:href="struct_catch_1_1_i_config.html#aa9aa1eafdbe510e27bf319233969ee2c" target="_top" xlink:title=" ">
<polygon fill="white" stroke="black" points="436,-361.5 436,-391.5 581,-391.5 581,-361.5 436,-361.5"/>
<text text-anchor="start" x="444" y="-379.5" font-family="Helvetica,sans-Serif" font-size="10.00">Catch::IConfig::benchmark</text>
<text text-anchor="middle" x="508.5" y="-368.5" font-family="Helvetica,sans-Serif" font-size="10.00">NoAnalysis</text>
</a>
</g>
</g>
<!-- Node2&#45;&gt;Node5 -->
<g id="edge4" class="edge">
<title>Node2&#45;&gt;Node5</title>
<path fill="none" stroke="midnightblue" d="M368.17,-342.53C389.59,-347.76 413.78,-353.65 435.93,-359.05"/>
<polygon fill="midnightblue" stroke="midnightblue" points="435.4,-362.53 445.94,-361.49 437.06,-355.72 435.4,-362.53"/>
</g>
<!-- Node6 -->
<g id="node6" class="node">
<title>Node6</title>
<g id="a_node6"><a xlink:href="struct_catch_1_1_i_config.html#a3b8e5581be01f4773593f8b85eb7db98" target="_top" xlink:title=" ">
<polygon fill="white" stroke="black" points="436,-312.5 436,-342.5 581,-342.5 581,-312.5 436,-312.5"/>
<text text-anchor="start" x="444" y="-330.5" font-family="Helvetica,sans-Serif" font-size="10.00">Catch::IConfig::benchmark</text>
<text text-anchor="middle" x="508.5" y="-319.5" font-family="Helvetica,sans-Serif" font-size="10.00">Resamples</text>
</a>
</g>
</g>
<!-- Node2&#45;&gt;Node6 -->
<g id="edge5" class="edge">
<title>Node2&#45;&gt;Node6</title>
<path fill="none" stroke="midnightblue" d="M376.24,-327.5C392.2,-327.5 409.31,-327.5 425.72,-327.5"/>
<polygon fill="midnightblue" stroke="midnightblue" points="425.84,-331 435.84,-327.5 425.84,-324 425.84,-331"/>
</g>
<!-- Node7 -->
<g id="node7" class="node">
<title>Node7</title>
<g id="a_node7"><a xlink:href="namespace_catch_1_1_benchmark_1_1_detail.html#a87626a89686e11b0ad9f99ed0f2dd1b4" target="_top" xlink:title=" ">
<polygon fill="white" stroke="black" points="438,-263.5 438,-293.5 579,-293.5 579,-263.5 438,-263.5"/>
<text text-anchor="start" x="446" y="-281.5" font-family="Helvetica,sans-Serif" font-size="10.00">Catch::Benchmark::Detail</text>
<text text-anchor="middle" x="508.5" y="-270.5" font-family="Helvetica,sans-Serif" font-size="10.00">::classify_outliers</text>
</a>
</g>
</g>
<!-- Node2&#45;&gt;Node7 -->
<g id="edge6" class="edge">
<title>Node2&#45;&gt;Node7</title>
<path fill="none" stroke="midnightblue" d="M368.17,-312.47C389.59,-307.24 413.78,-301.35 435.93,-295.95"/>
<polygon fill="midnightblue" stroke="midnightblue" points="437.06,-299.28 445.94,-293.51 435.4,-292.47 437.06,-299.28"/>
</g>
<!-- Node9 -->
<g id="node9" class="node">
<title>Node9</title>
<g id="a_node9"><a xlink:href="namespace_catch_1_1_benchmark_1_1_detail.html#a58684ad47268f8841c69c94919864ec9" target="_top" xlink:title=" ">
<polygon fill="white" stroke="black" points="438,-214.5 438,-244.5 579,-244.5 579,-214.5 438,-214.5"/>
<text text-anchor="start" x="446" y="-232.5" font-family="Helvetica,sans-Serif" font-size="10.00">Catch::Benchmark::Detail</text>
<text text-anchor="middle" x="508.5" y="-221.5" font-family="Helvetica,sans-Serif" font-size="10.00">::mean</text>
</a>
</g>
</g>
<!-- Node2&#45;&gt;Node9 -->
<g id="edge8" class="edge">
<title>Node2&#45;&gt;Node9</title>
<path fill="none" stroke="midnightblue" d="M326.38,-312.49C348.66,-296.28 386.33,-270.6 422,-254.5 427.24,-252.14 432.76,-249.93 438.36,-247.89"/>
<polygon fill="midnightblue" stroke="midnightblue" points="439.54,-251.18 447.85,-244.61 437.25,-244.57 439.54,-251.18"/>
</g>
<!-- Node8 -->
<g id="node8" class="node">
<title>Node8</title>
<g id="a_node8"><a xlink:href="namespace_catch_1_1_benchmark_1_1_detail.html#afc97f2c4454d38848a57445bcc3de5af" target="_top" xlink:title=" ">
<polygon fill="white" stroke="black" points="644.5,-263.5 644.5,-293.5 802.5,-293.5 802.5,-263.5 644.5,-263.5"/>
<text text-anchor="start" x="652.5" y="-281.5" font-family="Helvetica,sans-Serif" font-size="10.00">Catch::Benchmark::Detail</text>
<text text-anchor="middle" x="723.5" y="-270.5" font-family="Helvetica,sans-Serif" font-size="10.00">::weighted_average_quantile</text>
</a>
</g>
</g>
<!-- Node7&#45;&gt;Node8 -->
<g id="edge7" class="edge">
<title>Node7&#45;&gt;Node8</title>
<path fill="none" stroke="midnightblue" d="M579.24,-278.5C596.85,-278.5 615.99,-278.5 634.37,-278.5"/>
<polygon fill="midnightblue" stroke="midnightblue" points="634.49,-282 644.49,-278.5 634.49,-275 634.49,-282"/>
</g>
<!-- Node12 -->
<g id="node12" class="node">
<title>Node12</title>
<g id="a_node12"><a xlink:href="namespace_catch.html#a710841d4732b86c06f816bd4822bd425" target="_top" xlink:title=" ">
<polygon fill="white" stroke="black" points="852,-151.5 852,-181.5 994,-181.5 994,-151.5 852,-151.5"/>
<text text-anchor="start" x="860" y="-169.5" font-family="Helvetica,sans-Serif" font-size="10.00">Catch::getCurrentMutable</text>
<text text-anchor="middle" x="923" y="-158.5" font-family="Helvetica,sans-Serif" font-size="10.00">Context</text>
</a>
</g>
</g>
<!-- Node11&#45;&gt;Node12 -->
<g id="edge11" class="edge">
<title>Node11&#45;&gt;Node12</title>
<path fill="none" stroke="midnightblue" d="M793.58,-166.5C809.09,-166.5 825.68,-166.5 841.61,-166.5"/>
<polygon fill="midnightblue" stroke="midnightblue" points="841.96,-170 851.96,-166.5 841.96,-163 841.96,-170"/>
</g>
<!-- Node13&#45;&gt;Node11 -->
<g id="edge13" class="edge">
<title>Node13&#45;&gt;Node11</title>
<path fill="none" stroke="midnightblue" d="M576.02,-153.43C597.29,-155.33 621.06,-157.45 643.16,-159.42"/>
<polygon fill="midnightblue" stroke="midnightblue" points="642.91,-162.91 653.18,-160.32 643.53,-155.94 642.91,-162.91"/>
</g>
<!-- Node14&#45;&gt;Node13 -->
<g id="edge16" class="edge">
<title>Node14&#45;&gt;Node13</title>
<path fill="none" stroke="midnightblue" d="M353.12,-116.01C382.19,-121.94 419.8,-129.61 450.62,-135.9"/>
<polygon fill="midnightblue" stroke="midnightblue" points="450.29,-139.4 460.79,-137.97 451.69,-132.54 450.29,-139.4"/>
</g>
<!-- Node15 -->
<g id="node15" class="node">
<title>Node15</title>
<g id="a_node15"><a xlink:href="namespace_catch_1_1_benchmark_1_1_detail.html#adcc60e1d2c95e5037d440a80b7a1fb47" target="_top" xlink:title=" ">
<polygon fill="white" stroke="black" points="438,-88.5 438,-118.5 579,-118.5 579,-88.5 438,-88.5"/>
<text text-anchor="start" x="446" y="-106.5" font-family="Helvetica,sans-Serif" font-size="10.00">Catch::Benchmark::Detail</text>
<text text-anchor="middle" x="508.5" y="-95.5" font-family="Helvetica,sans-Serif" font-size="10.00">::complete_invoke</text>
</a>
</g>
</g>
<!-- Node14&#45;&gt;Node15 -->
<g id="edge15" class="edge">
<title>Node14&#45;&gt;Node15</title>
<path fill="none" stroke="midnightblue" d="M386.23,-105.31C399.85,-105.11 414.01,-104.9 427.64,-104.69"/>
<polygon fill="midnightblue" stroke="midnightblue" points="428,-108.19 437.94,-104.54 427.89,-101.19 428,-108.19"/>
</g>
<!-- Node16 -->
<g id="node16" class="node">
<title>Node16</title>
<g id="a_node16"><a xlink:href="namespace_catch.html#adafff91485eeeeb9e9333f317cc0e3b1" target="_top" xlink:title=" ">
<polygon fill="white" stroke="black" points="422,-50 422,-69 595,-69 595,-50 422,-50"/>
<text text-anchor="middle" x="508.5" y="-57" font-family="Helvetica,sans-Serif" font-size="10.00">Catch::translateActiveException</text>
</a>
</g>
</g>
<!-- Node14&#45;&gt;Node16 -->
<g id="edge17" class="edge">
<title>Node14&#45;&gt;Node16</title>
<path fill="none" stroke="midnightblue" d="M347.18,-96.99C378.67,-89.62 422.5,-79.38 456.37,-71.46"/>
<polygon fill="midnightblue" stroke="midnightblue" points="457.6,-74.76 466.54,-69.08 456.01,-67.95 457.6,-74.76"/>
</g>
<!-- Node17 -->
<g id="node17" class="node">
<title>Node17</title>
<g id="a_node17"><a xlink:href="struct_catch_1_1_i_registry_hub.html#a48347c170d9c583af73027a27b2f0bd4" target="_top" xlink:title=" ">
<polygon fill="white" stroke="black" points="636,-88.5 636,-118.5 811,-118.5 811,-88.5 636,-88.5"/>
<text text-anchor="start" x="644" y="-106.5" font-family="Helvetica,sans-Serif" font-size="10.00">Catch::IRegistryHub</text>
<text text-anchor="middle" x="723.5" y="-95.5" font-family="Helvetica,sans-Serif" font-size="10.00">::getExceptionTranslatorRegistry</text>
</a>
</g>
</g>
<!-- Node16&#45;&gt;Node17 -->
<g id="edge18" class="edge">
<title>Node16&#45;&gt;Node17</title>
<path fill="none" stroke="midnightblue" d="M555.72,-69.05C580.23,-74.11 611.11,-80.49 639.6,-86.38"/>
<polygon fill="midnightblue" stroke="midnightblue" points="639.07,-89.84 649.57,-88.43 640.48,-82.98 639.07,-89.84"/>
</g>
<!-- Node18 -->
<g id="node18" class="node">
<title>Node18</title>
<g id="a_node18"><a xlink:href="namespace_catch.html#a5d328566cb8da87b48f1fac3f319ac7a" target="_top" xlink:title=" ">
<polygon fill="white" stroke="black" points="660.5,-50 660.5,-69 786.5,-69 786.5,-50 660.5,-50"/>
<text text-anchor="middle" x="723.5" y="-57" font-family="Helvetica,sans-Serif" font-size="10.00">Catch::getRegistryHub</text>
</a>
</g>
</g>
<!-- Node16&#45;&gt;Node18 -->
<g id="edge19" class="edge">
<title>Node16&#45;&gt;Node18</title>
<path fill="none" stroke="midnightblue" d="M595.21,-59.5C613.38,-59.5 632.39,-59.5 650.01,-59.5"/>
<polygon fill="midnightblue" stroke="midnightblue" points="650.2,-63 660.2,-59.5 650.2,-56 650.2,-63"/>
</g>
<!-- Node20 -->
<g id="node20" class="node">
<title>Node20</title>
<g id="a_node20"><a xlink:href="struct_catch_1_1_i_exception_translator_registry.html#af76ae8c331a17f2a94c9720bc0d686bb" target="_top" xlink:title=" ">
<polygon fill="white" stroke="black" points="631,-0.5 631,-30.5 816,-30.5 816,-0.5 631,-0.5"/>
<text text-anchor="start" x="639" y="-18.5" font-family="Helvetica,sans-Serif" font-size="10.00">Catch::IExceptionTranslator</text>
<text text-anchor="middle" x="723.5" y="-7.5" font-family="Helvetica,sans-Serif" font-size="10.00">Registry::translateActiveException</text>
</a>
</g>
</g>
<!-- Node16&#45;&gt;Node20 -->
<g id="edge21" class="edge">
<title>Node16&#45;&gt;Node20</title>
<path fill="none" stroke="midnightblue" d="M555.72,-49.95C580.23,-44.89 611.11,-38.51 639.6,-32.62"/>
<polygon fill="midnightblue" stroke="midnightblue" points="640.48,-36.02 649.57,-30.57 639.07,-29.16 640.48,-36.02"/>
</g>
<!-- Node19 -->
<g id="node19" class="node">
<title>Node19</title>
<g id="a_node19"><a xlink:href="class_catch_1_1_singleton.html#aa1b2bb002acd8838489a225dbbaf2865" target="_top" xlink:title=" ">
<polygon fill="white" stroke="black" points="864,-50 864,-69 982,-69 982,-50 864,-50"/>
<text text-anchor="middle" x="923" y="-57" font-family="Helvetica,sans-Serif" font-size="10.00">Catch::Singleton::get</text>
</a>
</g>
</g>
<!-- Node18&#45;&gt;Node19 -->
<g id="edge20" class="edge">
<title>Node18&#45;&gt;Node19</title>
<path fill="none" stroke="midnightblue" d="M786.72,-59.5C808,-59.5 831.91,-59.5 853.65,-59.5"/>
<polygon fill="midnightblue" stroke="midnightblue" points="853.79,-63 863.79,-59.5 853.79,-56 853.79,-63"/>
</g>
</g>
</svg>
