<?xml version="1.0" encoding="UTF-8" standalone="no"?>
<!DOCTYPE svg PUBLIC "-//W3C//DTD SVG 1.1//EN"
 "http://www.w3.org/Graphics/SVG/1.1/DTD/svg11.dtd">
<!-- Generated by graphviz version 2.43.0 (0)
 -->
<!-- Title: Catch::StringMaker&lt; float &gt;::convert Pages: 1 -->
<svg width="612pt" height="154pt"
 viewBox="0.00 0.00 612.00 153.50" xmlns="http://www.w3.org/2000/svg" xmlns:xlink="http://www.w3.org/1999/xlink">
<g id="graph0" class="graph" transform="scale(1 1) rotate(0) translate(4 149.5)">
<title>Catch::StringMaker&lt; float &gt;::convert</title>
<polygon fill="white" stroke="transparent" points="-4,4 -4,-149.5 608,-149.5 608,4 -4,4"/>
<!-- Node1 -->
<g id="node1" class="node">
<title>Node1</title>
<g id="a_node1"><a xlink:title=" ">
<polygon fill="#bfbfbf" stroke="black" points="0,-22.5 0,-52.5 109,-52.5 109,-22.5 0,-22.5"/>
<text text-anchor="start" x="8" y="-40.5" font-family="Helvetica,sans-Serif" font-size="10.00">Catch::StringMaker</text>
<text text-anchor="middle" x="54.5" y="-29.5" font-family="Helvetica,sans-Serif" font-size="10.00">&lt; float &gt;::convert</text>
</a>
</g>
</g>
<!-- Node2 -->
<g id="node2" class="node">
<title>Node2</title>
<g id="a_node2"><a xlink:href="namespace_catch.html#aca1a4cc9bcecb9df089c972ce72d4737" target="_top" xlink:title=" ">
<polygon fill="white" stroke="black" points="145,-50 145,-69 244,-69 244,-50 145,-50"/>
<text text-anchor="middle" x="194.5" y="-57" font-family="Helvetica,sans-Serif" font-size="10.00">Catch::fpToString</text>
</a>
</g>
</g>
<!-- Node1&#45;&gt;Node2 -->
<g id="edge1" class="edge">
<title>Node1&#45;&gt;Node2</title>
<path fill="none" stroke="midnightblue" d="M109.25,-46.07C117.54,-47.39 126.13,-48.76 134.52,-50.1"/>
<polygon fill="midnightblue" stroke="midnightblue" points="134.2,-53.59 144.62,-51.71 135.3,-46.68 134.2,-53.59"/>
</g>
<!-- Node7 -->
<g id="node7" class="node">
<title>Node7</title>
<g id="a_node7"><a xlink:href="namespace_catch_1_1_generators.html#a3b2efc97978cf37951b75394aae1a3fb" target="_top" xlink:title=" ">
<polygon fill="white" stroke="black" points="314,-0.5 314,-30.5 424,-30.5 424,-0.5 314,-0.5"/>
<text text-anchor="start" x="322" y="-18.5" font-family="Helvetica,sans-Serif" font-size="10.00">Catch::Generators::</text>
<text text-anchor="middle" x="369" y="-7.5" font-family="Helvetica,sans-Serif" font-size="10.00">value</text>
</a>
</g>
</g>
<!-- Node1&#45;&gt;Node7 -->
<g id="edge8" class="edge">
<title>Node1&#45;&gt;Node7</title>
<path fill="none" stroke="midnightblue" d="M109.22,-33.72C163.22,-29.92 246.46,-24.06 303.88,-20.01"/>
<polygon fill="midnightblue" stroke="midnightblue" points="304.21,-23.5 313.93,-19.31 303.71,-16.52 304.21,-23.5"/>
</g>
<!-- Node3 -->
<g id="node3" class="node">
<title>Node3</title>
<g id="a_node3"><a xlink:href="namespace_catch.html#aff37796f0f578c2816f74267e641c5f7" target="_top" xlink:title=" ">
<polygon fill="white" stroke="black" points="330.5,-126 330.5,-145 407.5,-145 407.5,-126 330.5,-126"/>
<text text-anchor="middle" x="369" y="-133" font-family="Helvetica,sans-Serif" font-size="10.00">Catch::isnan</text>
</a>
</g>
</g>
<!-- Node2&#45;&gt;Node3 -->
<g id="edge2" class="edge">
<title>Node2&#45;&gt;Node3</title>
<path fill="none" stroke="midnightblue" d="M206.71,-69.14C222.15,-81.92 251.35,-104.28 280,-116.5 292.6,-121.87 306.89,-125.79 320.24,-128.63"/>
<polygon fill="midnightblue" stroke="midnightblue" points="319.72,-132.09 330.21,-130.59 321.07,-125.23 319.72,-132.09"/>
</g>
<!-- Node5 -->
<g id="node5" class="node">
<title>Node5</title>
<g id="a_node5"><a xlink:href="xml_8sw_8approved_8txt.html#ab8b8577604b92144025744c78797c3bc" target="_top" xlink:title=" ">
<polygon fill="white" stroke="black" points="346.5,-88 346.5,-107 391.5,-107 391.5,-88 346.5,-88"/>
<text text-anchor="middle" x="369" y="-95" font-family="Helvetica,sans-Serif" font-size="10.00">size_t</text>
</a>
</g>
</g>
<!-- Node2&#45;&gt;Node5 -->
<g id="edge4" class="edge">
<title>Node2&#45;&gt;Node5</title>
<path fill="none" stroke="midnightblue" d="M237.61,-69.04C251.14,-72.09 266.2,-75.46 280,-78.5 298.71,-82.62 319.67,-87.15 336.45,-90.76"/>
<polygon fill="midnightblue" stroke="midnightblue" points="335.78,-94.19 346.29,-92.87 337.25,-87.35 335.78,-94.19"/>
</g>
<!-- Node6 -->
<g id="node6" class="node">
<title>Node6</title>
<g id="a_node6"><a xlink:href="class_catch_1_1_reusable_string_stream.html#a0e9ecf260b2a5d35f4886ef0d51f6270" target="_top" xlink:title=" ">
<polygon fill="white" stroke="black" points="280,-50 280,-69 458,-69 458,-50 280,-50"/>
<text text-anchor="middle" x="369" y="-57" font-family="Helvetica,sans-Serif" font-size="10.00">Catch::ReusableStringStream::str</text>
</a>
</g>
</g>
<!-- Node2&#45;&gt;Node6 -->
<g id="edge5" class="edge">
<title>Node2&#45;&gt;Node6</title>
<path fill="none" stroke="midnightblue" d="M244.01,-59.5C252.19,-59.5 260.94,-59.5 269.86,-59.5"/>
<polygon fill="midnightblue" stroke="midnightblue" points="269.98,-63 279.98,-59.5 269.98,-56 269.98,-63"/>
</g>
<!-- Node2&#45;&gt;Node7 -->
<g id="edge6" class="edge">
<title>Node2&#45;&gt;Node7</title>
<path fill="none" stroke="midnightblue" d="M232.93,-49.95C253.74,-44.64 280.22,-37.89 304.2,-31.77"/>
<polygon fill="midnightblue" stroke="midnightblue" points="305.12,-35.15 313.95,-29.29 303.39,-28.37 305.12,-35.15"/>
</g>
<!-- Node4 -->
<g id="node4" class="node">
<title>Node4</title>
<g id="a_node4"><a xlink:href="namespace_catch.html#a37d450336c237ac77721f0a3f9fb048d" target="_top" xlink:title=" ">
<polygon fill="white" stroke="black" points="510.5,-126 510.5,-145 587.5,-145 587.5,-126 510.5,-126"/>
<text text-anchor="middle" x="549" y="-133" font-family="Helvetica,sans-Serif" font-size="10.00">Catch::isnan</text>
</a>
</g>
</g>
<!-- Node3&#45;&gt;Node4 -->
<g id="edge3" class="edge">
<title>Node3&#45;&gt;Node4</title>
<path fill="none" stroke="midnightblue" d="M407.75,-135.5C434.65,-135.5 471.03,-135.5 500,-135.5"/>
<polygon fill="midnightblue" stroke="midnightblue" points="500.31,-139 510.31,-135.5 500.31,-132 500.31,-139"/>
</g>
<!-- Node8 -->
<g id="node8" class="node">
<title>Node8</title>
<g id="a_node8"><a xlink:href="namespace_catch_1_1_generators_1_1pf.html#a015e8fcef2972da878a07023e40d46d8" target="_top" xlink:title=" ">
<polygon fill="white" stroke="black" points="494,-0.5 494,-30.5 604,-30.5 604,-0.5 494,-0.5"/>
<text text-anchor="start" x="502" y="-18.5" font-family="Helvetica,sans-Serif" font-size="10.00">Catch::Generators::</text>
<text text-anchor="middle" x="549" y="-7.5" font-family="Helvetica,sans-Serif" font-size="10.00">pf::make_unique</text>
</a>
</g>
</g>
<!-- Node7&#45;&gt;Node8 -->
<g id="edge7" class="edge">
<title>Node7&#45;&gt;Node8</title>
<path fill="none" stroke="midnightblue" d="M424.37,-15.5C443.18,-15.5 464.43,-15.5 483.94,-15.5"/>
<polygon fill="midnightblue" stroke="midnightblue" points="483.96,-19 493.96,-15.5 483.96,-12 483.96,-19"/>
</g>
</g>
</svg>
