<?xml version="1.0" encoding="UTF-8" standalone="no"?>
<!DOCTYPE svg PUBLIC "-//W3C//DTD SVG 1.1//EN"
 "http://www.w3.org/Graphics/SVG/1.1/DTD/svg11.dtd">
<!-- Generated by graphviz version 2.43.0 (0)
 -->
<!-- Title: Catch::IConfig::minDuration Pages: 1 -->
<svg width="518pt" height="88pt"
 viewBox="0.00 0.00 518.00 88.00" xmlns="http://www.w3.org/2000/svg" xmlns:xlink="http://www.w3.org/1999/xlink">
<g id="graph0" class="graph" transform="scale(1 1) rotate(0) translate(4 84)">
<title>Catch::IConfig::minDuration</title>
<polygon fill="white" stroke="transparent" points="-4,4 -4,-84 514,-84 514,4 -4,4"/>
<!-- Node1 -->
<g id="node1" class="node">
<title>Node1</title>
<g id="a_node1"><a xlink:title=" ">
<polygon fill="#bfbfbf" stroke="black" points="359,-30 359,-49 510,-49 510,-30 359,-30"/>
<text text-anchor="middle" x="434.5" y="-37" font-family="Helvetica,sans-Serif" font-size="10.00">Catch::IConfig::minDuration</text>
</a>
</g>
</g>
<!-- Node2 -->
<g id="node2" class="node">
<title>Node2</title>
<g id="a_node2"><a xlink:href="namespace_catch.html#af4e1ece5befeb3ff910c3a54ff44abb0" target="_top" xlink:title="Should the reporter show.">
<polygon fill="white" stroke="black" points="172,-30 172,-49 323,-49 323,-30 172,-30"/>
<text text-anchor="middle" x="247.5" y="-37" font-family="Helvetica,sans-Serif" font-size="10.00">Catch::shouldShowDuration</text>
</a>
</g>
</g>
<!-- Node1&#45;&gt;Node2 -->
<g id="edge1" class="edge">
<title>Node1&#45;&gt;Node2</title>
<path fill="none" stroke="midnightblue" d="M348.53,-39.5C340.07,-39.5 331.53,-39.5 323.19,-39.5"/>
<polygon fill="midnightblue" stroke="midnightblue" points="348.79,-43 358.79,-39.5 348.79,-36 348.79,-43"/>
</g>
<!-- Node3 -->
<g id="node3" class="node">
<title>Node3</title>
<g id="a_node3"><a xlink:href="struct_catch_1_1_compact_reporter.html#a7e19f270f40f428470eb89a826fb07a1" target="_top" xlink:title=" ">
<polygon fill="white" stroke="black" points="0,-49.5 0,-79.5 136,-79.5 136,-49.5 0,-49.5"/>
<text text-anchor="start" x="8" y="-67.5" font-family="Helvetica,sans-Serif" font-size="10.00">Catch::CompactReporter</text>
<text text-anchor="middle" x="68" y="-56.5" font-family="Helvetica,sans-Serif" font-size="10.00">::sectionEnded</text>
</a>
</g>
</g>
<!-- Node2&#45;&gt;Node3 -->
<g id="edge2" class="edge">
<title>Node2&#45;&gt;Node3</title>
<path fill="none" stroke="midnightblue" d="M168.93,-50.42C158,-51.96 146.84,-53.54 136.13,-55.05"/>
<polygon fill="midnightblue" stroke="midnightblue" points="169.47,-53.88 178.89,-49.02 168.5,-46.95 169.47,-53.88"/>
</g>
<!-- Node4 -->
<g id="node4" class="node">
<title>Node4</title>
<g id="a_node4"><a xlink:href="struct_catch_1_1_console_reporter.html#a7ba7b75fa4a7e88d71782a1800523d78" target="_top" xlink:title=" ">
<polygon fill="white" stroke="black" points="2.5,-0.5 2.5,-30.5 133.5,-30.5 133.5,-0.5 2.5,-0.5"/>
<text text-anchor="start" x="10.5" y="-18.5" font-family="Helvetica,sans-Serif" font-size="10.00">Catch::ConsoleReporter</text>
<text text-anchor="middle" x="68" y="-7.5" font-family="Helvetica,sans-Serif" font-size="10.00">::sectionEnded</text>
</a>
</g>
</g>
<!-- Node2&#45;&gt;Node4 -->
<g id="edge3" class="edge">
<title>Node2&#45;&gt;Node4</title>
<path fill="none" stroke="midnightblue" d="M166.14,-28.63C155.23,-27.16 144.14,-25.66 133.56,-24.23"/>
<polygon fill="midnightblue" stroke="midnightblue" points="165.71,-32.11 176.09,-29.98 166.65,-25.17 165.71,-32.11"/>
</g>
</g>
</svg>
