<?xml version="1.0" encoding="UTF-8" standalone="no"?>
<!DOCTYPE svg PUBLIC "-//W3C//DTD SVG 1.1//EN"
 "http://www.w3.org/Graphics/SVG/1.1/DTD/svg11.dtd">
<!-- Generated by graphviz version 2.43.0 (0)
 -->
<!-- Title: Catch::Benchmark::Benchmark::operator= Pages: 1 -->
<svg width="1205pt" height="498pt"
 viewBox="0.00 0.00 1205.00 498.00" xmlns="http://www.w3.org/2000/svg" xmlns:xlink="http://www.w3.org/1999/xlink">
<g id="graph0" class="graph" transform="scale(1 1) rotate(0) translate(4 494)">
<title>Catch::Benchmark::Benchmark::operator=</title>
<polygon fill="white" stroke="transparent" points="-4,4 -4,-494 1201,-494 1201,4 -4,4"/>
<!-- Node1 -->
<g id="node1" class="node">
<title>Node1</title>
<g id="a_node1"><a xlink:title=" ">
<polygon fill="#bfbfbf" stroke="black" points="0,-170.5 0,-200.5 167,-200.5 167,-170.5 0,-170.5"/>
<text text-anchor="start" x="8" y="-188.5" font-family="Helvetica,sans-Serif" font-size="10.00">Catch::Benchmark::Benchmark</text>
<text text-anchor="middle" x="83.5" y="-177.5" font-family="Helvetica,sans-Serif" font-size="10.00">::operator=</text>
</a>
</g>
</g>
<!-- Node2 -->
<g id="node2" class="node">
<title>Node2</title>
<g id="a_node2"><a xlink:href="struct_catch_1_1_benchmark_1_1_benchmark.html#aeff43305485b4ce29af38094437a8544" target="_top" xlink:title=" ">
<polygon fill="white" stroke="black" points="203,-176 203,-195 392,-195 392,-176 203,-176"/>
<text text-anchor="middle" x="297.5" y="-183" font-family="Helvetica,sans-Serif" font-size="10.00">Catch::Benchmark::Benchmark::run</text>
</a>
</g>
</g>
<!-- Node1&#45;&gt;Node2 -->
<g id="edge1" class="edge">
<title>Node1&#45;&gt;Node2</title>
<path fill="none" stroke="midnightblue" d="M167.07,-185.5C175.51,-185.5 184.16,-185.5 192.79,-185.5"/>
<polygon fill="midnightblue" stroke="midnightblue" points="192.89,-189 202.89,-185.5 192.89,-182 192.89,-189"/>
</g>
<!-- Node3 -->
<g id="node3" class="node">
<title>Node3</title>
<g id="a_node3"><a xlink:href="namespace_catch_1_1_benchmark_1_1_detail.html#a886d6f88db6f1ce76ff852689ffe926f" target="_top" xlink:title=" ">
<polygon fill="white" stroke="black" points="438,-312.5 438,-342.5 579,-342.5 579,-312.5 438,-312.5"/>
<text text-anchor="start" x="446" y="-330.5" font-family="Helvetica,sans-Serif" font-size="10.00">Catch::Benchmark::Detail</text>
<text text-anchor="middle" x="508.5" y="-319.5" font-family="Helvetica,sans-Serif" font-size="10.00">::analyse</text>
</a>
</g>
</g>
<!-- Node2&#45;&gt;Node3 -->
<g id="edge2" class="edge">
<title>Node2&#45;&gt;Node3</title>
<path fill="none" stroke="midnightblue" d="M312.54,-195.04C345.98,-217.76 431.01,-275.53 476.95,-306.74"/>
<polygon fill="midnightblue" stroke="midnightblue" points="475.08,-309.7 485.32,-312.43 479.01,-303.91 475.08,-309.7"/>
</g>
<!-- Node11 -->
<g id="node11" class="node">
<title>Node11</title>
<g id="a_node11"><a xlink:href="struct_catch_1_1_i_context.html#a72a2718232adea8925fec9e71d3efd75" target="_top" xlink:title=" ">
<polygon fill="white" stroke="black" points="436.5,-214 436.5,-233 580.5,-233 580.5,-214 436.5,-214"/>
<text text-anchor="middle" x="508.5" y="-221" font-family="Helvetica,sans-Serif" font-size="10.00">Catch::IContext::getConfig</text>
</a>
</g>
</g>
<!-- Node2&#45;&gt;Node11 -->
<g id="edge10" class="edge">
<title>Node2&#45;&gt;Node11</title>
<path fill="none" stroke="midnightblue" d="M350.97,-195.04C379.54,-200.23 415.08,-206.7 445.07,-212.15"/>
<polygon fill="midnightblue" stroke="midnightblue" points="444.54,-215.61 455.01,-213.96 445.8,-208.72 444.54,-215.61"/>
</g>
<!-- Node12 -->
<g id="node12" class="node">
<title>Node12</title>
<g id="a_node12"><a xlink:href="namespace_catch.html#a228a625318bb6183842e394eeba17d50" target="_top" xlink:title=" ">
<polygon fill="white" stroke="black" points="856.5,-157 856.5,-176 996.5,-176 996.5,-157 856.5,-157"/>
<text text-anchor="middle" x="926.5" y="-164" font-family="Helvetica,sans-Serif" font-size="10.00">Catch::getCurrentContext</text>
</a>
</g>
</g>
<!-- Node2&#45;&gt;Node12 -->
<g id="edge11" class="edge">
<title>Node2&#45;&gt;Node12</title>
<path fill="none" stroke="midnightblue" d="M392.03,-182.67C515.3,-178.93 730.05,-172.42 845.92,-168.91"/>
<polygon fill="midnightblue" stroke="midnightblue" points="846.25,-172.4 856.14,-168.6 846.04,-165.41 846.25,-172.4"/>
</g>
<!-- Node14 -->
<g id="node14" class="node">
<title>Node14</title>
<g id="a_node14"><a xlink:href="namespace_catch.html#af718eeab870712f292ed8dc6ee3f6488" target="_top" xlink:title=" ">
<polygon fill="white" stroke="black" points="644,-138 644,-157 779,-157 779,-138 644,-138"/>
<text text-anchor="middle" x="711.5" y="-145" font-family="Helvetica,sans-Serif" font-size="10.00">Catch::getResultCapture</text>
</a>
</g>
</g>
<!-- Node2&#45;&gt;Node14 -->
<g id="edge13" class="edge">
<title>Node2&#45;&gt;Node14</title>
<path fill="none" stroke="midnightblue" d="M383.8,-176C398.54,-174.44 413.71,-172.88 428,-171.5 497.68,-164.78 577.12,-158.12 633.97,-153.52"/>
<polygon fill="midnightblue" stroke="midnightblue" points="634.28,-157.01 643.96,-152.72 633.72,-150.03 634.28,-157.01"/>
</g>
<!-- Node15 -->
<g id="node15" class="node">
<title>Node15</title>
<g id="a_node15"><a xlink:href="namespace_catch_1_1_benchmark.html#a59d11a04c61ac4c4a740352ecff9b0eb" target="_top" xlink:title=" ">
<polygon fill="white" stroke="black" points="428,-97 428,-116 589,-116 589,-97 428,-97"/>
<text text-anchor="middle" x="508.5" y="-104" font-family="Helvetica,sans-Serif" font-size="10.00">Catch::Benchmark::user_code</text>
</a>
</g>
</g>
<!-- Node2&#45;&gt;Node15 -->
<g id="edge15" class="edge">
<title>Node2&#45;&gt;Node15</title>
<path fill="none" stroke="midnightblue" d="M321.28,-175.92C347.03,-165.18 390.28,-147.46 428,-133.5 441.07,-128.66 455.47,-123.67 468.38,-119.31"/>
<polygon fill="midnightblue" stroke="midnightblue" points="469.55,-122.62 477.92,-116.12 467.32,-115.98 469.55,-122.62"/>
</g>
<!-- Node4 -->
<g id="node4" class="node">
<title>Node4</title>
<g id="a_node4"><a xlink:href="namespace_catch_1_1_benchmark_1_1_detail.html#a7ee9e4fb035c7f8fa1cbfd4c3cd6242d" target="_top" xlink:title=" ">
<polygon fill="white" stroke="black" points="641,-459.5 641,-489.5 782,-489.5 782,-459.5 641,-459.5"/>
<text text-anchor="start" x="649" y="-477.5" font-family="Helvetica,sans-Serif" font-size="10.00">Catch::Benchmark::Detail</text>
<text text-anchor="middle" x="711.5" y="-466.5" font-family="Helvetica,sans-Serif" font-size="10.00">::analyse_samples</text>
</a>
</g>
</g>
<!-- Node3&#45;&gt;Node4 -->
<g id="edge3" class="edge">
<title>Node3&#45;&gt;Node4</title>
<path fill="none" stroke="midnightblue" d="M519.65,-342.88C537.7,-368.99 577.91,-421.94 625,-450.5 627.83,-452.22 630.8,-453.82 633.84,-455.31"/>
<polygon fill="midnightblue" stroke="midnightblue" points="632.64,-458.6 643.2,-459.44 635.47,-452.2 632.64,-458.6"/>
</g>
<!-- Node5 -->
<g id="node5" class="node">
<title>Node5</title>
<g id="a_node5"><a xlink:href="struct_catch_1_1_i_config.html#ae1ec73d460a2b58c7c9b022a430a34dd" target="_top" xlink:title=" ">
<polygon fill="white" stroke="black" points="639,-410.5 639,-440.5 784,-440.5 784,-410.5 639,-410.5"/>
<text text-anchor="start" x="647" y="-428.5" font-family="Helvetica,sans-Serif" font-size="10.00">Catch::IConfig::benchmark</text>
<text text-anchor="middle" x="711.5" y="-417.5" font-family="Helvetica,sans-Serif" font-size="10.00">ConfidenceInterval</text>
</a>
</g>
</g>
<!-- Node3&#45;&gt;Node5 -->
<g id="edge4" class="edge">
<title>Node3&#45;&gt;Node5</title>
<path fill="none" stroke="midnightblue" d="M528.91,-342.51C551.07,-359.01 588.93,-385.32 625,-401.5 629.43,-403.49 634.06,-405.35 638.77,-407.08"/>
<polygon fill="midnightblue" stroke="midnightblue" points="637.95,-410.5 648.54,-410.47 640.24,-403.89 637.95,-410.5"/>
</g>
<!-- Node6 -->
<g id="node6" class="node">
<title>Node6</title>
<g id="a_node6"><a xlink:href="struct_catch_1_1_i_config.html#aa9aa1eafdbe510e27bf319233969ee2c" target="_top" xlink:title=" ">
<polygon fill="white" stroke="black" points="639,-361.5 639,-391.5 784,-391.5 784,-361.5 639,-361.5"/>
<text text-anchor="start" x="647" y="-379.5" font-family="Helvetica,sans-Serif" font-size="10.00">Catch::IConfig::benchmark</text>
<text text-anchor="middle" x="711.5" y="-368.5" font-family="Helvetica,sans-Serif" font-size="10.00">NoAnalysis</text>
</a>
</g>
</g>
<!-- Node3&#45;&gt;Node6 -->
<g id="edge5" class="edge">
<title>Node3&#45;&gt;Node6</title>
<path fill="none" stroke="midnightblue" d="M571.17,-342.53C592.59,-347.76 616.78,-353.65 638.93,-359.05"/>
<polygon fill="midnightblue" stroke="midnightblue" points="638.4,-362.53 648.94,-361.49 640.06,-355.72 638.4,-362.53"/>
</g>
<!-- Node7 -->
<g id="node7" class="node">
<title>Node7</title>
<g id="a_node7"><a xlink:href="struct_catch_1_1_i_config.html#a3b8e5581be01f4773593f8b85eb7db98" target="_top" xlink:title=" ">
<polygon fill="white" stroke="black" points="639,-312.5 639,-342.5 784,-342.5 784,-312.5 639,-312.5"/>
<text text-anchor="start" x="647" y="-330.5" font-family="Helvetica,sans-Serif" font-size="10.00">Catch::IConfig::benchmark</text>
<text text-anchor="middle" x="711.5" y="-319.5" font-family="Helvetica,sans-Serif" font-size="10.00">Resamples</text>
</a>
</g>
</g>
<!-- Node3&#45;&gt;Node7 -->
<g id="edge6" class="edge">
<title>Node3&#45;&gt;Node7</title>
<path fill="none" stroke="midnightblue" d="M579.24,-327.5C595.2,-327.5 612.31,-327.5 628.72,-327.5"/>
<polygon fill="midnightblue" stroke="midnightblue" points="628.84,-331 638.84,-327.5 628.84,-324 628.84,-331"/>
</g>
<!-- Node8 -->
<g id="node8" class="node">
<title>Node8</title>
<g id="a_node8"><a xlink:href="namespace_catch_1_1_benchmark_1_1_detail.html#a87626a89686e11b0ad9f99ed0f2dd1b4" target="_top" xlink:title=" ">
<polygon fill="white" stroke="black" points="641,-263.5 641,-293.5 782,-293.5 782,-263.5 641,-263.5"/>
<text text-anchor="start" x="649" y="-281.5" font-family="Helvetica,sans-Serif" font-size="10.00">Catch::Benchmark::Detail</text>
<text text-anchor="middle" x="711.5" y="-270.5" font-family="Helvetica,sans-Serif" font-size="10.00">::classify_outliers</text>
</a>
</g>
</g>
<!-- Node3&#45;&gt;Node8 -->
<g id="edge7" class="edge">
<title>Node3&#45;&gt;Node8</title>
<path fill="none" stroke="midnightblue" d="M571.17,-312.47C592.59,-307.24 616.78,-301.35 638.93,-295.95"/>
<polygon fill="midnightblue" stroke="midnightblue" points="640.06,-299.28 648.94,-293.51 638.4,-292.47 640.06,-299.28"/>
</g>
<!-- Node10 -->
<g id="node10" class="node">
<title>Node10</title>
<g id="a_node10"><a xlink:href="namespace_catch_1_1_benchmark_1_1_detail.html#a58684ad47268f8841c69c94919864ec9" target="_top" xlink:title=" ">
<polygon fill="white" stroke="black" points="641,-214.5 641,-244.5 782,-244.5 782,-214.5 641,-214.5"/>
<text text-anchor="start" x="649" y="-232.5" font-family="Helvetica,sans-Serif" font-size="10.00">Catch::Benchmark::Detail</text>
<text text-anchor="middle" x="711.5" y="-221.5" font-family="Helvetica,sans-Serif" font-size="10.00">::mean</text>
</a>
</g>
</g>
<!-- Node3&#45;&gt;Node10 -->
<g id="edge9" class="edge">
<title>Node3&#45;&gt;Node10</title>
<path fill="none" stroke="midnightblue" d="M529.38,-312.49C551.66,-296.28 589.33,-270.6 625,-254.5 630.24,-252.14 635.76,-249.93 641.36,-247.89"/>
<polygon fill="midnightblue" stroke="midnightblue" points="642.54,-251.18 650.85,-244.61 640.25,-244.57 642.54,-251.18"/>
</g>
<!-- Node9 -->
<g id="node9" class="node">
<title>Node9</title>
<g id="a_node9"><a xlink:href="namespace_catch_1_1_benchmark_1_1_detail.html#afc97f2c4454d38848a57445bcc3de5af" target="_top" xlink:title=" ">
<polygon fill="white" stroke="black" points="847.5,-263.5 847.5,-293.5 1005.5,-293.5 1005.5,-263.5 847.5,-263.5"/>
<text text-anchor="start" x="855.5" y="-281.5" font-family="Helvetica,sans-Serif" font-size="10.00">Catch::Benchmark::Detail</text>
<text text-anchor="middle" x="926.5" y="-270.5" font-family="Helvetica,sans-Serif" font-size="10.00">::weighted_average_quantile</text>
</a>
</g>
</g>
<!-- Node8&#45;&gt;Node9 -->
<g id="edge8" class="edge">
<title>Node8&#45;&gt;Node9</title>
<path fill="none" stroke="midnightblue" d="M782.24,-278.5C799.85,-278.5 818.99,-278.5 837.37,-278.5"/>
<polygon fill="midnightblue" stroke="midnightblue" points="837.49,-282 847.49,-278.5 837.49,-275 837.49,-282"/>
</g>
<!-- Node13 -->
<g id="node13" class="node">
<title>Node13</title>
<g id="a_node13"><a xlink:href="namespace_catch.html#a710841d4732b86c06f816bd4822bd425" target="_top" xlink:title=" ">
<polygon fill="white" stroke="black" points="1055,-151.5 1055,-181.5 1197,-181.5 1197,-151.5 1055,-151.5"/>
<text text-anchor="start" x="1063" y="-169.5" font-family="Helvetica,sans-Serif" font-size="10.00">Catch::getCurrentMutable</text>
<text text-anchor="middle" x="1126" y="-158.5" font-family="Helvetica,sans-Serif" font-size="10.00">Context</text>
</a>
</g>
</g>
<!-- Node12&#45;&gt;Node13 -->
<g id="edge12" class="edge">
<title>Node12&#45;&gt;Node13</title>
<path fill="none" stroke="midnightblue" d="M996.58,-166.5C1012.09,-166.5 1028.68,-166.5 1044.61,-166.5"/>
<polygon fill="midnightblue" stroke="midnightblue" points="1044.96,-170 1054.96,-166.5 1044.96,-163 1044.96,-170"/>
</g>
<!-- Node14&#45;&gt;Node12 -->
<g id="edge14" class="edge">
<title>Node14&#45;&gt;Node12</title>
<path fill="none" stroke="midnightblue" d="M779.02,-153.43C800.29,-155.33 824.06,-157.45 846.16,-159.42"/>
<polygon fill="midnightblue" stroke="midnightblue" points="845.91,-162.91 856.18,-160.32 846.53,-155.94 845.91,-162.91"/>
</g>
<!-- Node15&#45;&gt;Node14 -->
<g id="edge17" class="edge">
<title>Node15&#45;&gt;Node14</title>
<path fill="none" stroke="midnightblue" d="M556.12,-116.01C585.19,-121.94 622.8,-129.61 653.62,-135.9"/>
<polygon fill="midnightblue" stroke="midnightblue" points="653.29,-139.4 663.79,-137.97 654.69,-132.54 653.29,-139.4"/>
</g>
<!-- Node16 -->
<g id="node16" class="node">
<title>Node16</title>
<g id="a_node16"><a xlink:href="namespace_catch_1_1_benchmark_1_1_detail.html#adcc60e1d2c95e5037d440a80b7a1fb47" target="_top" xlink:title=" ">
<polygon fill="white" stroke="black" points="641,-88.5 641,-118.5 782,-118.5 782,-88.5 641,-88.5"/>
<text text-anchor="start" x="649" y="-106.5" font-family="Helvetica,sans-Serif" font-size="10.00">Catch::Benchmark::Detail</text>
<text text-anchor="middle" x="711.5" y="-95.5" font-family="Helvetica,sans-Serif" font-size="10.00">::complete_invoke</text>
</a>
</g>
</g>
<!-- Node15&#45;&gt;Node16 -->
<g id="edge16" class="edge">
<title>Node15&#45;&gt;Node16</title>
<path fill="none" stroke="midnightblue" d="M589.23,-105.31C602.85,-105.11 617.01,-104.9 630.64,-104.69"/>
<polygon fill="midnightblue" stroke="midnightblue" points="631,-108.19 640.94,-104.54 630.89,-101.19 631,-108.19"/>
</g>
<!-- Node17 -->
<g id="node17" class="node">
<title>Node17</title>
<g id="a_node17"><a xlink:href="namespace_catch.html#adafff91485eeeeb9e9333f317cc0e3b1" target="_top" xlink:title=" ">
<polygon fill="white" stroke="black" points="625,-50 625,-69 798,-69 798,-50 625,-50"/>
<text text-anchor="middle" x="711.5" y="-57" font-family="Helvetica,sans-Serif" font-size="10.00">Catch::translateActiveException</text>
</a>
</g>
</g>
<!-- Node15&#45;&gt;Node17 -->
<g id="edge18" class="edge">
<title>Node15&#45;&gt;Node17</title>
<path fill="none" stroke="midnightblue" d="M550.18,-96.99C581.67,-89.62 625.5,-79.38 659.37,-71.46"/>
<polygon fill="midnightblue" stroke="midnightblue" points="660.6,-74.76 669.54,-69.08 659.01,-67.95 660.6,-74.76"/>
</g>
<!-- Node18 -->
<g id="node18" class="node">
<title>Node18</title>
<g id="a_node18"><a xlink:href="struct_catch_1_1_i_registry_hub.html#a48347c170d9c583af73027a27b2f0bd4" target="_top" xlink:title=" ">
<polygon fill="white" stroke="black" points="839,-88.5 839,-118.5 1014,-118.5 1014,-88.5 839,-88.5"/>
<text text-anchor="start" x="847" y="-106.5" font-family="Helvetica,sans-Serif" font-size="10.00">Catch::IRegistryHub</text>
<text text-anchor="middle" x="926.5" y="-95.5" font-family="Helvetica,sans-Serif" font-size="10.00">::getExceptionTranslatorRegistry</text>
</a>
</g>
</g>
<!-- Node17&#45;&gt;Node18 -->
<g id="edge19" class="edge">
<title>Node17&#45;&gt;Node18</title>
<path fill="none" stroke="midnightblue" d="M758.72,-69.05C783.23,-74.11 814.11,-80.49 842.6,-86.38"/>
<polygon fill="midnightblue" stroke="midnightblue" points="842.07,-89.84 852.57,-88.43 843.48,-82.98 842.07,-89.84"/>
</g>
<!-- Node19 -->
<g id="node19" class="node">
<title>Node19</title>
<g id="a_node19"><a xlink:href="namespace_catch.html#a5d328566cb8da87b48f1fac3f319ac7a" target="_top" xlink:title=" ">
<polygon fill="white" stroke="black" points="863.5,-50 863.5,-69 989.5,-69 989.5,-50 863.5,-50"/>
<text text-anchor="middle" x="926.5" y="-57" font-family="Helvetica,sans-Serif" font-size="10.00">Catch::getRegistryHub</text>
</a>
</g>
</g>
<!-- Node17&#45;&gt;Node19 -->
<g id="edge20" class="edge">
<title>Node17&#45;&gt;Node19</title>
<path fill="none" stroke="midnightblue" d="M798.21,-59.5C816.38,-59.5 835.39,-59.5 853.01,-59.5"/>
<polygon fill="midnightblue" stroke="midnightblue" points="853.2,-63 863.2,-59.5 853.2,-56 853.2,-63"/>
</g>
<!-- Node21 -->
<g id="node21" class="node">
<title>Node21</title>
<g id="a_node21"><a xlink:href="struct_catch_1_1_i_exception_translator_registry.html#af76ae8c331a17f2a94c9720bc0d686bb" target="_top" xlink:title=" ">
<polygon fill="white" stroke="black" points="834,-0.5 834,-30.5 1019,-30.5 1019,-0.5 834,-0.5"/>
<text text-anchor="start" x="842" y="-18.5" font-family="Helvetica,sans-Serif" font-size="10.00">Catch::IExceptionTranslator</text>
<text text-anchor="middle" x="926.5" y="-7.5" font-family="Helvetica,sans-Serif" font-size="10.00">Registry::translateActiveException</text>
</a>
</g>
</g>
<!-- Node17&#45;&gt;Node21 -->
<g id="edge22" class="edge">
<title>Node17&#45;&gt;Node21</title>
<path fill="none" stroke="midnightblue" d="M758.72,-49.95C783.23,-44.89 814.11,-38.51 842.6,-32.62"/>
<polygon fill="midnightblue" stroke="midnightblue" points="843.48,-36.02 852.57,-30.57 842.07,-29.16 843.48,-36.02"/>
</g>
<!-- Node20 -->
<g id="node20" class="node">
<title>Node20</title>
<g id="a_node20"><a xlink:href="class_catch_1_1_singleton.html#aa1b2bb002acd8838489a225dbbaf2865" target="_top" xlink:title=" ">
<polygon fill="white" stroke="black" points="1067,-50 1067,-69 1185,-69 1185,-50 1067,-50"/>
<text text-anchor="middle" x="1126" y="-57" font-family="Helvetica,sans-Serif" font-size="10.00">Catch::Singleton::get</text>
</a>
</g>
</g>
<!-- Node19&#45;&gt;Node20 -->
<g id="edge21" class="edge">
<title>Node19&#45;&gt;Node20</title>
<path fill="none" stroke="midnightblue" d="M989.72,-59.5C1011,-59.5 1034.91,-59.5 1056.65,-59.5"/>
<polygon fill="midnightblue" stroke="midnightblue" points="1056.79,-63 1066.79,-59.5 1056.79,-56 1056.79,-63"/>
</g>
</g>
</svg>
