<?xml version="1.0" encoding="UTF-8" standalone="no"?>
<!DOCTYPE svg PUBLIC "-//W3C//DTD SVG 1.1//EN"
 "http://www.w3.org/Graphics/SVG/1.1/DTD/svg11.dtd">
<!-- Generated by graphviz version 2.43.0 (0)
 -->
<!-- Title: clara::detail::NonCopyable Pages: 1 -->
<!--zoomable 469 -->
<svg id="main" version="1.1" xmlns="http://www.w3.org/2000/svg" xmlns:xlink="http://www.w3.org/1999/xlink" xml:space="preserve" onload="init(evt)">
<style type="text/css"><![CDATA[
.edge:hover path { stroke: red; }
.edge:hover polygon { stroke: red; fill: red; }
]]></style>
<script type="text/javascript"><![CDATA[
var edges = document.getElementsByTagName('g');
if (edges && edges.length) {
  for (var i=0;i<edges.length;i++) {
    if (edges[i].id.substr(0,4)=='edge') {
      edges[i].setAttribute('class','edge');
    }
  }
}
]]></script>
        <defs>
                <circle id="rim" cx="0" cy="0" r="7"/>
                <circle id="rim2" cx="0" cy="0" r="3.5"/>
                <g id="zoomPlus">
                        <use xlink:href="#rim" fill="#404040">
                                <set attributeName="fill" to="#808080" begin="zoomplus.mouseover" end="zoomplus.mouseout"/>
                        </use>
                        <path d="M-4,0h8M0,-4v8" fill="none" stroke="white" stroke-width="1.5" pointer-events="none"/>
                </g>
                <g id="zoomMin">
                        <use xlink:href="#rim" fill="#404040">
                                <set attributeName="fill" to="#808080" begin="zoomminus.mouseover" end="zoomminus.mouseout"/>
                        </use>
                        <path d="M-4,0h8" fill="none" stroke="white" stroke-width="1.5" pointer-events="none"/>
                </g>
                <g id="dirArrow">
                        <path fill="none" stroke="white" stroke-width="1.5" d="M0,-3.0v7 M-2.5,-0.5L0,-3.0L2.5,-0.5"/>
                </g>
               <g id="resetDef">
                       <use xlink:href="#rim2" fill="#404040">
                               <set attributeName="fill" to="#808080" begin="reset.mouseover" end="reset.mouseout"/>
                       </use>
               </g>
        </defs>

<script type="text/javascript">
var viewWidth = 815;
var viewHeight = 469;
var sectionId = 'dynsection-0';
</script>
<script xlink:href="svgpan.js"/>
<svg id="graph" class="graph">
<g id="viewport">
<title>clara::detail::NonCopyable</title>
<polygon fill="white" stroke="transparent" points="-4,4 -4,-465 811,-465 811,4 -4,4"/>
<!-- Node1 -->
<g id="node1" class="node">
<title>Node1</title>
<g id="a_node1"><a xlink:title=" ">
<polygon fill="#bfbfbf" stroke="black" points="242,-359.5 242,-460.5 388,-460.5 388,-359.5 242,-359.5"/>
<text text-anchor="middle" x="315" y="-448.5" font-family="Helvetica,sans-Serif" font-size="10.00">clara::detail::NonCopyable</text>
<polyline fill="none" stroke="black" points="242,-441.5 388,-441.5 "/>
<text text-anchor="middle" x="315" y="-429.5" font-family="Helvetica,sans-Serif" font-size="10.00"> </text>
<polyline fill="none" stroke="black" points="242,-422.5 388,-422.5 "/>
<text text-anchor="start" x="250" y="-410.5" font-family="Helvetica,sans-Serif" font-size="10.00">+ NonCopyable()</text>
<text text-anchor="start" x="250" y="-399.5" font-family="Helvetica,sans-Serif" font-size="10.00">+ NonCopyable()</text>
<text text-anchor="start" x="250" y="-388.5" font-family="Helvetica,sans-Serif" font-size="10.00">+ NonCopyable()</text>
<text text-anchor="start" x="250" y="-377.5" font-family="Helvetica,sans-Serif" font-size="10.00">+ operator=()</text>
<text text-anchor="start" x="250" y="-366.5" font-family="Helvetica,sans-Serif" font-size="10.00">+ operator=()</text>
</a>
</g>
</g>
<!-- Node2 -->
<g id="node2" class="node">
<title>Node2</title>
<g id="a_node2"><a xlink:href="structclara_1_1detail_1_1_bound_ref.html" target="_top" xlink:title=" ">
<polygon fill="white" stroke="black" points="251,-243.5 251,-322.5 379,-322.5 379,-243.5 251,-243.5"/>
<text text-anchor="middle" x="315" y="-310.5" font-family="Helvetica,sans-Serif" font-size="10.00">clara::detail::BoundRef</text>
<polyline fill="none" stroke="black" points="251,-303.5 379,-303.5 "/>
<text text-anchor="middle" x="315" y="-291.5" font-family="Helvetica,sans-Serif" font-size="10.00"> </text>
<polyline fill="none" stroke="black" points="251,-284.5 379,-284.5 "/>
<text text-anchor="start" x="259" y="-272.5" font-family="Helvetica,sans-Serif" font-size="10.00">+ ~BoundRef()</text>
<text text-anchor="start" x="259" y="-261.5" font-family="Helvetica,sans-Serif" font-size="10.00">+ isContainer()</text>
<text text-anchor="start" x="259" y="-250.5" font-family="Helvetica,sans-Serif" font-size="10.00">+ isFlag()</text>
</a>
</g>
</g>
<!-- Node1&#45;&gt;Node2 -->
<g id="edge1" class="edge">
<title>Node1&#45;&gt;Node2</title>
<path fill="none" stroke="midnightblue" d="M315,-349.19C315,-340.22 315,-331.18 315,-322.81"/>
<polygon fill="none" stroke="midnightblue" points="311.5,-349.24 315,-359.24 318.5,-349.24 311.5,-349.24"/>
</g>
<!-- Node3 -->
<g id="node3" class="node">
<title>Node3</title>
<g id="a_node3"><a xlink:href="structclara_1_1detail_1_1_bound_flag_ref_base.html" target="_top" xlink:title=" ">
<polygon fill="white" stroke="black" points="159,-127.5 159,-206.5 291,-206.5 291,-127.5 159,-127.5"/>
<text text-anchor="start" x="167" y="-194.5" font-family="Helvetica,sans-Serif" font-size="10.00">clara::detail::BoundFlag</text>
<text text-anchor="middle" x="225" y="-183.5" font-family="Helvetica,sans-Serif" font-size="10.00">RefBase</text>
<polyline fill="none" stroke="black" points="159,-176.5 291,-176.5 "/>
<text text-anchor="middle" x="225" y="-164.5" font-family="Helvetica,sans-Serif" font-size="10.00"> </text>
<polyline fill="none" stroke="black" points="159,-157.5 291,-157.5 "/>
<text text-anchor="start" x="167" y="-145.5" font-family="Helvetica,sans-Serif" font-size="10.00">+ setFlag()</text>
<text text-anchor="start" x="167" y="-134.5" font-family="Helvetica,sans-Serif" font-size="10.00">+ isFlag()</text>
</a>
</g>
</g>
<!-- Node2&#45;&gt;Node3 -->
<g id="edge2" class="edge">
<title>Node2&#45;&gt;Node3</title>
<path fill="none" stroke="midnightblue" d="M278.26,-235.46C270.67,-225.85 262.77,-215.84 255.44,-206.56"/>
<polygon fill="none" stroke="midnightblue" points="275.59,-237.72 284.53,-243.4 281.08,-233.39 275.59,-237.72"/>
</g>
<!-- Node6 -->
<g id="node6" class="node">
<title>Node6</title>
<g id="a_node6"><a xlink:href="structclara_1_1detail_1_1_bound_value_ref_base.html" target="_top" xlink:title=" ">
<polygon fill="white" stroke="black" points="425,-133 425,-201 563,-201 563,-133 425,-133"/>
<text text-anchor="start" x="433" y="-189" font-family="Helvetica,sans-Serif" font-size="10.00">clara::detail::BoundValue</text>
<text text-anchor="middle" x="494" y="-178" font-family="Helvetica,sans-Serif" font-size="10.00">RefBase</text>
<polyline fill="none" stroke="black" points="425,-171 563,-171 "/>
<text text-anchor="middle" x="494" y="-159" font-family="Helvetica,sans-Serif" font-size="10.00"> </text>
<polyline fill="none" stroke="black" points="425,-152 563,-152 "/>
<text text-anchor="start" x="433" y="-140" font-family="Helvetica,sans-Serif" font-size="10.00">+ setValue()</text>
</a>
</g>
</g>
<!-- Node2&#45;&gt;Node6 -->
<g id="edge5" class="edge">
<title>Node2&#45;&gt;Node6</title>
<path fill="none" stroke="midnightblue" d="M384.07,-238.01C403.37,-225.72 424.01,-212.58 442.13,-201.04"/>
<polygon fill="none" stroke="midnightblue" points="382.16,-235.08 375.6,-243.4 385.92,-240.99 382.16,-235.08"/>
</g>
<!-- Node4 -->
<g id="node4" class="node">
<title>Node4</title>
<g id="a_node4"><a xlink:href="structclara_1_1detail_1_1_bound_flag_lambda.html" target="_top" xlink:title=" ">
<polygon fill="white" stroke="black" points="0,-6 0,-85 132,-85 132,-6 0,-6"/>
<text text-anchor="start" x="8" y="-73" font-family="Helvetica,sans-Serif" font-size="10.00">clara::detail::BoundFlag</text>
<text text-anchor="middle" x="66" y="-62" font-family="Helvetica,sans-Serif" font-size="10.00">Lambda&lt; L &gt;</text>
<polyline fill="none" stroke="black" points="0,-55 132,-55 "/>
<text text-anchor="start" x="8" y="-43" font-family="Helvetica,sans-Serif" font-size="10.00">+ m_lambda</text>
<polyline fill="none" stroke="black" points="0,-36 132,-36 "/>
<text text-anchor="start" x="8" y="-24" font-family="Helvetica,sans-Serif" font-size="10.00">+ BoundFlagLambda()</text>
<text text-anchor="start" x="8" y="-13" font-family="Helvetica,sans-Serif" font-size="10.00">+ setFlag()</text>
</a>
</g>
</g>
<!-- Node3&#45;&gt;Node4 -->
<g id="edge3" class="edge">
<title>Node3&#45;&gt;Node4</title>
<path fill="none" stroke="midnightblue" d="M165.25,-121.1C149.5,-109.25 132.63,-96.58 117.36,-85.1"/>
<polygon fill="none" stroke="midnightblue" points="163.28,-123.99 173.38,-127.2 167.49,-118.4 163.28,-123.99"/>
</g>
<!-- Node5 -->
<g id="node5" class="node">
<title>Node5</title>
<g id="a_node5"><a xlink:href="structclara_1_1detail_1_1_bound_flag_ref.html" target="_top" xlink:title=" ">
<polygon fill="white" stroke="black" points="150.5,-11.5 150.5,-79.5 299.5,-79.5 299.5,-11.5 150.5,-11.5"/>
<text text-anchor="middle" x="225" y="-67.5" font-family="Helvetica,sans-Serif" font-size="10.00">clara::detail::BoundFlagRef</text>
<polyline fill="none" stroke="black" points="150.5,-60.5 299.5,-60.5 "/>
<text text-anchor="start" x="158.5" y="-48.5" font-family="Helvetica,sans-Serif" font-size="10.00">+ m_ref</text>
<polyline fill="none" stroke="black" points="150.5,-41.5 299.5,-41.5 "/>
<text text-anchor="start" x="158.5" y="-29.5" font-family="Helvetica,sans-Serif" font-size="10.00">+ BoundFlagRef()</text>
<text text-anchor="start" x="158.5" y="-18.5" font-family="Helvetica,sans-Serif" font-size="10.00">+ setFlag()</text>
</a>
</g>
</g>
<!-- Node3&#45;&gt;Node5 -->
<g id="edge4" class="edge">
<title>Node3&#45;&gt;Node5</title>
<path fill="none" stroke="midnightblue" d="M225,-116.93C225,-104.47 225,-91.37 225,-79.89"/>
<polygon fill="none" stroke="midnightblue" points="221.5,-117.2 225,-127.2 228.5,-117.2 221.5,-117.2"/>
</g>
<!-- Node7 -->
<g id="node7" class="node">
<title>Node7</title>
<g id="a_node7"><a xlink:href="structclara_1_1detail_1_1_bound_lambda.html" target="_top" xlink:title=" ">
<polygon fill="white" stroke="black" points="317,-11.5 317,-79.5 495,-79.5 495,-11.5 317,-11.5"/>
<text text-anchor="middle" x="406" y="-67.5" font-family="Helvetica,sans-Serif" font-size="10.00">clara::detail::BoundLambda&lt; L &gt;</text>
<polyline fill="none" stroke="black" points="317,-60.5 495,-60.5 "/>
<text text-anchor="start" x="325" y="-48.5" font-family="Helvetica,sans-Serif" font-size="10.00">+ m_lambda</text>
<polyline fill="none" stroke="black" points="317,-41.5 495,-41.5 "/>
<text text-anchor="start" x="325" y="-29.5" font-family="Helvetica,sans-Serif" font-size="10.00">+ BoundLambda()</text>
<text text-anchor="start" x="325" y="-18.5" font-family="Helvetica,sans-Serif" font-size="10.00">+ setValue()</text>
</a>
</g>
</g>
<!-- Node6&#45;&gt;Node7 -->
<g id="edge6" class="edge">
<title>Node6&#45;&gt;Node7</title>
<path fill="none" stroke="midnightblue" d="M463.3,-124.31C452.52,-109.67 440.57,-93.44 430.38,-79.61"/>
<polygon fill="none" stroke="midnightblue" points="460.74,-126.74 469.49,-132.71 466.38,-122.58 460.74,-126.74"/>
</g>
<!-- Node8 -->
<g id="node8" class="node">
<title>Node8</title>
<g id="a_node8"><a xlink:href="structclara_1_1detail_1_1_bound_value_ref.html" target="_top" xlink:title=" ">
<polygon fill="white" stroke="black" points="513,-6 513,-85 651,-85 651,-6 513,-6"/>
<text text-anchor="start" x="521" y="-73" font-family="Helvetica,sans-Serif" font-size="10.00">clara::detail::BoundValue</text>
<text text-anchor="middle" x="582" y="-62" font-family="Helvetica,sans-Serif" font-size="10.00">Ref&lt; T &gt;</text>
<polyline fill="none" stroke="black" points="513,-55 651,-55 "/>
<text text-anchor="start" x="521" y="-43" font-family="Helvetica,sans-Serif" font-size="10.00">+ m_ref</text>
<polyline fill="none" stroke="black" points="513,-36 651,-36 "/>
<text text-anchor="start" x="521" y="-24" font-family="Helvetica,sans-Serif" font-size="10.00">+ BoundValueRef()</text>
<text text-anchor="start" x="521" y="-13" font-family="Helvetica,sans-Serif" font-size="10.00">+ setValue()</text>
</a>
</g>
</g>
<!-- Node6&#45;&gt;Node8 -->
<g id="edge7" class="edge">
<title>Node6&#45;&gt;Node8</title>
<path fill="none" stroke="midnightblue" d="M524.55,-124.51C533.97,-111.72 544.3,-97.69 553.58,-85.1"/>
<polygon fill="none" stroke="midnightblue" points="521.62,-122.58 518.51,-132.71 527.26,-126.74 521.62,-122.58"/>
</g>
<!-- Node9 -->
<g id="node9" class="node">
<title>Node9</title>
<g id="a_node9"><a xlink:href="structclara_1_1detail_1_1_bound_value_ref_3_01std_1_1vector_3_01_t_01_4_01_4.html" target="_top" xlink:title=" ">
<polygon fill="white" stroke="black" points="669,-0.5 669,-90.5 807,-90.5 807,-0.5 669,-0.5"/>
<text text-anchor="start" x="677" y="-78.5" font-family="Helvetica,sans-Serif" font-size="10.00">clara::detail::BoundValue</text>
<text text-anchor="middle" x="738" y="-67.5" font-family="Helvetica,sans-Serif" font-size="10.00">Ref&lt; std::vector&lt; T &gt; &gt;</text>
<polyline fill="none" stroke="black" points="669,-60.5 807,-60.5 "/>
<text text-anchor="start" x="677" y="-48.5" font-family="Helvetica,sans-Serif" font-size="10.00">+ m_ref</text>
<polyline fill="none" stroke="black" points="669,-41.5 807,-41.5 "/>
<text text-anchor="start" x="677" y="-29.5" font-family="Helvetica,sans-Serif" font-size="10.00">+ BoundValueRef()</text>
<text text-anchor="start" x="677" y="-18.5" font-family="Helvetica,sans-Serif" font-size="10.00">+ isContainer()</text>
<text text-anchor="start" x="677" y="-7.5" font-family="Helvetica,sans-Serif" font-size="10.00">+ setValue()</text>
</a>
</g>
</g>
<!-- Node6&#45;&gt;Node9 -->
<g id="edge8" class="edge">
<title>Node6&#45;&gt;Node9</title>
<path fill="none" stroke="midnightblue" d="M572.64,-132.29C600.5,-119.87 631.9,-105.32 660,-91 662.92,-89.51 665.88,-87.97 668.86,-86.39"/>
<polygon fill="none" stroke="midnightblue" points="571.06,-129.16 563.34,-136.42 573.9,-135.56 571.06,-129.16"/>
</g>
</g>
</svg>
        <g id="navigator" transform="translate(0 0)" fill="#404254">
                <rect fill="#f2f5e9" fill-opacity="0.5" stroke="#606060" stroke-width=".5" x="0" y="0" width="60" height="60"/>
                <use id="zoomplus" xlink:href="#zoomPlus" x="17" y="9" onmousedown="handleZoom(evt,'in')"/>
                <use id="zoomminus" xlink:href="#zoomMin" x="42" y="9" onmousedown="handleZoom(evt,'out')"/>
                <use id="reset" xlink:href="#resetDef" x="30" y="36" onmousedown="handleReset()"/>
                <g id="arrowUp" xlink:href="#dirArrow" transform="translate(30 24)" onmousedown="handlePan(0,-1)">
                  <use xlink:href="#rim" fill="#404040">
                        <set attributeName="fill" to="#808080" begin="arrowUp.mouseover" end="arrowUp.mouseout"/>
                  </use>
                  <path fill="none" stroke="white" stroke-width="1.5" d="M0,-3.0v7 M-2.5,-0.5L0,-3.0L2.5,-0.5"/>
                </g>
                <g id="arrowRight" xlink:href="#dirArrow" transform="rotate(90) translate(36 -43)" onmousedown="handlePan(1,0)">
                  <use xlink:href="#rim" fill="#404040">
                        <set attributeName="fill" to="#808080" begin="arrowRight.mouseover" end="arrowRight.mouseout"/>
                  </use>
                  <path fill="none" stroke="white" stroke-width="1.5" d="M0,-3.0v7 M-2.5,-0.5L0,-3.0L2.5,-0.5"/>
                </g>
                <g id="arrowDown" xlink:href="#dirArrow" transform="rotate(180) translate(-30 -48)" onmousedown="handlePan(0,1)">
                  <use xlink:href="#rim" fill="#404040">
                        <set attributeName="fill" to="#808080" begin="arrowDown.mouseover" end="arrowDown.mouseout"/>
                  </use>
                  <path fill="none" stroke="white" stroke-width="1.5" d="M0,-3.0v7 M-2.5,-0.5L0,-3.0L2.5,-0.5"/>
                </g>
                <g id="arrowLeft" xlink:href="#dirArrow" transform="rotate(270) translate(-36 17)" onmousedown="handlePan(-1,0)">
                  <use xlink:href="#rim" fill="#404040">
                        <set attributeName="fill" to="#808080" begin="arrowLeft.mouseover" end="arrowLeft.mouseout"/>
                  </use>
                  <path fill="none" stroke="white" stroke-width="1.5" d="M0,-3.0v7 M-2.5,-0.5L0,-3.0L2.5,-0.5"/>
                </g>
        </g>
        <svg viewBox="0 0 15 15" width="100%" height="30px" preserveAspectRatio="xMaxYMin meet">
         <g id="arrow_out" transform="scale(0.3 0.3)">
          <a xlink:href="structclara_1_1detail_1_1_non_copyable__inherit__graph_org.svg" target="_base">
           <rect id="button" ry="5" rx="5" y="6" x="6" height="38" width="38"
                fill="#f2f5e9" fill-opacity="0.5" stroke="#606060" stroke-width="1.0"/>
           <path id="arrow"
             d="M 11.500037,31.436501 C 11.940474,20.09759 22.043105,11.32322 32.158766,21.979434 L 37.068811,17.246167 C 37.068811,17.246167 37.088388,32 37.088388,32 L 22.160133,31.978069 C 22.160133,31.978069 26.997745,27.140456 26.997745,27.140456 C 18.528582,18.264221 13.291696,25.230495 11.500037,31.436501 z"
             style="fill:#404040;"/>
          </a>
         </g>
        </svg>
</svg>
