<?xml version="1.0" encoding="UTF-8" standalone="no"?>
<!DOCTYPE svg PUBLIC "-//W3C//DTD SVG 1.1//EN"
 "http://www.w3.org/Graphics/SVG/1.1/DTD/svg11.dtd">
<!-- Generated by graphviz version 2.43.0 (0)
 -->
<!-- Title: Catch::SonarQubeReporter::testRunStarting Pages: 1 -->
<svg width="538pt" height="122pt"
 viewBox="0.00 0.00 538.00 121.50" xmlns="http://www.w3.org/2000/svg" xmlns:xlink="http://www.w3.org/1999/xlink">
<g id="graph0" class="graph" transform="scale(1 1) rotate(0) translate(4 117.5)">
<title>Catch::SonarQubeReporter::testRunStarting</title>
<polygon fill="white" stroke="transparent" points="-4,4 -4,-117.5 534,-117.5 534,4 -4,4"/>
<!-- Node1 -->
<g id="node1" class="node">
<title>Node1</title>
<g id="a_node1"><a xlink:title=" ">
<polygon fill="#bfbfbf" stroke="black" points="0,-39 0,-69 146,-69 146,-39 0,-39"/>
<text text-anchor="start" x="8" y="-57" font-family="Helvetica,sans-Serif" font-size="10.00">Catch::SonarQubeReporter</text>
<text text-anchor="middle" x="73" y="-46" font-family="Helvetica,sans-Serif" font-size="10.00">::testRunStarting</text>
</a>
</g>
</g>
<!-- Node2 -->
<g id="node2" class="node">
<title>Node2</title>
<g id="a_node2"><a xlink:href="class_catch_1_1_xml_writer.html#a5e5190bcb1f47a76ddca863591a6cc00" target="_top" xlink:title=" ">
<polygon fill="white" stroke="black" points="184,-88.5 184,-107.5 353,-107.5 353,-88.5 184,-88.5"/>
<text text-anchor="middle" x="268.5" y="-95.5" font-family="Helvetica,sans-Serif" font-size="10.00">Catch::XmlWriter::startElement</text>
</a>
</g>
</g>
<!-- Node1&#45;&gt;Node2 -->
<g id="edge1" class="edge">
<title>Node1&#45;&gt;Node2</title>
<path fill="none" stroke="midnightblue" d="M138.51,-69.03C152.82,-72.34 167.92,-75.81 182,-79 192.34,-81.35 203.39,-83.82 213.99,-86.19"/>
<polygon fill="midnightblue" stroke="midnightblue" points="213.47,-89.65 223.99,-88.41 214.99,-82.82 213.47,-89.65"/>
</g>
<!-- Node4 -->
<g id="node4" class="node">
<title>Node4</title>
<g id="a_node4"><a xlink:href="struct_catch_1_1_cumulative_reporter_base.html#a99061d05f2f9e162989f616c68670dbb" target="_top" xlink:title=" ">
<polygon fill="white" stroke="black" points="194,-39 194,-69 343,-69 343,-39 194,-39"/>
<text text-anchor="start" x="202" y="-57" font-family="Helvetica,sans-Serif" font-size="10.00">Catch::CumulativeReporter</text>
<text text-anchor="middle" x="268.5" y="-46" font-family="Helvetica,sans-Serif" font-size="10.00">Base::testRunStarting</text>
</a>
</g>
</g>
<!-- Node1&#45;&gt;Node4 -->
<g id="edge3" class="edge">
<title>Node1&#45;&gt;Node4</title>
<path fill="none" stroke="midnightblue" d="M146.05,-54C158.22,-54 170.96,-54 183.4,-54"/>
<polygon fill="midnightblue" stroke="midnightblue" points="183.77,-57.5 193.77,-54 183.77,-50.5 183.77,-57.5"/>
</g>
<!-- Node5 -->
<g id="node5" class="node">
<title>Node5</title>
<g id="a_node5"><a xlink:href="class_catch_1_1_xml_writer.html#ad433310b59d30e0fedc7130dc11c563b" target="_top" xlink:title=" ">
<polygon fill="white" stroke="black" points="182,-0.5 182,-19.5 355,-19.5 355,-0.5 182,-0.5"/>
<text text-anchor="middle" x="268.5" y="-7.5" font-family="Helvetica,sans-Serif" font-size="10.00">Catch::XmlWriter::writeAttribute</text>
</a>
</g>
</g>
<!-- Node1&#45;&gt;Node5 -->
<g id="edge4" class="edge">
<title>Node1&#45;&gt;Node5</title>
<path fill="none" stroke="midnightblue" d="M140.05,-38.98C164.75,-33.36 192.43,-27.07 215.67,-21.79"/>
<polygon fill="midnightblue" stroke="midnightblue" points="216.69,-25.14 225.67,-19.51 215.14,-18.32 216.69,-25.14"/>
</g>
<!-- Node3 -->
<g id="node3" class="node">
<title>Node3</title>
<g id="a_node3"><a xlink:href="class_catch_1_1_xml_writer.html#aba98703d9852416e237de82aed4a9c4f" target="_top" xlink:title=" ">
<polygon fill="white" stroke="black" points="391,-83 391,-113 530,-113 530,-83 391,-83"/>
<text text-anchor="start" x="399" y="-101" font-family="Helvetica,sans-Serif" font-size="10.00">Catch::XmlWriter::ensure</text>
<text text-anchor="middle" x="460.5" y="-90" font-family="Helvetica,sans-Serif" font-size="10.00">TagClosed</text>
</a>
</g>
</g>
<!-- Node2&#45;&gt;Node3 -->
<g id="edge2" class="edge">
<title>Node2&#45;&gt;Node3</title>
<path fill="none" stroke="midnightblue" d="M353.11,-98C362.3,-98 371.63,-98 380.76,-98"/>
<polygon fill="midnightblue" stroke="midnightblue" points="380.95,-101.5 390.95,-98 380.95,-94.5 380.95,-101.5"/>
</g>
</g>
</svg>
