<?xml version="1.0" encoding="UTF-8" standalone="no"?>
<!DOCTYPE svg PUBLIC "-//W3C//DTD SVG 1.1//EN"
 "http://www.w3.org/Graphics/SVG/1.1/DTD/svg11.dtd">
<!-- Generated by graphviz version 2.43.0 (0)
 -->
<!-- Title: Catch::Benchmark::Detail::ChronometerModel&lt; Clock &gt; Pages: 1 -->
<svg width="290pt" height="248pt"
 viewBox="0.00 0.00 289.50 248.00" xmlns="http://www.w3.org/2000/svg" xmlns:xlink="http://www.w3.org/1999/xlink">
<g id="graph0" class="graph" transform="scale(1 1) rotate(0) translate(4 244)">
<title>Catch::Benchmark::Detail::ChronometerModel&lt; Clock &gt;</title>
<polygon fill="white" stroke="transparent" points="-4,4 -4,-244 285.5,-244 285.5,4 -4,4"/>
<!-- Node1 -->
<g id="node1" class="node">
<title>Node1</title>
<g id="a_node1"><a xlink:title=" ">
<polygon fill="#bfbfbf" stroke="black" points="65.5,-0.5 65.5,-90.5 231.5,-90.5 231.5,-0.5 65.5,-0.5"/>
<text text-anchor="start" x="73.5" y="-78.5" font-family="Helvetica,sans-Serif" font-size="10.00">Catch::Benchmark::Detail</text>
<text text-anchor="middle" x="148.5" y="-67.5" font-family="Helvetica,sans-Serif" font-size="10.00">::ChronometerModel&lt; Clock &gt;</text>
<polyline fill="none" stroke="black" points="65.5,-60.5 231.5,-60.5 "/>
<text text-anchor="middle" x="148.5" y="-48.5" font-family="Helvetica,sans-Serif" font-size="10.00"> </text>
<polyline fill="none" stroke="black" points="65.5,-41.5 231.5,-41.5 "/>
<text text-anchor="start" x="73.5" y="-29.5" font-family="Helvetica,sans-Serif" font-size="10.00">+ start()</text>
<text text-anchor="start" x="73.5" y="-18.5" font-family="Helvetica,sans-Serif" font-size="10.00">+ finish()</text>
<text text-anchor="start" x="73.5" y="-7.5" font-family="Helvetica,sans-Serif" font-size="10.00">+ elapsed()</text>
</a>
</g>
</g>
<!-- Node2 -->
<g id="node2" class="node">
<title>Node2</title>
<g id="a_node2"><a xlink:href="struct_catch_1_1_benchmark_1_1_detail_1_1_chronometer_concept.html" target="_top" xlink:title=" ">
<polygon fill="white" stroke="black" points="0,-149.5 0,-239.5 147,-239.5 147,-149.5 0,-149.5"/>
<text text-anchor="start" x="8" y="-227.5" font-family="Helvetica,sans-Serif" font-size="10.00">Catch::Benchmark::Detail</text>
<text text-anchor="middle" x="73.5" y="-216.5" font-family="Helvetica,sans-Serif" font-size="10.00">::ChronometerConcept</text>
<polyline fill="none" stroke="black" points="0,-209.5 147,-209.5 "/>
<text text-anchor="middle" x="73.5" y="-197.5" font-family="Helvetica,sans-Serif" font-size="10.00"> </text>
<polyline fill="none" stroke="black" points="0,-190.5 147,-190.5 "/>
<text text-anchor="start" x="8" y="-178.5" font-family="Helvetica,sans-Serif" font-size="10.00">+ start()</text>
<text text-anchor="start" x="8" y="-167.5" font-family="Helvetica,sans-Serif" font-size="10.00">+ finish()</text>
<text text-anchor="start" x="8" y="-156.5" font-family="Helvetica,sans-Serif" font-size="10.00">+ ~ChronometerConcept()</text>
</a>
</g>
</g>
<!-- Node2&#45;&gt;Node1 -->
<g id="edge1" class="edge">
<title>Node2&#45;&gt;Node1</title>
<path fill="none" stroke="midnightblue" d="M100.55,-140.48C108.9,-124.11 118.01,-106.27 126.01,-90.57"/>
<polygon fill="none" stroke="midnightblue" points="97.43,-138.9 96,-149.4 103.66,-142.08 97.43,-138.9"/>
</g>
<!-- Node3 -->
<g id="node3" class="node">
<title>Node3</title>
<g id="a_node3"><a xlink:title=" ">
<polygon fill="white" stroke="#bfbfbf" points="165.5,-166 165.5,-223 281.5,-223 281.5,-166 165.5,-166"/>
<text text-anchor="middle" x="223.5" y="-211" font-family="Helvetica,sans-Serif" font-size="10.00">TimePoint&lt; Clock &gt;</text>
<polyline fill="none" stroke="#bfbfbf" points="165.5,-204 281.5,-204 "/>
<text text-anchor="middle" x="223.5" y="-192" font-family="Helvetica,sans-Serif" font-size="10.00"> </text>
<polyline fill="none" stroke="#bfbfbf" points="165.5,-185 281.5,-185 "/>
<text text-anchor="middle" x="223.5" y="-173" font-family="Helvetica,sans-Serif" font-size="10.00"> </text>
</a>
</g>
</g>
<!-- Node3&#45;&gt;Node1 -->
<g id="edge2" class="edge">
<title>Node3&#45;&gt;Node1</title>
<path fill="none" stroke="#404040" d="M209.39,-165.85C200.17,-147.78 187.81,-123.55 176.64,-101.65"/>
<polygon fill="none" stroke="#404040" points="176.55,-101.47 170.26,-97.94 171.09,-90.78 177.38,-94.31 176.55,-101.47"/>
<text text-anchor="middle" x="213" y="-123" font-family="Helvetica,sans-Serif" font-size="10.00"> +started</text>
<text text-anchor="middle" x="213" y="-112" font-family="Helvetica,sans-Serif" font-size="10.00">+finished</text>
</g>
</g>
</svg>
