<?xml version="1.0" encoding="UTF-8" standalone="no"?>
<!DOCTYPE svg PUBLIC "-//W3C//DTD SVG 1.1//EN"
 "http://www.w3.org/Graphics/SVG/1.1/DTD/svg11.dtd">
<!-- Generated by graphviz version 2.43.0 (0)
 -->
<!-- Title: Catch::Generators::GeneratorTracker Pages: 1 -->
<svg width="642pt" height="606pt"
 viewBox="0.00 0.00 642.00 606.00" xmlns="http://www.w3.org/2000/svg" xmlns:xlink="http://www.w3.org/1999/xlink">
<g id="graph0" class="graph" transform="scale(1 1) rotate(0) translate(4 602)">
<title>Catch::Generators::GeneratorTracker</title>
<polygon fill="white" stroke="transparent" points="-4,4 -4,-602 638,-602 638,4 -4,4"/>
<!-- Node1 -->
<g id="node1" class="node">
<title>Node1</title>
<g id="a_node1"><a xlink:title=" ">
<polygon fill="#bfbfbf" stroke="black" points="313.5,-0.5 313.5,-145.5 440.5,-145.5 440.5,-0.5 313.5,-0.5"/>
<text text-anchor="start" x="321.5" y="-133.5" font-family="Helvetica,sans-Serif" font-size="10.00">Catch::Generators::</text>
<text text-anchor="middle" x="377" y="-122.5" font-family="Helvetica,sans-Serif" font-size="10.00">GeneratorTracker</text>
<polyline fill="none" stroke="black" points="313.5,-115.5 440.5,-115.5 "/>
<text text-anchor="middle" x="377" y="-103.5" font-family="Helvetica,sans-Serif" font-size="10.00"> </text>
<polyline fill="none" stroke="black" points="313.5,-96.5 440.5,-96.5 "/>
<text text-anchor="start" x="321.5" y="-84.5" font-family="Helvetica,sans-Serif" font-size="10.00">+ GeneratorTracker()</text>
<text text-anchor="start" x="321.5" y="-73.5" font-family="Helvetica,sans-Serif" font-size="10.00">+ ~GeneratorTracker()</text>
<text text-anchor="start" x="321.5" y="-62.5" font-family="Helvetica,sans-Serif" font-size="10.00">+ isGeneratorTracker()</text>
<text text-anchor="start" x="321.5" y="-51.5" font-family="Helvetica,sans-Serif" font-size="10.00">+ hasGenerator()</text>
<text text-anchor="start" x="321.5" y="-40.5" font-family="Helvetica,sans-Serif" font-size="10.00">+ close()</text>
<text text-anchor="start" x="321.5" y="-29.5" font-family="Helvetica,sans-Serif" font-size="10.00">+ getGenerator()</text>
<text text-anchor="start" x="321.5" y="-18.5" font-family="Helvetica,sans-Serif" font-size="10.00">+ setGenerator()</text>
<text text-anchor="start" x="321.5" y="-7.5" font-family="Helvetica,sans-Serif" font-size="10.00">+ acquire()</text>
</a>
</g>
</g>
<!-- Node2 -->
<g id="node2" class="node">
<title>Node2</title>
<g id="a_node2"><a xlink:href="class_catch_1_1_test_case_tracking_1_1_tracker_base.html" target="_top" xlink:title=" ">
<polygon fill="white" stroke="black" points="132,-193.5 132,-371.5 290,-371.5 290,-193.5 132,-193.5"/>
<text text-anchor="start" x="140" y="-359.5" font-family="Helvetica,sans-Serif" font-size="10.00">Catch::TestCaseTracking</text>
<text text-anchor="middle" x="211" y="-348.5" font-family="Helvetica,sans-Serif" font-size="10.00">::TrackerBase</text>
<polyline fill="none" stroke="black" points="132,-341.5 290,-341.5 "/>
<text text-anchor="middle" x="211" y="-329.5" font-family="Helvetica,sans-Serif" font-size="10.00"> </text>
<polyline fill="none" stroke="black" points="132,-322.5 290,-322.5 "/>
<text text-anchor="start" x="140" y="-310.5" font-family="Helvetica,sans-Serif" font-size="10.00">+ TrackerBase()</text>
<text text-anchor="start" x="140" y="-299.5" font-family="Helvetica,sans-Serif" font-size="10.00">+ isComplete()</text>
<text text-anchor="start" x="140" y="-288.5" font-family="Helvetica,sans-Serif" font-size="10.00">+ isSuccessfullyCompleted()</text>
<text text-anchor="start" x="140" y="-277.5" font-family="Helvetica,sans-Serif" font-size="10.00">+ isOpen()</text>
<text text-anchor="start" x="140" y="-266.5" font-family="Helvetica,sans-Serif" font-size="10.00">+ hasChildren()</text>
<text text-anchor="start" x="140" y="-255.5" font-family="Helvetica,sans-Serif" font-size="10.00">+ hasStarted()</text>
<text text-anchor="start" x="140" y="-244.5" font-family="Helvetica,sans-Serif" font-size="10.00">+ addChild()</text>
<text text-anchor="start" x="140" y="-233.5" font-family="Helvetica,sans-Serif" font-size="10.00">+ findChild()</text>
<text text-anchor="start" x="140" y="-222.5" font-family="Helvetica,sans-Serif" font-size="10.00">+ parent()</text>
<text text-anchor="start" x="140" y="-211.5" font-family="Helvetica,sans-Serif" font-size="10.00">+ openChild()</text>
<text text-anchor="start" x="140" y="-200.5" font-family="Helvetica,sans-Serif" font-size="10.00">and 6 more...</text>
</a>
</g>
</g>
<!-- Node2&#45;&gt;Node1 -->
<g id="edge1" class="edge">
<title>Node2&#45;&gt;Node1</title>
<path fill="none" stroke="midnightblue" d="M287.92,-185.35C298.62,-171.97 309.46,-158.42 319.72,-145.6"/>
<polygon fill="none" stroke="midnightblue" points="285.15,-183.21 281.64,-193.2 290.62,-187.58 285.15,-183.21"/>
</g>
<!-- Node3 -->
<g id="node3" class="node">
<title>Node3</title>
<g id="a_node3"><a xlink:href="class_catch_1_1_test_case_tracking_1_1_i_tracker.html" target="_top" xlink:title=" ">
<polygon fill="white" stroke="black" points="0,-419.5 0,-597.5 158,-597.5 158,-419.5 0,-419.5"/>
<text text-anchor="start" x="8" y="-585.5" font-family="Helvetica,sans-Serif" font-size="10.00">Catch::TestCaseTracking</text>
<text text-anchor="middle" x="79" y="-574.5" font-family="Helvetica,sans-Serif" font-size="10.00">::ITracker</text>
<polyline fill="none" stroke="black" points="0,-567.5 158,-567.5 "/>
<text text-anchor="middle" x="79" y="-555.5" font-family="Helvetica,sans-Serif" font-size="10.00"> </text>
<polyline fill="none" stroke="black" points="0,-548.5 158,-548.5 "/>
<text text-anchor="start" x="8" y="-536.5" font-family="Helvetica,sans-Serif" font-size="10.00">+ ITracker()</text>
<text text-anchor="start" x="8" y="-525.5" font-family="Helvetica,sans-Serif" font-size="10.00">+ nameAndLocation()</text>
<text text-anchor="start" x="8" y="-514.5" font-family="Helvetica,sans-Serif" font-size="10.00">+ ~ITracker()</text>
<text text-anchor="start" x="8" y="-503.5" font-family="Helvetica,sans-Serif" font-size="10.00">+ isComplete()</text>
<text text-anchor="start" x="8" y="-492.5" font-family="Helvetica,sans-Serif" font-size="10.00">+ isSuccessfullyCompleted()</text>
<text text-anchor="start" x="8" y="-481.5" font-family="Helvetica,sans-Serif" font-size="10.00">+ isOpen()</text>
<text text-anchor="start" x="8" y="-470.5" font-family="Helvetica,sans-Serif" font-size="10.00">+ hasChildren()</text>
<text text-anchor="start" x="8" y="-459.5" font-family="Helvetica,sans-Serif" font-size="10.00">+ hasStarted()</text>
<text text-anchor="start" x="8" y="-448.5" font-family="Helvetica,sans-Serif" font-size="10.00">+ parent()</text>
<text text-anchor="start" x="8" y="-437.5" font-family="Helvetica,sans-Serif" font-size="10.00">+ close()</text>
<text text-anchor="start" x="8" y="-426.5" font-family="Helvetica,sans-Serif" font-size="10.00">and 7 more...</text>
</a>
</g>
</g>
<!-- Node3&#45;&gt;Node2 -->
<g id="edge2" class="edge">
<title>Node3&#45;&gt;Node2</title>
<path fill="none" stroke="midnightblue" d="M95.06,-409.94C97.61,-403.02 100.57,-396.3 104,-390 111.46,-376.3 121.23,-363.22 131.84,-351.21"/>
<polygon fill="none" stroke="midnightblue" points="91.72,-408.89 91.82,-419.49 98.35,-411.14 91.72,-408.89"/>
</g>
<!-- Node3&#45;&gt;Node2 -->
<g id="edge5" class="edge">
<title>Node3&#45;&gt;Node2</title>
<path fill="none" stroke="#404040" d="M130.98,-419.29C138.19,-407.05 145.64,-394.41 152.96,-381.99"/>
<polygon fill="none" stroke="#404040" points="152.97,-381.97 152.57,-374.77 159.07,-371.63 159.47,-378.83 152.97,-381.97"/>
<text text-anchor="middle" x="174" y="-393" font-family="Helvetica,sans-Serif" font-size="10.00"> #m_parent</text>
</g>
<!-- Node4 -->
<g id="node4" class="node">
<title>Node4</title>
<g id="a_node4"><a xlink:title=" ">
<polygon fill="white" stroke="#bfbfbf" points="176.5,-480 176.5,-537 245.5,-537 245.5,-480 176.5,-480"/>
<text text-anchor="middle" x="211" y="-525" font-family="Helvetica,sans-Serif" font-size="10.00">CycleState</text>
<polyline fill="none" stroke="#bfbfbf" points="176.5,-518 245.5,-518 "/>
<text text-anchor="middle" x="211" y="-506" font-family="Helvetica,sans-Serif" font-size="10.00"> </text>
<polyline fill="none" stroke="#bfbfbf" points="176.5,-499 245.5,-499 "/>
<text text-anchor="middle" x="211" y="-487" font-family="Helvetica,sans-Serif" font-size="10.00"> </text>
</a>
</g>
</g>
<!-- Node4&#45;&gt;Node2 -->
<g id="edge3" class="edge">
<title>Node4&#45;&gt;Node2</title>
<path fill="none" stroke="#404040" d="M211,-479.58C211,-455.4 211,-418.9 211,-383.91"/>
<polygon fill="none" stroke="#404040" points="211,-383.63 207,-377.63 211,-371.63 215,-377.63 211,-383.63"/>
<text text-anchor="middle" x="245" y="-393" font-family="Helvetica,sans-Serif" font-size="10.00"> #m_runState</text>
</g>
<!-- Node5 -->
<g id="node5" class="node">
<title>Node5</title>
<g id="a_node5"><a xlink:href="class_catch_1_1_test_case_tracking_1_1_tracker_context.html" target="_top" xlink:title=" ">
<polygon fill="white" stroke="black" points="264,-441.5 264,-575.5 398,-575.5 398,-441.5 264,-441.5"/>
<text text-anchor="start" x="272" y="-563.5" font-family="Helvetica,sans-Serif" font-size="10.00">Catch::TestCaseTracking</text>
<text text-anchor="middle" x="331" y="-552.5" font-family="Helvetica,sans-Serif" font-size="10.00">::TrackerContext</text>
<polyline fill="none" stroke="black" points="264,-545.5 398,-545.5 "/>
<text text-anchor="middle" x="331" y="-533.5" font-family="Helvetica,sans-Serif" font-size="10.00"> </text>
<polyline fill="none" stroke="black" points="264,-526.5 398,-526.5 "/>
<text text-anchor="start" x="272" y="-514.5" font-family="Helvetica,sans-Serif" font-size="10.00">+ startRun()</text>
<text text-anchor="start" x="272" y="-503.5" font-family="Helvetica,sans-Serif" font-size="10.00">+ endRun()</text>
<text text-anchor="start" x="272" y="-492.5" font-family="Helvetica,sans-Serif" font-size="10.00">+ startCycle()</text>
<text text-anchor="start" x="272" y="-481.5" font-family="Helvetica,sans-Serif" font-size="10.00">+ completeCycle()</text>
<text text-anchor="start" x="272" y="-470.5" font-family="Helvetica,sans-Serif" font-size="10.00">+ completedCycle()</text>
<text text-anchor="start" x="272" y="-459.5" font-family="Helvetica,sans-Serif" font-size="10.00">+ currentTracker()</text>
<text text-anchor="start" x="272" y="-448.5" font-family="Helvetica,sans-Serif" font-size="10.00">+ setCurrentTracker()</text>
</a>
</g>
</g>
<!-- Node5&#45;&gt;Node2 -->
<g id="edge4" class="edge">
<title>Node5&#45;&gt;Node2</title>
<path fill="none" stroke="#404040" d="M306.81,-441.45C299.8,-424.37 291.68,-406.22 283,-390 281.57,-387.33 280.09,-384.65 278.57,-381.95"/>
<polygon fill="none" stroke="#404040" points="278.56,-381.93 272.09,-378.75 272.53,-371.55 279,-374.73 278.56,-381.93"/>
<text text-anchor="middle" x="309" y="-393" font-family="Helvetica,sans-Serif" font-size="10.00"> #m_ctx</text>
</g>
<!-- Node6 -->
<g id="node6" class="node">
<title>Node6</title>
<g id="a_node6"><a xlink:title=" ">
<polygon fill="white" stroke="#bfbfbf" points="416.5,-480 416.5,-537 537.5,-537 537.5,-480 416.5,-480"/>
<text text-anchor="middle" x="477" y="-525" font-family="Helvetica,sans-Serif" font-size="10.00">vector&lt; ITrackerPtr &gt;</text>
<polyline fill="none" stroke="#bfbfbf" points="416.5,-518 537.5,-518 "/>
<text text-anchor="middle" x="477" y="-506" font-family="Helvetica,sans-Serif" font-size="10.00"> </text>
<polyline fill="none" stroke="#bfbfbf" points="416.5,-499 537.5,-499 "/>
<text text-anchor="middle" x="477" y="-487" font-family="Helvetica,sans-Serif" font-size="10.00"> </text>
</a>
</g>
</g>
<!-- Node6&#45;&gt;Node2 -->
<g id="edge6" class="edge">
<title>Node6&#45;&gt;Node2</title>
<path fill="none" stroke="#404040" d="M460.29,-479.76C447.63,-460.63 428.73,-435.73 407,-419 368.35,-389.25 345.49,-399.77 300.48,-372.33"/>
<polygon fill="none" stroke="#404040" points="300.26,-372.19 293.05,-372.27 290.2,-365.65 297.41,-365.57 300.26,-372.19"/>
<text text-anchor="middle" x="407" y="-393" font-family="Helvetica,sans-Serif" font-size="10.00"> #m_children</text>
</g>
<!-- Node7 -->
<g id="node7" class="node">
<title>Node7</title>
<g id="a_node7"><a xlink:href="struct_catch_1_1_i_generator_tracker.html" target="_top" xlink:title=" ">
<polygon fill="white" stroke="black" points="308.5,-215.5 308.5,-349.5 445.5,-349.5 445.5,-215.5 308.5,-215.5"/>
<text text-anchor="middle" x="377" y="-337.5" font-family="Helvetica,sans-Serif" font-size="10.00">Catch::IGeneratorTracker</text>
<polyline fill="none" stroke="black" points="308.5,-330.5 445.5,-330.5 "/>
<text text-anchor="middle" x="377" y="-318.5" font-family="Helvetica,sans-Serif" font-size="10.00"> </text>
<polyline fill="none" stroke="black" points="308.5,-311.5 445.5,-311.5 "/>
<text text-anchor="start" x="316.5" y="-299.5" font-family="Helvetica,sans-Serif" font-size="10.00">+ ~IGeneratorTracker()</text>
<text text-anchor="start" x="316.5" y="-288.5" font-family="Helvetica,sans-Serif" font-size="10.00">+ hasGenerator()</text>
<text text-anchor="start" x="316.5" y="-277.5" font-family="Helvetica,sans-Serif" font-size="10.00">+ getGenerator()</text>
<text text-anchor="start" x="316.5" y="-266.5" font-family="Helvetica,sans-Serif" font-size="10.00">+ setGenerator()</text>
<text text-anchor="start" x="316.5" y="-255.5" font-family="Helvetica,sans-Serif" font-size="10.00">+ ~IGeneratorTracker()</text>
<text text-anchor="start" x="316.5" y="-244.5" font-family="Helvetica,sans-Serif" font-size="10.00">+ hasGenerator()</text>
<text text-anchor="start" x="316.5" y="-233.5" font-family="Helvetica,sans-Serif" font-size="10.00">+ getGenerator()</text>
<text text-anchor="start" x="316.5" y="-222.5" font-family="Helvetica,sans-Serif" font-size="10.00">+ setGenerator()</text>
</a>
</g>
</g>
<!-- Node7&#45;&gt;Node1 -->
<g id="edge7" class="edge">
<title>Node7&#45;&gt;Node1</title>
<path fill="none" stroke="midnightblue" d="M377,-205.24C377,-185.78 377,-164.92 377,-145.69"/>
<polygon fill="none" stroke="midnightblue" points="373.5,-205.28 377,-215.28 380.5,-205.28 373.5,-205.28"/>
</g>
<!-- Node8 -->
<g id="node8" class="node">
<title>Node8</title>
<g id="a_node8"><a xlink:title=" ">
<polygon fill="white" stroke="#bfbfbf" points="464,-248.5 464,-316.5 634,-316.5 634,-248.5 464,-248.5"/>
<text text-anchor="start" x="472" y="-304.5" font-family="Helvetica,sans-Serif" font-size="10.00">unique_ptr&lt; GeneratorUntyped</text>
<text text-anchor="middle" x="549" y="-293.5" font-family="Helvetica,sans-Serif" font-size="10.00">Base &gt;</text>
<polyline fill="none" stroke="#bfbfbf" points="464,-286.5 634,-286.5 "/>
<text text-anchor="middle" x="549" y="-274.5" font-family="Helvetica,sans-Serif" font-size="10.00"> </text>
<polyline fill="none" stroke="#bfbfbf" points="464,-267.5 634,-267.5 "/>
<text text-anchor="middle" x="549" y="-255.5" font-family="Helvetica,sans-Serif" font-size="10.00"> </text>
</a>
</g>
</g>
<!-- Node8&#45;&gt;Node1 -->
<g id="edge8" class="edge">
<title>Node8&#45;&gt;Node1</title>
<path fill="none" stroke="#404040" d="M521.37,-248.16C500.54,-223.03 471.06,-187.47 444.16,-155.02"/>
<polygon fill="none" stroke="#404040" points="443.94,-154.76 437.03,-152.69 436.28,-145.52 443.19,-147.59 443.94,-154.76"/>
<text text-anchor="middle" x="495" y="-167" font-family="Helvetica,sans-Serif" font-size="10.00"> +m_generator</text>
</g>
</g>
</svg>
