<?xml version="1.0" encoding="UTF-8" standalone="no"?>
<!DOCTYPE svg PUBLIC "-//W3C//DTD SVG 1.1//EN"
 "http://www.w3.org/Graphics/SVG/1.1/DTD/svg11.dtd">
<!-- Generated by graphviz version 2.43.0 (0)
 -->
<!-- Title: clara::detail::BoundValueRefBase Pages: 1 -->
<svg width="154pt" height="331pt"
 viewBox="0.00 0.00 154.00 331.00" xmlns="http://www.w3.org/2000/svg" xmlns:xlink="http://www.w3.org/1999/xlink">
<g id="graph0" class="graph" transform="scale(1 1) rotate(0) translate(4 327)">
<title>clara::detail::BoundValueRefBase</title>
<polygon fill="white" stroke="transparent" points="-4,4 -4,-327 150,-327 150,4 -4,4"/>
<!-- Node1 -->
<g id="node1" class="node">
<title>Node1</title>
<g id="a_node1"><a xlink:title=" ">
<polygon fill="#bfbfbf" stroke="black" points="4,-0.5 4,-68.5 142,-68.5 142,-0.5 4,-0.5"/>
<text text-anchor="start" x="12" y="-56.5" font-family="Helvetica,sans-Serif" font-size="10.00">clara::detail::BoundValue</text>
<text text-anchor="middle" x="73" y="-45.5" font-family="Helvetica,sans-Serif" font-size="10.00">RefBase</text>
<polyline fill="none" stroke="black" points="4,-38.5 142,-38.5 "/>
<text text-anchor="middle" x="73" y="-26.5" font-family="Helvetica,sans-Serif" font-size="10.00"> </text>
<polyline fill="none" stroke="black" points="4,-19.5 142,-19.5 "/>
<text text-anchor="start" x="12" y="-7.5" font-family="Helvetica,sans-Serif" font-size="10.00">+ setValue()</text>
</a>
</g>
</g>
<!-- Node2 -->
<g id="node2" class="node">
<title>Node2</title>
<g id="a_node2"><a xlink:href="structclara_1_1detail_1_1_bound_ref.html" target="_top" xlink:title=" ">
<polygon fill="white" stroke="black" points="9,-105.5 9,-184.5 137,-184.5 137,-105.5 9,-105.5"/>
<text text-anchor="middle" x="73" y="-172.5" font-family="Helvetica,sans-Serif" font-size="10.00">clara::detail::BoundRef</text>
<polyline fill="none" stroke="black" points="9,-165.5 137,-165.5 "/>
<text text-anchor="middle" x="73" y="-153.5" font-family="Helvetica,sans-Serif" font-size="10.00"> </text>
<polyline fill="none" stroke="black" points="9,-146.5 137,-146.5 "/>
<text text-anchor="start" x="17" y="-134.5" font-family="Helvetica,sans-Serif" font-size="10.00">+ ~BoundRef()</text>
<text text-anchor="start" x="17" y="-123.5" font-family="Helvetica,sans-Serif" font-size="10.00">+ isContainer()</text>
<text text-anchor="start" x="17" y="-112.5" font-family="Helvetica,sans-Serif" font-size="10.00">+ isFlag()</text>
</a>
</g>
</g>
<!-- Node2&#45;&gt;Node1 -->
<g id="edge1" class="edge">
<title>Node2&#45;&gt;Node1</title>
<path fill="none" stroke="midnightblue" d="M73,-95.35C73,-86.28 73,-77 73,-68.54"/>
<polygon fill="none" stroke="midnightblue" points="69.5,-95.44 73,-105.44 76.5,-95.44 69.5,-95.44"/>
</g>
<!-- Node3 -->
<g id="node3" class="node">
<title>Node3</title>
<g id="a_node3"><a xlink:href="structclara_1_1detail_1_1_non_copyable.html" target="_top" xlink:title=" ">
<polygon fill="white" stroke="black" points="0,-221.5 0,-322.5 146,-322.5 146,-221.5 0,-221.5"/>
<text text-anchor="middle" x="73" y="-310.5" font-family="Helvetica,sans-Serif" font-size="10.00">clara::detail::NonCopyable</text>
<polyline fill="none" stroke="black" points="0,-303.5 146,-303.5 "/>
<text text-anchor="middle" x="73" y="-291.5" font-family="Helvetica,sans-Serif" font-size="10.00"> </text>
<polyline fill="none" stroke="black" points="0,-284.5 146,-284.5 "/>
<text text-anchor="start" x="8" y="-272.5" font-family="Helvetica,sans-Serif" font-size="10.00">+ NonCopyable()</text>
<text text-anchor="start" x="8" y="-261.5" font-family="Helvetica,sans-Serif" font-size="10.00">+ NonCopyable()</text>
<text text-anchor="start" x="8" y="-250.5" font-family="Helvetica,sans-Serif" font-size="10.00">+ NonCopyable()</text>
<text text-anchor="start" x="8" y="-239.5" font-family="Helvetica,sans-Serif" font-size="10.00">+ operator=()</text>
<text text-anchor="start" x="8" y="-228.5" font-family="Helvetica,sans-Serif" font-size="10.00">+ operator=()</text>
</a>
</g>
</g>
<!-- Node3&#45;&gt;Node2 -->
<g id="edge2" class="edge">
<title>Node3&#45;&gt;Node2</title>
<path fill="none" stroke="midnightblue" d="M73,-211.19C73,-202.22 73,-193.18 73,-184.81"/>
<polygon fill="none" stroke="midnightblue" points="69.5,-211.24 73,-221.24 76.5,-211.24 69.5,-211.24"/>
</g>
</g>
</svg>
