<?xml version="1.0" encoding="UTF-8" standalone="no"?>
<!DOCTYPE svg PUBLIC "-//W3C//DTD SVG 1.1//EN"
 "http://www.w3.org/Graphics/SVG/1.1/DTD/svg11.dtd">
<!-- Generated by graphviz version 2.43.0 (0)
 -->
<!-- Title: Catch::clara::detail::BoundValueRefBase Pages: 1 -->
<!--zoomable 491 -->
<svg id="main" version="1.1" xmlns="http://www.w3.org/2000/svg" xmlns:xlink="http://www.w3.org/1999/xlink" xml:space="preserve" onload="init(evt)">
<style type="text/css"><![CDATA[
.edge:hover path { stroke: red; }
.edge:hover polygon { stroke: red; fill: red; }
]]></style>
<script type="text/javascript"><![CDATA[
var edges = document.getElementsByTagName('g');
if (edges && edges.length) {
  for (var i=0;i<edges.length;i++) {
    if (edges[i].id.substr(0,4)=='edge') {
      edges[i].setAttribute('class','edge');
    }
  }
}
]]></script>
        <defs>
                <circle id="rim" cx="0" cy="0" r="7"/>
                <circle id="rim2" cx="0" cy="0" r="3.5"/>
                <g id="zoomPlus">
                        <use xlink:href="#rim" fill="#404040">
                                <set attributeName="fill" to="#808080" begin="zoomplus.mouseover" end="zoomplus.mouseout"/>
                        </use>
                        <path d="M-4,0h8M0,-4v8" fill="none" stroke="white" stroke-width="1.5" pointer-events="none"/>
                </g>
                <g id="zoomMin">
                        <use xlink:href="#rim" fill="#404040">
                                <set attributeName="fill" to="#808080" begin="zoomminus.mouseover" end="zoomminus.mouseout"/>
                        </use>
                        <path d="M-4,0h8" fill="none" stroke="white" stroke-width="1.5" pointer-events="none"/>
                </g>
                <g id="dirArrow">
                        <path fill="none" stroke="white" stroke-width="1.5" d="M0,-3.0v7 M-2.5,-0.5L0,-3.0L2.5,-0.5"/>
                </g>
               <g id="resetDef">
                       <use xlink:href="#rim2" fill="#404040">
                               <set attributeName="fill" to="#808080" begin="reset.mouseover" end="reset.mouseout"/>
                       </use>
               </g>
        </defs>

<script type="text/javascript">
var viewWidth = 413;
var viewHeight = 491;
var sectionId = 'dynsection-0';
</script>
<script xlink:href="svgpan.js"/>
<svg id="graph" class="graph">
<g id="viewport">
<title>Catch::clara::detail::BoundValueRefBase</title>
<polygon fill="white" stroke="transparent" points="-4,4 -4,-487 408.5,-487 408.5,4 -4,4"/>
<!-- Node1 -->
<g id="node1" class="node">
<title>Node1</title>
<g id="a_node1"><a xlink:title=" ">
<polygon fill="#bfbfbf" stroke="black" points="140.5,-138.5 140.5,-206.5 261.5,-206.5 261.5,-138.5 140.5,-138.5"/>
<text text-anchor="start" x="148.5" y="-194.5" font-family="Helvetica,sans-Serif" font-size="10.00">Catch::clara::detail</text>
<text text-anchor="middle" x="201" y="-183.5" font-family="Helvetica,sans-Serif" font-size="10.00">::BoundValueRefBase</text>
<polyline fill="none" stroke="black" points="140.5,-176.5 261.5,-176.5 "/>
<text text-anchor="middle" x="201" y="-164.5" font-family="Helvetica,sans-Serif" font-size="10.00"> </text>
<polyline fill="none" stroke="black" points="140.5,-157.5 261.5,-157.5 "/>
<text text-anchor="start" x="148.5" y="-145.5" font-family="Helvetica,sans-Serif" font-size="10.00">+ setValue()</text>
</a>
</g>
</g>
<!-- Node4 -->
<g id="node4" class="node">
<title>Node4</title>
<g id="a_node4"><a xlink:href="struct_catch_1_1clara_1_1detail_1_1_bound_lambda.html" target="_top" xlink:title=" ">
<polygon fill="white" stroke="black" points="0,-11.5 0,-90.5 120,-90.5 120,-11.5 0,-11.5"/>
<text text-anchor="start" x="8" y="-78.5" font-family="Helvetica,sans-Serif" font-size="10.00">Catch::clara::detail</text>
<text text-anchor="middle" x="60" y="-67.5" font-family="Helvetica,sans-Serif" font-size="10.00">::BoundLambda&lt; L &gt;</text>
<polyline fill="none" stroke="black" points="0,-60.5 120,-60.5 "/>
<text text-anchor="start" x="8" y="-48.5" font-family="Helvetica,sans-Serif" font-size="10.00">+ m_lambda</text>
<polyline fill="none" stroke="black" points="0,-41.5 120,-41.5 "/>
<text text-anchor="start" x="8" y="-29.5" font-family="Helvetica,sans-Serif" font-size="10.00">+ BoundLambda()</text>
<text text-anchor="start" x="8" y="-18.5" font-family="Helvetica,sans-Serif" font-size="10.00">+ setValue()</text>
</a>
</g>
</g>
<!-- Node1&#45;&gt;Node4 -->
<g id="edge3" class="edge">
<title>Node1&#45;&gt;Node4</title>
<path fill="none" stroke="midnightblue" d="M153.77,-131.47C138.22,-118.29 120.97,-103.67 105.54,-90.6"/>
<polygon fill="none" stroke="midnightblue" points="151.83,-134.42 161.72,-138.21 156.36,-129.08 151.83,-134.42"/>
</g>
<!-- Node5 -->
<g id="node5" class="node">
<title>Node5</title>
<g id="a_node5"><a xlink:href="struct_catch_1_1clara_1_1detail_1_1_bound_value_ref.html" target="_top" xlink:title=" ">
<polygon fill="white" stroke="black" points="138.5,-11.5 138.5,-90.5 263.5,-90.5 263.5,-11.5 138.5,-11.5"/>
<text text-anchor="start" x="146.5" y="-78.5" font-family="Helvetica,sans-Serif" font-size="10.00">Catch::clara::detail</text>
<text text-anchor="middle" x="201" y="-67.5" font-family="Helvetica,sans-Serif" font-size="10.00">::BoundValueRef&lt; T &gt;</text>
<polyline fill="none" stroke="black" points="138.5,-60.5 263.5,-60.5 "/>
<text text-anchor="start" x="146.5" y="-48.5" font-family="Helvetica,sans-Serif" font-size="10.00">+ m_ref</text>
<polyline fill="none" stroke="black" points="138.5,-41.5 263.5,-41.5 "/>
<text text-anchor="start" x="146.5" y="-29.5" font-family="Helvetica,sans-Serif" font-size="10.00">+ BoundValueRef()</text>
<text text-anchor="start" x="146.5" y="-18.5" font-family="Helvetica,sans-Serif" font-size="10.00">+ setValue()</text>
</a>
</g>
</g>
<!-- Node1&#45;&gt;Node5 -->
<g id="edge4" class="edge">
<title>Node1&#45;&gt;Node5</title>
<path fill="none" stroke="midnightblue" d="M201,-128.18C201,-115.89 201,-102.59 201,-90.6"/>
<polygon fill="none" stroke="midnightblue" points="197.5,-128.21 201,-138.21 204.5,-128.21 197.5,-128.21"/>
</g>
<!-- Node6 -->
<g id="node6" class="node">
<title>Node6</title>
<g id="a_node6"><a xlink:href="struct_catch_1_1clara_1_1detail_1_1_bound_value_ref_3_01std_1_1vector_3_01_t_01_4_01_4.html" target="_top" xlink:title=" ">
<polygon fill="white" stroke="black" points="281.5,-0.5 281.5,-101.5 404.5,-101.5 404.5,-0.5 281.5,-0.5"/>
<text text-anchor="start" x="289.5" y="-89.5" font-family="Helvetica,sans-Serif" font-size="10.00">Catch::clara::detail</text>
<text text-anchor="start" x="289.5" y="-78.5" font-family="Helvetica,sans-Serif" font-size="10.00">::BoundValueRef&lt; std</text>
<text text-anchor="middle" x="343" y="-67.5" font-family="Helvetica,sans-Serif" font-size="10.00">::vector&lt; T &gt; &gt;</text>
<polyline fill="none" stroke="black" points="281.5,-60.5 404.5,-60.5 "/>
<text text-anchor="start" x="289.5" y="-48.5" font-family="Helvetica,sans-Serif" font-size="10.00">+ m_ref</text>
<polyline fill="none" stroke="black" points="281.5,-41.5 404.5,-41.5 "/>
<text text-anchor="start" x="289.5" y="-29.5" font-family="Helvetica,sans-Serif" font-size="10.00">+ BoundValueRef()</text>
<text text-anchor="start" x="289.5" y="-18.5" font-family="Helvetica,sans-Serif" font-size="10.00">+ isContainer()</text>
<text text-anchor="start" x="289.5" y="-7.5" font-family="Helvetica,sans-Serif" font-size="10.00">+ setValue()</text>
</a>
</g>
</g>
<!-- Node1&#45;&gt;Node6 -->
<g id="edge5" class="edge">
<title>Node1&#45;&gt;Node6</title>
<path fill="none" stroke="midnightblue" d="M248.31,-131.69C259.74,-122.06 272.11,-111.66 284.01,-101.65"/>
<polygon fill="none" stroke="midnightblue" points="245.95,-129.1 240.55,-138.21 250.46,-134.45 245.95,-129.1"/>
</g>
<!-- Node2 -->
<g id="node2" class="node">
<title>Node2</title>
<g id="a_node2"><a xlink:href="struct_catch_1_1clara_1_1detail_1_1_bound_ref.html" target="_top" xlink:title=" ">
<polygon fill="white" stroke="black" points="147,-243.5 147,-333.5 255,-333.5 255,-243.5 147,-243.5"/>
<text text-anchor="start" x="155" y="-321.5" font-family="Helvetica,sans-Serif" font-size="10.00">Catch::clara::detail</text>
<text text-anchor="middle" x="201" y="-310.5" font-family="Helvetica,sans-Serif" font-size="10.00">::BoundRef</text>
<polyline fill="none" stroke="black" points="147,-303.5 255,-303.5 "/>
<text text-anchor="middle" x="201" y="-291.5" font-family="Helvetica,sans-Serif" font-size="10.00"> </text>
<polyline fill="none" stroke="black" points="147,-284.5 255,-284.5 "/>
<text text-anchor="start" x="155" y="-272.5" font-family="Helvetica,sans-Serif" font-size="10.00">+ ~BoundRef()</text>
<text text-anchor="start" x="155" y="-261.5" font-family="Helvetica,sans-Serif" font-size="10.00">+ isContainer()</text>
<text text-anchor="start" x="155" y="-250.5" font-family="Helvetica,sans-Serif" font-size="10.00">+ isFlag()</text>
</a>
</g>
</g>
<!-- Node2&#45;&gt;Node1 -->
<g id="edge1" class="edge">
<title>Node2&#45;&gt;Node1</title>
<path fill="none" stroke="midnightblue" d="M201,-233.32C201,-224.28 201,-215.16 201,-206.85"/>
<polygon fill="none" stroke="midnightblue" points="197.5,-233.42 201,-243.42 204.5,-233.42 197.5,-233.42"/>
</g>
<!-- Node3 -->
<g id="node3" class="node">
<title>Node3</title>
<g id="a_node3"><a xlink:href="struct_catch_1_1clara_1_1detail_1_1_non_copyable.html" target="_top" xlink:title=" ">
<polygon fill="white" stroke="black" points="147,-370.5 147,-482.5 255,-482.5 255,-370.5 147,-370.5"/>
<text text-anchor="start" x="155" y="-470.5" font-family="Helvetica,sans-Serif" font-size="10.00">Catch::clara::detail</text>
<text text-anchor="middle" x="201" y="-459.5" font-family="Helvetica,sans-Serif" font-size="10.00">::NonCopyable</text>
<polyline fill="none" stroke="black" points="147,-452.5 255,-452.5 "/>
<text text-anchor="middle" x="201" y="-440.5" font-family="Helvetica,sans-Serif" font-size="10.00"> </text>
<polyline fill="none" stroke="black" points="147,-433.5 255,-433.5 "/>
<text text-anchor="start" x="155" y="-421.5" font-family="Helvetica,sans-Serif" font-size="10.00">+ NonCopyable()</text>
<text text-anchor="start" x="155" y="-410.5" font-family="Helvetica,sans-Serif" font-size="10.00">+ NonCopyable()</text>
<text text-anchor="start" x="155" y="-399.5" font-family="Helvetica,sans-Serif" font-size="10.00">+ NonCopyable()</text>
<text text-anchor="start" x="155" y="-388.5" font-family="Helvetica,sans-Serif" font-size="10.00">+ operator=()</text>
<text text-anchor="start" x="155" y="-377.5" font-family="Helvetica,sans-Serif" font-size="10.00">+ operator=()</text>
</a>
</g>
</g>
<!-- Node3&#45;&gt;Node2 -->
<g id="edge2" class="edge">
<title>Node3&#45;&gt;Node2</title>
<path fill="none" stroke="midnightblue" d="M201,-360.08C201,-351.07 201,-342.01 201,-333.51"/>
<polygon fill="none" stroke="midnightblue" points="197.5,-360.18 201,-370.18 204.5,-360.18 197.5,-360.18"/>
</g>
</g>
</svg>
        <g id="navigator" transform="translate(0 0)" fill="#404254">
                <rect fill="#f2f5e9" fill-opacity="0.5" stroke="#606060" stroke-width=".5" x="0" y="0" width="60" height="60"/>
                <use id="zoomplus" xlink:href="#zoomPlus" x="17" y="9" onmousedown="handleZoom(evt,'in')"/>
                <use id="zoomminus" xlink:href="#zoomMin" x="42" y="9" onmousedown="handleZoom(evt,'out')"/>
                <use id="reset" xlink:href="#resetDef" x="30" y="36" onmousedown="handleReset()"/>
                <g id="arrowUp" xlink:href="#dirArrow" transform="translate(30 24)" onmousedown="handlePan(0,-1)">
                  <use xlink:href="#rim" fill="#404040">
                        <set attributeName="fill" to="#808080" begin="arrowUp.mouseover" end="arrowUp.mouseout"/>
                  </use>
                  <path fill="none" stroke="white" stroke-width="1.5" d="M0,-3.0v7 M-2.5,-0.5L0,-3.0L2.5,-0.5"/>
                </g>
                <g id="arrowRight" xlink:href="#dirArrow" transform="rotate(90) translate(36 -43)" onmousedown="handlePan(1,0)">
                  <use xlink:href="#rim" fill="#404040">
                        <set attributeName="fill" to="#808080" begin="arrowRight.mouseover" end="arrowRight.mouseout"/>
                  </use>
                  <path fill="none" stroke="white" stroke-width="1.5" d="M0,-3.0v7 M-2.5,-0.5L0,-3.0L2.5,-0.5"/>
                </g>
                <g id="arrowDown" xlink:href="#dirArrow" transform="rotate(180) translate(-30 -48)" onmousedown="handlePan(0,1)">
                  <use xlink:href="#rim" fill="#404040">
                        <set attributeName="fill" to="#808080" begin="arrowDown.mouseover" end="arrowDown.mouseout"/>
                  </use>
                  <path fill="none" stroke="white" stroke-width="1.5" d="M0,-3.0v7 M-2.5,-0.5L0,-3.0L2.5,-0.5"/>
                </g>
                <g id="arrowLeft" xlink:href="#dirArrow" transform="rotate(270) translate(-36 17)" onmousedown="handlePan(-1,0)">
                  <use xlink:href="#rim" fill="#404040">
                        <set attributeName="fill" to="#808080" begin="arrowLeft.mouseover" end="arrowLeft.mouseout"/>
                  </use>
                  <path fill="none" stroke="white" stroke-width="1.5" d="M0,-3.0v7 M-2.5,-0.5L0,-3.0L2.5,-0.5"/>
                </g>
        </g>
        <svg viewBox="0 0 15 15" width="100%" height="30px" preserveAspectRatio="xMaxYMin meet">
         <g id="arrow_out" transform="scale(0.3 0.3)">
          <a xlink:href="struct_catch_1_1clara_1_1detail_1_1_bound_value_ref_base__inherit__graph_org.svg" target="_base">
           <rect id="button" ry="5" rx="5" y="6" x="6" height="38" width="38"
                fill="#f2f5e9" fill-opacity="0.5" stroke="#606060" stroke-width="1.0"/>
           <path id="arrow"
             d="M 11.500037,31.436501 C 11.940474,20.09759 22.043105,11.32322 32.158766,21.979434 L 37.068811,17.246167 C 37.068811,17.246167 37.088388,32 37.088388,32 L 22.160133,31.978069 C 22.160133,31.978069 26.997745,27.140456 26.997745,27.140456 C 18.528582,18.264221 13.291696,25.230495 11.500037,31.436501 z"
             style="fill:#404040;"/>
          </a>
         </g>
        </svg>
</svg>
