<?xml version="1.0" encoding="UTF-8" standalone="no"?>
<!DOCTYPE svg PUBLIC "-//W3C//DTD SVG 1.1//EN"
 "http://www.w3.org/Graphics/SVG/1.1/DTD/svg11.dtd">
<!-- Generated by graphviz version 2.43.0 (0)
 -->
<!-- Title: clara::detail::BoundValueRef&lt; T &gt; Pages: 1 -->
<svg width="154pt" height="447pt"
 viewBox="0.00 0.00 154.00 447.00" xmlns="http://www.w3.org/2000/svg" xmlns:xlink="http://www.w3.org/1999/xlink">
<g id="graph0" class="graph" transform="scale(1 1) rotate(0) translate(4 443)">
<title>clara::detail::BoundValueRef&lt; T &gt;</title>
<polygon fill="white" stroke="transparent" points="-4,4 -4,-443 150,-443 150,4 -4,4"/>
<!-- Node1 -->
<g id="node1" class="node">
<title>Node1</title>
<g id="a_node1"><a xlink:title=" ">
<polygon fill="#bfbfbf" stroke="black" points="4,-0.5 4,-79.5 142,-79.5 142,-0.5 4,-0.5"/>
<text text-anchor="start" x="12" y="-67.5" font-family="Helvetica,sans-Serif" font-size="10.00">clara::detail::BoundValue</text>
<text text-anchor="middle" x="73" y="-56.5" font-family="Helvetica,sans-Serif" font-size="10.00">Ref&lt; T &gt;</text>
<polyline fill="none" stroke="black" points="4,-49.5 142,-49.5 "/>
<text text-anchor="start" x="12" y="-37.5" font-family="Helvetica,sans-Serif" font-size="10.00">+ m_ref</text>
<polyline fill="none" stroke="black" points="4,-30.5 142,-30.5 "/>
<text text-anchor="start" x="12" y="-18.5" font-family="Helvetica,sans-Serif" font-size="10.00">+ BoundValueRef()</text>
<text text-anchor="start" x="12" y="-7.5" font-family="Helvetica,sans-Serif" font-size="10.00">+ setValue()</text>
</a>
</g>
</g>
<!-- Node2 -->
<g id="node2" class="node">
<title>Node2</title>
<g id="a_node2"><a xlink:href="structclara_1_1detail_1_1_bound_value_ref_base.html" target="_top" xlink:title=" ">
<polygon fill="white" stroke="black" points="4,-116.5 4,-184.5 142,-184.5 142,-116.5 4,-116.5"/>
<text text-anchor="start" x="12" y="-172.5" font-family="Helvetica,sans-Serif" font-size="10.00">clara::detail::BoundValue</text>
<text text-anchor="middle" x="73" y="-161.5" font-family="Helvetica,sans-Serif" font-size="10.00">RefBase</text>
<polyline fill="none" stroke="black" points="4,-154.5 142,-154.5 "/>
<text text-anchor="middle" x="73" y="-142.5" font-family="Helvetica,sans-Serif" font-size="10.00"> </text>
<polyline fill="none" stroke="black" points="4,-135.5 142,-135.5 "/>
<text text-anchor="start" x="12" y="-123.5" font-family="Helvetica,sans-Serif" font-size="10.00">+ setValue()</text>
</a>
</g>
</g>
<!-- Node2&#45;&gt;Node1 -->
<g id="edge1" class="edge">
<title>Node2&#45;&gt;Node1</title>
<path fill="none" stroke="midnightblue" d="M73,-106.27C73,-97.48 73,-88.28 73,-79.65"/>
<polygon fill="none" stroke="midnightblue" points="69.5,-106.36 73,-116.36 76.5,-106.36 69.5,-106.36"/>
</g>
<!-- Node3 -->
<g id="node3" class="node">
<title>Node3</title>
<g id="a_node3"><a xlink:href="structclara_1_1detail_1_1_bound_ref.html" target="_top" xlink:title=" ">
<polygon fill="white" stroke="black" points="9,-221.5 9,-300.5 137,-300.5 137,-221.5 9,-221.5"/>
<text text-anchor="middle" x="73" y="-288.5" font-family="Helvetica,sans-Serif" font-size="10.00">clara::detail::BoundRef</text>
<polyline fill="none" stroke="black" points="9,-281.5 137,-281.5 "/>
<text text-anchor="middle" x="73" y="-269.5" font-family="Helvetica,sans-Serif" font-size="10.00"> </text>
<polyline fill="none" stroke="black" points="9,-262.5 137,-262.5 "/>
<text text-anchor="start" x="17" y="-250.5" font-family="Helvetica,sans-Serif" font-size="10.00">+ ~BoundRef()</text>
<text text-anchor="start" x="17" y="-239.5" font-family="Helvetica,sans-Serif" font-size="10.00">+ isContainer()</text>
<text text-anchor="start" x="17" y="-228.5" font-family="Helvetica,sans-Serif" font-size="10.00">+ isFlag()</text>
</a>
</g>
</g>
<!-- Node3&#45;&gt;Node2 -->
<g id="edge2" class="edge">
<title>Node3&#45;&gt;Node2</title>
<path fill="none" stroke="midnightblue" d="M73,-211.35C73,-202.28 73,-193 73,-184.54"/>
<polygon fill="none" stroke="midnightblue" points="69.5,-211.44 73,-221.44 76.5,-211.44 69.5,-211.44"/>
</g>
<!-- Node4 -->
<g id="node4" class="node">
<title>Node4</title>
<g id="a_node4"><a xlink:href="structclara_1_1detail_1_1_non_copyable.html" target="_top" xlink:title=" ">
<polygon fill="white" stroke="black" points="0,-337.5 0,-438.5 146,-438.5 146,-337.5 0,-337.5"/>
<text text-anchor="middle" x="73" y="-426.5" font-family="Helvetica,sans-Serif" font-size="10.00">clara::detail::NonCopyable</text>
<polyline fill="none" stroke="black" points="0,-419.5 146,-419.5 "/>
<text text-anchor="middle" x="73" y="-407.5" font-family="Helvetica,sans-Serif" font-size="10.00"> </text>
<polyline fill="none" stroke="black" points="0,-400.5 146,-400.5 "/>
<text text-anchor="start" x="8" y="-388.5" font-family="Helvetica,sans-Serif" font-size="10.00">+ NonCopyable()</text>
<text text-anchor="start" x="8" y="-377.5" font-family="Helvetica,sans-Serif" font-size="10.00">+ NonCopyable()</text>
<text text-anchor="start" x="8" y="-366.5" font-family="Helvetica,sans-Serif" font-size="10.00">+ NonCopyable()</text>
<text text-anchor="start" x="8" y="-355.5" font-family="Helvetica,sans-Serif" font-size="10.00">+ operator=()</text>
<text text-anchor="start" x="8" y="-344.5" font-family="Helvetica,sans-Serif" font-size="10.00">+ operator=()</text>
</a>
</g>
</g>
<!-- Node4&#45;&gt;Node3 -->
<g id="edge3" class="edge">
<title>Node4&#45;&gt;Node3</title>
<path fill="none" stroke="midnightblue" d="M73,-327.19C73,-318.22 73,-309.18 73,-300.81"/>
<polygon fill="none" stroke="midnightblue" points="69.5,-327.24 73,-337.24 76.5,-327.24 69.5,-327.24"/>
</g>
</g>
</svg>
