<?xml version="1.0" encoding="UTF-8" standalone="no"?>
<!DOCTYPE svg PUBLIC "-//W3C//DTD SVG 1.1//EN"
 "http://www.w3.org/Graphics/SVG/1.1/DTD/svg11.dtd">
<!-- Generated by graphviz version 2.43.0 (0)
 -->
<!-- Title: Catch::clara::detail::NonCopyable Pages: 1 -->
<svg width="698pt" height="502pt"
 viewBox="0.00 0.00 698.00 502.00" xmlns="http://www.w3.org/2000/svg" xmlns:xlink="http://www.w3.org/1999/xlink">
<g id="graph0" class="graph" transform="scale(1 1) rotate(0) translate(4 498)">
<title>Catch::clara::detail::NonCopyable</title>
<polygon fill="white" stroke="transparent" points="-4,4 -4,-498 694,-498 694,4 -4,4"/>
<!-- Node1 -->
<g id="node1" class="node">
<title>Node1</title>
<g id="a_node1"><a xlink:title=" ">
<polygon fill="#bfbfbf" stroke="black" points="227.5,-381.5 227.5,-493.5 335.5,-493.5 335.5,-381.5 227.5,-381.5"/>
<text text-anchor="start" x="235.5" y="-481.5" font-family="Helvetica,sans-Serif" font-size="10.00">Catch::clara::detail</text>
<text text-anchor="middle" x="281.5" y="-470.5" font-family="Helvetica,sans-Serif" font-size="10.00">::NonCopyable</text>
<polyline fill="none" stroke="black" points="227.5,-463.5 335.5,-463.5 "/>
<text text-anchor="middle" x="281.5" y="-451.5" font-family="Helvetica,sans-Serif" font-size="10.00"> </text>
<polyline fill="none" stroke="black" points="227.5,-444.5 335.5,-444.5 "/>
<text text-anchor="start" x="235.5" y="-432.5" font-family="Helvetica,sans-Serif" font-size="10.00">+ NonCopyable()</text>
<text text-anchor="start" x="235.5" y="-421.5" font-family="Helvetica,sans-Serif" font-size="10.00">+ NonCopyable()</text>
<text text-anchor="start" x="235.5" y="-410.5" font-family="Helvetica,sans-Serif" font-size="10.00">+ NonCopyable()</text>
<text text-anchor="start" x="235.5" y="-399.5" font-family="Helvetica,sans-Serif" font-size="10.00">+ operator=()</text>
<text text-anchor="start" x="235.5" y="-388.5" font-family="Helvetica,sans-Serif" font-size="10.00">+ operator=()</text>
</a>
</g>
</g>
<!-- Node2 -->
<g id="node2" class="node">
<title>Node2</title>
<g id="a_node2"><a xlink:href="struct_catch_1_1clara_1_1detail_1_1_bound_ref.html" target="_top" xlink:title=" ">
<polygon fill="white" stroke="black" points="227.5,-254.5 227.5,-344.5 335.5,-344.5 335.5,-254.5 227.5,-254.5"/>
<text text-anchor="start" x="235.5" y="-332.5" font-family="Helvetica,sans-Serif" font-size="10.00">Catch::clara::detail</text>
<text text-anchor="middle" x="281.5" y="-321.5" font-family="Helvetica,sans-Serif" font-size="10.00">::BoundRef</text>
<polyline fill="none" stroke="black" points="227.5,-314.5 335.5,-314.5 "/>
<text text-anchor="middle" x="281.5" y="-302.5" font-family="Helvetica,sans-Serif" font-size="10.00"> </text>
<polyline fill="none" stroke="black" points="227.5,-295.5 335.5,-295.5 "/>
<text text-anchor="start" x="235.5" y="-283.5" font-family="Helvetica,sans-Serif" font-size="10.00">+ ~BoundRef()</text>
<text text-anchor="start" x="235.5" y="-272.5" font-family="Helvetica,sans-Serif" font-size="10.00">+ isContainer()</text>
<text text-anchor="start" x="235.5" y="-261.5" font-family="Helvetica,sans-Serif" font-size="10.00">+ isFlag()</text>
</a>
</g>
</g>
<!-- Node1&#45;&gt;Node2 -->
<g id="edge1" class="edge">
<title>Node1&#45;&gt;Node2</title>
<path fill="none" stroke="midnightblue" d="M281.5,-371.08C281.5,-362.07 281.5,-353.01 281.5,-344.51"/>
<polygon fill="none" stroke="midnightblue" points="278,-371.18 281.5,-381.18 285,-371.18 278,-371.18"/>
</g>
<!-- Node3 -->
<g id="node3" class="node">
<title>Node3</title>
<g id="a_node3"><a xlink:href="struct_catch_1_1clara_1_1detail_1_1_bound_flag_ref_base.html" target="_top" xlink:title=" ">
<polygon fill="white" stroke="black" points="156,-138.5 156,-217.5 271,-217.5 271,-138.5 156,-138.5"/>
<text text-anchor="start" x="164" y="-205.5" font-family="Helvetica,sans-Serif" font-size="10.00">Catch::clara::detail</text>
<text text-anchor="middle" x="213.5" y="-194.5" font-family="Helvetica,sans-Serif" font-size="10.00">::BoundFlagRefBase</text>
<polyline fill="none" stroke="black" points="156,-187.5 271,-187.5 "/>
<text text-anchor="middle" x="213.5" y="-175.5" font-family="Helvetica,sans-Serif" font-size="10.00"> </text>
<polyline fill="none" stroke="black" points="156,-168.5 271,-168.5 "/>
<text text-anchor="start" x="164" y="-156.5" font-family="Helvetica,sans-Serif" font-size="10.00">+ setFlag()</text>
<text text-anchor="start" x="164" y="-145.5" font-family="Helvetica,sans-Serif" font-size="10.00">+ isFlag()</text>
</a>
</g>
</g>
<!-- Node2&#45;&gt;Node3 -->
<g id="edge2" class="edge">
<title>Node2&#45;&gt;Node3</title>
<path fill="none" stroke="midnightblue" d="M251.35,-245.52C246.06,-236.21 240.64,-226.69 235.61,-217.86"/>
<polygon fill="none" stroke="midnightblue" points="248.38,-247.38 256.37,-254.34 254.47,-243.92 248.38,-247.38"/>
</g>
<!-- Node6 -->
<g id="node6" class="node">
<title>Node6</title>
<g id="a_node6"><a xlink:href="struct_catch_1_1clara_1_1detail_1_1_bound_value_ref_base.html" target="_top" xlink:title=" ">
<polygon fill="white" stroke="black" points="357,-144 357,-212 478,-212 478,-144 357,-144"/>
<text text-anchor="start" x="365" y="-200" font-family="Helvetica,sans-Serif" font-size="10.00">Catch::clara::detail</text>
<text text-anchor="middle" x="417.5" y="-189" font-family="Helvetica,sans-Serif" font-size="10.00">::BoundValueRefBase</text>
<polyline fill="none" stroke="black" points="357,-182 478,-182 "/>
<text text-anchor="middle" x="417.5" y="-170" font-family="Helvetica,sans-Serif" font-size="10.00"> </text>
<polyline fill="none" stroke="black" points="357,-163 478,-163 "/>
<text text-anchor="start" x="365" y="-151" font-family="Helvetica,sans-Serif" font-size="10.00">+ setValue()</text>
</a>
</g>
</g>
<!-- Node2&#45;&gt;Node6 -->
<g id="edge5" class="edge">
<title>Node2&#45;&gt;Node6</title>
<path fill="none" stroke="midnightblue" d="M339.29,-247.72C352.99,-235.69 367.25,-223.16 379.78,-212.14"/>
<polygon fill="none" stroke="midnightblue" points="336.96,-245.11 331.75,-254.34 341.58,-250.37 336.96,-245.11"/>
</g>
<!-- Node4 -->
<g id="node4" class="node">
<title>Node4</title>
<g id="a_node4"><a xlink:href="struct_catch_1_1clara_1_1detail_1_1_bound_flag_lambda.html" target="_top" xlink:title=" ">
<polygon fill="white" stroke="black" points="0,-11.5 0,-90.5 141,-90.5 141,-11.5 0,-11.5"/>
<text text-anchor="start" x="8" y="-78.5" font-family="Helvetica,sans-Serif" font-size="10.00">Catch::clara::detail</text>
<text text-anchor="middle" x="70.5" y="-67.5" font-family="Helvetica,sans-Serif" font-size="10.00">::BoundFlagLambda&lt; L &gt;</text>
<polyline fill="none" stroke="black" points="0,-60.5 141,-60.5 "/>
<text text-anchor="start" x="8" y="-48.5" font-family="Helvetica,sans-Serif" font-size="10.00">+ m_lambda</text>
<polyline fill="none" stroke="black" points="0,-41.5 141,-41.5 "/>
<text text-anchor="start" x="8" y="-29.5" font-family="Helvetica,sans-Serif" font-size="10.00">+ BoundFlagLambda()</text>
<text text-anchor="start" x="8" y="-18.5" font-family="Helvetica,sans-Serif" font-size="10.00">+ setFlag()</text>
</a>
</g>
</g>
<!-- Node3&#45;&gt;Node4 -->
<g id="edge3" class="edge">
<title>Node3&#45;&gt;Node4</title>
<path fill="none" stroke="midnightblue" d="M161.53,-131.57C146.16,-118.14 129.5,-103.57 114.67,-90.61"/>
<polygon fill="none" stroke="midnightblue" points="159.6,-134.53 169.43,-138.48 164.2,-129.26 159.6,-134.53"/>
</g>
<!-- Node5 -->
<g id="node5" class="node">
<title>Node5</title>
<g id="a_node5"><a xlink:href="struct_catch_1_1clara_1_1detail_1_1_bound_flag_ref.html" target="_top" xlink:title=" ">
<polygon fill="white" stroke="black" points="159.5,-11.5 159.5,-90.5 267.5,-90.5 267.5,-11.5 159.5,-11.5"/>
<text text-anchor="start" x="167.5" y="-78.5" font-family="Helvetica,sans-Serif" font-size="10.00">Catch::clara::detail</text>
<text text-anchor="middle" x="213.5" y="-67.5" font-family="Helvetica,sans-Serif" font-size="10.00">::BoundFlagRef</text>
<polyline fill="none" stroke="black" points="159.5,-60.5 267.5,-60.5 "/>
<text text-anchor="start" x="167.5" y="-48.5" font-family="Helvetica,sans-Serif" font-size="10.00">+ m_ref</text>
<polyline fill="none" stroke="black" points="159.5,-41.5 267.5,-41.5 "/>
<text text-anchor="start" x="167.5" y="-29.5" font-family="Helvetica,sans-Serif" font-size="10.00">+ BoundFlagRef()</text>
<text text-anchor="start" x="167.5" y="-18.5" font-family="Helvetica,sans-Serif" font-size="10.00">+ setFlag()</text>
</a>
</g>
</g>
<!-- Node3&#45;&gt;Node5 -->
<g id="edge4" class="edge">
<title>Node3&#45;&gt;Node5</title>
<path fill="none" stroke="midnightblue" d="M213.5,-128.22C213.5,-115.74 213.5,-102.5 213.5,-90.61"/>
<polygon fill="none" stroke="midnightblue" points="210,-128.48 213.5,-138.48 217,-128.48 210,-128.48"/>
</g>
<!-- Node7 -->
<g id="node7" class="node">
<title>Node7</title>
<g id="a_node7"><a xlink:href="struct_catch_1_1clara_1_1detail_1_1_bound_lambda.html" target="_top" xlink:title=" ">
<polygon fill="white" stroke="black" points="285.5,-11.5 285.5,-90.5 405.5,-90.5 405.5,-11.5 285.5,-11.5"/>
<text text-anchor="start" x="293.5" y="-78.5" font-family="Helvetica,sans-Serif" font-size="10.00">Catch::clara::detail</text>
<text text-anchor="middle" x="345.5" y="-67.5" font-family="Helvetica,sans-Serif" font-size="10.00">::BoundLambda&lt; L &gt;</text>
<polyline fill="none" stroke="black" points="285.5,-60.5 405.5,-60.5 "/>
<text text-anchor="start" x="293.5" y="-48.5" font-family="Helvetica,sans-Serif" font-size="10.00">+ m_lambda</text>
<polyline fill="none" stroke="black" points="285.5,-41.5 405.5,-41.5 "/>
<text text-anchor="start" x="293.5" y="-29.5" font-family="Helvetica,sans-Serif" font-size="10.00">+ BoundLambda()</text>
<text text-anchor="start" x="293.5" y="-18.5" font-family="Helvetica,sans-Serif" font-size="10.00">+ setValue()</text>
</a>
</g>
</g>
<!-- Node6&#45;&gt;Node7 -->
<g id="edge6" class="edge">
<title>Node6&#45;&gt;Node7</title>
<path fill="none" stroke="midnightblue" d="M393.38,-135.13C385.1,-120.76 375.88,-104.75 367.76,-90.65"/>
<polygon fill="none" stroke="midnightblue" points="390.37,-136.91 398.39,-143.83 396.44,-133.42 390.37,-136.91"/>
</g>
<!-- Node8 -->
<g id="node8" class="node">
<title>Node8</title>
<g id="a_node8"><a xlink:href="struct_catch_1_1clara_1_1detail_1_1_bound_value_ref.html" target="_top" xlink:title=" ">
<polygon fill="white" stroke="black" points="424,-11.5 424,-90.5 549,-90.5 549,-11.5 424,-11.5"/>
<text text-anchor="start" x="432" y="-78.5" font-family="Helvetica,sans-Serif" font-size="10.00">Catch::clara::detail</text>
<text text-anchor="middle" x="486.5" y="-67.5" font-family="Helvetica,sans-Serif" font-size="10.00">::BoundValueRef&lt; T &gt;</text>
<polyline fill="none" stroke="black" points="424,-60.5 549,-60.5 "/>
<text text-anchor="start" x="432" y="-48.5" font-family="Helvetica,sans-Serif" font-size="10.00">+ m_ref</text>
<polyline fill="none" stroke="black" points="424,-41.5 549,-41.5 "/>
<text text-anchor="start" x="432" y="-29.5" font-family="Helvetica,sans-Serif" font-size="10.00">+ BoundValueRef()</text>
<text text-anchor="start" x="432" y="-18.5" font-family="Helvetica,sans-Serif" font-size="10.00">+ setValue()</text>
</a>
</g>
</g>
<!-- Node6&#45;&gt;Node8 -->
<g id="edge7" class="edge">
<title>Node6&#45;&gt;Node8</title>
<path fill="none" stroke="midnightblue" d="M440.84,-134.72C448.71,-120.46 457.46,-104.62 465.17,-90.65"/>
<polygon fill="none" stroke="midnightblue" points="437.58,-133.38 435.81,-143.83 443.71,-136.77 437.58,-133.38"/>
</g>
<!-- Node9 -->
<g id="node9" class="node">
<title>Node9</title>
<g id="a_node9"><a xlink:href="struct_catch_1_1clara_1_1detail_1_1_bound_value_ref_3_01std_1_1vector_3_01_t_01_4_01_4.html" target="_top" xlink:title=" ">
<polygon fill="white" stroke="black" points="567,-0.5 567,-101.5 690,-101.5 690,-0.5 567,-0.5"/>
<text text-anchor="start" x="575" y="-89.5" font-family="Helvetica,sans-Serif" font-size="10.00">Catch::clara::detail</text>
<text text-anchor="start" x="575" y="-78.5" font-family="Helvetica,sans-Serif" font-size="10.00">::BoundValueRef&lt; std</text>
<text text-anchor="middle" x="628.5" y="-67.5" font-family="Helvetica,sans-Serif" font-size="10.00">::vector&lt; T &gt; &gt;</text>
<polyline fill="none" stroke="black" points="567,-60.5 690,-60.5 "/>
<text text-anchor="start" x="575" y="-48.5" font-family="Helvetica,sans-Serif" font-size="10.00">+ m_ref</text>
<polyline fill="none" stroke="black" points="567,-41.5 690,-41.5 "/>
<text text-anchor="start" x="575" y="-29.5" font-family="Helvetica,sans-Serif" font-size="10.00">+ BoundValueRef()</text>
<text text-anchor="start" x="575" y="-18.5" font-family="Helvetica,sans-Serif" font-size="10.00">+ isContainer()</text>
<text text-anchor="start" x="575" y="-7.5" font-family="Helvetica,sans-Serif" font-size="10.00">+ setValue()</text>
</a>
</g>
</g>
<!-- Node6&#45;&gt;Node9 -->
<g id="edge8" class="edge">
<title>Node6&#45;&gt;Node9</title>
<path fill="none" stroke="midnightblue" d="M487.21,-142.24C510.27,-130.13 535.82,-116.05 558.5,-102 561.29,-100.27 564.12,-98.47 566.96,-96.62"/>
<polygon fill="none" stroke="midnightblue" points="485.42,-139.23 478.17,-146.95 488.65,-145.43 485.42,-139.23"/>
</g>
</g>
</svg>
