<?xml version="1.0" encoding="UTF-8" standalone="no"?>
<!DOCTYPE svg PUBLIC "-//W3C//DTD SVG 1.1//EN"
 "http://www.w3.org/Graphics/SVG/1.1/DTD/svg11.dtd">
<!-- Generated by graphviz version 2.43.0 (0)
 -->
<!-- Title: Catch::ConsoleReporter::sectionEnded Pages: 1 -->
<svg width="532pt" height="135pt"
 viewBox="0.00 0.00 532.00 135.00" xmlns="http://www.w3.org/2000/svg" xmlns:xlink="http://www.w3.org/1999/xlink">
<g id="graph0" class="graph" transform="scale(1 1) rotate(0) translate(4 131)">
<title>Catch::ConsoleReporter::sectionEnded</title>
<polygon fill="white" stroke="transparent" points="-4,4 -4,-131 528,-131 528,4 -4,4"/>
<!-- Node1 -->
<g id="node1" class="node">
<title>Node1</title>
<g id="a_node1"><a xlink:title=" ">
<polygon fill="#bfbfbf" stroke="black" points="0,-58 0,-88 131,-88 131,-58 0,-58"/>
<text text-anchor="start" x="8" y="-76" font-family="Helvetica,sans-Serif" font-size="10.00">Catch::ConsoleReporter</text>
<text text-anchor="middle" x="65.5" y="-65" font-family="Helvetica,sans-Serif" font-size="10.00">::sectionEnded</text>
</a>
</g>
</g>
<!-- Node2 -->
<g id="node2" class="node">
<title>Node2</title>
<g id="a_node2"><a xlink:href="namespace_catch.html#af65507889895c5c4b04fb831eeab2972" target="_top" xlink:title=" ">
<polygon fill="white" stroke="black" points="167,-107.5 167,-126.5 325,-126.5 325,-107.5 167,-107.5"/>
<text text-anchor="middle" x="246" y="-114.5" font-family="Helvetica,sans-Serif" font-size="10.00">Catch::getFormattedDuration</text>
</a>
</g>
</g>
<!-- Node1&#45;&gt;Node2 -->
<g id="edge1" class="edge">
<title>Node1&#45;&gt;Node2</title>
<path fill="none" stroke="midnightblue" d="M127.43,-88.02C150.01,-93.59 175.29,-99.82 196.61,-105.07"/>
<polygon fill="midnightblue" stroke="midnightblue" points="195.86,-108.49 206.41,-107.49 197.54,-101.7 195.86,-108.49"/>
</g>
<!-- Node4 -->
<g id="node4" class="node">
<title>Node4</title>
<g id="a_node4"><a xlink:href="struct_catch_1_1_streaming_reporter_base.html#ab889c47d829ddb5a2b96b46e1e09d207" target="_top" xlink:title=" ">
<polygon fill="white" stroke="black" points="174.5,-58 174.5,-88 317.5,-88 317.5,-58 174.5,-58"/>
<text text-anchor="start" x="182.5" y="-76" font-family="Helvetica,sans-Serif" font-size="10.00">Catch::StreamingReporter</text>
<text text-anchor="middle" x="246" y="-65" font-family="Helvetica,sans-Serif" font-size="10.00">Base::sectionEnded</text>
</a>
</g>
</g>
<!-- Node1&#45;&gt;Node4 -->
<g id="edge3" class="edge">
<title>Node1&#45;&gt;Node4</title>
<path fill="none" stroke="midnightblue" d="M131.19,-73C141.97,-73 153.25,-73 164.36,-73"/>
<polygon fill="midnightblue" stroke="midnightblue" points="164.49,-76.5 174.49,-73 164.49,-69.5 164.49,-76.5"/>
</g>
<!-- Node5 -->
<g id="node5" class="node">
<title>Node5</title>
<g id="a_node5"><a xlink:href="namespace_catch.html#af4e1ece5befeb3ff910c3a54ff44abb0" target="_top" xlink:title="Should the reporter show.">
<polygon fill="white" stroke="black" points="170.5,-19.5 170.5,-38.5 321.5,-38.5 321.5,-19.5 170.5,-19.5"/>
<text text-anchor="middle" x="246" y="-26.5" font-family="Helvetica,sans-Serif" font-size="10.00">Catch::shouldShowDuration</text>
</a>
</g>
</g>
<!-- Node1&#45;&gt;Node5 -->
<g id="edge4" class="edge">
<title>Node1&#45;&gt;Node5</title>
<path fill="none" stroke="midnightblue" d="M126.81,-57.95C140.05,-54.66 153.99,-51.2 167,-48 176.34,-45.7 186.32,-43.26 195.9,-40.92"/>
<polygon fill="midnightblue" stroke="midnightblue" points="196.82,-44.3 205.71,-38.53 195.17,-37.5 196.82,-44.3"/>
</g>
<!-- Node3 -->
<g id="node3" class="node">
<title>Node3</title>
<g id="a_node3"><a xlink:href="xml_8sw_8approved_8txt.html#ab8b8577604b92144025744c78797c3bc" target="_top" xlink:title=" ">
<polygon fill="white" stroke="black" points="420,-107.5 420,-126.5 465,-126.5 465,-107.5 420,-107.5"/>
<text text-anchor="middle" x="442.5" y="-114.5" font-family="Helvetica,sans-Serif" font-size="10.00">size_t</text>
</a>
</g>
</g>
<!-- Node2&#45;&gt;Node3 -->
<g id="edge2" class="edge">
<title>Node2&#45;&gt;Node3</title>
<path fill="none" stroke="midnightblue" d="M325.27,-117C354.8,-117 386.75,-117 409.67,-117"/>
<polygon fill="midnightblue" stroke="midnightblue" points="409.83,-120.5 419.83,-117 409.83,-113.5 409.83,-120.5"/>
</g>
<!-- Node6 -->
<g id="node6" class="node">
<title>Node6</title>
<g id="a_node6"><a xlink:href="struct_catch_1_1_i_config.html#a160c6f6e19ed6ae946f7a9e737099189" target="_top" xlink:title=" ">
<polygon fill="white" stroke="black" points="367,-38.5 367,-57.5 518,-57.5 518,-38.5 367,-38.5"/>
<text text-anchor="middle" x="442.5" y="-45.5" font-family="Helvetica,sans-Serif" font-size="10.00">Catch::IConfig::minDuration</text>
</a>
</g>
</g>
<!-- Node5&#45;&gt;Node6 -->
<g id="edge5" class="edge">
<title>Node5&#45;&gt;Node6</title>
<path fill="none" stroke="midnightblue" d="M321.64,-36.29C333.08,-37.41 344.95,-38.57 356.59,-39.71"/>
<polygon fill="midnightblue" stroke="midnightblue" points="356.44,-43.21 366.74,-40.7 357.12,-36.24 356.44,-43.21"/>
</g>
<!-- Node7 -->
<g id="node7" class="node">
<title>Node7</title>
<g id="a_node7"><a xlink:href="struct_catch_1_1_i_config.html#abaa97d281484278291f0d3db6d404aeb" target="_top" xlink:title=" ">
<polygon fill="white" stroke="black" points="361,-0.5 361,-19.5 524,-19.5 524,-0.5 361,-0.5"/>
<text text-anchor="middle" x="442.5" y="-7.5" font-family="Helvetica,sans-Serif" font-size="10.00">Catch::IConfig::showDurations</text>
</a>
</g>
</g>
<!-- Node5&#45;&gt;Node7 -->
<g id="edge6" class="edge">
<title>Node5&#45;&gt;Node7</title>
<path fill="none" stroke="midnightblue" d="M321.64,-21.71C331.18,-20.78 341.03,-19.81 350.79,-18.86"/>
<polygon fill="midnightblue" stroke="midnightblue" points="351.3,-22.33 360.92,-17.87 350.62,-15.36 351.3,-22.33"/>
</g>
</g>
</svg>
