<?xml version="1.0" encoding="UTF-8" standalone="no"?>
<!DOCTYPE svg PUBLIC "-//W3C//DTD SVG 1.1//EN"
 "http://www.w3.org/Graphics/SVG/1.1/DTD/svg11.dtd">
<!-- Generated by graphviz version 2.43.0 (0)
 -->
<!-- Title: clara::detail::BoundValueRef&lt; T &gt; Pages: 1 -->
<svg width="201pt" height="460pt"
 viewBox="0.00 0.00 201.00 460.00" xmlns="http://www.w3.org/2000/svg" xmlns:xlink="http://www.w3.org/1999/xlink">
<g id="graph0" class="graph" transform="scale(1 1) rotate(0) translate(4 456)">
<title>clara::detail::BoundValueRef&lt; T &gt;</title>
<polygon fill="white" stroke="transparent" points="-4,4 -4,-456 197,-456 197,4 -4,4"/>
<!-- Node1 -->
<g id="node1" class="node">
<title>Node1</title>
<g id="a_node1"><a xlink:title=" ">
<polygon fill="#bfbfbf" stroke="black" points="55,-0.5 55,-79.5 193,-79.5 193,-0.5 55,-0.5"/>
<text text-anchor="start" x="63" y="-67.5" font-family="Helvetica,sans-Serif" font-size="10.00">clara::detail::BoundValue</text>
<text text-anchor="middle" x="124" y="-56.5" font-family="Helvetica,sans-Serif" font-size="10.00">Ref&lt; T &gt;</text>
<polyline fill="none" stroke="black" points="55,-49.5 193,-49.5 "/>
<text text-anchor="middle" x="124" y="-37.5" font-family="Helvetica,sans-Serif" font-size="10.00"> </text>
<polyline fill="none" stroke="black" points="55,-30.5 193,-30.5 "/>
<text text-anchor="start" x="63" y="-18.5" font-family="Helvetica,sans-Serif" font-size="10.00">+ BoundValueRef()</text>
<text text-anchor="start" x="63" y="-7.5" font-family="Helvetica,sans-Serif" font-size="10.00">+ setValue()</text>
</a>
</g>
</g>
<!-- Node2 -->
<g id="node2" class="node">
<title>Node2</title>
<g id="a_node2"><a xlink:href="structclara_1_1detail_1_1_bound_value_ref_base.html" target="_top" xlink:title=" ">
<polygon fill="white" stroke="black" points="4,-127.5 4,-195.5 142,-195.5 142,-127.5 4,-127.5"/>
<text text-anchor="start" x="12" y="-183.5" font-family="Helvetica,sans-Serif" font-size="10.00">clara::detail::BoundValue</text>
<text text-anchor="middle" x="73" y="-172.5" font-family="Helvetica,sans-Serif" font-size="10.00">RefBase</text>
<polyline fill="none" stroke="black" points="4,-165.5 142,-165.5 "/>
<text text-anchor="middle" x="73" y="-153.5" font-family="Helvetica,sans-Serif" font-size="10.00"> </text>
<polyline fill="none" stroke="black" points="4,-146.5 142,-146.5 "/>
<text text-anchor="start" x="12" y="-134.5" font-family="Helvetica,sans-Serif" font-size="10.00">+ setValue()</text>
</a>
</g>
</g>
<!-- Node2&#45;&gt;Node1 -->
<g id="edge1" class="edge">
<title>Node2&#45;&gt;Node1</title>
<path fill="none" stroke="midnightblue" d="M91.18,-117.91C96.51,-105.42 102.31,-91.83 107.53,-79.6"/>
<polygon fill="none" stroke="midnightblue" points="87.91,-116.64 87.21,-127.21 94.35,-119.39 87.91,-116.64"/>
</g>
<!-- Node3 -->
<g id="node3" class="node">
<title>Node3</title>
<g id="a_node3"><a xlink:href="structclara_1_1detail_1_1_bound_ref.html" target="_top" xlink:title=" ">
<polygon fill="white" stroke="black" points="9,-233.5 9,-312.5 137,-312.5 137,-233.5 9,-233.5"/>
<text text-anchor="middle" x="73" y="-300.5" font-family="Helvetica,sans-Serif" font-size="10.00">clara::detail::BoundRef</text>
<polyline fill="none" stroke="black" points="9,-293.5 137,-293.5 "/>
<text text-anchor="middle" x="73" y="-281.5" font-family="Helvetica,sans-Serif" font-size="10.00"> </text>
<polyline fill="none" stroke="black" points="9,-274.5 137,-274.5 "/>
<text text-anchor="start" x="17" y="-262.5" font-family="Helvetica,sans-Serif" font-size="10.00">+ ~BoundRef()</text>
<text text-anchor="start" x="17" y="-251.5" font-family="Helvetica,sans-Serif" font-size="10.00">+ isContainer()</text>
<text text-anchor="start" x="17" y="-240.5" font-family="Helvetica,sans-Serif" font-size="10.00">+ isFlag()</text>
</a>
</g>
</g>
<!-- Node3&#45;&gt;Node2 -->
<g id="edge2" class="edge">
<title>Node3&#45;&gt;Node2</title>
<path fill="none" stroke="midnightblue" d="M73,-223.38C73,-214.02 73,-204.41 73,-195.67"/>
<polygon fill="none" stroke="midnightblue" points="69.5,-223.39 73,-233.39 76.5,-223.39 69.5,-223.39"/>
</g>
<!-- Node4 -->
<g id="node4" class="node">
<title>Node4</title>
<g id="a_node4"><a xlink:href="structclara_1_1detail_1_1_non_copyable.html" target="_top" xlink:title=" ">
<polygon fill="white" stroke="black" points="0,-350.5 0,-451.5 146,-451.5 146,-350.5 0,-350.5"/>
<text text-anchor="middle" x="73" y="-439.5" font-family="Helvetica,sans-Serif" font-size="10.00">clara::detail::NonCopyable</text>
<polyline fill="none" stroke="black" points="0,-432.5 146,-432.5 "/>
<text text-anchor="middle" x="73" y="-420.5" font-family="Helvetica,sans-Serif" font-size="10.00"> </text>
<polyline fill="none" stroke="black" points="0,-413.5 146,-413.5 "/>
<text text-anchor="start" x="8" y="-401.5" font-family="Helvetica,sans-Serif" font-size="10.00">+ NonCopyable()</text>
<text text-anchor="start" x="8" y="-390.5" font-family="Helvetica,sans-Serif" font-size="10.00">+ NonCopyable()</text>
<text text-anchor="start" x="8" y="-379.5" font-family="Helvetica,sans-Serif" font-size="10.00">+ NonCopyable()</text>
<text text-anchor="start" x="8" y="-368.5" font-family="Helvetica,sans-Serif" font-size="10.00">+ operator=()</text>
<text text-anchor="start" x="8" y="-357.5" font-family="Helvetica,sans-Serif" font-size="10.00">+ operator=()</text>
</a>
</g>
</g>
<!-- Node4&#45;&gt;Node3 -->
<g id="edge3" class="edge">
<title>Node4&#45;&gt;Node3</title>
<path fill="none" stroke="midnightblue" d="M73,-340.11C73,-330.74 73,-321.28 73,-312.56"/>
<polygon fill="none" stroke="midnightblue" points="69.5,-340.2 73,-350.2 76.5,-340.2 69.5,-340.2"/>
</g>
<!-- Node5 -->
<g id="node5" class="node">
<title>Node5</title>
<g id="a_node5"><a xlink:title=" ">
<polygon fill="white" stroke="#bfbfbf" points="160.5,-133 160.5,-190 189.5,-190 189.5,-133 160.5,-133"/>
<text text-anchor="middle" x="175" y="-178" font-family="Helvetica,sans-Serif" font-size="10.00">T</text>
<polyline fill="none" stroke="#bfbfbf" points="160.5,-171 189.5,-171 "/>
<text text-anchor="middle" x="175" y="-159" font-family="Helvetica,sans-Serif" font-size="10.00"> </text>
<polyline fill="none" stroke="#bfbfbf" points="160.5,-152 189.5,-152 "/>
<text text-anchor="middle" x="175" y="-140" font-family="Helvetica,sans-Serif" font-size="10.00"> </text>
</a>
</g>
</g>
<!-- Node5&#45;&gt;Node1 -->
<g id="edge4" class="edge">
<title>Node5&#45;&gt;Node1</title>
<path fill="none" stroke="#404040" d="M163.17,-132.78C157.88,-120.38 151.47,-105.36 145.38,-91.1"/>
<polygon fill="none" stroke="#404040" points="145.3,-90.92 139.27,-86.97 140.59,-79.88 146.63,-83.83 145.3,-90.92"/>
<text text-anchor="middle" x="172" y="-101" font-family="Helvetica,sans-Serif" font-size="10.00"> +m_ref</text>
</g>
</g>
</svg>
