<?xml version="1.0" encoding="UTF-8" standalone="no"?>
<!DOCTYPE svg PUBLIC "-//W3C//DTD SVG 1.1//EN"
 "http://www.w3.org/Graphics/SVG/1.1/DTD/svg11.dtd">
<!-- Generated by graphviz version 2.43.0 (0)
 -->
<!-- Title: Catch::Counts Pages: 1 -->
<svg width="122pt" height="292pt"
 viewBox="0.00 0.00 121.50 292.00" xmlns="http://www.w3.org/2000/svg" xmlns:xlink="http://www.w3.org/1999/xlink">
<g id="graph0" class="graph" transform="scale(1 1) rotate(0) translate(4 288)">
<title>Catch::Counts</title>
<polygon fill="white" stroke="transparent" points="-4,4 -4,-288 117.5,-288 117.5,4 -4,4"/>
<!-- Node1 -->
<g id="node1" class="node">
<title>Node1</title>
<g id="a_node1"><a xlink:title=" ">
<polygon fill="#bfbfbf" stroke="black" points="0,-0.5 0,-156.5 93,-156.5 93,-0.5 0,-0.5"/>
<text text-anchor="middle" x="46.5" y="-144.5" font-family="Helvetica,sans-Serif" font-size="10.00">Catch::Counts</text>
<polyline fill="none" stroke="black" points="0,-137.5 93,-137.5 "/>
<text text-anchor="middle" x="46.5" y="-125.5" font-family="Helvetica,sans-Serif" font-size="10.00"> </text>
<polyline fill="none" stroke="black" points="0,-118.5 93,-118.5 "/>
<text text-anchor="start" x="8" y="-106.5" font-family="Helvetica,sans-Serif" font-size="10.00">+ operator&#45;()</text>
<text text-anchor="start" x="8" y="-95.5" font-family="Helvetica,sans-Serif" font-size="10.00">+ operator+=()</text>
<text text-anchor="start" x="8" y="-84.5" font-family="Helvetica,sans-Serif" font-size="10.00">+ total()</text>
<text text-anchor="start" x="8" y="-73.5" font-family="Helvetica,sans-Serif" font-size="10.00">+ allPassed()</text>
<text text-anchor="start" x="8" y="-62.5" font-family="Helvetica,sans-Serif" font-size="10.00">+ allOk()</text>
<text text-anchor="start" x="8" y="-51.5" font-family="Helvetica,sans-Serif" font-size="10.00">+ operator&#45;()</text>
<text text-anchor="start" x="8" y="-40.5" font-family="Helvetica,sans-Serif" font-size="10.00">+ operator+=()</text>
<text text-anchor="start" x="8" y="-29.5" font-family="Helvetica,sans-Serif" font-size="10.00">+ total()</text>
<text text-anchor="start" x="8" y="-18.5" font-family="Helvetica,sans-Serif" font-size="10.00">+ allPassed()</text>
<text text-anchor="start" x="8" y="-7.5" font-family="Helvetica,sans-Serif" font-size="10.00">+ allOk()</text>
</a>
</g>
</g>
<!-- Node2 -->
<g id="node2" class="node">
<title>Node2</title>
<g id="a_node2"><a xlink:title=" ">
<polygon fill="white" stroke="#bfbfbf" points="24,-226.5 24,-283.5 69,-283.5 69,-226.5 24,-226.5"/>
<text text-anchor="middle" x="46.5" y="-271.5" font-family="Helvetica,sans-Serif" font-size="10.00">size_t</text>
<polyline fill="none" stroke="#bfbfbf" points="24,-264.5 69,-264.5 "/>
<text text-anchor="middle" x="46.5" y="-252.5" font-family="Helvetica,sans-Serif" font-size="10.00"> </text>
<polyline fill="none" stroke="#bfbfbf" points="24,-245.5 69,-245.5 "/>
<text text-anchor="middle" x="46.5" y="-233.5" font-family="Helvetica,sans-Serif" font-size="10.00"> </text>
</a>
</g>
</g>
<!-- Node2&#45;&gt;Node1 -->
<g id="edge1" class="edge">
<title>Node2&#45;&gt;Node1</title>
<path fill="none" stroke="#404040" d="M46.5,-226.35C46.5,-210.6 46.5,-189.9 46.5,-169.02"/>
<polygon fill="none" stroke="#404040" points="46.5,-168.74 42.5,-162.74 46.5,-156.74 50.5,-162.74 46.5,-168.74"/>
<text text-anchor="middle" x="80" y="-200" font-family="Helvetica,sans-Serif" font-size="10.00"> +failed</text>
<text text-anchor="middle" x="80" y="-189" font-family="Helvetica,sans-Serif" font-size="10.00">+failedButOk</text>
<text text-anchor="middle" x="80" y="-178" font-family="Helvetica,sans-Serif" font-size="10.00">+passed</text>
</g>
</g>
</svg>
