<?xml version="1.0" encoding="UTF-8" standalone="no"?>
<!DOCTYPE svg PUBLIC "-//W3C//DTD SVG 1.1//EN"
 "http://www.w3.org/Graphics/SVG/1.1/DTD/svg11.dtd">
<!-- Generated by graphviz version 2.43.0 (0)
 -->
<!-- Title: Catch::ITransientExpression Pages: 1 -->
<svg width="496pt" height="391pt"
 viewBox="0.00 0.00 496.00 391.00" xmlns="http://www.w3.org/2000/svg" xmlns:xlink="http://www.w3.org/1999/xlink">
<g id="graph0" class="graph" transform="scale(1 1) rotate(0) translate(4 387)">
<title>Catch::ITransientExpression</title>
<polygon fill="white" stroke="transparent" points="-4,4 -4,-387 492,-387 492,4 -4,4"/>
<!-- Node1 -->
<g id="node1" class="node">
<title>Node1</title>
<g id="a_node1"><a xlink:title=" ">
<polygon fill="#bfbfbf" stroke="black" points="130.5,-215.5 130.5,-382.5 323.5,-382.5 323.5,-215.5 130.5,-215.5"/>
<text text-anchor="middle" x="227" y="-370.5" font-family="Helvetica,sans-Serif" font-size="10.00">Catch::ITransientExpression</text>
<polyline fill="none" stroke="black" points="130.5,-363.5 323.5,-363.5 "/>
<text text-anchor="start" x="138.5" y="-351.5" font-family="Helvetica,sans-Serif" font-size="10.00">+ m_isBinaryExpression</text>
<text text-anchor="start" x="138.5" y="-340.5" font-family="Helvetica,sans-Serif" font-size="10.00">+ m_result</text>
<polyline fill="none" stroke="black" points="130.5,-333.5 323.5,-333.5 "/>
<text text-anchor="start" x="138.5" y="-321.5" font-family="Helvetica,sans-Serif" font-size="10.00">+ isBinaryExpression()</text>
<text text-anchor="start" x="138.5" y="-310.5" font-family="Helvetica,sans-Serif" font-size="10.00">+ getResult()</text>
<text text-anchor="start" x="138.5" y="-299.5" font-family="Helvetica,sans-Serif" font-size="10.00">+ streamReconstructedExpression()</text>
<text text-anchor="start" x="138.5" y="-288.5" font-family="Helvetica,sans-Serif" font-size="10.00">+ ITransientExpression()</text>
<text text-anchor="start" x="138.5" y="-277.5" font-family="Helvetica,sans-Serif" font-size="10.00">+ ~ITransientExpression()</text>
<text text-anchor="start" x="138.5" y="-266.5" font-family="Helvetica,sans-Serif" font-size="10.00">+ isBinaryExpression()</text>
<text text-anchor="start" x="138.5" y="-255.5" font-family="Helvetica,sans-Serif" font-size="10.00">+ getResult()</text>
<text text-anchor="start" x="138.5" y="-244.5" font-family="Helvetica,sans-Serif" font-size="10.00">+ streamReconstructedExpression()</text>
<text text-anchor="start" x="138.5" y="-233.5" font-family="Helvetica,sans-Serif" font-size="10.00">+ ITransientExpression()</text>
<text text-anchor="start" x="138.5" y="-222.5" font-family="Helvetica,sans-Serif" font-size="10.00">+ ~ITransientExpression()</text>
</a>
</g>
</g>
<!-- Node2 -->
<g id="node2" class="node">
<title>Node2</title>
<g id="a_node2"><a xlink:href="class_catch_1_1_binary_expr.html" target="_top" xlink:title=" ">
<polygon fill="white" stroke="black" points="0,-0.5 0,-178.5 112,-178.5 112,-0.5 0,-0.5"/>
<text text-anchor="start" x="8" y="-166.5" font-family="Helvetica,sans-Serif" font-size="10.00">Catch::BinaryExpr&lt;</text>
<text text-anchor="middle" x="56" y="-155.5" font-family="Helvetica,sans-Serif" font-size="10.00"> LhsT, RhsT &gt;</text>
<polyline fill="none" stroke="black" points="0,-148.5 112,-148.5 "/>
<text text-anchor="middle" x="56" y="-136.5" font-family="Helvetica,sans-Serif" font-size="10.00"> </text>
<polyline fill="none" stroke="black" points="0,-129.5 112,-129.5 "/>
<text text-anchor="start" x="8" y="-117.5" font-family="Helvetica,sans-Serif" font-size="10.00">+ BinaryExpr()</text>
<text text-anchor="start" x="8" y="-106.5" font-family="Helvetica,sans-Serif" font-size="10.00">+ operator&amp;&amp;()</text>
<text text-anchor="start" x="8" y="-95.5" font-family="Helvetica,sans-Serif" font-size="10.00">+ operator||()</text>
<text text-anchor="start" x="8" y="-84.5" font-family="Helvetica,sans-Serif" font-size="10.00">+ operator==()</text>
<text text-anchor="start" x="8" y="-73.5" font-family="Helvetica,sans-Serif" font-size="10.00">+ operator!=()</text>
<text text-anchor="start" x="8" y="-62.5" font-family="Helvetica,sans-Serif" font-size="10.00">+ operator&gt;()</text>
<text text-anchor="start" x="8" y="-51.5" font-family="Helvetica,sans-Serif" font-size="10.00">+ operator&lt;()</text>
<text text-anchor="start" x="8" y="-40.5" font-family="Helvetica,sans-Serif" font-size="10.00">+ operator&gt;=()</text>
<text text-anchor="start" x="8" y="-29.5" font-family="Helvetica,sans-Serif" font-size="10.00">+ operator&lt;=()</text>
<text text-anchor="start" x="8" y="-18.5" font-family="Helvetica,sans-Serif" font-size="10.00">+ BinaryExpr()</text>
<text text-anchor="start" x="8" y="-7.5" font-family="Helvetica,sans-Serif" font-size="10.00">and 8 more...</text>
</a>
</g>
</g>
<!-- Node1&#45;&gt;Node2 -->
<g id="edge1" class="edge">
<title>Node1&#45;&gt;Node2</title>
<path fill="none" stroke="midnightblue" d="M144.96,-207.67C136.74,-198.09 128.62,-188.42 121,-179 118.12,-175.44 115.21,-171.78 112.3,-168.05"/>
<polygon fill="none" stroke="midnightblue" points="142.38,-210.04 151.57,-215.32 147.68,-205.46 142.38,-210.04"/>
</g>
<!-- Node3 -->
<g id="node3" class="node">
<title>Node3</title>
<g id="a_node3"><a xlink:href="class_catch_1_1_match_expr.html" target="_top" xlink:title=" ">
<polygon fill="white" stroke="black" points="130.5,-39 130.5,-140 323.5,-140 323.5,-39 130.5,-39"/>
<text text-anchor="start" x="138.5" y="-128" font-family="Helvetica,sans-Serif" font-size="10.00">Catch::MatchExpr&lt; ArgT,</text>
<text text-anchor="middle" x="227" y="-117" font-family="Helvetica,sans-Serif" font-size="10.00"> MatcherT &gt;</text>
<polyline fill="none" stroke="black" points="130.5,-110 323.5,-110 "/>
<text text-anchor="middle" x="227" y="-98" font-family="Helvetica,sans-Serif" font-size="10.00"> </text>
<polyline fill="none" stroke="black" points="130.5,-91 323.5,-91 "/>
<text text-anchor="start" x="138.5" y="-79" font-family="Helvetica,sans-Serif" font-size="10.00">+ MatchExpr()</text>
<text text-anchor="start" x="138.5" y="-68" font-family="Helvetica,sans-Serif" font-size="10.00">+ streamReconstructedExpression()</text>
<text text-anchor="start" x="138.5" y="-57" font-family="Helvetica,sans-Serif" font-size="10.00">+ MatchExpr()</text>
<text text-anchor="start" x="138.5" y="-46" font-family="Helvetica,sans-Serif" font-size="10.00">+ streamReconstructedExpression()</text>
</a>
</g>
</g>
<!-- Node1&#45;&gt;Node3 -->
<g id="edge2" class="edge">
<title>Node1&#45;&gt;Node3</title>
<path fill="none" stroke="midnightblue" d="M227,-205.18C227,-182.82 227,-159.78 227,-140.26"/>
<polygon fill="none" stroke="midnightblue" points="223.5,-205.39 227,-215.39 230.5,-205.39 223.5,-205.39"/>
</g>
<!-- Node4 -->
<g id="node4" class="node">
<title>Node4</title>
<g id="a_node4"><a xlink:href="class_catch_1_1_unary_expr.html" target="_top" xlink:title=" ">
<polygon fill="white" stroke="black" points="342,-55.5 342,-123.5 488,-123.5 488,-55.5 342,-55.5"/>
<text text-anchor="middle" x="415" y="-111.5" font-family="Helvetica,sans-Serif" font-size="10.00">Catch::UnaryExpr&lt; LhsT &gt;</text>
<polyline fill="none" stroke="black" points="342,-104.5 488,-104.5 "/>
<text text-anchor="middle" x="415" y="-92.5" font-family="Helvetica,sans-Serif" font-size="10.00"> </text>
<polyline fill="none" stroke="black" points="342,-85.5 488,-85.5 "/>
<text text-anchor="start" x="350" y="-73.5" font-family="Helvetica,sans-Serif" font-size="10.00">+ UnaryExpr()</text>
<text text-anchor="start" x="350" y="-62.5" font-family="Helvetica,sans-Serif" font-size="10.00">+ UnaryExpr()</text>
</a>
</g>
</g>
<!-- Node1&#45;&gt;Node4 -->
<g id="edge3" class="edge">
<title>Node1&#45;&gt;Node4</title>
<path fill="none" stroke="midnightblue" d="M308.7,-207.83C335.81,-177.9 364.31,-146.45 384.97,-123.65"/>
<polygon fill="none" stroke="midnightblue" points="305.96,-205.63 301.84,-215.39 311.15,-210.33 305.96,-205.63"/>
</g>
</g>
</svg>
