<?xml version="1.0" encoding="UTF-8" standalone="no"?>
<!DOCTYPE svg PUBLIC "-//W3C//DTD SVG 1.1//EN"
 "http://www.w3.org/Graphics/SVG/1.1/DTD/svg11.dtd">
<!-- Generated by graphviz version 2.43.0 (0)
 -->
<!-- Title: Catch::Benchmark::EnvironmentEstimate&lt; Duration &gt; Pages: 1 -->
<svg width="284pt" height="353pt"
 viewBox="0.00 0.00 284.00 353.00" xmlns="http://www.w3.org/2000/svg" xmlns:xlink="http://www.w3.org/1999/xlink">
<g id="graph0" class="graph" transform="scale(1 1) rotate(0) translate(4 349)">
<title>Catch::Benchmark::EnvironmentEstimate&lt; Duration &gt;</title>
<polygon fill="white" stroke="transparent" points="-4,4 -4,-349 280,-349 280,4 -4,4"/>
<!-- Node1 -->
<g id="node1" class="node">
<title>Node1</title>
<g id="a_node1"><a xlink:title=" ">
<polygon fill="#bfbfbf" stroke="black" points="93.5,-0.5 93.5,-79.5 271.5,-79.5 271.5,-0.5 93.5,-0.5"/>
<text text-anchor="start" x="101.5" y="-67.5" font-family="Helvetica,sans-Serif" font-size="10.00">Catch::Benchmark::Environment</text>
<text text-anchor="middle" x="182.5" y="-56.5" font-family="Helvetica,sans-Serif" font-size="10.00">Estimate&lt; Duration &gt;</text>
<polyline fill="none" stroke="black" points="93.5,-49.5 271.5,-49.5 "/>
<text text-anchor="middle" x="182.5" y="-37.5" font-family="Helvetica,sans-Serif" font-size="10.00"> </text>
<polyline fill="none" stroke="black" points="93.5,-30.5 271.5,-30.5 "/>
<text text-anchor="start" x="101.5" y="-18.5" font-family="Helvetica,sans-Serif" font-size="10.00">+ operator EnvironmentEstimate</text>
<text text-anchor="start" x="101.5" y="-7.5" font-family="Helvetica,sans-Serif" font-size="10.00">&lt; Duration2 &gt;()</text>
</a>
</g>
</g>
<!-- Node2 -->
<g id="node2" class="node">
<title>Node2</title>
<g id="a_node2"><a xlink:href="struct_catch_1_1_benchmark_1_1_outlier_classification.html" target="_top" xlink:title=" ">
<polygon fill="white" stroke="black" points="0,-127.5 0,-195.5 145,-195.5 145,-127.5 0,-127.5"/>
<text text-anchor="start" x="8" y="-183.5" font-family="Helvetica,sans-Serif" font-size="10.00">Catch::Benchmark::Outlier</text>
<text text-anchor="middle" x="72.5" y="-172.5" font-family="Helvetica,sans-Serif" font-size="10.00">Classification</text>
<polyline fill="none" stroke="black" points="0,-165.5 145,-165.5 "/>
<text text-anchor="middle" x="72.5" y="-153.5" font-family="Helvetica,sans-Serif" font-size="10.00"> </text>
<polyline fill="none" stroke="black" points="0,-146.5 145,-146.5 "/>
<text text-anchor="start" x="8" y="-134.5" font-family="Helvetica,sans-Serif" font-size="10.00">+ total()</text>
</a>
</g>
</g>
<!-- Node2&#45;&gt;Node1 -->
<g id="edge1" class="edge">
<title>Node2&#45;&gt;Node1</title>
<path fill="none" stroke="#404040" d="M103.14,-127.21C114.09,-115.32 126.65,-101.67 138.5,-88.8"/>
<polygon fill="none" stroke="#404040" points="138.84,-88.43 139.96,-81.31 146.97,-79.6 145.85,-86.72 138.84,-88.43"/>
<text text-anchor="middle" x="152" y="-101" font-family="Helvetica,sans-Serif" font-size="10.00"> +outliers</text>
</g>
<!-- Node3 -->
<g id="node3" class="node">
<title>Node3</title>
<g id="a_node3"><a xlink:title=" ">
<polygon fill="white" stroke="#bfbfbf" points="58,-287.5 58,-344.5 87,-344.5 87,-287.5 58,-287.5"/>
<text text-anchor="middle" x="72.5" y="-332.5" font-family="Helvetica,sans-Serif" font-size="10.00">int</text>
<polyline fill="none" stroke="#bfbfbf" points="58,-325.5 87,-325.5 "/>
<text text-anchor="middle" x="72.5" y="-313.5" font-family="Helvetica,sans-Serif" font-size="10.00"> </text>
<polyline fill="none" stroke="#bfbfbf" points="58,-306.5 87,-306.5 "/>
<text text-anchor="middle" x="72.5" y="-294.5" font-family="Helvetica,sans-Serif" font-size="10.00"> </text>
</a>
</g>
</g>
<!-- Node3&#45;&gt;Node2 -->
<g id="edge2" class="edge">
<title>Node3&#45;&gt;Node2</title>
<path fill="none" stroke="#404040" d="M72.5,-287.38C72.5,-265.25 72.5,-233.75 72.5,-207.92"/>
<polygon fill="none" stroke="#404040" points="72.5,-207.76 68.5,-201.76 72.5,-195.76 76.5,-201.76 72.5,-207.76"/>
<text text-anchor="middle" x="112" y="-261" font-family="Helvetica,sans-Serif" font-size="10.00"> +low_severe</text>
<text text-anchor="middle" x="112" y="-250" font-family="Helvetica,sans-Serif" font-size="10.00">+samples_seen</text>
<text text-anchor="middle" x="112" y="-239" font-family="Helvetica,sans-Serif" font-size="10.00">+high_severe</text>
<text text-anchor="middle" x="112" y="-228" font-family="Helvetica,sans-Serif" font-size="10.00">+high_mild</text>
<text text-anchor="middle" x="112" y="-217" font-family="Helvetica,sans-Serif" font-size="10.00">+low_mild</text>
</g>
<!-- Node4 -->
<g id="node4" class="node">
<title>Node4</title>
<g id="a_node4"><a xlink:title=" ">
<polygon fill="white" stroke="#bfbfbf" points="163,-133 163,-190 276,-190 276,-133 163,-133"/>
<text text-anchor="middle" x="219.5" y="-178" font-family="Helvetica,sans-Serif" font-size="10.00">anonymous:+mean</text>
<polyline fill="none" stroke="#bfbfbf" points="163,-171 276,-171 "/>
<text text-anchor="middle" x="219.5" y="-159" font-family="Helvetica,sans-Serif" font-size="10.00"> </text>
<polyline fill="none" stroke="#bfbfbf" points="163,-152 276,-152 "/>
<text text-anchor="middle" x="219.5" y="-140" font-family="Helvetica,sans-Serif" font-size="10.00"> </text>
</a>
</g>
</g>
<!-- Node4&#45;&gt;Node1 -->
<g id="edge3" class="edge">
<title>Node4&#45;&gt;Node1</title>
<path fill="none" stroke="#404040" d="M210.92,-132.78C207.12,-120.5 202.52,-105.66 198.14,-91.52"/>
<polygon fill="none" stroke="#404040" points="198.09,-91.34 192.49,-86.8 194.54,-79.88 200.13,-84.43 198.09,-91.34"/>
<text text-anchor="middle" x="222.5" y="-101" font-family="Helvetica,sans-Serif" font-size="10.00"> +mean</text>
</g>
</g>
</svg>
