<?xml version="1.0" encoding="UTF-8" standalone="no"?>
<!DOCTYPE svg PUBLIC "-//W3C//DTD SVG 1.1//EN"
 "http://www.w3.org/Graphics/SVG/1.1/DTD/svg11.dtd">
<!-- Generated by graphviz version 2.43.0 (0)
 -->
<!-- Title: Catch::CumulativeReporterBase&lt; DerivedT &gt;::Node&lt; T, ChildNodeT &gt; Pages: 1 -->
<svg width="192pt" height="215pt"
 viewBox="0.00 0.00 192.00 215.00" xmlns="http://www.w3.org/2000/svg" xmlns:xlink="http://www.w3.org/1999/xlink">
<g id="graph0" class="graph" transform="scale(1 1) rotate(0) translate(4 211)">
<title>Catch::CumulativeReporterBase&lt; DerivedT &gt;::Node&lt; T, ChildNodeT &gt;</title>
<polygon fill="white" stroke="transparent" points="-4,4 -4,-211 188,-211 188,4 -4,4"/>
<!-- Node1 -->
<g id="node1" class="node">
<title>Node1</title>
<g id="a_node1"><a xlink:title=" ">
<polygon fill="#bfbfbf" stroke="black" points="35,-0.5 35,-90.5 184,-90.5 184,-0.5 35,-0.5"/>
<text text-anchor="start" x="43" y="-78.5" font-family="Helvetica,sans-Serif" font-size="10.00">Catch::CumulativeReporter</text>
<text text-anchor="start" x="43" y="-67.5" font-family="Helvetica,sans-Serif" font-size="10.00">Base&lt; DerivedT &gt;::Node</text>
<text text-anchor="middle" x="109.5" y="-56.5" font-family="Helvetica,sans-Serif" font-size="10.00">&lt; T, ChildNodeT &gt;</text>
<polyline fill="none" stroke="black" points="35,-49.5 184,-49.5 "/>
<text text-anchor="middle" x="109.5" y="-37.5" font-family="Helvetica,sans-Serif" font-size="10.00"> </text>
<polyline fill="none" stroke="black" points="35,-30.5 184,-30.5 "/>
<text text-anchor="start" x="43" y="-18.5" font-family="Helvetica,sans-Serif" font-size="10.00">+ Node()</text>
<text text-anchor="start" x="43" y="-7.5" font-family="Helvetica,sans-Serif" font-size="10.00">+ ~Node()</text>
</a>
</g>
</g>
<!-- Node2 -->
<g id="node2" class="node">
<title>Node2</title>
<g id="a_node2"><a xlink:title=" ">
<polygon fill="white" stroke="#bfbfbf" points="0,-138.5 0,-206.5 125,-206.5 125,-138.5 0,-138.5"/>
<text text-anchor="start" x="8" y="-194.5" font-family="Helvetica,sans-Serif" font-size="10.00">vector&lt; std::shared</text>
<text text-anchor="middle" x="62.5" y="-183.5" font-family="Helvetica,sans-Serif" font-size="10.00">_ptr&lt; ChildNodeT &gt; &gt;</text>
<polyline fill="none" stroke="#bfbfbf" points="0,-176.5 125,-176.5 "/>
<text text-anchor="middle" x="62.5" y="-164.5" font-family="Helvetica,sans-Serif" font-size="10.00"> </text>
<polyline fill="none" stroke="#bfbfbf" points="0,-157.5 125,-157.5 "/>
<text text-anchor="middle" x="62.5" y="-145.5" font-family="Helvetica,sans-Serif" font-size="10.00"> </text>
</a>
</g>
</g>
<!-- Node2&#45;&gt;Node1 -->
<g id="edge1" class="edge">
<title>Node2&#45;&gt;Node1</title>
<path fill="none" stroke="#404040" d="M73.89,-138.32C77.23,-128.82 80.94,-118.48 84.5,-109 85.33,-106.78 86.19,-104.53 87.06,-102.25"/>
<polygon fill="none" stroke="#404040" points="87.17,-101.98 85.61,-94.94 91.51,-90.8 93.07,-97.84 87.17,-101.98"/>
<text text-anchor="middle" x="110" y="-112" font-family="Helvetica,sans-Serif" font-size="10.00"> +children</text>
</g>
<!-- Node3 -->
<g id="node3" class="node">
<title>Node3</title>
<g id="a_node3"><a xlink:title=" ">
<polygon fill="white" stroke="#bfbfbf" points="143,-144 143,-201 172,-201 172,-144 143,-144"/>
<text text-anchor="middle" x="157.5" y="-189" font-family="Helvetica,sans-Serif" font-size="10.00">T</text>
<polyline fill="none" stroke="#bfbfbf" points="143,-182 172,-182 "/>
<text text-anchor="middle" x="157.5" y="-170" font-family="Helvetica,sans-Serif" font-size="10.00"> </text>
<polyline fill="none" stroke="#bfbfbf" points="143,-163 172,-163 "/>
<text text-anchor="middle" x="157.5" y="-151" font-family="Helvetica,sans-Serif" font-size="10.00"> </text>
</a>
</g>
</g>
<!-- Node3&#45;&gt;Node1 -->
<g id="edge2" class="edge">
<title>Node3&#45;&gt;Node1</title>
<path fill="none" stroke="#404040" d="M148.19,-144C144.39,-133.06 139.87,-120.38 135.5,-109 134.61,-106.69 133.69,-104.33 132.76,-101.95"/>
<polygon fill="none" stroke="#404040" points="132.74,-101.9 126.79,-97.82 128.27,-90.76 134.22,-94.84 132.74,-101.9"/>
<text text-anchor="middle" x="158" y="-112" font-family="Helvetica,sans-Serif" font-size="10.00"> +value</text>
</g>
</g>
</svg>
