<?xml version="1.0" encoding="UTF-8" standalone="no"?>
<!DOCTYPE svg PUBLIC "-//W3C//DTD SVG 1.1//EN"
 "http://www.w3.org/Graphics/SVG/1.1/DTD/svg11.dtd">
<!-- Generated by graphviz version 2.43.0 (0)
 -->
<!-- Title: Catch::Matchers::StdString::StartsWithMatcher::match Pages: 1 -->
<svg width="626pt" height="78pt"
 viewBox="0.00 0.00 626.00 77.50" xmlns="http://www.w3.org/2000/svg" xmlns:xlink="http://www.w3.org/1999/xlink">
<g id="graph0" class="graph" transform="scale(1 1) rotate(0) translate(4 73.5)">
<title>Catch::Matchers::StdString::StartsWithMatcher::match</title>
<polygon fill="white" stroke="transparent" points="-4,4 -4,-73.5 622,-73.5 622,4 -4,4"/>
<!-- Node1 -->
<g id="node1" class="node">
<title>Node1</title>
<g id="a_node1"><a xlink:title=" ">
<polygon fill="#bfbfbf" stroke="black" points="0,-17 0,-47 150,-47 150,-17 0,-17"/>
<text text-anchor="start" x="8" y="-35" font-family="Helvetica,sans-Serif" font-size="10.00">Catch::Matchers::StdString</text>
<text text-anchor="middle" x="75" y="-24" font-family="Helvetica,sans-Serif" font-size="10.00">::StartsWithMatcher::match</text>
</a>
</g>
</g>
<!-- Node2 -->
<g id="node2" class="node">
<title>Node2</title>
<g id="a_node2"><a xlink:href="struct_catch_1_1_matchers_1_1_std_string_1_1_cased_string.html#a77639b1165c01f424ee0e96f53335010" target="_top" xlink:title=" ">
<polygon fill="white" stroke="black" points="186,-39 186,-69 332,-69 332,-39 186,-39"/>
<text text-anchor="start" x="194" y="-57" font-family="Helvetica,sans-Serif" font-size="10.00">Catch::Matchers::StdString</text>
<text text-anchor="middle" x="259" y="-46" font-family="Helvetica,sans-Serif" font-size="10.00">::CasedString::adjustString</text>
</a>
</g>
</g>
<!-- Node1&#45;&gt;Node2 -->
<g id="edge1" class="edge">
<title>Node1&#45;&gt;Node2</title>
<path fill="none" stroke="midnightblue" d="M150.03,-40.95C158.51,-41.97 167.21,-43.03 175.79,-44.06"/>
<polygon fill="midnightblue" stroke="midnightblue" points="175.46,-47.55 185.81,-45.27 176.3,-40.6 175.46,-47.55"/>
</g>
<!-- Node5 -->
<g id="node5" class="node">
<title>Node5</title>
<g id="a_node5"><a xlink:href="namespace_catch.html#a695f62327be0676e046291eeaae15110" target="_top" xlink:title=" ">
<polygon fill="white" stroke="black" points="208.5,-0.5 208.5,-19.5 309.5,-19.5 309.5,-0.5 208.5,-0.5"/>
<text text-anchor="middle" x="259" y="-7.5" font-family="Helvetica,sans-Serif" font-size="10.00">Catch::startsWith</text>
</a>
</g>
</g>
<!-- Node1&#45;&gt;Node5 -->
<g id="edge4" class="edge">
<title>Node1&#45;&gt;Node5</title>
<path fill="none" stroke="midnightblue" d="M150.03,-23.05C165.94,-21.13 182.57,-19.12 197.88,-17.27"/>
<polygon fill="midnightblue" stroke="midnightblue" points="198.73,-20.69 208.24,-16.02 197.89,-13.74 198.73,-20.69"/>
</g>
<!-- Node3 -->
<g id="node3" class="node">
<title>Node3</title>
<g id="a_node3"><a xlink:href="namespace_catch.html#ac036a17412d318598ffda8e1fe7a1177" target="_top" xlink:title=" ">
<polygon fill="white" stroke="black" points="368,-44.5 368,-63.5 457,-63.5 457,-44.5 368,-44.5"/>
<text text-anchor="middle" x="412.5" y="-51.5" font-family="Helvetica,sans-Serif" font-size="10.00">Catch::toLower</text>
</a>
</g>
</g>
<!-- Node2&#45;&gt;Node3 -->
<g id="edge2" class="edge">
<title>Node2&#45;&gt;Node3</title>
<path fill="none" stroke="midnightblue" d="M332.2,-54C340.77,-54 349.41,-54 357.66,-54"/>
<polygon fill="midnightblue" stroke="midnightblue" points="357.88,-57.5 367.88,-54 357.88,-50.5 357.88,-57.5"/>
</g>
<!-- Node4 -->
<g id="node4" class="node">
<title>Node4</title>
<g id="a_node4"><a xlink:href="namespace_catch.html#a0760dbe87d090a55a35414db57d272c4" target="_top" xlink:title=" ">
<polygon fill="white" stroke="black" points="493,-44.5 493,-63.5 618,-63.5 618,-44.5 493,-44.5"/>
<text text-anchor="middle" x="555.5" y="-51.5" font-family="Helvetica,sans-Serif" font-size="10.00">Catch::toLowerInPlace</text>
</a>
</g>
</g>
<!-- Node3&#45;&gt;Node4 -->
<g id="edge3" class="edge">
<title>Node3&#45;&gt;Node4</title>
<path fill="none" stroke="midnightblue" d="M457.34,-54C465.42,-54 474.04,-54 482.69,-54"/>
<polygon fill="midnightblue" stroke="midnightblue" points="482.83,-57.5 492.83,-54 482.83,-50.5 482.83,-57.5"/>
</g>
</g>
</svg>
