<?xml version="1.0" encoding="UTF-8" standalone="no"?>
<!DOCTYPE svg PUBLIC "-//W3C//DTD SVG 1.1//EN"
 "http://www.w3.org/Graphics/SVG/1.1/DTD/svg11.dtd">
<!-- Generated by graphviz version 2.43.0 (0)
 -->
<!-- Title: Catch::CumulativeReporterBase&lt; DerivedT &gt; Pages: 1 -->
<!--zoomable 595 -->
<svg id="main" version="1.1" xmlns="http://www.w3.org/2000/svg" xmlns:xlink="http://www.w3.org/1999/xlink" xml:space="preserve" onload="init(evt)">
<style type="text/css"><![CDATA[
.edge:hover path { stroke: red; }
.edge:hover polygon { stroke: red; fill: red; }
]]></style>
<script type="text/javascript"><![CDATA[
var edges = document.getElementsByTagName('g');
if (edges && edges.length) {
  for (var i=0;i<edges.length;i++) {
    if (edges[i].id.substr(0,4)=='edge') {
      edges[i].setAttribute('class','edge');
    }
  }
}
]]></script>
        <defs>
                <circle id="rim" cx="0" cy="0" r="7"/>
                <circle id="rim2" cx="0" cy="0" r="3.5"/>
                <g id="zoomPlus">
                        <use xlink:href="#rim" fill="#404040">
                                <set attributeName="fill" to="#808080" begin="zoomplus.mouseover" end="zoomplus.mouseout"/>
                        </use>
                        <path d="M-4,0h8M0,-4v8" fill="none" stroke="white" stroke-width="1.5" pointer-events="none"/>
                </g>
                <g id="zoomMin">
                        <use xlink:href="#rim" fill="#404040">
                                <set attributeName="fill" to="#808080" begin="zoomminus.mouseover" end="zoomminus.mouseout"/>
                        </use>
                        <path d="M-4,0h8" fill="none" stroke="white" stroke-width="1.5" pointer-events="none"/>
                </g>
                <g id="dirArrow">
                        <path fill="none" stroke="white" stroke-width="1.5" d="M0,-3.0v7 M-2.5,-0.5L0,-3.0L2.5,-0.5"/>
                </g>
               <g id="resetDef">
                       <use xlink:href="#rim2" fill="#404040">
                               <set attributeName="fill" to="#808080" begin="reset.mouseover" end="reset.mouseout"/>
                       </use>
               </g>
        </defs>

<script type="text/javascript">
var viewWidth = 1416;
var viewHeight = 595;
var sectionId = 'dynsection-1';
</script>
<script xlink:href="svgpan.js"/>
<svg id="graph" class="graph">
<g id="viewport">
<title>Catch::CumulativeReporterBase&lt; DerivedT &gt;</title>
<polygon fill="white" stroke="transparent" points="-4,4 -4,-591 1412,-591 1412,4 -4,4"/>
<!-- Node1 -->
<g id="node1" class="node">
<title>Node1</title>
<g id="a_node1"><a xlink:title=" ">
<polygon fill="#bfbfbf" stroke="black" points="616.5,-0.5 616.5,-233.5 782.5,-233.5 782.5,-0.5 616.5,-0.5"/>
<text text-anchor="start" x="624.5" y="-221.5" font-family="Helvetica,sans-Serif" font-size="10.00">Catch::CumulativeReporter</text>
<text text-anchor="middle" x="699.5" y="-210.5" font-family="Helvetica,sans-Serif" font-size="10.00">Base&lt; DerivedT &gt;</text>
<polyline fill="none" stroke="black" points="616.5,-203.5 782.5,-203.5 "/>
<text text-anchor="middle" x="699.5" y="-191.5" font-family="Helvetica,sans-Serif" font-size="10.00"> </text>
<polyline fill="none" stroke="black" points="616.5,-184.5 782.5,-184.5 "/>
<text text-anchor="start" x="624.5" y="-172.5" font-family="Helvetica,sans-Serif" font-size="10.00">+ CumulativeReporterBase()</text>
<text text-anchor="start" x="624.5" y="-161.5" font-family="Helvetica,sans-Serif" font-size="10.00">+ ~CumulativeReporterBase()</text>
<text text-anchor="start" x="624.5" y="-150.5" font-family="Helvetica,sans-Serif" font-size="10.00">+ getPreferences()</text>
<text text-anchor="start" x="624.5" y="-139.5" font-family="Helvetica,sans-Serif" font-size="10.00">+ testRunStarting()</text>
<text text-anchor="start" x="624.5" y="-128.5" font-family="Helvetica,sans-Serif" font-size="10.00">+ testGroupStarting()</text>
<text text-anchor="start" x="624.5" y="-117.5" font-family="Helvetica,sans-Serif" font-size="10.00">+ testCaseStarting()</text>
<text text-anchor="start" x="624.5" y="-106.5" font-family="Helvetica,sans-Serif" font-size="10.00">+ sectionStarting()</text>
<text text-anchor="start" x="624.5" y="-95.5" font-family="Helvetica,sans-Serif" font-size="10.00">+ assertionStarting()</text>
<text text-anchor="start" x="624.5" y="-84.5" font-family="Helvetica,sans-Serif" font-size="10.00">+ assertionEnded()</text>
<text text-anchor="start" x="624.5" y="-73.5" font-family="Helvetica,sans-Serif" font-size="10.00">+ sectionEnded()</text>
<text text-anchor="start" x="624.5" y="-62.5" font-family="Helvetica,sans-Serif" font-size="10.00">+ testCaseEnded()</text>
<text text-anchor="start" x="624.5" y="-51.5" font-family="Helvetica,sans-Serif" font-size="10.00">+ testGroupEnded()</text>
<text text-anchor="start" x="624.5" y="-40.5" font-family="Helvetica,sans-Serif" font-size="10.00">+ testRunEnded()</text>
<text text-anchor="start" x="624.5" y="-29.5" font-family="Helvetica,sans-Serif" font-size="10.00">+ testRunEndedCumulative()</text>
<text text-anchor="start" x="624.5" y="-18.5" font-family="Helvetica,sans-Serif" font-size="10.00">+ skipTest()</text>
<text text-anchor="start" x="624.5" y="-7.5" font-family="Helvetica,sans-Serif" font-size="10.00">+ getSupportedVerbosities()</text>
</a>
</g>
</g>
<!-- Node2 -->
<g id="node2" class="node">
<title>Node2</title>
<g id="a_node2"><a xlink:href="struct_catch_1_1_i_streaming_reporter.html" target="_top" xlink:title=" ">
<polygon fill="white" stroke="black" points="0,-303.5 0,-470.5 151,-470.5 151,-303.5 0,-303.5"/>
<text text-anchor="middle" x="75.5" y="-458.5" font-family="Helvetica,sans-Serif" font-size="10.00">Catch::IStreamingReporter</text>
<polyline fill="none" stroke="black" points="0,-451.5 151,-451.5 "/>
<text text-anchor="middle" x="75.5" y="-439.5" font-family="Helvetica,sans-Serif" font-size="10.00"> </text>
<polyline fill="none" stroke="black" points="0,-432.5 151,-432.5 "/>
<text text-anchor="start" x="8" y="-420.5" font-family="Helvetica,sans-Serif" font-size="10.00">+ ~IStreamingReporter()</text>
<text text-anchor="start" x="8" y="-409.5" font-family="Helvetica,sans-Serif" font-size="10.00">+ getPreferences()</text>
<text text-anchor="start" x="8" y="-398.5" font-family="Helvetica,sans-Serif" font-size="10.00">+ noMatchingTestCases()</text>
<text text-anchor="start" x="8" y="-387.5" font-family="Helvetica,sans-Serif" font-size="10.00">+ reportInvalidArguments()</text>
<text text-anchor="start" x="8" y="-376.5" font-family="Helvetica,sans-Serif" font-size="10.00">+ testRunStarting()</text>
<text text-anchor="start" x="8" y="-365.5" font-family="Helvetica,sans-Serif" font-size="10.00">+ testGroupStarting()</text>
<text text-anchor="start" x="8" y="-354.5" font-family="Helvetica,sans-Serif" font-size="10.00">+ testCaseStarting()</text>
<text text-anchor="start" x="8" y="-343.5" font-family="Helvetica,sans-Serif" font-size="10.00">+ sectionStarting()</text>
<text text-anchor="start" x="8" y="-332.5" font-family="Helvetica,sans-Serif" font-size="10.00">+ assertionStarting()</text>
<text text-anchor="start" x="8" y="-321.5" font-family="Helvetica,sans-Serif" font-size="10.00">+ assertionEnded()</text>
<text text-anchor="start" x="8" y="-310.5" font-family="Helvetica,sans-Serif" font-size="10.00">and 7 more...</text>
</a>
</g>
</g>
<!-- Node2&#45;&gt;Node1 -->
<g id="edge1" class="edge">
<title>Node2&#45;&gt;Node1</title>
<path fill="none" stroke="midnightblue" d="M159.93,-303.14C314.47,-209.57 507.75,-158.14 616.28,-134.3"/>
<polygon fill="none" stroke="midnightblue" points="157.9,-300.27 151.2,-308.49 161.56,-306.24 157.9,-300.27"/>
</g>
<!-- Node3 -->
<g id="node3" class="node">
<title>Node3</title>
<g id="a_node3"><a xlink:title=" ">
<polygon fill="white" stroke="#bfbfbf" points="169,-347.5 169,-426.5 348,-426.5 348,-347.5 169,-347.5"/>
<text text-anchor="start" x="177" y="-414.5" font-family="Helvetica,sans-Serif" font-size="10.00">vector&lt; std::shared</text>
<text text-anchor="start" x="177" y="-403.5" font-family="Helvetica,sans-Serif" font-size="10.00">_ptr&lt; Catch::CumulativeReporter</text>
<text text-anchor="middle" x="258.5" y="-392.5" font-family="Helvetica,sans-Serif" font-size="10.00">Base::Node &gt; &gt;</text>
<polyline fill="none" stroke="#bfbfbf" points="169,-385.5 348,-385.5 "/>
<text text-anchor="middle" x="258.5" y="-373.5" font-family="Helvetica,sans-Serif" font-size="10.00"> </text>
<polyline fill="none" stroke="#bfbfbf" points="169,-366.5 348,-366.5 "/>
<text text-anchor="middle" x="258.5" y="-354.5" font-family="Helvetica,sans-Serif" font-size="10.00"> </text>
</a>
</g>
</g>
<!-- Node3&#45;&gt;Node1 -->
<g id="edge2" class="edge">
<title>Node3&#45;&gt;Node1</title>
<path fill="none" stroke="#404040" d="M286.17,-347.42C308.81,-318.09 343.11,-278.41 380.5,-252 449.12,-203.53 537.97,-168.03 604.47,-145.79"/>
<polygon fill="none" stroke="#404040" points="604.79,-145.68 609.24,-140.01 616.19,-141.93 611.74,-147.6 604.79,-145.68"/>
<text text-anchor="middle" x="419" y="-277" font-family="Helvetica,sans-Serif" font-size="10.00"> +m_testCases</text>
<text text-anchor="middle" x="419" y="-266" font-family="Helvetica,sans-Serif" font-size="10.00">+m_testRuns</text>
<text text-anchor="middle" x="419" y="-255" font-family="Helvetica,sans-Serif" font-size="10.00">+m_testGroups</text>
</g>
<!-- Node4 -->
<g id="node4" class="node">
<title>Node4</title>
<g id="a_node4"><a xlink:title=" ">
<polygon fill="white" stroke="#bfbfbf" points="366.5,-358.5 366.5,-415.5 434.5,-415.5 434.5,-358.5 366.5,-358.5"/>
<text text-anchor="middle" x="400.5" y="-403.5" font-family="Helvetica,sans-Serif" font-size="10.00">ostream &amp;</text>
<polyline fill="none" stroke="#bfbfbf" points="366.5,-396.5 434.5,-396.5 "/>
<text text-anchor="middle" x="400.5" y="-384.5" font-family="Helvetica,sans-Serif" font-size="10.00"> </text>
<polyline fill="none" stroke="#bfbfbf" points="366.5,-377.5 434.5,-377.5 "/>
<text text-anchor="middle" x="400.5" y="-365.5" font-family="Helvetica,sans-Serif" font-size="10.00"> </text>
</a>
</g>
</g>
<!-- Node4&#45;&gt;Node1 -->
<g id="edge3" class="edge">
<title>Node4&#45;&gt;Node1</title>
<path fill="none" stroke="#404040" d="M410.98,-358.25C418.35,-341.11 429.41,-319.35 443.5,-303 489.4,-249.76 553.54,-203.44 606.12,-170.47"/>
<polygon fill="none" stroke="#404040" points="606.28,-170.38 609.27,-163.82 616.48,-164.06 613.48,-170.62 606.28,-170.38"/>
<text text-anchor="middle" x="515.5" y="-266" font-family="Helvetica,sans-Serif" font-size="10.00"> +stream</text>
</g>
<!-- Node5 -->
<g id="node5" class="node">
<title>Node5</title>
<g id="a_node5"><a xlink:title=" ">
<polygon fill="white" stroke="#bfbfbf" points="453,-347.5 453,-426.5 592,-426.5 592,-347.5 453,-347.5"/>
<text text-anchor="start" x="461" y="-414.5" font-family="Helvetica,sans-Serif" font-size="10.00">shared_ptr&lt; Catch::</text>
<text text-anchor="start" x="461" y="-403.5" font-family="Helvetica,sans-Serif" font-size="10.00">CumulativeReporterBase</text>
<text text-anchor="middle" x="522.5" y="-392.5" font-family="Helvetica,sans-Serif" font-size="10.00">::SectionNode &gt;</text>
<polyline fill="none" stroke="#bfbfbf" points="453,-385.5 592,-385.5 "/>
<text text-anchor="middle" x="522.5" y="-373.5" font-family="Helvetica,sans-Serif" font-size="10.00"> </text>
<polyline fill="none" stroke="#bfbfbf" points="453,-366.5 592,-366.5 "/>
<text text-anchor="middle" x="522.5" y="-354.5" font-family="Helvetica,sans-Serif" font-size="10.00"> </text>
</a>
</g>
</g>
<!-- Node5&#45;&gt;Node1 -->
<g id="edge4" class="edge">
<title>Node5&#45;&gt;Node1</title>
<path fill="none" stroke="#404040" d="M540.61,-347.41C554.01,-320.05 573.35,-282.87 593.5,-252 598.52,-244.32 603.87,-236.53 609.4,-228.78"/>
<polygon fill="none" stroke="#404040" points="609.45,-228.71 609.73,-221.51 616.49,-219 616.21,-226.2 609.45,-228.71"/>
<text text-anchor="middle" x="644.5" y="-271.5" font-family="Helvetica,sans-Serif" font-size="10.00"> +m_deepestSection</text>
<text text-anchor="middle" x="644.5" y="-260.5" font-family="Helvetica,sans-Serif" font-size="10.00">+m_rootSection</text>
</g>
<!-- Node6 -->
<g id="node6" class="node">
<title>Node6</title>
<g id="a_node6"><a xlink:title=" ">
<polygon fill="white" stroke="#bfbfbf" points="610,-347.5 610,-426.5 789,-426.5 789,-347.5 610,-347.5"/>
<text text-anchor="start" x="618" y="-414.5" font-family="Helvetica,sans-Serif" font-size="10.00">vector&lt; std::shared</text>
<text text-anchor="start" x="618" y="-403.5" font-family="Helvetica,sans-Serif" font-size="10.00">_ptr&lt; Catch::CumulativeReporter</text>
<text text-anchor="middle" x="699.5" y="-392.5" font-family="Helvetica,sans-Serif" font-size="10.00">Base::SectionNode &gt; &gt;</text>
<polyline fill="none" stroke="#bfbfbf" points="610,-385.5 789,-385.5 "/>
<text text-anchor="middle" x="699.5" y="-373.5" font-family="Helvetica,sans-Serif" font-size="10.00"> </text>
<polyline fill="none" stroke="#bfbfbf" points="610,-366.5 789,-366.5 "/>
<text text-anchor="middle" x="699.5" y="-354.5" font-family="Helvetica,sans-Serif" font-size="10.00"> </text>
</a>
</g>
</g>
<!-- Node6&#45;&gt;Node1 -->
<g id="edge5" class="edge">
<title>Node6&#45;&gt;Node1</title>
<path fill="none" stroke="#404040" d="M699.5,-347.32C699.5,-320.42 699.5,-282.91 699.5,-246"/>
<polygon fill="none" stroke="#404040" points="699.5,-245.53 695.5,-239.53 699.5,-233.53 703.5,-239.53 699.5,-245.53"/>
<text text-anchor="middle" x="744" y="-266" font-family="Helvetica,sans-Serif" font-size="10.00"> +m_sectionStack</text>
</g>
<!-- Node7 -->
<g id="node7" class="node">
<title>Node7</title>
<g id="a_node7"><a xlink:title=" ">
<polygon fill="white" stroke="#bfbfbf" points="807,-342 807,-432 952,-432 952,-342 807,-342"/>
<text text-anchor="start" x="815" y="-420" font-family="Helvetica,sans-Serif" font-size="10.00">vector&lt; std::vector</text>
<text text-anchor="start" x="815" y="-409" font-family="Helvetica,sans-Serif" font-size="10.00">&lt; std::shared_ptr&lt; Catch</text>
<text text-anchor="start" x="815" y="-398" font-family="Helvetica,sans-Serif" font-size="10.00">::CumulativeReporterBase</text>
<text text-anchor="middle" x="879.5" y="-387" font-family="Helvetica,sans-Serif" font-size="10.00">::SectionNode &gt; &gt; &gt;</text>
<polyline fill="none" stroke="#bfbfbf" points="807,-380 952,-380 "/>
<text text-anchor="middle" x="879.5" y="-368" font-family="Helvetica,sans-Serif" font-size="10.00"> </text>
<polyline fill="none" stroke="#bfbfbf" points="807,-361 952,-361 "/>
<text text-anchor="middle" x="879.5" y="-349" font-family="Helvetica,sans-Serif" font-size="10.00"> </text>
</a>
</g>
</g>
<!-- Node7&#45;&gt;Node1 -->
<g id="edge6" class="edge">
<title>Node7&#45;&gt;Node1</title>
<path fill="none" stroke="#404040" d="M851.24,-341.72C834.38,-315.5 812.45,-281.71 792.5,-252 790.68,-249.28 788.83,-246.54 786.96,-243.78"/>
<polygon fill="none" stroke="#404040" points="786.86,-243.63 780.18,-240.91 780.13,-233.7 786.8,-236.42 786.86,-243.63"/>
<text text-anchor="middle" x="848" y="-266" font-family="Helvetica,sans-Serif" font-size="10.00"> +m_sections</text>
</g>
<!-- Node8 -->
<g id="node8" class="node">
<title>Node8</title>
<g id="a_node8"><a xlink:href="struct_catch_1_1_reporter_preferences.html" target="_top" xlink:title=" ">
<polygon fill="white" stroke="black" points="970.5,-358.5 970.5,-415.5 1120.5,-415.5 1120.5,-358.5 970.5,-358.5"/>
<text text-anchor="middle" x="1045.5" y="-403.5" font-family="Helvetica,sans-Serif" font-size="10.00">Catch::ReporterPreferences</text>
<polyline fill="none" stroke="black" points="970.5,-396.5 1120.5,-396.5 "/>
<text text-anchor="middle" x="1045.5" y="-384.5" font-family="Helvetica,sans-Serif" font-size="10.00"> </text>
<polyline fill="none" stroke="black" points="970.5,-377.5 1120.5,-377.5 "/>
<text text-anchor="middle" x="1045.5" y="-365.5" font-family="Helvetica,sans-Serif" font-size="10.00"> </text>
</a>
</g>
</g>
<!-- Node8&#45;&gt;Node1 -->
<g id="edge7" class="edge">
<title>Node8&#45;&gt;Node1</title>
<path fill="none" stroke="#404040" d="M1019.34,-358.34C1003.02,-341.63 981.25,-320.3 960.5,-303 907.21,-258.57 843.78,-213.44 792.8,-178.89"/>
<polygon fill="none" stroke="#404040" points="792.72,-178.83 785.51,-178.79 782.77,-172.12 789.98,-172.16 792.72,-178.83"/>
<text text-anchor="middle" x="980" y="-266" font-family="Helvetica,sans-Serif" font-size="10.00"> +m_reporterPrefs</text>
</g>
<!-- Node9 -->
<g id="node9" class="node">
<title>Node9</title>
<g id="a_node9"><a xlink:href="classbool.html" target="_top" xlink:title=" ">
<polygon fill="white" stroke="black" points="1026.5,-529.5 1026.5,-586.5 1064.5,-586.5 1064.5,-529.5 1026.5,-529.5"/>
<text text-anchor="middle" x="1045.5" y="-574.5" font-family="Helvetica,sans-Serif" font-size="10.00">bool</text>
<polyline fill="none" stroke="black" points="1026.5,-567.5 1064.5,-567.5 "/>
<text text-anchor="middle" x="1045.5" y="-555.5" font-family="Helvetica,sans-Serif" font-size="10.00"> </text>
<polyline fill="none" stroke="black" points="1026.5,-548.5 1064.5,-548.5 "/>
<text text-anchor="middle" x="1045.5" y="-536.5" font-family="Helvetica,sans-Serif" font-size="10.00"> </text>
</a>
</g>
</g>
<!-- Node9&#45;&gt;Node8 -->
<g id="edge8" class="edge">
<title>Node9&#45;&gt;Node8</title>
<path fill="none" stroke="#404040" d="M1045.5,-529.47C1045.5,-501.85 1045.5,-459.03 1045.5,-427.73"/>
<polygon fill="none" stroke="#404040" points="1045.5,-427.52 1041.5,-421.52 1045.5,-415.52 1049.5,-421.52 1045.5,-427.52"/>
<text text-anchor="middle" x="1115.5" y="-503" font-family="Helvetica,sans-Serif" font-size="10.00"> +shouldReportAllAssertions</text>
<text text-anchor="middle" x="1115.5" y="-492" font-family="Helvetica,sans-Serif" font-size="10.00">+shouldRedirectStdOut</text>
</g>
<!-- Node10 -->
<g id="node10" class="node">
<title>Node10</title>
<g id="a_node10"><a xlink:title=" ">
<polygon fill="white" stroke="#bfbfbf" points="1138.5,-353 1138.5,-421 1276.5,-421 1276.5,-353 1138.5,-353"/>
<text text-anchor="start" x="1146.5" y="-409" font-family="Helvetica,sans-Serif" font-size="10.00">vector&lt; Catch::Assertion</text>
<text text-anchor="middle" x="1207.5" y="-398" font-family="Helvetica,sans-Serif" font-size="10.00">Stats &gt;</text>
<polyline fill="none" stroke="#bfbfbf" points="1138.5,-391 1276.5,-391 "/>
<text text-anchor="middle" x="1207.5" y="-379" font-family="Helvetica,sans-Serif" font-size="10.00"> </text>
<polyline fill="none" stroke="#bfbfbf" points="1138.5,-372 1276.5,-372 "/>
<text text-anchor="middle" x="1207.5" y="-360" font-family="Helvetica,sans-Serif" font-size="10.00"> </text>
</a>
</g>
</g>
<!-- Node10&#45;&gt;Node1 -->
<g id="edge9" class="edge">
<title>Node10&#45;&gt;Node1</title>
<path fill="none" stroke="#404040" d="M1180.91,-352.68C1166.8,-336.38 1148.48,-317.25 1129.5,-303 1026.51,-225.67 886.25,-173.19 794.33,-144.42"/>
<polygon fill="none" stroke="#404040" points="794.27,-144.41 787.36,-146.46 782.81,-140.86 789.72,-138.81 794.27,-144.41"/>
<text text-anchor="middle" x="1138" y="-266" font-family="Helvetica,sans-Serif" font-size="10.00"> +m_assertions</text>
</g>
<!-- Node11 -->
<g id="node11" class="node">
<title>Node11</title>
<g id="a_node11"><a xlink:title=" ">
<polygon fill="white" stroke="#bfbfbf" points="1295,-353 1295,-421 1408,-421 1408,-353 1295,-353"/>
<text text-anchor="start" x="1303" y="-409" font-family="Helvetica,sans-Serif" font-size="10.00">shared_ptr&lt; IConfig</text>
<text text-anchor="middle" x="1351.5" y="-398" font-family="Helvetica,sans-Serif" font-size="10.00"> const &gt;</text>
<polyline fill="none" stroke="#bfbfbf" points="1295,-391 1408,-391 "/>
<text text-anchor="middle" x="1351.5" y="-379" font-family="Helvetica,sans-Serif" font-size="10.00"> </text>
<polyline fill="none" stroke="#bfbfbf" points="1295,-372 1408,-372 "/>
<text text-anchor="middle" x="1351.5" y="-360" font-family="Helvetica,sans-Serif" font-size="10.00"> </text>
</a>
</g>
</g>
<!-- Node11&#45;&gt;Node1 -->
<g id="edge10" class="edge">
<title>Node11&#45;&gt;Node1</title>
<path fill="none" stroke="#404040" d="M1330.3,-352.72C1318.58,-336.23 1302.88,-316.93 1285.5,-303 1245.02,-270.56 1229.02,-270.37 1180.5,-252 1049.75,-202.5 892.85,-162.19 794.63,-139.13"/>
<polygon fill="none" stroke="#404040" points="794.34,-139.06 787.59,-141.6 782.65,-136.34 789.41,-133.8 794.34,-139.06"/>
<text text-anchor="middle" x="1287.5" y="-266" font-family="Helvetica,sans-Serif" font-size="10.00"> +m_config</text>
</g>
</g>
</svg>
        <g id="navigator" transform="translate(0 0)" fill="#404254">
                <rect fill="#f2f5e9" fill-opacity="0.5" stroke="#606060" stroke-width=".5" x="0" y="0" width="60" height="60"/>
                <use id="zoomplus" xlink:href="#zoomPlus" x="17" y="9" onmousedown="handleZoom(evt,'in')"/>
                <use id="zoomminus" xlink:href="#zoomMin" x="42" y="9" onmousedown="handleZoom(evt,'out')"/>
                <use id="reset" xlink:href="#resetDef" x="30" y="36" onmousedown="handleReset()"/>
                <g id="arrowUp" xlink:href="#dirArrow" transform="translate(30 24)" onmousedown="handlePan(0,-1)">
                  <use xlink:href="#rim" fill="#404040">
                        <set attributeName="fill" to="#808080" begin="arrowUp.mouseover" end="arrowUp.mouseout"/>
                  </use>
                  <path fill="none" stroke="white" stroke-width="1.5" d="M0,-3.0v7 M-2.5,-0.5L0,-3.0L2.5,-0.5"/>
                </g>
                <g id="arrowRight" xlink:href="#dirArrow" transform="rotate(90) translate(36 -43)" onmousedown="handlePan(1,0)">
                  <use xlink:href="#rim" fill="#404040">
                        <set attributeName="fill" to="#808080" begin="arrowRight.mouseover" end="arrowRight.mouseout"/>
                  </use>
                  <path fill="none" stroke="white" stroke-width="1.5" d="M0,-3.0v7 M-2.5,-0.5L0,-3.0L2.5,-0.5"/>
                </g>
                <g id="arrowDown" xlink:href="#dirArrow" transform="rotate(180) translate(-30 -48)" onmousedown="handlePan(0,1)">
                  <use xlink:href="#rim" fill="#404040">
                        <set attributeName="fill" to="#808080" begin="arrowDown.mouseover" end="arrowDown.mouseout"/>
                  </use>
                  <path fill="none" stroke="white" stroke-width="1.5" d="M0,-3.0v7 M-2.5,-0.5L0,-3.0L2.5,-0.5"/>
                </g>
                <g id="arrowLeft" xlink:href="#dirArrow" transform="rotate(270) translate(-36 17)" onmousedown="handlePan(-1,0)">
                  <use xlink:href="#rim" fill="#404040">
                        <set attributeName="fill" to="#808080" begin="arrowLeft.mouseover" end="arrowLeft.mouseout"/>
                  </use>
                  <path fill="none" stroke="white" stroke-width="1.5" d="M0,-3.0v7 M-2.5,-0.5L0,-3.0L2.5,-0.5"/>
                </g>
        </g>
        <svg viewBox="0 0 15 15" width="100%" height="30px" preserveAspectRatio="xMaxYMin meet">
         <g id="arrow_out" transform="scale(0.3 0.3)">
          <a xlink:href="struct_catch_1_1_cumulative_reporter_base__coll__graph_org.svg" target="_base">
           <rect id="button" ry="5" rx="5" y="6" x="6" height="38" width="38"
                fill="#f2f5e9" fill-opacity="0.5" stroke="#606060" stroke-width="1.0"/>
           <path id="arrow"
             d="M 11.500037,31.436501 C 11.940474,20.09759 22.043105,11.32322 32.158766,21.979434 L 37.068811,17.246167 C 37.068811,17.246167 37.088388,32 37.088388,32 L 22.160133,31.978069 C 22.160133,31.978069 26.997745,27.140456 26.997745,27.140456 C 18.528582,18.264221 13.291696,25.230495 11.500037,31.436501 z"
             style="fill:#404040;"/>
          </a>
         </g>
        </svg>
</svg>
