<?xml version="1.0" encoding="UTF-8" standalone="no"?>
<!DOCTYPE svg PUBLIC "-//W3C//DTD SVG 1.1//EN"
 "http://www.w3.org/Graphics/SVG/1.1/DTD/svg11.dtd">
<!-- Generated by graphviz version 2.43.0 (0)
 -->
<!-- Title: Catch::LeakDetector::~LeakDetector Pages: 1 -->
<svg width="426pt" height="66pt"
 viewBox="0.00 0.00 426.00 66.00" xmlns="http://www.w3.org/2000/svg" xmlns:xlink="http://www.w3.org/1999/xlink">
<g id="graph0" class="graph" transform="scale(1 1) rotate(0) translate(4 62)">
<title>Catch::LeakDetector::~LeakDetector</title>
<polygon fill="white" stroke="transparent" points="-4,4 -4,-62 422,-62 422,4 -4,4"/>
<!-- Node1 -->
<g id="node1" class="node">
<title>Node1</title>
<g id="a_node1"><a xlink:title=" ">
<polygon fill="#bfbfbf" stroke="black" points="0,-14 0,-44 116,-44 116,-14 0,-14"/>
<text text-anchor="start" x="8" y="-32" font-family="Helvetica,sans-Serif" font-size="10.00">Catch::LeakDetector</text>
<text text-anchor="middle" x="58" y="-21" font-family="Helvetica,sans-Serif" font-size="10.00">::~LeakDetector</text>
</a>
</g>
</g>
<!-- Node2 -->
<g id="node2" class="node">
<title>Node2</title>
<g id="a_node2"><a xlink:href="namespace_catch.html#a0f78e9afdebc6d4512d18e76fbf54b8c" target="_top" xlink:title=" ">
<polygon fill="white" stroke="black" points="152,-19.5 152,-38.5 242,-38.5 242,-19.5 152,-19.5"/>
<text text-anchor="middle" x="197" y="-26.5" font-family="Helvetica,sans-Serif" font-size="10.00">Catch::cleanUp</text>
</a>
</g>
</g>
<!-- Node1&#45;&gt;Node2 -->
<g id="edge1" class="edge">
<title>Node1&#45;&gt;Node2</title>
<path fill="none" stroke="midnightblue" d="M116.31,-29C124.75,-29 133.43,-29 141.81,-29"/>
<polygon fill="midnightblue" stroke="midnightblue" points="141.85,-32.5 151.85,-29 141.85,-25.5 141.85,-32.5"/>
</g>
<!-- Node3 -->
<g id="node3" class="node">
<title>Node3</title>
<g id="a_node3"><a xlink:href="namespace_catch.html#ae50508f10ffc4ed873a31a4db4caea16" target="_top" xlink:title=" ">
<polygon fill="white" stroke="black" points="284,-38.5 284,-57.5 412,-57.5 412,-38.5 284,-38.5"/>
<text text-anchor="middle" x="348" y="-45.5" font-family="Helvetica,sans-Serif" font-size="10.00">Catch::cleanUpContext</text>
</a>
</g>
</g>
<!-- Node2&#45;&gt;Node3 -->
<g id="edge2" class="edge">
<title>Node2&#45;&gt;Node3</title>
<path fill="none" stroke="midnightblue" d="M242.3,-34.65C252.18,-35.91 262.92,-37.28 273.62,-38.64"/>
<polygon fill="midnightblue" stroke="midnightblue" points="273.48,-42.15 283.84,-39.95 274.37,-35.21 273.48,-42.15"/>
</g>
<!-- Node4 -->
<g id="node4" class="node">
<title>Node4</title>
<g id="a_node4"><a xlink:href="namespace_catch.html#a8bdb92cb53a4e016bc0dee66efd99118" target="_top" xlink:title=" ">
<polygon fill="white" stroke="black" points="278,-0.5 278,-19.5 418,-19.5 418,-0.5 278,-0.5"/>
<text text-anchor="middle" x="348" y="-7.5" font-family="Helvetica,sans-Serif" font-size="10.00">Catch::cleanupSingletons</text>
</a>
</g>
</g>
<!-- Node2&#45;&gt;Node4 -->
<g id="edge3" class="edge">
<title>Node2&#45;&gt;Node4</title>
<path fill="none" stroke="midnightblue" d="M242.3,-23.35C250.32,-22.33 258.89,-21.24 267.56,-20.13"/>
<polygon fill="midnightblue" stroke="midnightblue" points="268.27,-23.57 277.75,-18.83 267.38,-16.62 268.27,-23.57"/>
</g>
</g>
</svg>
