<?xml version="1.0" encoding="UTF-8" standalone="no"?>
<!DOCTYPE svg PUBLIC "-//W3C//DTD SVG 1.1//EN"
 "http://www.w3.org/Graphics/SVG/1.1/DTD/svg11.dtd">
<!-- Generated by graphviz version 2.43.0 (0)
 -->
<!-- Title: Catch::SonarQubeReporter::writeGroup Pages: 1 -->
<svg width="1289pt" height="166pt"
 viewBox="0.00 0.00 1289.00 165.50" xmlns="http://www.w3.org/2000/svg" xmlns:xlink="http://www.w3.org/1999/xlink">
<g id="graph0" class="graph" transform="scale(1 1) rotate(0) translate(4 161.5)">
<title>Catch::SonarQubeReporter::writeGroup</title>
<polygon fill="white" stroke="transparent" points="-4,4 -4,-161.5 1285,-161.5 1285,4 -4,4"/>
<!-- Node1 -->
<g id="node1" class="node">
<title>Node1</title>
<g id="a_node1"><a xlink:title=" ">
<polygon fill="#bfbfbf" stroke="black" points="0,-50 0,-80 146,-80 146,-50 0,-50"/>
<text text-anchor="start" x="8" y="-68" font-family="Helvetica,sans-Serif" font-size="10.00">Catch::SonarQubeReporter</text>
<text text-anchor="middle" x="73" y="-57" font-family="Helvetica,sans-Serif" font-size="10.00">::writeGroup</text>
</a>
</g>
</g>
<!-- Node2 -->
<g id="node2" class="node">
<title>Node2</title>
<g id="a_node2"><a xlink:href="struct_catch_1_1_sonar_qube_reporter.html#a2fd55ff70771a8f84c58d76d4d0edab6" target="_top" xlink:title=" ">
<polygon fill="white" stroke="black" points="182,-50 182,-80 328,-80 328,-50 182,-50"/>
<text text-anchor="start" x="190" y="-68" font-family="Helvetica,sans-Serif" font-size="10.00">Catch::SonarQubeReporter</text>
<text text-anchor="middle" x="255" y="-57" font-family="Helvetica,sans-Serif" font-size="10.00">::writeTestFile</text>
</a>
</g>
</g>
<!-- Node1&#45;&gt;Node2 -->
<g id="edge1" class="edge">
<title>Node1&#45;&gt;Node2</title>
<path fill="none" stroke="midnightblue" d="M146.18,-65C154.52,-65 163.08,-65 171.54,-65"/>
<polygon fill="midnightblue" stroke="midnightblue" points="171.81,-68.5 181.81,-65 171.81,-61.5 171.81,-68.5"/>
</g>
<!-- Node3 -->
<g id="node3" class="node">
<title>Node3</title>
<g id="a_node3"><a xlink:href="class_catch_1_1_xml_writer.html#ad2fbf17f0dc39443b2db8ab614f4c625" target="_top" xlink:title=" ">
<polygon fill="white" stroke="black" points="744.5,-127 744.5,-157 884.5,-157 884.5,-127 744.5,-127"/>
<text text-anchor="start" x="752.5" y="-145" font-family="Helvetica,sans-Serif" font-size="10.00">Catch::XmlWriter::scoped</text>
<text text-anchor="middle" x="814.5" y="-134" font-family="Helvetica,sans-Serif" font-size="10.00">Element</text>
</a>
</g>
</g>
<!-- Node2&#45;&gt;Node3 -->
<g id="edge2" class="edge">
<title>Node2&#45;&gt;Node3</title>
<path fill="none" stroke="midnightblue" d="M315.46,-80.02C331.17,-83.65 348.17,-87.26 364,-90 492.76,-112.28 643.97,-127.56 734.09,-135.53"/>
<polygon fill="midnightblue" stroke="midnightblue" points="733.97,-139.03 744.23,-136.42 734.58,-132.06 733.97,-139.03"/>
</g>
<!-- Node6 -->
<g id="node6" class="node">
<title>Node6</title>
<g id="a_node6"><a xlink:href="class_catch_1_1_xml_writer.html#ad433310b59d30e0fedc7130dc11c563b" target="_top" xlink:title=" ">
<polygon fill="white" stroke="black" points="728,-0.5 728,-19.5 901,-19.5 901,-0.5 728,-0.5"/>
<text text-anchor="middle" x="814.5" y="-7.5" font-family="Helvetica,sans-Serif" font-size="10.00">Catch::XmlWriter::writeAttribute</text>
</a>
</g>
</g>
<!-- Node2&#45;&gt;Node6 -->
<g id="edge5" class="edge">
<title>Node2&#45;&gt;Node6</title>
<path fill="none" stroke="midnightblue" d="M313.12,-49.97C329.45,-46.17 347.34,-42.47 364,-40 485.18,-22.05 626.34,-14.83 717.67,-11.94"/>
<polygon fill="midnightblue" stroke="midnightblue" points="717.84,-15.43 727.73,-11.63 717.63,-8.44 717.84,-15.43"/>
</g>
<!-- Node7 -->
<g id="node7" class="node">
<title>Node7</title>
<g id="a_node7"><a xlink:href="struct_catch_1_1_sonar_qube_reporter.html#a28756eaa7e0bb22a8fdb6a66bf655f7a" target="_top" xlink:title=" ">
<polygon fill="white" stroke="black" points="364,-50 364,-80 510,-80 510,-50 364,-50"/>
<text text-anchor="start" x="372" y="-68" font-family="Helvetica,sans-Serif" font-size="10.00">Catch::SonarQubeReporter</text>
<text text-anchor="middle" x="437" y="-57" font-family="Helvetica,sans-Serif" font-size="10.00">::writeTestCase</text>
</a>
</g>
</g>
<!-- Node2&#45;&gt;Node7 -->
<g id="edge6" class="edge">
<title>Node2&#45;&gt;Node7</title>
<path fill="none" stroke="midnightblue" d="M328.18,-65C336.52,-65 345.08,-65 353.54,-65"/>
<polygon fill="midnightblue" stroke="midnightblue" points="353.81,-68.5 363.81,-65 353.81,-61.5 353.81,-68.5"/>
</g>
<!-- Node4 -->
<g id="node4" class="node">
<title>Node4</title>
<g id="a_node4"><a xlink:href="class_catch_1_1_xml_writer.html#a5e5190bcb1f47a76ddca863591a6cc00" target="_top" xlink:title=" ">
<polygon fill="white" stroke="black" points="937,-132.5 937,-151.5 1106,-151.5 1106,-132.5 937,-132.5"/>
<text text-anchor="middle" x="1021.5" y="-139.5" font-family="Helvetica,sans-Serif" font-size="10.00">Catch::XmlWriter::startElement</text>
</a>
</g>
</g>
<!-- Node3&#45;&gt;Node4 -->
<g id="edge3" class="edge">
<title>Node3&#45;&gt;Node4</title>
<path fill="none" stroke="midnightblue" d="M884.62,-142C898.09,-142 912.42,-142 926.53,-142"/>
<polygon fill="midnightblue" stroke="midnightblue" points="926.76,-145.5 936.76,-142 926.76,-138.5 926.76,-145.5"/>
</g>
<!-- Node5 -->
<g id="node5" class="node">
<title>Node5</title>
<g id="a_node5"><a xlink:href="class_catch_1_1_xml_writer.html#aba98703d9852416e237de82aed4a9c4f" target="_top" xlink:title=" ">
<polygon fill="white" stroke="black" points="1142,-127 1142,-157 1281,-157 1281,-127 1142,-127"/>
<text text-anchor="start" x="1150" y="-145" font-family="Helvetica,sans-Serif" font-size="10.00">Catch::XmlWriter::ensure</text>
<text text-anchor="middle" x="1211.5" y="-134" font-family="Helvetica,sans-Serif" font-size="10.00">TagClosed</text>
</a>
</g>
</g>
<!-- Node4&#45;&gt;Node5 -->
<g id="edge4" class="edge">
<title>Node4&#45;&gt;Node5</title>
<path fill="none" stroke="midnightblue" d="M1106.05,-142C1114.56,-142 1123.18,-142 1131.63,-142"/>
<polygon fill="midnightblue" stroke="midnightblue" points="1131.84,-145.5 1141.84,-142 1131.84,-138.5 1131.84,-145.5"/>
</g>
<!-- Node8 -->
<g id="node8" class="node">
<title>Node8</title>
<g id="a_node8"><a xlink:href="struct_catch_1_1_sonar_qube_reporter.html#a6c3bf02bc36f29c9f58ac8261d903f53" target="_top" xlink:title=" ">
<polygon fill="white" stroke="black" points="546,-50 546,-80 692,-80 692,-50 546,-50"/>
<text text-anchor="start" x="554" y="-68" font-family="Helvetica,sans-Serif" font-size="10.00">Catch::SonarQubeReporter</text>
<text text-anchor="middle" x="619" y="-57" font-family="Helvetica,sans-Serif" font-size="10.00">::writeSection</text>
</a>
</g>
</g>
<!-- Node7&#45;&gt;Node8 -->
<g id="edge7" class="edge">
<title>Node7&#45;&gt;Node8</title>
<path fill="none" stroke="midnightblue" d="M510.18,-65C518.52,-65 527.08,-65 535.54,-65"/>
<polygon fill="midnightblue" stroke="midnightblue" points="535.81,-68.5 545.81,-65 535.81,-61.5 535.81,-68.5"/>
</g>
<!-- Node8&#45;&gt;Node3 -->
<g id="edge8" class="edge">
<title>Node8&#45;&gt;Node3</title>
<path fill="none" stroke="midnightblue" d="M648.31,-80.22C669.78,-91.36 700.22,-106.33 728,-117 734.21,-119.38 740.74,-121.67 747.32,-123.83"/>
<polygon fill="midnightblue" stroke="midnightblue" points="746.36,-127.2 756.95,-126.89 748.48,-120.53 746.36,-127.2"/>
</g>
<!-- Node8&#45;&gt;Node6 -->
<g id="edge12" class="edge">
<title>Node8&#45;&gt;Node6</title>
<path fill="none" stroke="midnightblue" d="M661.75,-49.97C681.66,-43.09 705.91,-35.12 728,-29 737.14,-26.47 746.89,-24.04 756.43,-21.82"/>
<polygon fill="midnightblue" stroke="midnightblue" points="757.27,-25.22 766.25,-19.59 755.72,-18.4 757.27,-25.22"/>
</g>
<!-- Node9 -->
<g id="node9" class="node">
<title>Node9</title>
<g id="a_node9"><a xlink:href="namespace_catch.html#aea28035c2fa625ced568c1765e82a3bc" target="_top" xlink:title="Returns a new string without whitespace at the start/end.">
<polygon fill="white" stroke="black" points="779,-88.5 779,-107.5 850,-107.5 850,-88.5 779,-88.5"/>
<text text-anchor="middle" x="814.5" y="-95.5" font-family="Helvetica,sans-Serif" font-size="10.00">Catch::trim</text>
</a>
</g>
</g>
<!-- Node8&#45;&gt;Node9 -->
<g id="edge9" class="edge">
<title>Node8&#45;&gt;Node9</title>
<path fill="none" stroke="midnightblue" d="M692.05,-77.29C717.77,-81.67 745.98,-86.49 768.74,-90.37"/>
<polygon fill="midnightblue" stroke="midnightblue" points="768.33,-93.85 778.78,-92.08 769.51,-86.95 768.33,-93.85"/>
</g>
<!-- Node10 -->
<g id="node10" class="node">
<title>Node10</title>
<g id="a_node10"><a xlink:href="struct_catch_1_1_sonar_qube_reporter.html#ad7d49dcd6e1e753355b1a824b4805d98" target="_top" xlink:title=" ">
<polygon fill="white" stroke="black" points="741.5,-39 741.5,-69 887.5,-69 887.5,-39 741.5,-39"/>
<text text-anchor="start" x="749.5" y="-57" font-family="Helvetica,sans-Serif" font-size="10.00">Catch::SonarQubeReporter</text>
<text text-anchor="middle" x="814.5" y="-46" font-family="Helvetica,sans-Serif" font-size="10.00">::writeAssertions</text>
</a>
</g>
</g>
<!-- Node8&#45;&gt;Node10 -->
<g id="edge10" class="edge">
<title>Node8&#45;&gt;Node10</title>
<path fill="none" stroke="midnightblue" d="M692.05,-60.9C704.77,-60.18 718.1,-59.42 731.07,-58.69"/>
<polygon fill="midnightblue" stroke="midnightblue" points="731.6,-62.16 741.39,-58.1 731.21,-55.17 731.6,-62.16"/>
</g>
<!-- Node11 -->
<g id="node11" class="node">
<title>Node11</title>
<g id="a_node11"><a xlink:href="struct_catch_1_1_sonar_qube_reporter.html#a2e1771b233b45046c64e95fc0ea1ee49" target="_top" xlink:title=" ">
<polygon fill="white" stroke="black" points="948.5,-39 948.5,-69 1094.5,-69 1094.5,-39 948.5,-39"/>
<text text-anchor="start" x="956.5" y="-57" font-family="Helvetica,sans-Serif" font-size="10.00">Catch::SonarQubeReporter</text>
<text text-anchor="middle" x="1021.5" y="-46" font-family="Helvetica,sans-Serif" font-size="10.00">::writeAssertion</text>
</a>
</g>
</g>
<!-- Node10&#45;&gt;Node11 -->
<g id="edge11" class="edge">
<title>Node10&#45;&gt;Node11</title>
<path fill="none" stroke="midnightblue" d="M887.78,-54C904,-54 921.34,-54 937.95,-54"/>
<polygon fill="midnightblue" stroke="midnightblue" points="938.19,-57.5 948.19,-54 938.19,-50.5 938.19,-57.5"/>
</g>
</g>
</svg>
