<?xml version="1.0" encoding="UTF-8" standalone="no"?>
<!DOCTYPE svg PUBLIC "-//W3C//DTD SVG 1.1//EN"
 "http://www.w3.org/Graphics/SVG/1.1/DTD/svg11.dtd">
<!-- Generated by graphviz version 2.43.0 (0)
 -->
<!-- Title: Catch::SonarQubeReporter::writeSection Pages: 1 -->
<svg width="882pt" height="57pt"
 viewBox="0.00 0.00 882.00 57.00" xmlns="http://www.w3.org/2000/svg" xmlns:xlink="http://www.w3.org/1999/xlink">
<g id="graph0" class="graph" transform="scale(1 1) rotate(0) translate(4 53)">
<title>Catch::SonarQubeReporter::writeSection</title>
<polygon fill="white" stroke="transparent" points="-4,4 -4,-53 878,-53 878,4 -4,4"/>
<!-- Node1 -->
<g id="node1" class="node">
<title>Node1</title>
<g id="a_node1"><a xlink:title=" ">
<polygon fill="#bfbfbf" stroke="black" points="728,-0.5 728,-30.5 874,-30.5 874,-0.5 728,-0.5"/>
<text text-anchor="start" x="736" y="-18.5" font-family="Helvetica,sans-Serif" font-size="10.00">Catch::SonarQubeReporter</text>
<text text-anchor="middle" x="801" y="-7.5" font-family="Helvetica,sans-Serif" font-size="10.00">::writeSection</text>
</a>
</g>
</g>
<!-- Node1&#45;&gt;Node1 -->
<g id="edge1" class="edge">
<title>Node1&#45;&gt;Node1</title>
<path fill="none" stroke="midnightblue" d="M833.34,-40.96C829.33,-45.68 818.55,-49 801,-49 772.21,-49 761.63,-40.06 769.28,-30.66"/>
<polygon fill="midnightblue" stroke="midnightblue" points="836.81,-40.43 832.72,-30.66 829.83,-40.85 836.81,-40.43"/>
</g>
<!-- Node2 -->
<g id="node2" class="node">
<title>Node2</title>
<g id="a_node2"><a xlink:href="struct_catch_1_1_sonar_qube_reporter.html#a28756eaa7e0bb22a8fdb6a66bf655f7a" target="_top" xlink:title=" ">
<polygon fill="white" stroke="black" points="546,-0.5 546,-30.5 692,-30.5 692,-0.5 546,-0.5"/>
<text text-anchor="start" x="554" y="-18.5" font-family="Helvetica,sans-Serif" font-size="10.00">Catch::SonarQubeReporter</text>
<text text-anchor="middle" x="619" y="-7.5" font-family="Helvetica,sans-Serif" font-size="10.00">::writeTestCase</text>
</a>
</g>
</g>
<!-- Node1&#45;&gt;Node2 -->
<g id="edge2" class="edge">
<title>Node1&#45;&gt;Node2</title>
<path fill="none" stroke="midnightblue" d="M717.56,-15.5C709.09,-15.5 700.54,-15.5 692.19,-15.5"/>
<polygon fill="midnightblue" stroke="midnightblue" points="717.82,-19 727.82,-15.5 717.82,-12 717.82,-19"/>
</g>
<!-- Node3 -->
<g id="node3" class="node">
<title>Node3</title>
<g id="a_node3"><a xlink:href="struct_catch_1_1_sonar_qube_reporter.html#a2fd55ff70771a8f84c58d76d4d0edab6" target="_top" xlink:title=" ">
<polygon fill="white" stroke="black" points="364,-0.5 364,-30.5 510,-30.5 510,-0.5 364,-0.5"/>
<text text-anchor="start" x="372" y="-18.5" font-family="Helvetica,sans-Serif" font-size="10.00">Catch::SonarQubeReporter</text>
<text text-anchor="middle" x="437" y="-7.5" font-family="Helvetica,sans-Serif" font-size="10.00">::writeTestFile</text>
</a>
</g>
</g>
<!-- Node2&#45;&gt;Node3 -->
<g id="edge3" class="edge">
<title>Node2&#45;&gt;Node3</title>
<path fill="none" stroke="midnightblue" d="M535.56,-15.5C527.09,-15.5 518.54,-15.5 510.19,-15.5"/>
<polygon fill="midnightblue" stroke="midnightblue" points="535.82,-19 545.82,-15.5 535.82,-12 535.82,-19"/>
</g>
<!-- Node4 -->
<g id="node4" class="node">
<title>Node4</title>
<g id="a_node4"><a xlink:href="struct_catch_1_1_sonar_qube_reporter.html#a3bc0c0875aa9f901d558fac64dd6c8e5" target="_top" xlink:title=" ">
<polygon fill="white" stroke="black" points="182,-0.5 182,-30.5 328,-30.5 328,-0.5 182,-0.5"/>
<text text-anchor="start" x="190" y="-18.5" font-family="Helvetica,sans-Serif" font-size="10.00">Catch::SonarQubeReporter</text>
<text text-anchor="middle" x="255" y="-7.5" font-family="Helvetica,sans-Serif" font-size="10.00">::writeGroup</text>
</a>
</g>
</g>
<!-- Node3&#45;&gt;Node4 -->
<g id="edge4" class="edge">
<title>Node3&#45;&gt;Node4</title>
<path fill="none" stroke="midnightblue" d="M353.56,-15.5C345.09,-15.5 336.54,-15.5 328.19,-15.5"/>
<polygon fill="midnightblue" stroke="midnightblue" points="353.82,-19 363.82,-15.5 353.82,-12 353.82,-19"/>
</g>
<!-- Node5 -->
<g id="node5" class="node">
<title>Node5</title>
<g id="a_node5"><a xlink:href="struct_catch_1_1_sonar_qube_reporter.html#a8e580abdf551dc4f3acfb18d9609db46" target="_top" xlink:title=" ">
<polygon fill="white" stroke="black" points="0,-0.5 0,-30.5 146,-30.5 146,-0.5 0,-0.5"/>
<text text-anchor="start" x="8" y="-18.5" font-family="Helvetica,sans-Serif" font-size="10.00">Catch::SonarQubeReporter</text>
<text text-anchor="middle" x="73" y="-7.5" font-family="Helvetica,sans-Serif" font-size="10.00">::testGroupEnded</text>
</a>
</g>
</g>
<!-- Node4&#45;&gt;Node5 -->
<g id="edge5" class="edge">
<title>Node4&#45;&gt;Node5</title>
<path fill="none" stroke="midnightblue" d="M171.56,-15.5C163.09,-15.5 154.54,-15.5 146.19,-15.5"/>
<polygon fill="midnightblue" stroke="midnightblue" points="171.82,-19 181.82,-15.5 171.82,-12 171.82,-19"/>
</g>
</g>
</svg>
