<?xml version="1.0" encoding="UTF-8" standalone="no"?>
<!DOCTYPE svg PUBLIC "-//W3C//DTD SVG 1.1//EN"
 "http://www.w3.org/Graphics/SVG/1.1/DTD/svg11.dtd">
<!-- Generated by graphviz version 2.43.0 (0)
 -->
<!-- Title: Catch::IGeneratorTracker Pages: 1 -->
<svg width="145pt" height="325pt"
 viewBox="0.00 0.00 145.00 325.00" xmlns="http://www.w3.org/2000/svg" xmlns:xlink="http://www.w3.org/1999/xlink">
<g id="graph0" class="graph" transform="scale(1 1) rotate(0) translate(4 321)">
<title>Catch::IGeneratorTracker</title>
<polygon fill="white" stroke="transparent" points="-4,4 -4,-321 141,-321 141,4 -4,4"/>
<!-- Node1 -->
<g id="node1" class="node">
<title>Node1</title>
<g id="a_node1"><a xlink:title=" ">
<polygon fill="#bfbfbf" stroke="black" points="0,-182.5 0,-316.5 137,-316.5 137,-182.5 0,-182.5"/>
<text text-anchor="middle" x="68.5" y="-304.5" font-family="Helvetica,sans-Serif" font-size="10.00">Catch::IGeneratorTracker</text>
<polyline fill="none" stroke="black" points="0,-297.5 137,-297.5 "/>
<text text-anchor="middle" x="68.5" y="-285.5" font-family="Helvetica,sans-Serif" font-size="10.00"> </text>
<polyline fill="none" stroke="black" points="0,-278.5 137,-278.5 "/>
<text text-anchor="start" x="8" y="-266.5" font-family="Helvetica,sans-Serif" font-size="10.00">+ ~IGeneratorTracker()</text>
<text text-anchor="start" x="8" y="-255.5" font-family="Helvetica,sans-Serif" font-size="10.00">+ hasGenerator()</text>
<text text-anchor="start" x="8" y="-244.5" font-family="Helvetica,sans-Serif" font-size="10.00">+ getGenerator()</text>
<text text-anchor="start" x="8" y="-233.5" font-family="Helvetica,sans-Serif" font-size="10.00">+ setGenerator()</text>
<text text-anchor="start" x="8" y="-222.5" font-family="Helvetica,sans-Serif" font-size="10.00">+ ~IGeneratorTracker()</text>
<text text-anchor="start" x="8" y="-211.5" font-family="Helvetica,sans-Serif" font-size="10.00">+ hasGenerator()</text>
<text text-anchor="start" x="8" y="-200.5" font-family="Helvetica,sans-Serif" font-size="10.00">+ getGenerator()</text>
<text text-anchor="start" x="8" y="-189.5" font-family="Helvetica,sans-Serif" font-size="10.00">+ setGenerator()</text>
</a>
</g>
</g>
<!-- Node2 -->
<g id="node2" class="node">
<title>Node2</title>
<g id="a_node2"><a xlink:href="struct_catch_1_1_generators_1_1_generator_tracker.html" target="_top" xlink:title=" ">
<polygon fill="white" stroke="black" points="5,-0.5 5,-145.5 132,-145.5 132,-0.5 5,-0.5"/>
<text text-anchor="start" x="13" y="-133.5" font-family="Helvetica,sans-Serif" font-size="10.00">Catch::Generators::</text>
<text text-anchor="middle" x="68.5" y="-122.5" font-family="Helvetica,sans-Serif" font-size="10.00">GeneratorTracker</text>
<polyline fill="none" stroke="black" points="5,-115.5 132,-115.5 "/>
<text text-anchor="start" x="13" y="-103.5" font-family="Helvetica,sans-Serif" font-size="10.00">+ m_generator</text>
<polyline fill="none" stroke="black" points="5,-96.5 132,-96.5 "/>
<text text-anchor="start" x="13" y="-84.5" font-family="Helvetica,sans-Serif" font-size="10.00">+ GeneratorTracker()</text>
<text text-anchor="start" x="13" y="-73.5" font-family="Helvetica,sans-Serif" font-size="10.00">+ ~GeneratorTracker()</text>
<text text-anchor="start" x="13" y="-62.5" font-family="Helvetica,sans-Serif" font-size="10.00">+ isGeneratorTracker()</text>
<text text-anchor="start" x="13" y="-51.5" font-family="Helvetica,sans-Serif" font-size="10.00">+ hasGenerator()</text>
<text text-anchor="start" x="13" y="-40.5" font-family="Helvetica,sans-Serif" font-size="10.00">+ close()</text>
<text text-anchor="start" x="13" y="-29.5" font-family="Helvetica,sans-Serif" font-size="10.00">+ getGenerator()</text>
<text text-anchor="start" x="13" y="-18.5" font-family="Helvetica,sans-Serif" font-size="10.00">+ setGenerator()</text>
<text text-anchor="start" x="13" y="-7.5" font-family="Helvetica,sans-Serif" font-size="10.00">+ acquire()</text>
</a>
</g>
</g>
<!-- Node1&#45;&gt;Node2 -->
<g id="edge1" class="edge">
<title>Node1&#45;&gt;Node2</title>
<path fill="none" stroke="midnightblue" d="M68.5,-171.84C68.5,-163.09 68.5,-154.2 68.5,-145.51"/>
<polygon fill="none" stroke="midnightblue" points="65,-172.03 68.5,-182.03 72,-172.03 65,-172.03"/>
</g>
</g>
</svg>
