<?xml version="1.0" encoding="UTF-8" standalone="no"?>
<!DOCTYPE svg PUBLIC "-//W3C//DTD SVG 1.1//EN"
 "http://www.w3.org/Graphics/SVG/1.1/DTD/svg11.dtd">
<!-- Generated by graphviz version 2.43.0 (0)
 -->
<!-- Title: Catch::AssertionInfo Pages: 1 -->
<svg width="423pt" height="397pt"
 viewBox="0.00 0.00 423.00 397.00" xmlns="http://www.w3.org/2000/svg" xmlns:xlink="http://www.w3.org/1999/xlink">
<g id="graph0" class="graph" transform="scale(1 1) rotate(0) translate(4 393)">
<title>Catch::AssertionInfo</title>
<polygon fill="white" stroke="transparent" points="-4,4 -4,-393 419,-393 419,4 -4,4"/>
<!-- Node1 -->
<g id="node1" class="node">
<title>Node1</title>
<g id="a_node1"><a xlink:title=" ">
<polygon fill="#bfbfbf" stroke="black" points="146.5,-0.5 146.5,-57.5 261.5,-57.5 261.5,-0.5 146.5,-0.5"/>
<text text-anchor="middle" x="204" y="-45.5" font-family="Helvetica,sans-Serif" font-size="10.00">Catch::AssertionInfo</text>
<polyline fill="none" stroke="black" points="146.5,-38.5 261.5,-38.5 "/>
<text text-anchor="middle" x="204" y="-26.5" font-family="Helvetica,sans-Serif" font-size="10.00"> </text>
<polyline fill="none" stroke="black" points="146.5,-19.5 261.5,-19.5 "/>
<text text-anchor="middle" x="204" y="-7.5" font-family="Helvetica,sans-Serif" font-size="10.00"> </text>
</a>
</g>
</g>
<!-- Node2 -->
<g id="node2" class="node">
<title>Node2</title>
<g id="a_node2"><a xlink:href="struct_catch_1_1_source_line_info.html" target="_top" xlink:title=" ">
<polygon fill="white" stroke="black" points="0,-116.5 0,-283.5 122,-283.5 122,-116.5 0,-116.5"/>
<text text-anchor="middle" x="61" y="-271.5" font-family="Helvetica,sans-Serif" font-size="10.00">Catch::SourceLineInfo</text>
<polyline fill="none" stroke="black" points="0,-264.5 122,-264.5 "/>
<text text-anchor="middle" x="61" y="-252.5" font-family="Helvetica,sans-Serif" font-size="10.00"> </text>
<polyline fill="none" stroke="black" points="0,-245.5 122,-245.5 "/>
<text text-anchor="start" x="8" y="-233.5" font-family="Helvetica,sans-Serif" font-size="10.00">+ SourceLineInfo()</text>
<text text-anchor="start" x="8" y="-222.5" font-family="Helvetica,sans-Serif" font-size="10.00">+ SourceLineInfo()</text>
<text text-anchor="start" x="8" y="-211.5" font-family="Helvetica,sans-Serif" font-size="10.00">+ SourceLineInfo()</text>
<text text-anchor="start" x="8" y="-200.5" font-family="Helvetica,sans-Serif" font-size="10.00">+ operator=()</text>
<text text-anchor="start" x="8" y="-189.5" font-family="Helvetica,sans-Serif" font-size="10.00">+ SourceLineInfo()</text>
<text text-anchor="start" x="8" y="-178.5" font-family="Helvetica,sans-Serif" font-size="10.00">+ operator=()</text>
<text text-anchor="start" x="8" y="-167.5" font-family="Helvetica,sans-Serif" font-size="10.00">+ empty()</text>
<text text-anchor="start" x="8" y="-156.5" font-family="Helvetica,sans-Serif" font-size="10.00">+ operator==()</text>
<text text-anchor="start" x="8" y="-145.5" font-family="Helvetica,sans-Serif" font-size="10.00">+ operator&lt;()</text>
<text text-anchor="start" x="8" y="-134.5" font-family="Helvetica,sans-Serif" font-size="10.00">+ SourceLineInfo()</text>
<text text-anchor="start" x="8" y="-123.5" font-family="Helvetica,sans-Serif" font-size="10.00">and 8 more...</text>
</a>
</g>
</g>
<!-- Node2&#45;&gt;Node1 -->
<g id="edge1" class="edge">
<title>Node2&#45;&gt;Node1</title>
<path fill="none" stroke="#404040" d="M117.59,-116.25C128.18,-102.38 139.53,-88.46 151,-76 154.16,-72.57 157.56,-69.13 161.05,-65.77"/>
<polygon fill="none" stroke="#404040" points="161.06,-65.77 162.75,-58.76 169.87,-57.62 168.18,-64.63 161.06,-65.77"/>
<text text-anchor="middle" x="175.5" y="-84.5" font-family="Helvetica,sans-Serif" font-size="10.00"> +lineInfo</text>
</g>
<!-- Node3 -->
<g id="node3" class="node">
<title>Node3</title>
<g id="a_node3"><a xlink:href="classchar.html" target="_top" xlink:title=" ">
<polygon fill="white" stroke="black" points="12,-331.5 12,-388.5 50,-388.5 50,-331.5 12,-331.5"/>
<text text-anchor="middle" x="31" y="-376.5" font-family="Helvetica,sans-Serif" font-size="10.00">char</text>
<polyline fill="none" stroke="black" points="12,-369.5 50,-369.5 "/>
<text text-anchor="middle" x="31" y="-357.5" font-family="Helvetica,sans-Serif" font-size="10.00"> </text>
<polyline fill="none" stroke="black" points="12,-350.5 50,-350.5 "/>
<text text-anchor="middle" x="31" y="-338.5" font-family="Helvetica,sans-Serif" font-size="10.00"> </text>
</a>
</g>
</g>
<!-- Node3&#45;&gt;Node2 -->
<g id="edge2" class="edge">
<title>Node3&#45;&gt;Node2</title>
<path fill="none" stroke="#404040" d="M36.23,-331.48C38.19,-321.12 40.56,-308.67 43.03,-295.63"/>
<polygon fill="none" stroke="#404040" points="43.09,-295.33 40.28,-288.68 45.33,-283.54 48.14,-290.18 43.09,-295.33"/>
<text text-anchor="middle" x="55.5" y="-305" font-family="Helvetica,sans-Serif" font-size="10.00"> +file</text>
</g>
<!-- Node4 -->
<g id="node4" class="node">
<title>Node4</title>
<g id="a_node4"><a xlink:title=" ">
<polygon fill="white" stroke="#bfbfbf" points="68.5,-331.5 68.5,-388.5 113.5,-388.5 113.5,-331.5 68.5,-331.5"/>
<text text-anchor="middle" x="91" y="-376.5" font-family="Helvetica,sans-Serif" font-size="10.00">size_t</text>
<polyline fill="none" stroke="#bfbfbf" points="68.5,-369.5 113.5,-369.5 "/>
<text text-anchor="middle" x="91" y="-357.5" font-family="Helvetica,sans-Serif" font-size="10.00"> </text>
<polyline fill="none" stroke="#bfbfbf" points="68.5,-350.5 113.5,-350.5 "/>
<text text-anchor="middle" x="91" y="-338.5" font-family="Helvetica,sans-Serif" font-size="10.00"> </text>
</a>
</g>
</g>
<!-- Node4&#45;&gt;Node2 -->
<g id="edge3" class="edge">
<title>Node4&#45;&gt;Node2</title>
<path fill="none" stroke="#404040" d="M85.77,-331.48C83.81,-321.12 81.44,-308.67 78.97,-295.63"/>
<polygon fill="none" stroke="#404040" points="78.91,-295.33 73.86,-290.18 76.67,-283.54 81.72,-288.68 78.91,-295.33"/>
<text text-anchor="middle" x="98" y="-305" font-family="Helvetica,sans-Serif" font-size="10.00"> +line</text>
</g>
<!-- Node5 -->
<g id="node5" class="node">
<title>Node5</title>
<g id="a_node5"><a xlink:href="class_catch_1_1_string_ref.html" target="_top" xlink:title=" ">
<polygon fill="white" stroke="black" points="140,-116.5 140,-283.5 268,-283.5 268,-116.5 140,-116.5"/>
<text text-anchor="middle" x="204" y="-271.5" font-family="Helvetica,sans-Serif" font-size="10.00">Catch::StringRef</text>
<polyline fill="none" stroke="black" points="140,-264.5 268,-264.5 "/>
<text text-anchor="middle" x="204" y="-252.5" font-family="Helvetica,sans-Serif" font-size="10.00"> </text>
<polyline fill="none" stroke="black" points="140,-245.5 268,-245.5 "/>
<text text-anchor="start" x="148" y="-233.5" font-family="Helvetica,sans-Serif" font-size="10.00">+ StringRef()</text>
<text text-anchor="start" x="148" y="-222.5" font-family="Helvetica,sans-Serif" font-size="10.00">+ StringRef()</text>
<text text-anchor="start" x="148" y="-211.5" font-family="Helvetica,sans-Serif" font-size="10.00">+ StringRef()</text>
<text text-anchor="start" x="148" y="-200.5" font-family="Helvetica,sans-Serif" font-size="10.00">+ StringRef()</text>
<text text-anchor="start" x="148" y="-189.5" font-family="Helvetica,sans-Serif" font-size="10.00">+ operator std::string()</text>
<text text-anchor="start" x="148" y="-178.5" font-family="Helvetica,sans-Serif" font-size="10.00">+ operator==()</text>
<text text-anchor="start" x="148" y="-167.5" font-family="Helvetica,sans-Serif" font-size="10.00">+ operator!=()</text>
<text text-anchor="start" x="148" y="-156.5" font-family="Helvetica,sans-Serif" font-size="10.00">+ operator[]()</text>
<text text-anchor="start" x="148" y="-145.5" font-family="Helvetica,sans-Serif" font-size="10.00">+ empty()</text>
<text text-anchor="start" x="148" y="-134.5" font-family="Helvetica,sans-Serif" font-size="10.00">+ size()</text>
<text text-anchor="start" x="148" y="-123.5" font-family="Helvetica,sans-Serif" font-size="10.00">and 22 more...</text>
</a>
</g>
</g>
<!-- Node5&#45;&gt;Node1 -->
<g id="edge4" class="edge">
<title>Node5&#45;&gt;Node1</title>
<path fill="none" stroke="#404040" d="M204,-116.48C204,-100.19 204,-83.79 204,-69.73"/>
<polygon fill="none" stroke="#404040" points="204,-69.53 200,-63.53 204,-57.53 208,-63.53 204,-69.53"/>
<text text-anchor="middle" x="256.5" y="-90" font-family="Helvetica,sans-Serif" font-size="10.00"> +macroName</text>
<text text-anchor="middle" x="256.5" y="-79" font-family="Helvetica,sans-Serif" font-size="10.00">+capturedExpression</text>
</g>
<!-- Node6 -->
<g id="node6" class="node">
<title>Node6</title>
<g id="a_node6"><a xlink:title=" ">
<polygon fill="white" stroke="#bfbfbf" points="310.5,-171.5 310.5,-228.5 353.5,-228.5 353.5,-171.5 310.5,-171.5"/>
<text text-anchor="middle" x="332" y="-216.5" font-family="Helvetica,sans-Serif" font-size="10.00">Flags</text>
<polyline fill="none" stroke="#bfbfbf" points="310.5,-209.5 353.5,-209.5 "/>
<text text-anchor="middle" x="332" y="-197.5" font-family="Helvetica,sans-Serif" font-size="10.00"> </text>
<polyline fill="none" stroke="#bfbfbf" points="310.5,-190.5 353.5,-190.5 "/>
<text text-anchor="middle" x="332" y="-178.5" font-family="Helvetica,sans-Serif" font-size="10.00"> </text>
</a>
</g>
</g>
<!-- Node6&#45;&gt;Node1 -->
<g id="edge5" class="edge">
<title>Node6&#45;&gt;Node1</title>
<path fill="none" stroke="#404040" d="M334.13,-171.31C334.72,-144.21 331.46,-103.14 310,-76 300.43,-63.89 287.03,-54.91 272.98,-48.27"/>
<polygon fill="none" stroke="#404040" points="272.67,-48.13 265.58,-49.46 261.63,-43.42 268.72,-42.1 272.67,-48.13"/>
<text text-anchor="middle" x="368" y="-84.5" font-family="Helvetica,sans-Serif" font-size="10.00"> +resultDisposition</text>
</g>
</g>
</svg>
