<?xml version="1.0" encoding="UTF-8" standalone="no"?>
<!DOCTYPE svg PUBLIC "-//W3C//DTD SVG 1.1//EN"
 "http://www.w3.org/Graphics/SVG/1.1/DTD/svg11.dtd">
<!-- Generated by graphviz version 2.43.0 (0)
 -->
<!-- Title: Catch::Benchmark::Estimate&lt; Duration &gt; Pages: 1 -->
<svg width="224pt" height="237pt"
 viewBox="0.00 0.00 224.00 237.00" xmlns="http://www.w3.org/2000/svg" xmlns:xlink="http://www.w3.org/1999/xlink">
<g id="graph0" class="graph" transform="scale(1 1) rotate(0) translate(4 233)">
<title>Catch::Benchmark::Estimate&lt; Duration &gt;</title>
<polygon fill="white" stroke="transparent" points="-4,4 -4,-233 220,-233 220,4 -4,4"/>
<!-- Node1 -->
<g id="node1" class="node">
<title>Node1</title>
<g id="a_node1"><a xlink:title=" ">
<polygon fill="#bfbfbf" stroke="black" points="12.5,-0.5 12.5,-79.5 167.5,-79.5 167.5,-0.5 12.5,-0.5"/>
<text text-anchor="start" x="20.5" y="-67.5" font-family="Helvetica,sans-Serif" font-size="10.00">Catch::Benchmark::Estimate</text>
<text text-anchor="middle" x="90" y="-56.5" font-family="Helvetica,sans-Serif" font-size="10.00">&lt; Duration &gt;</text>
<polyline fill="none" stroke="black" points="12.5,-49.5 167.5,-49.5 "/>
<text text-anchor="middle" x="90" y="-37.5" font-family="Helvetica,sans-Serif" font-size="10.00"> </text>
<polyline fill="none" stroke="black" points="12.5,-30.5 167.5,-30.5 "/>
<text text-anchor="start" x="20.5" y="-18.5" font-family="Helvetica,sans-Serif" font-size="10.00">+ operator Estimate&lt;</text>
<text text-anchor="start" x="20.5" y="-7.5" font-family="Helvetica,sans-Serif" font-size="10.00"> Duration2 &gt;()</text>
</a>
</g>
</g>
<!-- Node2 -->
<g id="node2" class="node">
<title>Node2</title>
<g id="a_node2"><a xlink:title=" ">
<polygon fill="white" stroke="#bfbfbf" points="0,-160.5 0,-217.5 50,-217.5 50,-160.5 0,-160.5"/>
<text text-anchor="middle" x="25" y="-205.5" font-family="Helvetica,sans-Serif" font-size="10.00">double</text>
<polyline fill="none" stroke="#bfbfbf" points="0,-198.5 50,-198.5 "/>
<text text-anchor="middle" x="25" y="-186.5" font-family="Helvetica,sans-Serif" font-size="10.00"> </text>
<polyline fill="none" stroke="#bfbfbf" points="0,-179.5 50,-179.5 "/>
<text text-anchor="middle" x="25" y="-167.5" font-family="Helvetica,sans-Serif" font-size="10.00"> </text>
</a>
</g>
</g>
<!-- Node2&#45;&gt;Node1 -->
<g id="edge1" class="edge">
<title>Node2&#45;&gt;Node1</title>
<path fill="none" stroke="#404040" d="M19.7,-160.37C17.47,-141.89 17.13,-117.48 26,-98 27.37,-94.99 28.98,-92.08 30.79,-89.26"/>
<polygon fill="none" stroke="#404040" points="30.88,-89.13 31.27,-81.93 38.06,-79.52 37.68,-86.72 30.88,-89.13"/>
<text text-anchor="middle" x="79.5" y="-112" font-family="Helvetica,sans-Serif" font-size="10.00"> +confidence_interval</text>
</g>
<!-- Node3 -->
<g id="node3" class="node">
<title>Node3</title>
<g id="a_node3"><a xlink:title=" ">
<polygon fill="white" stroke="#bfbfbf" points="100,-149.5 100,-228.5 210,-228.5 210,-149.5 100,-149.5"/>
<text text-anchor="middle" x="155" y="-216.5" font-family="Helvetica,sans-Serif" font-size="10.00">anonymous:+point</text>
<text text-anchor="middle" x="155" y="-205.5" font-family="Helvetica,sans-Serif" font-size="10.00">+upper_bound</text>
<text text-anchor="middle" x="155" y="-194.5" font-family="Helvetica,sans-Serif" font-size="10.00">+lower_bound</text>
<polyline fill="none" stroke="#bfbfbf" points="100,-187.5 210,-187.5 "/>
<text text-anchor="middle" x="155" y="-175.5" font-family="Helvetica,sans-Serif" font-size="10.00"> </text>
<polyline fill="none" stroke="#bfbfbf" points="100,-168.5 210,-168.5 "/>
<text text-anchor="middle" x="155" y="-156.5" font-family="Helvetica,sans-Serif" font-size="10.00"> </text>
</a>
</g>
</g>
<!-- Node3&#45;&gt;Node1 -->
<g id="edge2" class="edge">
<title>Node3&#45;&gt;Node1</title>
<path fill="none" stroke="#404040" d="M149.1,-149.17C145.71,-132.85 140.58,-113.99 133,-98 131.7,-95.26 130.25,-92.52 128.7,-89.8"/>
<polygon fill="none" stroke="#404040" points="128.64,-89.7 122.07,-86.74 122.28,-79.53 128.85,-82.5 128.64,-89.7"/>
<text text-anchor="middle" x="180" y="-123" font-family="Helvetica,sans-Serif" font-size="10.00"> +point</text>
<text text-anchor="middle" x="180" y="-112" font-family="Helvetica,sans-Serif" font-size="10.00">+upper_bound</text>
<text text-anchor="middle" x="180" y="-101" font-family="Helvetica,sans-Serif" font-size="10.00">+lower_bound</text>
</g>
</g>
</svg>
