<?xml version="1.0" encoding="UTF-8" standalone="no"?>
<!DOCTYPE svg PUBLIC "-//W3C//DTD SVG 1.1//EN"
 "http://www.w3.org/Graphics/SVG/1.1/DTD/svg11.dtd">
<!-- Generated by graphviz version 2.43.0 (0)
 -->
<!-- Title: Catch::clara::detail::BoundFlagLambda&lt; L &gt; Pages: 1 -->
<svg width="149pt" height="480pt"
 viewBox="0.00 0.00 149.00 480.00" xmlns="http://www.w3.org/2000/svg" xmlns:xlink="http://www.w3.org/1999/xlink">
<g id="graph0" class="graph" transform="scale(1 1) rotate(0) translate(4 476)">
<title>Catch::clara::detail::BoundFlagLambda&lt; L &gt;</title>
<polygon fill="white" stroke="transparent" points="-4,4 -4,-476 145,-476 145,4 -4,4"/>
<!-- Node1 -->
<g id="node1" class="node">
<title>Node1</title>
<g id="a_node1"><a xlink:title=" ">
<polygon fill="#bfbfbf" stroke="black" points="0,-0.5 0,-79.5 141,-79.5 141,-0.5 0,-0.5"/>
<text text-anchor="start" x="8" y="-67.5" font-family="Helvetica,sans-Serif" font-size="10.00">Catch::clara::detail</text>
<text text-anchor="middle" x="70.5" y="-56.5" font-family="Helvetica,sans-Serif" font-size="10.00">::BoundFlagLambda&lt; L &gt;</text>
<polyline fill="none" stroke="black" points="0,-49.5 141,-49.5 "/>
<text text-anchor="start" x="8" y="-37.5" font-family="Helvetica,sans-Serif" font-size="10.00">+ m_lambda</text>
<polyline fill="none" stroke="black" points="0,-30.5 141,-30.5 "/>
<text text-anchor="start" x="8" y="-18.5" font-family="Helvetica,sans-Serif" font-size="10.00">+ BoundFlagLambda()</text>
<text text-anchor="start" x="8" y="-7.5" font-family="Helvetica,sans-Serif" font-size="10.00">+ setFlag()</text>
</a>
</g>
</g>
<!-- Node2 -->
<g id="node2" class="node">
<title>Node2</title>
<g id="a_node2"><a xlink:href="struct_catch_1_1clara_1_1detail_1_1_bound_flag_ref_base.html" target="_top" xlink:title=" ">
<polygon fill="white" stroke="black" points="13,-116.5 13,-195.5 128,-195.5 128,-116.5 13,-116.5"/>
<text text-anchor="start" x="21" y="-183.5" font-family="Helvetica,sans-Serif" font-size="10.00">Catch::clara::detail</text>
<text text-anchor="middle" x="70.5" y="-172.5" font-family="Helvetica,sans-Serif" font-size="10.00">::BoundFlagRefBase</text>
<polyline fill="none" stroke="black" points="13,-165.5 128,-165.5 "/>
<text text-anchor="middle" x="70.5" y="-153.5" font-family="Helvetica,sans-Serif" font-size="10.00"> </text>
<polyline fill="none" stroke="black" points="13,-146.5 128,-146.5 "/>
<text text-anchor="start" x="21" y="-134.5" font-family="Helvetica,sans-Serif" font-size="10.00">+ setFlag()</text>
<text text-anchor="start" x="21" y="-123.5" font-family="Helvetica,sans-Serif" font-size="10.00">+ isFlag()</text>
</a>
</g>
</g>
<!-- Node2&#45;&gt;Node1 -->
<g id="edge1" class="edge">
<title>Node2&#45;&gt;Node1</title>
<path fill="none" stroke="midnightblue" d="M70.5,-106.15C70.5,-97.26 70.5,-88.1 70.5,-79.56"/>
<polygon fill="none" stroke="midnightblue" points="67,-106.4 70.5,-116.4 74,-106.4 67,-106.4"/>
</g>
<!-- Node3 -->
<g id="node3" class="node">
<title>Node3</title>
<g id="a_node3"><a xlink:href="struct_catch_1_1clara_1_1detail_1_1_bound_ref.html" target="_top" xlink:title=" ">
<polygon fill="white" stroke="black" points="16.5,-232.5 16.5,-322.5 124.5,-322.5 124.5,-232.5 16.5,-232.5"/>
<text text-anchor="start" x="24.5" y="-310.5" font-family="Helvetica,sans-Serif" font-size="10.00">Catch::clara::detail</text>
<text text-anchor="middle" x="70.5" y="-299.5" font-family="Helvetica,sans-Serif" font-size="10.00">::BoundRef</text>
<polyline fill="none" stroke="black" points="16.5,-292.5 124.5,-292.5 "/>
<text text-anchor="middle" x="70.5" y="-280.5" font-family="Helvetica,sans-Serif" font-size="10.00"> </text>
<polyline fill="none" stroke="black" points="16.5,-273.5 124.5,-273.5 "/>
<text text-anchor="start" x="24.5" y="-261.5" font-family="Helvetica,sans-Serif" font-size="10.00">+ ~BoundRef()</text>
<text text-anchor="start" x="24.5" y="-250.5" font-family="Helvetica,sans-Serif" font-size="10.00">+ isContainer()</text>
<text text-anchor="start" x="24.5" y="-239.5" font-family="Helvetica,sans-Serif" font-size="10.00">+ isFlag()</text>
</a>
</g>
</g>
<!-- Node3&#45;&gt;Node2 -->
<g id="edge2" class="edge">
<title>Node3&#45;&gt;Node2</title>
<path fill="none" stroke="midnightblue" d="M70.5,-222.08C70.5,-213.23 70.5,-204.23 70.5,-195.86"/>
<polygon fill="none" stroke="midnightblue" points="67,-222.34 70.5,-232.34 74,-222.34 67,-222.34"/>
</g>
<!-- Node4 -->
<g id="node4" class="node">
<title>Node4</title>
<g id="a_node4"><a xlink:href="struct_catch_1_1clara_1_1detail_1_1_non_copyable.html" target="_top" xlink:title=" ">
<polygon fill="white" stroke="black" points="16.5,-359.5 16.5,-471.5 124.5,-471.5 124.5,-359.5 16.5,-359.5"/>
<text text-anchor="start" x="24.5" y="-459.5" font-family="Helvetica,sans-Serif" font-size="10.00">Catch::clara::detail</text>
<text text-anchor="middle" x="70.5" y="-448.5" font-family="Helvetica,sans-Serif" font-size="10.00">::NonCopyable</text>
<polyline fill="none" stroke="black" points="16.5,-441.5 124.5,-441.5 "/>
<text text-anchor="middle" x="70.5" y="-429.5" font-family="Helvetica,sans-Serif" font-size="10.00"> </text>
<polyline fill="none" stroke="black" points="16.5,-422.5 124.5,-422.5 "/>
<text text-anchor="start" x="24.5" y="-410.5" font-family="Helvetica,sans-Serif" font-size="10.00">+ NonCopyable()</text>
<text text-anchor="start" x="24.5" y="-399.5" font-family="Helvetica,sans-Serif" font-size="10.00">+ NonCopyable()</text>
<text text-anchor="start" x="24.5" y="-388.5" font-family="Helvetica,sans-Serif" font-size="10.00">+ NonCopyable()</text>
<text text-anchor="start" x="24.5" y="-377.5" font-family="Helvetica,sans-Serif" font-size="10.00">+ operator=()</text>
<text text-anchor="start" x="24.5" y="-366.5" font-family="Helvetica,sans-Serif" font-size="10.00">+ operator=()</text>
</a>
</g>
</g>
<!-- Node4&#45;&gt;Node3 -->
<g id="edge3" class="edge">
<title>Node4&#45;&gt;Node3</title>
<path fill="none" stroke="midnightblue" d="M70.5,-349.08C70.5,-340.07 70.5,-331.01 70.5,-322.51"/>
<polygon fill="none" stroke="midnightblue" points="67,-349.18 70.5,-359.18 74,-349.18 67,-349.18"/>
</g>
</g>
</svg>
