<?xml version="1.0" encoding="UTF-8" standalone="no"?>
<!DOCTYPE svg PUBLIC "-//W3C//DTD SVG 1.1//EN"
 "http://www.w3.org/Graphics/SVG/1.1/DTD/svg11.dtd">
<!-- Generated by graphviz version 2.43.0 (0)
 -->
<!-- Title: Catch::Detail::EnumInfo Pages: 1 -->
<svg width="294pt" height="314pt"
 viewBox="0.00 0.00 294.00 314.00" xmlns="http://www.w3.org/2000/svg" xmlns:xlink="http://www.w3.org/1999/xlink">
<g id="graph0" class="graph" transform="scale(1 1) rotate(0) translate(4 310)">
<title>Catch::Detail::EnumInfo</title>
<polygon fill="white" stroke="transparent" points="-4,4 -4,-310 290,-310 290,4 -4,4"/>
<!-- Node1 -->
<g id="node1" class="node">
<title>Node1</title>
<g id="a_node1"><a xlink:title=" ">
<polygon fill="#bfbfbf" stroke="black" points="74,-0.5 74,-90.5 206,-90.5 206,-0.5 74,-0.5"/>
<text text-anchor="middle" x="140" y="-78.5" font-family="Helvetica,sans-Serif" font-size="10.00">Catch::Detail::EnumInfo</text>
<polyline fill="none" stroke="black" points="74,-71.5 206,-71.5 "/>
<text text-anchor="middle" x="140" y="-59.5" font-family="Helvetica,sans-Serif" font-size="10.00"> </text>
<polyline fill="none" stroke="black" points="74,-52.5 206,-52.5 "/>
<text text-anchor="start" x="82" y="-40.5" font-family="Helvetica,sans-Serif" font-size="10.00">+ ~EnumInfo()</text>
<text text-anchor="start" x="82" y="-29.5" font-family="Helvetica,sans-Serif" font-size="10.00">+ lookup()</text>
<text text-anchor="start" x="82" y="-18.5" font-family="Helvetica,sans-Serif" font-size="10.00">+ ~EnumInfo()</text>
<text text-anchor="start" x="82" y="-7.5" font-family="Helvetica,sans-Serif" font-size="10.00">+ lookup()</text>
</a>
</g>
</g>
<!-- Node2 -->
<g id="node2" class="node">
<title>Node2</title>
<g id="a_node2"><a xlink:href="class_catch_1_1_string_ref.html" target="_top" xlink:title=" ">
<polygon fill="white" stroke="black" points="0,-138.5 0,-305.5 128,-305.5 128,-138.5 0,-138.5"/>
<text text-anchor="middle" x="64" y="-293.5" font-family="Helvetica,sans-Serif" font-size="10.00">Catch::StringRef</text>
<polyline fill="none" stroke="black" points="0,-286.5 128,-286.5 "/>
<text text-anchor="middle" x="64" y="-274.5" font-family="Helvetica,sans-Serif" font-size="10.00"> </text>
<polyline fill="none" stroke="black" points="0,-267.5 128,-267.5 "/>
<text text-anchor="start" x="8" y="-255.5" font-family="Helvetica,sans-Serif" font-size="10.00">+ StringRef()</text>
<text text-anchor="start" x="8" y="-244.5" font-family="Helvetica,sans-Serif" font-size="10.00">+ StringRef()</text>
<text text-anchor="start" x="8" y="-233.5" font-family="Helvetica,sans-Serif" font-size="10.00">+ StringRef()</text>
<text text-anchor="start" x="8" y="-222.5" font-family="Helvetica,sans-Serif" font-size="10.00">+ StringRef()</text>
<text text-anchor="start" x="8" y="-211.5" font-family="Helvetica,sans-Serif" font-size="10.00">+ operator std::string()</text>
<text text-anchor="start" x="8" y="-200.5" font-family="Helvetica,sans-Serif" font-size="10.00">+ operator==()</text>
<text text-anchor="start" x="8" y="-189.5" font-family="Helvetica,sans-Serif" font-size="10.00">+ operator!=()</text>
<text text-anchor="start" x="8" y="-178.5" font-family="Helvetica,sans-Serif" font-size="10.00">+ operator[]()</text>
<text text-anchor="start" x="8" y="-167.5" font-family="Helvetica,sans-Serif" font-size="10.00">+ empty()</text>
<text text-anchor="start" x="8" y="-156.5" font-family="Helvetica,sans-Serif" font-size="10.00">+ size()</text>
<text text-anchor="start" x="8" y="-145.5" font-family="Helvetica,sans-Serif" font-size="10.00">and 22 more...</text>
</a>
</g>
</g>
<!-- Node2&#45;&gt;Node1 -->
<g id="edge1" class="edge">
<title>Node2&#45;&gt;Node1</title>
<path fill="none" stroke="#404040" d="M100,-138.35C105.35,-126.06 110.75,-113.65 115.79,-102.1"/>
<polygon fill="none" stroke="#404040" points="115.89,-101.87 114.62,-94.77 120.68,-90.86 121.95,-97.96 115.89,-101.87"/>
<text text-anchor="middle" x="139.5" y="-112" font-family="Helvetica,sans-Serif" font-size="10.00"> +m_name</text>
</g>
<!-- Node3 -->
<g id="node3" class="node">
<title>Node3</title>
<g id="a_node3"><a xlink:title=" ">
<polygon fill="white" stroke="#bfbfbf" points="146,-188 146,-256 286,-256 286,-188 146,-188"/>
<text text-anchor="start" x="154" y="-244" font-family="Helvetica,sans-Serif" font-size="10.00">vector&lt; std::pair&lt;</text>
<text text-anchor="middle" x="216" y="-233" font-family="Helvetica,sans-Serif" font-size="10.00"> int, Catch::StringRef &gt; &gt;</text>
<polyline fill="none" stroke="#bfbfbf" points="146,-226 286,-226 "/>
<text text-anchor="middle" x="216" y="-214" font-family="Helvetica,sans-Serif" font-size="10.00"> </text>
<polyline fill="none" stroke="#bfbfbf" points="146,-207 286,-207 "/>
<text text-anchor="middle" x="216" y="-195" font-family="Helvetica,sans-Serif" font-size="10.00"> </text>
</a>
</g>
</g>
<!-- Node3&#45;&gt;Node1 -->
<g id="edge2" class="edge">
<title>Node3&#45;&gt;Node1</title>
<path fill="none" stroke="#404040" d="M203.48,-187.88C194.8,-165.43 182.74,-135.2 171,-109 169.91,-106.58 168.79,-104.11 167.63,-101.62"/>
<polygon fill="none" stroke="#404040" points="167.59,-101.53 161.4,-97.82 162.45,-90.68 168.63,-94.39 167.59,-101.53"/>
<text text-anchor="middle" x="203.5" y="-112" font-family="Helvetica,sans-Serif" font-size="10.00"> +m_values</text>
</g>
</g>
</svg>
