<?xml version="1.0" encoding="UTF-8" standalone="no"?>
<!DOCTYPE svg PUBLIC "-//W3C//DTD SVG 1.1//EN"
 "http://www.w3.org/Graphics/SVG/1.1/DTD/svg11.dtd">
<!-- Generated by graphviz version 2.43.0 (0)
 -->
<!-- Title: Catch::Matchers::Floating::WithinAbsMatcher Pages: 1 -->
<!--zoomable 625 -->
<svg id="main" version="1.1" xmlns="http://www.w3.org/2000/svg" xmlns:xlink="http://www.w3.org/1999/xlink" xml:space="preserve" onload="init(evt)">
<style type="text/css"><![CDATA[
.edge:hover path { stroke: red; }
.edge:hover polygon { stroke: red; fill: red; }
]]></style>
<script type="text/javascript"><![CDATA[
var edges = document.getElementsByTagName('g');
if (edges && edges.length) {
  for (var i=0;i<edges.length;i++) {
    if (edges[i].id.substr(0,4)=='edge') {
      edges[i].setAttribute('class','edge');
    }
  }
}
]]></script>
        <defs>
                <circle id="rim" cx="0" cy="0" r="7"/>
                <circle id="rim2" cx="0" cy="0" r="3.5"/>
                <g id="zoomPlus">
                        <use xlink:href="#rim" fill="#404040">
                                <set attributeName="fill" to="#808080" begin="zoomplus.mouseover" end="zoomplus.mouseout"/>
                        </use>
                        <path d="M-4,0h8M0,-4v8" fill="none" stroke="white" stroke-width="1.5" pointer-events="none"/>
                </g>
                <g id="zoomMin">
                        <use xlink:href="#rim" fill="#404040">
                                <set attributeName="fill" to="#808080" begin="zoomminus.mouseover" end="zoomminus.mouseout"/>
                        </use>
                        <path d="M-4,0h8" fill="none" stroke="white" stroke-width="1.5" pointer-events="none"/>
                </g>
                <g id="dirArrow">
                        <path fill="none" stroke="white" stroke-width="1.5" d="M0,-3.0v7 M-2.5,-0.5L0,-3.0L2.5,-0.5"/>
                </g>
               <g id="resetDef">
                       <use xlink:href="#rim2" fill="#404040">
                               <set attributeName="fill" to="#808080" begin="reset.mouseover" end="reset.mouseout"/>
                       </use>
               </g>
        </defs>

<script type="text/javascript">
var viewWidth = 304;
var viewHeight = 625;
var sectionId = 'dynsection-1';
</script>
<script xlink:href="svgpan.js"/>
<svg id="graph" class="graph">
<g id="viewport">
<title>Catch::Matchers::Floating::WithinAbsMatcher</title>
<polygon fill="white" stroke="transparent" points="-4,4 -4,-621 299.5,-621 299.5,4 -4,4"/>
<!-- Node1 -->
<g id="node1" class="node">
<title>Node1</title>
<g id="a_node1"><a xlink:title=" ">
<polygon fill="#bfbfbf" stroke="black" points="82,-0.5 82,-123.5 223,-123.5 223,-0.5 82,-0.5"/>
<text text-anchor="start" x="90" y="-111.5" font-family="Helvetica,sans-Serif" font-size="10.00">Catch::Matchers::Floating</text>
<text text-anchor="middle" x="152.5" y="-100.5" font-family="Helvetica,sans-Serif" font-size="10.00">::WithinAbsMatcher</text>
<polyline fill="none" stroke="black" points="82,-93.5 223,-93.5 "/>
<text text-anchor="middle" x="152.5" y="-81.5" font-family="Helvetica,sans-Serif" font-size="10.00"> </text>
<polyline fill="none" stroke="black" points="82,-74.5 223,-74.5 "/>
<text text-anchor="start" x="90" y="-62.5" font-family="Helvetica,sans-Serif" font-size="10.00">+ WithinAbsMatcher()</text>
<text text-anchor="start" x="90" y="-51.5" font-family="Helvetica,sans-Serif" font-size="10.00">+ match()</text>
<text text-anchor="start" x="90" y="-40.5" font-family="Helvetica,sans-Serif" font-size="10.00">+ describe()</text>
<text text-anchor="start" x="90" y="-29.5" font-family="Helvetica,sans-Serif" font-size="10.00">+ WithinAbsMatcher()</text>
<text text-anchor="start" x="90" y="-18.5" font-family="Helvetica,sans-Serif" font-size="10.00">+ match()</text>
<text text-anchor="start" x="90" y="-7.5" font-family="Helvetica,sans-Serif" font-size="10.00">+ describe()</text>
</a>
</g>
</g>
<!-- Node2 -->
<g id="node2" class="node">
<title>Node2</title>
<g id="a_node2"><a xlink:href="struct_catch_1_1_matchers_1_1_impl_1_1_matcher_base.html" target="_top" xlink:title=" ">
<polygon fill="white" stroke="black" points="81.5,-161.5 81.5,-284.5 223.5,-284.5 223.5,-161.5 81.5,-161.5"/>
<text text-anchor="start" x="89.5" y="-272.5" font-family="Helvetica,sans-Serif" font-size="10.00">Catch::Matchers::Impl</text>
<text text-anchor="middle" x="152.5" y="-261.5" font-family="Helvetica,sans-Serif" font-size="10.00">::MatcherBase&lt; double &gt;</text>
<polyline fill="none" stroke="black" points="81.5,-254.5 223.5,-254.5 "/>
<text text-anchor="middle" x="152.5" y="-242.5" font-family="Helvetica,sans-Serif" font-size="10.00"> </text>
<polyline fill="none" stroke="black" points="81.5,-235.5 223.5,-235.5 "/>
<text text-anchor="start" x="89.5" y="-223.5" font-family="Helvetica,sans-Serif" font-size="10.00">+ operator&amp;&amp;()</text>
<text text-anchor="start" x="89.5" y="-212.5" font-family="Helvetica,sans-Serif" font-size="10.00">+ operator||()</text>
<text text-anchor="start" x="89.5" y="-201.5" font-family="Helvetica,sans-Serif" font-size="10.00">+ operator!()</text>
<text text-anchor="start" x="89.5" y="-190.5" font-family="Helvetica,sans-Serif" font-size="10.00">+ operator&amp;&amp;()</text>
<text text-anchor="start" x="89.5" y="-179.5" font-family="Helvetica,sans-Serif" font-size="10.00">+ operator||()</text>
<text text-anchor="start" x="89.5" y="-168.5" font-family="Helvetica,sans-Serif" font-size="10.00">+ operator!()</text>
</a>
</g>
</g>
<!-- Node2&#45;&gt;Node1 -->
<g id="edge1" class="edge">
<title>Node2&#45;&gt;Node1</title>
<path fill="none" stroke="midnightblue" d="M152.5,-151.17C152.5,-141.99 152.5,-132.65 152.5,-123.66"/>
<polygon fill="none" stroke="midnightblue" points="149,-151.44 152.5,-161.44 156,-151.44 149,-151.44"/>
</g>
<!-- Node3 -->
<g id="node3" class="node">
<title>Node3</title>
<g id="a_node3"><a xlink:href="class_catch_1_1_matchers_1_1_impl_1_1_matcher_untyped_base.html" target="_top" xlink:title=" ">
<polygon fill="white" stroke="black" points="0,-322.5 0,-511.5 149,-511.5 149,-322.5 0,-322.5"/>
<text text-anchor="start" x="8" y="-499.5" font-family="Helvetica,sans-Serif" font-size="10.00">Catch::Matchers::Impl</text>
<text text-anchor="middle" x="74.5" y="-488.5" font-family="Helvetica,sans-Serif" font-size="10.00">::MatcherUntypedBase</text>
<polyline fill="none" stroke="black" points="0,-481.5 149,-481.5 "/>
<text text-anchor="middle" x="74.5" y="-469.5" font-family="Helvetica,sans-Serif" font-size="10.00"> </text>
<polyline fill="none" stroke="black" points="0,-462.5 149,-462.5 "/>
<text text-anchor="start" x="8" y="-450.5" font-family="Helvetica,sans-Serif" font-size="10.00">+ MatcherUntypedBase()</text>
<text text-anchor="start" x="8" y="-439.5" font-family="Helvetica,sans-Serif" font-size="10.00">+ MatcherUntypedBase()</text>
<text text-anchor="start" x="8" y="-428.5" font-family="Helvetica,sans-Serif" font-size="10.00">+ operator=()</text>
<text text-anchor="start" x="8" y="-417.5" font-family="Helvetica,sans-Serif" font-size="10.00">+ toString()</text>
<text text-anchor="start" x="8" y="-406.5" font-family="Helvetica,sans-Serif" font-size="10.00">+ MatcherUntypedBase()</text>
<text text-anchor="start" x="8" y="-395.5" font-family="Helvetica,sans-Serif" font-size="10.00">+ MatcherUntypedBase()</text>
<text text-anchor="start" x="8" y="-384.5" font-family="Helvetica,sans-Serif" font-size="10.00">+ operator=()</text>
<text text-anchor="start" x="8" y="-373.5" font-family="Helvetica,sans-Serif" font-size="10.00">+ toString()</text>
<text text-anchor="start" x="8" y="-362.5" font-family="Helvetica,sans-Serif" font-size="10.00"># ~MatcherUntypedBase()</text>
<text text-anchor="start" x="8" y="-351.5" font-family="Helvetica,sans-Serif" font-size="10.00"># describe()</text>
<text text-anchor="start" x="8" y="-340.5" font-family="Helvetica,sans-Serif" font-size="10.00"># ~MatcherUntypedBase()</text>
<text text-anchor="start" x="8" y="-329.5" font-family="Helvetica,sans-Serif" font-size="10.00"># describe()</text>
</a>
</g>
</g>
<!-- Node3&#45;&gt;Node2 -->
<g id="edge2" class="edge">
<title>Node3&#45;&gt;Node2</title>
<path fill="none" stroke="midnightblue" d="M116.47,-312.69C120.35,-303.14 124.19,-293.7 127.83,-284.73"/>
<polygon fill="none" stroke="midnightblue" points="113.11,-311.67 112.59,-322.25 119.59,-314.3 113.11,-311.67"/>
</g>
<!-- Node4 -->
<g id="node4" class="node">
<title>Node4</title>
<g id="a_node4"><a xlink:title=" ">
<polygon fill="white" stroke="#bfbfbf" points="52.5,-559.5 52.5,-616.5 96.5,-616.5 96.5,-559.5 52.5,-559.5"/>
<text text-anchor="middle" x="74.5" y="-604.5" font-family="Helvetica,sans-Serif" font-size="10.00">string</text>
<polyline fill="none" stroke="#bfbfbf" points="52.5,-597.5 96.5,-597.5 "/>
<text text-anchor="middle" x="74.5" y="-585.5" font-family="Helvetica,sans-Serif" font-size="10.00"> </text>
<polyline fill="none" stroke="#bfbfbf" points="52.5,-578.5 96.5,-578.5 "/>
<text text-anchor="middle" x="74.5" y="-566.5" font-family="Helvetica,sans-Serif" font-size="10.00"> </text>
</a>
</g>
</g>
<!-- Node4&#45;&gt;Node3 -->
<g id="edge3" class="edge">
<title>Node4&#45;&gt;Node3</title>
<path fill="none" stroke="#404040" d="M74.5,-559.47C74.5,-549.23 74.5,-536.9 74.5,-523.84"/>
<polygon fill="none" stroke="#404040" points="74.5,-523.69 70.5,-517.69 74.5,-511.69 78.5,-517.69 74.5,-523.69"/>
<text text-anchor="middle" x="124.5" y="-533" font-family="Helvetica,sans-Serif" font-size="10.00"> #m_cachedToString</text>
</g>
<!-- Node5 -->
<g id="node5" class="node">
<title>Node5</title>
<g id="a_node5"><a xlink:href="struct_catch_1_1_matchers_1_1_impl_1_1_matcher_method.html" target="_top" xlink:title=" ">
<polygon fill="white" stroke="black" points="167.5,-377.5 167.5,-456.5 295.5,-456.5 295.5,-377.5 167.5,-377.5"/>
<text text-anchor="start" x="175.5" y="-444.5" font-family="Helvetica,sans-Serif" font-size="10.00">Catch::Matchers::Impl</text>
<text text-anchor="middle" x="231.5" y="-433.5" font-family="Helvetica,sans-Serif" font-size="10.00">::MatcherMethod&lt; T &gt;</text>
<polyline fill="none" stroke="black" points="167.5,-426.5 295.5,-426.5 "/>
<text text-anchor="middle" x="231.5" y="-414.5" font-family="Helvetica,sans-Serif" font-size="10.00"> </text>
<polyline fill="none" stroke="black" points="167.5,-407.5 295.5,-407.5 "/>
<text text-anchor="start" x="175.5" y="-395.5" font-family="Helvetica,sans-Serif" font-size="10.00">+ match()</text>
<text text-anchor="start" x="175.5" y="-384.5" font-family="Helvetica,sans-Serif" font-size="10.00">+ match()</text>
</a>
</g>
</g>
<!-- Node5&#45;&gt;Node2 -->
<g id="edge4" class="edge">
<title>Node5&#45;&gt;Node2</title>
<path fill="none" stroke="midnightblue" d="M211.67,-367.8C201.31,-342.62 188.52,-311.54 177.49,-284.73"/>
<polygon fill="none" stroke="midnightblue" points="208.47,-369.23 215.51,-377.15 214.94,-366.57 208.47,-369.23"/>
</g>
</g>
</svg>
        <g id="navigator" transform="translate(0 0)" fill="#404254">
                <rect fill="#f2f5e9" fill-opacity="0.5" stroke="#606060" stroke-width=".5" x="0" y="0" width="60" height="60"/>
                <use id="zoomplus" xlink:href="#zoomPlus" x="17" y="9" onmousedown="handleZoom(evt,'in')"/>
                <use id="zoomminus" xlink:href="#zoomMin" x="42" y="9" onmousedown="handleZoom(evt,'out')"/>
                <use id="reset" xlink:href="#resetDef" x="30" y="36" onmousedown="handleReset()"/>
                <g id="arrowUp" xlink:href="#dirArrow" transform="translate(30 24)" onmousedown="handlePan(0,-1)">
                  <use xlink:href="#rim" fill="#404040">
                        <set attributeName="fill" to="#808080" begin="arrowUp.mouseover" end="arrowUp.mouseout"/>
                  </use>
                  <path fill="none" stroke="white" stroke-width="1.5" d="M0,-3.0v7 M-2.5,-0.5L0,-3.0L2.5,-0.5"/>
                </g>
                <g id="arrowRight" xlink:href="#dirArrow" transform="rotate(90) translate(36 -43)" onmousedown="handlePan(1,0)">
                  <use xlink:href="#rim" fill="#404040">
                        <set attributeName="fill" to="#808080" begin="arrowRight.mouseover" end="arrowRight.mouseout"/>
                  </use>
                  <path fill="none" stroke="white" stroke-width="1.5" d="M0,-3.0v7 M-2.5,-0.5L0,-3.0L2.5,-0.5"/>
                </g>
                <g id="arrowDown" xlink:href="#dirArrow" transform="rotate(180) translate(-30 -48)" onmousedown="handlePan(0,1)">
                  <use xlink:href="#rim" fill="#404040">
                        <set attributeName="fill" to="#808080" begin="arrowDown.mouseover" end="arrowDown.mouseout"/>
                  </use>
                  <path fill="none" stroke="white" stroke-width="1.5" d="M0,-3.0v7 M-2.5,-0.5L0,-3.0L2.5,-0.5"/>
                </g>
                <g id="arrowLeft" xlink:href="#dirArrow" transform="rotate(270) translate(-36 17)" onmousedown="handlePan(-1,0)">
                  <use xlink:href="#rim" fill="#404040">
                        <set attributeName="fill" to="#808080" begin="arrowLeft.mouseover" end="arrowLeft.mouseout"/>
                  </use>
                  <path fill="none" stroke="white" stroke-width="1.5" d="M0,-3.0v7 M-2.5,-0.5L0,-3.0L2.5,-0.5"/>
                </g>
        </g>
        <svg viewBox="0 0 15 15" width="100%" height="30px" preserveAspectRatio="xMaxYMin meet">
         <g id="arrow_out" transform="scale(0.3 0.3)">
          <a xlink:href="struct_catch_1_1_matchers_1_1_floating_1_1_within_abs_matcher__coll__graph_org.svg" target="_base">
           <rect id="button" ry="5" rx="5" y="6" x="6" height="38" width="38"
                fill="#f2f5e9" fill-opacity="0.5" stroke="#606060" stroke-width="1.0"/>
           <path id="arrow"
             d="M 11.500037,31.436501 C 11.940474,20.09759 22.043105,11.32322 32.158766,21.979434 L 37.068811,17.246167 C 37.068811,17.246167 37.088388,32 37.088388,32 L 22.160133,31.978069 C 22.160133,31.978069 26.997745,27.140456 26.997745,27.140456 C 18.528582,18.264221 13.291696,25.230495 11.500037,31.436501 z"
             style="fill:#404040;"/>
          </a>
         </g>
        </svg>
</svg>
