<?xml version="1.0" encoding="UTF-8" standalone="no"?>
<!DOCTYPE svg PUBLIC "-//W3C//DTD SVG 1.1//EN"
 "http://www.w3.org/Graphics/SVG/1.1/DTD/svg11.dtd">
<!-- Generated by graphviz version 2.43.0 (0)
 -->
<!-- Title: Catch::Matchers::Vector::ApproxMatcher&lt; T, AllocComp, AllocMatch &gt; Pages: 1 -->
<svg width="514pt" height="778pt"
 viewBox="0.00 0.00 514.00 778.00" xmlns="http://www.w3.org/2000/svg" xmlns:xlink="http://www.w3.org/1999/xlink">
<g id="graph0" class="graph" transform="scale(1 1) rotate(0) translate(4 774)">
<title>Catch::Matchers::Vector::ApproxMatcher&lt; T, AllocComp, AllocMatch &gt;</title>
<polygon fill="white" stroke="transparent" points="-4,4 -4,-774 510,-774 510,4 -4,4"/>
<!-- Node1 -->
<g id="node1" class="node">
<title>Node1</title>
<g id="a_node1"><a xlink:title=" ">
<polygon fill="#bfbfbf" stroke="black" points="216.5,-0.5 216.5,-200.5 392.5,-200.5 392.5,-0.5 216.5,-0.5"/>
<text text-anchor="start" x="224.5" y="-188.5" font-family="Helvetica,sans-Serif" font-size="10.00">Catch::Matchers::Vector</text>
<text text-anchor="start" x="224.5" y="-177.5" font-family="Helvetica,sans-Serif" font-size="10.00">::ApproxMatcher&lt; T, AllocComp,</text>
<text text-anchor="middle" x="304.5" y="-166.5" font-family="Helvetica,sans-Serif" font-size="10.00"> AllocMatch &gt;</text>
<polyline fill="none" stroke="black" points="216.5,-159.5 392.5,-159.5 "/>
<text text-anchor="middle" x="304.5" y="-147.5" font-family="Helvetica,sans-Serif" font-size="10.00"> </text>
<polyline fill="none" stroke="black" points="216.5,-140.5 392.5,-140.5 "/>
<text text-anchor="start" x="224.5" y="-128.5" font-family="Helvetica,sans-Serif" font-size="10.00">+ ApproxMatcher()</text>
<text text-anchor="start" x="224.5" y="-117.5" font-family="Helvetica,sans-Serif" font-size="10.00">+ match()</text>
<text text-anchor="start" x="224.5" y="-106.5" font-family="Helvetica,sans-Serif" font-size="10.00">+ describe()</text>
<text text-anchor="start" x="224.5" y="-95.5" font-family="Helvetica,sans-Serif" font-size="10.00">+ epsilon()</text>
<text text-anchor="start" x="224.5" y="-84.5" font-family="Helvetica,sans-Serif" font-size="10.00">+ margin()</text>
<text text-anchor="start" x="224.5" y="-73.5" font-family="Helvetica,sans-Serif" font-size="10.00">+ scale()</text>
<text text-anchor="start" x="224.5" y="-62.5" font-family="Helvetica,sans-Serif" font-size="10.00">+ ApproxMatcher()</text>
<text text-anchor="start" x="224.5" y="-51.5" font-family="Helvetica,sans-Serif" font-size="10.00">+ match()</text>
<text text-anchor="start" x="224.5" y="-40.5" font-family="Helvetica,sans-Serif" font-size="10.00">+ describe()</text>
<text text-anchor="start" x="224.5" y="-29.5" font-family="Helvetica,sans-Serif" font-size="10.00">+ epsilon()</text>
<text text-anchor="start" x="224.5" y="-18.5" font-family="Helvetica,sans-Serif" font-size="10.00">+ margin()</text>
<text text-anchor="start" x="224.5" y="-7.5" font-family="Helvetica,sans-Serif" font-size="10.00">+ scale()</text>
</a>
</g>
</g>
<!-- Node2 -->
<g id="node2" class="node">
<title>Node2</title>
<g id="a_node2"><a xlink:href="struct_catch_1_1_matchers_1_1_impl_1_1_matcher_base.html" target="_top" xlink:title=" ">
<polygon fill="white" stroke="black" points="78,-276 78,-410 227,-410 227,-276 78,-276"/>
<text text-anchor="start" x="86" y="-398" font-family="Helvetica,sans-Serif" font-size="10.00">Catch::Matchers::Impl</text>
<text text-anchor="start" x="86" y="-387" font-family="Helvetica,sans-Serif" font-size="10.00">::MatcherBase&lt; std::vector</text>
<text text-anchor="middle" x="152.5" y="-376" font-family="Helvetica,sans-Serif" font-size="10.00">&lt; T, AllocMatch &gt; &gt;</text>
<polyline fill="none" stroke="black" points="78,-369 227,-369 "/>
<text text-anchor="middle" x="152.5" y="-357" font-family="Helvetica,sans-Serif" font-size="10.00"> </text>
<polyline fill="none" stroke="black" points="78,-350 227,-350 "/>
<text text-anchor="start" x="86" y="-338" font-family="Helvetica,sans-Serif" font-size="10.00">+ operator&amp;&amp;()</text>
<text text-anchor="start" x="86" y="-327" font-family="Helvetica,sans-Serif" font-size="10.00">+ operator||()</text>
<text text-anchor="start" x="86" y="-316" font-family="Helvetica,sans-Serif" font-size="10.00">+ operator!()</text>
<text text-anchor="start" x="86" y="-305" font-family="Helvetica,sans-Serif" font-size="10.00">+ operator&amp;&amp;()</text>
<text text-anchor="start" x="86" y="-294" font-family="Helvetica,sans-Serif" font-size="10.00">+ operator||()</text>
<text text-anchor="start" x="86" y="-283" font-family="Helvetica,sans-Serif" font-size="10.00">+ operator!()</text>
</a>
</g>
</g>
<!-- Node2&#45;&gt;Node1 -->
<g id="edge1" class="edge">
<title>Node2&#45;&gt;Node1</title>
<path fill="none" stroke="midnightblue" d="M199.66,-267.39C212.98,-246.31 227.69,-223.04 241.77,-200.76"/>
<polygon fill="none" stroke="midnightblue" points="196.62,-265.64 194.24,-275.96 202.54,-269.38 196.62,-265.64"/>
</g>
<!-- Node3 -->
<g id="node3" class="node">
<title>Node3</title>
<g id="a_node3"><a xlink:href="class_catch_1_1_matchers_1_1_impl_1_1_matcher_untyped_base.html" target="_top" xlink:title=" ">
<polygon fill="white" stroke="black" points="0,-475.5 0,-664.5 149,-664.5 149,-475.5 0,-475.5"/>
<text text-anchor="start" x="8" y="-652.5" font-family="Helvetica,sans-Serif" font-size="10.00">Catch::Matchers::Impl</text>
<text text-anchor="middle" x="74.5" y="-641.5" font-family="Helvetica,sans-Serif" font-size="10.00">::MatcherUntypedBase</text>
<polyline fill="none" stroke="black" points="0,-634.5 149,-634.5 "/>
<text text-anchor="middle" x="74.5" y="-622.5" font-family="Helvetica,sans-Serif" font-size="10.00"> </text>
<polyline fill="none" stroke="black" points="0,-615.5 149,-615.5 "/>
<text text-anchor="start" x="8" y="-603.5" font-family="Helvetica,sans-Serif" font-size="10.00">+ MatcherUntypedBase()</text>
<text text-anchor="start" x="8" y="-592.5" font-family="Helvetica,sans-Serif" font-size="10.00">+ MatcherUntypedBase()</text>
<text text-anchor="start" x="8" y="-581.5" font-family="Helvetica,sans-Serif" font-size="10.00">+ operator=()</text>
<text text-anchor="start" x="8" y="-570.5" font-family="Helvetica,sans-Serif" font-size="10.00">+ toString()</text>
<text text-anchor="start" x="8" y="-559.5" font-family="Helvetica,sans-Serif" font-size="10.00">+ MatcherUntypedBase()</text>
<text text-anchor="start" x="8" y="-548.5" font-family="Helvetica,sans-Serif" font-size="10.00">+ MatcherUntypedBase()</text>
<text text-anchor="start" x="8" y="-537.5" font-family="Helvetica,sans-Serif" font-size="10.00">+ operator=()</text>
<text text-anchor="start" x="8" y="-526.5" font-family="Helvetica,sans-Serif" font-size="10.00">+ toString()</text>
<text text-anchor="start" x="8" y="-515.5" font-family="Helvetica,sans-Serif" font-size="10.00"># ~MatcherUntypedBase()</text>
<text text-anchor="start" x="8" y="-504.5" font-family="Helvetica,sans-Serif" font-size="10.00"># describe()</text>
<text text-anchor="start" x="8" y="-493.5" font-family="Helvetica,sans-Serif" font-size="10.00"># ~MatcherUntypedBase()</text>
<text text-anchor="start" x="8" y="-482.5" font-family="Helvetica,sans-Serif" font-size="10.00"># describe()</text>
</a>
</g>
</g>
<!-- Node3&#45;&gt;Node2 -->
<g id="edge2" class="edge">
<title>Node3&#45;&gt;Node2</title>
<path fill="none" stroke="midnightblue" d="M110.31,-465.7C116.85,-446.85 123.5,-427.65 129.54,-410.24"/>
<polygon fill="none" stroke="midnightblue" points="106.98,-464.61 107.01,-475.21 113.6,-466.91 106.98,-464.61"/>
</g>
<!-- Node4 -->
<g id="node4" class="node">
<title>Node4</title>
<g id="a_node4"><a xlink:title=" ">
<polygon fill="white" stroke="#bfbfbf" points="52.5,-712.5 52.5,-769.5 96.5,-769.5 96.5,-712.5 52.5,-712.5"/>
<text text-anchor="middle" x="74.5" y="-757.5" font-family="Helvetica,sans-Serif" font-size="10.00">string</text>
<polyline fill="none" stroke="#bfbfbf" points="52.5,-750.5 96.5,-750.5 "/>
<text text-anchor="middle" x="74.5" y="-738.5" font-family="Helvetica,sans-Serif" font-size="10.00"> </text>
<polyline fill="none" stroke="#bfbfbf" points="52.5,-731.5 96.5,-731.5 "/>
<text text-anchor="middle" x="74.5" y="-719.5" font-family="Helvetica,sans-Serif" font-size="10.00"> </text>
</a>
</g>
</g>
<!-- Node4&#45;&gt;Node3 -->
<g id="edge3" class="edge">
<title>Node4&#45;&gt;Node3</title>
<path fill="none" stroke="#404040" d="M74.5,-712.47C74.5,-702.23 74.5,-689.9 74.5,-676.84"/>
<polygon fill="none" stroke="#404040" points="74.5,-676.69 70.5,-670.69 74.5,-664.69 78.5,-670.69 74.5,-676.69"/>
<text text-anchor="middle" x="124.5" y="-686" font-family="Helvetica,sans-Serif" font-size="10.00"> #m_cachedToString</text>
</g>
<!-- Node5 -->
<g id="node5" class="node">
<title>Node5</title>
<g id="a_node5"><a xlink:href="struct_catch_1_1_matchers_1_1_impl_1_1_matcher_method.html" target="_top" xlink:title=" ">
<polygon fill="white" stroke="black" points="167.5,-530.5 167.5,-609.5 295.5,-609.5 295.5,-530.5 167.5,-530.5"/>
<text text-anchor="start" x="175.5" y="-597.5" font-family="Helvetica,sans-Serif" font-size="10.00">Catch::Matchers::Impl</text>
<text text-anchor="middle" x="231.5" y="-586.5" font-family="Helvetica,sans-Serif" font-size="10.00">::MatcherMethod&lt; T &gt;</text>
<polyline fill="none" stroke="black" points="167.5,-579.5 295.5,-579.5 "/>
<text text-anchor="middle" x="231.5" y="-567.5" font-family="Helvetica,sans-Serif" font-size="10.00"> </text>
<polyline fill="none" stroke="black" points="167.5,-560.5 295.5,-560.5 "/>
<text text-anchor="start" x="175.5" y="-548.5" font-family="Helvetica,sans-Serif" font-size="10.00">+ match()</text>
<text text-anchor="start" x="175.5" y="-537.5" font-family="Helvetica,sans-Serif" font-size="10.00">+ match()</text>
</a>
</g>
</g>
<!-- Node5&#45;&gt;Node2 -->
<g id="edge4" class="edge">
<title>Node5&#45;&gt;Node2</title>
<path fill="none" stroke="midnightblue" d="M214.54,-520.68C203.23,-488.48 188.22,-445.72 175.79,-410.34"/>
<polygon fill="none" stroke="midnightblue" points="211.3,-522.05 217.92,-530.32 217.91,-519.73 211.3,-522.05"/>
</g>
<!-- Node6 -->
<g id="node6" class="node">
<title>Node6</title>
<g id="a_node6"><a xlink:href="class_catch_1_1_detail_1_1_approx.html" target="_top" xlink:title=" ">
<polygon fill="white" stroke="black" points="244.5,-248.5 244.5,-437.5 364.5,-437.5 364.5,-248.5 244.5,-248.5"/>
<text text-anchor="middle" x="304.5" y="-425.5" font-family="Helvetica,sans-Serif" font-size="10.00">Catch::Detail::Approx</text>
<polyline fill="none" stroke="black" points="244.5,-418.5 364.5,-418.5 "/>
<text text-anchor="middle" x="304.5" y="-406.5" font-family="Helvetica,sans-Serif" font-size="10.00"> </text>
<polyline fill="none" stroke="black" points="244.5,-399.5 364.5,-399.5 "/>
<text text-anchor="start" x="252.5" y="-387.5" font-family="Helvetica,sans-Serif" font-size="10.00">+ Approx()</text>
<text text-anchor="start" x="252.5" y="-376.5" font-family="Helvetica,sans-Serif" font-size="10.00">+ operator&#45;()</text>
<text text-anchor="start" x="252.5" y="-365.5" font-family="Helvetica,sans-Serif" font-size="10.00">+ operator()()</text>
<text text-anchor="start" x="252.5" y="-354.5" font-family="Helvetica,sans-Serif" font-size="10.00">+ Approx()</text>
<text text-anchor="start" x="252.5" y="-343.5" font-family="Helvetica,sans-Serif" font-size="10.00">+ epsilon()</text>
<text text-anchor="start" x="252.5" y="-332.5" font-family="Helvetica,sans-Serif" font-size="10.00">+ margin()</text>
<text text-anchor="start" x="252.5" y="-321.5" font-family="Helvetica,sans-Serif" font-size="10.00">+ scale()</text>
<text text-anchor="start" x="252.5" y="-310.5" font-family="Helvetica,sans-Serif" font-size="10.00">+ toString()</text>
<text text-anchor="start" x="252.5" y="-299.5" font-family="Helvetica,sans-Serif" font-size="10.00">+ Approx()</text>
<text text-anchor="start" x="252.5" y="-288.5" font-family="Helvetica,sans-Serif" font-size="10.00">+ operator&#45;()</text>
<text text-anchor="start" x="252.5" y="-277.5" font-family="Helvetica,sans-Serif" font-size="10.00">and 6 more...</text>
<text text-anchor="start" x="252.5" y="-266.5" font-family="Helvetica,sans-Serif" font-size="10.00">+ custom()</text>
<text text-anchor="start" x="252.5" y="-255.5" font-family="Helvetica,sans-Serif" font-size="10.00">+ custom()</text>
</a>
</g>
</g>
<!-- Node6&#45;&gt;Node1 -->
<g id="edge5" class="edge">
<title>Node6&#45;&gt;Node1</title>
<path fill="none" stroke="#404040" d="M304.5,-248.33C304.5,-236.78 304.5,-224.88 304.5,-213.1"/>
<polygon fill="none" stroke="#404040" points="304.5,-212.88 300.5,-206.88 304.5,-200.88 308.5,-206.88 304.5,-212.88"/>
<text text-anchor="middle" x="327.5" y="-222" font-family="Helvetica,sans-Serif" font-size="10.00"> +approx</text>
</g>
<!-- Node7 -->
<g id="node7" class="node">
<title>Node7</title>
<g id="a_node7"><a xlink:title=" ">
<polygon fill="white" stroke="#bfbfbf" points="383,-309 383,-377 506,-377 506,-309 383,-309"/>
<text text-anchor="start" x="391" y="-365" font-family="Helvetica,sans-Serif" font-size="10.00">vector&lt; T, AllocComp</text>
<text text-anchor="middle" x="444.5" y="-354" font-family="Helvetica,sans-Serif" font-size="10.00"> &gt; const &amp;</text>
<polyline fill="none" stroke="#bfbfbf" points="383,-347 506,-347 "/>
<text text-anchor="middle" x="444.5" y="-335" font-family="Helvetica,sans-Serif" font-size="10.00"> </text>
<polyline fill="none" stroke="#bfbfbf" points="383,-328 506,-328 "/>
<text text-anchor="middle" x="444.5" y="-316" font-family="Helvetica,sans-Serif" font-size="10.00"> </text>
</a>
</g>
</g>
<!-- Node7&#45;&gt;Node1 -->
<g id="edge6" class="edge">
<title>Node7&#45;&gt;Node1</title>
<path fill="none" stroke="#404040" d="M425.18,-308.81C410.33,-283.3 388.92,-246.53 368.25,-211.01"/>
<polygon fill="none" stroke="#404040" points="368.19,-210.92 361.72,-207.74 362.16,-200.55 368.63,-203.72 368.19,-210.92"/>
<text text-anchor="middle" x="420" y="-222" font-family="Helvetica,sans-Serif" font-size="10.00"> +m_comparator</text>
</g>
</g>
</svg>
