<?xml version="1.0" encoding="UTF-8" standalone="no"?>
<!DOCTYPE svg PUBLIC "-//W3C//DTD SVG 1.1//EN"
 "http://www.w3.org/Graphics/SVG/1.1/DTD/svg11.dtd">
<!-- Generated by graphviz version 2.43.0 (0)
 -->
<!-- Title: clara::detail::BoundValueRef&lt; std::vector&lt; T &gt; &gt; Pages: 1 -->
<!--zoomable 471 -->
<svg id="main" version="1.1" xmlns="http://www.w3.org/2000/svg" xmlns:xlink="http://www.w3.org/1999/xlink" xml:space="preserve" onload="init(evt)">
<style type="text/css"><![CDATA[
.edge:hover path { stroke: red; }
.edge:hover polygon { stroke: red; fill: red; }
]]></style>
<script type="text/javascript"><![CDATA[
var edges = document.getElementsByTagName('g');
if (edges && edges.length) {
  for (var i=0;i<edges.length;i++) {
    if (edges[i].id.substr(0,4)=='edge') {
      edges[i].setAttribute('class','edge');
    }
  }
}
]]></script>
        <defs>
                <circle id="rim" cx="0" cy="0" r="7"/>
                <circle id="rim2" cx="0" cy="0" r="3.5"/>
                <g id="zoomPlus">
                        <use xlink:href="#rim" fill="#404040">
                                <set attributeName="fill" to="#808080" begin="zoomplus.mouseover" end="zoomplus.mouseout"/>
                        </use>
                        <path d="M-4,0h8M0,-4v8" fill="none" stroke="white" stroke-width="1.5" pointer-events="none"/>
                </g>
                <g id="zoomMin">
                        <use xlink:href="#rim" fill="#404040">
                                <set attributeName="fill" to="#808080" begin="zoomminus.mouseover" end="zoomminus.mouseout"/>
                        </use>
                        <path d="M-4,0h8" fill="none" stroke="white" stroke-width="1.5" pointer-events="none"/>
                </g>
                <g id="dirArrow">
                        <path fill="none" stroke="white" stroke-width="1.5" d="M0,-3.0v7 M-2.5,-0.5L0,-3.0L2.5,-0.5"/>
                </g>
               <g id="resetDef">
                       <use xlink:href="#rim2" fill="#404040">
                               <set attributeName="fill" to="#808080" begin="reset.mouseover" end="reset.mouseout"/>
                       </use>
               </g>
        </defs>

<script type="text/javascript">
var viewWidth = 254;
var viewHeight = 471;
var sectionId = 'dynsection-1';
</script>
<script xlink:href="svgpan.js"/>
<svg id="graph" class="graph">
<g id="viewport">
<title>clara::detail::BoundValueRef&lt; std::vector&lt; T &gt; &gt;</title>
<polygon fill="white" stroke="transparent" points="-4,4 -4,-467 250,-467 250,4 -4,4"/>
<!-- Node1 -->
<g id="node1" class="node">
<title>Node1</title>
<g id="a_node1"><a xlink:title=" ">
<polygon fill="#bfbfbf" stroke="black" points="101,-0.5 101,-90.5 239,-90.5 239,-0.5 101,-0.5"/>
<text text-anchor="start" x="109" y="-78.5" font-family="Helvetica,sans-Serif" font-size="10.00">clara::detail::BoundValue</text>
<text text-anchor="middle" x="170" y="-67.5" font-family="Helvetica,sans-Serif" font-size="10.00">Ref&lt; std::vector&lt; T &gt; &gt;</text>
<polyline fill="none" stroke="black" points="101,-60.5 239,-60.5 "/>
<text text-anchor="middle" x="170" y="-48.5" font-family="Helvetica,sans-Serif" font-size="10.00"> </text>
<polyline fill="none" stroke="black" points="101,-41.5 239,-41.5 "/>
<text text-anchor="start" x="109" y="-29.5" font-family="Helvetica,sans-Serif" font-size="10.00">+ BoundValueRef()</text>
<text text-anchor="start" x="109" y="-18.5" font-family="Helvetica,sans-Serif" font-size="10.00">+ isContainer()</text>
<text text-anchor="start" x="109" y="-7.5" font-family="Helvetica,sans-Serif" font-size="10.00">+ setValue()</text>
</a>
</g>
</g>
<!-- Node2 -->
<g id="node2" class="node">
<title>Node2</title>
<g id="a_node2"><a xlink:href="structclara_1_1detail_1_1_bound_value_ref_base.html" target="_top" xlink:title=" ">
<polygon fill="white" stroke="black" points="4,-138.5 4,-206.5 142,-206.5 142,-138.5 4,-138.5"/>
<text text-anchor="start" x="12" y="-194.5" font-family="Helvetica,sans-Serif" font-size="10.00">clara::detail::BoundValue</text>
<text text-anchor="middle" x="73" y="-183.5" font-family="Helvetica,sans-Serif" font-size="10.00">RefBase</text>
<polyline fill="none" stroke="black" points="4,-176.5 142,-176.5 "/>
<text text-anchor="middle" x="73" y="-164.5" font-family="Helvetica,sans-Serif" font-size="10.00"> </text>
<polyline fill="none" stroke="black" points="4,-157.5 142,-157.5 "/>
<text text-anchor="start" x="12" y="-145.5" font-family="Helvetica,sans-Serif" font-size="10.00">+ setValue()</text>
</a>
</g>
</g>
<!-- Node2&#45;&gt;Node1 -->
<g id="edge1" class="edge">
<title>Node2&#45;&gt;Node1</title>
<path fill="none" stroke="midnightblue" d="M105.04,-130.21C114.88,-117.53 125.75,-103.53 135.73,-90.66"/>
<polygon fill="none" stroke="midnightblue" points="102.11,-128.28 98.74,-138.33 107.64,-132.58 102.11,-128.28"/>
</g>
<!-- Node3 -->
<g id="node3" class="node">
<title>Node3</title>
<g id="a_node3"><a xlink:href="structclara_1_1detail_1_1_bound_ref.html" target="_top" xlink:title=" ">
<polygon fill="white" stroke="black" points="9,-244.5 9,-323.5 137,-323.5 137,-244.5 9,-244.5"/>
<text text-anchor="middle" x="73" y="-311.5" font-family="Helvetica,sans-Serif" font-size="10.00">clara::detail::BoundRef</text>
<polyline fill="none" stroke="black" points="9,-304.5 137,-304.5 "/>
<text text-anchor="middle" x="73" y="-292.5" font-family="Helvetica,sans-Serif" font-size="10.00"> </text>
<polyline fill="none" stroke="black" points="9,-285.5 137,-285.5 "/>
<text text-anchor="start" x="17" y="-273.5" font-family="Helvetica,sans-Serif" font-size="10.00">+ ~BoundRef()</text>
<text text-anchor="start" x="17" y="-262.5" font-family="Helvetica,sans-Serif" font-size="10.00">+ isContainer()</text>
<text text-anchor="start" x="17" y="-251.5" font-family="Helvetica,sans-Serif" font-size="10.00">+ isFlag()</text>
</a>
</g>
</g>
<!-- Node3&#45;&gt;Node2 -->
<g id="edge2" class="edge">
<title>Node3&#45;&gt;Node2</title>
<path fill="none" stroke="midnightblue" d="M73,-234.38C73,-225.02 73,-215.41 73,-206.67"/>
<polygon fill="none" stroke="midnightblue" points="69.5,-234.39 73,-244.39 76.5,-234.39 69.5,-234.39"/>
</g>
<!-- Node4 -->
<g id="node4" class="node">
<title>Node4</title>
<g id="a_node4"><a xlink:href="structclara_1_1detail_1_1_non_copyable.html" target="_top" xlink:title=" ">
<polygon fill="white" stroke="black" points="0,-361.5 0,-462.5 146,-462.5 146,-361.5 0,-361.5"/>
<text text-anchor="middle" x="73" y="-450.5" font-family="Helvetica,sans-Serif" font-size="10.00">clara::detail::NonCopyable</text>
<polyline fill="none" stroke="black" points="0,-443.5 146,-443.5 "/>
<text text-anchor="middle" x="73" y="-431.5" font-family="Helvetica,sans-Serif" font-size="10.00"> </text>
<polyline fill="none" stroke="black" points="0,-424.5 146,-424.5 "/>
<text text-anchor="start" x="8" y="-412.5" font-family="Helvetica,sans-Serif" font-size="10.00">+ NonCopyable()</text>
<text text-anchor="start" x="8" y="-401.5" font-family="Helvetica,sans-Serif" font-size="10.00">+ NonCopyable()</text>
<text text-anchor="start" x="8" y="-390.5" font-family="Helvetica,sans-Serif" font-size="10.00">+ NonCopyable()</text>
<text text-anchor="start" x="8" y="-379.5" font-family="Helvetica,sans-Serif" font-size="10.00">+ operator=()</text>
<text text-anchor="start" x="8" y="-368.5" font-family="Helvetica,sans-Serif" font-size="10.00">+ operator=()</text>
</a>
</g>
</g>
<!-- Node4&#45;&gt;Node3 -->
<g id="edge3" class="edge">
<title>Node4&#45;&gt;Node3</title>
<path fill="none" stroke="midnightblue" d="M73,-351.11C73,-341.74 73,-332.28 73,-323.56"/>
<polygon fill="none" stroke="midnightblue" points="69.5,-351.2 73,-361.2 76.5,-351.2 69.5,-351.2"/>
</g>
<!-- Node5 -->
<g id="node5" class="node">
<title>Node5</title>
<g id="a_node5"><a xlink:title=" ">
<polygon fill="white" stroke="#bfbfbf" points="160,-144 160,-201 246,-201 246,-144 160,-144"/>
<text text-anchor="middle" x="203" y="-189" font-family="Helvetica,sans-Serif" font-size="10.00">vector&lt; T &gt; &amp;</text>
<polyline fill="none" stroke="#bfbfbf" points="160,-182 246,-182 "/>
<text text-anchor="middle" x="203" y="-170" font-family="Helvetica,sans-Serif" font-size="10.00"> </text>
<polyline fill="none" stroke="#bfbfbf" points="160,-163 246,-163 "/>
<text text-anchor="middle" x="203" y="-151" font-family="Helvetica,sans-Serif" font-size="10.00"> </text>
</a>
</g>
</g>
<!-- Node5&#45;&gt;Node1 -->
<g id="edge4" class="edge">
<title>Node5&#45;&gt;Node1</title>
<path fill="none" stroke="#404040" d="M195.68,-143.76C192.47,-131.62 188.59,-116.92 184.83,-102.66"/>
<polygon fill="none" stroke="#404040" points="184.77,-102.46 179.37,-97.68 181.71,-90.86 187.11,-95.64 184.77,-102.46"/>
<text text-anchor="middle" x="208" y="-112" font-family="Helvetica,sans-Serif" font-size="10.00"> +m_ref</text>
</g>
</g>
</svg>
        <g id="navigator" transform="translate(0 0)" fill="#404254">
                <rect fill="#f2f5e9" fill-opacity="0.5" stroke="#606060" stroke-width=".5" x="0" y="0" width="60" height="60"/>
                <use id="zoomplus" xlink:href="#zoomPlus" x="17" y="9" onmousedown="handleZoom(evt,'in')"/>
                <use id="zoomminus" xlink:href="#zoomMin" x="42" y="9" onmousedown="handleZoom(evt,'out')"/>
                <use id="reset" xlink:href="#resetDef" x="30" y="36" onmousedown="handleReset()"/>
                <g id="arrowUp" xlink:href="#dirArrow" transform="translate(30 24)" onmousedown="handlePan(0,-1)">
                  <use xlink:href="#rim" fill="#404040">
                        <set attributeName="fill" to="#808080" begin="arrowUp.mouseover" end="arrowUp.mouseout"/>
                  </use>
                  <path fill="none" stroke="white" stroke-width="1.5" d="M0,-3.0v7 M-2.5,-0.5L0,-3.0L2.5,-0.5"/>
                </g>
                <g id="arrowRight" xlink:href="#dirArrow" transform="rotate(90) translate(36 -43)" onmousedown="handlePan(1,0)">
                  <use xlink:href="#rim" fill="#404040">
                        <set attributeName="fill" to="#808080" begin="arrowRight.mouseover" end="arrowRight.mouseout"/>
                  </use>
                  <path fill="none" stroke="white" stroke-width="1.5" d="M0,-3.0v7 M-2.5,-0.5L0,-3.0L2.5,-0.5"/>
                </g>
                <g id="arrowDown" xlink:href="#dirArrow" transform="rotate(180) translate(-30 -48)" onmousedown="handlePan(0,1)">
                  <use xlink:href="#rim" fill="#404040">
                        <set attributeName="fill" to="#808080" begin="arrowDown.mouseover" end="arrowDown.mouseout"/>
                  </use>
                  <path fill="none" stroke="white" stroke-width="1.5" d="M0,-3.0v7 M-2.5,-0.5L0,-3.0L2.5,-0.5"/>
                </g>
                <g id="arrowLeft" xlink:href="#dirArrow" transform="rotate(270) translate(-36 17)" onmousedown="handlePan(-1,0)">
                  <use xlink:href="#rim" fill="#404040">
                        <set attributeName="fill" to="#808080" begin="arrowLeft.mouseover" end="arrowLeft.mouseout"/>
                  </use>
                  <path fill="none" stroke="white" stroke-width="1.5" d="M0,-3.0v7 M-2.5,-0.5L0,-3.0L2.5,-0.5"/>
                </g>
        </g>
        <svg viewBox="0 0 15 15" width="100%" height="30px" preserveAspectRatio="xMaxYMin meet">
         <g id="arrow_out" transform="scale(0.3 0.3)">
          <a xlink:href="structclara_1_1detail_1_1_bound_value_ref_3_01std_1_1vector_3_01_t_01_4_01_4__coll__graph_org.svg" target="_base">
           <rect id="button" ry="5" rx="5" y="6" x="6" height="38" width="38"
                fill="#f2f5e9" fill-opacity="0.5" stroke="#606060" stroke-width="1.0"/>
           <path id="arrow"
             d="M 11.500037,31.436501 C 11.940474,20.09759 22.043105,11.32322 32.158766,21.979434 L 37.068811,17.246167 C 37.068811,17.246167 37.088388,32 37.088388,32 L 22.160133,31.978069 C 22.160133,31.978069 26.997745,27.140456 26.997745,27.140456 C 18.528582,18.264221 13.291696,25.230495 11.500037,31.436501 z"
             style="fill:#404040;"/>
          </a>
         </g>
        </svg>
</svg>
