<?xml version="1.0" encoding="UTF-8" standalone="no"?>
<!DOCTYPE svg PUBLIC "-//W3C//DTD SVG 1.1//EN"
 "http://www.w3.org/Graphics/SVG/1.1/DTD/svg11.dtd">
<!-- Generated by graphviz version 2.43.0 (0)
 -->
<!-- Title: Catch::Matchers::StdString::EqualsMatcher::match Pages: 1 -->
<svg width="622pt" height="39pt"
 viewBox="0.00 0.00 622.00 39.00" xmlns="http://www.w3.org/2000/svg" xmlns:xlink="http://www.w3.org/1999/xlink">
<g id="graph0" class="graph" transform="scale(1 1) rotate(0) translate(4 35)">
<title>Catch::Matchers::StdString::EqualsMatcher::match</title>
<polygon fill="white" stroke="transparent" points="-4,4 -4,-35 618,-35 618,4 -4,4"/>
<!-- Node1 -->
<g id="node1" class="node">
<title>Node1</title>
<g id="a_node1"><a xlink:title=" ">
<polygon fill="#bfbfbf" stroke="black" points="0,-0.5 0,-30.5 146,-30.5 146,-0.5 0,-0.5"/>
<text text-anchor="start" x="8" y="-18.5" font-family="Helvetica,sans-Serif" font-size="10.00">Catch::Matchers::StdString</text>
<text text-anchor="middle" x="73" y="-7.5" font-family="Helvetica,sans-Serif" font-size="10.00">::EqualsMatcher::match</text>
</a>
</g>
</g>
<!-- Node2 -->
<g id="node2" class="node">
<title>Node2</title>
<g id="a_node2"><a xlink:href="struct_catch_1_1_matchers_1_1_std_string_1_1_cased_string.html#a77639b1165c01f424ee0e96f53335010" target="_top" xlink:title=" ">
<polygon fill="white" stroke="black" points="182,-0.5 182,-30.5 328,-30.5 328,-0.5 182,-0.5"/>
<text text-anchor="start" x="190" y="-18.5" font-family="Helvetica,sans-Serif" font-size="10.00">Catch::Matchers::StdString</text>
<text text-anchor="middle" x="255" y="-7.5" font-family="Helvetica,sans-Serif" font-size="10.00">::CasedString::adjustString</text>
</a>
</g>
</g>
<!-- Node1&#45;&gt;Node2 -->
<g id="edge1" class="edge">
<title>Node1&#45;&gt;Node2</title>
<path fill="none" stroke="midnightblue" d="M146.18,-15.5C154.52,-15.5 163.08,-15.5 171.54,-15.5"/>
<polygon fill="midnightblue" stroke="midnightblue" points="171.81,-19 181.81,-15.5 171.81,-12 171.81,-19"/>
</g>
<!-- Node3 -->
<g id="node3" class="node">
<title>Node3</title>
<g id="a_node3"><a xlink:href="namespace_catch.html#ac036a17412d318598ffda8e1fe7a1177" target="_top" xlink:title=" ">
<polygon fill="white" stroke="black" points="364,-6 364,-25 453,-25 453,-6 364,-6"/>
<text text-anchor="middle" x="408.5" y="-13" font-family="Helvetica,sans-Serif" font-size="10.00">Catch::toLower</text>
</a>
</g>
</g>
<!-- Node2&#45;&gt;Node3 -->
<g id="edge2" class="edge">
<title>Node2&#45;&gt;Node3</title>
<path fill="none" stroke="midnightblue" d="M328.2,-15.5C336.77,-15.5 345.41,-15.5 353.66,-15.5"/>
<polygon fill="midnightblue" stroke="midnightblue" points="353.88,-19 363.88,-15.5 353.88,-12 353.88,-19"/>
</g>
<!-- Node4 -->
<g id="node4" class="node">
<title>Node4</title>
<g id="a_node4"><a xlink:href="namespace_catch.html#a0760dbe87d090a55a35414db57d272c4" target="_top" xlink:title=" ">
<polygon fill="white" stroke="black" points="489,-6 489,-25 614,-25 614,-6 489,-6"/>
<text text-anchor="middle" x="551.5" y="-13" font-family="Helvetica,sans-Serif" font-size="10.00">Catch::toLowerInPlace</text>
</a>
</g>
</g>
<!-- Node3&#45;&gt;Node4 -->
<g id="edge3" class="edge">
<title>Node3&#45;&gt;Node4</title>
<path fill="none" stroke="midnightblue" d="M453.34,-15.5C461.42,-15.5 470.04,-15.5 478.69,-15.5"/>
<polygon fill="midnightblue" stroke="midnightblue" points="478.83,-19 488.83,-15.5 478.83,-12 478.83,-19"/>
</g>
</g>
</svg>
