<?xml version="1.0" encoding="UTF-8" standalone="no"?>
<!DOCTYPE svg PUBLIC "-//W3C//DTD SVG 1.1//EN"
 "http://www.w3.org/Graphics/SVG/1.1/DTD/svg11.dtd">
<!-- Generated by graphviz version 2.43.0 (0)
 -->
<!-- Title: Catch::IResultCapture::pushScopedMessage Pages: 1 -->
<svg width="646pt" height="88pt"
 viewBox="0.00 0.00 646.00 88.00" xmlns="http://www.w3.org/2000/svg" xmlns:xlink="http://www.w3.org/1999/xlink">
<g id="graph0" class="graph" transform="scale(1 1) rotate(0) translate(4 84)">
<title>Catch::IResultCapture::pushScopedMessage</title>
<polygon fill="white" stroke="transparent" points="-4,4 -4,-84 642,-84 642,4 -4,4"/>
<!-- Node1 -->
<g id="node1" class="node">
<title>Node1</title>
<g id="a_node1"><a xlink:title=" ">
<polygon fill="#bfbfbf" stroke="black" points="513,-24.5 513,-54.5 638,-54.5 638,-24.5 513,-24.5"/>
<text text-anchor="start" x="521" y="-42.5" font-family="Helvetica,sans-Serif" font-size="10.00">Catch::IResultCapture</text>
<text text-anchor="middle" x="575.5" y="-31.5" font-family="Helvetica,sans-Serif" font-size="10.00">::pushScopedMessage</text>
</a>
</g>
</g>
<!-- Node2 -->
<g id="node2" class="node">
<title>Node2</title>
<g id="a_node2"><a xlink:href="class_catch_1_1_capturer.html#a0695ebf77f7cdcb344c73bcb3d9131e4" target="_top" xlink:title=" ">
<polygon fill="white" stroke="black" points="342,-49.5 342,-79.5 477,-79.5 477,-49.5 342,-49.5"/>
<text text-anchor="start" x="350" y="-67.5" font-family="Helvetica,sans-Serif" font-size="10.00">Catch::Capturer::capture</text>
<text text-anchor="middle" x="409.5" y="-56.5" font-family="Helvetica,sans-Serif" font-size="10.00">Value</text>
</a>
</g>
</g>
<!-- Node1&#45;&gt;Node2 -->
<g id="edge1" class="edge">
<title>Node1&#45;&gt;Node2</title>
<path fill="none" stroke="midnightblue" d="M502.95,-50.41C494.35,-51.72 485.58,-53.05 477.05,-54.36"/>
<polygon fill="midnightblue" stroke="midnightblue" points="503.61,-53.85 512.97,-48.88 502.55,-46.93 503.61,-53.85"/>
</g>
<!-- Node5 -->
<g id="node5" class="node">
<title>Node5</title>
<g id="a_node5"><a xlink:href="class_catch_1_1_scoped_message.html#a5cc59f0f2ebe840e6607f83004d49a17" target="_top" xlink:title=" ">
<polygon fill="white" stroke="black" points="345,-0.5 345,-30.5 474,-30.5 474,-0.5 345,-0.5"/>
<text text-anchor="start" x="353" y="-18.5" font-family="Helvetica,sans-Serif" font-size="10.00">Catch::ScopedMessage</text>
<text text-anchor="middle" x="409.5" y="-7.5" font-family="Helvetica,sans-Serif" font-size="10.00">::ScopedMessage</text>
</a>
</g>
</g>
<!-- Node1&#45;&gt;Node5 -->
<g id="edge4" class="edge">
<title>Node1&#45;&gt;Node5</title>
<path fill="none" stroke="midnightblue" d="M503.01,-29.04C493.36,-27.63 483.52,-26.19 474.02,-24.8"/>
<polygon fill="midnightblue" stroke="midnightblue" points="502.56,-32.51 512.97,-30.5 503.58,-25.58 502.56,-32.51"/>
</g>
<!-- Node3 -->
<g id="node3" class="node">
<title>Node3</title>
<g id="a_node3"><a xlink:href="class_catch_1_1_capturer.html#a60d08e6db2e54740bb2298bbbec3bc0b" target="_top" xlink:title=" ">
<polygon fill="white" stroke="black" points="171,-49.5 171,-79.5 306,-79.5 306,-49.5 171,-49.5"/>
<text text-anchor="start" x="179" y="-67.5" font-family="Helvetica,sans-Serif" font-size="10.00">Catch::Capturer::capture</text>
<text text-anchor="middle" x="238.5" y="-56.5" font-family="Helvetica,sans-Serif" font-size="10.00">Values</text>
</a>
</g>
</g>
<!-- Node2&#45;&gt;Node3 -->
<g id="edge2" class="edge">
<title>Node2&#45;&gt;Node3</title>
<path fill="none" stroke="midnightblue" d="M331.45,-64.5C322.98,-64.5 314.41,-64.5 306.08,-64.5"/>
<polygon fill="midnightblue" stroke="midnightblue" points="331.71,-68 341.71,-64.5 331.71,-61 331.71,-68"/>
</g>
<!-- Node4 -->
<g id="node4" class="node">
<title>Node4</title>
<g id="a_node4"><a xlink:href="class_catch_1_1_capturer.html#a76f2a097cfeb3042688300b81eb9bcbc" target="_top" xlink:title=" ">
<polygon fill="white" stroke="black" points="0,-49.5 0,-79.5 135,-79.5 135,-49.5 0,-49.5"/>
<text text-anchor="start" x="8" y="-67.5" font-family="Helvetica,sans-Serif" font-size="10.00">Catch::Capturer::capture</text>
<text text-anchor="middle" x="67.5" y="-56.5" font-family="Helvetica,sans-Serif" font-size="10.00">Values</text>
</a>
</g>
</g>
<!-- Node3&#45;&gt;Node4 -->
<g id="edge3" class="edge">
<title>Node3&#45;&gt;Node4</title>
<path fill="none" stroke="midnightblue" d="M160.45,-64.5C151.98,-64.5 143.41,-64.5 135.08,-64.5"/>
<polygon fill="midnightblue" stroke="midnightblue" points="160.71,-68 170.71,-64.5 160.71,-61 160.71,-68"/>
</g>
</g>
</svg>
