<?xml version="1.0" encoding="UTF-8" standalone="no"?>
<!DOCTYPE svg PUBLIC "-//W3C//DTD SVG 1.1//EN"
 "http://www.w3.org/Graphics/SVG/1.1/DTD/svg11.dtd">
<!-- Generated by graphviz version 2.43.0 (0)
 -->
<!-- Title: Catch::Matchers::StdString::StringMatcherBase Pages: 1 -->
<!--zoomable 613 -->
<svg id="main" version="1.1" xmlns="http://www.w3.org/2000/svg" xmlns:xlink="http://www.w3.org/1999/xlink" xml:space="preserve" onload="init(evt)">
<style type="text/css"><![CDATA[
.edge:hover path { stroke: red; }
.edge:hover polygon { stroke: red; fill: red; }
]]></style>
<script type="text/javascript"><![CDATA[
var edges = document.getElementsByTagName('g');
if (edges && edges.length) {
  for (var i=0;i<edges.length;i++) {
    if (edges[i].id.substr(0,4)=='edge') {
      edges[i].setAttribute('class','edge');
    }
  }
}
]]></script>
        <defs>
                <circle id="rim" cx="0" cy="0" r="7"/>
                <circle id="rim2" cx="0" cy="0" r="3.5"/>
                <g id="zoomPlus">
                        <use xlink:href="#rim" fill="#404040">
                                <set attributeName="fill" to="#808080" begin="zoomplus.mouseover" end="zoomplus.mouseout"/>
                        </use>
                        <path d="M-4,0h8M0,-4v8" fill="none" stroke="white" stroke-width="1.5" pointer-events="none"/>
                </g>
                <g id="zoomMin">
                        <use xlink:href="#rim" fill="#404040">
                                <set attributeName="fill" to="#808080" begin="zoomminus.mouseover" end="zoomminus.mouseout"/>
                        </use>
                        <path d="M-4,0h8" fill="none" stroke="white" stroke-width="1.5" pointer-events="none"/>
                </g>
                <g id="dirArrow">
                        <path fill="none" stroke="white" stroke-width="1.5" d="M0,-3.0v7 M-2.5,-0.5L0,-3.0L2.5,-0.5"/>
                </g>
               <g id="resetDef">
                       <use xlink:href="#rim2" fill="#404040">
                               <set attributeName="fill" to="#808080" begin="reset.mouseover" end="reset.mouseout"/>
                       </use>
               </g>
        </defs>

<script type="text/javascript">
var viewWidth = 561;
var viewHeight = 613;
var sectionId = 'dynsection-1';
</script>
<script xlink:href="svgpan.js"/>
<svg id="graph" class="graph">
<g id="viewport">
<title>Catch::Matchers::StdString::StringMatcherBase</title>
<polygon fill="white" stroke="transparent" points="-4,4 -4,-609 556.53,-609 556.53,4 -4,4"/>
<!-- Node1 -->
<g id="node1" class="node">
<title>Node1</title>
<g id="a_node1"><a xlink:title=" ">
<polygon fill="#bfbfbf" stroke="black" points="109.53,-0.5 109.53,-101.5 255.53,-101.5 255.53,-0.5 109.53,-0.5"/>
<text text-anchor="start" x="117.53" y="-89.5" font-family="Helvetica,sans-Serif" font-size="10.00">Catch::Matchers::StdString</text>
<text text-anchor="middle" x="182.53" y="-78.5" font-family="Helvetica,sans-Serif" font-size="10.00">::StringMatcherBase</text>
<polyline fill="none" stroke="black" points="109.53,-71.5 255.53,-71.5 "/>
<text text-anchor="middle" x="182.53" y="-59.5" font-family="Helvetica,sans-Serif" font-size="10.00"> </text>
<polyline fill="none" stroke="black" points="109.53,-52.5 255.53,-52.5 "/>
<text text-anchor="start" x="117.53" y="-40.5" font-family="Helvetica,sans-Serif" font-size="10.00">+ StringMatcherBase()</text>
<text text-anchor="start" x="117.53" y="-29.5" font-family="Helvetica,sans-Serif" font-size="10.00">+ describe()</text>
<text text-anchor="start" x="117.53" y="-18.5" font-family="Helvetica,sans-Serif" font-size="10.00">+ StringMatcherBase()</text>
<text text-anchor="start" x="117.53" y="-7.5" font-family="Helvetica,sans-Serif" font-size="10.00">+ describe()</text>
</a>
</g>
</g>
<!-- Node2 -->
<g id="node2" class="node">
<title>Node2</title>
<g id="a_node2"><a xlink:href="struct_catch_1_1_matchers_1_1_impl_1_1_matcher_base.html" target="_top" xlink:title=" ">
<polygon fill="white" stroke="black" points="103.53,-139.5 103.53,-262.5 261.53,-262.5 261.53,-139.5 103.53,-139.5"/>
<text text-anchor="start" x="111.53" y="-250.5" font-family="Helvetica,sans-Serif" font-size="10.00">Catch::Matchers::Impl</text>
<text text-anchor="middle" x="182.53" y="-239.5" font-family="Helvetica,sans-Serif" font-size="10.00">::MatcherBase&lt; std::string &gt;</text>
<polyline fill="none" stroke="black" points="103.53,-232.5 261.53,-232.5 "/>
<text text-anchor="middle" x="182.53" y="-220.5" font-family="Helvetica,sans-Serif" font-size="10.00"> </text>
<polyline fill="none" stroke="black" points="103.53,-213.5 261.53,-213.5 "/>
<text text-anchor="start" x="111.53" y="-201.5" font-family="Helvetica,sans-Serif" font-size="10.00">+ operator&amp;&amp;()</text>
<text text-anchor="start" x="111.53" y="-190.5" font-family="Helvetica,sans-Serif" font-size="10.00">+ operator||()</text>
<text text-anchor="start" x="111.53" y="-179.5" font-family="Helvetica,sans-Serif" font-size="10.00">+ operator!()</text>
<text text-anchor="start" x="111.53" y="-168.5" font-family="Helvetica,sans-Serif" font-size="10.00">+ operator&amp;&amp;()</text>
<text text-anchor="start" x="111.53" y="-157.5" font-family="Helvetica,sans-Serif" font-size="10.00">+ operator||()</text>
<text text-anchor="start" x="111.53" y="-146.5" font-family="Helvetica,sans-Serif" font-size="10.00">+ operator!()</text>
</a>
</g>
</g>
<!-- Node2&#45;&gt;Node1 -->
<g id="edge1" class="edge">
<title>Node2&#45;&gt;Node1</title>
<path fill="none" stroke="midnightblue" d="M182.53,-129.37C182.53,-120.1 182.53,-110.75 182.53,-101.92"/>
<polygon fill="none" stroke="midnightblue" points="179.03,-129.38 182.53,-139.38 186.03,-129.38 179.03,-129.38"/>
</g>
<!-- Node3 -->
<g id="node3" class="node">
<title>Node3</title>
<g id="a_node3"><a xlink:href="class_catch_1_1_matchers_1_1_impl_1_1_matcher_untyped_base.html" target="_top" xlink:title=" ">
<polygon fill="white" stroke="black" points="204.03,-310.5 204.03,-499.5 353.03,-499.5 353.03,-310.5 204.03,-310.5"/>
<text text-anchor="start" x="212.03" y="-487.5" font-family="Helvetica,sans-Serif" font-size="10.00">Catch::Matchers::Impl</text>
<text text-anchor="middle" x="278.53" y="-476.5" font-family="Helvetica,sans-Serif" font-size="10.00">::MatcherUntypedBase</text>
<polyline fill="none" stroke="black" points="204.03,-469.5 353.03,-469.5 "/>
<text text-anchor="middle" x="278.53" y="-457.5" font-family="Helvetica,sans-Serif" font-size="10.00"> </text>
<polyline fill="none" stroke="black" points="204.03,-450.5 353.03,-450.5 "/>
<text text-anchor="start" x="212.03" y="-438.5" font-family="Helvetica,sans-Serif" font-size="10.00">+ MatcherUntypedBase()</text>
<text text-anchor="start" x="212.03" y="-427.5" font-family="Helvetica,sans-Serif" font-size="10.00">+ MatcherUntypedBase()</text>
<text text-anchor="start" x="212.03" y="-416.5" font-family="Helvetica,sans-Serif" font-size="10.00">+ operator=()</text>
<text text-anchor="start" x="212.03" y="-405.5" font-family="Helvetica,sans-Serif" font-size="10.00">+ toString()</text>
<text text-anchor="start" x="212.03" y="-394.5" font-family="Helvetica,sans-Serif" font-size="10.00">+ MatcherUntypedBase()</text>
<text text-anchor="start" x="212.03" y="-383.5" font-family="Helvetica,sans-Serif" font-size="10.00">+ MatcherUntypedBase()</text>
<text text-anchor="start" x="212.03" y="-372.5" font-family="Helvetica,sans-Serif" font-size="10.00">+ operator=()</text>
<text text-anchor="start" x="212.03" y="-361.5" font-family="Helvetica,sans-Serif" font-size="10.00">+ toString()</text>
<text text-anchor="start" x="212.03" y="-350.5" font-family="Helvetica,sans-Serif" font-size="10.00"># ~MatcherUntypedBase()</text>
<text text-anchor="start" x="212.03" y="-339.5" font-family="Helvetica,sans-Serif" font-size="10.00"># describe()</text>
<text text-anchor="start" x="212.03" y="-328.5" font-family="Helvetica,sans-Serif" font-size="10.00"># ~MatcherUntypedBase()</text>
<text text-anchor="start" x="212.03" y="-317.5" font-family="Helvetica,sans-Serif" font-size="10.00"># describe()</text>
</a>
</g>
</g>
<!-- Node3&#45;&gt;Node2 -->
<g id="edge2" class="edge">
<title>Node3&#45;&gt;Node2</title>
<path fill="none" stroke="midnightblue" d="M229.71,-301.26C223.44,-288.07 217.19,-274.91 211.38,-262.7"/>
<polygon fill="none" stroke="midnightblue" points="226.59,-302.86 234.05,-310.39 232.92,-299.86 226.59,-302.86"/>
</g>
<!-- Node4 -->
<g id="node4" class="node">
<title>Node4</title>
<g id="a_node4"><a xlink:title=" ">
<polygon fill="white" stroke="#bfbfbf" points="246.53,-547.5 246.53,-604.5 290.53,-604.5 290.53,-547.5 246.53,-547.5"/>
<text text-anchor="middle" x="268.53" y="-592.5" font-family="Helvetica,sans-Serif" font-size="10.00">string</text>
<polyline fill="none" stroke="#bfbfbf" points="246.53,-585.5 290.53,-585.5 "/>
<text text-anchor="middle" x="268.53" y="-573.5" font-family="Helvetica,sans-Serif" font-size="10.00"> </text>
<polyline fill="none" stroke="#bfbfbf" points="246.53,-566.5 290.53,-566.5 "/>
<text text-anchor="middle" x="268.53" y="-554.5" font-family="Helvetica,sans-Serif" font-size="10.00"> </text>
</a>
</g>
</g>
<!-- Node4&#45;&gt;Node1 -->
<g id="edge8" class="edge">
<title>Node4&#45;&gt;Node1</title>
<path fill="none" stroke="#404040" d="M246.24,-575.19C200.14,-574.21 94.8,-564.65 48.53,-500 -45.59,-368.47 13.19,-278.8 94.53,-139 100.31,-129.08 107.51,-119.51 115.28,-110.57"/>
<polygon fill="none" stroke="#404040" points="115.47,-110.37 116.56,-103.24 123.56,-101.5 122.47,-108.63 115.47,-110.37"/>
<text text-anchor="middle" x="55.03" y="-284" font-family="Helvetica,sans-Serif" font-size="10.00"> +m_operation</text>
</g>
<!-- Node4&#45;&gt;Node3 -->
<g id="edge3" class="edge">
<title>Node4&#45;&gt;Node3</title>
<path fill="none" stroke="#404040" d="M268.67,-547.45C268.81,-538.09 269.07,-527.59 269.53,-518 269.63,-515.96 269.74,-513.89 269.85,-511.82"/>
<polygon fill="none" stroke="#404040" points="269.86,-511.76 266.22,-505.53 270.56,-499.78 274.2,-506 269.86,-511.76"/>
<text text-anchor="middle" x="319.53" y="-521" font-family="Helvetica,sans-Serif" font-size="10.00"> #m_cachedToString</text>
</g>
<!-- Node6 -->
<g id="node6" class="node">
<title>Node6</title>
<g id="a_node6"><a xlink:href="struct_catch_1_1_matchers_1_1_std_string_1_1_cased_string.html" target="_top" xlink:title=" ">
<polygon fill="white" stroke="black" points="371.53,-343.5 371.53,-466.5 517.53,-466.5 517.53,-343.5 371.53,-343.5"/>
<text text-anchor="start" x="379.53" y="-454.5" font-family="Helvetica,sans-Serif" font-size="10.00">Catch::Matchers::StdString</text>
<text text-anchor="middle" x="444.53" y="-443.5" font-family="Helvetica,sans-Serif" font-size="10.00">::CasedString</text>
<polyline fill="none" stroke="black" points="371.53,-436.5 517.53,-436.5 "/>
<text text-anchor="middle" x="444.53" y="-424.5" font-family="Helvetica,sans-Serif" font-size="10.00"> </text>
<polyline fill="none" stroke="black" points="371.53,-417.5 517.53,-417.5 "/>
<text text-anchor="start" x="379.53" y="-405.5" font-family="Helvetica,sans-Serif" font-size="10.00">+ CasedString()</text>
<text text-anchor="start" x="379.53" y="-394.5" font-family="Helvetica,sans-Serif" font-size="10.00">+ adjustString()</text>
<text text-anchor="start" x="379.53" y="-383.5" font-family="Helvetica,sans-Serif" font-size="10.00">+ caseSensitivitySuffix()</text>
<text text-anchor="start" x="379.53" y="-372.5" font-family="Helvetica,sans-Serif" font-size="10.00">+ CasedString()</text>
<text text-anchor="start" x="379.53" y="-361.5" font-family="Helvetica,sans-Serif" font-size="10.00">+ adjustString()</text>
<text text-anchor="start" x="379.53" y="-350.5" font-family="Helvetica,sans-Serif" font-size="10.00">+ caseSensitivitySuffix()</text>
</a>
</g>
</g>
<!-- Node4&#45;&gt;Node6 -->
<g id="edge7" class="edge">
<title>Node4&#45;&gt;Node6</title>
<path fill="none" stroke="#404040" d="M290.76,-569.07C312.78,-562.31 346.47,-549.45 369.53,-529 385.8,-514.58 399.67,-495.77 410.89,-477.22"/>
<polygon fill="none" stroke="#404040" points="410.99,-477.04 410.55,-469.84 417.02,-466.66 417.47,-473.86 410.99,-477.04"/>
<text text-anchor="middle" x="400.53" y="-521" font-family="Helvetica,sans-Serif" font-size="10.00"> +m_str</text>
</g>
<!-- Node5 -->
<g id="node5" class="node">
<title>Node5</title>
<g id="a_node5"><a xlink:href="struct_catch_1_1_matchers_1_1_impl_1_1_matcher_method.html" target="_top" xlink:title=" ">
<polygon fill="white" stroke="black" points="57.53,-365.5 57.53,-444.5 185.53,-444.5 185.53,-365.5 57.53,-365.5"/>
<text text-anchor="start" x="65.53" y="-432.5" font-family="Helvetica,sans-Serif" font-size="10.00">Catch::Matchers::Impl</text>
<text text-anchor="middle" x="121.53" y="-421.5" font-family="Helvetica,sans-Serif" font-size="10.00">::MatcherMethod&lt; T &gt;</text>
<polyline fill="none" stroke="black" points="57.53,-414.5 185.53,-414.5 "/>
<text text-anchor="middle" x="121.53" y="-402.5" font-family="Helvetica,sans-Serif" font-size="10.00"> </text>
<polyline fill="none" stroke="black" points="57.53,-395.5 185.53,-395.5 "/>
<text text-anchor="start" x="65.53" y="-383.5" font-family="Helvetica,sans-Serif" font-size="10.00">+ match()</text>
<text text-anchor="start" x="65.53" y="-372.5" font-family="Helvetica,sans-Serif" font-size="10.00">+ match()</text>
</a>
</g>
</g>
<!-- Node5&#45;&gt;Node2 -->
<g id="edge4" class="edge">
<title>Node5&#45;&gt;Node2</title>
<path fill="none" stroke="midnightblue" d="M136.28,-355.16C144.68,-327.35 155.28,-292.26 164.21,-262.69"/>
<polygon fill="none" stroke="midnightblue" points="132.84,-354.47 133.3,-365.05 139.54,-356.49 132.84,-354.47"/>
</g>
<!-- Node6&#45;&gt;Node1 -->
<g id="edge5" class="edge">
<title>Node6&#45;&gt;Node1</title>
<path fill="none" stroke="#404040" d="M409.73,-343.36C376.8,-287.96 324.49,-204.9 270.53,-139 262.7,-129.43 253.93,-119.76 245.05,-110.52"/>
<polygon fill="none" stroke="#404040" points="244.92,-110.39 237.87,-108.9 236.53,-101.81 243.59,-103.3 244.92,-110.39"/>
<text text-anchor="middle" x="399.03" y="-198.5" font-family="Helvetica,sans-Serif" font-size="10.00"> +m_comparator</text>
</g>
<!-- Node7 -->
<g id="node7" class="node">
<title>Node7</title>
<g id="a_node7"><a xlink:title=" ">
<polygon fill="white" stroke="#bfbfbf" points="429.53,-547.5 429.53,-604.5 479.53,-604.5 479.53,-547.5 429.53,-547.5"/>
<text text-anchor="middle" x="454.53" y="-592.5" font-family="Helvetica,sans-Serif" font-size="10.00">Choice</text>
<polyline fill="none" stroke="#bfbfbf" points="429.53,-585.5 479.53,-585.5 "/>
<text text-anchor="middle" x="454.53" y="-573.5" font-family="Helvetica,sans-Serif" font-size="10.00"> </text>
<polyline fill="none" stroke="#bfbfbf" points="429.53,-566.5 479.53,-566.5 "/>
<text text-anchor="middle" x="454.53" y="-554.5" font-family="Helvetica,sans-Serif" font-size="10.00"> </text>
</a>
</g>
</g>
<!-- Node7&#45;&gt;Node6 -->
<g id="edge6" class="edge">
<title>Node7&#45;&gt;Node6</title>
<path fill="none" stroke="#404040" d="M452.91,-547.47C451.8,-528.83 450.29,-503.26 448.85,-478.98"/>
<polygon fill="none" stroke="#404040" points="448.84,-478.81 444.5,-473.05 448.13,-466.83 452.48,-472.58 448.84,-478.81"/>
<text text-anchor="middle" x="502.03" y="-521" font-family="Helvetica,sans-Serif" font-size="10.00"> +m_caseSensitivity</text>
</g>
</g>
</svg>
        <g id="navigator" transform="translate(0 0)" fill="#404254">
                <rect fill="#f2f5e9" fill-opacity="0.5" stroke="#606060" stroke-width=".5" x="0" y="0" width="60" height="60"/>
                <use id="zoomplus" xlink:href="#zoomPlus" x="17" y="9" onmousedown="handleZoom(evt,'in')"/>
                <use id="zoomminus" xlink:href="#zoomMin" x="42" y="9" onmousedown="handleZoom(evt,'out')"/>
                <use id="reset" xlink:href="#resetDef" x="30" y="36" onmousedown="handleReset()"/>
                <g id="arrowUp" xlink:href="#dirArrow" transform="translate(30 24)" onmousedown="handlePan(0,-1)">
                  <use xlink:href="#rim" fill="#404040">
                        <set attributeName="fill" to="#808080" begin="arrowUp.mouseover" end="arrowUp.mouseout"/>
                  </use>
                  <path fill="none" stroke="white" stroke-width="1.5" d="M0,-3.0v7 M-2.5,-0.5L0,-3.0L2.5,-0.5"/>
                </g>
                <g id="arrowRight" xlink:href="#dirArrow" transform="rotate(90) translate(36 -43)" onmousedown="handlePan(1,0)">
                  <use xlink:href="#rim" fill="#404040">
                        <set attributeName="fill" to="#808080" begin="arrowRight.mouseover" end="arrowRight.mouseout"/>
                  </use>
                  <path fill="none" stroke="white" stroke-width="1.5" d="M0,-3.0v7 M-2.5,-0.5L0,-3.0L2.5,-0.5"/>
                </g>
                <g id="arrowDown" xlink:href="#dirArrow" transform="rotate(180) translate(-30 -48)" onmousedown="handlePan(0,1)">
                  <use xlink:href="#rim" fill="#404040">
                        <set attributeName="fill" to="#808080" begin="arrowDown.mouseover" end="arrowDown.mouseout"/>
                  </use>
                  <path fill="none" stroke="white" stroke-width="1.5" d="M0,-3.0v7 M-2.5,-0.5L0,-3.0L2.5,-0.5"/>
                </g>
                <g id="arrowLeft" xlink:href="#dirArrow" transform="rotate(270) translate(-36 17)" onmousedown="handlePan(-1,0)">
                  <use xlink:href="#rim" fill="#404040">
                        <set attributeName="fill" to="#808080" begin="arrowLeft.mouseover" end="arrowLeft.mouseout"/>
                  </use>
                  <path fill="none" stroke="white" stroke-width="1.5" d="M0,-3.0v7 M-2.5,-0.5L0,-3.0L2.5,-0.5"/>
                </g>
        </g>
        <svg viewBox="0 0 15 15" width="100%" height="30px" preserveAspectRatio="xMaxYMin meet">
         <g id="arrow_out" transform="scale(0.3 0.3)">
          <a xlink:href="struct_catch_1_1_matchers_1_1_std_string_1_1_string_matcher_base__coll__graph_org.svg" target="_base">
           <rect id="button" ry="5" rx="5" y="6" x="6" height="38" width="38"
                fill="#f2f5e9" fill-opacity="0.5" stroke="#606060" stroke-width="1.0"/>
           <path id="arrow"
             d="M 11.500037,31.436501 C 11.940474,20.09759 22.043105,11.32322 32.158766,21.979434 L 37.068811,17.246167 C 37.068811,17.246167 37.088388,32 37.088388,32 L 22.160133,31.978069 C 22.160133,31.978069 26.997745,27.140456 26.997745,27.140456 C 18.528582,18.264221 13.291696,25.230495 11.500037,31.436501 z"
             style="fill:#404040;"/>
          </a>
         </g>
        </svg>
</svg>
