<?xml version="1.0" encoding="UTF-8" standalone="no"?>
<!DOCTYPE svg PUBLIC "-//W3C//DTD SVG 1.1//EN"
 "http://www.w3.org/Graphics/SVG/1.1/DTD/svg11.dtd">
<!-- Generated by graphviz version 2.43.0 (0)
 -->
<!-- Title: Catch::StringMaker&lt; T * &gt;::convert Pages: 1 -->
<svg width="511pt" height="66pt"
 viewBox="0.00 0.00 511.00 66.00" xmlns="http://www.w3.org/2000/svg" xmlns:xlink="http://www.w3.org/1999/xlink">
<g id="graph0" class="graph" transform="scale(1 1) rotate(0) translate(4 62)">
<title>Catch::StringMaker&lt; T * &gt;::convert</title>
<polygon fill="white" stroke="transparent" points="-4,4 -4,-62 507,-62 507,4 -4,4"/>
<!-- Node1 -->
<g id="node1" class="node">
<title>Node1</title>
<g id="a_node1"><a xlink:title=" ">
<polygon fill="#bfbfbf" stroke="black" points="0,-14 0,-44 109,-44 109,-14 0,-14"/>
<text text-anchor="start" x="8" y="-32" font-family="Helvetica,sans-Serif" font-size="10.00">Catch::StringMaker</text>
<text text-anchor="middle" x="54.5" y="-21" font-family="Helvetica,sans-Serif" font-size="10.00">&lt; T * &gt;::convert</text>
</a>
</g>
</g>
<!-- Node2 -->
<g id="node2" class="node">
<title>Node2</title>
<g id="a_node2"><a xlink:href="namespace_catch_1_1_detail.html#ac5d6c510e565ee5bddcc2236194ce29e" target="_top" xlink:title=" ">
<polygon fill="white" stroke="black" points="145,-14 145,-44 289,-44 289,-14 145,-14"/>
<text text-anchor="start" x="153" y="-32" font-family="Helvetica,sans-Serif" font-size="10.00">Catch::Detail::rawMemory</text>
<text text-anchor="middle" x="217" y="-21" font-family="Helvetica,sans-Serif" font-size="10.00">ToString</text>
</a>
</g>
</g>
<!-- Node1&#45;&gt;Node2 -->
<g id="edge1" class="edge">
<title>Node1&#45;&gt;Node2</title>
<path fill="none" stroke="midnightblue" d="M109.39,-29C117.57,-29 126.17,-29 134.77,-29"/>
<polygon fill="midnightblue" stroke="midnightblue" points="134.86,-32.5 144.86,-29 134.86,-25.5 134.86,-32.5"/>
</g>
<!-- Node3 -->
<g id="node3" class="node">
<title>Node3</title>
<g id="a_node3"><a xlink:href="xml_8sw_8approved_8txt.html#add174ec999e66e5d56cb44a7ed30290b" target="_top" xlink:title=" ">
<polygon fill="white" stroke="black" points="396,-38.5 396,-57.5 432,-57.5 432,-38.5 396,-38.5"/>
<text text-anchor="middle" x="414" y="-45.5" font-family="Helvetica,sans-Serif" font-size="10.00">size</text>
</a>
</g>
</g>
<!-- Node2&#45;&gt;Node3 -->
<g id="edge2" class="edge">
<title>Node2&#45;&gt;Node3</title>
<path fill="none" stroke="midnightblue" d="M289.23,-35.94C322.78,-39.21 360.81,-42.91 385.76,-45.35"/>
<polygon fill="midnightblue" stroke="midnightblue" points="385.62,-48.85 395.92,-46.34 386.3,-41.88 385.62,-48.85"/>
</g>
<!-- Node4 -->
<g id="node4" class="node">
<title>Node4</title>
<g id="a_node4"><a xlink:href="class_catch_1_1_reusable_string_stream.html#a0e9ecf260b2a5d35f4886ef0d51f6270" target="_top" xlink:title=" ">
<polygon fill="white" stroke="black" points="325,-0.5 325,-19.5 503,-19.5 503,-0.5 325,-0.5"/>
<text text-anchor="middle" x="414" y="-7.5" font-family="Helvetica,sans-Serif" font-size="10.00">Catch::ReusableStringStream::str</text>
</a>
</g>
</g>
<!-- Node2&#45;&gt;Node4 -->
<g id="edge3" class="edge">
<title>Node2&#45;&gt;Node4</title>
<path fill="none" stroke="midnightblue" d="M289.23,-22.06C297.52,-21.25 306.08,-20.42 314.65,-19.58"/>
<polygon fill="midnightblue" stroke="midnightblue" points="315.09,-23.06 324.7,-18.6 314.41,-16.09 315.09,-23.06"/>
</g>
</g>
</svg>
