<?xml version="1.0" encoding="UTF-8" standalone="no"?>
<!DOCTYPE svg PUBLIC "-//W3C//DTD SVG 1.1//EN"
 "http://www.w3.org/Graphics/SVG/1.1/DTD/svg11.dtd">
<!-- Generated by graphviz version 2.43.0 (0)
 -->
<!-- Title: MyListener::sectionEnded Pages: 1 -->
<svg width="323pt" height="66pt"
 viewBox="0.00 0.00 323.00 66.00" xmlns="http://www.w3.org/2000/svg" xmlns:xlink="http://www.w3.org/1999/xlink">
<g id="graph0" class="graph" transform="scale(1 1) rotate(0) translate(4 62)">
<title>MyListener::sectionEnded</title>
<polygon fill="white" stroke="transparent" points="-4,4 -4,-62 319,-62 319,4 -4,4"/>
<!-- Node1 -->
<g id="node1" class="node">
<title>Node1</title>
<g id="a_node1"><a xlink:title=" ">
<polygon fill="#bfbfbf" stroke="black" points="0,-19.5 0,-38.5 142,-38.5 142,-19.5 0,-19.5"/>
<text text-anchor="middle" x="71" y="-26.5" font-family="Helvetica,sans-Serif" font-size="10.00">MyListener::sectionEnded</text>
</a>
</g>
</g>
<!-- Node2 -->
<g id="node2" class="node">
<title>Node2</title>
<g id="a_node2"><a xlink:href="namespace_catch.html#a0179d453617ba2296f2baa99a49e7264" target="_top" xlink:title=" ">
<polygon fill="white" stroke="black" points="178,-38.5 178,-57.5 249,-57.5 249,-38.5 178,-38.5"/>
<text text-anchor="middle" x="213.5" y="-45.5" font-family="Helvetica,sans-Serif" font-size="10.00">Catch::cout</text>
</a>
</g>
</g>
<!-- Node1&#45;&gt;Node2 -->
<g id="edge1" class="edge">
<title>Node1&#45;&gt;Node2</title>
<path fill="none" stroke="midnightblue" d="M142.25,-38.5C150.93,-39.67 159.62,-40.85 167.77,-41.95"/>
<polygon fill="midnightblue" stroke="midnightblue" points="167.39,-45.43 177.77,-43.3 168.33,-38.49 167.39,-45.43"/>
</g>
<!-- Node3 -->
<g id="node3" class="node">
<title>Node3</title>
<g id="a_node3"><a xlink:href="210-_evt-_event_listeners_8cpp.html#a91b9457094088a57b7ba14d485a8771e" target="_top" xlink:title=" ">
<polygon fill="white" stroke="black" points="194,-0.5 194,-19.5 233,-19.5 233,-0.5 194,-0.5"/>
<text text-anchor="middle" x="213.5" y="-7.5" font-family="Helvetica,sans-Serif" font-size="10.00">print</text>
</a>
</g>
</g>
<!-- Node1&#45;&gt;Node3 -->
<g id="edge2" class="edge">
<title>Node1&#45;&gt;Node3</title>
<path fill="none" stroke="midnightblue" d="M142.25,-19.5C157,-17.51 171.75,-15.51 183.9,-13.87"/>
<polygon fill="midnightblue" stroke="midnightblue" points="184.4,-17.33 193.84,-12.52 183.46,-10.39 184.4,-17.33"/>
</g>
<!-- Node4 -->
<g id="node4" class="node">
<title>Node4</title>
<g id="a_node4"><a xlink:href="210-_evt-_event_listeners_8cpp.html#aaf05ec28baf9169e247960554e9ffbcb" target="_top" xlink:title=" ">
<polygon fill="white" stroke="black" points="285,-0.5 285,-19.5 315,-19.5 315,-0.5 285,-0.5"/>
<text text-anchor="middle" x="300" y="-7.5" font-family="Helvetica,sans-Serif" font-size="10.00">ws</text>
</a>
</g>
</g>
<!-- Node3&#45;&gt;Node4 -->
<g id="edge3" class="edge">
<title>Node3&#45;&gt;Node4</title>
<path fill="none" stroke="midnightblue" d="M233.25,-10C245.41,-10 261.37,-10 274.52,-10"/>
<polygon fill="midnightblue" stroke="midnightblue" points="274.76,-13.5 284.76,-10 274.76,-6.5 274.76,-13.5"/>
</g>
</g>
</svg>
