<?xml version="1.0" encoding="UTF-8" standalone="no"?>
<!DOCTYPE svg PUBLIC "-//W3C//DTD SVG 1.1//EN"
 "http://www.w3.org/Graphics/SVG/1.1/DTD/svg11.dtd">
<!-- Generated by graphviz version 2.43.0 (0)
 -->
<!-- Title: Catch::IExceptionTranslatorRegistry::translateActiveException Pages: 1 -->
<svg width="1062pt" height="122pt"
 viewBox="0.00 0.00 1062.00 121.50" xmlns="http://www.w3.org/2000/svg" xmlns:xlink="http://www.w3.org/1999/xlink">
<g id="graph0" class="graph" transform="scale(1 1) rotate(0) translate(4 117.5)">
<title>Catch::IExceptionTranslatorRegistry::translateActiveException</title>
<polygon fill="white" stroke="transparent" points="-4,4 -4,-117.5 1058,-117.5 1058,4 -4,4"/>
<!-- Node1 -->
<g id="node1" class="node">
<title>Node1</title>
<g id="a_node1"><a xlink:title=" ">
<polygon fill="#bfbfbf" stroke="black" points="869,-44.5 869,-74.5 1054,-74.5 1054,-44.5 869,-44.5"/>
<text text-anchor="start" x="877" y="-62.5" font-family="Helvetica,sans-Serif" font-size="10.00">Catch::IExceptionTranslator</text>
<text text-anchor="middle" x="961.5" y="-51.5" font-family="Helvetica,sans-Serif" font-size="10.00">Registry::translateActiveException</text>
</a>
</g>
</g>
<!-- Node2 -->
<g id="node2" class="node">
<title>Node2</title>
<g id="a_node2"><a xlink:href="namespace_catch.html#adafff91485eeeeb9e9333f317cc0e3b1" target="_top" xlink:title=" ">
<polygon fill="white" stroke="black" points="660,-50 660,-69 833,-69 833,-50 660,-50"/>
<text text-anchor="middle" x="746.5" y="-57" font-family="Helvetica,sans-Serif" font-size="10.00">Catch::translateActiveException</text>
</a>
</g>
</g>
<!-- Node1&#45;&gt;Node2 -->
<g id="edge1" class="edge">
<title>Node1&#45;&gt;Node2</title>
<path fill="none" stroke="midnightblue" d="M858.9,-59.5C850.32,-59.5 841.7,-59.5 833.26,-59.5"/>
<polygon fill="midnightblue" stroke="midnightblue" points="858.93,-63 868.93,-59.5 858.93,-56 858.93,-63"/>
</g>
<!-- Node3 -->
<g id="node3" class="node">
<title>Node3</title>
<g id="a_node3"><a xlink:href="namespace_catch.html#a3a96a82307107087642e22fc4be5844d" target="_top" xlink:title=" ">
<polygon fill="white" stroke="black" points="434.5,-94 434.5,-113 617.5,-113 617.5,-94 434.5,-94"/>
<text text-anchor="middle" x="526" y="-101" font-family="Helvetica,sans-Serif" font-size="10.00">Catch::handleExceptionMatchExpr</text>
</a>
</g>
</g>
<!-- Node2&#45;&gt;Node3 -->
<g id="edge2" class="edge">
<title>Node2&#45;&gt;Node3</title>
<path fill="none" stroke="midnightblue" d="M689.78,-71.08C669.12,-75.34 645.5,-80.18 624,-84.5 608.52,-87.61 591.64,-90.94 576.36,-93.92"/>
<polygon fill="midnightblue" stroke="midnightblue" points="690.57,-74.49 699.65,-69.04 689.15,-67.64 690.57,-74.49"/>
</g>
<!-- Node4 -->
<g id="node4" class="node">
<title>Node4</title>
<g id="a_node4"><a xlink:href="class_catch_1_1_assertion_handler.html#aa2504dad6a91f3645e5f52c932c11270" target="_top" xlink:title=" ">
<polygon fill="white" stroke="black" points="428,-44.5 428,-74.5 624,-74.5 624,-44.5 428,-44.5"/>
<text text-anchor="start" x="436" y="-62.5" font-family="Helvetica,sans-Serif" font-size="10.00">Catch::AssertionHandler</text>
<text text-anchor="middle" x="526" y="-51.5" font-family="Helvetica,sans-Serif" font-size="10.00">::handleUnexpectedInflightException</text>
</a>
</g>
</g>
<!-- Node2&#45;&gt;Node4 -->
<g id="edge3" class="edge">
<title>Node2&#45;&gt;Node4</title>
<path fill="none" stroke="midnightblue" d="M649.53,-59.5C641.08,-59.5 632.52,-59.5 624.06,-59.5"/>
<polygon fill="midnightblue" stroke="midnightblue" points="649.77,-63 659.77,-59.5 649.77,-56 649.77,-63"/>
</g>
<!-- Node5 -->
<g id="node5" class="node">
<title>Node5</title>
<g id="a_node5"><a xlink:href="namespace_catch_1_1_benchmark.html#a59d11a04c61ac4c4a740352ecff9b0eb" target="_top" xlink:title=" ">
<polygon fill="white" stroke="black" points="445.5,-6 445.5,-25 606.5,-25 606.5,-6 445.5,-6"/>
<text text-anchor="middle" x="526" y="-13" font-family="Helvetica,sans-Serif" font-size="10.00">Catch::Benchmark::user_code</text>
</a>
</g>
</g>
<!-- Node2&#45;&gt;Node5 -->
<g id="edge4" class="edge">
<title>Node2&#45;&gt;Node5</title>
<path fill="none" stroke="midnightblue" d="M687.9,-47.9C652.48,-40.77 607.65,-31.74 574.32,-25.03"/>
<polygon fill="midnightblue" stroke="midnightblue" points="687.59,-51.41 698.09,-49.95 688.98,-44.55 687.59,-51.41"/>
</g>
<!-- Node6 -->
<g id="node6" class="node">
<title>Node6</title>
<g id="a_node6"><a xlink:href="struct_catch_1_1_benchmark_1_1_benchmark.html#aeff43305485b4ce29af38094437a8544" target="_top" xlink:title=" ">
<polygon fill="white" stroke="black" points="203,-6 203,-25 392,-25 392,-6 203,-6"/>
<text text-anchor="middle" x="297.5" y="-13" font-family="Helvetica,sans-Serif" font-size="10.00">Catch::Benchmark::Benchmark::run</text>
</a>
</g>
</g>
<!-- Node5&#45;&gt;Node6 -->
<g id="edge5" class="edge">
<title>Node5&#45;&gt;Node6</title>
<path fill="none" stroke="midnightblue" d="M435.26,-15.5C421.11,-15.5 406.45,-15.5 392.21,-15.5"/>
<polygon fill="midnightblue" stroke="midnightblue" points="435.46,-19 445.46,-15.5 435.46,-12 435.46,-19"/>
</g>
<!-- Node7 -->
<g id="node7" class="node">
<title>Node7</title>
<g id="a_node7"><a xlink:href="struct_catch_1_1_benchmark_1_1_benchmark.html#a57a804496fc648d4ed54e41434677c9d" target="_top" xlink:title=" ">
<polygon fill="white" stroke="black" points="0,-0.5 0,-30.5 167,-30.5 167,-0.5 0,-0.5"/>
<text text-anchor="start" x="8" y="-18.5" font-family="Helvetica,sans-Serif" font-size="10.00">Catch::Benchmark::Benchmark</text>
<text text-anchor="middle" x="83.5" y="-7.5" font-family="Helvetica,sans-Serif" font-size="10.00">::operator=</text>
</a>
</g>
</g>
<!-- Node6&#45;&gt;Node7 -->
<g id="edge6" class="edge">
<title>Node6&#45;&gt;Node7</title>
<path fill="none" stroke="midnightblue" d="M192.85,-15.5C184.26,-15.5 175.66,-15.5 167.27,-15.5"/>
<polygon fill="midnightblue" stroke="midnightblue" points="192.9,-19 202.9,-15.5 192.9,-12 192.9,-19"/>
</g>
</g>
</svg>
