<?xml version="1.0" encoding="UTF-8" standalone="no"?>
<!DOCTYPE svg PUBLIC "-//W3C//DTD SVG 1.1//EN"
 "http://www.w3.org/Graphics/SVG/1.1/DTD/svg11.dtd">
<!-- Generated by graphviz version 2.43.0 (0)
 -->
<!-- Title: Catch::StringMaker&lt; unsigned long long &gt;::convert Pages: 1 -->
<svg width="488pt" height="78pt"
 viewBox="0.00 0.00 488.00 77.50" xmlns="http://www.w3.org/2000/svg" xmlns:xlink="http://www.w3.org/1999/xlink">
<g id="graph0" class="graph" transform="scale(1 1) rotate(0) translate(4 73.5)">
<title>Catch::StringMaker&lt; unsigned long long &gt;::convert</title>
<polygon fill="white" stroke="transparent" points="-4,4 -4,-73.5 484,-73.5 484,4 -4,4"/>
<!-- Node1 -->
<g id="node1" class="node">
<title>Node1</title>
<g id="a_node1"><a xlink:title=" ">
<polygon fill="#bfbfbf" stroke="black" points="0,-17 0,-58 120,-58 120,-17 0,-17"/>
<text text-anchor="start" x="8" y="-46" font-family="Helvetica,sans-Serif" font-size="10.00">Catch::StringMaker</text>
<text text-anchor="start" x="8" y="-35" font-family="Helvetica,sans-Serif" font-size="10.00">&lt; unsigned long long</text>
<text text-anchor="middle" x="60" y="-24" font-family="Helvetica,sans-Serif" font-size="10.00"> &gt;::convert</text>
</a>
</g>
</g>
<!-- Node2 -->
<g id="node2" class="node">
<title>Node2</title>
<g id="a_node2"><a xlink:href="class_catch_1_1_reusable_string_stream.html#a0e9ecf260b2a5d35f4886ef0d51f6270" target="_top" xlink:title=" ">
<polygon fill="white" stroke="black" points="156,-50 156,-69 334,-69 334,-50 156,-50"/>
<text text-anchor="middle" x="245" y="-57" font-family="Helvetica,sans-Serif" font-size="10.00">Catch::ReusableStringStream::str</text>
</a>
</g>
</g>
<!-- Node1&#45;&gt;Node2 -->
<g id="edge1" class="edge">
<title>Node1&#45;&gt;Node2</title>
<path fill="none" stroke="midnightblue" d="M120.16,-44.61C131.15,-45.93 142.84,-47.34 154.5,-48.74"/>
<polygon fill="midnightblue" stroke="midnightblue" points="154.36,-52.25 164.71,-49.97 155.2,-45.3 154.36,-52.25"/>
</g>
<!-- Node3 -->
<g id="node3" class="node">
<title>Node3</title>
<g id="a_node3"><a xlink:href="namespace_catch_1_1_generators.html#a3b2efc97978cf37951b75394aae1a3fb" target="_top" xlink:title=" ">
<polygon fill="white" stroke="black" points="190,-0.5 190,-30.5 300,-30.5 300,-0.5 190,-0.5"/>
<text text-anchor="start" x="198" y="-18.5" font-family="Helvetica,sans-Serif" font-size="10.00">Catch::Generators::</text>
<text text-anchor="middle" x="245" y="-7.5" font-family="Helvetica,sans-Serif" font-size="10.00">value</text>
</a>
</g>
</g>
<!-- Node1&#45;&gt;Node3 -->
<g id="edge2" class="edge">
<title>Node1&#45;&gt;Node3</title>
<path fill="none" stroke="midnightblue" d="M120.16,-30.39C139.28,-28.09 160.56,-25.53 180.01,-23.19"/>
<polygon fill="midnightblue" stroke="midnightblue" points="180.49,-26.66 190,-21.99 179.65,-19.71 180.49,-26.66"/>
</g>
<!-- Node4 -->
<g id="node4" class="node">
<title>Node4</title>
<g id="a_node4"><a xlink:href="namespace_catch_1_1_generators_1_1pf.html#a015e8fcef2972da878a07023e40d46d8" target="_top" xlink:title=" ">
<polygon fill="white" stroke="black" points="370,-0.5 370,-30.5 480,-30.5 480,-0.5 370,-0.5"/>
<text text-anchor="start" x="378" y="-18.5" font-family="Helvetica,sans-Serif" font-size="10.00">Catch::Generators::</text>
<text text-anchor="middle" x="425" y="-7.5" font-family="Helvetica,sans-Serif" font-size="10.00">pf::make_unique</text>
</a>
</g>
</g>
<!-- Node3&#45;&gt;Node4 -->
<g id="edge3" class="edge">
<title>Node3&#45;&gt;Node4</title>
<path fill="none" stroke="midnightblue" d="M300.37,-15.5C319.18,-15.5 340.43,-15.5 359.94,-15.5"/>
<polygon fill="midnightblue" stroke="midnightblue" points="359.96,-19 369.96,-15.5 359.96,-12 359.96,-19"/>
</g>
</g>
</svg>
