<?xml version="1.0" encoding="UTF-8" standalone="no"?>
<!DOCTYPE svg PUBLIC "-//W3C//DTD SVG 1.1//EN"
 "http://www.w3.org/Graphics/SVG/1.1/DTD/svg11.dtd">
<!-- Generated by graphviz version 2.43.0 (0)
 -->
<!-- Title: Catch::SectionStats Pages: 1 -->
<!--zoomable 747 -->
<svg id="main" version="1.1" xmlns="http://www.w3.org/2000/svg" xmlns:xlink="http://www.w3.org/1999/xlink" xml:space="preserve" onload="init(evt)">
<style type="text/css"><![CDATA[
.edge:hover path { stroke: red; }
.edge:hover polygon { stroke: red; fill: red; }
]]></style>
<script type="text/javascript"><![CDATA[
var edges = document.getElementsByTagName('g');
if (edges && edges.length) {
  for (var i=0;i<edges.length;i++) {
    if (edges[i].id.substr(0,4)=='edge') {
      edges[i].setAttribute('class','edge');
    }
  }
}
]]></script>
        <defs>
                <circle id="rim" cx="0" cy="0" r="7"/>
                <circle id="rim2" cx="0" cy="0" r="3.5"/>
                <g id="zoomPlus">
                        <use xlink:href="#rim" fill="#404040">
                                <set attributeName="fill" to="#808080" begin="zoomplus.mouseover" end="zoomplus.mouseout"/>
                        </use>
                        <path d="M-4,0h8M0,-4v8" fill="none" stroke="white" stroke-width="1.5" pointer-events="none"/>
                </g>
                <g id="zoomMin">
                        <use xlink:href="#rim" fill="#404040">
                                <set attributeName="fill" to="#808080" begin="zoomminus.mouseover" end="zoomminus.mouseout"/>
                        </use>
                        <path d="M-4,0h8" fill="none" stroke="white" stroke-width="1.5" pointer-events="none"/>
                </g>
                <g id="dirArrow">
                        <path fill="none" stroke="white" stroke-width="1.5" d="M0,-3.0v7 M-2.5,-0.5L0,-3.0L2.5,-0.5"/>
                </g>
               <g id="resetDef">
                       <use xlink:href="#rim2" fill="#404040">
                               <set attributeName="fill" to="#808080" begin="reset.mouseover" end="reset.mouseout"/>
                       </use>
               </g>
        </defs>

<script type="text/javascript">
var viewWidth = 478;
var viewHeight = 747;
var sectionId = 'dynsection-0';
</script>
<script xlink:href="svgpan.js"/>
<svg id="graph" class="graph">
<g id="viewport">
<title>Catch::SectionStats</title>
<polygon fill="white" stroke="transparent" points="-4,4 -4,-743 473.5,-743 473.5,4 -4,4"/>
<!-- Node1 -->
<g id="node1" class="node">
<title>Node1</title>
<g id="a_node1"><a xlink:title=" ">
<polygon fill="#bfbfbf" stroke="black" points="170,-0.5 170,-112.5 281,-112.5 281,-0.5 170,-0.5"/>
<text text-anchor="middle" x="225.5" y="-100.5" font-family="Helvetica,sans-Serif" font-size="10.00">Catch::SectionStats</text>
<polyline fill="none" stroke="black" points="170,-93.5 281,-93.5 "/>
<text text-anchor="middle" x="225.5" y="-81.5" font-family="Helvetica,sans-Serif" font-size="10.00"> </text>
<polyline fill="none" stroke="black" points="170,-74.5 281,-74.5 "/>
<text text-anchor="start" x="178" y="-62.5" font-family="Helvetica,sans-Serif" font-size="10.00">+ SectionStats()</text>
<text text-anchor="start" x="178" y="-51.5" font-family="Helvetica,sans-Serif" font-size="10.00">+ SectionStats()</text>
<text text-anchor="start" x="178" y="-40.5" font-family="Helvetica,sans-Serif" font-size="10.00">+ SectionStats()</text>
<text text-anchor="start" x="178" y="-29.5" font-family="Helvetica,sans-Serif" font-size="10.00">+ operator=()</text>
<text text-anchor="start" x="178" y="-18.5" font-family="Helvetica,sans-Serif" font-size="10.00">+ operator=()</text>
<text text-anchor="start" x="178" y="-7.5" font-family="Helvetica,sans-Serif" font-size="10.00">+ ~SectionStats()</text>
</a>
</g>
</g>
<!-- Node2 -->
<g id="node2" class="node">
<title>Node2</title>
<g id="a_node2"><a xlink:href="struct_catch_1_1_section_info.html" target="_top" xlink:title=" ">
<polygon fill="white" stroke="black" points="127,-160.5 127,-250.5 232,-250.5 232,-160.5 127,-160.5"/>
<text text-anchor="middle" x="179.5" y="-238.5" font-family="Helvetica,sans-Serif" font-size="10.00">Catch::SectionInfo</text>
<polyline fill="none" stroke="black" points="127,-231.5 232,-231.5 "/>
<text text-anchor="middle" x="179.5" y="-219.5" font-family="Helvetica,sans-Serif" font-size="10.00"> </text>
<polyline fill="none" stroke="black" points="127,-212.5 232,-212.5 "/>
<text text-anchor="start" x="135" y="-200.5" font-family="Helvetica,sans-Serif" font-size="10.00">+ SectionInfo()</text>
<text text-anchor="start" x="135" y="-189.5" font-family="Helvetica,sans-Serif" font-size="10.00">+ SectionInfo()</text>
<text text-anchor="start" x="135" y="-178.5" font-family="Helvetica,sans-Serif" font-size="10.00">+ SectionInfo()</text>
<text text-anchor="start" x="135" y="-167.5" font-family="Helvetica,sans-Serif" font-size="10.00">+ SectionInfo()</text>
</a>
</g>
</g>
<!-- Node2&#45;&gt;Node1 -->
<g id="edge1" class="edge">
<title>Node2&#45;&gt;Node1</title>
<path fill="none" stroke="#404040" d="M180.1,-160.42C181.06,-150.59 182.72,-140.32 185.5,-131 186.21,-128.61 187.01,-126.2 187.88,-123.8"/>
<polygon fill="none" stroke="#404040" points="187.9,-123.76 186.44,-116.69 192.4,-112.63 193.86,-119.69 187.9,-123.76"/>
<text text-anchor="middle" x="218.5" y="-134" font-family="Helvetica,sans-Serif" font-size="10.00"> +sectionInfo</text>
</g>
<!-- Node3 -->
<g id="node3" class="node">
<title>Node3</title>
<g id="a_node3"><a xlink:href="struct_catch_1_1_source_line_info.html" target="_top" xlink:title=" ">
<polygon fill="white" stroke="black" points="152.5,-444.5 152.5,-611.5 274.5,-611.5 274.5,-444.5 152.5,-444.5"/>
<text text-anchor="middle" x="213.5" y="-599.5" font-family="Helvetica,sans-Serif" font-size="10.00">Catch::SourceLineInfo</text>
<polyline fill="none" stroke="black" points="152.5,-592.5 274.5,-592.5 "/>
<text text-anchor="middle" x="213.5" y="-580.5" font-family="Helvetica,sans-Serif" font-size="10.00"> </text>
<polyline fill="none" stroke="black" points="152.5,-573.5 274.5,-573.5 "/>
<text text-anchor="start" x="160.5" y="-561.5" font-family="Helvetica,sans-Serif" font-size="10.00">+ SourceLineInfo()</text>
<text text-anchor="start" x="160.5" y="-550.5" font-family="Helvetica,sans-Serif" font-size="10.00">+ SourceLineInfo()</text>
<text text-anchor="start" x="160.5" y="-539.5" font-family="Helvetica,sans-Serif" font-size="10.00">+ SourceLineInfo()</text>
<text text-anchor="start" x="160.5" y="-528.5" font-family="Helvetica,sans-Serif" font-size="10.00">+ operator=()</text>
<text text-anchor="start" x="160.5" y="-517.5" font-family="Helvetica,sans-Serif" font-size="10.00">+ SourceLineInfo()</text>
<text text-anchor="start" x="160.5" y="-506.5" font-family="Helvetica,sans-Serif" font-size="10.00">+ operator=()</text>
<text text-anchor="start" x="160.5" y="-495.5" font-family="Helvetica,sans-Serif" font-size="10.00">+ empty()</text>
<text text-anchor="start" x="160.5" y="-484.5" font-family="Helvetica,sans-Serif" font-size="10.00">+ operator==()</text>
<text text-anchor="start" x="160.5" y="-473.5" font-family="Helvetica,sans-Serif" font-size="10.00">+ operator&lt;()</text>
<text text-anchor="start" x="160.5" y="-462.5" font-family="Helvetica,sans-Serif" font-size="10.00">+ SourceLineInfo()</text>
<text text-anchor="start" x="160.5" y="-451.5" font-family="Helvetica,sans-Serif" font-size="10.00">and 8 more...</text>
</a>
</g>
</g>
<!-- Node3&#45;&gt;Node2 -->
<g id="edge2" class="edge">
<title>Node3&#45;&gt;Node2</title>
<path fill="none" stroke="#404040" d="M204.74,-444.46C198.7,-387.53 190.83,-313.32 185.5,-263.02"/>
<polygon fill="none" stroke="#404040" points="185.46,-262.71 180.85,-257.16 184.2,-250.77 188.81,-256.32 185.46,-262.71"/>
<text text-anchor="middle" x="227" y="-345" font-family="Helvetica,sans-Serif" font-size="10.00"> +lineInfo</text>
</g>
<!-- Node4 -->
<g id="node4" class="node">
<title>Node4</title>
<g id="a_node4"><a xlink:href="classchar.html" target="_top" xlink:title=" ">
<polygon fill="white" stroke="black" points="194.5,-681.5 194.5,-738.5 232.5,-738.5 232.5,-681.5 194.5,-681.5"/>
<text text-anchor="middle" x="213.5" y="-726.5" font-family="Helvetica,sans-Serif" font-size="10.00">char</text>
<polyline fill="none" stroke="black" points="194.5,-719.5 232.5,-719.5 "/>
<text text-anchor="middle" x="213.5" y="-707.5" font-family="Helvetica,sans-Serif" font-size="10.00"> </text>
<polyline fill="none" stroke="black" points="194.5,-700.5 232.5,-700.5 "/>
<text text-anchor="middle" x="213.5" y="-688.5" font-family="Helvetica,sans-Serif" font-size="10.00"> </text>
</a>
</g>
</g>
<!-- Node4&#45;&gt;Node3 -->
<g id="edge3" class="edge">
<title>Node4&#45;&gt;Node3</title>
<path fill="none" stroke="#404040" d="M213.5,-681.27C213.5,-665.53 213.5,-644.82 213.5,-623.75"/>
<polygon fill="none" stroke="#404040" points="213.5,-623.69 209.5,-617.69 213.5,-611.69 217.5,-617.69 213.5,-623.69"/>
<text text-anchor="middle" x="227" y="-644" font-family="Helvetica,sans-Serif" font-size="10.00"> +file</text>
</g>
<!-- Node5 -->
<g id="node5" class="node">
<title>Node5</title>
<g id="a_node5"><a xlink:title=" ">
<polygon fill="white" stroke="#bfbfbf" points="86,-681.5 86,-738.5 131,-738.5 131,-681.5 86,-681.5"/>
<text text-anchor="middle" x="108.5" y="-726.5" font-family="Helvetica,sans-Serif" font-size="10.00">size_t</text>
<polyline fill="none" stroke="#bfbfbf" points="86,-719.5 131,-719.5 "/>
<text text-anchor="middle" x="108.5" y="-707.5" font-family="Helvetica,sans-Serif" font-size="10.00"> </text>
<polyline fill="none" stroke="#bfbfbf" points="86,-700.5 131,-700.5 "/>
<text text-anchor="middle" x="108.5" y="-688.5" font-family="Helvetica,sans-Serif" font-size="10.00"> </text>
</a>
</g>
</g>
<!-- Node5&#45;&gt;Node3 -->
<g id="edge4" class="edge">
<title>Node5&#45;&gt;Node3</title>
<path fill="none" stroke="#404040" d="M124.68,-681.27C134.07,-665.17 146.5,-643.85 159.09,-622.28"/>
<polygon fill="none" stroke="#404040" points="159.22,-622.06 158.78,-614.86 165.26,-611.69 165.69,-618.89 159.22,-622.06"/>
<text text-anchor="middle" x="166.5" y="-644" font-family="Helvetica,sans-Serif" font-size="10.00"> +line</text>
</g>
<!-- Node9 -->
<g id="node9" class="node">
<title>Node9</title>
<g id="a_node9"><a xlink:href="struct_catch_1_1_counts.html" target="_top" xlink:title=" ">
<polygon fill="white" stroke="black" points="0,-269.5 0,-425.5 93,-425.5 93,-269.5 0,-269.5"/>
<text text-anchor="middle" x="46.5" y="-413.5" font-family="Helvetica,sans-Serif" font-size="10.00">Catch::Counts</text>
<polyline fill="none" stroke="black" points="0,-406.5 93,-406.5 "/>
<text text-anchor="middle" x="46.5" y="-394.5" font-family="Helvetica,sans-Serif" font-size="10.00"> </text>
<polyline fill="none" stroke="black" points="0,-387.5 93,-387.5 "/>
<text text-anchor="start" x="8" y="-375.5" font-family="Helvetica,sans-Serif" font-size="10.00">+ operator&#45;()</text>
<text text-anchor="start" x="8" y="-364.5" font-family="Helvetica,sans-Serif" font-size="10.00">+ operator+=()</text>
<text text-anchor="start" x="8" y="-353.5" font-family="Helvetica,sans-Serif" font-size="10.00">+ total()</text>
<text text-anchor="start" x="8" y="-342.5" font-family="Helvetica,sans-Serif" font-size="10.00">+ allPassed()</text>
<text text-anchor="start" x="8" y="-331.5" font-family="Helvetica,sans-Serif" font-size="10.00">+ allOk()</text>
<text text-anchor="start" x="8" y="-320.5" font-family="Helvetica,sans-Serif" font-size="10.00">+ operator&#45;()</text>
<text text-anchor="start" x="8" y="-309.5" font-family="Helvetica,sans-Serif" font-size="10.00">+ operator+=()</text>
<text text-anchor="start" x="8" y="-298.5" font-family="Helvetica,sans-Serif" font-size="10.00">+ total()</text>
<text text-anchor="start" x="8" y="-287.5" font-family="Helvetica,sans-Serif" font-size="10.00">+ allPassed()</text>
<text text-anchor="start" x="8" y="-276.5" font-family="Helvetica,sans-Serif" font-size="10.00">+ allOk()</text>
</a>
</g>
</g>
<!-- Node5&#45;&gt;Node9 -->
<g id="edge9" class="edge">
<title>Node5&#45;&gt;Node9</title>
<path fill="none" stroke="#404040" d="M85.87,-690.11C78.36,-682.52 70.81,-673.15 66.5,-663 36.2,-591.69 33.31,-503.02 36.77,-438.03"/>
<polygon fill="none" stroke="#404040" points="36.78,-437.75 33.15,-431.52 37.51,-425.78 41.14,-432.01 36.78,-437.75"/>
<text text-anchor="middle" x="100" y="-655" font-family="Helvetica,sans-Serif" font-size="10.00"> +failed</text>
<text text-anchor="middle" x="100" y="-644" font-family="Helvetica,sans-Serif" font-size="10.00">+failedButOk</text>
<text text-anchor="middle" x="100" y="-633" font-family="Helvetica,sans-Serif" font-size="10.00">+passed</text>
</g>
<!-- Node6 -->
<g id="node6" class="node">
<title>Node6</title>
<g id="a_node6"><a xlink:title=" ">
<polygon fill="white" stroke="#bfbfbf" points="90.5,-499.5 90.5,-556.5 134.5,-556.5 134.5,-499.5 90.5,-499.5"/>
<text text-anchor="middle" x="112.5" y="-544.5" font-family="Helvetica,sans-Serif" font-size="10.00">string</text>
<polyline fill="none" stroke="#bfbfbf" points="90.5,-537.5 134.5,-537.5 "/>
<text text-anchor="middle" x="112.5" y="-525.5" font-family="Helvetica,sans-Serif" font-size="10.00"> </text>
<polyline fill="none" stroke="#bfbfbf" points="90.5,-518.5 134.5,-518.5 "/>
<text text-anchor="middle" x="112.5" y="-506.5" font-family="Helvetica,sans-Serif" font-size="10.00"> </text>
</a>
</g>
</g>
<!-- Node6&#45;&gt;Node2 -->
<g id="edge5" class="edge">
<title>Node6&#45;&gt;Node2</title>
<path fill="none" stroke="#404040" d="M106.97,-499.29C98.58,-450.52 86.83,-347.13 119.5,-269 120.63,-266.31 121.93,-263.66 123.37,-261.08"/>
<polygon fill="none" stroke="#404040" points="123.5,-260.87 123.39,-253.66 130,-250.78 130.11,-258 123.5,-260.87"/>
<text text-anchor="middle" x="151" y="-350.5" font-family="Helvetica,sans-Serif" font-size="10.00"> +name</text>
<text text-anchor="middle" x="151" y="-339.5" font-family="Helvetica,sans-Serif" font-size="10.00">+description</text>
</g>
<!-- Node7 -->
<g id="node7" class="node">
<title>Node7</title>
<g id="a_node7"><a xlink:title=" ">
<polygon fill="white" stroke="#bfbfbf" points="250.5,-177 250.5,-234 300.5,-234 300.5,-177 250.5,-177"/>
<text text-anchor="middle" x="275.5" y="-222" font-family="Helvetica,sans-Serif" font-size="10.00">double</text>
<polyline fill="none" stroke="#bfbfbf" points="250.5,-215 300.5,-215 "/>
<text text-anchor="middle" x="275.5" y="-203" font-family="Helvetica,sans-Serif" font-size="10.00"> </text>
<polyline fill="none" stroke="#bfbfbf" points="250.5,-196 300.5,-196 "/>
<text text-anchor="middle" x="275.5" y="-184" font-family="Helvetica,sans-Serif" font-size="10.00"> </text>
</a>
</g>
</g>
<!-- Node7&#45;&gt;Node1 -->
<g id="edge6" class="edge">
<title>Node7&#45;&gt;Node1</title>
<path fill="none" stroke="#404040" d="M266.66,-176.87C262.19,-163.07 256.64,-146.12 251.5,-131 250.75,-128.79 249.98,-126.54 249.2,-124.28"/>
<polygon fill="none" stroke="#404040" points="249.16,-124.17 243.42,-119.81 245.24,-112.83 250.98,-117.19 249.16,-124.17"/>
<text text-anchor="middle" x="305.5" y="-134" font-family="Helvetica,sans-Serif" font-size="10.00"> +durationInSeconds</text>
</g>
<!-- Node8 -->
<g id="node8" class="node">
<title>Node8</title>
<g id="a_node8"><a xlink:href="classbool.html" target="_top" xlink:title=" ">
<polygon fill="white" stroke="black" points="379.5,-177 379.5,-234 417.5,-234 417.5,-177 379.5,-177"/>
<text text-anchor="middle" x="398.5" y="-222" font-family="Helvetica,sans-Serif" font-size="10.00">bool</text>
<polyline fill="none" stroke="black" points="379.5,-215 417.5,-215 "/>
<text text-anchor="middle" x="398.5" y="-203" font-family="Helvetica,sans-Serif" font-size="10.00"> </text>
<polyline fill="none" stroke="black" points="379.5,-196 417.5,-196 "/>
<text text-anchor="middle" x="398.5" y="-184" font-family="Helvetica,sans-Serif" font-size="10.00"> </text>
</a>
</g>
</g>
<!-- Node8&#45;&gt;Node1 -->
<g id="edge7" class="edge">
<title>Node8&#45;&gt;Node1</title>
<path fill="none" stroke="#404040" d="M388.85,-176.9C382.56,-161.94 373.16,-143.93 360.5,-131 341.32,-111.41 315.8,-95.7 292.11,-83.92"/>
<polygon fill="none" stroke="#404040" points="291.85,-83.8 284.71,-84.82 281.02,-78.62 288.16,-77.6 291.85,-83.8"/>
<text text-anchor="middle" x="419" y="-134" font-family="Helvetica,sans-Serif" font-size="10.00"> +missingAssertions</text>
</g>
<!-- Node9&#45;&gt;Node1 -->
<g id="edge8" class="edge">
<title>Node9&#45;&gt;Node1</title>
<path fill="none" stroke="#404040" d="M34.34,-269.14C32.57,-233.61 36.22,-192.29 55.5,-160 78.31,-121.79 121.37,-96.04 158.44,-79.91"/>
<polygon fill="none" stroke="#404040" points="158.65,-79.83 162.65,-73.83 169.73,-75.21 165.73,-81.21 158.65,-79.83"/>
<text text-anchor="middle" x="86.5" y="-203" font-family="Helvetica,sans-Serif" font-size="10.00"> +assertions</text>
</g>
</g>
</svg>
        <g id="navigator" transform="translate(0 0)" fill="#404254">
                <rect fill="#f2f5e9" fill-opacity="0.5" stroke="#606060" stroke-width=".5" x="0" y="0" width="60" height="60"/>
                <use id="zoomplus" xlink:href="#zoomPlus" x="17" y="9" onmousedown="handleZoom(evt,'in')"/>
                <use id="zoomminus" xlink:href="#zoomMin" x="42" y="9" onmousedown="handleZoom(evt,'out')"/>
                <use id="reset" xlink:href="#resetDef" x="30" y="36" onmousedown="handleReset()"/>
                <g id="arrowUp" xlink:href="#dirArrow" transform="translate(30 24)" onmousedown="handlePan(0,-1)">
                  <use xlink:href="#rim" fill="#404040">
                        <set attributeName="fill" to="#808080" begin="arrowUp.mouseover" end="arrowUp.mouseout"/>
                  </use>
                  <path fill="none" stroke="white" stroke-width="1.5" d="M0,-3.0v7 M-2.5,-0.5L0,-3.0L2.5,-0.5"/>
                </g>
                <g id="arrowRight" xlink:href="#dirArrow" transform="rotate(90) translate(36 -43)" onmousedown="handlePan(1,0)">
                  <use xlink:href="#rim" fill="#404040">
                        <set attributeName="fill" to="#808080" begin="arrowRight.mouseover" end="arrowRight.mouseout"/>
                  </use>
                  <path fill="none" stroke="white" stroke-width="1.5" d="M0,-3.0v7 M-2.5,-0.5L0,-3.0L2.5,-0.5"/>
                </g>
                <g id="arrowDown" xlink:href="#dirArrow" transform="rotate(180) translate(-30 -48)" onmousedown="handlePan(0,1)">
                  <use xlink:href="#rim" fill="#404040">
                        <set attributeName="fill" to="#808080" begin="arrowDown.mouseover" end="arrowDown.mouseout"/>
                  </use>
                  <path fill="none" stroke="white" stroke-width="1.5" d="M0,-3.0v7 M-2.5,-0.5L0,-3.0L2.5,-0.5"/>
                </g>
                <g id="arrowLeft" xlink:href="#dirArrow" transform="rotate(270) translate(-36 17)" onmousedown="handlePan(-1,0)">
                  <use xlink:href="#rim" fill="#404040">
                        <set attributeName="fill" to="#808080" begin="arrowLeft.mouseover" end="arrowLeft.mouseout"/>
                  </use>
                  <path fill="none" stroke="white" stroke-width="1.5" d="M0,-3.0v7 M-2.5,-0.5L0,-3.0L2.5,-0.5"/>
                </g>
        </g>
        <svg viewBox="0 0 15 15" width="100%" height="30px" preserveAspectRatio="xMaxYMin meet">
         <g id="arrow_out" transform="scale(0.3 0.3)">
          <a xlink:href="struct_catch_1_1_section_stats__coll__graph_org.svg" target="_base">
           <rect id="button" ry="5" rx="5" y="6" x="6" height="38" width="38"
                fill="#f2f5e9" fill-opacity="0.5" stroke="#606060" stroke-width="1.0"/>
           <path id="arrow"
             d="M 11.500037,31.436501 C 11.940474,20.09759 22.043105,11.32322 32.158766,21.979434 L 37.068811,17.246167 C 37.068811,17.246167 37.088388,32 37.088388,32 L 22.160133,31.978069 C 22.160133,31.978069 26.997745,27.140456 26.997745,27.140456 C 18.528582,18.264221 13.291696,25.230495 11.500037,31.436501 z"
             style="fill:#404040;"/>
          </a>
         </g>
        </svg>
</svg>
