<?xml version="1.0" encoding="UTF-8" standalone="no"?>
<!DOCTYPE svg PUBLIC "-//W3C//DTD SVG 1.1//EN"
 "http://www.w3.org/Graphics/SVG/1.1/DTD/svg11.dtd">
<!-- Generated by graphviz version 2.43.0 (0)
 -->
<!-- Title: Catch::StreamingReporterBase::testRunEnded Pages: 1 -->
<svg width="323pt" height="186pt"
 viewBox="0.00 0.00 323.00 186.00" xmlns="http://www.w3.org/2000/svg" xmlns:xlink="http://www.w3.org/1999/xlink">
<g id="graph0" class="graph" transform="scale(1 1) rotate(0) translate(4 182)">
<title>Catch::StreamingReporterBase::testRunEnded</title>
<polygon fill="white" stroke="transparent" points="-4,4 -4,-182 319,-182 319,4 -4,4"/>
<!-- Node1 -->
<g id="node1" class="node">
<title>Node1</title>
<g id="a_node1"><a xlink:title=" ">
<polygon fill="#bfbfbf" stroke="black" points="172,-73.5 172,-103.5 315,-103.5 315,-73.5 172,-73.5"/>
<text text-anchor="start" x="180" y="-91.5" font-family="Helvetica,sans-Serif" font-size="10.00">Catch::StreamingReporter</text>
<text text-anchor="middle" x="243.5" y="-80.5" font-family="Helvetica,sans-Serif" font-size="10.00">Base::testRunEnded</text>
</a>
</g>
</g>
<!-- Node2 -->
<g id="node2" class="node">
<title>Node2</title>
<g id="a_node2"><a xlink:href="struct_catch_1_1_compact_reporter.html#abf31540bf74013cb7736f28291712d53" target="_top" xlink:title=" ">
<polygon fill="white" stroke="black" points="0,-147.5 0,-177.5 136,-177.5 136,-147.5 0,-147.5"/>
<text text-anchor="start" x="8" y="-165.5" font-family="Helvetica,sans-Serif" font-size="10.00">Catch::CompactReporter</text>
<text text-anchor="middle" x="68" y="-154.5" font-family="Helvetica,sans-Serif" font-size="10.00">::testRunEnded</text>
</a>
</g>
</g>
<!-- Node1&#45;&gt;Node2 -->
<g id="edge1" class="edge">
<title>Node1&#45;&gt;Node2</title>
<path fill="none" stroke="midnightblue" d="M203.01,-108.13C183.12,-117.74 158.49,-129.22 136,-138.5 128.58,-141.56 120.6,-144.62 112.84,-147.47"/>
<polygon fill="midnightblue" stroke="midnightblue" points="204.62,-111.24 212.09,-103.72 201.56,-104.95 204.62,-111.24"/>
</g>
<!-- Node3 -->
<g id="node3" class="node">
<title>Node3</title>
<g id="a_node3"><a xlink:href="class_catch_1_1_xml_reporter.html#a2458c9f342a446f0b3a7480b53c93705" target="_top" xlink:title=" ">
<polygon fill="white" stroke="black" points="12,-98.5 12,-128.5 124,-128.5 124,-98.5 12,-98.5"/>
<text text-anchor="start" x="20" y="-116.5" font-family="Helvetica,sans-Serif" font-size="10.00">Catch::XmlReporter</text>
<text text-anchor="middle" x="68" y="-105.5" font-family="Helvetica,sans-Serif" font-size="10.00">::testRunEnded</text>
</a>
</g>
</g>
<!-- Node1&#45;&gt;Node3 -->
<g id="edge2" class="edge">
<title>Node1&#45;&gt;Node3</title>
<path fill="none" stroke="midnightblue" d="M161.76,-100.13C149,-101.97 136.07,-103.84 124.08,-105.56"/>
<polygon fill="midnightblue" stroke="midnightblue" points="162.53,-103.56 171.93,-98.67 161.53,-96.63 162.53,-103.56"/>
</g>
<!-- Node4 -->
<g id="node4" class="node">
<title>Node4</title>
<g id="a_node4"><a xlink:href="struct_catch_1_1_console_reporter.html#a665c8005050d0f1745935e0dde76e280" target="_top" xlink:title=" ">
<polygon fill="white" stroke="black" points="2.5,-49.5 2.5,-79.5 133.5,-79.5 133.5,-49.5 2.5,-49.5"/>
<text text-anchor="start" x="10.5" y="-67.5" font-family="Helvetica,sans-Serif" font-size="10.00">Catch::ConsoleReporter</text>
<text text-anchor="middle" x="68" y="-56.5" font-family="Helvetica,sans-Serif" font-size="10.00">::testRunEnded</text>
</a>
</g>
</g>
<!-- Node1&#45;&gt;Node4 -->
<g id="edge3" class="edge">
<title>Node1&#45;&gt;Node4</title>
<path fill="none" stroke="midnightblue" d="M161.76,-77.33C152.33,-76.03 142.81,-74.71 133.64,-73.44"/>
<polygon fill="midnightblue" stroke="midnightblue" points="161.55,-80.83 171.93,-78.74 162.5,-73.9 161.55,-80.83"/>
</g>
<!-- Node5 -->
<g id="node5" class="node">
<title>Node5</title>
<g id="a_node5"><a xlink:href="struct_catch_1_1_t_a_p_reporter.html#a991c5fc83855f65e11e840044335198a" target="_top" xlink:title=" ">
<polygon fill="white" stroke="black" points="13,-0.5 13,-30.5 123,-30.5 123,-0.5 13,-0.5"/>
<text text-anchor="start" x="21" y="-18.5" font-family="Helvetica,sans-Serif" font-size="10.00">Catch::TAPReporter</text>
<text text-anchor="middle" x="68" y="-7.5" font-family="Helvetica,sans-Serif" font-size="10.00">::testRunEnded</text>
</a>
</g>
</g>
<!-- Node1&#45;&gt;Node5 -->
<g id="edge4" class="edge">
<title>Node1&#45;&gt;Node5</title>
<path fill="none" stroke="midnightblue" d="M201.31,-69.17C181.67,-60.15 157.76,-49.45 136,-40.5 127.85,-37.15 119.06,-33.73 110.63,-30.54"/>
<polygon fill="midnightblue" stroke="midnightblue" points="200.04,-72.44 210.58,-73.45 202.97,-66.08 200.04,-72.44"/>
</g>
</g>
</svg>
