<?xml version="1.0" encoding="UTF-8" standalone="no"?>
<!DOCTYPE svg PUBLIC "-//W3C//DTD SVG 1.1//EN"
 "http://www.w3.org/Graphics/SVG/1.1/DTD/svg11.dtd">
<!-- Generated by graphviz version 2.43.0 (0)
 -->
<!-- Title: Catch::Matchers::StdString::CasedString Pages: 1 -->
<svg width="179pt" height="237pt"
 viewBox="0.00 0.00 179.00 237.00" xmlns="http://www.w3.org/2000/svg" xmlns:xlink="http://www.w3.org/1999/xlink">
<g id="graph0" class="graph" transform="scale(1 1) rotate(0) translate(4 233)">
<title>Catch::Matchers::StdString::CasedString</title>
<polygon fill="white" stroke="transparent" points="-4,4 -4,-233 175,-233 175,4 -4,4"/>
<!-- Node1 -->
<g id="node1" class="node">
<title>Node1</title>
<g id="a_node1"><a xlink:title=" ">
<polygon fill="#bfbfbf" stroke="black" points="14,-0.5 14,-123.5 160,-123.5 160,-0.5 14,-0.5"/>
<text text-anchor="start" x="22" y="-111.5" font-family="Helvetica,sans-Serif" font-size="10.00">Catch::Matchers::StdString</text>
<text text-anchor="middle" x="87" y="-100.5" font-family="Helvetica,sans-Serif" font-size="10.00">::CasedString</text>
<polyline fill="none" stroke="black" points="14,-93.5 160,-93.5 "/>
<text text-anchor="middle" x="87" y="-81.5" font-family="Helvetica,sans-Serif" font-size="10.00"> </text>
<polyline fill="none" stroke="black" points="14,-74.5 160,-74.5 "/>
<text text-anchor="start" x="22" y="-62.5" font-family="Helvetica,sans-Serif" font-size="10.00">+ CasedString()</text>
<text text-anchor="start" x="22" y="-51.5" font-family="Helvetica,sans-Serif" font-size="10.00">+ adjustString()</text>
<text text-anchor="start" x="22" y="-40.5" font-family="Helvetica,sans-Serif" font-size="10.00">+ caseSensitivitySuffix()</text>
<text text-anchor="start" x="22" y="-29.5" font-family="Helvetica,sans-Serif" font-size="10.00">+ CasedString()</text>
<text text-anchor="start" x="22" y="-18.5" font-family="Helvetica,sans-Serif" font-size="10.00">+ adjustString()</text>
<text text-anchor="start" x="22" y="-7.5" font-family="Helvetica,sans-Serif" font-size="10.00">+ caseSensitivitySuffix()</text>
</a>
</g>
</g>
<!-- Node2 -->
<g id="node2" class="node">
<title>Node2</title>
<g id="a_node2"><a xlink:title=" ">
<polygon fill="white" stroke="#bfbfbf" points="0,-171.5 0,-228.5 50,-228.5 50,-171.5 0,-171.5"/>
<text text-anchor="middle" x="25" y="-216.5" font-family="Helvetica,sans-Serif" font-size="10.00">Choice</text>
<polyline fill="none" stroke="#bfbfbf" points="0,-209.5 50,-209.5 "/>
<text text-anchor="middle" x="25" y="-197.5" font-family="Helvetica,sans-Serif" font-size="10.00"> </text>
<polyline fill="none" stroke="#bfbfbf" points="0,-190.5 50,-190.5 "/>
<text text-anchor="middle" x="25" y="-178.5" font-family="Helvetica,sans-Serif" font-size="10.00"> </text>
</a>
</g>
</g>
<!-- Node2&#45;&gt;Node1 -->
<g id="edge1" class="edge">
<title>Node2&#45;&gt;Node1</title>
<path fill="none" stroke="#404040" d="M22.01,-171.41C21.87,-161.86 22.76,-151.25 26,-142 26.85,-139.57 27.81,-137.16 28.86,-134.77"/>
<polygon fill="none" stroke="#404040" points="28.99,-134.5 28.11,-127.35 34.38,-123.78 35.26,-130.94 28.99,-134.5"/>
<text text-anchor="middle" x="76.5" y="-145" font-family="Helvetica,sans-Serif" font-size="10.00"> +m_caseSensitivity</text>
</g>
<!-- Node3 -->
<g id="node3" class="node">
<title>Node3</title>
<g id="a_node3"><a xlink:title=" ">
<polygon fill="white" stroke="#bfbfbf" points="127,-171.5 127,-228.5 171,-228.5 171,-171.5 127,-171.5"/>
<text text-anchor="middle" x="149" y="-216.5" font-family="Helvetica,sans-Serif" font-size="10.00">string</text>
<polyline fill="none" stroke="#bfbfbf" points="127,-209.5 171,-209.5 "/>
<text text-anchor="middle" x="149" y="-197.5" font-family="Helvetica,sans-Serif" font-size="10.00"> </text>
<polyline fill="none" stroke="#bfbfbf" points="127,-190.5 171,-190.5 "/>
<text text-anchor="middle" x="149" y="-178.5" font-family="Helvetica,sans-Serif" font-size="10.00"> </text>
</a>
</g>
</g>
<!-- Node3&#45;&gt;Node1 -->
<g id="edge2" class="edge">
<title>Node3&#45;&gt;Node1</title>
<path fill="none" stroke="#404040" d="M138.92,-171.23C135.35,-161.86 131.18,-151.4 127,-142 125.91,-139.55 124.78,-137.06 123.62,-134.56"/>
<polygon fill="none" stroke="#404040" points="123.54,-134.37 117.36,-130.65 118.41,-123.52 124.59,-127.24 123.54,-134.37"/>
<text text-anchor="middle" x="151" y="-145" font-family="Helvetica,sans-Serif" font-size="10.00"> +m_str</text>
</g>
</g>
</svg>
