<?xml version="1.0" encoding="UTF-8" standalone="no"?>
<!DOCTYPE svg PUBLIC "-//W3C//DTD SVG 1.1//EN"
 "http://www.w3.org/Graphics/SVG/1.1/DTD/svg11.dtd">
<!-- Generated by graphviz version 2.43.0 (0)
 -->
<!-- Title: Catch::Totals Pages: 1 -->
<svg width="169pt" height="463pt"
 viewBox="0.00 0.00 168.50 463.00" xmlns="http://www.w3.org/2000/svg" xmlns:xlink="http://www.w3.org/1999/xlink">
<g id="graph0" class="graph" transform="scale(1 1) rotate(0) translate(4 459)">
<title>Catch::Totals</title>
<polygon fill="white" stroke="transparent" points="-4,4 -4,-459 164.5,-459 164.5,4 -4,4"/>
<!-- Node1 -->
<g id="node1" class="node">
<title>Node1</title>
<g id="a_node1"><a xlink:title=" ">
<polygon fill="#bfbfbf" stroke="black" points="2,-0.5 2,-112.5 95,-112.5 95,-0.5 2,-0.5"/>
<text text-anchor="middle" x="48.5" y="-100.5" font-family="Helvetica,sans-Serif" font-size="10.00">Catch::Totals</text>
<polyline fill="none" stroke="black" points="2,-93.5 95,-93.5 "/>
<text text-anchor="middle" x="48.5" y="-81.5" font-family="Helvetica,sans-Serif" font-size="10.00"> </text>
<polyline fill="none" stroke="black" points="2,-74.5 95,-74.5 "/>
<text text-anchor="start" x="10" y="-62.5" font-family="Helvetica,sans-Serif" font-size="10.00">+ operator&#45;()</text>
<text text-anchor="start" x="10" y="-51.5" font-family="Helvetica,sans-Serif" font-size="10.00">+ operator+=()</text>
<text text-anchor="start" x="10" y="-40.5" font-family="Helvetica,sans-Serif" font-size="10.00">+ delta()</text>
<text text-anchor="start" x="10" y="-29.5" font-family="Helvetica,sans-Serif" font-size="10.00">+ operator&#45;()</text>
<text text-anchor="start" x="10" y="-18.5" font-family="Helvetica,sans-Serif" font-size="10.00">+ operator+=()</text>
<text text-anchor="start" x="10" y="-7.5" font-family="Helvetica,sans-Serif" font-size="10.00">+ delta()</text>
</a>
</g>
</g>
<!-- Node2 -->
<g id="node2" class="node">
<title>Node2</title>
<g id="a_node2"><a xlink:title=" ">
<polygon fill="white" stroke="#bfbfbf" points="0,-221 0,-278 29,-278 29,-221 0,-221"/>
<text text-anchor="middle" x="14.5" y="-266" font-family="Helvetica,sans-Serif" font-size="10.00">int</text>
<polyline fill="none" stroke="#bfbfbf" points="0,-259 29,-259 "/>
<text text-anchor="middle" x="14.5" y="-247" font-family="Helvetica,sans-Serif" font-size="10.00"> </text>
<polyline fill="none" stroke="#bfbfbf" points="0,-240 29,-240 "/>
<text text-anchor="middle" x="14.5" y="-228" font-family="Helvetica,sans-Serif" font-size="10.00"> </text>
</a>
</g>
</g>
<!-- Node2&#45;&gt;Node1 -->
<g id="edge1" class="edge">
<title>Node2&#45;&gt;Node1</title>
<path fill="none" stroke="#404040" d="M15.46,-220.72C16.67,-196.76 19.4,-161.33 25.5,-131 25.94,-128.83 26.41,-126.64 26.92,-124.43"/>
<polygon fill="none" stroke="#404040" points="26.98,-124.2 24.56,-117.4 29.91,-112.56 32.32,-119.36 26.98,-124.2"/>
<text text-anchor="middle" x="43" y="-139.5" font-family="Helvetica,sans-Serif" font-size="10.00"> +error</text>
</g>
<!-- Node3 -->
<g id="node3" class="node">
<title>Node3</title>
<g id="a_node3"><a xlink:href="struct_catch_1_1_counts.html" target="_top" xlink:title=" ">
<polygon fill="white" stroke="black" points="47,-171.5 47,-327.5 140,-327.5 140,-171.5 47,-171.5"/>
<text text-anchor="middle" x="93.5" y="-315.5" font-family="Helvetica,sans-Serif" font-size="10.00">Catch::Counts</text>
<polyline fill="none" stroke="black" points="47,-308.5 140,-308.5 "/>
<text text-anchor="middle" x="93.5" y="-296.5" font-family="Helvetica,sans-Serif" font-size="10.00"> </text>
<polyline fill="none" stroke="black" points="47,-289.5 140,-289.5 "/>
<text text-anchor="start" x="55" y="-277.5" font-family="Helvetica,sans-Serif" font-size="10.00">+ operator&#45;()</text>
<text text-anchor="start" x="55" y="-266.5" font-family="Helvetica,sans-Serif" font-size="10.00">+ operator+=()</text>
<text text-anchor="start" x="55" y="-255.5" font-family="Helvetica,sans-Serif" font-size="10.00">+ total()</text>
<text text-anchor="start" x="55" y="-244.5" font-family="Helvetica,sans-Serif" font-size="10.00">+ allPassed()</text>
<text text-anchor="start" x="55" y="-233.5" font-family="Helvetica,sans-Serif" font-size="10.00">+ allOk()</text>
<text text-anchor="start" x="55" y="-222.5" font-family="Helvetica,sans-Serif" font-size="10.00">+ operator&#45;()</text>
<text text-anchor="start" x="55" y="-211.5" font-family="Helvetica,sans-Serif" font-size="10.00">+ operator+=()</text>
<text text-anchor="start" x="55" y="-200.5" font-family="Helvetica,sans-Serif" font-size="10.00">+ total()</text>
<text text-anchor="start" x="55" y="-189.5" font-family="Helvetica,sans-Serif" font-size="10.00">+ allPassed()</text>
<text text-anchor="start" x="55" y="-178.5" font-family="Helvetica,sans-Serif" font-size="10.00">+ allOk()</text>
</a>
</g>
</g>
<!-- Node3&#45;&gt;Node1 -->
<g id="edge2" class="edge">
<title>Node3&#45;&gt;Node1</title>
<path fill="none" stroke="#404040" d="M75.33,-171.36C71.67,-155.84 67.85,-139.65 64.29,-124.5"/>
<polygon fill="none" stroke="#404040" points="64.24,-124.3 58.97,-119.38 61.49,-112.62 66.76,-117.54 64.24,-124.3"/>
<text text-anchor="middle" x="100.5" y="-145" font-family="Helvetica,sans-Serif" font-size="10.00"> +testCases</text>
<text text-anchor="middle" x="100.5" y="-134" font-family="Helvetica,sans-Serif" font-size="10.00">+assertions</text>
</g>
<!-- Node4 -->
<g id="node4" class="node">
<title>Node4</title>
<g id="a_node4"><a xlink:title=" ">
<polygon fill="white" stroke="#bfbfbf" points="71,-397.5 71,-454.5 116,-454.5 116,-397.5 71,-397.5"/>
<text text-anchor="middle" x="93.5" y="-442.5" font-family="Helvetica,sans-Serif" font-size="10.00">size_t</text>
<polyline fill="none" stroke="#bfbfbf" points="71,-435.5 116,-435.5 "/>
<text text-anchor="middle" x="93.5" y="-423.5" font-family="Helvetica,sans-Serif" font-size="10.00"> </text>
<polyline fill="none" stroke="#bfbfbf" points="71,-416.5 116,-416.5 "/>
<text text-anchor="middle" x="93.5" y="-404.5" font-family="Helvetica,sans-Serif" font-size="10.00"> </text>
</a>
</g>
</g>
<!-- Node4&#45;&gt;Node3 -->
<g id="edge3" class="edge">
<title>Node4&#45;&gt;Node3</title>
<path fill="none" stroke="#404040" d="M93.5,-397.35C93.5,-381.6 93.5,-360.9 93.5,-340.02"/>
<polygon fill="none" stroke="#404040" points="93.5,-339.74 89.5,-333.74 93.5,-327.74 97.5,-333.74 93.5,-339.74"/>
<text text-anchor="middle" x="127" y="-371" font-family="Helvetica,sans-Serif" font-size="10.00"> +failed</text>
<text text-anchor="middle" x="127" y="-360" font-family="Helvetica,sans-Serif" font-size="10.00">+failedButOk</text>
<text text-anchor="middle" x="127" y="-349" font-family="Helvetica,sans-Serif" font-size="10.00">+passed</text>
</g>
</g>
</svg>
