<?xml version="1.0" encoding="UTF-8" standalone="no"?>
<!DOCTYPE svg PUBLIC "-//W3C//DTD SVG 1.1//EN"
 "http://www.w3.org/Graphics/SVG/1.1/DTD/svg11.dtd">
<!-- Generated by graphviz version 2.43.0 (0)
 -->
<!-- Title: Catch::Matchers::Impl::MatchAnyOf&lt; ArgT &gt; Pages: 1 -->
<svg width="156pt" height="259pt"
 viewBox="0.00 0.00 156.00 259.00" xmlns="http://www.w3.org/2000/svg" xmlns:xlink="http://www.w3.org/1999/xlink">
<g id="graph0" class="graph" transform="scale(1 1) rotate(0) translate(4 255)">
<title>Catch::Matchers::Impl::MatchAnyOf&lt; ArgT &gt;</title>
<polygon fill="white" stroke="transparent" points="-4,4 -4,-255 152,-255 152,4 -4,4"/>
<!-- Node1 -->
<g id="node1" class="node">
<title>Node1</title>
<g id="a_node1"><a xlink:title=" ">
<polygon fill="#bfbfbf" stroke="black" points="10,-0.5 10,-123.5 138,-123.5 138,-0.5 10,-0.5"/>
<text text-anchor="start" x="18" y="-111.5" font-family="Helvetica,sans-Serif" font-size="10.00">Catch::Matchers::Impl</text>
<text text-anchor="middle" x="74" y="-100.5" font-family="Helvetica,sans-Serif" font-size="10.00">::MatchAnyOf&lt; ArgT &gt;</text>
<polyline fill="none" stroke="black" points="10,-93.5 138,-93.5 "/>
<text text-anchor="middle" x="74" y="-81.5" font-family="Helvetica,sans-Serif" font-size="10.00"> </text>
<polyline fill="none" stroke="black" points="10,-74.5 138,-74.5 "/>
<text text-anchor="start" x="18" y="-62.5" font-family="Helvetica,sans-Serif" font-size="10.00">+ match()</text>
<text text-anchor="start" x="18" y="-51.5" font-family="Helvetica,sans-Serif" font-size="10.00">+ describe()</text>
<text text-anchor="start" x="18" y="-40.5" font-family="Helvetica,sans-Serif" font-size="10.00">+ operator||()</text>
<text text-anchor="start" x="18" y="-29.5" font-family="Helvetica,sans-Serif" font-size="10.00">+ match()</text>
<text text-anchor="start" x="18" y="-18.5" font-family="Helvetica,sans-Serif" font-size="10.00">+ describe()</text>
<text text-anchor="start" x="18" y="-7.5" font-family="Helvetica,sans-Serif" font-size="10.00">+ operator||()</text>
</a>
</g>
</g>
<!-- Node2 -->
<g id="node2" class="node">
<title>Node2</title>
<g id="a_node2"><a xlink:title=" ">
<polygon fill="white" stroke="#bfbfbf" points="0,-171.5 0,-250.5 148,-250.5 148,-171.5 0,-171.5"/>
<text text-anchor="start" x="8" y="-238.5" font-family="Helvetica,sans-Serif" font-size="10.00">vector&lt; Catch::Matchers</text>
<text text-anchor="start" x="8" y="-227.5" font-family="Helvetica,sans-Serif" font-size="10.00">::Impl::MatcherBase&lt; ArgT</text>
<text text-anchor="middle" x="74" y="-216.5" font-family="Helvetica,sans-Serif" font-size="10.00"> &gt; const * &gt;</text>
<polyline fill="none" stroke="#bfbfbf" points="0,-209.5 148,-209.5 "/>
<text text-anchor="middle" x="74" y="-197.5" font-family="Helvetica,sans-Serif" font-size="10.00"> </text>
<polyline fill="none" stroke="#bfbfbf" points="0,-190.5 148,-190.5 "/>
<text text-anchor="middle" x="74" y="-178.5" font-family="Helvetica,sans-Serif" font-size="10.00"> </text>
</a>
</g>
</g>
<!-- Node2&#45;&gt;Node1 -->
<g id="edge1" class="edge">
<title>Node2&#45;&gt;Node1</title>
<path fill="none" stroke="#404040" d="M74,-171.38C74,-160.4 74,-148.08 74,-135.78"/>
<polygon fill="none" stroke="#404040" points="74,-135.55 70,-129.55 74,-123.55 78,-129.55 74,-135.55"/>
<text text-anchor="middle" x="110.5" y="-145" font-family="Helvetica,sans-Serif" font-size="10.00"> +m_matchers</text>
</g>
</g>
</svg>
