<?xml version="1.0" encoding="UTF-8" standalone="no"?>
<!DOCTYPE svg PUBLIC "-//W3C//DTD SVG 1.1//EN"
 "http://www.w3.org/Graphics/SVG/1.1/DTD/svg11.dtd">
<!-- Generated by graphviz version 2.43.0 (0)
 -->
<!-- Title: Catch::CompactReporter::sectionEnded Pages: 1 -->
<svg width="537pt" height="104pt"
 viewBox="0.00 0.00 537.00 104.00" xmlns="http://www.w3.org/2000/svg" xmlns:xlink="http://www.w3.org/1999/xlink">
<g id="graph0" class="graph" transform="scale(1 1) rotate(0) translate(4 100)">
<title>Catch::CompactReporter::sectionEnded</title>
<polygon fill="white" stroke="transparent" points="-4,4 -4,-100 533,-100 533,4 -4,4"/>
<!-- Node1 -->
<g id="node1" class="node">
<title>Node1</title>
<g id="a_node1"><a xlink:title=" ">
<polygon fill="#bfbfbf" stroke="black" points="0,-52 0,-82 136,-82 136,-52 0,-52"/>
<text text-anchor="start" x="8" y="-70" font-family="Helvetica,sans-Serif" font-size="10.00">Catch::CompactReporter</text>
<text text-anchor="middle" x="68" y="-59" font-family="Helvetica,sans-Serif" font-size="10.00">::sectionEnded</text>
</a>
</g>
</g>
<!-- Node2 -->
<g id="node2" class="node">
<title>Node2</title>
<g id="a_node2"><a xlink:href="namespace_catch.html#af65507889895c5c4b04fb831eeab2972" target="_top" xlink:title=" ">
<polygon fill="white" stroke="black" points="172,-76.5 172,-95.5 330,-95.5 330,-76.5 172,-76.5"/>
<text text-anchor="middle" x="251" y="-83.5" font-family="Helvetica,sans-Serif" font-size="10.00">Catch::getFormattedDuration</text>
</a>
</g>
</g>
<!-- Node1&#45;&gt;Node2 -->
<g id="edge1" class="edge">
<title>Node1&#45;&gt;Node2</title>
<path fill="none" stroke="midnightblue" d="M136.14,-74.05C144.53,-74.93 153.2,-75.84 161.85,-76.75"/>
<polygon fill="midnightblue" stroke="midnightblue" points="161.66,-80.25 171.97,-77.81 162.39,-73.28 161.66,-80.25"/>
</g>
<!-- Node4 -->
<g id="node4" class="node">
<title>Node4</title>
<g id="a_node4"><a xlink:href="namespace_catch.html#af4e1ece5befeb3ff910c3a54ff44abb0" target="_top" xlink:title="Should the reporter show.">
<polygon fill="white" stroke="black" points="175.5,-38.5 175.5,-57.5 326.5,-57.5 326.5,-38.5 175.5,-38.5"/>
<text text-anchor="middle" x="251" y="-45.5" font-family="Helvetica,sans-Serif" font-size="10.00">Catch::shouldShowDuration</text>
</a>
</g>
</g>
<!-- Node1&#45;&gt;Node4 -->
<g id="edge3" class="edge">
<title>Node1&#45;&gt;Node4</title>
<path fill="none" stroke="midnightblue" d="M136.14,-59.95C145.62,-58.96 155.47,-57.92 165.23,-56.9"/>
<polygon fill="midnightblue" stroke="midnightblue" points="165.78,-60.36 175.36,-55.84 165.04,-53.4 165.78,-60.36"/>
</g>
<!-- Node3 -->
<g id="node3" class="node">
<title>Node3</title>
<g id="a_node3"><a xlink:href="xml_8sw_8approved_8txt.html#ab8b8577604b92144025744c78797c3bc" target="_top" xlink:title=" ">
<polygon fill="white" stroke="black" points="425,-76.5 425,-95.5 470,-95.5 470,-76.5 425,-76.5"/>
<text text-anchor="middle" x="447.5" y="-83.5" font-family="Helvetica,sans-Serif" font-size="10.00">size_t</text>
</a>
</g>
</g>
<!-- Node2&#45;&gt;Node3 -->
<g id="edge2" class="edge">
<title>Node2&#45;&gt;Node3</title>
<path fill="none" stroke="midnightblue" d="M330.27,-86C359.8,-86 391.75,-86 414.67,-86"/>
<polygon fill="midnightblue" stroke="midnightblue" points="414.83,-89.5 424.83,-86 414.83,-82.5 414.83,-89.5"/>
</g>
<!-- Node5 -->
<g id="node5" class="node">
<title>Node5</title>
<g id="a_node5"><a xlink:href="struct_catch_1_1_i_config.html#a160c6f6e19ed6ae946f7a9e737099189" target="_top" xlink:title=" ">
<polygon fill="white" stroke="black" points="372,-38.5 372,-57.5 523,-57.5 523,-38.5 372,-38.5"/>
<text text-anchor="middle" x="447.5" y="-45.5" font-family="Helvetica,sans-Serif" font-size="10.00">Catch::IConfig::minDuration</text>
</a>
</g>
</g>
<!-- Node4&#45;&gt;Node5 -->
<g id="edge4" class="edge">
<title>Node4&#45;&gt;Node5</title>
<path fill="none" stroke="midnightblue" d="M326.64,-48C338.08,-48 349.95,-48 361.59,-48"/>
<polygon fill="midnightblue" stroke="midnightblue" points="361.74,-51.5 371.74,-48 361.74,-44.5 361.74,-51.5"/>
</g>
<!-- Node6 -->
<g id="node6" class="node">
<title>Node6</title>
<g id="a_node6"><a xlink:href="struct_catch_1_1_i_config.html#abaa97d281484278291f0d3db6d404aeb" target="_top" xlink:title=" ">
<polygon fill="white" stroke="black" points="366,-0.5 366,-19.5 529,-19.5 529,-0.5 366,-0.5"/>
<text text-anchor="middle" x="447.5" y="-7.5" font-family="Helvetica,sans-Serif" font-size="10.00">Catch::IConfig::showDurations</text>
</a>
</g>
</g>
<!-- Node4&#45;&gt;Node6 -->
<g id="edge5" class="edge">
<title>Node4&#45;&gt;Node6</title>
<path fill="none" stroke="midnightblue" d="M300.83,-38.46C327.19,-33.31 359.92,-26.92 387.67,-21.49"/>
<polygon fill="midnightblue" stroke="midnightblue" points="388.51,-24.9 397.65,-19.54 387.16,-18.03 388.51,-24.9"/>
</g>
</g>
</svg>
