<?xml version="1.0" encoding="UTF-8" standalone="no"?>
<!DOCTYPE svg PUBLIC "-//W3C//DTD SVG 1.1//EN"
 "http://www.w3.org/Graphics/SVG/1.1/DTD/svg11.dtd">
<!-- Generated by graphviz version 2.43.0 (0)
 -->
<!-- Title: MyExceptionMatcher Pages: 1 -->
<svg width="304pt" height="496pt"
 viewBox="0.00 0.00 303.50 496.00" xmlns="http://www.w3.org/2000/svg" xmlns:xlink="http://www.w3.org/1999/xlink">
<g id="graph0" class="graph" transform="scale(1 1) rotate(0) translate(4 492)">
<title>MyExceptionMatcher</title>
<polygon fill="white" stroke="transparent" points="-4,4 -4,-492 299.5,-492 299.5,4 -4,4"/>
<!-- Node1 -->
<g id="node1" class="node">
<title>Node1</title>
<g id="a_node1"><a xlink:title=" ">
<polygon fill="#bfbfbf" stroke="black" points="79.5,-0.5 79.5,-90.5 225.5,-90.5 225.5,-0.5 79.5,-0.5"/>
<text text-anchor="middle" x="152.5" y="-78.5" font-family="Helvetica,sans-Serif" font-size="10.00">MyExceptionMatcher</text>
<polyline fill="none" stroke="black" points="79.5,-71.5 225.5,-71.5 "/>
<text text-anchor="start" x="87.5" y="-59.5" font-family="Helvetica,sans-Serif" font-size="10.00">+ m_text</text>
<polyline fill="none" stroke="black" points="79.5,-52.5 225.5,-52.5 "/>
<text text-anchor="start" x="87.5" y="-40.5" font-family="Helvetica,sans-Serif" font-size="10.00">+ MyExceptionMatcher()</text>
<text text-anchor="start" x="87.5" y="-29.5" font-family="Helvetica,sans-Serif" font-size="10.00">+ ~MyExceptionMatcher()</text>
<text text-anchor="start" x="87.5" y="-18.5" font-family="Helvetica,sans-Serif" font-size="10.00">+ match()</text>
<text text-anchor="start" x="87.5" y="-7.5" font-family="Helvetica,sans-Serif" font-size="10.00">+ describe()</text>
</a>
</g>
</g>
<!-- Node2 -->
<g id="node2" class="node">
<title>Node2</title>
<g id="a_node2"><a xlink:href="struct_catch_1_1_matchers_1_1_impl_1_1_matcher_base.html" target="_top" xlink:title=" ">
<polygon fill="white" stroke="black" points="74,-127.5 74,-261.5 231,-261.5 231,-127.5 74,-127.5"/>
<text text-anchor="start" x="82" y="-249.5" font-family="Helvetica,sans-Serif" font-size="10.00">Catch::Matchers::Impl</text>
<text text-anchor="start" x="82" y="-238.5" font-family="Helvetica,sans-Serif" font-size="10.00">::MatcherBase&lt; std::runtime</text>
<text text-anchor="middle" x="152.5" y="-227.5" font-family="Helvetica,sans-Serif" font-size="10.00">_error &gt;</text>
<polyline fill="none" stroke="black" points="74,-220.5 231,-220.5 "/>
<text text-anchor="middle" x="152.5" y="-208.5" font-family="Helvetica,sans-Serif" font-size="10.00"> </text>
<polyline fill="none" stroke="black" points="74,-201.5 231,-201.5 "/>
<text text-anchor="start" x="82" y="-189.5" font-family="Helvetica,sans-Serif" font-size="10.00">+ operator&amp;&amp;()</text>
<text text-anchor="start" x="82" y="-178.5" font-family="Helvetica,sans-Serif" font-size="10.00">+ operator||()</text>
<text text-anchor="start" x="82" y="-167.5" font-family="Helvetica,sans-Serif" font-size="10.00">+ operator!()</text>
<text text-anchor="start" x="82" y="-156.5" font-family="Helvetica,sans-Serif" font-size="10.00">+ operator&amp;&amp;()</text>
<text text-anchor="start" x="82" y="-145.5" font-family="Helvetica,sans-Serif" font-size="10.00">+ operator||()</text>
<text text-anchor="start" x="82" y="-134.5" font-family="Helvetica,sans-Serif" font-size="10.00">+ operator!()</text>
</a>
</g>
</g>
<!-- Node2&#45;&gt;Node1 -->
<g id="edge1" class="edge">
<title>Node2&#45;&gt;Node1</title>
<path fill="none" stroke="midnightblue" d="M152.5,-117.15C152.5,-108.15 152.5,-99.2 152.5,-90.85"/>
<polygon fill="none" stroke="midnightblue" points="149,-117.31 152.5,-127.31 156,-117.31 149,-117.31"/>
</g>
<!-- Node3 -->
<g id="node3" class="node">
<title>Node3</title>
<g id="a_node3"><a xlink:href="class_catch_1_1_matchers_1_1_impl_1_1_matcher_untyped_base.html" target="_top" xlink:title=" ">
<polygon fill="white" stroke="black" points="0,-298.5 0,-487.5 149,-487.5 149,-298.5 0,-298.5"/>
<text text-anchor="start" x="8" y="-475.5" font-family="Helvetica,sans-Serif" font-size="10.00">Catch::Matchers::Impl</text>
<text text-anchor="middle" x="74.5" y="-464.5" font-family="Helvetica,sans-Serif" font-size="10.00">::MatcherUntypedBase</text>
<polyline fill="none" stroke="black" points="0,-457.5 149,-457.5 "/>
<text text-anchor="start" x="8" y="-445.5" font-family="Helvetica,sans-Serif" font-size="10.00"># m_cachedToString</text>
<polyline fill="none" stroke="black" points="0,-438.5 149,-438.5 "/>
<text text-anchor="start" x="8" y="-426.5" font-family="Helvetica,sans-Serif" font-size="10.00">+ MatcherUntypedBase()</text>
<text text-anchor="start" x="8" y="-415.5" font-family="Helvetica,sans-Serif" font-size="10.00">+ MatcherUntypedBase()</text>
<text text-anchor="start" x="8" y="-404.5" font-family="Helvetica,sans-Serif" font-size="10.00">+ operator=()</text>
<text text-anchor="start" x="8" y="-393.5" font-family="Helvetica,sans-Serif" font-size="10.00">+ toString()</text>
<text text-anchor="start" x="8" y="-382.5" font-family="Helvetica,sans-Serif" font-size="10.00">+ MatcherUntypedBase()</text>
<text text-anchor="start" x="8" y="-371.5" font-family="Helvetica,sans-Serif" font-size="10.00">+ MatcherUntypedBase()</text>
<text text-anchor="start" x="8" y="-360.5" font-family="Helvetica,sans-Serif" font-size="10.00">+ operator=()</text>
<text text-anchor="start" x="8" y="-349.5" font-family="Helvetica,sans-Serif" font-size="10.00">+ toString()</text>
<text text-anchor="start" x="8" y="-338.5" font-family="Helvetica,sans-Serif" font-size="10.00"># ~MatcherUntypedBase()</text>
<text text-anchor="start" x="8" y="-327.5" font-family="Helvetica,sans-Serif" font-size="10.00"># describe()</text>
<text text-anchor="start" x="8" y="-316.5" font-family="Helvetica,sans-Serif" font-size="10.00"># ~MatcherUntypedBase()</text>
<text text-anchor="start" x="8" y="-305.5" font-family="Helvetica,sans-Serif" font-size="10.00"># describe()</text>
</a>
</g>
</g>
<!-- Node3&#45;&gt;Node2 -->
<g id="edge2" class="edge">
<title>Node3&#45;&gt;Node2</title>
<path fill="none" stroke="midnightblue" d="M115.47,-288.79C119.11,-279.62 122.72,-270.51 126.19,-261.78"/>
<polygon fill="none" stroke="midnightblue" points="112.11,-287.77 111.67,-298.35 118.62,-290.35 112.11,-287.77"/>
</g>
<!-- Node4 -->
<g id="node4" class="node">
<title>Node4</title>
<g id="a_node4"><a xlink:href="struct_catch_1_1_matchers_1_1_impl_1_1_matcher_method.html" target="_top" xlink:title=" ">
<polygon fill="white" stroke="black" points="167.5,-353.5 167.5,-432.5 295.5,-432.5 295.5,-353.5 167.5,-353.5"/>
<text text-anchor="start" x="175.5" y="-420.5" font-family="Helvetica,sans-Serif" font-size="10.00">Catch::Matchers::Impl</text>
<text text-anchor="middle" x="231.5" y="-409.5" font-family="Helvetica,sans-Serif" font-size="10.00">::MatcherMethod&lt; T &gt;</text>
<polyline fill="none" stroke="black" points="167.5,-402.5 295.5,-402.5 "/>
<text text-anchor="middle" x="231.5" y="-390.5" font-family="Helvetica,sans-Serif" font-size="10.00"> </text>
<polyline fill="none" stroke="black" points="167.5,-383.5 295.5,-383.5 "/>
<text text-anchor="start" x="175.5" y="-371.5" font-family="Helvetica,sans-Serif" font-size="10.00">+ match()</text>
<text text-anchor="start" x="175.5" y="-360.5" font-family="Helvetica,sans-Serif" font-size="10.00">+ match()</text>
</a>
</g>
</g>
<!-- Node4&#45;&gt;Node2 -->
<g id="edge3" class="edge">
<title>Node4&#45;&gt;Node2</title>
<path fill="none" stroke="midnightblue" d="M212.07,-343.67C202.14,-318.98 189.91,-288.56 179.12,-261.72"/>
<polygon fill="none" stroke="midnightblue" points="208.91,-345.21 215.89,-353.18 215.41,-342.59 208.91,-345.21"/>
</g>
</g>
</svg>
