<?xml version="1.0" encoding="UTF-8" standalone="no"?>
<!DOCTYPE svg PUBLIC "-//W3C//DTD SVG 1.1//EN"
 "http://www.w3.org/Graphics/SVG/1.1/DTD/svg11.dtd">
<!-- Generated by graphviz version 2.43.0 (0)
 -->
<!-- Title: Catch::Generators::IGenerator&lt; T &gt; Pages: 1 -->
<!--zoomable 452 -->
<svg id="main" version="1.1" xmlns="http://www.w3.org/2000/svg" xmlns:xlink="http://www.w3.org/1999/xlink" xml:space="preserve" onload="init(evt)">
<style type="text/css"><![CDATA[
.edge:hover path { stroke: red; }
.edge:hover polygon { stroke: red; fill: red; }
]]></style>
<script type="text/javascript"><![CDATA[
var edges = document.getElementsByTagName('g');
if (edges && edges.length) {
  for (var i=0;i<edges.length;i++) {
    if (edges[i].id.substr(0,4)=='edge') {
      edges[i].setAttribute('class','edge');
    }
  }
}
]]></script>
        <defs>
                <circle id="rim" cx="0" cy="0" r="7"/>
                <circle id="rim2" cx="0" cy="0" r="3.5"/>
                <g id="zoomPlus">
                        <use xlink:href="#rim" fill="#404040">
                                <set attributeName="fill" to="#808080" begin="zoomplus.mouseover" end="zoomplus.mouseout"/>
                        </use>
                        <path d="M-4,0h8M0,-4v8" fill="none" stroke="white" stroke-width="1.5" pointer-events="none"/>
                </g>
                <g id="zoomMin">
                        <use xlink:href="#rim" fill="#404040">
                                <set attributeName="fill" to="#808080" begin="zoomminus.mouseover" end="zoomminus.mouseout"/>
                        </use>
                        <path d="M-4,0h8" fill="none" stroke="white" stroke-width="1.5" pointer-events="none"/>
                </g>
                <g id="dirArrow">
                        <path fill="none" stroke="white" stroke-width="1.5" d="M0,-3.0v7 M-2.5,-0.5L0,-3.0L2.5,-0.5"/>
                </g>
               <g id="resetDef">
                       <use xlink:href="#rim2" fill="#404040">
                               <set attributeName="fill" to="#808080" begin="reset.mouseover" end="reset.mouseout"/>
                       </use>
               </g>
        </defs>

<script type="text/javascript">
var viewWidth = 1301;
var viewHeight = 452;
var sectionId = 'dynsection-0';
</script>
<script xlink:href="svgpan.js"/>
<svg id="graph" class="graph">
<g id="viewport">
<title>Catch::Generators::IGenerator&lt; T &gt;</title>
<polygon fill="white" stroke="transparent" points="-4,4 -4,-448 1296.5,-448 1296.5,4 -4,4"/>
<!-- Node1 -->
<g id="node1" class="node">
<title>Node1</title>
<g id="a_node1"><a xlink:title=" ">
<polygon fill="#bfbfbf" stroke="black" points="586.5,-182.5 586.5,-283.5 696.5,-283.5 696.5,-182.5 586.5,-182.5"/>
<text text-anchor="start" x="594.5" y="-271.5" font-family="Helvetica,sans-Serif" font-size="10.00">Catch::Generators::</text>
<text text-anchor="middle" x="641.5" y="-260.5" font-family="Helvetica,sans-Serif" font-size="10.00">IGenerator&lt; T &gt;</text>
<polyline fill="none" stroke="black" points="586.5,-253.5 696.5,-253.5 "/>
<text text-anchor="middle" x="641.5" y="-241.5" font-family="Helvetica,sans-Serif" font-size="10.00"> </text>
<polyline fill="none" stroke="black" points="586.5,-234.5 696.5,-234.5 "/>
<text text-anchor="start" x="594.5" y="-222.5" font-family="Helvetica,sans-Serif" font-size="10.00">+ ~IGenerator()</text>
<text text-anchor="start" x="594.5" y="-211.5" font-family="Helvetica,sans-Serif" font-size="10.00">+ get()</text>
<text text-anchor="start" x="594.5" y="-200.5" font-family="Helvetica,sans-Serif" font-size="10.00">+ ~IGenerator()</text>
<text text-anchor="start" x="594.5" y="-189.5" font-family="Helvetica,sans-Serif" font-size="10.00">+ get()</text>
</a>
</g>
</g>
<!-- Node3 -->
<g id="node3" class="node">
<title>Node3</title>
<g id="a_node3"><a xlink:href="class_catch_1_1_generators_1_1_filter_generator.html" target="_top" xlink:title=" ">
<polygon fill="white" stroke="black" points="0,-11.5 0,-134.5 119,-134.5 119,-11.5 0,-11.5"/>
<text text-anchor="start" x="8" y="-122.5" font-family="Helvetica,sans-Serif" font-size="10.00">Catch::Generators::</text>
<text text-anchor="middle" x="59.5" y="-111.5" font-family="Helvetica,sans-Serif" font-size="10.00">FilterGenerator&lt; T &gt;</text>
<polyline fill="none" stroke="black" points="0,-104.5 119,-104.5 "/>
<text text-anchor="middle" x="59.5" y="-92.5" font-family="Helvetica,sans-Serif" font-size="10.00"> </text>
<polyline fill="none" stroke="black" points="0,-85.5 119,-85.5 "/>
<text text-anchor="start" x="8" y="-73.5" font-family="Helvetica,sans-Serif" font-size="10.00">+ FilterGenerator()</text>
<text text-anchor="start" x="8" y="-62.5" font-family="Helvetica,sans-Serif" font-size="10.00">+ get()</text>
<text text-anchor="start" x="8" y="-51.5" font-family="Helvetica,sans-Serif" font-size="10.00">+ next()</text>
<text text-anchor="start" x="8" y="-40.5" font-family="Helvetica,sans-Serif" font-size="10.00">+ FilterGenerator()</text>
<text text-anchor="start" x="8" y="-29.5" font-family="Helvetica,sans-Serif" font-size="10.00">+ get()</text>
<text text-anchor="start" x="8" y="-18.5" font-family="Helvetica,sans-Serif" font-size="10.00">+ next()</text>
</a>
</g>
</g>
<!-- Node1&#45;&gt;Node3 -->
<g id="edge2" class="edge">
<title>Node1&#45;&gt;Node3</title>
<path fill="none" stroke="midnightblue" d="M575.99,-226.19C455.77,-214.68 205.2,-186.55 128.5,-146 122.53,-142.84 116.78,-138.98 111.32,-134.69"/>
<polygon fill="none" stroke="midnightblue" points="575.88,-229.69 586.17,-227.15 576.54,-222.72 575.88,-229.69"/>
</g>
<!-- Node4 -->
<g id="node4" class="node">
<title>Node4</title>
<g id="a_node4"><a xlink:href="class_catch_1_1_generators_1_1_fixed_values_generator.html" target="_top" xlink:title=" ">
<polygon fill="white" stroke="black" points="137.5,-11.5 137.5,-134.5 289.5,-134.5 289.5,-11.5 137.5,-11.5"/>
<text text-anchor="start" x="145.5" y="-122.5" font-family="Helvetica,sans-Serif" font-size="10.00">Catch::Generators::</text>
<text text-anchor="middle" x="213.5" y="-111.5" font-family="Helvetica,sans-Serif" font-size="10.00">FixedValuesGenerator&lt; T &gt;</text>
<polyline fill="none" stroke="black" points="137.5,-104.5 289.5,-104.5 "/>
<text text-anchor="middle" x="213.5" y="-92.5" font-family="Helvetica,sans-Serif" font-size="10.00"> </text>
<polyline fill="none" stroke="black" points="137.5,-85.5 289.5,-85.5 "/>
<text text-anchor="start" x="145.5" y="-73.5" font-family="Helvetica,sans-Serif" font-size="10.00">+ FixedValuesGenerator()</text>
<text text-anchor="start" x="145.5" y="-62.5" font-family="Helvetica,sans-Serif" font-size="10.00">+ get()</text>
<text text-anchor="start" x="145.5" y="-51.5" font-family="Helvetica,sans-Serif" font-size="10.00">+ next()</text>
<text text-anchor="start" x="145.5" y="-40.5" font-family="Helvetica,sans-Serif" font-size="10.00">+ FixedValuesGenerator()</text>
<text text-anchor="start" x="145.5" y="-29.5" font-family="Helvetica,sans-Serif" font-size="10.00">+ get()</text>
<text text-anchor="start" x="145.5" y="-18.5" font-family="Helvetica,sans-Serif" font-size="10.00">+ next()</text>
</a>
</g>
</g>
<!-- Node1&#45;&gt;Node4 -->
<g id="edge3" class="edge">
<title>Node1&#45;&gt;Node4</title>
<path fill="none" stroke="midnightblue" d="M576,-224.6C504.57,-214.52 388.43,-192.16 298.5,-146 292.13,-142.73 285.83,-138.91 279.71,-134.75"/>
<polygon fill="none" stroke="midnightblue" points="575.82,-228.1 586.21,-226 576.77,-221.17 575.82,-228.1"/>
</g>
<!-- Node5 -->
<g id="node5" class="node">
<title>Node5</title>
<g id="a_node5"><a xlink:href="class_catch_1_1_generators_1_1_generators.html" target="_top" xlink:title=" ">
<polygon fill="white" stroke="black" points="307.5,-11.5 307.5,-134.5 417.5,-134.5 417.5,-11.5 307.5,-11.5"/>
<text text-anchor="start" x="315.5" y="-122.5" font-family="Helvetica,sans-Serif" font-size="10.00">Catch::Generators::</text>
<text text-anchor="middle" x="362.5" y="-111.5" font-family="Helvetica,sans-Serif" font-size="10.00">Generators&lt; T &gt;</text>
<polyline fill="none" stroke="black" points="307.5,-104.5 417.5,-104.5 "/>
<text text-anchor="middle" x="362.5" y="-92.5" font-family="Helvetica,sans-Serif" font-size="10.00"> </text>
<polyline fill="none" stroke="black" points="307.5,-85.5 417.5,-85.5 "/>
<text text-anchor="start" x="315.5" y="-73.5" font-family="Helvetica,sans-Serif" font-size="10.00">+ Generators()</text>
<text text-anchor="start" x="315.5" y="-62.5" font-family="Helvetica,sans-Serif" font-size="10.00">+ get()</text>
<text text-anchor="start" x="315.5" y="-51.5" font-family="Helvetica,sans-Serif" font-size="10.00">+ next()</text>
<text text-anchor="start" x="315.5" y="-40.5" font-family="Helvetica,sans-Serif" font-size="10.00">+ Generators()</text>
<text text-anchor="start" x="315.5" y="-29.5" font-family="Helvetica,sans-Serif" font-size="10.00">+ get()</text>
<text text-anchor="start" x="315.5" y="-18.5" font-family="Helvetica,sans-Serif" font-size="10.00">+ next()</text>
</a>
</g>
</g>
<!-- Node1&#45;&gt;Node5 -->
<g id="edge4" class="edge">
<title>Node1&#45;&gt;Node5</title>
<path fill="none" stroke="midnightblue" d="M576.75,-214.74C531.92,-200.8 472.32,-178.18 426.5,-146 421.71,-142.64 417.03,-138.85 412.53,-134.81"/>
<polygon fill="none" stroke="midnightblue" points="575.78,-218.1 586.37,-217.67 577.82,-211.41 575.78,-218.1"/>
</g>
<!-- Node6 -->
<g id="node6" class="node">
<title>Node6</title>
<g id="a_node6"><a xlink:href="class_catch_1_1_generators_1_1_iterator_generator.html" target="_top" xlink:title=" ">
<polygon fill="white" stroke="black" points="435.5,-11.5 435.5,-134.5 565.5,-134.5 565.5,-11.5 435.5,-11.5"/>
<text text-anchor="start" x="443.5" y="-122.5" font-family="Helvetica,sans-Serif" font-size="10.00">Catch::Generators::</text>
<text text-anchor="middle" x="500.5" y="-111.5" font-family="Helvetica,sans-Serif" font-size="10.00">IteratorGenerator&lt; T &gt;</text>
<polyline fill="none" stroke="black" points="435.5,-104.5 565.5,-104.5 "/>
<text text-anchor="middle" x="500.5" y="-92.5" font-family="Helvetica,sans-Serif" font-size="10.00"> </text>
<polyline fill="none" stroke="black" points="435.5,-85.5 565.5,-85.5 "/>
<text text-anchor="start" x="443.5" y="-73.5" font-family="Helvetica,sans-Serif" font-size="10.00">+ IteratorGenerator()</text>
<text text-anchor="start" x="443.5" y="-62.5" font-family="Helvetica,sans-Serif" font-size="10.00">+ get()</text>
<text text-anchor="start" x="443.5" y="-51.5" font-family="Helvetica,sans-Serif" font-size="10.00">+ next()</text>
<text text-anchor="start" x="443.5" y="-40.5" font-family="Helvetica,sans-Serif" font-size="10.00">+ IteratorGenerator()</text>
<text text-anchor="start" x="443.5" y="-29.5" font-family="Helvetica,sans-Serif" font-size="10.00">+ get()</text>
<text text-anchor="start" x="443.5" y="-18.5" font-family="Helvetica,sans-Serif" font-size="10.00">+ next()</text>
</a>
</g>
</g>
<!-- Node1&#45;&gt;Node6 -->
<g id="edge5" class="edge">
<title>Node1&#45;&gt;Node6</title>
<path fill="none" stroke="midnightblue" d="M590.52,-174.88C578.89,-161.85 566.49,-147.95 554.73,-134.77"/>
<polygon fill="none" stroke="midnightblue" points="588,-177.31 597.27,-182.44 593.23,-172.65 588,-177.31"/>
</g>
<!-- Node7 -->
<g id="node7" class="node">
<title>Node7</title>
<g id="a_node7"><a xlink:href="class_catch_1_1_generators_1_1_map_generator.html" target="_top" xlink:title=" ">
<polygon fill="white" stroke="black" points="584,-11.5 584,-134.5 699,-134.5 699,-11.5 584,-11.5"/>
<text text-anchor="start" x="592" y="-122.5" font-family="Helvetica,sans-Serif" font-size="10.00">Catch::Generators::</text>
<text text-anchor="middle" x="641.5" y="-111.5" font-family="Helvetica,sans-Serif" font-size="10.00">MapGenerator&lt; T &gt;</text>
<polyline fill="none" stroke="black" points="584,-104.5 699,-104.5 "/>
<text text-anchor="middle" x="641.5" y="-92.5" font-family="Helvetica,sans-Serif" font-size="10.00"> </text>
<polyline fill="none" stroke="black" points="584,-85.5 699,-85.5 "/>
<text text-anchor="start" x="592" y="-73.5" font-family="Helvetica,sans-Serif" font-size="10.00">+ MapGenerator()</text>
<text text-anchor="start" x="592" y="-62.5" font-family="Helvetica,sans-Serif" font-size="10.00">+ get()</text>
<text text-anchor="start" x="592" y="-51.5" font-family="Helvetica,sans-Serif" font-size="10.00">+ next()</text>
<text text-anchor="start" x="592" y="-40.5" font-family="Helvetica,sans-Serif" font-size="10.00">+ MapGenerator()</text>
<text text-anchor="start" x="592" y="-29.5" font-family="Helvetica,sans-Serif" font-size="10.00">+ get()</text>
<text text-anchor="start" x="592" y="-18.5" font-family="Helvetica,sans-Serif" font-size="10.00">+ next()</text>
</a>
</g>
</g>
<!-- Node1&#45;&gt;Node7 -->
<g id="edge6" class="edge">
<title>Node1&#45;&gt;Node7</title>
<path fill="none" stroke="midnightblue" d="M641.5,-172.31C641.5,-160.03 641.5,-147.09 641.5,-134.77"/>
<polygon fill="none" stroke="midnightblue" points="638,-172.44 641.5,-182.44 645,-172.44 638,-172.44"/>
</g>
<!-- Node8 -->
<g id="node8" class="node">
<title>Node8</title>
<g id="a_node8"><a xlink:href="class_catch_1_1_generators_1_1_range_generator.html" target="_top" xlink:title=" ">
<polygon fill="white" stroke="black" points="717,-0.5 717,-145.5 842,-145.5 842,-0.5 717,-0.5"/>
<text text-anchor="start" x="725" y="-133.5" font-family="Helvetica,sans-Serif" font-size="10.00">Catch::Generators::</text>
<text text-anchor="middle" x="779.5" y="-122.5" font-family="Helvetica,sans-Serif" font-size="10.00">RangeGenerator&lt; T &gt;</text>
<polyline fill="none" stroke="black" points="717,-115.5 842,-115.5 "/>
<text text-anchor="middle" x="779.5" y="-103.5" font-family="Helvetica,sans-Serif" font-size="10.00"> </text>
<polyline fill="none" stroke="black" points="717,-96.5 842,-96.5 "/>
<text text-anchor="start" x="725" y="-84.5" font-family="Helvetica,sans-Serif" font-size="10.00">+ RangeGenerator()</text>
<text text-anchor="start" x="725" y="-73.5" font-family="Helvetica,sans-Serif" font-size="10.00">+ RangeGenerator()</text>
<text text-anchor="start" x="725" y="-62.5" font-family="Helvetica,sans-Serif" font-size="10.00">+ get()</text>
<text text-anchor="start" x="725" y="-51.5" font-family="Helvetica,sans-Serif" font-size="10.00">+ next()</text>
<text text-anchor="start" x="725" y="-40.5" font-family="Helvetica,sans-Serif" font-size="10.00">+ RangeGenerator()</text>
<text text-anchor="start" x="725" y="-29.5" font-family="Helvetica,sans-Serif" font-size="10.00">+ RangeGenerator()</text>
<text text-anchor="start" x="725" y="-18.5" font-family="Helvetica,sans-Serif" font-size="10.00">+ get()</text>
<text text-anchor="start" x="725" y="-7.5" font-family="Helvetica,sans-Serif" font-size="10.00">+ next()</text>
</a>
</g>
</g>
<!-- Node1&#45;&gt;Node8 -->
<g id="edge7" class="edge">
<title>Node1&#45;&gt;Node8</title>
<path fill="none" stroke="midnightblue" d="M691.59,-174.65C699.82,-165.23 708.43,-155.37 716.91,-145.66"/>
<polygon fill="none" stroke="midnightblue" points="688.73,-172.61 684.79,-182.44 694,-177.21 688.73,-172.61"/>
</g>
<!-- Node9 -->
<g id="node9" class="node">
<title>Node9</title>
<g id="a_node9"><a xlink:href="class_catch_1_1_generators_1_1_repeat_generator.html" target="_top" xlink:title=" ">
<polygon fill="white" stroke="black" points="860.5,-11.5 860.5,-134.5 988.5,-134.5 988.5,-11.5 860.5,-11.5"/>
<text text-anchor="start" x="868.5" y="-122.5" font-family="Helvetica,sans-Serif" font-size="10.00">Catch::Generators::</text>
<text text-anchor="middle" x="924.5" y="-111.5" font-family="Helvetica,sans-Serif" font-size="10.00">RepeatGenerator&lt; T &gt;</text>
<polyline fill="none" stroke="black" points="860.5,-104.5 988.5,-104.5 "/>
<text text-anchor="middle" x="924.5" y="-92.5" font-family="Helvetica,sans-Serif" font-size="10.00"> </text>
<polyline fill="none" stroke="black" points="860.5,-85.5 988.5,-85.5 "/>
<text text-anchor="start" x="868.5" y="-73.5" font-family="Helvetica,sans-Serif" font-size="10.00">+ RepeatGenerator()</text>
<text text-anchor="start" x="868.5" y="-62.5" font-family="Helvetica,sans-Serif" font-size="10.00">+ get()</text>
<text text-anchor="start" x="868.5" y="-51.5" font-family="Helvetica,sans-Serif" font-size="10.00">+ next()</text>
<text text-anchor="start" x="868.5" y="-40.5" font-family="Helvetica,sans-Serif" font-size="10.00">+ RepeatGenerator()</text>
<text text-anchor="start" x="868.5" y="-29.5" font-family="Helvetica,sans-Serif" font-size="10.00">+ get()</text>
<text text-anchor="start" x="868.5" y="-18.5" font-family="Helvetica,sans-Serif" font-size="10.00">+ next()</text>
</a>
</g>
</g>
<!-- Node1&#45;&gt;Node9 -->
<g id="edge8" class="edge">
<title>Node1&#45;&gt;Node9</title>
<path fill="none" stroke="midnightblue" d="M706.12,-212.85C749.38,-198.32 806.42,-175.77 851.5,-146 856.7,-142.57 861.84,-138.73 866.84,-134.65"/>
<polygon fill="none" stroke="midnightblue" points="704.96,-209.55 696.56,-216.01 707.15,-216.19 704.96,-209.55"/>
</g>
<!-- Node10 -->
<g id="node10" class="node">
<title>Node10</title>
<g id="a_node10"><a xlink:href="class_catch_1_1_generators_1_1_single_value_generator.html" target="_top" xlink:title=" ">
<polygon fill="white" stroke="black" points="1007,-11.5 1007,-134.5 1158,-134.5 1158,-11.5 1007,-11.5"/>
<text text-anchor="start" x="1015" y="-122.5" font-family="Helvetica,sans-Serif" font-size="10.00">Catch::Generators::</text>
<text text-anchor="middle" x="1082.5" y="-111.5" font-family="Helvetica,sans-Serif" font-size="10.00">SingleValueGenerator&lt; T &gt;</text>
<polyline fill="none" stroke="black" points="1007,-104.5 1158,-104.5 "/>
<text text-anchor="middle" x="1082.5" y="-92.5" font-family="Helvetica,sans-Serif" font-size="10.00"> </text>
<polyline fill="none" stroke="black" points="1007,-85.5 1158,-85.5 "/>
<text text-anchor="start" x="1015" y="-73.5" font-family="Helvetica,sans-Serif" font-size="10.00">+ SingleValueGenerator()</text>
<text text-anchor="start" x="1015" y="-62.5" font-family="Helvetica,sans-Serif" font-size="10.00">+ get()</text>
<text text-anchor="start" x="1015" y="-51.5" font-family="Helvetica,sans-Serif" font-size="10.00">+ next()</text>
<text text-anchor="start" x="1015" y="-40.5" font-family="Helvetica,sans-Serif" font-size="10.00">+ SingleValueGenerator()</text>
<text text-anchor="start" x="1015" y="-29.5" font-family="Helvetica,sans-Serif" font-size="10.00">+ get()</text>
<text text-anchor="start" x="1015" y="-18.5" font-family="Helvetica,sans-Serif" font-size="10.00">+ next()</text>
</a>
</g>
</g>
<!-- Node1&#45;&gt;Node10 -->
<g id="edge9" class="edge">
<title>Node1&#45;&gt;Node10</title>
<path fill="none" stroke="midnightblue" d="M706.79,-225.42C780.67,-215.94 903.02,-193.98 997.5,-146 1003.88,-142.76 1010.19,-138.95 1016.32,-134.81"/>
<polygon fill="none" stroke="midnightblue" points="706.18,-221.97 696.69,-226.68 707.05,-228.91 706.18,-221.97"/>
</g>
<!-- Node11 -->
<g id="node11" class="node">
<title>Node11</title>
<g id="a_node11"><a xlink:href="class_catch_1_1_generators_1_1_take_generator.html" target="_top" xlink:title=" ">
<polygon fill="white" stroke="black" points="1176.5,-11.5 1176.5,-134.5 1292.5,-134.5 1292.5,-11.5 1176.5,-11.5"/>
<text text-anchor="start" x="1184.5" y="-122.5" font-family="Helvetica,sans-Serif" font-size="10.00">Catch::Generators::</text>
<text text-anchor="middle" x="1234.5" y="-111.5" font-family="Helvetica,sans-Serif" font-size="10.00">TakeGenerator&lt; T &gt;</text>
<polyline fill="none" stroke="black" points="1176.5,-104.5 1292.5,-104.5 "/>
<text text-anchor="middle" x="1234.5" y="-92.5" font-family="Helvetica,sans-Serif" font-size="10.00"> </text>
<polyline fill="none" stroke="black" points="1176.5,-85.5 1292.5,-85.5 "/>
<text text-anchor="start" x="1184.5" y="-73.5" font-family="Helvetica,sans-Serif" font-size="10.00">+ TakeGenerator()</text>
<text text-anchor="start" x="1184.5" y="-62.5" font-family="Helvetica,sans-Serif" font-size="10.00">+ get()</text>
<text text-anchor="start" x="1184.5" y="-51.5" font-family="Helvetica,sans-Serif" font-size="10.00">+ next()</text>
<text text-anchor="start" x="1184.5" y="-40.5" font-family="Helvetica,sans-Serif" font-size="10.00">+ TakeGenerator()</text>
<text text-anchor="start" x="1184.5" y="-29.5" font-family="Helvetica,sans-Serif" font-size="10.00">+ get()</text>
<text text-anchor="start" x="1184.5" y="-18.5" font-family="Helvetica,sans-Serif" font-size="10.00">+ next()</text>
</a>
</g>
</g>
<!-- Node1&#45;&gt;Node11 -->
<g id="edge10" class="edge">
<title>Node1&#45;&gt;Node11</title>
<path fill="none" stroke="midnightblue" d="M706.95,-226.61C829.6,-215.65 1088.76,-188.17 1167.5,-146 1173.37,-142.86 1179.01,-139 1184.34,-134.72"/>
<polygon fill="none" stroke="midnightblue" points="706.59,-223.13 696.94,-227.5 707.21,-230.1 706.59,-223.13"/>
</g>
<!-- Node2 -->
<g id="node2" class="node">
<title>Node2</title>
<g id="a_node2"><a xlink:href="class_catch_1_1_generators_1_1_generator_untyped_base.html" target="_top" xlink:title=" ">
<polygon fill="white" stroke="black" points="562.5,-320.5 562.5,-443.5 720.5,-443.5 720.5,-320.5 562.5,-320.5"/>
<text text-anchor="start" x="570.5" y="-431.5" font-family="Helvetica,sans-Serif" font-size="10.00">Catch::Generators::</text>
<text text-anchor="middle" x="641.5" y="-420.5" font-family="Helvetica,sans-Serif" font-size="10.00">GeneratorUntypedBase</text>
<polyline fill="none" stroke="black" points="562.5,-413.5 720.5,-413.5 "/>
<text text-anchor="middle" x="641.5" y="-401.5" font-family="Helvetica,sans-Serif" font-size="10.00"> </text>
<polyline fill="none" stroke="black" points="562.5,-394.5 720.5,-394.5 "/>
<text text-anchor="start" x="570.5" y="-382.5" font-family="Helvetica,sans-Serif" font-size="10.00">+ GeneratorUntypedBase()</text>
<text text-anchor="start" x="570.5" y="-371.5" font-family="Helvetica,sans-Serif" font-size="10.00">+ ~GeneratorUntypedBase()</text>
<text text-anchor="start" x="570.5" y="-360.5" font-family="Helvetica,sans-Serif" font-size="10.00">+ next()</text>
<text text-anchor="start" x="570.5" y="-349.5" font-family="Helvetica,sans-Serif" font-size="10.00">+ GeneratorUntypedBase()</text>
<text text-anchor="start" x="570.5" y="-338.5" font-family="Helvetica,sans-Serif" font-size="10.00">+ ~GeneratorUntypedBase()</text>
<text text-anchor="start" x="570.5" y="-327.5" font-family="Helvetica,sans-Serif" font-size="10.00">+ next()</text>
</a>
</g>
</g>
<!-- Node2&#45;&gt;Node1 -->
<g id="edge1" class="edge">
<title>Node2&#45;&gt;Node1</title>
<path fill="none" stroke="midnightblue" d="M641.5,-310.29C641.5,-301.32 641.5,-292.3 641.5,-283.76"/>
<polygon fill="none" stroke="midnightblue" points="638,-310.36 641.5,-320.36 645,-310.36 638,-310.36"/>
</g>
</g>
</svg>
        <g id="navigator" transform="translate(0 0)" fill="#404254">
                <rect fill="#f2f5e9" fill-opacity="0.5" stroke="#606060" stroke-width=".5" x="0" y="0" width="60" height="60"/>
                <use id="zoomplus" xlink:href="#zoomPlus" x="17" y="9" onmousedown="handleZoom(evt,'in')"/>
                <use id="zoomminus" xlink:href="#zoomMin" x="42" y="9" onmousedown="handleZoom(evt,'out')"/>
                <use id="reset" xlink:href="#resetDef" x="30" y="36" onmousedown="handleReset()"/>
                <g id="arrowUp" xlink:href="#dirArrow" transform="translate(30 24)" onmousedown="handlePan(0,-1)">
                  <use xlink:href="#rim" fill="#404040">
                        <set attributeName="fill" to="#808080" begin="arrowUp.mouseover" end="arrowUp.mouseout"/>
                  </use>
                  <path fill="none" stroke="white" stroke-width="1.5" d="M0,-3.0v7 M-2.5,-0.5L0,-3.0L2.5,-0.5"/>
                </g>
                <g id="arrowRight" xlink:href="#dirArrow" transform="rotate(90) translate(36 -43)" onmousedown="handlePan(1,0)">
                  <use xlink:href="#rim" fill="#404040">
                        <set attributeName="fill" to="#808080" begin="arrowRight.mouseover" end="arrowRight.mouseout"/>
                  </use>
                  <path fill="none" stroke="white" stroke-width="1.5" d="M0,-3.0v7 M-2.5,-0.5L0,-3.0L2.5,-0.5"/>
                </g>
                <g id="arrowDown" xlink:href="#dirArrow" transform="rotate(180) translate(-30 -48)" onmousedown="handlePan(0,1)">
                  <use xlink:href="#rim" fill="#404040">
                        <set attributeName="fill" to="#808080" begin="arrowDown.mouseover" end="arrowDown.mouseout"/>
                  </use>
                  <path fill="none" stroke="white" stroke-width="1.5" d="M0,-3.0v7 M-2.5,-0.5L0,-3.0L2.5,-0.5"/>
                </g>
                <g id="arrowLeft" xlink:href="#dirArrow" transform="rotate(270) translate(-36 17)" onmousedown="handlePan(-1,0)">
                  <use xlink:href="#rim" fill="#404040">
                        <set attributeName="fill" to="#808080" begin="arrowLeft.mouseover" end="arrowLeft.mouseout"/>
                  </use>
                  <path fill="none" stroke="white" stroke-width="1.5" d="M0,-3.0v7 M-2.5,-0.5L0,-3.0L2.5,-0.5"/>
                </g>
        </g>
        <svg viewBox="0 0 15 15" width="100%" height="30px" preserveAspectRatio="xMaxYMin meet">
         <g id="arrow_out" transform="scale(0.3 0.3)">
          <a xlink:href="struct_catch_1_1_generators_1_1_i_generator__inherit__graph_org.svg" target="_base">
           <rect id="button" ry="5" rx="5" y="6" x="6" height="38" width="38"
                fill="#f2f5e9" fill-opacity="0.5" stroke="#606060" stroke-width="1.0"/>
           <path id="arrow"
             d="M 11.500037,31.436501 C 11.940474,20.09759 22.043105,11.32322 32.158766,21.979434 L 37.068811,17.246167 C 37.068811,17.246167 37.088388,32 37.088388,32 L 22.160133,31.978069 C 22.160133,31.978069 26.997745,27.140456 26.997745,27.140456 C 18.528582,18.264221 13.291696,25.230495 11.500037,31.436501 z"
             style="fill:#404040;"/>
          </a>
         </g>
        </svg>
</svg>
