<?xml version="1.0" encoding="UTF-8" standalone="no"?>
<!DOCTYPE svg PUBLIC "-//W3C//DTD SVG 1.1//EN"
 "http://www.w3.org/Graphics/SVG/1.1/DTD/svg11.dtd">
<!-- Generated by graphviz version 2.43.0 (0)
 -->
<!-- Title: helper_1436&lt; T1, T2 &gt; Pages: 1 -->
<svg width="137pt" height="171pt"
 viewBox="0.00 0.00 137.00 171.00" xmlns="http://www.w3.org/2000/svg" xmlns:xlink="http://www.w3.org/1999/xlink">
<g id="graph0" class="graph" transform="scale(1 1) rotate(0) translate(4 167)">
<title>helper_1436&lt; T1, T2 &gt;</title>
<polygon fill="white" stroke="transparent" points="-4,4 -4,-167 133,-167 133,4 -4,4"/>
<!-- Node1 -->
<g id="node1" class="node">
<title>Node1</title>
<g id="a_node1"><a xlink:title=" ">
<polygon fill="#bfbfbf" stroke="black" points="0,-0.5 0,-57.5 129,-57.5 129,-0.5 0,-0.5"/>
<text text-anchor="middle" x="64.5" y="-45.5" font-family="Helvetica,sans-Serif" font-size="10.00">helper_1436&lt; T1, T2 &gt;</text>
<polyline fill="none" stroke="black" points="0,-38.5 129,-38.5 "/>
<text text-anchor="middle" x="64.5" y="-26.5" font-family="Helvetica,sans-Serif" font-size="10.00"> </text>
<polyline fill="none" stroke="black" points="0,-19.5 129,-19.5 "/>
<text text-anchor="start" x="8" y="-7.5" font-family="Helvetica,sans-Serif" font-size="10.00">+ helper_1436()</text>
</a>
</g>
</g>
<!-- Node2 -->
<g id="node2" class="node">
<title>Node2</title>
<g id="a_node2"><a xlink:title=" ">
<polygon fill="white" stroke="#bfbfbf" points="27,-105.5 27,-162.5 56,-162.5 56,-105.5 27,-105.5"/>
<text text-anchor="middle" x="41.5" y="-150.5" font-family="Helvetica,sans-Serif" font-size="10.00">T2</text>
<polyline fill="none" stroke="#bfbfbf" points="27,-143.5 56,-143.5 "/>
<text text-anchor="middle" x="41.5" y="-131.5" font-family="Helvetica,sans-Serif" font-size="10.00"> </text>
<polyline fill="none" stroke="#bfbfbf" points="27,-124.5 56,-124.5 "/>
<text text-anchor="middle" x="41.5" y="-112.5" font-family="Helvetica,sans-Serif" font-size="10.00"> </text>
</a>
</g>
</g>
<!-- Node2&#45;&gt;Node1 -->
<g id="edge1" class="edge">
<title>Node2&#45;&gt;Node1</title>
<path fill="none" stroke="#404040" d="M40.97,-105.47C41.31,-96.02 42.27,-85.45 44.5,-76 45.04,-73.71 45.69,-71.39 46.41,-69.08"/>
<polygon fill="none" stroke="#404040" points="46.46,-68.94 44.77,-61.93 50.58,-57.67 52.28,-64.68 46.46,-68.94"/>
<text text-anchor="middle" x="55.5" y="-79" font-family="Helvetica,sans-Serif" font-size="10.00"> +t2</text>
</g>
<!-- Node3 -->
<g id="node3" class="node">
<title>Node3</title>
<g id="a_node3"><a xlink:title=" ">
<polygon fill="white" stroke="#bfbfbf" points="74,-105.5 74,-162.5 103,-162.5 103,-105.5 74,-105.5"/>
<text text-anchor="middle" x="88.5" y="-150.5" font-family="Helvetica,sans-Serif" font-size="10.00">T1</text>
<polyline fill="none" stroke="#bfbfbf" points="74,-143.5 103,-143.5 "/>
<text text-anchor="middle" x="88.5" y="-131.5" font-family="Helvetica,sans-Serif" font-size="10.00"> </text>
<polyline fill="none" stroke="#bfbfbf" points="74,-124.5 103,-124.5 "/>
<text text-anchor="middle" x="88.5" y="-112.5" font-family="Helvetica,sans-Serif" font-size="10.00"> </text>
</a>
</g>
</g>
<!-- Node3&#45;&gt;Node1 -->
<g id="edge2" class="edge">
<title>Node3&#45;&gt;Node1</title>
<path fill="none" stroke="#404040" d="M82.07,-105.4C79.51,-94.43 76.52,-81.6 73.74,-69.67"/>
<polygon fill="none" stroke="#404040" points="73.67,-69.37 68.42,-64.43 70.95,-57.68 76.21,-62.61 73.67,-69.37"/>
<text text-anchor="middle" x="87.5" y="-79" font-family="Helvetica,sans-Serif" font-size="10.00"> +t1</text>
</g>
</g>
</svg>
