<?xml version="1.0" encoding="UTF-8" standalone="no"?>
<!DOCTYPE svg PUBLIC "-//W3C//DTD SVG 1.1//EN"
 "http://www.w3.org/Graphics/SVG/1.1/DTD/svg11.dtd">
<!-- Generated by graphviz version 2.43.0 (0)
 -->
<!-- Title: clara::detail::BoundFlagRefBase Pages: 1 -->
<svg width="308pt" height="458pt"
 viewBox="0.00 0.00 307.50 458.00" xmlns="http://www.w3.org/2000/svg" xmlns:xlink="http://www.w3.org/1999/xlink">
<g id="graph0" class="graph" transform="scale(1 1) rotate(0) translate(4 454)">
<title>clara::detail::BoundFlagRefBase</title>
<polygon fill="white" stroke="transparent" points="-4,4 -4,-454 303.5,-454 303.5,4 -4,4"/>
<!-- Node1 -->
<g id="node1" class="node">
<title>Node1</title>
<g id="a_node1"><a xlink:title=" ">
<polygon fill="#bfbfbf" stroke="black" points="79,-116.5 79,-195.5 211,-195.5 211,-116.5 79,-116.5"/>
<text text-anchor="start" x="87" y="-183.5" font-family="Helvetica,sans-Serif" font-size="10.00">clara::detail::BoundFlag</text>
<text text-anchor="middle" x="145" y="-172.5" font-family="Helvetica,sans-Serif" font-size="10.00">RefBase</text>
<polyline fill="none" stroke="black" points="79,-165.5 211,-165.5 "/>
<text text-anchor="middle" x="145" y="-153.5" font-family="Helvetica,sans-Serif" font-size="10.00"> </text>
<polyline fill="none" stroke="black" points="79,-146.5 211,-146.5 "/>
<text text-anchor="start" x="87" y="-134.5" font-family="Helvetica,sans-Serif" font-size="10.00">+ setFlag()</text>
<text text-anchor="start" x="87" y="-123.5" font-family="Helvetica,sans-Serif" font-size="10.00">+ isFlag()</text>
</a>
</g>
</g>
<!-- Node4 -->
<g id="node4" class="node">
<title>Node4</title>
<g id="a_node4"><a xlink:href="structclara_1_1detail_1_1_bound_flag_lambda.html" target="_top" xlink:title=" ">
<polygon fill="white" stroke="black" points="0,-0.5 0,-79.5 132,-79.5 132,-0.5 0,-0.5"/>
<text text-anchor="start" x="8" y="-67.5" font-family="Helvetica,sans-Serif" font-size="10.00">clara::detail::BoundFlag</text>
<text text-anchor="middle" x="66" y="-56.5" font-family="Helvetica,sans-Serif" font-size="10.00">Lambda&lt; L &gt;</text>
<polyline fill="none" stroke="black" points="0,-49.5 132,-49.5 "/>
<text text-anchor="start" x="8" y="-37.5" font-family="Helvetica,sans-Serif" font-size="10.00">+ m_lambda</text>
<polyline fill="none" stroke="black" points="0,-30.5 132,-30.5 "/>
<text text-anchor="start" x="8" y="-18.5" font-family="Helvetica,sans-Serif" font-size="10.00">+ BoundFlagLambda()</text>
<text text-anchor="start" x="8" y="-7.5" font-family="Helvetica,sans-Serif" font-size="10.00">+ setFlag()</text>
</a>
</g>
</g>
<!-- Node1&#45;&gt;Node4 -->
<g id="edge3" class="edge">
<title>Node1&#45;&gt;Node4</title>
<path fill="none" stroke="midnightblue" d="M112.55,-108.17C105.95,-98.65 99.09,-88.75 92.72,-79.56"/>
<polygon fill="none" stroke="midnightblue" points="109.68,-110.18 118.25,-116.4 115.44,-106.19 109.68,-110.18"/>
</g>
<!-- Node5 -->
<g id="node5" class="node">
<title>Node5</title>
<g id="a_node5"><a xlink:href="structclara_1_1detail_1_1_bound_flag_ref.html" target="_top" xlink:title=" ">
<polygon fill="white" stroke="black" points="150.5,-6 150.5,-74 299.5,-74 299.5,-6 150.5,-6"/>
<text text-anchor="middle" x="225" y="-62" font-family="Helvetica,sans-Serif" font-size="10.00">clara::detail::BoundFlagRef</text>
<polyline fill="none" stroke="black" points="150.5,-55 299.5,-55 "/>
<text text-anchor="start" x="158.5" y="-43" font-family="Helvetica,sans-Serif" font-size="10.00">+ m_ref</text>
<polyline fill="none" stroke="black" points="150.5,-36 299.5,-36 "/>
<text text-anchor="start" x="158.5" y="-24" font-family="Helvetica,sans-Serif" font-size="10.00">+ BoundFlagRef()</text>
<text text-anchor="start" x="158.5" y="-13" font-family="Helvetica,sans-Serif" font-size="10.00">+ setFlag()</text>
</a>
</g>
</g>
<!-- Node1&#45;&gt;Node5 -->
<g id="edge4" class="edge">
<title>Node1&#45;&gt;Node5</title>
<path fill="none" stroke="midnightblue" d="M178.06,-107.89C185.99,-96.59 194.3,-84.75 201.69,-74.22"/>
<polygon fill="none" stroke="midnightblue" points="174.96,-106.21 172.08,-116.4 180.69,-110.23 174.96,-106.21"/>
</g>
<!-- Node2 -->
<g id="node2" class="node">
<title>Node2</title>
<g id="a_node2"><a xlink:href="structclara_1_1detail_1_1_bound_ref.html" target="_top" xlink:title=" ">
<polygon fill="white" stroke="black" points="81,-232.5 81,-311.5 209,-311.5 209,-232.5 81,-232.5"/>
<text text-anchor="middle" x="145" y="-299.5" font-family="Helvetica,sans-Serif" font-size="10.00">clara::detail::BoundRef</text>
<polyline fill="none" stroke="black" points="81,-292.5 209,-292.5 "/>
<text text-anchor="middle" x="145" y="-280.5" font-family="Helvetica,sans-Serif" font-size="10.00"> </text>
<polyline fill="none" stroke="black" points="81,-273.5 209,-273.5 "/>
<text text-anchor="start" x="89" y="-261.5" font-family="Helvetica,sans-Serif" font-size="10.00">+ ~BoundRef()</text>
<text text-anchor="start" x="89" y="-250.5" font-family="Helvetica,sans-Serif" font-size="10.00">+ isContainer()</text>
<text text-anchor="start" x="89" y="-239.5" font-family="Helvetica,sans-Serif" font-size="10.00">+ isFlag()</text>
</a>
</g>
</g>
<!-- Node2&#45;&gt;Node1 -->
<g id="edge1" class="edge">
<title>Node2&#45;&gt;Node1</title>
<path fill="none" stroke="midnightblue" d="M145,-222.15C145,-213.26 145,-204.1 145,-195.56"/>
<polygon fill="none" stroke="midnightblue" points="141.5,-222.4 145,-232.4 148.5,-222.4 141.5,-222.4"/>
</g>
<!-- Node3 -->
<g id="node3" class="node">
<title>Node3</title>
<g id="a_node3"><a xlink:href="structclara_1_1detail_1_1_non_copyable.html" target="_top" xlink:title=" ">
<polygon fill="white" stroke="black" points="72,-348.5 72,-449.5 218,-449.5 218,-348.5 72,-348.5"/>
<text text-anchor="middle" x="145" y="-437.5" font-family="Helvetica,sans-Serif" font-size="10.00">clara::detail::NonCopyable</text>
<polyline fill="none" stroke="black" points="72,-430.5 218,-430.5 "/>
<text text-anchor="middle" x="145" y="-418.5" font-family="Helvetica,sans-Serif" font-size="10.00"> </text>
<polyline fill="none" stroke="black" points="72,-411.5 218,-411.5 "/>
<text text-anchor="start" x="80" y="-399.5" font-family="Helvetica,sans-Serif" font-size="10.00">+ NonCopyable()</text>
<text text-anchor="start" x="80" y="-388.5" font-family="Helvetica,sans-Serif" font-size="10.00">+ NonCopyable()</text>
<text text-anchor="start" x="80" y="-377.5" font-family="Helvetica,sans-Serif" font-size="10.00">+ NonCopyable()</text>
<text text-anchor="start" x="80" y="-366.5" font-family="Helvetica,sans-Serif" font-size="10.00">+ operator=()</text>
<text text-anchor="start" x="80" y="-355.5" font-family="Helvetica,sans-Serif" font-size="10.00">+ operator=()</text>
</a>
</g>
</g>
<!-- Node3&#45;&gt;Node2 -->
<g id="edge2" class="edge">
<title>Node3&#45;&gt;Node2</title>
<path fill="none" stroke="midnightblue" d="M145,-338.19C145,-329.22 145,-320.18 145,-311.81"/>
<polygon fill="none" stroke="midnightblue" points="141.5,-338.24 145,-348.24 148.5,-338.24 141.5,-338.24"/>
</g>
</g>
</svg>
