<?xml version="1.0" encoding="UTF-8" standalone="no"?>
<!DOCTYPE svg PUBLIC "-//W3C//DTD SVG 1.1//EN"
 "http://www.w3.org/Graphics/SVG/1.1/DTD/svg11.dtd">
<!-- Generated by graphviz version 2.43.0 (0)
 -->
<!-- Title: Catch::StreamingReporterBase::testCaseEnded Pages: 1 -->
<svg width="329pt" height="186pt"
 viewBox="0.00 0.00 329.00 186.00" xmlns="http://www.w3.org/2000/svg" xmlns:xlink="http://www.w3.org/1999/xlink">
<g id="graph0" class="graph" transform="scale(1 1) rotate(0) translate(4 182)">
<title>Catch::StreamingReporterBase::testCaseEnded</title>
<polygon fill="white" stroke="transparent" points="-4,4 -4,-182 325,-182 325,4 -4,4"/>
<!-- Node1 -->
<g id="node1" class="node">
<title>Node1</title>
<g id="a_node1"><a xlink:title=" ">
<polygon fill="#bfbfbf" stroke="black" points="178,-73.5 178,-103.5 321,-103.5 321,-73.5 178,-73.5"/>
<text text-anchor="start" x="186" y="-91.5" font-family="Helvetica,sans-Serif" font-size="10.00">Catch::StreamingReporter</text>
<text text-anchor="middle" x="249.5" y="-80.5" font-family="Helvetica,sans-Serif" font-size="10.00">Base::testCaseEnded</text>
</a>
</g>
</g>
<!-- Node2 -->
<g id="node2" class="node">
<title>Node2</title>
<g id="a_node2"><a xlink:href="struct_catch_1_1_automake_reporter.html#a88e67aaa39d97ea283795c2fbc2598f0" target="_top" xlink:title=" ">
<polygon fill="white" stroke="black" points="0,-147.5 0,-177.5 142,-177.5 142,-147.5 0,-147.5"/>
<text text-anchor="start" x="8" y="-165.5" font-family="Helvetica,sans-Serif" font-size="10.00">Catch::AutomakeReporter</text>
<text text-anchor="middle" x="71" y="-154.5" font-family="Helvetica,sans-Serif" font-size="10.00">::testCaseEnded</text>
</a>
</g>
</g>
<!-- Node1&#45;&gt;Node2 -->
<g id="edge1" class="edge">
<title>Node1&#45;&gt;Node2</title>
<path fill="none" stroke="midnightblue" d="M209.5,-108.06C189.54,-117.74 164.72,-129.3 142,-138.5 134.38,-141.59 126.19,-144.63 118.2,-147.46"/>
<polygon fill="midnightblue" stroke="midnightblue" points="211.14,-111.15 218.59,-103.61 208.07,-104.86 211.14,-111.15"/>
</g>
<!-- Node3 -->
<g id="node3" class="node">
<title>Node3</title>
<g id="a_node3"><a xlink:href="class_catch_1_1_xml_reporter.html#ab641ec7e115cb94efa02f85e9d91de0f" target="_top" xlink:title=" ">
<polygon fill="white" stroke="black" points="15,-98.5 15,-128.5 127,-128.5 127,-98.5 15,-98.5"/>
<text text-anchor="start" x="23" y="-116.5" font-family="Helvetica,sans-Serif" font-size="10.00">Catch::XmlReporter</text>
<text text-anchor="middle" x="71" y="-105.5" font-family="Helvetica,sans-Serif" font-size="10.00">::testCaseEnded</text>
</a>
</g>
</g>
<!-- Node1&#45;&gt;Node3 -->
<g id="edge2" class="edge">
<title>Node1&#45;&gt;Node3</title>
<path fill="none" stroke="midnightblue" d="M168,-99.9C154.19,-101.86 140.14,-103.85 127.19,-105.68"/>
<polygon fill="midnightblue" stroke="midnightblue" points="168.57,-103.36 177.98,-98.49 167.59,-96.43 168.57,-103.36"/>
</g>
<!-- Node4 -->
<g id="node4" class="node">
<title>Node4</title>
<g id="a_node4"><a xlink:href="struct_catch_1_1_console_reporter.html#a20bdc16be273420c9649138272546132" target="_top" xlink:title=" ">
<polygon fill="white" stroke="black" points="5.5,-49.5 5.5,-79.5 136.5,-79.5 136.5,-49.5 5.5,-49.5"/>
<text text-anchor="start" x="13.5" y="-67.5" font-family="Helvetica,sans-Serif" font-size="10.00">Catch::ConsoleReporter</text>
<text text-anchor="middle" x="71" y="-56.5" font-family="Helvetica,sans-Serif" font-size="10.00">::testCaseEnded</text>
</a>
</g>
</g>
<!-- Node1&#45;&gt;Node4 -->
<g id="edge3" class="edge">
<title>Node1&#45;&gt;Node4</title>
<path fill="none" stroke="midnightblue" d="M167.99,-77.55C157.5,-76.13 146.87,-74.68 136.69,-73.3"/>
<polygon fill="midnightblue" stroke="midnightblue" points="167.6,-81.03 177.98,-78.91 168.54,-74.1 167.6,-81.03"/>
</g>
<!-- Node5 -->
<g id="node5" class="node">
<title>Node5</title>
<g id="a_node5"><a xlink:href="struct_catch_1_1_team_city_reporter.html#ab2a5007071e489a4e4c8ee8e84585ef8" target="_top" xlink:title=" ">
<polygon fill="white" stroke="black" points="2,-0.5 2,-30.5 140,-30.5 140,-0.5 2,-0.5"/>
<text text-anchor="start" x="10" y="-18.5" font-family="Helvetica,sans-Serif" font-size="10.00">Catch::TeamCityReporter</text>
<text text-anchor="middle" x="71" y="-7.5" font-family="Helvetica,sans-Serif" font-size="10.00">::testCaseEnded</text>
</a>
</g>
</g>
<!-- Node1&#45;&gt;Node5 -->
<g id="edge4" class="edge">
<title>Node1&#45;&gt;Node5</title>
<path fill="none" stroke="midnightblue" d="M207.37,-69.03C187.74,-59.98 163.82,-49.3 142,-40.5 133.62,-37.12 124.59,-33.72 115.89,-30.57"/>
<polygon fill="midnightblue" stroke="midnightblue" points="206.09,-72.3 216.63,-73.33 209.03,-65.95 206.09,-72.3"/>
</g>
</g>
</svg>
