<?xml version="1.0" encoding="UTF-8" standalone="no"?>
<!DOCTYPE svg PUBLIC "-//W3C//DTD SVG 1.1//EN"
 "http://www.w3.org/Graphics/SVG/1.1/DTD/svg11.dtd">
<!-- Generated by graphviz version 2.43.0 (0)
 -->
<!-- Title: MyExceptionMatcher Pages: 1 -->
<!--zoomable 613 -->
<svg id="main" version="1.1" xmlns="http://www.w3.org/2000/svg" xmlns:xlink="http://www.w3.org/1999/xlink" xml:space="preserve" onload="init(evt)">
<style type="text/css"><![CDATA[
.edge:hover path { stroke: red; }
.edge:hover polygon { stroke: red; fill: red; }
]]></style>
<script type="text/javascript"><![CDATA[
var edges = document.getElementsByTagName('g');
if (edges && edges.length) {
  for (var i=0;i<edges.length;i++) {
    if (edges[i].id.substr(0,4)=='edge') {
      edges[i].setAttribute('class','edge');
    }
  }
}
]]></script>
        <defs>
                <circle id="rim" cx="0" cy="0" r="7"/>
                <circle id="rim2" cx="0" cy="0" r="3.5"/>
                <g id="zoomPlus">
                        <use xlink:href="#rim" fill="#404040">
                                <set attributeName="fill" to="#808080" begin="zoomplus.mouseover" end="zoomplus.mouseout"/>
                        </use>
                        <path d="M-4,0h8M0,-4v8" fill="none" stroke="white" stroke-width="1.5" pointer-events="none"/>
                </g>
                <g id="zoomMin">
                        <use xlink:href="#rim" fill="#404040">
                                <set attributeName="fill" to="#808080" begin="zoomminus.mouseover" end="zoomminus.mouseout"/>
                        </use>
                        <path d="M-4,0h8" fill="none" stroke="white" stroke-width="1.5" pointer-events="none"/>
                </g>
                <g id="dirArrow">
                        <path fill="none" stroke="white" stroke-width="1.5" d="M0,-3.0v7 M-2.5,-0.5L0,-3.0L2.5,-0.5"/>
                </g>
               <g id="resetDef">
                       <use xlink:href="#rim2" fill="#404040">
                               <set attributeName="fill" to="#808080" begin="reset.mouseover" end="reset.mouseout"/>
                       </use>
               </g>
        </defs>

<script type="text/javascript">
var viewWidth = 371;
var viewHeight = 613;
var sectionId = 'dynsection-1';
</script>
<script xlink:href="svgpan.js"/>
<svg id="graph" class="graph">
<g id="viewport">
<title>MyExceptionMatcher</title>
<polygon fill="white" stroke="transparent" points="-4,4 -4,-609 367,-609 367,4 -4,4"/>
<!-- Node1 -->
<g id="node1" class="node">
<title>Node1</title>
<g id="a_node1"><a xlink:title=" ">
<polygon fill="#bfbfbf" stroke="black" points="0,-0.5 0,-90.5 146,-90.5 146,-0.5 0,-0.5"/>
<text text-anchor="middle" x="73" y="-78.5" font-family="Helvetica,sans-Serif" font-size="10.00">MyExceptionMatcher</text>
<polyline fill="none" stroke="black" points="0,-71.5 146,-71.5 "/>
<text text-anchor="middle" x="73" y="-59.5" font-family="Helvetica,sans-Serif" font-size="10.00"> </text>
<polyline fill="none" stroke="black" points="0,-52.5 146,-52.5 "/>
<text text-anchor="start" x="8" y="-40.5" font-family="Helvetica,sans-Serif" font-size="10.00">+ MyExceptionMatcher()</text>
<text text-anchor="start" x="8" y="-29.5" font-family="Helvetica,sans-Serif" font-size="10.00">+ ~MyExceptionMatcher()</text>
<text text-anchor="start" x="8" y="-18.5" font-family="Helvetica,sans-Serif" font-size="10.00">+ match()</text>
<text text-anchor="start" x="8" y="-7.5" font-family="Helvetica,sans-Serif" font-size="10.00">+ describe()</text>
</a>
</g>
</g>
<!-- Node2 -->
<g id="node2" class="node">
<title>Node2</title>
<g id="a_node2"><a xlink:href="struct_catch_1_1_matchers_1_1_impl_1_1_matcher_base.html" target="_top" xlink:title=" ">
<polygon fill="white" stroke="black" points="68.5,-128.5 68.5,-262.5 225.5,-262.5 225.5,-128.5 68.5,-128.5"/>
<text text-anchor="start" x="76.5" y="-250.5" font-family="Helvetica,sans-Serif" font-size="10.00">Catch::Matchers::Impl</text>
<text text-anchor="start" x="76.5" y="-239.5" font-family="Helvetica,sans-Serif" font-size="10.00">::MatcherBase&lt; std::runtime</text>
<text text-anchor="middle" x="147" y="-228.5" font-family="Helvetica,sans-Serif" font-size="10.00">_error &gt;</text>
<polyline fill="none" stroke="black" points="68.5,-221.5 225.5,-221.5 "/>
<text text-anchor="middle" x="147" y="-209.5" font-family="Helvetica,sans-Serif" font-size="10.00"> </text>
<polyline fill="none" stroke="black" points="68.5,-202.5 225.5,-202.5 "/>
<text text-anchor="start" x="76.5" y="-190.5" font-family="Helvetica,sans-Serif" font-size="10.00">+ operator&amp;&amp;()</text>
<text text-anchor="start" x="76.5" y="-179.5" font-family="Helvetica,sans-Serif" font-size="10.00">+ operator||()</text>
<text text-anchor="start" x="76.5" y="-168.5" font-family="Helvetica,sans-Serif" font-size="10.00">+ operator!()</text>
<text text-anchor="start" x="76.5" y="-157.5" font-family="Helvetica,sans-Serif" font-size="10.00">+ operator&amp;&amp;()</text>
<text text-anchor="start" x="76.5" y="-146.5" font-family="Helvetica,sans-Serif" font-size="10.00">+ operator||()</text>
<text text-anchor="start" x="76.5" y="-135.5" font-family="Helvetica,sans-Serif" font-size="10.00">+ operator!()</text>
</a>
</g>
</g>
<!-- Node2&#45;&gt;Node1 -->
<g id="edge1" class="edge">
<title>Node2&#45;&gt;Node1</title>
<path fill="none" stroke="midnightblue" d="M109.39,-119.28C104.47,-109.45 99.57,-99.65 95.03,-90.57"/>
<polygon fill="none" stroke="midnightblue" points="106.29,-120.91 113.9,-128.29 112.55,-117.78 106.29,-120.91"/>
</g>
<!-- Node3 -->
<g id="node3" class="node">
<title>Node3</title>
<g id="a_node3"><a xlink:href="class_catch_1_1_matchers_1_1_impl_1_1_matcher_untyped_base.html" target="_top" xlink:title=" ">
<polygon fill="white" stroke="black" points="67.5,-310.5 67.5,-499.5 216.5,-499.5 216.5,-310.5 67.5,-310.5"/>
<text text-anchor="start" x="75.5" y="-487.5" font-family="Helvetica,sans-Serif" font-size="10.00">Catch::Matchers::Impl</text>
<text text-anchor="middle" x="142" y="-476.5" font-family="Helvetica,sans-Serif" font-size="10.00">::MatcherUntypedBase</text>
<polyline fill="none" stroke="black" points="67.5,-469.5 216.5,-469.5 "/>
<text text-anchor="middle" x="142" y="-457.5" font-family="Helvetica,sans-Serif" font-size="10.00"> </text>
<polyline fill="none" stroke="black" points="67.5,-450.5 216.5,-450.5 "/>
<text text-anchor="start" x="75.5" y="-438.5" font-family="Helvetica,sans-Serif" font-size="10.00">+ MatcherUntypedBase()</text>
<text text-anchor="start" x="75.5" y="-427.5" font-family="Helvetica,sans-Serif" font-size="10.00">+ MatcherUntypedBase()</text>
<text text-anchor="start" x="75.5" y="-416.5" font-family="Helvetica,sans-Serif" font-size="10.00">+ operator=()</text>
<text text-anchor="start" x="75.5" y="-405.5" font-family="Helvetica,sans-Serif" font-size="10.00">+ toString()</text>
<text text-anchor="start" x="75.5" y="-394.5" font-family="Helvetica,sans-Serif" font-size="10.00">+ MatcherUntypedBase()</text>
<text text-anchor="start" x="75.5" y="-383.5" font-family="Helvetica,sans-Serif" font-size="10.00">+ MatcherUntypedBase()</text>
<text text-anchor="start" x="75.5" y="-372.5" font-family="Helvetica,sans-Serif" font-size="10.00">+ operator=()</text>
<text text-anchor="start" x="75.5" y="-361.5" font-family="Helvetica,sans-Serif" font-size="10.00">+ toString()</text>
<text text-anchor="start" x="75.5" y="-350.5" font-family="Helvetica,sans-Serif" font-size="10.00"># ~MatcherUntypedBase()</text>
<text text-anchor="start" x="75.5" y="-339.5" font-family="Helvetica,sans-Serif" font-size="10.00"># describe()</text>
<text text-anchor="start" x="75.5" y="-328.5" font-family="Helvetica,sans-Serif" font-size="10.00"># ~MatcherUntypedBase()</text>
<text text-anchor="start" x="75.5" y="-317.5" font-family="Helvetica,sans-Serif" font-size="10.00"># describe()</text>
</a>
</g>
</g>
<!-- Node3&#45;&gt;Node2 -->
<g id="edge2" class="edge">
<title>Node3&#45;&gt;Node2</title>
<path fill="none" stroke="midnightblue" d="M144.5,-300.04C144.81,-287.28 145.12,-274.52 145.41,-262.53"/>
<polygon fill="none" stroke="midnightblue" points="141,-300.19 144.26,-310.27 148,-300.35 141,-300.19"/>
</g>
<!-- Node4 -->
<g id="node4" class="node">
<title>Node4</title>
<g id="a_node4"><a xlink:title=" ">
<polygon fill="white" stroke="#bfbfbf" points="34,-547.5 34,-604.5 78,-604.5 78,-547.5 34,-547.5"/>
<text text-anchor="middle" x="56" y="-592.5" font-family="Helvetica,sans-Serif" font-size="10.00">string</text>
<polyline fill="none" stroke="#bfbfbf" points="34,-585.5 78,-585.5 "/>
<text text-anchor="middle" x="56" y="-573.5" font-family="Helvetica,sans-Serif" font-size="10.00"> </text>
<polyline fill="none" stroke="#bfbfbf" points="34,-566.5 78,-566.5 "/>
<text text-anchor="middle" x="56" y="-554.5" font-family="Helvetica,sans-Serif" font-size="10.00"> </text>
</a>
</g>
</g>
<!-- Node4&#45;&gt;Node1 -->
<g id="edge5" class="edge">
<title>Node4&#45;&gt;Node1</title>
<path fill="none" stroke="#404040" d="M54.63,-547.46C51.46,-477.31 44.97,-286.28 59,-128 59.72,-119.83 60.82,-111.25 62.09,-102.85"/>
<polygon fill="none" stroke="#404040" points="62.13,-102.59 59.14,-96.03 64.05,-90.74 67.04,-97.3 62.13,-102.59"/>
<text text-anchor="middle" x="75" y="-284" font-family="Helvetica,sans-Serif" font-size="10.00"> +m_text</text>
</g>
<!-- Node4&#45;&gt;Node3 -->
<g id="edge3" class="edge">
<title>Node4&#45;&gt;Node3</title>
<path fill="none" stroke="#404040" d="M70.01,-547.47C75.38,-536.92 81.88,-524.14 88.75,-510.64"/>
<polygon fill="none" stroke="#404040" points="88.88,-510.38 88.04,-503.22 94.32,-499.69 95.17,-506.85 88.88,-510.38"/>
<text text-anchor="middle" x="134" y="-521" font-family="Helvetica,sans-Serif" font-size="10.00"> #m_cachedToString</text>
</g>
<!-- Node5 -->
<g id="node5" class="node">
<title>Node5</title>
<g id="a_node5"><a xlink:href="struct_catch_1_1_matchers_1_1_impl_1_1_matcher_method.html" target="_top" xlink:title=" ">
<polygon fill="white" stroke="black" points="235,-365.5 235,-444.5 363,-444.5 363,-365.5 235,-365.5"/>
<text text-anchor="start" x="243" y="-432.5" font-family="Helvetica,sans-Serif" font-size="10.00">Catch::Matchers::Impl</text>
<text text-anchor="middle" x="299" y="-421.5" font-family="Helvetica,sans-Serif" font-size="10.00">::MatcherMethod&lt; T &gt;</text>
<polyline fill="none" stroke="black" points="235,-414.5 363,-414.5 "/>
<text text-anchor="middle" x="299" y="-402.5" font-family="Helvetica,sans-Serif" font-size="10.00"> </text>
<polyline fill="none" stroke="black" points="235,-395.5 363,-395.5 "/>
<text text-anchor="start" x="243" y="-383.5" font-family="Helvetica,sans-Serif" font-size="10.00">+ match()</text>
<text text-anchor="start" x="243" y="-372.5" font-family="Helvetica,sans-Serif" font-size="10.00">+ match()</text>
</a>
</g>
</g>
<!-- Node5&#45;&gt;Node2 -->
<g id="edge4" class="edge">
<title>Node5&#45;&gt;Node2</title>
<path fill="none" stroke="midnightblue" d="M264.62,-357.06C244.17,-329.16 217.92,-293.32 195.41,-262.58"/>
<polygon fill="none" stroke="midnightblue" points="262.03,-359.46 270.77,-365.46 267.68,-355.32 262.03,-359.46"/>
</g>
</g>
</svg>
        <g id="navigator" transform="translate(0 0)" fill="#404254">
                <rect fill="#f2f5e9" fill-opacity="0.5" stroke="#606060" stroke-width=".5" x="0" y="0" width="60" height="60"/>
                <use id="zoomplus" xlink:href="#zoomPlus" x="17" y="9" onmousedown="handleZoom(evt,'in')"/>
                <use id="zoomminus" xlink:href="#zoomMin" x="42" y="9" onmousedown="handleZoom(evt,'out')"/>
                <use id="reset" xlink:href="#resetDef" x="30" y="36" onmousedown="handleReset()"/>
                <g id="arrowUp" xlink:href="#dirArrow" transform="translate(30 24)" onmousedown="handlePan(0,-1)">
                  <use xlink:href="#rim" fill="#404040">
                        <set attributeName="fill" to="#808080" begin="arrowUp.mouseover" end="arrowUp.mouseout"/>
                  </use>
                  <path fill="none" stroke="white" stroke-width="1.5" d="M0,-3.0v7 M-2.5,-0.5L0,-3.0L2.5,-0.5"/>
                </g>
                <g id="arrowRight" xlink:href="#dirArrow" transform="rotate(90) translate(36 -43)" onmousedown="handlePan(1,0)">
                  <use xlink:href="#rim" fill="#404040">
                        <set attributeName="fill" to="#808080" begin="arrowRight.mouseover" end="arrowRight.mouseout"/>
                  </use>
                  <path fill="none" stroke="white" stroke-width="1.5" d="M0,-3.0v7 M-2.5,-0.5L0,-3.0L2.5,-0.5"/>
                </g>
                <g id="arrowDown" xlink:href="#dirArrow" transform="rotate(180) translate(-30 -48)" onmousedown="handlePan(0,1)">
                  <use xlink:href="#rim" fill="#404040">
                        <set attributeName="fill" to="#808080" begin="arrowDown.mouseover" end="arrowDown.mouseout"/>
                  </use>
                  <path fill="none" stroke="white" stroke-width="1.5" d="M0,-3.0v7 M-2.5,-0.5L0,-3.0L2.5,-0.5"/>
                </g>
                <g id="arrowLeft" xlink:href="#dirArrow" transform="rotate(270) translate(-36 17)" onmousedown="handlePan(-1,0)">
                  <use xlink:href="#rim" fill="#404040">
                        <set attributeName="fill" to="#808080" begin="arrowLeft.mouseover" end="arrowLeft.mouseout"/>
                  </use>
                  <path fill="none" stroke="white" stroke-width="1.5" d="M0,-3.0v7 M-2.5,-0.5L0,-3.0L2.5,-0.5"/>
                </g>
        </g>
        <svg viewBox="0 0 15 15" width="100%" height="30px" preserveAspectRatio="xMaxYMin meet">
         <g id="arrow_out" transform="scale(0.3 0.3)">
          <a xlink:href="struct_my_exception_matcher__coll__graph_org.svg" target="_base">
           <rect id="button" ry="5" rx="5" y="6" x="6" height="38" width="38"
                fill="#f2f5e9" fill-opacity="0.5" stroke="#606060" stroke-width="1.0"/>
           <path id="arrow"
             d="M 11.500037,31.436501 C 11.940474,20.09759 22.043105,11.32322 32.158766,21.979434 L 37.068811,17.246167 C 37.068811,17.246167 37.088388,32 37.088388,32 L 22.160133,31.978069 C 22.160133,31.978069 26.997745,27.140456 26.997745,27.140456 C 18.528582,18.264221 13.291696,25.230495 11.500037,31.436501 z"
             style="fill:#404040;"/>
          </a>
         </g>
        </svg>
</svg>
