<?xml version="1.0" encoding="UTF-8" standalone="no"?>
<!DOCTYPE svg PUBLIC "-//W3C//DTD SVG 1.1//EN"
 "http://www.w3.org/Graphics/SVG/1.1/DTD/svg11.dtd">
<!-- Generated by graphviz version 2.43.0 (0)
 -->
<!-- Title: A::X Pages: 1 -->
<svg width="50pt" height="204pt"
 viewBox="0.00 0.00 50.00 204.00" xmlns="http://www.w3.org/2000/svg" xmlns:xlink="http://www.w3.org/1999/xlink">
<g id="graph0" class="graph" transform="scale(1 1) rotate(0) translate(4 200)">
<title>A::X</title>
<polygon fill="white" stroke="transparent" points="-4,4 -4,-200 46,-200 46,4 -4,4"/>
<!-- Node1 -->
<g id="node1" class="node">
<title>Node1</title>
<g id="a_node1"><a xlink:title=" ">
<polygon fill="#bfbfbf" stroke="black" points="0,-0.5 0,-68.5 42,-68.5 42,-0.5 0,-0.5"/>
<text text-anchor="middle" x="21" y="-56.5" font-family="Helvetica,sans-Serif" font-size="10.00">A::X</text>
<polyline fill="none" stroke="black" points="0,-49.5 42,-49.5 "/>
<text text-anchor="middle" x="21" y="-37.5" font-family="Helvetica,sans-Serif" font-size="10.00"> </text>
<polyline fill="none" stroke="black" points="0,-30.5 42,-30.5 "/>
<text text-anchor="start" x="8" y="-18.5" font-family="Helvetica,sans-Serif" font-size="10.00">+ X()</text>
<text text-anchor="start" x="8" y="-7.5" font-family="Helvetica,sans-Serif" font-size="10.00">+ X()</text>
</a>
</g>
</g>
<!-- Node2 -->
<g id="node2" class="node">
<title>Node2</title>
<g id="a_node2"><a xlink:title=" ">
<polygon fill="white" stroke="#bfbfbf" points="6.5,-138.5 6.5,-195.5 35.5,-195.5 35.5,-138.5 6.5,-138.5"/>
<text text-anchor="middle" x="21" y="-183.5" font-family="Helvetica,sans-Serif" font-size="10.00">int</text>
<polyline fill="none" stroke="#bfbfbf" points="6.5,-176.5 35.5,-176.5 "/>
<text text-anchor="middle" x="21" y="-164.5" font-family="Helvetica,sans-Serif" font-size="10.00"> </text>
<polyline fill="none" stroke="#bfbfbf" points="6.5,-157.5 35.5,-157.5 "/>
<text text-anchor="middle" x="21" y="-145.5" font-family="Helvetica,sans-Serif" font-size="10.00"> </text>
</a>
</g>
</g>
<!-- Node2&#45;&gt;Node1 -->
<g id="edge1" class="edge">
<title>Node2&#45;&gt;Node1</title>
<path fill="none" stroke="#404040" d="M21,-138.32C21,-121.63 21,-99.96 21,-80.82"/>
<polygon fill="none" stroke="#404040" points="21,-80.68 17,-74.68 21,-68.68 25,-74.68 21,-80.68"/>
<text text-anchor="middle" x="30" y="-112" font-family="Helvetica,sans-Serif" font-size="10.00"> +a</text>
<text text-anchor="middle" x="30" y="-101" font-family="Helvetica,sans-Serif" font-size="10.00">+b</text>
<text text-anchor="middle" x="30" y="-90" font-family="Helvetica,sans-Serif" font-size="10.00">+c</text>
</g>
</g>
</svg>
