<?xml version="1.0" encoding="UTF-8" standalone="no"?>
<!DOCTYPE svg PUBLIC "-//W3C//DTD SVG 1.1//EN"
 "http://www.w3.org/Graphics/SVG/1.1/DTD/svg11.dtd">
<!-- Generated by graphviz version 2.43.0 (0)
 -->
<!-- Title: Catch::AssertionStats::AssertionStats Pages: 1 -->
<svg width="343pt" height="274pt"
 viewBox="0.00 0.00 343.00 273.50" xmlns="http://www.w3.org/2000/svg" xmlns:xlink="http://www.w3.org/1999/xlink">
<g id="graph0" class="graph" transform="scale(1 1) rotate(0) translate(4 269.5)">
<title>Catch::AssertionStats::AssertionStats</title>
<polygon fill="white" stroke="transparent" points="-4,4 -4,-269.5 339,-269.5 339,4 -4,4"/>
<!-- Node1 -->
<g id="node1" class="node">
<title>Node1</title>
<g id="a_node1"><a xlink:title=" ">
<polygon fill="#bfbfbf" stroke="black" points="0,-112 0,-142 121,-142 121,-112 0,-112"/>
<text text-anchor="start" x="8" y="-130" font-family="Helvetica,sans-Serif" font-size="10.00">Catch::AssertionStats</text>
<text text-anchor="middle" x="60.5" y="-119" font-family="Helvetica,sans-Serif" font-size="10.00">::AssertionStats</text>
</a>
</g>
</g>
<!-- Node2 -->
<g id="node2" class="node">
<title>Node2</title>
<g id="a_node2"><a xlink:href="class_catch_1_1_assertion_result.html#ae730943beed46921b09383c673e35786" target="_top" xlink:title=" ">
<polygon fill="white" stroke="black" points="182.5,-235 182.5,-265 309.5,-265 309.5,-235 182.5,-235"/>
<text text-anchor="start" x="190.5" y="-253" font-family="Helvetica,sans-Serif" font-size="10.00">Catch::AssertionResult</text>
<text text-anchor="middle" x="246" y="-242" font-family="Helvetica,sans-Serif" font-size="10.00">::getMessage</text>
</a>
</g>
</g>
<!-- Node1&#45;&gt;Node2 -->
<g id="edge1" class="edge">
<title>Node1&#45;&gt;Node2</title>
<path fill="none" stroke="midnightblue" d="M71.97,-142.2C87.83,-164.05 120.02,-204.09 157,-226 161.98,-228.95 167.32,-231.54 172.83,-233.82"/>
<polygon fill="midnightblue" stroke="midnightblue" points="171.63,-237.11 182.22,-237.38 174.11,-230.57 171.63,-237.11"/>
</g>
<!-- Node3 -->
<g id="node3" class="node">
<title>Node3</title>
<g id="a_node3"><a xlink:href="class_catch_1_1_assertion_result.html#ac810750194e1722489d2fd16e8c6a4a8" target="_top" xlink:title=" ">
<polygon fill="white" stroke="black" points="182.5,-186 182.5,-216 309.5,-216 309.5,-186 182.5,-186"/>
<text text-anchor="start" x="190.5" y="-204" font-family="Helvetica,sans-Serif" font-size="10.00">Catch::AssertionResult</text>
<text text-anchor="middle" x="246" y="-193" font-family="Helvetica,sans-Serif" font-size="10.00">::getResultType</text>
</a>
</g>
</g>
<!-- Node1&#45;&gt;Node3 -->
<g id="edge2" class="edge">
<title>Node1&#45;&gt;Node3</title>
<path fill="none" stroke="midnightblue" d="M86.73,-142.13C105.59,-152.96 132.26,-167.28 157,-177 162.16,-179.03 167.55,-180.95 173.02,-182.75"/>
<polygon fill="midnightblue" stroke="midnightblue" points="172.31,-186.2 182.9,-185.88 174.42,-179.53 172.31,-186.2"/>
</g>
<!-- Node4 -->
<g id="node4" class="node">
<title>Node4</title>
<g id="a_node4"><a xlink:href="class_catch_1_1_assertion_result.html#aa4d3fdbfe276a69a035762dbb790800f" target="_top" xlink:title=" ">
<polygon fill="white" stroke="black" points="182.5,-137 182.5,-167 309.5,-167 309.5,-137 182.5,-137"/>
<text text-anchor="start" x="190.5" y="-155" font-family="Helvetica,sans-Serif" font-size="10.00">Catch::AssertionResult</text>
<text text-anchor="middle" x="246" y="-144" font-family="Helvetica,sans-Serif" font-size="10.00">::getSourceInfo</text>
</a>
</g>
</g>
<!-- Node1&#45;&gt;Node4 -->
<g id="edge3" class="edge">
<title>Node1&#45;&gt;Node4</title>
<path fill="none" stroke="midnightblue" d="M121.08,-135.12C137.28,-137.32 155.02,-139.74 171.89,-142.04"/>
<polygon fill="midnightblue" stroke="midnightblue" points="171.87,-145.57 182.25,-143.45 172.81,-138.63 171.87,-145.57"/>
</g>
<!-- Node5 -->
<g id="node5" class="node">
<title>Node5</title>
<g id="a_node5"><a xlink:href="class_catch_1_1_assertion_result.html#a06dd13522bd42af8402bb3903787d844" target="_top" xlink:title=" ">
<polygon fill="white" stroke="black" points="182.5,-88 182.5,-118 309.5,-118 309.5,-88 182.5,-88"/>
<text text-anchor="start" x="190.5" y="-106" font-family="Helvetica,sans-Serif" font-size="10.00">Catch::AssertionResult</text>
<text text-anchor="middle" x="246" y="-95" font-family="Helvetica,sans-Serif" font-size="10.00">::getTestMacroName</text>
</a>
</g>
</g>
<!-- Node1&#45;&gt;Node5 -->
<g id="edge4" class="edge">
<title>Node1&#45;&gt;Node5</title>
<path fill="none" stroke="midnightblue" d="M121.08,-119.21C137.28,-117.09 155.02,-114.77 171.89,-112.56"/>
<polygon fill="midnightblue" stroke="midnightblue" points="172.79,-115.97 182.25,-111.21 171.88,-109.03 172.79,-115.97"/>
</g>
<!-- Node6 -->
<g id="node6" class="node">
<title>Node6</title>
<g id="a_node6"><a xlink:href="class_catch_1_1_assertion_result.html#aae37064b401919fa8ac480ef86cca924" target="_top" xlink:title=" ">
<polygon fill="white" stroke="black" points="182.5,-39 182.5,-69 309.5,-69 309.5,-39 182.5,-39"/>
<text text-anchor="start" x="190.5" y="-57" font-family="Helvetica,sans-Serif" font-size="10.00">Catch::AssertionResult</text>
<text text-anchor="middle" x="246" y="-46" font-family="Helvetica,sans-Serif" font-size="10.00">::hasMessage</text>
</a>
</g>
</g>
<!-- Node1&#45;&gt;Node6 -->
<g id="edge5" class="edge">
<title>Node1&#45;&gt;Node6</title>
<path fill="none" stroke="midnightblue" d="M88.05,-111.95C106.87,-101.7 132.96,-88.36 157,-79 163.26,-76.56 169.86,-74.25 176.51,-72.08"/>
<polygon fill="midnightblue" stroke="midnightblue" points="177.77,-75.35 186.26,-69.01 175.67,-68.67 177.77,-75.35"/>
</g>
<!-- Node7 -->
<g id="node7" class="node">
<title>Node7</title>
<g id="a_node7"><a xlink:href="class_catch_1_1_reusable_string_stream.html#a0e9ecf260b2a5d35f4886ef0d51f6270" target="_top" xlink:title=" ">
<polygon fill="white" stroke="black" points="157,-0.5 157,-19.5 335,-19.5 335,-0.5 157,-0.5"/>
<text text-anchor="middle" x="246" y="-7.5" font-family="Helvetica,sans-Serif" font-size="10.00">Catch::ReusableStringStream::str</text>
</a>
</g>
</g>
<!-- Node1&#45;&gt;Node7 -->
<g id="edge6" class="edge">
<title>Node1&#45;&gt;Node7</title>
<path fill="none" stroke="midnightblue" d="M71.93,-111.9C87.72,-90.25 119.84,-50.7 157,-30 161.88,-27.28 167.1,-24.94 172.48,-22.91"/>
<polygon fill="midnightblue" stroke="midnightblue" points="173.94,-26.11 182.29,-19.59 171.69,-19.48 173.94,-26.11"/>
</g>
</g>
</svg>
