<?xml version="1.0" encoding="UTF-8" standalone="no"?>
<!DOCTYPE svg PUBLIC "-//W3C//DTD SVG 1.1//EN"
 "http://www.w3.org/Graphics/SVG/1.1/DTD/svg11.dtd">
<!-- Generated by graphviz version 2.43.0 (0)
 -->
<!-- Title: Catch::ITransientExpression Pages: 1 -->
<svg width="225pt" height="281pt"
 viewBox="0.00 0.00 224.50 281.00" xmlns="http://www.w3.org/2000/svg" xmlns:xlink="http://www.w3.org/1999/xlink">
<g id="graph0" class="graph" transform="scale(1 1) rotate(0) translate(4 277)">
<title>Catch::ITransientExpression</title>
<polygon fill="white" stroke="transparent" points="-4,4 -4,-277 220.5,-277 220.5,4 -4,4"/>
<!-- Node1 -->
<g id="node1" class="node">
<title>Node1</title>
<g id="a_node1"><a xlink:title=" ">
<polygon fill="#bfbfbf" stroke="black" points="0,-0.5 0,-156.5 193,-156.5 193,-0.5 0,-0.5"/>
<text text-anchor="middle" x="96.5" y="-144.5" font-family="Helvetica,sans-Serif" font-size="10.00">Catch::ITransientExpression</text>
<polyline fill="none" stroke="black" points="0,-137.5 193,-137.5 "/>
<text text-anchor="middle" x="96.5" y="-125.5" font-family="Helvetica,sans-Serif" font-size="10.00"> </text>
<polyline fill="none" stroke="black" points="0,-118.5 193,-118.5 "/>
<text text-anchor="start" x="8" y="-106.5" font-family="Helvetica,sans-Serif" font-size="10.00">+ isBinaryExpression()</text>
<text text-anchor="start" x="8" y="-95.5" font-family="Helvetica,sans-Serif" font-size="10.00">+ getResult()</text>
<text text-anchor="start" x="8" y="-84.5" font-family="Helvetica,sans-Serif" font-size="10.00">+ streamReconstructedExpression()</text>
<text text-anchor="start" x="8" y="-73.5" font-family="Helvetica,sans-Serif" font-size="10.00">+ ITransientExpression()</text>
<text text-anchor="start" x="8" y="-62.5" font-family="Helvetica,sans-Serif" font-size="10.00">+ ~ITransientExpression()</text>
<text text-anchor="start" x="8" y="-51.5" font-family="Helvetica,sans-Serif" font-size="10.00">+ isBinaryExpression()</text>
<text text-anchor="start" x="8" y="-40.5" font-family="Helvetica,sans-Serif" font-size="10.00">+ getResult()</text>
<text text-anchor="start" x="8" y="-29.5" font-family="Helvetica,sans-Serif" font-size="10.00">+ streamReconstructedExpression()</text>
<text text-anchor="start" x="8" y="-18.5" font-family="Helvetica,sans-Serif" font-size="10.00">+ ITransientExpression()</text>
<text text-anchor="start" x="8" y="-7.5" font-family="Helvetica,sans-Serif" font-size="10.00">+ ~ITransientExpression()</text>
</a>
</g>
</g>
<!-- Node2 -->
<g id="node2" class="node">
<title>Node2</title>
<g id="a_node2"><a xlink:href="classbool.html" target="_top" xlink:title=" ">
<polygon fill="white" stroke="black" points="77.5,-215.5 77.5,-272.5 115.5,-272.5 115.5,-215.5 77.5,-215.5"/>
<text text-anchor="middle" x="96.5" y="-260.5" font-family="Helvetica,sans-Serif" font-size="10.00">bool</text>
<polyline fill="none" stroke="black" points="77.5,-253.5 115.5,-253.5 "/>
<text text-anchor="middle" x="96.5" y="-241.5" font-family="Helvetica,sans-Serif" font-size="10.00"> </text>
<polyline fill="none" stroke="black" points="77.5,-234.5 115.5,-234.5 "/>
<text text-anchor="middle" x="96.5" y="-222.5" font-family="Helvetica,sans-Serif" font-size="10.00"> </text>
</a>
</g>
</g>
<!-- Node2&#45;&gt;Node1 -->
<g id="edge1" class="edge">
<title>Node2&#45;&gt;Node1</title>
<path fill="none" stroke="#404040" d="M96.5,-215.26C96.5,-202.21 96.5,-185.84 96.5,-169.02"/>
<polygon fill="none" stroke="#404040" points="96.5,-168.74 92.5,-162.74 96.5,-156.74 100.5,-162.74 96.5,-168.74"/>
<text text-anchor="middle" x="156.5" y="-189" font-family="Helvetica,sans-Serif" font-size="10.00"> +m_isBinaryExpression</text>
<text text-anchor="middle" x="156.5" y="-178" font-family="Helvetica,sans-Serif" font-size="10.00">+m_result</text>
</g>
</g>
</svg>
