<?xml version="1.0" encoding="UTF-8" standalone="no"?>
<!DOCTYPE svg PUBLIC "-//W3C//DTD SVG 1.1//EN"
 "http://www.w3.org/Graphics/SVG/1.1/DTD/svg11.dtd">
<!-- Generated by graphviz version 2.43.0 (0)
 -->
<!-- Title: Catch::SonarQubeReporter Pages: 1 -->
<svg width="1416pt" height="844pt"
 viewBox="0.00 0.00 1416.00 844.00" xmlns="http://www.w3.org/2000/svg" xmlns:xlink="http://www.w3.org/1999/xlink">
<g id="graph0" class="graph" transform="scale(1 1) rotate(0) translate(4 840)">
<title>Catch::SonarQubeReporter</title>
<polygon fill="white" stroke="transparent" points="-4,4 -4,-840 1412,-840 1412,4 -4,4"/>
<!-- Node1 -->
<g id="node1" class="node">
<title>Node1</title>
<g id="a_node1"><a xlink:title=" ">
<polygon fill="#bfbfbf" stroke="black" points="620,-0.5 620,-211.5 779,-211.5 779,-0.5 620,-0.5"/>
<text text-anchor="middle" x="699.5" y="-199.5" font-family="Helvetica,sans-Serif" font-size="10.00">Catch::SonarQubeReporter</text>
<polyline fill="none" stroke="black" points="620,-192.5 779,-192.5 "/>
<text text-anchor="middle" x="699.5" y="-180.5" font-family="Helvetica,sans-Serif" font-size="10.00"> </text>
<polyline fill="none" stroke="black" points="620,-173.5 779,-173.5 "/>
<text text-anchor="start" x="628" y="-161.5" font-family="Helvetica,sans-Serif" font-size="10.00">+ SonarQubeReporter()</text>
<text text-anchor="start" x="628" y="-150.5" font-family="Helvetica,sans-Serif" font-size="10.00">+ ~SonarQubeReporter()</text>
<text text-anchor="start" x="628" y="-139.5" font-family="Helvetica,sans-Serif" font-size="10.00">+ noMatchingTestCases()</text>
<text text-anchor="start" x="628" y="-128.5" font-family="Helvetica,sans-Serif" font-size="10.00">+ testRunStarting()</text>
<text text-anchor="start" x="628" y="-117.5" font-family="Helvetica,sans-Serif" font-size="10.00">+ testGroupEnded()</text>
<text text-anchor="start" x="628" y="-106.5" font-family="Helvetica,sans-Serif" font-size="10.00">+ testRunEndedCumulative()</text>
<text text-anchor="start" x="628" y="-95.5" font-family="Helvetica,sans-Serif" font-size="10.00">+ writeGroup()</text>
<text text-anchor="start" x="628" y="-84.5" font-family="Helvetica,sans-Serif" font-size="10.00">+ writeTestFile()</text>
<text text-anchor="start" x="628" y="-73.5" font-family="Helvetica,sans-Serif" font-size="10.00">+ writeTestCase()</text>
<text text-anchor="start" x="628" y="-62.5" font-family="Helvetica,sans-Serif" font-size="10.00">+ writeSection()</text>
<text text-anchor="start" x="628" y="-51.5" font-family="Helvetica,sans-Serif" font-size="10.00">and 14 more...</text>
<text text-anchor="start" x="628" y="-40.5" font-family="Helvetica,sans-Serif" font-size="10.00">+ getDescription()</text>
<text text-anchor="start" x="628" y="-29.5" font-family="Helvetica,sans-Serif" font-size="10.00">+ getSupportedVerbosities()</text>
<text text-anchor="start" x="628" y="-18.5" font-family="Helvetica,sans-Serif" font-size="10.00">+ getDescription()</text>
<text text-anchor="start" x="628" y="-7.5" font-family="Helvetica,sans-Serif" font-size="10.00">+ getSupportedVerbosities()</text>
</a>
</g>
</g>
<!-- Node2 -->
<g id="node2" class="node">
<title>Node2</title>
<g id="a_node2"><a xlink:href="struct_catch_1_1_cumulative_reporter_base.html" target="_top" xlink:title=" ">
<polygon fill="white" stroke="black" points="616.5,-249.5 616.5,-482.5 782.5,-482.5 782.5,-249.5 616.5,-249.5"/>
<text text-anchor="start" x="624.5" y="-470.5" font-family="Helvetica,sans-Serif" font-size="10.00">Catch::CumulativeReporter</text>
<text text-anchor="middle" x="699.5" y="-459.5" font-family="Helvetica,sans-Serif" font-size="10.00">Base&lt; SonarQubeReporter &gt;</text>
<polyline fill="none" stroke="black" points="616.5,-452.5 782.5,-452.5 "/>
<text text-anchor="middle" x="699.5" y="-440.5" font-family="Helvetica,sans-Serif" font-size="10.00"> </text>
<polyline fill="none" stroke="black" points="616.5,-433.5 782.5,-433.5 "/>
<text text-anchor="start" x="624.5" y="-421.5" font-family="Helvetica,sans-Serif" font-size="10.00">+ CumulativeReporterBase()</text>
<text text-anchor="start" x="624.5" y="-410.5" font-family="Helvetica,sans-Serif" font-size="10.00">+ ~CumulativeReporterBase()</text>
<text text-anchor="start" x="624.5" y="-399.5" font-family="Helvetica,sans-Serif" font-size="10.00">+ getPreferences()</text>
<text text-anchor="start" x="624.5" y="-388.5" font-family="Helvetica,sans-Serif" font-size="10.00">+ testRunStarting()</text>
<text text-anchor="start" x="624.5" y="-377.5" font-family="Helvetica,sans-Serif" font-size="10.00">+ testGroupStarting()</text>
<text text-anchor="start" x="624.5" y="-366.5" font-family="Helvetica,sans-Serif" font-size="10.00">+ testCaseStarting()</text>
<text text-anchor="start" x="624.5" y="-355.5" font-family="Helvetica,sans-Serif" font-size="10.00">+ sectionStarting()</text>
<text text-anchor="start" x="624.5" y="-344.5" font-family="Helvetica,sans-Serif" font-size="10.00">+ assertionStarting()</text>
<text text-anchor="start" x="624.5" y="-333.5" font-family="Helvetica,sans-Serif" font-size="10.00">+ assertionEnded()</text>
<text text-anchor="start" x="624.5" y="-322.5" font-family="Helvetica,sans-Serif" font-size="10.00">+ sectionEnded()</text>
<text text-anchor="start" x="624.5" y="-311.5" font-family="Helvetica,sans-Serif" font-size="10.00">+ testCaseEnded()</text>
<text text-anchor="start" x="624.5" y="-300.5" font-family="Helvetica,sans-Serif" font-size="10.00">+ testGroupEnded()</text>
<text text-anchor="start" x="624.5" y="-289.5" font-family="Helvetica,sans-Serif" font-size="10.00">+ testRunEnded()</text>
<text text-anchor="start" x="624.5" y="-278.5" font-family="Helvetica,sans-Serif" font-size="10.00">+ testRunEndedCumulative()</text>
<text text-anchor="start" x="624.5" y="-267.5" font-family="Helvetica,sans-Serif" font-size="10.00">+ skipTest()</text>
<text text-anchor="start" x="624.5" y="-256.5" font-family="Helvetica,sans-Serif" font-size="10.00">+ getSupportedVerbosities()</text>
</a>
</g>
</g>
<!-- Node2&#45;&gt;Node1 -->
<g id="edge1" class="edge">
<title>Node2&#45;&gt;Node1</title>
<path fill="none" stroke="midnightblue" d="M699.5,-238.96C699.5,-229.87 699.5,-220.76 699.5,-211.81"/>
<polygon fill="none" stroke="midnightblue" points="696,-239.21 699.5,-249.21 703,-239.21 696,-239.21"/>
</g>
<!-- Node3 -->
<g id="node3" class="node">
<title>Node3</title>
<g id="a_node3"><a xlink:href="struct_catch_1_1_i_streaming_reporter.html" target="_top" xlink:title=" ">
<polygon fill="white" stroke="black" points="0,-552.5 0,-719.5 151,-719.5 151,-552.5 0,-552.5"/>
<text text-anchor="middle" x="75.5" y="-707.5" font-family="Helvetica,sans-Serif" font-size="10.00">Catch::IStreamingReporter</text>
<polyline fill="none" stroke="black" points="0,-700.5 151,-700.5 "/>
<text text-anchor="middle" x="75.5" y="-688.5" font-family="Helvetica,sans-Serif" font-size="10.00"> </text>
<polyline fill="none" stroke="black" points="0,-681.5 151,-681.5 "/>
<text text-anchor="start" x="8" y="-669.5" font-family="Helvetica,sans-Serif" font-size="10.00">+ ~IStreamingReporter()</text>
<text text-anchor="start" x="8" y="-658.5" font-family="Helvetica,sans-Serif" font-size="10.00">+ getPreferences()</text>
<text text-anchor="start" x="8" y="-647.5" font-family="Helvetica,sans-Serif" font-size="10.00">+ noMatchingTestCases()</text>
<text text-anchor="start" x="8" y="-636.5" font-family="Helvetica,sans-Serif" font-size="10.00">+ reportInvalidArguments()</text>
<text text-anchor="start" x="8" y="-625.5" font-family="Helvetica,sans-Serif" font-size="10.00">+ testRunStarting()</text>
<text text-anchor="start" x="8" y="-614.5" font-family="Helvetica,sans-Serif" font-size="10.00">+ testGroupStarting()</text>
<text text-anchor="start" x="8" y="-603.5" font-family="Helvetica,sans-Serif" font-size="10.00">+ testCaseStarting()</text>
<text text-anchor="start" x="8" y="-592.5" font-family="Helvetica,sans-Serif" font-size="10.00">+ sectionStarting()</text>
<text text-anchor="start" x="8" y="-581.5" font-family="Helvetica,sans-Serif" font-size="10.00">+ assertionStarting()</text>
<text text-anchor="start" x="8" y="-570.5" font-family="Helvetica,sans-Serif" font-size="10.00">+ assertionEnded()</text>
<text text-anchor="start" x="8" y="-559.5" font-family="Helvetica,sans-Serif" font-size="10.00">and 7 more...</text>
</a>
</g>
</g>
<!-- Node3&#45;&gt;Node2 -->
<g id="edge2" class="edge">
<title>Node3&#45;&gt;Node2</title>
<path fill="none" stroke="midnightblue" d="M159.93,-552.14C314.47,-458.57 507.75,-407.14 616.28,-383.3"/>
<polygon fill="none" stroke="midnightblue" points="157.9,-549.27 151.2,-557.49 161.56,-555.24 157.9,-549.27"/>
</g>
<!-- Node4 -->
<g id="node4" class="node">
<title>Node4</title>
<g id="a_node4"><a xlink:title=" ">
<polygon fill="white" stroke="#bfbfbf" points="169,-596.5 169,-675.5 348,-675.5 348,-596.5 169,-596.5"/>
<text text-anchor="start" x="177" y="-663.5" font-family="Helvetica,sans-Serif" font-size="10.00">vector&lt; std::shared</text>
<text text-anchor="start" x="177" y="-652.5" font-family="Helvetica,sans-Serif" font-size="10.00">_ptr&lt; Catch::CumulativeReporter</text>
<text text-anchor="middle" x="258.5" y="-641.5" font-family="Helvetica,sans-Serif" font-size="10.00">Base::Node &gt; &gt;</text>
<polyline fill="none" stroke="#bfbfbf" points="169,-634.5 348,-634.5 "/>
<text text-anchor="middle" x="258.5" y="-622.5" font-family="Helvetica,sans-Serif" font-size="10.00"> </text>
<polyline fill="none" stroke="#bfbfbf" points="169,-615.5 348,-615.5 "/>
<text text-anchor="middle" x="258.5" y="-603.5" font-family="Helvetica,sans-Serif" font-size="10.00"> </text>
</a>
</g>
</g>
<!-- Node4&#45;&gt;Node2 -->
<g id="edge3" class="edge">
<title>Node4&#45;&gt;Node2</title>
<path fill="none" stroke="#404040" d="M286.17,-596.42C308.81,-567.09 343.11,-527.41 380.5,-501 449.12,-452.53 537.97,-417.03 604.47,-394.79"/>
<polygon fill="none" stroke="#404040" points="604.79,-394.68 609.24,-389.01 616.19,-390.93 611.74,-396.6 604.79,-394.68"/>
<text text-anchor="middle" x="419" y="-526" font-family="Helvetica,sans-Serif" font-size="10.00"> +m_testCases</text>
<text text-anchor="middle" x="419" y="-515" font-family="Helvetica,sans-Serif" font-size="10.00">+m_testRuns</text>
<text text-anchor="middle" x="419" y="-504" font-family="Helvetica,sans-Serif" font-size="10.00">+m_testGroups</text>
</g>
<!-- Node5 -->
<g id="node5" class="node">
<title>Node5</title>
<g id="a_node5"><a xlink:title=" ">
<polygon fill="white" stroke="#bfbfbf" points="366.5,-607.5 366.5,-664.5 434.5,-664.5 434.5,-607.5 366.5,-607.5"/>
<text text-anchor="middle" x="400.5" y="-652.5" font-family="Helvetica,sans-Serif" font-size="10.00">ostream &amp;</text>
<polyline fill="none" stroke="#bfbfbf" points="366.5,-645.5 434.5,-645.5 "/>
<text text-anchor="middle" x="400.5" y="-633.5" font-family="Helvetica,sans-Serif" font-size="10.00"> </text>
<polyline fill="none" stroke="#bfbfbf" points="366.5,-626.5 434.5,-626.5 "/>
<text text-anchor="middle" x="400.5" y="-614.5" font-family="Helvetica,sans-Serif" font-size="10.00"> </text>
</a>
</g>
</g>
<!-- Node5&#45;&gt;Node2 -->
<g id="edge4" class="edge">
<title>Node5&#45;&gt;Node2</title>
<path fill="none" stroke="#404040" d="M410.98,-607.25C418.35,-590.11 429.41,-568.35 443.5,-552 489.4,-498.76 553.54,-452.44 606.12,-419.47"/>
<polygon fill="none" stroke="#404040" points="606.28,-419.38 609.27,-412.82 616.48,-413.06 613.48,-419.62 606.28,-419.38"/>
<text text-anchor="middle" x="515.5" y="-515" font-family="Helvetica,sans-Serif" font-size="10.00"> +stream</text>
</g>
<!-- Node6 -->
<g id="node6" class="node">
<title>Node6</title>
<g id="a_node6"><a xlink:title=" ">
<polygon fill="white" stroke="#bfbfbf" points="453,-596.5 453,-675.5 592,-675.5 592,-596.5 453,-596.5"/>
<text text-anchor="start" x="461" y="-663.5" font-family="Helvetica,sans-Serif" font-size="10.00">shared_ptr&lt; Catch::</text>
<text text-anchor="start" x="461" y="-652.5" font-family="Helvetica,sans-Serif" font-size="10.00">CumulativeReporterBase</text>
<text text-anchor="middle" x="522.5" y="-641.5" font-family="Helvetica,sans-Serif" font-size="10.00">::SectionNode &gt;</text>
<polyline fill="none" stroke="#bfbfbf" points="453,-634.5 592,-634.5 "/>
<text text-anchor="middle" x="522.5" y="-622.5" font-family="Helvetica,sans-Serif" font-size="10.00"> </text>
<polyline fill="none" stroke="#bfbfbf" points="453,-615.5 592,-615.5 "/>
<text text-anchor="middle" x="522.5" y="-603.5" font-family="Helvetica,sans-Serif" font-size="10.00"> </text>
</a>
</g>
</g>
<!-- Node6&#45;&gt;Node2 -->
<g id="edge5" class="edge">
<title>Node6&#45;&gt;Node2</title>
<path fill="none" stroke="#404040" d="M540.61,-596.41C554.01,-569.05 573.35,-531.87 593.5,-501 598.52,-493.32 603.87,-485.53 609.4,-477.78"/>
<polygon fill="none" stroke="#404040" points="609.45,-477.71 609.73,-470.51 616.49,-468 616.21,-475.2 609.45,-477.71"/>
<text text-anchor="middle" x="644.5" y="-520.5" font-family="Helvetica,sans-Serif" font-size="10.00"> +m_deepestSection</text>
<text text-anchor="middle" x="644.5" y="-509.5" font-family="Helvetica,sans-Serif" font-size="10.00">+m_rootSection</text>
</g>
<!-- Node7 -->
<g id="node7" class="node">
<title>Node7</title>
<g id="a_node7"><a xlink:title=" ">
<polygon fill="white" stroke="#bfbfbf" points="610,-596.5 610,-675.5 789,-675.5 789,-596.5 610,-596.5"/>
<text text-anchor="start" x="618" y="-663.5" font-family="Helvetica,sans-Serif" font-size="10.00">vector&lt; std::shared</text>
<text text-anchor="start" x="618" y="-652.5" font-family="Helvetica,sans-Serif" font-size="10.00">_ptr&lt; Catch::CumulativeReporter</text>
<text text-anchor="middle" x="699.5" y="-641.5" font-family="Helvetica,sans-Serif" font-size="10.00">Base::SectionNode &gt; &gt;</text>
<polyline fill="none" stroke="#bfbfbf" points="610,-634.5 789,-634.5 "/>
<text text-anchor="middle" x="699.5" y="-622.5" font-family="Helvetica,sans-Serif" font-size="10.00"> </text>
<polyline fill="none" stroke="#bfbfbf" points="610,-615.5 789,-615.5 "/>
<text text-anchor="middle" x="699.5" y="-603.5" font-family="Helvetica,sans-Serif" font-size="10.00"> </text>
</a>
</g>
</g>
<!-- Node7&#45;&gt;Node2 -->
<g id="edge6" class="edge">
<title>Node7&#45;&gt;Node2</title>
<path fill="none" stroke="#404040" d="M699.5,-596.32C699.5,-569.42 699.5,-531.91 699.5,-495"/>
<polygon fill="none" stroke="#404040" points="699.5,-494.53 695.5,-488.53 699.5,-482.53 703.5,-488.53 699.5,-494.53"/>
<text text-anchor="middle" x="744" y="-515" font-family="Helvetica,sans-Serif" font-size="10.00"> +m_sectionStack</text>
</g>
<!-- Node8 -->
<g id="node8" class="node">
<title>Node8</title>
<g id="a_node8"><a xlink:title=" ">
<polygon fill="white" stroke="#bfbfbf" points="807,-591 807,-681 952,-681 952,-591 807,-591"/>
<text text-anchor="start" x="815" y="-669" font-family="Helvetica,sans-Serif" font-size="10.00">vector&lt; std::vector</text>
<text text-anchor="start" x="815" y="-658" font-family="Helvetica,sans-Serif" font-size="10.00">&lt; std::shared_ptr&lt; Catch</text>
<text text-anchor="start" x="815" y="-647" font-family="Helvetica,sans-Serif" font-size="10.00">::CumulativeReporterBase</text>
<text text-anchor="middle" x="879.5" y="-636" font-family="Helvetica,sans-Serif" font-size="10.00">::SectionNode &gt; &gt; &gt;</text>
<polyline fill="none" stroke="#bfbfbf" points="807,-629 952,-629 "/>
<text text-anchor="middle" x="879.5" y="-617" font-family="Helvetica,sans-Serif" font-size="10.00"> </text>
<polyline fill="none" stroke="#bfbfbf" points="807,-610 952,-610 "/>
<text text-anchor="middle" x="879.5" y="-598" font-family="Helvetica,sans-Serif" font-size="10.00"> </text>
</a>
</g>
</g>
<!-- Node8&#45;&gt;Node2 -->
<g id="edge7" class="edge">
<title>Node8&#45;&gt;Node2</title>
<path fill="none" stroke="#404040" d="M851.24,-590.72C834.38,-564.5 812.45,-530.71 792.5,-501 790.68,-498.28 788.83,-495.54 786.96,-492.78"/>
<polygon fill="none" stroke="#404040" points="786.86,-492.63 780.18,-489.91 780.13,-482.7 786.8,-485.42 786.86,-492.63"/>
<text text-anchor="middle" x="848" y="-515" font-family="Helvetica,sans-Serif" font-size="10.00"> +m_sections</text>
</g>
<!-- Node9 -->
<g id="node9" class="node">
<title>Node9</title>
<g id="a_node9"><a xlink:href="struct_catch_1_1_reporter_preferences.html" target="_top" xlink:title=" ">
<polygon fill="white" stroke="black" points="970.5,-607.5 970.5,-664.5 1120.5,-664.5 1120.5,-607.5 970.5,-607.5"/>
<text text-anchor="middle" x="1045.5" y="-652.5" font-family="Helvetica,sans-Serif" font-size="10.00">Catch::ReporterPreferences</text>
<polyline fill="none" stroke="black" points="970.5,-645.5 1120.5,-645.5 "/>
<text text-anchor="middle" x="1045.5" y="-633.5" font-family="Helvetica,sans-Serif" font-size="10.00"> </text>
<polyline fill="none" stroke="black" points="970.5,-626.5 1120.5,-626.5 "/>
<text text-anchor="middle" x="1045.5" y="-614.5" font-family="Helvetica,sans-Serif" font-size="10.00"> </text>
</a>
</g>
</g>
<!-- Node9&#45;&gt;Node2 -->
<g id="edge8" class="edge">
<title>Node9&#45;&gt;Node2</title>
<path fill="none" stroke="#404040" d="M1019.34,-607.34C1003.02,-590.63 981.25,-569.3 960.5,-552 907.21,-507.57 843.78,-462.44 792.8,-427.89"/>
<polygon fill="none" stroke="#404040" points="792.72,-427.83 785.51,-427.79 782.77,-421.12 789.98,-421.16 792.72,-427.83"/>
<text text-anchor="middle" x="980" y="-515" font-family="Helvetica,sans-Serif" font-size="10.00"> +m_reporterPrefs</text>
</g>
<!-- Node10 -->
<g id="node10" class="node">
<title>Node10</title>
<g id="a_node10"><a xlink:href="classbool.html" target="_top" xlink:title=" ">
<polygon fill="white" stroke="black" points="1026.5,-778.5 1026.5,-835.5 1064.5,-835.5 1064.5,-778.5 1026.5,-778.5"/>
<text text-anchor="middle" x="1045.5" y="-823.5" font-family="Helvetica,sans-Serif" font-size="10.00">bool</text>
<polyline fill="none" stroke="black" points="1026.5,-816.5 1064.5,-816.5 "/>
<text text-anchor="middle" x="1045.5" y="-804.5" font-family="Helvetica,sans-Serif" font-size="10.00"> </text>
<polyline fill="none" stroke="black" points="1026.5,-797.5 1064.5,-797.5 "/>
<text text-anchor="middle" x="1045.5" y="-785.5" font-family="Helvetica,sans-Serif" font-size="10.00"> </text>
</a>
</g>
</g>
<!-- Node10&#45;&gt;Node9 -->
<g id="edge9" class="edge">
<title>Node10&#45;&gt;Node9</title>
<path fill="none" stroke="#404040" d="M1045.5,-778.47C1045.5,-750.85 1045.5,-708.03 1045.5,-676.73"/>
<polygon fill="none" stroke="#404040" points="1045.5,-676.52 1041.5,-670.52 1045.5,-664.52 1049.5,-670.52 1045.5,-676.52"/>
<text text-anchor="middle" x="1115.5" y="-752" font-family="Helvetica,sans-Serif" font-size="10.00"> +shouldReportAllAssertions</text>
<text text-anchor="middle" x="1115.5" y="-741" font-family="Helvetica,sans-Serif" font-size="10.00">+shouldRedirectStdOut</text>
</g>
<!-- Node11 -->
<g id="node11" class="node">
<title>Node11</title>
<g id="a_node11"><a xlink:title=" ">
<polygon fill="white" stroke="#bfbfbf" points="1138.5,-602 1138.5,-670 1276.5,-670 1276.5,-602 1138.5,-602"/>
<text text-anchor="start" x="1146.5" y="-658" font-family="Helvetica,sans-Serif" font-size="10.00">vector&lt; Catch::Assertion</text>
<text text-anchor="middle" x="1207.5" y="-647" font-family="Helvetica,sans-Serif" font-size="10.00">Stats &gt;</text>
<polyline fill="none" stroke="#bfbfbf" points="1138.5,-640 1276.5,-640 "/>
<text text-anchor="middle" x="1207.5" y="-628" font-family="Helvetica,sans-Serif" font-size="10.00"> </text>
<polyline fill="none" stroke="#bfbfbf" points="1138.5,-621 1276.5,-621 "/>
<text text-anchor="middle" x="1207.5" y="-609" font-family="Helvetica,sans-Serif" font-size="10.00"> </text>
</a>
</g>
</g>
<!-- Node11&#45;&gt;Node2 -->
<g id="edge10" class="edge">
<title>Node11&#45;&gt;Node2</title>
<path fill="none" stroke="#404040" d="M1180.91,-601.68C1166.8,-585.38 1148.48,-566.25 1129.5,-552 1026.51,-474.67 886.25,-422.19 794.33,-393.42"/>
<polygon fill="none" stroke="#404040" points="794.27,-393.41 787.36,-395.46 782.81,-389.86 789.72,-387.81 794.27,-393.41"/>
<text text-anchor="middle" x="1138" y="-515" font-family="Helvetica,sans-Serif" font-size="10.00"> +m_assertions</text>
</g>
<!-- Node12 -->
<g id="node12" class="node">
<title>Node12</title>
<g id="a_node12"><a xlink:title=" ">
<polygon fill="white" stroke="#bfbfbf" points="1295,-602 1295,-670 1408,-670 1408,-602 1295,-602"/>
<text text-anchor="start" x="1303" y="-658" font-family="Helvetica,sans-Serif" font-size="10.00">shared_ptr&lt; IConfig</text>
<text text-anchor="middle" x="1351.5" y="-647" font-family="Helvetica,sans-Serif" font-size="10.00"> const &gt;</text>
<polyline fill="none" stroke="#bfbfbf" points="1295,-640 1408,-640 "/>
<text text-anchor="middle" x="1351.5" y="-628" font-family="Helvetica,sans-Serif" font-size="10.00"> </text>
<polyline fill="none" stroke="#bfbfbf" points="1295,-621 1408,-621 "/>
<text text-anchor="middle" x="1351.5" y="-609" font-family="Helvetica,sans-Serif" font-size="10.00"> </text>
</a>
</g>
</g>
<!-- Node12&#45;&gt;Node2 -->
<g id="edge11" class="edge">
<title>Node12&#45;&gt;Node2</title>
<path fill="none" stroke="#404040" d="M1330.3,-601.72C1318.58,-585.23 1302.88,-565.93 1285.5,-552 1245.02,-519.56 1229.02,-519.37 1180.5,-501 1049.75,-451.5 892.85,-411.19 794.63,-388.13"/>
<polygon fill="none" stroke="#404040" points="794.34,-388.06 787.59,-390.6 782.65,-385.34 789.41,-382.8 794.34,-388.06"/>
<text text-anchor="middle" x="1287.5" y="-515" font-family="Helvetica,sans-Serif" font-size="10.00"> +m_config</text>
</g>
</g>
</svg>
