<?xml version="1.0" encoding="UTF-8" standalone="no"?>
<!DOCTYPE svg PUBLIC "-//W3C//DTD SVG 1.1//EN"
 "http://www.w3.org/Graphics/SVG/1.1/DTD/svg11.dtd">
<!-- Generated by graphviz version 2.43.0 (0)
 -->
<!-- Title: Catch::CumulativeReporterBase::testRunStarting Pages: 1 -->
<svg width="339pt" height="88pt"
 viewBox="0.00 0.00 339.00 88.00" xmlns="http://www.w3.org/2000/svg" xmlns:xlink="http://www.w3.org/1999/xlink">
<g id="graph0" class="graph" transform="scale(1 1) rotate(0) translate(4 84)">
<title>Catch::CumulativeReporterBase::testRunStarting</title>
<polygon fill="white" stroke="transparent" points="-4,4 -4,-84 335,-84 335,4 -4,4"/>
<!-- Node1 -->
<g id="node1" class="node">
<title>Node1</title>
<g id="a_node1"><a xlink:title=" ">
<polygon fill="#bfbfbf" stroke="black" points="182,-24.5 182,-54.5 331,-54.5 331,-24.5 182,-24.5"/>
<text text-anchor="start" x="190" y="-42.5" font-family="Helvetica,sans-Serif" font-size="10.00">Catch::CumulativeReporter</text>
<text text-anchor="middle" x="256.5" y="-31.5" font-family="Helvetica,sans-Serif" font-size="10.00">Base::testRunStarting</text>
</a>
</g>
</g>
<!-- Node2 -->
<g id="node2" class="node">
<title>Node2</title>
<g id="a_node2"><a xlink:href="class_catch_1_1_junit_reporter.html#a416da4586bd135749eea5adc8aa41280" target="_top" xlink:title=" ">
<polygon fill="white" stroke="black" points="16,-49.5 16,-79.5 130,-79.5 130,-49.5 16,-49.5"/>
<text text-anchor="start" x="24" y="-67.5" font-family="Helvetica,sans-Serif" font-size="10.00">Catch::JunitReporter</text>
<text text-anchor="middle" x="73" y="-56.5" font-family="Helvetica,sans-Serif" font-size="10.00">::testRunStarting</text>
</a>
</g>
</g>
<!-- Node1&#45;&gt;Node2 -->
<g id="edge1" class="edge">
<title>Node1&#45;&gt;Node2</title>
<path fill="none" stroke="midnightblue" d="M171.73,-51.04C157.62,-52.98 143.28,-54.96 130.1,-56.77"/>
<polygon fill="midnightblue" stroke="midnightblue" points="172.51,-54.46 181.94,-49.63 171.55,-47.53 172.51,-54.46"/>
</g>
<!-- Node3 -->
<g id="node3" class="node">
<title>Node3</title>
<g id="a_node3"><a xlink:href="struct_catch_1_1_sonar_qube_reporter.html#a58ed9dede9b58d4857567e5b9daf5837" target="_top" xlink:title=" ">
<polygon fill="white" stroke="black" points="0,-0.5 0,-30.5 146,-30.5 146,-0.5 0,-0.5"/>
<text text-anchor="start" x="8" y="-18.5" font-family="Helvetica,sans-Serif" font-size="10.00">Catch::SonarQubeReporter</text>
<text text-anchor="middle" x="73" y="-7.5" font-family="Helvetica,sans-Serif" font-size="10.00">::testRunStarting</text>
</a>
</g>
</g>
<!-- Node1&#45;&gt;Node3 -->
<g id="edge2" class="edge">
<title>Node1&#45;&gt;Node3</title>
<path fill="none" stroke="midnightblue" d="M171.91,-28.45C163.32,-27.31 154.65,-26.16 146.19,-25.05"/>
<polygon fill="midnightblue" stroke="midnightblue" points="171.57,-31.93 181.94,-29.77 172.48,-24.99 171.57,-31.93"/>
</g>
</g>
</svg>
