<?xml version="1.0" encoding="UTF-8" standalone="no"?>
<!DOCTYPE svg PUBLIC "-//W3C//DTD SVG 1.1//EN"
 "http://www.w3.org/Graphics/SVG/1.1/DTD/svg11.dtd">
<!-- Generated by graphviz version 2.43.0 (0)
 -->
<!-- Title: Catch::IReporterRegistry::getFactories Pages: 1 -->
<svg width="525pt" height="104pt"
 viewBox="0.00 0.00 525.00 104.00" xmlns="http://www.w3.org/2000/svg" xmlns:xlink="http://www.w3.org/1999/xlink">
<g id="graph0" class="graph" transform="scale(1 1) rotate(0) translate(4 100)">
<title>Catch::IReporterRegistry::getFactories</title>
<polygon fill="white" stroke="transparent" points="-4,4 -4,-100 521,-100 521,4 -4,4"/>
<!-- Node1 -->
<g id="node1" class="node">
<title>Node1</title>
<g id="a_node1"><a xlink:title=" ">
<polygon fill="#bfbfbf" stroke="black" points="381,-52 381,-82 517,-82 517,-52 381,-52"/>
<text text-anchor="start" x="389" y="-70" font-family="Helvetica,sans-Serif" font-size="10.00">Catch::IReporterRegistry</text>
<text text-anchor="middle" x="449" y="-59" font-family="Helvetica,sans-Serif" font-size="10.00">::getFactories</text>
</a>
</g>
</g>
<!-- Node2 -->
<g id="node2" class="node">
<title>Node2</title>
<g id="a_node2"><a xlink:href="namespace_catch.html#a372777bee6b529124e0cae35748bb79c" target="_top" xlink:title=" ">
<polygon fill="white" stroke="black" points="199.5,-76.5 199.5,-95.5 312.5,-95.5 312.5,-76.5 199.5,-76.5"/>
<text text-anchor="middle" x="256" y="-83.5" font-family="Helvetica,sans-Serif" font-size="10.00">Catch::listReporters</text>
</a>
</g>
</g>
<!-- Node1&#45;&gt;Node2 -->
<g id="edge1" class="edge">
<title>Node1&#45;&gt;Node2</title>
<path fill="none" stroke="midnightblue" d="M370.84,-74.68C351.33,-76.62 330.75,-78.66 312.54,-80.47"/>
<polygon fill="midnightblue" stroke="midnightblue" points="371.32,-78.14 380.93,-73.67 370.63,-71.18 371.32,-78.14"/>
</g>
<!-- Node4 -->
<g id="node4" class="node">
<title>Node4</title>
<g id="a_node4"><a xlink:href="namespace_catch.html#add4f86f38bf30c7b49daacfac665aaff" target="_top" xlink:title=" ">
<polygon fill="white" stroke="black" points="167,-38.5 167,-57.5 345,-57.5 345,-38.5 167,-38.5"/>
<text text-anchor="middle" x="256" y="-45.5" font-family="Helvetica,sans-Serif" font-size="10.00">Catch::makeCommandLineParser</text>
</a>
</g>
</g>
<!-- Node1&#45;&gt;Node4 -->
<g id="edge3" class="edge">
<title>Node1&#45;&gt;Node4</title>
<path fill="none" stroke="midnightblue" d="M370.73,-59.31C362.27,-58.47 353.61,-57.61 345.03,-56.76"/>
<polygon fill="midnightblue" stroke="midnightblue" points="370.63,-62.82 380.93,-60.33 371.32,-55.86 370.63,-62.82"/>
</g>
<!-- Node3 -->
<g id="node3" class="node">
<title>Node3</title>
<g id="a_node3"><a xlink:href="namespace_catch.html#a8267f077fd7ddf88bb182e8b9ead85d3" target="_top" xlink:title=" ">
<polygon fill="white" stroke="black" points="33,-76.5 33,-95.5 98,-95.5 98,-76.5 33,-76.5"/>
<text text-anchor="middle" x="65.5" y="-83.5" font-family="Helvetica,sans-Serif" font-size="10.00">Catch::list</text>
</a>
</g>
</g>
<!-- Node2&#45;&gt;Node3 -->
<g id="edge2" class="edge">
<title>Node2&#45;&gt;Node3</title>
<path fill="none" stroke="midnightblue" d="M189.19,-86C158.32,-86 122.96,-86 98.16,-86"/>
<polygon fill="midnightblue" stroke="midnightblue" points="189.46,-89.5 199.46,-86 189.46,-82.5 189.46,-89.5"/>
</g>
<!-- Node5 -->
<g id="node5" class="node">
<title>Node5</title>
<g id="a_node5"><a xlink:href="class_catch_1_1_session.html#a4564992e2b028770e38a1dcc6fff8b34" target="_top" xlink:title=" ">
<polygon fill="white" stroke="black" points="0,-38.5 0,-57.5 131,-57.5 131,-38.5 0,-38.5"/>
<text text-anchor="middle" x="65.5" y="-45.5" font-family="Helvetica,sans-Serif" font-size="10.00">Catch::Session::Session</text>
</a>
</g>
</g>
<!-- Node4&#45;&gt;Node5 -->
<g id="edge4" class="edge">
<title>Node4&#45;&gt;Node5</title>
<path fill="none" stroke="midnightblue" d="M156.7,-48C148.08,-48 139.51,-48 131.27,-48"/>
<polygon fill="midnightblue" stroke="midnightblue" points="156.82,-51.5 166.82,-48 156.82,-44.5 156.82,-51.5"/>
</g>
<!-- Node6 -->
<g id="node6" class="node">
<title>Node6</title>
<g id="a_node6"><a xlink:href="_cmd_line_8tests_8cpp.html#a44d5ced817b0c1ec9baafeab51cbe1fd" target="_top" xlink:title=" ">
<polygon fill="white" stroke="black" points="30,-0.5 30,-19.5 101,-19.5 101,-0.5 30,-0.5"/>
<text text-anchor="middle" x="65.5" y="-7.5" font-family="Helvetica,sans-Serif" font-size="10.00">TEST_CASE</text>
</a>
</g>
</g>
<!-- Node4&#45;&gt;Node6 -->
<g id="edge5" class="edge">
<title>Node4&#45;&gt;Node6</title>
<path fill="none" stroke="midnightblue" d="M197.48,-36.4C166.06,-30.07 128.18,-22.43 101.26,-17.01"/>
<polygon fill="midnightblue" stroke="midnightblue" points="196.94,-39.87 207.43,-38.41 198.32,-33 196.94,-39.87"/>
</g>
</g>
</svg>
