<?xml version="1.0" encoding="UTF-8" standalone="no"?>
<!DOCTYPE svg PUBLIC "-//W3C//DTD SVG 1.1//EN"
 "http://www.w3.org/Graphics/SVG/1.1/DTD/svg11.dtd">
<!-- Generated by graphviz version 2.43.0 (0)
 -->
<!-- Title: clara::detail::Parser::parse Pages: 1 -->
<svg width="493pt" height="39pt"
 viewBox="0.00 0.00 493.00 39.00" xmlns="http://www.w3.org/2000/svg" xmlns:xlink="http://www.w3.org/1999/xlink">
<g id="graph0" class="graph" transform="scale(1 1) rotate(0) translate(4 35)">
<title>clara::detail::Parser::parse</title>
<polygon fill="white" stroke="transparent" points="-4,4 -4,-35 489,-35 489,4 -4,4"/>
<!-- Node1 -->
<g id="node1" class="node">
<title>Node1</title>
<g id="a_node1"><a xlink:title=" ">
<polygon fill="#bfbfbf" stroke="black" points="0,-0.5 0,-30.5 110,-30.5 110,-0.5 0,-0.5"/>
<text text-anchor="start" x="8" y="-18.5" font-family="Helvetica,sans-Serif" font-size="10.00">clara::detail::Parser</text>
<text text-anchor="middle" x="55" y="-7.5" font-family="Helvetica,sans-Serif" font-size="10.00">::parse</text>
</a>
</g>
</g>
<!-- Node2 -->
<g id="node2" class="node">
<title>Node2</title>
<g id="a_node2"><a xlink:href="classclara_1_1detail_1_1_exe_name.html#a2e3db2597c8439f6296c987680f96955" target="_top" xlink:title=" ">
<polygon fill="white" stroke="black" points="146,-6 146,-25 294,-25 294,-6 146,-6"/>
<text text-anchor="middle" x="220" y="-13" font-family="Helvetica,sans-Serif" font-size="10.00">clara::detail::ExeName::set</text>
</a>
</g>
</g>
<!-- Node1&#45;&gt;Node2 -->
<g id="edge1" class="edge">
<title>Node1&#45;&gt;Node2</title>
<path fill="none" stroke="midnightblue" d="M110.28,-15.5C118.46,-15.5 127.07,-15.5 135.69,-15.5"/>
<polygon fill="midnightblue" stroke="midnightblue" points="135.81,-19 145.81,-15.5 135.81,-12 135.81,-19"/>
</g>
<!-- Node3 -->
<g id="node3" class="node">
<title>Node3</title>
<g id="a_node3"><a xlink:href="classclara_1_1detail_1_1_basic_result.html#acf718bf211bc86e2dcd27f247fce960e" target="_top" xlink:title=" ">
<polygon fill="white" stroke="black" points="330,-6 330,-25 485,-25 485,-6 330,-6"/>
<text text-anchor="middle" x="407.5" y="-13" font-family="Helvetica,sans-Serif" font-size="10.00">clara::detail::BasicResult::ok</text>
</a>
</g>
</g>
<!-- Node2&#45;&gt;Node3 -->
<g id="edge2" class="edge">
<title>Node2&#45;&gt;Node3</title>
<path fill="none" stroke="midnightblue" d="M294.05,-15.5C302.5,-15.5 311.18,-15.5 319.8,-15.5"/>
<polygon fill="midnightblue" stroke="midnightblue" points="319.86,-19 329.86,-15.5 319.86,-12 319.86,-19"/>
</g>
</g>
</svg>
