<?xml version="1.0" encoding="UTF-8" standalone="no"?>
<!DOCTYPE svg PUBLIC "-//W3C//DTD SVG 1.1//EN"
 "http://www.w3.org/Graphics/SVG/1.1/DTD/svg11.dtd">
<!-- Generated by graphviz version 2.43.0 (0)
 -->
<!-- Title: Catch::StreamingReporterBase::sectionEnded Pages: 1 -->
<svg width="318pt" height="88pt"
 viewBox="0.00 0.00 318.00 88.00" xmlns="http://www.w3.org/2000/svg" xmlns:xlink="http://www.w3.org/1999/xlink">
<g id="graph0" class="graph" transform="scale(1 1) rotate(0) translate(4 84)">
<title>Catch::StreamingReporterBase::sectionEnded</title>
<polygon fill="white" stroke="transparent" points="-4,4 -4,-84 314,-84 314,4 -4,4"/>
<!-- Node1 -->
<g id="node1" class="node">
<title>Node1</title>
<g id="a_node1"><a xlink:title=" ">
<polygon fill="#bfbfbf" stroke="black" points="167,-24.5 167,-54.5 310,-54.5 310,-24.5 167,-24.5"/>
<text text-anchor="start" x="175" y="-42.5" font-family="Helvetica,sans-Serif" font-size="10.00">Catch::StreamingReporter</text>
<text text-anchor="middle" x="238.5" y="-31.5" font-family="Helvetica,sans-Serif" font-size="10.00">Base::sectionEnded</text>
</a>
</g>
</g>
<!-- Node2 -->
<g id="node2" class="node">
<title>Node2</title>
<g id="a_node2"><a xlink:href="struct_catch_1_1_console_reporter.html#a7ba7b75fa4a7e88d71782a1800523d78" target="_top" xlink:title=" ">
<polygon fill="white" stroke="black" points="0,-49.5 0,-79.5 131,-79.5 131,-49.5 0,-49.5"/>
<text text-anchor="start" x="8" y="-67.5" font-family="Helvetica,sans-Serif" font-size="10.00">Catch::ConsoleReporter</text>
<text text-anchor="middle" x="65.5" y="-56.5" font-family="Helvetica,sans-Serif" font-size="10.00">::sectionEnded</text>
</a>
</g>
</g>
<!-- Node1&#45;&gt;Node2 -->
<g id="edge1" class="edge">
<title>Node1&#45;&gt;Node2</title>
<path fill="none" stroke="midnightblue" d="M156.87,-51.29C148.24,-52.55 139.53,-53.82 131.12,-55.05"/>
<polygon fill="midnightblue" stroke="midnightblue" points="157.57,-54.72 166.96,-49.81 156.56,-47.8 157.57,-54.72"/>
</g>
<!-- Node3 -->
<g id="node3" class="node">
<title>Node3</title>
<g id="a_node3"><a xlink:href="class_catch_1_1_xml_reporter.html#a73c809f067d58a7a6748cb13643448e5" target="_top" xlink:title=" ">
<polygon fill="white" stroke="black" points="9.5,-0.5 9.5,-30.5 121.5,-30.5 121.5,-0.5 9.5,-0.5"/>
<text text-anchor="start" x="17.5" y="-18.5" font-family="Helvetica,sans-Serif" font-size="10.00">Catch::XmlReporter</text>
<text text-anchor="middle" x="65.5" y="-7.5" font-family="Helvetica,sans-Serif" font-size="10.00">::sectionEnded</text>
</a>
</g>
</g>
<!-- Node1&#45;&gt;Node3 -->
<g id="edge2" class="edge">
<title>Node1&#45;&gt;Node3</title>
<path fill="none" stroke="midnightblue" d="M156.99,-28.2C145.05,-26.53 132.99,-24.83 121.73,-23.25"/>
<polygon fill="midnightblue" stroke="midnightblue" points="156.57,-31.68 166.96,-29.6 157.54,-24.74 156.57,-31.68"/>
</g>
</g>
</svg>
