<?xml version="1.0" encoding="UTF-8" standalone="no"?>
<!DOCTYPE svg PUBLIC "-//W3C//DTD SVG 1.1//EN"
 "http://www.w3.org/Graphics/SVG/1.1/DTD/svg11.dtd">
<!-- Generated by graphviz version 2.43.0 (0)
 -->
<!-- Title: Catch::Benchmark::Detail::bootstrap_analysis Pages: 1 -->
<svg width="327pt" height="353pt"
 viewBox="0.00 0.00 327.00 353.00" xmlns="http://www.w3.org/2000/svg" xmlns:xlink="http://www.w3.org/1999/xlink">
<g id="graph0" class="graph" transform="scale(1 1) rotate(0) translate(4 349)">
<title>Catch::Benchmark::Detail::bootstrap_analysis</title>
<polygon fill="white" stroke="transparent" points="-4,4 -4,-349 323,-349 323,4 -4,4"/>
<!-- Node1 -->
<g id="node1" class="node">
<title>Node1</title>
<g id="a_node1"><a xlink:title=" ">
<polygon fill="#bfbfbf" stroke="black" points="0,-0.5 0,-68.5 141,-68.5 141,-0.5 0,-0.5"/>
<text text-anchor="start" x="8" y="-56.5" font-family="Helvetica,sans-Serif" font-size="10.00">Catch::Benchmark::Detail</text>
<text text-anchor="middle" x="70.5" y="-45.5" font-family="Helvetica,sans-Serif" font-size="10.00">::bootstrap_analysis</text>
<polyline fill="none" stroke="black" points="0,-38.5 141,-38.5 "/>
<text text-anchor="middle" x="70.5" y="-26.5" font-family="Helvetica,sans-Serif" font-size="10.00"> </text>
<polyline fill="none" stroke="black" points="0,-19.5 141,-19.5 "/>
<text text-anchor="middle" x="70.5" y="-7.5" font-family="Helvetica,sans-Serif" font-size="10.00"> </text>
</a>
</g>
</g>
<!-- Node2 -->
<g id="node2" class="node">
<title>Node2</title>
<g id="a_node2"><a xlink:title=" ">
<polygon fill="white" stroke="#bfbfbf" points="45.5,-287.5 45.5,-344.5 95.5,-344.5 95.5,-287.5 45.5,-287.5"/>
<text text-anchor="middle" x="70.5" y="-332.5" font-family="Helvetica,sans-Serif" font-size="10.00">double</text>
<polyline fill="none" stroke="#bfbfbf" points="45.5,-325.5 95.5,-325.5 "/>
<text text-anchor="middle" x="70.5" y="-313.5" font-family="Helvetica,sans-Serif" font-size="10.00"> </text>
<polyline fill="none" stroke="#bfbfbf" points="45.5,-306.5 95.5,-306.5 "/>
<text text-anchor="middle" x="70.5" y="-294.5" font-family="Helvetica,sans-Serif" font-size="10.00"> </text>
</a>
</g>
</g>
<!-- Node2&#45;&gt;Node1 -->
<g id="edge1" class="edge">
<title>Node2&#45;&gt;Node1</title>
<path fill="none" stroke="#404040" d="M68.55,-287.5C67.11,-265.68 65.26,-234.41 64.5,-207 63.51,-171.46 63.34,-162.54 64.5,-127 64.99,-111.99 65.94,-95.61 66.93,-80.91"/>
<polygon fill="none" stroke="#404040" points="66.96,-80.48 63.4,-74.21 67.81,-68.51 71.38,-74.78 66.96,-80.48"/>
<text text-anchor="middle" x="110" y="-164.5" font-family="Helvetica,sans-Serif" font-size="10.00"> +outlier_variance</text>
</g>
<!-- Node3 -->
<g id="node3" class="node">
<title>Node3</title>
<g id="a_node3"><a xlink:href="struct_catch_1_1_benchmark_1_1_estimate.html" target="_top" xlink:title=" ">
<polygon fill="white" stroke="black" points="164,-127.5 164,-206.5 319,-206.5 319,-127.5 164,-127.5"/>
<text text-anchor="start" x="172" y="-194.5" font-family="Helvetica,sans-Serif" font-size="10.00">Catch::Benchmark::Estimate</text>
<text text-anchor="middle" x="241.5" y="-183.5" font-family="Helvetica,sans-Serif" font-size="10.00">&lt; double &gt;</text>
<polyline fill="none" stroke="black" points="164,-176.5 319,-176.5 "/>
<text text-anchor="middle" x="241.5" y="-164.5" font-family="Helvetica,sans-Serif" font-size="10.00"> </text>
<polyline fill="none" stroke="black" points="164,-157.5 319,-157.5 "/>
<text text-anchor="start" x="172" y="-145.5" font-family="Helvetica,sans-Serif" font-size="10.00">+ operator Estimate&lt;</text>
<text text-anchor="start" x="172" y="-134.5" font-family="Helvetica,sans-Serif" font-size="10.00"> Duration2 &gt;()</text>
</a>
</g>
</g>
<!-- Node2&#45;&gt;Node3 -->
<g id="edge3" class="edge">
<title>Node2&#45;&gt;Node3</title>
<path fill="none" stroke="#404040" d="M95.73,-293.31C119.73,-272.68 156.61,-240.98 187.27,-214.62"/>
<polygon fill="none" stroke="#404040" points="187.46,-214.45 189.4,-207.51 196.56,-206.63 194.62,-213.58 187.46,-214.45"/>
<text text-anchor="middle" x="224" y="-261" font-family="Helvetica,sans-Serif" font-size="10.00"> +confidence_interval</text>
<text text-anchor="middle" x="224" y="-250" font-family="Helvetica,sans-Serif" font-size="10.00">+point</text>
<text text-anchor="middle" x="224" y="-239" font-family="Helvetica,sans-Serif" font-size="10.00">+upper_bound</text>
<text text-anchor="middle" x="224" y="-228" font-family="Helvetica,sans-Serif" font-size="10.00">+lower_bound</text>
</g>
<!-- Node3&#45;&gt;Node1 -->
<g id="edge2" class="edge">
<title>Node3&#45;&gt;Node1</title>
<path fill="none" stroke="#404040" d="M190.66,-127.2C169.48,-111.04 144.9,-92.28 123.5,-75.95"/>
<polygon fill="none" stroke="#404040" points="123.46,-75.92 116.26,-75.46 113.92,-68.64 121.12,-69.1 123.46,-75.92"/>
<text text-anchor="middle" x="218.5" y="-101" font-family="Helvetica,sans-Serif" font-size="10.00"> +standard_deviation</text>
<text text-anchor="middle" x="218.5" y="-90" font-family="Helvetica,sans-Serif" font-size="10.00">+mean</text>
</g>
</g>
</svg>
