<?xml version="1.0" encoding="UTF-8" standalone="no"?>
<!DOCTYPE svg PUBLIC "-//W3C//DTD SVG 1.1//EN"
 "http://www.w3.org/Graphics/SVG/1.1/DTD/svg11.dtd">
<!-- Generated by graphviz version 2.43.0 (0)
 -->
<!-- Title: Catch::Matchers::StdString::ContainsMatcher Pages: 1 -->
<svg width="304pt" height="645pt"
 viewBox="0.00 0.00 303.50 645.00" xmlns="http://www.w3.org/2000/svg" xmlns:xlink="http://www.w3.org/1999/xlink">
<g id="graph0" class="graph" transform="scale(1 1) rotate(0) translate(4 641)">
<title>Catch::Matchers::StdString::ContainsMatcher</title>
<polygon fill="white" stroke="transparent" points="-4,4 -4,-641 299.5,-641 299.5,4 -4,4"/>
<!-- Node1 -->
<g id="node1" class="node">
<title>Node1</title>
<g id="a_node1"><a xlink:title=" ">
<polygon fill="#bfbfbf" stroke="black" points="79.5,-0.5 79.5,-101.5 225.5,-101.5 225.5,-0.5 79.5,-0.5"/>
<text text-anchor="start" x="87.5" y="-89.5" font-family="Helvetica,sans-Serif" font-size="10.00">Catch::Matchers::StdString</text>
<text text-anchor="middle" x="152.5" y="-78.5" font-family="Helvetica,sans-Serif" font-size="10.00">::ContainsMatcher</text>
<polyline fill="none" stroke="black" points="79.5,-71.5 225.5,-71.5 "/>
<text text-anchor="middle" x="152.5" y="-59.5" font-family="Helvetica,sans-Serif" font-size="10.00"> </text>
<polyline fill="none" stroke="black" points="79.5,-52.5 225.5,-52.5 "/>
<text text-anchor="start" x="87.5" y="-40.5" font-family="Helvetica,sans-Serif" font-size="10.00">+ ContainsMatcher()</text>
<text text-anchor="start" x="87.5" y="-29.5" font-family="Helvetica,sans-Serif" font-size="10.00">+ match()</text>
<text text-anchor="start" x="87.5" y="-18.5" font-family="Helvetica,sans-Serif" font-size="10.00">+ ContainsMatcher()</text>
<text text-anchor="start" x="87.5" y="-7.5" font-family="Helvetica,sans-Serif" font-size="10.00">+ match()</text>
</a>
</g>
</g>
<!-- Node2 -->
<g id="node2" class="node">
<title>Node2</title>
<g id="a_node2"><a xlink:href="struct_catch_1_1_matchers_1_1_std_string_1_1_string_matcher_base.html" target="_top" xlink:title=" ">
<polygon fill="white" stroke="black" points="79.5,-138.5 79.5,-250.5 225.5,-250.5 225.5,-138.5 79.5,-138.5"/>
<text text-anchor="start" x="87.5" y="-238.5" font-family="Helvetica,sans-Serif" font-size="10.00">Catch::Matchers::StdString</text>
<text text-anchor="middle" x="152.5" y="-227.5" font-family="Helvetica,sans-Serif" font-size="10.00">::StringMatcherBase</text>
<polyline fill="none" stroke="black" points="79.5,-220.5 225.5,-220.5 "/>
<text text-anchor="start" x="87.5" y="-208.5" font-family="Helvetica,sans-Serif" font-size="10.00">+ m_comparator</text>
<text text-anchor="start" x="87.5" y="-197.5" font-family="Helvetica,sans-Serif" font-size="10.00">+ m_operation</text>
<polyline fill="none" stroke="black" points="79.5,-190.5 225.5,-190.5 "/>
<text text-anchor="start" x="87.5" y="-178.5" font-family="Helvetica,sans-Serif" font-size="10.00">+ StringMatcherBase()</text>
<text text-anchor="start" x="87.5" y="-167.5" font-family="Helvetica,sans-Serif" font-size="10.00">+ describe()</text>
<text text-anchor="start" x="87.5" y="-156.5" font-family="Helvetica,sans-Serif" font-size="10.00">+ StringMatcherBase()</text>
<text text-anchor="start" x="87.5" y="-145.5" font-family="Helvetica,sans-Serif" font-size="10.00">+ describe()</text>
</a>
</g>
</g>
<!-- Node2&#45;&gt;Node1 -->
<g id="edge1" class="edge">
<title>Node2&#45;&gt;Node1</title>
<path fill="none" stroke="midnightblue" d="M152.5,-128.34C152.5,-119.38 152.5,-110.29 152.5,-101.66"/>
<polygon fill="none" stroke="midnightblue" points="149,-128.39 152.5,-138.39 156,-128.39 149,-128.39"/>
</g>
<!-- Node3 -->
<g id="node3" class="node">
<title>Node3</title>
<g id="a_node3"><a xlink:href="struct_catch_1_1_matchers_1_1_impl_1_1_matcher_base.html" target="_top" xlink:title=" ">
<polygon fill="white" stroke="black" points="73.5,-287.5 73.5,-410.5 231.5,-410.5 231.5,-287.5 73.5,-287.5"/>
<text text-anchor="start" x="81.5" y="-398.5" font-family="Helvetica,sans-Serif" font-size="10.00">Catch::Matchers::Impl</text>
<text text-anchor="middle" x="152.5" y="-387.5" font-family="Helvetica,sans-Serif" font-size="10.00">::MatcherBase&lt; std::string &gt;</text>
<polyline fill="none" stroke="black" points="73.5,-380.5 231.5,-380.5 "/>
<text text-anchor="middle" x="152.5" y="-368.5" font-family="Helvetica,sans-Serif" font-size="10.00"> </text>
<polyline fill="none" stroke="black" points="73.5,-361.5 231.5,-361.5 "/>
<text text-anchor="start" x="81.5" y="-349.5" font-family="Helvetica,sans-Serif" font-size="10.00">+ operator&amp;&amp;()</text>
<text text-anchor="start" x="81.5" y="-338.5" font-family="Helvetica,sans-Serif" font-size="10.00">+ operator||()</text>
<text text-anchor="start" x="81.5" y="-327.5" font-family="Helvetica,sans-Serif" font-size="10.00">+ operator!()</text>
<text text-anchor="start" x="81.5" y="-316.5" font-family="Helvetica,sans-Serif" font-size="10.00">+ operator&amp;&amp;()</text>
<text text-anchor="start" x="81.5" y="-305.5" font-family="Helvetica,sans-Serif" font-size="10.00">+ operator||()</text>
<text text-anchor="start" x="81.5" y="-294.5" font-family="Helvetica,sans-Serif" font-size="10.00">+ operator!()</text>
</a>
</g>
</g>
<!-- Node3&#45;&gt;Node2 -->
<g id="edge2" class="edge">
<title>Node3&#45;&gt;Node2</title>
<path fill="none" stroke="midnightblue" d="M152.5,-277.25C152.5,-268.29 152.5,-259.23 152.5,-250.56"/>
<polygon fill="none" stroke="midnightblue" points="149,-277.29 152.5,-287.29 156,-277.29 149,-277.29"/>
</g>
<!-- Node4 -->
<g id="node4" class="node">
<title>Node4</title>
<g id="a_node4"><a xlink:href="class_catch_1_1_matchers_1_1_impl_1_1_matcher_untyped_base.html" target="_top" xlink:title=" ">
<polygon fill="white" stroke="black" points="0,-447.5 0,-636.5 149,-636.5 149,-447.5 0,-447.5"/>
<text text-anchor="start" x="8" y="-624.5" font-family="Helvetica,sans-Serif" font-size="10.00">Catch::Matchers::Impl</text>
<text text-anchor="middle" x="74.5" y="-613.5" font-family="Helvetica,sans-Serif" font-size="10.00">::MatcherUntypedBase</text>
<polyline fill="none" stroke="black" points="0,-606.5 149,-606.5 "/>
<text text-anchor="start" x="8" y="-594.5" font-family="Helvetica,sans-Serif" font-size="10.00"># m_cachedToString</text>
<polyline fill="none" stroke="black" points="0,-587.5 149,-587.5 "/>
<text text-anchor="start" x="8" y="-575.5" font-family="Helvetica,sans-Serif" font-size="10.00">+ MatcherUntypedBase()</text>
<text text-anchor="start" x="8" y="-564.5" font-family="Helvetica,sans-Serif" font-size="10.00">+ MatcherUntypedBase()</text>
<text text-anchor="start" x="8" y="-553.5" font-family="Helvetica,sans-Serif" font-size="10.00">+ operator=()</text>
<text text-anchor="start" x="8" y="-542.5" font-family="Helvetica,sans-Serif" font-size="10.00">+ toString()</text>
<text text-anchor="start" x="8" y="-531.5" font-family="Helvetica,sans-Serif" font-size="10.00">+ MatcherUntypedBase()</text>
<text text-anchor="start" x="8" y="-520.5" font-family="Helvetica,sans-Serif" font-size="10.00">+ MatcherUntypedBase()</text>
<text text-anchor="start" x="8" y="-509.5" font-family="Helvetica,sans-Serif" font-size="10.00">+ operator=()</text>
<text text-anchor="start" x="8" y="-498.5" font-family="Helvetica,sans-Serif" font-size="10.00">+ toString()</text>
<text text-anchor="start" x="8" y="-487.5" font-family="Helvetica,sans-Serif" font-size="10.00"># ~MatcherUntypedBase()</text>
<text text-anchor="start" x="8" y="-476.5" font-family="Helvetica,sans-Serif" font-size="10.00"># describe()</text>
<text text-anchor="start" x="8" y="-465.5" font-family="Helvetica,sans-Serif" font-size="10.00"># ~MatcherUntypedBase()</text>
<text text-anchor="start" x="8" y="-454.5" font-family="Helvetica,sans-Serif" font-size="10.00"># describe()</text>
</a>
</g>
</g>
<!-- Node4&#45;&gt;Node3 -->
<g id="edge3" class="edge">
<title>Node4&#45;&gt;Node3</title>
<path fill="none" stroke="midnightblue" d="M116.52,-438.11C120.33,-428.77 124.1,-419.53 127.69,-410.75"/>
<polygon fill="none" stroke="midnightblue" points="113.24,-436.88 112.7,-447.46 119.72,-439.52 113.24,-436.88"/>
</g>
<!-- Node5 -->
<g id="node5" class="node">
<title>Node5</title>
<g id="a_node5"><a xlink:href="struct_catch_1_1_matchers_1_1_impl_1_1_matcher_method.html" target="_top" xlink:title=" ">
<polygon fill="white" stroke="black" points="167.5,-502.5 167.5,-581.5 295.5,-581.5 295.5,-502.5 167.5,-502.5"/>
<text text-anchor="start" x="175.5" y="-569.5" font-family="Helvetica,sans-Serif" font-size="10.00">Catch::Matchers::Impl</text>
<text text-anchor="middle" x="231.5" y="-558.5" font-family="Helvetica,sans-Serif" font-size="10.00">::MatcherMethod&lt; T &gt;</text>
<polyline fill="none" stroke="black" points="167.5,-551.5 295.5,-551.5 "/>
<text text-anchor="middle" x="231.5" y="-539.5" font-family="Helvetica,sans-Serif" font-size="10.00"> </text>
<polyline fill="none" stroke="black" points="167.5,-532.5 295.5,-532.5 "/>
<text text-anchor="start" x="175.5" y="-520.5" font-family="Helvetica,sans-Serif" font-size="10.00">+ match()</text>
<text text-anchor="start" x="175.5" y="-509.5" font-family="Helvetica,sans-Serif" font-size="10.00">+ match()</text>
</a>
</g>
</g>
<!-- Node5&#45;&gt;Node3 -->
<g id="edge4" class="edge">
<title>Node5&#45;&gt;Node3</title>
<path fill="none" stroke="midnightblue" d="M211.69,-493.09C201.37,-468.15 188.64,-437.39 177.64,-410.78"/>
<polygon fill="none" stroke="midnightblue" points="208.46,-494.45 215.51,-502.35 214.93,-491.77 208.46,-494.45"/>
</g>
</g>
</svg>
