<?xml version="1.0" encoding="UTF-8" standalone="no"?>
<!DOCTYPE svg PUBLIC "-//W3C//DTD SVG 1.1//EN"
 "http://www.w3.org/Graphics/SVG/1.1/DTD/svg11.dtd">
<!-- Generated by graphviz version 2.43.0 (0)
 -->
<!-- Title: clara::detail::BoundLambda&lt; L &gt; Pages: 1 -->
<svg width="223pt" height="449pt"
 viewBox="0.00 0.00 223.00 449.00" xmlns="http://www.w3.org/2000/svg" xmlns:xlink="http://www.w3.org/1999/xlink">
<g id="graph0" class="graph" transform="scale(1 1) rotate(0) translate(4 445)">
<title>clara::detail::BoundLambda&lt; L &gt;</title>
<polygon fill="white" stroke="transparent" points="-4,4 -4,-445 219,-445 219,4 -4,4"/>
<!-- Node1 -->
<g id="node1" class="node">
<title>Node1</title>
<g id="a_node1"><a xlink:title=" ">
<polygon fill="#bfbfbf" stroke="black" points="35,-0.5 35,-68.5 213,-68.5 213,-0.5 35,-0.5"/>
<text text-anchor="middle" x="124" y="-56.5" font-family="Helvetica,sans-Serif" font-size="10.00">clara::detail::BoundLambda&lt; L &gt;</text>
<polyline fill="none" stroke="black" points="35,-49.5 213,-49.5 "/>
<text text-anchor="middle" x="124" y="-37.5" font-family="Helvetica,sans-Serif" font-size="10.00"> </text>
<polyline fill="none" stroke="black" points="35,-30.5 213,-30.5 "/>
<text text-anchor="start" x="43" y="-18.5" font-family="Helvetica,sans-Serif" font-size="10.00">+ BoundLambda()</text>
<text text-anchor="start" x="43" y="-7.5" font-family="Helvetica,sans-Serif" font-size="10.00">+ setValue()</text>
</a>
</g>
</g>
<!-- Node2 -->
<g id="node2" class="node">
<title>Node2</title>
<g id="a_node2"><a xlink:href="structclara_1_1detail_1_1_bound_value_ref_base.html" target="_top" xlink:title=" ">
<polygon fill="white" stroke="black" points="4,-116.5 4,-184.5 142,-184.5 142,-116.5 4,-116.5"/>
<text text-anchor="start" x="12" y="-172.5" font-family="Helvetica,sans-Serif" font-size="10.00">clara::detail::BoundValue</text>
<text text-anchor="middle" x="73" y="-161.5" font-family="Helvetica,sans-Serif" font-size="10.00">RefBase</text>
<polyline fill="none" stroke="black" points="4,-154.5 142,-154.5 "/>
<text text-anchor="middle" x="73" y="-142.5" font-family="Helvetica,sans-Serif" font-size="10.00"> </text>
<polyline fill="none" stroke="black" points="4,-135.5 142,-135.5 "/>
<text text-anchor="start" x="12" y="-123.5" font-family="Helvetica,sans-Serif" font-size="10.00">+ setValue()</text>
</a>
</g>
</g>
<!-- Node2&#45;&gt;Node1 -->
<g id="edge1" class="edge">
<title>Node2&#45;&gt;Node1</title>
<path fill="none" stroke="midnightblue" d="M92.1,-106.8C97.75,-94.18 103.85,-80.55 109.18,-68.62"/>
<polygon fill="none" stroke="midnightblue" points="88.78,-105.66 87.89,-116.22 95.17,-108.52 88.78,-105.66"/>
</g>
<!-- Node3 -->
<g id="node3" class="node">
<title>Node3</title>
<g id="a_node3"><a xlink:href="structclara_1_1detail_1_1_bound_ref.html" target="_top" xlink:title=" ">
<polygon fill="white" stroke="black" points="9,-222.5 9,-301.5 137,-301.5 137,-222.5 9,-222.5"/>
<text text-anchor="middle" x="73" y="-289.5" font-family="Helvetica,sans-Serif" font-size="10.00">clara::detail::BoundRef</text>
<polyline fill="none" stroke="black" points="9,-282.5 137,-282.5 "/>
<text text-anchor="middle" x="73" y="-270.5" font-family="Helvetica,sans-Serif" font-size="10.00"> </text>
<polyline fill="none" stroke="black" points="9,-263.5 137,-263.5 "/>
<text text-anchor="start" x="17" y="-251.5" font-family="Helvetica,sans-Serif" font-size="10.00">+ ~BoundRef()</text>
<text text-anchor="start" x="17" y="-240.5" font-family="Helvetica,sans-Serif" font-size="10.00">+ isContainer()</text>
<text text-anchor="start" x="17" y="-229.5" font-family="Helvetica,sans-Serif" font-size="10.00">+ isFlag()</text>
</a>
</g>
</g>
<!-- Node3&#45;&gt;Node2 -->
<g id="edge2" class="edge">
<title>Node3&#45;&gt;Node2</title>
<path fill="none" stroke="midnightblue" d="M73,-212.38C73,-203.02 73,-193.41 73,-184.67"/>
<polygon fill="none" stroke="midnightblue" points="69.5,-212.39 73,-222.39 76.5,-212.39 69.5,-212.39"/>
</g>
<!-- Node4 -->
<g id="node4" class="node">
<title>Node4</title>
<g id="a_node4"><a xlink:href="structclara_1_1detail_1_1_non_copyable.html" target="_top" xlink:title=" ">
<polygon fill="white" stroke="black" points="0,-339.5 0,-440.5 146,-440.5 146,-339.5 0,-339.5"/>
<text text-anchor="middle" x="73" y="-428.5" font-family="Helvetica,sans-Serif" font-size="10.00">clara::detail::NonCopyable</text>
<polyline fill="none" stroke="black" points="0,-421.5 146,-421.5 "/>
<text text-anchor="middle" x="73" y="-409.5" font-family="Helvetica,sans-Serif" font-size="10.00"> </text>
<polyline fill="none" stroke="black" points="0,-402.5 146,-402.5 "/>
<text text-anchor="start" x="8" y="-390.5" font-family="Helvetica,sans-Serif" font-size="10.00">+ NonCopyable()</text>
<text text-anchor="start" x="8" y="-379.5" font-family="Helvetica,sans-Serif" font-size="10.00">+ NonCopyable()</text>
<text text-anchor="start" x="8" y="-368.5" font-family="Helvetica,sans-Serif" font-size="10.00">+ NonCopyable()</text>
<text text-anchor="start" x="8" y="-357.5" font-family="Helvetica,sans-Serif" font-size="10.00">+ operator=()</text>
<text text-anchor="start" x="8" y="-346.5" font-family="Helvetica,sans-Serif" font-size="10.00">+ operator=()</text>
</a>
</g>
</g>
<!-- Node4&#45;&gt;Node3 -->
<g id="edge3" class="edge">
<title>Node4&#45;&gt;Node3</title>
<path fill="none" stroke="midnightblue" d="M73,-329.11C73,-319.74 73,-310.28 73,-301.56"/>
<polygon fill="none" stroke="midnightblue" points="69.5,-329.2 73,-339.2 76.5,-329.2 69.5,-329.2"/>
</g>
<!-- Node5 -->
<g id="node5" class="node">
<title>Node5</title>
<g id="a_node5"><a xlink:title=" ">
<polygon fill="white" stroke="#bfbfbf" points="160.5,-122 160.5,-179 189.5,-179 189.5,-122 160.5,-122"/>
<text text-anchor="middle" x="175" y="-167" font-family="Helvetica,sans-Serif" font-size="10.00">L</text>
<polyline fill="none" stroke="#bfbfbf" points="160.5,-160 189.5,-160 "/>
<text text-anchor="middle" x="175" y="-148" font-family="Helvetica,sans-Serif" font-size="10.00"> </text>
<polyline fill="none" stroke="#bfbfbf" points="160.5,-141 189.5,-141 "/>
<text text-anchor="middle" x="175" y="-129" font-family="Helvetica,sans-Serif" font-size="10.00"> </text>
</a>
</g>
</g>
<!-- Node5&#45;&gt;Node1 -->
<g id="edge4" class="edge">
<title>Node5&#45;&gt;Node1</title>
<path fill="none" stroke="#404040" d="M162.65,-121.9C156.98,-109.22 150.11,-93.85 143.74,-79.62"/>
<polygon fill="none" stroke="#404040" points="143.67,-79.48 137.57,-75.63 138.77,-68.52 144.87,-72.36 143.67,-79.48"/>
<text text-anchor="middle" x="183" y="-90" font-family="Helvetica,sans-Serif" font-size="10.00"> +m_lambda</text>
</g>
</g>
</svg>
