<?xml version="1.0" encoding="UTF-8" standalone="no"?>
<!DOCTYPE svg PUBLIC "-//W3C//DTD SVG 1.1//EN"
 "http://www.w3.org/Graphics/SVG/1.1/DTD/svg11.dtd">
<!-- Generated by graphviz version 2.43.0 (0)
 -->
<!-- Title: Catch::StringMaker&lt; Catch::Detail::Approx &gt;::convert Pages: 1 -->
<svg width="431pt" height="50pt"
 viewBox="0.00 0.00 431.00 50.00" xmlns="http://www.w3.org/2000/svg" xmlns:xlink="http://www.w3.org/1999/xlink">
<g id="graph0" class="graph" transform="scale(1 1) rotate(0) translate(4 46)">
<title>Catch::StringMaker&lt; Catch::Detail::Approx &gt;::convert</title>
<polygon fill="white" stroke="transparent" points="-4,4 -4,-46 427,-46 427,4 -4,4"/>
<!-- Node1 -->
<g id="node1" class="node">
<title>Node1</title>
<g id="a_node1"><a xlink:title=" ">
<polygon fill="#bfbfbf" stroke="black" points="0,-0.5 0,-41.5 131,-41.5 131,-0.5 0,-0.5"/>
<text text-anchor="start" x="8" y="-29.5" font-family="Helvetica,sans-Serif" font-size="10.00">Catch::StringMaker</text>
<text text-anchor="start" x="8" y="-18.5" font-family="Helvetica,sans-Serif" font-size="10.00">&lt; Catch::Detail::Approx</text>
<text text-anchor="middle" x="65.5" y="-7.5" font-family="Helvetica,sans-Serif" font-size="10.00"> &gt;::convert</text>
</a>
</g>
</g>
<!-- Node2 -->
<g id="node2" class="node">
<title>Node2</title>
<g id="a_node2"><a xlink:href="namespace_catch_1_1_generators.html#a3b2efc97978cf37951b75394aae1a3fb" target="_top" xlink:title=" ">
<polygon fill="white" stroke="black" points="167,-6 167,-36 277,-36 277,-6 167,-6"/>
<text text-anchor="start" x="175" y="-24" font-family="Helvetica,sans-Serif" font-size="10.00">Catch::Generators::</text>
<text text-anchor="middle" x="222" y="-13" font-family="Helvetica,sans-Serif" font-size="10.00">value</text>
</a>
</g>
</g>
<!-- Node1&#45;&gt;Node2 -->
<g id="edge1" class="edge">
<title>Node1&#45;&gt;Node2</title>
<path fill="none" stroke="midnightblue" d="M131.13,-21C139.59,-21 148.27,-21 156.72,-21"/>
<polygon fill="midnightblue" stroke="midnightblue" points="156.91,-24.5 166.91,-21 156.91,-17.5 156.91,-24.5"/>
</g>
<!-- Node3 -->
<g id="node3" class="node">
<title>Node3</title>
<g id="a_node3"><a xlink:href="namespace_catch_1_1_generators_1_1pf.html#a015e8fcef2972da878a07023e40d46d8" target="_top" xlink:title=" ">
<polygon fill="white" stroke="black" points="313,-6 313,-36 423,-36 423,-6 313,-6"/>
<text text-anchor="start" x="321" y="-24" font-family="Helvetica,sans-Serif" font-size="10.00">Catch::Generators::</text>
<text text-anchor="middle" x="368" y="-13" font-family="Helvetica,sans-Serif" font-size="10.00">pf::make_unique</text>
</a>
</g>
</g>
<!-- Node2&#45;&gt;Node3 -->
<g id="edge2" class="edge">
<title>Node2&#45;&gt;Node3</title>
<path fill="none" stroke="midnightblue" d="M277.03,-21C285.31,-21 293.94,-21 302.42,-21"/>
<polygon fill="midnightblue" stroke="midnightblue" points="302.67,-24.5 312.67,-21 302.67,-17.5 302.67,-24.5"/>
</g>
</g>
</svg>
