<?xml version="1.0" encoding="UTF-8" standalone="no"?>
<!DOCTYPE svg PUBLIC "-//W3C//DTD SVG 1.1//EN"
 "http://www.w3.org/Graphics/SVG/1.1/DTD/svg11.dtd">
<!-- Generated by graphviz version 2.43.0 (0)
 -->
<!-- Title: matches Pages: 1 -->
<svg width="244pt" height="78pt"
 viewBox="0.00 0.00 244.00 77.50" xmlns="http://www.w3.org/2000/svg" xmlns:xlink="http://www.w3.org/1999/xlink">
<g id="graph0" class="graph" transform="scale(1 1) rotate(0) translate(4 73.5)">
<title>matches</title>
<polygon fill="white" stroke="transparent" points="-4,4 -4,-73.5 240,-73.5 240,4 -4,4"/>
<!-- Node1 -->
<g id="node1" class="node">
<title>Node1</title>
<g id="a_node1"><a xlink:title=" ">
<polygon fill="#bfbfbf" stroke="black" points="177,-22.5 177,-41.5 236,-41.5 236,-22.5 177,-22.5"/>
<text text-anchor="middle" x="206.5" y="-29.5" font-family="Helvetica,sans-Serif" font-size="10.00">matches</text>
</a>
</g>
</g>
<!-- Node2 -->
<g id="node2" class="node">
<title>Node2</title>
<g id="a_node2"><a xlink:href="class_catch_1_1_test_spec.html#a4967fc6b47d995e677b33fb06712ad6d" target="_top" xlink:title=" ">
<polygon fill="white" stroke="black" points="0,-39 0,-69 141,-69 141,-39 0,-39"/>
<text text-anchor="start" x="8" y="-57" font-family="Helvetica,sans-Serif" font-size="10.00">Catch::TestSpec::matches</text>
<text text-anchor="middle" x="70.5" y="-46" font-family="Helvetica,sans-Serif" font-size="10.00">ByFilter</text>
</a>
</g>
</g>
<!-- Node1&#45;&gt;Node2 -->
<g id="edge1" class="edge">
<title>Node1&#45;&gt;Node2</title>
<path fill="none" stroke="midnightblue" d="M166.65,-38.38C158.63,-39.7 149.96,-41.12 141.22,-42.55"/>
<polygon fill="midnightblue" stroke="midnightblue" points="167.45,-41.79 176.75,-36.72 166.32,-34.89 167.45,-41.79"/>
</g>
<!-- Node3 -->
<g id="node3" class="node">
<title>Node3</title>
<g id="a_node3"><a xlink:href="_cmd_line_8tests_8cpp.html#a84a77db0bea024d94553acc0c70bf7a2" target="_top" xlink:title=" ">
<polygon fill="white" stroke="black" points="35,-0.5 35,-19.5 106,-19.5 106,-0.5 35,-0.5"/>
<text text-anchor="middle" x="70.5" y="-7.5" font-family="Helvetica,sans-Serif" font-size="10.00">TEST_CASE</text>
</a>
</g>
</g>
<!-- Node1&#45;&gt;Node3 -->
<g id="edge2" class="edge">
<title>Node1&#45;&gt;Node3</title>
<path fill="none" stroke="midnightblue" d="M166.88,-25.66C147.79,-22.53 124.94,-18.77 106.39,-15.73"/>
<polygon fill="midnightblue" stroke="midnightblue" points="166.32,-29.11 176.75,-27.28 167.45,-22.21 166.32,-29.11"/>
</g>
</g>
</svg>
