<?xml version="1.0" encoding="UTF-8" standalone="no"?>
<!DOCTYPE svg PUBLIC "-//W3C//DTD SVG 1.1//EN"
 "http://www.w3.org/Graphics/SVG/1.1/DTD/svg11.dtd">
<!-- Generated by graphviz version 2.43.0 (0)
 -->
<!-- Title: language/Block.h Pages: 1 -->
<svg width="324pt" height="140pt"
 viewBox="0.00 0.00 324.00 140.00" xmlns="http://www.w3.org/2000/svg" xmlns:xlink="http://www.w3.org/1999/xlink">
<g id="graph0" class="graph" transform="scale(1 1) rotate(0) translate(4 136)">
<title>language/Block.h</title>
<polygon fill="white" stroke="transparent" points="-4,4 -4,-136 320,-136 320,4 -4,4"/>
<!-- Node1 -->
<g id="node1" class="node">
<title>Node1</title>
<g id="a_node1"><a xlink:title=" ">
<polygon fill="#bfbfbf" stroke="black" points="121.5,-112.5 121.5,-131.5 222.5,-131.5 222.5,-112.5 121.5,-112.5"/>
<text text-anchor="middle" x="172" y="-119.5" font-family="Helvetica,sans-Serif" font-size="10.00">language/Block.h</text>
</a>
</g>
</g>
<!-- Node2 -->
<g id="node2" class="node">
<title>Node2</title>
<g id="a_node2"><a xlink:title=" ">
<polygon fill="white" stroke="#bfbfbf" points="0,-0.5 0,-19.5 56,-19.5 56,-0.5 0,-0.5"/>
<text text-anchor="middle" x="28" y="-7.5" font-family="Helvetica,sans-Serif" font-size="10.00">optional</text>
</a>
</g>
</g>
<!-- Node1&#45;&gt;Node2 -->
<g id="edge1" class="edge">
<title>Node1&#45;&gt;Node2</title>
<path fill="none" stroke="midnightblue" d="M121.27,-113.84C95.81,-107.77 66.36,-96.58 47,-76 35.3,-63.57 30.76,-44.33 29.02,-30"/>
<polygon fill="midnightblue" stroke="midnightblue" points="32.49,-29.46 28.15,-19.79 25.52,-30.06 32.49,-29.46"/>
</g>
<!-- Node3 -->
<g id="node3" class="node">
<title>Node3</title>
<g id="a_node3"><a xlink:title=" ">
<polygon fill="white" stroke="#bfbfbf" points="175,-0.5 175,-19.5 219,-19.5 219,-0.5 175,-0.5"/>
<text text-anchor="middle" x="197" y="-7.5" font-family="Helvetica,sans-Serif" font-size="10.00">string</text>
</a>
</g>
</g>
<!-- Node1&#45;&gt;Node3 -->
<g id="edge2" class="edge">
<title>Node1&#45;&gt;Node3</title>
<path fill="none" stroke="midnightblue" d="M181.02,-112.34C189.07,-103.93 200.3,-90.36 205,-76 209.97,-60.8 207.07,-42.69 203.44,-29.45"/>
<polygon fill="midnightblue" stroke="midnightblue" points="206.7,-28.14 200.38,-19.64 200.02,-30.23 206.7,-28.14"/>
</g>
<!-- Node4 -->
<g id="node4" class="node">
<title>Node4</title>
<g id="a_node4"><a xlink:title=" ">
<polygon fill="white" stroke="#bfbfbf" points="148.5,-56.5 148.5,-75.5 195.5,-75.5 195.5,-56.5 148.5,-56.5"/>
<text text-anchor="middle" x="172" y="-63.5" font-family="Helvetica,sans-Serif" font-size="10.00">vector</text>
</a>
</g>
</g>
<!-- Node1&#45;&gt;Node4 -->
<g id="edge3" class="edge">
<title>Node1&#45;&gt;Node4</title>
<path fill="none" stroke="midnightblue" d="M172,-112.08C172,-105.01 172,-94.86 172,-85.99"/>
<polygon fill="midnightblue" stroke="midnightblue" points="175.5,-85.75 172,-75.75 168.5,-85.75 175.5,-85.75"/>
</g>
<!-- Node5 -->
<g id="node5" class="node">
<title>Node5</title>
<g id="a_node5"><a xlink:href="_i_statment_8h.html" target="_top" xlink:title=" ">
<polygon fill="white" stroke="black" points="56,-56.5 56,-75.5 130,-75.5 130,-56.5 56,-56.5"/>
<text text-anchor="middle" x="93" y="-63.5" font-family="Helvetica,sans-Serif" font-size="10.00">IStatment.h</text>
</a>
</g>
</g>
<!-- Node1&#45;&gt;Node5 -->
<g id="edge4" class="edge">
<title>Node1&#45;&gt;Node5</title>
<path fill="none" stroke="midnightblue" d="M159.31,-112.32C147.1,-103.98 128.42,-91.21 114,-81.35"/>
<polygon fill="midnightblue" stroke="midnightblue" points="115.89,-78.41 105.66,-75.65 111.94,-84.19 115.89,-78.41"/>
</g>
<!-- Node7 -->
<g id="node7" class="node">
<title>Node7</title>
<g id="a_node7"><a xlink:title=" ">
<polygon fill="white" stroke="#bfbfbf" points="252,-56.5 252,-75.5 316,-75.5 316,-56.5 252,-56.5"/>
<text text-anchor="middle" x="284" y="-63.5" font-family="Helvetica,sans-Serif" font-size="10.00">algorithm</text>
</a>
</g>
</g>
<!-- Node1&#45;&gt;Node7 -->
<g id="edge8" class="edge">
<title>Node1&#45;&gt;Node7</title>
<path fill="none" stroke="midnightblue" d="M189.99,-112.32C208.04,-103.62 236.05,-90.12 256.8,-80.11"/>
<polygon fill="midnightblue" stroke="midnightblue" points="258.56,-83.15 266.05,-75.65 255.52,-76.84 258.56,-83.15"/>
</g>
<!-- Node5&#45;&gt;Node2 -->
<g id="edge5" class="edge">
<title>Node5&#45;&gt;Node2</title>
<path fill="none" stroke="midnightblue" d="M82.56,-56.32C72.85,-48.26 58.18,-36.08 46.5,-26.37"/>
<polygon fill="midnightblue" stroke="midnightblue" points="48.56,-23.53 38.63,-19.83 44.09,-28.92 48.56,-23.53"/>
</g>
<!-- Node5&#45;&gt;Node3 -->
<g id="edge6" class="edge">
<title>Node5&#45;&gt;Node3</title>
<path fill="none" stroke="midnightblue" d="M109.71,-56.32C126.31,-47.7 152,-34.36 171.22,-24.39"/>
<polygon fill="midnightblue" stroke="midnightblue" points="173.07,-27.37 180.33,-19.65 169.84,-21.16 173.07,-27.37"/>
</g>
<!-- Node6 -->
<g id="node6" class="node">
<title>Node6</title>
<g id="a_node6"><a xlink:href="_i_value_8h.html" target="_top" xlink:title=" ">
<polygon fill="white" stroke="black" points="74,-0.5 74,-19.5 130,-19.5 130,-0.5 74,-0.5"/>
<text text-anchor="middle" x="102" y="-7.5" font-family="Helvetica,sans-Serif" font-size="10.00">IValue.h</text>
</a>
</g>
</g>
<!-- Node5&#45;&gt;Node6 -->
<g id="edge7" class="edge">
<title>Node5&#45;&gt;Node6</title>
<path fill="none" stroke="midnightblue" d="M94.49,-56.08C95.68,-48.93 97.39,-38.64 98.88,-29.69"/>
<polygon fill="midnightblue" stroke="midnightblue" points="102.35,-30.19 100.54,-19.75 95.45,-29.04 102.35,-30.19"/>
</g>
</g>
</svg>
