<?xml version="1.0" encoding="UTF-8" standalone="no"?>
<!DOCTYPE svg PUBLIC "-//W3C//DTD SVG 1.1//EN"
 "http://www.w3.org/Graphics/SVG/1.1/DTD/svg11.dtd">
<!-- Generated by graphviz version 2.43.0 (0)
 -->
<!-- Title: language/Expr.h Pages: 1 -->
<svg width="1747pt" height="196pt"
 viewBox="0.00 0.00 1746.50 196.00" xmlns="http://www.w3.org/2000/svg" xmlns:xlink="http://www.w3.org/1999/xlink">
<g id="graph0" class="graph" transform="scale(1 1) rotate(0) translate(4 192)">
<title>language/Expr.h</title>
<polygon fill="white" stroke="transparent" points="-4,4 -4,-192 1742.5,-192 1742.5,4 -4,4"/>
<!-- Node1 -->
<g id="node1" class="node">
<title>Node1</title>
<g id="a_node1"><a xlink:title=" ">
<polygon fill="#bfbfbf" stroke="black" points="1359,-168.5 1359,-187.5 1454,-187.5 1454,-168.5 1359,-168.5"/>
<text text-anchor="middle" x="1406.5" y="-175.5" font-family="Helvetica,sans-Serif" font-size="10.00">language/Expr.h</text>
</a>
</g>
</g>
<!-- Node2 -->
<g id="node2" class="node">
<title>Node2</title>
<g id="a_node2"><a xlink:href="_bind_def_8h.html" target="_top" xlink:title=" ">
<polygon fill="white" stroke="black" points="1226.5,-112.5 1226.5,-131.5 1338.5,-131.5 1338.5,-112.5 1226.5,-112.5"/>
<text text-anchor="middle" x="1282.5" y="-119.5" font-family="Helvetica,sans-Serif" font-size="10.00">language/BindDef.h</text>
</a>
</g>
</g>
<!-- Node1&#45;&gt;Node2 -->
<g id="edge1" class="edge">
<title>Node1&#45;&gt;Node2</title>
<path fill="none" stroke="midnightblue" d="M1377.49,-164.37C1354.27,-154.26 1322.34,-140.35 1302.06,-131.52"/>
<polygon fill="midnightblue" stroke="midnightblue" points="1376.29,-167.66 1386.85,-168.44 1379.08,-161.24 1376.29,-167.66"/>
</g>
<!-- Node8 -->
<g id="node8" class="node">
<title>Node8</title>
<g id="a_node8"><a xlink:href="_expr_8cc.html" target="_top" xlink:title=" ">
<polygon fill="white" stroke="black" points="0,-0.5 0,-19.5 99,-19.5 99,-0.5 0,-0.5"/>
<text text-anchor="middle" x="49.5" y="-7.5" font-family="Helvetica,sans-Serif" font-size="10.00">language/Expr.cc</text>
</a>
</g>
</g>
<!-- Node1&#45;&gt;Node8 -->
<g id="edge17" class="edge">
<title>Node1&#45;&gt;Node8</title>
<path fill="none" stroke="midnightblue" d="M1348.83,-170.67C1166.61,-150.53 586.96,-85.41 108.5,-20 105.42,-19.58 102.25,-19.13 99.06,-18.67"/>
<polygon fill="midnightblue" stroke="midnightblue" points="1348.67,-174.17 1358.99,-171.79 1349.43,-167.22 1348.67,-174.17"/>
</g>
<!-- Node15 -->
<g id="node15" class="node">
<title>Node15</title>
<g id="a_node15"><a xlink:href="_test_bind_8cc.html" target="_top" xlink:title=" ">
<polygon fill="white" stroke="black" points="1336,-0.5 1336,-19.5 1477,-19.5 1477,-0.5 1336,-0.5"/>
<text text-anchor="middle" x="1406.5" y="-7.5" font-family="Helvetica,sans-Serif" font-size="10.00">language/test/TestBind.cc</text>
</a>
</g>
</g>
<!-- Node1&#45;&gt;Node15 -->
<g id="edge18" class="edge">
<title>Node1&#45;&gt;Node15</title>
<path fill="none" stroke="midnightblue" d="M1406.5,-157.93C1406.5,-121.92 1406.5,-45.23 1406.5,-19.57"/>
<polygon fill="midnightblue" stroke="midnightblue" points="1403,-158.08 1406.5,-168.08 1410,-158.08 1403,-158.08"/>
</g>
<!-- Node16 -->
<g id="node16" class="node">
<title>Node16</title>
<g id="a_node16"><a xlink:href="_test_block_8cc.html" target="_top" xlink:title=" ">
<polygon fill="white" stroke="black" points="1434.5,-112.5 1434.5,-131.5 1580.5,-131.5 1580.5,-112.5 1434.5,-112.5"/>
<text text-anchor="middle" x="1507.5" y="-119.5" font-family="Helvetica,sans-Serif" font-size="10.00">language/test/TestBlock.cc</text>
</a>
</g>
</g>
<!-- Node1&#45;&gt;Node16 -->
<g id="edge19" class="edge">
<title>Node1&#45;&gt;Node16</title>
<path fill="none" stroke="midnightblue" d="M1431.58,-163.59C1450.26,-153.61 1475.2,-140.27 1491.31,-131.65"/>
<polygon fill="midnightblue" stroke="midnightblue" points="1429.9,-160.52 1422.73,-168.32 1433.2,-166.7 1429.9,-160.52"/>
</g>
<!-- Node17 -->
<g id="node17" class="node">
<title>Node17</title>
<g id="a_node17"><a xlink:href="_test_expr_8cc.html" target="_top" xlink:title=" ">
<polygon fill="white" stroke="black" points="1598.5,-112.5 1598.5,-131.5 1738.5,-131.5 1738.5,-112.5 1598.5,-112.5"/>
<text text-anchor="middle" x="1668.5" y="-119.5" font-family="Helvetica,sans-Serif" font-size="10.00">language/test/TestExpr.cc</text>
</a>
</g>
</g>
<!-- Node1&#45;&gt;Node17 -->
<g id="edge20" class="edge">
<title>Node1&#45;&gt;Node17</title>
<path fill="none" stroke="midnightblue" d="M1457.88,-166.41C1507.4,-156.2 1581.36,-140.96 1627.18,-131.52"/>
<polygon fill="midnightblue" stroke="midnightblue" points="1457.1,-163 1448.01,-168.44 1458.52,-169.85 1457.1,-163"/>
</g>
<!-- Node3 -->
<g id="node3" class="node">
<title>Node3</title>
<g id="a_node3"><a xlink:href="_bind_def_8cc.html" target="_top" xlink:title=" ">
<polygon fill="white" stroke="black" points="1224.5,-56.5 1224.5,-75.5 1340.5,-75.5 1340.5,-56.5 1224.5,-56.5"/>
<text text-anchor="middle" x="1282.5" y="-63.5" font-family="Helvetica,sans-Serif" font-size="10.00">language/BindDef.cc</text>
</a>
</g>
</g>
<!-- Node2&#45;&gt;Node3 -->
<g id="edge2" class="edge">
<title>Node2&#45;&gt;Node3</title>
<path fill="none" stroke="midnightblue" d="M1282.5,-101.8C1282.5,-92.91 1282.5,-82.78 1282.5,-75.75"/>
<polygon fill="midnightblue" stroke="midnightblue" points="1279,-102.08 1282.5,-112.08 1286,-102.08 1279,-102.08"/>
</g>
<!-- Node4 -->
<g id="node4" class="node">
<title>Node4</title>
<g id="a_node4"><a xlink:href="_null_8h.html" target="_top" xlink:title=" ">
<polygon fill="white" stroke="black" points="740,-56.5 740,-75.5 833,-75.5 833,-56.5 740,-56.5"/>
<text text-anchor="middle" x="786.5" y="-63.5" font-family="Helvetica,sans-Serif" font-size="10.00">language/Null.h</text>
</a>
</g>
</g>
<!-- Node2&#45;&gt;Node4 -->
<g id="edge3" class="edge">
<title>Node2&#45;&gt;Node4</title>
<path fill="none" stroke="midnightblue" d="M1215.91,-113.75C1113.99,-102.65 921.84,-81.73 833.32,-72.1"/>
<polygon fill="midnightblue" stroke="midnightblue" points="1215.77,-117.26 1226.09,-114.86 1216.52,-110.3 1215.77,-117.26"/>
</g>
<!-- Node11 -->
<g id="node11" class="node">
<title>Node11</title>
<g id="a_node11"><a xlink:href="_i_statment_8cc.html" target="_top" xlink:title=" ">
<polygon fill="white" stroke="black" points="1191.5,-0.5 1191.5,-19.5 1317.5,-19.5 1317.5,-0.5 1191.5,-0.5"/>
<text text-anchor="middle" x="1254.5" y="-7.5" font-family="Helvetica,sans-Serif" font-size="10.00">language/IStatment.cc</text>
</a>
</g>
</g>
<!-- Node2&#45;&gt;Node11 -->
<g id="edge15" class="edge">
<title>Node2&#45;&gt;Node11</title>
<path fill="none" stroke="midnightblue" d="M1250.66,-107.94C1237.26,-100.67 1223.05,-90.17 1215.5,-76 1204.48,-55.33 1227.64,-31.98 1242.78,-19.67"/>
<polygon fill="midnightblue" stroke="midnightblue" points="1249.2,-111.13 1259.71,-112.47 1252.33,-104.87 1249.2,-111.13"/>
</g>
<!-- Node2&#45;&gt;Node15 -->
<g id="edge16" class="edge">
<title>Node2&#45;&gt;Node15</title>
<path fill="none" stroke="midnightblue" d="M1306.29,-107.14C1319.61,-98.87 1336.16,-87.73 1349.5,-76 1370.02,-57.96 1390.17,-32.72 1400.11,-19.63"/>
<polygon fill="midnightblue" stroke="midnightblue" points="1304.4,-104.19 1297.67,-112.37 1308.03,-110.17 1304.4,-104.19"/>
</g>
<!-- Node5 -->
<g id="node5" class="node">
<title>Node5</title>
<g id="a_node5"><a xlink:href="_binding_usage_8cc.html" target="_top" xlink:title=" ">
<polygon fill="white" stroke="black" points="359.5,-0.5 359.5,-19.5 505.5,-19.5 505.5,-0.5 359.5,-0.5"/>
<text text-anchor="middle" x="432.5" y="-7.5" font-family="Helvetica,sans-Serif" font-size="10.00">language/BindingUsage.cc</text>
</a>
</g>
</g>
<!-- Node4&#45;&gt;Node5 -->
<g id="edge4" class="edge">
<title>Node4&#45;&gt;Node5</title>
<path fill="none" stroke="midnightblue" d="M729.58,-56.32C663.2,-46.19 554.18,-29.56 488.29,-19.51"/>
<polygon fill="midnightblue" stroke="midnightblue" points="729.44,-59.84 739.86,-57.88 730.5,-52.92 729.44,-59.84"/>
</g>
<!-- Node6 -->
<g id="node6" class="node">
<title>Node6</title>
<g id="a_node6"><a xlink:href="_block_8cc.html" target="_top" xlink:title=" ">
<polygon fill="white" stroke="black" points="524,-0.5 524,-19.5 629,-19.5 629,-0.5 524,-0.5"/>
<text text-anchor="middle" x="576.5" y="-7.5" font-family="Helvetica,sans-Serif" font-size="10.00">language/Block.cc</text>
</a>
</g>
</g>
<!-- Node4&#45;&gt;Node6 -->
<g id="edge5" class="edge">
<title>Node4&#45;&gt;Node6</title>
<path fill="none" stroke="midnightblue" d="M743.31,-53.89C703.65,-43.7 645.73,-28.8 609.62,-19.52"/>
<polygon fill="midnightblue" stroke="midnightblue" points="742.67,-57.34 753.22,-56.44 744.41,-50.56 742.67,-57.34"/>
</g>
<!-- Node7 -->
<g id="node7" class="node">
<title>Node7</title>
<g id="a_node7"><a xlink:href="_conditional_8cc.html" target="_top" xlink:title=" ">
<polygon fill="white" stroke="black" points="647.5,-0.5 647.5,-19.5 781.5,-19.5 781.5,-0.5 647.5,-0.5"/>
<text text-anchor="middle" x="714.5" y="-7.5" font-family="Helvetica,sans-Serif" font-size="10.00">language/Conditional.cc</text>
</a>
</g>
</g>
<!-- Node4&#45;&gt;Node7 -->
<g id="edge6" class="edge">
<title>Node4&#45;&gt;Node7</title>
<path fill="none" stroke="midnightblue" d="M766.63,-50.1C753.68,-40.38 737.2,-28.03 726.28,-19.83"/>
<polygon fill="midnightblue" stroke="midnightblue" points="764.83,-53.12 774.93,-56.32 769.03,-47.52 764.83,-53.12"/>
</g>
<!-- Node4&#45;&gt;Node8 -->
<g id="edge7" class="edge">
<title>Node4&#45;&gt;Node8</title>
<path fill="none" stroke="midnightblue" d="M729.82,-62.87C613.22,-58.13 338.16,-45.09 108.5,-20 105.41,-19.66 102.23,-19.28 99.03,-18.87"/>
<polygon fill="midnightblue" stroke="midnightblue" points="729.8,-66.37 739.94,-63.28 730.09,-59.38 729.8,-66.37"/>
</g>
<!-- Node9 -->
<g id="node9" class="node">
<title>Node9</title>
<g id="a_node9"><a xlink:href="_func_call_8cc.html" target="_top" xlink:title=" ">
<polygon fill="white" stroke="black" points="800,-0.5 800,-19.5 919,-19.5 919,-0.5 800,-0.5"/>
<text text-anchor="middle" x="859.5" y="-7.5" font-family="Helvetica,sans-Serif" font-size="10.00">language/FuncCall.cc</text>
</a>
</g>
</g>
<!-- Node4&#45;&gt;Node9 -->
<g id="edge8" class="edge">
<title>Node4&#45;&gt;Node9</title>
<path fill="none" stroke="midnightblue" d="M806.64,-50.1C819.78,-40.38 836.48,-28.03 847.56,-19.83"/>
<polygon fill="midnightblue" stroke="midnightblue" points="804.19,-47.56 798.23,-56.32 808.35,-53.19 804.19,-47.56"/>
</g>
<!-- Node10 -->
<g id="node10" class="node">
<title>Node10</title>
<g id="a_node10"><a xlink:href="_func_def_8cc.html" target="_top" xlink:title=" ">
<polygon fill="white" stroke="black" points="937,-0.5 937,-19.5 1054,-19.5 1054,-0.5 937,-0.5"/>
<text text-anchor="middle" x="995.5" y="-7.5" font-family="Helvetica,sans-Serif" font-size="10.00">language/FuncDef.cc</text>
</a>
</g>
</g>
<!-- Node4&#45;&gt;Node10 -->
<g id="edge9" class="edge">
<title>Node4&#45;&gt;Node10</title>
<path fill="none" stroke="midnightblue" d="M829.48,-53.89C868.95,-43.7 926.6,-28.8 962.54,-19.52"/>
<polygon fill="midnightblue" stroke="midnightblue" points="828.42,-50.55 819.62,-56.44 830.17,-57.33 828.42,-50.55"/>
</g>
<!-- Node4&#45;&gt;Node11 -->
<g id="edge10" class="edge">
<title>Node4&#45;&gt;Node11</title>
<path fill="none" stroke="midnightblue" d="M843.43,-58.68C920.22,-50.12 1061.22,-34.27 1181.5,-20 1184.67,-19.62 1187.92,-19.24 1191.2,-18.84"/>
<polygon fill="midnightblue" stroke="midnightblue" points="842.58,-55.25 833.03,-59.84 843.36,-62.21 842.58,-55.25"/>
</g>
<!-- Node12 -->
<g id="node12" class="node">
<title>Node12</title>
<g id="a_node12"><a xlink:href="_loop_8cc.html" target="_top" xlink:title=" ">
<polygon fill="white" stroke="black" points="1072,-0.5 1072,-19.5 1173,-19.5 1173,-0.5 1072,-0.5"/>
<text text-anchor="middle" x="1122.5" y="-7.5" font-family="Helvetica,sans-Serif" font-size="10.00">language/Loop.cc</text>
</a>
</g>
</g>
<!-- Node4&#45;&gt;Node12 -->
<g id="edge11" class="edge">
<title>Node4&#45;&gt;Node12</title>
<path fill="none" stroke="midnightblue" d="M843.14,-55.9C907.13,-45.61 1010.35,-29.02 1071.79,-19.15"/>
<polygon fill="midnightblue" stroke="midnightblue" points="842.54,-52.45 833.22,-57.49 843.65,-59.36 842.54,-52.45"/>
</g>
<!-- Node13 -->
<g id="node13" class="node">
<title>Node13</title>
<g id="a_node13"><a xlink:href="_null_8cc.html" target="_top" xlink:title=" ">
<polygon fill="white" stroke="black" points="117.5,-0.5 117.5,-19.5 215.5,-19.5 215.5,-0.5 117.5,-0.5"/>
<text text-anchor="middle" x="166.5" y="-7.5" font-family="Helvetica,sans-Serif" font-size="10.00">language/Null.cc</text>
</a>
</g>
</g>
<!-- Node4&#45;&gt;Node13 -->
<g id="edge12" class="edge">
<title>Node4&#45;&gt;Node13</title>
<path fill="none" stroke="midnightblue" d="M729.71,-61.85C628.14,-55.9 408.71,-41.64 224.5,-20 221.57,-19.66 218.55,-19.27 215.51,-18.87"/>
<polygon fill="midnightblue" stroke="midnightblue" points="729.57,-65.35 739.76,-62.43 729.98,-58.36 729.57,-65.35"/>
</g>
<!-- Node14 -->
<g id="node14" class="node">
<title>Node14</title>
<g id="a_node14"><a xlink:href="parser_8cc.html" target="_top" xlink:title=" ">
<polygon fill="white" stroke="black" points="233.5,-0.5 233.5,-19.5 341.5,-19.5 341.5,-0.5 233.5,-0.5"/>
<text text-anchor="middle" x="287.5" y="-7.5" font-family="Helvetica,sans-Serif" font-size="10.00">language/parser.cc</text>
</a>
</g>
</g>
<!-- Node4&#45;&gt;Node14 -->
<g id="edge13" class="edge">
<title>Node4&#45;&gt;Node14</title>
<path fill="none" stroke="midnightblue" d="M729.97,-59.88C646.76,-52.17 486.44,-36.72 350.5,-20 347.65,-19.65 344.73,-19.28 341.78,-18.89"/>
<polygon fill="midnightblue" stroke="midnightblue" points="729.69,-63.37 739.97,-60.8 730.34,-56.4 729.69,-63.37"/>
</g>
<!-- Node4&#45;&gt;Node15 -->
<g id="edge14" class="edge">
<title>Node4&#45;&gt;Node15</title>
<path fill="none" stroke="midnightblue" d="M843.16,-60.82C941.56,-53.44 1150.39,-37.24 1326.5,-20 1329.56,-19.7 1332.69,-19.39 1335.84,-19.06"/>
<polygon fill="midnightblue" stroke="midnightblue" points="842.84,-57.33 833.13,-61.57 843.36,-64.31 842.84,-57.33"/>
</g>
</g>
</svg>
