<?xml version="1.0" encoding="UTF-8" standalone="no"?>
<!DOCTYPE svg PUBLIC "-//W3C//DTD SVG 1.1//EN"
 "http://www.w3.org/Graphics/SVG/1.1/DTD/svg11.dtd">
<!-- Generated by graphviz version 2.43.0 (0)
 -->
<!-- Title: language/IValue.h Pages: 1 -->
<!--zoomable 532 -->
<svg id="main" version="1.1" xmlns="http://www.w3.org/2000/svg" xmlns:xlink="http://www.w3.org/1999/xlink" xml:space="preserve" onload="init(evt)">
<style type="text/css"><![CDATA[
.edge:hover path { stroke: red; }
.edge:hover polygon { stroke: red; fill: red; }
]]></style>
<script type="text/javascript"><![CDATA[
var edges = document.getElementsByTagName('g');
if (edges && edges.length) {
  for (var i=0;i<edges.length;i++) {
    if (edges[i].id.substr(0,4)=='edge') {
      edges[i].setAttribute('class','edge');
    }
  }
}
]]></script>
        <defs>
                <circle id="rim" cx="0" cy="0" r="7"/>
                <circle id="rim2" cx="0" cy="0" r="3.5"/>
                <g id="zoomPlus">
                        <use xlink:href="#rim" fill="#404040">
                                <set attributeName="fill" to="#808080" begin="zoomplus.mouseover" end="zoomplus.mouseout"/>
                        </use>
                        <path d="M-4,0h8M0,-4v8" fill="none" stroke="white" stroke-width="1.5" pointer-events="none"/>
                </g>
                <g id="zoomMin">
                        <use xlink:href="#rim" fill="#404040">
                                <set attributeName="fill" to="#808080" begin="zoomminus.mouseover" end="zoomminus.mouseout"/>
                        </use>
                        <path d="M-4,0h8" fill="none" stroke="white" stroke-width="1.5" pointer-events="none"/>
                </g>
                <g id="dirArrow">
                        <path fill="none" stroke="white" stroke-width="1.5" d="M0,-3.0v7 M-2.5,-0.5L0,-3.0L2.5,-0.5"/>
                </g>
               <g id="resetDef">
                       <use xlink:href="#rim2" fill="#404040">
                               <set attributeName="fill" to="#808080" begin="reset.mouseover" end="reset.mouseout"/>
                       </use>
               </g>
        </defs>

<script type="text/javascript">
var viewWidth = 1710;
var viewHeight = 532;
var sectionId = 'dynsection-0';
</script>
<script xlink:href="svgpan.js"/>
<svg id="graph" class="graph">
<g id="viewport">
<title>language/IValue.h</title>
<polygon fill="white" stroke="transparent" points="-4,4 -4,-528 1706,-528 1706,4 -4,4"/>
<!-- Node1 -->
<g id="node1" class="node">
<title>Node1</title>
<g id="a_node1"><a xlink:title=" ">
<polygon fill="#bfbfbf" stroke="black" points="1411,-504.5 1411,-523.5 1515,-523.5 1515,-504.5 1411,-504.5"/>
<text text-anchor="middle" x="1463" y="-511.5" font-family="Helvetica,sans-Serif" font-size="10.00">language/IValue.h</text>
</a>
</g>
</g>
<!-- Node2 -->
<g id="node2" class="node">
<title>Node2</title>
<g id="a_node2"><a xlink:href="_i_statment_8h.html" target="_top" xlink:title=" ">
<polygon fill="white" stroke="black" points="944,-448.5 944,-467.5 1066,-467.5 1066,-448.5 944,-448.5"/>
<text text-anchor="middle" x="1005" y="-455.5" font-family="Helvetica,sans-Serif" font-size="10.00">language/IStatment.h</text>
</a>
</g>
</g>
<!-- Node1&#45;&gt;Node2 -->
<g id="edge1" class="edge">
<title>Node1&#45;&gt;Node2</title>
<path fill="none" stroke="midnightblue" d="M1400.82,-505.67C1312.94,-495.31 1153.42,-476.5 1066.12,-466.21"/>
<polygon fill="midnightblue" stroke="midnightblue" points="1400.57,-509.16 1410.91,-506.86 1401.39,-502.21 1400.57,-509.16"/>
</g>
<!-- Node3 -->
<g id="node3" class="node">
<title>Node3</title>
<g id="a_node3"><a xlink:href="parser_8h.html" target="_top" xlink:title=" ">
<polygon fill="white" stroke="black" points="1383,-224.5 1383,-243.5 1487,-243.5 1487,-224.5 1383,-224.5"/>
<text text-anchor="middle" x="1435" y="-231.5" font-family="Helvetica,sans-Serif" font-size="10.00">language/parser.h</text>
</a>
</g>
</g>
<!-- Node1&#45;&gt;Node3 -->
<g id="edge70" class="edge">
<title>Node1&#45;&gt;Node3</title>
<path fill="none" stroke="midnightblue" d="M1473.14,-495.43C1484.4,-474.24 1501,-437.19 1501,-403 1501,-403 1501,-403 1501,-345 1501,-301.79 1463.1,-260.9 1444.74,-243.63"/>
<polygon fill="midnightblue" stroke="midnightblue" points="1470.05,-493.78 1468.28,-504.23 1476.18,-497.17 1470.05,-493.78"/>
</g>
<!-- Node8 -->
<g id="node8" class="node">
<title>Node8</title>
<g id="a_node8"><a xlink:href="_null_8h.html" target="_top" xlink:title=" ">
<polygon fill="white" stroke="black" points="602.5,-56.5 602.5,-75.5 695.5,-75.5 695.5,-56.5 602.5,-56.5"/>
<text text-anchor="middle" x="649" y="-63.5" font-family="Helvetica,sans-Serif" font-size="10.00">language/Null.h</text>
</a>
</g>
</g>
<!-- Node1&#45;&gt;Node8 -->
<g id="edge73" class="edge">
<title>Node1&#45;&gt;Node8</title>
<path fill="none" stroke="midnightblue" d="M1400.73,-513.02C1203.81,-512.16 597.52,-502.08 427,-412 391.68,-393.34 366.46,-373.93 379,-336 396.55,-282.92 454,-290.91 454,-235 454,-235 454,-235 454,-177 454,-109.17 544.6,-82.7 602.29,-72.72"/>
<polygon fill="midnightblue" stroke="midnightblue" points="1400.89,-516.52 1410.91,-513.06 1400.92,-509.52 1400.89,-516.52"/>
</g>
<!-- Node23 -->
<g id="node23" class="node">
<title>Node23</title>
<g id="a_node23"><a xlink:href="env_8h.html" target="_top" xlink:title=" ">
<polygon fill="white" stroke="black" points="1271.5,-280.5 1271.5,-299.5 1362.5,-299.5 1362.5,-280.5 1271.5,-280.5"/>
<text text-anchor="middle" x="1317" y="-287.5" font-family="Helvetica,sans-Serif" font-size="10.00">language/env.h</text>
</a>
</g>
</g>
<!-- Node1&#45;&gt;Node23 -->
<g id="edge71" class="edge">
<title>Node1&#45;&gt;Node23</title>
<path fill="none" stroke="midnightblue" d="M1451.64,-495.72C1422.3,-451.11 1344.76,-333.2 1322.84,-299.88"/>
<polygon fill="midnightblue" stroke="midnightblue" points="1448.86,-497.87 1457.28,-504.3 1454.71,-494.02 1448.86,-497.87"/>
</g>
<!-- Node30 -->
<g id="node30" class="node">
<title>Node30</title>
<g id="a_node30"><a xlink:href="_error_statment_8h.html" target="_top" xlink:title=" ">
<polygon fill="white" stroke="black" points="1413,-56.5 1413,-75.5 1555,-75.5 1555,-56.5 1413,-56.5"/>
<text text-anchor="middle" x="1484" y="-63.5" font-family="Helvetica,sans-Serif" font-size="10.00">language/ErrorStatment.h</text>
</a>
</g>
</g>
<!-- Node1&#45;&gt;Node30 -->
<g id="edge72" class="edge">
<title>Node1&#45;&gt;Node30</title>
<path fill="none" stroke="midnightblue" d="M1525.12,-504.51C1582.53,-492.76 1659,-465.39 1659,-403 1659,-403 1659,-403 1659,-177 1659,-116.53 1583.18,-88.01 1531.36,-75.58"/>
<polygon fill="midnightblue" stroke="midnightblue" points="1524.17,-501.13 1515.01,-506.46 1525.49,-508.01 1524.17,-501.13"/>
</g>
<!-- Node2&#45;&gt;Node3 -->
<g id="edge2" class="edge">
<title>Node2&#45;&gt;Node3</title>
<path fill="none" stroke="midnightblue" d="M1076.61,-451.38C1148.3,-444.75 1252.87,-432.01 1288,-412 1362.63,-369.5 1415.59,-273.54 1430.64,-243.9"/>
<polygon fill="midnightblue" stroke="midnightblue" points="1075.93,-447.93 1066.28,-452.32 1076.56,-454.9 1075.93,-447.93"/>
</g>
<!-- Node5 -->
<g id="node5" class="node">
<title>Node5</title>
<g id="a_node5"><a xlink:href="_expr_8h.html" target="_top" xlink:title=" ">
<polygon fill="white" stroke="black" points="980.5,-168.5 980.5,-187.5 1075.5,-187.5 1075.5,-168.5 980.5,-168.5"/>
<text text-anchor="middle" x="1028" y="-175.5" font-family="Helvetica,sans-Serif" font-size="10.00">language/Expr.h</text>
</a>
</g>
</g>
<!-- Node2&#45;&gt;Node5 -->
<g id="edge55" class="edge">
<title>Node2&#45;&gt;Node5</title>
<path fill="none" stroke="midnightblue" d="M1005,-438.25C1005,-416.36 1005,-379.05 1005,-347 1005,-347 1005,-347 1005,-289 1005,-250.56 1018.62,-206.14 1024.9,-187.71"/>
<polygon fill="midnightblue" stroke="midnightblue" points="1001.5,-438.44 1005,-448.44 1008.5,-438.44 1001.5,-438.44"/>
</g>
<!-- Node15 -->
<g id="node15" class="node">
<title>Node15</title>
<g id="a_node15"><a xlink:href="_i_statment_8cc.html" target="_top" xlink:title=" ">
<polygon fill="white" stroke="black" points="39,-0.5 39,-19.5 165,-19.5 165,-0.5 39,-0.5"/>
<text text-anchor="middle" x="102" y="-7.5" font-family="Helvetica,sans-Serif" font-size="10.00">language/IStatment.cc</text>
</a>
</g>
</g>
<!-- Node2&#45;&gt;Node15 -->
<g id="edge66" class="edge">
<title>Node2&#45;&gt;Node15</title>
<path fill="none" stroke="midnightblue" d="M933.39,-456.68C703.65,-454.71 0,-440.99 0,-347 0,-347 0,-347 0,-121 0,-71.78 55.6,-35.28 84.7,-19.55"/>
<polygon fill="midnightblue" stroke="midnightblue" points="933.62,-460.18 943.65,-456.76 933.67,-453.18 933.62,-460.18"/>
</g>
<!-- Node2&#45;&gt;Node23 -->
<g id="edge28" class="edge">
<title>Node2&#45;&gt;Node23</title>
<path fill="none" stroke="midnightblue" d="M1076.29,-452.34C1143.25,-446.64 1237.32,-434.78 1266,-412 1302.77,-382.79 1313.39,-322.24 1316.13,-299.7"/>
<polygon fill="midnightblue" stroke="midnightblue" points="1075.88,-448.86 1066.2,-453.17 1076.45,-455.84 1075.88,-448.86"/>
</g>
<!-- Node25 -->
<g id="node25" class="node">
<title>Node25</title>
<g id="a_node25"><a xlink:href="_block_8h.html" target="_top" xlink:title=" ">
<polygon fill="white" stroke="black" points="436.5,-392.5 436.5,-411.5 537.5,-411.5 537.5,-392.5 436.5,-392.5"/>
<text text-anchor="middle" x="487" y="-399.5" font-family="Helvetica,sans-Serif" font-size="10.00">language/Block.h</text>
</a>
</g>
</g>
<!-- Node2&#45;&gt;Node25 -->
<g id="edge33" class="edge">
<title>Node2&#45;&gt;Node25</title>
<path fill="none" stroke="midnightblue" d="M933.81,-449.58C827.62,-438.51 630.31,-417.94 537.6,-408.28"/>
<polygon fill="midnightblue" stroke="midnightblue" points="933.49,-453.06 943.8,-450.62 934.22,-446.1 933.49,-453.06"/>
</g>
<!-- Node26 -->
<g id="node26" class="node">
<title>Node26</title>
<g id="a_node26"><a xlink:href="_func_def_8h.html" target="_top" xlink:title=" ">
<polygon fill="white" stroke="black" points="388.5,-336.5 388.5,-355.5 501.5,-355.5 501.5,-336.5 388.5,-336.5"/>
<text text-anchor="middle" x="445" y="-343.5" font-family="Helvetica,sans-Serif" font-size="10.00">language/FuncDef.h</text>
</a>
</g>
</g>
<!-- Node2&#45;&gt;Node26 -->
<g id="edge49" class="edge">
<title>Node2&#45;&gt;Node26</title>
<path fill="none" stroke="midnightblue" d="M951.61,-446.51C841.21,-424.83 589.72,-375.43 488.45,-355.53"/>
<polygon fill="midnightblue" stroke="midnightblue" points="951.04,-449.97 961.52,-448.46 952.39,-443.1 951.04,-449.97"/>
</g>
<!-- Node27 -->
<g id="node27" class="node">
<title>Node27</title>
<g id="a_node27"><a xlink:href="_conditional_8h.html" target="_top" xlink:title=" ">
<polygon fill="white" stroke="black" points="28.5,-280.5 28.5,-299.5 157.5,-299.5 157.5,-280.5 28.5,-280.5"/>
<text text-anchor="middle" x="93" y="-287.5" font-family="Helvetica,sans-Serif" font-size="10.00">language/Conditional.h</text>
</a>
</g>
</g>
<!-- Node2&#45;&gt;Node27 -->
<g id="edge62" class="edge">
<title>Node2&#45;&gt;Node27</title>
<path fill="none" stroke="midnightblue" d="M933.74,-454.71C793.55,-449.73 486.6,-436.37 384,-412 273.54,-385.76 150.96,-322.56 108.48,-299.56"/>
<polygon fill="midnightblue" stroke="midnightblue" points="933.83,-458.22 943.95,-455.07 934.08,-451.22 933.83,-458.22"/>
</g>
<!-- Node28 -->
<g id="node28" class="node">
<title>Node28</title>
<g id="a_node28"><a xlink:href="_loop_8h.html" target="_top" xlink:title=" ">
<polygon fill="white" stroke="black" points="252.5,-280.5 252.5,-299.5 349.5,-299.5 349.5,-280.5 252.5,-280.5"/>
<text text-anchor="middle" x="301" y="-287.5" font-family="Helvetica,sans-Serif" font-size="10.00">language/Loop.h</text>
</a>
</g>
</g>
<!-- Node2&#45;&gt;Node28 -->
<g id="edge67" class="edge">
<title>Node2&#45;&gt;Node28</title>
<path fill="none" stroke="midnightblue" d="M933.75,-456.17C800.39,-453.84 518.32,-445.04 427,-412 386.53,-397.36 378.57,-386.29 348,-356 329.99,-338.16 313.84,-312.83 306,-299.68"/>
<polygon fill="midnightblue" stroke="midnightblue" points="933.81,-459.67 943.87,-456.34 933.93,-452.67 933.81,-459.67"/>
</g>
<!-- Node29 -->
<g id="node29" class="node">
<title>Node29</title>
<g id="a_node29"><a xlink:href="_binding_usage_8h.html" target="_top" xlink:title=" ">
<polygon fill="white" stroke="black" points="1033.5,-224.5 1033.5,-243.5 1174.5,-243.5 1174.5,-224.5 1033.5,-224.5"/>
<text text-anchor="middle" x="1104" y="-231.5" font-family="Helvetica,sans-Serif" font-size="10.00">language/BindingUsage.h</text>
</a>
</g>
</g>
<!-- Node2&#45;&gt;Node29 -->
<g id="edge50" class="edge">
<title>Node2&#45;&gt;Node29</title>
<path fill="none" stroke="midnightblue" d="M1012.96,-439.16C1033.04,-394.12 1085.24,-277.06 1100.04,-243.88"/>
<polygon fill="midnightblue" stroke="midnightblue" points="1009.76,-437.74 1008.88,-448.3 1016.15,-440.59 1009.76,-437.74"/>
</g>
<!-- Node2&#45;&gt;Node30 -->
<g id="edge56" class="edge">
<title>Node2&#45;&gt;Node30</title>
<path fill="none" stroke="midnightblue" d="M1076.28,-457.51C1141.35,-455.52 1238.84,-446.23 1316,-412 1423.05,-364.51 1450.3,-338.84 1519,-244 1539.63,-215.52 1549.93,-202.01 1541,-168 1531.13,-130.42 1503.74,-92.1 1490.86,-75.51"/>
<polygon fill="midnightblue" stroke="midnightblue" points="1076.03,-454.02 1066.13,-457.77 1076.21,-461.02 1076.03,-454.02"/>
</g>
<!-- Node32 -->
<g id="node32" class="node">
<title>Node32</title>
<g id="a_node32"><a xlink:href="_func_call_8h.html" target="_top" xlink:title=" ">
<polygon fill="white" stroke="black" points="244.5,-56.5 244.5,-75.5 359.5,-75.5 359.5,-56.5 244.5,-56.5"/>
<text text-anchor="middle" x="302" y="-63.5" font-family="Helvetica,sans-Serif" font-size="10.00">language/FuncCall.h</text>
</a>
</g>
</g>
<!-- Node2&#45;&gt;Node32 -->
<g id="edge63" class="edge">
<title>Node2&#45;&gt;Node32</title>
<path fill="none" stroke="midnightblue" d="M933.69,-454.39C740.94,-446.39 224,-418.3 224,-347 224,-347 224,-347 224,-177 224,-132.05 267.88,-92.65 289.81,-75.76"/>
<polygon fill="midnightblue" stroke="midnightblue" points="933.58,-457.89 943.72,-454.8 933.87,-450.89 933.58,-457.89"/>
</g>
<!-- Node33 -->
<g id="node33" class="node">
<title>Node33</title>
<g id="a_node33"><a xlink:href="_matrix_8h.html" target="_top" xlink:title=" ">
<polygon fill="white" stroke="black" points="1151.5,-392.5 1151.5,-411.5 1256.5,-411.5 1256.5,-392.5 1151.5,-392.5"/>
<text text-anchor="middle" x="1204" y="-399.5" font-family="Helvetica,sans-Serif" font-size="10.00">language/Matrix.h</text>
</a>
</g>
</g>
<!-- Node2&#45;&gt;Node33 -->
<g id="edge68" class="edge">
<title>Node2&#45;&gt;Node33</title>
<path fill="none" stroke="midnightblue" d="M1046.65,-445.7C1084.21,-435.51 1138.61,-420.74 1172.62,-411.52"/>
<polygon fill="midnightblue" stroke="midnightblue" points="1045.27,-442.45 1036.53,-448.44 1047.1,-449.2 1045.27,-442.45"/>
</g>
<!-- Node4 -->
<g id="node4" class="node">
<title>Node4</title>
<g id="a_node4"><a xlink:href="interpreter_8cc.html" target="_top" xlink:title=" ">
<polygon fill="white" stroke="black" points="1435.5,-168.5 1435.5,-187.5 1516.5,-187.5 1516.5,-168.5 1435.5,-168.5"/>
<text text-anchor="middle" x="1476" y="-175.5" font-family="Helvetica,sans-Serif" font-size="10.00">interpreter.cc</text>
</a>
</g>
</g>
<!-- Node3&#45;&gt;Node4 -->
<g id="edge3" class="edge">
<title>Node3&#45;&gt;Node4</title>
<path fill="none" stroke="midnightblue" d="M1448.02,-215.86C1455.12,-206.5 1463.6,-195.33 1469.36,-187.75"/>
<polygon fill="midnightblue" stroke="midnightblue" points="1445.03,-214 1441.77,-224.08 1450.61,-218.24 1445.03,-214"/>
</g>
<!-- Node3&#45;&gt;Node5 -->
<g id="edge4" class="edge">
<title>Node3&#45;&gt;Node5</title>
<path fill="none" stroke="midnightblue" d="M1372.61,-223.83C1260.22,-208.29 1140.39,-193.06 1075.61,-184.93"/>
<polygon fill="midnightblue" stroke="midnightblue" points="1372.38,-227.33 1382.77,-225.23 1373.34,-220.39 1372.38,-227.33"/>
</g>
<!-- Node10 -->
<g id="node10" class="node">
<title>Node10</title>
<g id="a_node10"><a xlink:href="_block_8cc.html" target="_top" xlink:title=" ">
<polygon fill="white" stroke="black" points="843.5,-0.5 843.5,-19.5 948.5,-19.5 948.5,-0.5 843.5,-0.5"/>
<text text-anchor="middle" x="896" y="-7.5" font-family="Helvetica,sans-Serif" font-size="10.00">language/Block.cc</text>
</a>
</g>
</g>
<!-- Node3&#45;&gt;Node10 -->
<g id="edge25" class="edge">
<title>Node3&#45;&gt;Node10</title>
<path fill="none" stroke="midnightblue" d="M1372.72,-224.01C1190.01,-206.27 731.71,-257.31 625,-132 619.24,-125.23 619.75,-119.18 625,-112 656.1,-69.45 688.47,-94.04 738,-76 741.43,-74.75 833.15,-36.93 875.24,-19.57"/>
<polygon fill="midnightblue" stroke="midnightblue" points="1372.47,-227.51 1382.78,-225.1 1373.21,-220.55 1372.47,-227.51"/>
</g>
<!-- Node18 -->
<g id="node18" class="node">
<title>Node18</title>
<g id="a_node18"><a xlink:href="parser_8cc.html" target="_top" xlink:title=" ">
<polygon fill="white" stroke="black" points="1430,-0.5 1430,-19.5 1538,-19.5 1538,-0.5 1430,-0.5"/>
<text text-anchor="middle" x="1484" y="-7.5" font-family="Helvetica,sans-Serif" font-size="10.00">language/parser.cc</text>
</a>
</g>
</g>
<!-- Node3&#45;&gt;Node18 -->
<g id="edge26" class="edge">
<title>Node3&#45;&gt;Node18</title>
<path fill="none" stroke="midnightblue" d="M1475.37,-220.91C1493.01,-213.83 1512.67,-203.21 1526,-188 1560.63,-148.46 1555.44,-127.86 1564,-76 1565.45,-67.23 1568.49,-63.67 1564,-56 1553.3,-37.71 1532.13,-26.27 1514.25,-19.51"/>
<polygon fill="midnightblue" stroke="midnightblue" points="1473.96,-217.7 1465.83,-224.49 1476.42,-224.26 1473.96,-217.7"/>
</g>
<!-- Node22 -->
<g id="node22" class="node">
<title>Node22</title>
<g id="a_node22"><a xlink:href="_test_parser_8cc.html" target="_top" xlink:title=" ">
<polygon fill="white" stroke="black" points="1268.5,-168.5 1268.5,-187.5 1417.5,-187.5 1417.5,-168.5 1268.5,-168.5"/>
<text text-anchor="middle" x="1343" y="-175.5" font-family="Helvetica,sans-Serif" font-size="10.00">language/test/TestParser.cc</text>
</a>
</g>
</g>
<!-- Node3&#45;&gt;Node22 -->
<g id="edge27" class="edge">
<title>Node3&#45;&gt;Node22</title>
<path fill="none" stroke="midnightblue" d="M1411.45,-219.18C1394.52,-209.24 1372.22,-196.15 1357.74,-187.65"/>
<polygon fill="midnightblue" stroke="midnightblue" points="1409.82,-222.28 1420.22,-224.32 1413.37,-216.24 1409.82,-222.28"/>
</g>
<!-- Node6 -->
<g id="node6" class="node">
<title>Node6</title>
<g id="a_node6"><a xlink:href="_bind_def_8h.html" target="_top" xlink:title=" ">
<polygon fill="white" stroke="black" points="798,-112.5 798,-131.5 910,-131.5 910,-112.5 798,-112.5"/>
<text text-anchor="middle" x="854" y="-119.5" font-family="Helvetica,sans-Serif" font-size="10.00">language/BindDef.h</text>
</a>
</g>
</g>
<!-- Node5&#45;&gt;Node6 -->
<g id="edge5" class="edge">
<title>Node5&#45;&gt;Node6</title>
<path fill="none" stroke="midnightblue" d="M990.74,-165.44C957.93,-155.26 910.92,-140.66 881.44,-131.52"/>
<polygon fill="midnightblue" stroke="midnightblue" points="989.84,-168.82 1000.43,-168.44 991.92,-162.14 989.84,-168.82"/>
</g>
<!-- Node12 -->
<g id="node12" class="node">
<title>Node12</title>
<g id="a_node12"><a xlink:href="_expr_8cc.html" target="_top" xlink:title=" ">
<polygon fill="white" stroke="black" points="1148.5,-0.5 1148.5,-19.5 1247.5,-19.5 1247.5,-0.5 1148.5,-0.5"/>
<text text-anchor="middle" x="1198" y="-7.5" font-family="Helvetica,sans-Serif" font-size="10.00">language/Expr.cc</text>
</a>
</g>
</g>
<!-- Node5&#45;&gt;Node12 -->
<g id="edge21" class="edge">
<title>Node5&#45;&gt;Node12</title>
<path fill="none" stroke="midnightblue" d="M1051.2,-162.97C1064.09,-154.68 1080.09,-143.57 1093,-132 1135.04,-94.31 1176.43,-40.31 1191.77,-19.57"/>
<polygon fill="midnightblue" stroke="midnightblue" points="1049.05,-160.18 1042.45,-168.47 1052.77,-166.11 1049.05,-160.18"/>
</g>
<!-- Node19 -->
<g id="node19" class="node">
<title>Node19</title>
<g id="a_node19"><a xlink:href="_test_bind_8cc.html" target="_top" xlink:title=" ">
<polygon fill="white" stroke="black" points="989.5,-0.5 989.5,-19.5 1130.5,-19.5 1130.5,-0.5 989.5,-0.5"/>
<text text-anchor="middle" x="1060" y="-7.5" font-family="Helvetica,sans-Serif" font-size="10.00">language/test/TestBind.cc</text>
</a>
</g>
</g>
<!-- Node5&#45;&gt;Node19 -->
<g id="edge22" class="edge">
<title>Node5&#45;&gt;Node19</title>
<path fill="none" stroke="midnightblue" d="M1051.1,-162.35C1061.04,-154.66 1071.61,-144.27 1077,-132 1094.24,-92.77 1073.69,-40.11 1064.25,-19.64"/>
<polygon fill="midnightblue" stroke="midnightblue" points="1048.75,-159.73 1042.66,-168.4 1052.83,-165.42 1048.75,-159.73"/>
</g>
<!-- Node20 -->
<g id="node20" class="node">
<title>Node20</title>
<g id="a_node20"><a xlink:href="_test_block_8cc.html" target="_top" xlink:title=" ">
<polygon fill="white" stroke="black" points="634,-112.5 634,-131.5 780,-131.5 780,-112.5 634,-112.5"/>
<text text-anchor="middle" x="707" y="-119.5" font-family="Helvetica,sans-Serif" font-size="10.00">language/test/TestBlock.cc</text>
</a>
</g>
</g>
<!-- Node5&#45;&gt;Node20 -->
<g id="edge23" class="edge">
<title>Node5&#45;&gt;Node20</title>
<path fill="none" stroke="midnightblue" d="M970.13,-167.26C909.54,-157.07 815.35,-141.23 757.62,-131.52"/>
<polygon fill="midnightblue" stroke="midnightblue" points="969.85,-170.77 980.29,-168.97 971.01,-163.86 969.85,-170.77"/>
</g>
<!-- Node21 -->
<g id="node21" class="node">
<title>Node21</title>
<g id="a_node21"><a xlink:href="_test_expr_8cc.html" target="_top" xlink:title=" ">
<polygon fill="white" stroke="black" points="928,-112.5 928,-131.5 1068,-131.5 1068,-112.5 928,-112.5"/>
<text text-anchor="middle" x="998" y="-119.5" font-family="Helvetica,sans-Serif" font-size="10.00">language/test/TestExpr.cc</text>
</a>
</g>
</g>
<!-- Node5&#45;&gt;Node21 -->
<g id="edge24" class="edge">
<title>Node5&#45;&gt;Node21</title>
<path fill="none" stroke="midnightblue" d="M1018.15,-159.27C1013.03,-150.05 1006.98,-139.17 1002.86,-131.75"/>
<polygon fill="midnightblue" stroke="midnightblue" points="1015.13,-161.04 1023.05,-168.08 1021.25,-157.64 1015.13,-161.04"/>
</g>
<!-- Node7 -->
<g id="node7" class="node">
<title>Node7</title>
<g id="a_node7"><a xlink:href="_bind_def_8cc.html" target="_top" xlink:title=" ">
<polygon fill="white" stroke="black" points="796,-56.5 796,-75.5 912,-75.5 912,-56.5 796,-56.5"/>
<text text-anchor="middle" x="854" y="-63.5" font-family="Helvetica,sans-Serif" font-size="10.00">language/BindDef.cc</text>
</a>
</g>
</g>
<!-- Node6&#45;&gt;Node7 -->
<g id="edge6" class="edge">
<title>Node6&#45;&gt;Node7</title>
<path fill="none" stroke="midnightblue" d="M854,-101.8C854,-92.91 854,-82.78 854,-75.75"/>
<polygon fill="midnightblue" stroke="midnightblue" points="850.5,-102.08 854,-112.08 857.5,-102.08 850.5,-102.08"/>
</g>
<!-- Node6&#45;&gt;Node8 -->
<g id="edge7" class="edge">
<title>Node6&#45;&gt;Node8</title>
<path fill="none" stroke="midnightblue" d="M811.59,-109.83C772.89,-99.63 716.51,-84.78 681.33,-75.52"/>
<polygon fill="midnightblue" stroke="midnightblue" points="810.96,-113.28 821.52,-112.44 812.74,-106.51 810.96,-113.28"/>
</g>
<!-- Node6&#45;&gt;Node15 -->
<g id="edge19" class="edge">
<title>Node6&#45;&gt;Node15</title>
<path fill="none" stroke="midnightblue" d="M787.6,-111.6C722.6,-102.02 628.36,-87.06 593,-76 572.88,-69.71 570.34,-61.53 550,-56 388,-11.97 340.86,-38.41 174,-20 171.12,-19.68 168.18,-19.35 165.2,-19.01"/>
<polygon fill="midnightblue" stroke="midnightblue" points="787.37,-115.1 797.77,-113.08 788.38,-108.17 787.37,-115.1"/>
</g>
<!-- Node6&#45;&gt;Node19 -->
<g id="edge20" class="edge">
<title>Node6&#45;&gt;Node19</title>
<path fill="none" stroke="midnightblue" d="M879.11,-107.59C922,-84.69 1008.18,-38.67 1043.91,-19.59"/>
<polygon fill="midnightblue" stroke="midnightblue" points="877.34,-104.57 870.16,-112.37 880.63,-110.75 877.34,-104.57"/>
</g>
<!-- Node9 -->
<g id="node9" class="node">
<title>Node9</title>
<g id="a_node9"><a xlink:href="_binding_usage_8cc.html" target="_top" xlink:title=" ">
<polygon fill="white" stroke="black" points="1266,-0.5 1266,-19.5 1412,-19.5 1412,-0.5 1266,-0.5"/>
<text text-anchor="middle" x="1339" y="-7.5" font-family="Helvetica,sans-Serif" font-size="10.00">language/BindingUsage.cc</text>
</a>
</g>
</g>
<!-- Node8&#45;&gt;Node9 -->
<g id="edge8" class="edge">
<title>Node8&#45;&gt;Node9</title>
<path fill="none" stroke="midnightblue" d="M705.89,-61.05C835.74,-51.99 1150.92,-29.74 1257,-20 1259.85,-19.74 1262.76,-19.46 1265.7,-19.18"/>
<polygon fill="midnightblue" stroke="midnightblue" points="705.48,-57.57 695.75,-61.76 705.97,-64.55 705.48,-57.57"/>
</g>
<!-- Node8&#45;&gt;Node10 -->
<g id="edge9" class="edge">
<title>Node8&#45;&gt;Node10</title>
<path fill="none" stroke="midnightblue" d="M698.03,-54.28C744.7,-44.08 814.03,-28.92 857.05,-19.52"/>
<polygon fill="midnightblue" stroke="midnightblue" points="697.16,-50.89 688.14,-56.44 698.65,-57.73 697.16,-50.89"/>
</g>
<!-- Node11 -->
<g id="node11" class="node">
<title>Node11</title>
<g id="a_node11"><a xlink:href="_conditional_8cc.html" target="_top" xlink:title=" ">
<polygon fill="white" stroke="black" points="183,-0.5 183,-19.5 317,-19.5 317,-0.5 183,-0.5"/>
<text text-anchor="middle" x="250" y="-7.5" font-family="Helvetica,sans-Serif" font-size="10.00">language/Conditional.cc</text>
</a>
</g>
</g>
<!-- Node8&#45;&gt;Node11 -->
<g id="edge10" class="edge">
<title>Node8&#45;&gt;Node11</title>
<path fill="none" stroke="midnightblue" d="M592.42,-56.62C590.93,-56.41 589.46,-56.2 588,-56 493.62,-42.75 384.26,-28.37 316.1,-19.52"/>
<polygon fill="midnightblue" stroke="midnightblue" points="591.99,-60.1 602.38,-58.05 592.98,-53.17 591.99,-60.1"/>
</g>
<!-- Node8&#45;&gt;Node12 -->
<g id="edge11" class="edge">
<title>Node8&#45;&gt;Node12</title>
<path fill="none" stroke="midnightblue" d="M705.99,-60.94C797.63,-54.15 983.34,-39.31 1140,-20 1142.73,-19.66 1145.53,-19.3 1148.35,-18.91"/>
<polygon fill="midnightblue" stroke="midnightblue" points="705.53,-57.46 695.82,-61.69 706.05,-64.45 705.53,-57.46"/>
</g>
<!-- Node13 -->
<g id="node13" class="node">
<title>Node13</title>
<g id="a_node13"><a xlink:href="_func_call_8cc.html" target="_top" xlink:title=" ">
<polygon fill="white" stroke="black" points="589.5,-0.5 589.5,-19.5 708.5,-19.5 708.5,-0.5 589.5,-0.5"/>
<text text-anchor="middle" x="649" y="-7.5" font-family="Helvetica,sans-Serif" font-size="10.00">language/FuncCall.cc</text>
</a>
</g>
</g>
<!-- Node8&#45;&gt;Node13 -->
<g id="edge12" class="edge">
<title>Node8&#45;&gt;Node13</title>
<path fill="none" stroke="midnightblue" d="M649,-45.8C649,-36.91 649,-26.78 649,-19.75"/>
<polygon fill="midnightblue" stroke="midnightblue" points="645.5,-46.08 649,-56.08 652.5,-46.08 645.5,-46.08"/>
</g>
<!-- Node14 -->
<g id="node14" class="node">
<title>Node14</title>
<g id="a_node14"><a xlink:href="_func_def_8cc.html" target="_top" xlink:title=" ">
<polygon fill="white" stroke="black" points="454.5,-0.5 454.5,-19.5 571.5,-19.5 571.5,-0.5 454.5,-0.5"/>
<text text-anchor="middle" x="513" y="-7.5" font-family="Helvetica,sans-Serif" font-size="10.00">language/FuncDef.cc</text>
</a>
</g>
</g>
<!-- Node8&#45;&gt;Node14 -->
<g id="edge13" class="edge">
<title>Node8&#45;&gt;Node14</title>
<path fill="none" stroke="midnightblue" d="M617.87,-52.64C592.34,-42.5 556.89,-28.43 534.45,-19.52"/>
<polygon fill="midnightblue" stroke="midnightblue" points="616.86,-56.01 627.45,-56.44 619.45,-49.5 616.86,-56.01"/>
</g>
<!-- Node8&#45;&gt;Node15 -->
<g id="edge14" class="edge">
<title>Node8&#45;&gt;Node15</title>
<path fill="none" stroke="midnightblue" d="M592.44,-56.54C590.94,-56.35 589.46,-56.17 588,-56 404.56,-34.51 357.67,-39.46 174,-20 171.12,-19.69 168.17,-19.37 165.2,-19.04"/>
<polygon fill="midnightblue" stroke="midnightblue" points="592.04,-60.01 602.41,-57.83 592.95,-53.07 592.04,-60.01"/>
</g>
<!-- Node16 -->
<g id="node16" class="node">
<title>Node16</title>
<g id="a_node16"><a xlink:href="_loop_8cc.html" target="_top" xlink:title=" ">
<polygon fill="white" stroke="black" points="335.5,-0.5 335.5,-19.5 436.5,-19.5 436.5,-0.5 335.5,-0.5"/>
<text text-anchor="middle" x="386" y="-7.5" font-family="Helvetica,sans-Serif" font-size="10.00">language/Loop.cc</text>
</a>
</g>
</g>
<!-- Node8&#45;&gt;Node16 -->
<g id="edge15" class="edge">
<title>Node8&#45;&gt;Node16</title>
<path fill="none" stroke="midnightblue" d="M597.42,-54.41C547.72,-44.2 473.47,-28.96 427.48,-19.52"/>
<polygon fill="midnightblue" stroke="midnightblue" points="596.83,-57.86 607.33,-56.44 598.24,-51 596.83,-57.86"/>
</g>
<!-- Node17 -->
<g id="node17" class="node">
<title>Node17</title>
<g id="a_node17"><a xlink:href="_null_8cc.html" target="_top" xlink:title=" ">
<polygon fill="white" stroke="black" points="727,-0.5 727,-19.5 825,-19.5 825,-0.5 727,-0.5"/>
<text text-anchor="middle" x="776" y="-7.5" font-family="Helvetica,sans-Serif" font-size="10.00">language/Null.cc</text>
</a>
</g>
</g>
<!-- Node8&#45;&gt;Node17 -->
<g id="edge16" class="edge">
<title>Node8&#45;&gt;Node17</title>
<path fill="none" stroke="midnightblue" d="M678.39,-52.5C702.2,-42.38 735.11,-28.39 755.97,-19.52"/>
<polygon fill="midnightblue" stroke="midnightblue" points="676.96,-49.31 669.12,-56.44 679.7,-55.75 676.96,-49.31"/>
</g>
<!-- Node8&#45;&gt;Node18 -->
<g id="edge17" class="edge">
<title>Node8&#45;&gt;Node18</title>
<path fill="none" stroke="midnightblue" d="M705.65,-61.2C730.59,-59.55 760.25,-57.63 787,-56 1068.71,-38.82 1140.16,-47.98 1421,-20 1423.86,-19.72 1426.79,-19.4 1429.74,-19.05"/>
<polygon fill="midnightblue" stroke="midnightblue" points="705.37,-57.71 695.62,-61.86 705.83,-64.69 705.37,-57.71"/>
</g>
<!-- Node8&#45;&gt;Node19 -->
<g id="edge18" class="edge">
<title>Node8&#45;&gt;Node19</title>
<path fill="none" stroke="midnightblue" d="M706.05,-57.5C781.86,-47.54 915.49,-29.99 995.08,-19.53"/>
<polygon fill="midnightblue" stroke="midnightblue" points="705.21,-54.09 695.75,-58.86 706.12,-61.03 705.21,-54.09"/>
</g>
<!-- Node23&#45;&gt;Node3 -->
<g id="edge29" class="edge">
<title>Node23&#45;&gt;Node3</title>
<path fill="none" stroke="midnightblue" d="M1344.9,-276.23C1366.97,-266.13 1397.18,-252.31 1416.39,-243.52"/>
<polygon fill="midnightblue" stroke="midnightblue" points="1343.33,-273.1 1335.7,-280.44 1346.25,-279.46 1343.33,-273.1"/>
</g>
<!-- Node23&#45;&gt;Node9 -->
<g id="edge30" class="edge">
<title>Node23&#45;&gt;Node9</title>
<path fill="none" stroke="midnightblue" d="M1373.04,-286.56C1411.18,-282.3 1460.9,-271.39 1496,-244 1518.26,-226.63 1519.13,-215.39 1526,-188 1543.92,-116.61 1459.54,-124.3 1404,-76 1382.32,-57.15 1358.99,-32.67 1347.05,-19.8"/>
<polygon fill="midnightblue" stroke="midnightblue" points="1372.22,-283.12 1362.61,-287.59 1372.91,-290.09 1372.22,-283.12"/>
</g>
<!-- Node23&#45;&gt;Node19 -->
<g id="edge32" class="edge">
<title>Node23&#45;&gt;Node19</title>
<path fill="none" stroke="midnightblue" d="M1295.05,-274.31C1283.99,-266.22 1270.87,-255.5 1261,-244 1235.58,-214.38 1240.5,-199.17 1217,-168 1175.37,-112.78 1158.49,-104.3 1109,-56 1095.77,-43.09 1079.94,-28.74 1069.92,-19.79"/>
<polygon fill="midnightblue" stroke="midnightblue" points="1293.19,-277.28 1303.37,-280.2 1297.23,-271.57 1293.19,-277.28"/>
</g>
<!-- Node24 -->
<g id="node24" class="node">
<title>Node24</title>
<g id="a_node24"><a xlink:href="env_8cc.html" target="_top" xlink:title=" ">
<polygon fill="white" stroke="black" points="1269.5,-224.5 1269.5,-243.5 1364.5,-243.5 1364.5,-224.5 1269.5,-224.5"/>
<text text-anchor="middle" x="1317" y="-231.5" font-family="Helvetica,sans-Serif" font-size="10.00">language/env.cc</text>
</a>
</g>
</g>
<!-- Node23&#45;&gt;Node24 -->
<g id="edge31" class="edge">
<title>Node23&#45;&gt;Node24</title>
<path fill="none" stroke="midnightblue" d="M1317,-269.8C1317,-260.91 1317,-250.78 1317,-243.75"/>
<polygon fill="midnightblue" stroke="midnightblue" points="1313.5,-270.08 1317,-280.08 1320.5,-270.08 1313.5,-270.08"/>
</g>
<!-- Node25&#45;&gt;Node10 -->
<g id="edge39" class="edge">
<title>Node25&#45;&gt;Node10</title>
<path fill="none" stroke="midnightblue" d="M498.48,-383.6C511.22,-362.58 530,-325.69 530,-291 530,-291 530,-291 530,-177 530,-128.73 575.04,-135.86 617,-112 653.38,-91.32 666.54,-94.65 704,-76 719.69,-68.18 721.88,-62.9 738,-56 776.54,-39.5 822.92,-27.11 855.42,-19.55"/>
<polygon fill="midnightblue" stroke="midnightblue" points="495.35,-382 492.98,-392.33 501.27,-385.73 495.35,-382"/>
</g>
<!-- Node25&#45;&gt;Node12 -->
<g id="edge43" class="edge">
<title>Node25&#45;&gt;Node12</title>
<path fill="none" stroke="midnightblue" d="M547.97,-396.42C702.19,-383.49 1101.43,-341.11 1184,-244 1241.49,-176.39 1210.86,-53.94 1200.81,-19.96"/>
<polygon fill="midnightblue" stroke="midnightblue" points="547.41,-392.96 537.73,-397.27 547.99,-399.93 547.41,-392.96"/>
</g>
<!-- Node25&#45;&gt;Node15 -->
<g id="edge44" class="edge">
<title>Node25&#45;&gt;Node15</title>
<path fill="none" stroke="midnightblue" d="M426.45,-390.18C371.77,-377.45 292.51,-351.19 243,-300 156.46,-210.51 113.7,-57.63 104.11,-19.71"/>
<polygon fill="midnightblue" stroke="midnightblue" points="425.84,-393.63 436.36,-392.4 427.37,-386.8 425.84,-393.63"/>
</g>
<!-- Node25&#45;&gt;Node20 -->
<g id="edge48" class="edge">
<title>Node25&#45;&gt;Node20</title>
<path fill="none" stroke="midnightblue" d="M510.66,-386.75C522.04,-378.88 535.11,-368.24 544,-356 562.1,-331.08 568,-321.8 568,-291 568,-291 568,-291 568,-233 568,-177.45 637.1,-145.55 677.86,-131.57"/>
<polygon fill="midnightblue" stroke="midnightblue" points="508.44,-384.02 502,-392.43 512.28,-389.87 508.44,-384.02"/>
</g>
<!-- Node25&#45;&gt;Node26 -->
<g id="edge34" class="edge">
<title>Node25&#45;&gt;Node26</title>
<path fill="none" stroke="midnightblue" d="M473.89,-384.14C466.57,-374.74 457.76,-363.4 451.81,-355.75"/>
<polygon fill="midnightblue" stroke="midnightblue" points="471.16,-386.34 480.06,-392.08 476.69,-382.04 471.16,-386.34"/>
</g>
<!-- Node25&#45;&gt;Node27 -->
<g id="edge40" class="edge">
<title>Node25&#45;&gt;Node27</title>
<path fill="none" stroke="midnightblue" d="M426.28,-393.18C377.47,-386.04 307.46,-373.85 248,-356 196.3,-340.48 138.37,-313.45 110.22,-299.64"/>
<polygon fill="midnightblue" stroke="midnightblue" points="425.97,-396.67 436.37,-394.63 426.97,-389.75 425.97,-396.67"/>
</g>
<!-- Node25&#45;&gt;Node28 -->
<g id="edge45" class="edge">
<title>Node25&#45;&gt;Node28</title>
<path fill="none" stroke="midnightblue" d="M450.72,-388.99C429.11,-381.09 401.6,-369.69 379,-356 351.26,-339.19 323.1,-312.97 309.46,-299.54"/>
<polygon fill="midnightblue" stroke="midnightblue" points="449.59,-392.3 460.19,-392.36 451.95,-385.71 449.59,-392.3"/>
</g>
<!-- Node26&#45;&gt;Node13 -->
<g id="edge36" class="edge">
<title>Node26&#45;&gt;Node13</title>
<path fill="none" stroke="midnightblue" d="M457.36,-328.04C471.28,-307.21 492,-270.3 492,-235 492,-235 492,-235 492,-121 492,-62.76 565.37,-32.74 611.79,-19.58"/>
<polygon fill="midnightblue" stroke="midnightblue" points="454.37,-326.2 451.54,-336.41 460.12,-330.2 454.37,-326.2"/>
</g>
<!-- Node26&#45;&gt;Node14 -->
<g id="edge37" class="edge">
<title>Node26&#45;&gt;Node14</title>
<path fill="none" stroke="midnightblue" d="M437.16,-326.91C428.57,-305.42 416,-268.28 416,-235 416,-235 416,-235 416,-177 416,-108.24 478.81,-42.65 503.34,-19.65"/>
<polygon fill="midnightblue" stroke="midnightblue" points="434.02,-328.47 441.09,-336.36 440.48,-325.79 434.02,-328.47"/>
</g>
<!-- Node26&#45;&gt;Node15 -->
<g id="edge38" class="edge">
<title>Node26&#45;&gt;Node15</title>
<path fill="none" stroke="midnightblue" d="M429.85,-328.86C387.71,-284.17 265.01,-155.55 156,-56 141.58,-42.83 124.09,-28.55 113,-19.68"/>
<polygon fill="midnightblue" stroke="midnightblue" points="427.36,-331.32 436.76,-336.2 432.46,-326.52 427.36,-331.32"/>
</g>
<!-- Node26&#45;&gt;Node23 -->
<g id="edge35" class="edge">
<title>Node26&#45;&gt;Node23</title>
<path fill="none" stroke="midnightblue" d="M511.6,-340.88C681.42,-330.36 1127.32,-302.75 1271.4,-293.82"/>
<polygon fill="midnightblue" stroke="midnightblue" points="511.31,-337.39 501.54,-341.5 511.74,-344.37 511.31,-337.39"/>
</g>
<!-- Node27&#45;&gt;Node11 -->
<g id="edge41" class="edge">
<title>Node27&#45;&gt;Node11</title>
<path fill="none" stroke="midnightblue" d="M102.94,-271.41C133.17,-217.87 223.33,-58.23 245.19,-19.52"/>
<polygon fill="midnightblue" stroke="midnightblue" points="99.74,-269.95 97.87,-280.38 105.84,-273.39 99.74,-269.95"/>
</g>
<!-- Node27&#45;&gt;Node15 -->
<g id="edge42" class="edge">
<title>Node27&#45;&gt;Node15</title>
<path fill="none" stroke="midnightblue" d="M85.16,-270.91C76.57,-249.42 64,-212.28 64,-179 64,-179 64,-179 64,-121 64,-81.4 86.27,-37.96 96.72,-19.77"/>
<polygon fill="midnightblue" stroke="midnightblue" points="82.02,-272.47 89.09,-280.36 88.48,-269.79 82.02,-272.47"/>
</g>
<!-- Node28&#45;&gt;Node15 -->
<g id="edge46" class="edge">
<title>Node28&#45;&gt;Node15</title>
<path fill="none" stroke="midnightblue" d="M288.88,-272.07C251.04,-219.2 135.93,-58.39 108.1,-19.52"/>
<polygon fill="midnightblue" stroke="midnightblue" points="286.16,-274.28 294.83,-280.38 291.85,-270.21 286.16,-274.28"/>
</g>
<!-- Node28&#45;&gt;Node16 -->
<g id="edge47" class="edge">
<title>Node28&#45;&gt;Node16</title>
<path fill="none" stroke="midnightblue" d="M307.15,-270.23C319.21,-233.2 346.69,-148.1 368,-76 373.91,-56.01 380.3,-32.4 383.65,-19.86"/>
<polygon fill="midnightblue" stroke="midnightblue" points="303.7,-269.51 303.92,-280.11 310.35,-271.69 303.7,-269.51"/>
</g>
<!-- Node29&#45;&gt;Node5 -->
<g id="edge51" class="edge">
<title>Node29&#45;&gt;Node5</title>
<path fill="none" stroke="midnightblue" d="M1083.42,-218.38C1069.69,-208.62 1052.07,-196.11 1040.43,-187.83"/>
<polygon fill="midnightblue" stroke="midnightblue" points="1081.61,-221.38 1091.79,-224.32 1085.66,-215.68 1081.61,-221.38"/>
</g>
<!-- Node29&#45;&gt;Node9 -->
<g id="edge52" class="edge">
<title>Node29&#45;&gt;Node9</title>
<path fill="none" stroke="midnightblue" d="M1120.56,-217.35C1166.51,-173.95 1294.5,-53.04 1329.85,-19.64"/>
<polygon fill="midnightblue" stroke="midnightblue" points="1118.08,-214.89 1113.21,-224.3 1122.89,-219.97 1118.08,-214.89"/>
</g>
<!-- Node29&#45;&gt;Node15 -->
<g id="edge53" class="edge">
<title>Node29&#45;&gt;Node15</title>
<path fill="none" stroke="midnightblue" d="M1023.08,-232.02C934.89,-229.25 790.31,-219.71 670,-188 528.35,-150.67 508.37,-97.86 368,-56 330.58,-44.84 229.05,-29.13 162.8,-19.53"/>
<polygon fill="midnightblue" stroke="midnightblue" points="1023.18,-235.53 1033.28,-232.32 1023.39,-228.53 1023.18,-235.53"/>
</g>
<!-- Node29&#45;&gt;Node19 -->
<g id="edge54" class="edge">
<title>Node29&#45;&gt;Node19</title>
<path fill="none" stroke="midnightblue" d="M1106.22,-214.08C1109.37,-180.93 1112.78,-110.64 1093,-56 1087.85,-41.79 1076.73,-28.19 1068.82,-19.73"/>
<polygon fill="midnightblue" stroke="midnightblue" points="1102.72,-213.86 1105.15,-224.18 1109.68,-214.6 1102.72,-213.86"/>
</g>
<!-- Node30&#45;&gt;Node9 -->
<g id="edge57" class="edge">
<title>Node30&#45;&gt;Node9</title>
<path fill="none" stroke="midnightblue" d="M1451.52,-52.91C1424.26,-42.75 1386.01,-28.51 1361.87,-19.52"/>
<polygon fill="midnightblue" stroke="midnightblue" points="1450.43,-56.23 1461.02,-56.44 1452.87,-49.67 1450.43,-56.23"/>
</g>
<!-- Node30&#45;&gt;Node12 -->
<g id="edge59" class="edge">
<title>Node30&#45;&gt;Node12</title>
<path fill="none" stroke="midnightblue" d="M1428.59,-54.54C1374.53,-44.33 1293.33,-29 1243.11,-19.52"/>
<polygon fill="midnightblue" stroke="midnightblue" points="1428.21,-58.03 1438.68,-56.44 1429.51,-51.15 1428.21,-58.03"/>
</g>
<!-- Node30&#45;&gt;Node13 -->
<g id="edge60" class="edge">
<title>Node30&#45;&gt;Node13</title>
<path fill="none" stroke="midnightblue" d="M1402.63,-62.12C1262.55,-56.74 966.91,-43.51 718,-20 714.99,-19.72 711.92,-19.4 708.81,-19.07"/>
<polygon fill="midnightblue" stroke="midnightblue" points="1402.73,-65.63 1412.85,-62.51 1402.99,-58.63 1402.73,-65.63"/>
</g>
<!-- Node30&#45;&gt;Node18 -->
<g id="edge61" class="edge">
<title>Node30&#45;&gt;Node18</title>
<path fill="none" stroke="midnightblue" d="M1484,-45.8C1484,-36.91 1484,-26.78 1484,-19.75"/>
<polygon fill="midnightblue" stroke="midnightblue" points="1480.5,-46.08 1484,-56.08 1487.5,-46.08 1480.5,-46.08"/>
</g>
<!-- Node31 -->
<g id="node31" class="node">
<title>Node31</title>
<g id="a_node31"><a xlink:href="_error_statment_8cc.html" target="_top" xlink:title=" ">
<polygon fill="white" stroke="black" points="1556,-0.5 1556,-19.5 1702,-19.5 1702,-0.5 1556,-0.5"/>
<text text-anchor="middle" x="1629" y="-7.5" font-family="Helvetica,sans-Serif" font-size="10.00">language/ErrorStatment.cc</text>
</a>
</g>
</g>
<!-- Node30&#45;&gt;Node31 -->
<g id="edge58" class="edge">
<title>Node30&#45;&gt;Node31</title>
<path fill="none" stroke="midnightblue" d="M1516.48,-52.91C1543.74,-42.75 1581.99,-28.51 1606.13,-19.52"/>
<polygon fill="midnightblue" stroke="midnightblue" points="1515.13,-49.67 1506.98,-56.44 1517.57,-56.23 1515.13,-49.67"/>
</g>
<!-- Node32&#45;&gt;Node13 -->
<g id="edge64" class="edge">
<title>Node32&#45;&gt;Node13</title>
<path fill="none" stroke="midnightblue" d="M367.2,-54.85C432.76,-44.65 532.71,-29.1 594.27,-19.52"/>
<polygon fill="midnightblue" stroke="midnightblue" points="366.33,-51.45 356.98,-56.44 367.4,-58.36 366.33,-51.45"/>
</g>
<!-- Node32&#45;&gt;Node15 -->
<g id="edge65" class="edge">
<title>Node32&#45;&gt;Node15</title>
<path fill="none" stroke="midnightblue" d="M260.63,-53.83C222.86,-43.63 167.86,-28.78 133.54,-19.52"/>
<polygon fill="midnightblue" stroke="midnightblue" points="259.74,-57.22 270.31,-56.44 261.57,-50.46 259.74,-57.22"/>
</g>
<!-- Node34 -->
<g id="node34" class="node">
<title>Node34</title>
<g id="a_node34"><a xlink:href="_matrix_8cc.html" target="_top" xlink:title=" ">
<polygon fill="white" stroke="black" points="1150,-336.5 1150,-355.5 1260,-355.5 1260,-336.5 1150,-336.5"/>
<text text-anchor="middle" x="1205" y="-343.5" font-family="Helvetica,sans-Serif" font-size="10.00">language/Matrix.cc</text>
</a>
</g>
</g>
<!-- Node33&#45;&gt;Node34 -->
<g id="edge69" class="edge">
<title>Node33&#45;&gt;Node34</title>
<path fill="none" stroke="midnightblue" d="M1204.36,-381.8C1204.52,-372.91 1204.71,-362.78 1204.84,-355.75"/>
<polygon fill="midnightblue" stroke="midnightblue" points="1200.85,-382.02 1204.17,-392.08 1207.85,-382.15 1200.85,-382.02"/>
</g>
</g>
</svg>
        <g id="navigator" transform="translate(0 0)" fill="#404254">
                <rect fill="#f2f5e9" fill-opacity="0.5" stroke="#606060" stroke-width=".5" x="0" y="0" width="60" height="60"/>
                <use id="zoomplus" xlink:href="#zoomPlus" x="17" y="9" onmousedown="handleZoom(evt,'in')"/>
                <use id="zoomminus" xlink:href="#zoomMin" x="42" y="9" onmousedown="handleZoom(evt,'out')"/>
                <use id="reset" xlink:href="#resetDef" x="30" y="36" onmousedown="handleReset()"/>
                <g id="arrowUp" xlink:href="#dirArrow" transform="translate(30 24)" onmousedown="handlePan(0,-1)">
                  <use xlink:href="#rim" fill="#404040">
                        <set attributeName="fill" to="#808080" begin="arrowUp.mouseover" end="arrowUp.mouseout"/>
                  </use>
                  <path fill="none" stroke="white" stroke-width="1.5" d="M0,-3.0v7 M-2.5,-0.5L0,-3.0L2.5,-0.5"/>
                </g>
                <g id="arrowRight" xlink:href="#dirArrow" transform="rotate(90) translate(36 -43)" onmousedown="handlePan(1,0)">
                  <use xlink:href="#rim" fill="#404040">
                        <set attributeName="fill" to="#808080" begin="arrowRight.mouseover" end="arrowRight.mouseout"/>
                  </use>
                  <path fill="none" stroke="white" stroke-width="1.5" d="M0,-3.0v7 M-2.5,-0.5L0,-3.0L2.5,-0.5"/>
                </g>
                <g id="arrowDown" xlink:href="#dirArrow" transform="rotate(180) translate(-30 -48)" onmousedown="handlePan(0,1)">
                  <use xlink:href="#rim" fill="#404040">
                        <set attributeName="fill" to="#808080" begin="arrowDown.mouseover" end="arrowDown.mouseout"/>
                  </use>
                  <path fill="none" stroke="white" stroke-width="1.5" d="M0,-3.0v7 M-2.5,-0.5L0,-3.0L2.5,-0.5"/>
                </g>
                <g id="arrowLeft" xlink:href="#dirArrow" transform="rotate(270) translate(-36 17)" onmousedown="handlePan(-1,0)">
                  <use xlink:href="#rim" fill="#404040">
                        <set attributeName="fill" to="#808080" begin="arrowLeft.mouseover" end="arrowLeft.mouseout"/>
                  </use>
                  <path fill="none" stroke="white" stroke-width="1.5" d="M0,-3.0v7 M-2.5,-0.5L0,-3.0L2.5,-0.5"/>
                </g>
        </g>
        <svg viewBox="0 0 15 15" width="100%" height="30px" preserveAspectRatio="xMaxYMin meet">
         <g id="arrow_out" transform="scale(0.3 0.3)">
          <a xlink:href="_i_value_8h__dep__incl_org.svg" target="_base">
           <rect id="button" ry="5" rx="5" y="6" x="6" height="38" width="38"
                fill="#f2f5e9" fill-opacity="0.5" stroke="#606060" stroke-width="1.0"/>
           <path id="arrow"
             d="M 11.500037,31.436501 C 11.940474,20.09759 22.043105,11.32322 32.158766,21.979434 L 37.068811,17.246167 C 37.068811,17.246167 37.088388,32 37.088388,32 L 22.160133,31.978069 C 22.160133,31.978069 26.997745,27.140456 26.997745,27.140456 C 18.528582,18.264221 13.291696,25.230495 11.500037,31.436501 z"
             style="fill:#404040;"/>
          </a>
         </g>
        </svg>
</svg>
