<?xml version="1.0" encoding="UTF-8" standalone="no"?>
<!DOCTYPE svg PUBLIC "-//W3C//DTD SVG 1.1//EN"
 "http://www.w3.org/Graphics/SVG/1.1/DTD/svg11.dtd">
<!-- Generated by graphviz version 2.43.0 (0)
 -->
<!-- Title: IExpr Pages: 1 -->
<svg width="367pt" height="419pt"
 viewBox="0.00 0.00 366.50 419.00" xmlns="http://www.w3.org/2000/svg" xmlns:xlink="http://www.w3.org/1999/xlink">
<g id="graph0" class="graph" transform="scale(1 1) rotate(0) translate(4 415)">
<title>IExpr</title>
<polygon fill="white" stroke="transparent" points="-4,4 -4,-415 362.5,-415 362.5,4 -4,4"/>
<!-- Node1 -->
<g id="node1" class="node">
<title>Node1</title>
<g id="a_node1"><a xlink:title="IExpr Base class for expressions.">
<polygon fill="#bfbfbf" stroke="black" points="145,-160.5 145,-272.5 213,-272.5 213,-160.5 145,-160.5"/>
<text text-anchor="middle" x="179" y="-260.5" font-family="Helvetica,sans-Serif" font-size="10.00">IExpr</text>
<polyline fill="none" stroke="black" points="145,-253.5 213,-253.5 "/>
<text text-anchor="middle" x="179" y="-241.5" font-family="Helvetica,sans-Serif" font-size="10.00"> </text>
<polyline fill="none" stroke="black" points="145,-234.5 213,-234.5 "/>
<text text-anchor="start" x="153" y="-222.5" font-family="Helvetica,sans-Serif" font-size="10.00">+ IExpr()</text>
<text text-anchor="start" x="153" y="-211.5" font-family="Helvetica,sans-Serif" font-size="10.00">+ eval()</text>
<text text-anchor="start" x="153" y="-200.5" font-family="Helvetica,sans-Serif" font-size="10.00">+ eval()</text>
<text text-anchor="start" x="153" y="-189.5" font-family="Helvetica,sans-Serif" font-size="10.00">+ clone()</text>
<text text-anchor="start" x="153" y="-178.5" font-family="Helvetica,sans-Serif" font-size="10.00">+ ~IExpr()</text>
<text text-anchor="start" x="153" y="-167.5" font-family="Helvetica,sans-Serif" font-size="10.00">+ parse()</text>
</a>
</g>
</g>
<!-- Node3 -->
<g id="node3" class="node">
<title>Node3</title>
<g id="a_node3"><a xlink:href="class_expr_number.html" target="_top" xlink:title="Literal numeric expression.">
<polygon fill="white" stroke="black" points="0,-6 0,-118 104,-118 104,-6 0,-6"/>
<text text-anchor="middle" x="52" y="-106" font-family="Helvetica,sans-Serif" font-size="10.00">ExprNumber</text>
<polyline fill="none" stroke="black" points="0,-99 104,-99 "/>
<text text-anchor="middle" x="52" y="-87" font-family="Helvetica,sans-Serif" font-size="10.00"> </text>
<polyline fill="none" stroke="black" points="0,-80 104,-80 "/>
<text text-anchor="start" x="8" y="-68" font-family="Helvetica,sans-Serif" font-size="10.00">+ ExprNumber()</text>
<text text-anchor="start" x="8" y="-57" font-family="Helvetica,sans-Serif" font-size="10.00">+ eval()</text>
<text text-anchor="start" x="8" y="-46" font-family="Helvetica,sans-Serif" font-size="10.00">+ eval()</text>
<text text-anchor="start" x="8" y="-35" font-family="Helvetica,sans-Serif" font-size="10.00">+ clone()</text>
<text text-anchor="start" x="8" y="-24" font-family="Helvetica,sans-Serif" font-size="10.00">+ operator==()</text>
<text text-anchor="start" x="8" y="-13" font-family="Helvetica,sans-Serif" font-size="10.00">+ ~ExprNumber()</text>
</a>
</g>
</g>
<!-- Node1&#45;&gt;Node3 -->
<g id="edge2" class="edge">
<title>Node1&#45;&gt;Node3</title>
<path fill="none" stroke="midnightblue" d="M138.36,-166.7C125.45,-151.2 111.08,-133.95 97.83,-118.03"/>
<polygon fill="none" stroke="midnightblue" points="135.88,-169.19 144.97,-174.63 141.26,-164.71 135.88,-169.19"/>
</g>
<!-- Node4 -->
<g id="node4" class="node">
<title>Node4</title>
<g id="a_node4"><a xlink:href="class_expr_operation.html" target="_top" xlink:title="Mathematical operation (+, &#45;, ==, ...)">
<polygon fill="white" stroke="black" points="122.5,-0.5 122.5,-123.5 235.5,-123.5 235.5,-0.5 122.5,-0.5"/>
<text text-anchor="middle" x="179" y="-111.5" font-family="Helvetica,sans-Serif" font-size="10.00">ExprOperation</text>
<polyline fill="none" stroke="black" points="122.5,-104.5 235.5,-104.5 "/>
<text text-anchor="middle" x="179" y="-92.5" font-family="Helvetica,sans-Serif" font-size="10.00"> </text>
<polyline fill="none" stroke="black" points="122.5,-85.5 235.5,-85.5 "/>
<text text-anchor="start" x="130.5" y="-73.5" font-family="Helvetica,sans-Serif" font-size="10.00">+ ExprOperation()</text>
<text text-anchor="start" x="130.5" y="-62.5" font-family="Helvetica,sans-Serif" font-size="10.00">+ ExprOperation()</text>
<text text-anchor="start" x="130.5" y="-51.5" font-family="Helvetica,sans-Serif" font-size="10.00">+ eval()</text>
<text text-anchor="start" x="130.5" y="-40.5" font-family="Helvetica,sans-Serif" font-size="10.00">+ eval()</text>
<text text-anchor="start" x="130.5" y="-29.5" font-family="Helvetica,sans-Serif" font-size="10.00">+ clone()</text>
<text text-anchor="start" x="130.5" y="-18.5" font-family="Helvetica,sans-Serif" font-size="10.00">+ operator==()</text>
<text text-anchor="start" x="130.5" y="-7.5" font-family="Helvetica,sans-Serif" font-size="10.00">+ ~ExprOperation()</text>
</a>
</g>
</g>
<!-- Node1&#45;&gt;Node4 -->
<g id="edge3" class="edge">
<title>Node1&#45;&gt;Node4</title>
<path fill="none" stroke="midnightblue" d="M179,-150.22C179,-141.4 179,-132.39 179,-123.66"/>
<polygon fill="none" stroke="midnightblue" points="175.5,-150.44 179,-160.44 182.5,-150.44 175.5,-150.44"/>
</g>
<!-- Node5 -->
<g id="node5" class="node">
<title>Node5</title>
<g id="a_node5"><a xlink:href="class_expr_variable.html" target="_top" xlink:title="Usage of existing variable.">
<polygon fill="white" stroke="black" points="253.5,-6 253.5,-118 358.5,-118 358.5,-6 253.5,-6"/>
<text text-anchor="middle" x="306" y="-106" font-family="Helvetica,sans-Serif" font-size="10.00">ExprVariable</text>
<polyline fill="none" stroke="black" points="253.5,-99 358.5,-99 "/>
<text text-anchor="middle" x="306" y="-87" font-family="Helvetica,sans-Serif" font-size="10.00"> </text>
<polyline fill="none" stroke="black" points="253.5,-80 358.5,-80 "/>
<text text-anchor="start" x="261.5" y="-68" font-family="Helvetica,sans-Serif" font-size="10.00">+ ExprVariable()</text>
<text text-anchor="start" x="261.5" y="-57" font-family="Helvetica,sans-Serif" font-size="10.00">+ eval()</text>
<text text-anchor="start" x="261.5" y="-46" font-family="Helvetica,sans-Serif" font-size="10.00">+ eval()</text>
<text text-anchor="start" x="261.5" y="-35" font-family="Helvetica,sans-Serif" font-size="10.00">+ clone()</text>
<text text-anchor="start" x="261.5" y="-24" font-family="Helvetica,sans-Serif" font-size="10.00">+ operator==()</text>
<text text-anchor="start" x="261.5" y="-13" font-family="Helvetica,sans-Serif" font-size="10.00">+ ~ExprVariable()</text>
</a>
</g>
</g>
<!-- Node1&#45;&gt;Node5 -->
<g id="edge4" class="edge">
<title>Node1&#45;&gt;Node5</title>
<path fill="none" stroke="midnightblue" d="M219.64,-166.7C232.55,-151.2 246.92,-133.95 260.17,-118.03"/>
<polygon fill="none" stroke="midnightblue" points="216.74,-164.71 213.03,-174.63 222.12,-169.19 216.74,-164.71"/>
</g>
<!-- Node2 -->
<g id="node2" class="node">
<title>Node2</title>
<g id="a_node2"><a xlink:href="class_i_statment.html" target="_top" xlink:title="Base class for all possible statments in the language.">
<polygon fill="white" stroke="black" points="133,-309.5 133,-410.5 225,-410.5 225,-309.5 133,-309.5"/>
<text text-anchor="middle" x="179" y="-398.5" font-family="Helvetica,sans-Serif" font-size="10.00">IStatment</text>
<polyline fill="none" stroke="black" points="133,-391.5 225,-391.5 "/>
<text text-anchor="middle" x="179" y="-379.5" font-family="Helvetica,sans-Serif" font-size="10.00"> </text>
<polyline fill="none" stroke="black" points="133,-372.5 225,-372.5 "/>
<text text-anchor="start" x="141" y="-360.5" font-family="Helvetica,sans-Serif" font-size="10.00">+ IStatment()</text>
<text text-anchor="start" x="141" y="-349.5" font-family="Helvetica,sans-Serif" font-size="10.00">+ eval()</text>
<text text-anchor="start" x="141" y="-338.5" font-family="Helvetica,sans-Serif" font-size="10.00">+ clone()</text>
<text text-anchor="start" x="141" y="-327.5" font-family="Helvetica,sans-Serif" font-size="10.00">+ ~IStatment()</text>
<text text-anchor="start" x="141" y="-316.5" font-family="Helvetica,sans-Serif" font-size="10.00">+ parse()</text>
</a>
</g>
</g>
<!-- Node2&#45;&gt;Node1 -->
<g id="edge1" class="edge">
<title>Node2&#45;&gt;Node1</title>
<path fill="none" stroke="midnightblue" d="M179,-299.01C179,-290.29 179,-281.34 179,-272.72"/>
<polygon fill="none" stroke="midnightblue" points="175.5,-299.11 179,-309.11 182.5,-299.11 175.5,-299.11"/>
</g>
</g>
</svg>
