<?xml version="1.0" encoding="UTF-8" standalone="no"?>
<!DOCTYPE svg PUBLIC "-//W3C//DTD SVG 1.1//EN"
 "http://www.w3.org/Graphics/SVG/1.1/DTD/svg11.dtd">
<!-- Generated by graphviz version 2.43.0 (0)
 -->
<!-- Title: ErrorStatment Pages: 1 -->
<svg width="196pt" height="259pt"
 viewBox="0.00 0.00 196.00 259.00" xmlns="http://www.w3.org/2000/svg" xmlns:xlink="http://www.w3.org/1999/xlink">
<g id="graph0" class="graph" transform="scale(1 1) rotate(0) translate(4 255)">
<title>ErrorStatment</title>
<polygon fill="white" stroke="transparent" points="-4,4 -4,-255 192,-255 192,4 -4,4"/>
<!-- Node1 -->
<g id="node1" class="node">
<title>Node1</title>
<g id="a_node1"><a xlink:title="Error value created when there is an error while evaluation.">
<polygon fill="#bfbfbf" stroke="black" points="45,-0.5 45,-112.5 149,-112.5 149,-0.5 45,-0.5"/>
<text text-anchor="middle" x="97" y="-100.5" font-family="Helvetica,sans-Serif" font-size="10.00">ErrorStatment</text>
<polyline fill="none" stroke="black" points="45,-93.5 149,-93.5 "/>
<text text-anchor="middle" x="97" y="-81.5" font-family="Helvetica,sans-Serif" font-size="10.00"> </text>
<polyline fill="none" stroke="black" points="45,-74.5 149,-74.5 "/>
<text text-anchor="start" x="53" y="-62.5" font-family="Helvetica,sans-Serif" font-size="10.00">+ ErrorStatment()</text>
<text text-anchor="start" x="53" y="-51.5" font-family="Helvetica,sans-Serif" font-size="10.00">+ ErrorStatment()</text>
<text text-anchor="start" x="53" y="-40.5" font-family="Helvetica,sans-Serif" font-size="10.00">+ eval()</text>
<text text-anchor="start" x="53" y="-29.5" font-family="Helvetica,sans-Serif" font-size="10.00">+ clone()</text>
<text text-anchor="start" x="53" y="-18.5" font-family="Helvetica,sans-Serif" font-size="10.00">+ value()</text>
<text text-anchor="start" x="53" y="-7.5" font-family="Helvetica,sans-Serif" font-size="10.00">+ error()</text>
</a>
</g>
</g>
<!-- Node2 -->
<g id="node2" class="node">
<title>Node2</title>
<g id="a_node2"><a xlink:href="class_i_statment.html" target="_top" xlink:title="Base class for all possible statments in the language.">
<polygon fill="white" stroke="black" points="0,-149.5 0,-250.5 92,-250.5 92,-149.5 0,-149.5"/>
<text text-anchor="middle" x="46" y="-238.5" font-family="Helvetica,sans-Serif" font-size="10.00">IStatment</text>
<polyline fill="none" stroke="black" points="0,-231.5 92,-231.5 "/>
<text text-anchor="middle" x="46" y="-219.5" font-family="Helvetica,sans-Serif" font-size="10.00"> </text>
<polyline fill="none" stroke="black" points="0,-212.5 92,-212.5 "/>
<text text-anchor="start" x="8" y="-200.5" font-family="Helvetica,sans-Serif" font-size="10.00">+ IStatment()</text>
<text text-anchor="start" x="8" y="-189.5" font-family="Helvetica,sans-Serif" font-size="10.00">+ eval()</text>
<text text-anchor="start" x="8" y="-178.5" font-family="Helvetica,sans-Serif" font-size="10.00">+ clone()</text>
<text text-anchor="start" x="8" y="-167.5" font-family="Helvetica,sans-Serif" font-size="10.00">+ ~IStatment()</text>
<text text-anchor="start" x="8" y="-156.5" font-family="Helvetica,sans-Serif" font-size="10.00">+ parse()</text>
</a>
</g>
</g>
<!-- Node2&#45;&gt;Node1 -->
<g id="edge1" class="edge">
<title>Node2&#45;&gt;Node1</title>
<path fill="none" stroke="midnightblue" d="M67.42,-139.58C70.63,-130.67 73.92,-121.53 77.1,-112.72"/>
<polygon fill="none" stroke="midnightblue" points="64.08,-138.52 63.98,-149.11 70.66,-140.89 64.08,-138.52"/>
</g>
<!-- Node3 -->
<g id="node3" class="node">
<title>Node3</title>
<g id="a_node3"><a xlink:href="class_i_value.html" target="_top" xlink:title="Base class for all possible evaluation results.">
<polygon fill="white" stroke="black" points="110,-149.5 110,-250.5 188,-250.5 188,-149.5 110,-149.5"/>
<text text-anchor="middle" x="149" y="-238.5" font-family="Helvetica,sans-Serif" font-size="10.00">IValue</text>
<polyline fill="none" stroke="black" points="110,-231.5 188,-231.5 "/>
<text text-anchor="middle" x="149" y="-219.5" font-family="Helvetica,sans-Serif" font-size="10.00"> </text>
<polyline fill="none" stroke="black" points="110,-212.5 188,-212.5 "/>
<text text-anchor="start" x="118" y="-200.5" font-family="Helvetica,sans-Serif" font-size="10.00">+ IValue()</text>
<text text-anchor="start" x="118" y="-189.5" font-family="Helvetica,sans-Serif" font-size="10.00">+ get_type()</text>
<text text-anchor="start" x="118" y="-178.5" font-family="Helvetica,sans-Serif" font-size="10.00">+ value()</text>
<text text-anchor="start" x="118" y="-167.5" font-family="Helvetica,sans-Serif" font-size="10.00">+ clone()</text>
<text text-anchor="start" x="118" y="-156.5" font-family="Helvetica,sans-Serif" font-size="10.00">+ ~IValue()</text>
</a>
</g>
</g>
<!-- Node3&#45;&gt;Node1 -->
<g id="edge2" class="edge">
<title>Node3&#45;&gt;Node1</title>
<path fill="none" stroke="midnightblue" d="M127.16,-139.58C123.89,-130.67 120.53,-121.53 117.29,-112.72"/>
<polygon fill="none" stroke="midnightblue" points="123.93,-140.93 130.67,-149.11 130.5,-138.52 123.93,-140.93"/>
</g>
</g>
</svg>
