<?xml version="1.0" encoding="UTF-8" standalone="no"?>
<!DOCTYPE svg PUBLIC "-//W3C//DTD SVG 1.1//EN"
 "http://www.w3.org/Graphics/SVG/1.1/DTD/svg11.dtd">
<!-- Generated by graphviz version 2.43.0 (0)
 -->
<!-- Title: Conditional::eval Pages: 1 -->
<svg width="498pt" height="142pt"
 viewBox="0.00 0.00 498.00 142.00" xmlns="http://www.w3.org/2000/svg" xmlns:xlink="http://www.w3.org/1999/xlink">
<g id="graph0" class="graph" transform="scale(1 1) rotate(0) translate(4 138)">
<title>Conditional::eval</title>
<polygon fill="white" stroke="transparent" points="-4,4 -4,-138 494,-138 494,4 -4,4"/>
<!-- Node1 -->
<g id="node1" class="node">
<title>Node1</title>
<g id="a_node1"><a xlink:title="Evaluates all the statments in either true or false block depending on evaluation of condition (all i...">
<polygon fill="#bfbfbf" stroke="black" points="0,-76.5 0,-95.5 99,-95.5 99,-76.5 0,-76.5"/>
<text text-anchor="middle" x="49.5" y="-83.5" font-family="Helvetica,sans-Serif" font-size="10.00">Conditional::eval</text>
</a>
</g>
</g>
<!-- Node2 -->
<g id="node2" class="node">
<title>Node2</title>
<g id="a_node2"><a xlink:href="class_i_statment.html#a025b03bf014221e27a23db0f0356120e" target="_top" xlink:title="Function uesed to evaluate statment in the scope.">
<polygon fill="white" stroke="black" points="135,-95.5 135,-114.5 227,-114.5 227,-95.5 135,-95.5"/>
<text text-anchor="middle" x="181" y="-102.5" font-family="Helvetica,sans-Serif" font-size="10.00">IStatment::eval</text>
</a>
</g>
</g>
<!-- Node1&#45;&gt;Node2 -->
<g id="edge1" class="edge">
<title>Node1&#45;&gt;Node2</title>
<path fill="none" stroke="midnightblue" d="M99.09,-93.13C107.55,-94.37 116.4,-95.67 125.02,-96.93"/>
<polygon fill="midnightblue" stroke="midnightblue" points="124.59,-100.41 134.99,-98.4 125.6,-93.48 124.59,-100.41"/>
</g>
<!-- Node3 -->
<g id="node3" class="node">
<title>Node3</title>
<g id="a_node3"><a xlink:href="class_block.html#a6410fa3655af7eb5ee7e1d474745d40f" target="_top" xlink:title="Evaluates all statment in block in current scope.">
<polygon fill="white" stroke="black" points="145.5,-57.5 145.5,-76.5 216.5,-76.5 216.5,-57.5 145.5,-57.5"/>
<text text-anchor="middle" x="181" y="-64.5" font-family="Helvetica,sans-Serif" font-size="10.00">Block::eval</text>
</a>
</g>
</g>
<!-- Node1&#45;&gt;Node3 -->
<g id="edge2" class="edge">
<title>Node1&#45;&gt;Node3</title>
<path fill="none" stroke="midnightblue" d="M99.09,-78.87C110.97,-77.13 123.62,-75.27 135.31,-73.56"/>
<polygon fill="midnightblue" stroke="midnightblue" points="135.9,-77.01 145.29,-72.09 134.88,-70.08 135.9,-77.01"/>
</g>
<!-- Node4 -->
<g id="node4" class="node">
<title>Node4</title>
<g id="a_node4"><a xlink:href="class_null.html#a7e65721f07e1c319495f82439f98dab6" target="_top" xlink:title="Function uesed to evaluate statment in the scope.">
<polygon fill="white" stroke="black" points="296,-114.5 296,-133.5 359,-133.5 359,-114.5 296,-114.5"/>
<text text-anchor="middle" x="327.5" y="-121.5" font-family="Helvetica,sans-Serif" font-size="10.00">Null::eval</text>
</a>
</g>
</g>
<!-- Node3&#45;&gt;Node4 -->
<g id="edge3" class="edge">
<title>Node3&#45;&gt;Node4</title>
<path fill="none" stroke="midnightblue" d="M205.99,-76.68C212.83,-79.56 220.26,-82.8 227,-86 243.35,-93.75 246.25,-98.15 263,-105 270.34,-108 278.33,-110.76 286.09,-113.2"/>
<polygon fill="midnightblue" stroke="midnightblue" points="285.14,-116.57 295.72,-116.1 287.15,-109.86 285.14,-116.57"/>
</g>
<!-- Node6 -->
<g id="node6" class="node">
<title>Node6</title>
<g id="a_node6"><a xlink:href="class_env.html#a58005057bcfc4f85383cc5ee5fd1111a" target="_top" xlink:title="Get value coresponding to variable name.">
<polygon fill="white" stroke="black" points="263,-76.5 263,-95.5 392,-95.5 392,-76.5 263,-76.5"/>
<text text-anchor="middle" x="327.5" y="-83.5" font-family="Helvetica,sans-Serif" font-size="10.00">Env::get_binding_value</text>
</a>
</g>
</g>
<!-- Node3&#45;&gt;Node6 -->
<g id="edge5" class="edge">
<title>Node3&#45;&gt;Node6</title>
<path fill="none" stroke="midnightblue" d="M216.61,-71.55C227.55,-72.99 240.08,-74.64 252.68,-76.29"/>
<polygon fill="midnightblue" stroke="midnightblue" points="252.39,-79.79 262.76,-77.62 253.31,-72.85 252.39,-79.79"/>
</g>
<!-- Node7 -->
<g id="node7" class="node">
<title>Node7</title>
<g id="a_node7"><a xlink:href="class_env.html#a15fcb12407211fcd32c5b1030f1fd605" target="_top" xlink:title="Get a mutable reference to variable bindings.">
<polygon fill="white" stroke="black" points="276.5,-38.5 276.5,-57.5 378.5,-57.5 378.5,-38.5 276.5,-38.5"/>
<text text-anchor="middle" x="327.5" y="-45.5" font-family="Helvetica,sans-Serif" font-size="10.00">Env::get_bindings</text>
</a>
</g>
</g>
<!-- Node3&#45;&gt;Node7 -->
<g id="edge6" class="edge">
<title>Node3&#45;&gt;Node7</title>
<path fill="none" stroke="midnightblue" d="M216.61,-62.45C231.41,-60.5 249.13,-58.17 265.97,-55.96"/>
<polygon fill="midnightblue" stroke="midnightblue" points="266.86,-59.37 276.31,-54.6 265.94,-52.43 266.86,-59.37"/>
</g>
<!-- Node8 -->
<g id="node8" class="node">
<title>Node8</title>
<g id="a_node8"><a xlink:href="class_env.html#ae215959a3872c8b6816222bb1634b31e" target="_top" xlink:title="Store variable name with coresponding value.">
<polygon fill="white" stroke="black" points="274.5,-0.5 274.5,-19.5 380.5,-19.5 380.5,-0.5 274.5,-0.5"/>
<text text-anchor="middle" x="327.5" y="-7.5" font-family="Helvetica,sans-Serif" font-size="10.00">Env::store_binding</text>
</a>
</g>
</g>
<!-- Node3&#45;&gt;Node8 -->
<g id="edge7" class="edge">
<title>Node3&#45;&gt;Node8</title>
<path fill="none" stroke="midnightblue" d="M200.32,-57.45C216.52,-49.24 240.94,-37.42 263,-29 268.93,-26.74 275.24,-24.57 281.51,-22.56"/>
<polygon fill="midnightblue" stroke="midnightblue" points="282.74,-25.84 291.25,-19.54 280.67,-19.16 282.74,-25.84"/>
</g>
<!-- Node5 -->
<g id="node5" class="node">
<title>Node5</title>
<g id="a_node5"><a xlink:href="class_null.html#aa3dfdc54d6066a4afda114d09f9245be" target="_top" xlink:title=" ">
<polygon fill="white" stroke="black" points="428,-114.5 428,-133.5 490,-133.5 490,-114.5 428,-114.5"/>
<text text-anchor="middle" x="459" y="-121.5" font-family="Helvetica,sans-Serif" font-size="10.00">Null::Null</text>
</a>
</g>
</g>
<!-- Node4&#45;&gt;Node5 -->
<g id="edge4" class="edge">
<title>Node4&#45;&gt;Node5</title>
<path fill="none" stroke="midnightblue" d="M359.19,-124C376.73,-124 398.94,-124 417.86,-124"/>
<polygon fill="midnightblue" stroke="midnightblue" points="417.98,-127.5 427.98,-124 417.98,-120.5 417.98,-127.5"/>
</g>
</g>
</svg>
