<?xml version="1.0" encoding="UTF-8" standalone="no"?>
<!DOCTYPE svg PUBLIC "-//W3C//DTD SVG 1.1//EN"
 "http://www.w3.org/Graphics/SVG/1.1/DTD/svg11.dtd">
<!-- Generated by graphviz version 2.43.0 (0)
 -->
<!-- Title: IStatment Pages: 1 -->
<svg width="1287pt" height="507pt"
 viewBox="0.00 0.00 1287.00 507.00" xmlns="http://www.w3.org/2000/svg" xmlns:xlink="http://www.w3.org/1999/xlink">
<g id="graph0" class="graph" transform="scale(1 1) rotate(0) translate(4 503)">
<title>IStatment</title>
<polygon fill="white" stroke="transparent" points="-4,4 -4,-503 1283,-503 1283,4 -4,4"/>
<!-- Node1 -->
<g id="node1" class="node">
<title>Node1</title>
<g id="a_node1"><a xlink:title="Base class for all possible statments in the language.">
<polygon fill="#bfbfbf" stroke="black" points="645.5,-397.5 645.5,-498.5 737.5,-498.5 737.5,-397.5 645.5,-397.5"/>
<text text-anchor="middle" x="691.5" y="-486.5" font-family="Helvetica,sans-Serif" font-size="10.00">IStatment</text>
<polyline fill="none" stroke="black" points="645.5,-479.5 737.5,-479.5 "/>
<text text-anchor="middle" x="691.5" y="-467.5" font-family="Helvetica,sans-Serif" font-size="10.00"> </text>
<polyline fill="none" stroke="black" points="645.5,-460.5 737.5,-460.5 "/>
<text text-anchor="start" x="653.5" y="-448.5" font-family="Helvetica,sans-Serif" font-size="10.00">+ IStatment()</text>
<text text-anchor="start" x="653.5" y="-437.5" font-family="Helvetica,sans-Serif" font-size="10.00">+ eval()</text>
<text text-anchor="start" x="653.5" y="-426.5" font-family="Helvetica,sans-Serif" font-size="10.00">+ clone()</text>
<text text-anchor="start" x="653.5" y="-415.5" font-family="Helvetica,sans-Serif" font-size="10.00">+ ~IStatment()</text>
<text text-anchor="start" x="653.5" y="-404.5" font-family="Helvetica,sans-Serif" font-size="10.00">+ parse()</text>
</a>
</g>
</g>
<!-- Node2 -->
<g id="node2" class="node">
<title>Node2</title>
<g id="a_node2"><a xlink:href="class_bind_def.html" target="_top" xlink:title="Variable binding statment.">
<polygon fill="white" stroke="black" points="0,-193.5 0,-327.5 93,-327.5 93,-193.5 0,-193.5"/>
<text text-anchor="middle" x="46.5" y="-315.5" font-family="Helvetica,sans-Serif" font-size="10.00">BindDef</text>
<polyline fill="none" stroke="black" points="0,-308.5 93,-308.5 "/>
<text text-anchor="middle" x="46.5" y="-296.5" font-family="Helvetica,sans-Serif" font-size="10.00"> </text>
<polyline fill="none" stroke="black" points="0,-289.5 93,-289.5 "/>
<text text-anchor="start" x="8" y="-277.5" font-family="Helvetica,sans-Serif" font-size="10.00">+ BindDef()</text>
<text text-anchor="start" x="8" y="-266.5" font-family="Helvetica,sans-Serif" font-size="10.00">+ BindDef()</text>
<text text-anchor="start" x="8" y="-255.5" font-family="Helvetica,sans-Serif" font-size="10.00">+ BindDef()</text>
<text text-anchor="start" x="8" y="-244.5" font-family="Helvetica,sans-Serif" font-size="10.00">+ ~BindDef()</text>
<text text-anchor="start" x="8" y="-233.5" font-family="Helvetica,sans-Serif" font-size="10.00">+ operator==()</text>
<text text-anchor="start" x="8" y="-222.5" font-family="Helvetica,sans-Serif" font-size="10.00">+ eval()</text>
<text text-anchor="start" x="8" y="-211.5" font-family="Helvetica,sans-Serif" font-size="10.00">+ clone()</text>
<text text-anchor="start" x="8" y="-200.5" font-family="Helvetica,sans-Serif" font-size="10.00">+ parse()</text>
</a>
</g>
</g>
<!-- Node1&#45;&gt;Node2 -->
<g id="edge1" class="edge">
<title>Node1&#45;&gt;Node2</title>
<path fill="none" stroke="midnightblue" d="M634.88,-445.06C504.44,-439.6 187.38,-420.42 101.5,-361 89.33,-352.58 79.57,-340.55 71.85,-327.75"/>
<polygon fill="none" stroke="midnightblue" points="634.92,-448.56 645.06,-445.47 635.21,-441.57 634.92,-448.56"/>
</g>
<!-- Node3 -->
<g id="node3" class="node">
<title>Node3</title>
<g id="a_node3"><a xlink:href="class_binding_usage.html" target="_top" xlink:title="Variable binding usage Value can be assigned to variable.">
<polygon fill="white" stroke="black" points="111,-193.5 111,-327.5 222,-327.5 222,-193.5 111,-193.5"/>
<text text-anchor="middle" x="166.5" y="-315.5" font-family="Helvetica,sans-Serif" font-size="10.00">BindingUsage</text>
<polyline fill="none" stroke="black" points="111,-308.5 222,-308.5 "/>
<text text-anchor="middle" x="166.5" y="-296.5" font-family="Helvetica,sans-Serif" font-size="10.00"> </text>
<polyline fill="none" stroke="black" points="111,-289.5 222,-289.5 "/>
<text text-anchor="start" x="119" y="-277.5" font-family="Helvetica,sans-Serif" font-size="10.00">+ BindingUsage()</text>
<text text-anchor="start" x="119" y="-266.5" font-family="Helvetica,sans-Serif" font-size="10.00">+ BindingUsage()</text>
<text text-anchor="start" x="119" y="-255.5" font-family="Helvetica,sans-Serif" font-size="10.00">+ BindingUsage()</text>
<text text-anchor="start" x="119" y="-244.5" font-family="Helvetica,sans-Serif" font-size="10.00">+ ~BindingUsage()</text>
<text text-anchor="start" x="119" y="-233.5" font-family="Helvetica,sans-Serif" font-size="10.00">+ operator==()</text>
<text text-anchor="start" x="119" y="-222.5" font-family="Helvetica,sans-Serif" font-size="10.00">+ eval()</text>
<text text-anchor="start" x="119" y="-211.5" font-family="Helvetica,sans-Serif" font-size="10.00">+ clone()</text>
<text text-anchor="start" x="119" y="-200.5" font-family="Helvetica,sans-Serif" font-size="10.00">+ parse()</text>
</a>
</g>
</g>
<!-- Node1&#45;&gt;Node3 -->
<g id="edge2" class="edge">
<title>Node1&#45;&gt;Node3</title>
<path fill="none" stroke="midnightblue" d="M635.4,-442.1C527.55,-431.79 296.12,-405.11 230.5,-361 217.8,-352.46 207.07,-340.47 198.24,-327.75"/>
<polygon fill="none" stroke="midnightblue" points="635.16,-445.59 645.44,-443.05 635.82,-438.62 635.16,-445.59"/>
</g>
<!-- Node4 -->
<g id="node4" class="node">
<title>Node4</title>
<g id="a_node4"><a xlink:href="class_block.html" target="_top" xlink:title="Code blocks &#45; scopes Always evaluate to the last statment in them for example:">
<polygon fill="white" stroke="black" points="240,-193.5 240,-327.5 333,-327.5 333,-193.5 240,-193.5"/>
<text text-anchor="middle" x="286.5" y="-315.5" font-family="Helvetica,sans-Serif" font-size="10.00">Block</text>
<polyline fill="none" stroke="black" points="240,-308.5 333,-308.5 "/>
<text text-anchor="middle" x="286.5" y="-296.5" font-family="Helvetica,sans-Serif" font-size="10.00"> </text>
<polyline fill="none" stroke="black" points="240,-289.5 333,-289.5 "/>
<text text-anchor="start" x="248" y="-277.5" font-family="Helvetica,sans-Serif" font-size="10.00">+ Block()</text>
<text text-anchor="start" x="248" y="-266.5" font-family="Helvetica,sans-Serif" font-size="10.00">+ Block()</text>
<text text-anchor="start" x="248" y="-255.5" font-family="Helvetica,sans-Serif" font-size="10.00">+ ~Block()</text>
<text text-anchor="start" x="248" y="-244.5" font-family="Helvetica,sans-Serif" font-size="10.00">+ operator==()</text>
<text text-anchor="start" x="248" y="-233.5" font-family="Helvetica,sans-Serif" font-size="10.00">+ eval()</text>
<text text-anchor="start" x="248" y="-222.5" font-family="Helvetica,sans-Serif" font-size="10.00">+ clone()</text>
<text text-anchor="start" x="248" y="-211.5" font-family="Helvetica,sans-Serif" font-size="10.00">+ parse()</text>
<text text-anchor="start" x="248" y="-200.5" font-family="Helvetica,sans-Serif" font-size="10.00">+ Parse()</text>
</a>
</g>
</g>
<!-- Node1&#45;&gt;Node4 -->
<g id="edge3" class="edge">
<title>Node1&#45;&gt;Node4</title>
<path fill="none" stroke="midnightblue" d="M635.3,-446.64C560.82,-443.4 428.69,-427.75 341.5,-361 329.98,-352.18 320.54,-340.22 312.94,-327.66"/>
<polygon fill="none" stroke="midnightblue" points="635.29,-450.14 645.42,-447.02 635.55,-443.15 635.29,-450.14"/>
</g>
<!-- Node5 -->
<g id="node5" class="node">
<title>Node5</title>
<g id="a_node5"><a xlink:href="class_conditional.html" target="_top" xlink:title="Conditional statments (if, else statments)">
<polygon fill="white" stroke="black" points="351,-204.5 351,-316.5 450,-316.5 450,-204.5 351,-204.5"/>
<text text-anchor="middle" x="400.5" y="-304.5" font-family="Helvetica,sans-Serif" font-size="10.00">Conditional</text>
<polyline fill="none" stroke="black" points="351,-297.5 450,-297.5 "/>
<text text-anchor="middle" x="400.5" y="-285.5" font-family="Helvetica,sans-Serif" font-size="10.00"> </text>
<polyline fill="none" stroke="black" points="351,-278.5 450,-278.5 "/>
<text text-anchor="start" x="359" y="-266.5" font-family="Helvetica,sans-Serif" font-size="10.00">+ Conditional()</text>
<text text-anchor="start" x="359" y="-255.5" font-family="Helvetica,sans-Serif" font-size="10.00">+ Conditional()</text>
<text text-anchor="start" x="359" y="-244.5" font-family="Helvetica,sans-Serif" font-size="10.00">+ eval()</text>
<text text-anchor="start" x="359" y="-233.5" font-family="Helvetica,sans-Serif" font-size="10.00">+ clone()</text>
<text text-anchor="start" x="359" y="-222.5" font-family="Helvetica,sans-Serif" font-size="10.00">+ ~Conditional()</text>
<text text-anchor="start" x="359" y="-211.5" font-family="Helvetica,sans-Serif" font-size="10.00">+ parse()</text>
</a>
</g>
</g>
<!-- Node1&#45;&gt;Node5 -->
<g id="edge4" class="edge">
<title>Node1&#45;&gt;Node5</title>
<path fill="none" stroke="midnightblue" d="M635.69,-437.35C585.04,-426.23 510.68,-403.7 459.5,-361 445.16,-349.04 433.45,-332.63 424.36,-316.6"/>
<polygon fill="none" stroke="midnightblue" points="634.98,-440.78 645.49,-439.43 636.43,-433.93 634.98,-440.78"/>
</g>
<!-- Node6 -->
<g id="node6" class="node">
<title>Node6</title>
<g id="a_node6"><a xlink:href="class_error_statment.html" target="_top" xlink:title="Error value created when there is an error while evaluation.">
<polygon fill="white" stroke="black" points="468.5,-204.5 468.5,-316.5 572.5,-316.5 572.5,-204.5 468.5,-204.5"/>
<text text-anchor="middle" x="520.5" y="-304.5" font-family="Helvetica,sans-Serif" font-size="10.00">ErrorStatment</text>
<polyline fill="none" stroke="black" points="468.5,-297.5 572.5,-297.5 "/>
<text text-anchor="middle" x="520.5" y="-285.5" font-family="Helvetica,sans-Serif" font-size="10.00"> </text>
<polyline fill="none" stroke="black" points="468.5,-278.5 572.5,-278.5 "/>
<text text-anchor="start" x="476.5" y="-266.5" font-family="Helvetica,sans-Serif" font-size="10.00">+ ErrorStatment()</text>
<text text-anchor="start" x="476.5" y="-255.5" font-family="Helvetica,sans-Serif" font-size="10.00">+ ErrorStatment()</text>
<text text-anchor="start" x="476.5" y="-244.5" font-family="Helvetica,sans-Serif" font-size="10.00">+ eval()</text>
<text text-anchor="start" x="476.5" y="-233.5" font-family="Helvetica,sans-Serif" font-size="10.00">+ clone()</text>
<text text-anchor="start" x="476.5" y="-222.5" font-family="Helvetica,sans-Serif" font-size="10.00">+ value()</text>
<text text-anchor="start" x="476.5" y="-211.5" font-family="Helvetica,sans-Serif" font-size="10.00">+ error()</text>
</a>
</g>
</g>
<!-- Node1&#45;&gt;Node6 -->
<g id="edge5" class="edge">
<title>Node1&#45;&gt;Node6</title>
<path fill="none" stroke="midnightblue" d="M637.07,-410.52C618.2,-396.37 597.74,-379.2 581.5,-361 569.63,-347.7 558.71,-331.78 549.49,-316.62"/>
<polygon fill="none" stroke="midnightblue" points="635.19,-413.49 645.31,-416.6 639.34,-407.85 635.19,-413.49"/>
</g>
<!-- Node7 -->
<g id="node7" class="node">
<title>Node7</title>
<g id="a_node7"><a xlink:href="class_func_call.html" target="_top" xlink:title=" ">
<polygon fill="white" stroke="black" points="591,-204.5 591,-316.5 676,-316.5 676,-204.5 591,-204.5"/>
<text text-anchor="middle" x="633.5" y="-304.5" font-family="Helvetica,sans-Serif" font-size="10.00">FuncCall</text>
<polyline fill="none" stroke="black" points="591,-297.5 676,-297.5 "/>
<text text-anchor="middle" x="633.5" y="-285.5" font-family="Helvetica,sans-Serif" font-size="10.00"> </text>
<polyline fill="none" stroke="black" points="591,-278.5 676,-278.5 "/>
<text text-anchor="start" x="599" y="-266.5" font-family="Helvetica,sans-Serif" font-size="10.00">+ FuncCall()</text>
<text text-anchor="start" x="599" y="-255.5" font-family="Helvetica,sans-Serif" font-size="10.00">+ FuncCall()</text>
<text text-anchor="start" x="599" y="-244.5" font-family="Helvetica,sans-Serif" font-size="10.00">+ eval()</text>
<text text-anchor="start" x="599" y="-233.5" font-family="Helvetica,sans-Serif" font-size="10.00">+ clone()</text>
<text text-anchor="start" x="599" y="-222.5" font-family="Helvetica,sans-Serif" font-size="10.00">+ ~FuncCall()</text>
<text text-anchor="start" x="599" y="-211.5" font-family="Helvetica,sans-Serif" font-size="10.00">+ parse()</text>
</a>
</g>
</g>
<!-- Node1&#45;&gt;Node7 -->
<g id="edge6" class="edge">
<title>Node1&#45;&gt;Node7</title>
<path fill="none" stroke="midnightblue" d="M672.97,-387.72C665.83,-364.91 657.72,-338.98 650.72,-316.58"/>
<polygon fill="none" stroke="midnightblue" points="669.63,-388.79 675.96,-397.29 676.31,-386.7 669.63,-388.79"/>
</g>
<!-- Node8 -->
<g id="node8" class="node">
<title>Node8</title>
<g id="a_node8"><a xlink:href="class_func_def.html" target="_top" xlink:title="Function definitions.">
<polygon fill="white" stroke="black" points="694.5,-188 694.5,-333 804.5,-333 804.5,-188 694.5,-188"/>
<text text-anchor="middle" x="749.5" y="-321" font-family="Helvetica,sans-Serif" font-size="10.00">FuncDef</text>
<polyline fill="none" stroke="black" points="694.5,-314 804.5,-314 "/>
<text text-anchor="middle" x="749.5" y="-302" font-family="Helvetica,sans-Serif" font-size="10.00"> </text>
<polyline fill="none" stroke="black" points="694.5,-295 804.5,-295 "/>
<text text-anchor="start" x="702.5" y="-283" font-family="Helvetica,sans-Serif" font-size="10.00">+ FuncDef()</text>
<text text-anchor="start" x="702.5" y="-272" font-family="Helvetica,sans-Serif" font-size="10.00">+ FuncDef()</text>
<text text-anchor="start" x="702.5" y="-261" font-family="Helvetica,sans-Serif" font-size="10.00">+ FuncDef()</text>
<text text-anchor="start" x="702.5" y="-250" font-family="Helvetica,sans-Serif" font-size="10.00">+ eval()</text>
<text text-anchor="start" x="702.5" y="-239" font-family="Helvetica,sans-Serif" font-size="10.00">+ clone()</text>
<text text-anchor="start" x="702.5" y="-228" font-family="Helvetica,sans-Serif" font-size="10.00">+ get_arg_names()</text>
<text text-anchor="start" x="702.5" y="-217" font-family="Helvetica,sans-Serif" font-size="10.00">+ get_func_body()</text>
<text text-anchor="start" x="702.5" y="-206" font-family="Helvetica,sans-Serif" font-size="10.00">+ ~FuncDef()</text>
<text text-anchor="start" x="702.5" y="-195" font-family="Helvetica,sans-Serif" font-size="10.00">+ parse()</text>
</a>
</g>
</g>
<!-- Node1&#45;&gt;Node8 -->
<g id="edge7" class="edge">
<title>Node1&#45;&gt;Node8</title>
<path fill="none" stroke="midnightblue" d="M710.14,-387.38C715.52,-370.16 721.46,-351.19 727.04,-333.32"/>
<polygon fill="none" stroke="midnightblue" points="706.69,-386.7 707.04,-397.29 713.37,-388.79 706.69,-386.7"/>
</g>
<!-- Node9 -->
<g id="node9" class="node">
<title>Node9</title>
<g id="a_node9"><a xlink:href="class_i_expr.html" target="_top" xlink:title="IExpr Base class for expressions.">
<polygon fill="white" stroke="black" points="822.5,-204.5 822.5,-316.5 890.5,-316.5 890.5,-204.5 822.5,-204.5"/>
<text text-anchor="middle" x="856.5" y="-304.5" font-family="Helvetica,sans-Serif" font-size="10.00">IExpr</text>
<polyline fill="none" stroke="black" points="822.5,-297.5 890.5,-297.5 "/>
<text text-anchor="middle" x="856.5" y="-285.5" font-family="Helvetica,sans-Serif" font-size="10.00"> </text>
<polyline fill="none" stroke="black" points="822.5,-278.5 890.5,-278.5 "/>
<text text-anchor="start" x="830.5" y="-266.5" font-family="Helvetica,sans-Serif" font-size="10.00">+ IExpr()</text>
<text text-anchor="start" x="830.5" y="-255.5" font-family="Helvetica,sans-Serif" font-size="10.00">+ eval()</text>
<text text-anchor="start" x="830.5" y="-244.5" font-family="Helvetica,sans-Serif" font-size="10.00">+ eval()</text>
<text text-anchor="start" x="830.5" y="-233.5" font-family="Helvetica,sans-Serif" font-size="10.00">+ clone()</text>
<text text-anchor="start" x="830.5" y="-222.5" font-family="Helvetica,sans-Serif" font-size="10.00">+ ~IExpr()</text>
<text text-anchor="start" x="830.5" y="-211.5" font-family="Helvetica,sans-Serif" font-size="10.00">+ parse()</text>
</a>
</g>
</g>
<!-- Node1&#45;&gt;Node9 -->
<g id="edge8" class="edge">
<title>Node1&#45;&gt;Node9</title>
<path fill="none" stroke="midnightblue" d="M746.4,-417.43C769.48,-402.86 795.17,-383.56 813.5,-361 824.06,-348 832.48,-332.02 838.96,-316.69"/>
<polygon fill="none" stroke="midnightblue" points="744.39,-414.56 737.7,-422.78 748.05,-420.52 744.39,-414.56"/>
</g>
<!-- Node13 -->
<g id="node13" class="node">
<title>Node13</title>
<g id="a_node13"><a xlink:href="class_loop.html" target="_top" xlink:title="While loop statments.">
<polygon fill="white" stroke="black" points="909,-204.5 909,-316.5 976,-316.5 976,-204.5 909,-204.5"/>
<text text-anchor="middle" x="942.5" y="-304.5" font-family="Helvetica,sans-Serif" font-size="10.00">Loop</text>
<polyline fill="none" stroke="black" points="909,-297.5 976,-297.5 "/>
<text text-anchor="middle" x="942.5" y="-285.5" font-family="Helvetica,sans-Serif" font-size="10.00"> </text>
<polyline fill="none" stroke="black" points="909,-278.5 976,-278.5 "/>
<text text-anchor="start" x="917" y="-266.5" font-family="Helvetica,sans-Serif" font-size="10.00">+ Loop()</text>
<text text-anchor="start" x="917" y="-255.5" font-family="Helvetica,sans-Serif" font-size="10.00">+ Loop()</text>
<text text-anchor="start" x="917" y="-244.5" font-family="Helvetica,sans-Serif" font-size="10.00">+ ~Loop()</text>
<text text-anchor="start" x="917" y="-233.5" font-family="Helvetica,sans-Serif" font-size="10.00">+ eval()</text>
<text text-anchor="start" x="917" y="-222.5" font-family="Helvetica,sans-Serif" font-size="10.00">+ clone()</text>
<text text-anchor="start" x="917" y="-211.5" font-family="Helvetica,sans-Serif" font-size="10.00">+ parse()</text>
</a>
</g>
</g>
<!-- Node1&#45;&gt;Node13 -->
<g id="edge12" class="edge">
<title>Node1&#45;&gt;Node13</title>
<path fill="none" stroke="midnightblue" d="M747.47,-436.12C793.5,-424.57 857.73,-402.11 899.5,-361 911.84,-348.86 920.86,-332.59 927.36,-316.73"/>
<polygon fill="none" stroke="midnightblue" points="746.55,-432.75 737.65,-438.49 748.19,-439.55 746.55,-432.75"/>
</g>
<!-- Node14 -->
<g id="node14" class="node">
<title>Node14</title>
<g id="a_node14"><a xlink:href="class_matrix.html" target="_top" xlink:title=" ">
<polygon fill="white" stroke="black" points="994,-160.5 994,-360.5 1087,-360.5 1087,-160.5 994,-160.5"/>
<text text-anchor="middle" x="1040.5" y="-348.5" font-family="Helvetica,sans-Serif" font-size="10.00">Matrix</text>
<polyline fill="none" stroke="black" points="994,-341.5 1087,-341.5 "/>
<text text-anchor="middle" x="1040.5" y="-329.5" font-family="Helvetica,sans-Serif" font-size="10.00"> </text>
<polyline fill="none" stroke="black" points="994,-322.5 1087,-322.5 "/>
<text text-anchor="start" x="1002" y="-310.5" font-family="Helvetica,sans-Serif" font-size="10.00">+ Matrix()</text>
<text text-anchor="start" x="1002" y="-299.5" font-family="Helvetica,sans-Serif" font-size="10.00">+ operator==()</text>
<text text-anchor="start" x="1002" y="-288.5" font-family="Helvetica,sans-Serif" font-size="10.00">+ operator!=()</text>
<text text-anchor="start" x="1002" y="-277.5" font-family="Helvetica,sans-Serif" font-size="10.00">+ operator*()</text>
<text text-anchor="start" x="1002" y="-266.5" font-family="Helvetica,sans-Serif" font-size="10.00">+ operator%()</text>
<text text-anchor="start" x="1002" y="-255.5" font-family="Helvetica,sans-Serif" font-size="10.00">+ operator&gt;()</text>
<text text-anchor="start" x="1002" y="-244.5" font-family="Helvetica,sans-Serif" font-size="10.00">+ operator&lt;()</text>
<text text-anchor="start" x="1002" y="-233.5" font-family="Helvetica,sans-Serif" font-size="10.00">+ operator+()</text>
<text text-anchor="start" x="1002" y="-222.5" font-family="Helvetica,sans-Serif" font-size="10.00">+ operator&#45;()</text>
<text text-anchor="start" x="1002" y="-211.5" font-family="Helvetica,sans-Serif" font-size="10.00">+ value()</text>
<text text-anchor="start" x="1002" y="-200.5" font-family="Helvetica,sans-Serif" font-size="10.00">+ get_value()</text>
<text text-anchor="start" x="1002" y="-189.5" font-family="Helvetica,sans-Serif" font-size="10.00">+ eval()</text>
<text text-anchor="start" x="1002" y="-178.5" font-family="Helvetica,sans-Serif" font-size="10.00">+ ~Matrix()</text>
<text text-anchor="start" x="1002" y="-167.5" font-family="Helvetica,sans-Serif" font-size="10.00">+ parse()</text>
</a>
</g>
</g>
<!-- Node1&#45;&gt;Node14 -->
<g id="edge13" class="edge">
<title>Node1&#45;&gt;Node14</title>
<path fill="none" stroke="midnightblue" d="M748.04,-443.2C811.95,-436.24 916.1,-416.58 985.5,-361 988.43,-358.66 991.22,-356.11 993.89,-353.41"/>
<polygon fill="none" stroke="midnightblue" points="747.35,-439.75 737.75,-444.24 748.05,-446.71 747.35,-439.75"/>
</g>
<!-- Node15 -->
<g id="node15" class="node">
<title>Node15</title>
<g id="a_node15"><a xlink:href="class_null.html" target="_top" xlink:title="Null value.">
<polygon fill="white" stroke="black" points="1105,-199 1105,-322 1168,-322 1168,-199 1105,-199"/>
<text text-anchor="middle" x="1136.5" y="-310" font-family="Helvetica,sans-Serif" font-size="10.00">Null</text>
<polyline fill="none" stroke="black" points="1105,-303 1168,-303 "/>
<text text-anchor="middle" x="1136.5" y="-291" font-family="Helvetica,sans-Serif" font-size="10.00"> </text>
<polyline fill="none" stroke="black" points="1105,-284 1168,-284 "/>
<text text-anchor="start" x="1113" y="-272" font-family="Helvetica,sans-Serif" font-size="10.00">+ Null()</text>
<text text-anchor="start" x="1113" y="-261" font-family="Helvetica,sans-Serif" font-size="10.00">+ Null()</text>
<text text-anchor="start" x="1113" y="-250" font-family="Helvetica,sans-Serif" font-size="10.00">+ value()</text>
<text text-anchor="start" x="1113" y="-239" font-family="Helvetica,sans-Serif" font-size="10.00">+ eval()</text>
<text text-anchor="start" x="1113" y="-228" font-family="Helvetica,sans-Serif" font-size="10.00">+ clone()</text>
<text text-anchor="start" x="1113" y="-217" font-family="Helvetica,sans-Serif" font-size="10.00">+ ~Null()</text>
<text text-anchor="start" x="1113" y="-206" font-family="Helvetica,sans-Serif" font-size="10.00">+ parse()</text>
</a>
</g>
</g>
<!-- Node1&#45;&gt;Node15 -->
<g id="edge14" class="edge">
<title>Node1&#45;&gt;Node15</title>
<path fill="none" stroke="midnightblue" d="M747.91,-441.56C846.4,-431.03 1044.22,-404.94 1096.5,-361 1108.54,-350.88 1116.99,-336.6 1122.91,-322.01"/>
<polygon fill="none" stroke="midnightblue" points="747.42,-438.1 737.84,-442.62 748.15,-445.06 747.42,-438.1"/>
</g>
<!-- Node16 -->
<g id="node16" class="node">
<title>Node16</title>
<g id="a_node16"><a xlink:href="class_number.html" target="_top" xlink:title="Repersentation of a number in whole language.">
<polygon fill="white" stroke="black" points="1186,-177 1186,-344 1279,-344 1279,-177 1186,-177"/>
<text text-anchor="middle" x="1232.5" y="-332" font-family="Helvetica,sans-Serif" font-size="10.00">Number</text>
<polyline fill="none" stroke="black" points="1186,-325 1279,-325 "/>
<text text-anchor="middle" x="1232.5" y="-313" font-family="Helvetica,sans-Serif" font-size="10.00"> </text>
<polyline fill="none" stroke="black" points="1186,-306 1279,-306 "/>
<text text-anchor="start" x="1194" y="-294" font-family="Helvetica,sans-Serif" font-size="10.00">+ Number()</text>
<text text-anchor="start" x="1194" y="-283" font-family="Helvetica,sans-Serif" font-size="10.00">+ Number()</text>
<text text-anchor="start" x="1194" y="-272" font-family="Helvetica,sans-Serif" font-size="10.00">+ operator==()</text>
<text text-anchor="start" x="1194" y="-261" font-family="Helvetica,sans-Serif" font-size="10.00">+ operator!=()</text>
<text text-anchor="start" x="1194" y="-250" font-family="Helvetica,sans-Serif" font-size="10.00">+ value()</text>
<text text-anchor="start" x="1194" y="-239" font-family="Helvetica,sans-Serif" font-size="10.00">+ get_value()</text>
<text text-anchor="start" x="1194" y="-228" font-family="Helvetica,sans-Serif" font-size="10.00">+ eval()</text>
<text text-anchor="start" x="1194" y="-217" font-family="Helvetica,sans-Serif" font-size="10.00">+ clone()</text>
<text text-anchor="start" x="1194" y="-206" font-family="Helvetica,sans-Serif" font-size="10.00">+ ~Number()</text>
<text text-anchor="start" x="1194" y="-195" font-family="Helvetica,sans-Serif" font-size="10.00">+ Parse()</text>
<text text-anchor="start" x="1194" y="-184" font-family="Helvetica,sans-Serif" font-size="10.00">+ parse()</text>
</a>
</g>
</g>
<!-- Node1&#45;&gt;Node16 -->
<g id="edge15" class="edge">
<title>Node1&#45;&gt;Node16</title>
<path fill="none" stroke="midnightblue" d="M748.02,-443.07C860.88,-434.27 1109.22,-409.8 1177.5,-361 1184.08,-356.29 1189.97,-350.54 1195.21,-344.2"/>
<polygon fill="none" stroke="midnightblue" points="747.56,-439.6 737.85,-443.85 748.09,-446.58 747.56,-439.6"/>
</g>
<!-- Node10 -->
<g id="node10" class="node">
<title>Node10</title>
<g id="a_node10"><a xlink:href="class_expr_number.html" target="_top" xlink:title="Literal numeric expression.">
<polygon fill="white" stroke="black" points="677.5,-6 677.5,-118 781.5,-118 781.5,-6 677.5,-6"/>
<text text-anchor="middle" x="729.5" y="-106" font-family="Helvetica,sans-Serif" font-size="10.00">ExprNumber</text>
<polyline fill="none" stroke="black" points="677.5,-99 781.5,-99 "/>
<text text-anchor="middle" x="729.5" y="-87" font-family="Helvetica,sans-Serif" font-size="10.00"> </text>
<polyline fill="none" stroke="black" points="677.5,-80 781.5,-80 "/>
<text text-anchor="start" x="685.5" y="-68" font-family="Helvetica,sans-Serif" font-size="10.00">+ ExprNumber()</text>
<text text-anchor="start" x="685.5" y="-57" font-family="Helvetica,sans-Serif" font-size="10.00">+ eval()</text>
<text text-anchor="start" x="685.5" y="-46" font-family="Helvetica,sans-Serif" font-size="10.00">+ eval()</text>
<text text-anchor="start" x="685.5" y="-35" font-family="Helvetica,sans-Serif" font-size="10.00">+ clone()</text>
<text text-anchor="start" x="685.5" y="-24" font-family="Helvetica,sans-Serif" font-size="10.00">+ operator==()</text>
<text text-anchor="start" x="685.5" y="-13" font-family="Helvetica,sans-Serif" font-size="10.00">+ ~ExprNumber()</text>
</a>
</g>
</g>
<!-- Node9&#45;&gt;Node10 -->
<g id="edge9" class="edge">
<title>Node9&#45;&gt;Node10</title>
<path fill="none" stroke="midnightblue" d="M831.97,-194.79C826.5,-182.89 820.29,-170.81 813.5,-160 804.32,-145.38 793,-130.72 781.67,-117.39"/>
<polygon fill="none" stroke="midnightblue" points="828.92,-196.56 836.19,-204.27 835.32,-193.71 828.92,-196.56"/>
</g>
<!-- Node11 -->
<g id="node11" class="node">
<title>Node11</title>
<g id="a_node11"><a xlink:href="class_expr_operation.html" target="_top" xlink:title="Mathematical operation (+, &#45;, ==, ...)">
<polygon fill="white" stroke="black" points="800,-0.5 800,-123.5 913,-123.5 913,-0.5 800,-0.5"/>
<text text-anchor="middle" x="856.5" y="-111.5" font-family="Helvetica,sans-Serif" font-size="10.00">ExprOperation</text>
<polyline fill="none" stroke="black" points="800,-104.5 913,-104.5 "/>
<text text-anchor="middle" x="856.5" y="-92.5" font-family="Helvetica,sans-Serif" font-size="10.00"> </text>
<polyline fill="none" stroke="black" points="800,-85.5 913,-85.5 "/>
<text text-anchor="start" x="808" y="-73.5" font-family="Helvetica,sans-Serif" font-size="10.00">+ ExprOperation()</text>
<text text-anchor="start" x="808" y="-62.5" font-family="Helvetica,sans-Serif" font-size="10.00">+ ExprOperation()</text>
<text text-anchor="start" x="808" y="-51.5" font-family="Helvetica,sans-Serif" font-size="10.00">+ eval()</text>
<text text-anchor="start" x="808" y="-40.5" font-family="Helvetica,sans-Serif" font-size="10.00">+ eval()</text>
<text text-anchor="start" x="808" y="-29.5" font-family="Helvetica,sans-Serif" font-size="10.00">+ clone()</text>
<text text-anchor="start" x="808" y="-18.5" font-family="Helvetica,sans-Serif" font-size="10.00">+ operator==()</text>
<text text-anchor="start" x="808" y="-7.5" font-family="Helvetica,sans-Serif" font-size="10.00">+ ~ExprOperation()</text>
</a>
</g>
</g>
<!-- Node9&#45;&gt;Node11 -->
<g id="edge10" class="edge">
<title>Node9&#45;&gt;Node11</title>
<path fill="none" stroke="midnightblue" d="M856.5,-194.02C856.5,-171.32 856.5,-145.99 856.5,-123.7"/>
<polygon fill="none" stroke="midnightblue" points="853,-194.24 856.5,-204.24 860,-194.24 853,-194.24"/>
</g>
<!-- Node12 -->
<g id="node12" class="node">
<title>Node12</title>
<g id="a_node12"><a xlink:href="class_expr_variable.html" target="_top" xlink:title="Usage of existing variable.">
<polygon fill="white" stroke="black" points="931,-6 931,-118 1036,-118 1036,-6 931,-6"/>
<text text-anchor="middle" x="983.5" y="-106" font-family="Helvetica,sans-Serif" font-size="10.00">ExprVariable</text>
<polyline fill="none" stroke="black" points="931,-99 1036,-99 "/>
<text text-anchor="middle" x="983.5" y="-87" font-family="Helvetica,sans-Serif" font-size="10.00"> </text>
<polyline fill="none" stroke="black" points="931,-80 1036,-80 "/>
<text text-anchor="start" x="939" y="-68" font-family="Helvetica,sans-Serif" font-size="10.00">+ ExprVariable()</text>
<text text-anchor="start" x="939" y="-57" font-family="Helvetica,sans-Serif" font-size="10.00">+ eval()</text>
<text text-anchor="start" x="939" y="-46" font-family="Helvetica,sans-Serif" font-size="10.00">+ eval()</text>
<text text-anchor="start" x="939" y="-35" font-family="Helvetica,sans-Serif" font-size="10.00">+ clone()</text>
<text text-anchor="start" x="939" y="-24" font-family="Helvetica,sans-Serif" font-size="10.00">+ operator==()</text>
<text text-anchor="start" x="939" y="-13" font-family="Helvetica,sans-Serif" font-size="10.00">+ ~ExprVariable()</text>
</a>
</g>
</g>
<!-- Node9&#45;&gt;Node12 -->
<g id="edge11" class="edge">
<title>Node9&#45;&gt;Node12</title>
<path fill="none" stroke="midnightblue" d="M881.63,-195.19C887.24,-183.17 893.6,-170.95 900.5,-160 909.54,-145.65 920.58,-131.22 931.63,-118.03"/>
<polygon fill="none" stroke="midnightblue" points="878.43,-193.77 877.49,-204.33 884.81,-196.67 878.43,-193.77"/>
</g>
</g>
</svg>
