<?xml version="1.0" encoding="UTF-8" standalone="no"?>
<!DOCTYPE svg PUBLIC "-//W3C//DTD SVG 1.1//EN"
 "http://www.w3.org/Graphics/SVG/1.1/DTD/svg11.dtd">
<!-- Generated by graphviz version 2.43.0 (0)
 -->
<!-- Title: language/env.h Pages: 1 -->
<svg width="1485pt" height="308pt"
 viewBox="0.00 0.00 1484.50 308.00" xmlns="http://www.w3.org/2000/svg" xmlns:xlink="http://www.w3.org/1999/xlink">
<g id="graph0" class="graph" transform="scale(1 1) rotate(0) translate(4 304)">
<title>language/env.h</title>
<polygon fill="white" stroke="transparent" points="-4,4 -4,-304 1480.5,-304 1480.5,4 -4,4"/>
<!-- Node1 -->
<g id="node1" class="node">
<title>Node1</title>
<g id="a_node1"><a xlink:title=" ">
<polygon fill="#bfbfbf" stroke="black" points="915.5,-280.5 915.5,-299.5 1006.5,-299.5 1006.5,-280.5 915.5,-280.5"/>
<text text-anchor="middle" x="961" y="-287.5" font-family="Helvetica,sans-Serif" font-size="10.00">language/env.h</text>
</a>
</g>
</g>
<!-- Node2 -->
<g id="node2" class="node">
<title>Node2</title>
<g id="a_node2"><a xlink:href="parser_8h.html" target="_top" xlink:title=" ">
<polygon fill="white" stroke="black" points="465,-224.5 465,-243.5 569,-243.5 569,-224.5 465,-224.5"/>
<text text-anchor="middle" x="517" y="-231.5" font-family="Helvetica,sans-Serif" font-size="10.00">language/parser.h</text>
</a>
</g>
</g>
<!-- Node1&#45;&gt;Node2 -->
<g id="edge1" class="edge">
<title>Node1&#45;&gt;Node2</title>
<path fill="none" stroke="midnightblue" d="M905,-282.19C818.4,-271.66 653.22,-251.57 569.07,-241.33"/>
<polygon fill="midnightblue" stroke="midnightblue" points="904.81,-285.69 915.16,-283.42 905.65,-278.74 904.81,-285.69"/>
</g>
<!-- Node8 -->
<g id="node8" class="node">
<title>Node8</title>
<g id="a_node8"><a xlink:href="_binding_usage_8cc.html" target="_top" xlink:title=" ">
<polygon fill="white" stroke="black" points="0,-0.5 0,-19.5 146,-19.5 146,-0.5 0,-0.5"/>
<text text-anchor="middle" x="73" y="-7.5" font-family="Helvetica,sans-Serif" font-size="10.00">language/BindingUsage.cc</text>
</a>
</g>
</g>
<!-- Node1&#45;&gt;Node8 -->
<g id="edge27" class="edge">
<title>Node1&#45;&gt;Node8</title>
<path fill="none" stroke="midnightblue" d="M905.07,-286.93C727.48,-279.63 188,-251.48 188,-179 188,-179 188,-179 188,-121 188,-69.47 126.97,-34.64 93.83,-19.53"/>
<polygon fill="midnightblue" stroke="midnightblue" points="905.11,-290.44 915.25,-287.34 905.4,-283.44 905.11,-290.44"/>
</g>
<!-- Node18 -->
<g id="node18" class="node">
<title>Node18</title>
<g id="a_node18"><a xlink:href="_test_bind_8cc.html" target="_top" xlink:title=" ">
<polygon fill="white" stroke="black" points="1335.5,-0.5 1335.5,-19.5 1476.5,-19.5 1476.5,-0.5 1335.5,-0.5"/>
<text text-anchor="middle" x="1406" y="-7.5" font-family="Helvetica,sans-Serif" font-size="10.00">language/test/TestBind.cc</text>
</a>
</g>
</g>
<!-- Node1&#45;&gt;Node18 -->
<g id="edge29" class="edge">
<title>Node1&#45;&gt;Node18</title>
<path fill="none" stroke="midnightblue" d="M1016.77,-283.44C1116.94,-271.9 1317,-241.07 1317,-179 1317,-179 1317,-179 1317,-121 1317,-74.08 1366.54,-35.94 1391.7,-19.6"/>
<polygon fill="midnightblue" stroke="midnightblue" points="1016.36,-279.96 1006.81,-284.56 1017.14,-286.92 1016.36,-279.96"/>
</g>
<!-- Node22 -->
<g id="node22" class="node">
<title>Node22</title>
<g id="a_node22"><a xlink:href="env_8cc.html" target="_top" xlink:title=" ">
<polygon fill="white" stroke="black" points="1345.5,-224.5 1345.5,-243.5 1440.5,-243.5 1440.5,-224.5 1345.5,-224.5"/>
<text text-anchor="middle" x="1393" y="-231.5" font-family="Helvetica,sans-Serif" font-size="10.00">language/env.cc</text>
</a>
</g>
</g>
<!-- Node1&#45;&gt;Node22 -->
<g id="edge28" class="edge">
<title>Node1&#45;&gt;Node22</title>
<path fill="none" stroke="midnightblue" d="M1016.88,-282.61C1089.37,-274.23 1219.73,-258.84 1331,-244 1335.64,-243.38 1340.46,-242.72 1345.29,-242.04"/>
<polygon fill="midnightblue" stroke="midnightblue" points="1016.15,-279.17 1006.61,-283.8 1016.95,-286.13 1016.15,-279.17"/>
</g>
<!-- Node3 -->
<g id="node3" class="node">
<title>Node3</title>
<g id="a_node3"><a xlink:href="interpreter_8cc.html" target="_top" xlink:title=" ">
<polygon fill="white" stroke="black" points="388.5,-168.5 388.5,-187.5 469.5,-187.5 469.5,-168.5 388.5,-168.5"/>
<text text-anchor="middle" x="429" y="-175.5" font-family="Helvetica,sans-Serif" font-size="10.00">interpreter.cc</text>
</a>
</g>
</g>
<!-- Node2&#45;&gt;Node3 -->
<g id="edge2" class="edge">
<title>Node2&#45;&gt;Node3</title>
<path fill="none" stroke="midnightblue" d="M494.02,-218.9C477.89,-209 456.82,-196.07 443.1,-187.65"/>
<polygon fill="midnightblue" stroke="midnightblue" points="492.51,-222.08 502.86,-224.32 496.17,-216.11 492.51,-222.08"/>
</g>
<!-- Node4 -->
<g id="node4" class="node">
<title>Node4</title>
<g id="a_node4"><a xlink:href="_expr_8h.html" target="_top" xlink:title=" ">
<polygon fill="white" stroke="black" points="884.5,-168.5 884.5,-187.5 979.5,-187.5 979.5,-168.5 884.5,-168.5"/>
<text text-anchor="middle" x="932" y="-175.5" font-family="Helvetica,sans-Serif" font-size="10.00">language/Expr.h</text>
</a>
</g>
</g>
<!-- Node2&#45;&gt;Node4 -->
<g id="edge3" class="edge">
<title>Node2&#45;&gt;Node4</title>
<path fill="none" stroke="midnightblue" d="M579.24,-224.9C662.67,-214.05 808.95,-195.01 884.24,-185.21"/>
<polygon fill="midnightblue" stroke="midnightblue" points="578.6,-221.45 569.14,-226.22 579.51,-228.4 578.6,-221.45"/>
</g>
<!-- Node9 -->
<g id="node9" class="node">
<title>Node9</title>
<g id="a_node9"><a xlink:href="_block_8cc.html" target="_top" xlink:title=" ">
<polygon fill="white" stroke="black" points="164.5,-0.5 164.5,-19.5 269.5,-19.5 269.5,-0.5 164.5,-0.5"/>
<text text-anchor="middle" x="217" y="-7.5" font-family="Helvetica,sans-Serif" font-size="10.00">language/Block.cc</text>
</a>
</g>
</g>
<!-- Node2&#45;&gt;Node9 -->
<g id="edge24" class="edge">
<title>Node2&#45;&gt;Node9</title>
<path fill="none" stroke="midnightblue" d="M509.17,-214.97C502.42,-200.94 491.62,-181.64 478,-168 403.26,-93.18 286,-39.44 238.27,-19.51"/>
<polygon fill="midnightblue" stroke="midnightblue" points="506,-216.46 513.35,-224.09 512.37,-213.55 506,-216.46"/>
</g>
<!-- Node17 -->
<g id="node17" class="node">
<title>Node17</title>
<g id="a_node17"><a xlink:href="parser_8cc.html" target="_top" xlink:title=" ">
<polygon fill="white" stroke="black" points="288,-0.5 288,-19.5 396,-19.5 396,-0.5 288,-0.5"/>
<text text-anchor="middle" x="342" y="-7.5" font-family="Helvetica,sans-Serif" font-size="10.00">language/parser.cc</text>
</a>
</g>
</g>
<!-- Node2&#45;&gt;Node17 -->
<g id="edge25" class="edge">
<title>Node2&#45;&gt;Node17</title>
<path fill="none" stroke="midnightblue" d="M522.92,-214.62C532.96,-179.57 548.87,-102.52 512,-56 503.99,-45.89 432.47,-29.52 384.78,-19.56"/>
<polygon fill="midnightblue" stroke="midnightblue" points="519.5,-213.85 519.94,-224.43 526.19,-215.88 519.5,-213.85"/>
</g>
<!-- Node21 -->
<g id="node21" class="node">
<title>Node21</title>
<g id="a_node21"><a xlink:href="_test_parser_8cc.html" target="_top" xlink:title=" ">
<polygon fill="white" stroke="black" points="221.5,-168.5 221.5,-187.5 370.5,-187.5 370.5,-168.5 221.5,-168.5"/>
<text text-anchor="middle" x="296" y="-175.5" font-family="Helvetica,sans-Serif" font-size="10.00">language/test/TestParser.cc</text>
</a>
</g>
</g>
<!-- Node2&#45;&gt;Node21 -->
<g id="edge26" class="edge">
<title>Node2&#45;&gt;Node21</title>
<path fill="none" stroke="midnightblue" d="M472.08,-222.02C430.33,-211.82 369.02,-196.84 330.85,-187.52"/>
<polygon fill="midnightblue" stroke="midnightblue" points="471.44,-225.47 481.98,-224.44 473.1,-218.67 471.44,-225.47"/>
</g>
<!-- Node5 -->
<g id="node5" class="node">
<title>Node5</title>
<g id="a_node5"><a xlink:href="_bind_def_8h.html" target="_top" xlink:title=" ">
<polygon fill="white" stroke="black" points="741,-112.5 741,-131.5 853,-131.5 853,-112.5 741,-112.5"/>
<text text-anchor="middle" x="797" y="-119.5" font-family="Helvetica,sans-Serif" font-size="10.00">language/BindDef.h</text>
</a>
</g>
</g>
<!-- Node4&#45;&gt;Node5 -->
<g id="edge4" class="edge">
<title>Node4&#45;&gt;Node5</title>
<path fill="none" stroke="midnightblue" d="M901.09,-164.64C875.76,-154.5 840.57,-140.43 818.29,-131.52"/>
<polygon fill="midnightblue" stroke="midnightblue" points="900.02,-167.98 910.61,-168.44 902.62,-161.48 900.02,-167.98"/>
</g>
<!-- Node11 -->
<g id="node11" class="node">
<title>Node11</title>
<g id="a_node11"><a xlink:href="_expr_8cc.html" target="_top" xlink:title=" ">
<polygon fill="white" stroke="black" points="1218.5,-0.5 1218.5,-19.5 1317.5,-19.5 1317.5,-0.5 1218.5,-0.5"/>
<text text-anchor="middle" x="1268" y="-7.5" font-family="Helvetica,sans-Serif" font-size="10.00">language/Expr.cc</text>
</a>
</g>
</g>
<!-- Node4&#45;&gt;Node11 -->
<g id="edge20" class="edge">
<title>Node4&#45;&gt;Node11</title>
<path fill="none" stroke="midnightblue" d="M989.69,-174.8C1063.86,-170.84 1187.26,-160.14 1222,-132 1257.98,-102.86 1265.84,-42.27 1267.54,-19.71"/>
<polygon fill="midnightblue" stroke="midnightblue" points="989.38,-171.31 979.57,-175.31 989.73,-178.3 989.38,-171.31"/>
</g>
<!-- Node4&#45;&gt;Node18 -->
<g id="edge21" class="edge">
<title>Node4&#45;&gt;Node18</title>
<path fill="none" stroke="midnightblue" d="M914.48,-160.89C901.46,-146.96 887.86,-126.8 900,-112 927.8,-78.1 1208.94,-36.99 1339.73,-19.52"/>
<polygon fill="midnightblue" stroke="midnightblue" points="912.34,-163.7 921.89,-168.28 917.28,-158.74 912.34,-163.7"/>
</g>
<!-- Node19 -->
<g id="node19" class="node">
<title>Node19</title>
<g id="a_node19"><a xlink:href="_test_block_8cc.html" target="_top" xlink:title=" ">
<polygon fill="white" stroke="black" points="909,-112.5 909,-131.5 1055,-131.5 1055,-112.5 909,-112.5"/>
<text text-anchor="middle" x="982" y="-119.5" font-family="Helvetica,sans-Serif" font-size="10.00">language/test/TestBlock.cc</text>
</a>
</g>
</g>
<!-- Node4&#45;&gt;Node19 -->
<g id="edge22" class="edge">
<title>Node4&#45;&gt;Node19</title>
<path fill="none" stroke="midnightblue" d="M947.08,-160.72C955.89,-151.2 966.67,-139.56 973.9,-131.75"/>
<polygon fill="midnightblue" stroke="midnightblue" points="944.48,-158.37 940.26,-168.08 949.62,-163.12 944.48,-158.37"/>
</g>
<!-- Node20 -->
<g id="node20" class="node">
<title>Node20</title>
<g id="a_node20"><a xlink:href="_test_expr_8cc.html" target="_top" xlink:title=" ">
<polygon fill="white" stroke="black" points="1073,-112.5 1073,-131.5 1213,-131.5 1213,-112.5 1073,-112.5"/>
<text text-anchor="middle" x="1143" y="-119.5" font-family="Helvetica,sans-Serif" font-size="10.00">language/test/TestExpr.cc</text>
</a>
</g>
</g>
<!-- Node4&#45;&gt;Node20 -->
<g id="edge23" class="edge">
<title>Node4&#45;&gt;Node20</title>
<path fill="none" stroke="midnightblue" d="M975.14,-165.96C1014.99,-155.76 1073.36,-140.82 1109.72,-131.52"/>
<polygon fill="midnightblue" stroke="midnightblue" points="974.25,-162.57 965.43,-168.44 975.99,-169.35 974.25,-162.57"/>
</g>
<!-- Node6 -->
<g id="node6" class="node">
<title>Node6</title>
<g id="a_node6"><a xlink:href="_bind_def_8cc.html" target="_top" xlink:title=" ">
<polygon fill="white" stroke="black" points="873,-56.5 873,-75.5 989,-75.5 989,-56.5 873,-56.5"/>
<text text-anchor="middle" x="931" y="-63.5" font-family="Helvetica,sans-Serif" font-size="10.00">language/BindDef.cc</text>
</a>
</g>
</g>
<!-- Node5&#45;&gt;Node6 -->
<g id="edge5" class="edge">
<title>Node5&#45;&gt;Node6</title>
<path fill="none" stroke="midnightblue" d="M827.68,-108.64C852.82,-98.5 887.75,-84.43 909.87,-75.52"/>
<polygon fill="midnightblue" stroke="midnightblue" points="826.2,-105.46 818.23,-112.44 828.82,-111.95 826.2,-105.46"/>
</g>
<!-- Node7 -->
<g id="node7" class="node">
<title>Node7</title>
<g id="a_node7"><a xlink:href="_null_8h.html" target="_top" xlink:title=" ">
<polygon fill="white" stroke="black" points="723.5,-56.5 723.5,-75.5 816.5,-75.5 816.5,-56.5 723.5,-56.5"/>
<text text-anchor="middle" x="770" y="-63.5" font-family="Helvetica,sans-Serif" font-size="10.00">language/Null.h</text>
</a>
</g>
</g>
<!-- Node5&#45;&gt;Node7 -->
<g id="edge6" class="edge">
<title>Node5&#45;&gt;Node7</title>
<path fill="none" stroke="midnightblue" d="M787.99,-102.98C783.41,-93.82 778.05,-83.09 774.38,-75.75"/>
<polygon fill="midnightblue" stroke="midnightblue" points="784.94,-104.7 792.54,-112.08 791.2,-101.57 784.94,-104.7"/>
</g>
<!-- Node14 -->
<g id="node14" class="node">
<title>Node14</title>
<g id="a_node14"><a xlink:href="_i_statment_8cc.html" target="_top" xlink:title=" ">
<polygon fill="white" stroke="black" points="414,-0.5 414,-19.5 540,-19.5 540,-0.5 414,-0.5"/>
<text text-anchor="middle" x="477" y="-7.5" font-family="Helvetica,sans-Serif" font-size="10.00">language/IStatment.cc</text>
</a>
</g>
</g>
<!-- Node5&#45;&gt;Node14 -->
<g id="edge18" class="edge">
<title>Node5&#45;&gt;Node14</title>
<path fill="none" stroke="midnightblue" d="M762.39,-109.1C697.47,-86.79 558.84,-39.13 502.05,-19.61"/>
<polygon fill="midnightblue" stroke="midnightblue" points="761.56,-112.52 772.16,-112.46 763.84,-105.9 761.56,-112.52"/>
</g>
<!-- Node5&#45;&gt;Node18 -->
<g id="edge19" class="edge">
<title>Node5&#45;&gt;Node18</title>
<path fill="none" stroke="midnightblue" d="M808.87,-104.1C820.82,-88.59 840.79,-66.48 864,-56 958.06,-13.55 1224.27,-29.84 1327,-20 1329.75,-19.74 1332.55,-19.46 1335.38,-19.17"/>
<polygon fill="midnightblue" stroke="midnightblue" points="805.92,-102.21 802.79,-112.33 811.55,-106.36 805.92,-102.21"/>
</g>
<!-- Node7&#45;&gt;Node8 -->
<g id="edge7" class="edge">
<title>Node7&#45;&gt;Node8</title>
<path fill="none" stroke="midnightblue" d="M713.2,-61.54C604.65,-54.76 360.27,-38.77 155,-20 152.15,-19.74 149.24,-19.46 146.3,-19.18"/>
<polygon fill="midnightblue" stroke="midnightblue" points="713.08,-65.03 723.28,-62.16 713.51,-58.05 713.08,-65.03"/>
</g>
<!-- Node7&#45;&gt;Node9 -->
<g id="edge8" class="edge">
<title>Node7&#45;&gt;Node9</title>
<path fill="none" stroke="midnightblue" d="M713.04,-60.76C621.43,-53.72 435.75,-38.55 279,-20 275.98,-19.64 272.87,-19.25 269.74,-18.85"/>
<polygon fill="midnightblue" stroke="midnightblue" points="712.96,-64.27 723.2,-61.54 713.5,-57.29 712.96,-64.27"/>
</g>
<!-- Node10 -->
<g id="node10" class="node">
<title>Node10</title>
<g id="a_node10"><a xlink:href="_conditional_8cc.html" target="_top" xlink:title=" ">
<polygon fill="white" stroke="black" points="558,-0.5 558,-19.5 692,-19.5 692,-0.5 558,-0.5"/>
<text text-anchor="middle" x="625" y="-7.5" font-family="Helvetica,sans-Serif" font-size="10.00">language/Conditional.cc</text>
</a>
</g>
</g>
<!-- Node7&#45;&gt;Node10 -->
<g id="edge9" class="edge">
<title>Node7&#45;&gt;Node10</title>
<path fill="none" stroke="midnightblue" d="M737.52,-52.91C710.26,-42.75 672.01,-28.51 647.87,-19.52"/>
<polygon fill="midnightblue" stroke="midnightblue" points="736.43,-56.23 747.02,-56.44 738.87,-49.67 736.43,-56.23"/>
</g>
<!-- Node7&#45;&gt;Node11 -->
<g id="edge10" class="edge">
<title>Node7&#45;&gt;Node11</title>
<path fill="none" stroke="midnightblue" d="M826.57,-56.55C828.06,-56.36 829.54,-56.18 831,-56 998.53,-35.68 1041.52,-40.73 1209,-20 1212.08,-19.62 1215.26,-19.2 1218.45,-18.77"/>
<polygon fill="midnightblue" stroke="midnightblue" points="826.05,-53.09 816.59,-57.87 826.97,-60.03 826.05,-53.09"/>
</g>
<!-- Node12 -->
<g id="node12" class="node">
<title>Node12</title>
<g id="a_node12"><a xlink:href="_func_call_8cc.html" target="_top" xlink:title=" ">
<polygon fill="white" stroke="black" points="710.5,-0.5 710.5,-19.5 829.5,-19.5 829.5,-0.5 710.5,-0.5"/>
<text text-anchor="middle" x="770" y="-7.5" font-family="Helvetica,sans-Serif" font-size="10.00">language/FuncCall.cc</text>
</a>
</g>
</g>
<!-- Node7&#45;&gt;Node12 -->
<g id="edge11" class="edge">
<title>Node7&#45;&gt;Node12</title>
<path fill="none" stroke="midnightblue" d="M770,-45.8C770,-36.91 770,-26.78 770,-19.75"/>
<polygon fill="midnightblue" stroke="midnightblue" points="766.5,-46.08 770,-56.08 773.5,-46.08 766.5,-46.08"/>
</g>
<!-- Node13 -->
<g id="node13" class="node">
<title>Node13</title>
<g id="a_node13"><a xlink:href="_func_def_8cc.html" target="_top" xlink:title=" ">
<polygon fill="white" stroke="black" points="847.5,-0.5 847.5,-19.5 964.5,-19.5 964.5,-0.5 847.5,-0.5"/>
<text text-anchor="middle" x="906" y="-7.5" font-family="Helvetica,sans-Serif" font-size="10.00">language/FuncDef.cc</text>
</a>
</g>
</g>
<!-- Node7&#45;&gt;Node13 -->
<g id="edge12" class="edge">
<title>Node7&#45;&gt;Node13</title>
<path fill="none" stroke="midnightblue" d="M801.13,-52.64C826.66,-42.5 862.11,-28.43 884.55,-19.52"/>
<polygon fill="midnightblue" stroke="midnightblue" points="799.55,-49.5 791.55,-56.44 802.14,-56.01 799.55,-49.5"/>
</g>
<!-- Node7&#45;&gt;Node14 -->
<g id="edge13" class="edge">
<title>Node7&#45;&gt;Node14</title>
<path fill="none" stroke="midnightblue" d="M713.57,-54.6C658.2,-44.4 574.77,-29.02 523.21,-19.52"/>
<polygon fill="midnightblue" stroke="midnightblue" points="713.1,-58.07 723.57,-56.44 714.37,-51.19 713.1,-58.07"/>
</g>
<!-- Node15 -->
<g id="node15" class="node">
<title>Node15</title>
<g id="a_node15"><a xlink:href="_loop_8cc.html" target="_top" xlink:title=" ">
<polygon fill="white" stroke="black" points="982.5,-0.5 982.5,-19.5 1083.5,-19.5 1083.5,-0.5 982.5,-0.5"/>
<text text-anchor="middle" x="1033" y="-7.5" font-family="Helvetica,sans-Serif" font-size="10.00">language/Loop.cc</text>
</a>
</g>
</g>
<!-- Node7&#45;&gt;Node15 -->
<g id="edge14" class="edge">
<title>Node7&#45;&gt;Node15</title>
<path fill="none" stroke="midnightblue" d="M821.58,-54.41C871.28,-44.2 945.53,-28.96 991.52,-19.52"/>
<polygon fill="midnightblue" stroke="midnightblue" points="820.76,-51 811.67,-56.44 822.17,-57.86 820.76,-51"/>
</g>
<!-- Node16 -->
<g id="node16" class="node">
<title>Node16</title>
<g id="a_node16"><a xlink:href="_null_8cc.html" target="_top" xlink:title=" ">
<polygon fill="white" stroke="black" points="1102,-0.5 1102,-19.5 1200,-19.5 1200,-0.5 1102,-0.5"/>
<text text-anchor="middle" x="1151" y="-7.5" font-family="Helvetica,sans-Serif" font-size="10.00">language/Null.cc</text>
</a>
</g>
</g>
<!-- Node7&#45;&gt;Node16 -->
<g id="edge15" class="edge">
<title>Node7&#45;&gt;Node16</title>
<path fill="none" stroke="midnightblue" d="M826.58,-56.63C828.07,-56.42 829.54,-56.21 831,-56 947.36,-39.42 976.7,-37.01 1093,-20 1095.92,-19.57 1098.93,-19.13 1101.96,-18.67"/>
<polygon fill="midnightblue" stroke="midnightblue" points="826.02,-53.18 816.62,-58.07 827.02,-60.11 826.02,-53.18"/>
</g>
<!-- Node7&#45;&gt;Node17 -->
<g id="edge16" class="edge">
<title>Node7&#45;&gt;Node17</title>
<path fill="none" stroke="midnightblue" d="M713.11,-58.33C641.26,-49.83 513.88,-34.49 405,-20 402.15,-19.62 399.23,-19.23 396.29,-18.82"/>
<polygon fill="midnightblue" stroke="midnightblue" points="712.95,-61.84 723.29,-59.53 713.77,-54.88 712.95,-61.84"/>
</g>
<!-- Node7&#45;&gt;Node18 -->
<g id="edge17" class="edge">
<title>Node7&#45;&gt;Node18</title>
<path fill="none" stroke="midnightblue" d="M826.56,-56.51C828.05,-56.33 829.54,-56.16 831,-56 1050.7,-31.85 1106.93,-40.51 1327,-20 1329.75,-19.74 1332.55,-19.47 1335.38,-19.19"/>
<polygon fill="midnightblue" stroke="midnightblue" points="826.06,-53.04 816.58,-57.76 826.94,-59.99 826.06,-53.04"/>
</g>
</g>
</svg>
