<?xml version="1.0" encoding="UTF-8" standalone="no"?>
<!DOCTYPE svg PUBLIC "-//W3C//DTD SVG 1.1//EN"
 "http://www.w3.org/Graphics/SVG/1.1/DTD/svg11.dtd">
<!-- Generated by graphviz version 2.43.0 (0)
 -->
<!-- Title: language/parser.cc Pages: 1 -->
<svg width="1479pt" height="532pt"
 viewBox="0.00 0.00 1478.50 532.00" xmlns="http://www.w3.org/2000/svg" xmlns:xlink="http://www.w3.org/1999/xlink">
<g id="graph0" class="graph" transform="scale(1 1) rotate(0) translate(4 528)">
<title>language/parser.cc</title>
<polygon fill="white" stroke="transparent" points="-4,4 -4,-528 1474.5,-528 1474.5,4 -4,4"/>
<!-- Node1 -->
<g id="node1" class="node">
<title>Node1</title>
<g id="a_node1"><a xlink:title=" ">
<polygon fill="#bfbfbf" stroke="black" points="688,-504.5 688,-523.5 796,-523.5 796,-504.5 688,-504.5"/>
<text text-anchor="middle" x="742" y="-511.5" font-family="Helvetica,sans-Serif" font-size="10.00">language/parser.cc</text>
</a>
</g>
</g>
<!-- Node2 -->
<g id="node2" class="node">
<title>Node2</title>
<g id="a_node2"><a xlink:title=" ">
<polygon fill="white" stroke="#bfbfbf" points="104,-112.5 104,-131.5 164,-131.5 164,-112.5 104,-112.5"/>
<text text-anchor="middle" x="134" y="-119.5" font-family="Helvetica,sans-Serif" font-size="10.00">iostream</text>
</a>
</g>
</g>
<!-- Node1&#45;&gt;Node2 -->
<g id="edge1" class="edge">
<title>Node1&#45;&gt;Node2</title>
<path fill="none" stroke="midnightblue" d="M687.65,-512.91C595.57,-511.7 403.51,-504.52 246,-468 167.2,-449.73 76,-483.89 76,-403 76,-403 76,-403 76,-233 76,-196.16 101.77,-159.57 118.95,-139.25"/>
<polygon fill="midnightblue" stroke="midnightblue" points="121.71,-141.41 125.69,-131.59 116.46,-136.79 121.71,-141.41"/>
</g>
<!-- Node3 -->
<g id="node3" class="node">
<title>Node3</title>
<g id="a_node3"><a xlink:title=" ">
<polygon fill="white" stroke="#bfbfbf" points="637,-0.5 637,-19.5 693,-19.5 693,-0.5 637,-0.5"/>
<text text-anchor="middle" x="665" y="-7.5" font-family="Helvetica,sans-Serif" font-size="10.00">optional</text>
</a>
</g>
</g>
<!-- Node1&#45;&gt;Node3 -->
<g id="edge2" class="edge">
<title>Node1&#45;&gt;Node3</title>
<path fill="none" stroke="midnightblue" d="M687.99,-511.63C541.92,-507.57 146.46,-494.28 94,-468 59.91,-450.92 38,-441.13 38,-403 38,-403 38,-403 38,-177 38,-54.62 490.02,-20.39 626.47,-12.84"/>
<polygon fill="midnightblue" stroke="midnightblue" points="627.04,-16.31 636.84,-12.28 626.67,-9.32 627.04,-16.31"/>
</g>
<!-- Node4 -->
<g id="node4" class="node">
<title>Node4</title>
<g id="a_node4"><a xlink:title=" ">
<polygon fill="white" stroke="#bfbfbf" points="1405.5,-448.5 1405.5,-467.5 1470.5,-467.5 1470.5,-448.5 1405.5,-448.5"/>
<text text-anchor="middle" x="1438" y="-455.5" font-family="Helvetica,sans-Serif" font-size="10.00">stdexcept</text>
</a>
</g>
</g>
<!-- Node1&#45;&gt;Node4 -->
<g id="edge3" class="edge">
<title>Node1&#45;&gt;Node4</title>
<path fill="none" stroke="midnightblue" d="M796.06,-511.44C907.67,-507.75 1171.47,-496.52 1391,-468 1392.47,-467.81 1393.96,-467.6 1395.46,-467.38"/>
<polygon fill="midnightblue" stroke="midnightblue" points="1396.16,-470.81 1405.47,-465.75 1395.03,-463.9 1396.16,-470.81"/>
</g>
<!-- Node5 -->
<g id="node5" class="node">
<title>Node5</title>
<g id="a_node5"><a xlink:title=" ">
<polygon fill="white" stroke="#bfbfbf" points="1091,-0.5 1091,-19.5 1135,-19.5 1135,-0.5 1091,-0.5"/>
<text text-anchor="middle" x="1113" y="-7.5" font-family="Helvetica,sans-Serif" font-size="10.00">string</text>
</a>
</g>
</g>
<!-- Node1&#45;&gt;Node5 -->
<g id="edge4" class="edge">
<title>Node1&#45;&gt;Node5</title>
<path fill="none" stroke="midnightblue" d="M796.14,-509.31C949.7,-498.13 1377,-461.74 1377,-403 1377,-403 1377,-403 1377,-121 1377,-21.58 1215.51,-10.39 1145.14,-10.23"/>
<polygon fill="midnightblue" stroke="midnightblue" points="1145.04,-6.73 1135.05,-10.28 1145.07,-13.73 1145.04,-6.73"/>
</g>
<!-- Node6 -->
<g id="node6" class="node">
<title>Node6</title>
<g id="a_node6"><a xlink:title=" ">
<polygon fill="white" stroke="#bfbfbf" points="662.5,-112.5 662.5,-131.5 707.5,-131.5 707.5,-112.5 662.5,-112.5"/>
<text text-anchor="middle" x="685" y="-119.5" font-family="Helvetica,sans-Serif" font-size="10.00">utility</text>
</a>
</g>
</g>
<!-- Node1&#45;&gt;Node6 -->
<g id="edge5" class="edge">
<title>Node1&#45;&gt;Node6</title>
<path fill="none" stroke="midnightblue" d="M750.5,-504.05C784.09,-467.58 903.04,-327.12 846,-224 838.37,-210.21 752.46,-160.75 709.36,-136.54"/>
<polygon fill="midnightblue" stroke="midnightblue" points="710.8,-133.34 700.37,-131.51 707.38,-139.45 710.8,-133.34"/>
</g>
<!-- Node7 -->
<g id="node7" class="node">
<title>Node7</title>
<g id="a_node7"><a xlink:href="_error_statment_8h.html" target="_top" xlink:title=" ">
<polygon fill="white" stroke="black" points="218,-224.5 218,-243.5 312,-243.5 312,-224.5 218,-224.5"/>
<text text-anchor="middle" x="265" y="-231.5" font-family="Helvetica,sans-Serif" font-size="10.00">ErrorStatment.h</text>
</a>
</g>
</g>
<!-- Node1&#45;&gt;Node7 -->
<g id="edge6" class="edge">
<title>Node1&#45;&gt;Node7</title>
<path fill="none" stroke="midnightblue" d="M687.81,-508.59C541.96,-495.98 152,-457.21 152,-403 152,-403 152,-403 152,-345 152,-298.4 201.95,-265.14 235.43,-248.08"/>
<polygon fill="midnightblue" stroke="midnightblue" points="237.35,-251.04 244.8,-243.51 234.28,-244.75 237.35,-251.04"/>
</g>
<!-- Node15 -->
<g id="node15" class="node">
<title>Node15</title>
<g id="a_node15"><a xlink:href="_null_8h.html" target="_top" xlink:title=" ">
<polygon fill="white" stroke="black" points="817.5,-448.5 817.5,-467.5 862.5,-467.5 862.5,-448.5 817.5,-448.5"/>
<text text-anchor="middle" x="840" y="-455.5" font-family="Helvetica,sans-Serif" font-size="10.00">Null.h</text>
</a>
</g>
</g>
<!-- Node1&#45;&gt;Node15 -->
<g id="edge22" class="edge">
<title>Node1&#45;&gt;Node15</title>
<path fill="none" stroke="midnightblue" d="M757.75,-504.32C773.32,-495.74 797.38,-482.49 815.46,-472.52"/>
<polygon fill="midnightblue" stroke="midnightblue" points="817.22,-475.55 824.29,-467.65 813.85,-469.42 817.22,-475.55"/>
</g>
<!-- Node21 -->
<g id="node21" class="node">
<title>Node21</title>
<g id="a_node21"><a xlink:href="parser_8h.html" target="_top" xlink:title=" ">
<polygon fill="white" stroke="black" points="576,-280.5 576,-299.5 632,-299.5 632,-280.5 576,-280.5"/>
<text text-anchor="middle" x="604" y="-287.5" font-family="Helvetica,sans-Serif" font-size="10.00">parser.h</text>
</a>
</g>
</g>
<!-- Node1&#45;&gt;Node21 -->
<g id="edge68" class="edge">
<title>Node1&#45;&gt;Node21</title>
<path fill="none" stroke="midnightblue" d="M736.59,-504.3C716.07,-471.29 642.79,-353.4 614.89,-308.52"/>
<polygon fill="midnightblue" stroke="midnightblue" points="617.77,-306.53 609.52,-299.88 611.83,-310.22 617.77,-306.53"/>
</g>
<!-- Node7&#45;&gt;Node6 -->
<g id="edge7" class="edge">
<title>Node7&#45;&gt;Node6</title>
<path fill="none" stroke="midnightblue" d="M312.08,-228.67C365.03,-222.94 453.15,-210.78 526,-188 546.12,-181.71 549.61,-176.26 569,-168 597,-156.07 629.31,-143.65 652.71,-134.88"/>
<polygon fill="midnightblue" stroke="midnightblue" points="654,-138.13 662.15,-131.36 651.56,-131.57 654,-138.13"/>
</g>
<!-- Node8 -->
<g id="node8" class="node">
<title>Node8</title>
<g id="a_node8"><a xlink:href="_i_statment_8h.html" target="_top" xlink:title=" ">
<polygon fill="white" stroke="black" points="628,-56.5 628,-75.5 702,-75.5 702,-56.5 628,-56.5"/>
<text text-anchor="middle" x="665" y="-63.5" font-family="Helvetica,sans-Serif" font-size="10.00">IStatment.h</text>
</a>
</g>
</g>
<!-- Node7&#45;&gt;Node8 -->
<g id="edge8" class="edge">
<title>Node7&#45;&gt;Node8</title>
<path fill="none" stroke="midnightblue" d="M281.94,-224.32C308.5,-210.95 361.8,-185.07 409,-168 465.38,-147.61 483.17,-153.86 539,-132 558.94,-124.19 609.98,-96.97 640.64,-80.33"/>
<polygon fill="midnightblue" stroke="midnightblue" points="642.33,-83.4 649.44,-75.54 638.98,-77.25 642.33,-83.4"/>
</g>
<!-- Node9 -->
<g id="node9" class="node">
<title>Node9</title>
<g id="a_node9"><a xlink:href="_i_value_8h.html" target="_top" xlink:title=" ">
<polygon fill="white" stroke="black" points="164,-0.5 164,-19.5 220,-19.5 220,-0.5 164,-0.5"/>
<text text-anchor="middle" x="192" y="-7.5" font-family="Helvetica,sans-Serif" font-size="10.00">IValue.h</text>
</a>
</g>
</g>
<!-- Node7&#45;&gt;Node9 -->
<g id="edge12" class="edge">
<title>Node7&#45;&gt;Node9</title>
<path fill="none" stroke="midnightblue" d="M251.33,-224.46C239.88,-216.51 224.13,-203.56 216,-188 188.77,-135.87 188.71,-63.85 190.51,-30.01"/>
<polygon fill="midnightblue" stroke="midnightblue" points="194.03,-29.93 191.19,-19.72 187.04,-29.47 194.03,-29.93"/>
</g>
<!-- Node10 -->
<g id="node10" class="node">
<title>Node10</title>
<g id="a_node10"><a xlink:href="utils_8h.html" target="_top" xlink:title=" ">
<polygon fill="white" stroke="black" points="295.5,-168.5 295.5,-187.5 342.5,-187.5 342.5,-168.5 295.5,-168.5"/>
<text text-anchor="middle" x="319" y="-175.5" font-family="Helvetica,sans-Serif" font-size="10.00">utils.h</text>
</a>
</g>
</g>
<!-- Node7&#45;&gt;Node10 -->
<g id="edge13" class="edge">
<title>Node7&#45;&gt;Node10</title>
<path fill="none" stroke="midnightblue" d="M273.92,-224.08C281.78,-216.22 293.43,-204.57 302.92,-195.08"/>
<polygon fill="midnightblue" stroke="midnightblue" points="305.65,-197.3 310.25,-187.75 300.7,-192.35 305.65,-197.3"/>
</g>
<!-- Node8&#45;&gt;Node3 -->
<g id="edge9" class="edge">
<title>Node8&#45;&gt;Node3</title>
<path fill="none" stroke="midnightblue" d="M665,-56.08C665,-49.01 665,-38.86 665,-29.99"/>
<polygon fill="midnightblue" stroke="midnightblue" points="668.5,-29.75 665,-19.75 661.5,-29.75 668.5,-29.75"/>
</g>
<!-- Node8&#45;&gt;Node5 -->
<g id="edge10" class="edge">
<title>Node8&#45;&gt;Node5</title>
<path fill="none" stroke="midnightblue" d="M702.04,-60.54C787.91,-50.18 999.41,-24.69 1080.57,-14.91"/>
<polygon fill="midnightblue" stroke="midnightblue" points="1081.18,-18.36 1090.69,-13.69 1080.34,-11.41 1081.18,-18.36"/>
</g>
<!-- Node8&#45;&gt;Node9 -->
<g id="edge11" class="edge">
<title>Node8&#45;&gt;Node9</title>
<path fill="none" stroke="midnightblue" d="M627.88,-60.76C539.88,-50.72 319.29,-25.53 230.21,-15.36"/>
<polygon fill="midnightblue" stroke="midnightblue" points="230.35,-11.86 220.01,-14.2 229.55,-18.81 230.35,-11.86"/>
</g>
<!-- Node10&#45;&gt;Node2 -->
<g id="edge16" class="edge">
<title>Node10&#45;&gt;Node2</title>
<path fill="none" stroke="midnightblue" d="M295.19,-170.05C264.33,-161.04 210.09,-145.21 173.13,-134.42"/>
<polygon fill="midnightblue" stroke="midnightblue" points="173.78,-130.96 163.2,-131.52 171.82,-137.68 173.78,-130.96"/>
</g>
<!-- Node10&#45;&gt;Node3 -->
<g id="edge17" class="edge">
<title>Node10&#45;&gt;Node3</title>
<path fill="none" stroke="midnightblue" d="M315.83,-168.17C311.75,-155.27 306.04,-130.75 314,-112 328,-79.02 339.89,-71.91 372,-56 416.08,-34.15 557.74,-19.84 626.64,-13.99"/>
<polygon fill="midnightblue" stroke="midnightblue" points="626.98,-17.48 636.66,-13.16 626.4,-10.5 626.98,-17.48"/>
</g>
<!-- Node10&#45;&gt;Node5 -->
<g id="edge19" class="edge">
<title>Node10&#45;&gt;Node5</title>
<path fill="none" stroke="midnightblue" d="M342.52,-174.91C416.58,-168.26 644.4,-147.06 717,-132 855.26,-103.32 1014.47,-47.42 1081.1,-22.95"/>
<polygon fill="midnightblue" stroke="midnightblue" points="1082.44,-26.19 1090.61,-19.44 1080.02,-19.62 1082.44,-26.19"/>
</g>
<!-- Node10&#45;&gt;Node6 -->
<g id="edge20" class="edge">
<title>Node10&#45;&gt;Node6</title>
<path fill="none" stroke="midnightblue" d="M342.73,-173.5C406.14,-164.14 579.63,-138.55 652.3,-127.82"/>
<polygon fill="midnightblue" stroke="midnightblue" points="652.88,-131.28 662.26,-126.35 651.86,-124.35 652.88,-131.28"/>
</g>
<!-- Node11 -->
<g id="node11" class="node">
<title>Node11</title>
<g id="a_node11"><a xlink:title=" ">
<polygon fill="white" stroke="#bfbfbf" points="843,-112.5 843,-131.5 895,-131.5 895,-112.5 843,-112.5"/>
<text text-anchor="middle" x="869" y="-119.5" font-family="Helvetica,sans-Serif" font-size="10.00">cassert</text>
</a>
</g>
</g>
<!-- Node10&#45;&gt;Node11 -->
<g id="edge14" class="edge">
<title>Node10&#45;&gt;Node11</title>
<path fill="none" stroke="midnightblue" d="M342.75,-175.33C430.06,-169.11 733.16,-146.94 829,-132 830.27,-131.8 831.55,-131.59 832.85,-131.36"/>
<polygon fill="midnightblue" stroke="midnightblue" points="833.7,-134.76 842.85,-129.41 832.36,-127.89 833.7,-134.76"/>
</g>
<!-- Node12 -->
<g id="node12" class="node">
<title>Node12</title>
<g id="a_node12"><a xlink:title=" ">
<polygon fill="white" stroke="#bfbfbf" points="334.5,-112.5 334.5,-131.5 383.5,-131.5 383.5,-112.5 334.5,-112.5"/>
<text text-anchor="middle" x="359" y="-119.5" font-family="Helvetica,sans-Serif" font-size="10.00">cstdlib</text>
</a>
</g>
</g>
<!-- Node10&#45;&gt;Node12 -->
<g id="edge15" class="edge">
<title>Node10&#45;&gt;Node12</title>
<path fill="none" stroke="midnightblue" d="M325.61,-168.08C331.26,-160.46 339.54,-149.26 346.45,-139.94"/>
<polygon fill="midnightblue" stroke="midnightblue" points="349.38,-141.87 352.52,-131.75 343.75,-137.7 349.38,-141.87"/>
</g>
<!-- Node13 -->
<g id="node13" class="node">
<title>Node13</title>
<g id="a_node13"><a xlink:title=" ">
<polygon fill="white" stroke="#bfbfbf" points="402,-112.5 402,-131.5 458,-131.5 458,-112.5 402,-112.5"/>
<text text-anchor="middle" x="430" y="-119.5" font-family="Helvetica,sans-Serif" font-size="10.00">sstream</text>
</a>
</g>
</g>
<!-- Node10&#45;&gt;Node13 -->
<g id="edge18" class="edge">
<title>Node10&#45;&gt;Node13</title>
<path fill="none" stroke="midnightblue" d="M336.83,-168.32C354.72,-159.62 382.48,-146.12 403.05,-136.11"/>
<polygon fill="midnightblue" stroke="midnightblue" points="404.75,-139.18 412.21,-131.65 401.69,-132.88 404.75,-139.18"/>
</g>
<!-- Node14 -->
<g id="node14" class="node">
<title>Node14</title>
<g id="a_node14"><a xlink:title=" ">
<polygon fill="white" stroke="#bfbfbf" points="380.5,-56.5 380.5,-75.5 427.5,-75.5 427.5,-56.5 380.5,-56.5"/>
<text text-anchor="middle" x="404" y="-63.5" font-family="Helvetica,sans-Serif" font-size="10.00">vector</text>
</a>
</g>
</g>
<!-- Node10&#45;&gt;Node14 -->
<g id="edge21" class="edge">
<title>Node10&#45;&gt;Node14</title>
<path fill="none" stroke="midnightblue" d="M317.59,-168.18C315.94,-154.86 314.72,-129.31 326,-112 336.39,-96.05 354.53,-85.1 370.71,-77.99"/>
<polygon fill="midnightblue" stroke="midnightblue" points="372.49,-81.05 380.44,-74.05 369.86,-74.56 372.49,-81.05"/>
</g>
<!-- Node15&#45;&gt;Node9 -->
<g id="edge67" class="edge">
<title>Node15&#45;&gt;Node9</title>
<path fill="none" stroke="midnightblue" d="M817.46,-455.08C727.35,-446.39 387.51,-403.99 172,-244 117.47,-203.52 69.64,-175.01 95,-112 110.13,-74.4 146.69,-42.94 170.35,-25.57"/>
<polygon fill="midnightblue" stroke="midnightblue" points="172.6,-28.27 178.72,-19.62 168.54,-22.56 172.6,-28.27"/>
</g>
<!-- Node16 -->
<g id="node16" class="node">
<title>Node16</title>
<g id="a_node16"><a xlink:title=" ">
<polygon fill="white" stroke="#bfbfbf" points="789.5,-224.5 789.5,-243.5 836.5,-243.5 836.5,-224.5 789.5,-224.5"/>
<text text-anchor="middle" x="813" y="-231.5" font-family="Helvetica,sans-Serif" font-size="10.00">cmath</text>
</a>
</g>
</g>
<!-- Node15&#45;&gt;Node16 -->
<g id="edge23" class="edge">
<title>Node15&#45;&gt;Node16</title>
<path fill="none" stroke="midnightblue" d="M838.94,-448.3C834.97,-415.63 820.89,-299.87 815.31,-253.96"/>
<polygon fill="midnightblue" stroke="midnightblue" points="818.76,-253.39 814.08,-243.88 811.81,-254.23 818.76,-253.39"/>
</g>
<!-- Node17 -->
<g id="node17" class="node">
<title>Node17</title>
<g id="a_node17"><a xlink:href="_bind_def_8h.html" target="_top" xlink:title=" ">
<polygon fill="white" stroke="black" points="929,-392.5 929,-411.5 993,-411.5 993,-392.5 929,-392.5"/>
<text text-anchor="middle" x="961" y="-399.5" font-family="Helvetica,sans-Serif" font-size="10.00">BindDef.h</text>
</a>
</g>
</g>
<!-- Node15&#45;&gt;Node17 -->
<g id="edge24" class="edge">
<title>Node15&#45;&gt;Node17</title>
<path fill="none" stroke="midnightblue" d="M859.17,-448.44C878.91,-439.64 909.89,-425.81 932.49,-415.72"/>
<polygon fill="midnightblue" stroke="midnightblue" points="934.21,-418.79 941.92,-411.52 931.36,-412.4 934.21,-418.79"/>
</g>
<!-- Node17&#45;&gt;Node3 -->
<g id="edge25" class="edge">
<title>Node17&#45;&gt;Node3</title>
<path fill="none" stroke="midnightblue" d="M961.96,-392.5C965.76,-354.79 976.12,-200.67 904,-112 853.24,-49.59 756.98,-25.1 703.42,-16"/>
<polygon fill="midnightblue" stroke="midnightblue" points="703.73,-12.51 693.3,-14.38 702.62,-19.42 703.73,-12.51"/>
</g>
<!-- Node17&#45;&gt;Node5 -->
<g id="edge26" class="edge">
<title>Node17&#45;&gt;Node5</title>
<path fill="none" stroke="midnightblue" d="M993.23,-398.57C1084.64,-390.81 1339,-362.76 1339,-291 1339,-291 1339,-291 1339,-121 1339,-35.82 1207.59,-16.58 1145.18,-12.25"/>
<polygon fill="midnightblue" stroke="midnightblue" points="1145.27,-8.75 1135.08,-11.64 1144.85,-15.74 1145.27,-8.75"/>
</g>
<!-- Node17&#45;&gt;Node6 -->
<g id="edge27" class="edge">
<title>Node17&#45;&gt;Node6</title>
<path fill="none" stroke="midnightblue" d="M957.75,-392.27C945.8,-360.49 903.72,-251.42 879,-224 834.39,-174.52 759.82,-145.43 717.29,-132.01"/>
<polygon fill="midnightblue" stroke="midnightblue" points="718.3,-128.66 707.72,-129.09 716.26,-135.36 718.3,-128.66"/>
</g>
<!-- Node18 -->
<g id="node18" class="node">
<title>Node18</title>
<g id="a_node18"><a xlink:href="_expr_8h.html" target="_top" xlink:title=" ">
<polygon fill="white" stroke="black" points="1070.5,-336.5 1070.5,-355.5 1117.5,-355.5 1117.5,-336.5 1070.5,-336.5"/>
<text text-anchor="middle" x="1094" y="-343.5" font-family="Helvetica,sans-Serif" font-size="10.00">Expr.h</text>
</a>
</g>
</g>
<!-- Node17&#45;&gt;Node18 -->
<g id="edge28" class="edge">
<title>Node17&#45;&gt;Node18</title>
<path fill="none" stroke="midnightblue" d="M982.07,-392.44C1004.06,-383.52 1038.73,-369.44 1063.66,-359.32"/>
<polygon fill="midnightblue" stroke="midnightblue" points="1065.08,-362.52 1073.02,-355.52 1062.44,-356.04 1065.08,-362.52"/>
</g>
<!-- Node18&#45;&gt;Node3 -->
<g id="edge31" class="edge">
<title>Node18&#45;&gt;Node3</title>
<path fill="none" stroke="midnightblue" d="M1095.27,-336.47C1099.72,-303.05 1111.33,-179.45 1051,-112 1004.41,-59.9 791.42,-27.18 703.32,-15.66"/>
<polygon fill="midnightblue" stroke="midnightblue" points="703.58,-12.16 693.21,-14.36 702.69,-19.11 703.58,-12.16"/>
</g>
<!-- Node18&#45;&gt;Node5 -->
<g id="edge32" class="edge">
<title>Node18&#45;&gt;Node5</title>
<path fill="none" stroke="midnightblue" d="M1117.75,-343.35C1172.12,-338.17 1301,-317.21 1301,-235 1301,-235 1301,-235 1301,-121 1301,-49.74 1199.14,-23.79 1145.37,-15.05"/>
<polygon fill="midnightblue" stroke="midnightblue" points="1145.72,-11.56 1135.3,-13.53 1144.67,-18.48 1145.72,-11.56"/>
</g>
<!-- Node18&#45;&gt;Node8 -->
<g id="edge38" class="edge">
<title>Node18&#45;&gt;Node8</title>
<path fill="none" stroke="midnightblue" d="M1089.93,-336.33C1072.99,-301.29 1004.16,-169.22 904,-112 843.98,-77.71 762.98,-68.87 712.38,-66.96"/>
<polygon fill="midnightblue" stroke="midnightblue" points="712.47,-63.46 702.37,-66.66 712.26,-70.46 712.47,-63.46"/>
</g>
<!-- Node18&#45;&gt;Node11 -->
<g id="edge29" class="edge">
<title>Node18&#45;&gt;Node11</title>
<path fill="none" stroke="midnightblue" d="M1085.18,-336.3C1051.37,-302.94 929.73,-182.92 885.35,-139.13"/>
<polygon fill="midnightblue" stroke="midnightblue" points="887.58,-136.42 878,-131.88 882.66,-141.4 887.58,-136.42"/>
</g>
<!-- Node19 -->
<g id="node19" class="node">
<title>Node19</title>
<g id="a_node19"><a xlink:title=" ">
<polygon fill="white" stroke="#bfbfbf" points="1206,-112.5 1206,-131.5 1264,-131.5 1264,-112.5 1206,-112.5"/>
<text text-anchor="middle" x="1235" y="-119.5" font-family="Helvetica,sans-Serif" font-size="10.00">memory</text>
</a>
</g>
</g>
<!-- Node18&#45;&gt;Node19 -->
<g id="edge30" class="edge">
<title>Node18&#45;&gt;Node19</title>
<path fill="none" stroke="midnightblue" d="M1108.11,-336.2C1140.08,-315.26 1217.35,-258.93 1244,-188 1249.69,-172.85 1246.3,-154.51 1242.15,-141.17"/>
<polygon fill="midnightblue" stroke="midnightblue" points="1245.44,-139.98 1238.82,-131.71 1238.84,-142.3 1245.44,-139.98"/>
</g>
<!-- Node20 -->
<g id="node20" class="node">
<title>Node20</title>
<g id="a_node20"><a xlink:href="_binding_usage_8h.html" target="_top" xlink:title=" ">
<polygon fill="white" stroke="black" points="1141.5,-168.5 1141.5,-187.5 1234.5,-187.5 1234.5,-168.5 1141.5,-168.5"/>
<text text-anchor="middle" x="1188" y="-175.5" font-family="Helvetica,sans-Serif" font-size="10.00">BindingUsage.h</text>
</a>
</g>
</g>
<!-- Node18&#45;&gt;Node20 -->
<g id="edge33" class="edge">
<title>Node18&#45;&gt;Node20</title>
<path fill="none" stroke="midnightblue" d="M1101.02,-336.34C1108.03,-327.49 1118.9,-313.22 1127,-300 1148.52,-264.88 1169.14,-221.2 1180.02,-197.1"/>
<polygon fill="midnightblue" stroke="midnightblue" points="1183.3,-198.33 1184.18,-187.77 1176.91,-195.48 1183.3,-198.33"/>
</g>
<!-- Node18&#45;&gt;Node21 -->
<g id="edge39" class="edge">
<title>Node18&#45;&gt;Node21</title>
<path fill="none" stroke="midnightblue" d="M1070.37,-342.4C991.87,-333.74 739.33,-305.91 642.39,-295.23"/>
<polygon fill="midnightblue" stroke="midnightblue" points="642.48,-291.72 632.16,-294.1 641.72,-298.68 642.48,-291.72"/>
</g>
<!-- Node20&#45;&gt;Node5 -->
<g id="edge35" class="edge">
<title>Node20&#45;&gt;Node5</title>
<path fill="none" stroke="midnightblue" d="M1183.97,-168.08C1172.11,-141.83 1137.19,-64.55 1121.19,-29.12"/>
<polygon fill="midnightblue" stroke="midnightblue" points="1124.18,-27.24 1116.87,-19.57 1117.8,-30.12 1124.18,-27.24"/>
</g>
<!-- Node20&#45;&gt;Node6 -->
<g id="edge36" class="edge">
<title>Node20&#45;&gt;Node6</title>
<path fill="none" stroke="midnightblue" d="M1141.13,-171.97C1040.22,-161.14 804.54,-135.83 717.8,-126.52"/>
<polygon fill="midnightblue" stroke="midnightblue" points="718.06,-123.03 707.74,-125.44 717.31,-129.99 718.06,-123.03"/>
</g>
<!-- Node20&#45;&gt;Node8 -->
<g id="edge37" class="edge">
<title>Node20&#45;&gt;Node8</title>
<path fill="none" stroke="midnightblue" d="M1158.45,-168.43C1111.73,-155.09 1017.81,-129.11 937,-112 858.7,-95.42 766.63,-81.3 712.19,-73.5"/>
<polygon fill="midnightblue" stroke="midnightblue" points="712.55,-70.01 702.15,-72.07 711.56,-76.94 712.55,-70.01"/>
</g>
<!-- Node20&#45;&gt;Node19 -->
<g id="edge34" class="edge">
<title>Node20&#45;&gt;Node19</title>
<path fill="none" stroke="midnightblue" d="M1195.76,-168.08C1202.54,-160.3 1212.54,-148.8 1220.76,-139.37"/>
<polygon fill="midnightblue" stroke="midnightblue" points="1223.46,-141.59 1227.38,-131.75 1218.18,-137 1223.46,-141.59"/>
</g>
<!-- Node21&#45;&gt;Node2 -->
<g id="edge44" class="edge">
<title>Node21&#45;&gt;Node2</title>
<path fill="none" stroke="midnightblue" d="M575.93,-289.22C494.44,-289.35 259.72,-285.98 198,-244 162.25,-219.68 144.99,-168.82 137.99,-141.42"/>
<polygon fill="midnightblue" stroke="midnightblue" points="141.37,-140.49 135.67,-131.56 134.56,-142.1 141.37,-140.49"/>
</g>
<!-- Node21&#45;&gt;Node5 -->
<g id="edge47" class="edge">
<title>Node21&#45;&gt;Node5</title>
<path fill="none" stroke="midnightblue" d="M632.1,-287.48C710.09,-281.74 931.35,-254.86 1051,-132 1080.4,-101.81 1098.94,-54.9 1107.48,-29.25"/>
<polygon fill="midnightblue" stroke="midnightblue" points="1110.83,-30.27 1110.52,-19.68 1104.16,-28.15 1110.83,-30.27"/>
</g>
<!-- Node21&#45;&gt;Node6 -->
<g id="edge48" class="edge">
<title>Node21&#45;&gt;Node6</title>
<path fill="none" stroke="midnightblue" d="M615.52,-280.1C629.81,-267.89 651.23,-245.07 642,-224 632.54,-202.39 612.46,-209.61 603,-188 599.43,-179.86 598.47,-175.65 603,-168 613.75,-149.84 634.71,-138.52 652.75,-131.78"/>
<polygon fill="midnightblue" stroke="midnightblue" points="654.05,-135.03 662.39,-128.49 651.79,-128.41 654.05,-135.03"/>
</g>
<!-- Node21&#45;&gt;Node8 -->
<g id="edge49" class="edge">
<title>Node21&#45;&gt;Node8</title>
<path fill="none" stroke="midnightblue" d="M575.86,-288.15C517.66,-285.72 387.21,-276.69 360,-244 354.31,-237.17 355.83,-231.85 360,-224 370.44,-204.35 422.79,-177.31 443,-168 497.45,-142.91 518.83,-157.68 573,-132 601.1,-118.68 629.78,-96.84 647.48,-82.19"/>
<polygon fill="midnightblue" stroke="midnightblue" points="649.85,-84.77 655.24,-75.65 645.34,-79.42 649.85,-84.77"/>
</g>
<!-- Node21&#45;&gt;Node9 -->
<g id="edge50" class="edge">
<title>Node21&#45;&gt;Node9</title>
<path fill="none" stroke="midnightblue" d="M575.79,-288.56C506.23,-286.94 321.32,-279.36 172,-244 92.48,-225.17 0,-260.72 0,-179 0,-179 0,-179 0,-121 0,-50.84 97.72,-24.8 153.73,-15.64"/>
<polygon fill="midnightblue" stroke="midnightblue" points="154.31,-19.09 163.67,-14.12 153.26,-12.17 154.31,-19.09"/>
</g>
<!-- Node21&#45;&gt;Node10 -->
<g id="edge66" class="edge">
<title>Node21&#45;&gt;Node10</title>
<path fill="none" stroke="midnightblue" d="M575.78,-287.91C489.46,-284.3 233.42,-271.36 209,-244 183.13,-215.01 244.15,-195.26 285.28,-185.68"/>
<polygon fill="midnightblue" stroke="midnightblue" points="286.24,-189.05 295.24,-183.46 284.72,-182.22 286.24,-189.05"/>
</g>
<!-- Node21&#45;&gt;Node11 -->
<g id="edge40" class="edge">
<title>Node21&#45;&gt;Node11</title>
<path fill="none" stroke="midnightblue" d="M632.16,-282.38C660.72,-275.09 705.76,-261.96 742,-244 781.22,-224.57 791.88,-218.78 823,-188 837.39,-173.76 850.37,-154.54 858.85,-140.7"/>
<polygon fill="midnightblue" stroke="midnightblue" points="862.08,-142.1 864.18,-131.72 856.06,-138.53 862.08,-142.1"/>
</g>
<!-- Node21&#45;&gt;Node16 -->
<g id="edge42" class="edge">
<title>Node21&#45;&gt;Node16</title>
<path fill="none" stroke="midnightblue" d="M632.19,-281.72C670.5,-271.82 738.91,-254.14 779.7,-243.6"/>
<polygon fill="midnightblue" stroke="midnightblue" points="780.64,-246.98 789.45,-241.09 778.89,-240.2 780.64,-246.98"/>
</g>
<!-- Node22 -->
<g id="node22" class="node">
<title>Node22</title>
<g id="a_node22"><a xlink:title=" ">
<polygon fill="white" stroke="#bfbfbf" points="368.5,-224.5 368.5,-243.5 417.5,-243.5 417.5,-224.5 368.5,-224.5"/>
<text text-anchor="middle" x="393" y="-231.5" font-family="Helvetica,sans-Serif" font-size="10.00">cctype</text>
</a>
</g>
</g>
<!-- Node21&#45;&gt;Node22 -->
<g id="edge41" class="edge">
<title>Node21&#45;&gt;Node22</title>
<path fill="none" stroke="midnightblue" d="M575.78,-281.91C542.67,-273.58 485.88,-259.23 427.3,-244.06"/>
<polygon fill="midnightblue" stroke="midnightblue" points="428.06,-240.64 417.51,-241.52 426.31,-247.42 428.06,-240.64"/>
</g>
<!-- Node23 -->
<g id="node23" class="node">
<title>Node23</title>
<g id="a_node23"><a xlink:title=" ">
<polygon fill="white" stroke="#bfbfbf" points="436,-224.5 436,-243.5 486,-243.5 486,-224.5 436,-224.5"/>
<text text-anchor="middle" x="461" y="-231.5" font-family="Helvetica,sans-Serif" font-size="10.00">cstring</text>
</a>
</g>
</g>
<!-- Node21&#45;&gt;Node23 -->
<g id="edge43" class="edge">
<title>Node21&#45;&gt;Node23</title>
<path fill="none" stroke="midnightblue" d="M581.34,-280.44C557.6,-271.48 520.09,-257.31 493.26,-247.18"/>
<polygon fill="midnightblue" stroke="midnightblue" points="494.14,-243.77 483.55,-243.52 491.67,-250.32 494.14,-243.77"/>
</g>
<!-- Node24 -->
<g id="node24" class="node">
<title>Node24</title>
<g id="a_node24"><a xlink:title=" ">
<polygon fill="white" stroke="#bfbfbf" points="504.5,-224.5 504.5,-243.5 557.5,-243.5 557.5,-224.5 504.5,-224.5"/>
<text text-anchor="middle" x="531" y="-231.5" font-family="Helvetica,sans-Serif" font-size="10.00">iterator</text>
</a>
</g>
</g>
<!-- Node21&#45;&gt;Node24 -->
<g id="edge45" class="edge">
<title>Node21&#45;&gt;Node24</title>
<path fill="none" stroke="midnightblue" d="M592.27,-280.32C581.16,-272.11 564.26,-259.6 551.02,-249.81"/>
<polygon fill="midnightblue" stroke="midnightblue" points="553.06,-246.97 542.94,-243.83 548.9,-252.59 553.06,-246.97"/>
</g>
<!-- Node25 -->
<g id="node25" class="node">
<title>Node25</title>
<g id="a_node25"><a xlink:title=" ">
<polygon fill="white" stroke="#bfbfbf" points="575.5,-224.5 575.5,-243.5 632.5,-243.5 632.5,-224.5 575.5,-224.5"/>
<text text-anchor="middle" x="604" y="-231.5" font-family="Helvetica,sans-Serif" font-size="10.00">ostream</text>
</a>
</g>
</g>
<!-- Node21&#45;&gt;Node25 -->
<g id="edge46" class="edge">
<title>Node21&#45;&gt;Node25</title>
<path fill="none" stroke="midnightblue" d="M604,-280.08C604,-273.01 604,-262.86 604,-253.99"/>
<polygon fill="midnightblue" stroke="midnightblue" points="607.5,-253.75 604,-243.75 600.5,-253.75 607.5,-253.75"/>
</g>
<!-- Node26 -->
<g id="node26" class="node">
<title>Node26</title>
<g id="a_node26"><a xlink:href="env_8h.html" target="_top" xlink:title=" ">
<polygon fill="white" stroke="black" points="689.5,-224.5 689.5,-243.5 732.5,-243.5 732.5,-224.5 689.5,-224.5"/>
<text text-anchor="middle" x="711" y="-231.5" font-family="Helvetica,sans-Serif" font-size="10.00">env.h</text>
</a>
</g>
</g>
<!-- Node21&#45;&gt;Node26 -->
<g id="edge51" class="edge">
<title>Node21&#45;&gt;Node26</title>
<path fill="none" stroke="midnightblue" d="M621.19,-280.32C638.35,-271.66 664.95,-258.24 684.75,-248.25"/>
<polygon fill="midnightblue" stroke="midnightblue" points="686.5,-251.28 693.85,-243.65 683.35,-245.04 686.5,-251.28"/>
</g>
<!-- Node26&#45;&gt;Node3 -->
<g id="edge52" class="edge">
<title>Node26&#45;&gt;Node3</title>
<path fill="none" stroke="midnightblue" d="M718.15,-224.36C724.77,-215.76 734.16,-201.87 738,-188 741.93,-173.82 739.06,-133.56 734,-112 727.85,-85.81 726.04,-78.31 711,-56 703.54,-44.93 693.03,-34.4 683.94,-26.31"/>
<polygon fill="midnightblue" stroke="midnightblue" points="685.99,-23.46 676.11,-19.62 681.44,-28.78 685.99,-23.46"/>
</g>
<!-- Node26&#45;&gt;Node5 -->
<g id="edge53" class="edge">
<title>Node26&#45;&gt;Node5</title>
<path fill="none" stroke="midnightblue" d="M727.91,-224.46C761.64,-207.35 839.57,-167.49 904,-132 972.22,-94.42 1051.48,-47.67 1089.84,-24.84"/>
<polygon fill="midnightblue" stroke="midnightblue" points="1091.88,-27.7 1098.68,-19.58 1088.3,-21.69 1091.88,-27.7"/>
</g>
<!-- Node26&#45;&gt;Node8 -->
<g id="edge55" class="edge">
<title>Node26&#45;&gt;Node8</title>
<path fill="none" stroke="midnightblue" d="M714.05,-224.28C720.72,-203.64 734.66,-150.64 717,-112 711.22,-99.36 699.95,-88.91 689.37,-81.27"/>
<polygon fill="midnightblue" stroke="midnightblue" points="691.04,-78.18 680.78,-75.53 687.15,-84 691.04,-78.18"/>
</g>
<!-- Node26&#45;&gt;Node9 -->
<g id="edge56" class="edge">
<title>Node26&#45;&gt;Node9</title>
<path fill="none" stroke="midnightblue" d="M689.27,-230C675.69,-228.17 657.84,-225.84 642,-224 563.23,-214.87 352.9,-232.09 287,-188 257.8,-168.47 215.72,-70.06 199.12,-29.02"/>
<polygon fill="midnightblue" stroke="midnightblue" points="202.36,-27.68 195.39,-19.69 195.86,-30.28 202.36,-27.68"/>
</g>
<!-- Node27 -->
<g id="node27" class="node">
<title>Node27</title>
<g id="a_node27"><a xlink:title=" ">
<polygon fill="white" stroke="#bfbfbf" points="611.5,-168.5 611.5,-187.5 704.5,-187.5 704.5,-168.5 611.5,-168.5"/>
<text text-anchor="middle" x="658" y="-175.5" font-family="Helvetica,sans-Serif" font-size="10.00">unordered_map</text>
</a>
</g>
</g>
<!-- Node26&#45;&gt;Node27 -->
<g id="edge54" class="edge">
<title>Node26&#45;&gt;Node27</title>
<path fill="none" stroke="midnightblue" d="M702.25,-224.08C694.53,-216.22 683.1,-204.57 673.78,-195.08"/>
<polygon fill="midnightblue" stroke="midnightblue" points="676.09,-192.44 666.59,-187.75 671.1,-197.34 676.09,-192.44"/>
</g>
<!-- Node28 -->
<g id="node28" class="node">
<title>Node28</title>
<g id="a_node28"><a xlink:href="_func_def_8h.html" target="_top" xlink:title=" ">
<polygon fill="white" stroke="black" points="451.5,-168.5 451.5,-187.5 516.5,-187.5 516.5,-168.5 451.5,-168.5"/>
<text text-anchor="middle" x="484" y="-175.5" font-family="Helvetica,sans-Serif" font-size="10.00">FuncDef.h</text>
</a>
</g>
</g>
<!-- Node26&#45;&gt;Node28 -->
<g id="edge57" class="edge">
<title>Node26&#45;&gt;Node28</title>
<path fill="none" stroke="midnightblue" d="M689.23,-227.82C651.83,-218.93 574.74,-200.59 526.42,-189.09"/>
<polygon fill="midnightblue" stroke="midnightblue" points="527.11,-185.66 516.57,-186.75 525.49,-192.47 527.11,-185.66"/>
</g>
<!-- Node28&#45;&gt;Node6 -->
<g id="edge58" class="edge">
<title>Node28&#45;&gt;Node6</title>
<path fill="none" stroke="midnightblue" d="M515.85,-168.44C553.19,-158.41 614.74,-141.88 652.4,-131.76"/>
<polygon fill="midnightblue" stroke="midnightblue" points="653.6,-135.06 662.34,-129.09 651.78,-128.3 653.6,-135.06"/>
</g>
<!-- Node28&#45;&gt;Node8 -->
<g id="edge65" class="edge">
<title>Node28&#45;&gt;Node8</title>
<path fill="none" stroke="midnightblue" d="M516.72,-170.32C543.53,-163.72 581.55,-151.71 610,-132 628.34,-119.3 644.17,-98.98 654.08,-84.44"/>
<polygon fill="midnightblue" stroke="midnightblue" points="657.15,-86.14 659.7,-75.86 651.29,-82.3 657.15,-86.14"/>
</g>
<!-- Node29 -->
<g id="node29" class="node">
<title>Node29</title>
<g id="a_node29"><a xlink:href="_block_8h.html" target="_top" xlink:title=" ">
<polygon fill="white" stroke="black" points="476.5,-112.5 476.5,-131.5 529.5,-131.5 529.5,-112.5 476.5,-112.5"/>
<text text-anchor="middle" x="503" y="-119.5" font-family="Helvetica,sans-Serif" font-size="10.00">Block.h</text>
</a>
</g>
</g>
<!-- Node28&#45;&gt;Node29 -->
<g id="edge59" class="edge">
<title>Node28&#45;&gt;Node29</title>
<path fill="none" stroke="midnightblue" d="M487.14,-168.08C489.68,-160.85 493.36,-150.41 496.53,-141.4"/>
<polygon fill="midnightblue" stroke="midnightblue" points="499.9,-142.35 499.92,-131.75 493.3,-140.02 499.9,-142.35"/>
</g>
<!-- Node29&#45;&gt;Node3 -->
<g id="edge60" class="edge">
<title>Node29&#45;&gt;Node3</title>
<path fill="none" stroke="midnightblue" d="M499.23,-112.39C493.96,-98.87 486.36,-72.52 499,-56 514.45,-35.8 582.84,-22.56 626.87,-15.96"/>
<polygon fill="midnightblue" stroke="midnightblue" points="627.56,-19.4 636.95,-14.5 626.56,-12.47 627.56,-19.4"/>
</g>
<!-- Node29&#45;&gt;Node5 -->
<g id="edge61" class="edge">
<title>Node29&#45;&gt;Node5</title>
<path fill="none" stroke="midnightblue" d="M518.24,-112.24C548.47,-94.89 613.6,-57.68 619,-56 705.82,-29.07 985.4,-15.95 1080.77,-12.18"/>
<polygon fill="midnightblue" stroke="midnightblue" points="1081.1,-15.67 1090.96,-11.79 1080.83,-8.68 1081.1,-15.67"/>
</g>
<!-- Node29&#45;&gt;Node8 -->
<g id="edge63" class="edge">
<title>Node29&#45;&gt;Node8</title>
<path fill="none" stroke="midnightblue" d="M528.67,-112.44C555.92,-103.36 599.18,-88.94 629.65,-78.78"/>
<polygon fill="midnightblue" stroke="midnightblue" points="631.07,-82 639.45,-75.52 628.86,-75.36 631.07,-82"/>
</g>
<!-- Node29&#45;&gt;Node14 -->
<g id="edge62" class="edge">
<title>Node29&#45;&gt;Node14</title>
<path fill="none" stroke="midnightblue" d="M487.09,-112.32C471.36,-103.74 447.06,-90.49 428.79,-80.52"/>
<polygon fill="midnightblue" stroke="midnightblue" points="430.32,-77.37 419.87,-75.65 426.97,-83.52 430.32,-77.37"/>
</g>
<!-- Node30 -->
<g id="node30" class="node">
<title>Node30</title>
<g id="a_node30"><a xlink:title=" ">
<polygon fill="white" stroke="#bfbfbf" points="508,-56.5 508,-75.5 572,-75.5 572,-56.5 508,-56.5"/>
<text text-anchor="middle" x="540" y="-63.5" font-family="Helvetica,sans-Serif" font-size="10.00">algorithm</text>
</a>
</g>
</g>
<!-- Node29&#45;&gt;Node30 -->
<g id="edge64" class="edge">
<title>Node29&#45;&gt;Node30</title>
<path fill="none" stroke="midnightblue" d="M509.11,-112.08C514.28,-104.53 521.85,-93.49 528.19,-84.23"/>
<polygon fill="midnightblue" stroke="midnightblue" points="531.24,-85.98 534,-75.75 525.46,-82.02 531.24,-85.98"/>
</g>
</g>
</svg>
